%TF.GenerationSoftware,KiCad,Pcbnew,7.0.9*%
%TF.CreationDate,2024-03-23T08:09:54+09:00*%
%TF.ProjectId,03-front,30332d66-726f-46e7-942e-6b696361645f,rev?*%
%TF.SameCoordinates,Original*%
%TF.FileFunction,Copper,L2,Bot*%
%TF.FilePolarity,Positive*%
%FSLAX46Y46*%
G04 Gerber Fmt 4.6, Leading zero omitted, Abs format (unit mm)*
G04 Created by KiCad (PCBNEW 7.0.9) date 2024-03-23 08:09:54*
%MOMM*%
%LPD*%
G01*
G04 APERTURE LIST*
%TA.AperFunction,ComponentPad*%
%ADD10R,1.800000X1.800000*%
%TD*%
%TA.AperFunction,ComponentPad*%
%ADD11C,1.800000*%
%TD*%
%TA.AperFunction,ComponentPad*%
%ADD12C,1.524000*%
%TD*%
%TA.AperFunction,ComponentPad*%
%ADD13R,1.700000X1.700000*%
%TD*%
%TA.AperFunction,ComponentPad*%
%ADD14O,1.700000X1.700000*%
%TD*%
%TA.AperFunction,ViaPad*%
%ADD15C,0.800000*%
%TD*%
%TA.AperFunction,Conductor*%
%ADD16C,0.500000*%
%TD*%
%TA.AperFunction,Conductor*%
%ADD17C,1.000000*%
%TD*%
G04 APERTURE END LIST*
D10*
%TO.P,D1,1,K*%
%TO.N,GND*%
X88900000Y-93980000D03*
D11*
%TO.P,D1,2,A*%
%TO.N,Net-(D1-A)*%
X88900000Y-91440000D03*
%TD*%
D12*
%TO.P,U4,1,Anode*%
%TO.N,+3V3*%
X123730000Y-97950000D03*
%TO.P,U4,2,Cathode*%
%TO.N,Net-(U4-Cathode)*%
X126270000Y-97950000D03*
%TO.P,U4,3,Emitter*%
%TO.N,GND*%
X123730000Y-102050000D03*
%TO.P,U4,4,Collector*%
%TO.N,photo1*%
X126270000Y-102050000D03*
%TD*%
%TO.P,U3,1,Anode*%
%TO.N,+3V3*%
X98730000Y-97950000D03*
%TO.P,U3,2,Cathode*%
%TO.N,Net-(U3-Cathode)*%
X101270000Y-97950000D03*
%TO.P,U3,3,Emitter*%
%TO.N,GND*%
X98730000Y-102050000D03*
%TO.P,U3,4,Collector*%
%TO.N,photo1*%
X101270000Y-102050000D03*
%TD*%
%TO.P,U6,1,+V*%
%TO.N,+3V3*%
X85090000Y-102870000D03*
%TO.P,U6,2,SDA*%
%TO.N,SDA*%
X87630000Y-102870000D03*
%TO.P,U6,3,SCL*%
%TO.N,SCL*%
X90170000Y-102870000D03*
%TO.P,U6,4,GND*%
%TO.N,GND*%
X92710000Y-102870000D03*
%TD*%
%TO.P,U2,1,Anode*%
%TO.N,+3V3*%
X73730000Y-97950000D03*
%TO.P,U2,2,Cathode*%
%TO.N,Net-(U2-Cathode)*%
X76270000Y-97950000D03*
%TO.P,U2,3,Emitter*%
%TO.N,GND*%
X73730000Y-102050000D03*
%TO.P,U2,4,Collector*%
%TO.N,photo1*%
X76270000Y-102050000D03*
%TD*%
%TO.P,U5,1,Anode*%
%TO.N,+3V3*%
X148730000Y-97950000D03*
%TO.P,U5,2,Cathode*%
%TO.N,Net-(U5-Cathode)*%
X151270000Y-97950000D03*
%TO.P,U5,3,Emitter*%
%TO.N,GND*%
X148730000Y-102050000D03*
%TO.P,U5,4,Collector*%
%TO.N,photo1*%
X151270000Y-102050000D03*
%TD*%
%TO.P,U1,1,Anode*%
%TO.N,+3V3*%
X48730000Y-97950000D03*
%TO.P,U1,2,Cathode*%
%TO.N,Net-(U1-Cathode)*%
X51270000Y-97950000D03*
%TO.P,U1,3,Emitter*%
%TO.N,GND*%
X48730000Y-102050000D03*
%TO.P,U1,4,Collector*%
%TO.N,photo1*%
X51270000Y-102050000D03*
%TD*%
D13*
%TO.P,REF\u002A\u002A,1*%
%TO.N,N/C*%
X57150000Y-90805000D03*
D14*
%TO.P,REF\u002A\u002A,2*%
X59690000Y-90805000D03*
%TO.P,REF\u002A\u002A,3*%
X62230000Y-90805000D03*
%TO.P,REF\u002A\u002A,4*%
X64770000Y-90805000D03*
%TO.P,REF\u002A\u002A,5*%
X67310000Y-90805000D03*
%TO.P,REF\u002A\u002A,6*%
X69850000Y-90805000D03*
%TO.P,REF\u002A\u002A,7*%
X72390000Y-90805000D03*
%TO.P,REF\u002A\u002A,8*%
X74930000Y-90805000D03*
%TO.P,REF\u002A\u002A,9*%
X77470000Y-90805000D03*
%TO.P,REF\u002A\u002A,10*%
X80010000Y-90805000D03*
%TD*%
D13*
%TO.P,J1,1,Pin_1*%
%TO.N,+3V3*%
X99060000Y-90875000D03*
D14*
%TO.P,J1,2,Pin_2*%
%TO.N,photo1*%
X101600000Y-90875000D03*
%TO.P,J1,3,Pin_3*%
%TO.N,GND*%
X104140000Y-90875000D03*
%TO.P,J1,4,Pin_4*%
X106680000Y-90875000D03*
%TO.P,J1,5,Pin_5*%
X109220000Y-90875000D03*
%TO.P,J1,6,Pin_6*%
X111760000Y-90875000D03*
%TO.P,J1,7,Pin_7*%
X114300000Y-90875000D03*
%TO.P,J1,8,Pin_8*%
%TO.N,SDA*%
X116840000Y-90875000D03*
%TO.P,J1,9,Pin_9*%
%TO.N,SCL*%
X119380000Y-90875000D03*
%TO.P,J1,10,Pin_10*%
%TO.N,GND*%
X121920000Y-90875000D03*
%TD*%
D15*
%TO.N,+3V3*%
X85090000Y-93980000D03*
%TO.N,photo1*%
X67310000Y-96520000D03*
X93980000Y-100330000D03*
X88900000Y-97790000D03*
%TO.N,GND*%
X63500000Y-97790000D03*
X119380000Y-99060000D03*
%TD*%
D16*
%TO.N,+3V3*%
X85090000Y-102870000D02*
X85090000Y-93980000D01*
%TO.N,photo1*%
X67310000Y-96520000D02*
X67310000Y-98298000D01*
X115120000Y-102050000D02*
X116840000Y-100330000D01*
X99550000Y-100330000D02*
X101270000Y-102050000D01*
X68326000Y-99314000D02*
X69850000Y-100838000D01*
X101605000Y-90875000D02*
X97930000Y-94550000D01*
X92140000Y-94550000D02*
X88900000Y-97790000D01*
X136710000Y-102050000D02*
X138430000Y-100330000D01*
X60960000Y-100838000D02*
X69850000Y-100838000D01*
X74510000Y-93130000D02*
X68326000Y-99314000D01*
X149550000Y-100330000D02*
X151270000Y-102050000D01*
X69850000Y-100838000D02*
X75058000Y-100838000D01*
X101270000Y-102050000D02*
X115120000Y-102050000D01*
X97930000Y-94550000D02*
X92140000Y-94550000D01*
X67310000Y-98298000D02*
X68326000Y-99314000D01*
X75058000Y-100838000D02*
X76270000Y-102050000D01*
X126270000Y-102050000D02*
X136710000Y-102050000D01*
X138430000Y-100330000D02*
X149550000Y-100330000D01*
X124550000Y-100330000D02*
X126270000Y-102050000D01*
X93980000Y-100330000D02*
X99550000Y-100330000D01*
X51270000Y-102050000D02*
X52482000Y-100838000D01*
X52482000Y-100838000D02*
X60960000Y-100838000D01*
X116840000Y-100330000D02*
X124550000Y-100330000D01*
D17*
%TO.N,GND*%
X121925000Y-90875000D02*
X121925000Y-93975000D01*
X104145000Y-90875000D02*
X114305000Y-90875000D01*
X63500000Y-97790000D02*
X73660000Y-87630000D01*
X115575000Y-88335000D02*
X120655000Y-88335000D01*
X121925000Y-89605000D02*
X121925000Y-90875000D01*
X120655000Y-88335000D02*
X121925000Y-89605000D01*
X114305000Y-90875000D02*
X114305000Y-89605000D01*
X105980000Y-87630000D02*
X109225000Y-90875000D01*
X119380000Y-96520000D02*
X119380000Y-99060000D01*
X114305000Y-89605000D02*
X115575000Y-88335000D01*
X121925000Y-93975000D02*
X119380000Y-96520000D01*
X73660000Y-87630000D02*
X105980000Y-87630000D01*
D16*
%TO.N,SDA*%
X95250000Y-95250000D02*
X112470000Y-95250000D01*
X87630000Y-102870000D02*
X95250000Y-95250000D01*
X112470000Y-95250000D02*
X116845000Y-90875000D01*
%TO.N,SCL*%
X90170000Y-102870000D02*
X96520000Y-96520000D01*
X96520000Y-96520000D02*
X113740000Y-96520000D01*
X113740000Y-96520000D02*
X119385000Y-90875000D01*
%TD*%
M02*
