%TF.GenerationSoftware,KiCad,Pcbnew,7.0.9*%
%TF.CreationDate,2024-10-01T14:40:40+09:00*%
%TF.ProjectId,03-front,30332d66-726f-46e7-942e-6b696361645f,rev?*%
%TF.SameCoordinates,Original*%
%TF.FileFunction,Legend,Bot*%
%TF.FilePolarity,Positive*%
%FSLAX46Y46*%
G04 Gerber Fmt 4.6, Leading zero omitted, Abs format (unit mm)*
G04 Created by KiCad (PCBNEW 7.0.9) date 2024-10-01 14:40:40*
%MOMM*%
%LPD*%
G01*
G04 APERTURE LIST*
G04 Aperture macros list*
%AMRoundRect*
0 Rectangle with rounded corners*
0 $1 Rounding radius*
0 $2 $3 $4 $5 $6 $7 $8 $9 X,Y pos of 4 corners*
0 Add a 4 corners polygon primitive as box body*
4,1,4,$2,$3,$4,$5,$6,$7,$8,$9,$2,$3,0*
0 Add four circle primitives for the rounded corners*
1,1,$1+$1,$2,$3*
1,1,$1+$1,$4,$5*
1,1,$1+$1,$6,$7*
1,1,$1+$1,$8,$9*
0 Add four rect primitives between the rounded corners*
20,1,$1+$1,$2,$3,$4,$5,0*
20,1,$1+$1,$4,$5,$6,$7,0*
20,1,$1+$1,$6,$7,$8,$9,0*
20,1,$1+$1,$8,$9,$2,$3,0*%
G04 Aperture macros list end*
%ADD10C,0.150000*%
%ADD11C,0.120000*%
%ADD12C,0.100000*%
%ADD13C,1.524000*%
%ADD14C,3.200000*%
%ADD15R,1.700000X1.700000*%
%ADD16O,1.700000X1.700000*%
%ADD17RoundRect,0.140000X0.219203X0.021213X0.021213X0.219203X-0.219203X-0.021213X-0.021213X-0.219203X0*%
%ADD18RoundRect,0.250000X-0.725000X0.600000X-0.725000X-0.600000X0.725000X-0.600000X0.725000X0.600000X0*%
%ADD19O,1.950000X1.700000*%
%ADD20RoundRect,0.250000X0.503814X0.132583X0.132583X0.503814X-0.503814X-0.132583X-0.132583X-0.503814X0*%
%ADD21RoundRect,0.200000X-0.200000X-0.275000X0.200000X-0.275000X0.200000X0.275000X-0.200000X0.275000X0*%
%ADD22RoundRect,0.140000X0.021213X-0.219203X0.219203X-0.021213X-0.021213X0.219203X-0.219203X0.021213X0*%
%ADD23RoundRect,0.075000X-0.441942X-0.548008X0.548008X0.441942X0.441942X0.548008X-0.548008X-0.441942X0*%
%ADD24RoundRect,0.075000X0.441942X-0.548008X0.548008X-0.441942X-0.441942X0.548008X-0.548008X0.441942X0*%
%ADD25RoundRect,0.200000X0.275000X-0.200000X0.275000X0.200000X-0.275000X0.200000X-0.275000X-0.200000X0*%
%ADD26RoundRect,0.140000X-0.219203X-0.021213X-0.021213X-0.219203X0.219203X0.021213X0.021213X0.219203X0*%
%ADD27RoundRect,0.140000X-0.021213X0.219203X-0.219203X0.021213X0.021213X-0.219203X0.219203X-0.021213X0*%
G04 APERTURE END LIST*
D10*
X115296792Y-119249819D02*
X115630125Y-118773628D01*
X115868220Y-119249819D02*
X115868220Y-118249819D01*
X115868220Y-118249819D02*
X115487268Y-118249819D01*
X115487268Y-118249819D02*
X115392030Y-118297438D01*
X115392030Y-118297438D02*
X115344411Y-118345057D01*
X115344411Y-118345057D02*
X115296792Y-118440295D01*
X115296792Y-118440295D02*
X115296792Y-118583152D01*
X115296792Y-118583152D02*
X115344411Y-118678390D01*
X115344411Y-118678390D02*
X115392030Y-118726009D01*
X115392030Y-118726009D02*
X115487268Y-118773628D01*
X115487268Y-118773628D02*
X115868220Y-118773628D01*
X114296792Y-119154580D02*
X114344411Y-119202200D01*
X114344411Y-119202200D02*
X114487268Y-119249819D01*
X114487268Y-119249819D02*
X114582506Y-119249819D01*
X114582506Y-119249819D02*
X114725363Y-119202200D01*
X114725363Y-119202200D02*
X114820601Y-119106961D01*
X114820601Y-119106961D02*
X114868220Y-119011723D01*
X114868220Y-119011723D02*
X114915839Y-118821247D01*
X114915839Y-118821247D02*
X114915839Y-118678390D01*
X114915839Y-118678390D02*
X114868220Y-118487914D01*
X114868220Y-118487914D02*
X114820601Y-118392676D01*
X114820601Y-118392676D02*
X114725363Y-118297438D01*
X114725363Y-118297438D02*
X114582506Y-118249819D01*
X114582506Y-118249819D02*
X114487268Y-118249819D01*
X114487268Y-118249819D02*
X114344411Y-118297438D01*
X114344411Y-118297438D02*
X114296792Y-118345057D01*
X113582506Y-118249819D02*
X113582506Y-118964104D01*
X113582506Y-118964104D02*
X113630125Y-119106961D01*
X113630125Y-119106961D02*
X113725363Y-119202200D01*
X113725363Y-119202200D02*
X113868220Y-119249819D01*
X113868220Y-119249819D02*
X113963458Y-119249819D01*
X112392029Y-118345057D02*
X112344410Y-118297438D01*
X112344410Y-118297438D02*
X112249172Y-118249819D01*
X112249172Y-118249819D02*
X112011077Y-118249819D01*
X112011077Y-118249819D02*
X111915839Y-118297438D01*
X111915839Y-118297438D02*
X111868220Y-118345057D01*
X111868220Y-118345057D02*
X111820601Y-118440295D01*
X111820601Y-118440295D02*
X111820601Y-118535533D01*
X111820601Y-118535533D02*
X111868220Y-118678390D01*
X111868220Y-118678390D02*
X112439648Y-119249819D01*
X112439648Y-119249819D02*
X111820601Y-119249819D01*
X111201553Y-118249819D02*
X111106315Y-118249819D01*
X111106315Y-118249819D02*
X111011077Y-118297438D01*
X111011077Y-118297438D02*
X110963458Y-118345057D01*
X110963458Y-118345057D02*
X110915839Y-118440295D01*
X110915839Y-118440295D02*
X110868220Y-118630771D01*
X110868220Y-118630771D02*
X110868220Y-118868866D01*
X110868220Y-118868866D02*
X110915839Y-119059342D01*
X110915839Y-119059342D02*
X110963458Y-119154580D01*
X110963458Y-119154580D02*
X111011077Y-119202200D01*
X111011077Y-119202200D02*
X111106315Y-119249819D01*
X111106315Y-119249819D02*
X111201553Y-119249819D01*
X111201553Y-119249819D02*
X111296791Y-119202200D01*
X111296791Y-119202200D02*
X111344410Y-119154580D01*
X111344410Y-119154580D02*
X111392029Y-119059342D01*
X111392029Y-119059342D02*
X111439648Y-118868866D01*
X111439648Y-118868866D02*
X111439648Y-118630771D01*
X111439648Y-118630771D02*
X111392029Y-118440295D01*
X111392029Y-118440295D02*
X111344410Y-118345057D01*
X111344410Y-118345057D02*
X111296791Y-118297438D01*
X111296791Y-118297438D02*
X111201553Y-118249819D01*
X110487267Y-118345057D02*
X110439648Y-118297438D01*
X110439648Y-118297438D02*
X110344410Y-118249819D01*
X110344410Y-118249819D02*
X110106315Y-118249819D01*
X110106315Y-118249819D02*
X110011077Y-118297438D01*
X110011077Y-118297438D02*
X109963458Y-118345057D01*
X109963458Y-118345057D02*
X109915839Y-118440295D01*
X109915839Y-118440295D02*
X109915839Y-118535533D01*
X109915839Y-118535533D02*
X109963458Y-118678390D01*
X109963458Y-118678390D02*
X110534886Y-119249819D01*
X110534886Y-119249819D02*
X109915839Y-119249819D01*
X109011077Y-118249819D02*
X109487267Y-118249819D01*
X109487267Y-118249819D02*
X109534886Y-118726009D01*
X109534886Y-118726009D02*
X109487267Y-118678390D01*
X109487267Y-118678390D02*
X109392029Y-118630771D01*
X109392029Y-118630771D02*
X109153934Y-118630771D01*
X109153934Y-118630771D02*
X109058696Y-118678390D01*
X109058696Y-118678390D02*
X109011077Y-118726009D01*
X109011077Y-118726009D02*
X108963458Y-118821247D01*
X108963458Y-118821247D02*
X108963458Y-119059342D01*
X108963458Y-119059342D02*
X109011077Y-119154580D01*
X109011077Y-119154580D02*
X109058696Y-119202200D01*
X109058696Y-119202200D02*
X109153934Y-119249819D01*
X109153934Y-119249819D02*
X109392029Y-119249819D01*
X109392029Y-119249819D02*
X109487267Y-119202200D01*
X109487267Y-119202200D02*
X109534886Y-119154580D01*
X107915838Y-118583152D02*
X107534886Y-118583152D01*
X107772981Y-118249819D02*
X107772981Y-119106961D01*
X107772981Y-119106961D02*
X107725362Y-119202200D01*
X107725362Y-119202200D02*
X107630124Y-119249819D01*
X107630124Y-119249819D02*
X107534886Y-119249819D01*
X106772981Y-118583152D02*
X106772981Y-119249819D01*
X107201552Y-118583152D02*
X107201552Y-119106961D01*
X107201552Y-119106961D02*
X107153933Y-119202200D01*
X107153933Y-119202200D02*
X107058695Y-119249819D01*
X107058695Y-119249819D02*
X106915838Y-119249819D01*
X106915838Y-119249819D02*
X106820600Y-119202200D01*
X106820600Y-119202200D02*
X106772981Y-119154580D01*
X106439647Y-118583152D02*
X106058695Y-118583152D01*
X106296790Y-118249819D02*
X106296790Y-119106961D01*
X106296790Y-119106961D02*
X106249171Y-119202200D01*
X106249171Y-119202200D02*
X106153933Y-119249819D01*
X106153933Y-119249819D02*
X106058695Y-119249819D01*
X105582504Y-119249819D02*
X105677742Y-119202200D01*
X105677742Y-119202200D02*
X105725361Y-119154580D01*
X105725361Y-119154580D02*
X105772980Y-119059342D01*
X105772980Y-119059342D02*
X105772980Y-118773628D01*
X105772980Y-118773628D02*
X105725361Y-118678390D01*
X105725361Y-118678390D02*
X105677742Y-118630771D01*
X105677742Y-118630771D02*
X105582504Y-118583152D01*
X105582504Y-118583152D02*
X105439647Y-118583152D01*
X105439647Y-118583152D02*
X105344409Y-118630771D01*
X105344409Y-118630771D02*
X105296790Y-118678390D01*
X105296790Y-118678390D02*
X105249171Y-118773628D01*
X105249171Y-118773628D02*
X105249171Y-119059342D01*
X105249171Y-119059342D02*
X105296790Y-119154580D01*
X105296790Y-119154580D02*
X105344409Y-119202200D01*
X105344409Y-119202200D02*
X105439647Y-119249819D01*
X105439647Y-119249819D02*
X105582504Y-119249819D01*
X104820599Y-118583152D02*
X104820599Y-119249819D01*
X104820599Y-118678390D02*
X104772980Y-118630771D01*
X104772980Y-118630771D02*
X104677742Y-118583152D01*
X104677742Y-118583152D02*
X104534885Y-118583152D01*
X104534885Y-118583152D02*
X104439647Y-118630771D01*
X104439647Y-118630771D02*
X104392028Y-118726009D01*
X104392028Y-118726009D02*
X104392028Y-119249819D01*
X145824411Y-102104819D02*
X146395839Y-102104819D01*
X146110125Y-102104819D02*
X146110125Y-101104819D01*
X146110125Y-101104819D02*
X146205363Y-101247676D01*
X146205363Y-101247676D02*
X146300601Y-101342914D01*
X146300601Y-101342914D02*
X146395839Y-101390533D01*
D11*
X128759386Y-68021426D02*
X128492719Y-68021426D01*
X128659386Y-68488093D02*
X128659386Y-67888093D01*
X128659386Y-67888093D02*
X128626053Y-67821426D01*
X128626053Y-67821426D02*
X128559386Y-67788093D01*
X128559386Y-67788093D02*
X128492719Y-67788093D01*
X128259386Y-68488093D02*
X128259386Y-68021426D01*
X128259386Y-68154760D02*
X128226053Y-68088093D01*
X128226053Y-68088093D02*
X128192719Y-68054760D01*
X128192719Y-68054760D02*
X128126053Y-68021426D01*
X128126053Y-68021426D02*
X128059386Y-68021426D01*
X127726053Y-68488093D02*
X127792720Y-68454760D01*
X127792720Y-68454760D02*
X127826053Y-68421426D01*
X127826053Y-68421426D02*
X127859386Y-68354760D01*
X127859386Y-68354760D02*
X127859386Y-68154760D01*
X127859386Y-68154760D02*
X127826053Y-68088093D01*
X127826053Y-68088093D02*
X127792720Y-68054760D01*
X127792720Y-68054760D02*
X127726053Y-68021426D01*
X127726053Y-68021426D02*
X127626053Y-68021426D01*
X127626053Y-68021426D02*
X127559386Y-68054760D01*
X127559386Y-68054760D02*
X127526053Y-68088093D01*
X127526053Y-68088093D02*
X127492720Y-68154760D01*
X127492720Y-68154760D02*
X127492720Y-68354760D01*
X127492720Y-68354760D02*
X127526053Y-68421426D01*
X127526053Y-68421426D02*
X127559386Y-68454760D01*
X127559386Y-68454760D02*
X127626053Y-68488093D01*
X127626053Y-68488093D02*
X127726053Y-68488093D01*
X127192720Y-68021426D02*
X127192720Y-68488093D01*
X127192720Y-68088093D02*
X127159387Y-68054760D01*
X127159387Y-68054760D02*
X127092720Y-68021426D01*
X127092720Y-68021426D02*
X126992720Y-68021426D01*
X126992720Y-68021426D02*
X126926053Y-68054760D01*
X126926053Y-68054760D02*
X126892720Y-68121426D01*
X126892720Y-68121426D02*
X126892720Y-68488093D01*
X126659387Y-68021426D02*
X126392720Y-68021426D01*
X126559387Y-67788093D02*
X126559387Y-68388093D01*
X126559387Y-68388093D02*
X126526054Y-68454760D01*
X126526054Y-68454760D02*
X126459387Y-68488093D01*
X126459387Y-68488093D02*
X126392720Y-68488093D01*
X126159387Y-68221426D02*
X125626054Y-68221426D01*
X125759387Y-68354760D02*
X125626054Y-68221426D01*
X125626054Y-68221426D02*
X125759387Y-68088093D01*
X125292720Y-68488093D02*
X125292720Y-68021426D01*
X125292720Y-68088093D02*
X125259387Y-68054760D01*
X125259387Y-68054760D02*
X125192720Y-68021426D01*
X125192720Y-68021426D02*
X125092720Y-68021426D01*
X125092720Y-68021426D02*
X125026053Y-68054760D01*
X125026053Y-68054760D02*
X124992720Y-68121426D01*
X124992720Y-68121426D02*
X124992720Y-68488093D01*
X124992720Y-68121426D02*
X124959387Y-68054760D01*
X124959387Y-68054760D02*
X124892720Y-68021426D01*
X124892720Y-68021426D02*
X124792720Y-68021426D01*
X124792720Y-68021426D02*
X124726053Y-68054760D01*
X124726053Y-68054760D02*
X124692720Y-68121426D01*
X124692720Y-68121426D02*
X124692720Y-68488093D01*
X124059387Y-68488093D02*
X124059387Y-68121426D01*
X124059387Y-68121426D02*
X124092720Y-68054760D01*
X124092720Y-68054760D02*
X124159387Y-68021426D01*
X124159387Y-68021426D02*
X124292720Y-68021426D01*
X124292720Y-68021426D02*
X124359387Y-68054760D01*
X124059387Y-68454760D02*
X124126054Y-68488093D01*
X124126054Y-68488093D02*
X124292720Y-68488093D01*
X124292720Y-68488093D02*
X124359387Y-68454760D01*
X124359387Y-68454760D02*
X124392720Y-68388093D01*
X124392720Y-68388093D02*
X124392720Y-68321426D01*
X124392720Y-68321426D02*
X124359387Y-68254760D01*
X124359387Y-68254760D02*
X124292720Y-68221426D01*
X124292720Y-68221426D02*
X124126054Y-68221426D01*
X124126054Y-68221426D02*
X124059387Y-68188093D01*
X123726054Y-68488093D02*
X123726054Y-68021426D01*
X123726054Y-67788093D02*
X123759387Y-67821426D01*
X123759387Y-67821426D02*
X123726054Y-67854760D01*
X123726054Y-67854760D02*
X123692721Y-67821426D01*
X123692721Y-67821426D02*
X123726054Y-67788093D01*
X123726054Y-67788093D02*
X123726054Y-67854760D01*
X123392721Y-68021426D02*
X123392721Y-68488093D01*
X123392721Y-68088093D02*
X123359388Y-68054760D01*
X123359388Y-68054760D02*
X123292721Y-68021426D01*
X123292721Y-68021426D02*
X123192721Y-68021426D01*
X123192721Y-68021426D02*
X123126054Y-68054760D01*
X123126054Y-68054760D02*
X123092721Y-68121426D01*
X123092721Y-68121426D02*
X123092721Y-68488093D01*
D10*
X128044411Y-73212438D02*
X128139649Y-73164819D01*
X128139649Y-73164819D02*
X128282506Y-73164819D01*
X128282506Y-73164819D02*
X128425363Y-73212438D01*
X128425363Y-73212438D02*
X128520601Y-73307676D01*
X128520601Y-73307676D02*
X128568220Y-73402914D01*
X128568220Y-73402914D02*
X128615839Y-73593390D01*
X128615839Y-73593390D02*
X128615839Y-73736247D01*
X128615839Y-73736247D02*
X128568220Y-73926723D01*
X128568220Y-73926723D02*
X128520601Y-74021961D01*
X128520601Y-74021961D02*
X128425363Y-74117200D01*
X128425363Y-74117200D02*
X128282506Y-74164819D01*
X128282506Y-74164819D02*
X128187268Y-74164819D01*
X128187268Y-74164819D02*
X128044411Y-74117200D01*
X128044411Y-74117200D02*
X127996792Y-74069580D01*
X127996792Y-74069580D02*
X127996792Y-73736247D01*
X127996792Y-73736247D02*
X128187268Y-73736247D01*
X127568220Y-74164819D02*
X127568220Y-73164819D01*
X127568220Y-73164819D02*
X126996792Y-74164819D01*
X126996792Y-74164819D02*
X126996792Y-73164819D01*
X126520601Y-74164819D02*
X126520601Y-73164819D01*
X126520601Y-73164819D02*
X126282506Y-73164819D01*
X126282506Y-73164819D02*
X126139649Y-73212438D01*
X126139649Y-73212438D02*
X126044411Y-73307676D01*
X126044411Y-73307676D02*
X125996792Y-73402914D01*
X125996792Y-73402914D02*
X125949173Y-73593390D01*
X125949173Y-73593390D02*
X125949173Y-73736247D01*
X125949173Y-73736247D02*
X125996792Y-73926723D01*
X125996792Y-73926723D02*
X126044411Y-74021961D01*
X126044411Y-74021961D02*
X126139649Y-74117200D01*
X126139649Y-74117200D02*
X126282506Y-74164819D01*
X126282506Y-74164819D02*
X126520601Y-74164819D01*
X139807744Y-118249819D02*
X139712506Y-118249819D01*
X139712506Y-118249819D02*
X139617268Y-118297438D01*
X139617268Y-118297438D02*
X139569649Y-118345057D01*
X139569649Y-118345057D02*
X139522030Y-118440295D01*
X139522030Y-118440295D02*
X139474411Y-118630771D01*
X139474411Y-118630771D02*
X139474411Y-118868866D01*
X139474411Y-118868866D02*
X139522030Y-119059342D01*
X139522030Y-119059342D02*
X139569649Y-119154580D01*
X139569649Y-119154580D02*
X139617268Y-119202200D01*
X139617268Y-119202200D02*
X139712506Y-119249819D01*
X139712506Y-119249819D02*
X139807744Y-119249819D01*
X139807744Y-119249819D02*
X139902982Y-119202200D01*
X139902982Y-119202200D02*
X139950601Y-119154580D01*
X139950601Y-119154580D02*
X139998220Y-119059342D01*
X139998220Y-119059342D02*
X140045839Y-118868866D01*
X140045839Y-118868866D02*
X140045839Y-118630771D01*
X140045839Y-118630771D02*
X139998220Y-118440295D01*
X139998220Y-118440295D02*
X139950601Y-118345057D01*
X139950601Y-118345057D02*
X139902982Y-118297438D01*
X139902982Y-118297438D02*
X139807744Y-118249819D01*
X139141077Y-118249819D02*
X138522030Y-118249819D01*
X138522030Y-118249819D02*
X138855363Y-118630771D01*
X138855363Y-118630771D02*
X138712506Y-118630771D01*
X138712506Y-118630771D02*
X138617268Y-118678390D01*
X138617268Y-118678390D02*
X138569649Y-118726009D01*
X138569649Y-118726009D02*
X138522030Y-118821247D01*
X138522030Y-118821247D02*
X138522030Y-119059342D01*
X138522030Y-119059342D02*
X138569649Y-119154580D01*
X138569649Y-119154580D02*
X138617268Y-119202200D01*
X138617268Y-119202200D02*
X138712506Y-119249819D01*
X138712506Y-119249819D02*
X138998220Y-119249819D01*
X138998220Y-119249819D02*
X139093458Y-119202200D01*
X139093458Y-119202200D02*
X139141077Y-119154580D01*
X138093458Y-118868866D02*
X137331554Y-118868866D01*
X136998220Y-118583152D02*
X136617268Y-118583152D01*
X136855363Y-119249819D02*
X136855363Y-118392676D01*
X136855363Y-118392676D02*
X136807744Y-118297438D01*
X136807744Y-118297438D02*
X136712506Y-118249819D01*
X136712506Y-118249819D02*
X136617268Y-118249819D01*
X136283934Y-119249819D02*
X136283934Y-118583152D01*
X136283934Y-118773628D02*
X136236315Y-118678390D01*
X136236315Y-118678390D02*
X136188696Y-118630771D01*
X136188696Y-118630771D02*
X136093458Y-118583152D01*
X136093458Y-118583152D02*
X135998220Y-118583152D01*
X135522029Y-119249819D02*
X135617267Y-119202200D01*
X135617267Y-119202200D02*
X135664886Y-119154580D01*
X135664886Y-119154580D02*
X135712505Y-119059342D01*
X135712505Y-119059342D02*
X135712505Y-118773628D01*
X135712505Y-118773628D02*
X135664886Y-118678390D01*
X135664886Y-118678390D02*
X135617267Y-118630771D01*
X135617267Y-118630771D02*
X135522029Y-118583152D01*
X135522029Y-118583152D02*
X135379172Y-118583152D01*
X135379172Y-118583152D02*
X135283934Y-118630771D01*
X135283934Y-118630771D02*
X135236315Y-118678390D01*
X135236315Y-118678390D02*
X135188696Y-118773628D01*
X135188696Y-118773628D02*
X135188696Y-119059342D01*
X135188696Y-119059342D02*
X135236315Y-119154580D01*
X135236315Y-119154580D02*
X135283934Y-119202200D01*
X135283934Y-119202200D02*
X135379172Y-119249819D01*
X135379172Y-119249819D02*
X135522029Y-119249819D01*
X134760124Y-118583152D02*
X134760124Y-119249819D01*
X134760124Y-118678390D02*
X134712505Y-118630771D01*
X134712505Y-118630771D02*
X134617267Y-118583152D01*
X134617267Y-118583152D02*
X134474410Y-118583152D01*
X134474410Y-118583152D02*
X134379172Y-118630771D01*
X134379172Y-118630771D02*
X134331553Y-118726009D01*
X134331553Y-118726009D02*
X134331553Y-119249819D01*
X133998219Y-118583152D02*
X133617267Y-118583152D01*
X133855362Y-118249819D02*
X133855362Y-119106961D01*
X133855362Y-119106961D02*
X133807743Y-119202200D01*
X133807743Y-119202200D02*
X133712505Y-119249819D01*
X133712505Y-119249819D02*
X133617267Y-119249819D01*
X132617266Y-118583152D02*
X132379171Y-119249819D01*
X132379171Y-119249819D02*
X132141076Y-118583152D01*
X131379171Y-119202200D02*
X131474409Y-119249819D01*
X131474409Y-119249819D02*
X131664885Y-119249819D01*
X131664885Y-119249819D02*
X131760123Y-119202200D01*
X131760123Y-119202200D02*
X131807742Y-119106961D01*
X131807742Y-119106961D02*
X131807742Y-118726009D01*
X131807742Y-118726009D02*
X131760123Y-118630771D01*
X131760123Y-118630771D02*
X131664885Y-118583152D01*
X131664885Y-118583152D02*
X131474409Y-118583152D01*
X131474409Y-118583152D02*
X131379171Y-118630771D01*
X131379171Y-118630771D02*
X131331552Y-118726009D01*
X131331552Y-118726009D02*
X131331552Y-118821247D01*
X131331552Y-118821247D02*
X131807742Y-118916485D01*
X130902980Y-119249819D02*
X130902980Y-118583152D01*
X130902980Y-118773628D02*
X130855361Y-118678390D01*
X130855361Y-118678390D02*
X130807742Y-118630771D01*
X130807742Y-118630771D02*
X130712504Y-118583152D01*
X130712504Y-118583152D02*
X130617266Y-118583152D01*
X130283932Y-119154580D02*
X130236313Y-119202200D01*
X130236313Y-119202200D02*
X130283932Y-119249819D01*
X130283932Y-119249819D02*
X130331551Y-119202200D01*
X130331551Y-119202200D02*
X130283932Y-119154580D01*
X130283932Y-119154580D02*
X130283932Y-119249819D01*
X129283933Y-119249819D02*
X129855361Y-119249819D01*
X129569647Y-119249819D02*
X129569647Y-118249819D01*
X129569647Y-118249819D02*
X129664885Y-118392676D01*
X129664885Y-118392676D02*
X129760123Y-118487914D01*
X129760123Y-118487914D02*
X129855361Y-118535533D01*
D11*
X128659386Y-71663093D02*
X128659386Y-71196426D01*
X128659386Y-71263093D02*
X128626053Y-71229760D01*
X128626053Y-71229760D02*
X128559386Y-71196426D01*
X128559386Y-71196426D02*
X128459386Y-71196426D01*
X128459386Y-71196426D02*
X128392719Y-71229760D01*
X128392719Y-71229760D02*
X128359386Y-71296426D01*
X128359386Y-71296426D02*
X128359386Y-71663093D01*
X128359386Y-71296426D02*
X128326053Y-71229760D01*
X128326053Y-71229760D02*
X128259386Y-71196426D01*
X128259386Y-71196426D02*
X128159386Y-71196426D01*
X128159386Y-71196426D02*
X128092719Y-71229760D01*
X128092719Y-71229760D02*
X128059386Y-71296426D01*
X128059386Y-71296426D02*
X128059386Y-71663093D01*
X127426053Y-71663093D02*
X127426053Y-71296426D01*
X127426053Y-71296426D02*
X127459386Y-71229760D01*
X127459386Y-71229760D02*
X127526053Y-71196426D01*
X127526053Y-71196426D02*
X127659386Y-71196426D01*
X127659386Y-71196426D02*
X127726053Y-71229760D01*
X127426053Y-71629760D02*
X127492720Y-71663093D01*
X127492720Y-71663093D02*
X127659386Y-71663093D01*
X127659386Y-71663093D02*
X127726053Y-71629760D01*
X127726053Y-71629760D02*
X127759386Y-71563093D01*
X127759386Y-71563093D02*
X127759386Y-71496426D01*
X127759386Y-71496426D02*
X127726053Y-71429760D01*
X127726053Y-71429760D02*
X127659386Y-71396426D01*
X127659386Y-71396426D02*
X127492720Y-71396426D01*
X127492720Y-71396426D02*
X127426053Y-71363093D01*
X127092720Y-71663093D02*
X127092720Y-71196426D01*
X127092720Y-70963093D02*
X127126053Y-70996426D01*
X127126053Y-70996426D02*
X127092720Y-71029760D01*
X127092720Y-71029760D02*
X127059387Y-70996426D01*
X127059387Y-70996426D02*
X127092720Y-70963093D01*
X127092720Y-70963093D02*
X127092720Y-71029760D01*
X126759387Y-71196426D02*
X126759387Y-71663093D01*
X126759387Y-71263093D02*
X126726054Y-71229760D01*
X126726054Y-71229760D02*
X126659387Y-71196426D01*
X126659387Y-71196426D02*
X126559387Y-71196426D01*
X126559387Y-71196426D02*
X126492720Y-71229760D01*
X126492720Y-71229760D02*
X126459387Y-71296426D01*
X126459387Y-71296426D02*
X126459387Y-71663093D01*
X126126054Y-71396426D02*
X125592721Y-71396426D01*
X125726054Y-71529760D02*
X125592721Y-71396426D01*
X125592721Y-71396426D02*
X125726054Y-71263093D01*
X125359387Y-71196426D02*
X125092720Y-71196426D01*
X125259387Y-71663093D02*
X125259387Y-71063093D01*
X125259387Y-71063093D02*
X125226054Y-70996426D01*
X125226054Y-70996426D02*
X125159387Y-70963093D01*
X125159387Y-70963093D02*
X125092720Y-70963093D01*
X124859387Y-71663093D02*
X124859387Y-71196426D01*
X124859387Y-71329760D02*
X124826054Y-71263093D01*
X124826054Y-71263093D02*
X124792720Y-71229760D01*
X124792720Y-71229760D02*
X124726054Y-71196426D01*
X124726054Y-71196426D02*
X124659387Y-71196426D01*
X124326054Y-71663093D02*
X124392721Y-71629760D01*
X124392721Y-71629760D02*
X124426054Y-71596426D01*
X124426054Y-71596426D02*
X124459387Y-71529760D01*
X124459387Y-71529760D02*
X124459387Y-71329760D01*
X124459387Y-71329760D02*
X124426054Y-71263093D01*
X124426054Y-71263093D02*
X124392721Y-71229760D01*
X124392721Y-71229760D02*
X124326054Y-71196426D01*
X124326054Y-71196426D02*
X124226054Y-71196426D01*
X124226054Y-71196426D02*
X124159387Y-71229760D01*
X124159387Y-71229760D02*
X124126054Y-71263093D01*
X124126054Y-71263093D02*
X124092721Y-71329760D01*
X124092721Y-71329760D02*
X124092721Y-71529760D01*
X124092721Y-71529760D02*
X124126054Y-71596426D01*
X124126054Y-71596426D02*
X124159387Y-71629760D01*
X124159387Y-71629760D02*
X124226054Y-71663093D01*
X124226054Y-71663093D02*
X124326054Y-71663093D01*
X123792721Y-71196426D02*
X123792721Y-71663093D01*
X123792721Y-71263093D02*
X123759388Y-71229760D01*
X123759388Y-71229760D02*
X123692721Y-71196426D01*
X123692721Y-71196426D02*
X123592721Y-71196426D01*
X123592721Y-71196426D02*
X123526054Y-71229760D01*
X123526054Y-71229760D02*
X123492721Y-71296426D01*
X123492721Y-71296426D02*
X123492721Y-71663093D01*
X123259388Y-71196426D02*
X122992721Y-71196426D01*
X123159388Y-70963093D02*
X123159388Y-71563093D01*
X123159388Y-71563093D02*
X123126055Y-71629760D01*
X123126055Y-71629760D02*
X123059388Y-71663093D01*
X123059388Y-71663093D02*
X122992721Y-71663093D01*
D10*
X128092030Y-65544819D02*
X128568220Y-65544819D01*
X128568220Y-65544819D02*
X128615839Y-66021009D01*
X128615839Y-66021009D02*
X128568220Y-65973390D01*
X128568220Y-65973390D02*
X128472982Y-65925771D01*
X128472982Y-65925771D02*
X128234887Y-65925771D01*
X128234887Y-65925771D02*
X128139649Y-65973390D01*
X128139649Y-65973390D02*
X128092030Y-66021009D01*
X128092030Y-66021009D02*
X128044411Y-66116247D01*
X128044411Y-66116247D02*
X128044411Y-66354342D01*
X128044411Y-66354342D02*
X128092030Y-66449580D01*
X128092030Y-66449580D02*
X128139649Y-66497200D01*
X128139649Y-66497200D02*
X128234887Y-66544819D01*
X128234887Y-66544819D02*
X128472982Y-66544819D01*
X128472982Y-66544819D02*
X128568220Y-66497200D01*
X128568220Y-66497200D02*
X128615839Y-66449580D01*
X127758696Y-65544819D02*
X127425363Y-66544819D01*
X127425363Y-66544819D02*
X127092030Y-65544819D01*
%TO.C,G\u002A\u002A\u002A*%
G36*
X192087090Y-109472785D02*
G01*
X192044551Y-109530205D01*
X191984344Y-109568968D01*
X191912190Y-109581064D01*
X191833810Y-109558481D01*
X191833454Y-109558291D01*
X191799413Y-109548250D01*
X191794846Y-109567397D01*
X191820626Y-109612174D01*
X191831322Y-109623965D01*
X191885072Y-109648238D01*
X191950074Y-109645010D01*
X192008675Y-109614099D01*
X192048546Y-109586327D01*
X192077829Y-109584038D01*
X192079945Y-109608785D01*
X192047640Y-109653275D01*
X192012301Y-109682120D01*
X191935685Y-109712010D01*
X191859430Y-109707007D01*
X191794171Y-109669018D01*
X191750541Y-109599953D01*
X191741335Y-109568121D01*
X191729533Y-109495990D01*
X191726107Y-109431766D01*
X191799146Y-109431766D01*
X191833923Y-109492689D01*
X191874878Y-109525487D01*
X191920714Y-109533015D01*
X191982502Y-109510747D01*
X192021813Y-109477277D01*
X192048938Y-109416649D01*
X192045347Y-109353969D01*
X192020890Y-109321597D01*
X191976517Y-109285364D01*
X191976513Y-109285362D01*
X191934952Y-109262001D01*
X191903872Y-109263705D01*
X191861179Y-109291685D01*
X191845864Y-109304282D01*
X191803590Y-109365542D01*
X191799146Y-109431766D01*
X191726107Y-109431766D01*
X191725378Y-109418098D01*
X191728013Y-109342642D01*
X191736582Y-109277818D01*
X191750227Y-109231824D01*
X191768090Y-109212857D01*
X191789316Y-109229113D01*
X191800414Y-109239285D01*
X191835814Y-109232233D01*
X191895268Y-109212970D01*
X191972715Y-109222337D01*
X192044969Y-109262849D01*
X192051481Y-109268689D01*
X192096277Y-109334016D01*
X192106240Y-109404718D01*
X192102883Y-109416649D01*
X192087090Y-109472785D01*
G37*
G36*
X194252246Y-109107967D02*
G01*
X194270856Y-109124315D01*
X194267176Y-109134319D01*
X194238237Y-109146061D01*
X194222162Y-109153649D01*
X194212079Y-109181934D01*
X194207009Y-109238494D01*
X194205617Y-109330907D01*
X194206956Y-109421996D01*
X194211947Y-109479135D01*
X194221928Y-109507861D01*
X194238237Y-109515753D01*
X194253449Y-109519542D01*
X194270856Y-109548373D01*
X194270792Y-109550416D01*
X194251811Y-109573666D01*
X194196027Y-109580993D01*
X194154943Y-109577551D01*
X194114805Y-109563346D01*
X194103499Y-109543563D01*
X194128125Y-109524146D01*
X194130704Y-109523033D01*
X194146298Y-109506578D01*
X194155911Y-109470309D01*
X194160776Y-109406351D01*
X194162124Y-109306834D01*
X194162134Y-109275619D01*
X194162937Y-109191472D01*
X194166594Y-109140287D01*
X194175284Y-109113870D01*
X194191190Y-109104028D01*
X194216490Y-109102568D01*
X194252246Y-109107967D01*
G37*
G36*
X193991884Y-109215225D02*
G01*
X194016880Y-109222617D01*
X194044119Y-109244162D01*
X194048126Y-109266343D01*
X194022583Y-109276541D01*
X194019828Y-109276632D01*
X194000517Y-109288083D01*
X193990814Y-109324946D01*
X193988151Y-109396147D01*
X193990971Y-109467336D01*
X194001099Y-109505015D01*
X194020771Y-109515753D01*
X194035983Y-109519542D01*
X194053391Y-109548373D01*
X194051812Y-109557751D01*
X194026889Y-109575606D01*
X193966404Y-109580993D01*
X193927249Y-109578292D01*
X193887299Y-109564851D01*
X193880545Y-109544849D01*
X193912038Y-109523617D01*
X193916804Y-109521273D01*
X193933333Y-109497404D01*
X193942091Y-109446194D01*
X193944658Y-109359688D01*
X193944716Y-109330342D01*
X193946505Y-109263074D01*
X193953004Y-109227458D01*
X193967151Y-109214504D01*
X193991884Y-109215225D01*
G37*
G36*
X193717264Y-109099575D02*
G01*
X193753706Y-109133471D01*
X193808742Y-109197951D01*
X193827187Y-109226257D01*
X193834300Y-109261950D01*
X193814178Y-109276541D01*
X193805229Y-109287203D01*
X193796007Y-109330646D01*
X193792432Y-109396147D01*
X193794370Y-109445370D01*
X193802269Y-109496091D01*
X193814178Y-109515753D01*
X193824182Y-109519433D01*
X193835925Y-109548373D01*
X193835787Y-109551344D01*
X193816106Y-109573919D01*
X193759812Y-109580993D01*
X193752880Y-109580934D01*
X193700204Y-109572499D01*
X193683699Y-109548373D01*
X193686152Y-109533367D01*
X193705446Y-109515753D01*
X193714395Y-109505091D01*
X193723617Y-109461647D01*
X193727192Y-109396147D01*
X193725254Y-109346924D01*
X193717355Y-109296203D01*
X193705446Y-109276541D01*
X193702695Y-109276379D01*
X193685312Y-109258894D01*
X193688572Y-109227509D01*
X193710882Y-109203606D01*
X193721932Y-109187412D01*
X193695741Y-109158219D01*
X193668834Y-109127449D01*
X193677256Y-109100312D01*
X193692838Y-109091378D01*
X193717264Y-109099575D01*
G37*
G36*
X193615331Y-109378896D02*
G01*
X193611181Y-109456024D01*
X193565081Y-109527615D01*
X193543962Y-109545696D01*
X193468378Y-109577948D01*
X193387834Y-109574635D01*
X193316670Y-109535313D01*
X193286546Y-109502291D01*
X193281140Y-109479698D01*
X193308788Y-109480010D01*
X193366196Y-109505228D01*
X193377694Y-109511373D01*
X193423906Y-109531897D01*
X193456830Y-109530691D01*
X193496806Y-109508221D01*
X193519812Y-109492129D01*
X193548065Y-109462306D01*
X193538440Y-109442739D01*
X193489208Y-109432026D01*
X193398636Y-109428767D01*
X193244052Y-109428767D01*
X193258654Y-109368964D01*
X193270029Y-109337048D01*
X193326029Y-109337048D01*
X193332337Y-109353435D01*
X193365710Y-109361423D01*
X193434296Y-109363527D01*
X193510131Y-109358470D01*
X193547606Y-109344305D01*
X193544897Y-109322634D01*
X193500457Y-109295061D01*
X193482636Y-109288387D01*
X193418746Y-109281938D01*
X193361463Y-109297232D01*
X193327962Y-109330719D01*
X193326029Y-109337048D01*
X193270029Y-109337048D01*
X193274822Y-109323601D01*
X193330609Y-109256350D01*
X193416508Y-109220159D01*
X193460424Y-109215707D01*
X193503059Y-109229941D01*
X193552348Y-109272324D01*
X193577778Y-109301223D01*
X193598607Y-109344305D01*
X193615331Y-109378896D01*
G37*
G36*
X193148875Y-109482433D02*
G01*
X193162026Y-109526126D01*
X193147283Y-109566495D01*
X193114133Y-109580701D01*
X193068458Y-109573981D01*
X193038519Y-109546687D01*
X193035833Y-109536335D01*
X193046800Y-109494502D01*
X193081745Y-109465084D01*
X193125300Y-109462914D01*
X193148875Y-109482433D01*
G37*
G36*
X192934375Y-109437213D02*
G01*
X192888016Y-109514084D01*
X192864961Y-109539281D01*
X192814481Y-109572376D01*
X192747947Y-109580993D01*
X192733377Y-109580637D01*
X192678888Y-109572479D01*
X192649302Y-109556924D01*
X192637829Y-109545248D01*
X192617830Y-109559710D01*
X192611574Y-109568736D01*
X192588035Y-109580371D01*
X192569454Y-109553089D01*
X192557259Y-109490483D01*
X192554421Y-109429382D01*
X192621501Y-109429382D01*
X192661610Y-109494006D01*
X192701255Y-109522740D01*
X192748596Y-109537500D01*
X192769664Y-109535069D01*
X192824354Y-109504672D01*
X192863215Y-109450667D01*
X192878493Y-109387277D01*
X192862433Y-109328726D01*
X192824213Y-109291345D01*
X192761320Y-109268588D01*
X192699666Y-109279031D01*
X192661861Y-109304787D01*
X192622106Y-109363367D01*
X192621501Y-109429382D01*
X192554421Y-109429382D01*
X192552877Y-109396147D01*
X192553147Y-109370913D01*
X192559488Y-109284917D01*
X192573069Y-109229841D01*
X192592324Y-109209851D01*
X192615685Y-109229113D01*
X192626784Y-109239285D01*
X192662184Y-109232233D01*
X192730564Y-109211110D01*
X192808236Y-109225572D01*
X192880748Y-109274868D01*
X192898637Y-109294196D01*
X192937952Y-109365126D01*
X192936853Y-109387277D01*
X192934375Y-109437213D01*
G37*
G36*
X192449663Y-109213442D02*
G01*
X192461954Y-109243873D01*
X192467274Y-109300630D01*
X192466167Y-109371236D01*
X192459178Y-109443218D01*
X192446851Y-109504101D01*
X192429731Y-109541411D01*
X192403989Y-109561941D01*
X192355349Y-109575405D01*
X192277505Y-109576510D01*
X192161439Y-109571653D01*
X192161439Y-109391477D01*
X192161552Y-109371239D01*
X192164990Y-109287649D01*
X192172519Y-109231704D01*
X192183185Y-109211301D01*
X192189491Y-109215460D01*
X192200553Y-109249877D01*
X192204932Y-109307745D01*
X192213942Y-109412454D01*
X192243881Y-109489008D01*
X192294759Y-109527528D01*
X192341199Y-109528822D01*
X192384458Y-109494907D01*
X192412450Y-109426689D01*
X192422398Y-109328498D01*
X192424232Y-109281513D01*
X192432130Y-109230941D01*
X192444144Y-109211301D01*
X192449663Y-109213442D01*
G37*
G36*
X191371878Y-109235062D02*
G01*
X191393037Y-109247114D01*
X191438133Y-109236081D01*
X191447101Y-109232105D01*
X191502728Y-109220000D01*
X191570947Y-109216941D01*
X191661267Y-109220543D01*
X191661267Y-109400768D01*
X191661154Y-109421042D01*
X191657715Y-109504641D01*
X191650186Y-109560589D01*
X191639521Y-109580993D01*
X191629809Y-109567552D01*
X191621111Y-109520932D01*
X191617774Y-109452067D01*
X191617228Y-109419647D01*
X191607126Y-109336197D01*
X191583601Y-109288967D01*
X191554873Y-109263070D01*
X191527839Y-109258028D01*
X191485865Y-109277306D01*
X191472318Y-109286284D01*
X191454567Y-109312810D01*
X191446016Y-109360482D01*
X191443802Y-109440405D01*
X191443578Y-109471362D01*
X191439692Y-109537682D01*
X191429522Y-109571518D01*
X191411182Y-109580993D01*
X191403999Y-109580027D01*
X191388611Y-109563281D01*
X191380760Y-109519447D01*
X191378562Y-109440405D01*
X191378045Y-109394850D01*
X191372951Y-109332793D01*
X191360057Y-109297313D01*
X191336498Y-109277306D01*
X191298954Y-109259316D01*
X191271206Y-109260810D01*
X191238763Y-109288967D01*
X191229289Y-109301079D01*
X191210599Y-109358918D01*
X191204589Y-109453879D01*
X191204578Y-109458366D01*
X191198800Y-109537847D01*
X191185455Y-109576043D01*
X191168924Y-109573414D01*
X191153587Y-109530418D01*
X191143825Y-109447513D01*
X191143279Y-109375183D01*
X191154960Y-109317554D01*
X191183460Y-109269822D01*
X191199189Y-109252797D01*
X191257812Y-109218235D01*
X191320697Y-109211342D01*
X191371878Y-109235062D01*
G37*
G36*
X191096061Y-109380546D02*
G01*
X191086884Y-109457381D01*
X191042479Y-109527615D01*
X191010452Y-109553513D01*
X190931821Y-109581338D01*
X190849457Y-109571031D01*
X190774724Y-109522796D01*
X190762996Y-109510470D01*
X190737876Y-109472526D01*
X190745166Y-109456168D01*
X190779355Y-109463712D01*
X190834938Y-109497474D01*
X190839692Y-109500977D01*
X190885100Y-109529966D01*
X190918467Y-109533789D01*
X190959319Y-109515236D01*
X190989602Y-109496872D01*
X191023967Y-109465875D01*
X191017676Y-109444726D01*
X190969999Y-109432623D01*
X190880203Y-109428767D01*
X190842764Y-109428674D01*
X190777647Y-109426632D01*
X190742777Y-109419492D01*
X190728751Y-109404116D01*
X190726165Y-109377366D01*
X190733733Y-109344443D01*
X190791404Y-109344443D01*
X190802061Y-109352295D01*
X190845505Y-109360389D01*
X190911011Y-109363527D01*
X190960222Y-109361827D01*
X191010951Y-109354895D01*
X191030617Y-109344443D01*
X191012487Y-109310788D01*
X190967127Y-109282710D01*
X190911011Y-109271104D01*
X190856124Y-109282220D01*
X190810332Y-109310034D01*
X190791404Y-109344443D01*
X190733733Y-109344443D01*
X190736742Y-109331356D01*
X190779529Y-109272248D01*
X190843251Y-109228435D01*
X190914965Y-109211301D01*
X190954579Y-109215497D01*
X191025674Y-109249098D01*
X191074246Y-109307616D01*
X191085262Y-109344443D01*
X191096061Y-109380546D01*
G37*
G36*
X190660925Y-109220759D02*
G01*
X190660925Y-109400876D01*
X190660812Y-109421068D01*
X190657375Y-109504649D01*
X190649846Y-109560590D01*
X190639178Y-109580993D01*
X190630229Y-109570331D01*
X190621007Y-109526887D01*
X190617432Y-109461387D01*
X190615191Y-109401429D01*
X190602064Y-109340194D01*
X190573939Y-109298287D01*
X190533730Y-109264037D01*
X190498861Y-109258917D01*
X190454651Y-109284492D01*
X190434184Y-109307171D01*
X190415240Y-109360417D01*
X190404388Y-109447591D01*
X190404070Y-109451894D01*
X190394105Y-109533968D01*
X190381674Y-109573334D01*
X190369466Y-109570437D01*
X190360169Y-109525723D01*
X190356473Y-109439640D01*
X190357947Y-109384446D01*
X190372233Y-109298522D01*
X190405936Y-109245735D01*
X190464205Y-109220199D01*
X190552194Y-109216028D01*
X190660925Y-109220759D01*
G37*
G36*
X190218549Y-109116066D02*
G01*
X190225993Y-109156934D01*
X190232475Y-109192357D01*
X190257330Y-109211301D01*
X190261021Y-109211379D01*
X190296140Y-109224646D01*
X190301017Y-109249468D01*
X190271675Y-109269667D01*
X190271286Y-109269770D01*
X190247135Y-109280763D01*
X190233463Y-109304532D01*
X190227379Y-109351303D01*
X190225993Y-109431303D01*
X190223175Y-109507223D01*
X190215450Y-109560910D01*
X190204247Y-109580993D01*
X190204226Y-109580993D01*
X190193075Y-109560813D01*
X190185374Y-109506855D01*
X190182500Y-109428767D01*
X190182488Y-109416650D01*
X190180948Y-109341402D01*
X190174959Y-109299168D01*
X190161864Y-109280648D01*
X190139007Y-109276541D01*
X190113644Y-109270486D01*
X190095514Y-109243921D01*
X190103587Y-109224898D01*
X190139007Y-109211301D01*
X190172307Y-109199567D01*
X190182500Y-109156934D01*
X190187899Y-109121178D01*
X190204247Y-109102568D01*
X190218549Y-109116066D01*
G37*
G36*
X190073767Y-109385030D02*
G01*
X190070337Y-109416496D01*
X190040054Y-109492678D01*
X189988666Y-109553118D01*
X189970777Y-109564473D01*
X189898826Y-109581160D01*
X189820720Y-109566575D01*
X189752635Y-109522796D01*
X189744547Y-109514428D01*
X189716751Y-109474669D01*
X189721979Y-109456311D01*
X189754665Y-109462107D01*
X189809243Y-109494809D01*
X189812784Y-109497378D01*
X189881642Y-109527741D01*
X189942107Y-109518581D01*
X189987569Y-109470787D01*
X189992092Y-109461901D01*
X189995852Y-109443580D01*
X189979880Y-109433651D01*
X189936258Y-109429563D01*
X189857067Y-109428767D01*
X189813480Y-109428656D01*
X189751428Y-109426471D01*
X189718816Y-109418817D01*
X189706184Y-109402271D01*
X189704076Y-109373412D01*
X189709345Y-109342282D01*
X189769315Y-109342282D01*
X189779755Y-109350961D01*
X189822951Y-109360015D01*
X189888239Y-109363527D01*
X189917801Y-109363305D01*
X189972282Y-109359579D01*
X189994877Y-109349134D01*
X189994006Y-109329241D01*
X189986537Y-109314698D01*
X189941762Y-109278868D01*
X189880711Y-109268349D01*
X189820747Y-109287337D01*
X189785696Y-109316036D01*
X189769315Y-109342282D01*
X189709345Y-109342282D01*
X189710174Y-109337382D01*
X189747768Y-109275500D01*
X189808352Y-109229392D01*
X189878733Y-109211301D01*
X189881347Y-109211336D01*
X189945294Y-109229417D01*
X190007674Y-109272404D01*
X190054996Y-109328281D01*
X190061894Y-109349134D01*
X190073767Y-109385030D01*
G37*
G36*
X189650642Y-109437213D02*
G01*
X189604283Y-109514084D01*
X189597739Y-109521477D01*
X189529395Y-109568951D01*
X189451644Y-109582761D01*
X189378451Y-109560061D01*
X189359953Y-109551875D01*
X189331953Y-109563180D01*
X189324233Y-109571217D01*
X189293322Y-109571622D01*
X189289005Y-109566536D01*
X189278257Y-109523802D01*
X189271494Y-109443402D01*
X189271229Y-109430592D01*
X189339618Y-109430592D01*
X189377877Y-109494006D01*
X189417522Y-109522740D01*
X189464863Y-109537500D01*
X189504509Y-109526588D01*
X189551850Y-109494006D01*
X189565023Y-109479282D01*
X189593808Y-109417826D01*
X189590351Y-109357752D01*
X189561554Y-109307471D01*
X189514322Y-109275392D01*
X189455558Y-109269927D01*
X189392167Y-109299485D01*
X189386387Y-109304212D01*
X189342669Y-109364419D01*
X189339618Y-109430592D01*
X189271229Y-109430592D01*
X189269144Y-109329624D01*
X189269389Y-109271200D01*
X189271655Y-109186869D01*
X189277133Y-109135344D01*
X189286832Y-109109589D01*
X189301764Y-109102568D01*
X189305269Y-109102761D01*
X189327455Y-109122849D01*
X189334384Y-109179446D01*
X189336754Y-109228243D01*
X189348521Y-109244114D01*
X189376447Y-109233813D01*
X189438685Y-109213101D01*
X189520435Y-109223074D01*
X189597016Y-109274868D01*
X189614904Y-109294196D01*
X189654219Y-109365126D01*
X189651604Y-109417826D01*
X189650642Y-109437213D01*
G37*
G36*
X193999877Y-109089823D02*
G01*
X194009898Y-109124315D01*
X194004540Y-109152278D01*
X193982714Y-109162371D01*
X193972680Y-109156967D01*
X193955531Y-109124315D01*
X193957461Y-109112968D01*
X193982714Y-109086258D01*
X193999877Y-109089823D01*
G37*
G36*
X191439578Y-107040623D02*
G01*
X191665876Y-107041833D01*
X192540347Y-107047517D01*
X192573795Y-107109023D01*
X192607243Y-107170530D01*
X192264847Y-107500462D01*
X192159774Y-107602690D01*
X192052495Y-107711175D01*
X191971503Y-107800445D01*
X191913251Y-107875847D01*
X191874190Y-107942729D01*
X191850771Y-108006437D01*
X191839448Y-108072318D01*
X191836672Y-108145719D01*
X191845546Y-108253705D01*
X191891576Y-108402891D01*
X191977115Y-108534114D01*
X192102453Y-108647921D01*
X192191213Y-108712218D01*
X191825763Y-108706237D01*
X191460313Y-108700256D01*
X191126582Y-107895633D01*
X191102031Y-107836373D01*
X191030654Y-107663264D01*
X190965338Y-107503662D01*
X190907869Y-107362006D01*
X190860030Y-107242732D01*
X190823604Y-107150278D01*
X190800375Y-107089081D01*
X190792128Y-107063580D01*
X190793294Y-107060624D01*
X190808460Y-107054136D01*
X190843794Y-107048996D01*
X190902627Y-107045121D01*
X190988291Y-107042430D01*
X191104117Y-107040838D01*
X191253435Y-107040263D01*
X191439578Y-107040623D01*
G37*
G36*
X190037102Y-107036507D02*
G01*
X190136152Y-107040089D01*
X190219958Y-107045872D01*
X190279625Y-107053802D01*
X190306260Y-107063827D01*
X190307810Y-107066424D01*
X190325677Y-107103454D01*
X190356547Y-107173268D01*
X190398292Y-107270660D01*
X190448783Y-107390421D01*
X190505893Y-107527344D01*
X190567493Y-107676221D01*
X190631454Y-107831845D01*
X190695650Y-107989009D01*
X190757951Y-108142504D01*
X190816230Y-108287123D01*
X190868358Y-108417659D01*
X190912207Y-108528905D01*
X190945649Y-108615651D01*
X190966556Y-108672692D01*
X190972800Y-108694820D01*
X190969052Y-108697360D01*
X190932561Y-108704385D01*
X190866954Y-108709288D01*
X190783122Y-108711130D01*
X190743102Y-108710702D01*
X190598246Y-108698660D01*
X190480342Y-108666994D01*
X190378064Y-108611588D01*
X190280085Y-108528324D01*
X190266132Y-108514367D01*
X190236611Y-108482807D01*
X190209618Y-108448999D01*
X190182786Y-108408191D01*
X190153747Y-108355626D01*
X190120134Y-108286553D01*
X190079582Y-108196215D01*
X190029723Y-108079861D01*
X189968189Y-107932734D01*
X189892615Y-107750083D01*
X189847682Y-107640923D01*
X189785335Y-107488370D01*
X189729958Y-107351580D01*
X189683499Y-107235432D01*
X189647902Y-107144805D01*
X189625117Y-107084578D01*
X189617089Y-107059629D01*
X189624478Y-107053524D01*
X189666338Y-107045283D01*
X189737425Y-107039516D01*
X189828844Y-107036167D01*
X189931701Y-107035182D01*
X190037102Y-107036507D01*
G37*
G36*
X191150407Y-106211277D02*
G01*
X191472194Y-106211627D01*
X191753708Y-106212232D01*
X191997564Y-106213133D01*
X192206378Y-106214374D01*
X192382763Y-106215998D01*
X192529336Y-106218047D01*
X192648710Y-106220564D01*
X192743501Y-106223593D01*
X192816325Y-106227175D01*
X192869795Y-106231354D01*
X192906527Y-106236173D01*
X192929137Y-106241674D01*
X192951331Y-106250158D01*
X193064626Y-106309638D01*
X193166583Y-106387656D01*
X193241270Y-106472433D01*
X193256832Y-106502506D01*
X193287291Y-106568282D01*
X193330015Y-106663912D01*
X193382760Y-106784111D01*
X193443281Y-106923593D01*
X193509332Y-107077075D01*
X193578668Y-107239271D01*
X193649044Y-107404898D01*
X193718214Y-107568669D01*
X193783934Y-107725300D01*
X193843958Y-107869507D01*
X193896041Y-107996005D01*
X193937938Y-108099509D01*
X193967403Y-108174734D01*
X193982191Y-108216395D01*
X193982217Y-108216485D01*
X193982839Y-108226219D01*
X193975886Y-108234136D01*
X193957367Y-108240422D01*
X193923292Y-108245264D01*
X193869670Y-108248849D01*
X193792509Y-108251364D01*
X193687820Y-108252995D01*
X193551610Y-108253929D01*
X193379890Y-108254352D01*
X193168667Y-108254452D01*
X193080014Y-108254401D01*
X192867166Y-108253720D01*
X192693828Y-108252174D01*
X192557093Y-108249675D01*
X192454052Y-108246132D01*
X192381798Y-108241458D01*
X192337421Y-108235562D01*
X192318014Y-108228356D01*
X192308215Y-108217628D01*
X192293319Y-108190245D01*
X192293863Y-108158263D01*
X192312692Y-108117635D01*
X192352653Y-108064313D01*
X192416591Y-107994249D01*
X192507352Y-107903394D01*
X192627782Y-107787701D01*
X192745319Y-107674833D01*
X192836720Y-107583937D01*
X192903935Y-107512431D01*
X192951197Y-107455562D01*
X192982739Y-107408580D01*
X193002795Y-107366732D01*
X193028222Y-107269899D01*
X193038910Y-107147193D01*
X193031097Y-107026449D01*
X193004700Y-106926329D01*
X193001185Y-106918356D01*
X192934764Y-106810723D01*
X192842477Y-106711836D01*
X192739782Y-106638487D01*
X192724348Y-106630415D01*
X192706636Y-106622516D01*
X192685487Y-106615721D01*
X192657820Y-106609933D01*
X192620552Y-106605054D01*
X192570604Y-106600986D01*
X192504894Y-106597634D01*
X192420340Y-106594898D01*
X192313862Y-106592683D01*
X192182378Y-106590889D01*
X192022807Y-106589422D01*
X191832068Y-106588182D01*
X191607080Y-106587072D01*
X191344761Y-106585996D01*
X191042031Y-106584856D01*
X190745806Y-106583522D01*
X190446303Y-106581603D01*
X190182499Y-106579257D01*
X189955506Y-106576501D01*
X189766440Y-106573355D01*
X189616412Y-106569837D01*
X189506536Y-106565966D01*
X189437926Y-106561762D01*
X189411695Y-106557242D01*
X189406833Y-106551293D01*
X189384327Y-106510846D01*
X189356272Y-106448579D01*
X189327418Y-106376755D01*
X189302518Y-106307639D01*
X189286322Y-106253494D01*
X189283583Y-106226583D01*
X189289617Y-106225328D01*
X189332707Y-106222891D01*
X189414438Y-106220607D01*
X189531565Y-106218505D01*
X189680844Y-106216613D01*
X189859028Y-106214959D01*
X190062873Y-106213570D01*
X190289133Y-106212475D01*
X190534564Y-106211701D01*
X190795920Y-106211276D01*
X191069957Y-106211228D01*
X191150407Y-106211277D01*
G37*
G36*
X196625739Y-104726138D02*
G01*
X196756869Y-104848956D01*
X196899040Y-104956118D01*
X197052045Y-105041715D01*
X197181062Y-105101361D01*
X197339528Y-105163283D01*
X197492647Y-105205971D01*
X197656098Y-105232619D01*
X197845557Y-105246423D01*
X198076705Y-105250580D01*
X198176438Y-105250647D01*
X198317391Y-105249537D01*
X198420095Y-105245326D01*
X198497063Y-105236224D01*
X198560803Y-105220443D01*
X198623825Y-105196197D01*
X198698640Y-105161697D01*
X198888158Y-105055641D01*
X199054981Y-104917763D01*
X199178133Y-104755306D01*
X199207223Y-104708504D01*
X199245841Y-104656548D01*
X199266898Y-104642276D01*
X199267475Y-104643113D01*
X199265220Y-104679557D01*
X199248495Y-104754489D01*
X199220614Y-104852842D01*
X199193767Y-104930012D01*
X199081421Y-105141954D01*
X198922452Y-105320512D01*
X198716610Y-105465879D01*
X198463641Y-105578245D01*
X198163295Y-105657802D01*
X198004895Y-105680046D01*
X197711185Y-105684473D01*
X197399136Y-105648877D01*
X197080298Y-105576159D01*
X196766218Y-105469219D01*
X196468446Y-105330959D01*
X196198531Y-105164280D01*
X196110729Y-105096256D01*
X195977179Y-104976829D01*
X195847461Y-104844992D01*
X195736130Y-104715815D01*
X195657743Y-104604372D01*
X195605600Y-104515227D01*
X196010755Y-104515227D01*
X196415911Y-104515227D01*
X196625739Y-104726138D01*
G37*
G36*
X193574476Y-103251544D02*
G01*
X193945517Y-103259659D01*
X193982884Y-103403977D01*
X194001792Y-103479098D01*
X194016422Y-103558128D01*
X194009931Y-103600393D01*
X193979007Y-103617349D01*
X193920341Y-103620455D01*
X193899964Y-103620547D01*
X193857485Y-103624453D01*
X193832373Y-103640599D01*
X193824009Y-103677727D01*
X193831769Y-103744575D01*
X193855032Y-103849882D01*
X193893177Y-104002387D01*
X193936291Y-104163639D01*
X193978454Y-104295404D01*
X194019284Y-104388760D01*
X194063098Y-104453406D01*
X194114212Y-104499043D01*
X194116144Y-104500364D01*
X194196244Y-104530005D01*
X194307505Y-104542730D01*
X194426449Y-104537691D01*
X194529597Y-104514041D01*
X194589695Y-104500332D01*
X194639044Y-104519321D01*
X194676820Y-104581451D01*
X194710310Y-104693975D01*
X194718712Y-104729194D01*
X194736953Y-104817832D01*
X194737631Y-104869320D01*
X194718674Y-104898051D01*
X194678011Y-104918419D01*
X194604915Y-104934391D01*
X194489994Y-104943446D01*
X194351864Y-104945241D01*
X194207765Y-104939999D01*
X194074938Y-104927944D01*
X193970625Y-104909296D01*
X193790366Y-104840038D01*
X193635313Y-104727708D01*
X193523002Y-104578972D01*
X193499215Y-104524403D01*
X193463930Y-104423635D01*
X193422719Y-104291686D01*
X193378089Y-104138162D01*
X193332547Y-103972669D01*
X193288598Y-103804816D01*
X193248750Y-103644208D01*
X193215510Y-103500452D01*
X193191384Y-103383154D01*
X193178879Y-103301922D01*
X193180501Y-103266362D01*
X193182316Y-103265116D01*
X193225427Y-103257411D01*
X193312939Y-103252287D01*
X193433179Y-103250186D01*
X193574476Y-103251544D01*
G37*
G36*
X190476685Y-103236082D02*
G01*
X190652254Y-103259334D01*
X190793039Y-103298063D01*
X191016293Y-103414244D01*
X191200037Y-103570528D01*
X191340310Y-103764255D01*
X191435521Y-103993705D01*
X191468695Y-104144283D01*
X191476334Y-104349300D01*
X191438255Y-104533275D01*
X191356853Y-104690212D01*
X191234525Y-104814118D01*
X191073665Y-104899000D01*
X190956477Y-104927717D01*
X190781217Y-104944476D01*
X190587864Y-104941949D01*
X190396148Y-104920561D01*
X190225795Y-104880737D01*
X190023750Y-104816201D01*
X189968792Y-104606661D01*
X189955587Y-104554696D01*
X189935249Y-104456080D01*
X189933000Y-104395994D01*
X189947865Y-104363090D01*
X189986062Y-104344083D01*
X190041020Y-104365983D01*
X190079768Y-104389535D01*
X190296180Y-104494973D01*
X190496612Y-104545813D01*
X190682358Y-104542412D01*
X190684742Y-104542003D01*
X190783363Y-104513873D01*
X190846207Y-104463190D01*
X190881636Y-104378563D01*
X190898010Y-104248599D01*
X190891436Y-104096302D01*
X190840783Y-103927248D01*
X190747201Y-103787344D01*
X190615049Y-103685262D01*
X190498334Y-103639514D01*
X190325833Y-103620348D01*
X190152945Y-103650877D01*
X189994497Y-103730032D01*
X189939757Y-103766257D01*
X189867191Y-103806749D01*
X189821667Y-103822500D01*
X189820466Y-103822438D01*
X189790664Y-103794293D01*
X189756584Y-103725447D01*
X189723665Y-103631336D01*
X189697343Y-103527393D01*
X189683057Y-103429055D01*
X189682437Y-103402890D01*
X189695129Y-103362053D01*
X189737289Y-103329179D01*
X189821705Y-103291587D01*
X189928808Y-103260443D01*
X190096208Y-103236512D01*
X190285085Y-103228433D01*
X190476685Y-103236082D01*
G37*
G36*
X186868734Y-103234272D02*
G01*
X186957479Y-103241860D01*
X187029624Y-103257341D01*
X187100760Y-103283325D01*
X187186475Y-103322420D01*
X187335440Y-103405821D01*
X187524095Y-103560824D01*
X187668267Y-103747417D01*
X187764325Y-103960510D01*
X187808640Y-104195011D01*
X187811075Y-104286195D01*
X187804025Y-104413302D01*
X187787033Y-104515227D01*
X187760834Y-104585035D01*
X187673701Y-104714623D01*
X187550746Y-104824310D01*
X187406397Y-104899529D01*
X187284493Y-104928804D01*
X187110449Y-104944595D01*
X186919012Y-104941695D01*
X186729939Y-104920524D01*
X186562987Y-104881506D01*
X186363814Y-104817739D01*
X186311444Y-104630404D01*
X186285555Y-104533973D01*
X186265936Y-104453216D01*
X186258060Y-104410077D01*
X186266268Y-104379188D01*
X186312175Y-104365038D01*
X186399677Y-104387137D01*
X186530281Y-104445680D01*
X186591339Y-104475409D01*
X186698237Y-104518118D01*
X186796068Y-104538736D01*
X186911264Y-104544091D01*
X186977018Y-104543189D01*
X187061669Y-104534839D01*
X187118756Y-104513300D01*
X187167562Y-104473244D01*
X187188599Y-104448097D01*
X187231854Y-104343991D01*
X187242015Y-104211064D01*
X187219183Y-104063214D01*
X187163460Y-103914340D01*
X187086989Y-103792698D01*
X186971044Y-103689696D01*
X186826073Y-103634918D01*
X186647210Y-103625644D01*
X186627792Y-103626972D01*
X186512833Y-103642082D01*
X186423845Y-103673351D01*
X186333161Y-103729968D01*
X186269141Y-103774063D01*
X186192469Y-103813201D01*
X186140893Y-103808826D01*
X186103362Y-103757906D01*
X186068829Y-103657406D01*
X186053586Y-103604348D01*
X186024485Y-103489147D01*
X186017295Y-103412358D01*
X186034900Y-103361882D01*
X186080182Y-103325624D01*
X186156023Y-103291485D01*
X186183552Y-103280941D01*
X186264219Y-103257417D01*
X186358525Y-103242612D01*
X186481132Y-103234751D01*
X186646705Y-103232059D01*
X186747803Y-103231968D01*
X186868734Y-103234272D01*
G37*
G36*
X192537521Y-103245372D02*
G01*
X192646323Y-103248147D01*
X192712610Y-103256067D01*
X192747743Y-103271231D01*
X192763087Y-103295739D01*
X192776486Y-103340839D01*
X192808113Y-103455167D01*
X192846387Y-103600745D01*
X192889210Y-103768855D01*
X192934485Y-103950782D01*
X192980116Y-104137806D01*
X193024005Y-104321212D01*
X193064056Y-104492282D01*
X193098170Y-104642298D01*
X193124252Y-104762544D01*
X193140204Y-104844303D01*
X193143929Y-104878857D01*
X193137593Y-104887167D01*
X193110965Y-104898589D01*
X193058769Y-104907075D01*
X192974575Y-104913007D01*
X192851953Y-104916769D01*
X192684472Y-104918745D01*
X192465703Y-104919318D01*
X191803004Y-104919318D01*
X191768031Y-104763045D01*
X191752108Y-104689591D01*
X191742278Y-104615825D01*
X191752650Y-104566497D01*
X191790730Y-104536691D01*
X191864023Y-104521489D01*
X191980034Y-104515973D01*
X192146266Y-104515227D01*
X192264469Y-104514941D01*
X192381483Y-104513024D01*
X192455801Y-104508249D01*
X192496086Y-104499410D01*
X192511001Y-104485300D01*
X192509208Y-104464716D01*
X192494703Y-104413557D01*
X192466613Y-104307176D01*
X192432319Y-104171785D01*
X192394359Y-104018007D01*
X192355273Y-103856465D01*
X192317600Y-103697783D01*
X192283879Y-103552583D01*
X192256649Y-103431491D01*
X192238449Y-103345128D01*
X192231818Y-103304119D01*
X192234302Y-103280457D01*
X192250236Y-103261258D01*
X192290738Y-103250669D01*
X192366858Y-103246167D01*
X192489646Y-103245227D01*
X192537521Y-103245372D01*
G37*
G36*
X189508934Y-104002707D02*
G01*
X189570506Y-104246793D01*
X189619672Y-104445577D01*
X189657261Y-104602513D01*
X189684100Y-104721055D01*
X189701017Y-104804655D01*
X189708838Y-104856767D01*
X189708393Y-104880845D01*
X189694057Y-104897419D01*
X189650447Y-104910443D01*
X189569285Y-104915313D01*
X189440626Y-104913233D01*
X189188489Y-104904886D01*
X189153230Y-104775000D01*
X189146882Y-104751534D01*
X189115259Y-104633033D01*
X189086282Y-104522443D01*
X189054593Y-104399773D01*
X188846444Y-104399430D01*
X188675114Y-104389951D01*
X188450511Y-104346475D01*
X188254516Y-104270995D01*
X188093712Y-104167080D01*
X187974682Y-104038302D01*
X187904008Y-103888232D01*
X187888708Y-103824151D01*
X187886079Y-103780068D01*
X188459845Y-103780068D01*
X188489883Y-103863598D01*
X188536183Y-103919546D01*
X188595826Y-103967260D01*
X188620306Y-103977545D01*
X188700961Y-103999296D01*
X188797872Y-104015592D01*
X188805482Y-104016486D01*
X188882198Y-104022230D01*
X188926018Y-104011022D01*
X188941232Y-103973212D01*
X188932132Y-103899156D01*
X188903008Y-103779205D01*
X188892938Y-103741774D01*
X188867105Y-103671895D01*
X188834588Y-103638157D01*
X188783552Y-103625313D01*
X188776751Y-103624557D01*
X188645583Y-103625594D01*
X188544504Y-103655541D01*
X188480321Y-103708874D01*
X188459845Y-103780068D01*
X187886079Y-103780068D01*
X187879501Y-103669768D01*
X187919511Y-103535521D01*
X188011182Y-103410515D01*
X188014115Y-103407469D01*
X188082030Y-103351305D01*
X188167504Y-103308899D01*
X188278510Y-103278670D01*
X188423023Y-103259036D01*
X188609017Y-103248416D01*
X188844467Y-103245227D01*
X189314366Y-103245227D01*
X189342330Y-103353466D01*
X189345262Y-103364815D01*
X189434128Y-103709865D01*
X189501400Y-103973212D01*
X189508934Y-104002707D01*
G37*
G36*
X185853216Y-104056276D02*
G01*
X185861348Y-104088143D01*
X185912416Y-104292041D01*
X185957273Y-104477539D01*
X185972682Y-104544091D01*
X185994228Y-104637150D01*
X186021588Y-104763389D01*
X186037660Y-104848768D01*
X186040751Y-104885803D01*
X186040511Y-104886394D01*
X186023940Y-104899603D01*
X185982934Y-104908952D01*
X185910843Y-104914752D01*
X185801018Y-104917317D01*
X185646810Y-104916960D01*
X185441570Y-104913994D01*
X185426676Y-104913726D01*
X185228838Y-104909668D01*
X185078544Y-104904945D01*
X184966241Y-104898542D01*
X184882376Y-104889442D01*
X184817394Y-104876632D01*
X184761742Y-104859096D01*
X184705866Y-104835819D01*
X184594152Y-104773968D01*
X184472456Y-104670376D01*
X184385420Y-104551059D01*
X184336146Y-104424872D01*
X184331603Y-104357779D01*
X184914886Y-104357779D01*
X184918171Y-104397419D01*
X184946363Y-104449069D01*
X185015909Y-104493535D01*
X185040271Y-104504181D01*
X185149326Y-104532919D01*
X185270759Y-104544046D01*
X185424587Y-104544091D01*
X185404184Y-104450284D01*
X185388283Y-104380334D01*
X185361934Y-104295631D01*
X185328431Y-104249882D01*
X185277039Y-104231642D01*
X185197021Y-104229468D01*
X185163330Y-104230373D01*
X185040989Y-104240005D01*
X184964867Y-104261691D01*
X184925865Y-104299570D01*
X184914886Y-104357779D01*
X184331603Y-104357779D01*
X184327736Y-104300673D01*
X184363293Y-104187317D01*
X184445917Y-104093660D01*
X184514364Y-104042029D01*
X184389910Y-103922781D01*
X184348492Y-103881891D01*
X184295212Y-103817346D01*
X184271107Y-103757132D01*
X184268655Y-103723828D01*
X184842727Y-103723828D01*
X184853421Y-103769541D01*
X184901281Y-103822942D01*
X184918917Y-103830977D01*
X184989136Y-103851513D01*
X185074967Y-103867004D01*
X185158462Y-103875389D01*
X185221675Y-103874608D01*
X185246657Y-103862600D01*
X185246192Y-103856659D01*
X185235916Y-103804827D01*
X185216437Y-103728693D01*
X185213125Y-103716926D01*
X185188259Y-103652315D01*
X185150701Y-103625790D01*
X185079496Y-103620849D01*
X185013221Y-103622674D01*
X184913566Y-103637610D01*
X184859203Y-103670255D01*
X184842727Y-103723828D01*
X184268655Y-103723828D01*
X184265455Y-103680367D01*
X184265600Y-103667667D01*
X184292892Y-103524754D01*
X184368870Y-103411329D01*
X184495733Y-103323989D01*
X184517582Y-103313563D01*
X184570216Y-103292640D01*
X184629602Y-103277418D01*
X184705938Y-103266725D01*
X184809416Y-103259390D01*
X184950231Y-103254241D01*
X185138580Y-103250106D01*
X185287018Y-103247873D01*
X185432468Y-103246887D01*
X185547712Y-103247443D01*
X185623582Y-103249489D01*
X185650909Y-103252972D01*
X185651113Y-103254327D01*
X185660235Y-103293150D01*
X185681594Y-103379487D01*
X185713382Y-103506154D01*
X185753788Y-103665964D01*
X185801002Y-103851733D01*
X185803776Y-103862600D01*
X185853216Y-104056276D01*
G37*
G36*
X198089429Y-104200029D02*
G01*
X198043367Y-104289261D01*
X198038057Y-104294712D01*
X197963142Y-104332830D01*
X197866398Y-104339716D01*
X197773491Y-104313104D01*
X197739860Y-104299863D01*
X197701526Y-104313104D01*
X197686743Y-104327341D01*
X197623270Y-104341809D01*
X197531823Y-104332979D01*
X197427924Y-104304566D01*
X197327095Y-104260282D01*
X197244860Y-104203842D01*
X197214789Y-104172106D01*
X197148804Y-104071003D01*
X197099981Y-103954966D01*
X197080909Y-103851080D01*
X197097168Y-103746603D01*
X197160367Y-103627791D01*
X197261795Y-103542141D01*
X197344931Y-103511272D01*
X197485359Y-103490592D01*
X197641686Y-103492080D01*
X197792891Y-103515185D01*
X197917955Y-103559356D01*
X198044383Y-103636527D01*
X198193794Y-103775686D01*
X198292190Y-103941668D01*
X198339781Y-104134758D01*
X198342232Y-104168534D01*
X198321866Y-104311335D01*
X198251444Y-104428534D01*
X198133910Y-104516626D01*
X197972211Y-104572105D01*
X197913510Y-104580784D01*
X197793280Y-104587652D01*
X197672614Y-104584369D01*
X197619616Y-104578204D01*
X197496813Y-104551339D01*
X197380427Y-104511053D01*
X197280421Y-104462642D01*
X197206756Y-104411402D01*
X197169397Y-104362629D01*
X197178306Y-104321619D01*
X197207691Y-104323440D01*
X197274127Y-104346954D01*
X197361763Y-104387427D01*
X197426329Y-104418367D01*
X197518701Y-104451399D01*
X197615925Y-104466760D01*
X197744267Y-104470130D01*
X197917635Y-104459000D01*
X198051330Y-104423255D01*
X198140820Y-104359384D01*
X198190957Y-104263850D01*
X198206591Y-104133117D01*
X198193054Y-104032144D01*
X198133598Y-103890958D01*
X198036971Y-103766546D01*
X197914318Y-103676327D01*
X197909203Y-103673750D01*
X197771906Y-103623614D01*
X197623821Y-103598843D01*
X197484926Y-103601078D01*
X197375193Y-103631966D01*
X197345999Y-103648095D01*
X197250644Y-103727538D01*
X197209716Y-103822509D01*
X197221407Y-103936586D01*
X197225371Y-103948409D01*
X197264369Y-104022741D01*
X197322192Y-104098998D01*
X197386564Y-104164412D01*
X197445209Y-104206213D01*
X197485851Y-104211633D01*
X197489436Y-104184257D01*
X197472753Y-104118497D01*
X197438277Y-104030600D01*
X197426021Y-104003290D01*
X197398643Y-103942049D01*
X197589860Y-103942049D01*
X197616425Y-104039562D01*
X197687691Y-104140691D01*
X197704161Y-104157479D01*
X197784694Y-104215513D01*
X197852949Y-104227873D01*
X197900259Y-104195382D01*
X197917955Y-104118860D01*
X197917615Y-104106175D01*
X197896131Y-104014297D01*
X197848627Y-103932186D01*
X197785503Y-103868199D01*
X197717160Y-103830693D01*
X197653998Y-103828023D01*
X197606417Y-103868547D01*
X197589860Y-103942049D01*
X197398643Y-103942049D01*
X197372168Y-103882827D01*
X197340583Y-103804747D01*
X197331158Y-103759900D01*
X197343787Y-103739135D01*
X197378360Y-103733302D01*
X197434771Y-103733251D01*
X197445778Y-103733201D01*
X197564197Y-103731581D01*
X197679585Y-103728570D01*
X197790748Y-103745608D01*
X197897619Y-103801532D01*
X197987942Y-103885755D01*
X198054698Y-103987457D01*
X198090866Y-104095822D01*
X198090548Y-104118860D01*
X198089429Y-104200029D01*
G37*
G36*
X198516201Y-103366349D02*
G01*
X198544092Y-103386365D01*
X198566069Y-103429093D01*
X198586581Y-103502979D01*
X198610077Y-103616466D01*
X198641008Y-103778000D01*
X198662765Y-103886311D01*
X198689273Y-104005853D01*
X198712227Y-104096407D01*
X198728307Y-104144057D01*
X198728308Y-104144057D01*
X198787360Y-104202872D01*
X198867563Y-104213634D01*
X198955533Y-104174546D01*
X199034018Y-104116519D01*
X199125418Y-104174390D01*
X199140301Y-104184092D01*
X199194781Y-104225668D01*
X199216818Y-104253258D01*
X199216716Y-104255422D01*
X199190445Y-104299545D01*
X199130248Y-104351911D01*
X199054251Y-104399126D01*
X198980579Y-104427799D01*
X198856772Y-104439196D01*
X198709232Y-104411312D01*
X198581836Y-104342241D01*
X198489214Y-104237645D01*
X198472826Y-104198407D01*
X198444962Y-104108565D01*
X198412333Y-103987153D01*
X198378237Y-103848271D01*
X198345975Y-103706017D01*
X198318845Y-103574489D01*
X198300148Y-103467787D01*
X198293182Y-103400008D01*
X198295231Y-103390048D01*
X198332675Y-103367763D01*
X198421123Y-103360682D01*
X198424879Y-103360677D01*
X198477946Y-103360601D01*
X198516201Y-103366349D01*
G37*
G36*
X195655984Y-103375057D02*
G01*
X195801550Y-103444323D01*
X195930884Y-103544789D01*
X196033695Y-103671951D01*
X196099691Y-103821307D01*
X196103121Y-103834048D01*
X196126623Y-104009377D01*
X196103101Y-104162518D01*
X196035720Y-104287420D01*
X195927646Y-104378036D01*
X195782045Y-104428314D01*
X195768672Y-104430376D01*
X195625743Y-104431404D01*
X195474789Y-104403003D01*
X195347209Y-104350774D01*
X195343606Y-104348633D01*
X195280439Y-104300231D01*
X195268202Y-104252581D01*
X195302680Y-104190511D01*
X195310355Y-104180747D01*
X195351658Y-104146695D01*
X195403022Y-104147737D01*
X195482894Y-104183118D01*
X195579971Y-104219477D01*
X195679996Y-104214444D01*
X195768926Y-104155744D01*
X195787292Y-104135073D01*
X195833770Y-104031594D01*
X195832010Y-103905426D01*
X195781762Y-103764218D01*
X195760141Y-103726848D01*
X195671268Y-103630925D01*
X195562875Y-103575729D01*
X195447809Y-103565853D01*
X195338915Y-103605888D01*
X195328022Y-103612895D01*
X195285503Y-103631396D01*
X195247804Y-103617770D01*
X195193677Y-103566210D01*
X195114312Y-103483370D01*
X195190437Y-103423490D01*
X195224802Y-103399481D01*
X195357319Y-103348134D01*
X195504476Y-103341493D01*
X195655984Y-103375057D01*
G37*
G36*
X196729981Y-103361118D02*
G01*
X196795312Y-103364532D01*
X196821136Y-103370227D01*
X196825265Y-103393379D01*
X196839172Y-103465006D01*
X196861124Y-103575921D01*
X196889289Y-103716877D01*
X196921835Y-103878621D01*
X196949346Y-104019062D01*
X196976142Y-104166107D01*
X196995675Y-104285534D01*
X197006387Y-104367723D01*
X197006722Y-104403054D01*
X196973377Y-104412980D01*
X196894154Y-104421118D01*
X196780920Y-104426617D01*
X196645537Y-104428636D01*
X196300162Y-104428636D01*
X196270835Y-104351500D01*
X196254484Y-104301168D01*
X196253290Y-104247880D01*
X196286812Y-104216447D01*
X196362624Y-104201515D01*
X196488299Y-104197727D01*
X196509315Y-104197694D01*
X196608986Y-104196504D01*
X196679052Y-104193954D01*
X196705453Y-104190511D01*
X196705430Y-104190265D01*
X196699232Y-104158147D01*
X196683628Y-104081248D01*
X196660891Y-103970685D01*
X196633294Y-103837574D01*
X196625788Y-103801500D01*
X196592128Y-103636852D01*
X196571196Y-103519344D01*
X196563956Y-103441027D01*
X196571375Y-103393952D01*
X196594420Y-103370169D01*
X196634056Y-103361729D01*
X196691250Y-103360682D01*
X196729981Y-103361118D01*
G37*
G36*
X196951023Y-102618088D02*
G01*
X197073251Y-102625425D01*
X197305938Y-102653624D01*
X197531700Y-102703232D01*
X197768278Y-102778607D01*
X198033409Y-102884110D01*
X198151932Y-102936090D01*
X198248450Y-102982187D01*
X198293255Y-103009411D01*
X198285844Y-103017198D01*
X198225715Y-103004988D01*
X198112363Y-102972220D01*
X197968286Y-102930566D01*
X197709799Y-102873958D01*
X197460336Y-102847034D01*
X197195401Y-102846432D01*
X197122854Y-102850424D01*
X196904195Y-102879755D01*
X196726288Y-102936254D01*
X196579377Y-103023869D01*
X196453707Y-103146548D01*
X196347094Y-103274091D01*
X195949115Y-103274091D01*
X195800617Y-103273202D01*
X195680269Y-103269621D01*
X195603551Y-103262606D01*
X195562995Y-103251432D01*
X195551136Y-103235371D01*
X195561933Y-103207146D01*
X195610302Y-103144983D01*
X195687682Y-103066071D01*
X195783242Y-102980010D01*
X195886150Y-102896400D01*
X195985574Y-102824840D01*
X196070682Y-102774929D01*
X196138388Y-102743583D01*
X196320633Y-102675317D01*
X196505066Y-102633740D01*
X196709318Y-102615711D01*
X196951023Y-102618088D01*
G37*
G36*
X124116236Y-111385097D02*
G01*
X124165375Y-111469842D01*
X124200031Y-111529607D01*
X124219556Y-111563276D01*
X124364438Y-111813080D01*
X119379402Y-111813080D01*
X114394366Y-111813080D01*
X114394366Y-111592895D01*
X114394366Y-111372709D01*
X118390475Y-111372709D01*
X118666817Y-111372682D01*
X119048637Y-111372551D01*
X119415060Y-111372315D01*
X119765083Y-111371978D01*
X120097702Y-111371543D01*
X120411914Y-111371013D01*
X120706715Y-111370393D01*
X120981101Y-111369685D01*
X121234068Y-111368894D01*
X121464613Y-111368022D01*
X121671733Y-111367074D01*
X121854423Y-111366052D01*
X122011681Y-111364961D01*
X122142501Y-111363804D01*
X122245881Y-111362585D01*
X122320817Y-111361307D01*
X122366305Y-111359973D01*
X122381342Y-111358588D01*
X122372958Y-111343230D01*
X122349615Y-111302148D01*
X122312162Y-111236823D01*
X122261429Y-111148683D01*
X122198245Y-111039158D01*
X122123441Y-110909679D01*
X122037848Y-110761673D01*
X121942295Y-110596570D01*
X121837612Y-110415800D01*
X121724630Y-110220792D01*
X121604179Y-110012976D01*
X121477089Y-109793780D01*
X121344190Y-109564633D01*
X121206313Y-109326967D01*
X121064287Y-109082209D01*
X120918943Y-108831789D01*
X120771111Y-108577136D01*
X120621621Y-108319680D01*
X120471304Y-108060850D01*
X120320989Y-107802076D01*
X120171507Y-107544786D01*
X120023688Y-107290410D01*
X119878362Y-107040378D01*
X119736359Y-106796118D01*
X119598509Y-106559060D01*
X119465644Y-106330634D01*
X119338592Y-106112269D01*
X119218184Y-105905394D01*
X119105251Y-105711438D01*
X119000621Y-105531831D01*
X118905127Y-105368002D01*
X118819597Y-105221381D01*
X118744862Y-105093396D01*
X118681752Y-104985478D01*
X118631097Y-104899055D01*
X118593728Y-104835557D01*
X118570475Y-104796413D01*
X118562167Y-104783053D01*
X118560896Y-104784777D01*
X118547141Y-104807653D01*
X118518987Y-104856038D01*
X118477223Y-104928544D01*
X118422639Y-105023783D01*
X118356024Y-105140369D01*
X118278166Y-105276914D01*
X118189855Y-105432031D01*
X118091879Y-105604332D01*
X117985029Y-105792430D01*
X117870092Y-105994937D01*
X117747858Y-106210467D01*
X117619117Y-106437631D01*
X117484656Y-106675043D01*
X117345265Y-106921315D01*
X117201734Y-107175059D01*
X117152379Y-107262335D01*
X117009958Y-107514142D01*
X116871868Y-107758230D01*
X116738906Y-107993194D01*
X116611867Y-108217631D01*
X116491548Y-108430136D01*
X116378744Y-108629302D01*
X116274253Y-108813727D01*
X116178869Y-108982006D01*
X116093390Y-109132733D01*
X116018611Y-109264504D01*
X115955329Y-109375914D01*
X115904339Y-109465559D01*
X115866438Y-109532034D01*
X115842422Y-109573934D01*
X115833087Y-109589856D01*
X115831625Y-109591710D01*
X115819626Y-109597318D01*
X115798013Y-109593555D01*
X115762475Y-109578675D01*
X115708696Y-109550931D01*
X115632364Y-109508577D01*
X115613626Y-109497932D01*
X115549171Y-109460103D01*
X115497807Y-109428066D01*
X115464368Y-109404925D01*
X115453686Y-109393785D01*
X115471939Y-109361333D01*
X115537014Y-109245768D01*
X115613345Y-109110377D01*
X115700123Y-108956588D01*
X115796538Y-108785834D01*
X115901778Y-108599544D01*
X116015035Y-108399148D01*
X116135496Y-108186078D01*
X116262352Y-107961764D01*
X116394792Y-107727636D01*
X116532005Y-107485124D01*
X116673183Y-107235660D01*
X116817513Y-106980673D01*
X116964186Y-106721595D01*
X117112391Y-106459855D01*
X117261317Y-106196884D01*
X117410155Y-105934113D01*
X117558094Y-105672971D01*
X117704323Y-105414891D01*
X117848033Y-105161301D01*
X117988411Y-104913632D01*
X118124649Y-104673316D01*
X118255936Y-104441782D01*
X118317691Y-104332898D01*
X118813808Y-104332898D01*
X118816544Y-104338029D01*
X118833350Y-104367695D01*
X118864892Y-104422750D01*
X118910511Y-104502053D01*
X118969545Y-104604465D01*
X119041334Y-104728842D01*
X119125218Y-104874043D01*
X119220537Y-105038928D01*
X119326629Y-105222355D01*
X119442835Y-105423182D01*
X119568493Y-105640269D01*
X119702943Y-105872473D01*
X119845525Y-106118653D01*
X119995579Y-106377668D01*
X120152443Y-106648377D01*
X120315458Y-106929638D01*
X120483963Y-107220310D01*
X120657296Y-107519251D01*
X120834799Y-107825320D01*
X120939102Y-108005182D01*
X121114305Y-108307441D01*
X121284950Y-108602003D01*
X121450375Y-108887721D01*
X121609919Y-109163447D01*
X121762921Y-109428035D01*
X121908720Y-109680337D01*
X122046655Y-109919206D01*
X122176064Y-110143494D01*
X122296286Y-110352055D01*
X122406660Y-110543741D01*
X122506525Y-110717406D01*
X122595220Y-110871901D01*
X122672084Y-111006079D01*
X122736455Y-111118794D01*
X122787672Y-111208898D01*
X122825074Y-111275244D01*
X122848001Y-111316684D01*
X122855790Y-111332071D01*
X122854179Y-111341533D01*
X122836130Y-111362293D01*
X122843050Y-111364229D01*
X122877103Y-111366303D01*
X122935251Y-111368159D01*
X123013581Y-111369702D01*
X123108183Y-111370836D01*
X123215145Y-111371467D01*
X123613819Y-111372709D01*
X123583674Y-111321594D01*
X123582175Y-111319033D01*
X123567174Y-111293229D01*
X123537241Y-111241664D01*
X123493022Y-111165452D01*
X123435164Y-111065707D01*
X123364312Y-110943545D01*
X123281113Y-110800080D01*
X123186214Y-110636428D01*
X123080261Y-110453702D01*
X122963900Y-110253018D01*
X122837777Y-110035491D01*
X122702540Y-109802235D01*
X122558834Y-109554365D01*
X122407306Y-109292996D01*
X122248602Y-109019242D01*
X122083368Y-108734220D01*
X121912251Y-108439042D01*
X121735897Y-108134825D01*
X121554953Y-107822683D01*
X121370065Y-107503731D01*
X121309974Y-107400069D01*
X121126592Y-107083752D01*
X120947480Y-106774849D01*
X120773276Y-106474458D01*
X120604620Y-106183682D01*
X120442150Y-105903618D01*
X120286505Y-105635369D01*
X120138325Y-105380033D01*
X119998248Y-105138712D01*
X119866913Y-104912505D01*
X119744959Y-104702513D01*
X119633024Y-104509835D01*
X119531749Y-104335572D01*
X119441771Y-104180825D01*
X119363730Y-104046692D01*
X119298264Y-103934275D01*
X119246012Y-103844674D01*
X119207614Y-103778988D01*
X119183708Y-103738319D01*
X119174933Y-103723766D01*
X119171754Y-103725752D01*
X119155175Y-103747958D01*
X119127206Y-103790589D01*
X119090579Y-103849037D01*
X119048027Y-103918693D01*
X119002283Y-103994946D01*
X118956080Y-104073187D01*
X118912149Y-104148808D01*
X118873224Y-104217199D01*
X118842037Y-104273750D01*
X118821321Y-104313853D01*
X118813808Y-104332898D01*
X118317691Y-104332898D01*
X118381461Y-104220460D01*
X118500415Y-104010782D01*
X118611985Y-103814178D01*
X118715363Y-103632078D01*
X118809737Y-103465913D01*
X118894298Y-103317114D01*
X118968234Y-103187109D01*
X119030736Y-103077331D01*
X119080992Y-102989210D01*
X119118194Y-102924176D01*
X119141529Y-102883660D01*
X119150188Y-102869091D01*
X119152122Y-102869902D01*
X119162098Y-102882332D01*
X119180541Y-102909667D01*
X119207812Y-102952523D01*
X119244274Y-103011519D01*
X119290289Y-103087272D01*
X119346218Y-103180398D01*
X119412425Y-103291516D01*
X119489270Y-103421242D01*
X119577117Y-103570194D01*
X119676327Y-103738990D01*
X119787263Y-103928247D01*
X119910286Y-104138582D01*
X120045758Y-104370612D01*
X120194042Y-104624956D01*
X120355500Y-104902229D01*
X120530494Y-105203051D01*
X120719386Y-105528037D01*
X120922538Y-105877806D01*
X121140313Y-106252974D01*
X121373072Y-106654160D01*
X121621177Y-107081980D01*
X121691713Y-107203632D01*
X121888096Y-107542329D01*
X122080993Y-107875013D01*
X122269757Y-108200569D01*
X122453742Y-108517882D01*
X122632300Y-108825835D01*
X122804785Y-109123313D01*
X122970549Y-109409201D01*
X123128946Y-109682381D01*
X123279329Y-109941739D01*
X123421050Y-110186158D01*
X123553463Y-110414523D01*
X123675920Y-110625719D01*
X123787776Y-110818629D01*
X123888382Y-110992137D01*
X123977092Y-111145129D01*
X124053259Y-111276487D01*
X124109053Y-111372709D01*
X124116236Y-111385097D01*
G37*
G36*
X115225865Y-109934712D02*
G01*
X115284713Y-109940408D01*
X115334332Y-109953096D01*
X115387089Y-109975082D01*
X115497040Y-110040746D01*
X115586925Y-110127841D01*
X115656350Y-110237755D01*
X115663488Y-110252401D01*
X115686906Y-110305740D01*
X115700239Y-110352283D01*
X115706229Y-110404761D01*
X115707616Y-110475908D01*
X115706575Y-110536045D01*
X115700956Y-110595251D01*
X115688422Y-110644865D01*
X115666707Y-110697142D01*
X115627241Y-110769435D01*
X115545150Y-110871163D01*
X115442273Y-110949387D01*
X115317793Y-111004828D01*
X115291401Y-111011625D01*
X115220014Y-111020497D01*
X115137967Y-111021121D01*
X115050952Y-111010414D01*
X114929795Y-110970637D01*
X114823051Y-110904107D01*
X114733485Y-110812704D01*
X114663860Y-110698312D01*
X114645533Y-110655676D01*
X114631159Y-110606541D01*
X114624218Y-110550726D01*
X114622415Y-110475908D01*
X114622471Y-110457134D01*
X114624679Y-110391435D01*
X114632123Y-110341460D01*
X114647543Y-110294477D01*
X114673682Y-110237755D01*
X114740930Y-110130555D01*
X114830209Y-110042870D01*
X114942943Y-109975082D01*
X114985126Y-109956928D01*
X115034376Y-109942451D01*
X115090217Y-109935456D01*
X115165016Y-109933638D01*
X115225865Y-109934712D01*
G37*
D12*
%TO.C,U7*%
X135890000Y-62230000D02*
X173990000Y-62230000D01*
X173990000Y-62230000D02*
X173990000Y-113030000D01*
X173990000Y-113030000D02*
X135890000Y-113030000D01*
X135890000Y-113030000D02*
X135890000Y-62230000D01*
D11*
%TO.C,C9*%
X142315693Y-97866810D02*
X142163190Y-97714307D01*
X142824810Y-97357693D02*
X142672307Y-97205190D01*
%TO.C,J2*%
X129330000Y-63310000D02*
X130580000Y-63310000D01*
X135590000Y-63600000D02*
X135590000Y-76220000D01*
X129620000Y-63600000D02*
X135590000Y-63600000D01*
X131880000Y-63610000D02*
X131880000Y-64360000D01*
X130380000Y-63610000D02*
X130380000Y-65410000D01*
X129630000Y-63610000D02*
X130380000Y-63610000D01*
X134830000Y-64360000D02*
X134830000Y-69910000D01*
X131880000Y-64360000D02*
X134830000Y-64360000D01*
X129330000Y-64560000D02*
X129330000Y-63310000D01*
X130380000Y-65410000D02*
X129630000Y-65410000D01*
X129630000Y-65410000D02*
X129630000Y-63610000D01*
X130380000Y-66910000D02*
X130380000Y-72910000D01*
X129630000Y-66910000D02*
X130380000Y-66910000D01*
X130380000Y-72910000D02*
X129630000Y-72910000D01*
X129630000Y-72910000D02*
X129630000Y-66910000D01*
X130380000Y-74410000D02*
X130380000Y-76210000D01*
X129630000Y-74410000D02*
X130380000Y-74410000D01*
X134830000Y-75460000D02*
X134830000Y-69910000D01*
X131880000Y-75460000D02*
X134830000Y-75460000D01*
X131880000Y-76210000D02*
X131880000Y-75460000D01*
X130380000Y-76210000D02*
X129630000Y-76210000D01*
X129630000Y-76210000D02*
X129630000Y-74410000D01*
X135590000Y-76220000D02*
X129620000Y-76220000D01*
X129620000Y-76220000D02*
X129620000Y-63600000D01*
%TO.C,C2*%
X144347693Y-87452810D02*
X144195190Y-87300307D01*
X144856810Y-86943693D02*
X144704307Y-86791190D01*
%TO.C,FB1*%
X142134835Y-89072282D02*
X141813718Y-88751165D01*
X143174282Y-88032835D02*
X142853165Y-87711718D01*
%TO.C,R2*%
X158512742Y-86472500D02*
X158987258Y-86472500D01*
X158512742Y-87517500D02*
X158987258Y-87517500D01*
%TO.C,C4*%
X141401190Y-90499693D02*
X141553693Y-90347190D01*
X141910307Y-91008810D02*
X142062810Y-90856307D01*
%TO.C,C10*%
X141553693Y-98628810D02*
X141401190Y-98476307D01*
X142062810Y-98119693D02*
X141910307Y-97967190D01*
%TO.C,U1*%
X141998369Y-93754839D02*
X142670120Y-94426590D01*
X148553249Y-100309719D02*
X147605725Y-101257242D01*
X149225000Y-100981470D02*
X148553249Y-100309719D01*
X142670120Y-93083088D02*
X141998369Y-93754839D01*
X149896751Y-100309719D02*
X149225000Y-100981470D01*
X148553249Y-87199959D02*
X149225000Y-86528208D01*
X155779880Y-94426590D02*
X156451631Y-93754839D01*
X149225000Y-86528208D02*
X149896751Y-87199959D01*
X156451631Y-93754839D02*
X155779880Y-93083088D01*
%TO.C,R3*%
X198232500Y-108187258D02*
X198232500Y-107712742D01*
X199277500Y-108187258D02*
X199277500Y-107712742D01*
%TO.C,C6*%
X145719190Y-86181693D02*
X145871693Y-86029190D01*
X146228307Y-86690810D02*
X146380810Y-86538307D01*
%TO.C,R1*%
X159497500Y-101837258D02*
X159497500Y-101362742D01*
X160542500Y-101837258D02*
X160542500Y-101362742D01*
%TO.C,C3*%
X156896307Y-90093190D02*
X157048810Y-90245693D01*
X156387190Y-90602307D02*
X156539693Y-90754810D01*
%TO.C,R4*%
X198232500Y-113902258D02*
X198232500Y-113427742D01*
X199277500Y-113902258D02*
X199277500Y-113427742D01*
%TO.C,C1*%
X144196307Y-98729190D02*
X144348810Y-98881693D01*
X143687190Y-99238307D02*
X143839693Y-99390810D01*
%TO.C,C5*%
X147751190Y-101675693D02*
X147903693Y-101523190D01*
X148260307Y-102184810D02*
X148412810Y-102032307D01*
%TO.C,C7*%
X152577190Y-101929693D02*
X152729693Y-101777190D01*
X153086307Y-102438810D02*
X153238810Y-102286307D01*
%TO.C,C8*%
X152476810Y-101524307D02*
X152324307Y-101676810D01*
X151967693Y-101015190D02*
X151815190Y-101167693D01*
%TD*%
%LPC*%
D13*
%TO.C,U6*%
X198120000Y-110490000D03*
X200660000Y-110490000D03*
X203200000Y-110490000D03*
X205740000Y-110490000D03*
X203200000Y-100330000D03*
X205740000Y-100330000D03*
%TD*%
%TO.C,U4*%
X149860000Y-110490000D03*
X152400000Y-110490000D03*
X154940000Y-110490000D03*
X157480000Y-110490000D03*
X154940000Y-100330000D03*
X157480000Y-100330000D03*
%TD*%
D14*
%TO.C,REF\u002A\u002A*%
X190000000Y-95000000D03*
%TD*%
D13*
%TO.C,U3*%
X134620000Y-100330000D03*
X132080000Y-100330000D03*
X134620000Y-110490000D03*
X132080000Y-110490000D03*
X129540000Y-110490000D03*
X127000000Y-110490000D03*
%TD*%
%TO.C,U7*%
X139192000Y-91440000D03*
X139192000Y-93980000D03*
X139192000Y-96520000D03*
X139192000Y-99060000D03*
X139192000Y-101600000D03*
X139192000Y-104140000D03*
X139192000Y-106680000D03*
X139192000Y-109220000D03*
X171450000Y-91440000D03*
X171450000Y-93980000D03*
X171450000Y-96520000D03*
X171450000Y-99060000D03*
X171450000Y-101600000D03*
X171450000Y-104140000D03*
X171450000Y-106680000D03*
X171450000Y-109220000D03*
X167640000Y-91440000D03*
X167640000Y-93980000D03*
X167640000Y-96520000D03*
X167640000Y-99060000D03*
X167640000Y-101600000D03*
X167640000Y-104140000D03*
%TD*%
%TO.C,U5*%
X177800000Y-110490000D03*
X180340000Y-110490000D03*
X182880000Y-110490000D03*
X185420000Y-110490000D03*
X182880000Y-100330000D03*
X185420000Y-100330000D03*
%TD*%
D15*
%TO.C,J1*%
X162560000Y-107950000D03*
D16*
X165100000Y-107950000D03*
X162560000Y-105410000D03*
X165100000Y-105410000D03*
X162560000Y-102870000D03*
X165100000Y-102870000D03*
X162560000Y-100330000D03*
X165100000Y-100330000D03*
%TD*%
D14*
%TO.C,REF\u002A\u002A*%
X120000000Y-95000000D03*
%TD*%
D13*
%TO.C,U2*%
X104140000Y-110490000D03*
X106680000Y-110490000D03*
X109220000Y-110490000D03*
X111760000Y-110490000D03*
X109220000Y-100330000D03*
X111760000Y-100330000D03*
%TD*%
D17*
%TO.C,C9*%
X142833411Y-97875411D03*
X142154589Y-97196589D03*
%TD*%
D18*
%TO.C,J2*%
X132080000Y-66160000D03*
D19*
X132080000Y-68660000D03*
X132080000Y-71160000D03*
X132080000Y-73660000D03*
%TD*%
D17*
%TO.C,C2*%
X144865411Y-87461411D03*
X144186589Y-86782589D03*
%TD*%
D20*
%TO.C,FB1*%
X143139235Y-89037235D03*
X141848765Y-87746765D03*
%TD*%
D21*
%TO.C,R2*%
X157925000Y-86995000D03*
X159575000Y-86995000D03*
%TD*%
D22*
%TO.C,C4*%
X141392589Y-91017411D03*
X142071411Y-90338589D03*
%TD*%
D17*
%TO.C,C10*%
X142071411Y-98637411D03*
X141392589Y-97958589D03*
%TD*%
D23*
%TO.C,U1*%
X147863819Y-100419320D03*
X147510266Y-100065767D03*
X147156713Y-99712214D03*
X146803159Y-99358660D03*
X146449606Y-99005107D03*
X146096052Y-98651553D03*
X145742499Y-98298000D03*
X145388946Y-97944447D03*
X145035392Y-97590893D03*
X144681839Y-97237340D03*
X144328286Y-96883787D03*
X143974732Y-96530233D03*
X143621179Y-96176680D03*
X143267625Y-95823126D03*
X142914072Y-95469573D03*
X142560519Y-95116020D03*
D24*
X142560519Y-92393658D03*
X142914072Y-92040105D03*
X143267625Y-91686552D03*
X143621179Y-91332998D03*
X143974732Y-90979445D03*
X144328286Y-90625891D03*
X144681839Y-90272338D03*
X145035392Y-89918785D03*
X145388946Y-89565231D03*
X145742499Y-89211678D03*
X146096052Y-88858125D03*
X146449606Y-88504571D03*
X146803159Y-88151018D03*
X147156713Y-87797464D03*
X147510266Y-87443911D03*
X147863819Y-87090358D03*
D23*
X150586181Y-87090358D03*
X150939734Y-87443911D03*
X151293287Y-87797464D03*
X151646841Y-88151018D03*
X152000394Y-88504571D03*
X152353948Y-88858125D03*
X152707501Y-89211678D03*
X153061054Y-89565231D03*
X153414608Y-89918785D03*
X153768161Y-90272338D03*
X154121714Y-90625891D03*
X154475268Y-90979445D03*
X154828821Y-91332998D03*
X155182375Y-91686552D03*
X155535928Y-92040105D03*
X155889481Y-92393658D03*
D24*
X155889481Y-95116020D03*
X155535928Y-95469573D03*
X155182375Y-95823126D03*
X154828821Y-96176680D03*
X154475268Y-96530233D03*
X154121714Y-96883787D03*
X153768161Y-97237340D03*
X153414608Y-97590893D03*
X153061054Y-97944447D03*
X152707501Y-98298000D03*
X152353948Y-98651553D03*
X152000394Y-99005107D03*
X151646841Y-99358660D03*
X151293287Y-99712214D03*
X150939734Y-100065767D03*
X150586181Y-100419320D03*
%TD*%
D25*
%TO.C,R3*%
X198755000Y-108775000D03*
X198755000Y-107125000D03*
%TD*%
D22*
%TO.C,C6*%
X145710589Y-86699411D03*
X146389411Y-86020589D03*
%TD*%
D25*
%TO.C,R1*%
X160020000Y-102425000D03*
X160020000Y-100775000D03*
%TD*%
D26*
%TO.C,C3*%
X156378589Y-90084589D03*
X157057411Y-90763411D03*
%TD*%
D25*
%TO.C,R4*%
X198755000Y-114490000D03*
X198755000Y-112840000D03*
%TD*%
D26*
%TO.C,C1*%
X143678589Y-98720589D03*
X144357411Y-99399411D03*
%TD*%
D22*
%TO.C,C5*%
X147742589Y-102193411D03*
X148421411Y-101514589D03*
%TD*%
%TO.C,C7*%
X152568589Y-102447411D03*
X153247411Y-101768589D03*
%TD*%
D27*
%TO.C,C8*%
X152485411Y-101006589D03*
X151806589Y-101685411D03*
%TD*%
%LPD*%
M02*
