%TF.GenerationSoftware,KiCad,Pcbnew,7.0.9*%
%TF.CreationDate,2024-10-01T14:40:39+09:00*%
%TF.ProjectId,03-front,30332d66-726f-46e7-942e-6b696361645f,rev?*%
%TF.SameCoordinates,Original*%
%TF.FileFunction,Copper,L2,Bot*%
%TF.FilePolarity,Positive*%
%FSLAX46Y46*%
G04 Gerber Fmt 4.6, Leading zero omitted, Abs format (unit mm)*
G04 Created by KiCad (PCBNEW 7.0.9) date 2024-10-01 14:40:39*
%MOMM*%
%LPD*%
G01*
G04 APERTURE LIST*
G04 Aperture macros list*
%AMRoundRect*
0 Rectangle with rounded corners*
0 $1 Rounding radius*
0 $2 $3 $4 $5 $6 $7 $8 $9 X,Y pos of 4 corners*
0 Add a 4 corners polygon primitive as box body*
4,1,4,$2,$3,$4,$5,$6,$7,$8,$9,$2,$3,0*
0 Add four circle primitives for the rounded corners*
1,1,$1+$1,$2,$3*
1,1,$1+$1,$4,$5*
1,1,$1+$1,$6,$7*
1,1,$1+$1,$8,$9*
0 Add four rect primitives between the rounded corners*
20,1,$1+$1,$2,$3,$4,$5,0*
20,1,$1+$1,$4,$5,$6,$7,0*
20,1,$1+$1,$6,$7,$8,$9,0*
20,1,$1+$1,$8,$9,$2,$3,0*%
G04 Aperture macros list end*
%TA.AperFunction,ComponentPad*%
%ADD10C,1.524000*%
%TD*%
%TA.AperFunction,ComponentPad*%
%ADD11R,1.700000X1.700000*%
%TD*%
%TA.AperFunction,ComponentPad*%
%ADD12O,1.700000X1.700000*%
%TD*%
%TA.AperFunction,SMDPad,CuDef*%
%ADD13RoundRect,0.140000X0.219203X0.021213X0.021213X0.219203X-0.219203X-0.021213X-0.021213X-0.219203X0*%
%TD*%
%TA.AperFunction,ComponentPad*%
%ADD14RoundRect,0.250000X-0.725000X0.600000X-0.725000X-0.600000X0.725000X-0.600000X0.725000X0.600000X0*%
%TD*%
%TA.AperFunction,ComponentPad*%
%ADD15O,1.950000X1.700000*%
%TD*%
%TA.AperFunction,SMDPad,CuDef*%
%ADD16RoundRect,0.250000X0.503814X0.132583X0.132583X0.503814X-0.503814X-0.132583X-0.132583X-0.503814X0*%
%TD*%
%TA.AperFunction,SMDPad,CuDef*%
%ADD17RoundRect,0.200000X-0.200000X-0.275000X0.200000X-0.275000X0.200000X0.275000X-0.200000X0.275000X0*%
%TD*%
%TA.AperFunction,SMDPad,CuDef*%
%ADD18RoundRect,0.140000X0.021213X-0.219203X0.219203X-0.021213X-0.021213X0.219203X-0.219203X0.021213X0*%
%TD*%
%TA.AperFunction,SMDPad,CuDef*%
%ADD19RoundRect,0.075000X-0.441942X-0.548008X0.548008X0.441942X0.441942X0.548008X-0.548008X-0.441942X0*%
%TD*%
%TA.AperFunction,SMDPad,CuDef*%
%ADD20RoundRect,0.075000X0.441942X-0.548008X0.548008X-0.441942X-0.441942X0.548008X-0.548008X0.441942X0*%
%TD*%
%TA.AperFunction,SMDPad,CuDef*%
%ADD21RoundRect,0.200000X0.275000X-0.200000X0.275000X0.200000X-0.275000X0.200000X-0.275000X-0.200000X0*%
%TD*%
%TA.AperFunction,SMDPad,CuDef*%
%ADD22RoundRect,0.140000X-0.219203X-0.021213X-0.021213X-0.219203X0.219203X0.021213X0.021213X0.219203X0*%
%TD*%
%TA.AperFunction,SMDPad,CuDef*%
%ADD23RoundRect,0.140000X-0.021213X0.219203X-0.219203X0.021213X0.021213X-0.219203X0.219203X-0.021213X0*%
%TD*%
%TA.AperFunction,ViaPad*%
%ADD24C,0.800000*%
%TD*%
%TA.AperFunction,Conductor*%
%ADD25C,0.250000*%
%TD*%
%TA.AperFunction,Conductor*%
%ADD26C,0.200000*%
%TD*%
%TA.AperFunction,Conductor*%
%ADD27C,0.400000*%
%TD*%
%TA.AperFunction,Conductor*%
%ADD28C,0.800000*%
%TD*%
G04 APERTURE END LIST*
D10*
%TO.P,U6,1,3V3*%
%TO.N,+3V3*%
X198120000Y-110490000D03*
%TO.P,U6,2,GND*%
%TO.N,GND*%
X200660000Y-110490000D03*
%TO.P,U6,3,SCL*%
%TO.N,I2C1_SCL*%
X203200000Y-110490000D03*
%TO.P,U6,4,SDA*%
%TO.N,I2C1_SDA*%
X205740000Y-110490000D03*
%TO.P,U6,5,XSHUT*%
%TO.N,XSHUT5*%
X203200000Y-100330000D03*
%TO.P,U6,6,GPIO*%
%TO.N,unconnected-(U6-GPIO-Pad6)*%
X205740000Y-100330000D03*
%TD*%
%TO.P,U4,1,3V3*%
%TO.N,+3V3*%
X149860000Y-110490000D03*
%TO.P,U4,2,GND*%
%TO.N,GND*%
X152400000Y-110490000D03*
%TO.P,U4,3,SCL*%
%TO.N,I2C1_SCL*%
X154940000Y-110490000D03*
%TO.P,U4,4,SDA*%
%TO.N,I2C1_SDA*%
X157480000Y-110490000D03*
%TO.P,U4,5,XSHUT*%
%TO.N,XSHUT3*%
X154940000Y-100330000D03*
%TO.P,U4,6,GPIO*%
%TO.N,unconnected-(U4-GPIO-Pad6)*%
X157480000Y-100330000D03*
%TD*%
%TO.P,U3,6,GPIO*%
%TO.N,unconnected-(U3-GPIO-Pad6)*%
X134620000Y-100330000D03*
%TO.P,U3,5,XSHUT*%
%TO.N,XSHUT2*%
X132080000Y-100330000D03*
%TO.P,U3,4,SDA*%
%TO.N,I2C1_SDA*%
X134620000Y-110490000D03*
%TO.P,U3,3,SCL*%
%TO.N,I2C1_SCL*%
X132080000Y-110490000D03*
%TO.P,U3,2,GND*%
%TO.N,GND*%
X129540000Y-110490000D03*
%TO.P,U3,1,3V3*%
%TO.N,+3V3*%
X127000000Y-110490000D03*
%TD*%
%TO.P,U7,1,P0*%
%TO.N,UART3_TX*%
X139192000Y-91440000D03*
%TO.P,U7,2,P1*%
%TO.N,UART3_RX*%
X139192000Y-93980000D03*
%TO.P,U7,3,P2*%
%TO.N,unconnected-(U7-P2-Pad3)*%
X139192000Y-96520000D03*
%TO.P,U7,4,P3*%
%TO.N,unconnected-(U7-P3-Pad4)*%
X139192000Y-99060000D03*
%TO.P,U7,5,P4*%
%TO.N,unconnected-(U7-P4-Pad5)*%
X139192000Y-101600000D03*
%TO.P,U7,6,P5*%
%TO.N,unconnected-(U7-P5-Pad6)*%
X139192000Y-104140000D03*
%TO.P,U7,7,P6*%
%TO.N,unconnected-(U7-P6-Pad7)*%
X139192000Y-106680000D03*
%TO.P,U7,8,3V3*%
%TO.N,+3V3*%
X139192000Y-109220000D03*
%TO.P,U7,9,RST*%
%TO.N,unconnected-(U7-RST-Pad9)*%
X171450000Y-91440000D03*
%TO.P,U7,10,BOOT*%
%TO.N,unconnected-(U7-BOOT-Pad10)*%
X171450000Y-93980000D03*
%TO.P,U7,11,SYN*%
%TO.N,unconnected-(U7-SYN-Pad11)*%
X171450000Y-96520000D03*
%TO.P,U7,12,P9*%
%TO.N,unconnected-(U7-P9-Pad12)*%
X171450000Y-99060000D03*
%TO.P,U7,13,P8*%
%TO.N,unconnected-(U7-P8-Pad13)*%
X171450000Y-101600000D03*
%TO.P,U7,14,P7*%
%TO.N,unconnected-(U7-P7-Pad14)*%
X171450000Y-104140000D03*
%TO.P,U7,15,VIN*%
%TO.N,+5V*%
X171450000Y-106680000D03*
%TO.P,U7,16,GND*%
%TO.N,GND*%
X171450000Y-109220000D03*
%TO.P,U7,17,SWO*%
%TO.N,unconnected-(U7-SWO-Pad17)*%
X167640000Y-91440000D03*
%TO.P,U7,18,SWC*%
%TO.N,unconnected-(U7-SWC-Pad18)*%
X167640000Y-93980000D03*
%TO.P,U7,19,SWD*%
%TO.N,unconnected-(U7-SWD-Pad19)*%
X167640000Y-96520000D03*
%TO.P,U7,20,RST*%
%TO.N,unconnected-(U7-RST-Pad20)*%
X167640000Y-99060000D03*
%TO.P,U7,21,3V3*%
%TO.N,unconnected-(U7-3V3-Pad21)*%
X167640000Y-101600000D03*
%TO.P,U7,22,GND*%
%TO.N,unconnected-(U7-GND-Pad22)*%
X167640000Y-104140000D03*
%TD*%
%TO.P,U5,1,3V3*%
%TO.N,+3V3*%
X177800000Y-110490000D03*
%TO.P,U5,2,GND*%
%TO.N,GND*%
X180340000Y-110490000D03*
%TO.P,U5,3,SCL*%
%TO.N,I2C1_SCL*%
X182880000Y-110490000D03*
%TO.P,U5,4,SDA*%
%TO.N,I2C1_SDA*%
X185420000Y-110490000D03*
%TO.P,U5,5,XSHUT*%
%TO.N,XSHUT4*%
X182880000Y-100330000D03*
%TO.P,U5,6,GPIO*%
%TO.N,unconnected-(U5-GPIO-Pad6)*%
X185420000Y-100330000D03*
%TD*%
D11*
%TO.P,J1,1,Pin_1*%
%TO.N,unconnected-(J1-Pin_1-Pad1)*%
X162560000Y-107950000D03*
D12*
%TO.P,J1,2,Pin_2*%
%TO.N,UART1_RX*%
X165100000Y-107950000D03*
%TO.P,J1,3,Pin_3*%
%TO.N,NRST*%
X162560000Y-105410000D03*
%TO.P,J1,4,Pin_4*%
%TO.N,UART1_TX*%
X165100000Y-105410000D03*
%TO.P,J1,5,Pin_5*%
%TO.N,BOOT0*%
X162560000Y-102870000D03*
%TO.P,J1,6,Pin_6*%
%TO.N,GND*%
X165100000Y-102870000D03*
%TO.P,J1,7,Pin_7*%
%TO.N,unconnected-(J1-Pin_7-Pad7)*%
X162560000Y-100330000D03*
%TO.P,J1,8,Pin_8*%
%TO.N,+3V3*%
X165100000Y-100330000D03*
%TD*%
D10*
%TO.P,U2,1,3V3*%
%TO.N,+3V3*%
X104140000Y-110490000D03*
%TO.P,U2,2,GND*%
%TO.N,GND*%
X106680000Y-110490000D03*
%TO.P,U2,3,SCL*%
%TO.N,I2C1_SCL*%
X109220000Y-110490000D03*
%TO.P,U2,4,SDA*%
%TO.N,I2C1_SDA*%
X111760000Y-110490000D03*
%TO.P,U2,5,XSHUT*%
%TO.N,XSHUT1*%
X109220000Y-100330000D03*
%TO.P,U2,6,GPIO*%
%TO.N,unconnected-(U2-GPIO-Pad6)*%
X111760000Y-100330000D03*
%TD*%
D13*
%TO.P,C9,1*%
%TO.N,GND*%
X142833411Y-97875411D03*
%TO.P,C9,2*%
%TO.N,Net-(U1-VDDA)*%
X142154589Y-97196589D03*
%TD*%
D14*
%TO.P,J2,1,Pin_1*%
%TO.N,+5V*%
X132080000Y-66160000D03*
D15*
%TO.P,J2,2,Pin_2*%
%TO.N,UART2_TX*%
X132080000Y-68660000D03*
%TO.P,J2,3,Pin_3*%
%TO.N,UART2_RX*%
X132080000Y-71160000D03*
%TO.P,J2,4,Pin_4*%
%TO.N,GND*%
X132080000Y-73660000D03*
%TD*%
D13*
%TO.P,C2,1*%
%TO.N,Net-(U1-VCAP_1)*%
X144865411Y-87461411D03*
%TO.P,C2,2*%
%TO.N,GND*%
X144186589Y-86782589D03*
%TD*%
D16*
%TO.P,FB1,1*%
%TO.N,+3V3*%
X143139235Y-89037235D03*
%TO.P,FB1,2*%
%TO.N,Net-(U1-VDDA)*%
X141848765Y-87746765D03*
%TD*%
D17*
%TO.P,R2,1*%
%TO.N,Net-(U1-PB2)*%
X157925000Y-86995000D03*
%TO.P,R2,2*%
%TO.N,GND*%
X159575000Y-86995000D03*
%TD*%
D18*
%TO.P,C4,1*%
%TO.N,GND*%
X141392589Y-91017411D03*
%TO.P,C4,2*%
%TO.N,+3V3*%
X142071411Y-90338589D03*
%TD*%
D13*
%TO.P,C10,1*%
%TO.N,GND*%
X142071411Y-98637411D03*
%TO.P,C10,2*%
%TO.N,Net-(U1-VDDA)*%
X141392589Y-97958589D03*
%TD*%
D19*
%TO.P,U1,1,VBAT*%
%TO.N,+3V3*%
X147863819Y-100419320D03*
%TO.P,U1,2,PC13*%
%TO.N,unconnected-(U1-PC13-Pad2)*%
X147510266Y-100065767D03*
%TO.P,U1,3,PC14*%
%TO.N,unconnected-(U1-PC14-Pad3)*%
X147156713Y-99712214D03*
%TO.P,U1,4,PC15*%
%TO.N,unconnected-(U1-PC15-Pad4)*%
X146803159Y-99358660D03*
%TO.P,U1,5,PH0*%
%TO.N,unconnected-(U1-PH0-Pad5)*%
X146449606Y-99005107D03*
%TO.P,U1,6,PH1*%
%TO.N,unconnected-(U1-PH1-Pad6)*%
X146096052Y-98651553D03*
%TO.P,U1,7,NRST*%
%TO.N,NRST*%
X145742499Y-98298000D03*
%TO.P,U1,8,PC0*%
%TO.N,unconnected-(U1-PC0-Pad8)*%
X145388946Y-97944447D03*
%TO.P,U1,9,PC1*%
%TO.N,unconnected-(U1-PC1-Pad9)*%
X145035392Y-97590893D03*
%TO.P,U1,10,PC2*%
%TO.N,unconnected-(U1-PC2-Pad10)*%
X144681839Y-97237340D03*
%TO.P,U1,11,PC3*%
%TO.N,unconnected-(U1-PC3-Pad11)*%
X144328286Y-96883787D03*
%TO.P,U1,12,VSSA*%
%TO.N,GND*%
X143974732Y-96530233D03*
%TO.P,U1,13,VDDA*%
%TO.N,Net-(U1-VDDA)*%
X143621179Y-96176680D03*
%TO.P,U1,14,PA0*%
%TO.N,unconnected-(U1-PA0-Pad14)*%
X143267625Y-95823126D03*
%TO.P,U1,15,PA1*%
%TO.N,unconnected-(U1-PA1-Pad15)*%
X142914072Y-95469573D03*
%TO.P,U1,16,PA2*%
%TO.N,UART2_TX*%
X142560519Y-95116020D03*
D20*
%TO.P,U1,17,PA3*%
%TO.N,UART2_RX*%
X142560519Y-92393658D03*
%TO.P,U1,18,VSS*%
%TO.N,GND*%
X142914072Y-92040105D03*
%TO.P,U1,19,VDD*%
%TO.N,+3V3*%
X143267625Y-91686552D03*
%TO.P,U1,20,PA4*%
%TO.N,XSHUT1*%
X143621179Y-91332998D03*
%TO.P,U1,21,PA5*%
%TO.N,XSHUT2*%
X143974732Y-90979445D03*
%TO.P,U1,22,PA6*%
%TO.N,XSHUT3*%
X144328286Y-90625891D03*
%TO.P,U1,23,PA7*%
%TO.N,XSHUT4*%
X144681839Y-90272338D03*
%TO.P,U1,24,PC4*%
%TO.N,unconnected-(U1-PC4-Pad24)*%
X145035392Y-89918785D03*
%TO.P,U1,25,PC5*%
%TO.N,UART3_RX*%
X145388946Y-89565231D03*
%TO.P,U1,26,PB0*%
%TO.N,unconnected-(U1-PB0-Pad26)*%
X145742499Y-89211678D03*
%TO.P,U1,27,PB1*%
%TO.N,unconnected-(U1-PB1-Pad27)*%
X146096052Y-88858125D03*
%TO.P,U1,28,PB2*%
%TO.N,Net-(U1-PB2)*%
X146449606Y-88504571D03*
%TO.P,U1,29,PB10*%
%TO.N,unconnected-(U1-PB10-Pad29)*%
X146803159Y-88151018D03*
%TO.P,U1,30,VCAP_1*%
%TO.N,Net-(U1-VCAP_1)*%
X147156713Y-87797464D03*
%TO.P,U1,31,VSS*%
%TO.N,GND*%
X147510266Y-87443911D03*
%TO.P,U1,32,VDD*%
%TO.N,+3V3*%
X147863819Y-87090358D03*
D19*
%TO.P,U1,33,PB12*%
%TO.N,unconnected-(U1-PB12-Pad33)*%
X150586181Y-87090358D03*
%TO.P,U1,34,PB13*%
%TO.N,unconnected-(U1-PB13-Pad34)*%
X150939734Y-87443911D03*
%TO.P,U1,35,PB14*%
%TO.N,unconnected-(U1-PB14-Pad35)*%
X151293287Y-87797464D03*
%TO.P,U1,36,PB15*%
%TO.N,unconnected-(U1-PB15-Pad36)*%
X151646841Y-88151018D03*
%TO.P,U1,37,PC6*%
%TO.N,unconnected-(U1-PC6-Pad37)*%
X152000394Y-88504571D03*
%TO.P,U1,38,PC7*%
%TO.N,unconnected-(U1-PC7-Pad38)*%
X152353948Y-88858125D03*
%TO.P,U1,39,PC8*%
%TO.N,unconnected-(U1-PC8-Pad39)*%
X152707501Y-89211678D03*
%TO.P,U1,40,PC9*%
%TO.N,unconnected-(U1-PC9-Pad40)*%
X153061054Y-89565231D03*
%TO.P,U1,41,PA8*%
%TO.N,XSHUT5*%
X153414608Y-89918785D03*
%TO.P,U1,42,PA9*%
%TO.N,UART1_TX*%
X153768161Y-90272338D03*
%TO.P,U1,43,PA10*%
%TO.N,UART1_RX*%
X154121714Y-90625891D03*
%TO.P,U1,44,PA11*%
%TO.N,WS2812B*%
X154475268Y-90979445D03*
%TO.P,U1,45,PA12*%
%TO.N,unconnected-(U1-PA12-Pad45)*%
X154828821Y-91332998D03*
%TO.P,U1,46,PA13*%
%TO.N,unconnected-(U1-PA13-Pad46)*%
X155182375Y-91686552D03*
%TO.P,U1,47,VSS*%
%TO.N,GND*%
X155535928Y-92040105D03*
%TO.P,U1,48,VDD*%
%TO.N,+3V3*%
X155889481Y-92393658D03*
D20*
%TO.P,U1,49,PA14*%
%TO.N,unconnected-(U1-PA14-Pad49)*%
X155889481Y-95116020D03*
%TO.P,U1,50,PA15*%
%TO.N,unconnected-(U1-PA15-Pad50)*%
X155535928Y-95469573D03*
%TO.P,U1,51,PC10*%
%TO.N,UART3_TX*%
X155182375Y-95823126D03*
%TO.P,U1,52,PC11*%
%TO.N,unconnected-(U1-PC11-Pad52)*%
X154828821Y-96176680D03*
%TO.P,U1,53,PC12*%
%TO.N,unconnected-(U1-PC12-Pad53)*%
X154475268Y-96530233D03*
%TO.P,U1,54,PD2*%
%TO.N,unconnected-(U1-PD2-Pad54)*%
X154121714Y-96883787D03*
%TO.P,U1,55,PB3*%
%TO.N,unconnected-(U1-PB3-Pad55)*%
X153768161Y-97237340D03*
%TO.P,U1,56,PB4*%
%TO.N,unconnected-(U1-PB4-Pad56)*%
X153414608Y-97590893D03*
%TO.P,U1,57,PB5*%
%TO.N,unconnected-(U1-PB5-Pad57)*%
X153061054Y-97944447D03*
%TO.P,U1,58,PB6*%
%TO.N,I2C1_SCL*%
X152707501Y-98298000D03*
%TO.P,U1,59,PB7*%
%TO.N,I2C1_SDA*%
X152353948Y-98651553D03*
%TO.P,U1,60,BOOT0*%
%TO.N,BOOT0*%
X152000394Y-99005107D03*
%TO.P,U1,61,PB8*%
%TO.N,unconnected-(U1-PB8-Pad61)*%
X151646841Y-99358660D03*
%TO.P,U1,62,PB9*%
%TO.N,unconnected-(U1-PB9-Pad62)*%
X151293287Y-99712214D03*
%TO.P,U1,63,VSS*%
%TO.N,GND*%
X150939734Y-100065767D03*
%TO.P,U1,64,VDD*%
%TO.N,+3V3*%
X150586181Y-100419320D03*
%TD*%
D21*
%TO.P,R3,1*%
%TO.N,+3V3*%
X198755000Y-108775000D03*
%TO.P,R3,2*%
%TO.N,I2C1_SDA*%
X198755000Y-107125000D03*
%TD*%
D18*
%TO.P,C6,1*%
%TO.N,GND*%
X145710589Y-86699411D03*
%TO.P,C6,2*%
%TO.N,+3V3*%
X146389411Y-86020589D03*
%TD*%
D21*
%TO.P,R1,1*%
%TO.N,BOOT0*%
X160020000Y-102425000D03*
%TO.P,R1,2*%
%TO.N,GND*%
X160020000Y-100775000D03*
%TD*%
D22*
%TO.P,C3,1*%
%TO.N,GND*%
X156378589Y-90084589D03*
%TO.P,C3,2*%
%TO.N,+3V3*%
X157057411Y-90763411D03*
%TD*%
D21*
%TO.P,R4,1*%
%TO.N,I2C1_SCL*%
X198755000Y-114490000D03*
%TO.P,R4,2*%
%TO.N,+3V3*%
X198755000Y-112840000D03*
%TD*%
D22*
%TO.P,C1,1*%
%TO.N,GND*%
X143678589Y-98720589D03*
%TO.P,C1,2*%
%TO.N,NRST*%
X144357411Y-99399411D03*
%TD*%
D18*
%TO.P,C5,1*%
%TO.N,GND*%
X147742589Y-102193411D03*
%TO.P,C5,2*%
%TO.N,+3V3*%
X148421411Y-101514589D03*
%TD*%
%TO.P,C7,1*%
%TO.N,+3V3*%
X152568589Y-102447411D03*
%TO.P,C7,2*%
%TO.N,GND*%
X153247411Y-101768589D03*
%TD*%
D23*
%TO.P,C8,1*%
%TO.N,GND*%
X152485411Y-101006589D03*
%TO.P,C8,2*%
%TO.N,+3V3*%
X151806589Y-101685411D03*
%TD*%
D24*
%TO.N,+3V3*%
X175895000Y-106680000D03*
X138430000Y-86995000D03*
X147320000Y-96520000D03*
X169545000Y-107315000D03*
X141430142Y-89535000D03*
%TO.N,GND*%
X159385000Y-92075000D03*
X158115000Y-104140000D03*
X145415000Y-100965000D03*
X174625000Y-101600000D03*
X165100000Y-97155000D03*
X170180000Y-66040000D03*
X145580795Y-94525500D03*
X188595000Y-102870000D03*
X114300000Y-97790000D03*
X148590000Y-86360000D03*
X121285000Y-77470000D03*
X128905000Y-76835000D03*
X122555000Y-62230000D03*
X156210000Y-101600000D03*
X175260000Y-90170000D03*
X139065000Y-83820000D03*
X165735000Y-91440000D03*
X177165000Y-73025000D03*
X191770000Y-104775000D03*
X168275000Y-109220000D03*
X153035000Y-86995000D03*
X154940000Y-112395000D03*
X140970000Y-107315000D03*
X107950000Y-108585000D03*
X155575000Y-106680000D03*
X136525000Y-93980000D03*
X208280000Y-118745000D03*
X150495000Y-107950000D03*
X186690000Y-106045000D03*
X145415000Y-103505000D03*
X132080000Y-112395000D03*
X149225000Y-91440000D03*
X133985000Y-95885000D03*
X128270000Y-83185000D03*
X127000000Y-107315000D03*
X132080000Y-83185000D03*
X128270000Y-90805000D03*
X158750000Y-107950000D03*
X113665000Y-114300000D03*
X147955000Y-105410000D03*
X187325000Y-78105000D03*
X145415000Y-107950000D03*
X163195000Y-91440000D03*
X186690000Y-62230000D03*
X182245000Y-90805000D03*
X149225000Y-88900000D03*
X139700000Y-66040000D03*
X158750000Y-98425000D03*
X104140000Y-107315000D03*
X104140000Y-113030000D03*
X184150000Y-102870000D03*
X119380000Y-100965000D03*
X208915000Y-111760000D03*
X127000000Y-118110000D03*
X123190000Y-114935000D03*
X101600000Y-101600000D03*
X187960000Y-100330000D03*
X207645000Y-92075000D03*
X102235000Y-118745000D03*
X160655000Y-93980000D03*
X170180000Y-86360000D03*
X134620000Y-66675000D03*
X141605000Y-100965000D03*
X140335000Y-86995000D03*
X101600000Y-92075000D03*
%TO.N,NRST*%
X148590000Y-98552000D03*
%TO.N,Net-(U1-VDDA)*%
X140504110Y-95160500D03*
X136525000Y-97065500D03*
%TO.N,UART2_RX*%
X139192000Y-89408000D03*
X141522954Y-93283500D03*
%TO.N,XSHUT1*%
X141034500Y-94308491D03*
%TO.N,XSHUT2*%
X147030295Y-93880107D03*
%TO.N,XSHUT4*%
X170942000Y-88900000D03*
X149352000Y-93218000D03*
%TO.N,XSHUT5*%
X169418000Y-90170000D03*
X150876000Y-92964000D03*
%TO.N,I2C1_SCL*%
X149860000Y-96520000D03*
%TO.N,I2C1_SDA*%
X150495000Y-97790000D03*
%TO.N,WS2812B*%
X153924000Y-92964000D03*
X169418000Y-92710000D03*
X175260000Y-97536000D03*
%TO.N,Net-(D10-DOUT)*%
X137160000Y-65405000D03*
X181610000Y-66040000D03*
%TD*%
D25*
%TO.N,+3V3*%
X143139235Y-89037235D02*
X143139235Y-89270765D01*
D26*
X146093822Y-85725000D02*
X146389411Y-86020589D01*
D25*
X150586181Y-100465003D02*
X150586181Y-100419320D01*
X147583305Y-96520000D02*
X147320000Y-96520000D01*
D27*
X170072000Y-107842000D02*
X174733000Y-107842000D01*
D25*
X150586181Y-100419320D02*
X149516680Y-100419320D01*
X198755000Y-112840000D02*
X198755000Y-111125000D01*
X198755000Y-108775000D02*
X198755000Y-109855000D01*
D28*
X148704536Y-101797714D02*
X148421411Y-101514589D01*
D25*
X148421411Y-100976912D02*
X147863819Y-100419320D01*
X142071411Y-90490338D02*
X142071411Y-90338589D01*
D27*
X165100000Y-100330000D02*
X157057411Y-92287411D01*
D25*
X147863819Y-100419320D02*
X149315000Y-98968139D01*
X149315000Y-98968139D02*
X149315000Y-98251695D01*
X148421411Y-101514589D02*
X148421411Y-100976912D01*
D28*
X142002936Y-109220000D02*
X148704536Y-102518400D01*
D25*
X157057411Y-90763411D02*
X157057411Y-92287411D01*
X147863819Y-87090358D02*
X146794050Y-86020589D01*
D28*
X139192000Y-109220000D02*
X142002936Y-109220000D01*
D26*
X139700000Y-85725000D02*
X146093822Y-85725000D01*
D25*
X149315000Y-98251695D02*
X147583305Y-96520000D01*
X198755000Y-109855000D02*
X198120000Y-110490000D01*
X149516680Y-100419320D02*
X148421411Y-101514589D01*
X146794050Y-86020589D02*
X146643411Y-86020589D01*
D27*
X157057411Y-92287411D02*
X157057411Y-91225728D01*
D28*
X148704536Y-102518400D02*
X148704536Y-101797714D01*
D25*
X155889481Y-92393658D02*
X157057411Y-91225728D01*
X143267625Y-91686552D02*
X142071411Y-90490338D01*
D26*
X141927907Y-89037235D02*
X141430142Y-89535000D01*
X143139235Y-89037235D02*
X141927907Y-89037235D01*
D27*
X174733000Y-107842000D02*
X175895000Y-106680000D01*
X157057411Y-90763411D02*
X157057411Y-91225728D01*
X169545000Y-107315000D02*
X170072000Y-107842000D01*
D25*
X198755000Y-111125000D02*
X198120000Y-110490000D01*
X152568589Y-102447411D02*
X150586181Y-100465003D01*
X143139235Y-89270765D02*
X142071411Y-90338589D01*
D26*
X138430000Y-86995000D02*
X139700000Y-85725000D01*
D25*
%TO.N,GND*%
X143542229Y-92668262D02*
X142914072Y-92040105D01*
X145429752Y-93255500D02*
X144842514Y-92668262D01*
X150939734Y-100065767D02*
X151880556Y-101006589D01*
X145429752Y-94374457D02*
X145429752Y-93255500D01*
X155535928Y-92040105D02*
X156159386Y-91416647D01*
X159575000Y-87820000D02*
X159575000Y-86995000D01*
X156378589Y-90084589D02*
X156597792Y-89865386D01*
X163195000Y-91440000D02*
X159575000Y-87820000D01*
X157175386Y-89865386D02*
X159385000Y-92075000D01*
X153247411Y-101768589D02*
X152485411Y-101006589D01*
X144186589Y-86782589D02*
X143568000Y-86164000D01*
X142833411Y-97875411D02*
X143678589Y-98720589D01*
X144842514Y-92668262D02*
X143542229Y-92668262D01*
X144269767Y-86699411D02*
X145710589Y-86699411D01*
X146773891Y-86707536D02*
X147510266Y-87443911D01*
X143568000Y-86164000D02*
X141166000Y-86164000D01*
X141891378Y-91017411D02*
X141392589Y-91017411D01*
X156597792Y-89865386D02*
X157175386Y-89865386D01*
X146726589Y-102193411D02*
X145415000Y-103505000D01*
X142914072Y-92040105D02*
X141891378Y-91017411D01*
X141166000Y-86164000D02*
X140335000Y-86995000D01*
X144186589Y-86782589D02*
X144269767Y-86699411D01*
X147742589Y-102193411D02*
X146726589Y-102193411D01*
X145580795Y-94525500D02*
X145429752Y-94374457D01*
X156159386Y-90303792D02*
X156378589Y-90084589D01*
X143974732Y-96530233D02*
X142071411Y-98433554D01*
X156159386Y-91416647D02*
X156159386Y-90303792D01*
X145972714Y-86707536D02*
X146773891Y-86707536D01*
X151880556Y-101006589D02*
X152485411Y-101006589D01*
X145964589Y-86699411D02*
X145972714Y-86707536D01*
X142071411Y-98433554D02*
X142071411Y-98637411D01*
%TO.N,NRST*%
X144641088Y-99399411D02*
X145742499Y-98298000D01*
X144676442Y-99399411D02*
X146539853Y-97536000D01*
X144357411Y-99399411D02*
X144641088Y-99399411D01*
X146539853Y-97536000D02*
X147574000Y-97536000D01*
X147574000Y-97536000D02*
X148590000Y-98552000D01*
X144357411Y-99399411D02*
X144676442Y-99399411D01*
%TO.N,Net-(U1-VCAP_1)*%
X146106485Y-87201541D02*
X145846615Y-87461411D01*
X147156713Y-87797464D02*
X146560790Y-87201541D01*
X145846615Y-87461411D02*
X144865411Y-87461411D01*
X146560790Y-87201541D02*
X146106485Y-87201541D01*
D26*
%TO.N,Net-(U1-VDDA)*%
X136525000Y-99060000D02*
X137795000Y-100330000D01*
X136525000Y-97065500D02*
X136525000Y-99060000D01*
D25*
X141392589Y-97958589D02*
X141839270Y-97958589D01*
D26*
X140704000Y-88891530D02*
X141848765Y-87746765D01*
X140335000Y-93438040D02*
X140704000Y-93069040D01*
X140504110Y-95160500D02*
X140335000Y-94991390D01*
X140335000Y-100330000D02*
X141392589Y-99272411D01*
X140704000Y-93069040D02*
X140704000Y-88891530D01*
X137795000Y-100330000D02*
X140335000Y-100330000D01*
X140335000Y-94991390D02*
X140335000Y-93438040D01*
X141392589Y-99272411D02*
X141392589Y-97958589D01*
D25*
X141839270Y-97958589D02*
X143621179Y-96176680D01*
%TO.N,UART1_RX*%
X161385000Y-98901000D02*
X156200543Y-93716543D01*
X165100000Y-107950000D02*
X163925000Y-106775000D01*
X161385000Y-100816701D02*
X161385000Y-98901000D01*
X152146000Y-92601605D02*
X154121714Y-90625891D01*
X162073299Y-101505000D02*
X161385000Y-100816701D01*
X163925000Y-102383299D02*
X163046701Y-101505000D01*
X156200543Y-93716543D02*
X152644543Y-93716543D01*
X163925000Y-106775000D02*
X163925000Y-102383299D01*
X163046701Y-101505000D02*
X162073299Y-101505000D01*
X152146000Y-93218000D02*
X152146000Y-92601605D01*
X152644543Y-93716543D02*
X152146000Y-93218000D01*
%TO.N,UART1_TX*%
X169164000Y-96140749D02*
X168090251Y-95067000D01*
X164853500Y-95067000D02*
X159184142Y-89397642D01*
X159184142Y-89397642D02*
X154642857Y-89397642D01*
X166553000Y-101149749D02*
X167189749Y-100513000D01*
X166553000Y-103957000D02*
X166553000Y-101149749D01*
X165100000Y-105410000D02*
X166553000Y-103957000D01*
X167189749Y-100513000D02*
X168331000Y-100513000D01*
X154642857Y-89397642D02*
X153768161Y-90272338D01*
X168331000Y-100513000D02*
X169164000Y-99680000D01*
X168090251Y-95067000D02*
X164853500Y-95067000D01*
X169164000Y-99680000D02*
X169164000Y-96140749D01*
%TO.N,BOOT0*%
X152654000Y-99658713D02*
X152000394Y-99005107D01*
X162306000Y-102616000D02*
X155448000Y-102616000D01*
X155448000Y-102616000D02*
X152654000Y-99822000D01*
X152654000Y-99822000D02*
X152654000Y-99658713D01*
X162560000Y-102870000D02*
X162306000Y-102616000D01*
%TO.N,Net-(U1-PB2)*%
X157925000Y-86995000D02*
X157070881Y-86140881D01*
X147045530Y-89100495D02*
X146449606Y-88504571D01*
X157070881Y-86140881D02*
X150368932Y-86140881D01*
X150368932Y-86140881D02*
X147409318Y-89100495D01*
X147409318Y-89100495D02*
X147045530Y-89100495D01*
%TO.N,UART2_TX*%
X140069539Y-97607000D02*
X142560519Y-95116020D01*
X130780000Y-89645251D02*
X138741749Y-97607000D01*
X138741749Y-97607000D02*
X140069539Y-97607000D01*
X132080000Y-68660000D02*
X130780000Y-69960000D01*
X130780000Y-69960000D02*
X130780000Y-89645251D01*
%TO.N,UART2_RX*%
X137655000Y-76735000D02*
X137655000Y-87871000D01*
X137655000Y-87871000D02*
X139192000Y-89408000D01*
X141670677Y-93283500D02*
X142560519Y-92393658D01*
X141522954Y-93283500D02*
X141670677Y-93283500D01*
X132080000Y-71160000D02*
X137655000Y-76735000D01*
%TO.N,XSHUT1*%
X144506443Y-92218262D02*
X143621179Y-91332998D01*
X145024695Y-95250000D02*
X146050000Y-95250000D01*
X146305295Y-92966691D02*
X145556866Y-92218262D01*
X143491238Y-93716543D02*
X145024695Y-95250000D01*
X141034500Y-94308491D02*
X141523268Y-94308491D01*
X146050000Y-95250000D02*
X146305295Y-94994705D01*
X142115216Y-93716543D02*
X143491238Y-93716543D01*
X146305295Y-94994705D02*
X146305295Y-92966691D01*
X141523268Y-94308491D02*
X142115216Y-93716543D01*
X145556866Y-92218262D02*
X144506443Y-92218262D01*
%TO.N,XSHUT2*%
X147030295Y-93880107D02*
X147030295Y-92802691D01*
X144763549Y-91768262D02*
X143974732Y-90979445D01*
X146627000Y-92652000D02*
X145743262Y-91768262D01*
X146879604Y-92652000D02*
X146627000Y-92652000D01*
X147030295Y-92802691D02*
X146879604Y-92652000D01*
X145743262Y-91768262D02*
X144763549Y-91768262D01*
%TO.N,XSHUT3*%
X144328286Y-90625891D02*
X144924210Y-91221815D01*
X155611756Y-94166543D02*
X156972000Y-95526787D01*
X149030543Y-94166543D02*
X155611756Y-94166543D01*
X147066000Y-92202000D02*
X149030543Y-94166543D01*
X147066000Y-91947302D02*
X147066000Y-92202000D01*
X144994920Y-91221815D02*
X145091367Y-91318262D01*
X156972000Y-95526787D02*
X156972000Y-98298000D01*
X144924210Y-91221815D02*
X144994920Y-91221815D01*
X146436960Y-91318262D02*
X147066000Y-91947302D01*
X156972000Y-98298000D02*
X154940000Y-100330000D01*
X145091367Y-91318262D02*
X146436960Y-91318262D01*
%TO.N,XSHUT4*%
X145277763Y-90868262D02*
X147002262Y-90868262D01*
X144681839Y-90272338D02*
X145277763Y-90868262D01*
X171450000Y-88900000D02*
X182880000Y-100330000D01*
X147002262Y-90868262D02*
X149352000Y-93218000D01*
X170942000Y-88900000D02*
X171450000Y-88900000D01*
%TO.N,UART3_RX*%
X139192000Y-93980000D02*
X140279000Y-92893000D01*
X140279000Y-88132126D02*
X141797126Y-86614000D01*
X145984869Y-90161154D02*
X145388946Y-89565231D01*
X142437715Y-86614000D02*
X145388946Y-89565231D01*
X141797126Y-86614000D02*
X142437715Y-86614000D01*
X140279000Y-92893000D02*
X140279000Y-88132126D01*
%TO.N,XSHUT5*%
X202113000Y-101417000D02*
X180424251Y-101417000D01*
X170942000Y-92710000D02*
X169418000Y-91186000D01*
X171717251Y-92710000D02*
X170942000Y-92710000D01*
X169418000Y-91186000D02*
X169418000Y-90170000D01*
X203200000Y-100330000D02*
X202113000Y-101417000D01*
X150876000Y-92964000D02*
X152818684Y-91021316D01*
X152818684Y-90514709D02*
X153414608Y-89918785D01*
X180424251Y-101417000D02*
X171717251Y-92710000D01*
X152818684Y-91021316D02*
X152818684Y-90514709D01*
%TO.N,UART3_TX*%
X153691865Y-95758000D02*
X154222662Y-95227203D01*
X154586452Y-95227203D02*
X155182375Y-95823126D01*
X139107749Y-95433000D02*
X139642251Y-95433000D01*
X140094251Y-95885000D02*
X140970000Y-95885000D01*
X138105000Y-94430251D02*
X139107749Y-95433000D01*
X144758135Y-95758000D02*
X153691865Y-95758000D01*
X142688457Y-94166543D02*
X143166678Y-94166543D01*
X140970000Y-95885000D02*
X142688457Y-94166543D01*
X139642251Y-95433000D02*
X140094251Y-95885000D01*
X143166678Y-94166543D02*
X144758135Y-95758000D01*
X138105000Y-92527000D02*
X138105000Y-94430251D01*
X154222662Y-95227203D02*
X154586452Y-95227203D01*
X139192000Y-91440000D02*
X138105000Y-92527000D01*
D28*
%TO.N,I2C1_SCL*%
X133442000Y-111852000D02*
X132080000Y-110490000D01*
X156302000Y-111852000D02*
X181518000Y-111852000D01*
X130718000Y-111852000D02*
X132080000Y-110490000D01*
X153578000Y-111852000D02*
X133442000Y-111852000D01*
X186690000Y-114300000D02*
X199390000Y-114300000D01*
D25*
X152707501Y-98298000D02*
X150929501Y-96520000D01*
D28*
X154940000Y-110490000D02*
X153578000Y-111852000D01*
X181518000Y-111852000D02*
X182880000Y-110490000D01*
D25*
X150929501Y-96520000D02*
X149860000Y-96520000D01*
D28*
X109220000Y-110490000D02*
X110582000Y-111852000D01*
X110582000Y-111852000D02*
X130718000Y-111852000D01*
X154940000Y-110490000D02*
X156302000Y-111852000D01*
X182880000Y-110490000D02*
X186690000Y-114300000D01*
X199390000Y-114300000D02*
X203200000Y-110490000D01*
%TO.N,I2C1_SDA*%
X157572000Y-110582000D02*
X175781841Y-110582000D01*
X134620000Y-110490000D02*
X133258000Y-109128000D01*
X133258000Y-109128000D02*
X113122000Y-109128000D01*
X175781841Y-110582000D02*
X177235841Y-109128000D01*
X134712000Y-110582000D02*
X147841841Y-110582000D01*
D25*
X152353948Y-98651553D02*
X151492395Y-97790000D01*
D28*
X149295841Y-109128000D02*
X156118000Y-109128000D01*
X134620000Y-110490000D02*
X134712000Y-110582000D01*
X184058000Y-109128000D02*
X185420000Y-110490000D01*
X185420000Y-110490000D02*
X188595000Y-107315000D01*
X156118000Y-109128000D02*
X157480000Y-110490000D01*
D25*
X151492395Y-97790000D02*
X150495000Y-97790000D01*
D28*
X113122000Y-109128000D02*
X111760000Y-110490000D01*
X157480000Y-110490000D02*
X157572000Y-110582000D01*
X177235841Y-109128000D02*
X184058000Y-109128000D01*
X188595000Y-107315000D02*
X202565000Y-107315000D01*
X147841841Y-110582000D02*
X149295841Y-109128000D01*
X202565000Y-107315000D02*
X205740000Y-110490000D01*
D25*
%TO.N,WS2812B*%
X153879344Y-92919344D02*
X153924000Y-92964000D01*
X153879344Y-91575369D02*
X153879344Y-92919344D01*
X173157000Y-95433000D02*
X175260000Y-97536000D01*
X169418000Y-92710000D02*
X169418000Y-93485251D01*
X169418000Y-93485251D02*
X171365749Y-95433000D01*
X171365749Y-95433000D02*
X173157000Y-95433000D01*
X154475268Y-90979445D02*
X153879344Y-91575369D01*
%TO.N,Net-(D10-DOUT)*%
X179070000Y-63500000D02*
X181610000Y-66040000D01*
X139065000Y-63500000D02*
X179070000Y-63500000D01*
X137160000Y-65405000D02*
X139065000Y-63500000D01*
%TD*%
%TA.AperFunction,Conductor*%
%TO.N,GND*%
G36*
X200275051Y-110521898D02*
G01*
X200306266Y-110645162D01*
X200375813Y-110751612D01*
X200476157Y-110829713D01*
X200596422Y-110871000D01*
X200632553Y-110871000D01*
X199961811Y-111541741D01*
X200026582Y-111587094D01*
X200026592Y-111587100D01*
X200226715Y-111680419D01*
X200226729Y-111680424D01*
X200420981Y-111732473D01*
X200480642Y-111768838D01*
X200511171Y-111831685D01*
X200502876Y-111901060D01*
X200476569Y-111939929D01*
X199911800Y-112504699D01*
X199850477Y-112538184D01*
X199780786Y-112533200D01*
X199724852Y-112491329D01*
X199705734Y-112453911D01*
X199673478Y-112350394D01*
X199585472Y-112204815D01*
X199585470Y-112204813D01*
X199585469Y-112204811D01*
X199465188Y-112084530D01*
X199465186Y-112084529D01*
X199465185Y-112084528D01*
X199440348Y-112069513D01*
X199393162Y-112017984D01*
X199380500Y-111963397D01*
X199380500Y-111256192D01*
X199400185Y-111189153D01*
X199452989Y-111143398D01*
X199522147Y-111133454D01*
X199585703Y-111162479D01*
X199606075Y-111185069D01*
X199608258Y-111188187D01*
X200275096Y-110521349D01*
X200275051Y-110521898D01*
G37*
%TD.AperFunction*%
%TA.AperFunction,Conductor*%
G36*
X202207678Y-108235185D02*
G01*
X202228320Y-108251819D01*
X203016162Y-109039661D01*
X203049647Y-109100984D01*
X203044663Y-109170676D01*
X203002791Y-109226609D01*
X202960576Y-109247116D01*
X202917451Y-109258671D01*
X202766554Y-109299104D01*
X202766548Y-109299107D01*
X202566340Y-109392465D01*
X202566338Y-109392466D01*
X202385377Y-109519175D01*
X202229175Y-109675377D01*
X202102467Y-109856337D01*
X202102466Y-109856339D01*
X202102348Y-109856593D01*
X202042105Y-109985782D01*
X201995932Y-110038221D01*
X201928738Y-110057372D01*
X201861857Y-110037156D01*
X201817341Y-109985780D01*
X201757100Y-109856593D01*
X201757099Y-109856591D01*
X201711740Y-109791811D01*
X201044903Y-110458648D01*
X201044949Y-110458102D01*
X201013734Y-110334838D01*
X200944187Y-110228388D01*
X200843843Y-110150287D01*
X200723578Y-110109000D01*
X200687447Y-110109000D01*
X201358187Y-109438258D01*
X201293409Y-109392900D01*
X201293407Y-109392899D01*
X201093284Y-109299580D01*
X201093270Y-109299575D01*
X200879986Y-109242426D01*
X200879976Y-109242424D01*
X200660001Y-109223179D01*
X200659999Y-109223179D01*
X200440023Y-109242424D01*
X200440013Y-109242426D01*
X200226729Y-109299575D01*
X200226720Y-109299579D01*
X200026586Y-109392903D01*
X199961812Y-109438257D01*
X199961811Y-109438258D01*
X200632554Y-110109000D01*
X200628431Y-110109000D01*
X200534579Y-110124661D01*
X200422749Y-110185180D01*
X200336629Y-110278731D01*
X200285552Y-110395177D01*
X200279894Y-110463447D01*
X199608258Y-109791811D01*
X199608258Y-109791812D01*
X199606075Y-109794930D01*
X199551498Y-109838554D01*
X199481999Y-109845747D01*
X199419645Y-109814225D01*
X199384231Y-109753995D01*
X199380500Y-109723806D01*
X199380500Y-109651601D01*
X199400185Y-109584562D01*
X199440348Y-109545485D01*
X199465185Y-109530472D01*
X199585472Y-109410185D01*
X199673478Y-109264606D01*
X199724086Y-109102196D01*
X199730500Y-109031616D01*
X199730500Y-108518384D01*
X199724086Y-108447804D01*
X199701831Y-108376386D01*
X199700682Y-108306530D01*
X199737483Y-108247137D01*
X199800552Y-108217069D01*
X199820218Y-108215500D01*
X202140639Y-108215500D01*
X202207678Y-108235185D01*
G37*
%TD.AperFunction*%
%TA.AperFunction,Conductor*%
G36*
X169105077Y-94056918D02*
G01*
X170528674Y-95480515D01*
X170562159Y-95541838D01*
X170557175Y-95611530D01*
X170528676Y-95655876D01*
X170479173Y-95705380D01*
X170352466Y-95886338D01*
X170352465Y-95886340D01*
X170259107Y-96086548D01*
X170259104Y-96086554D01*
X170201930Y-96299929D01*
X170201929Y-96299937D01*
X170182677Y-96519997D01*
X170182677Y-96520002D01*
X170201929Y-96740062D01*
X170201930Y-96740070D01*
X170259104Y-96953445D01*
X170259105Y-96953447D01*
X170259106Y-96953450D01*
X170305161Y-97052216D01*
X170352466Y-97153662D01*
X170352468Y-97153666D01*
X170479170Y-97334615D01*
X170479175Y-97334621D01*
X170635378Y-97490824D01*
X170635384Y-97490829D01*
X170816333Y-97617531D01*
X170816335Y-97617532D01*
X170816338Y-97617534D01*
X170929483Y-97670294D01*
X170945189Y-97677618D01*
X170997628Y-97723790D01*
X171016780Y-97790984D01*
X170996564Y-97857865D01*
X170945189Y-97902382D01*
X170816340Y-97962465D01*
X170816338Y-97962466D01*
X170635377Y-98089175D01*
X170479175Y-98245377D01*
X170352466Y-98426338D01*
X170352465Y-98426340D01*
X170279388Y-98583056D01*
X170262657Y-98618936D01*
X170259107Y-98626548D01*
X170259104Y-98626554D01*
X170201930Y-98839929D01*
X170201929Y-98839937D01*
X170182677Y-99059994D01*
X170182677Y-99060002D01*
X170201929Y-99280062D01*
X170201930Y-99280070D01*
X170259104Y-99493445D01*
X170259105Y-99493447D01*
X170259106Y-99493450D01*
X170324961Y-99634677D01*
X170352466Y-99693662D01*
X170352468Y-99693666D01*
X170479170Y-99874615D01*
X170479175Y-99874621D01*
X170635378Y-100030824D01*
X170635384Y-100030829D01*
X170816333Y-100157531D01*
X170816335Y-100157532D01*
X170816338Y-100157534D01*
X170908164Y-100200353D01*
X170945189Y-100217618D01*
X170997628Y-100263790D01*
X171016780Y-100330984D01*
X170996564Y-100397865D01*
X170945189Y-100442382D01*
X170816340Y-100502465D01*
X170816338Y-100502466D01*
X170635377Y-100629175D01*
X170479175Y-100785377D01*
X170352466Y-100966338D01*
X170352465Y-100966340D01*
X170259107Y-101166548D01*
X170259104Y-101166554D01*
X170201930Y-101379929D01*
X170201929Y-101379937D01*
X170182677Y-101599997D01*
X170182677Y-101600002D01*
X170201929Y-101820062D01*
X170201930Y-101820070D01*
X170259104Y-102033445D01*
X170259105Y-102033447D01*
X170259106Y-102033450D01*
X170327656Y-102180456D01*
X170352466Y-102233662D01*
X170352468Y-102233666D01*
X170479170Y-102414615D01*
X170479175Y-102414621D01*
X170635378Y-102570824D01*
X170635384Y-102570829D01*
X170816333Y-102697531D01*
X170816335Y-102697532D01*
X170816338Y-102697534D01*
X170935748Y-102753215D01*
X170945189Y-102757618D01*
X170997628Y-102803790D01*
X171016780Y-102870984D01*
X170996564Y-102937865D01*
X170945189Y-102982382D01*
X170816340Y-103042465D01*
X170816338Y-103042466D01*
X170635377Y-103169175D01*
X170479175Y-103325377D01*
X170352466Y-103506338D01*
X170352465Y-103506340D01*
X170259107Y-103706548D01*
X170259104Y-103706554D01*
X170201930Y-103919929D01*
X170201929Y-103919937D01*
X170182677Y-104139997D01*
X170182677Y-104140002D01*
X170201929Y-104360062D01*
X170201930Y-104360070D01*
X170259104Y-104573445D01*
X170259105Y-104573447D01*
X170259106Y-104573450D01*
X170333118Y-104732169D01*
X170352466Y-104773662D01*
X170352468Y-104773666D01*
X170479170Y-104954615D01*
X170479175Y-104954621D01*
X170635378Y-105110824D01*
X170635384Y-105110829D01*
X170816333Y-105237531D01*
X170816335Y-105237532D01*
X170816338Y-105237534D01*
X170935748Y-105293215D01*
X170945189Y-105297618D01*
X170997628Y-105343790D01*
X171016780Y-105410984D01*
X170996564Y-105477865D01*
X170945189Y-105522382D01*
X170816340Y-105582465D01*
X170816338Y-105582466D01*
X170635377Y-105709175D01*
X170479175Y-105865377D01*
X170352466Y-106046338D01*
X170352465Y-106046340D01*
X170259107Y-106246548D01*
X170259104Y-106246554D01*
X170241643Y-106311722D01*
X170203559Y-106453855D01*
X170200529Y-106465162D01*
X170199183Y-106464801D01*
X170171082Y-106521490D01*
X170111133Y-106557376D01*
X170041298Y-106555154D01*
X170007115Y-106537667D01*
X169997733Y-106530851D01*
X169997729Y-106530848D01*
X169824807Y-106453857D01*
X169824802Y-106453855D01*
X169668749Y-106420686D01*
X169639646Y-106414500D01*
X169450354Y-106414500D01*
X169421251Y-106420686D01*
X169265197Y-106453855D01*
X169265192Y-106453857D01*
X169092270Y-106530848D01*
X169092265Y-106530851D01*
X168939129Y-106642111D01*
X168812466Y-106782785D01*
X168717821Y-106946715D01*
X168717818Y-106946722D01*
X168659327Y-107126740D01*
X168659326Y-107126744D01*
X168639540Y-107315000D01*
X168659326Y-107503256D01*
X168659327Y-107503259D01*
X168717818Y-107683277D01*
X168717821Y-107683284D01*
X168812467Y-107847216D01*
X168907425Y-107952677D01*
X168939129Y-107987888D01*
X169092265Y-108099148D01*
X169092270Y-108099151D01*
X169265192Y-108176142D01*
X169265193Y-108176142D01*
X169265197Y-108176144D01*
X169420127Y-108209075D01*
X169481609Y-108242267D01*
X169482028Y-108242684D01*
X169560392Y-108321048D01*
X169562928Y-108323742D01*
X169604071Y-108370183D01*
X169640706Y-108395470D01*
X169655115Y-108405416D01*
X169658120Y-108407626D01*
X169706944Y-108445878D01*
X169706946Y-108445879D01*
X169706949Y-108445881D01*
X169716177Y-108450034D01*
X169735731Y-108461062D01*
X169744066Y-108466816D01*
X169744068Y-108466816D01*
X169744070Y-108466818D01*
X169802079Y-108488817D01*
X169805476Y-108490224D01*
X169852770Y-108511509D01*
X169862064Y-108515693D01*
X169862065Y-108515693D01*
X169862069Y-108515695D01*
X169872034Y-108517521D01*
X169893656Y-108523548D01*
X169893667Y-108523552D01*
X169903128Y-108527140D01*
X169948251Y-108532618D01*
X169964674Y-108534613D01*
X169968371Y-108535175D01*
X170029394Y-108546358D01*
X170084752Y-108543009D01*
X170091303Y-108542613D01*
X170095048Y-108542500D01*
X170178820Y-108542500D01*
X170245859Y-108562185D01*
X170291614Y-108614989D01*
X170301558Y-108684147D01*
X170291202Y-108718905D01*
X170259579Y-108786720D01*
X170259575Y-108786729D01*
X170202426Y-109000013D01*
X170202424Y-109000023D01*
X170183179Y-109219999D01*
X170183179Y-109220000D01*
X170202424Y-109439976D01*
X170202425Y-109439982D01*
X170225315Y-109525406D01*
X170223652Y-109595256D01*
X170184490Y-109653119D01*
X170120261Y-109680623D01*
X170105540Y-109681500D01*
X158508308Y-109681500D01*
X158441269Y-109661815D01*
X158420627Y-109645181D01*
X158294621Y-109519175D01*
X158294615Y-109519170D01*
X158113666Y-109392468D01*
X158113662Y-109392466D01*
X158076553Y-109375162D01*
X157913450Y-109299106D01*
X157913447Y-109299105D01*
X157913445Y-109299104D01*
X157700070Y-109241930D01*
X157700062Y-109241929D01*
X157531728Y-109227202D01*
X157466659Y-109201750D01*
X157454854Y-109191355D01*
X156811764Y-108548265D01*
X156799126Y-108533468D01*
X156799125Y-108533467D01*
X156790888Y-108522129D01*
X156786729Y-108518384D01*
X156739277Y-108475657D01*
X156736922Y-108473423D01*
X156721382Y-108457882D01*
X156704295Y-108444043D01*
X156701831Y-108441939D01*
X156650220Y-108395470D01*
X156650213Y-108395465D01*
X156638070Y-108388454D01*
X156622043Y-108377438D01*
X156611153Y-108368620D01*
X156611151Y-108368619D01*
X156611149Y-108368617D01*
X156588638Y-108357147D01*
X156549266Y-108337085D01*
X156546414Y-108335537D01*
X156486282Y-108300820D01*
X156472949Y-108296488D01*
X156454978Y-108289043D01*
X156442498Y-108282684D01*
X156442486Y-108282679D01*
X156375409Y-108264705D01*
X156372305Y-108263786D01*
X156306256Y-108242326D01*
X156306251Y-108242325D01*
X156306249Y-108242325D01*
X156292314Y-108240860D01*
X156273189Y-108237315D01*
X156259653Y-108233688D01*
X156259643Y-108233686D01*
X156190290Y-108230051D01*
X156187059Y-108229797D01*
X156172537Y-108228271D01*
X156165192Y-108227500D01*
X156165189Y-108227500D01*
X156143203Y-108227500D01*
X156139959Y-108227415D01*
X156070612Y-108223781D01*
X156070611Y-108223781D01*
X156056772Y-108225973D01*
X156037373Y-108227500D01*
X149376475Y-108227500D01*
X149357075Y-108225973D01*
X149343230Y-108223780D01*
X149273869Y-108227415D01*
X149270626Y-108227500D01*
X149248647Y-108227500D01*
X149226784Y-108229798D01*
X149223549Y-108230052D01*
X149154196Y-108233686D01*
X149140644Y-108237317D01*
X149121532Y-108240859D01*
X149107590Y-108242325D01*
X149107578Y-108242327D01*
X149055326Y-108259305D01*
X149041525Y-108263789D01*
X149038444Y-108264702D01*
X148992914Y-108276902D01*
X148971353Y-108282680D01*
X148958858Y-108289046D01*
X148940897Y-108296485D01*
X148927556Y-108300820D01*
X148927554Y-108300821D01*
X148867424Y-108335536D01*
X148864573Y-108337085D01*
X148802696Y-108368612D01*
X148802691Y-108368616D01*
X148791787Y-108377445D01*
X148775768Y-108388454D01*
X148763629Y-108395463D01*
X148763626Y-108395465D01*
X148712030Y-108441922D01*
X148709566Y-108444027D01*
X148692469Y-108457873D01*
X148692453Y-108457887D01*
X148676896Y-108473444D01*
X148674544Y-108475675D01*
X148622954Y-108522127D01*
X148622950Y-108522131D01*
X148614715Y-108533467D01*
X148602080Y-108548260D01*
X147757439Y-109392903D01*
X147505161Y-109645181D01*
X147443838Y-109678666D01*
X147417480Y-109681500D01*
X143114297Y-109681500D01*
X143047258Y-109661815D01*
X143001503Y-109609011D01*
X142991559Y-109539853D01*
X143020584Y-109476297D01*
X143026616Y-109469819D01*
X146126907Y-106369528D01*
X149284278Y-103212156D01*
X149299061Y-103199530D01*
X149310407Y-103191288D01*
X149356875Y-103139678D01*
X149359076Y-103137358D01*
X149374656Y-103121780D01*
X149388511Y-103104668D01*
X149390590Y-103102234D01*
X149437069Y-103050616D01*
X149444073Y-103038483D01*
X149455099Y-103022441D01*
X149463919Y-103011549D01*
X149478780Y-102982382D01*
X149495455Y-102949654D01*
X149496988Y-102946832D01*
X149528686Y-102891930D01*
X149531715Y-102886684D01*
X149536046Y-102873351D01*
X149543491Y-102855376D01*
X149549856Y-102842887D01*
X149567834Y-102775790D01*
X149568749Y-102772704D01*
X149590210Y-102706655D01*
X149591675Y-102692717D01*
X149595223Y-102673575D01*
X149598849Y-102660045D01*
X149602483Y-102590681D01*
X149602737Y-102587464D01*
X149603270Y-102582388D01*
X149605036Y-102565592D01*
X149605036Y-102543601D01*
X149605121Y-102540356D01*
X149608755Y-102471012D01*
X149606563Y-102457172D01*
X149605036Y-102437773D01*
X149605036Y-101878340D01*
X149606563Y-101858939D01*
X149608755Y-101845102D01*
X149605121Y-101775761D01*
X149605036Y-101772516D01*
X149605036Y-101750527D01*
X149605036Y-101750522D01*
X149602735Y-101728635D01*
X149602482Y-101725425D01*
X149598848Y-101656068D01*
X149598847Y-101656062D01*
X149595223Y-101642539D01*
X149591675Y-101623398D01*
X149590210Y-101609462D01*
X149590210Y-101609461D01*
X149590210Y-101609458D01*
X149568750Y-101543413D01*
X149567827Y-101540299D01*
X149549856Y-101473226D01*
X149543490Y-101460733D01*
X149536044Y-101442756D01*
X149531714Y-101429428D01*
X149531712Y-101429425D01*
X149527845Y-101422727D01*
X149511369Y-101354828D01*
X149534218Y-101288800D01*
X149547535Y-101273054D01*
X149739453Y-101081136D01*
X149800776Y-101047654D01*
X149827133Y-101044820D01*
X150230046Y-101044820D01*
X150297085Y-101064505D01*
X150317727Y-101081139D01*
X150911832Y-101675244D01*
X150945317Y-101736567D01*
X150946577Y-101743911D01*
X150987130Y-101901856D01*
X151065089Y-102043664D01*
X151065091Y-102043667D01*
X151065950Y-102044673D01*
X151088745Y-102071362D01*
X151420638Y-102403255D01*
X151420643Y-102403259D01*
X151448333Y-102426909D01*
X151448335Y-102426910D01*
X151528555Y-102471011D01*
X151590144Y-102504869D01*
X151645621Y-102519113D01*
X151705656Y-102554849D01*
X151734886Y-102608377D01*
X151748152Y-102660045D01*
X151749132Y-102663859D01*
X151827089Y-102805664D01*
X151827092Y-102805668D01*
X151850745Y-102833362D01*
X152182638Y-103165255D01*
X152182643Y-103165259D01*
X152210333Y-103188909D01*
X152229633Y-103199519D01*
X152352143Y-103266869D01*
X152461520Y-103294952D01*
X152508888Y-103307114D01*
X152508892Y-103307114D01*
X152670712Y-103307114D01*
X152670716Y-103307114D01*
X152827460Y-103266869D01*
X152969271Y-103188909D01*
X152996961Y-103165259D01*
X152996966Y-103165255D01*
X153286433Y-102875788D01*
X153296441Y-102864070D01*
X153310087Y-102848093D01*
X153388047Y-102706282D01*
X153394107Y-102682679D01*
X153429841Y-102622644D01*
X153483375Y-102593412D01*
X153506100Y-102587577D01*
X153639505Y-102514236D01*
X153423024Y-102297755D01*
X153390600Y-102240908D01*
X153388048Y-102230970D01*
X153388046Y-102230963D01*
X153310088Y-102089157D01*
X153310087Y-102089155D01*
X153286437Y-102061465D01*
X153286433Y-102061460D01*
X152954540Y-101729567D01*
X152926846Y-101705914D01*
X152926842Y-101705911D01*
X152785037Y-101627953D01*
X152775087Y-101625399D01*
X152718245Y-101592976D01*
X152661024Y-101535755D01*
X152628600Y-101478908D01*
X152626048Y-101468970D01*
X152626046Y-101468963D01*
X152548088Y-101327157D01*
X152548087Y-101327155D01*
X152525602Y-101300829D01*
X152524433Y-101299460D01*
X152269390Y-101044418D01*
X152235905Y-100983095D01*
X152240889Y-100913404D01*
X152269389Y-100869056D01*
X152397728Y-100740716D01*
X152459051Y-100707231D01*
X152528743Y-100712215D01*
X152573091Y-100740716D01*
X153993058Y-102160683D01*
X154032421Y-102155082D01*
X154101566Y-102165124D01*
X154137574Y-102190164D01*
X154947194Y-102999784D01*
X154957019Y-103012048D01*
X154957240Y-103011866D01*
X154962210Y-103017873D01*
X154962213Y-103017876D01*
X154962214Y-103017877D01*
X155012651Y-103065241D01*
X155033530Y-103086120D01*
X155039004Y-103090366D01*
X155043442Y-103094156D01*
X155077418Y-103126062D01*
X155077422Y-103126064D01*
X155094973Y-103135713D01*
X155111231Y-103146392D01*
X155127064Y-103158674D01*
X155142273Y-103165255D01*
X155169837Y-103177183D01*
X155175081Y-103179752D01*
X155215908Y-103202197D01*
X155235312Y-103207179D01*
X155253710Y-103213478D01*
X155272105Y-103221438D01*
X155318129Y-103228726D01*
X155323832Y-103229907D01*
X155368981Y-103241500D01*
X155389016Y-103241500D01*
X155408413Y-103243026D01*
X155428196Y-103246160D01*
X155474584Y-103241775D01*
X155480422Y-103241500D01*
X159376199Y-103241500D01*
X159440347Y-103259382D01*
X159455394Y-103268478D01*
X159617804Y-103319086D01*
X159688384Y-103325500D01*
X159688387Y-103325500D01*
X160351613Y-103325500D01*
X160351616Y-103325500D01*
X160422196Y-103319086D01*
X160584606Y-103268478D01*
X160599653Y-103259382D01*
X160663801Y-103241500D01*
X161166253Y-103241500D01*
X161233292Y-103261185D01*
X161279047Y-103313989D01*
X161286028Y-103333406D01*
X161286097Y-103333663D01*
X161366617Y-103506338D01*
X161385965Y-103547830D01*
X161385967Y-103547834D01*
X161521501Y-103741395D01*
X161521506Y-103741402D01*
X161688597Y-103908493D01*
X161688603Y-103908498D01*
X161874158Y-104038425D01*
X161917783Y-104093002D01*
X161924977Y-104162500D01*
X161893454Y-104224855D01*
X161874158Y-104241575D01*
X161688597Y-104371505D01*
X161521505Y-104538597D01*
X161385965Y-104732169D01*
X161385964Y-104732171D01*
X161286098Y-104946335D01*
X161286094Y-104946344D01*
X161224938Y-105174586D01*
X161224936Y-105174596D01*
X161204341Y-105409999D01*
X161204341Y-105410000D01*
X161224936Y-105645403D01*
X161224938Y-105645413D01*
X161286094Y-105873655D01*
X161286096Y-105873659D01*
X161286097Y-105873663D01*
X161366617Y-106046338D01*
X161385965Y-106087830D01*
X161385967Y-106087834D01*
X161521501Y-106281395D01*
X161521506Y-106281402D01*
X161643430Y-106403326D01*
X161676915Y-106464649D01*
X161671931Y-106534341D01*
X161630059Y-106590274D01*
X161599083Y-106607189D01*
X161467669Y-106656203D01*
X161467664Y-106656206D01*
X161352455Y-106742452D01*
X161352452Y-106742455D01*
X161266206Y-106857664D01*
X161266202Y-106857671D01*
X161215908Y-106992517D01*
X161209501Y-107052116D01*
X161209500Y-107052135D01*
X161209500Y-108847870D01*
X161209501Y-108847876D01*
X161215908Y-108907483D01*
X161266202Y-109042328D01*
X161266206Y-109042335D01*
X161352452Y-109157544D01*
X161352455Y-109157547D01*
X161467664Y-109243793D01*
X161467671Y-109243797D01*
X161602517Y-109294091D01*
X161602516Y-109294091D01*
X161609444Y-109294835D01*
X161662127Y-109300500D01*
X163457872Y-109300499D01*
X163517483Y-109294091D01*
X163652331Y-109243796D01*
X163767546Y-109157546D01*
X163853796Y-109042331D01*
X163902810Y-108910916D01*
X163944681Y-108854984D01*
X164010145Y-108830566D01*
X164078418Y-108845417D01*
X164106673Y-108866569D01*
X164228599Y-108988495D01*
X164325384Y-109056265D01*
X164422165Y-109124032D01*
X164422167Y-109124033D01*
X164422170Y-109124035D01*
X164636337Y-109223903D01*
X164864592Y-109285063D01*
X165041034Y-109300500D01*
X165099999Y-109305659D01*
X165100000Y-109305659D01*
X165100001Y-109305659D01*
X165158966Y-109300500D01*
X165335408Y-109285063D01*
X165563663Y-109223903D01*
X165777830Y-109124035D01*
X165971401Y-108988495D01*
X166138495Y-108821401D01*
X166274035Y-108627830D01*
X166373903Y-108413663D01*
X166435063Y-108185408D01*
X166455659Y-107950000D01*
X166435063Y-107714592D01*
X166376123Y-107494621D01*
X166373905Y-107486344D01*
X166373904Y-107486343D01*
X166373903Y-107486337D01*
X166274035Y-107272171D01*
X166232055Y-107212216D01*
X166138494Y-107078597D01*
X165971402Y-106911506D01*
X165971396Y-106911501D01*
X165785842Y-106781575D01*
X165742217Y-106726998D01*
X165735023Y-106657500D01*
X165766546Y-106595145D01*
X165785842Y-106578425D01*
X165818415Y-106555617D01*
X165971401Y-106448495D01*
X166138495Y-106281401D01*
X166274035Y-106087830D01*
X166373903Y-105873663D01*
X166435063Y-105645408D01*
X166455659Y-105410000D01*
X166435063Y-105174592D01*
X166408143Y-105074125D01*
X166409806Y-105004276D01*
X166440235Y-104954353D01*
X166470286Y-104924302D01*
X166531607Y-104890819D01*
X166601299Y-104895803D01*
X166657232Y-104937675D01*
X166659535Y-104940854D01*
X166669174Y-104954620D01*
X166669175Y-104954621D01*
X166825378Y-105110824D01*
X166825384Y-105110829D01*
X167006333Y-105237531D01*
X167006335Y-105237532D01*
X167006338Y-105237534D01*
X167206550Y-105330894D01*
X167419932Y-105388070D01*
X167577123Y-105401822D01*
X167639998Y-105407323D01*
X167640000Y-105407323D01*
X167640002Y-105407323D01*
X167695017Y-105402509D01*
X167860068Y-105388070D01*
X168073450Y-105330894D01*
X168273662Y-105237534D01*
X168454620Y-105110826D01*
X168610826Y-104954620D01*
X168737534Y-104773662D01*
X168830894Y-104573450D01*
X168888070Y-104360068D01*
X168907323Y-104140000D01*
X168888070Y-103919932D01*
X168830894Y-103706550D01*
X168737534Y-103506339D01*
X168631342Y-103354680D01*
X168610827Y-103325381D01*
X168544828Y-103259382D01*
X168454620Y-103169174D01*
X168454616Y-103169171D01*
X168454615Y-103169170D01*
X168273666Y-103042468D01*
X168273658Y-103042464D01*
X168144811Y-102982382D01*
X168092371Y-102936210D01*
X168073219Y-102869017D01*
X168093435Y-102802135D01*
X168144811Y-102757618D01*
X168150802Y-102754824D01*
X168273662Y-102697534D01*
X168454620Y-102570826D01*
X168610826Y-102414620D01*
X168737534Y-102233662D01*
X168830894Y-102033450D01*
X168888070Y-101820068D01*
X168904871Y-101628031D01*
X168907323Y-101600002D01*
X168907323Y-101599997D01*
X168895952Y-101470025D01*
X168888070Y-101379932D01*
X168830894Y-101166550D01*
X168830891Y-101166543D01*
X168782088Y-101061884D01*
X168771596Y-100992807D01*
X168800116Y-100929023D01*
X168806776Y-100921812D01*
X169547787Y-100180802D01*
X169560042Y-100170986D01*
X169559859Y-100170764D01*
X169565866Y-100165792D01*
X169565877Y-100165786D01*
X169596775Y-100132882D01*
X169613227Y-100115364D01*
X169623671Y-100104918D01*
X169634120Y-100094471D01*
X169638379Y-100088978D01*
X169642152Y-100084561D01*
X169674062Y-100050582D01*
X169683715Y-100033020D01*
X169694389Y-100016770D01*
X169706673Y-100000936D01*
X169725180Y-99958167D01*
X169727749Y-99952924D01*
X169733898Y-99941739D01*
X169750197Y-99912092D01*
X169755177Y-99892691D01*
X169761478Y-99874288D01*
X169769438Y-99855896D01*
X169776730Y-99809849D01*
X169777911Y-99804152D01*
X169778953Y-99800094D01*
X169789500Y-99759019D01*
X169789500Y-99738983D01*
X169791027Y-99719582D01*
X169794160Y-99699804D01*
X169789775Y-99653415D01*
X169789500Y-99647577D01*
X169789500Y-96223486D01*
X169791224Y-96207872D01*
X169790938Y-96207845D01*
X169791672Y-96200082D01*
X169789500Y-96130951D01*
X169789500Y-96101400D01*
X169789500Y-96101399D01*
X169788629Y-96094508D01*
X169788172Y-96088694D01*
X169787886Y-96079605D01*
X169786709Y-96042121D01*
X169781120Y-96022886D01*
X169777174Y-96003833D01*
X169774664Y-95983957D01*
X169757501Y-95940608D01*
X169755614Y-95935095D01*
X169742617Y-95890359D01*
X169742616Y-95890357D01*
X169732421Y-95873118D01*
X169723860Y-95855642D01*
X169716486Y-95837018D01*
X169716486Y-95837016D01*
X169706474Y-95823237D01*
X169689083Y-95799299D01*
X169685900Y-95794454D01*
X169662170Y-95754328D01*
X169662165Y-95754322D01*
X169648005Y-95740162D01*
X169635370Y-95725369D01*
X169623593Y-95709161D01*
X169587693Y-95679462D01*
X169583381Y-95675539D01*
X168722138Y-94814296D01*
X168688653Y-94752973D01*
X168693637Y-94683281D01*
X168708245Y-94655491D01*
X168737530Y-94613668D01*
X168737530Y-94613666D01*
X168737534Y-94613662D01*
X168830894Y-94413450D01*
X168888070Y-94200068D01*
X168893868Y-94133791D01*
X168919320Y-94068723D01*
X168975911Y-94027745D01*
X169045673Y-94023866D01*
X169105077Y-94056918D01*
G37*
%TD.AperFunction*%
%TA.AperFunction,Conductor*%
G36*
X143217061Y-97567901D02*
G01*
X143272994Y-97609773D01*
X143273988Y-97611279D01*
X143284685Y-97625221D01*
X143309877Y-97690391D01*
X143295837Y-97758835D01*
X143273989Y-97788386D01*
X143186964Y-97875411D01*
X143894609Y-98583056D01*
X143928094Y-98644379D01*
X143923110Y-98714071D01*
X143894609Y-98758418D01*
X143639567Y-99013460D01*
X143615915Y-99041151D01*
X143605553Y-99060000D01*
X143540549Y-99178245D01*
X143537950Y-99182972D01*
X143535398Y-99192913D01*
X143502976Y-99249753D01*
X143286492Y-99466236D01*
X143286493Y-99466237D01*
X143419898Y-99539577D01*
X143419901Y-99539578D01*
X143442625Y-99545413D01*
X143502663Y-99581151D01*
X143531892Y-99634677D01*
X143537954Y-99658286D01*
X143615911Y-99800090D01*
X143615913Y-99800093D01*
X143621037Y-99806092D01*
X143639567Y-99827788D01*
X143929034Y-100117255D01*
X143929039Y-100117259D01*
X143956729Y-100140909D01*
X143956731Y-100140910D01*
X144098539Y-100218869D01*
X144223269Y-100250894D01*
X144255284Y-100259114D01*
X144255288Y-100259114D01*
X144417108Y-100259114D01*
X144417112Y-100259114D01*
X144573856Y-100218869D01*
X144715667Y-100140909D01*
X144743357Y-100117259D01*
X144743362Y-100117255D01*
X144743361Y-100117255D01*
X144776230Y-100084386D01*
X144841955Y-100018659D01*
X144895042Y-99987264D01*
X144926832Y-99978029D01*
X144944071Y-99967833D01*
X144961545Y-99959273D01*
X144980169Y-99951899D01*
X144980169Y-99951898D01*
X144980174Y-99951897D01*
X145017891Y-99924493D01*
X145022747Y-99921303D01*
X145062862Y-99897581D01*
X145077031Y-99883410D01*
X145091821Y-99870779D01*
X145108029Y-99859005D01*
X145137741Y-99823087D01*
X145141654Y-99818787D01*
X145222619Y-99737822D01*
X145283940Y-99704339D01*
X145353632Y-99709323D01*
X145408674Y-99750019D01*
X145466353Y-99825189D01*
X145467988Y-99827319D01*
X145467992Y-99827324D01*
X145627388Y-99986720D01*
X145627393Y-99986724D01*
X145627396Y-99986727D01*
X145691473Y-100035894D01*
X145723880Y-100060761D01*
X145722042Y-100063155D01*
X145745119Y-100086216D01*
X145747505Y-100084386D01*
X145767105Y-100109929D01*
X145814619Y-100171852D01*
X145821541Y-100180872D01*
X145821545Y-100180877D01*
X145980941Y-100340273D01*
X145980946Y-100340277D01*
X145980949Y-100340280D01*
X146070985Y-100409366D01*
X146070986Y-100409366D01*
X146077434Y-100414314D01*
X146075563Y-100416751D01*
X146098628Y-100439805D01*
X146101059Y-100437940D01*
X146106007Y-100444388D01*
X146162818Y-100518427D01*
X146175095Y-100534426D01*
X146175099Y-100534431D01*
X146334495Y-100693827D01*
X146334500Y-100693831D01*
X146334503Y-100693834D01*
X146381652Y-100730012D01*
X146430987Y-100767868D01*
X146429149Y-100770262D01*
X146452226Y-100793323D01*
X146454612Y-100791493D01*
X146459560Y-100797941D01*
X146502985Y-100854535D01*
X146528648Y-100887979D01*
X146528652Y-100887984D01*
X146688048Y-101047380D01*
X146688053Y-101047384D01*
X146688056Y-101047387D01*
X146732042Y-101081138D01*
X146784540Y-101121421D01*
X146782702Y-101123815D01*
X146805779Y-101146876D01*
X146808165Y-101145046D01*
X146813113Y-101151494D01*
X146851407Y-101201401D01*
X146882201Y-101241532D01*
X146882205Y-101241537D01*
X147041601Y-101400933D01*
X147041606Y-101400937D01*
X147041609Y-101400940D01*
X147092592Y-101440060D01*
X147131643Y-101470025D01*
X147131644Y-101470025D01*
X147131645Y-101470026D01*
X147271642Y-101528015D01*
X147413135Y-101546642D01*
X147477031Y-101574908D01*
X147484631Y-101581900D01*
X147492610Y-101589879D01*
X147526095Y-101651202D01*
X147526906Y-101655518D01*
X147527097Y-101656234D01*
X147527098Y-101656235D01*
X147530660Y-101669528D01*
X147576090Y-101839076D01*
X147603649Y-101893163D01*
X147662028Y-102007738D01*
X147662030Y-102007741D01*
X147662031Y-102007742D01*
X147664273Y-102010510D01*
X147716901Y-102075501D01*
X147743793Y-102139986D01*
X147731553Y-102208775D01*
X147708217Y-102241217D01*
X141666256Y-108283181D01*
X141604933Y-108316666D01*
X141578575Y-108319500D01*
X140128308Y-108319500D01*
X140061269Y-108299815D01*
X140040627Y-108283181D01*
X140006621Y-108249175D01*
X140006615Y-108249170D01*
X139825666Y-108122468D01*
X139825658Y-108122464D01*
X139696811Y-108062382D01*
X139644371Y-108016210D01*
X139625219Y-107949017D01*
X139645435Y-107882135D01*
X139696811Y-107837618D01*
X139702802Y-107834824D01*
X139825662Y-107777534D01*
X140006620Y-107650826D01*
X140162826Y-107494620D01*
X140289534Y-107313662D01*
X140382894Y-107113450D01*
X140440070Y-106900068D01*
X140459323Y-106680000D01*
X140457611Y-106660435D01*
X140450790Y-106582465D01*
X140440070Y-106459932D01*
X140382894Y-106246550D01*
X140289534Y-106046339D01*
X140184162Y-105895851D01*
X140162827Y-105865381D01*
X140116301Y-105818855D01*
X140006620Y-105709174D01*
X140006616Y-105709171D01*
X140006615Y-105709170D01*
X139825666Y-105582468D01*
X139825658Y-105582464D01*
X139696811Y-105522382D01*
X139644371Y-105476210D01*
X139625219Y-105409017D01*
X139645435Y-105342135D01*
X139696811Y-105297618D01*
X139702802Y-105294824D01*
X139825662Y-105237534D01*
X140006620Y-105110826D01*
X140162826Y-104954620D01*
X140289534Y-104773662D01*
X140382894Y-104573450D01*
X140440070Y-104360068D01*
X140459323Y-104140000D01*
X140440070Y-103919932D01*
X140382894Y-103706550D01*
X140289534Y-103506339D01*
X140183342Y-103354680D01*
X140162827Y-103325381D01*
X140096828Y-103259382D01*
X140006620Y-103169174D01*
X140006616Y-103169171D01*
X140006615Y-103169170D01*
X139825666Y-103042468D01*
X139825658Y-103042464D01*
X139696811Y-102982382D01*
X139644371Y-102936210D01*
X139625219Y-102869017D01*
X139645435Y-102802135D01*
X139696811Y-102757618D01*
X139702802Y-102754824D01*
X139825662Y-102697534D01*
X140006620Y-102570826D01*
X140162826Y-102414620D01*
X140275957Y-102253052D01*
X146883386Y-102253052D01*
X146923597Y-102409663D01*
X146923600Y-102409673D01*
X147001497Y-102551366D01*
X147001503Y-102551375D01*
X147015122Y-102567322D01*
X147389036Y-102193411D01*
X146996940Y-101801315D01*
X146996939Y-101801315D01*
X146923599Y-101934724D01*
X146883386Y-102091341D01*
X146883386Y-102253052D01*
X140275957Y-102253052D01*
X140289534Y-102233662D01*
X140382894Y-102033450D01*
X140440070Y-101820068D01*
X140456871Y-101628031D01*
X140459323Y-101600002D01*
X140459323Y-101599997D01*
X140447952Y-101470025D01*
X140440070Y-101379932D01*
X140382894Y-101166550D01*
X140382891Y-101166543D01*
X140350166Y-101096363D01*
X140339674Y-101027286D01*
X140368194Y-100963502D01*
X140426671Y-100925263D01*
X140446355Y-100921021D01*
X140491762Y-100915044D01*
X140637841Y-100854536D01*
X140651815Y-100843812D01*
X140662539Y-100835585D01*
X140750789Y-100767868D01*
X140763282Y-100758282D01*
X140784983Y-100729999D01*
X140790311Y-100723922D01*
X141786511Y-99727722D01*
X141792588Y-99722394D01*
X141820871Y-99700693D01*
X141917125Y-99575252D01*
X141917991Y-99573162D01*
X141919193Y-99571669D01*
X141921188Y-99568215D01*
X141921726Y-99568526D01*
X141961832Y-99518758D01*
X142028126Y-99496693D01*
X142032552Y-99496614D01*
X142131045Y-99496614D01*
X142131052Y-99496613D01*
X142287663Y-99456402D01*
X142287673Y-99456399D01*
X142429366Y-99378503D01*
X142445323Y-99364875D01*
X142029408Y-98948960D01*
X141995923Y-98887637D01*
X141993089Y-98861279D01*
X141993089Y-98658365D01*
X141999242Y-98637411D01*
X142424964Y-98637411D01*
X142798874Y-99011321D01*
X142798964Y-99011318D01*
X142866724Y-99028358D01*
X142912490Y-99075486D01*
X142932939Y-99112683D01*
X142932940Y-99112683D01*
X143325036Y-98720589D01*
X142833411Y-98228964D01*
X142424964Y-98637411D01*
X141999242Y-98637411D01*
X142012774Y-98591326D01*
X142065578Y-98545571D01*
X142082492Y-98539289D01*
X142089660Y-98537207D01*
X142106899Y-98527011D01*
X142124373Y-98518451D01*
X142142997Y-98511077D01*
X142142997Y-98511076D01*
X142143002Y-98511075D01*
X142180719Y-98483671D01*
X142185575Y-98480481D01*
X142225690Y-98456759D01*
X142239859Y-98442588D01*
X142254649Y-98429957D01*
X142270857Y-98418183D01*
X142300569Y-98382265D01*
X142304482Y-98377965D01*
X143086047Y-97596400D01*
X143147369Y-97562917D01*
X143217061Y-97567901D01*
G37*
%TD.AperFunction*%
%TA.AperFunction,Conductor*%
G36*
X157802703Y-96203739D02*
G01*
X157809181Y-96209771D01*
X160723181Y-99123771D01*
X160756666Y-99185094D01*
X160759500Y-99211452D01*
X160759500Y-99819001D01*
X160739815Y-99886040D01*
X160687011Y-99931795D01*
X160617853Y-99941739D01*
X160591593Y-99934106D01*
X160591560Y-99934213D01*
X160586007Y-99932482D01*
X160584608Y-99932076D01*
X160584396Y-99931980D01*
X160422105Y-99881409D01*
X160422106Y-99881409D01*
X160351572Y-99875000D01*
X160270000Y-99875000D01*
X160270000Y-100901000D01*
X160250315Y-100968039D01*
X160197511Y-101013794D01*
X160146000Y-101025000D01*
X159045001Y-101025000D01*
X159045001Y-101031582D01*
X159051408Y-101102102D01*
X159051409Y-101102107D01*
X159101981Y-101264396D01*
X159189927Y-101409877D01*
X159292015Y-101511965D01*
X159325500Y-101573288D01*
X159320516Y-101642980D01*
X159292015Y-101687327D01*
X159189531Y-101789810D01*
X159189530Y-101789811D01*
X159104390Y-101930650D01*
X159052862Y-101977838D01*
X158998273Y-101990500D01*
X155758452Y-101990500D01*
X155691413Y-101970815D01*
X155670771Y-101954181D01*
X155405944Y-101689354D01*
X155372459Y-101628031D01*
X155377443Y-101558339D01*
X155419315Y-101502406D01*
X155441205Y-101489299D01*
X155573662Y-101427534D01*
X155754620Y-101300826D01*
X155910826Y-101144620D01*
X156037534Y-100963662D01*
X156097618Y-100834811D01*
X156143790Y-100782371D01*
X156210983Y-100763219D01*
X156277865Y-100783435D01*
X156322382Y-100834811D01*
X156382464Y-100963658D01*
X156382468Y-100963666D01*
X156509170Y-101144615D01*
X156509175Y-101144621D01*
X156665378Y-101300824D01*
X156665384Y-101300829D01*
X156846333Y-101427531D01*
X156846335Y-101427532D01*
X156846338Y-101427534D01*
X157046550Y-101520894D01*
X157259932Y-101578070D01*
X157394913Y-101589879D01*
X157479998Y-101597323D01*
X157480000Y-101597323D01*
X157480002Y-101597323D01*
X157535017Y-101592509D01*
X157700068Y-101578070D01*
X157913450Y-101520894D01*
X158113662Y-101427534D01*
X158294620Y-101300826D01*
X158450826Y-101144620D01*
X158577534Y-100963662D01*
X158670894Y-100763450D01*
X158728070Y-100550068D01*
X158730263Y-100525000D01*
X159045000Y-100525000D01*
X159770000Y-100525000D01*
X159770000Y-99875000D01*
X159769999Y-99874999D01*
X159688417Y-99875000D01*
X159617897Y-99881408D01*
X159617892Y-99881409D01*
X159455603Y-99931981D01*
X159310122Y-100019927D01*
X159189927Y-100140122D01*
X159101980Y-100285604D01*
X159051409Y-100447893D01*
X159045000Y-100518427D01*
X159045000Y-100525000D01*
X158730263Y-100525000D01*
X158744207Y-100365615D01*
X158747323Y-100330002D01*
X158747323Y-100329997D01*
X158740103Y-100247474D01*
X158728070Y-100109932D01*
X158670894Y-99896550D01*
X158577534Y-99696339D01*
X158487821Y-99568215D01*
X158450827Y-99515381D01*
X158373146Y-99437700D01*
X158294620Y-99359174D01*
X158294616Y-99359171D01*
X158294615Y-99359170D01*
X158113666Y-99232468D01*
X158113662Y-99232466D01*
X158113660Y-99232465D01*
X157913450Y-99139106D01*
X157913447Y-99139105D01*
X157913445Y-99139104D01*
X157700070Y-99081930D01*
X157700062Y-99081929D01*
X157480002Y-99062677D01*
X157479997Y-99062677D01*
X157394093Y-99070192D01*
X157325594Y-99056425D01*
X157275411Y-99007809D01*
X157259478Y-98939781D01*
X157282854Y-98873937D01*
X157295601Y-98858988D01*
X157355787Y-98798802D01*
X157368042Y-98788986D01*
X157367859Y-98788764D01*
X157373866Y-98783792D01*
X157373877Y-98783786D01*
X157411043Y-98744208D01*
X157421227Y-98733364D01*
X157431671Y-98722918D01*
X157442120Y-98712471D01*
X157446379Y-98706978D01*
X157450152Y-98702561D01*
X157482062Y-98668582D01*
X157491715Y-98651020D01*
X157502389Y-98634770D01*
X157514673Y-98618936D01*
X157533180Y-98576167D01*
X157535749Y-98570924D01*
X157539732Y-98563679D01*
X157558197Y-98530092D01*
X157563177Y-98510691D01*
X157569478Y-98492288D01*
X157577438Y-98473896D01*
X157584730Y-98427849D01*
X157585911Y-98422152D01*
X157588234Y-98413105D01*
X157597500Y-98377019D01*
X157597500Y-98356983D01*
X157599027Y-98337582D01*
X157601326Y-98323067D01*
X157602160Y-98317804D01*
X157597775Y-98271415D01*
X157597500Y-98265577D01*
X157597500Y-96297452D01*
X157617185Y-96230413D01*
X157669989Y-96184658D01*
X157739147Y-96174714D01*
X157802703Y-96203739D01*
G37*
%TD.AperFunction*%
%TA.AperFunction,Conductor*%
G36*
X158940729Y-90042827D02*
G01*
X158961370Y-90059460D01*
X161657249Y-92755340D01*
X164352697Y-95450788D01*
X164362522Y-95463051D01*
X164362743Y-95462869D01*
X164367714Y-95468878D01*
X164380107Y-95480515D01*
X164418135Y-95516226D01*
X164439029Y-95537120D01*
X164444511Y-95541373D01*
X164448943Y-95545157D01*
X164482918Y-95577062D01*
X164500476Y-95586714D01*
X164516733Y-95597393D01*
X164532564Y-95609673D01*
X164552237Y-95618186D01*
X164575333Y-95628182D01*
X164580577Y-95630750D01*
X164621408Y-95653197D01*
X164631843Y-95655876D01*
X164640805Y-95658177D01*
X164659219Y-95664481D01*
X164677604Y-95672438D01*
X164723657Y-95679732D01*
X164729326Y-95680906D01*
X164774481Y-95692500D01*
X164794516Y-95692500D01*
X164813913Y-95694026D01*
X164833696Y-95697160D01*
X164880084Y-95692775D01*
X164885922Y-95692500D01*
X166439992Y-95692500D01*
X166507031Y-95712185D01*
X166552786Y-95764989D01*
X166562730Y-95834147D01*
X166544162Y-95881070D01*
X166545172Y-95881653D01*
X166542465Y-95886340D01*
X166449107Y-96086548D01*
X166449104Y-96086554D01*
X166391930Y-96299929D01*
X166391929Y-96299937D01*
X166372677Y-96519997D01*
X166372677Y-96520002D01*
X166391929Y-96740062D01*
X166391930Y-96740070D01*
X166449104Y-96953445D01*
X166449105Y-96953447D01*
X166449106Y-96953450D01*
X166495161Y-97052216D01*
X166542466Y-97153662D01*
X166542468Y-97153666D01*
X166669170Y-97334615D01*
X166669175Y-97334621D01*
X166825378Y-97490824D01*
X166825384Y-97490829D01*
X167006333Y-97617531D01*
X167006335Y-97617532D01*
X167006338Y-97617534D01*
X167119483Y-97670294D01*
X167135189Y-97677618D01*
X167187628Y-97723790D01*
X167206780Y-97790984D01*
X167186564Y-97857865D01*
X167135189Y-97902382D01*
X167006340Y-97962465D01*
X167006338Y-97962466D01*
X166825377Y-98089175D01*
X166669175Y-98245377D01*
X166542466Y-98426338D01*
X166542465Y-98426340D01*
X166469388Y-98583056D01*
X166452657Y-98618936D01*
X166449107Y-98626548D01*
X166449104Y-98626554D01*
X166391930Y-98839929D01*
X166391929Y-98839937D01*
X166372677Y-99059994D01*
X166372677Y-99060002D01*
X166391929Y-99280062D01*
X166391931Y-99280073D01*
X166444509Y-99476296D01*
X166442846Y-99546145D01*
X166403683Y-99604008D01*
X166339455Y-99631512D01*
X166270553Y-99619926D01*
X166223159Y-99579512D01*
X166138494Y-99458597D01*
X165971402Y-99291506D01*
X165971395Y-99291501D01*
X165967930Y-99289075D01*
X165903020Y-99243624D01*
X165777834Y-99155967D01*
X165777830Y-99155965D01*
X165741676Y-99139106D01*
X165563663Y-99056097D01*
X165563659Y-99056096D01*
X165563655Y-99056094D01*
X165335413Y-98994938D01*
X165335403Y-98994936D01*
X165100001Y-98974341D01*
X165099999Y-98974341D01*
X164864597Y-98994936D01*
X164864593Y-98994936D01*
X164864592Y-98994937D01*
X164864587Y-98994938D01*
X164864584Y-98994939D01*
X164847778Y-98999442D01*
X164777928Y-98997778D01*
X164728005Y-98967348D01*
X157794230Y-92033573D01*
X157760745Y-91972250D01*
X157757911Y-91945892D01*
X157757911Y-91215415D01*
X157777596Y-91148376D01*
X157787622Y-91134882D01*
X157798909Y-91121667D01*
X157876869Y-90979856D01*
X157917114Y-90823112D01*
X157917114Y-90661284D01*
X157907949Y-90625588D01*
X157876869Y-90504539D01*
X157798910Y-90362731D01*
X157798909Y-90362729D01*
X157781604Y-90342468D01*
X157775255Y-90335034D01*
X157675044Y-90234823D01*
X157641559Y-90173500D01*
X157646543Y-90103808D01*
X157688415Y-90047875D01*
X157753879Y-90023458D01*
X157762725Y-90023142D01*
X158873690Y-90023142D01*
X158940729Y-90042827D01*
G37*
%TD.AperFunction*%
%TA.AperFunction,Conductor*%
G36*
X133759070Y-73723660D02*
G01*
X136993181Y-76957771D01*
X137026666Y-77019094D01*
X137029500Y-77045452D01*
X137029500Y-87788255D01*
X137027775Y-87803872D01*
X137028061Y-87803899D01*
X137027326Y-87811665D01*
X137029500Y-87880814D01*
X137029500Y-87910343D01*
X137029501Y-87910360D01*
X137030368Y-87917231D01*
X137030826Y-87923050D01*
X137032290Y-87969624D01*
X137032291Y-87969627D01*
X137037880Y-87988867D01*
X137041824Y-88007911D01*
X137044336Y-88027792D01*
X137048717Y-88038857D01*
X137061490Y-88071119D01*
X137063382Y-88076647D01*
X137074772Y-88115851D01*
X137076382Y-88121390D01*
X137082892Y-88132399D01*
X137086580Y-88138634D01*
X137095136Y-88156100D01*
X137098481Y-88164547D01*
X137102514Y-88174732D01*
X137129898Y-88212423D01*
X137133106Y-88217307D01*
X137156827Y-88257416D01*
X137156833Y-88257424D01*
X137170990Y-88271580D01*
X137183628Y-88286376D01*
X137195405Y-88302586D01*
X137195406Y-88302587D01*
X137231309Y-88332288D01*
X137235620Y-88336210D01*
X138032040Y-89132631D01*
X138253038Y-89353629D01*
X138286523Y-89414952D01*
X138288678Y-89428348D01*
X138290763Y-89448180D01*
X138306326Y-89596256D01*
X138306327Y-89596259D01*
X138364818Y-89776277D01*
X138364821Y-89776284D01*
X138459467Y-89940216D01*
X138513784Y-90000541D01*
X138579016Y-90072989D01*
X138586129Y-90080888D01*
X138624249Y-90108583D01*
X138666913Y-90163911D01*
X138672892Y-90233524D01*
X138640287Y-90295320D01*
X138603768Y-90321281D01*
X138558345Y-90342462D01*
X138558338Y-90342466D01*
X138377377Y-90469175D01*
X138221175Y-90625377D01*
X138094466Y-90806338D01*
X138094465Y-90806340D01*
X138001107Y-91006548D01*
X138001104Y-91006554D01*
X137943930Y-91219929D01*
X137943929Y-91219937D01*
X137927123Y-91412038D01*
X137924677Y-91440000D01*
X137943930Y-91660068D01*
X137944309Y-91661484D01*
X137955707Y-91704019D01*
X137954044Y-91773869D01*
X137923613Y-91823794D01*
X137721208Y-92026199D01*
X137708951Y-92036020D01*
X137709134Y-92036241D01*
X137703123Y-92041213D01*
X137655772Y-92091636D01*
X137634889Y-92112519D01*
X137634877Y-92112532D01*
X137630621Y-92118017D01*
X137626837Y-92122447D01*
X137594937Y-92156418D01*
X137594936Y-92156420D01*
X137585284Y-92173976D01*
X137574610Y-92190226D01*
X137562329Y-92206061D01*
X137562324Y-92206068D01*
X137543815Y-92248838D01*
X137541245Y-92254084D01*
X137518803Y-92294906D01*
X137513822Y-92314307D01*
X137507521Y-92332710D01*
X137499562Y-92351102D01*
X137499561Y-92351105D01*
X137492271Y-92397127D01*
X137491087Y-92402846D01*
X137479501Y-92447972D01*
X137479500Y-92447982D01*
X137479500Y-92468016D01*
X137477973Y-92487415D01*
X137474840Y-92507194D01*
X137474840Y-92507195D01*
X137479225Y-92553583D01*
X137479500Y-92559421D01*
X137479500Y-94347506D01*
X137477775Y-94363123D01*
X137478061Y-94363150D01*
X137477326Y-94370916D01*
X137479500Y-94440065D01*
X137479500Y-94469594D01*
X137479501Y-94469611D01*
X137480368Y-94476482D01*
X137480826Y-94482301D01*
X137482290Y-94528875D01*
X137482291Y-94528878D01*
X137487880Y-94548118D01*
X137491824Y-94567162D01*
X137494336Y-94587043D01*
X137505709Y-94615769D01*
X137511490Y-94630370D01*
X137513382Y-94635898D01*
X137525208Y-94676602D01*
X137526382Y-94680641D01*
X137536020Y-94696939D01*
X137536580Y-94697885D01*
X137545136Y-94715351D01*
X137552514Y-94733983D01*
X137566139Y-94752737D01*
X137579898Y-94771674D01*
X137583106Y-94776558D01*
X137606827Y-94816667D01*
X137606833Y-94816675D01*
X137620990Y-94830831D01*
X137633628Y-94845627D01*
X137645405Y-94861837D01*
X137645406Y-94861838D01*
X137681309Y-94891539D01*
X137685620Y-94895461D01*
X137993083Y-95202924D01*
X138270674Y-95480515D01*
X138304159Y-95541838D01*
X138299175Y-95611530D01*
X138270676Y-95655876D01*
X138221172Y-95705380D01*
X138101478Y-95876324D01*
X138046901Y-95919949D01*
X137977403Y-95927143D01*
X137915048Y-95895620D01*
X137912222Y-95892882D01*
X131441819Y-89422479D01*
X131408334Y-89361156D01*
X131405500Y-89334798D01*
X131405500Y-75071985D01*
X131425185Y-75004946D01*
X131477989Y-74959191D01*
X131547147Y-74949247D01*
X131561593Y-74952210D01*
X131719678Y-74994568D01*
X131830000Y-75004219D01*
X131830000Y-74068018D01*
X131944801Y-74120446D01*
X132046025Y-74135000D01*
X132113975Y-74135000D01*
X132215199Y-74120446D01*
X132330000Y-74068018D01*
X132330000Y-75004219D01*
X132440320Y-74994568D01*
X132440323Y-74994568D01*
X132668483Y-74933433D01*
X132668492Y-74933429D01*
X132882577Y-74833600D01*
X132882579Y-74833599D01*
X133076073Y-74698113D01*
X133076079Y-74698108D01*
X133243105Y-74531082D01*
X133378600Y-74337578D01*
X133478429Y-74123492D01*
X133478433Y-74123483D01*
X133539567Y-73895326D01*
X133539569Y-73895315D01*
X133547861Y-73800535D01*
X133573313Y-73735466D01*
X133629903Y-73694487D01*
X133699665Y-73690608D01*
X133759070Y-73723660D01*
G37*
%TD.AperFunction*%
%TA.AperFunction,Conductor*%
G36*
X144132727Y-92726617D02*
G01*
X144134342Y-92727489D01*
X144135861Y-92728324D01*
X144153416Y-92737974D01*
X144169678Y-92748657D01*
X144185507Y-92760935D01*
X144228281Y-92779444D01*
X144233499Y-92782000D01*
X144274351Y-92804459D01*
X144293759Y-92809442D01*
X144312160Y-92815742D01*
X144330547Y-92823699D01*
X144373931Y-92830570D01*
X144376562Y-92830987D01*
X144382282Y-92832171D01*
X144427424Y-92843762D01*
X144447459Y-92843762D01*
X144466857Y-92845288D01*
X144486637Y-92848421D01*
X144486638Y-92848422D01*
X144486638Y-92848421D01*
X144486639Y-92848422D01*
X144533027Y-92844037D01*
X144538865Y-92843762D01*
X145246414Y-92843762D01*
X145313453Y-92863447D01*
X145334095Y-92880081D01*
X145643476Y-93189462D01*
X145676961Y-93250785D01*
X145679795Y-93277143D01*
X145679795Y-94500500D01*
X145660110Y-94567539D01*
X145607306Y-94613294D01*
X145555795Y-94624500D01*
X145335147Y-94624500D01*
X145268108Y-94604815D01*
X145247466Y-94588181D01*
X143992041Y-93332755D01*
X143982218Y-93320493D01*
X143981997Y-93320677D01*
X143977024Y-93314666D01*
X143950851Y-93290088D01*
X143926602Y-93267316D01*
X143916157Y-93256871D01*
X143905713Y-93246426D01*
X143900224Y-93242168D01*
X143895799Y-93238390D01*
X143861820Y-93206481D01*
X143861818Y-93206479D01*
X143861815Y-93206478D01*
X143844267Y-93196831D01*
X143828001Y-93186147D01*
X143812174Y-93173870D01*
X143812169Y-93173868D01*
X143780960Y-93160362D01*
X143727253Y-93115671D01*
X143706233Y-93049038D01*
X143706401Y-93041617D01*
X143676462Y-92986788D01*
X143674689Y-92944247D01*
X143678966Y-92911755D01*
X143707231Y-92847858D01*
X143765555Y-92809386D01*
X143785717Y-92805000D01*
X143818214Y-92800722D01*
X143887249Y-92811489D01*
X143916735Y-92832223D01*
X143918224Y-92832125D01*
X143969024Y-92765924D01*
X143994437Y-92743639D01*
X143993342Y-92742212D01*
X143999113Y-92737783D01*
X144002698Y-92736396D01*
X144005412Y-92734017D01*
X144006850Y-92733187D01*
X144007607Y-92734498D01*
X144064281Y-92712584D01*
X144132727Y-92726617D01*
G37*
%TD.AperFunction*%
%TA.AperFunction,Conductor*%
G36*
X149586531Y-87910385D02*
G01*
X149630878Y-87938886D01*
X149763963Y-88071971D01*
X149763968Y-88071975D01*
X149763971Y-88071978D01*
X149778204Y-88082899D01*
X149860455Y-88146012D01*
X149858617Y-88148406D01*
X149881694Y-88171467D01*
X149884080Y-88169637D01*
X149958116Y-88266123D01*
X149958120Y-88266128D01*
X150117516Y-88425524D01*
X150117521Y-88425528D01*
X150117524Y-88425531D01*
X150150421Y-88450773D01*
X150214008Y-88499565D01*
X150212170Y-88501959D01*
X150235247Y-88525020D01*
X150237633Y-88523190D01*
X150311669Y-88619676D01*
X150311673Y-88619681D01*
X150471069Y-88779077D01*
X150471074Y-88779081D01*
X150471077Y-88779084D01*
X150561113Y-88848170D01*
X150561114Y-88848170D01*
X150567562Y-88853118D01*
X150565691Y-88855555D01*
X150588756Y-88878609D01*
X150591187Y-88876744D01*
X150665223Y-88973230D01*
X150665227Y-88973235D01*
X150824623Y-89132631D01*
X150824628Y-89132635D01*
X150824631Y-89132638D01*
X150888833Y-89181901D01*
X150921115Y-89206672D01*
X150919277Y-89209066D01*
X150942354Y-89232127D01*
X150944740Y-89230297D01*
X151018776Y-89326783D01*
X151018780Y-89326788D01*
X151178176Y-89486184D01*
X151178181Y-89486188D01*
X151178184Y-89486191D01*
X151268220Y-89555277D01*
X151268221Y-89555277D01*
X151274669Y-89560225D01*
X151272798Y-89562662D01*
X151295863Y-89585716D01*
X151298294Y-89583851D01*
X151327429Y-89621821D01*
X151371390Y-89679113D01*
X151372330Y-89680337D01*
X151372334Y-89680342D01*
X151531730Y-89839738D01*
X151531735Y-89839742D01*
X151531738Y-89839745D01*
X151595940Y-89889008D01*
X151628222Y-89913779D01*
X151626384Y-89916173D01*
X151649461Y-89939234D01*
X151651847Y-89937404D01*
X151656795Y-89943852D01*
X151723132Y-90030306D01*
X151725883Y-90033890D01*
X151725887Y-90033895D01*
X151885283Y-90193291D01*
X151885288Y-90193295D01*
X151885291Y-90193298D01*
X151939408Y-90234823D01*
X151981775Y-90267332D01*
X151979937Y-90269726D01*
X152003014Y-90292787D01*
X152005400Y-90290957D01*
X152060472Y-90362729D01*
X152079434Y-90387441D01*
X152156866Y-90464873D01*
X152190350Y-90526194D01*
X152193184Y-90552553D01*
X152193184Y-90710863D01*
X152173499Y-90777902D01*
X152156865Y-90798544D01*
X150928228Y-92027181D01*
X150866905Y-92060666D01*
X150840547Y-92063500D01*
X150781354Y-92063500D01*
X150748897Y-92070398D01*
X150596197Y-92102855D01*
X150596192Y-92102857D01*
X150423270Y-92179848D01*
X150423265Y-92179851D01*
X150270129Y-92291111D01*
X150143467Y-92431783D01*
X150111384Y-92487353D01*
X150060816Y-92535568D01*
X149992209Y-92548790D01*
X149931112Y-92525670D01*
X149804734Y-92433851D01*
X149804729Y-92433848D01*
X149631807Y-92356857D01*
X149631802Y-92356855D01*
X149486001Y-92325865D01*
X149446646Y-92317500D01*
X149446645Y-92317500D01*
X149387453Y-92317500D01*
X149320414Y-92297815D01*
X149299772Y-92281181D01*
X147503065Y-90484474D01*
X147493242Y-90472212D01*
X147493021Y-90472396D01*
X147488048Y-90466385D01*
X147486436Y-90464871D01*
X147437626Y-90419035D01*
X147423746Y-90405155D01*
X147416737Y-90398145D01*
X147411248Y-90393887D01*
X147406823Y-90390109D01*
X147372844Y-90358200D01*
X147372842Y-90358198D01*
X147372839Y-90358197D01*
X147355291Y-90348550D01*
X147339025Y-90337866D01*
X147323198Y-90325589D01*
X147323197Y-90325588D01*
X147323195Y-90325587D01*
X147280430Y-90307080D01*
X147275184Y-90304510D01*
X147234355Y-90282065D01*
X147234354Y-90282064D01*
X147214955Y-90277084D01*
X147196543Y-90270780D01*
X147178160Y-90262824D01*
X147178154Y-90262822D01*
X147132136Y-90255534D01*
X147126414Y-90254349D01*
X147081283Y-90242762D01*
X147081281Y-90242762D01*
X147061246Y-90242762D01*
X147041848Y-90241235D01*
X147034424Y-90240059D01*
X147022067Y-90238102D01*
X147022066Y-90238102D01*
X146975678Y-90242487D01*
X146969840Y-90242762D01*
X146814608Y-90242762D01*
X146747569Y-90223077D01*
X146701814Y-90170273D01*
X146691870Y-90101115D01*
X146720895Y-90037559D01*
X146721451Y-90036961D01*
X146721436Y-90036948D01*
X146724112Y-90033895D01*
X146724119Y-90033888D01*
X146793205Y-89943852D01*
X146793205Y-89943850D01*
X146798153Y-89937403D01*
X146800616Y-89939293D01*
X146823667Y-89916242D01*
X146821777Y-89913779D01*
X146828224Y-89908831D01*
X146828226Y-89908831D01*
X146918262Y-89839745D01*
X146995692Y-89762313D01*
X147057015Y-89728829D01*
X147083374Y-89725995D01*
X147326575Y-89725995D01*
X147342195Y-89727719D01*
X147342222Y-89727434D01*
X147349978Y-89728166D01*
X147349985Y-89728168D01*
X147419132Y-89725995D01*
X147448668Y-89725995D01*
X147455546Y-89725125D01*
X147461359Y-89724667D01*
X147507945Y-89723204D01*
X147527187Y-89717612D01*
X147546230Y-89713669D01*
X147566110Y-89711159D01*
X147609440Y-89694002D01*
X147614964Y-89692112D01*
X147618714Y-89691022D01*
X147659708Y-89679113D01*
X147676947Y-89668917D01*
X147694421Y-89660357D01*
X147713045Y-89652983D01*
X147713045Y-89652982D01*
X147713050Y-89652981D01*
X147750767Y-89625577D01*
X147755623Y-89622387D01*
X147795738Y-89598665D01*
X147809907Y-89584494D01*
X147824697Y-89571863D01*
X147840905Y-89560089D01*
X147870617Y-89524171D01*
X147874530Y-89519871D01*
X149455518Y-87938884D01*
X149516839Y-87905401D01*
X149586531Y-87910385D01*
G37*
%TD.AperFunction*%
%TA.AperFunction,Conductor*%
G36*
X140968712Y-86345185D02*
G01*
X141014467Y-86397989D01*
X141024411Y-86467147D01*
X140995386Y-86530703D01*
X140989354Y-86537181D01*
X139895208Y-87631325D01*
X139882951Y-87641146D01*
X139883134Y-87641367D01*
X139877123Y-87646339D01*
X139829772Y-87696762D01*
X139808889Y-87717645D01*
X139808877Y-87717658D01*
X139804621Y-87723143D01*
X139800837Y-87727573D01*
X139768937Y-87761544D01*
X139768936Y-87761546D01*
X139759284Y-87779102D01*
X139748610Y-87795352D01*
X139736329Y-87811187D01*
X139736324Y-87811194D01*
X139717815Y-87853964D01*
X139715245Y-87859210D01*
X139692803Y-87900032D01*
X139687822Y-87919433D01*
X139681521Y-87937836D01*
X139673562Y-87956228D01*
X139673561Y-87956231D01*
X139666271Y-88002253D01*
X139665087Y-88007972D01*
X139653501Y-88053098D01*
X139653500Y-88053108D01*
X139653500Y-88073142D01*
X139651973Y-88092541D01*
X139648840Y-88112320D01*
X139648840Y-88112321D01*
X139653225Y-88158709D01*
X139653500Y-88164547D01*
X139653500Y-88436809D01*
X139633815Y-88503848D01*
X139581011Y-88549603D01*
X139511853Y-88559547D01*
X139479066Y-88550089D01*
X139471807Y-88546857D01*
X139471802Y-88546855D01*
X139319696Y-88514525D01*
X139286646Y-88507500D01*
X139286645Y-88507500D01*
X139227453Y-88507500D01*
X139160414Y-88487815D01*
X139139772Y-88471181D01*
X138709325Y-88040734D01*
X138675840Y-87979411D01*
X138680824Y-87909719D01*
X138722696Y-87853786D01*
X138746570Y-87839774D01*
X138882730Y-87779151D01*
X139035871Y-87667888D01*
X139162533Y-87527216D01*
X139257179Y-87363284D01*
X139315674Y-87183256D01*
X139335460Y-86995000D01*
X139335460Y-86994997D01*
X139335460Y-86990136D01*
X139355145Y-86923097D01*
X139371779Y-86902455D01*
X139912416Y-86361819D01*
X139973739Y-86328334D01*
X140000097Y-86325500D01*
X140901673Y-86325500D01*
X140968712Y-86345185D01*
G37*
%TD.AperFunction*%
%TA.AperFunction,Conductor*%
G36*
X189942539Y-60020185D02*
G01*
X189988294Y-60072989D01*
X189999500Y-60124500D01*
X189999500Y-79875500D01*
X189979815Y-79942539D01*
X189927011Y-79988294D01*
X189875500Y-79999500D01*
X185024856Y-79999500D01*
X185024703Y-79999469D01*
X185024703Y-79999478D01*
X185000000Y-79999457D01*
X184999756Y-79999559D01*
X184999616Y-79999617D01*
X184982558Y-80016635D01*
X184982357Y-80016934D01*
X182516995Y-82482295D01*
X182516819Y-82482413D01*
X182499616Y-82499616D01*
X182499457Y-82499995D01*
X182499461Y-82524665D01*
X182499500Y-82524855D01*
X182499500Y-87475368D01*
X182499405Y-87475849D01*
X182499458Y-87500000D01*
X182499576Y-87500283D01*
X182499617Y-87500383D01*
X182499618Y-87500383D01*
X182517272Y-87518009D01*
X182517265Y-87518015D01*
X182517391Y-87518099D01*
X184982197Y-89982904D01*
X184982488Y-89983339D01*
X184999616Y-90000381D01*
X184999617Y-90000383D01*
X184999717Y-90000424D01*
X185000000Y-90000542D01*
X185024585Y-90000553D01*
X185024856Y-90000500D01*
X209875500Y-90000500D01*
X209942539Y-90020185D01*
X209988294Y-90072989D01*
X209999500Y-90124500D01*
X209999500Y-119875500D01*
X209979815Y-119942539D01*
X209927011Y-119988294D01*
X209875500Y-119999500D01*
X100124500Y-119999500D01*
X100057461Y-119979815D01*
X100011706Y-119927011D01*
X100000500Y-119875500D01*
X100000500Y-110490002D01*
X102872677Y-110490002D01*
X102891929Y-110710062D01*
X102891930Y-110710070D01*
X102949104Y-110923445D01*
X102949105Y-110923447D01*
X102949106Y-110923450D01*
X102961777Y-110950623D01*
X103042466Y-111123662D01*
X103042468Y-111123666D01*
X103169170Y-111304615D01*
X103169175Y-111304621D01*
X103325378Y-111460824D01*
X103325384Y-111460829D01*
X103506333Y-111587531D01*
X103506335Y-111587532D01*
X103506338Y-111587534D01*
X103706550Y-111680894D01*
X103919932Y-111738070D01*
X104077123Y-111751822D01*
X104139998Y-111757323D01*
X104140000Y-111757323D01*
X104140002Y-111757323D01*
X104195017Y-111752509D01*
X104360068Y-111738070D01*
X104573450Y-111680894D01*
X104773662Y-111587534D01*
X104954620Y-111460826D01*
X105110826Y-111304620D01*
X105237534Y-111123662D01*
X105297894Y-110994218D01*
X105344066Y-110941779D01*
X105411259Y-110922627D01*
X105478141Y-110942843D01*
X105522658Y-110994219D01*
X105582899Y-111123407D01*
X105582900Y-111123409D01*
X105628258Y-111188187D01*
X106295096Y-110521349D01*
X106295051Y-110521898D01*
X106326266Y-110645162D01*
X106395813Y-110751612D01*
X106496157Y-110829713D01*
X106616422Y-110871000D01*
X106652553Y-110871000D01*
X105981811Y-111541741D01*
X106046582Y-111587094D01*
X106046592Y-111587100D01*
X106246715Y-111680419D01*
X106246729Y-111680424D01*
X106460013Y-111737573D01*
X106460023Y-111737575D01*
X106679999Y-111756821D01*
X106680001Y-111756821D01*
X106899976Y-111737575D01*
X106899986Y-111737573D01*
X107113270Y-111680424D01*
X107113284Y-111680419D01*
X107313408Y-111587100D01*
X107313420Y-111587093D01*
X107378186Y-111541742D01*
X107378187Y-111541740D01*
X106707448Y-110871000D01*
X106711569Y-110871000D01*
X106805421Y-110855339D01*
X106917251Y-110794820D01*
X107003371Y-110701269D01*
X107054448Y-110584823D01*
X107060105Y-110516552D01*
X107731740Y-111188187D01*
X107731742Y-111188186D01*
X107777093Y-111123420D01*
X107777100Y-111123408D01*
X107837342Y-110994219D01*
X107883514Y-110941779D01*
X107950707Y-110922627D01*
X108017588Y-110942842D01*
X108062106Y-110994219D01*
X108122464Y-111123658D01*
X108122468Y-111123666D01*
X108249170Y-111304615D01*
X108249175Y-111304621D01*
X108405378Y-111460824D01*
X108405384Y-111460829D01*
X108586333Y-111587531D01*
X108586335Y-111587532D01*
X108586338Y-111587534D01*
X108786550Y-111680894D01*
X108999932Y-111738070D01*
X109168270Y-111752796D01*
X109233338Y-111778248D01*
X109245144Y-111788643D01*
X109888236Y-112431736D01*
X109900871Y-112446529D01*
X109909110Y-112457869D01*
X109909112Y-112457871D01*
X109960730Y-112504348D01*
X109963068Y-112506568D01*
X109978620Y-112522120D01*
X109995716Y-112535964D01*
X109998168Y-112538058D01*
X110020887Y-112558514D01*
X110049784Y-112584533D01*
X110057633Y-112589065D01*
X110061920Y-112591540D01*
X110077952Y-112602557D01*
X110088851Y-112611383D01*
X110150714Y-112642903D01*
X110153569Y-112644453D01*
X110213707Y-112679174D01*
X110213712Y-112679177D01*
X110213713Y-112679177D01*
X110213716Y-112679179D01*
X110227050Y-112683511D01*
X110245022Y-112690956D01*
X110257512Y-112697320D01*
X110257514Y-112697320D01*
X110257515Y-112697321D01*
X110275928Y-112702254D01*
X110324601Y-112715296D01*
X110327682Y-112716209D01*
X110393744Y-112737674D01*
X110407688Y-112739139D01*
X110426814Y-112742685D01*
X110436441Y-112745264D01*
X110440355Y-112746313D01*
X110509720Y-112749947D01*
X110512935Y-112750200D01*
X110534808Y-112752500D01*
X110556798Y-112752500D01*
X110560041Y-112752584D01*
X110629388Y-112756219D01*
X110643228Y-112754027D01*
X110662627Y-112752500D01*
X130637373Y-112752500D01*
X130656772Y-112754027D01*
X130670612Y-112756219D01*
X130739959Y-112752584D01*
X130743203Y-112752500D01*
X130765191Y-112752500D01*
X130765192Y-112752500D01*
X130781988Y-112750734D01*
X130787064Y-112750201D01*
X130790284Y-112749947D01*
X130859646Y-112746313D01*
X130873187Y-112742683D01*
X130892313Y-112739138D01*
X130906256Y-112737674D01*
X130972306Y-112716212D01*
X130975368Y-112715304D01*
X131042488Y-112697320D01*
X131054976Y-112690956D01*
X131072950Y-112683510D01*
X131086284Y-112679179D01*
X131146476Y-112644425D01*
X131149222Y-112642934D01*
X131211149Y-112611383D01*
X131222031Y-112602569D01*
X131238083Y-112591537D01*
X131250216Y-112584533D01*
X131301847Y-112538043D01*
X131304260Y-112535982D01*
X131321380Y-112522119D01*
X131336929Y-112506568D01*
X131339270Y-112504347D01*
X131390888Y-112457871D01*
X131399130Y-112446525D01*
X131411762Y-112431736D01*
X131992322Y-111851176D01*
X132053641Y-111817694D01*
X132123333Y-111822678D01*
X132167680Y-111851179D01*
X132748236Y-112431736D01*
X132760871Y-112446529D01*
X132769110Y-112457869D01*
X132769112Y-112457871D01*
X132820730Y-112504348D01*
X132823068Y-112506568D01*
X132838620Y-112522120D01*
X132855716Y-112535964D01*
X132858168Y-112538058D01*
X132880887Y-112558514D01*
X132909784Y-112584533D01*
X132917633Y-112589065D01*
X132921920Y-112591540D01*
X132937952Y-112602557D01*
X132948851Y-112611383D01*
X133010714Y-112642903D01*
X133013569Y-112644453D01*
X133073707Y-112679174D01*
X133073712Y-112679177D01*
X133073713Y-112679177D01*
X133073716Y-112679179D01*
X133087050Y-112683511D01*
X133105022Y-112690956D01*
X133117512Y-112697320D01*
X133117514Y-112697320D01*
X133117515Y-112697321D01*
X133135928Y-112702254D01*
X133184601Y-112715296D01*
X133187682Y-112716209D01*
X133253744Y-112737674D01*
X133267688Y-112739139D01*
X133286814Y-112742685D01*
X133296441Y-112745264D01*
X133300355Y-112746313D01*
X133369720Y-112749947D01*
X133372935Y-112750200D01*
X133394808Y-112752500D01*
X133416798Y-112752500D01*
X133420041Y-112752584D01*
X133489388Y-112756219D01*
X133503228Y-112754027D01*
X133522627Y-112752500D01*
X153497373Y-112752500D01*
X153516772Y-112754027D01*
X153530612Y-112756219D01*
X153599959Y-112752584D01*
X153603203Y-112752500D01*
X153625191Y-112752500D01*
X153625192Y-112752500D01*
X153641988Y-112750734D01*
X153647064Y-112750201D01*
X153650284Y-112749947D01*
X153719646Y-112746313D01*
X153733187Y-112742683D01*
X153752313Y-112739138D01*
X153766256Y-112737674D01*
X153832306Y-112716212D01*
X153835368Y-112715304D01*
X153902488Y-112697320D01*
X153914976Y-112690956D01*
X153932950Y-112683510D01*
X153946284Y-112679179D01*
X154006476Y-112644425D01*
X154009222Y-112642934D01*
X154071149Y-112611383D01*
X154082031Y-112602569D01*
X154098083Y-112591537D01*
X154110216Y-112584533D01*
X154161847Y-112538043D01*
X154164260Y-112535982D01*
X154181380Y-112522119D01*
X154196929Y-112506568D01*
X154199270Y-112504347D01*
X154250888Y-112457871D01*
X154259130Y-112446525D01*
X154271762Y-112431736D01*
X154852322Y-111851176D01*
X154913641Y-111817694D01*
X154983333Y-111822678D01*
X155027680Y-111851179D01*
X155608236Y-112431736D01*
X155620871Y-112446529D01*
X155629110Y-112457869D01*
X155629112Y-112457871D01*
X155680730Y-112504348D01*
X155683068Y-112506568D01*
X155698620Y-112522120D01*
X155715716Y-112535964D01*
X155718168Y-112538058D01*
X155740887Y-112558514D01*
X155769784Y-112584533D01*
X155777633Y-112589065D01*
X155781920Y-112591540D01*
X155797952Y-112602557D01*
X155808851Y-112611383D01*
X155870714Y-112642903D01*
X155873569Y-112644453D01*
X155933707Y-112679174D01*
X155933712Y-112679177D01*
X155933713Y-112679177D01*
X155933716Y-112679179D01*
X155947050Y-112683511D01*
X155965022Y-112690956D01*
X155977512Y-112697320D01*
X155977514Y-112697320D01*
X155977515Y-112697321D01*
X155995928Y-112702254D01*
X156044601Y-112715296D01*
X156047682Y-112716209D01*
X156113744Y-112737674D01*
X156127688Y-112739139D01*
X156146814Y-112742685D01*
X156156441Y-112745264D01*
X156160355Y-112746313D01*
X156229720Y-112749947D01*
X156232935Y-112750200D01*
X156254808Y-112752500D01*
X156276798Y-112752500D01*
X156280041Y-112752584D01*
X156349388Y-112756219D01*
X156363228Y-112754027D01*
X156382627Y-112752500D01*
X181437373Y-112752500D01*
X181456772Y-112754027D01*
X181470612Y-112756219D01*
X181539959Y-112752584D01*
X181543203Y-112752500D01*
X181565191Y-112752500D01*
X181565192Y-112752500D01*
X181581988Y-112750734D01*
X181587064Y-112750201D01*
X181590284Y-112749947D01*
X181659646Y-112746313D01*
X181673187Y-112742683D01*
X181692313Y-112739138D01*
X181706256Y-112737674D01*
X181772306Y-112716212D01*
X181775368Y-112715304D01*
X181842488Y-112697320D01*
X181854976Y-112690956D01*
X181872950Y-112683510D01*
X181886284Y-112679179D01*
X181946476Y-112644425D01*
X181949222Y-112642934D01*
X182011149Y-112611383D01*
X182022031Y-112602569D01*
X182038083Y-112591537D01*
X182050216Y-112584533D01*
X182101847Y-112538043D01*
X182104260Y-112535982D01*
X182121380Y-112522119D01*
X182136929Y-112506568D01*
X182139270Y-112504347D01*
X182190888Y-112457871D01*
X182199130Y-112446525D01*
X182211762Y-112431736D01*
X182792322Y-111851176D01*
X182853641Y-111817694D01*
X182923333Y-111822678D01*
X182967679Y-111851178D01*
X184484363Y-113367863D01*
X185996236Y-114879736D01*
X186008871Y-114894529D01*
X186017110Y-114905869D01*
X186017112Y-114905871D01*
X186068730Y-114952348D01*
X186071068Y-114954568D01*
X186086620Y-114970120D01*
X186103716Y-114983964D01*
X186106168Y-114986058D01*
X186128887Y-115006514D01*
X186157784Y-115032533D01*
X186165633Y-115037065D01*
X186169920Y-115039540D01*
X186185952Y-115050557D01*
X186196851Y-115059383D01*
X186258714Y-115090903D01*
X186261569Y-115092453D01*
X186321707Y-115127174D01*
X186321712Y-115127177D01*
X186321713Y-115127177D01*
X186321716Y-115127179D01*
X186335050Y-115131511D01*
X186353022Y-115138956D01*
X186365512Y-115145320D01*
X186365514Y-115145320D01*
X186365515Y-115145321D01*
X186383928Y-115150254D01*
X186432601Y-115163296D01*
X186435682Y-115164209D01*
X186501744Y-115185674D01*
X186515688Y-115187139D01*
X186534814Y-115190685D01*
X186544441Y-115193264D01*
X186548355Y-115194313D01*
X186617720Y-115197947D01*
X186620935Y-115198200D01*
X186642808Y-115200500D01*
X186664798Y-115200500D01*
X186668041Y-115200584D01*
X186737388Y-115204219D01*
X186751228Y-115202027D01*
X186770627Y-115200500D01*
X197948480Y-115200500D01*
X198015519Y-115220185D01*
X198036161Y-115236819D01*
X198044811Y-115245469D01*
X198044813Y-115245470D01*
X198044815Y-115245472D01*
X198190394Y-115333478D01*
X198352804Y-115384086D01*
X198423384Y-115390500D01*
X198423387Y-115390500D01*
X199086613Y-115390500D01*
X199086616Y-115390500D01*
X199157196Y-115384086D01*
X199319606Y-115333478D01*
X199465185Y-115245472D01*
X199487250Y-115223405D01*
X199542793Y-115191325D01*
X199545163Y-115190690D01*
X199564313Y-115187138D01*
X199578256Y-115185674D01*
X199644306Y-115164212D01*
X199647368Y-115163304D01*
X199714488Y-115145320D01*
X199726976Y-115138956D01*
X199744950Y-115131510D01*
X199758284Y-115127179D01*
X199818476Y-115092425D01*
X199821222Y-115090934D01*
X199883149Y-115059383D01*
X199894031Y-115050569D01*
X199910083Y-115039537D01*
X199922216Y-115032533D01*
X199973847Y-114986043D01*
X199976260Y-114983982D01*
X199993380Y-114970119D01*
X200008929Y-114954568D01*
X200011270Y-114952347D01*
X200062888Y-114905871D01*
X200071130Y-114894525D01*
X200083762Y-114879736D01*
X203174857Y-111788641D01*
X203236178Y-111755158D01*
X203251719Y-111752797D01*
X203420068Y-111738070D01*
X203633450Y-111680894D01*
X203833662Y-111587534D01*
X204014620Y-111460826D01*
X204170826Y-111304620D01*
X204297534Y-111123662D01*
X204357618Y-110994811D01*
X204403790Y-110942371D01*
X204470983Y-110923219D01*
X204537865Y-110943435D01*
X204582382Y-110994811D01*
X204642464Y-111123658D01*
X204642468Y-111123666D01*
X204769170Y-111304615D01*
X204769175Y-111304621D01*
X204925378Y-111460824D01*
X204925384Y-111460829D01*
X205106333Y-111587531D01*
X205106335Y-111587532D01*
X205106338Y-111587534D01*
X205306550Y-111680894D01*
X205519932Y-111738070D01*
X205677123Y-111751822D01*
X205739998Y-111757323D01*
X205740000Y-111757323D01*
X205740002Y-111757323D01*
X205795017Y-111752509D01*
X205960068Y-111738070D01*
X206173450Y-111680894D01*
X206373662Y-111587534D01*
X206554620Y-111460826D01*
X206710826Y-111304620D01*
X206837534Y-111123662D01*
X206930894Y-110923450D01*
X206988070Y-110710068D01*
X207007323Y-110490000D01*
X207004532Y-110458102D01*
X206993748Y-110334838D01*
X206988070Y-110269932D01*
X206930894Y-110056550D01*
X206837534Y-109856339D01*
X206744734Y-109723806D01*
X206710827Y-109675381D01*
X206636446Y-109601000D01*
X206554620Y-109519174D01*
X206554616Y-109519171D01*
X206554615Y-109519170D01*
X206373666Y-109392468D01*
X206373662Y-109392466D01*
X206336553Y-109375162D01*
X206173450Y-109299106D01*
X206173447Y-109299105D01*
X206173445Y-109299104D01*
X205960070Y-109241930D01*
X205960062Y-109241929D01*
X205791728Y-109227202D01*
X205726659Y-109201750D01*
X205714854Y-109191355D01*
X203258764Y-106735265D01*
X203246126Y-106720468D01*
X203237887Y-106709128D01*
X203186277Y-106662657D01*
X203183922Y-106660423D01*
X203168382Y-106644882D01*
X203151295Y-106631043D01*
X203148831Y-106628939D01*
X203097220Y-106582470D01*
X203097213Y-106582465D01*
X203085070Y-106575454D01*
X203069043Y-106564438D01*
X203058153Y-106555620D01*
X203058151Y-106555619D01*
X203058149Y-106555617D01*
X203029173Y-106540853D01*
X202996266Y-106524085D01*
X202993414Y-106522537D01*
X202933282Y-106487820D01*
X202919949Y-106483488D01*
X202901978Y-106476043D01*
X202889498Y-106469684D01*
X202889486Y-106469679D01*
X202822409Y-106451705D01*
X202819309Y-106450787D01*
X202753256Y-106429326D01*
X202753251Y-106429325D01*
X202753249Y-106429325D01*
X202739314Y-106427860D01*
X202720189Y-106424315D01*
X202706653Y-106420688D01*
X202706643Y-106420686D01*
X202637290Y-106417051D01*
X202634059Y-106416797D01*
X202619537Y-106415271D01*
X202612192Y-106414500D01*
X202612189Y-106414500D01*
X202590203Y-106414500D01*
X202586959Y-106414415D01*
X202517612Y-106410781D01*
X202517611Y-106410781D01*
X202503772Y-106412973D01*
X202484373Y-106414500D01*
X199561520Y-106414500D01*
X199494481Y-106394815D01*
X199473839Y-106378181D01*
X199465188Y-106369530D01*
X199319606Y-106281522D01*
X199319198Y-106281395D01*
X199157196Y-106230914D01*
X199157194Y-106230913D01*
X199157192Y-106230913D01*
X199107778Y-106226423D01*
X199086616Y-106224500D01*
X198423384Y-106224500D01*
X198404145Y-106226248D01*
X198352807Y-106230913D01*
X198190393Y-106281522D01*
X198044811Y-106369530D01*
X198044810Y-106369531D01*
X198036161Y-106378181D01*
X197974838Y-106411666D01*
X197948480Y-106414500D01*
X188675627Y-106414500D01*
X188656228Y-106412973D01*
X188642388Y-106410781D01*
X188573040Y-106414415D01*
X188569797Y-106414500D01*
X188547808Y-106414500D01*
X188541559Y-106415156D01*
X188525941Y-106416797D01*
X188522710Y-106417051D01*
X188453352Y-106420686D01*
X188439812Y-106424315D01*
X188420686Y-106427860D01*
X188406745Y-106429325D01*
X188406742Y-106429326D01*
X188340692Y-106450785D01*
X188337584Y-106451706D01*
X188270512Y-106469680D01*
X188258020Y-106476045D01*
X188240053Y-106483487D01*
X188226713Y-106487821D01*
X188166592Y-106522533D01*
X188163740Y-106524082D01*
X188101853Y-106555616D01*
X188101837Y-106555626D01*
X188090948Y-106564444D01*
X188074923Y-106575458D01*
X188062785Y-106582466D01*
X188062781Y-106582469D01*
X188011172Y-106628936D01*
X188008710Y-106631039D01*
X187991627Y-106644875D01*
X187991610Y-106644890D01*
X187976065Y-106660435D01*
X187973713Y-106662666D01*
X187922114Y-106709126D01*
X187913869Y-106720474D01*
X187901236Y-106735263D01*
X185507680Y-109128819D01*
X185446357Y-109162304D01*
X185376665Y-109157320D01*
X185332320Y-109128820D01*
X184751763Y-108548264D01*
X184739126Y-108533468D01*
X184739125Y-108533467D01*
X184730888Y-108522129D01*
X184726729Y-108518384D01*
X184679277Y-108475657D01*
X184676922Y-108473423D01*
X184661382Y-108457882D01*
X184644295Y-108444043D01*
X184641831Y-108441939D01*
X184590220Y-108395470D01*
X184590213Y-108395465D01*
X184578070Y-108388454D01*
X184562043Y-108377438D01*
X184551153Y-108368620D01*
X184551151Y-108368619D01*
X184551149Y-108368617D01*
X184528638Y-108357147D01*
X184489266Y-108337085D01*
X184486414Y-108335537D01*
X184426282Y-108300820D01*
X184412949Y-108296488D01*
X184394978Y-108289043D01*
X184382498Y-108282684D01*
X184382486Y-108282679D01*
X184315409Y-108264705D01*
X184312305Y-108263786D01*
X184246256Y-108242326D01*
X184246251Y-108242325D01*
X184246249Y-108242325D01*
X184232314Y-108240860D01*
X184213189Y-108237315D01*
X184199653Y-108233688D01*
X184199643Y-108233686D01*
X184130290Y-108230051D01*
X184127059Y-108229797D01*
X184112537Y-108228271D01*
X184105192Y-108227500D01*
X184105189Y-108227500D01*
X184083203Y-108227500D01*
X184079959Y-108227415D01*
X184010612Y-108223781D01*
X184010611Y-108223781D01*
X183996772Y-108225973D01*
X183977373Y-108227500D01*
X177316475Y-108227500D01*
X177297075Y-108225973D01*
X177283230Y-108223780D01*
X177213869Y-108227415D01*
X177210626Y-108227500D01*
X177188647Y-108227500D01*
X177166784Y-108229798D01*
X177163549Y-108230052D01*
X177094196Y-108233686D01*
X177080644Y-108237317D01*
X177061532Y-108240859D01*
X177047590Y-108242325D01*
X177047578Y-108242327D01*
X176995326Y-108259305D01*
X176981525Y-108263789D01*
X176978444Y-108264702D01*
X176932914Y-108276902D01*
X176911353Y-108282680D01*
X176898858Y-108289046D01*
X176880897Y-108296485D01*
X176867556Y-108300820D01*
X176867554Y-108300821D01*
X176807424Y-108335536D01*
X176804573Y-108337085D01*
X176742696Y-108368612D01*
X176742691Y-108368616D01*
X176731787Y-108377445D01*
X176715768Y-108388454D01*
X176703629Y-108395463D01*
X176703626Y-108395465D01*
X176652030Y-108441922D01*
X176649566Y-108444027D01*
X176632469Y-108457873D01*
X176632453Y-108457887D01*
X176616896Y-108473444D01*
X176614544Y-108475675D01*
X176562954Y-108522127D01*
X176562950Y-108522131D01*
X176554715Y-108533467D01*
X176542080Y-108548260D01*
X175697439Y-109392903D01*
X175445161Y-109645181D01*
X175383838Y-109678666D01*
X175357480Y-109681500D01*
X172794460Y-109681500D01*
X172727421Y-109661815D01*
X172681666Y-109609011D01*
X172671722Y-109539853D01*
X172674685Y-109525406D01*
X172697574Y-109439982D01*
X172697575Y-109439976D01*
X172716821Y-109220000D01*
X172716821Y-109219999D01*
X172697575Y-109000023D01*
X172697573Y-109000013D01*
X172640424Y-108786729D01*
X172640420Y-108786720D01*
X172608798Y-108718905D01*
X172598306Y-108649828D01*
X172626826Y-108586044D01*
X172685302Y-108547804D01*
X172721180Y-108542500D01*
X174709952Y-108542500D01*
X174713697Y-108542613D01*
X174721042Y-108543057D01*
X174775606Y-108546358D01*
X174813314Y-108539447D01*
X174836621Y-108535177D01*
X174840325Y-108534613D01*
X174858170Y-108532446D01*
X174901872Y-108527140D01*
X174911335Y-108523550D01*
X174932961Y-108517522D01*
X174933893Y-108517351D01*
X174942932Y-108515695D01*
X174999512Y-108490229D01*
X175002942Y-108488809D01*
X175060930Y-108466818D01*
X175069266Y-108461062D01*
X175088821Y-108450034D01*
X175098057Y-108445878D01*
X175146896Y-108407613D01*
X175149876Y-108405421D01*
X175200929Y-108370183D01*
X175242065Y-108323748D01*
X175244599Y-108321056D01*
X175957976Y-107607680D01*
X176019295Y-107574198D01*
X176019304Y-107574195D01*
X176174803Y-107541144D01*
X176174807Y-107541142D01*
X176174808Y-107541142D01*
X176279296Y-107494620D01*
X176347730Y-107464151D01*
X176500871Y-107352888D01*
X176627533Y-107212216D01*
X176722179Y-107048284D01*
X176780674Y-106868256D01*
X176800460Y-106680000D01*
X176780674Y-106491744D01*
X176722179Y-106311716D01*
X176627533Y-106147784D01*
X176500871Y-106007112D01*
X176500870Y-106007111D01*
X176347734Y-105895851D01*
X176347729Y-105895848D01*
X176174807Y-105818857D01*
X176174802Y-105818855D01*
X176029001Y-105787865D01*
X175989646Y-105779500D01*
X175800354Y-105779500D01*
X175767897Y-105786398D01*
X175615197Y-105818855D01*
X175615192Y-105818857D01*
X175442270Y-105895848D01*
X175442265Y-105895851D01*
X175289129Y-106007111D01*
X175162466Y-106147785D01*
X175067821Y-106311715D01*
X175067818Y-106311722D01*
X175009327Y-106491739D01*
X175009325Y-106491750D01*
X175004134Y-106541129D01*
X174977549Y-106605743D01*
X174968495Y-106615846D01*
X174479162Y-107105181D01*
X174417839Y-107138666D01*
X174391481Y-107141500D01*
X172794978Y-107141500D01*
X172727939Y-107121815D01*
X172682184Y-107069011D01*
X172672240Y-106999853D01*
X172675201Y-106985414D01*
X172698070Y-106900068D01*
X172717323Y-106680000D01*
X172715611Y-106660435D01*
X172708790Y-106582465D01*
X172698070Y-106459932D01*
X172640894Y-106246550D01*
X172547534Y-106046339D01*
X172442162Y-105895851D01*
X172420827Y-105865381D01*
X172374301Y-105818855D01*
X172264620Y-105709174D01*
X172264616Y-105709171D01*
X172264615Y-105709170D01*
X172083666Y-105582468D01*
X172083658Y-105582464D01*
X171954811Y-105522382D01*
X171902371Y-105476210D01*
X171883219Y-105409017D01*
X171903435Y-105342135D01*
X171954811Y-105297618D01*
X171960802Y-105294824D01*
X172083662Y-105237534D01*
X172264620Y-105110826D01*
X172420826Y-104954620D01*
X172547534Y-104773662D01*
X172640894Y-104573450D01*
X172698070Y-104360068D01*
X172717323Y-104140000D01*
X172698070Y-103919932D01*
X172640894Y-103706550D01*
X172547534Y-103506339D01*
X172441342Y-103354680D01*
X172420827Y-103325381D01*
X172354828Y-103259382D01*
X172264620Y-103169174D01*
X172264616Y-103169171D01*
X172264615Y-103169170D01*
X172083666Y-103042468D01*
X172083658Y-103042464D01*
X171954811Y-102982382D01*
X171902371Y-102936210D01*
X171883219Y-102869017D01*
X171903435Y-102802135D01*
X171954811Y-102757618D01*
X171960802Y-102754824D01*
X172083662Y-102697534D01*
X172264620Y-102570826D01*
X172420826Y-102414620D01*
X172547534Y-102233662D01*
X172640894Y-102033450D01*
X172698070Y-101820068D01*
X172714871Y-101628031D01*
X172717323Y-101600002D01*
X172717323Y-101599997D01*
X172705952Y-101470025D01*
X172698070Y-101379932D01*
X172640894Y-101166550D01*
X172547534Y-100966339D01*
X172432486Y-100802032D01*
X172420827Y-100785381D01*
X172347661Y-100712215D01*
X172264620Y-100629174D01*
X172264616Y-100629171D01*
X172264615Y-100629170D01*
X172083666Y-100502468D01*
X172083658Y-100502464D01*
X171954811Y-100442382D01*
X171902371Y-100396210D01*
X171883219Y-100329017D01*
X171903435Y-100262135D01*
X171954811Y-100217618D01*
X171960802Y-100214824D01*
X172083662Y-100157534D01*
X172264620Y-100030826D01*
X172420826Y-99874620D01*
X172547534Y-99693662D01*
X172640894Y-99493450D01*
X172698070Y-99280068D01*
X172714163Y-99096123D01*
X172717323Y-99060002D01*
X172717323Y-99059994D01*
X172702555Y-98891202D01*
X172698070Y-98839932D01*
X172640894Y-98626550D01*
X172547534Y-98426339D01*
X172472030Y-98318508D01*
X172420827Y-98245381D01*
X172345899Y-98170453D01*
X172264620Y-98089174D01*
X172264616Y-98089171D01*
X172264615Y-98089170D01*
X172083666Y-97962468D01*
X172083658Y-97962464D01*
X171954811Y-97902382D01*
X171902371Y-97856210D01*
X171883219Y-97789017D01*
X171903435Y-97722135D01*
X171954811Y-97677618D01*
X171970517Y-97670294D01*
X172083662Y-97617534D01*
X172264620Y-97490826D01*
X172420826Y-97334620D01*
X172547534Y-97153662D01*
X172640894Y-96953450D01*
X172698070Y-96740068D01*
X172717323Y-96520000D01*
X172698070Y-96299932D01*
X172675203Y-96214592D01*
X172676866Y-96144744D01*
X172716028Y-96086881D01*
X172780256Y-96059377D01*
X172794978Y-96058500D01*
X172846548Y-96058500D01*
X172913587Y-96078185D01*
X172934229Y-96094819D01*
X174321038Y-97481629D01*
X174354523Y-97542952D01*
X174356678Y-97556348D01*
X174362775Y-97614350D01*
X174374326Y-97724256D01*
X174374327Y-97724259D01*
X174432818Y-97904277D01*
X174432821Y-97904284D01*
X174527467Y-98068216D01*
X174597336Y-98145813D01*
X174654129Y-98208888D01*
X174807265Y-98320148D01*
X174807270Y-98320151D01*
X174980192Y-98397142D01*
X174980197Y-98397144D01*
X175165354Y-98436500D01*
X175165355Y-98436500D01*
X175354644Y-98436500D01*
X175354646Y-98436500D01*
X175539803Y-98397144D01*
X175712730Y-98320151D01*
X175865871Y-98208888D01*
X175992533Y-98068216D01*
X175992533Y-98068215D01*
X175996881Y-98063387D01*
X175998446Y-98064796D01*
X176045957Y-98028140D01*
X176115569Y-98022142D01*
X176177373Y-98054731D01*
X176178658Y-98055998D01*
X179923448Y-101800788D01*
X179933273Y-101813051D01*
X179933494Y-101812869D01*
X179938465Y-101818878D01*
X179961110Y-101840142D01*
X179988886Y-101866226D01*
X180009780Y-101887120D01*
X180015262Y-101891373D01*
X180019694Y-101895157D01*
X180053669Y-101927062D01*
X180071227Y-101936714D01*
X180087486Y-101947395D01*
X180103315Y-101959673D01*
X180146089Y-101978182D01*
X180151307Y-101980738D01*
X180192159Y-102003197D01*
X180211567Y-102008180D01*
X180229968Y-102014480D01*
X180248355Y-102022437D01*
X180291739Y-102029308D01*
X180294370Y-102029725D01*
X180300090Y-102030909D01*
X180345232Y-102042500D01*
X180365267Y-102042500D01*
X180384666Y-102044027D01*
X180404447Y-102047160D01*
X180444685Y-102043356D01*
X180450833Y-102042775D01*
X180456671Y-102042500D01*
X202030257Y-102042500D01*
X202045877Y-102044224D01*
X202045904Y-102043939D01*
X202053660Y-102044671D01*
X202053667Y-102044673D01*
X202122814Y-102042500D01*
X202152350Y-102042500D01*
X202159228Y-102041630D01*
X202165041Y-102041172D01*
X202211627Y-102039709D01*
X202230869Y-102034117D01*
X202249912Y-102030174D01*
X202269792Y-102027664D01*
X202313122Y-102010507D01*
X202318646Y-102008617D01*
X202322396Y-102007527D01*
X202363390Y-101995618D01*
X202380629Y-101985422D01*
X202398103Y-101976862D01*
X202416727Y-101969488D01*
X202416727Y-101969487D01*
X202416732Y-101969486D01*
X202454449Y-101942082D01*
X202459305Y-101938892D01*
X202499420Y-101915170D01*
X202513589Y-101900999D01*
X202528379Y-101888368D01*
X202544587Y-101876594D01*
X202574299Y-101840676D01*
X202578212Y-101836376D01*
X202816204Y-101598384D01*
X202877525Y-101564901D01*
X202935976Y-101566292D01*
X202979932Y-101578070D01*
X203114913Y-101589879D01*
X203199998Y-101597323D01*
X203200000Y-101597323D01*
X203200002Y-101597323D01*
X203255017Y-101592509D01*
X203420068Y-101578070D01*
X203633450Y-101520894D01*
X203833662Y-101427534D01*
X204014620Y-101300826D01*
X204170826Y-101144620D01*
X204297534Y-100963662D01*
X204357618Y-100834811D01*
X204403790Y-100782371D01*
X204470983Y-100763219D01*
X204537865Y-100783435D01*
X204582382Y-100834811D01*
X204642464Y-100963658D01*
X204642468Y-100963666D01*
X204769170Y-101144615D01*
X204769175Y-101144621D01*
X204925378Y-101300824D01*
X204925384Y-101300829D01*
X205106333Y-101427531D01*
X205106335Y-101427532D01*
X205106338Y-101427534D01*
X205306550Y-101520894D01*
X205519932Y-101578070D01*
X205654913Y-101589879D01*
X205739998Y-101597323D01*
X205740000Y-101597323D01*
X205740002Y-101597323D01*
X205795017Y-101592509D01*
X205960068Y-101578070D01*
X206173450Y-101520894D01*
X206373662Y-101427534D01*
X206554620Y-101300826D01*
X206710826Y-101144620D01*
X206837534Y-100963662D01*
X206930894Y-100763450D01*
X206988070Y-100550068D01*
X207004207Y-100365615D01*
X207007323Y-100330002D01*
X207007323Y-100329997D01*
X207000103Y-100247474D01*
X206988070Y-100109932D01*
X206930894Y-99896550D01*
X206837534Y-99696339D01*
X206747821Y-99568215D01*
X206710827Y-99515381D01*
X206633146Y-99437700D01*
X206554620Y-99359174D01*
X206554616Y-99359171D01*
X206554615Y-99359170D01*
X206373666Y-99232468D01*
X206373662Y-99232466D01*
X206373660Y-99232465D01*
X206173450Y-99139106D01*
X206173447Y-99139105D01*
X206173445Y-99139104D01*
X205960070Y-99081930D01*
X205960062Y-99081929D01*
X205740002Y-99062677D01*
X205739998Y-99062677D01*
X205519937Y-99081929D01*
X205519929Y-99081930D01*
X205306554Y-99139104D01*
X205306548Y-99139107D01*
X205106340Y-99232465D01*
X205106338Y-99232466D01*
X204925377Y-99359175D01*
X204769175Y-99515377D01*
X204642466Y-99696338D01*
X204642465Y-99696340D01*
X204582382Y-99825189D01*
X204536209Y-99877628D01*
X204469016Y-99896780D01*
X204402135Y-99876564D01*
X204357618Y-99825189D01*
X204316879Y-99737824D01*
X204297534Y-99696339D01*
X204207821Y-99568215D01*
X204170827Y-99515381D01*
X204093146Y-99437700D01*
X204014620Y-99359174D01*
X204014616Y-99359171D01*
X204014615Y-99359170D01*
X203833666Y-99232468D01*
X203833662Y-99232466D01*
X203833660Y-99232465D01*
X203633450Y-99139106D01*
X203633447Y-99139105D01*
X203633445Y-99139104D01*
X203420070Y-99081930D01*
X203420062Y-99081929D01*
X203200002Y-99062677D01*
X203199998Y-99062677D01*
X202979937Y-99081929D01*
X202979929Y-99081930D01*
X202766554Y-99139104D01*
X202766548Y-99139107D01*
X202566340Y-99232465D01*
X202566338Y-99232466D01*
X202385377Y-99359175D01*
X202229175Y-99515377D01*
X202102466Y-99696338D01*
X202102465Y-99696340D01*
X202009107Y-99896548D01*
X202009104Y-99896554D01*
X201951930Y-100109929D01*
X201951929Y-100109937D01*
X201932677Y-100329997D01*
X201932677Y-100330002D01*
X201935793Y-100365615D01*
X201951930Y-100550068D01*
X201951930Y-100550069D01*
X201963707Y-100594019D01*
X201962044Y-100663869D01*
X201931614Y-100713793D01*
X201890228Y-100755180D01*
X201828906Y-100788666D01*
X201802546Y-100791500D01*
X186764978Y-100791500D01*
X186697939Y-100771815D01*
X186652184Y-100719011D01*
X186642240Y-100649853D01*
X186645201Y-100635414D01*
X186668070Y-100550068D01*
X186684207Y-100365615D01*
X186687323Y-100330002D01*
X186687323Y-100329997D01*
X186680103Y-100247474D01*
X186668070Y-100109932D01*
X186610894Y-99896550D01*
X186517534Y-99696339D01*
X186427821Y-99568215D01*
X186390827Y-99515381D01*
X186313146Y-99437700D01*
X186234620Y-99359174D01*
X186234616Y-99359171D01*
X186234615Y-99359170D01*
X186053666Y-99232468D01*
X186053662Y-99232466D01*
X186053660Y-99232465D01*
X185853450Y-99139106D01*
X185853447Y-99139105D01*
X185853445Y-99139104D01*
X185640070Y-99081930D01*
X185640062Y-99081929D01*
X185420002Y-99062677D01*
X185419998Y-99062677D01*
X185199937Y-99081929D01*
X185199929Y-99081930D01*
X184986554Y-99139104D01*
X184986548Y-99139107D01*
X184786340Y-99232465D01*
X184786338Y-99232466D01*
X184605377Y-99359175D01*
X184449175Y-99515377D01*
X184322466Y-99696338D01*
X184322465Y-99696340D01*
X184262382Y-99825189D01*
X184216209Y-99877628D01*
X184149016Y-99896780D01*
X184082135Y-99876564D01*
X184037618Y-99825189D01*
X183996879Y-99737824D01*
X183977534Y-99696339D01*
X183887821Y-99568215D01*
X183850827Y-99515381D01*
X183773146Y-99437700D01*
X183694620Y-99359174D01*
X183694616Y-99359171D01*
X183694615Y-99359170D01*
X183513666Y-99232468D01*
X183513662Y-99232466D01*
X183513660Y-99232465D01*
X183313450Y-99139106D01*
X183313447Y-99139105D01*
X183313445Y-99139104D01*
X183100070Y-99081930D01*
X183100062Y-99081929D01*
X182880002Y-99062677D01*
X182879998Y-99062677D01*
X182733589Y-99075486D01*
X182659932Y-99081930D01*
X182659930Y-99081930D01*
X182659926Y-99081931D01*
X182615976Y-99093707D01*
X182546126Y-99092043D01*
X182496203Y-99061613D01*
X178502353Y-95067763D01*
X188145787Y-95067763D01*
X188175413Y-95337013D01*
X188175415Y-95337024D01*
X188243485Y-95597395D01*
X188243928Y-95599088D01*
X188349870Y-95848390D01*
X188441231Y-95998090D01*
X188490979Y-96079605D01*
X188490986Y-96079615D01*
X188664253Y-96287819D01*
X188664259Y-96287824D01*
X188771393Y-96383816D01*
X188865998Y-96468582D01*
X189091910Y-96618044D01*
X189337176Y-96733020D01*
X189337183Y-96733022D01*
X189337185Y-96733023D01*
X189596557Y-96811057D01*
X189596564Y-96811058D01*
X189596569Y-96811060D01*
X189864561Y-96850500D01*
X189864566Y-96850500D01*
X190067636Y-96850500D01*
X190119133Y-96846730D01*
X190270156Y-96835677D01*
X190409041Y-96804739D01*
X190534546Y-96776782D01*
X190534548Y-96776781D01*
X190534553Y-96776780D01*
X190787558Y-96680014D01*
X191023777Y-96547441D01*
X191238177Y-96381888D01*
X191426186Y-96186881D01*
X191583799Y-95966579D01*
X191672306Y-95794431D01*
X191707649Y-95725690D01*
X191707651Y-95725684D01*
X191707656Y-95725675D01*
X191795118Y-95469305D01*
X191844319Y-95202933D01*
X191854212Y-94932235D01*
X191824586Y-94662982D01*
X191756072Y-94400912D01*
X191650130Y-94151610D01*
X191509018Y-93920390D01*
X191506062Y-93916838D01*
X191335746Y-93712180D01*
X191335740Y-93712175D01*
X191134002Y-93531418D01*
X190908092Y-93381957D01*
X190832112Y-93346339D01*
X190662824Y-93266980D01*
X190662819Y-93266978D01*
X190662814Y-93266976D01*
X190403442Y-93188942D01*
X190403428Y-93188939D01*
X190287791Y-93171921D01*
X190135439Y-93149500D01*
X189932369Y-93149500D01*
X189932364Y-93149500D01*
X189729844Y-93164323D01*
X189729831Y-93164325D01*
X189465453Y-93223217D01*
X189465446Y-93223220D01*
X189212439Y-93319987D01*
X188976226Y-93452557D01*
X188976224Y-93452558D01*
X188976223Y-93452559D01*
X188913893Y-93500688D01*
X188761822Y-93618112D01*
X188573822Y-93813109D01*
X188573816Y-93813116D01*
X188416202Y-94033419D01*
X188416199Y-94033424D01*
X188292350Y-94274309D01*
X188292343Y-94274327D01*
X188204884Y-94530685D01*
X188204881Y-94530699D01*
X188197914Y-94568420D01*
X188155749Y-94796702D01*
X188155681Y-94797068D01*
X188155680Y-94797075D01*
X188145787Y-95067763D01*
X178502353Y-95067763D01*
X171950803Y-88516212D01*
X171940980Y-88503950D01*
X171940759Y-88504134D01*
X171935786Y-88498123D01*
X171885364Y-88450773D01*
X171871400Y-88436809D01*
X171864475Y-88429883D01*
X171858986Y-88425625D01*
X171854561Y-88421847D01*
X171820582Y-88389938D01*
X171820580Y-88389936D01*
X171820577Y-88389935D01*
X171803029Y-88380288D01*
X171786763Y-88369604D01*
X171770933Y-88357325D01*
X171728168Y-88338818D01*
X171722922Y-88336248D01*
X171682094Y-88313804D01*
X171682093Y-88313803D01*
X171682092Y-88313803D01*
X171662689Y-88308821D01*
X171644283Y-88302519D01*
X171625896Y-88294562D01*
X171625894Y-88294561D01*
X171622378Y-88293040D01*
X171579475Y-88262211D01*
X171547871Y-88227112D01*
X171547864Y-88227106D01*
X171394734Y-88115851D01*
X171394729Y-88115848D01*
X171221807Y-88038857D01*
X171221802Y-88038855D01*
X171063199Y-88005144D01*
X171036646Y-87999500D01*
X170847354Y-87999500D01*
X170820801Y-88005144D01*
X170662197Y-88038855D01*
X170662192Y-88038857D01*
X170489270Y-88115848D01*
X170489265Y-88115851D01*
X170336129Y-88227111D01*
X170209466Y-88367785D01*
X170114821Y-88531715D01*
X170114818Y-88531722D01*
X170056327Y-88711740D01*
X170056326Y-88711744D01*
X170036540Y-88900000D01*
X170056326Y-89088256D01*
X170056327Y-89088259D01*
X170114818Y-89268277D01*
X170114820Y-89268282D01*
X170114821Y-89268284D01*
X170116425Y-89271063D01*
X170116864Y-89272871D01*
X170117462Y-89274214D01*
X170117216Y-89274323D01*
X170132899Y-89338961D01*
X170110048Y-89404988D01*
X170055127Y-89448180D01*
X169985574Y-89454823D01*
X169936154Y-89433382D01*
X169901218Y-89408000D01*
X169870730Y-89385849D01*
X169870728Y-89385848D01*
X169870729Y-89385848D01*
X169697807Y-89308857D01*
X169697802Y-89308855D01*
X169552001Y-89277865D01*
X169512646Y-89269500D01*
X169323354Y-89269500D01*
X169290897Y-89276398D01*
X169138197Y-89308855D01*
X169138192Y-89308857D01*
X168965270Y-89385848D01*
X168965265Y-89385851D01*
X168812129Y-89497111D01*
X168685466Y-89637785D01*
X168590821Y-89801715D01*
X168590818Y-89801722D01*
X168536472Y-89968983D01*
X168532326Y-89981744D01*
X168512540Y-90170000D01*
X168520158Y-90242487D01*
X168522642Y-90266116D01*
X168510072Y-90334846D01*
X168462340Y-90385869D01*
X168394600Y-90402987D01*
X168328358Y-90380764D01*
X168328198Y-90380652D01*
X168273666Y-90342468D01*
X168273662Y-90342466D01*
X168197776Y-90307080D01*
X168073450Y-90249106D01*
X168073447Y-90249105D01*
X168073445Y-90249104D01*
X167860070Y-90191930D01*
X167860062Y-90191929D01*
X167640002Y-90172677D01*
X167639998Y-90172677D01*
X167419937Y-90191929D01*
X167419929Y-90191930D01*
X167206554Y-90249104D01*
X167206548Y-90249107D01*
X167006340Y-90342465D01*
X167006338Y-90342466D01*
X166825377Y-90469175D01*
X166669175Y-90625377D01*
X166542466Y-90806338D01*
X166542465Y-90806340D01*
X166449107Y-91006548D01*
X166449104Y-91006554D01*
X166391930Y-91219929D01*
X166391929Y-91219937D01*
X166372677Y-91439997D01*
X166372677Y-91440002D01*
X166391929Y-91660062D01*
X166391930Y-91660070D01*
X166449104Y-91873445D01*
X166449105Y-91873447D01*
X166449106Y-91873450D01*
X166473540Y-91925849D01*
X166542466Y-92073662D01*
X166542468Y-92073666D01*
X166669170Y-92254615D01*
X166669175Y-92254621D01*
X166825378Y-92410824D01*
X166825384Y-92410829D01*
X167006333Y-92537531D01*
X167006335Y-92537532D01*
X167006338Y-92537534D01*
X167125748Y-92593215D01*
X167135189Y-92597618D01*
X167187628Y-92643790D01*
X167206780Y-92710984D01*
X167186564Y-92777865D01*
X167135189Y-92822382D01*
X167006340Y-92882465D01*
X167006338Y-92882466D01*
X166825377Y-93009175D01*
X166669175Y-93165377D01*
X166542466Y-93346338D01*
X166542465Y-93346340D01*
X166449107Y-93546548D01*
X166449104Y-93546554D01*
X166391930Y-93759929D01*
X166391929Y-93759937D01*
X166372677Y-93979997D01*
X166372677Y-93980002D01*
X166391929Y-94200062D01*
X166391930Y-94200069D01*
X166399280Y-94227498D01*
X166414796Y-94285407D01*
X166413134Y-94355256D01*
X166373972Y-94413119D01*
X166309744Y-94440623D01*
X166295022Y-94441500D01*
X165163952Y-94441500D01*
X165096913Y-94421815D01*
X165076271Y-94405181D01*
X159684945Y-89013854D01*
X159675122Y-89001592D01*
X159674901Y-89001776D01*
X159669928Y-88995765D01*
X159645936Y-88973235D01*
X159619506Y-88948415D01*
X159609061Y-88937970D01*
X159598617Y-88927525D01*
X159593128Y-88923267D01*
X159588703Y-88919489D01*
X159554724Y-88887580D01*
X159554722Y-88887578D01*
X159554719Y-88887577D01*
X159537171Y-88877930D01*
X159520905Y-88867246D01*
X159509536Y-88858427D01*
X159505078Y-88854969D01*
X159505077Y-88854968D01*
X159505075Y-88854967D01*
X159462310Y-88836460D01*
X159457064Y-88833890D01*
X159416235Y-88811445D01*
X159416234Y-88811444D01*
X159396835Y-88806464D01*
X159378423Y-88800160D01*
X159360040Y-88792204D01*
X159360034Y-88792202D01*
X159314016Y-88784914D01*
X159308294Y-88783729D01*
X159263163Y-88772142D01*
X159263161Y-88772142D01*
X159243126Y-88772142D01*
X159223728Y-88770615D01*
X159216304Y-88769439D01*
X159203947Y-88767482D01*
X159203946Y-88767482D01*
X159157558Y-88771867D01*
X159151720Y-88772142D01*
X154725600Y-88772142D01*
X154709979Y-88770417D01*
X154709953Y-88770703D01*
X154702191Y-88769969D01*
X154702190Y-88769969D01*
X154633043Y-88772142D01*
X154603506Y-88772142D01*
X154596623Y-88773011D01*
X154590806Y-88773468D01*
X154544230Y-88774932D01*
X154524986Y-88780523D01*
X154505936Y-88784467D01*
X154486068Y-88786976D01*
X154442741Y-88804130D01*
X154437215Y-88806021D01*
X154392471Y-88819021D01*
X154392467Y-88819023D01*
X154375223Y-88829221D01*
X154357762Y-88837775D01*
X154339131Y-88845152D01*
X154339119Y-88845159D01*
X154301423Y-88872547D01*
X154296532Y-88875759D01*
X154289728Y-88879782D01*
X154222001Y-88896956D01*
X154155742Y-88874788D01*
X154151134Y-88871418D01*
X154140334Y-88863131D01*
X154142199Y-88860700D01*
X154119145Y-88837635D01*
X154116708Y-88839506D01*
X154111760Y-88833057D01*
X154042674Y-88743021D01*
X154042671Y-88743018D01*
X154042667Y-88743013D01*
X153883271Y-88583617D01*
X153883266Y-88583613D01*
X153883264Y-88583611D01*
X153793228Y-88514525D01*
X153786780Y-88509577D01*
X153788610Y-88507191D01*
X153765549Y-88484114D01*
X153763155Y-88485952D01*
X153720132Y-88429883D01*
X153689121Y-88389468D01*
X153689118Y-88389465D01*
X153689114Y-88389460D01*
X153529718Y-88230064D01*
X153529713Y-88230060D01*
X153529711Y-88230058D01*
X153439675Y-88160972D01*
X153433227Y-88156024D01*
X153435057Y-88153638D01*
X153411996Y-88130561D01*
X153409602Y-88132399D01*
X153379018Y-88092541D01*
X153335568Y-88035915D01*
X153335565Y-88035912D01*
X153335561Y-88035907D01*
X153176165Y-87876511D01*
X153176160Y-87876507D01*
X153176158Y-87876505D01*
X153121156Y-87834301D01*
X153079674Y-87802471D01*
X153081539Y-87800040D01*
X153058485Y-87776975D01*
X153056048Y-87778846D01*
X153051100Y-87772397D01*
X152982014Y-87682361D01*
X152982011Y-87682358D01*
X152982007Y-87682353D01*
X152822611Y-87522957D01*
X152822606Y-87522953D01*
X152822604Y-87522951D01*
X152732568Y-87453865D01*
X152726120Y-87448917D01*
X152727950Y-87446531D01*
X152704889Y-87423454D01*
X152702495Y-87425292D01*
X152654915Y-87363284D01*
X152628461Y-87328808D01*
X152628458Y-87328805D01*
X152628454Y-87328800D01*
X152469058Y-87169404D01*
X152469053Y-87169400D01*
X152469051Y-87169398D01*
X152379015Y-87100312D01*
X152372567Y-87095364D01*
X152374432Y-87092933D01*
X152351378Y-87069868D01*
X152348941Y-87071739D01*
X152290058Y-86995000D01*
X152274907Y-86975254D01*
X152274904Y-86975251D01*
X152272224Y-86972194D01*
X152273771Y-86970837D01*
X152244231Y-86916739D01*
X152249215Y-86847047D01*
X152291087Y-86791114D01*
X152356551Y-86766697D01*
X152365397Y-86766381D01*
X156760429Y-86766381D01*
X156827468Y-86786066D01*
X156848110Y-86802700D01*
X156988181Y-86942771D01*
X157021666Y-87004094D01*
X157024500Y-87030452D01*
X157024500Y-87326616D01*
X157024699Y-87328805D01*
X157030913Y-87397192D01*
X157030913Y-87397194D01*
X157030914Y-87397196D01*
X157081522Y-87559606D01*
X157164435Y-87696761D01*
X157169530Y-87705188D01*
X157289811Y-87825469D01*
X157289813Y-87825470D01*
X157289815Y-87825472D01*
X157435394Y-87913478D01*
X157597804Y-87964086D01*
X157668384Y-87970500D01*
X157668387Y-87970500D01*
X158181613Y-87970500D01*
X158181616Y-87970500D01*
X158252196Y-87964086D01*
X158414606Y-87913478D01*
X158560185Y-87825472D01*
X158662673Y-87722983D01*
X158723994Y-87689499D01*
X158793685Y-87694483D01*
X158838034Y-87722984D01*
X158940122Y-87825072D01*
X159085604Y-87913019D01*
X159085603Y-87913019D01*
X159247894Y-87963590D01*
X159247893Y-87963590D01*
X159318408Y-87969998D01*
X159318426Y-87969999D01*
X159324999Y-87969998D01*
X159325000Y-87969998D01*
X159325000Y-87245000D01*
X159825000Y-87245000D01*
X159825000Y-87969999D01*
X159831581Y-87969999D01*
X159902102Y-87963591D01*
X159902107Y-87963590D01*
X160064396Y-87913018D01*
X160209877Y-87825072D01*
X160330072Y-87704877D01*
X160418019Y-87559395D01*
X160468590Y-87397106D01*
X160475000Y-87326572D01*
X160475000Y-87245000D01*
X159825000Y-87245000D01*
X159325000Y-87245000D01*
X159325000Y-86020000D01*
X159825000Y-86020000D01*
X159825000Y-86745000D01*
X160474999Y-86745000D01*
X160474999Y-86663417D01*
X160468591Y-86592897D01*
X160468590Y-86592892D01*
X160418018Y-86430603D01*
X160330072Y-86285122D01*
X160209877Y-86164927D01*
X160064395Y-86076980D01*
X160064396Y-86076980D01*
X159902105Y-86026409D01*
X159902106Y-86026409D01*
X159831572Y-86020000D01*
X159825000Y-86020000D01*
X159325000Y-86020000D01*
X159324999Y-86019999D01*
X159318436Y-86020000D01*
X159318417Y-86020001D01*
X159247897Y-86026408D01*
X159247892Y-86026409D01*
X159085603Y-86076981D01*
X158940122Y-86164927D01*
X158940121Y-86164928D01*
X158838035Y-86267015D01*
X158776712Y-86300500D01*
X158707020Y-86295516D01*
X158662673Y-86267015D01*
X158560188Y-86164530D01*
X158467897Y-86108738D01*
X158414606Y-86076522D01*
X158252196Y-86025914D01*
X158252194Y-86025913D01*
X158252192Y-86025913D01*
X158202778Y-86021423D01*
X158181616Y-86019500D01*
X158181613Y-86019500D01*
X157885453Y-86019500D01*
X157818414Y-85999815D01*
X157797772Y-85983181D01*
X157571684Y-85757093D01*
X157561861Y-85744831D01*
X157561640Y-85745015D01*
X157556667Y-85739004D01*
X157538040Y-85721512D01*
X157506245Y-85691654D01*
X157495800Y-85681209D01*
X157485356Y-85670764D01*
X157479867Y-85666506D01*
X157475442Y-85662728D01*
X157441463Y-85630819D01*
X157441461Y-85630817D01*
X157441458Y-85630816D01*
X157423910Y-85621169D01*
X157407644Y-85610485D01*
X157391814Y-85598206D01*
X157349049Y-85579699D01*
X157343803Y-85577129D01*
X157302974Y-85554684D01*
X157302973Y-85554683D01*
X157283574Y-85549703D01*
X157265162Y-85543399D01*
X157246779Y-85535443D01*
X157246773Y-85535441D01*
X157200755Y-85528153D01*
X157195033Y-85526968D01*
X157149902Y-85515381D01*
X157149900Y-85515381D01*
X157129865Y-85515381D01*
X157110467Y-85513854D01*
X157103043Y-85512678D01*
X157090686Y-85510721D01*
X157090685Y-85510721D01*
X157044297Y-85515106D01*
X157038459Y-85515381D01*
X150451669Y-85515381D01*
X150436052Y-85513657D01*
X150436025Y-85513943D01*
X150428263Y-85513208D01*
X150359135Y-85515381D01*
X150329582Y-85515381D01*
X150328861Y-85515471D01*
X150322689Y-85516250D01*
X150316877Y-85516707D01*
X150270305Y-85518171D01*
X150270304Y-85518171D01*
X150251061Y-85523762D01*
X150232011Y-85527706D01*
X150212143Y-85530215D01*
X150212141Y-85530216D01*
X150168816Y-85547369D01*
X150163289Y-85549261D01*
X150118542Y-85562262D01*
X150118541Y-85562263D01*
X150101299Y-85572460D01*
X150083831Y-85581018D01*
X150065201Y-85588394D01*
X150065199Y-85588395D01*
X150027508Y-85615779D01*
X150022626Y-85618986D01*
X149982511Y-85642711D01*
X149968340Y-85656881D01*
X149953555Y-85669509D01*
X149937344Y-85681288D01*
X149907641Y-85717191D01*
X149903709Y-85721512D01*
X148746995Y-86878225D01*
X148685672Y-86911710D01*
X148615980Y-86906726D01*
X148571633Y-86878225D01*
X147802150Y-86108742D01*
X147802143Y-86108736D01*
X147712110Y-86039651D01*
X147710300Y-86038902D01*
X147707050Y-86036730D01*
X147705073Y-86035589D01*
X147705147Y-86035459D01*
X147670074Y-86012023D01*
X147294853Y-85636801D01*
X147285030Y-85624539D01*
X147284809Y-85624723D01*
X147279836Y-85618712D01*
X147271075Y-85610485D01*
X147229414Y-85571362D01*
X147218969Y-85560917D01*
X147208525Y-85550472D01*
X147203036Y-85546214D01*
X147198611Y-85542436D01*
X147164632Y-85510527D01*
X147164630Y-85510525D01*
X147164627Y-85510524D01*
X147147079Y-85500877D01*
X147130813Y-85490193D01*
X147114983Y-85477914D01*
X147072218Y-85459407D01*
X147066972Y-85456837D01*
X147026143Y-85434392D01*
X147026142Y-85434391D01*
X147006743Y-85429411D01*
X146988331Y-85423107D01*
X146969948Y-85415151D01*
X146969942Y-85415149D01*
X146923922Y-85407861D01*
X146918197Y-85406675D01*
X146898703Y-85401669D01*
X146841864Y-85369247D01*
X146774798Y-85302181D01*
X146741313Y-85240858D01*
X146746297Y-85171166D01*
X146788169Y-85115233D01*
X146853633Y-85090816D01*
X146862479Y-85090500D01*
X168885240Y-85090500D01*
X168885383Y-85090528D01*
X168885384Y-85090524D01*
X168909997Y-85090539D01*
X168910000Y-85090541D01*
X168910383Y-85090383D01*
X168910500Y-85090099D01*
X168910541Y-85090000D01*
X168910540Y-85089997D01*
X168910583Y-85065889D01*
X168910500Y-85065467D01*
X168910500Y-64794759D01*
X168910528Y-64794616D01*
X168910524Y-64794616D01*
X168910539Y-64770002D01*
X168910541Y-64770000D01*
X168910462Y-64769808D01*
X168910384Y-64769618D01*
X168910382Y-64769616D01*
X168910099Y-64769500D01*
X168910000Y-64769459D01*
X168885446Y-64769459D01*
X168885240Y-64769500D01*
X140994760Y-64769500D01*
X140994554Y-64769459D01*
X140970000Y-64769459D01*
X140969901Y-64769500D01*
X140969617Y-64769616D01*
X140969615Y-64769618D01*
X140969459Y-64769999D01*
X140969476Y-64794616D01*
X140969471Y-64794616D01*
X140969500Y-64794759D01*
X140969500Y-85000500D01*
X140949815Y-85067539D01*
X140897011Y-85113294D01*
X140845500Y-85124500D01*
X139743428Y-85124500D01*
X139735329Y-85123969D01*
X139700000Y-85119318D01*
X139660639Y-85124500D01*
X139543239Y-85139955D01*
X139543237Y-85139956D01*
X139397157Y-85200464D01*
X139271719Y-85296716D01*
X139250019Y-85324994D01*
X139244668Y-85331096D01*
X138517584Y-86058181D01*
X138456261Y-86091666D01*
X138429903Y-86094500D01*
X138404500Y-86094500D01*
X138337461Y-86074815D01*
X138291706Y-86022011D01*
X138280500Y-85970500D01*
X138280500Y-76817742D01*
X138282224Y-76802122D01*
X138281939Y-76802095D01*
X138282673Y-76794333D01*
X138280500Y-76725172D01*
X138280500Y-76695656D01*
X138280500Y-76695650D01*
X138279631Y-76688779D01*
X138279173Y-76682952D01*
X138277710Y-76636373D01*
X138272119Y-76617130D01*
X138268173Y-76598078D01*
X138265664Y-76578208D01*
X138248504Y-76534867D01*
X138246624Y-76529379D01*
X138233618Y-76484610D01*
X138223422Y-76467370D01*
X138214861Y-76449894D01*
X138207487Y-76431270D01*
X138207486Y-76431268D01*
X138180079Y-76393545D01*
X138176888Y-76388686D01*
X138153172Y-76348583D01*
X138153165Y-76348574D01*
X138139006Y-76334415D01*
X138126368Y-76319619D01*
X138114594Y-76303413D01*
X138078688Y-76273709D01*
X138074376Y-76269786D01*
X133518822Y-71714231D01*
X133485337Y-71652908D01*
X133486727Y-71594459D01*
X133540063Y-71395408D01*
X133560659Y-71160000D01*
X133540063Y-70924592D01*
X133478903Y-70696337D01*
X133379035Y-70482171D01*
X133243495Y-70288599D01*
X133243494Y-70288597D01*
X133076403Y-70121506D01*
X133020187Y-70082144D01*
X132919401Y-70011573D01*
X132875778Y-69956999D01*
X132868584Y-69887500D01*
X132900106Y-69825145D01*
X132919398Y-69808428D01*
X133076401Y-69698495D01*
X133243495Y-69531401D01*
X133379035Y-69337830D01*
X133478903Y-69123663D01*
X133540063Y-68895408D01*
X133560659Y-68660000D01*
X133540063Y-68424592D01*
X133478903Y-68196337D01*
X133379035Y-67982171D01*
X133379034Y-67982169D01*
X133243494Y-67788597D01*
X133096295Y-67641398D01*
X133062810Y-67580075D01*
X133067794Y-67510383D01*
X133109666Y-67454450D01*
X133118880Y-67448178D01*
X133124334Y-67444814D01*
X133273656Y-67352712D01*
X133397712Y-67228656D01*
X133489814Y-67079334D01*
X133544999Y-66912797D01*
X133555500Y-66810009D01*
X133555499Y-65509992D01*
X133555273Y-65507784D01*
X133544999Y-65407203D01*
X133544998Y-65407200D01*
X133544269Y-65405000D01*
X136254540Y-65405000D01*
X136274326Y-65593256D01*
X136274327Y-65593259D01*
X136332818Y-65773277D01*
X136332821Y-65773284D01*
X136427467Y-65937216D01*
X136526274Y-66046952D01*
X136554129Y-66077888D01*
X136707265Y-66189148D01*
X136707270Y-66189151D01*
X136880192Y-66266142D01*
X136880197Y-66266144D01*
X137065354Y-66305500D01*
X137065355Y-66305500D01*
X137254644Y-66305500D01*
X137254646Y-66305500D01*
X137439803Y-66266144D01*
X137612730Y-66189151D01*
X137765871Y-66077888D01*
X137892533Y-65937216D01*
X137987179Y-65773284D01*
X138045674Y-65593256D01*
X138063321Y-65425344D01*
X138089904Y-65360734D01*
X138098951Y-65350638D01*
X139287772Y-64161819D01*
X139349095Y-64128334D01*
X139375453Y-64125500D01*
X178759548Y-64125500D01*
X178826587Y-64145185D01*
X178847229Y-64161819D01*
X180671038Y-65985629D01*
X180704523Y-66046952D01*
X180706678Y-66060348D01*
X180708522Y-66077888D01*
X180724326Y-66228256D01*
X180724327Y-66228259D01*
X180782818Y-66408277D01*
X180782821Y-66408284D01*
X180877467Y-66572216D01*
X181004129Y-66712888D01*
X181157265Y-66824148D01*
X181157270Y-66824151D01*
X181330192Y-66901142D01*
X181330197Y-66901144D01*
X181515354Y-66940500D01*
X181515355Y-66940500D01*
X181704644Y-66940500D01*
X181704646Y-66940500D01*
X181889803Y-66901144D01*
X182062730Y-66824151D01*
X182215871Y-66712888D01*
X182342533Y-66572216D01*
X182437179Y-66408284D01*
X182495674Y-66228256D01*
X182515460Y-66040000D01*
X182495674Y-65851744D01*
X182437179Y-65671716D01*
X182342533Y-65507784D01*
X182215871Y-65367112D01*
X182215870Y-65367111D01*
X182062734Y-65255851D01*
X182062729Y-65255848D01*
X181889807Y-65178857D01*
X181889802Y-65178855D01*
X181744001Y-65147865D01*
X181704646Y-65139500D01*
X181704645Y-65139500D01*
X181645453Y-65139500D01*
X181578414Y-65119815D01*
X181557772Y-65103181D01*
X179570803Y-63116212D01*
X179560980Y-63103950D01*
X179560759Y-63104134D01*
X179555786Y-63098123D01*
X179537159Y-63080631D01*
X179505364Y-63050773D01*
X179494919Y-63040328D01*
X179484475Y-63029883D01*
X179478986Y-63025625D01*
X179474561Y-63021847D01*
X179440582Y-62989938D01*
X179440580Y-62989936D01*
X179440577Y-62989935D01*
X179423029Y-62980288D01*
X179406763Y-62969604D01*
X179390933Y-62957325D01*
X179348168Y-62938818D01*
X179342922Y-62936248D01*
X179302093Y-62913803D01*
X179302092Y-62913802D01*
X179282693Y-62908822D01*
X179264281Y-62902518D01*
X179245898Y-62894562D01*
X179245892Y-62894560D01*
X179199874Y-62887272D01*
X179194152Y-62886087D01*
X179149021Y-62874500D01*
X179149019Y-62874500D01*
X179128984Y-62874500D01*
X179109586Y-62872973D01*
X179102162Y-62871797D01*
X179089805Y-62869840D01*
X179089804Y-62869840D01*
X179043416Y-62874225D01*
X179037578Y-62874500D01*
X139147743Y-62874500D01*
X139132122Y-62872775D01*
X139132096Y-62873061D01*
X139124334Y-62872327D01*
X139124333Y-62872327D01*
X139055186Y-62874500D01*
X139025649Y-62874500D01*
X139018766Y-62875369D01*
X139012949Y-62875826D01*
X138966373Y-62877290D01*
X138947129Y-62882881D01*
X138928079Y-62886825D01*
X138908211Y-62889334D01*
X138864884Y-62906488D01*
X138859358Y-62908379D01*
X138814614Y-62921379D01*
X138814610Y-62921381D01*
X138797366Y-62931579D01*
X138779905Y-62940133D01*
X138761274Y-62947510D01*
X138761262Y-62947517D01*
X138723570Y-62974902D01*
X138718687Y-62978109D01*
X138678580Y-63001829D01*
X138664414Y-63015995D01*
X138649624Y-63028627D01*
X138633414Y-63040404D01*
X138633411Y-63040407D01*
X138603710Y-63076309D01*
X138599777Y-63080631D01*
X137212228Y-64468181D01*
X137150905Y-64501666D01*
X137124547Y-64504500D01*
X137065354Y-64504500D01*
X137032897Y-64511398D01*
X136880197Y-64543855D01*
X136880192Y-64543857D01*
X136707270Y-64620848D01*
X136707265Y-64620851D01*
X136554129Y-64732111D01*
X136427466Y-64872785D01*
X136332821Y-65036715D01*
X136332818Y-65036722D01*
X136286636Y-65178857D01*
X136274326Y-65216744D01*
X136254540Y-65405000D01*
X133544269Y-65405000D01*
X133531714Y-65367111D01*
X133489814Y-65240666D01*
X133397712Y-65091344D01*
X133273656Y-64967288D01*
X133124334Y-64875186D01*
X132957797Y-64820001D01*
X132957795Y-64820000D01*
X132855010Y-64809500D01*
X131304998Y-64809500D01*
X131304981Y-64809501D01*
X131202203Y-64820000D01*
X131202200Y-64820001D01*
X131035668Y-64875185D01*
X131035663Y-64875187D01*
X130886342Y-64967289D01*
X130762289Y-65091342D01*
X130670187Y-65240663D01*
X130670186Y-65240666D01*
X130615001Y-65407203D01*
X130615001Y-65407204D01*
X130615000Y-65407204D01*
X130604500Y-65509983D01*
X130604500Y-66810001D01*
X130604501Y-66810018D01*
X130615000Y-66912796D01*
X130615001Y-66912799D01*
X130670185Y-67079331D01*
X130670187Y-67079336D01*
X130762289Y-67228657D01*
X130886344Y-67352712D01*
X131041120Y-67448178D01*
X131087845Y-67500126D01*
X131099068Y-67569088D01*
X131071224Y-67633171D01*
X131063706Y-67641398D01*
X130916501Y-67788603D01*
X130916501Y-67788604D01*
X130780967Y-67982165D01*
X130780965Y-67982169D01*
X130681098Y-68196335D01*
X130681094Y-68196344D01*
X130619938Y-68424586D01*
X130619936Y-68424596D01*
X130599341Y-68659999D01*
X130599341Y-68660000D01*
X130619936Y-68895403D01*
X130619938Y-68895413D01*
X130673271Y-69094456D01*
X130671608Y-69164306D01*
X130641177Y-69214230D01*
X130396208Y-69459199D01*
X130383951Y-69469020D01*
X130384134Y-69469241D01*
X130378123Y-69474213D01*
X130330772Y-69524636D01*
X130309889Y-69545519D01*
X130309877Y-69545532D01*
X130305621Y-69551017D01*
X130301837Y-69555447D01*
X130269937Y-69589418D01*
X130269936Y-69589420D01*
X130260284Y-69606976D01*
X130249610Y-69623226D01*
X130237329Y-69639061D01*
X130237324Y-69639068D01*
X130218815Y-69681838D01*
X130216245Y-69687084D01*
X130193803Y-69727906D01*
X130188822Y-69747307D01*
X130182521Y-69765710D01*
X130174562Y-69784102D01*
X130174561Y-69784105D01*
X130167271Y-69830127D01*
X130166087Y-69835846D01*
X130154501Y-69880972D01*
X130154500Y-69880982D01*
X130154500Y-69901016D01*
X130152973Y-69920415D01*
X130149840Y-69940194D01*
X130149840Y-69940195D01*
X130154225Y-69986583D01*
X130154500Y-69992421D01*
X130154500Y-89562506D01*
X130152775Y-89578123D01*
X130153061Y-89578150D01*
X130152326Y-89585916D01*
X130154500Y-89655065D01*
X130154500Y-89684594D01*
X130154501Y-89684611D01*
X130155368Y-89691482D01*
X130155826Y-89697301D01*
X130157290Y-89743875D01*
X130157291Y-89743878D01*
X130162880Y-89763118D01*
X130166824Y-89782162D01*
X130169336Y-89802043D01*
X130184263Y-89839745D01*
X130186490Y-89845370D01*
X130188382Y-89850898D01*
X130201382Y-89895641D01*
X130209182Y-89908831D01*
X130211580Y-89912885D01*
X130220138Y-89930354D01*
X130227514Y-89948983D01*
X130254898Y-89986674D01*
X130258106Y-89991558D01*
X130281827Y-90031667D01*
X130281833Y-90031675D01*
X130295990Y-90045831D01*
X130308628Y-90060627D01*
X130320405Y-90076837D01*
X130320406Y-90076838D01*
X130356309Y-90106539D01*
X130360620Y-90110461D01*
X134798267Y-94548109D01*
X136262453Y-96012295D01*
X136295938Y-96073618D01*
X136290954Y-96143310D01*
X136249082Y-96199243D01*
X136225208Y-96213255D01*
X136072270Y-96281348D01*
X136072265Y-96281351D01*
X135919129Y-96392611D01*
X135792466Y-96533285D01*
X135697821Y-96697215D01*
X135697818Y-96697222D01*
X135639327Y-96877240D01*
X135639326Y-96877244D01*
X135619540Y-97065500D01*
X135639326Y-97253756D01*
X135639327Y-97253759D01*
X135697818Y-97433777D01*
X135697821Y-97433784D01*
X135792467Y-97597716D01*
X135875912Y-97690391D01*
X135892650Y-97708980D01*
X135922880Y-97771971D01*
X135924500Y-97791952D01*
X135924500Y-99016571D01*
X135923969Y-99024669D01*
X135921799Y-99041155D01*
X135919318Y-99059999D01*
X135919318Y-99060000D01*
X135924500Y-99099360D01*
X135939955Y-99216760D01*
X135939956Y-99216762D01*
X135996658Y-99353654D01*
X136000464Y-99362841D01*
X136096718Y-99488282D01*
X136124995Y-99509980D01*
X136131085Y-99515320D01*
X136755887Y-100140122D01*
X137339669Y-100723904D01*
X137345020Y-100730005D01*
X137366718Y-100758282D01*
X137412385Y-100793323D01*
X137467461Y-100835585D01*
X137486412Y-100850126D01*
X137492159Y-100854536D01*
X137492161Y-100854536D01*
X137492163Y-100854538D01*
X137519427Y-100865831D01*
X137638238Y-100915044D01*
X137689548Y-100921799D01*
X137794999Y-100935682D01*
X137795000Y-100935682D01*
X137830329Y-100931030D01*
X137838428Y-100930500D01*
X137916537Y-100930500D01*
X137983576Y-100950185D01*
X138029331Y-101002989D01*
X138039275Y-101072147D01*
X138028919Y-101106904D01*
X138011134Y-101145046D01*
X138001107Y-101166548D01*
X138001104Y-101166554D01*
X137943930Y-101379929D01*
X137943929Y-101379937D01*
X137924677Y-101599997D01*
X137924677Y-101600002D01*
X137943929Y-101820062D01*
X137943930Y-101820070D01*
X138001104Y-102033445D01*
X138001105Y-102033447D01*
X138001106Y-102033450D01*
X138069656Y-102180456D01*
X138094466Y-102233662D01*
X138094468Y-102233666D01*
X138221170Y-102414615D01*
X138221175Y-102414621D01*
X138377378Y-102570824D01*
X138377384Y-102570829D01*
X138558333Y-102697531D01*
X138558335Y-102697532D01*
X138558338Y-102697534D01*
X138677748Y-102753215D01*
X138687189Y-102757618D01*
X138739628Y-102803790D01*
X138758780Y-102870984D01*
X138738564Y-102937865D01*
X138687189Y-102982382D01*
X138558340Y-103042465D01*
X138558338Y-103042466D01*
X138377377Y-103169175D01*
X138221175Y-103325377D01*
X138094466Y-103506338D01*
X138094465Y-103506340D01*
X138001107Y-103706548D01*
X138001104Y-103706554D01*
X137943930Y-103919929D01*
X137943929Y-103919937D01*
X137924677Y-104139997D01*
X137924677Y-104140002D01*
X137943929Y-104360062D01*
X137943930Y-104360070D01*
X138001104Y-104573445D01*
X138001105Y-104573447D01*
X138001106Y-104573450D01*
X138075118Y-104732169D01*
X138094466Y-104773662D01*
X138094468Y-104773666D01*
X138221170Y-104954615D01*
X138221175Y-104954621D01*
X138377378Y-105110824D01*
X138377384Y-105110829D01*
X138558333Y-105237531D01*
X138558335Y-105237532D01*
X138558338Y-105237534D01*
X138677748Y-105293215D01*
X138687189Y-105297618D01*
X138739628Y-105343790D01*
X138758780Y-105410984D01*
X138738564Y-105477865D01*
X138687189Y-105522382D01*
X138558340Y-105582465D01*
X138558338Y-105582466D01*
X138377377Y-105709175D01*
X138221175Y-105865377D01*
X138094466Y-106046338D01*
X138094465Y-106046340D01*
X138001107Y-106246548D01*
X138001104Y-106246554D01*
X137943930Y-106459929D01*
X137943929Y-106459937D01*
X137924677Y-106679997D01*
X137924677Y-106680002D01*
X137943929Y-106900062D01*
X137943930Y-106900070D01*
X138001104Y-107113445D01*
X138001105Y-107113447D01*
X138001106Y-107113450D01*
X138014186Y-107141500D01*
X138094466Y-107313662D01*
X138094468Y-107313666D01*
X138221170Y-107494615D01*
X138221175Y-107494621D01*
X138377378Y-107650824D01*
X138377384Y-107650829D01*
X138558333Y-107777531D01*
X138558335Y-107777532D01*
X138558338Y-107777534D01*
X138677748Y-107833215D01*
X138687189Y-107837618D01*
X138739628Y-107883790D01*
X138758780Y-107950984D01*
X138738564Y-108017865D01*
X138687189Y-108062382D01*
X138558340Y-108122465D01*
X138558338Y-108122466D01*
X138377377Y-108249175D01*
X138221175Y-108405377D01*
X138094466Y-108586338D01*
X138094465Y-108586340D01*
X138001107Y-108786548D01*
X138001104Y-108786554D01*
X137943930Y-108999929D01*
X137943929Y-108999937D01*
X137924677Y-109219997D01*
X137924677Y-109220002D01*
X137943921Y-109439976D01*
X137943930Y-109440068D01*
X137966796Y-109525407D01*
X137965134Y-109595256D01*
X137925972Y-109653119D01*
X137861744Y-109680623D01*
X137847022Y-109681500D01*
X135648308Y-109681500D01*
X135581269Y-109661815D01*
X135560627Y-109645181D01*
X135434621Y-109519175D01*
X135434615Y-109519170D01*
X135253666Y-109392468D01*
X135253662Y-109392466D01*
X135216553Y-109375162D01*
X135053450Y-109299106D01*
X135053447Y-109299105D01*
X135053445Y-109299104D01*
X134840070Y-109241930D01*
X134840062Y-109241929D01*
X134671728Y-109227202D01*
X134606659Y-109201750D01*
X134594854Y-109191355D01*
X133951764Y-108548265D01*
X133939126Y-108533468D01*
X133939125Y-108533467D01*
X133930888Y-108522129D01*
X133926729Y-108518384D01*
X133879277Y-108475657D01*
X133876922Y-108473423D01*
X133861382Y-108457882D01*
X133844295Y-108444043D01*
X133841831Y-108441939D01*
X133790220Y-108395470D01*
X133790213Y-108395465D01*
X133778070Y-108388454D01*
X133762043Y-108377438D01*
X133751153Y-108368620D01*
X133751151Y-108368619D01*
X133751149Y-108368617D01*
X133728638Y-108357147D01*
X133689266Y-108337085D01*
X133686414Y-108335537D01*
X133626282Y-108300820D01*
X133612949Y-108296488D01*
X133594978Y-108289043D01*
X133582498Y-108282684D01*
X133582486Y-108282679D01*
X133515409Y-108264705D01*
X133512305Y-108263786D01*
X133446256Y-108242326D01*
X133446251Y-108242325D01*
X133446249Y-108242325D01*
X133432314Y-108240860D01*
X133413189Y-108237315D01*
X133399653Y-108233688D01*
X133399643Y-108233686D01*
X133330290Y-108230051D01*
X133327059Y-108229797D01*
X133312537Y-108228271D01*
X133305192Y-108227500D01*
X133305189Y-108227500D01*
X133283203Y-108227500D01*
X133279959Y-108227415D01*
X133210612Y-108223781D01*
X133210611Y-108223781D01*
X133196772Y-108225973D01*
X133177373Y-108227500D01*
X113202627Y-108227500D01*
X113183228Y-108225973D01*
X113169388Y-108223781D01*
X113100041Y-108227415D01*
X113096798Y-108227500D01*
X113074808Y-108227500D01*
X113068559Y-108228156D01*
X113052941Y-108229797D01*
X113049710Y-108230051D01*
X112980358Y-108233686D01*
X112980353Y-108233687D01*
X112966803Y-108237317D01*
X112947691Y-108240859D01*
X112933749Y-108242325D01*
X112933737Y-108242327D01*
X112881469Y-108259310D01*
X112867687Y-108263788D01*
X112864607Y-108264701D01*
X112827695Y-108274591D01*
X112797514Y-108282679D01*
X112797512Y-108282679D01*
X112797512Y-108282680D01*
X112787093Y-108287989D01*
X112785020Y-108289045D01*
X112767053Y-108296487D01*
X112753714Y-108300821D01*
X112693591Y-108335533D01*
X112690740Y-108337081D01*
X112628850Y-108368617D01*
X112617951Y-108377442D01*
X112601931Y-108388452D01*
X112589787Y-108395464D01*
X112589783Y-108395467D01*
X112538190Y-108441921D01*
X112535726Y-108444026D01*
X112518620Y-108457879D01*
X112503056Y-108473443D01*
X112500723Y-108475657D01*
X112484530Y-108490238D01*
X112449113Y-108522127D01*
X112449105Y-108522136D01*
X112440872Y-108533468D01*
X112428238Y-108548260D01*
X111785144Y-109191355D01*
X111723821Y-109224840D01*
X111708271Y-109227202D01*
X111539936Y-109241929D01*
X111539929Y-109241930D01*
X111326554Y-109299104D01*
X111326548Y-109299107D01*
X111126340Y-109392465D01*
X111126338Y-109392466D01*
X110945377Y-109519175D01*
X110789175Y-109675377D01*
X110662466Y-109856338D01*
X110662465Y-109856340D01*
X110602382Y-109985189D01*
X110556209Y-110037628D01*
X110489016Y-110056780D01*
X110422135Y-110036564D01*
X110377618Y-109985189D01*
X110317652Y-109856593D01*
X110317534Y-109856339D01*
X110224734Y-109723806D01*
X110190827Y-109675381D01*
X110116446Y-109601000D01*
X110034620Y-109519174D01*
X110034616Y-109519171D01*
X110034615Y-109519170D01*
X109853666Y-109392468D01*
X109853662Y-109392466D01*
X109816553Y-109375162D01*
X109653450Y-109299106D01*
X109653447Y-109299105D01*
X109653445Y-109299104D01*
X109440070Y-109241930D01*
X109440062Y-109241929D01*
X109220002Y-109222677D01*
X109219998Y-109222677D01*
X108999937Y-109241929D01*
X108999929Y-109241930D01*
X108786554Y-109299104D01*
X108786548Y-109299107D01*
X108586340Y-109392465D01*
X108586338Y-109392466D01*
X108405377Y-109519175D01*
X108249175Y-109675377D01*
X108122467Y-109856337D01*
X108122466Y-109856339D01*
X108122348Y-109856593D01*
X108062105Y-109985782D01*
X108015932Y-110038221D01*
X107948738Y-110057372D01*
X107881857Y-110037156D01*
X107837341Y-109985780D01*
X107777100Y-109856593D01*
X107777099Y-109856591D01*
X107731740Y-109791811D01*
X107064903Y-110458648D01*
X107064949Y-110458102D01*
X107033734Y-110334838D01*
X106964187Y-110228388D01*
X106863843Y-110150287D01*
X106743578Y-110109000D01*
X106707447Y-110109000D01*
X107378187Y-109438258D01*
X107313409Y-109392900D01*
X107313407Y-109392899D01*
X107113284Y-109299580D01*
X107113270Y-109299575D01*
X106899986Y-109242426D01*
X106899976Y-109242424D01*
X106680001Y-109223179D01*
X106679999Y-109223179D01*
X106460023Y-109242424D01*
X106460013Y-109242426D01*
X106246729Y-109299575D01*
X106246720Y-109299579D01*
X106046586Y-109392903D01*
X105981812Y-109438257D01*
X105981811Y-109438258D01*
X106652554Y-110109000D01*
X106648431Y-110109000D01*
X106554579Y-110124661D01*
X106442749Y-110185180D01*
X106356629Y-110278731D01*
X106305552Y-110395177D01*
X106299894Y-110463447D01*
X105628258Y-109791811D01*
X105628257Y-109791812D01*
X105582903Y-109856586D01*
X105522658Y-109985781D01*
X105476485Y-110038220D01*
X105409292Y-110057372D01*
X105342411Y-110037156D01*
X105297894Y-109985781D01*
X105237652Y-109856593D01*
X105237534Y-109856339D01*
X105144734Y-109723806D01*
X105110827Y-109675381D01*
X105036446Y-109601000D01*
X104954620Y-109519174D01*
X104954616Y-109519171D01*
X104954615Y-109519170D01*
X104773666Y-109392468D01*
X104773662Y-109392466D01*
X104736553Y-109375162D01*
X104573450Y-109299106D01*
X104573447Y-109299105D01*
X104573445Y-109299104D01*
X104360070Y-109241930D01*
X104360062Y-109241929D01*
X104140002Y-109222677D01*
X104139998Y-109222677D01*
X103919937Y-109241929D01*
X103919929Y-109241930D01*
X103706554Y-109299104D01*
X103706548Y-109299107D01*
X103506340Y-109392465D01*
X103506338Y-109392466D01*
X103325377Y-109519175D01*
X103169175Y-109675377D01*
X103042466Y-109856338D01*
X103042465Y-109856340D01*
X102949107Y-110056548D01*
X102949104Y-110056554D01*
X102891930Y-110269929D01*
X102891929Y-110269937D01*
X102872677Y-110489997D01*
X102872677Y-110490002D01*
X100000500Y-110490002D01*
X100000500Y-100330002D01*
X107952677Y-100330002D01*
X107971929Y-100550062D01*
X107971930Y-100550070D01*
X108029104Y-100763445D01*
X108029105Y-100763447D01*
X108029106Y-100763450D01*
X108099794Y-100915042D01*
X108122466Y-100963662D01*
X108122468Y-100963666D01*
X108249170Y-101144615D01*
X108249175Y-101144621D01*
X108405378Y-101300824D01*
X108405384Y-101300829D01*
X108586333Y-101427531D01*
X108586335Y-101427532D01*
X108586338Y-101427534D01*
X108786550Y-101520894D01*
X108999932Y-101578070D01*
X109134913Y-101589879D01*
X109219998Y-101597323D01*
X109220000Y-101597323D01*
X109220002Y-101597323D01*
X109275017Y-101592509D01*
X109440068Y-101578070D01*
X109653450Y-101520894D01*
X109853662Y-101427534D01*
X110034620Y-101300826D01*
X110190826Y-101144620D01*
X110317534Y-100963662D01*
X110377618Y-100834811D01*
X110423790Y-100782371D01*
X110490983Y-100763219D01*
X110557865Y-100783435D01*
X110602382Y-100834811D01*
X110662464Y-100963658D01*
X110662468Y-100963666D01*
X110789170Y-101144615D01*
X110789175Y-101144621D01*
X110945378Y-101300824D01*
X110945384Y-101300829D01*
X111126333Y-101427531D01*
X111126335Y-101427532D01*
X111126338Y-101427534D01*
X111326550Y-101520894D01*
X111539932Y-101578070D01*
X111674913Y-101589879D01*
X111759998Y-101597323D01*
X111760000Y-101597323D01*
X111760002Y-101597323D01*
X111815017Y-101592509D01*
X111980068Y-101578070D01*
X112193450Y-101520894D01*
X112393662Y-101427534D01*
X112574620Y-101300826D01*
X112730826Y-101144620D01*
X112857534Y-100963662D01*
X112950894Y-100763450D01*
X113008070Y-100550068D01*
X113024207Y-100365615D01*
X113027323Y-100330002D01*
X130812677Y-100330002D01*
X130831929Y-100550062D01*
X130831930Y-100550070D01*
X130889104Y-100763445D01*
X130889105Y-100763447D01*
X130889106Y-100763450D01*
X130959794Y-100915042D01*
X130982466Y-100963662D01*
X130982468Y-100963666D01*
X131109170Y-101144615D01*
X131109175Y-101144621D01*
X131265378Y-101300824D01*
X131265384Y-101300829D01*
X131446333Y-101427531D01*
X131446335Y-101427532D01*
X131446338Y-101427534D01*
X131646550Y-101520894D01*
X131859932Y-101578070D01*
X131994913Y-101589879D01*
X132079998Y-101597323D01*
X132080000Y-101597323D01*
X132080002Y-101597323D01*
X132135017Y-101592509D01*
X132300068Y-101578070D01*
X132513450Y-101520894D01*
X132713662Y-101427534D01*
X132894620Y-101300826D01*
X133050826Y-101144620D01*
X133177534Y-100963662D01*
X133237618Y-100834811D01*
X133283790Y-100782371D01*
X133350983Y-100763219D01*
X133417865Y-100783435D01*
X133462382Y-100834811D01*
X133522464Y-100963658D01*
X133522468Y-100963666D01*
X133649170Y-101144615D01*
X133649175Y-101144621D01*
X133805378Y-101300824D01*
X133805384Y-101300829D01*
X133986333Y-101427531D01*
X133986335Y-101427532D01*
X133986338Y-101427534D01*
X134186550Y-101520894D01*
X134399932Y-101578070D01*
X134534913Y-101589879D01*
X134619998Y-101597323D01*
X134620000Y-101597323D01*
X134620002Y-101597323D01*
X134675017Y-101592509D01*
X134840068Y-101578070D01*
X135053450Y-101520894D01*
X135253662Y-101427534D01*
X135434620Y-101300826D01*
X135590826Y-101144620D01*
X135717534Y-100963662D01*
X135810894Y-100763450D01*
X135868070Y-100550068D01*
X135884207Y-100365615D01*
X135887323Y-100330002D01*
X135887323Y-100329997D01*
X135880103Y-100247474D01*
X135868070Y-100109932D01*
X135810894Y-99896550D01*
X135717534Y-99696339D01*
X135627821Y-99568215D01*
X135590827Y-99515381D01*
X135513146Y-99437700D01*
X135434620Y-99359174D01*
X135434616Y-99359171D01*
X135434615Y-99359170D01*
X135253666Y-99232468D01*
X135253662Y-99232466D01*
X135253660Y-99232465D01*
X135053450Y-99139106D01*
X135053447Y-99139105D01*
X135053445Y-99139104D01*
X134840070Y-99081930D01*
X134840062Y-99081929D01*
X134620002Y-99062677D01*
X134619998Y-99062677D01*
X134399937Y-99081929D01*
X134399929Y-99081930D01*
X134186554Y-99139104D01*
X134186548Y-99139107D01*
X133986340Y-99232465D01*
X133986338Y-99232466D01*
X133805377Y-99359175D01*
X133649175Y-99515377D01*
X133522466Y-99696338D01*
X133522465Y-99696340D01*
X133462382Y-99825189D01*
X133416209Y-99877628D01*
X133349016Y-99896780D01*
X133282135Y-99876564D01*
X133237618Y-99825189D01*
X133196879Y-99737824D01*
X133177534Y-99696339D01*
X133087821Y-99568215D01*
X133050827Y-99515381D01*
X132973146Y-99437700D01*
X132894620Y-99359174D01*
X132894616Y-99359171D01*
X132894615Y-99359170D01*
X132713666Y-99232468D01*
X132713662Y-99232466D01*
X132713660Y-99232465D01*
X132513450Y-99139106D01*
X132513447Y-99139105D01*
X132513445Y-99139104D01*
X132300070Y-99081930D01*
X132300062Y-99081929D01*
X132080002Y-99062677D01*
X132079998Y-99062677D01*
X131859937Y-99081929D01*
X131859929Y-99081930D01*
X131646554Y-99139104D01*
X131646548Y-99139107D01*
X131446340Y-99232465D01*
X131446338Y-99232466D01*
X131265377Y-99359175D01*
X131109175Y-99515377D01*
X130982466Y-99696338D01*
X130982465Y-99696340D01*
X130889107Y-99896548D01*
X130889104Y-99896554D01*
X130831930Y-100109929D01*
X130831929Y-100109937D01*
X130812677Y-100329997D01*
X130812677Y-100330002D01*
X113027323Y-100330002D01*
X113027323Y-100329997D01*
X113020103Y-100247474D01*
X113008070Y-100109932D01*
X112950894Y-99896550D01*
X112857534Y-99696339D01*
X112767821Y-99568215D01*
X112730827Y-99515381D01*
X112653146Y-99437700D01*
X112574620Y-99359174D01*
X112574616Y-99359171D01*
X112574615Y-99359170D01*
X112393666Y-99232468D01*
X112393662Y-99232466D01*
X112393660Y-99232465D01*
X112193450Y-99139106D01*
X112193447Y-99139105D01*
X112193445Y-99139104D01*
X111980070Y-99081930D01*
X111980062Y-99081929D01*
X111760002Y-99062677D01*
X111759998Y-99062677D01*
X111539937Y-99081929D01*
X111539929Y-99081930D01*
X111326554Y-99139104D01*
X111326548Y-99139107D01*
X111126340Y-99232465D01*
X111126338Y-99232466D01*
X110945377Y-99359175D01*
X110789175Y-99515377D01*
X110662466Y-99696338D01*
X110662465Y-99696340D01*
X110602382Y-99825189D01*
X110556209Y-99877628D01*
X110489016Y-99896780D01*
X110422135Y-99876564D01*
X110377618Y-99825189D01*
X110336879Y-99737824D01*
X110317534Y-99696339D01*
X110227821Y-99568215D01*
X110190827Y-99515381D01*
X110113146Y-99437700D01*
X110034620Y-99359174D01*
X110034616Y-99359171D01*
X110034615Y-99359170D01*
X109853666Y-99232468D01*
X109853662Y-99232466D01*
X109853660Y-99232465D01*
X109653450Y-99139106D01*
X109653447Y-99139105D01*
X109653445Y-99139104D01*
X109440070Y-99081930D01*
X109440062Y-99081929D01*
X109220002Y-99062677D01*
X109219998Y-99062677D01*
X108999937Y-99081929D01*
X108999929Y-99081930D01*
X108786554Y-99139104D01*
X108786548Y-99139107D01*
X108586340Y-99232465D01*
X108586338Y-99232466D01*
X108405377Y-99359175D01*
X108249175Y-99515377D01*
X108122466Y-99696338D01*
X108122465Y-99696340D01*
X108029107Y-99896548D01*
X108029104Y-99896554D01*
X107971930Y-100109929D01*
X107971929Y-100109937D01*
X107952677Y-100329997D01*
X107952677Y-100330002D01*
X100000500Y-100330002D01*
X100000500Y-95067763D01*
X118145787Y-95067763D01*
X118175413Y-95337013D01*
X118175415Y-95337024D01*
X118243485Y-95597395D01*
X118243928Y-95599088D01*
X118349870Y-95848390D01*
X118441231Y-95998090D01*
X118490979Y-96079605D01*
X118490986Y-96079615D01*
X118664253Y-96287819D01*
X118664259Y-96287824D01*
X118771393Y-96383816D01*
X118865998Y-96468582D01*
X119091910Y-96618044D01*
X119337176Y-96733020D01*
X119337183Y-96733022D01*
X119337185Y-96733023D01*
X119596557Y-96811057D01*
X119596564Y-96811058D01*
X119596569Y-96811060D01*
X119864561Y-96850500D01*
X119864566Y-96850500D01*
X120067636Y-96850500D01*
X120119133Y-96846730D01*
X120270156Y-96835677D01*
X120409041Y-96804739D01*
X120534546Y-96776782D01*
X120534548Y-96776781D01*
X120534553Y-96776780D01*
X120787558Y-96680014D01*
X121023777Y-96547441D01*
X121238177Y-96381888D01*
X121426186Y-96186881D01*
X121583799Y-95966579D01*
X121672306Y-95794431D01*
X121707649Y-95725690D01*
X121707651Y-95725684D01*
X121707656Y-95725675D01*
X121795118Y-95469305D01*
X121844319Y-95202933D01*
X121854212Y-94932235D01*
X121824586Y-94662982D01*
X121756072Y-94400912D01*
X121650130Y-94151610D01*
X121509018Y-93920390D01*
X121506062Y-93916838D01*
X121335746Y-93712180D01*
X121335740Y-93712175D01*
X121134002Y-93531418D01*
X120908092Y-93381957D01*
X120832112Y-93346339D01*
X120662824Y-93266980D01*
X120662819Y-93266978D01*
X120662814Y-93266976D01*
X120403442Y-93188942D01*
X120403428Y-93188939D01*
X120287791Y-93171921D01*
X120135439Y-93149500D01*
X119932369Y-93149500D01*
X119932364Y-93149500D01*
X119729844Y-93164323D01*
X119729831Y-93164325D01*
X119465453Y-93223217D01*
X119465446Y-93223220D01*
X119212439Y-93319987D01*
X118976226Y-93452557D01*
X118976224Y-93452558D01*
X118976223Y-93452559D01*
X118913893Y-93500688D01*
X118761822Y-93618112D01*
X118573822Y-93813109D01*
X118573816Y-93813116D01*
X118416202Y-94033419D01*
X118416199Y-94033424D01*
X118292350Y-94274309D01*
X118292343Y-94274327D01*
X118204884Y-94530685D01*
X118204881Y-94530699D01*
X118197914Y-94568420D01*
X118155749Y-94796702D01*
X118155681Y-94797068D01*
X118155680Y-94797075D01*
X118145787Y-95067763D01*
X100000500Y-95067763D01*
X100000500Y-90124500D01*
X100020185Y-90057461D01*
X100072989Y-90011706D01*
X100124500Y-90000500D01*
X104999901Y-90000500D01*
X124975145Y-90000500D01*
X124975334Y-90000538D01*
X124999997Y-90000540D01*
X125000000Y-90000542D01*
X125000284Y-90000424D01*
X125000284Y-90000423D01*
X125000414Y-90000370D01*
X125002654Y-89999464D01*
X125008831Y-89991934D01*
X125018147Y-89982618D01*
X125018260Y-89982446D01*
X127482518Y-87518187D01*
X127482644Y-87518104D01*
X127500381Y-87500385D01*
X127500381Y-87500383D01*
X127500383Y-87500383D01*
X127500440Y-87500243D01*
X127500542Y-87500000D01*
X127500541Y-87499997D01*
X127500542Y-87499996D01*
X127500624Y-87475996D01*
X127500500Y-87475367D01*
X127500500Y-82524855D01*
X127500553Y-82524586D01*
X127500542Y-82500000D01*
X127500424Y-82499718D01*
X127500424Y-82499717D01*
X127500383Y-82499617D01*
X127500381Y-82499616D01*
X127483339Y-82482488D01*
X127482904Y-82482197D01*
X125011586Y-80010878D01*
X125000383Y-79999618D01*
X125000383Y-79999617D01*
X125000381Y-79999616D01*
X125000380Y-79999615D01*
X125000284Y-79999575D01*
X125000002Y-79999457D01*
X124975334Y-79999461D01*
X124975145Y-79999500D01*
X120124500Y-79999500D01*
X120057461Y-79979815D01*
X120011706Y-79927011D01*
X120000500Y-79875500D01*
X120000500Y-60124500D01*
X120020185Y-60057461D01*
X120072989Y-60011706D01*
X120124500Y-60000500D01*
X189875500Y-60000500D01*
X189942539Y-60020185D01*
G37*
%TD.AperFunction*%
%TD*%
M02*
