%TF.GenerationSoftware,KiCad,Pcbnew,7.0.9*%
%TF.CreationDate,2024-06-25T21:03:02+09:00*%
%TF.ProjectId,04-line_sub,30342d6c-696e-4655-9f73-75622e6b6963,rev?*%
%TF.SameCoordinates,Original*%
%TF.FileFunction,Soldermask,Top*%
%TF.FilePolarity,Negative*%
%FSLAX46Y46*%
G04 Gerber Fmt 4.6, Leading zero omitted, Abs format (unit mm)*
G04 Created by KiCad (PCBNEW 7.0.9) date 2024-06-25 21:03:02*
%MOMM*%
%LPD*%
G01*
G04 APERTURE LIST*
G04 Aperture macros list*
%AMRoundRect*
0 Rectangle with rounded corners*
0 $1 Rounding radius*
0 $2 $3 $4 $5 $6 $7 $8 $9 X,Y pos of 4 corners*
0 Add a 4 corners polygon primitive as box body*
4,1,4,$2,$3,$4,$5,$6,$7,$8,$9,$2,$3,0*
0 Add four circle primitives for the rounded corners*
1,1,$1+$1,$2,$3*
1,1,$1+$1,$4,$5*
1,1,$1+$1,$6,$7*
1,1,$1+$1,$8,$9*
0 Add four rect primitives between the rounded corners*
20,1,$1+$1,$2,$3,$4,$5,0*
20,1,$1+$1,$4,$5,$6,$7,0*
20,1,$1+$1,$6,$7,$8,$9,0*
20,1,$1+$1,$8,$9,$2,$3,0*%
G04 Aperture macros list end*
%ADD10R,1.700000X1.700000*%
%ADD11O,1.700000X1.700000*%
%ADD12RoundRect,0.140000X-0.021213X0.219203X-0.219203X0.021213X0.021213X-0.219203X0.219203X-0.021213X0*%
%ADD13RoundRect,0.250000X-0.262500X-0.450000X0.262500X-0.450000X0.262500X0.450000X-0.262500X0.450000X0*%
%ADD14O,1.700000X1.950000*%
%ADD15RoundRect,0.250000X0.600000X0.725000X-0.600000X0.725000X-0.600000X-0.725000X0.600000X-0.725000X0*%
%ADD16RoundRect,0.075000X-0.441942X-0.548008X0.548008X0.441942X0.441942X0.548008X-0.548008X-0.441942X0*%
%ADD17RoundRect,0.075000X0.441942X-0.548008X0.548008X-0.441942X-0.441942X0.548008X-0.548008X0.441942X0*%
%ADD18RoundRect,0.250000X-0.450000X0.262500X-0.450000X-0.262500X0.450000X-0.262500X0.450000X0.262500X0*%
%ADD19RoundRect,0.225000X-0.250000X0.225000X-0.250000X-0.225000X0.250000X-0.225000X0.250000X0.225000X0*%
%ADD20RoundRect,0.140000X-0.170000X0.140000X-0.170000X-0.140000X0.170000X-0.140000X0.170000X0.140000X0*%
%ADD21RoundRect,0.140000X0.219203X0.021213X0.021213X0.219203X-0.219203X-0.021213X-0.021213X-0.219203X0*%
%ADD22RoundRect,0.140000X-0.219203X-0.021213X-0.021213X-0.219203X0.219203X0.021213X0.021213X0.219203X0*%
%ADD23RoundRect,0.200000X0.275000X-0.200000X0.275000X0.200000X-0.275000X0.200000X-0.275000X-0.200000X0*%
%ADD24RoundRect,0.250000X-0.132583X0.503814X-0.503814X0.132583X0.132583X-0.503814X0.503814X-0.132583X0*%
%ADD25RoundRect,0.243750X0.456250X-0.243750X0.456250X0.243750X-0.456250X0.243750X-0.456250X-0.243750X0*%
%ADD26RoundRect,0.140000X0.021213X-0.219203X0.219203X-0.021213X-0.021213X0.219203X-0.219203X0.021213X0*%
%ADD27RoundRect,0.140000X0.140000X0.170000X-0.140000X0.170000X-0.140000X-0.170000X0.140000X-0.170000X0*%
%ADD28RoundRect,0.140000X-0.140000X-0.170000X0.140000X-0.170000X0.140000X0.170000X-0.140000X0.170000X0*%
G04 APERTURE END LIST*
D10*
%TO.C,J4*%
X80010000Y-109220000D03*
D11*
X82550000Y-109220000D03*
X85090000Y-109220000D03*
X87630000Y-109220000D03*
X90170000Y-109220000D03*
X92710000Y-109220000D03*
X95250000Y-109220000D03*
X97790000Y-109220000D03*
X100330000Y-109220000D03*
X102870000Y-109220000D03*
X105410000Y-109220000D03*
X107950000Y-109220000D03*
X110490000Y-109220000D03*
X113030000Y-109220000D03*
X115570000Y-109220000D03*
X118110000Y-109220000D03*
X120650000Y-109220000D03*
X123190000Y-109220000D03*
%TD*%
D12*
%TO.C,C8*%
X93684411Y-94275589D03*
X93005589Y-94954411D03*
%TD*%
D10*
%TO.C,J3*%
X134620000Y-87630000D03*
D11*
X134620000Y-90170000D03*
X132080000Y-87630000D03*
X132080000Y-90170000D03*
X129540000Y-87630000D03*
X129540000Y-90170000D03*
%TD*%
D13*
%TO.C,R2*%
X116562500Y-104775000D03*
X118387500Y-104775000D03*
%TD*%
D14*
%TO.C,J1*%
X95450000Y-82677000D03*
X97950000Y-82677000D03*
X100450000Y-82677000D03*
X102950000Y-82677000D03*
X105450000Y-82677000D03*
D15*
X107950000Y-82677000D03*
%TD*%
D10*
%TO.C,J2*%
X81915000Y-90805000D03*
D11*
X84455000Y-90805000D03*
X81915000Y-93345000D03*
X84455000Y-93345000D03*
X81915000Y-95885000D03*
X84455000Y-95885000D03*
X81915000Y-98425000D03*
X84455000Y-98425000D03*
%TD*%
D16*
%TO.C,U1*%
X94935519Y-99897360D03*
X95289072Y-100250913D03*
X95642625Y-100604466D03*
X95996179Y-100958020D03*
X96349732Y-101311573D03*
X96703286Y-101665127D03*
X97056839Y-102018680D03*
X97410392Y-102372233D03*
X97763946Y-102725787D03*
X98117499Y-103079340D03*
X98471052Y-103432893D03*
X98824606Y-103786447D03*
X99178159Y-104140000D03*
X99531713Y-104493554D03*
X99885266Y-104847107D03*
X100238819Y-105200660D03*
D17*
X102961181Y-105200660D03*
X103314734Y-104847107D03*
X103668287Y-104493554D03*
X104021841Y-104140000D03*
X104375394Y-103786447D03*
X104728948Y-103432893D03*
X105082501Y-103079340D03*
X105436054Y-102725787D03*
X105789608Y-102372233D03*
X106143161Y-102018680D03*
X106496714Y-101665127D03*
X106850268Y-101311573D03*
X107203821Y-100958020D03*
X107557375Y-100604466D03*
X107910928Y-100250913D03*
X108264481Y-99897360D03*
D16*
X108264481Y-97174998D03*
X107910928Y-96821445D03*
X107557375Y-96467892D03*
X107203821Y-96114338D03*
X106850268Y-95760785D03*
X106496714Y-95407231D03*
X106143161Y-95053678D03*
X105789608Y-94700125D03*
X105436054Y-94346571D03*
X105082501Y-93993018D03*
X104728948Y-93639465D03*
X104375394Y-93285911D03*
X104021841Y-92932358D03*
X103668287Y-92578804D03*
X103314734Y-92225251D03*
X102961181Y-91871698D03*
D17*
X100238819Y-91871698D03*
X99885266Y-92225251D03*
X99531713Y-92578804D03*
X99178159Y-92932358D03*
X98824606Y-93285911D03*
X98471052Y-93639465D03*
X98117499Y-93993018D03*
X97763946Y-94346571D03*
X97410392Y-94700125D03*
X97056839Y-95053678D03*
X96703286Y-95407231D03*
X96349732Y-95760785D03*
X95996179Y-96114338D03*
X95642625Y-96467892D03*
X95289072Y-96821445D03*
X94935519Y-97174998D03*
%TD*%
D18*
%TO.C,R5*%
X132080000Y-93679000D03*
X132080000Y-95504000D03*
%TD*%
D19*
%TO.C,C10*%
X91440000Y-102885000D03*
X91440000Y-104435000D03*
%TD*%
D20*
%TO.C,C9*%
X92710000Y-103660000D03*
X92710000Y-104620000D03*
%TD*%
D10*
%TO.C,J5*%
X73660000Y-87630000D03*
D11*
X73660000Y-90170000D03*
X71120000Y-87630000D03*
X71120000Y-90170000D03*
X68580000Y-87630000D03*
X68580000Y-90170000D03*
%TD*%
D21*
%TO.C,C7*%
X105368411Y-89366411D03*
X104689589Y-88687589D03*
%TD*%
D18*
%TO.C,R4*%
X129540000Y-93679000D03*
X129540000Y-95504000D03*
%TD*%
%TO.C,R7*%
X71120000Y-93829500D03*
X71120000Y-95654500D03*
%TD*%
D22*
%TO.C,C1*%
X94275589Y-103165589D03*
X94954411Y-103844411D03*
%TD*%
D23*
%TO.C,R3*%
X119126000Y-98947500D03*
X119126000Y-97297500D03*
%TD*%
D22*
%TO.C,C3*%
X92370589Y-99990589D03*
X93049411Y-100669411D03*
%TD*%
D24*
%TO.C,R1*%
X92720235Y-92064765D03*
X91429765Y-93355235D03*
%TD*%
D18*
%TO.C,R6*%
X68580000Y-93829500D03*
X68580000Y-95654500D03*
%TD*%
D25*
%TO.C,D1*%
X119126000Y-95250000D03*
X119126000Y-93375000D03*
%TD*%
D22*
%TO.C,C6*%
X103800589Y-89576589D03*
X104479411Y-90255411D03*
%TD*%
D26*
%TO.C,C5*%
X109515589Y-101600000D03*
X110194411Y-100921178D03*
%TD*%
D27*
%TO.C,C4*%
X112875000Y-105410000D03*
X111915000Y-105410000D03*
%TD*%
D28*
%TO.C,C2*%
X111915000Y-103632000D03*
X112875000Y-103632000D03*
%TD*%
D18*
%TO.C,FB1*%
X89535000Y-102747500D03*
X89535000Y-104572500D03*
%TD*%
M02*
