%TF.GenerationSoftware,KiCad,Pcbnew,7.0.9*%
%TF.CreationDate,2024-03-23T08:09:54+09:00*%
%TF.ProjectId,03-front,30332d66-726f-46e7-942e-6b696361645f,rev?*%
%TF.SameCoordinates,Original*%
%TF.FileFunction,Copper,L1,Top*%
%TF.FilePolarity,Positive*%
%FSLAX46Y46*%
G04 Gerber Fmt 4.6, Leading zero omitted, Abs format (unit mm)*
G04 Created by KiCad (PCBNEW 7.0.9) date 2024-03-23 08:09:54*
%MOMM*%
%LPD*%
G01*
G04 APERTURE LIST*
G04 Aperture macros list*
%AMRoundRect*
0 Rectangle with rounded corners*
0 $1 Rounding radius*
0 $2 $3 $4 $5 $6 $7 $8 $9 X,Y pos of 4 corners*
0 Add a 4 corners polygon primitive as box body*
4,1,4,$2,$3,$4,$5,$6,$7,$8,$9,$2,$3,0*
0 Add four circle primitives for the rounded corners*
1,1,$1+$1,$2,$3*
1,1,$1+$1,$4,$5*
1,1,$1+$1,$6,$7*
1,1,$1+$1,$8,$9*
0 Add four rect primitives between the rounded corners*
20,1,$1+$1,$2,$3,$4,$5,0*
20,1,$1+$1,$4,$5,$6,$7,0*
20,1,$1+$1,$6,$7,$8,$9,0*
20,1,$1+$1,$8,$9,$2,$3,0*%
G04 Aperture macros list end*
%TA.AperFunction,ComponentPad*%
%ADD10R,1.800000X1.800000*%
%TD*%
%TA.AperFunction,ComponentPad*%
%ADD11C,1.800000*%
%TD*%
%TA.AperFunction,ComponentPad*%
%ADD12C,1.524000*%
%TD*%
%TA.AperFunction,SMDPad,CuDef*%
%ADD13RoundRect,0.200000X-0.275000X0.200000X-0.275000X-0.200000X0.275000X-0.200000X0.275000X0.200000X0*%
%TD*%
%TA.AperFunction,SMDPad,CuDef*%
%ADD14RoundRect,0.250000X-0.625000X0.312500X-0.625000X-0.312500X0.625000X-0.312500X0.625000X0.312500X0*%
%TD*%
%TA.AperFunction,SMDPad,CuDef*%
%ADD15RoundRect,0.250000X-0.262500X-0.450000X0.262500X-0.450000X0.262500X0.450000X-0.262500X0.450000X0*%
%TD*%
%TA.AperFunction,ComponentPad*%
%ADD16R,1.700000X1.700000*%
%TD*%
%TA.AperFunction,ComponentPad*%
%ADD17O,1.700000X1.700000*%
%TD*%
%TA.AperFunction,ViaPad*%
%ADD18C,0.800000*%
%TD*%
%TA.AperFunction,Conductor*%
%ADD19C,0.500000*%
%TD*%
%TA.AperFunction,Conductor*%
%ADD20C,1.000000*%
%TD*%
%TA.AperFunction,Conductor*%
%ADD21C,2.000000*%
%TD*%
G04 APERTURE END LIST*
D10*
%TO.P,D1,1,K*%
%TO.N,GND*%
X88900000Y-93980000D03*
D11*
%TO.P,D1,2,A*%
%TO.N,Net-(D1-A)*%
X88900000Y-91440000D03*
%TD*%
D12*
%TO.P,U4,1,Anode*%
%TO.N,+3V3*%
X123730000Y-97950000D03*
%TO.P,U4,2,Cathode*%
%TO.N,Net-(U4-Cathode)*%
X126270000Y-97950000D03*
%TO.P,U4,3,Emitter*%
%TO.N,GND*%
X123730000Y-102050000D03*
%TO.P,U4,4,Collector*%
%TO.N,photo1*%
X126270000Y-102050000D03*
%TD*%
%TO.P,U3,1,Anode*%
%TO.N,+3V3*%
X98730000Y-97950000D03*
%TO.P,U3,2,Cathode*%
%TO.N,Net-(U3-Cathode)*%
X101270000Y-97950000D03*
%TO.P,U3,3,Emitter*%
%TO.N,GND*%
X98730000Y-102050000D03*
%TO.P,U3,4,Collector*%
%TO.N,photo1*%
X101270000Y-102050000D03*
%TD*%
D13*
%TO.P,R5,1*%
%TO.N,Net-(U3-Cathode)*%
X104140000Y-98235000D03*
%TO.P,R5,2*%
%TO.N,GND*%
X104140000Y-99885000D03*
%TD*%
D12*
%TO.P,U6,1,+V*%
%TO.N,+3V3*%
X85090000Y-102870000D03*
%TO.P,U6,2,SDA*%
%TO.N,SDA*%
X87630000Y-102870000D03*
%TO.P,U6,3,SCL*%
%TO.N,SCL*%
X90170000Y-102870000D03*
%TO.P,U6,4,GND*%
%TO.N,GND*%
X92710000Y-102870000D03*
%TD*%
%TO.P,U2,1,Anode*%
%TO.N,+3V3*%
X73730000Y-97950000D03*
%TO.P,U2,2,Cathode*%
%TO.N,Net-(U2-Cathode)*%
X76270000Y-97950000D03*
%TO.P,U2,3,Emitter*%
%TO.N,GND*%
X73730000Y-102050000D03*
%TO.P,U2,4,Collector*%
%TO.N,photo1*%
X76270000Y-102050000D03*
%TD*%
D13*
%TO.P,R6,1*%
%TO.N,Net-(U4-Cathode)*%
X129540000Y-98235000D03*
%TO.P,R6,2*%
%TO.N,GND*%
X129540000Y-99885000D03*
%TD*%
D14*
%TO.P,R2,1*%
%TO.N,+3V3*%
X63500000Y-92325000D03*
%TO.P,R2,2*%
%TO.N,photo1*%
X63500000Y-95250000D03*
%TD*%
D13*
%TO.P,R9,1*%
%TO.N,Net-(U5-Cathode)*%
X154940000Y-98235000D03*
%TO.P,R9,2*%
%TO.N,GND*%
X154940000Y-99885000D03*
%TD*%
D15*
%TO.P,R4,1*%
%TO.N,Net-(D1-A)*%
X94337500Y-91440000D03*
%TO.P,R4,2*%
%TO.N,+3V3*%
X96162500Y-91440000D03*
%TD*%
D13*
%TO.P,R1,1*%
%TO.N,Net-(U1-Cathode)*%
X54610000Y-98235000D03*
%TO.P,R1,2*%
%TO.N,GND*%
X54610000Y-99885000D03*
%TD*%
%TO.P,R3,1*%
%TO.N,Net-(U2-Cathode)*%
X80010000Y-98235000D03*
%TO.P,R3,2*%
%TO.N,GND*%
X80010000Y-99885000D03*
%TD*%
D12*
%TO.P,U5,1,Anode*%
%TO.N,+3V3*%
X148730000Y-97950000D03*
%TO.P,U5,2,Cathode*%
%TO.N,Net-(U5-Cathode)*%
X151270000Y-97950000D03*
%TO.P,U5,3,Emitter*%
%TO.N,GND*%
X148730000Y-102050000D03*
%TO.P,U5,4,Collector*%
%TO.N,photo1*%
X151270000Y-102050000D03*
%TD*%
%TO.P,U1,1,Anode*%
%TO.N,+3V3*%
X48730000Y-97950000D03*
%TO.P,U1,2,Cathode*%
%TO.N,Net-(U1-Cathode)*%
X51270000Y-97950000D03*
%TO.P,U1,3,Emitter*%
%TO.N,GND*%
X48730000Y-102050000D03*
%TO.P,U1,4,Collector*%
%TO.N,photo1*%
X51270000Y-102050000D03*
%TD*%
D16*
%TO.P,REF\u002A\u002A,1*%
%TO.N,N/C*%
X57150000Y-90805000D03*
D17*
%TO.P,REF\u002A\u002A,2*%
X59690000Y-90805000D03*
%TO.P,REF\u002A\u002A,3*%
X62230000Y-90805000D03*
%TO.P,REF\u002A\u002A,4*%
X64770000Y-90805000D03*
%TO.P,REF\u002A\u002A,5*%
X67310000Y-90805000D03*
%TO.P,REF\u002A\u002A,6*%
X69850000Y-90805000D03*
%TO.P,REF\u002A\u002A,7*%
X72390000Y-90805000D03*
%TO.P,REF\u002A\u002A,8*%
X74930000Y-90805000D03*
%TO.P,REF\u002A\u002A,9*%
X77470000Y-90805000D03*
%TO.P,REF\u002A\u002A,10*%
X80010000Y-90805000D03*
%TD*%
D16*
%TO.P,J1,1,Pin_1*%
%TO.N,+3V3*%
X99060000Y-90875000D03*
D17*
%TO.P,J1,2,Pin_2*%
%TO.N,photo1*%
X101600000Y-90875000D03*
%TO.P,J1,3,Pin_3*%
%TO.N,GND*%
X104140000Y-90875000D03*
%TO.P,J1,4,Pin_4*%
X106680000Y-90875000D03*
%TO.P,J1,5,Pin_5*%
X109220000Y-90875000D03*
%TO.P,J1,6,Pin_6*%
X111760000Y-90875000D03*
%TO.P,J1,7,Pin_7*%
X114300000Y-90875000D03*
%TO.P,J1,8,Pin_8*%
%TO.N,SDA*%
X116840000Y-90875000D03*
%TO.P,J1,9,Pin_9*%
%TO.N,SCL*%
X119380000Y-90875000D03*
%TO.P,J1,10,Pin_10*%
%TO.N,GND*%
X121920000Y-90875000D03*
%TD*%
D18*
%TO.N,+3V3*%
X85090000Y-93980000D03*
%TO.N,photo1*%
X67310000Y-96520000D03*
X93980000Y-100330000D03*
X88900000Y-97790000D03*
%TO.N,GND*%
X63500000Y-97790000D03*
X119380000Y-99060000D03*
%TD*%
D19*
%TO.N,+3V3*%
X77470000Y-92325000D02*
X81280000Y-92325000D01*
X100515000Y-92325000D02*
X99065000Y-90875000D01*
X123730000Y-95405000D02*
X120650000Y-92325000D01*
X83820000Y-92325000D02*
X86055000Y-90090000D01*
X94812500Y-90090000D02*
X96162500Y-91440000D01*
X54355000Y-92325000D02*
X63500000Y-92325000D01*
X96162500Y-95382500D02*
X98730000Y-97950000D01*
X143105000Y-92325000D02*
X148730000Y-97950000D01*
X73730000Y-96065000D02*
X77470000Y-92325000D01*
X120650000Y-92325000D02*
X100515000Y-92325000D01*
X73730000Y-97950000D02*
X73730000Y-96065000D01*
X85090000Y-93980000D02*
X82935000Y-93980000D01*
X96162500Y-91440000D02*
X96162500Y-95382500D01*
X81280000Y-92325000D02*
X83820000Y-92325000D01*
X86055000Y-90090000D02*
X94812500Y-90090000D01*
X63500000Y-92325000D02*
X77470000Y-92325000D01*
X82935000Y-93980000D02*
X81280000Y-92325000D01*
X98500000Y-91440000D02*
X99065000Y-90875000D01*
X120650000Y-92325000D02*
X143105000Y-92325000D01*
X48730000Y-97950000D02*
X54355000Y-92325000D01*
X123730000Y-97950000D02*
X123730000Y-95405000D01*
X96162500Y-91440000D02*
X98500000Y-91440000D01*
%TO.N,photo1*%
X82100000Y-102050000D02*
X82550000Y-101600000D01*
X83820000Y-100330000D02*
X86360000Y-100330000D01*
X66040000Y-95250000D02*
X67310000Y-96520000D01*
X63500000Y-95250000D02*
X66040000Y-95250000D01*
X82550000Y-101600000D02*
X83820000Y-100330000D01*
X76270000Y-102050000D02*
X82100000Y-102050000D01*
X88900000Y-97790000D02*
X86360000Y-100330000D01*
X86360000Y-100330000D02*
X93980000Y-100330000D01*
D20*
%TO.N,GND*%
X119380000Y-99060000D02*
X119380000Y-102870000D01*
D21*
X90170000Y-106680000D02*
X96520000Y-106680000D01*
D20*
X63500000Y-105410000D02*
X62230000Y-106680000D01*
D21*
X48730000Y-103127630D02*
X52282370Y-106680000D01*
D20*
X96520000Y-99700000D02*
X96520000Y-106680000D01*
D19*
X100895000Y-99885000D02*
X98730000Y-102050000D01*
D21*
X125730000Y-106680000D02*
X135890000Y-106680000D01*
D20*
X73730000Y-102050000D02*
X69850000Y-105930000D01*
D21*
X135890000Y-106680000D02*
X140520000Y-102050000D01*
D20*
X88900000Y-93980000D02*
X90800000Y-93980000D01*
X92710000Y-104140000D02*
X90170000Y-106680000D01*
D21*
X52282370Y-106680000D02*
X62230000Y-106680000D01*
D19*
X129540000Y-99885000D02*
X125895000Y-99885000D01*
D21*
X48730000Y-102050000D02*
X48730000Y-103127630D01*
D20*
X69850000Y-105930000D02*
X69850000Y-106680000D01*
D19*
X125895000Y-99885000D02*
X123730000Y-102050000D01*
X48730000Y-102050000D02*
X48884027Y-102050000D01*
D20*
X63500000Y-97790000D02*
X63500000Y-105410000D01*
D19*
X150895000Y-99885000D02*
X148730000Y-102050000D01*
D21*
X115570000Y-106680000D02*
X125730000Y-106680000D01*
D19*
X80010000Y-99885000D02*
X75895000Y-99885000D01*
X48884027Y-102050000D02*
X51049027Y-99885000D01*
D21*
X96520000Y-106680000D02*
X115570000Y-106680000D01*
D20*
X90800000Y-93980000D02*
X96520000Y-99700000D01*
D19*
X51049027Y-99885000D02*
X54610000Y-99885000D01*
X104140000Y-99885000D02*
X100895000Y-99885000D01*
D21*
X140520000Y-102050000D02*
X148730000Y-102050000D01*
D20*
X98730000Y-104470000D02*
X96520000Y-106680000D01*
X123730000Y-102050000D02*
X123730000Y-104680000D01*
X98730000Y-102050000D02*
X98730000Y-104470000D01*
D21*
X69850000Y-106680000D02*
X90170000Y-106680000D01*
D20*
X123730000Y-104680000D02*
X125730000Y-106680000D01*
D19*
X154940000Y-99885000D02*
X150895000Y-99885000D01*
X75895000Y-99885000D02*
X73730000Y-102050000D01*
D21*
X62230000Y-106680000D02*
X69850000Y-106680000D01*
D20*
X92710000Y-102870000D02*
X92710000Y-104140000D01*
X119380000Y-102870000D02*
X115570000Y-106680000D01*
D19*
%TO.N,Net-(U1-Cathode)*%
X51270000Y-97950000D02*
X54325000Y-97950000D01*
X54325000Y-97950000D02*
X54610000Y-98235000D01*
%TO.N,Net-(U2-Cathode)*%
X79725000Y-97950000D02*
X80010000Y-98235000D01*
X76270000Y-97950000D02*
X79725000Y-97950000D01*
%TO.N,Net-(U3-Cathode)*%
X101555000Y-98235000D02*
X101270000Y-97950000D01*
X104140000Y-98235000D02*
X101555000Y-98235000D01*
%TO.N,Net-(U4-Cathode)*%
X126270000Y-97950000D02*
X129255000Y-97950000D01*
X129255000Y-97950000D02*
X129540000Y-98235000D01*
%TO.N,Net-(U5-Cathode)*%
X151270000Y-97950000D02*
X154655000Y-97950000D01*
X154655000Y-97950000D02*
X154940000Y-98235000D01*
%TO.N,Net-(D1-A)*%
X88900000Y-91440000D02*
X94337500Y-91440000D01*
%TD*%
M02*
