M48
; DRILL file {KiCad 7.0.9} date Sat Mar 23 08:09:55 2024
; FORMAT={-:-/ absolute / inch / decimal}
; #@! TF.CreationDate,2024-03-23T08:09:55+09:00
; #@! TF.GenerationSoftware,Kicad,Pcbnew,7.0.9
; #@! TF.FileFunction,Plated,1,2,PTH
FMAT,2
INCH
; #@! TA.AperFunction,Plated,PTH,ViaDrill
T1C0.0157
; #@! TA.AperFunction,Plated,PTH,ComponentDrill
T2C0.0300
; #@! TA.AperFunction,Plated,PTH,ComponentDrill
T3C0.0354
; #@! TA.AperFunction,Plated,PTH,ComponentDrill
T4C0.0394
%
G90
G05
T1
X2.5Y-3.85
X2.65Y-3.8
X3.35Y-3.7
X3.5Y-3.85
X3.7Y-3.95
X4.7Y-3.9
T2
X1.9185Y-3.8563
X1.9185Y-4.0177
X2.0185Y-3.8563
X2.0185Y-4.0177
X2.9028Y-3.8563
X2.9028Y-4.0177
X3.0028Y-3.8563
X3.0028Y-4.0177
X3.35Y-4.05
X3.45Y-4.05
X3.55Y-4.05
X3.65Y-4.05
X3.887Y-3.8563
X3.887Y-4.0177
X3.987Y-3.8563
X3.987Y-4.0177
X4.8713Y-3.8563
X4.8713Y-4.0177
X4.9713Y-3.8563
X4.9713Y-4.0177
X5.8555Y-3.8563
X5.8555Y-4.0177
X5.9555Y-3.8563
X5.9555Y-4.0177
T3
X3.5Y-3.6
X3.5Y-3.7
T4
X2.25Y-3.575
X2.35Y-3.575
X2.45Y-3.575
X2.55Y-3.575
X2.65Y-3.575
X2.75Y-3.575
X2.85Y-3.575
X2.95Y-3.575
X3.05Y-3.575
X3.15Y-3.575
X3.9Y-3.5778
X4.0Y-3.5778
X4.1Y-3.5778
X4.2Y-3.5778
X4.3Y-3.5778
X4.4Y-3.5778
X4.5Y-3.5778
X4.6Y-3.5778
X4.7Y-3.5778
X4.8Y-3.5778
T0
M30
