%TF.GenerationSoftware,KiCad,Pcbnew,7.0.9*%
%TF.CreationDate,2024-03-23T08:09:54+09:00*%
%TF.ProjectId,03-front,30332d66-726f-46e7-942e-6b696361645f,rev?*%
%TF.SameCoordinates,Original*%
%TF.FileFunction,Soldermask,Top*%
%TF.FilePolarity,Negative*%
%FSLAX46Y46*%
G04 Gerber Fmt 4.6, Leading zero omitted, Abs format (unit mm)*
G04 Created by KiCad (PCBNEW 7.0.9) date 2024-03-23 08:09:54*
%MOMM*%
%LPD*%
G01*
G04 APERTURE LIST*
G04 Aperture macros list*
%AMRoundRect*
0 Rectangle with rounded corners*
0 $1 Rounding radius*
0 $2 $3 $4 $5 $6 $7 $8 $9 X,Y pos of 4 corners*
0 Add a 4 corners polygon primitive as box body*
4,1,4,$2,$3,$4,$5,$6,$7,$8,$9,$2,$3,0*
0 Add four circle primitives for the rounded corners*
1,1,$1+$1,$2,$3*
1,1,$1+$1,$4,$5*
1,1,$1+$1,$6,$7*
1,1,$1+$1,$8,$9*
0 Add four rect primitives between the rounded corners*
20,1,$1+$1,$2,$3,$4,$5,0*
20,1,$1+$1,$4,$5,$6,$7,0*
20,1,$1+$1,$6,$7,$8,$9,0*
20,1,$1+$1,$8,$9,$2,$3,0*%
G04 Aperture macros list end*
%ADD10R,1.800000X1.800000*%
%ADD11C,1.800000*%
%ADD12C,1.524000*%
%ADD13RoundRect,0.200000X-0.275000X0.200000X-0.275000X-0.200000X0.275000X-0.200000X0.275000X0.200000X0*%
%ADD14RoundRect,0.250000X-0.625000X0.312500X-0.625000X-0.312500X0.625000X-0.312500X0.625000X0.312500X0*%
%ADD15RoundRect,0.250000X-0.262500X-0.450000X0.262500X-0.450000X0.262500X0.450000X-0.262500X0.450000X0*%
%ADD16R,1.700000X1.700000*%
%ADD17O,1.700000X1.700000*%
G04 APERTURE END LIST*
D10*
%TO.C,D1*%
X88900000Y-93980000D03*
D11*
X88900000Y-91440000D03*
%TD*%
D12*
%TO.C,U4*%
X123730000Y-97950000D03*
X126270000Y-97950000D03*
X123730000Y-102050000D03*
X126270000Y-102050000D03*
%TD*%
%TO.C,U3*%
X98730000Y-97950000D03*
X101270000Y-97950000D03*
X98730000Y-102050000D03*
X101270000Y-102050000D03*
%TD*%
D13*
%TO.C,R5*%
X104140000Y-98235000D03*
X104140000Y-99885000D03*
%TD*%
D12*
%TO.C,U6*%
X85090000Y-102870000D03*
X87630000Y-102870000D03*
X90170000Y-102870000D03*
X92710000Y-102870000D03*
%TD*%
%TO.C,U2*%
X73730000Y-97950000D03*
X76270000Y-97950000D03*
X73730000Y-102050000D03*
X76270000Y-102050000D03*
%TD*%
D13*
%TO.C,R6*%
X129540000Y-98235000D03*
X129540000Y-99885000D03*
%TD*%
D14*
%TO.C,R2*%
X63500000Y-92325000D03*
X63500000Y-95250000D03*
%TD*%
D13*
%TO.C,R9*%
X154940000Y-98235000D03*
X154940000Y-99885000D03*
%TD*%
D15*
%TO.C,R4*%
X94337500Y-91440000D03*
X96162500Y-91440000D03*
%TD*%
D13*
%TO.C,R1*%
X54610000Y-98235000D03*
X54610000Y-99885000D03*
%TD*%
%TO.C,R3*%
X80010000Y-98235000D03*
X80010000Y-99885000D03*
%TD*%
D12*
%TO.C,U5*%
X148730000Y-97950000D03*
X151270000Y-97950000D03*
X148730000Y-102050000D03*
X151270000Y-102050000D03*
%TD*%
%TO.C,U1*%
X48730000Y-97950000D03*
X51270000Y-97950000D03*
X48730000Y-102050000D03*
X51270000Y-102050000D03*
%TD*%
D16*
%TO.C,REF\u002A\u002A*%
X57150000Y-90805000D03*
D17*
X59690000Y-90805000D03*
X62230000Y-90805000D03*
X64770000Y-90805000D03*
X67310000Y-90805000D03*
X69850000Y-90805000D03*
X72390000Y-90805000D03*
X74930000Y-90805000D03*
X77470000Y-90805000D03*
X80010000Y-90805000D03*
%TD*%
D16*
%TO.C,J1*%
X99060000Y-90875000D03*
D17*
X101600000Y-90875000D03*
X104140000Y-90875000D03*
X106680000Y-90875000D03*
X109220000Y-90875000D03*
X111760000Y-90875000D03*
X114300000Y-90875000D03*
X116840000Y-90875000D03*
X119380000Y-90875000D03*
X121920000Y-90875000D03*
%TD*%
M02*
