%TF.GenerationSoftware,KiCad,Pcbnew,7.0.9*%
%TF.CreationDate,2025-02-06T13:00:42+09:00*%
%TF.ProjectId,05-PWR,30352d50-5752-42e6-9b69-6361645f7063,rev?*%
%TF.SameCoordinates,Original*%
%TF.FileFunction,Legend,Top*%
%TF.FilePolarity,Positive*%
%FSLAX46Y46*%
G04 Gerber Fmt 4.6, Leading zero omitted, Abs format (unit mm)*
G04 Created by KiCad (PCBNEW 7.0.9) date 2025-02-06 13:00:42*
%MOMM*%
%LPD*%
G01*
G04 APERTURE LIST*
G04 Aperture macros list*
%AMRoundRect*
0 Rectangle with rounded corners*
0 $1 Rounding radius*
0 $2 $3 $4 $5 $6 $7 $8 $9 X,Y pos of 4 corners*
0 Add a 4 corners polygon primitive as box body*
4,1,4,$2,$3,$4,$5,$6,$7,$8,$9,$2,$3,0*
0 Add four circle primitives for the rounded corners*
1,1,$1+$1,$2,$3*
1,1,$1+$1,$4,$5*
1,1,$1+$1,$6,$7*
1,1,$1+$1,$8,$9*
0 Add four rect primitives between the rounded corners*
20,1,$1+$1,$2,$3,$4,$5,0*
20,1,$1+$1,$4,$5,$6,$7,0*
20,1,$1+$1,$6,$7,$8,$9,0*
20,1,$1+$1,$8,$9,$2,$3,0*%
G04 Aperture macros list end*
%ADD10C,0.400000*%
%ADD11C,0.150000*%
%ADD12C,0.300000*%
%ADD13C,0.500000*%
%ADD14C,0.120000*%
%ADD15C,0.127000*%
%ADD16C,0.100000*%
%ADD17RoundRect,0.250000X0.475000X-0.337500X0.475000X0.337500X-0.475000X0.337500X-0.475000X-0.337500X0*%
%ADD18C,2.604000*%
%ADD19C,1.600000*%
%ADD20O,1.600000X1.600000*%
%ADD21C,0.800000*%
%ADD22C,6.400000*%
%ADD23C,1.800000*%
%ADD24R,1.200000X3.000000*%
%ADD25R,2.000000X4.000000*%
%ADD26R,3.000000X1.200000*%
%ADD27R,1.770000X4.112100*%
%ADD28R,4.170000X1.862000*%
%ADD29R,1.200000X1.500000*%
%ADD30R,1.800000X1.717500*%
%ADD31O,1.800000X1.717500*%
%ADD32RoundRect,0.250000X-0.650000X0.412500X-0.650000X-0.412500X0.650000X-0.412500X0.650000X0.412500X0*%
%ADD33RoundRect,0.250002X-1.699998X-1.699998X1.699998X-1.699998X1.699998X1.699998X-1.699998X1.699998X0*%
%ADD34C,3.900000*%
%ADD35RoundRect,0.250001X-0.799999X-0.799999X0.799999X-0.799999X0.799999X0.799999X-0.799999X0.799999X0*%
%ADD36C,2.100000*%
G04 APERTURE END LIST*
D10*
X33000000Y-105000000D02*
X33000000Y-109500000D01*
D11*
X77750000Y-86000000D02*
X78500000Y-85250000D01*
X61750000Y-83750000D02*
X60750000Y-84750000D01*
D10*
X33000000Y-109500000D02*
X34750000Y-109500000D01*
D11*
X81750000Y-84750000D02*
X81750000Y-85000000D01*
X76750000Y-86000000D02*
X77750000Y-86000000D01*
X60750000Y-85000000D02*
X61750000Y-86000000D01*
X82750000Y-86000000D02*
X83000000Y-86000000D01*
X61750000Y-86000000D02*
X62000000Y-86000000D01*
X81750000Y-85000000D02*
X82750000Y-86000000D01*
X82750000Y-83750000D02*
X81750000Y-84750000D01*
X60750000Y-84750000D02*
X60750000Y-85000000D01*
X62000000Y-83750000D02*
X61750000Y-83750000D01*
X83000000Y-83750000D02*
X82750000Y-83750000D01*
X98508458Y-88130180D02*
X97984649Y-88796847D01*
X98508458Y-88796847D02*
X97984649Y-88130180D01*
X74369819Y-94508458D02*
X73703152Y-93984649D01*
X73703152Y-94508458D02*
X74369819Y-93984649D01*
X50910588Y-131717438D02*
X50815350Y-131669819D01*
X50815350Y-131669819D02*
X50672493Y-131669819D01*
X50672493Y-131669819D02*
X50529636Y-131717438D01*
X50529636Y-131717438D02*
X50434398Y-131812676D01*
X50434398Y-131812676D02*
X50386779Y-131907914D01*
X50386779Y-131907914D02*
X50339160Y-132098390D01*
X50339160Y-132098390D02*
X50339160Y-132241247D01*
X50339160Y-132241247D02*
X50386779Y-132431723D01*
X50386779Y-132431723D02*
X50434398Y-132526961D01*
X50434398Y-132526961D02*
X50529636Y-132622200D01*
X50529636Y-132622200D02*
X50672493Y-132669819D01*
X50672493Y-132669819D02*
X50767731Y-132669819D01*
X50767731Y-132669819D02*
X50910588Y-132622200D01*
X50910588Y-132622200D02*
X50958207Y-132574580D01*
X50958207Y-132574580D02*
X50958207Y-132241247D01*
X50958207Y-132241247D02*
X50767731Y-132241247D01*
X51386779Y-132669819D02*
X51386779Y-131669819D01*
X51386779Y-131669819D02*
X51958207Y-132669819D01*
X51958207Y-132669819D02*
X51958207Y-131669819D01*
X52434398Y-132669819D02*
X52434398Y-131669819D01*
X52434398Y-131669819D02*
X52672493Y-131669819D01*
X52672493Y-131669819D02*
X52815350Y-131717438D01*
X52815350Y-131717438D02*
X52910588Y-131812676D01*
X52910588Y-131812676D02*
X52958207Y-131907914D01*
X52958207Y-131907914D02*
X53005826Y-132098390D01*
X53005826Y-132098390D02*
X53005826Y-132241247D01*
X53005826Y-132241247D02*
X52958207Y-132431723D01*
X52958207Y-132431723D02*
X52910588Y-132526961D01*
X52910588Y-132526961D02*
X52815350Y-132622200D01*
X52815350Y-132622200D02*
X52672493Y-132669819D01*
X52672493Y-132669819D02*
X52434398Y-132669819D01*
X58360588Y-84417438D02*
X58265350Y-84369819D01*
X58265350Y-84369819D02*
X58122493Y-84369819D01*
X58122493Y-84369819D02*
X57979636Y-84417438D01*
X57979636Y-84417438D02*
X57884398Y-84512676D01*
X57884398Y-84512676D02*
X57836779Y-84607914D01*
X57836779Y-84607914D02*
X57789160Y-84798390D01*
X57789160Y-84798390D02*
X57789160Y-84941247D01*
X57789160Y-84941247D02*
X57836779Y-85131723D01*
X57836779Y-85131723D02*
X57884398Y-85226961D01*
X57884398Y-85226961D02*
X57979636Y-85322200D01*
X57979636Y-85322200D02*
X58122493Y-85369819D01*
X58122493Y-85369819D02*
X58217731Y-85369819D01*
X58217731Y-85369819D02*
X58360588Y-85322200D01*
X58360588Y-85322200D02*
X58408207Y-85274580D01*
X58408207Y-85274580D02*
X58408207Y-84941247D01*
X58408207Y-84941247D02*
X58217731Y-84941247D01*
X58836779Y-85369819D02*
X58836779Y-84369819D01*
X58836779Y-84369819D02*
X59408207Y-85369819D01*
X59408207Y-85369819D02*
X59408207Y-84369819D01*
X59884398Y-85369819D02*
X59884398Y-84369819D01*
X59884398Y-84369819D02*
X60122493Y-84369819D01*
X60122493Y-84369819D02*
X60265350Y-84417438D01*
X60265350Y-84417438D02*
X60360588Y-84512676D01*
X60360588Y-84512676D02*
X60408207Y-84607914D01*
X60408207Y-84607914D02*
X60455826Y-84798390D01*
X60455826Y-84798390D02*
X60455826Y-84941247D01*
X60455826Y-84941247D02*
X60408207Y-85131723D01*
X60408207Y-85131723D02*
X60360588Y-85226961D01*
X60360588Y-85226961D02*
X60265350Y-85322200D01*
X60265350Y-85322200D02*
X60122493Y-85369819D01*
X60122493Y-85369819D02*
X59884398Y-85369819D01*
X89667438Y-95889411D02*
X89619819Y-95984649D01*
X89619819Y-95984649D02*
X89619819Y-96127506D01*
X89619819Y-96127506D02*
X89667438Y-96270363D01*
X89667438Y-96270363D02*
X89762676Y-96365601D01*
X89762676Y-96365601D02*
X89857914Y-96413220D01*
X89857914Y-96413220D02*
X90048390Y-96460839D01*
X90048390Y-96460839D02*
X90191247Y-96460839D01*
X90191247Y-96460839D02*
X90381723Y-96413220D01*
X90381723Y-96413220D02*
X90476961Y-96365601D01*
X90476961Y-96365601D02*
X90572200Y-96270363D01*
X90572200Y-96270363D02*
X90619819Y-96127506D01*
X90619819Y-96127506D02*
X90619819Y-96032268D01*
X90619819Y-96032268D02*
X90572200Y-95889411D01*
X90572200Y-95889411D02*
X90524580Y-95841792D01*
X90524580Y-95841792D02*
X90191247Y-95841792D01*
X90191247Y-95841792D02*
X90191247Y-96032268D01*
X90619819Y-95413220D02*
X89619819Y-95413220D01*
X89619819Y-95413220D02*
X90619819Y-94841792D01*
X90619819Y-94841792D02*
X89619819Y-94841792D01*
X90619819Y-94365601D02*
X89619819Y-94365601D01*
X89619819Y-94365601D02*
X89619819Y-94127506D01*
X89619819Y-94127506D02*
X89667438Y-93984649D01*
X89667438Y-93984649D02*
X89762676Y-93889411D01*
X89762676Y-93889411D02*
X89857914Y-93841792D01*
X89857914Y-93841792D02*
X90048390Y-93794173D01*
X90048390Y-93794173D02*
X90191247Y-93794173D01*
X90191247Y-93794173D02*
X90381723Y-93841792D01*
X90381723Y-93841792D02*
X90476961Y-93889411D01*
X90476961Y-93889411D02*
X90572200Y-93984649D01*
X90572200Y-93984649D02*
X90619819Y-94127506D01*
X90619819Y-94127506D02*
X90619819Y-94365601D01*
D12*
X54487844Y-98989638D02*
X55154510Y-100989638D01*
X55154510Y-100989638D02*
X55821177Y-98989638D01*
X56487844Y-100989638D02*
X56487844Y-98989638D01*
X56487844Y-98989638D02*
X56964034Y-98989638D01*
X56964034Y-98989638D02*
X57249749Y-99084876D01*
X57249749Y-99084876D02*
X57440225Y-99275352D01*
X57440225Y-99275352D02*
X57535463Y-99465828D01*
X57535463Y-99465828D02*
X57630701Y-99846780D01*
X57630701Y-99846780D02*
X57630701Y-100132495D01*
X57630701Y-100132495D02*
X57535463Y-100513447D01*
X57535463Y-100513447D02*
X57440225Y-100703923D01*
X57440225Y-100703923D02*
X57249749Y-100894400D01*
X57249749Y-100894400D02*
X56964034Y-100989638D01*
X56964034Y-100989638D02*
X56487844Y-100989638D01*
X58487844Y-100989638D02*
X58487844Y-98989638D01*
X58487844Y-98989638D02*
X58964034Y-98989638D01*
X58964034Y-98989638D02*
X59249749Y-99084876D01*
X59249749Y-99084876D02*
X59440225Y-99275352D01*
X59440225Y-99275352D02*
X59535463Y-99465828D01*
X59535463Y-99465828D02*
X59630701Y-99846780D01*
X59630701Y-99846780D02*
X59630701Y-100132495D01*
X59630701Y-100132495D02*
X59535463Y-100513447D01*
X59535463Y-100513447D02*
X59440225Y-100703923D01*
X59440225Y-100703923D02*
X59249749Y-100894400D01*
X59249749Y-100894400D02*
X58964034Y-100989638D01*
X58964034Y-100989638D02*
X58487844Y-100989638D01*
D11*
X94119819Y-78306077D02*
X94119819Y-77734649D01*
X95119819Y-78020363D02*
X94119819Y-78020363D01*
X95119819Y-77401315D02*
X94453152Y-77401315D01*
X94643628Y-77401315D02*
X94548390Y-77353696D01*
X94548390Y-77353696D02*
X94500771Y-77306077D01*
X94500771Y-77306077D02*
X94453152Y-77210839D01*
X94453152Y-77210839D02*
X94453152Y-77115601D01*
X95119819Y-76782267D02*
X94453152Y-76782267D01*
X94119819Y-76782267D02*
X94167438Y-76829886D01*
X94167438Y-76829886D02*
X94215057Y-76782267D01*
X94215057Y-76782267D02*
X94167438Y-76734648D01*
X94167438Y-76734648D02*
X94119819Y-76782267D01*
X94119819Y-76782267D02*
X94215057Y-76782267D01*
X95119819Y-76306077D02*
X94453152Y-76306077D01*
X94548390Y-76306077D02*
X94500771Y-76258458D01*
X94500771Y-76258458D02*
X94453152Y-76163220D01*
X94453152Y-76163220D02*
X94453152Y-76020363D01*
X94453152Y-76020363D02*
X94500771Y-75925125D01*
X94500771Y-75925125D02*
X94596009Y-75877506D01*
X94596009Y-75877506D02*
X95119819Y-75877506D01*
X94596009Y-75877506D02*
X94500771Y-75829887D01*
X94500771Y-75829887D02*
X94453152Y-75734649D01*
X94453152Y-75734649D02*
X94453152Y-75591792D01*
X94453152Y-75591792D02*
X94500771Y-75496553D01*
X94500771Y-75496553D02*
X94596009Y-75448934D01*
X94596009Y-75448934D02*
X95119819Y-75448934D01*
G36*
X46535209Y-89829077D02*
G01*
X46607151Y-89901019D01*
X46647493Y-90062386D01*
X46647493Y-90377251D01*
X46607151Y-90538617D01*
X46535208Y-90610561D01*
X46466693Y-90644819D01*
X46311627Y-90644819D01*
X46243111Y-90610561D01*
X46171168Y-90538617D01*
X46130827Y-90377251D01*
X46130827Y-90062386D01*
X46171168Y-89901019D01*
X46243111Y-89829077D01*
X46311627Y-89794819D01*
X46466693Y-89794819D01*
X46535209Y-89829077D01*
G37*
G36*
X41868542Y-89829077D02*
G01*
X41898949Y-89859484D01*
X41933207Y-89928000D01*
X41933207Y-90035447D01*
X41898949Y-90103963D01*
X41868542Y-90134370D01*
X41800026Y-90168628D01*
X41511779Y-90168628D01*
X41511779Y-89794819D01*
X41800026Y-89794819D01*
X41868542Y-89829077D01*
G37*
G36*
X50510640Y-90937676D02*
G01*
X41218922Y-90937676D01*
X41218922Y-90719819D01*
X41361779Y-90719819D01*
X41379326Y-90768028D01*
X41423755Y-90793680D01*
X41474279Y-90784771D01*
X41507256Y-90745471D01*
X41511779Y-90719819D01*
X41511779Y-90529342D01*
X42314160Y-90529342D01*
X42315693Y-90533555D01*
X42314652Y-90537916D01*
X42322078Y-90562883D01*
X42369697Y-90658121D01*
X42370885Y-90659246D01*
X42383745Y-90677612D01*
X42431364Y-90725232D01*
X42432845Y-90725922D01*
X42450857Y-90739282D01*
X42546095Y-90786901D01*
X42550548Y-90787413D01*
X42553984Y-90790296D01*
X42579636Y-90794819D01*
X42770112Y-90794819D01*
X42774325Y-90793285D01*
X42778686Y-90794327D01*
X42803653Y-90786901D01*
X42898891Y-90739282D01*
X42917319Y-90719819D01*
X43218922Y-90719819D01*
X43236469Y-90768028D01*
X43280898Y-90793680D01*
X43331422Y-90784771D01*
X43364399Y-90745471D01*
X43368922Y-90719819D01*
X43368922Y-90179456D01*
X43385968Y-90162410D01*
X43454484Y-90128152D01*
X43561931Y-90128152D01*
X43618972Y-90156672D01*
X43647493Y-90213714D01*
X43647493Y-90719819D01*
X43665040Y-90768028D01*
X43709469Y-90793680D01*
X43759993Y-90784771D01*
X43792970Y-90745471D01*
X43797493Y-90719819D01*
X44885589Y-90719819D01*
X44903136Y-90768028D01*
X44947565Y-90793680D01*
X44998089Y-90784771D01*
X45031066Y-90745471D01*
X45035589Y-90719819D01*
X45035589Y-90057886D01*
X45225958Y-90465821D01*
X45239724Y-90479579D01*
X45250885Y-90495528D01*
X45257444Y-90497287D01*
X45262246Y-90502086D01*
X45281635Y-90503777D01*
X45300437Y-90508821D01*
X45306590Y-90505953D01*
X45313355Y-90506544D01*
X45329297Y-90495372D01*
X45346939Y-90487153D01*
X45352638Y-90479018D01*
X45355371Y-90477104D01*
X45356230Y-90473891D01*
X45361886Y-90465820D01*
X45552255Y-90057886D01*
X45552255Y-90719819D01*
X45569802Y-90768028D01*
X45614231Y-90793680D01*
X45664755Y-90784771D01*
X45697732Y-90745471D01*
X45702255Y-90719819D01*
X45702255Y-90386485D01*
X45980827Y-90386485D01*
X45982012Y-90389742D01*
X45983066Y-90404675D01*
X46030685Y-90595151D01*
X46034827Y-90601283D01*
X46035472Y-90608657D01*
X46050413Y-90629994D01*
X46145651Y-90725233D01*
X46147133Y-90725924D01*
X46165143Y-90739282D01*
X46260381Y-90786901D01*
X46264834Y-90787413D01*
X46268270Y-90790296D01*
X46293922Y-90794819D01*
X46484398Y-90794819D01*
X46488611Y-90793285D01*
X46492972Y-90794327D01*
X46517939Y-90786901D01*
X46613177Y-90739282D01*
X46614302Y-90738092D01*
X46632669Y-90725233D01*
X46727908Y-90629993D01*
X46731035Y-90623285D01*
X46737025Y-90618940D01*
X46747635Y-90595151D01*
X46795254Y-90404675D01*
X46794893Y-90401226D01*
X46797493Y-90386485D01*
X46797493Y-90053152D01*
X46796307Y-90049894D01*
X46795254Y-90034962D01*
X46787897Y-90005533D01*
X47028446Y-90005533D01*
X47029979Y-90009746D01*
X47028938Y-90014107D01*
X47036364Y-90039074D01*
X47083983Y-90134312D01*
X47085172Y-90135437D01*
X47098032Y-90153804D01*
X47145651Y-90201423D01*
X47147132Y-90202114D01*
X47165143Y-90215472D01*
X47260381Y-90263091D01*
X47263909Y-90263497D01*
X47275732Y-90268770D01*
X47458222Y-90314392D01*
X47535209Y-90352886D01*
X47565616Y-90383293D01*
X47599874Y-90451809D01*
X47599874Y-90511637D01*
X47565615Y-90580153D01*
X47535208Y-90610561D01*
X47466693Y-90644819D01*
X47258473Y-90644819D01*
X47127163Y-90601049D01*
X47075879Y-90602450D01*
X47037494Y-90636487D01*
X47029969Y-90687236D01*
X47056824Y-90730948D01*
X47079729Y-90743351D01*
X47222585Y-90790970D01*
X47224220Y-90790925D01*
X47246303Y-90794819D01*
X47484398Y-90794819D01*
X47488611Y-90793285D01*
X47492972Y-90794327D01*
X47517939Y-90786901D01*
X47613177Y-90739282D01*
X47614301Y-90738094D01*
X47632670Y-90725232D01*
X47638083Y-90719819D01*
X48028446Y-90719819D01*
X48045993Y-90768028D01*
X48090422Y-90793680D01*
X48140946Y-90784771D01*
X48173923Y-90745471D01*
X48178446Y-90719819D01*
X48885589Y-90719819D01*
X48892252Y-90738127D01*
X48895637Y-90757319D01*
X48900821Y-90761669D01*
X48903136Y-90768028D01*
X48920009Y-90777770D01*
X48934937Y-90790296D01*
X48944679Y-90792013D01*
X48947565Y-90793680D01*
X48950847Y-90793101D01*
X48960589Y-90794819D01*
X49436779Y-90794819D01*
X49484988Y-90777272D01*
X49510640Y-90732843D01*
X49501731Y-90682319D01*
X49462431Y-90649342D01*
X49436779Y-90644819D01*
X49035589Y-90644819D01*
X49035589Y-90271009D01*
X49293922Y-90271009D01*
X49342131Y-90253462D01*
X49367783Y-90209033D01*
X49358874Y-90158509D01*
X49319574Y-90125532D01*
X49293922Y-90121009D01*
X49035589Y-90121009D01*
X49035589Y-89794819D01*
X49436779Y-89794819D01*
X49484988Y-89777272D01*
X49510640Y-89732843D01*
X49506047Y-89706795D01*
X49648633Y-89706795D01*
X49657542Y-89757319D01*
X49696842Y-89790296D01*
X49722494Y-89794819D01*
X49933208Y-89794819D01*
X49933208Y-90719819D01*
X49950755Y-90768028D01*
X49995184Y-90793680D01*
X50045708Y-90784771D01*
X50078685Y-90745471D01*
X50083208Y-90719819D01*
X50083208Y-89794819D01*
X50293922Y-89794819D01*
X50342131Y-89777272D01*
X50367783Y-89732843D01*
X50358874Y-89682319D01*
X50319574Y-89649342D01*
X50293922Y-89644819D01*
X49722494Y-89644819D01*
X49674285Y-89662366D01*
X49648633Y-89706795D01*
X49506047Y-89706795D01*
X49501731Y-89682319D01*
X49462431Y-89649342D01*
X49436779Y-89644819D01*
X48960589Y-89644819D01*
X48942280Y-89651482D01*
X48923089Y-89654867D01*
X48918738Y-89660051D01*
X48912380Y-89662366D01*
X48902637Y-89679239D01*
X48890112Y-89694167D01*
X48888394Y-89703909D01*
X48886728Y-89706795D01*
X48887306Y-89710077D01*
X48885589Y-89719819D01*
X48885589Y-90719819D01*
X48178446Y-90719819D01*
X48178446Y-90271009D01*
X48436779Y-90271009D01*
X48484988Y-90253462D01*
X48510640Y-90209033D01*
X48501731Y-90158509D01*
X48462431Y-90125532D01*
X48436779Y-90121009D01*
X48178446Y-90121009D01*
X48178446Y-89794819D01*
X48579636Y-89794819D01*
X48627845Y-89777272D01*
X48653497Y-89732843D01*
X48644588Y-89682319D01*
X48605288Y-89649342D01*
X48579636Y-89644819D01*
X48103446Y-89644819D01*
X48085137Y-89651482D01*
X48065946Y-89654867D01*
X48061595Y-89660051D01*
X48055237Y-89662366D01*
X48045494Y-89679239D01*
X48032969Y-89694167D01*
X48031251Y-89703909D01*
X48029585Y-89706795D01*
X48030163Y-89710077D01*
X48028446Y-89719819D01*
X48028446Y-90719819D01*
X47638083Y-90719819D01*
X47680288Y-90677613D01*
X47680978Y-90676131D01*
X47694337Y-90658121D01*
X47741956Y-90562883D01*
X47742468Y-90558429D01*
X47745351Y-90554994D01*
X47749874Y-90529342D01*
X47749874Y-90434104D01*
X47748340Y-90429890D01*
X47749382Y-90425529D01*
X47741956Y-90400563D01*
X47694337Y-90305325D01*
X47693147Y-90304199D01*
X47680288Y-90285833D01*
X47632669Y-90238214D01*
X47631187Y-90237523D01*
X47613177Y-90224165D01*
X47517939Y-90176546D01*
X47514410Y-90176139D01*
X47502588Y-90170867D01*
X47320098Y-90125244D01*
X47243111Y-90086751D01*
X47212704Y-90056344D01*
X47178446Y-89987828D01*
X47178446Y-89928000D01*
X47212704Y-89859484D01*
X47243111Y-89829077D01*
X47311627Y-89794819D01*
X47519847Y-89794819D01*
X47651156Y-89838589D01*
X47702440Y-89837188D01*
X47740826Y-89803150D01*
X47748351Y-89752402D01*
X47721496Y-89708689D01*
X47698591Y-89696287D01*
X47555734Y-89648668D01*
X47554099Y-89648712D01*
X47532017Y-89644819D01*
X47293922Y-89644819D01*
X47289708Y-89646352D01*
X47285347Y-89645311D01*
X47260381Y-89652737D01*
X47165143Y-89700356D01*
X47164017Y-89701545D01*
X47145651Y-89714405D01*
X47098032Y-89762024D01*
X47097341Y-89763505D01*
X47083983Y-89781516D01*
X47036364Y-89876754D01*
X47035851Y-89881207D01*
X47032969Y-89884643D01*
X47028446Y-89910295D01*
X47028446Y-90005533D01*
X46787897Y-90005533D01*
X46747635Y-89844486D01*
X46743493Y-89838353D01*
X46742848Y-89830980D01*
X46727907Y-89809643D01*
X46632669Y-89714405D01*
X46631187Y-89713714D01*
X46613177Y-89700356D01*
X46517939Y-89652737D01*
X46513485Y-89652224D01*
X46510050Y-89649342D01*
X46484398Y-89644819D01*
X46293922Y-89644819D01*
X46289708Y-89646352D01*
X46285347Y-89645311D01*
X46260381Y-89652737D01*
X46165143Y-89700356D01*
X46164019Y-89701542D01*
X46145651Y-89714405D01*
X46050413Y-89809643D01*
X46047285Y-89816350D01*
X46041295Y-89820697D01*
X46030685Y-89844486D01*
X45983066Y-90034962D01*
X45983426Y-90038410D01*
X45980827Y-90053152D01*
X45980827Y-90386485D01*
X45702255Y-90386485D01*
X45702255Y-89719819D01*
X45698829Y-89710406D01*
X45699705Y-89700429D01*
X45690311Y-89687004D01*
X45684708Y-89671610D01*
X45676035Y-89666602D01*
X45670292Y-89658395D01*
X45654466Y-89654149D01*
X45640279Y-89645958D01*
X45630415Y-89647697D01*
X45620741Y-89645102D01*
X45605889Y-89652021D01*
X45589755Y-89654867D01*
X45583316Y-89662539D01*
X45574238Y-89666770D01*
X45559291Y-89688102D01*
X45293921Y-90256750D01*
X45028553Y-89688103D01*
X45021467Y-89681022D01*
X45018042Y-89671610D01*
X45003852Y-89663417D01*
X44992265Y-89651837D01*
X44982288Y-89650966D01*
X44973613Y-89645958D01*
X44957477Y-89648803D01*
X44941156Y-89647380D01*
X44932952Y-89653127D01*
X44923089Y-89654867D01*
X44912557Y-89667417D01*
X44899140Y-89676819D01*
X44896550Y-89686493D01*
X44890112Y-89694167D01*
X44885589Y-89719819D01*
X44885589Y-90719819D01*
X43797493Y-90719819D01*
X43797493Y-90196009D01*
X43795959Y-90191795D01*
X43797001Y-90187434D01*
X43789575Y-90162468D01*
X43741956Y-90067230D01*
X43733802Y-90059510D01*
X43729336Y-90049206D01*
X43708415Y-90033689D01*
X43613177Y-89986070D01*
X43608723Y-89985557D01*
X43605288Y-89982675D01*
X43579636Y-89978152D01*
X43436779Y-89978152D01*
X43432565Y-89979685D01*
X43428204Y-89978644D01*
X43403238Y-89986070D01*
X43368922Y-90003228D01*
X43368922Y-89719819D01*
X43351375Y-89671610D01*
X43306946Y-89645958D01*
X43256422Y-89654867D01*
X43223445Y-89694167D01*
X43218922Y-89719819D01*
X43218922Y-90719819D01*
X42917319Y-90719819D01*
X42934163Y-90702028D01*
X42937238Y-90650818D01*
X42906674Y-90609612D01*
X42856775Y-90597692D01*
X42831809Y-90605118D01*
X42752407Y-90644819D01*
X42597341Y-90644819D01*
X42528825Y-90610561D01*
X42498418Y-90580153D01*
X42464160Y-90511637D01*
X42464160Y-90261333D01*
X42498418Y-90192817D01*
X42528825Y-90162410D01*
X42597341Y-90128152D01*
X42752407Y-90128152D01*
X42831809Y-90167853D01*
X42882775Y-90173718D01*
X42925588Y-90145452D01*
X42940215Y-90096277D01*
X42919812Y-90049206D01*
X42898891Y-90033689D01*
X42803653Y-89986070D01*
X42799199Y-89985557D01*
X42795764Y-89982675D01*
X42770112Y-89978152D01*
X42579636Y-89978152D01*
X42575422Y-89979685D01*
X42571061Y-89978644D01*
X42546095Y-89986070D01*
X42450857Y-90033689D01*
X42449731Y-90034878D01*
X42431365Y-90047738D01*
X42383746Y-90095357D01*
X42383055Y-90096838D01*
X42369697Y-90114849D01*
X42322078Y-90210087D01*
X42321565Y-90214540D01*
X42318683Y-90217976D01*
X42314160Y-90243628D01*
X42314160Y-90529342D01*
X41511779Y-90529342D01*
X41511779Y-90318628D01*
X41817731Y-90318628D01*
X41821944Y-90317094D01*
X41826305Y-90318136D01*
X41851272Y-90310710D01*
X41946510Y-90263091D01*
X41947635Y-90261901D01*
X41966002Y-90249042D01*
X42013621Y-90201423D01*
X42014312Y-90199941D01*
X42027670Y-90181931D01*
X42075289Y-90086693D01*
X42075801Y-90082239D01*
X42078684Y-90078804D01*
X42083207Y-90053152D01*
X42083207Y-89910295D01*
X42081673Y-89906081D01*
X42082715Y-89901720D01*
X42075289Y-89876754D01*
X42027670Y-89781516D01*
X42026480Y-89780390D01*
X42013621Y-89762024D01*
X41966002Y-89714405D01*
X41964520Y-89713714D01*
X41946510Y-89700356D01*
X41851272Y-89652737D01*
X41846818Y-89652224D01*
X41843383Y-89649342D01*
X41817731Y-89644819D01*
X41436779Y-89644819D01*
X41418470Y-89651482D01*
X41399279Y-89654867D01*
X41394928Y-89660051D01*
X41388570Y-89662366D01*
X41378827Y-89679239D01*
X41366302Y-89694167D01*
X41364584Y-89703909D01*
X41362918Y-89706795D01*
X41363496Y-89710077D01*
X41361779Y-89719819D01*
X41361779Y-90719819D01*
X41218922Y-90719819D01*
X41218922Y-89501962D01*
X50510640Y-89501962D01*
X50510640Y-90937676D01*
G37*
X108110588Y-138367438D02*
X108015350Y-138319819D01*
X108015350Y-138319819D02*
X107872493Y-138319819D01*
X107872493Y-138319819D02*
X107729636Y-138367438D01*
X107729636Y-138367438D02*
X107634398Y-138462676D01*
X107634398Y-138462676D02*
X107586779Y-138557914D01*
X107586779Y-138557914D02*
X107539160Y-138748390D01*
X107539160Y-138748390D02*
X107539160Y-138891247D01*
X107539160Y-138891247D02*
X107586779Y-139081723D01*
X107586779Y-139081723D02*
X107634398Y-139176961D01*
X107634398Y-139176961D02*
X107729636Y-139272200D01*
X107729636Y-139272200D02*
X107872493Y-139319819D01*
X107872493Y-139319819D02*
X107967731Y-139319819D01*
X107967731Y-139319819D02*
X108110588Y-139272200D01*
X108110588Y-139272200D02*
X108158207Y-139224580D01*
X108158207Y-139224580D02*
X108158207Y-138891247D01*
X108158207Y-138891247D02*
X107967731Y-138891247D01*
X108586779Y-139319819D02*
X108586779Y-138319819D01*
X108586779Y-138319819D02*
X109158207Y-139319819D01*
X109158207Y-139319819D02*
X109158207Y-138319819D01*
X109634398Y-139319819D02*
X109634398Y-138319819D01*
X109634398Y-138319819D02*
X109872493Y-138319819D01*
X109872493Y-138319819D02*
X110015350Y-138367438D01*
X110015350Y-138367438D02*
X110110588Y-138462676D01*
X110110588Y-138462676D02*
X110158207Y-138557914D01*
X110158207Y-138557914D02*
X110205826Y-138748390D01*
X110205826Y-138748390D02*
X110205826Y-138891247D01*
X110205826Y-138891247D02*
X110158207Y-139081723D01*
X110158207Y-139081723D02*
X110110588Y-139176961D01*
X110110588Y-139176961D02*
X110015350Y-139272200D01*
X110015350Y-139272200D02*
X109872493Y-139319819D01*
X109872493Y-139319819D02*
X109634398Y-139319819D01*
D12*
X110821177Y-99034876D02*
X110630701Y-98939638D01*
X110630701Y-98939638D02*
X110344987Y-98939638D01*
X110344987Y-98939638D02*
X110059272Y-99034876D01*
X110059272Y-99034876D02*
X109868796Y-99225352D01*
X109868796Y-99225352D02*
X109773558Y-99415828D01*
X109773558Y-99415828D02*
X109678320Y-99796780D01*
X109678320Y-99796780D02*
X109678320Y-100082495D01*
X109678320Y-100082495D02*
X109773558Y-100463447D01*
X109773558Y-100463447D02*
X109868796Y-100653923D01*
X109868796Y-100653923D02*
X110059272Y-100844400D01*
X110059272Y-100844400D02*
X110344987Y-100939638D01*
X110344987Y-100939638D02*
X110535463Y-100939638D01*
X110535463Y-100939638D02*
X110821177Y-100844400D01*
X110821177Y-100844400D02*
X110916415Y-100749161D01*
X110916415Y-100749161D02*
X110916415Y-100082495D01*
X110916415Y-100082495D02*
X110535463Y-100082495D01*
X111773558Y-100939638D02*
X111773558Y-98939638D01*
X111773558Y-98939638D02*
X112916415Y-100939638D01*
X112916415Y-100939638D02*
X112916415Y-98939638D01*
X113868796Y-100939638D02*
X113868796Y-98939638D01*
X113868796Y-98939638D02*
X114344986Y-98939638D01*
X114344986Y-98939638D02*
X114630701Y-99034876D01*
X114630701Y-99034876D02*
X114821177Y-99225352D01*
X114821177Y-99225352D02*
X114916415Y-99415828D01*
X114916415Y-99415828D02*
X115011653Y-99796780D01*
X115011653Y-99796780D02*
X115011653Y-100082495D01*
X115011653Y-100082495D02*
X114916415Y-100463447D01*
X114916415Y-100463447D02*
X114821177Y-100653923D01*
X114821177Y-100653923D02*
X114630701Y-100844400D01*
X114630701Y-100844400D02*
X114344986Y-100939638D01*
X114344986Y-100939638D02*
X113868796Y-100939638D01*
D11*
X38693922Y-131669819D02*
X39027255Y-132669819D01*
X39027255Y-132669819D02*
X39360588Y-131669819D01*
X39693922Y-132669819D02*
X39693922Y-131669819D01*
X39693922Y-131669819D02*
X39932017Y-131669819D01*
X39932017Y-131669819D02*
X40074874Y-131717438D01*
X40074874Y-131717438D02*
X40170112Y-131812676D01*
X40170112Y-131812676D02*
X40217731Y-131907914D01*
X40217731Y-131907914D02*
X40265350Y-132098390D01*
X40265350Y-132098390D02*
X40265350Y-132241247D01*
X40265350Y-132241247D02*
X40217731Y-132431723D01*
X40217731Y-132431723D02*
X40170112Y-132526961D01*
X40170112Y-132526961D02*
X40074874Y-132622200D01*
X40074874Y-132622200D02*
X39932017Y-132669819D01*
X39932017Y-132669819D02*
X39693922Y-132669819D01*
X40693922Y-132669819D02*
X40693922Y-131669819D01*
X40693922Y-131669819D02*
X40932017Y-131669819D01*
X40932017Y-131669819D02*
X41074874Y-131717438D01*
X41074874Y-131717438D02*
X41170112Y-131812676D01*
X41170112Y-131812676D02*
X41217731Y-131907914D01*
X41217731Y-131907914D02*
X41265350Y-132098390D01*
X41265350Y-132098390D02*
X41265350Y-132241247D01*
X41265350Y-132241247D02*
X41217731Y-132431723D01*
X41217731Y-132431723D02*
X41170112Y-132526961D01*
X41170112Y-132526961D02*
X41074874Y-132622200D01*
X41074874Y-132622200D02*
X40932017Y-132669819D01*
X40932017Y-132669819D02*
X40693922Y-132669819D01*
D12*
X55525939Y-78839638D02*
X54573558Y-78839638D01*
X54573558Y-78839638D02*
X54478320Y-79792019D01*
X54478320Y-79792019D02*
X54573558Y-79696780D01*
X54573558Y-79696780D02*
X54764034Y-79601542D01*
X54764034Y-79601542D02*
X55240225Y-79601542D01*
X55240225Y-79601542D02*
X55430701Y-79696780D01*
X55430701Y-79696780D02*
X55525939Y-79792019D01*
X55525939Y-79792019D02*
X55621177Y-79982495D01*
X55621177Y-79982495D02*
X55621177Y-80458685D01*
X55621177Y-80458685D02*
X55525939Y-80649161D01*
X55525939Y-80649161D02*
X55430701Y-80744400D01*
X55430701Y-80744400D02*
X55240225Y-80839638D01*
X55240225Y-80839638D02*
X54764034Y-80839638D01*
X54764034Y-80839638D02*
X54573558Y-80744400D01*
X54573558Y-80744400D02*
X54478320Y-80649161D01*
X56192606Y-78839638D02*
X56859272Y-80839638D01*
X56859272Y-80839638D02*
X57525939Y-78839638D01*
D11*
X64562969Y-77119819D02*
X64086779Y-77119819D01*
X64086779Y-77119819D02*
X64039160Y-77596009D01*
X64039160Y-77596009D02*
X64086779Y-77548390D01*
X64086779Y-77548390D02*
X64182017Y-77500771D01*
X64182017Y-77500771D02*
X64420112Y-77500771D01*
X64420112Y-77500771D02*
X64515350Y-77548390D01*
X64515350Y-77548390D02*
X64562969Y-77596009D01*
X64562969Y-77596009D02*
X64610588Y-77691247D01*
X64610588Y-77691247D02*
X64610588Y-77929342D01*
X64610588Y-77929342D02*
X64562969Y-78024580D01*
X64562969Y-78024580D02*
X64515350Y-78072200D01*
X64515350Y-78072200D02*
X64420112Y-78119819D01*
X64420112Y-78119819D02*
X64182017Y-78119819D01*
X64182017Y-78119819D02*
X64086779Y-78072200D01*
X64086779Y-78072200D02*
X64039160Y-78024580D01*
X64896303Y-77119819D02*
X65229636Y-78119819D01*
X65229636Y-78119819D02*
X65562969Y-77119819D01*
X44160588Y-112517438D02*
X44065350Y-112469819D01*
X44065350Y-112469819D02*
X43922493Y-112469819D01*
X43922493Y-112469819D02*
X43779636Y-112517438D01*
X43779636Y-112517438D02*
X43684398Y-112612676D01*
X43684398Y-112612676D02*
X43636779Y-112707914D01*
X43636779Y-112707914D02*
X43589160Y-112898390D01*
X43589160Y-112898390D02*
X43589160Y-113041247D01*
X43589160Y-113041247D02*
X43636779Y-113231723D01*
X43636779Y-113231723D02*
X43684398Y-113326961D01*
X43684398Y-113326961D02*
X43779636Y-113422200D01*
X43779636Y-113422200D02*
X43922493Y-113469819D01*
X43922493Y-113469819D02*
X44017731Y-113469819D01*
X44017731Y-113469819D02*
X44160588Y-113422200D01*
X44160588Y-113422200D02*
X44208207Y-113374580D01*
X44208207Y-113374580D02*
X44208207Y-113041247D01*
X44208207Y-113041247D02*
X44017731Y-113041247D01*
X44636779Y-113469819D02*
X44636779Y-112469819D01*
X44636779Y-112469819D02*
X45208207Y-113469819D01*
X45208207Y-113469819D02*
X45208207Y-112469819D01*
X45684398Y-113469819D02*
X45684398Y-112469819D01*
X45684398Y-112469819D02*
X45922493Y-112469819D01*
X45922493Y-112469819D02*
X46065350Y-112517438D01*
X46065350Y-112517438D02*
X46160588Y-112612676D01*
X46160588Y-112612676D02*
X46208207Y-112707914D01*
X46208207Y-112707914D02*
X46255826Y-112898390D01*
X46255826Y-112898390D02*
X46255826Y-113041247D01*
X46255826Y-113041247D02*
X46208207Y-113231723D01*
X46208207Y-113231723D02*
X46160588Y-113326961D01*
X46160588Y-113326961D02*
X46065350Y-113422200D01*
X46065350Y-113422200D02*
X45922493Y-113469819D01*
X45922493Y-113469819D02*
X45684398Y-113469819D01*
X77758458Y-83630180D02*
X77234649Y-84296847D01*
X77758458Y-84296847D02*
X77234649Y-83630180D01*
G36*
X40003166Y-103455413D02*
G01*
X40080153Y-103493907D01*
X40110561Y-103524314D01*
X40144819Y-103592830D01*
X40144819Y-103652658D01*
X40110561Y-103721173D01*
X40080153Y-103751580D01*
X40003166Y-103790074D01*
X39829632Y-103833458D01*
X39610005Y-103833458D01*
X39436471Y-103790074D01*
X39359484Y-103751581D01*
X39329077Y-103721174D01*
X39294819Y-103652658D01*
X39294819Y-103592830D01*
X39329077Y-103524314D01*
X39359484Y-103493907D01*
X39436471Y-103455413D01*
X39610005Y-103412030D01*
X39829632Y-103412030D01*
X40003166Y-103455413D01*
G37*
G36*
X39859104Y-102852020D02*
G01*
X39456989Y-102717982D01*
X39859104Y-102583943D01*
X39859104Y-102852020D01*
G37*
G36*
X39794999Y-98690600D02*
G01*
X39713714Y-98690600D01*
X39656672Y-98662079D01*
X39628152Y-98605038D01*
X39628152Y-98449972D01*
X39656672Y-98392930D01*
X39713714Y-98364410D01*
X39729761Y-98364410D01*
X39794999Y-98690600D01*
G37*
G36*
X40437676Y-105077557D02*
G01*
X39001962Y-105077557D01*
X39001962Y-104570298D01*
X39144974Y-104570298D01*
X39151087Y-104591189D01*
X39154867Y-104612625D01*
X39158170Y-104615397D01*
X39159382Y-104619536D01*
X39178216Y-104637529D01*
X39314894Y-104728647D01*
X39396275Y-104810028D01*
X39438451Y-104894380D01*
X39475705Y-104929652D01*
X39526915Y-104932727D01*
X39568121Y-104902163D01*
X39580041Y-104852264D01*
X39572615Y-104827298D01*
X39524996Y-104732060D01*
X39523809Y-104730936D01*
X39510947Y-104712568D01*
X39448504Y-104650125D01*
X40144819Y-104650125D01*
X40144819Y-104860839D01*
X40162366Y-104909048D01*
X40206795Y-104934700D01*
X40257319Y-104925791D01*
X40290296Y-104886491D01*
X40294819Y-104860839D01*
X40294819Y-104289411D01*
X40277272Y-104241202D01*
X40232843Y-104215550D01*
X40182319Y-104224459D01*
X40149342Y-104263759D01*
X40144819Y-104289411D01*
X40144819Y-104500125D01*
X39219819Y-104500125D01*
X39215765Y-104501600D01*
X39211576Y-104500580D01*
X39192063Y-104510227D01*
X39171610Y-104517672D01*
X39169454Y-104521406D01*
X39165587Y-104523318D01*
X39156840Y-104543252D01*
X39145958Y-104562101D01*
X39146706Y-104566348D01*
X39144974Y-104570298D01*
X39001962Y-104570298D01*
X39001962Y-103670363D01*
X39144819Y-103670363D01*
X39146352Y-103674576D01*
X39145311Y-103678937D01*
X39152737Y-103703904D01*
X39200356Y-103799142D01*
X39201545Y-103800267D01*
X39214405Y-103818634D01*
X39262024Y-103866253D01*
X39263505Y-103866944D01*
X39281516Y-103880302D01*
X39376754Y-103927921D01*
X39380282Y-103928327D01*
X39392105Y-103933600D01*
X39582581Y-103981219D01*
X39586029Y-103980858D01*
X39600771Y-103983458D01*
X39838866Y-103983458D01*
X39842123Y-103982272D01*
X39857056Y-103981219D01*
X40047532Y-103933600D01*
X40050476Y-103931611D01*
X40062883Y-103927921D01*
X40158121Y-103880302D01*
X40159246Y-103879113D01*
X40177612Y-103866254D01*
X40225232Y-103818635D01*
X40225922Y-103817153D01*
X40239282Y-103799142D01*
X40286901Y-103703904D01*
X40287413Y-103699450D01*
X40290296Y-103696015D01*
X40294819Y-103670363D01*
X40294819Y-103575125D01*
X40293285Y-103570911D01*
X40294327Y-103566550D01*
X40286901Y-103541584D01*
X40239282Y-103446346D01*
X40238094Y-103445221D01*
X40225232Y-103426853D01*
X40177612Y-103379234D01*
X40176129Y-103378542D01*
X40158121Y-103365186D01*
X40062883Y-103317567D01*
X40059354Y-103317160D01*
X40047532Y-103311888D01*
X39857056Y-103264269D01*
X39853607Y-103264629D01*
X39838866Y-103262030D01*
X39600771Y-103262030D01*
X39597513Y-103263215D01*
X39582581Y-103264269D01*
X39392105Y-103311888D01*
X39389160Y-103313876D01*
X39376754Y-103317567D01*
X39281516Y-103365186D01*
X39280390Y-103366375D01*
X39262024Y-103379235D01*
X39214405Y-103426854D01*
X39213714Y-103428335D01*
X39200356Y-103446346D01*
X39152737Y-103541584D01*
X39152224Y-103546037D01*
X39149342Y-103549473D01*
X39144819Y-103575125D01*
X39144819Y-103670363D01*
X39001962Y-103670363D01*
X39001962Y-102728983D01*
X39145630Y-102728983D01*
X39146658Y-102730882D01*
X39146342Y-102733018D01*
X39158760Y-102753231D01*
X39170059Y-102774097D01*
X39172066Y-102774890D01*
X39173197Y-102776730D01*
X39196102Y-102789133D01*
X40196102Y-103122466D01*
X40247385Y-103121065D01*
X40285771Y-103087027D01*
X40293296Y-103036279D01*
X40266441Y-102992566D01*
X40243536Y-102980164D01*
X40009104Y-102902020D01*
X40009104Y-102533943D01*
X40243536Y-102455800D01*
X40283722Y-102423909D01*
X40294008Y-102373648D01*
X40269579Y-102328534D01*
X40221867Y-102309677D01*
X40196102Y-102313498D01*
X39196102Y-102646831D01*
X39194410Y-102648173D01*
X39192252Y-102648232D01*
X39174490Y-102663981D01*
X39155916Y-102678722D01*
X39155483Y-102680835D01*
X39153867Y-102682269D01*
X39150386Y-102705739D01*
X39145630Y-102728983D01*
X39001962Y-102728983D01*
X39001962Y-101289410D01*
X39144819Y-101289410D01*
X39151482Y-101307718D01*
X39154867Y-101326910D01*
X39160051Y-101331260D01*
X39162366Y-101337619D01*
X39179239Y-101347361D01*
X39194167Y-101359887D01*
X39203909Y-101361604D01*
X39206795Y-101363271D01*
X39210077Y-101362692D01*
X39219819Y-101364410D01*
X40219819Y-101364410D01*
X40268028Y-101346863D01*
X40293680Y-101302434D01*
X40284771Y-101251910D01*
X40245471Y-101218933D01*
X40219819Y-101214410D01*
X39771009Y-101214410D01*
X39771009Y-100956077D01*
X39753462Y-100907868D01*
X39709033Y-100882216D01*
X39658509Y-100891125D01*
X39625532Y-100930425D01*
X39621009Y-100956077D01*
X39621009Y-101214410D01*
X39294819Y-101214410D01*
X39294819Y-100813220D01*
X39277272Y-100765011D01*
X39232843Y-100739359D01*
X39182319Y-100748268D01*
X39149342Y-100787568D01*
X39144819Y-100813220D01*
X39144819Y-101289410D01*
X39001962Y-101289410D01*
X39001962Y-100419243D01*
X39479291Y-100419243D01*
X39488200Y-100469767D01*
X39527500Y-100502744D01*
X39553152Y-100507267D01*
X40076961Y-100507267D01*
X40081173Y-100505733D01*
X40085535Y-100506776D01*
X40110502Y-100499349D01*
X40205741Y-100451730D01*
X40213460Y-100443576D01*
X40223765Y-100439110D01*
X40239282Y-100418189D01*
X40286901Y-100322951D01*
X40287413Y-100318497D01*
X40290296Y-100315062D01*
X40294819Y-100289410D01*
X40294819Y-100146553D01*
X40293285Y-100142339D01*
X40294327Y-100137978D01*
X40286901Y-100113012D01*
X40262056Y-100063322D01*
X40268028Y-100061149D01*
X40293680Y-100016720D01*
X40284771Y-99966196D01*
X40245471Y-99933219D01*
X40219819Y-99928696D01*
X39553152Y-99928696D01*
X39504943Y-99946243D01*
X39479291Y-99990672D01*
X39488200Y-100041196D01*
X39527500Y-100074173D01*
X39553152Y-100078696D01*
X40093514Y-100078696D01*
X40110561Y-100095742D01*
X40144819Y-100164258D01*
X40144819Y-100271705D01*
X40116298Y-100328746D01*
X40059256Y-100357267D01*
X39553152Y-100357267D01*
X39504943Y-100374814D01*
X39479291Y-100419243D01*
X39001962Y-100419243D01*
X39001962Y-99432267D01*
X39478152Y-99432267D01*
X39479685Y-99436480D01*
X39478644Y-99440841D01*
X39486070Y-99465808D01*
X39533689Y-99561046D01*
X39541842Y-99568765D01*
X39546309Y-99579070D01*
X39567230Y-99594587D01*
X39662468Y-99642206D01*
X39666921Y-99642718D01*
X39670357Y-99645601D01*
X39696009Y-99650124D01*
X39743628Y-99650124D01*
X39747841Y-99648590D01*
X39752202Y-99649632D01*
X39777169Y-99642206D01*
X39872407Y-99594587D01*
X39880126Y-99586433D01*
X39890431Y-99581967D01*
X39905948Y-99561046D01*
X39953567Y-99465808D01*
X39954079Y-99461354D01*
X39956962Y-99457919D01*
X39961485Y-99432267D01*
X39961485Y-99307115D01*
X39990005Y-99250073D01*
X40047047Y-99221553D01*
X40059256Y-99221553D01*
X40116298Y-99250073D01*
X40144819Y-99307115D01*
X40144819Y-99462181D01*
X40105118Y-99541583D01*
X40099253Y-99592550D01*
X40127519Y-99635363D01*
X40176694Y-99649989D01*
X40223765Y-99629586D01*
X40239282Y-99608665D01*
X40286901Y-99513427D01*
X40287413Y-99508973D01*
X40290296Y-99505538D01*
X40294819Y-99479886D01*
X40294819Y-99289410D01*
X40293285Y-99285196D01*
X40294327Y-99280835D01*
X40286901Y-99255869D01*
X40239282Y-99160631D01*
X40231128Y-99152911D01*
X40226662Y-99142607D01*
X40205741Y-99127090D01*
X40110502Y-99079471D01*
X40106048Y-99078958D01*
X40102613Y-99076076D01*
X40076961Y-99071553D01*
X40029342Y-99071553D01*
X40025128Y-99073086D01*
X40020767Y-99072045D01*
X39995801Y-99079471D01*
X39900563Y-99127090D01*
X39892843Y-99135243D01*
X39882539Y-99139710D01*
X39867022Y-99160631D01*
X39819403Y-99255869D01*
X39818890Y-99260322D01*
X39816008Y-99263758D01*
X39811485Y-99289410D01*
X39811485Y-99414562D01*
X39782964Y-99471603D01*
X39725923Y-99500124D01*
X39713714Y-99500124D01*
X39656672Y-99471603D01*
X39628152Y-99414562D01*
X39628152Y-99307115D01*
X39667853Y-99227713D01*
X39673718Y-99176747D01*
X39645452Y-99133934D01*
X39596277Y-99119307D01*
X39549206Y-99139710D01*
X39533689Y-99160631D01*
X39486070Y-99255869D01*
X39485557Y-99260322D01*
X39482675Y-99263758D01*
X39478152Y-99289410D01*
X39478152Y-99432267D01*
X39001962Y-99432267D01*
X39001962Y-98622743D01*
X39478152Y-98622743D01*
X39479685Y-98626956D01*
X39478644Y-98631317D01*
X39486070Y-98656284D01*
X39533689Y-98751522D01*
X39541842Y-98759241D01*
X39546309Y-98769546D01*
X39567230Y-98785063D01*
X39662468Y-98832682D01*
X39666921Y-98833194D01*
X39670357Y-98836077D01*
X39696009Y-98840600D01*
X40076961Y-98840600D01*
X40081173Y-98839066D01*
X40085535Y-98840109D01*
X40110502Y-98832682D01*
X40205741Y-98785063D01*
X40213460Y-98776909D01*
X40223765Y-98772443D01*
X40239282Y-98751522D01*
X40286901Y-98656284D01*
X40287413Y-98651830D01*
X40290296Y-98648395D01*
X40294819Y-98622743D01*
X40294819Y-98432267D01*
X40293285Y-98428053D01*
X40294327Y-98423692D01*
X40286901Y-98398726D01*
X40239282Y-98303488D01*
X40202028Y-98268216D01*
X40150817Y-98265141D01*
X40109612Y-98295705D01*
X40097692Y-98345603D01*
X40105118Y-98370570D01*
X40144819Y-98449972D01*
X40144819Y-98605038D01*
X40116298Y-98662079D01*
X40059256Y-98690600D01*
X39947970Y-98690600D01*
X39864791Y-98274701D01*
X39858350Y-98264113D01*
X39856199Y-98251910D01*
X39845432Y-98242876D01*
X39838130Y-98230870D01*
X39826392Y-98226899D01*
X39816899Y-98218933D01*
X39791247Y-98214410D01*
X39696009Y-98214410D01*
X39691795Y-98215943D01*
X39687434Y-98214902D01*
X39662468Y-98222328D01*
X39567230Y-98269947D01*
X39559510Y-98278100D01*
X39549206Y-98282567D01*
X39533689Y-98303488D01*
X39486070Y-98398726D01*
X39485557Y-98403179D01*
X39482675Y-98406615D01*
X39478152Y-98432267D01*
X39478152Y-98622743D01*
X39001962Y-98622743D01*
X39001962Y-98071553D01*
X40437676Y-98071553D01*
X40437676Y-105077557D01*
G37*
X92869819Y-94508458D02*
X92203152Y-93984649D01*
X92203152Y-94508458D02*
X92869819Y-93984649D01*
X98610588Y-85667438D02*
X98515350Y-85619819D01*
X98515350Y-85619819D02*
X98372493Y-85619819D01*
X98372493Y-85619819D02*
X98229636Y-85667438D01*
X98229636Y-85667438D02*
X98134398Y-85762676D01*
X98134398Y-85762676D02*
X98086779Y-85857914D01*
X98086779Y-85857914D02*
X98039160Y-86048390D01*
X98039160Y-86048390D02*
X98039160Y-86191247D01*
X98039160Y-86191247D02*
X98086779Y-86381723D01*
X98086779Y-86381723D02*
X98134398Y-86476961D01*
X98134398Y-86476961D02*
X98229636Y-86572200D01*
X98229636Y-86572200D02*
X98372493Y-86619819D01*
X98372493Y-86619819D02*
X98467731Y-86619819D01*
X98467731Y-86619819D02*
X98610588Y-86572200D01*
X98610588Y-86572200D02*
X98658207Y-86524580D01*
X98658207Y-86524580D02*
X98658207Y-86191247D01*
X98658207Y-86191247D02*
X98467731Y-86191247D01*
X99086779Y-86619819D02*
X99086779Y-85619819D01*
X99086779Y-85619819D02*
X99658207Y-86619819D01*
X99658207Y-86619819D02*
X99658207Y-85619819D01*
X100134398Y-86619819D02*
X100134398Y-85619819D01*
X100134398Y-85619819D02*
X100372493Y-85619819D01*
X100372493Y-85619819D02*
X100515350Y-85667438D01*
X100515350Y-85667438D02*
X100610588Y-85762676D01*
X100610588Y-85762676D02*
X100658207Y-85857914D01*
X100658207Y-85857914D02*
X100705826Y-86048390D01*
X100705826Y-86048390D02*
X100705826Y-86191247D01*
X100705826Y-86191247D02*
X100658207Y-86381723D01*
X100658207Y-86381723D02*
X100610588Y-86476961D01*
X100610588Y-86476961D02*
X100515350Y-86572200D01*
X100515350Y-86572200D02*
X100372493Y-86619819D01*
X100372493Y-86619819D02*
X100134398Y-86619819D01*
G36*
X43075685Y-146079077D02*
G01*
X43147627Y-146151019D01*
X43187969Y-146312386D01*
X43187969Y-146627251D01*
X43147627Y-146788617D01*
X43075684Y-146860561D01*
X43007169Y-146894819D01*
X42852103Y-146894819D01*
X42783587Y-146860561D01*
X42711644Y-146788617D01*
X42671303Y-146627251D01*
X42671303Y-146312386D01*
X42711644Y-146151019D01*
X42783587Y-146079077D01*
X42852103Y-146044819D01*
X43007169Y-146044819D01*
X43075685Y-146079077D01*
G37*
G36*
X49409019Y-146079077D02*
G01*
X49439426Y-146109484D01*
X49473684Y-146178000D01*
X49473684Y-146285447D01*
X49439426Y-146353963D01*
X49409019Y-146384370D01*
X49340503Y-146418628D01*
X49052256Y-146418628D01*
X49052256Y-146044819D01*
X49340503Y-146044819D01*
X49409019Y-146079077D01*
G37*
G36*
X49766541Y-147187676D02*
G01*
X41426093Y-147187676D01*
X41426093Y-145967770D01*
X41568950Y-145967770D01*
X41572771Y-145993536D01*
X41906104Y-146993536D01*
X41907446Y-146995227D01*
X41907505Y-146997386D01*
X41923254Y-147015147D01*
X41937995Y-147033722D01*
X41940108Y-147034154D01*
X41941542Y-147035771D01*
X41965012Y-147039251D01*
X41988256Y-147044008D01*
X41990155Y-147042979D01*
X41992291Y-147043296D01*
X42012504Y-147030877D01*
X42033370Y-147019579D01*
X42034163Y-147017571D01*
X42036003Y-147016441D01*
X42048406Y-146993536D01*
X42167423Y-146636485D01*
X42521303Y-146636485D01*
X42522488Y-146639742D01*
X42523542Y-146654675D01*
X42571161Y-146845151D01*
X42575303Y-146851283D01*
X42575948Y-146858657D01*
X42590889Y-146879994D01*
X42686127Y-146975233D01*
X42687609Y-146975924D01*
X42705619Y-146989282D01*
X42800857Y-147036901D01*
X42805310Y-147037413D01*
X42808746Y-147040296D01*
X42834398Y-147044819D01*
X43024874Y-147044819D01*
X43029087Y-147043285D01*
X43033448Y-147044327D01*
X43058415Y-147036901D01*
X43153653Y-146989282D01*
X43154778Y-146988092D01*
X43173145Y-146975233D01*
X43178559Y-146969819D01*
X43616541Y-146969819D01*
X43623204Y-146988127D01*
X43626589Y-147007319D01*
X43631773Y-147011669D01*
X43634088Y-147018028D01*
X43650961Y-147027770D01*
X43665889Y-147040296D01*
X43675631Y-147042013D01*
X43678517Y-147043680D01*
X43681799Y-147043101D01*
X43691541Y-147044819D01*
X44167731Y-147044819D01*
X44215940Y-147027272D01*
X44241592Y-146982843D01*
X44232683Y-146932319D01*
X44193383Y-146899342D01*
X44167731Y-146894819D01*
X43766541Y-146894819D01*
X43766541Y-145969819D01*
X43761801Y-145956795D01*
X44284347Y-145956795D01*
X44293256Y-146007319D01*
X44332556Y-146040296D01*
X44358208Y-146044819D01*
X44568922Y-146044819D01*
X44568922Y-146969819D01*
X44586469Y-147018028D01*
X44630898Y-147043680D01*
X44681422Y-147034771D01*
X44714399Y-146995471D01*
X44718922Y-146969819D01*
X45187970Y-146969819D01*
X45205517Y-147018028D01*
X45249946Y-147043680D01*
X45300470Y-147034771D01*
X45333447Y-146995471D01*
X45337970Y-146969819D01*
X45337970Y-146307886D01*
X45528339Y-146715821D01*
X45542105Y-146729579D01*
X45553266Y-146745528D01*
X45559825Y-146747287D01*
X45564627Y-146752086D01*
X45584016Y-146753777D01*
X45602818Y-146758821D01*
X45608971Y-146755953D01*
X45615736Y-146756544D01*
X45631678Y-146745372D01*
X45649320Y-146737153D01*
X45655019Y-146729018D01*
X45657752Y-146727104D01*
X45658611Y-146723891D01*
X45664267Y-146715820D01*
X45854636Y-146307886D01*
X45854636Y-146969819D01*
X45872183Y-147018028D01*
X45916612Y-147043680D01*
X45967136Y-147034771D01*
X46000113Y-146995471D01*
X46004636Y-146969819D01*
X46330827Y-146969819D01*
X46337490Y-146988127D01*
X46340875Y-147007319D01*
X46346059Y-147011669D01*
X46348374Y-147018028D01*
X46365247Y-147027770D01*
X46380175Y-147040296D01*
X46389917Y-147042013D01*
X46392803Y-147043680D01*
X46396085Y-147043101D01*
X46405827Y-147044819D01*
X46882017Y-147044819D01*
X46930226Y-147027272D01*
X46955878Y-146982843D01*
X46946969Y-146932319D01*
X46907669Y-146899342D01*
X46882017Y-146894819D01*
X46480827Y-146894819D01*
X46480827Y-146521009D01*
X46739160Y-146521009D01*
X46787369Y-146503462D01*
X46813021Y-146459033D01*
X46804112Y-146408509D01*
X46764812Y-146375532D01*
X46739160Y-146371009D01*
X46480827Y-146371009D01*
X46480827Y-146044819D01*
X46882017Y-146044819D01*
X46930226Y-146027272D01*
X46955878Y-145982843D01*
X46951285Y-145956795D01*
X47093871Y-145956795D01*
X47102780Y-146007319D01*
X47142080Y-146040296D01*
X47167732Y-146044819D01*
X47378446Y-146044819D01*
X47378446Y-146969819D01*
X47395993Y-147018028D01*
X47440422Y-147043680D01*
X47490946Y-147034771D01*
X47523923Y-146995471D01*
X47528446Y-146969819D01*
X47997494Y-146969819D01*
X48004157Y-146988127D01*
X48007542Y-147007319D01*
X48012726Y-147011669D01*
X48015041Y-147018028D01*
X48031914Y-147027770D01*
X48046842Y-147040296D01*
X48056584Y-147042013D01*
X48059470Y-147043680D01*
X48062752Y-147043101D01*
X48072494Y-147044819D01*
X48548684Y-147044819D01*
X48596893Y-147027272D01*
X48622545Y-146982843D01*
X48620248Y-146969819D01*
X48902256Y-146969819D01*
X48919803Y-147018028D01*
X48964232Y-147043680D01*
X49014756Y-147034771D01*
X49047733Y-146995471D01*
X49052256Y-146969819D01*
X49052256Y-146568628D01*
X49176302Y-146568628D01*
X49487242Y-147012829D01*
X49529263Y-147042261D01*
X49580371Y-147037797D01*
X49616653Y-147001525D01*
X49621132Y-146950418D01*
X49610127Y-146926810D01*
X49359157Y-146568282D01*
X49362421Y-146567094D01*
X49366782Y-146568136D01*
X49391749Y-146560710D01*
X49486987Y-146513091D01*
X49488112Y-146511901D01*
X49506479Y-146499042D01*
X49554098Y-146451423D01*
X49554789Y-146449941D01*
X49568147Y-146431931D01*
X49615766Y-146336693D01*
X49616278Y-146332239D01*
X49619161Y-146328804D01*
X49623684Y-146303152D01*
X49623684Y-146160295D01*
X49622150Y-146156081D01*
X49623192Y-146151720D01*
X49615766Y-146126754D01*
X49568147Y-146031516D01*
X49566957Y-146030390D01*
X49554098Y-146012024D01*
X49506479Y-145964405D01*
X49504997Y-145963714D01*
X49486987Y-145950356D01*
X49391749Y-145902737D01*
X49387295Y-145902224D01*
X49383860Y-145899342D01*
X49358208Y-145894819D01*
X48977256Y-145894819D01*
X48958947Y-145901482D01*
X48939756Y-145904867D01*
X48935405Y-145910051D01*
X48929047Y-145912366D01*
X48919304Y-145929239D01*
X48906779Y-145944167D01*
X48905061Y-145953909D01*
X48903395Y-145956795D01*
X48903973Y-145960077D01*
X48902256Y-145969819D01*
X48902256Y-146969819D01*
X48620248Y-146969819D01*
X48613636Y-146932319D01*
X48574336Y-146899342D01*
X48548684Y-146894819D01*
X48147494Y-146894819D01*
X48147494Y-146521009D01*
X48405827Y-146521009D01*
X48454036Y-146503462D01*
X48479688Y-146459033D01*
X48470779Y-146408509D01*
X48431479Y-146375532D01*
X48405827Y-146371009D01*
X48147494Y-146371009D01*
X48147494Y-146044819D01*
X48548684Y-146044819D01*
X48596893Y-146027272D01*
X48622545Y-145982843D01*
X48613636Y-145932319D01*
X48574336Y-145899342D01*
X48548684Y-145894819D01*
X48072494Y-145894819D01*
X48054185Y-145901482D01*
X48034994Y-145904867D01*
X48030643Y-145910051D01*
X48024285Y-145912366D01*
X48014542Y-145929239D01*
X48002017Y-145944167D01*
X48000299Y-145953909D01*
X47998633Y-145956795D01*
X47999211Y-145960077D01*
X47997494Y-145969819D01*
X47997494Y-146969819D01*
X47528446Y-146969819D01*
X47528446Y-146044819D01*
X47739160Y-146044819D01*
X47787369Y-146027272D01*
X47813021Y-145982843D01*
X47804112Y-145932319D01*
X47764812Y-145899342D01*
X47739160Y-145894819D01*
X47167732Y-145894819D01*
X47119523Y-145912366D01*
X47093871Y-145956795D01*
X46951285Y-145956795D01*
X46946969Y-145932319D01*
X46907669Y-145899342D01*
X46882017Y-145894819D01*
X46405827Y-145894819D01*
X46387518Y-145901482D01*
X46368327Y-145904867D01*
X46363976Y-145910051D01*
X46357618Y-145912366D01*
X46347875Y-145929239D01*
X46335350Y-145944167D01*
X46333632Y-145953909D01*
X46331966Y-145956795D01*
X46332544Y-145960077D01*
X46330827Y-145969819D01*
X46330827Y-146969819D01*
X46004636Y-146969819D01*
X46004636Y-145969819D01*
X46001210Y-145960406D01*
X46002086Y-145950429D01*
X45992692Y-145937004D01*
X45987089Y-145921610D01*
X45978416Y-145916602D01*
X45972673Y-145908395D01*
X45956847Y-145904149D01*
X45942660Y-145895958D01*
X45932796Y-145897697D01*
X45923122Y-145895102D01*
X45908270Y-145902021D01*
X45892136Y-145904867D01*
X45885697Y-145912539D01*
X45876619Y-145916770D01*
X45861672Y-145938102D01*
X45596302Y-146506750D01*
X45330934Y-145938103D01*
X45323848Y-145931022D01*
X45320423Y-145921610D01*
X45306233Y-145913417D01*
X45294646Y-145901837D01*
X45284669Y-145900966D01*
X45275994Y-145895958D01*
X45259858Y-145898803D01*
X45243537Y-145897380D01*
X45235333Y-145903127D01*
X45225470Y-145904867D01*
X45214938Y-145917417D01*
X45201521Y-145926819D01*
X45198931Y-145936493D01*
X45192493Y-145944167D01*
X45187970Y-145969819D01*
X45187970Y-146969819D01*
X44718922Y-146969819D01*
X44718922Y-146044819D01*
X44929636Y-146044819D01*
X44977845Y-146027272D01*
X45003497Y-145982843D01*
X44994588Y-145932319D01*
X44955288Y-145899342D01*
X44929636Y-145894819D01*
X44358208Y-145894819D01*
X44309999Y-145912366D01*
X44284347Y-145956795D01*
X43761801Y-145956795D01*
X43748994Y-145921610D01*
X43704565Y-145895958D01*
X43654041Y-145904867D01*
X43621064Y-145944167D01*
X43616541Y-145969819D01*
X43616541Y-146969819D01*
X43178559Y-146969819D01*
X43268384Y-146879993D01*
X43271511Y-146873285D01*
X43277501Y-146868940D01*
X43288111Y-146845151D01*
X43335730Y-146654675D01*
X43335369Y-146651226D01*
X43337969Y-146636485D01*
X43337969Y-146303152D01*
X43336783Y-146299894D01*
X43335730Y-146284962D01*
X43288111Y-146094486D01*
X43283969Y-146088353D01*
X43283324Y-146080980D01*
X43268383Y-146059643D01*
X43173145Y-145964405D01*
X43171663Y-145963714D01*
X43153653Y-145950356D01*
X43058415Y-145902737D01*
X43053961Y-145902224D01*
X43050526Y-145899342D01*
X43024874Y-145894819D01*
X42834398Y-145894819D01*
X42830184Y-145896352D01*
X42825823Y-145895311D01*
X42800857Y-145902737D01*
X42705619Y-145950356D01*
X42704495Y-145951542D01*
X42686127Y-145964405D01*
X42590889Y-146059643D01*
X42587761Y-146066350D01*
X42581771Y-146070697D01*
X42571161Y-146094486D01*
X42523542Y-146284962D01*
X42523902Y-146288410D01*
X42521303Y-146303152D01*
X42521303Y-146636485D01*
X42167423Y-146636485D01*
X42381739Y-145993536D01*
X42380338Y-145942253D01*
X42346300Y-145903867D01*
X42295552Y-145896342D01*
X42251839Y-145923197D01*
X42239437Y-145946102D01*
X41977255Y-146732648D01*
X41715073Y-145946102D01*
X41683182Y-145905916D01*
X41632921Y-145895630D01*
X41587807Y-145920059D01*
X41568950Y-145967770D01*
X41426093Y-145967770D01*
X41426093Y-145751962D01*
X49766541Y-145751962D01*
X49766541Y-147187676D01*
G37*
X88991541Y-77369819D02*
X89610588Y-77369819D01*
X89610588Y-77369819D02*
X89277255Y-77750771D01*
X89277255Y-77750771D02*
X89420112Y-77750771D01*
X89420112Y-77750771D02*
X89515350Y-77798390D01*
X89515350Y-77798390D02*
X89562969Y-77846009D01*
X89562969Y-77846009D02*
X89610588Y-77941247D01*
X89610588Y-77941247D02*
X89610588Y-78179342D01*
X89610588Y-78179342D02*
X89562969Y-78274580D01*
X89562969Y-78274580D02*
X89515350Y-78322200D01*
X89515350Y-78322200D02*
X89420112Y-78369819D01*
X89420112Y-78369819D02*
X89134398Y-78369819D01*
X89134398Y-78369819D02*
X89039160Y-78322200D01*
X89039160Y-78322200D02*
X88991541Y-78274580D01*
X89896303Y-77369819D02*
X90229636Y-78369819D01*
X90229636Y-78369819D02*
X90562969Y-77369819D01*
X90801065Y-77369819D02*
X91420112Y-77369819D01*
X91420112Y-77369819D02*
X91086779Y-77750771D01*
X91086779Y-77750771D02*
X91229636Y-77750771D01*
X91229636Y-77750771D02*
X91324874Y-77798390D01*
X91324874Y-77798390D02*
X91372493Y-77846009D01*
X91372493Y-77846009D02*
X91420112Y-77941247D01*
X91420112Y-77941247D02*
X91420112Y-78179342D01*
X91420112Y-78179342D02*
X91372493Y-78274580D01*
X91372493Y-78274580D02*
X91324874Y-78322200D01*
X91324874Y-78322200D02*
X91229636Y-78369819D01*
X91229636Y-78369819D02*
X90943922Y-78369819D01*
X90943922Y-78369819D02*
X90848684Y-78322200D01*
X90848684Y-78322200D02*
X90801065Y-78274580D01*
D12*
G36*
X97612229Y-126513820D02*
G01*
X97673042Y-126574633D01*
X97741559Y-126711666D01*
X97741559Y-127212275D01*
X97673042Y-127349307D01*
X97612228Y-127410122D01*
X97475197Y-127478638D01*
X97165064Y-127478638D01*
X97089178Y-127440695D01*
X97089178Y-126483247D01*
X97165064Y-126445304D01*
X97475197Y-126445304D01*
X97612229Y-126513820D01*
G37*
G36*
X99398803Y-126502345D02*
G01*
X99455845Y-126616428D01*
X99455845Y-126648524D01*
X98803464Y-126779000D01*
X98803464Y-126616428D01*
X98860504Y-126502345D01*
X98974588Y-126445304D01*
X99284721Y-126445304D01*
X99398803Y-126502345D01*
G37*
G36*
X101334341Y-126807361D02*
G01*
X101387329Y-126860349D01*
X101455845Y-126997381D01*
X101455845Y-127212275D01*
X101387328Y-127349307D01*
X101326514Y-127410122D01*
X101189483Y-127478638D01*
X100612988Y-127478638D01*
X100612988Y-126731019D01*
X101105315Y-126731019D01*
X101334341Y-126807361D01*
G37*
G36*
X101231277Y-125847154D02*
G01*
X101292091Y-125907968D01*
X101360607Y-126045000D01*
X101360607Y-126164656D01*
X101292091Y-126301688D01*
X101231277Y-126362501D01*
X101094244Y-126431019D01*
X100612988Y-126431019D01*
X100612988Y-125778638D01*
X101094245Y-125778638D01*
X101231277Y-125847154D01*
G37*
G36*
X102041559Y-128731018D02*
G01*
X93170130Y-128731018D01*
X93170130Y-128286317D01*
X95075161Y-128286317D01*
X95090728Y-128362386D01*
X95142243Y-128420481D01*
X95215905Y-128445035D01*
X95291974Y-128429468D01*
X95482450Y-128334230D01*
X95500518Y-128318207D01*
X95521434Y-128306132D01*
X95532262Y-128295304D01*
X96789178Y-128295304D01*
X96809274Y-128370304D01*
X96864178Y-128425208D01*
X96939178Y-128445304D01*
X97014178Y-128425208D01*
X97069082Y-128370304D01*
X97089178Y-128295304D01*
X97089178Y-127768246D01*
X97096350Y-127769714D01*
X97129654Y-127778638D01*
X97510607Y-127778638D01*
X97543908Y-127769714D01*
X97577689Y-127762802D01*
X97768165Y-127667564D01*
X97786233Y-127651541D01*
X97807150Y-127639465D01*
X97902388Y-127544226D01*
X97914463Y-127523311D01*
X97930485Y-127505243D01*
X98011645Y-127342923D01*
X98503464Y-127342923D01*
X98512387Y-127376226D01*
X98519300Y-127410005D01*
X98614538Y-127600482D01*
X98620623Y-127607344D01*
X98623525Y-127616049D01*
X98646065Y-127636036D01*
X98666053Y-127658577D01*
X98674757Y-127661478D01*
X98681620Y-127667564D01*
X98872096Y-127762802D01*
X98905874Y-127769714D01*
X98939178Y-127778638D01*
X99320131Y-127778638D01*
X99353432Y-127769714D01*
X99387213Y-127762802D01*
X99577689Y-127667564D01*
X99621586Y-127628638D01*
X100312988Y-127628638D01*
X100333084Y-127703638D01*
X100387988Y-127758542D01*
X100462988Y-127778638D01*
X101224893Y-127778638D01*
X101258194Y-127769714D01*
X101291975Y-127762802D01*
X101482451Y-127667564D01*
X101500519Y-127651541D01*
X101521436Y-127639465D01*
X101616674Y-127544226D01*
X101628749Y-127523311D01*
X101644771Y-127505243D01*
X101740009Y-127314767D01*
X101746921Y-127280988D01*
X101755845Y-127247685D01*
X101755845Y-126961971D01*
X101746921Y-126928667D01*
X101740009Y-126894889D01*
X101644771Y-126704413D01*
X101628747Y-126686343D01*
X101616673Y-126665429D01*
X101521435Y-126570191D01*
X101491572Y-126552949D01*
X101475623Y-126542419D01*
X101521435Y-126496608D01*
X101533509Y-126475693D01*
X101549533Y-126457624D01*
X101644771Y-126267148D01*
X101651683Y-126233369D01*
X101660607Y-126200066D01*
X101660607Y-126009590D01*
X101651683Y-125976286D01*
X101644771Y-125942508D01*
X101549533Y-125752032D01*
X101533509Y-125733962D01*
X101521435Y-125713048D01*
X101426197Y-125617810D01*
X101405281Y-125605734D01*
X101387213Y-125589712D01*
X101196737Y-125494474D01*
X101162956Y-125487561D01*
X101129655Y-125478638D01*
X100462988Y-125478638D01*
X100387988Y-125498734D01*
X100333084Y-125553638D01*
X100312988Y-125628638D01*
X100312988Y-127628638D01*
X99621586Y-127628638D01*
X99635784Y-127616048D01*
X99660338Y-127542387D01*
X99644771Y-127466318D01*
X99593256Y-127408223D01*
X99519595Y-127383669D01*
X99443525Y-127399236D01*
X99284721Y-127478638D01*
X98974588Y-127478638D01*
X98860504Y-127421596D01*
X98803464Y-127307513D01*
X98803464Y-127084941D01*
X99635263Y-126918582D01*
X99657203Y-126907733D01*
X99680845Y-126901399D01*
X99691436Y-126890807D01*
X99704865Y-126884168D01*
X99718442Y-126863801D01*
X99735749Y-126846495D01*
X99739626Y-126832025D01*
X99747935Y-126819562D01*
X99749510Y-126795137D01*
X99755845Y-126771495D01*
X99755845Y-126581019D01*
X99746920Y-126547713D01*
X99740009Y-126513938D01*
X99644771Y-126323460D01*
X99638684Y-126316596D01*
X99635784Y-126307894D01*
X99613246Y-126287908D01*
X99593256Y-126265365D01*
X99584551Y-126262463D01*
X99577689Y-126256378D01*
X99387213Y-126161140D01*
X99353432Y-126154227D01*
X99320131Y-126145304D01*
X98939178Y-126145304D01*
X98905874Y-126154227D01*
X98872096Y-126161140D01*
X98681620Y-126256378D01*
X98674757Y-126262463D01*
X98666053Y-126265365D01*
X98646065Y-126287905D01*
X98623525Y-126307893D01*
X98620623Y-126316597D01*
X98614538Y-126323460D01*
X98519300Y-126513937D01*
X98512387Y-126547715D01*
X98503464Y-126581019D01*
X98503464Y-127342923D01*
X98011645Y-127342923D01*
X98025723Y-127314767D01*
X98032635Y-127280988D01*
X98041559Y-127247685D01*
X98041559Y-126676257D01*
X98032634Y-126642951D01*
X98025723Y-126609176D01*
X97930485Y-126418698D01*
X97914461Y-126400628D01*
X97902387Y-126379714D01*
X97807149Y-126284476D01*
X97786233Y-126272400D01*
X97768165Y-126256378D01*
X97577689Y-126161140D01*
X97543908Y-126154227D01*
X97510607Y-126145304D01*
X97129654Y-126145304D01*
X97096350Y-126154227D01*
X97062572Y-126161140D01*
X97027469Y-126178691D01*
X97014178Y-126165400D01*
X96939178Y-126145304D01*
X96864178Y-126165400D01*
X96809274Y-126220304D01*
X96789178Y-126295304D01*
X96789178Y-128295304D01*
X95532262Y-128295304D01*
X95616672Y-128210894D01*
X95631776Y-128184732D01*
X95649878Y-128160537D01*
X95840353Y-127684347D01*
X95840696Y-127681470D01*
X95842343Y-127679088D01*
X96318534Y-126345754D01*
X96324834Y-126268365D01*
X96291595Y-126198193D01*
X96227724Y-126154043D01*
X96150334Y-126147743D01*
X96080162Y-126180982D01*
X96036012Y-126244853D01*
X95701082Y-127182656D01*
X95366153Y-126244854D01*
X95322003Y-126180982D01*
X95251831Y-126147743D01*
X95174442Y-126154043D01*
X95110570Y-126198193D01*
X95077331Y-126268365D01*
X95083631Y-126345754D01*
X95540729Y-127625631D01*
X95382768Y-128020533D01*
X95326514Y-128076788D01*
X95157810Y-128161140D01*
X95099715Y-128212655D01*
X95075161Y-128286317D01*
X93170130Y-128286317D01*
X93170130Y-125628638D01*
X93455844Y-125628638D01*
X93475940Y-125703638D01*
X93530844Y-125758542D01*
X93605844Y-125778638D01*
X94027272Y-125778638D01*
X94027272Y-127628638D01*
X94047368Y-127703638D01*
X94102272Y-127758542D01*
X94177272Y-127778638D01*
X94252272Y-127758542D01*
X94307176Y-127703638D01*
X94327272Y-127628638D01*
X94327272Y-125778638D01*
X94748701Y-125778638D01*
X94823701Y-125758542D01*
X94878605Y-125703638D01*
X94898701Y-125628638D01*
X94878605Y-125553638D01*
X94823701Y-125498734D01*
X94748701Y-125478638D01*
X93605844Y-125478638D01*
X93530844Y-125498734D01*
X93475940Y-125553638D01*
X93455844Y-125628638D01*
X93170130Y-125628638D01*
X93170130Y-125192924D01*
X102041559Y-125192924D01*
X102041559Y-128731018D01*
G37*
D11*
X108339160Y-141922200D02*
X108482017Y-141969819D01*
X108482017Y-141969819D02*
X108720112Y-141969819D01*
X108720112Y-141969819D02*
X108815350Y-141922200D01*
X108815350Y-141922200D02*
X108862969Y-141874580D01*
X108862969Y-141874580D02*
X108910588Y-141779342D01*
X108910588Y-141779342D02*
X108910588Y-141684104D01*
X108910588Y-141684104D02*
X108862969Y-141588866D01*
X108862969Y-141588866D02*
X108815350Y-141541247D01*
X108815350Y-141541247D02*
X108720112Y-141493628D01*
X108720112Y-141493628D02*
X108529636Y-141446009D01*
X108529636Y-141446009D02*
X108434398Y-141398390D01*
X108434398Y-141398390D02*
X108386779Y-141350771D01*
X108386779Y-141350771D02*
X108339160Y-141255533D01*
X108339160Y-141255533D02*
X108339160Y-141160295D01*
X108339160Y-141160295D02*
X108386779Y-141065057D01*
X108386779Y-141065057D02*
X108434398Y-141017438D01*
X108434398Y-141017438D02*
X108529636Y-140969819D01*
X108529636Y-140969819D02*
X108767731Y-140969819D01*
X108767731Y-140969819D02*
X108910588Y-141017438D01*
X109243922Y-140969819D02*
X109482017Y-141969819D01*
X109482017Y-141969819D02*
X109672493Y-141255533D01*
X109672493Y-141255533D02*
X109862969Y-141969819D01*
X109862969Y-141969819D02*
X110101065Y-140969819D01*
X68917438Y-95889411D02*
X68869819Y-95984649D01*
X68869819Y-95984649D02*
X68869819Y-96127506D01*
X68869819Y-96127506D02*
X68917438Y-96270363D01*
X68917438Y-96270363D02*
X69012676Y-96365601D01*
X69012676Y-96365601D02*
X69107914Y-96413220D01*
X69107914Y-96413220D02*
X69298390Y-96460839D01*
X69298390Y-96460839D02*
X69441247Y-96460839D01*
X69441247Y-96460839D02*
X69631723Y-96413220D01*
X69631723Y-96413220D02*
X69726961Y-96365601D01*
X69726961Y-96365601D02*
X69822200Y-96270363D01*
X69822200Y-96270363D02*
X69869819Y-96127506D01*
X69869819Y-96127506D02*
X69869819Y-96032268D01*
X69869819Y-96032268D02*
X69822200Y-95889411D01*
X69822200Y-95889411D02*
X69774580Y-95841792D01*
X69774580Y-95841792D02*
X69441247Y-95841792D01*
X69441247Y-95841792D02*
X69441247Y-96032268D01*
X69869819Y-95413220D02*
X68869819Y-95413220D01*
X68869819Y-95413220D02*
X69869819Y-94841792D01*
X69869819Y-94841792D02*
X68869819Y-94841792D01*
X69869819Y-94365601D02*
X68869819Y-94365601D01*
X68869819Y-94365601D02*
X68869819Y-94127506D01*
X68869819Y-94127506D02*
X68917438Y-93984649D01*
X68917438Y-93984649D02*
X69012676Y-93889411D01*
X69012676Y-93889411D02*
X69107914Y-93841792D01*
X69107914Y-93841792D02*
X69298390Y-93794173D01*
X69298390Y-93794173D02*
X69441247Y-93794173D01*
X69441247Y-93794173D02*
X69631723Y-93841792D01*
X69631723Y-93841792D02*
X69726961Y-93889411D01*
X69726961Y-93889411D02*
X69822200Y-93984649D01*
X69822200Y-93984649D02*
X69869819Y-94127506D01*
X69869819Y-94127506D02*
X69869819Y-94365601D01*
X98508458Y-83630180D02*
X97984649Y-84296847D01*
X98508458Y-84296847D02*
X97984649Y-83630180D01*
X64119819Y-96306077D02*
X65119819Y-95972744D01*
X65119819Y-95972744D02*
X64119819Y-95639411D01*
X65119819Y-95306077D02*
X64119819Y-95306077D01*
X64119819Y-95306077D02*
X64119819Y-95067982D01*
X64119819Y-95067982D02*
X64167438Y-94925125D01*
X64167438Y-94925125D02*
X64262676Y-94829887D01*
X64262676Y-94829887D02*
X64357914Y-94782268D01*
X64357914Y-94782268D02*
X64548390Y-94734649D01*
X64548390Y-94734649D02*
X64691247Y-94734649D01*
X64691247Y-94734649D02*
X64881723Y-94782268D01*
X64881723Y-94782268D02*
X64976961Y-94829887D01*
X64976961Y-94829887D02*
X65072200Y-94925125D01*
X65072200Y-94925125D02*
X65119819Y-95067982D01*
X65119819Y-95067982D02*
X65119819Y-95306077D01*
X65119819Y-94306077D02*
X64119819Y-94306077D01*
X64119819Y-94306077D02*
X64119819Y-94067982D01*
X64119819Y-94067982D02*
X64167438Y-93925125D01*
X64167438Y-93925125D02*
X64262676Y-93829887D01*
X64262676Y-93829887D02*
X64357914Y-93782268D01*
X64357914Y-93782268D02*
X64548390Y-93734649D01*
X64548390Y-93734649D02*
X64691247Y-93734649D01*
X64691247Y-93734649D02*
X64881723Y-93782268D01*
X64881723Y-93782268D02*
X64976961Y-93829887D01*
X64976961Y-93829887D02*
X65072200Y-93925125D01*
X65072200Y-93925125D02*
X65119819Y-94067982D01*
X65119819Y-94067982D02*
X65119819Y-94306077D01*
X44810588Y-83317438D02*
X44715350Y-83269819D01*
X44715350Y-83269819D02*
X44572493Y-83269819D01*
X44572493Y-83269819D02*
X44429636Y-83317438D01*
X44429636Y-83317438D02*
X44334398Y-83412676D01*
X44334398Y-83412676D02*
X44286779Y-83507914D01*
X44286779Y-83507914D02*
X44239160Y-83698390D01*
X44239160Y-83698390D02*
X44239160Y-83841247D01*
X44239160Y-83841247D02*
X44286779Y-84031723D01*
X44286779Y-84031723D02*
X44334398Y-84126961D01*
X44334398Y-84126961D02*
X44429636Y-84222200D01*
X44429636Y-84222200D02*
X44572493Y-84269819D01*
X44572493Y-84269819D02*
X44667731Y-84269819D01*
X44667731Y-84269819D02*
X44810588Y-84222200D01*
X44810588Y-84222200D02*
X44858207Y-84174580D01*
X44858207Y-84174580D02*
X44858207Y-83841247D01*
X44858207Y-83841247D02*
X44667731Y-83841247D01*
X79360588Y-84417438D02*
X79265350Y-84369819D01*
X79265350Y-84369819D02*
X79122493Y-84369819D01*
X79122493Y-84369819D02*
X78979636Y-84417438D01*
X78979636Y-84417438D02*
X78884398Y-84512676D01*
X78884398Y-84512676D02*
X78836779Y-84607914D01*
X78836779Y-84607914D02*
X78789160Y-84798390D01*
X78789160Y-84798390D02*
X78789160Y-84941247D01*
X78789160Y-84941247D02*
X78836779Y-85131723D01*
X78836779Y-85131723D02*
X78884398Y-85226961D01*
X78884398Y-85226961D02*
X78979636Y-85322200D01*
X78979636Y-85322200D02*
X79122493Y-85369819D01*
X79122493Y-85369819D02*
X79217731Y-85369819D01*
X79217731Y-85369819D02*
X79360588Y-85322200D01*
X79360588Y-85322200D02*
X79408207Y-85274580D01*
X79408207Y-85274580D02*
X79408207Y-84941247D01*
X79408207Y-84941247D02*
X79217731Y-84941247D01*
X79836779Y-85369819D02*
X79836779Y-84369819D01*
X79836779Y-84369819D02*
X80408207Y-85369819D01*
X80408207Y-85369819D02*
X80408207Y-84369819D01*
X80884398Y-85369819D02*
X80884398Y-84369819D01*
X80884398Y-84369819D02*
X81122493Y-84369819D01*
X81122493Y-84369819D02*
X81265350Y-84417438D01*
X81265350Y-84417438D02*
X81360588Y-84512676D01*
X81360588Y-84512676D02*
X81408207Y-84607914D01*
X81408207Y-84607914D02*
X81455826Y-84798390D01*
X81455826Y-84798390D02*
X81455826Y-84941247D01*
X81455826Y-84941247D02*
X81408207Y-85131723D01*
X81408207Y-85131723D02*
X81360588Y-85226961D01*
X81360588Y-85226961D02*
X81265350Y-85322200D01*
X81265350Y-85322200D02*
X81122493Y-85369819D01*
X81122493Y-85369819D02*
X80884398Y-85369819D01*
X44239160Y-88872200D02*
X44382017Y-88919819D01*
X44382017Y-88919819D02*
X44620112Y-88919819D01*
X44620112Y-88919819D02*
X44715350Y-88872200D01*
X44715350Y-88872200D02*
X44762969Y-88824580D01*
X44762969Y-88824580D02*
X44810588Y-88729342D01*
X44810588Y-88729342D02*
X44810588Y-88634104D01*
X44810588Y-88634104D02*
X44762969Y-88538866D01*
X44762969Y-88538866D02*
X44715350Y-88491247D01*
X44715350Y-88491247D02*
X44620112Y-88443628D01*
X44620112Y-88443628D02*
X44429636Y-88396009D01*
X44429636Y-88396009D02*
X44334398Y-88348390D01*
X44334398Y-88348390D02*
X44286779Y-88300771D01*
X44286779Y-88300771D02*
X44239160Y-88205533D01*
X44239160Y-88205533D02*
X44239160Y-88110295D01*
X44239160Y-88110295D02*
X44286779Y-88015057D01*
X44286779Y-88015057D02*
X44334398Y-87967438D01*
X44334398Y-87967438D02*
X44429636Y-87919819D01*
X44429636Y-87919819D02*
X44667731Y-87919819D01*
X44667731Y-87919819D02*
X44810588Y-87967438D01*
X84241541Y-77369819D02*
X84860588Y-77369819D01*
X84860588Y-77369819D02*
X84527255Y-77750771D01*
X84527255Y-77750771D02*
X84670112Y-77750771D01*
X84670112Y-77750771D02*
X84765350Y-77798390D01*
X84765350Y-77798390D02*
X84812969Y-77846009D01*
X84812969Y-77846009D02*
X84860588Y-77941247D01*
X84860588Y-77941247D02*
X84860588Y-78179342D01*
X84860588Y-78179342D02*
X84812969Y-78274580D01*
X84812969Y-78274580D02*
X84765350Y-78322200D01*
X84765350Y-78322200D02*
X84670112Y-78369819D01*
X84670112Y-78369819D02*
X84384398Y-78369819D01*
X84384398Y-78369819D02*
X84289160Y-78322200D01*
X84289160Y-78322200D02*
X84241541Y-78274580D01*
X85146303Y-77369819D02*
X85479636Y-78369819D01*
X85479636Y-78369819D02*
X85812969Y-77369819D01*
X86051065Y-77369819D02*
X86670112Y-77369819D01*
X86670112Y-77369819D02*
X86336779Y-77750771D01*
X86336779Y-77750771D02*
X86479636Y-77750771D01*
X86479636Y-77750771D02*
X86574874Y-77798390D01*
X86574874Y-77798390D02*
X86622493Y-77846009D01*
X86622493Y-77846009D02*
X86670112Y-77941247D01*
X86670112Y-77941247D02*
X86670112Y-78179342D01*
X86670112Y-78179342D02*
X86622493Y-78274580D01*
X86622493Y-78274580D02*
X86574874Y-78322200D01*
X86574874Y-78322200D02*
X86479636Y-78369819D01*
X86479636Y-78369819D02*
X86193922Y-78369819D01*
X86193922Y-78369819D02*
X86098684Y-78322200D01*
X86098684Y-78322200D02*
X86051065Y-78274580D01*
D12*
X109933082Y-78939638D02*
X111171177Y-78939638D01*
X111171177Y-78939638D02*
X110504510Y-79701542D01*
X110504510Y-79701542D02*
X110790225Y-79701542D01*
X110790225Y-79701542D02*
X110980701Y-79796780D01*
X110980701Y-79796780D02*
X111075939Y-79892019D01*
X111075939Y-79892019D02*
X111171177Y-80082495D01*
X111171177Y-80082495D02*
X111171177Y-80558685D01*
X111171177Y-80558685D02*
X111075939Y-80749161D01*
X111075939Y-80749161D02*
X110980701Y-80844400D01*
X110980701Y-80844400D02*
X110790225Y-80939638D01*
X110790225Y-80939638D02*
X110218796Y-80939638D01*
X110218796Y-80939638D02*
X110028320Y-80844400D01*
X110028320Y-80844400D02*
X109933082Y-80749161D01*
X111742606Y-78939638D02*
X112409272Y-80939638D01*
X112409272Y-80939638D02*
X113075939Y-78939638D01*
X113552130Y-78939638D02*
X114790225Y-78939638D01*
X114790225Y-78939638D02*
X114123558Y-79701542D01*
X114123558Y-79701542D02*
X114409273Y-79701542D01*
X114409273Y-79701542D02*
X114599749Y-79796780D01*
X114599749Y-79796780D02*
X114694987Y-79892019D01*
X114694987Y-79892019D02*
X114790225Y-80082495D01*
X114790225Y-80082495D02*
X114790225Y-80558685D01*
X114790225Y-80558685D02*
X114694987Y-80749161D01*
X114694987Y-80749161D02*
X114599749Y-80844400D01*
X114599749Y-80844400D02*
X114409273Y-80939638D01*
X114409273Y-80939638D02*
X113837844Y-80939638D01*
X113837844Y-80939638D02*
X113647368Y-80844400D01*
X113647368Y-80844400D02*
X113552130Y-80749161D01*
D11*
X44286779Y-86569819D02*
X44286779Y-85569819D01*
X44286779Y-85569819D02*
X44524874Y-85569819D01*
X44524874Y-85569819D02*
X44667731Y-85617438D01*
X44667731Y-85617438D02*
X44762969Y-85712676D01*
X44762969Y-85712676D02*
X44810588Y-85807914D01*
X44810588Y-85807914D02*
X44858207Y-85998390D01*
X44858207Y-85998390D02*
X44858207Y-86141247D01*
X44858207Y-86141247D02*
X44810588Y-86331723D01*
X44810588Y-86331723D02*
X44762969Y-86426961D01*
X44762969Y-86426961D02*
X44667731Y-86522200D01*
X44667731Y-86522200D02*
X44524874Y-86569819D01*
X44524874Y-86569819D02*
X44286779Y-86569819D01*
X72693922Y-77119819D02*
X73265350Y-77119819D01*
X72979636Y-78119819D02*
X72979636Y-77119819D01*
X73598684Y-78119819D02*
X73598684Y-77453152D01*
X73598684Y-77643628D02*
X73646303Y-77548390D01*
X73646303Y-77548390D02*
X73693922Y-77500771D01*
X73693922Y-77500771D02*
X73789160Y-77453152D01*
X73789160Y-77453152D02*
X73884398Y-77453152D01*
X74217732Y-78119819D02*
X74217732Y-77453152D01*
X74217732Y-77119819D02*
X74170113Y-77167438D01*
X74170113Y-77167438D02*
X74217732Y-77215057D01*
X74217732Y-77215057D02*
X74265351Y-77167438D01*
X74265351Y-77167438D02*
X74217732Y-77119819D01*
X74217732Y-77119819D02*
X74217732Y-77215057D01*
X74693922Y-78119819D02*
X74693922Y-77453152D01*
X74693922Y-77548390D02*
X74741541Y-77500771D01*
X74741541Y-77500771D02*
X74836779Y-77453152D01*
X74836779Y-77453152D02*
X74979636Y-77453152D01*
X74979636Y-77453152D02*
X75074874Y-77500771D01*
X75074874Y-77500771D02*
X75122493Y-77596009D01*
X75122493Y-77596009D02*
X75122493Y-78119819D01*
X75122493Y-77596009D02*
X75170112Y-77500771D01*
X75170112Y-77500771D02*
X75265350Y-77453152D01*
X75265350Y-77453152D02*
X75408207Y-77453152D01*
X75408207Y-77453152D02*
X75503446Y-77500771D01*
X75503446Y-77500771D02*
X75551065Y-77596009D01*
X75551065Y-77596009D02*
X75551065Y-78119819D01*
X59943922Y-89369819D02*
X60277255Y-90369819D01*
X60277255Y-90369819D02*
X60610588Y-89369819D01*
X60943922Y-90369819D02*
X60943922Y-89369819D01*
X60943922Y-89369819D02*
X61182017Y-89369819D01*
X61182017Y-89369819D02*
X61324874Y-89417438D01*
X61324874Y-89417438D02*
X61420112Y-89512676D01*
X61420112Y-89512676D02*
X61467731Y-89607914D01*
X61467731Y-89607914D02*
X61515350Y-89798390D01*
X61515350Y-89798390D02*
X61515350Y-89941247D01*
X61515350Y-89941247D02*
X61467731Y-90131723D01*
X61467731Y-90131723D02*
X61420112Y-90226961D01*
X61420112Y-90226961D02*
X61324874Y-90322200D01*
X61324874Y-90322200D02*
X61182017Y-90369819D01*
X61182017Y-90369819D02*
X60943922Y-90369819D01*
X61943922Y-90369819D02*
X61943922Y-89369819D01*
X61943922Y-89369819D02*
X62182017Y-89369819D01*
X62182017Y-89369819D02*
X62324874Y-89417438D01*
X62324874Y-89417438D02*
X62420112Y-89512676D01*
X62420112Y-89512676D02*
X62467731Y-89607914D01*
X62467731Y-89607914D02*
X62515350Y-89798390D01*
X62515350Y-89798390D02*
X62515350Y-89941247D01*
X62515350Y-89941247D02*
X62467731Y-90131723D01*
X62467731Y-90131723D02*
X62420112Y-90226961D01*
X62420112Y-90226961D02*
X62324874Y-90322200D01*
X62324874Y-90322200D02*
X62182017Y-90369819D01*
X62182017Y-90369819D02*
X61943922Y-90369819D01*
X35543922Y-112519819D02*
X35877255Y-113519819D01*
X35877255Y-113519819D02*
X36210588Y-112519819D01*
X36877255Y-112996009D02*
X37020112Y-113043628D01*
X37020112Y-113043628D02*
X37067731Y-113091247D01*
X37067731Y-113091247D02*
X37115350Y-113186485D01*
X37115350Y-113186485D02*
X37115350Y-113329342D01*
X37115350Y-113329342D02*
X37067731Y-113424580D01*
X37067731Y-113424580D02*
X37020112Y-113472200D01*
X37020112Y-113472200D02*
X36924874Y-113519819D01*
X36924874Y-113519819D02*
X36543922Y-113519819D01*
X36543922Y-113519819D02*
X36543922Y-112519819D01*
X36543922Y-112519819D02*
X36877255Y-112519819D01*
X36877255Y-112519819D02*
X36972493Y-112567438D01*
X36972493Y-112567438D02*
X37020112Y-112615057D01*
X37020112Y-112615057D02*
X37067731Y-112710295D01*
X37067731Y-112710295D02*
X37067731Y-112805533D01*
X37067731Y-112805533D02*
X37020112Y-112900771D01*
X37020112Y-112900771D02*
X36972493Y-112948390D01*
X36972493Y-112948390D02*
X36877255Y-112996009D01*
X36877255Y-112996009D02*
X36543922Y-112996009D01*
X37496303Y-113234104D02*
X37972493Y-113234104D01*
X37401065Y-113519819D02*
X37734398Y-112519819D01*
X37734398Y-112519819D02*
X38067731Y-113519819D01*
X38258208Y-112519819D02*
X38829636Y-112519819D01*
X38543922Y-113519819D02*
X38543922Y-112519819D01*
X72119819Y-94508458D02*
X71453152Y-93984649D01*
X71453152Y-94508458D02*
X72119819Y-93984649D01*
X69062969Y-77119819D02*
X68586779Y-77119819D01*
X68586779Y-77119819D02*
X68539160Y-77596009D01*
X68539160Y-77596009D02*
X68586779Y-77548390D01*
X68586779Y-77548390D02*
X68682017Y-77500771D01*
X68682017Y-77500771D02*
X68920112Y-77500771D01*
X68920112Y-77500771D02*
X69015350Y-77548390D01*
X69015350Y-77548390D02*
X69062969Y-77596009D01*
X69062969Y-77596009D02*
X69110588Y-77691247D01*
X69110588Y-77691247D02*
X69110588Y-77929342D01*
X69110588Y-77929342D02*
X69062969Y-78024580D01*
X69062969Y-78024580D02*
X69015350Y-78072200D01*
X69015350Y-78072200D02*
X68920112Y-78119819D01*
X68920112Y-78119819D02*
X68682017Y-78119819D01*
X68682017Y-78119819D02*
X68586779Y-78072200D01*
X68586779Y-78072200D02*
X68539160Y-78024580D01*
X69396303Y-77119819D02*
X69729636Y-78119819D01*
X69729636Y-78119819D02*
X70062969Y-77119819D01*
X80943922Y-89619819D02*
X81277255Y-90619819D01*
X81277255Y-90619819D02*
X81610588Y-89619819D01*
X81943922Y-90619819D02*
X81943922Y-89619819D01*
X81943922Y-89619819D02*
X82182017Y-89619819D01*
X82182017Y-89619819D02*
X82324874Y-89667438D01*
X82324874Y-89667438D02*
X82420112Y-89762676D01*
X82420112Y-89762676D02*
X82467731Y-89857914D01*
X82467731Y-89857914D02*
X82515350Y-90048390D01*
X82515350Y-90048390D02*
X82515350Y-90191247D01*
X82515350Y-90191247D02*
X82467731Y-90381723D01*
X82467731Y-90381723D02*
X82420112Y-90476961D01*
X82420112Y-90476961D02*
X82324874Y-90572200D01*
X82324874Y-90572200D02*
X82182017Y-90619819D01*
X82182017Y-90619819D02*
X81943922Y-90619819D01*
X82943922Y-90619819D02*
X82943922Y-89619819D01*
X82943922Y-89619819D02*
X83182017Y-89619819D01*
X83182017Y-89619819D02*
X83324874Y-89667438D01*
X83324874Y-89667438D02*
X83420112Y-89762676D01*
X83420112Y-89762676D02*
X83467731Y-89857914D01*
X83467731Y-89857914D02*
X83515350Y-90048390D01*
X83515350Y-90048390D02*
X83515350Y-90191247D01*
X83515350Y-90191247D02*
X83467731Y-90381723D01*
X83467731Y-90381723D02*
X83420112Y-90476961D01*
X83420112Y-90476961D02*
X83324874Y-90572200D01*
X83324874Y-90572200D02*
X83182017Y-90619819D01*
X83182017Y-90619819D02*
X82943922Y-90619819D01*
X77758458Y-88130180D02*
X77234649Y-88796847D01*
X77758458Y-88796847D02*
X77234649Y-88130180D01*
D13*
X56964661Y-116726857D02*
X58678947Y-116726857D01*
X57821804Y-119726857D02*
X57821804Y-116726857D01*
X60964661Y-117726857D02*
X60964661Y-119726857D01*
X59678946Y-117726857D02*
X59678946Y-119298285D01*
X59678946Y-119298285D02*
X59821803Y-119584000D01*
X59821803Y-119584000D02*
X60107518Y-119726857D01*
X60107518Y-119726857D02*
X60536089Y-119726857D01*
X60536089Y-119726857D02*
X60821803Y-119584000D01*
X60821803Y-119584000D02*
X60964661Y-119441142D01*
X61964661Y-117726857D02*
X63107518Y-117726857D01*
X62393232Y-116726857D02*
X62393232Y-119298285D01*
X62393232Y-119298285D02*
X62536089Y-119584000D01*
X62536089Y-119584000D02*
X62821804Y-119726857D01*
X62821804Y-119726857D02*
X63107518Y-119726857D01*
X64536090Y-119726857D02*
X64250375Y-119584000D01*
X64250375Y-119584000D02*
X64107518Y-119441142D01*
X64107518Y-119441142D02*
X63964661Y-119155428D01*
X63964661Y-119155428D02*
X63964661Y-118298285D01*
X63964661Y-118298285D02*
X64107518Y-118012571D01*
X64107518Y-118012571D02*
X64250375Y-117869714D01*
X64250375Y-117869714D02*
X64536090Y-117726857D01*
X64536090Y-117726857D02*
X64964661Y-117726857D01*
X64964661Y-117726857D02*
X65250375Y-117869714D01*
X65250375Y-117869714D02*
X65393233Y-118012571D01*
X65393233Y-118012571D02*
X65536090Y-118298285D01*
X65536090Y-118298285D02*
X65536090Y-119155428D01*
X65536090Y-119155428D02*
X65393233Y-119441142D01*
X65393233Y-119441142D02*
X65250375Y-119584000D01*
X65250375Y-119584000D02*
X64964661Y-119726857D01*
X64964661Y-119726857D02*
X64536090Y-119726857D01*
X66821804Y-117726857D02*
X66821804Y-119726857D01*
X66821804Y-118012571D02*
X66964661Y-117869714D01*
X66964661Y-117869714D02*
X67250376Y-117726857D01*
X67250376Y-117726857D02*
X67678947Y-117726857D01*
X67678947Y-117726857D02*
X67964661Y-117869714D01*
X67964661Y-117869714D02*
X68107519Y-118155428D01*
X68107519Y-118155428D02*
X68107519Y-119726857D01*
X57393232Y-124556857D02*
X57393232Y-121556857D01*
X57393232Y-121556857D02*
X59107518Y-124556857D01*
X59107518Y-124556857D02*
X59107518Y-121556857D01*
X60393232Y-123699714D02*
X61821804Y-123699714D01*
X60107518Y-124556857D02*
X61107518Y-121556857D01*
X61107518Y-121556857D02*
X62107518Y-124556857D01*
X64678947Y-121699714D02*
X64393233Y-121556857D01*
X64393233Y-121556857D02*
X63964661Y-121556857D01*
X63964661Y-121556857D02*
X63536090Y-121699714D01*
X63536090Y-121699714D02*
X63250375Y-121985428D01*
X63250375Y-121985428D02*
X63107518Y-122271142D01*
X63107518Y-122271142D02*
X62964661Y-122842571D01*
X62964661Y-122842571D02*
X62964661Y-123271142D01*
X62964661Y-123271142D02*
X63107518Y-123842571D01*
X63107518Y-123842571D02*
X63250375Y-124128285D01*
X63250375Y-124128285D02*
X63536090Y-124414000D01*
X63536090Y-124414000D02*
X63964661Y-124556857D01*
X63964661Y-124556857D02*
X64250375Y-124556857D01*
X64250375Y-124556857D02*
X64678947Y-124414000D01*
X64678947Y-124414000D02*
X64821804Y-124271142D01*
X64821804Y-124271142D02*
X64821804Y-123271142D01*
X64821804Y-123271142D02*
X64250375Y-123271142D01*
X66678947Y-121556857D02*
X67250375Y-121556857D01*
X67250375Y-121556857D02*
X67536090Y-121699714D01*
X67536090Y-121699714D02*
X67821804Y-121985428D01*
X67821804Y-121985428D02*
X67964661Y-122556857D01*
X67964661Y-122556857D02*
X67964661Y-123556857D01*
X67964661Y-123556857D02*
X67821804Y-124128285D01*
X67821804Y-124128285D02*
X67536090Y-124414000D01*
X67536090Y-124414000D02*
X67250375Y-124556857D01*
X67250375Y-124556857D02*
X66678947Y-124556857D01*
X66678947Y-124556857D02*
X66393233Y-124414000D01*
X66393233Y-124414000D02*
X66107518Y-124128285D01*
X66107518Y-124128285D02*
X65964661Y-123556857D01*
X65964661Y-123556857D02*
X65964661Y-122556857D01*
X65964661Y-122556857D02*
X66107518Y-121985428D01*
X66107518Y-121985428D02*
X66393233Y-121699714D01*
X66393233Y-121699714D02*
X66678947Y-121556857D01*
X69821804Y-123128285D02*
X69821804Y-124556857D01*
X68821804Y-121556857D02*
X69821804Y-123128285D01*
X69821804Y-123128285D02*
X70821804Y-121556857D01*
X71678947Y-123699714D02*
X73107519Y-123699714D01*
X71393233Y-124556857D02*
X72393233Y-121556857D01*
X72393233Y-121556857D02*
X73393233Y-124556857D01*
X77250376Y-121556857D02*
X77536090Y-121556857D01*
X77536090Y-121556857D02*
X77821804Y-121699714D01*
X77821804Y-121699714D02*
X77964662Y-121842571D01*
X77964662Y-121842571D02*
X78107519Y-122128285D01*
X78107519Y-122128285D02*
X78250376Y-122699714D01*
X78250376Y-122699714D02*
X78250376Y-123414000D01*
X78250376Y-123414000D02*
X78107519Y-123985428D01*
X78107519Y-123985428D02*
X77964662Y-124271142D01*
X77964662Y-124271142D02*
X77821804Y-124414000D01*
X77821804Y-124414000D02*
X77536090Y-124556857D01*
X77536090Y-124556857D02*
X77250376Y-124556857D01*
X77250376Y-124556857D02*
X76964662Y-124414000D01*
X76964662Y-124414000D02*
X76821804Y-124271142D01*
X76821804Y-124271142D02*
X76678947Y-123985428D01*
X76678947Y-123985428D02*
X76536090Y-123414000D01*
X76536090Y-123414000D02*
X76536090Y-122699714D01*
X76536090Y-122699714D02*
X76678947Y-122128285D01*
X76678947Y-122128285D02*
X76821804Y-121842571D01*
X76821804Y-121842571D02*
X76964662Y-121699714D01*
X76964662Y-121699714D02*
X77250376Y-121556857D01*
X80964662Y-121556857D02*
X79536090Y-121556857D01*
X79536090Y-121556857D02*
X79393233Y-122985428D01*
X79393233Y-122985428D02*
X79536090Y-122842571D01*
X79536090Y-122842571D02*
X79821805Y-122699714D01*
X79821805Y-122699714D02*
X80536090Y-122699714D01*
X80536090Y-122699714D02*
X80821805Y-122842571D01*
X80821805Y-122842571D02*
X80964662Y-122985428D01*
X80964662Y-122985428D02*
X81107519Y-123271142D01*
X81107519Y-123271142D02*
X81107519Y-123985428D01*
X81107519Y-123985428D02*
X80964662Y-124271142D01*
X80964662Y-124271142D02*
X80821805Y-124414000D01*
X80821805Y-124414000D02*
X80536090Y-124556857D01*
X80536090Y-124556857D02*
X79821805Y-124556857D01*
X79821805Y-124556857D02*
X79536090Y-124414000D01*
X79536090Y-124414000D02*
X79393233Y-124271142D01*
X82393233Y-123414000D02*
X84678948Y-123414000D01*
X86107519Y-124556857D02*
X86107519Y-121556857D01*
X86107519Y-121556857D02*
X87250376Y-121556857D01*
X87250376Y-121556857D02*
X87536091Y-121699714D01*
X87536091Y-121699714D02*
X87678948Y-121842571D01*
X87678948Y-121842571D02*
X87821805Y-122128285D01*
X87821805Y-122128285D02*
X87821805Y-122556857D01*
X87821805Y-122556857D02*
X87678948Y-122842571D01*
X87678948Y-122842571D02*
X87536091Y-122985428D01*
X87536091Y-122985428D02*
X87250376Y-123128285D01*
X87250376Y-123128285D02*
X86107519Y-123128285D01*
X88821805Y-121556857D02*
X89536091Y-124556857D01*
X89536091Y-124556857D02*
X90107519Y-122414000D01*
X90107519Y-122414000D02*
X90678948Y-124556857D01*
X90678948Y-124556857D02*
X91393234Y-121556857D01*
X94250376Y-124556857D02*
X93250376Y-123128285D01*
X92536090Y-124556857D02*
X92536090Y-121556857D01*
X92536090Y-121556857D02*
X93678947Y-121556857D01*
X93678947Y-121556857D02*
X93964662Y-121699714D01*
X93964662Y-121699714D02*
X94107519Y-121842571D01*
X94107519Y-121842571D02*
X94250376Y-122128285D01*
X94250376Y-122128285D02*
X94250376Y-122556857D01*
X94250376Y-122556857D02*
X94107519Y-122842571D01*
X94107519Y-122842571D02*
X93964662Y-122985428D01*
X93964662Y-122985428D02*
X93678947Y-123128285D01*
X93678947Y-123128285D02*
X92536090Y-123128285D01*
D11*
X95119819Y-94508458D02*
X94453152Y-93984649D01*
X94453152Y-94508458D02*
X95119819Y-93984649D01*
X85119819Y-96556077D02*
X86119819Y-96222744D01*
X86119819Y-96222744D02*
X85119819Y-95889411D01*
X86119819Y-95556077D02*
X85119819Y-95556077D01*
X85119819Y-95556077D02*
X85119819Y-95317982D01*
X85119819Y-95317982D02*
X85167438Y-95175125D01*
X85167438Y-95175125D02*
X85262676Y-95079887D01*
X85262676Y-95079887D02*
X85357914Y-95032268D01*
X85357914Y-95032268D02*
X85548390Y-94984649D01*
X85548390Y-94984649D02*
X85691247Y-94984649D01*
X85691247Y-94984649D02*
X85881723Y-95032268D01*
X85881723Y-95032268D02*
X85976961Y-95079887D01*
X85976961Y-95079887D02*
X86072200Y-95175125D01*
X86072200Y-95175125D02*
X86119819Y-95317982D01*
X86119819Y-95317982D02*
X86119819Y-95556077D01*
X86119819Y-94556077D02*
X85119819Y-94556077D01*
X85119819Y-94556077D02*
X85119819Y-94317982D01*
X85119819Y-94317982D02*
X85167438Y-94175125D01*
X85167438Y-94175125D02*
X85262676Y-94079887D01*
X85262676Y-94079887D02*
X85357914Y-94032268D01*
X85357914Y-94032268D02*
X85548390Y-93984649D01*
X85548390Y-93984649D02*
X85691247Y-93984649D01*
X85691247Y-93984649D02*
X85881723Y-94032268D01*
X85881723Y-94032268D02*
X85976961Y-94079887D01*
X85976961Y-94079887D02*
X86072200Y-94175125D01*
X86072200Y-94175125D02*
X86119819Y-94317982D01*
X86119819Y-94317982D02*
X86119819Y-94556077D01*
X58168057Y-88214285D02*
X58120438Y-88166666D01*
X58120438Y-88166666D02*
X58072819Y-88071428D01*
X58072819Y-88071428D02*
X58072819Y-87833333D01*
X58072819Y-87833333D02*
X58120438Y-87738095D01*
X58120438Y-87738095D02*
X58168057Y-87690476D01*
X58168057Y-87690476D02*
X58263295Y-87642857D01*
X58263295Y-87642857D02*
X58358533Y-87642857D01*
X58358533Y-87642857D02*
X58501390Y-87690476D01*
X58501390Y-87690476D02*
X59072819Y-88261904D01*
X59072819Y-88261904D02*
X59072819Y-87642857D01*
X58168057Y-87261904D02*
X58120438Y-87214285D01*
X58120438Y-87214285D02*
X58072819Y-87119047D01*
X58072819Y-87119047D02*
X58072819Y-86880952D01*
X58072819Y-86880952D02*
X58120438Y-86785714D01*
X58120438Y-86785714D02*
X58168057Y-86738095D01*
X58168057Y-86738095D02*
X58263295Y-86690476D01*
X58263295Y-86690476D02*
X58358533Y-86690476D01*
X58358533Y-86690476D02*
X58501390Y-86738095D01*
X58501390Y-86738095D02*
X59072819Y-87309523D01*
X59072819Y-87309523D02*
X59072819Y-86690476D01*
X58406152Y-85833333D02*
X59072819Y-85833333D01*
X58406152Y-86261904D02*
X58929961Y-86261904D01*
X58929961Y-86261904D02*
X59025200Y-86214285D01*
X59025200Y-86214285D02*
X59072819Y-86119047D01*
X59072819Y-86119047D02*
X59072819Y-85976190D01*
X59072819Y-85976190D02*
X59025200Y-85880952D01*
X59025200Y-85880952D02*
X58977580Y-85833333D01*
X79396057Y-88594285D02*
X79348438Y-88546666D01*
X79348438Y-88546666D02*
X79300819Y-88451428D01*
X79300819Y-88451428D02*
X79300819Y-88213333D01*
X79300819Y-88213333D02*
X79348438Y-88118095D01*
X79348438Y-88118095D02*
X79396057Y-88070476D01*
X79396057Y-88070476D02*
X79491295Y-88022857D01*
X79491295Y-88022857D02*
X79586533Y-88022857D01*
X79586533Y-88022857D02*
X79729390Y-88070476D01*
X79729390Y-88070476D02*
X80300819Y-88641904D01*
X80300819Y-88641904D02*
X80300819Y-88022857D01*
X79396057Y-87641904D02*
X79348438Y-87594285D01*
X79348438Y-87594285D02*
X79300819Y-87499047D01*
X79300819Y-87499047D02*
X79300819Y-87260952D01*
X79300819Y-87260952D02*
X79348438Y-87165714D01*
X79348438Y-87165714D02*
X79396057Y-87118095D01*
X79396057Y-87118095D02*
X79491295Y-87070476D01*
X79491295Y-87070476D02*
X79586533Y-87070476D01*
X79586533Y-87070476D02*
X79729390Y-87118095D01*
X79729390Y-87118095D02*
X80300819Y-87689523D01*
X80300819Y-87689523D02*
X80300819Y-87070476D01*
X79634152Y-86213333D02*
X80300819Y-86213333D01*
X79634152Y-86641904D02*
X80157961Y-86641904D01*
X80157961Y-86641904D02*
X80253200Y-86594285D01*
X80253200Y-86594285D02*
X80300819Y-86499047D01*
X80300819Y-86499047D02*
X80300819Y-86356190D01*
X80300819Y-86356190D02*
X80253200Y-86260952D01*
X80253200Y-86260952D02*
X80205580Y-86213333D01*
X32084819Y-78595238D02*
X32084819Y-79166666D01*
X32084819Y-78880952D02*
X31084819Y-78880952D01*
X31084819Y-78880952D02*
X31227676Y-78976190D01*
X31227676Y-78976190D02*
X31322914Y-79071428D01*
X31322914Y-79071428D02*
X31370533Y-79166666D01*
X31084819Y-77976190D02*
X31084819Y-77880952D01*
X31084819Y-77880952D02*
X31132438Y-77785714D01*
X31132438Y-77785714D02*
X31180057Y-77738095D01*
X31180057Y-77738095D02*
X31275295Y-77690476D01*
X31275295Y-77690476D02*
X31465771Y-77642857D01*
X31465771Y-77642857D02*
X31703866Y-77642857D01*
X31703866Y-77642857D02*
X31894342Y-77690476D01*
X31894342Y-77690476D02*
X31989580Y-77738095D01*
X31989580Y-77738095D02*
X32037200Y-77785714D01*
X32037200Y-77785714D02*
X32084819Y-77880952D01*
X32084819Y-77880952D02*
X32084819Y-77976190D01*
X32084819Y-77976190D02*
X32037200Y-78071428D01*
X32037200Y-78071428D02*
X31989580Y-78119047D01*
X31989580Y-78119047D02*
X31894342Y-78166666D01*
X31894342Y-78166666D02*
X31703866Y-78214285D01*
X31703866Y-78214285D02*
X31465771Y-78214285D01*
X31465771Y-78214285D02*
X31275295Y-78166666D01*
X31275295Y-78166666D02*
X31180057Y-78119047D01*
X31180057Y-78119047D02*
X31132438Y-78071428D01*
X31132438Y-78071428D02*
X31084819Y-77976190D01*
X32084819Y-77214285D02*
X31084819Y-77214285D01*
X31703866Y-77119047D02*
X32084819Y-76833333D01*
X31418152Y-76833333D02*
X31799104Y-77214285D01*
X108404761Y-72084819D02*
X107833333Y-72084819D01*
X108119047Y-72084819D02*
X108119047Y-71084819D01*
X108119047Y-71084819D02*
X108023809Y-71227676D01*
X108023809Y-71227676D02*
X107928571Y-71322914D01*
X107928571Y-71322914D02*
X107833333Y-71370533D01*
X108833333Y-72084819D02*
X108833333Y-71084819D01*
X108928571Y-71703866D02*
X109214285Y-72084819D01*
X109214285Y-71418152D02*
X108833333Y-71799104D01*
X109595238Y-71180057D02*
X109642857Y-71132438D01*
X109642857Y-71132438D02*
X109738095Y-71084819D01*
X109738095Y-71084819D02*
X109976190Y-71084819D01*
X109976190Y-71084819D02*
X110071428Y-71132438D01*
X110071428Y-71132438D02*
X110119047Y-71180057D01*
X110119047Y-71180057D02*
X110166666Y-71275295D01*
X110166666Y-71275295D02*
X110166666Y-71370533D01*
X110166666Y-71370533D02*
X110119047Y-71513390D01*
X110119047Y-71513390D02*
X109547619Y-72084819D01*
X109547619Y-72084819D02*
X110166666Y-72084819D01*
X42404761Y-77824819D02*
X41833333Y-77824819D01*
X42119047Y-77824819D02*
X42119047Y-76824819D01*
X42119047Y-76824819D02*
X42023809Y-76967676D01*
X42023809Y-76967676D02*
X41928571Y-77062914D01*
X41928571Y-77062914D02*
X41833333Y-77110533D01*
X42833333Y-77824819D02*
X42833333Y-76824819D01*
X42928571Y-77443866D02*
X43214285Y-77824819D01*
X43214285Y-77158152D02*
X42833333Y-77539104D01*
X43595238Y-76920057D02*
X43642857Y-76872438D01*
X43642857Y-76872438D02*
X43738095Y-76824819D01*
X43738095Y-76824819D02*
X43976190Y-76824819D01*
X43976190Y-76824819D02*
X44071428Y-76872438D01*
X44071428Y-76872438D02*
X44119047Y-76920057D01*
X44119047Y-76920057D02*
X44166666Y-77015295D01*
X44166666Y-77015295D02*
X44166666Y-77110533D01*
X44166666Y-77110533D02*
X44119047Y-77253390D01*
X44119047Y-77253390D02*
X43547619Y-77824819D01*
X43547619Y-77824819D02*
X44166666Y-77824819D01*
X110180952Y-84020819D02*
X109847619Y-83544628D01*
X109609524Y-84020819D02*
X109609524Y-83020819D01*
X109609524Y-83020819D02*
X109990476Y-83020819D01*
X109990476Y-83020819D02*
X110085714Y-83068438D01*
X110085714Y-83068438D02*
X110133333Y-83116057D01*
X110133333Y-83116057D02*
X110180952Y-83211295D01*
X110180952Y-83211295D02*
X110180952Y-83354152D01*
X110180952Y-83354152D02*
X110133333Y-83449390D01*
X110133333Y-83449390D02*
X110085714Y-83497009D01*
X110085714Y-83497009D02*
X109990476Y-83544628D01*
X109990476Y-83544628D02*
X109609524Y-83544628D01*
X110466667Y-83020819D02*
X110800000Y-84020819D01*
X110800000Y-84020819D02*
X111133333Y-83020819D01*
X111942857Y-83020819D02*
X111466667Y-83020819D01*
X111466667Y-83020819D02*
X111419048Y-83497009D01*
X111419048Y-83497009D02*
X111466667Y-83449390D01*
X111466667Y-83449390D02*
X111561905Y-83401771D01*
X111561905Y-83401771D02*
X111800000Y-83401771D01*
X111800000Y-83401771D02*
X111895238Y-83449390D01*
X111895238Y-83449390D02*
X111942857Y-83497009D01*
X111942857Y-83497009D02*
X111990476Y-83592247D01*
X111990476Y-83592247D02*
X111990476Y-83830342D01*
X111990476Y-83830342D02*
X111942857Y-83925580D01*
X111942857Y-83925580D02*
X111895238Y-83973200D01*
X111895238Y-83973200D02*
X111800000Y-84020819D01*
X111800000Y-84020819D02*
X111561905Y-84020819D01*
X111561905Y-84020819D02*
X111466667Y-83973200D01*
X111466667Y-83973200D02*
X111419048Y-83925580D01*
X112276191Y-83020819D02*
X112609524Y-84020819D01*
X112609524Y-84020819D02*
X112942857Y-83020819D01*
X113276191Y-83639866D02*
X114038096Y-83639866D01*
X115038095Y-84020819D02*
X114466667Y-84020819D01*
X114752381Y-84020819D02*
X114752381Y-83020819D01*
X114752381Y-83020819D02*
X114657143Y-83163676D01*
X114657143Y-83163676D02*
X114561905Y-83258914D01*
X114561905Y-83258914D02*
X114466667Y-83306533D01*
X115371429Y-83020819D02*
X115990476Y-83020819D01*
X115990476Y-83020819D02*
X115657143Y-83401771D01*
X115657143Y-83401771D02*
X115800000Y-83401771D01*
X115800000Y-83401771D02*
X115895238Y-83449390D01*
X115895238Y-83449390D02*
X115942857Y-83497009D01*
X115942857Y-83497009D02*
X115990476Y-83592247D01*
X115990476Y-83592247D02*
X115990476Y-83830342D01*
X115990476Y-83830342D02*
X115942857Y-83925580D01*
X115942857Y-83925580D02*
X115895238Y-83973200D01*
X115895238Y-83973200D02*
X115800000Y-84020819D01*
X115800000Y-84020819D02*
X115514286Y-84020819D01*
X115514286Y-84020819D02*
X115419048Y-83973200D01*
X115419048Y-83973200D02*
X115371429Y-83925580D01*
X116847619Y-83354152D02*
X116847619Y-84020819D01*
X116609524Y-82973200D02*
X116371429Y-83687485D01*
X116371429Y-83687485D02*
X116990476Y-83687485D01*
X117561905Y-83020819D02*
X117657143Y-83020819D01*
X117657143Y-83020819D02*
X117752381Y-83068438D01*
X117752381Y-83068438D02*
X117800000Y-83116057D01*
X117800000Y-83116057D02*
X117847619Y-83211295D01*
X117847619Y-83211295D02*
X117895238Y-83401771D01*
X117895238Y-83401771D02*
X117895238Y-83639866D01*
X117895238Y-83639866D02*
X117847619Y-83830342D01*
X117847619Y-83830342D02*
X117800000Y-83925580D01*
X117800000Y-83925580D02*
X117752381Y-83973200D01*
X117752381Y-83973200D02*
X117657143Y-84020819D01*
X117657143Y-84020819D02*
X117561905Y-84020819D01*
X117561905Y-84020819D02*
X117466667Y-83973200D01*
X117466667Y-83973200D02*
X117419048Y-83925580D01*
X117419048Y-83925580D02*
X117371429Y-83830342D01*
X117371429Y-83830342D02*
X117323810Y-83639866D01*
X117323810Y-83639866D02*
X117323810Y-83401771D01*
X117323810Y-83401771D02*
X117371429Y-83211295D01*
X117371429Y-83211295D02*
X117419048Y-83116057D01*
X117419048Y-83116057D02*
X117466667Y-83068438D01*
X117466667Y-83068438D02*
X117561905Y-83020819D01*
X118276191Y-84020819D02*
X118514286Y-84020819D01*
X118514286Y-84020819D02*
X118514286Y-83830342D01*
X118514286Y-83830342D02*
X118419048Y-83782723D01*
X118419048Y-83782723D02*
X118323810Y-83687485D01*
X118323810Y-83687485D02*
X118276191Y-83544628D01*
X118276191Y-83544628D02*
X118276191Y-83306533D01*
X118276191Y-83306533D02*
X118323810Y-83163676D01*
X118323810Y-83163676D02*
X118419048Y-83068438D01*
X118419048Y-83068438D02*
X118561905Y-83020819D01*
X118561905Y-83020819D02*
X118752381Y-83020819D01*
X118752381Y-83020819D02*
X118895238Y-83068438D01*
X118895238Y-83068438D02*
X118990476Y-83163676D01*
X118990476Y-83163676D02*
X119038095Y-83306533D01*
X119038095Y-83306533D02*
X119038095Y-83544628D01*
X119038095Y-83544628D02*
X118990476Y-83687485D01*
X118990476Y-83687485D02*
X118895238Y-83782723D01*
X118895238Y-83782723D02*
X118800000Y-83830342D01*
X118800000Y-83830342D02*
X118800000Y-84020819D01*
X118800000Y-84020819D02*
X119038095Y-84020819D01*
X62602819Y-82392357D02*
X62602819Y-82963785D01*
X62602819Y-82678071D02*
X61602819Y-82678071D01*
X61602819Y-82678071D02*
X61745676Y-82773309D01*
X61745676Y-82773309D02*
X61840914Y-82868547D01*
X61840914Y-82868547D02*
X61888533Y-82963785D01*
X61602819Y-81773309D02*
X61602819Y-81678071D01*
X61602819Y-81678071D02*
X61650438Y-81582833D01*
X61650438Y-81582833D02*
X61698057Y-81535214D01*
X61698057Y-81535214D02*
X61793295Y-81487595D01*
X61793295Y-81487595D02*
X61983771Y-81439976D01*
X61983771Y-81439976D02*
X62221866Y-81439976D01*
X62221866Y-81439976D02*
X62412342Y-81487595D01*
X62412342Y-81487595D02*
X62507580Y-81535214D01*
X62507580Y-81535214D02*
X62555200Y-81582833D01*
X62555200Y-81582833D02*
X62602819Y-81678071D01*
X62602819Y-81678071D02*
X62602819Y-81773309D01*
X62602819Y-81773309D02*
X62555200Y-81868547D01*
X62555200Y-81868547D02*
X62507580Y-81916166D01*
X62507580Y-81916166D02*
X62412342Y-81963785D01*
X62412342Y-81963785D02*
X62221866Y-82011404D01*
X62221866Y-82011404D02*
X61983771Y-82011404D01*
X61983771Y-82011404D02*
X61793295Y-81963785D01*
X61793295Y-81963785D02*
X61698057Y-81916166D01*
X61698057Y-81916166D02*
X61650438Y-81868547D01*
X61650438Y-81868547D02*
X61602819Y-81773309D01*
X61936152Y-80582833D02*
X62602819Y-80582833D01*
X61936152Y-81011404D02*
X62459961Y-81011404D01*
X62459961Y-81011404D02*
X62555200Y-80963785D01*
X62555200Y-80963785D02*
X62602819Y-80868547D01*
X62602819Y-80868547D02*
X62602819Y-80725690D01*
X62602819Y-80725690D02*
X62555200Y-80630452D01*
X62555200Y-80630452D02*
X62507580Y-80582833D01*
X83830819Y-82392357D02*
X83830819Y-82963785D01*
X83830819Y-82678071D02*
X82830819Y-82678071D01*
X82830819Y-82678071D02*
X82973676Y-82773309D01*
X82973676Y-82773309D02*
X83068914Y-82868547D01*
X83068914Y-82868547D02*
X83116533Y-82963785D01*
X82830819Y-81773309D02*
X82830819Y-81678071D01*
X82830819Y-81678071D02*
X82878438Y-81582833D01*
X82878438Y-81582833D02*
X82926057Y-81535214D01*
X82926057Y-81535214D02*
X83021295Y-81487595D01*
X83021295Y-81487595D02*
X83211771Y-81439976D01*
X83211771Y-81439976D02*
X83449866Y-81439976D01*
X83449866Y-81439976D02*
X83640342Y-81487595D01*
X83640342Y-81487595D02*
X83735580Y-81535214D01*
X83735580Y-81535214D02*
X83783200Y-81582833D01*
X83783200Y-81582833D02*
X83830819Y-81678071D01*
X83830819Y-81678071D02*
X83830819Y-81773309D01*
X83830819Y-81773309D02*
X83783200Y-81868547D01*
X83783200Y-81868547D02*
X83735580Y-81916166D01*
X83735580Y-81916166D02*
X83640342Y-81963785D01*
X83640342Y-81963785D02*
X83449866Y-82011404D01*
X83449866Y-82011404D02*
X83211771Y-82011404D01*
X83211771Y-82011404D02*
X83021295Y-81963785D01*
X83021295Y-81963785D02*
X82926057Y-81916166D01*
X82926057Y-81916166D02*
X82878438Y-81868547D01*
X82878438Y-81868547D02*
X82830819Y-81773309D01*
X83164152Y-80582833D02*
X83830819Y-80582833D01*
X83164152Y-81011404D02*
X83687961Y-81011404D01*
X83687961Y-81011404D02*
X83783200Y-80963785D01*
X83783200Y-80963785D02*
X83830819Y-80868547D01*
X83830819Y-80868547D02*
X83830819Y-80725690D01*
X83830819Y-80725690D02*
X83783200Y-80630452D01*
X83783200Y-80630452D02*
X83735580Y-80582833D01*
X110347667Y-96389819D02*
X110966714Y-96389819D01*
X110966714Y-96389819D02*
X110633381Y-96770771D01*
X110633381Y-96770771D02*
X110776238Y-96770771D01*
X110776238Y-96770771D02*
X110871476Y-96818390D01*
X110871476Y-96818390D02*
X110919095Y-96866009D01*
X110919095Y-96866009D02*
X110966714Y-96961247D01*
X110966714Y-96961247D02*
X110966714Y-97199342D01*
X110966714Y-97199342D02*
X110919095Y-97294580D01*
X110919095Y-97294580D02*
X110871476Y-97342200D01*
X110871476Y-97342200D02*
X110776238Y-97389819D01*
X110776238Y-97389819D02*
X110490524Y-97389819D01*
X110490524Y-97389819D02*
X110395286Y-97342200D01*
X110395286Y-97342200D02*
X110347667Y-97294580D01*
X111252429Y-96389819D02*
X111585762Y-97389819D01*
X111585762Y-97389819D02*
X111919095Y-96389819D01*
X112157191Y-96389819D02*
X112776238Y-96389819D01*
X112776238Y-96389819D02*
X112442905Y-96770771D01*
X112442905Y-96770771D02*
X112585762Y-96770771D01*
X112585762Y-96770771D02*
X112681000Y-96818390D01*
X112681000Y-96818390D02*
X112728619Y-96866009D01*
X112728619Y-96866009D02*
X112776238Y-96961247D01*
X112776238Y-96961247D02*
X112776238Y-97199342D01*
X112776238Y-97199342D02*
X112728619Y-97294580D01*
X112728619Y-97294580D02*
X112681000Y-97342200D01*
X112681000Y-97342200D02*
X112585762Y-97389819D01*
X112585762Y-97389819D02*
X112300048Y-97389819D01*
X112300048Y-97389819D02*
X112204810Y-97342200D01*
X112204810Y-97342200D02*
X112157191Y-97294580D01*
X113204810Y-97008866D02*
X113966715Y-97008866D01*
X114395286Y-96485057D02*
X114442905Y-96437438D01*
X114442905Y-96437438D02*
X114538143Y-96389819D01*
X114538143Y-96389819D02*
X114776238Y-96389819D01*
X114776238Y-96389819D02*
X114871476Y-96437438D01*
X114871476Y-96437438D02*
X114919095Y-96485057D01*
X114919095Y-96485057D02*
X114966714Y-96580295D01*
X114966714Y-96580295D02*
X114966714Y-96675533D01*
X114966714Y-96675533D02*
X114919095Y-96818390D01*
X114919095Y-96818390D02*
X114347667Y-97389819D01*
X114347667Y-97389819D02*
X114966714Y-97389819D01*
X115919095Y-97389819D02*
X115347667Y-97389819D01*
X115633381Y-97389819D02*
X115633381Y-96389819D01*
X115633381Y-96389819D02*
X115538143Y-96532676D01*
X115538143Y-96532676D02*
X115442905Y-96627914D01*
X115442905Y-96627914D02*
X115347667Y-96675533D01*
X116490524Y-96818390D02*
X116395286Y-96770771D01*
X116395286Y-96770771D02*
X116347667Y-96723152D01*
X116347667Y-96723152D02*
X116300048Y-96627914D01*
X116300048Y-96627914D02*
X116300048Y-96580295D01*
X116300048Y-96580295D02*
X116347667Y-96485057D01*
X116347667Y-96485057D02*
X116395286Y-96437438D01*
X116395286Y-96437438D02*
X116490524Y-96389819D01*
X116490524Y-96389819D02*
X116681000Y-96389819D01*
X116681000Y-96389819D02*
X116776238Y-96437438D01*
X116776238Y-96437438D02*
X116823857Y-96485057D01*
X116823857Y-96485057D02*
X116871476Y-96580295D01*
X116871476Y-96580295D02*
X116871476Y-96627914D01*
X116871476Y-96627914D02*
X116823857Y-96723152D01*
X116823857Y-96723152D02*
X116776238Y-96770771D01*
X116776238Y-96770771D02*
X116681000Y-96818390D01*
X116681000Y-96818390D02*
X116490524Y-96818390D01*
X116490524Y-96818390D02*
X116395286Y-96866009D01*
X116395286Y-96866009D02*
X116347667Y-96913628D01*
X116347667Y-96913628D02*
X116300048Y-97008866D01*
X116300048Y-97008866D02*
X116300048Y-97199342D01*
X116300048Y-97199342D02*
X116347667Y-97294580D01*
X116347667Y-97294580D02*
X116395286Y-97342200D01*
X116395286Y-97342200D02*
X116490524Y-97389819D01*
X116490524Y-97389819D02*
X116681000Y-97389819D01*
X116681000Y-97389819D02*
X116776238Y-97342200D01*
X116776238Y-97342200D02*
X116823857Y-97294580D01*
X116823857Y-97294580D02*
X116871476Y-97199342D01*
X116871476Y-97199342D02*
X116871476Y-97008866D01*
X116871476Y-97008866D02*
X116823857Y-96913628D01*
X116823857Y-96913628D02*
X116776238Y-96866009D01*
X116776238Y-96866009D02*
X116681000Y-96818390D01*
X117490524Y-96389819D02*
X117585762Y-96389819D01*
X117585762Y-96389819D02*
X117681000Y-96437438D01*
X117681000Y-96437438D02*
X117728619Y-96485057D01*
X117728619Y-96485057D02*
X117776238Y-96580295D01*
X117776238Y-96580295D02*
X117823857Y-96770771D01*
X117823857Y-96770771D02*
X117823857Y-97008866D01*
X117823857Y-97008866D02*
X117776238Y-97199342D01*
X117776238Y-97199342D02*
X117728619Y-97294580D01*
X117728619Y-97294580D02*
X117681000Y-97342200D01*
X117681000Y-97342200D02*
X117585762Y-97389819D01*
X117585762Y-97389819D02*
X117490524Y-97389819D01*
X117490524Y-97389819D02*
X117395286Y-97342200D01*
X117395286Y-97342200D02*
X117347667Y-97294580D01*
X117347667Y-97294580D02*
X117300048Y-97199342D01*
X117300048Y-97199342D02*
X117252429Y-97008866D01*
X117252429Y-97008866D02*
X117252429Y-96770771D01*
X117252429Y-96770771D02*
X117300048Y-96580295D01*
X117300048Y-96580295D02*
X117347667Y-96485057D01*
X117347667Y-96485057D02*
X117395286Y-96437438D01*
X117395286Y-96437438D02*
X117490524Y-96389819D01*
X118204810Y-97389819D02*
X118442905Y-97389819D01*
X118442905Y-97389819D02*
X118442905Y-97199342D01*
X118442905Y-97199342D02*
X118347667Y-97151723D01*
X118347667Y-97151723D02*
X118252429Y-97056485D01*
X118252429Y-97056485D02*
X118204810Y-96913628D01*
X118204810Y-96913628D02*
X118204810Y-96675533D01*
X118204810Y-96675533D02*
X118252429Y-96532676D01*
X118252429Y-96532676D02*
X118347667Y-96437438D01*
X118347667Y-96437438D02*
X118490524Y-96389819D01*
X118490524Y-96389819D02*
X118681000Y-96389819D01*
X118681000Y-96389819D02*
X118823857Y-96437438D01*
X118823857Y-96437438D02*
X118919095Y-96532676D01*
X118919095Y-96532676D02*
X118966714Y-96675533D01*
X118966714Y-96675533D02*
X118966714Y-96913628D01*
X118966714Y-96913628D02*
X118919095Y-97056485D01*
X118919095Y-97056485D02*
X118823857Y-97151723D01*
X118823857Y-97151723D02*
X118728619Y-97199342D01*
X118728619Y-97199342D02*
X118728619Y-97389819D01*
X118728619Y-97389819D02*
X118966714Y-97389819D01*
D14*
%TO.C,22u*%
X59563000Y-87261252D02*
X59563000Y-86738748D01*
X61033000Y-87261252D02*
X61033000Y-86738748D01*
X80791000Y-87641252D02*
X80791000Y-87118748D01*
X82261000Y-87641252D02*
X82261000Y-87118748D01*
D15*
%TO.C,F1*%
X39003000Y-85214000D02*
X32273000Y-85214000D01*
X32273000Y-85214000D02*
X32273000Y-105024000D01*
X39003000Y-105024000D02*
X39003000Y-85214000D01*
X32273000Y-105024000D02*
X39003000Y-105024000D01*
D14*
%TO.C,10k*%
X34000000Y-82040000D02*
X34000000Y-81270000D01*
X32630000Y-81270000D02*
X35370000Y-81270000D01*
X35370000Y-81270000D02*
X35370000Y-74730000D01*
X32630000Y-74730000D02*
X32630000Y-81270000D01*
X35370000Y-74730000D02*
X32630000Y-74730000D01*
X34000000Y-73960000D02*
X34000000Y-74730000D01*
%TO.C,1k2*%
X104960000Y-74000000D02*
X105730000Y-74000000D01*
X105730000Y-72630000D02*
X105730000Y-75370000D01*
X105730000Y-75370000D02*
X112270000Y-75370000D01*
X112270000Y-72630000D02*
X105730000Y-72630000D01*
X112270000Y-75370000D02*
X112270000Y-72630000D01*
X113040000Y-74000000D02*
X112270000Y-74000000D01*
X47040000Y-75000000D02*
X46270000Y-75000000D01*
X46270000Y-76370000D02*
X46270000Y-73630000D01*
X46270000Y-73630000D02*
X39730000Y-73630000D01*
X39730000Y-76370000D02*
X46270000Y-76370000D01*
X39730000Y-73630000D02*
X39730000Y-76370000D01*
X38960000Y-75000000D02*
X39730000Y-75000000D01*
%TO.C,RV5V-1340\u03A9*%
X122640000Y-88169000D02*
X122640000Y-85570000D01*
X122640000Y-88169000D02*
X121121000Y-88169000D01*
X122640000Y-86870000D02*
X121881000Y-86870000D01*
X122640000Y-85570000D02*
X121121000Y-85570000D01*
X121121000Y-88169000D02*
X121121000Y-85570000D01*
X121120000Y-89405000D02*
X121120000Y-84335000D01*
X121120000Y-89405000D02*
X101830000Y-89405000D01*
X121120000Y-84335000D02*
X101830000Y-84335000D01*
X101830000Y-89405000D02*
X101830000Y-84335000D01*
%TO.C,G\u002A\u002A\u002A*%
G36*
X68492892Y-111444953D02*
G01*
X68497530Y-111472223D01*
X68456317Y-111550697D01*
X68432201Y-111563684D01*
X68379747Y-111539427D01*
X68366872Y-111472223D01*
X68390953Y-111389330D01*
X68432201Y-111380762D01*
X68492892Y-111444953D01*
G37*
G36*
X70597493Y-112291190D02*
G01*
X70681476Y-112361892D01*
X70707834Y-112462429D01*
X70701379Y-112487306D01*
X70629425Y-112552904D01*
X70519657Y-112569052D01*
X70439986Y-112534911D01*
X70404555Y-112437892D01*
X70436162Y-112332885D01*
X70492818Y-112285976D01*
X70597493Y-112291190D01*
G37*
G36*
X68503605Y-111720106D02*
G01*
X68519224Y-111805703D01*
X68523523Y-111967366D01*
X68523662Y-112037893D01*
X68529832Y-112245792D01*
X68550878Y-112368866D01*
X68590603Y-112426229D01*
X68602057Y-112431863D01*
X68677744Y-112482890D01*
X68661511Y-112530961D01*
X68565500Y-112563264D01*
X68471399Y-112569754D01*
X68326037Y-112556808D01*
X68266139Y-112513896D01*
X68262345Y-112491358D01*
X68304180Y-112422069D01*
X68340740Y-112412963D01*
X68388017Y-112387157D01*
X68412357Y-112296603D01*
X68419135Y-112125515D01*
X68412735Y-111954399D01*
X68389417Y-111865807D01*
X68343006Y-111838286D01*
X68336385Y-111838066D01*
X68274999Y-111813559D01*
X68284628Y-111760252D01*
X68350090Y-111708473D01*
X68410163Y-111690707D01*
X68469605Y-111688974D01*
X68503605Y-111720106D01*
G37*
G36*
X72782630Y-111730311D02*
G01*
X72800724Y-111864763D01*
X72808987Y-112065655D01*
X72809259Y-112114292D01*
X72809259Y-112547307D01*
X72530317Y-112558979D01*
X72343237Y-112556324D01*
X72226340Y-112523966D01*
X72164473Y-112474627D01*
X72123330Y-112384961D01*
X72093705Y-112238641D01*
X72076908Y-112065647D01*
X72074247Y-111895959D01*
X72087032Y-111759557D01*
X72116572Y-111686421D01*
X72129835Y-111681276D01*
X72158708Y-111728478D01*
X72177689Y-111850016D01*
X72182098Y-111962935D01*
X72206005Y-112198917D01*
X72273278Y-112362864D01*
X72377243Y-112444372D01*
X72488851Y-112441262D01*
X72611126Y-112348686D01*
X72683078Y-112164706D01*
X72704732Y-111913059D01*
X72715256Y-111773985D01*
X72741841Y-111691273D01*
X72756995Y-111681276D01*
X72782630Y-111730311D01*
G37*
G36*
X76888207Y-111702661D02*
G01*
X77028246Y-111764032D01*
X77109242Y-111890894D01*
X77143577Y-112097395D01*
X77147119Y-112230042D01*
X77138235Y-112436925D01*
X77115893Y-112544384D01*
X77086553Y-112551346D01*
X77056678Y-112456740D01*
X77032730Y-112259491D01*
X77031965Y-112249150D01*
X77005885Y-112039645D01*
X76960358Y-111911680D01*
X76911168Y-111857175D01*
X76804919Y-111795712D01*
X76721119Y-111808016D01*
X76624485Y-111890330D01*
X76556892Y-111991045D01*
X76525345Y-112138210D01*
X76519958Y-112282305D01*
X76511367Y-112439722D01*
X76489204Y-112544130D01*
X76467695Y-112569754D01*
X76442059Y-112520720D01*
X76423964Y-112386277D01*
X76415703Y-112185408D01*
X76415432Y-112136880D01*
X76415432Y-111704007D01*
X76676744Y-111692637D01*
X76888207Y-111702661D01*
G37*
G36*
X67931175Y-111423468D02*
G01*
X67969400Y-111447121D01*
X67990285Y-111510610D01*
X67999073Y-111633623D01*
X68001003Y-111835851D01*
X68001028Y-111910870D01*
X68004268Y-112150040D01*
X68015959Y-112303748D01*
X68039063Y-112390914D01*
X68076538Y-112430460D01*
X68082736Y-112433134D01*
X68141921Y-112479799D01*
X68114750Y-112527344D01*
X68018285Y-112561483D01*
X67919549Y-112569754D01*
X67785483Y-112552145D01*
X67739865Y-112496268D01*
X67739712Y-112491358D01*
X67781547Y-112422069D01*
X67818107Y-112412963D01*
X67857300Y-112393997D01*
X67881288Y-112324959D01*
X67893283Y-112187638D01*
X67896502Y-111968725D01*
X67893155Y-111746629D01*
X67880971Y-111610698D01*
X67856738Y-111542723D01*
X67818107Y-111524486D01*
X67748556Y-111496265D01*
X67739712Y-111472223D01*
X67784437Y-111432935D01*
X67870370Y-111419959D01*
X67931175Y-111423468D01*
G37*
G36*
X77552250Y-111464685D02*
G01*
X77565226Y-111550618D01*
X77589724Y-111653075D01*
X77669753Y-111681276D01*
X77754879Y-111713955D01*
X77774279Y-111759671D01*
X77730708Y-111823516D01*
X77669753Y-111838066D01*
X77614821Y-111847936D01*
X77583351Y-111892447D01*
X77568958Y-111993948D01*
X77565255Y-112174789D01*
X77565226Y-112203910D01*
X77558320Y-112391579D01*
X77539812Y-112521256D01*
X77513013Y-112569753D01*
X77512963Y-112569754D01*
X77486038Y-112521489D01*
X77467473Y-112392462D01*
X77460699Y-112210005D01*
X77457369Y-112017742D01*
X77442748Y-111905337D01*
X77409890Y-111848213D01*
X77351848Y-111821793D01*
X77350914Y-111821548D01*
X77280395Y-111773004D01*
X77292115Y-111713348D01*
X77376519Y-111681464D01*
X77385389Y-111681276D01*
X77445122Y-111635748D01*
X77460699Y-111550618D01*
X77478590Y-111452399D01*
X77512963Y-111419959D01*
X77552250Y-111464685D01*
G37*
G36*
X69166306Y-111414537D02*
G01*
X69186547Y-111479756D01*
X69121882Y-111553705D01*
X69058938Y-111623865D01*
X69085493Y-111662783D01*
X69139111Y-111720229D01*
X69146947Y-111795656D01*
X69105170Y-111837678D01*
X69098559Y-111838066D01*
X69069938Y-111885321D01*
X69050955Y-112007217D01*
X69046296Y-112125515D01*
X69054888Y-112282932D01*
X69077051Y-112387340D01*
X69098559Y-112412963D01*
X69144926Y-112455295D01*
X69150823Y-112491358D01*
X69111156Y-112549341D01*
X68984561Y-112569612D01*
X68967901Y-112569754D01*
X68832609Y-112552754D01*
X68785310Y-112498498D01*
X68784979Y-112491358D01*
X68813200Y-112421808D01*
X68837242Y-112412963D01*
X68865864Y-112365709D01*
X68884847Y-112243813D01*
X68889506Y-112125515D01*
X68880914Y-111968098D01*
X68858751Y-111863690D01*
X68837242Y-111838066D01*
X68788884Y-111803001D01*
X68805979Y-111717221D01*
X68850308Y-111649193D01*
X68982576Y-111494229D01*
X69070157Y-111412767D01*
X69128859Y-111393067D01*
X69166306Y-111414537D01*
G37*
G36*
X75350312Y-106465020D02*
G01*
X75628675Y-106468845D01*
X75834551Y-106475314D01*
X75975945Y-106484625D01*
X76060862Y-106496978D01*
X76097310Y-106512572D01*
X76100113Y-106519675D01*
X76080292Y-106580963D01*
X76024466Y-106728035D01*
X75936924Y-106950229D01*
X75821953Y-107236879D01*
X75683837Y-107577321D01*
X75526866Y-107960891D01*
X75355324Y-108376923D01*
X75296323Y-108519342D01*
X74494270Y-110453087D01*
X73615986Y-110467460D01*
X72737703Y-110481833D01*
X72951017Y-110327309D01*
X73252242Y-110053799D01*
X73457819Y-109738431D01*
X73568441Y-109379892D01*
X73589768Y-109120371D01*
X73583096Y-108943967D01*
X73555883Y-108785635D01*
X73499602Y-108632527D01*
X73405727Y-108471790D01*
X73265729Y-108290576D01*
X73071082Y-108076034D01*
X72813259Y-107815314D01*
X72560739Y-107569630D01*
X71737860Y-106776707D01*
X71818245Y-106628889D01*
X71898631Y-106481070D01*
X74000241Y-106467412D01*
X74544101Y-106464502D01*
X74991456Y-106463639D01*
X75350312Y-106465020D01*
G37*
G36*
X69792961Y-111702564D02*
G01*
X69999401Y-111789543D01*
X70133474Y-111951165D01*
X70172329Y-112060186D01*
X70207422Y-112203910D01*
X69835912Y-112203910D01*
X69618242Y-112211744D01*
X69499922Y-112237490D01*
X69476792Y-112284515D01*
X69544690Y-112356187D01*
X69599982Y-112394862D01*
X69696056Y-112448864D01*
X69775181Y-112451762D01*
X69886242Y-112402437D01*
X69913875Y-112387669D01*
X70051843Y-112327062D01*
X70118290Y-112326312D01*
X70105296Y-112380611D01*
X70032901Y-112459972D01*
X69861873Y-112554475D01*
X69668301Y-112562437D01*
X69486651Y-112484925D01*
X69435896Y-112441471D01*
X69325104Y-112269417D01*
X69315132Y-112084057D01*
X69355324Y-112000923D01*
X69477895Y-112000923D01*
X69567957Y-112034966D01*
X69750211Y-112047120D01*
X69915044Y-112042063D01*
X69995248Y-112022865D01*
X70010408Y-111983483D01*
X70005763Y-111968274D01*
X69925249Y-111887795D01*
X69787582Y-111851038D01*
X69634035Y-111866536D01*
X69591207Y-111882576D01*
X69484405Y-111948843D01*
X69477895Y-112000923D01*
X69355324Y-112000923D01*
X69405381Y-111897384D01*
X69466497Y-111827932D01*
X69584953Y-111726073D01*
X69687418Y-111691864D01*
X69792961Y-111702564D01*
G37*
G36*
X71819991Y-111725833D02*
G01*
X71852630Y-111858197D01*
X71867868Y-112064870D01*
X71868518Y-112125515D01*
X71857987Y-112352233D01*
X71828679Y-112502693D01*
X71784024Y-112568259D01*
X71727451Y-112540297D01*
X71712418Y-112518606D01*
X71664353Y-112483849D01*
X71636781Y-112511910D01*
X71565678Y-112549293D01*
X71434725Y-112568898D01*
X71399709Y-112569754D01*
X71239808Y-112549046D01*
X71118489Y-112469508D01*
X71063082Y-112408953D01*
X70951667Y-112224209D01*
X70945712Y-112104199D01*
X71085967Y-112104199D01*
X71122685Y-112256543D01*
X71216081Y-112386332D01*
X71347516Y-112459386D01*
X71398148Y-112465227D01*
X71511922Y-112429756D01*
X71607201Y-112360700D01*
X71703594Y-112205390D01*
X71702141Y-112046735D01*
X71606598Y-111905950D01*
X71515740Y-111844052D01*
X71367569Y-111818954D01*
X71216418Y-111873646D01*
X71124565Y-111963483D01*
X71085967Y-112104199D01*
X70945712Y-112104199D01*
X70943071Y-112050964D01*
X71037557Y-111880498D01*
X71080547Y-111834046D01*
X71254815Y-111715573D01*
X71441484Y-111680818D01*
X71605822Y-111731581D01*
X71690898Y-111748530D01*
X71717571Y-111724085D01*
X71773716Y-111677791D01*
X71819991Y-111725833D01*
G37*
G36*
X75977249Y-111722455D02*
G01*
X76130391Y-111827751D01*
X76233220Y-111969803D01*
X76258642Y-112080378D01*
X76252427Y-112144667D01*
X76218717Y-112181620D01*
X76134915Y-112198781D01*
X75978420Y-112203688D01*
X75888443Y-112203910D01*
X75672636Y-112213178D01*
X75558054Y-112242265D01*
X75542937Y-112293093D01*
X75625524Y-112367586D01*
X75698303Y-112411721D01*
X75796482Y-112456310D01*
X75876674Y-112447121D01*
X75985802Y-112377452D01*
X75997229Y-112369035D01*
X76130809Y-112287893D01*
X76212977Y-112269763D01*
X76230495Y-112309076D01*
X76170126Y-112400266D01*
X76141940Y-112429890D01*
X75962334Y-112545812D01*
X75764390Y-112570583D01*
X75575416Y-112503712D01*
X75498447Y-112441471D01*
X75391728Y-112272678D01*
X75369672Y-112088022D01*
X75395626Y-112001256D01*
X75526954Y-112001256D01*
X75574217Y-112026375D01*
X75696133Y-112043033D01*
X75814403Y-112047120D01*
X75971832Y-112039579D01*
X76076241Y-112020126D01*
X76101851Y-112001256D01*
X76056363Y-111918561D01*
X75946311Y-111851717D01*
X75814403Y-111825000D01*
X75679539Y-111852893D01*
X75570525Y-111920373D01*
X75526954Y-112001256D01*
X75395626Y-112001256D01*
X75422100Y-111912750D01*
X75538834Y-111772114D01*
X75709695Y-111691362D01*
X75804900Y-111681276D01*
X75977249Y-111722455D01*
G37*
G36*
X79717779Y-111436833D02*
G01*
X79741089Y-111498730D01*
X79754252Y-111622559D01*
X79759699Y-111825231D01*
X79760288Y-111965640D01*
X79754641Y-112239082D01*
X79738387Y-112432307D01*
X79712557Y-112535009D01*
X79702181Y-112547233D01*
X79627893Y-112546261D01*
X79609341Y-112526945D01*
X79542047Y-112499775D01*
X79497591Y-112519449D01*
X79321688Y-112574002D01*
X79134830Y-112540815D01*
X78970577Y-112426719D01*
X78954851Y-112408953D01*
X78843437Y-112224209D01*
X78841125Y-112177616D01*
X78980025Y-112177616D01*
X79049205Y-112325313D01*
X79080864Y-112360700D01*
X79194638Y-112439003D01*
X79289917Y-112465227D01*
X79403691Y-112429756D01*
X79498971Y-112360700D01*
X79590918Y-112208297D01*
X79583587Y-112049265D01*
X79478518Y-111904570D01*
X79464627Y-111893207D01*
X79312280Y-111822171D01*
X79171055Y-111835306D01*
X79057542Y-111912400D01*
X78988335Y-112033241D01*
X78980025Y-112177616D01*
X78841125Y-112177616D01*
X78834840Y-112050964D01*
X78929327Y-111880498D01*
X78972317Y-111834046D01*
X79156362Y-111709570D01*
X79352831Y-111685603D01*
X79502407Y-111735378D01*
X79569521Y-111760136D01*
X79597801Y-111721994D01*
X79603498Y-111604720D01*
X79620150Y-111468702D01*
X79673470Y-111420424D01*
X79681893Y-111419959D01*
X79717779Y-111436833D01*
G37*
G36*
X78464414Y-111724753D02*
G01*
X78610014Y-111835566D01*
X78700364Y-111984287D01*
X78715020Y-112070876D01*
X78709953Y-112140234D01*
X78679596Y-112179998D01*
X78601218Y-112198393D01*
X78452090Y-112203644D01*
X78347338Y-112203910D01*
X78157019Y-112205823D01*
X78052182Y-112215648D01*
X78013796Y-112239511D01*
X78022832Y-112283541D01*
X78033702Y-112304897D01*
X78142961Y-112419760D01*
X78288277Y-112441775D01*
X78453763Y-112368802D01*
X78462273Y-112362628D01*
X78593439Y-112284036D01*
X78671993Y-112270107D01*
X78684558Y-112314226D01*
X78617755Y-112409780D01*
X78598318Y-112429890D01*
X78434690Y-112535103D01*
X78246979Y-112570155D01*
X78074059Y-112530051D01*
X78031067Y-112502762D01*
X77907565Y-112357507D01*
X77834788Y-112174420D01*
X77826543Y-112098799D01*
X77855079Y-112012530D01*
X78016140Y-112012530D01*
X78070441Y-112037631D01*
X78201376Y-112046585D01*
X78272422Y-112047120D01*
X78429329Y-112038680D01*
X78533140Y-112016921D01*
X78558230Y-111996061D01*
X78518863Y-111932986D01*
X78434626Y-111864014D01*
X78290513Y-111818379D01*
X78143790Y-111843661D01*
X78036182Y-111929769D01*
X78018233Y-111964721D01*
X78016140Y-112012530D01*
X77855079Y-112012530D01*
X77871657Y-111962414D01*
X77985385Y-111828125D01*
X78135302Y-111724813D01*
X78288987Y-111681361D01*
X78295268Y-111681276D01*
X78464414Y-111724753D01*
G37*
G36*
X78415165Y-106453793D02*
G01*
X78634871Y-106461842D01*
X78805714Y-106475703D01*
X78906317Y-106495507D01*
X78924074Y-106510180D01*
X78904781Y-106570139D01*
X78850021Y-106714883D01*
X78764473Y-106932686D01*
X78652816Y-107211824D01*
X78519730Y-107540570D01*
X78369892Y-107907200D01*
X78261905Y-108169542D01*
X78080278Y-108608507D01*
X77932395Y-108962095D01*
X77812568Y-109241729D01*
X77715109Y-109458836D01*
X77634330Y-109624840D01*
X77564541Y-109751167D01*
X77500054Y-109849243D01*
X77435181Y-109930492D01*
X77364234Y-110006340D01*
X77330701Y-110039883D01*
X77095228Y-110239990D01*
X76849424Y-110373148D01*
X76566068Y-110449251D01*
X76217935Y-110478192D01*
X76121757Y-110479219D01*
X75920284Y-110474791D01*
X75762611Y-110463010D01*
X75674911Y-110446126D01*
X75665905Y-110440021D01*
X75680910Y-110386842D01*
X75731156Y-110249757D01*
X75811527Y-110041279D01*
X75916910Y-109773924D01*
X76042188Y-109460207D01*
X76182249Y-109112644D01*
X76331977Y-108743751D01*
X76486258Y-108366041D01*
X76639977Y-107992031D01*
X76788019Y-107634235D01*
X76925270Y-107305169D01*
X77046615Y-107017349D01*
X77146940Y-106783288D01*
X77221130Y-106615504D01*
X77264070Y-106526510D01*
X77267796Y-106520268D01*
X77331807Y-106496177D01*
X77475205Y-106477117D01*
X77676615Y-106463218D01*
X77914661Y-106454612D01*
X78167970Y-106451426D01*
X78415165Y-106453793D01*
G37*
G36*
X74980937Y-111697942D02*
G01*
X75121826Y-111781002D01*
X75159628Y-111821920D01*
X75228121Y-111936633D01*
X75256193Y-112075133D01*
X75254882Y-112248964D01*
X75231421Y-112448207D01*
X75194563Y-112551540D01*
X75154833Y-112557859D01*
X75122762Y-112466062D01*
X75108876Y-112275046D01*
X75108847Y-112264262D01*
X75094403Y-112036044D01*
X75049487Y-111897040D01*
X75026719Y-111867931D01*
X74948747Y-111800261D01*
X74882062Y-111796671D01*
X74791831Y-111839905D01*
X74735214Y-111887989D01*
X74704225Y-111973258D01*
X74691983Y-112122399D01*
X74690740Y-112231880D01*
X74685457Y-112421842D01*
X74666589Y-112527187D01*
X74629607Y-112567432D01*
X74612345Y-112569754D01*
X74568269Y-112546984D01*
X74543827Y-112465664D01*
X74534489Y-112306278D01*
X74533950Y-112231880D01*
X74528629Y-112039803D01*
X74508079Y-111925232D01*
X74465417Y-111861483D01*
X74432859Y-111839905D01*
X74331984Y-111793575D01*
X74267013Y-111805693D01*
X74197971Y-111867931D01*
X74141434Y-111981437D01*
X74117156Y-112181993D01*
X74115843Y-112259906D01*
X74107824Y-112425409D01*
X74086921Y-112537451D01*
X74063580Y-112569754D01*
X74037948Y-112520718D01*
X74019854Y-112386259D01*
X74011589Y-112185346D01*
X74011316Y-112136620D01*
X74011316Y-111703487D01*
X74228383Y-111694831D01*
X74392332Y-111702183D01*
X74526020Y-111731275D01*
X74547574Y-111740831D01*
X74655953Y-111767345D01*
X74706804Y-111738381D01*
X74829808Y-111681375D01*
X74980937Y-111697942D01*
G37*
G36*
X73797522Y-111730599D02*
G01*
X73830314Y-111841136D01*
X73850906Y-111996926D01*
X73857240Y-112178270D01*
X73847255Y-112365468D01*
X73818891Y-112538820D01*
X73796766Y-112615321D01*
X73691910Y-112781305D01*
X73535073Y-112872602D01*
X73351811Y-112884627D01*
X73167680Y-112812792D01*
X73082751Y-112743470D01*
X73005113Y-112636546D01*
X73010196Y-112577072D01*
X73080573Y-112582574D01*
X73176395Y-112649318D01*
X73317231Y-112723605D01*
X73473450Y-112731364D01*
X73602627Y-112673028D01*
X73628331Y-112644692D01*
X73690289Y-112537079D01*
X73679312Y-112491063D01*
X73597501Y-112515194D01*
X73596645Y-112515651D01*
X73408277Y-112569925D01*
X73234870Y-112540856D01*
X73090173Y-112447696D01*
X72987939Y-112309699D01*
X72949984Y-112174787D01*
X73079631Y-112174787D01*
X73144819Y-112320494D01*
X73239296Y-112400933D01*
X73387791Y-112454449D01*
X73497947Y-112436358D01*
X73596375Y-112357534D01*
X73679955Y-112211118D01*
X73669274Y-112051964D01*
X73567678Y-111904736D01*
X73530872Y-111874462D01*
X73428267Y-111807217D01*
X73353572Y-111803122D01*
X73253689Y-111859267D01*
X73253680Y-111859272D01*
X73147039Y-111946349D01*
X73088262Y-112024150D01*
X73079631Y-112174787D01*
X72949984Y-112174787D01*
X72941918Y-112146115D01*
X72965861Y-111976196D01*
X73073519Y-111819195D01*
X73089169Y-111805162D01*
X73262816Y-111707799D01*
X73448944Y-111685288D01*
X73591830Y-111731581D01*
X73676906Y-111748530D01*
X73703579Y-111724085D01*
X73754590Y-111685015D01*
X73797522Y-111730599D01*
G37*
G36*
X76090998Y-104471339D02*
G01*
X76719114Y-104472360D01*
X77308956Y-104474221D01*
X77852726Y-104476853D01*
X78342624Y-104480191D01*
X78770853Y-104484167D01*
X79129613Y-104488714D01*
X79411104Y-104493765D01*
X79607528Y-104499253D01*
X79711087Y-104505111D01*
X79725587Y-104508128D01*
X79719004Y-104572802D01*
X79680082Y-104702928D01*
X79620239Y-104869035D01*
X79550895Y-105041648D01*
X79483469Y-105191294D01*
X79429380Y-105288501D01*
X79417697Y-105302797D01*
X79354655Y-105313659D01*
X79189765Y-105323764D01*
X78925702Y-105333066D01*
X78565141Y-105341520D01*
X78110759Y-105349082D01*
X77565230Y-105355705D01*
X76931231Y-105361344D01*
X76211437Y-105365955D01*
X75499522Y-105369161D01*
X74771973Y-105371901D01*
X74141545Y-105374488D01*
X73600832Y-105377154D01*
X73142431Y-105380134D01*
X72758936Y-105383662D01*
X72442942Y-105387971D01*
X72187043Y-105393296D01*
X71983836Y-105399870D01*
X71825915Y-105407928D01*
X71705875Y-105417703D01*
X71616310Y-105429429D01*
X71549817Y-105443340D01*
X71498990Y-105459670D01*
X71456423Y-105478653D01*
X71419331Y-105498053D01*
X71172524Y-105674331D01*
X70950732Y-105911987D01*
X70791103Y-106170659D01*
X70782656Y-106189821D01*
X70719217Y-106430438D01*
X70700438Y-106720621D01*
X70726126Y-107015521D01*
X70787234Y-107248238D01*
X70835433Y-107348810D01*
X70911238Y-107461723D01*
X71024823Y-107598395D01*
X71186361Y-107770245D01*
X71406025Y-107988695D01*
X71688499Y-108259949D01*
X71977928Y-108537994D01*
X72196053Y-108756345D01*
X72349715Y-108924730D01*
X72445753Y-109052878D01*
X72491005Y-109150518D01*
X72492312Y-109227380D01*
X72456512Y-109293191D01*
X72432963Y-109318972D01*
X72386322Y-109336291D01*
X72279672Y-109350460D01*
X72106023Y-109361694D01*
X71858386Y-109370207D01*
X71529772Y-109376214D01*
X71113191Y-109379929D01*
X70601654Y-109381566D01*
X70388595Y-109381688D01*
X69880965Y-109381448D01*
X69468270Y-109380431D01*
X69140919Y-109378187D01*
X68889319Y-109374268D01*
X68703880Y-109368224D01*
X68575010Y-109359608D01*
X68493119Y-109347971D01*
X68448613Y-109332863D01*
X68431902Y-109313837D01*
X68433395Y-109290443D01*
X68433458Y-109290227D01*
X68468999Y-109190102D01*
X68539813Y-109009314D01*
X68640503Y-108760565D01*
X68765673Y-108456554D01*
X68909929Y-108109982D01*
X69067873Y-107733551D01*
X69234109Y-107339961D01*
X69403243Y-106941913D01*
X69569878Y-106552108D01*
X69728617Y-106183246D01*
X69874066Y-105848029D01*
X70000828Y-105559156D01*
X70103507Y-105329330D01*
X70176708Y-105171250D01*
X70214109Y-105098977D01*
X70393604Y-104895232D01*
X70638637Y-104707732D01*
X70910917Y-104564785D01*
X70964257Y-104544395D01*
X71018593Y-104531175D01*
X71106871Y-104519594D01*
X71235376Y-104509550D01*
X71410392Y-104500940D01*
X71638203Y-104493662D01*
X71925095Y-104487612D01*
X72277352Y-104482687D01*
X72701257Y-104478785D01*
X73203097Y-104475803D01*
X73789154Y-104473637D01*
X74465715Y-104472184D01*
X75239063Y-104471343D01*
X75432409Y-104471224D01*
X76090998Y-104471339D01*
G37*
%TO.C,Q1*%
X43808000Y-82692000D02*
X41268000Y-82692000D01*
X43808000Y-82692000D02*
X43808000Y-89512000D01*
X43069000Y-82692000D02*
X43069000Y-82803000D01*
X41268000Y-82692000D02*
X41268000Y-89512000D01*
X43069000Y-84821000D02*
X43069000Y-85094000D01*
X43069000Y-87111000D02*
X43069000Y-87384000D01*
X43069000Y-89401000D02*
X43069000Y-89512000D01*
X43808000Y-89512000D02*
X41268000Y-89512000D01*
D16*
%TO.C,SW1*%
X110709859Y-145525000D02*
X110709859Y-137395000D01*
X120361859Y-145525000D02*
X110709859Y-145525000D01*
X120869859Y-145524000D02*
X120869859Y-137396000D01*
X123290142Y-145524000D02*
X120869859Y-145524000D01*
X120869859Y-137396000D02*
X123290142Y-137396000D01*
X110709859Y-137395000D02*
X120361859Y-137395000D01*
X120361859Y-137395000D02*
X120361859Y-145525000D01*
X123290142Y-137396000D02*
G75*
G03*
X123290142Y-145524000I6604003J-4064000D01*
G01*
D14*
%TO.C,10u*%
X61208000Y-81038248D02*
X61208000Y-82460752D01*
X59388000Y-81038248D02*
X59388000Y-82460752D01*
%TO.C,G\u002A\u002A\u002A*%
G36*
X62139783Y-110470456D02*
G01*
X62195624Y-110477451D01*
X62244874Y-110491928D01*
X62287057Y-110510082D01*
X62399791Y-110577870D01*
X62489070Y-110665555D01*
X62556318Y-110772755D01*
X62582457Y-110829477D01*
X62597877Y-110876460D01*
X62605321Y-110926435D01*
X62607529Y-110992134D01*
X62607585Y-111010908D01*
X62605782Y-111085726D01*
X62598841Y-111141541D01*
X62584467Y-111190676D01*
X62566140Y-111233312D01*
X62496515Y-111347704D01*
X62406949Y-111439107D01*
X62300205Y-111505637D01*
X62179048Y-111545414D01*
X62092033Y-111556121D01*
X62009986Y-111555497D01*
X61938599Y-111546625D01*
X61912207Y-111539828D01*
X61787727Y-111484387D01*
X61684850Y-111406163D01*
X61602759Y-111304435D01*
X61563293Y-111232142D01*
X61541578Y-111179865D01*
X61529044Y-111130251D01*
X61523425Y-111071045D01*
X61522384Y-111010908D01*
X61523771Y-110939761D01*
X61529761Y-110887283D01*
X61543094Y-110840740D01*
X61566512Y-110787401D01*
X61573650Y-110772755D01*
X61643075Y-110662841D01*
X61732960Y-110575746D01*
X61842911Y-110510082D01*
X61895668Y-110488096D01*
X61945287Y-110475408D01*
X62004135Y-110469712D01*
X62064984Y-110468638D01*
X62139783Y-110470456D01*
G37*
G36*
X58088471Y-103418660D02*
G01*
X58111806Y-103459176D01*
X58149008Y-103524210D01*
X58199264Y-103612331D01*
X58261766Y-103722109D01*
X58335702Y-103852114D01*
X58420263Y-104000913D01*
X58514637Y-104167078D01*
X58618015Y-104349178D01*
X58729585Y-104545782D01*
X58848539Y-104755460D01*
X58974064Y-104976782D01*
X59105351Y-105208316D01*
X59241589Y-105448632D01*
X59381967Y-105696301D01*
X59525677Y-105949891D01*
X59671906Y-106207971D01*
X59819845Y-106469113D01*
X59968683Y-106731884D01*
X60117609Y-106994855D01*
X60265814Y-107256595D01*
X60412487Y-107515673D01*
X60556817Y-107770660D01*
X60697995Y-108020124D01*
X60835208Y-108262636D01*
X60967648Y-108496764D01*
X61094504Y-108721078D01*
X61214965Y-108934148D01*
X61328222Y-109134544D01*
X61433462Y-109320834D01*
X61529877Y-109491588D01*
X61616655Y-109645377D01*
X61692986Y-109780768D01*
X61758061Y-109896333D01*
X61776314Y-109928785D01*
X61765632Y-109939925D01*
X61732193Y-109963066D01*
X61680829Y-109995103D01*
X61616374Y-110032932D01*
X61597636Y-110043577D01*
X61521304Y-110085931D01*
X61467525Y-110113675D01*
X61431987Y-110128555D01*
X61410374Y-110132318D01*
X61398375Y-110126710D01*
X61396913Y-110124856D01*
X61387578Y-110108934D01*
X61363562Y-110067034D01*
X61325661Y-110000559D01*
X61274671Y-109910914D01*
X61211389Y-109799504D01*
X61136610Y-109667733D01*
X61051131Y-109517006D01*
X60955747Y-109348727D01*
X60851256Y-109164302D01*
X60738452Y-108965136D01*
X60618133Y-108752631D01*
X60491094Y-108528194D01*
X60358132Y-108293230D01*
X60220042Y-108049142D01*
X60077621Y-107797335D01*
X60028266Y-107710059D01*
X59884735Y-107456315D01*
X59745344Y-107210043D01*
X59610883Y-106972631D01*
X59482142Y-106745467D01*
X59359908Y-106529937D01*
X59244971Y-106327430D01*
X59138121Y-106139332D01*
X59040145Y-105967031D01*
X58951834Y-105811914D01*
X58873976Y-105675369D01*
X58807361Y-105558783D01*
X58752777Y-105463544D01*
X58711013Y-105391038D01*
X58682859Y-105342653D01*
X58669104Y-105319777D01*
X58667833Y-105318053D01*
X58659525Y-105331413D01*
X58636272Y-105370557D01*
X58598903Y-105434055D01*
X58548248Y-105520478D01*
X58485138Y-105628396D01*
X58410403Y-105756381D01*
X58324873Y-105903002D01*
X58229379Y-106066831D01*
X58124749Y-106246438D01*
X58011816Y-106440394D01*
X57891408Y-106647269D01*
X57764356Y-106865634D01*
X57631491Y-107094060D01*
X57493641Y-107331118D01*
X57351638Y-107575378D01*
X57206312Y-107825410D01*
X57058493Y-108079786D01*
X56909011Y-108337076D01*
X56758696Y-108595850D01*
X56608379Y-108854680D01*
X56458889Y-109112136D01*
X56311057Y-109366789D01*
X56165713Y-109617209D01*
X56023687Y-109861967D01*
X55885810Y-110099633D01*
X55752911Y-110328780D01*
X55625821Y-110547976D01*
X55505370Y-110755792D01*
X55392388Y-110950800D01*
X55287705Y-111131570D01*
X55192152Y-111296673D01*
X55106559Y-111444679D01*
X55031755Y-111574158D01*
X54968571Y-111683683D01*
X54917838Y-111771823D01*
X54880385Y-111837148D01*
X54857042Y-111878230D01*
X54848658Y-111893588D01*
X54863695Y-111894973D01*
X54909183Y-111896307D01*
X54984119Y-111897585D01*
X55087499Y-111898804D01*
X55218319Y-111899961D01*
X55375577Y-111901052D01*
X55558267Y-111902074D01*
X55765387Y-111903022D01*
X55995932Y-111903894D01*
X56248899Y-111904685D01*
X56523285Y-111905393D01*
X56818086Y-111906013D01*
X57132298Y-111906543D01*
X57464917Y-111906978D01*
X57814940Y-111907315D01*
X58181363Y-111907551D01*
X58563183Y-111907682D01*
X58839525Y-111907709D01*
X62835634Y-111907709D01*
X62835634Y-112127895D01*
X62835634Y-112348080D01*
X57850598Y-112348080D01*
X52865562Y-112348080D01*
X53010444Y-112098276D01*
X53029969Y-112064607D01*
X53064625Y-112004842D01*
X53113764Y-111920097D01*
X53120947Y-111907709D01*
X53616181Y-111907709D01*
X54014855Y-111906467D01*
X54121817Y-111905836D01*
X54216419Y-111904702D01*
X54294749Y-111903159D01*
X54352897Y-111901303D01*
X54386950Y-111899229D01*
X54393870Y-111897293D01*
X54375821Y-111876533D01*
X54374210Y-111867071D01*
X54381999Y-111851684D01*
X54404926Y-111810244D01*
X54442328Y-111743898D01*
X54493545Y-111653794D01*
X54557916Y-111541079D01*
X54634780Y-111406901D01*
X54723475Y-111252406D01*
X54823340Y-111078741D01*
X54933714Y-110887055D01*
X55053936Y-110678494D01*
X55183345Y-110454206D01*
X55321280Y-110215337D01*
X55467079Y-109963035D01*
X55620081Y-109698447D01*
X55779625Y-109422721D01*
X55945050Y-109137003D01*
X56115695Y-108842441D01*
X56290898Y-108540182D01*
X56395201Y-108360320D01*
X56572704Y-108054251D01*
X56746037Y-107755310D01*
X56914542Y-107464638D01*
X57077557Y-107183377D01*
X57234421Y-106912668D01*
X57384475Y-106653653D01*
X57527057Y-106407473D01*
X57661507Y-106175269D01*
X57787165Y-105958182D01*
X57903371Y-105757355D01*
X58009463Y-105573928D01*
X58104782Y-105409043D01*
X58188666Y-105263842D01*
X58260455Y-105139465D01*
X58319489Y-105037053D01*
X58365108Y-104957750D01*
X58396650Y-104902695D01*
X58413456Y-104873029D01*
X58416192Y-104867898D01*
X58408679Y-104848853D01*
X58387963Y-104808750D01*
X58356776Y-104752199D01*
X58317851Y-104683808D01*
X58273920Y-104608187D01*
X58227717Y-104529946D01*
X58181973Y-104453693D01*
X58139421Y-104384037D01*
X58102794Y-104325589D01*
X58074825Y-104282958D01*
X58058246Y-104260752D01*
X58055067Y-104258766D01*
X58046292Y-104273319D01*
X58022386Y-104313988D01*
X57983988Y-104379674D01*
X57931736Y-104469275D01*
X57866270Y-104581692D01*
X57788229Y-104715825D01*
X57698251Y-104870572D01*
X57596976Y-105044835D01*
X57485041Y-105237513D01*
X57363087Y-105447505D01*
X57231752Y-105673712D01*
X57091675Y-105915033D01*
X56943495Y-106170369D01*
X56787850Y-106438618D01*
X56625380Y-106718682D01*
X56456724Y-107009458D01*
X56282520Y-107309849D01*
X56103408Y-107618752D01*
X55920026Y-107935069D01*
X55859935Y-108038731D01*
X55675047Y-108357683D01*
X55494103Y-108669825D01*
X55317749Y-108974042D01*
X55146632Y-109269220D01*
X54981398Y-109554242D01*
X54822694Y-109827996D01*
X54671166Y-110089365D01*
X54527460Y-110337235D01*
X54392223Y-110570491D01*
X54266100Y-110788018D01*
X54149739Y-110988702D01*
X54043786Y-111171428D01*
X53948887Y-111335080D01*
X53865688Y-111478545D01*
X53794836Y-111600707D01*
X53736978Y-111700452D01*
X53692759Y-111776664D01*
X53662826Y-111828229D01*
X53647825Y-111854033D01*
X53646326Y-111856594D01*
X53616181Y-111907709D01*
X53120947Y-111907709D01*
X53176741Y-111811487D01*
X53252908Y-111680129D01*
X53341618Y-111527137D01*
X53442224Y-111353629D01*
X53554080Y-111160719D01*
X53676537Y-110949523D01*
X53808950Y-110721158D01*
X53950671Y-110476739D01*
X54101054Y-110217381D01*
X54259451Y-109944201D01*
X54425215Y-109658313D01*
X54597700Y-109360835D01*
X54776258Y-109052882D01*
X54960243Y-108735569D01*
X55149007Y-108410013D01*
X55341904Y-108077329D01*
X55538287Y-107738632D01*
X55608823Y-107616980D01*
X55856928Y-107189160D01*
X56089687Y-106787974D01*
X56307462Y-106412806D01*
X56510614Y-106063037D01*
X56699506Y-105738051D01*
X56874500Y-105437229D01*
X57035958Y-105159956D01*
X57184242Y-104905612D01*
X57319714Y-104673582D01*
X57442737Y-104463247D01*
X57553673Y-104273990D01*
X57652883Y-104105194D01*
X57740730Y-103956242D01*
X57817575Y-103826516D01*
X57883782Y-103715398D01*
X57939711Y-103622272D01*
X57985726Y-103546519D01*
X58022188Y-103487523D01*
X58049459Y-103444667D01*
X58067902Y-103417332D01*
X58077878Y-103404902D01*
X58079812Y-103404091D01*
X58088471Y-103418660D01*
G37*
%TO.C,10u*%
X82436000Y-81038248D02*
X82436000Y-82460752D01*
X80616000Y-81038248D02*
X80616000Y-82460752D01*
%TO.C,G\u002A\u002A\u002A*%
G36*
X89279869Y-104837480D02*
G01*
X89648734Y-104920634D01*
X90013225Y-105057166D01*
X90148637Y-105119858D01*
X90318853Y-105219679D01*
X90517700Y-105362799D01*
X90723516Y-105530020D01*
X90914636Y-105702142D01*
X91069396Y-105859965D01*
X91166134Y-105984292D01*
X91187728Y-106040741D01*
X91164010Y-106072863D01*
X91082899Y-106095212D01*
X90929463Y-106109242D01*
X90688766Y-106116404D01*
X90391770Y-106118181D01*
X89595813Y-106118181D01*
X89382587Y-105863095D01*
X89131247Y-105617738D01*
X88837425Y-105442508D01*
X88481610Y-105329509D01*
X88044292Y-105270848D01*
X87899199Y-105262863D01*
X87369329Y-105264067D01*
X86870402Y-105317916D01*
X86353428Y-105431131D01*
X86065274Y-105514440D01*
X85838571Y-105579976D01*
X85718312Y-105604396D01*
X85703491Y-105588821D01*
X85793101Y-105534374D01*
X85986136Y-105442179D01*
X86223182Y-105338220D01*
X86753445Y-105127214D01*
X87226601Y-104976463D01*
X87678125Y-104877247D01*
X88143498Y-104820849D01*
X88387955Y-104806175D01*
X88871364Y-104801421D01*
X89279869Y-104837480D01*
G37*
G36*
X85440243Y-106291353D02*
G01*
X85447754Y-106291363D01*
X85624650Y-106305525D01*
X85699539Y-106350096D01*
X85703637Y-106370016D01*
X85689705Y-106505573D01*
X85652310Y-106718978D01*
X85598051Y-106982033D01*
X85533526Y-107266542D01*
X85465335Y-107544306D01*
X85400076Y-107787129D01*
X85344348Y-107966813D01*
X85311572Y-108045290D01*
X85126328Y-108254482D01*
X84871537Y-108392624D01*
X84576456Y-108448392D01*
X84328843Y-108425598D01*
X84181499Y-108368251D01*
X84029504Y-108273821D01*
X83909110Y-108169090D01*
X83856568Y-108080843D01*
X83856364Y-108076515D01*
X83900439Y-108021336D01*
X84009399Y-107938184D01*
X84039164Y-107918779D01*
X84221964Y-107803038D01*
X84378935Y-107919092D01*
X84554874Y-107997267D01*
X84715280Y-107975743D01*
X84833385Y-107858114D01*
X84833386Y-107858113D01*
X84865547Y-107762814D01*
X84911454Y-107581706D01*
X84964470Y-107342622D01*
X85007984Y-107126000D01*
X85069846Y-106802932D01*
X85116839Y-106575957D01*
X85157863Y-106428186D01*
X85201817Y-106342729D01*
X85257598Y-106302697D01*
X85334108Y-106291201D01*
X85440243Y-106291353D01*
G37*
G36*
X89021888Y-106293457D02*
G01*
X89101160Y-106310337D01*
X89147250Y-106357903D01*
X89162089Y-106452053D01*
X89147609Y-106608687D01*
X89105744Y-106843703D01*
X89038425Y-107173000D01*
X89023413Y-107245148D01*
X88968219Y-107511369D01*
X88922745Y-107732495D01*
X88891537Y-107886293D01*
X88879140Y-107950530D01*
X88879095Y-107951022D01*
X88931897Y-107957908D01*
X89072029Y-107963007D01*
X89271370Y-107965387D01*
X89313403Y-107965454D01*
X89564753Y-107973029D01*
X89716376Y-108002894D01*
X89783421Y-108065760D01*
X89781032Y-108172336D01*
X89748331Y-108272999D01*
X89689676Y-108427272D01*
X88998927Y-108427272D01*
X88728161Y-108423233D01*
X88501693Y-108412235D01*
X88343247Y-108395959D01*
X88276556Y-108376107D01*
X88277226Y-108305446D01*
X88298651Y-108141068D01*
X88337717Y-107902213D01*
X88391309Y-107608124D01*
X88446331Y-107327242D01*
X88511423Y-107003753D01*
X88567753Y-106721842D01*
X88611657Y-106500011D01*
X88639471Y-106356758D01*
X88647728Y-106310453D01*
X88699376Y-106299063D01*
X88830039Y-106292235D01*
X88907500Y-106291363D01*
X89021888Y-106293457D01*
G37*
G36*
X91575363Y-106266267D02*
G01*
X91840396Y-106368962D01*
X91909126Y-106416979D01*
X92061376Y-106536740D01*
X91902646Y-106702419D01*
X91794393Y-106805539D01*
X91718995Y-106832792D01*
X91633957Y-106795789D01*
X91612170Y-106781776D01*
X91394382Y-106701705D01*
X91164250Y-106721458D01*
X90947464Y-106831849D01*
X90769718Y-107023695D01*
X90726476Y-107098435D01*
X90625981Y-107380852D01*
X90622461Y-107633188D01*
X90715416Y-107840145D01*
X90752149Y-107881487D01*
X90930008Y-107998887D01*
X91130058Y-108008953D01*
X91324213Y-107936235D01*
X91483957Y-107865474D01*
X91586685Y-107863389D01*
X91669290Y-107931493D01*
X91684641Y-107951022D01*
X91753596Y-108075162D01*
X91729122Y-108170462D01*
X91602788Y-108267266D01*
X91595582Y-108271548D01*
X91340422Y-108376006D01*
X91038514Y-108432807D01*
X90752656Y-108430751D01*
X90725910Y-108426628D01*
X90434708Y-108326071D01*
X90218560Y-108144840D01*
X90083798Y-107895035D01*
X90036754Y-107588753D01*
X90083758Y-107238096D01*
X90090619Y-107212613D01*
X90222611Y-106913901D01*
X90428232Y-106659577D01*
X90686900Y-106458646D01*
X90978033Y-106320114D01*
X91281048Y-106252986D01*
X91575363Y-106266267D01*
G37*
G36*
X90974514Y-108778743D02*
G01*
X90817741Y-109001630D01*
X90595079Y-109259983D01*
X90335642Y-109523657D01*
X90068542Y-109762512D01*
X89892939Y-109898560D01*
X89353108Y-110231918D01*
X88757564Y-110508438D01*
X88129405Y-110722317D01*
X87491728Y-110867753D01*
X86867631Y-110938946D01*
X86280211Y-110930092D01*
X85963410Y-110885604D01*
X85362718Y-110726489D01*
X84856781Y-110501757D01*
X84445097Y-110211024D01*
X84127159Y-109853908D01*
X83902466Y-109430023D01*
X83848773Y-109275683D01*
X83793010Y-109078977D01*
X83759561Y-108929113D01*
X83755050Y-108856225D01*
X83756205Y-108854552D01*
X83798319Y-108883095D01*
X83875554Y-108987008D01*
X83933735Y-109080611D01*
X84180038Y-109405526D01*
X84513685Y-109681281D01*
X84892721Y-109893393D01*
X85042351Y-109962393D01*
X85168395Y-110010886D01*
X85295875Y-110042447D01*
X85449810Y-110060651D01*
X85655219Y-110069074D01*
X85937124Y-110071293D01*
X86136591Y-110071159D01*
X86598886Y-110062846D01*
X86977805Y-110035237D01*
X87304706Y-109981941D01*
X87610944Y-109896566D01*
X87927876Y-109772721D01*
X88185910Y-109653429D01*
X88491921Y-109482236D01*
X88776262Y-109267911D01*
X89038522Y-109022275D01*
X89458179Y-108600454D01*
X90268490Y-108600454D01*
X91078800Y-108600454D01*
X90974514Y-108778743D01*
G37*
G36*
X97556284Y-106062334D02*
G01*
X97708524Y-106071338D01*
X97789528Y-106092515D01*
X97821396Y-106130913D01*
X97826364Y-106178237D01*
X97813102Y-106260256D01*
X97776702Y-106432981D01*
X97722242Y-106675166D01*
X97654800Y-106965565D01*
X97579454Y-107282929D01*
X97501282Y-107606013D01*
X97425363Y-107913570D01*
X97356774Y-108184352D01*
X97300594Y-108397113D01*
X97271585Y-108499431D01*
X97267999Y-108540600D01*
X97297828Y-108568819D01*
X97378399Y-108586497D01*
X97527035Y-108596048D01*
X97761062Y-108599881D01*
X97997468Y-108600454D01*
X98329933Y-108601946D01*
X98561954Y-108612977D01*
X98708540Y-108643382D01*
X98784701Y-108702994D01*
X98805445Y-108801649D01*
X98785784Y-108949181D01*
X98753938Y-109096090D01*
X98683993Y-109408636D01*
X97358594Y-109408636D01*
X96921056Y-109407489D01*
X96586095Y-109403537D01*
X96340851Y-109396013D01*
X96172462Y-109384149D01*
X96068070Y-109367178D01*
X96014814Y-109344333D01*
X96002142Y-109327714D01*
X96009592Y-109258606D01*
X96041496Y-109095088D01*
X96093660Y-108854596D01*
X96161889Y-108554563D01*
X96241990Y-108212423D01*
X96329768Y-107845612D01*
X96421030Y-107471563D01*
X96511581Y-107107710D01*
X96597227Y-106771489D01*
X96673775Y-106480334D01*
X96737029Y-106251678D01*
X96763827Y-106161477D01*
X96794514Y-106112462D01*
X96864781Y-106082133D01*
X96997354Y-106066293D01*
X97214958Y-106060743D01*
X97310709Y-106060454D01*
X97556284Y-106062334D01*
G37*
G36*
X95664122Y-106074574D02*
G01*
X95839147Y-106084821D01*
X95925369Y-106100232D01*
X95928998Y-106102724D01*
X95932242Y-106173844D01*
X95907232Y-106336308D01*
X95858980Y-106570903D01*
X95792500Y-106858415D01*
X95712804Y-107179631D01*
X95624907Y-107515338D01*
X95533822Y-107846323D01*
X95444562Y-108153371D01*
X95362140Y-108417269D01*
X95291570Y-108618805D01*
X95243996Y-108727943D01*
X95019375Y-109025415D01*
X94709269Y-109250075D01*
X94348751Y-109388591D01*
X94140124Y-109425887D01*
X93874470Y-109449998D01*
X93586272Y-109460481D01*
X93310012Y-109456891D01*
X93080171Y-109438782D01*
X92933978Y-109406837D01*
X92852652Y-109366101D01*
X92814738Y-109308639D01*
X92816094Y-109205664D01*
X92852576Y-109028387D01*
X92869381Y-108957949D01*
X92936360Y-108732901D01*
X93011912Y-108608642D01*
X93110611Y-108570664D01*
X93230806Y-108598082D01*
X93437102Y-108645382D01*
X93674990Y-108655459D01*
X93897513Y-108630009D01*
X94057713Y-108570727D01*
X94061576Y-108568086D01*
X94163805Y-108476811D01*
X94251432Y-108347519D01*
X94333092Y-108160808D01*
X94417419Y-107897277D01*
X94503646Y-107574774D01*
X94579937Y-107269763D01*
X94626463Y-107059149D01*
X94641983Y-106925453D01*
X94625254Y-106851198D01*
X94575031Y-106818905D01*
X94490072Y-106811093D01*
X94449319Y-106810909D01*
X94331986Y-106804697D01*
X94270138Y-106770785D01*
X94257156Y-106686256D01*
X94286417Y-106528196D01*
X94324233Y-106377954D01*
X94398966Y-106089318D01*
X95141049Y-106073088D01*
X95423642Y-106070371D01*
X95664122Y-106074574D01*
G37*
G36*
X102097584Y-106043023D02*
G01*
X102432384Y-106090886D01*
X102646591Y-106153173D01*
X102815423Y-106228357D01*
X102899743Y-106294106D01*
X102925127Y-106375780D01*
X102923886Y-106428109D01*
X102895314Y-106624786D01*
X102842671Y-106832671D01*
X102776832Y-107020894D01*
X102708673Y-107158586D01*
X102649069Y-107214875D01*
X102646666Y-107215000D01*
X102555619Y-107183498D01*
X102410487Y-107102514D01*
X102301006Y-107030064D01*
X101984110Y-106871754D01*
X101638335Y-106810696D01*
X101293333Y-106849028D01*
X101059902Y-106940523D01*
X100795598Y-107144687D01*
X100608435Y-107424496D01*
X100507128Y-107762604D01*
X100493980Y-108067197D01*
X100526729Y-108327125D01*
X100597586Y-108496380D01*
X100723275Y-108597746D01*
X100920517Y-108654006D01*
X100925285Y-108654824D01*
X101296776Y-108661626D01*
X101697641Y-108559945D01*
X102130464Y-108349070D01*
X102207961Y-108301965D01*
X102317876Y-108258166D01*
X102394271Y-108296179D01*
X102424000Y-108361988D01*
X102419502Y-108482160D01*
X102378827Y-108679391D01*
X102352416Y-108783321D01*
X102242500Y-109202401D01*
X101838410Y-109331473D01*
X101497705Y-109411121D01*
X101114272Y-109453897D01*
X100727567Y-109458951D01*
X100377047Y-109425434D01*
X100142671Y-109367999D01*
X99820951Y-109198236D01*
X99576294Y-108950424D01*
X99413490Y-108636549D01*
X99337332Y-108268600D01*
X99352611Y-107858565D01*
X99418959Y-107557409D01*
X99609380Y-107098510D01*
X99889926Y-106711055D01*
X100257415Y-106398487D01*
X100703922Y-106166126D01*
X100985493Y-106088667D01*
X101336631Y-106042164D01*
X101719831Y-106026866D01*
X102097584Y-106043023D01*
G37*
G36*
X105071966Y-106066831D02*
G01*
X105443954Y-106088072D01*
X105732980Y-106127339D01*
X105954993Y-106187797D01*
X106125940Y-106272609D01*
X106261771Y-106384938D01*
X106267637Y-106391029D01*
X106450979Y-106641041D01*
X106530998Y-106909535D01*
X106512585Y-107218302D01*
X106481984Y-107346464D01*
X106340637Y-107646604D01*
X106102576Y-107904160D01*
X105780968Y-108111989D01*
X105388978Y-108262950D01*
X104939773Y-108349902D01*
X104597112Y-108368860D01*
X104180814Y-108369545D01*
X104117437Y-108614886D01*
X104059483Y-108836066D01*
X103996236Y-109073067D01*
X103983541Y-109120000D01*
X103913022Y-109379772D01*
X103408749Y-109396465D01*
X103151431Y-109400626D01*
X102989107Y-109390885D01*
X102901887Y-109364837D01*
X102873214Y-109331690D01*
X102872324Y-109283534D01*
X102887967Y-109179309D01*
X102921800Y-109012109D01*
X102975478Y-108775026D01*
X103050656Y-108461154D01*
X103148989Y-108063586D01*
X103272133Y-107575413D01*
X103287202Y-107516424D01*
X104407536Y-107516424D01*
X104437965Y-107592043D01*
X104525605Y-107614460D01*
X104679036Y-107602971D01*
X104694257Y-107601183D01*
X104888079Y-107568592D01*
X105049388Y-107525090D01*
X105098348Y-107504520D01*
X105217635Y-107409091D01*
X105310235Y-107297195D01*
X105370311Y-107130135D01*
X105329358Y-106987747D01*
X105200993Y-106881081D01*
X104998834Y-106821187D01*
X104736499Y-106819113D01*
X104722897Y-106820626D01*
X104620824Y-106846314D01*
X104555791Y-106913789D01*
X104504124Y-107053547D01*
X104483984Y-107128409D01*
X104425736Y-107368311D01*
X104407536Y-107516424D01*
X103287202Y-107516424D01*
X103421744Y-106989730D01*
X103599476Y-106299629D01*
X103605340Y-106276931D01*
X103661269Y-106060454D01*
X104601066Y-106060454D01*
X105071966Y-106066831D01*
G37*
G36*
X108996591Y-106034117D02*
G01*
X109327736Y-106039502D01*
X109572951Y-106055223D01*
X109761563Y-106084833D01*
X109922896Y-106131882D01*
X109977955Y-106152970D01*
X110129637Y-106221247D01*
X110220201Y-106293764D01*
X110255410Y-106394715D01*
X110241031Y-106548294D01*
X110182828Y-106778695D01*
X110152342Y-106884812D01*
X110083277Y-107085811D01*
X110008215Y-107187652D01*
X109905062Y-107196402D01*
X109751719Y-107118126D01*
X109623678Y-107029936D01*
X109442311Y-106916702D01*
X109264334Y-106854164D01*
X109034417Y-106823944D01*
X108995581Y-106821287D01*
X108637855Y-106839835D01*
X108347912Y-106949391D01*
X108116023Y-107155396D01*
X107963081Y-107398679D01*
X107851635Y-107696428D01*
X107805971Y-107992128D01*
X107826292Y-108257982D01*
X107912802Y-108466194D01*
X107954876Y-108516487D01*
X108052488Y-108596600D01*
X108166662Y-108639677D01*
X108335964Y-108656377D01*
X108467472Y-108658181D01*
X108697865Y-108647471D01*
X108893526Y-108606235D01*
X109107323Y-108520818D01*
X109229439Y-108461359D01*
X109490646Y-108344273D01*
X109665650Y-108300076D01*
X109757464Y-108328376D01*
X109773881Y-108390153D01*
X109758129Y-108476431D01*
X109718891Y-108637945D01*
X109667113Y-108830807D01*
X109562372Y-109205478D01*
X109164027Y-109333011D01*
X108830123Y-109411048D01*
X108451977Y-109453389D01*
X108069102Y-109459190D01*
X107721014Y-109427607D01*
X107477207Y-109369057D01*
X107188508Y-109218619D01*
X106942599Y-108999245D01*
X106768333Y-108740069D01*
X106715934Y-108600454D01*
X106681950Y-108396603D01*
X106667850Y-108142389D01*
X106672721Y-107960021D01*
X106761351Y-107491019D01*
X106953467Y-107064834D01*
X107241810Y-106691648D01*
X107619120Y-106381642D01*
X107917050Y-106214840D01*
X108088480Y-106136649D01*
X108230752Y-106084682D01*
X108375043Y-106053720D01*
X108552532Y-106038544D01*
X108794395Y-106033935D01*
X108996591Y-106034117D01*
G37*
G36*
X111715964Y-106065745D02*
G01*
X112012841Y-106070211D01*
X112389538Y-106078481D01*
X112671169Y-106088780D01*
X112878125Y-106103450D01*
X113030796Y-106124836D01*
X113149569Y-106155279D01*
X113254836Y-106197125D01*
X113298534Y-106217978D01*
X113552261Y-106392657D01*
X113704217Y-106619507D01*
X113758800Y-106905333D01*
X113759091Y-106930734D01*
X113747786Y-107084264D01*
X113699576Y-107204691D01*
X113593017Y-107333781D01*
X113510181Y-107415561D01*
X113261272Y-107654058D01*
X113398167Y-107757319D01*
X113563415Y-107944633D01*
X113634528Y-108171345D01*
X113617708Y-108419744D01*
X113519161Y-108672117D01*
X113345089Y-108910752D01*
X113101697Y-109117936D01*
X112878268Y-109241638D01*
X112766517Y-109288192D01*
X112655213Y-109323264D01*
X112525249Y-109348884D01*
X112357518Y-109367083D01*
X112132912Y-109379890D01*
X111832324Y-109389336D01*
X111436648Y-109397451D01*
X111406861Y-109397987D01*
X110996380Y-109403920D01*
X110687964Y-109404634D01*
X110468314Y-109399504D01*
X110324132Y-109387903D01*
X110242120Y-109369206D01*
X110208978Y-109342788D01*
X110208498Y-109341606D01*
X110214681Y-109267536D01*
X110246825Y-109096777D01*
X110301544Y-108844299D01*
X110344636Y-108658181D01*
X111440827Y-108658181D01*
X111748482Y-108658092D01*
X111991348Y-108635837D01*
X112209458Y-108578362D01*
X112258182Y-108557069D01*
X112397275Y-108468138D01*
X112453658Y-108364838D01*
X112460228Y-108285557D01*
X112438270Y-108169139D01*
X112360267Y-108093382D01*
X112208022Y-108050009D01*
X111963340Y-108030746D01*
X111895958Y-108028936D01*
X111735922Y-108033284D01*
X111633138Y-108069764D01*
X111566133Y-108161262D01*
X111513435Y-108330668D01*
X111481632Y-108470568D01*
X111440827Y-108658181D01*
X110344636Y-108658181D01*
X110375454Y-108525077D01*
X110465169Y-108154081D01*
X110567305Y-107746286D01*
X110583569Y-107682551D01*
X110682448Y-107295200D01*
X111796686Y-107295200D01*
X111846651Y-107319216D01*
X111973076Y-107320778D01*
X112140067Y-107304007D01*
X112311728Y-107273025D01*
X112452167Y-107231953D01*
X112487439Y-107215884D01*
X112583158Y-107109082D01*
X112604546Y-107017656D01*
X112571594Y-106910509D01*
X112462868Y-106845220D01*
X112263558Y-106815348D01*
X112131009Y-106811697D01*
X111988598Y-106821579D01*
X111913482Y-106874629D01*
X111863751Y-107003852D01*
X111857127Y-107027386D01*
X111818168Y-107179653D01*
X111797616Y-107283318D01*
X111796686Y-107295200D01*
X110682448Y-107295200D01*
X110687996Y-107273466D01*
X110782425Y-106901928D01*
X110863237Y-106582307D01*
X110926812Y-106328974D01*
X110969531Y-106156299D01*
X110987775Y-106078653D01*
X110988182Y-106075944D01*
X111042837Y-106068977D01*
X111194576Y-106064886D01*
X111425064Y-106063774D01*
X111715964Y-106065745D01*
G37*
G36*
X87600138Y-106592543D02*
G01*
X87766410Y-106654282D01*
X87969267Y-106825582D01*
X88095664Y-107063206D01*
X88128182Y-107272160D01*
X88090038Y-107479931D01*
X87992393Y-107712006D01*
X87860423Y-107914211D01*
X87800280Y-107977684D01*
X87635810Y-108090564D01*
X87434153Y-108179131D01*
X87226354Y-108235958D01*
X87043460Y-108253617D01*
X86916514Y-108224681D01*
X86886949Y-108196207D01*
X86810281Y-108169726D01*
X86743019Y-108196207D01*
X86557205Y-108249431D01*
X86363716Y-108235659D01*
X86213887Y-108159424D01*
X86203266Y-108148522D01*
X86111142Y-107970058D01*
X86108903Y-107807720D01*
X86454091Y-107807720D01*
X86489483Y-107960763D01*
X86584103Y-108025746D01*
X86720613Y-108001026D01*
X86881679Y-107884957D01*
X86914619Y-107851382D01*
X87057151Y-107649124D01*
X87110281Y-107454098D01*
X87077166Y-107307094D01*
X86982004Y-107226046D01*
X86855680Y-107231385D01*
X86718994Y-107306397D01*
X86592746Y-107434371D01*
X86497738Y-107598593D01*
X86454771Y-107782350D01*
X86454091Y-107807720D01*
X86108903Y-107807720D01*
X86108268Y-107761643D01*
X86180605Y-107544914D01*
X86314116Y-107341509D01*
X86494762Y-107173064D01*
X86708505Y-107061216D01*
X86930830Y-107027139D01*
X87161607Y-107033161D01*
X87398444Y-107036402D01*
X87420459Y-107036501D01*
X87533280Y-107036604D01*
X87602427Y-107048270D01*
X87627684Y-107089799D01*
X87608835Y-107179493D01*
X87545665Y-107335653D01*
X87437958Y-107576579D01*
X87413447Y-107631200D01*
X87344495Y-107806993D01*
X87311129Y-107938514D01*
X87318299Y-107993266D01*
X87399583Y-107982425D01*
X87516872Y-107898823D01*
X87645616Y-107767996D01*
X87761263Y-107615482D01*
X87839259Y-107466817D01*
X87847186Y-107443171D01*
X87870569Y-107215017D01*
X87788713Y-107025076D01*
X87598002Y-106866189D01*
X87539614Y-106833931D01*
X87320149Y-106772156D01*
X87042358Y-106767685D01*
X86746189Y-106817228D01*
X86471595Y-106917500D01*
X86461365Y-106922653D01*
X86216058Y-107103091D01*
X86022804Y-107351916D01*
X85903892Y-107634288D01*
X85876819Y-107836233D01*
X85908087Y-108097700D01*
X86008360Y-108288768D01*
X86187340Y-108416510D01*
X86454730Y-108487999D01*
X86801467Y-108510259D01*
X87058150Y-108503520D01*
X87252599Y-108472797D01*
X87437342Y-108406733D01*
X87566474Y-108344853D01*
X87741746Y-108263907D01*
X87874618Y-108216879D01*
X87933389Y-108213237D01*
X87951207Y-108295257D01*
X87876488Y-108392803D01*
X87729159Y-108495283D01*
X87529146Y-108592105D01*
X87296374Y-108672677D01*
X87050769Y-108726408D01*
X86944773Y-108738737D01*
X86703441Y-108745304D01*
X86462981Y-108731567D01*
X86345579Y-108714210D01*
X86022181Y-108603251D01*
X85787113Y-108427067D01*
X85646268Y-108192669D01*
X85605536Y-107907067D01*
X85610438Y-107839516D01*
X85705620Y-107453335D01*
X85902412Y-107121372D01*
X86201235Y-106843054D01*
X86454091Y-106688711D01*
X86704219Y-106600370D01*
X87006629Y-106554160D01*
X87319282Y-106551183D01*
X87600138Y-106592543D01*
G37*
%TO.C,3V3-2180\u03A9*%
X122640000Y-94569000D02*
X122640000Y-91970000D01*
X122640000Y-94569000D02*
X121121000Y-94569000D01*
X122640000Y-93270000D02*
X121881000Y-93270000D01*
X122640000Y-91970000D02*
X121121000Y-91970000D01*
X121121000Y-94569000D02*
X121121000Y-91970000D01*
X121120000Y-95805000D02*
X121120000Y-90735000D01*
X121120000Y-95805000D02*
X101830000Y-95805000D01*
X121120000Y-90735000D02*
X101830000Y-90735000D01*
X101830000Y-95805000D02*
X101830000Y-90735000D01*
%TD*%
%LPC*%
D17*
%TO.C,22u*%
X60298000Y-88037500D03*
X60298000Y-85962500D03*
%TD*%
%TO.C,22u*%
X81526000Y-88417500D03*
X81526000Y-86342500D03*
%TD*%
D18*
%TO.C,F1*%
X37338000Y-88384000D03*
X33938000Y-88384000D03*
X37338000Y-101854000D03*
X33938000Y-101854000D03*
%TD*%
D19*
%TO.C,10k*%
X34000000Y-83080000D03*
D20*
X34000000Y-72920000D03*
%TD*%
D21*
%TO.C,H2*%
X102600000Y-100000000D03*
X103302944Y-98302944D03*
X103302944Y-101697056D03*
X105000000Y-97600000D03*
D22*
X105000000Y-100000000D03*
D21*
X105000000Y-102400000D03*
X106697056Y-98302944D03*
X106697056Y-101697056D03*
X107400000Y-100000000D03*
%TD*%
D19*
%TO.C,1k2*%
X103920000Y-74000000D03*
D20*
X114080000Y-74000000D03*
%TD*%
D19*
%TO.C,1k2*%
X48080000Y-75000000D03*
D20*
X37920000Y-75000000D03*
%TD*%
D23*
%TO.C,RV5V-1340\u03A9*%
X105000000Y-85600000D03*
X112620000Y-88140000D03*
X117700000Y-85600000D03*
%TD*%
D24*
%TO.C,U2*%
X69342000Y-91706000D03*
X64762000Y-91706000D03*
D25*
X64762000Y-89763600D03*
D26*
X63742000Y-88396000D03*
X63742000Y-86106000D03*
D27*
X64762000Y-84958650D03*
D26*
X63742000Y-83816000D03*
D28*
X65862200Y-81381600D03*
D24*
X64762000Y-80506000D03*
X69342000Y-80506000D03*
X73922000Y-80506000D03*
D26*
X74942000Y-86106000D03*
X74942000Y-88396000D03*
D24*
X73922000Y-91706000D03*
X71632000Y-91706000D03*
D29*
X71632000Y-79756000D03*
D26*
X74942000Y-83816000D03*
%TD*%
D30*
%TO.C,Q1*%
X42418000Y-83812000D03*
D31*
X42418000Y-86102000D03*
X42418000Y-88392000D03*
%TD*%
D21*
%TO.C,H4*%
X47600000Y-80000000D03*
X48302944Y-78302944D03*
X48302944Y-81697056D03*
X50000000Y-77600000D03*
D22*
X50000000Y-80000000D03*
D21*
X50000000Y-82400000D03*
X51697056Y-78302944D03*
X51697056Y-81697056D03*
X52400000Y-80000000D03*
%TD*%
D23*
%TO.C,SW1*%
X117059859Y-144000000D03*
X117059859Y-138920000D03*
X111979859Y-138920000D03*
X111979859Y-141460000D03*
X111979859Y-144000000D03*
%TD*%
D32*
%TO.C,10u*%
X60298000Y-80187000D03*
X60298000Y-83312000D03*
%TD*%
D21*
%TO.C,H1*%
X47600000Y-100000000D03*
X48302944Y-98302944D03*
X48302944Y-101697056D03*
X50000000Y-97600000D03*
D22*
X50000000Y-100000000D03*
D21*
X50000000Y-102400000D03*
X51697056Y-98302944D03*
X51697056Y-101697056D03*
X52400000Y-100000000D03*
%TD*%
D33*
%TO.C,J2*%
X36994000Y-109474000D03*
D34*
X44794000Y-109474000D03*
%TD*%
D32*
%TO.C,10u*%
X81526000Y-80187000D03*
X81526000Y-83312000D03*
%TD*%
D21*
%TO.C,H3*%
X102600000Y-80000000D03*
X103302944Y-78302944D03*
X103302944Y-81697056D03*
X105000000Y-77600000D03*
D22*
X105000000Y-80000000D03*
D21*
X105000000Y-82400000D03*
X106697056Y-78302944D03*
X106697056Y-81697056D03*
X107400000Y-80000000D03*
%TD*%
D35*
%TO.C,J1*%
X43406000Y-132080000D03*
D36*
X48006000Y-132080000D03*
%TD*%
D24*
%TO.C,U1*%
X90170000Y-91706000D03*
X85590000Y-91706000D03*
D25*
X85590000Y-89763600D03*
D26*
X84570000Y-88396000D03*
X84570000Y-86106000D03*
D27*
X85590000Y-84958650D03*
D26*
X84570000Y-83816000D03*
D28*
X86690200Y-81381600D03*
D24*
X85590000Y-80506000D03*
X90170000Y-80506000D03*
X94750000Y-80506000D03*
D26*
X95770000Y-86106000D03*
X95770000Y-88396000D03*
D24*
X94750000Y-91706000D03*
X92460000Y-91706000D03*
D29*
X92460000Y-79756000D03*
D26*
X95770000Y-83816000D03*
%TD*%
D23*
%TO.C,3V3-2180\u03A9*%
X105000000Y-92000000D03*
X112620000Y-94540000D03*
X117700000Y-92000000D03*
%TD*%
%LPD*%
M02*
