%TF.GenerationSoftware,KiCad,Pcbnew,7.0.9*%
%TF.CreationDate,2025-02-06T13:00:42+09:00*%
%TF.ProjectId,05-PWR,30352d50-5752-42e6-9b69-6361645f7063,rev?*%
%TF.SameCoordinates,Original*%
%TF.FileFunction,Copper,L1,Top*%
%TF.FilePolarity,Positive*%
%FSLAX46Y46*%
G04 Gerber Fmt 4.6, Leading zero omitted, Abs format (unit mm)*
G04 Created by KiCad (PCBNEW 7.0.9) date 2025-02-06 13:00:42*
%MOMM*%
%LPD*%
G01*
G04 APERTURE LIST*
G04 Aperture macros list*
%AMRoundRect*
0 Rectangle with rounded corners*
0 $1 Rounding radius*
0 $2 $3 $4 $5 $6 $7 $8 $9 X,Y pos of 4 corners*
0 Add a 4 corners polygon primitive as box body*
4,1,4,$2,$3,$4,$5,$6,$7,$8,$9,$2,$3,0*
0 Add four circle primitives for the rounded corners*
1,1,$1+$1,$2,$3*
1,1,$1+$1,$4,$5*
1,1,$1+$1,$6,$7*
1,1,$1+$1,$8,$9*
0 Add four rect primitives between the rounded corners*
20,1,$1+$1,$2,$3,$4,$5,0*
20,1,$1+$1,$4,$5,$6,$7,0*
20,1,$1+$1,$6,$7,$8,$9,0*
20,1,$1+$1,$8,$9,$2,$3,0*%
G04 Aperture macros list end*
%TA.AperFunction,SMDPad,CuDef*%
%ADD10RoundRect,0.250000X0.475000X-0.337500X0.475000X0.337500X-0.475000X0.337500X-0.475000X-0.337500X0*%
%TD*%
%TA.AperFunction,ComponentPad*%
%ADD11C,2.400000*%
%TD*%
%TA.AperFunction,ComponentPad*%
%ADD12C,1.600000*%
%TD*%
%TA.AperFunction,ComponentPad*%
%ADD13O,1.600000X1.600000*%
%TD*%
%TA.AperFunction,ComponentPad*%
%ADD14C,0.800000*%
%TD*%
%TA.AperFunction,ComponentPad*%
%ADD15C,6.400000*%
%TD*%
%TA.AperFunction,ComponentPad*%
%ADD16C,1.800000*%
%TD*%
%TA.AperFunction,SMDPad,CuDef*%
%ADD17R,1.200000X3.000000*%
%TD*%
%TA.AperFunction,SMDPad,CuDef*%
%ADD18R,2.000000X4.000000*%
%TD*%
%TA.AperFunction,SMDPad,CuDef*%
%ADD19R,3.000000X1.200000*%
%TD*%
%TA.AperFunction,SMDPad,CuDef*%
%ADD20R,1.770000X4.112100*%
%TD*%
%TA.AperFunction,SMDPad,CuDef*%
%ADD21R,4.170000X1.862000*%
%TD*%
%TA.AperFunction,SMDPad,CuDef*%
%ADD22R,1.200000X1.500000*%
%TD*%
%TA.AperFunction,ComponentPad*%
%ADD23R,1.800000X1.717500*%
%TD*%
%TA.AperFunction,ComponentPad*%
%ADD24O,1.800000X1.717500*%
%TD*%
%TA.AperFunction,SMDPad,CuDef*%
%ADD25RoundRect,0.250000X-0.650000X0.412500X-0.650000X-0.412500X0.650000X-0.412500X0.650000X0.412500X0*%
%TD*%
%TA.AperFunction,ComponentPad*%
%ADD26RoundRect,0.250002X-1.699998X-1.699998X1.699998X-1.699998X1.699998X1.699998X-1.699998X1.699998X0*%
%TD*%
%TA.AperFunction,ComponentPad*%
%ADD27C,3.900000*%
%TD*%
%TA.AperFunction,ComponentPad*%
%ADD28RoundRect,0.250001X-0.799999X-0.799999X0.799999X-0.799999X0.799999X0.799999X-0.799999X0.799999X0*%
%TD*%
%TA.AperFunction,ComponentPad*%
%ADD29C,2.100000*%
%TD*%
%TA.AperFunction,ViaPad*%
%ADD30C,0.800000*%
%TD*%
%TA.AperFunction,Conductor*%
%ADD31C,0.250000*%
%TD*%
G04 APERTURE END LIST*
D10*
%TO.P,22u,1*%
%TO.N,VDD*%
X60298000Y-88037500D03*
%TO.P,22u,2*%
%TO.N,GND*%
X60298000Y-85962500D03*
%TD*%
%TO.P,22u,1*%
%TO.N,VDD*%
X81526000Y-88417500D03*
%TO.P,22u,2*%
%TO.N,GND*%
X81526000Y-86342500D03*
%TD*%
D11*
%TO.P,F1,1*%
%TO.N,Net-(Q1-S)*%
X37338000Y-88384000D03*
X33938000Y-88384000D03*
%TO.P,F1,2*%
%TO.N,Net-(J2-Pin_1)*%
X37338000Y-101854000D03*
X33938000Y-101854000D03*
%TD*%
D12*
%TO.P,10k,1*%
%TO.N,Net-(Q1-S)*%
X34000000Y-83080000D03*
D13*
%TO.P,10k,2*%
%TO.N,Net-(Q1-G)*%
X34000000Y-72920000D03*
%TD*%
D14*
%TO.P,H2,1,1*%
%TO.N,GND*%
X102600000Y-100000000D03*
X103302944Y-98302944D03*
X103302944Y-101697056D03*
X105000000Y-97600000D03*
D15*
X105000000Y-100000000D03*
D14*
X105000000Y-102400000D03*
X106697056Y-98302944D03*
X106697056Y-101697056D03*
X107400000Y-100000000D03*
%TD*%
D12*
%TO.P,1k2,1*%
%TO.N,+3V3*%
X103920000Y-74000000D03*
D13*
%TO.P,1k2,2*%
%TO.N,GND*%
X114080000Y-74000000D03*
%TD*%
D12*
%TO.P,1k2,1*%
%TO.N,+5V*%
X48080000Y-75000000D03*
D13*
%TO.P,1k2,2*%
%TO.N,GND*%
X37920000Y-75000000D03*
%TD*%
D16*
%TO.P,RV5V-1340\u03A9,1,1*%
%TO.N,Net-(U2-Trim)*%
X105000000Y-85600000D03*
%TO.P,RV5V-1340\u03A9,2,2*%
%TO.N,GND*%
X112620000Y-88140000D03*
%TO.P,RV5V-1340\u03A9,3,3*%
X117700000Y-85600000D03*
%TD*%
D17*
%TO.P,U2,1,ON/OFF*%
%TO.N,GND*%
X69342000Y-91706000D03*
%TO.P,U2,2,Vin*%
%TO.N,VDD*%
X64762000Y-91706000D03*
D18*
X64762000Y-89763600D03*
D19*
X63742000Y-88396000D03*
%TO.P,U2,3,GND*%
%TO.N,GND*%
X63742000Y-86106000D03*
D20*
X64762000Y-84958650D03*
D19*
X63742000Y-83816000D03*
D21*
%TO.P,U2,4,Vout*%
%TO.N,+5V*%
X65862200Y-81381600D03*
D17*
X64762000Y-80506000D03*
%TO.P,U2,5,Sense*%
X69342000Y-80506000D03*
%TO.P,U2,6,Trim*%
%TO.N,Net-(U2-Trim)*%
X73922000Y-80506000D03*
D19*
%TO.P,U2,7,GND*%
%TO.N,GND*%
X74942000Y-86106000D03*
%TO.P,U2,8,N.C.*%
%TO.N,unconnected-(U2-N.C.-Pad8)*%
X74942000Y-88396000D03*
D17*
%TO.P,U2,9,Sequence*%
%TO.N,unconnected-(U2-Sequence-Pad9)*%
X73922000Y-91706000D03*
%TO.P,U2,10,PGOOD*%
%TO.N,unconnected-(U2-PGOOD-Pad10)*%
X71632000Y-91706000D03*
D22*
%TO.P,U2,11,N.C.*%
%TO.N,unconnected-(U2-N.C.-Pad11)*%
X71632000Y-79756000D03*
D19*
%TO.P,U2,12,N.C.*%
%TO.N,unconnected-(U2-N.C.-Pad12)*%
X74942000Y-83816000D03*
%TD*%
D23*
%TO.P,Q1,1,G*%
%TO.N,Net-(Q1-G)*%
X42418000Y-83812000D03*
D24*
%TO.P,Q1,2,D*%
%TO.N,VDD*%
X42418000Y-86102000D03*
%TO.P,Q1,3,S*%
%TO.N,Net-(Q1-S)*%
X42418000Y-88392000D03*
%TD*%
D14*
%TO.P,H4,1,1*%
%TO.N,+5V*%
X47600000Y-80000000D03*
X48302944Y-78302944D03*
X48302944Y-81697056D03*
X50000000Y-77600000D03*
D15*
X50000000Y-80000000D03*
D14*
X50000000Y-82400000D03*
X51697056Y-78302944D03*
X51697056Y-81697056D03*
X52400000Y-80000000D03*
%TD*%
D16*
%TO.P,SW1,*%
%TO.N,*%
X117059859Y-144000000D03*
X117059859Y-138920000D03*
%TO.P,SW1,1,A*%
%TO.N,GND*%
X111979859Y-138920000D03*
%TO.P,SW1,2,B*%
%TO.N,Net-(Q1-G)*%
X111979859Y-141460000D03*
%TO.P,SW1,3*%
%TO.N,N/C*%
X111979859Y-144000000D03*
%TD*%
D25*
%TO.P,10u,1*%
%TO.N,+5V*%
X60298000Y-80187000D03*
%TO.P,10u,2*%
%TO.N,GND*%
X60298000Y-83312000D03*
%TD*%
D14*
%TO.P,H1,1,1*%
%TO.N,VDD*%
X47600000Y-100000000D03*
X48302944Y-98302944D03*
X48302944Y-101697056D03*
X50000000Y-97600000D03*
D15*
X50000000Y-100000000D03*
D14*
X50000000Y-102400000D03*
X51697056Y-98302944D03*
X51697056Y-101697056D03*
X52400000Y-100000000D03*
%TD*%
D26*
%TO.P,J2,1,Pin_1*%
%TO.N,Net-(J2-Pin_1)*%
X36994000Y-109474000D03*
D27*
%TO.P,J2,2,Pin_2*%
%TO.N,GND*%
X44794000Y-109474000D03*
%TD*%
D25*
%TO.P,10u,1*%
%TO.N,+3V3*%
X81526000Y-80187000D03*
%TO.P,10u,2*%
%TO.N,GND*%
X81526000Y-83312000D03*
%TD*%
D14*
%TO.P,H3,1,1*%
%TO.N,+3V3*%
X102600000Y-80000000D03*
X103302944Y-78302944D03*
X103302944Y-81697056D03*
X105000000Y-77600000D03*
D15*
X105000000Y-80000000D03*
D14*
X105000000Y-82400000D03*
X106697056Y-78302944D03*
X106697056Y-81697056D03*
X107400000Y-80000000D03*
%TD*%
D28*
%TO.P,J1,1,Pin_1*%
%TO.N,VDD*%
X43406000Y-132080000D03*
D29*
%TO.P,J1,2,Pin_2*%
%TO.N,GND*%
X48006000Y-132080000D03*
%TD*%
D17*
%TO.P,U1,1,ON/OFF*%
%TO.N,GND*%
X90170000Y-91706000D03*
%TO.P,U1,2,Vin*%
%TO.N,VDD*%
X85590000Y-91706000D03*
D18*
X85590000Y-89763600D03*
D19*
X84570000Y-88396000D03*
%TO.P,U1,3,GND*%
%TO.N,GND*%
X84570000Y-86106000D03*
D20*
X85590000Y-84958650D03*
D19*
X84570000Y-83816000D03*
D21*
%TO.P,U1,4,Vout*%
%TO.N,+3V3*%
X86690200Y-81381600D03*
D17*
X85590000Y-80506000D03*
%TO.P,U1,5,Sense*%
X90170000Y-80506000D03*
%TO.P,U1,6,Trim*%
%TO.N,Net-(U1-Trim)*%
X94750000Y-80506000D03*
D19*
%TO.P,U1,7,GND*%
%TO.N,GND*%
X95770000Y-86106000D03*
%TO.P,U1,8,N.C.*%
%TO.N,unconnected-(U1-N.C.-Pad8)*%
X95770000Y-88396000D03*
D17*
%TO.P,U1,9,Sequence*%
%TO.N,unconnected-(U1-Sequence-Pad9)*%
X94750000Y-91706000D03*
%TO.P,U1,10,PGOOD*%
%TO.N,unconnected-(U1-PGOOD-Pad10)*%
X92460000Y-91706000D03*
D22*
%TO.P,U1,11,N.C.*%
%TO.N,unconnected-(U1-N.C.-Pad11)*%
X92460000Y-79756000D03*
D19*
%TO.P,U1,12,N.C.*%
%TO.N,unconnected-(U1-N.C.-Pad12)*%
X95770000Y-83816000D03*
%TD*%
D16*
%TO.P,3V3-2180\u03A9,1,1*%
%TO.N,Net-(U1-Trim)*%
X105000000Y-92000000D03*
%TO.P,3V3-2180\u03A9,2,2*%
%TO.N,GND*%
X112620000Y-94540000D03*
%TO.P,3V3-2180\u03A9,3,3*%
X117700000Y-92000000D03*
%TD*%
D30*
%TO.N,VDD*%
X40500000Y-84500000D03*
X45550000Y-85250000D03*
X38500000Y-84500000D03*
X46355000Y-84455000D03*
%TO.N,GND*%
X62000000Y-106000000D03*
X46000000Y-114000000D03*
X68150000Y-86650000D03*
X38989000Y-148971000D03*
X56515000Y-82931000D03*
X43434000Y-74168000D03*
X24000000Y-143000000D03*
X52578000Y-106045000D03*
X30734000Y-70866000D03*
X50000000Y-118000000D03*
X99441000Y-82931000D03*
X92456000Y-77978000D03*
X117000000Y-131572000D03*
X82000000Y-106000000D03*
X119000000Y-71000000D03*
X47117000Y-71755000D03*
X104140000Y-128016000D03*
X76000000Y-119000000D03*
X77978000Y-73533000D03*
X118000000Y-99000000D03*
X66000000Y-111000000D03*
X75057000Y-75819000D03*
X71501000Y-81788000D03*
X118000000Y-105000000D03*
X120000000Y-110000000D03*
X91567000Y-128524000D03*
X25000000Y-131064000D03*
X84000000Y-111000000D03*
X42164000Y-106045000D03*
X118000000Y-89000000D03*
X104648000Y-139319000D03*
X101092000Y-129921000D03*
X58674000Y-133985000D03*
X46000000Y-106000000D03*
X98425000Y-84963000D03*
X103505000Y-90297000D03*
X101000000Y-120000000D03*
X24000000Y-136000000D03*
X96012000Y-89789000D03*
X42291000Y-114046000D03*
X67000000Y-72000000D03*
X31000000Y-131000000D03*
X54000000Y-118000000D03*
X106000000Y-114000000D03*
X104902000Y-133731000D03*
X58000000Y-115000000D03*
X68326000Y-93726000D03*
X38227000Y-131318000D03*
X78486000Y-93472000D03*
X117000000Y-107000000D03*
X88265000Y-125984000D03*
X78105000Y-76835000D03*
X101727000Y-147828000D03*
X66421000Y-126111000D03*
X54000000Y-72000000D03*
X120000000Y-132000000D03*
X108839000Y-114808000D03*
X118000000Y-81000000D03*
X110490000Y-71501000D03*
X104000000Y-116000000D03*
X88650000Y-89000000D03*
X75692000Y-93345000D03*
X54000000Y-129000000D03*
X102000000Y-118000000D03*
X48000000Y-116000000D03*
X96901000Y-134493000D03*
X118000000Y-102000000D03*
X111650000Y-85200000D03*
X114000000Y-111000000D03*
X97028000Y-144399000D03*
X93599000Y-89535000D03*
X30000000Y-149000000D03*
X63627000Y-128524000D03*
X117000000Y-76000000D03*
X120000000Y-139000000D03*
X109474000Y-148590000D03*
X116000000Y-148082000D03*
X96139000Y-82296000D03*
X97000000Y-99000000D03*
X58293000Y-139446000D03*
X101000000Y-124000000D03*
X118000000Y-95000000D03*
X120015000Y-114046000D03*
X82296000Y-84963000D03*
X92000000Y-115000000D03*
X48000000Y-149000000D03*
X25000000Y-148590000D03*
X78994000Y-71374000D03*
X109000000Y-112000000D03*
X71882000Y-77851000D03*
X120000000Y-144000000D03*
X96901000Y-79883000D03*
X72771000Y-89535000D03*
X50000000Y-110000000D03*
X73000000Y-71501000D03*
X92456000Y-81788000D03*
X57531000Y-144780000D03*
X53213000Y-148082000D03*
X89000000Y-96000000D03*
X75565000Y-82169000D03*
X112000000Y-112000000D03*
X116000000Y-74000000D03*
X104000000Y-120000000D03*
X101981000Y-85471000D03*
X120000000Y-148000000D03*
X44000000Y-78000000D03*
X68199000Y-83185000D03*
X69000000Y-106000000D03*
X89000000Y-106000000D03*
X57531000Y-85725000D03*
X75565000Y-89916000D03*
X40259000Y-79629000D03*
X113030000Y-133731000D03*
X50000000Y-114000000D03*
X120000000Y-135000000D03*
X116000000Y-114000000D03*
X96901000Y-139192000D03*
X61000000Y-72000000D03*
X89000000Y-101000000D03*
X50000000Y-106000000D03*
%TD*%
D31*
%TO.N,VDD*%
X62738000Y-94234000D02*
X66802000Y-94234000D01*
X87249000Y-88392000D02*
X87249000Y-91948000D01*
X64762000Y-91706000D02*
X64762000Y-92210000D01*
X42102000Y-86102000D02*
X40500000Y-84500000D01*
X87249000Y-91948000D02*
X87007000Y-91706000D01*
X66802000Y-94234000D02*
X66929000Y-94107000D01*
X85590000Y-91706000D02*
X83427000Y-91706000D01*
X44698000Y-86102000D02*
X42418000Y-86102000D01*
X64762000Y-92210000D02*
X62738000Y-94234000D01*
X64762000Y-91940000D02*
X66294000Y-93472000D01*
X63869000Y-91706000D02*
X61468000Y-94107000D01*
X42418000Y-86102000D02*
X42102000Y-86102000D01*
X45550000Y-85250000D02*
X44698000Y-86102000D01*
X84570000Y-88396000D02*
X87245000Y-88396000D01*
X63742000Y-88396000D02*
X66671000Y-88396000D01*
X87007000Y-91706000D02*
X85590000Y-91706000D01*
X87245000Y-88396000D02*
X87249000Y-88392000D01*
X64762000Y-91706000D02*
X63869000Y-91706000D01*
X64762000Y-91706000D02*
X64762000Y-91940000D01*
X66671000Y-88396000D02*
X66802000Y-88265000D01*
X83427000Y-91706000D02*
X82931000Y-92202000D01*
%TO.N,GND*%
X84570000Y-83816000D02*
X83443000Y-83816000D01*
X64762000Y-84958650D02*
X61595000Y-84958650D01*
X84570000Y-85978650D02*
X85590000Y-84958650D01*
X82300350Y-84958650D02*
X82296000Y-84963000D01*
X85590000Y-84958650D02*
X82300350Y-84958650D01*
X73606000Y-86106000D02*
X74942000Y-86106000D01*
X84570000Y-83816000D02*
X82030000Y-83816000D01*
X83439000Y-86106000D02*
X82296000Y-84963000D01*
X82030000Y-83816000D02*
X81526000Y-83312000D01*
X63742000Y-86106000D02*
X62611000Y-86106000D01*
X63742000Y-83816000D02*
X62737650Y-83816000D01*
X60354000Y-86106000D02*
X60298000Y-86050000D01*
X62737650Y-83816000D02*
X61595000Y-84958650D01*
X60802000Y-83816000D02*
X60298000Y-83312000D01*
X83443000Y-83816000D02*
X82296000Y-84963000D01*
X60960000Y-84455000D02*
X60960000Y-83913000D01*
X60960000Y-83913000D02*
X60298000Y-83251000D01*
X63742000Y-83816000D02*
X60802000Y-83816000D01*
X61463650Y-84958650D02*
X60960000Y-84455000D01*
X84570000Y-86106000D02*
X83439000Y-86106000D01*
X62611000Y-86106000D02*
X60960000Y-84455000D01*
X61595000Y-84958650D02*
X61463650Y-84958650D01*
X84570000Y-86106000D02*
X84570000Y-85978650D01*
X63742000Y-86106000D02*
X60354000Y-86106000D01*
%TO.N,+3V3*%
X90170000Y-80899000D02*
X89662000Y-81407000D01*
X89662000Y-81407000D02*
X89636600Y-81381600D01*
X90170000Y-80506000D02*
X90170000Y-80899000D01*
X89636600Y-81381600D02*
X86690200Y-81381600D01*
%TO.N,+5V*%
X68605400Y-81381600D02*
X65862200Y-81381600D01*
X69342000Y-80506000D02*
X69342000Y-79629000D01*
X69342000Y-80506000D02*
X69342000Y-80645000D01*
X69342000Y-79629000D02*
X67564000Y-77851000D01*
X64909000Y-80506000D02*
X64762000Y-80506000D01*
X69342000Y-80645000D02*
X68605400Y-81381600D01*
X67564000Y-77851000D02*
X64909000Y-80506000D01*
%TO.N,Net-(Q1-G)*%
X44725000Y-72275000D02*
X46500000Y-70500000D01*
X102500000Y-129000000D02*
X105500000Y-132000000D01*
X115500000Y-70500000D02*
X120000000Y-75000000D01*
X34000000Y-72920000D02*
X44080000Y-72920000D01*
X113540000Y-141460000D02*
X111979859Y-141460000D01*
X44080000Y-72920000D02*
X46500000Y-70500000D01*
X105500000Y-132000000D02*
X113500000Y-132000000D01*
X120000000Y-75000000D02*
X120000000Y-107000000D01*
X115000000Y-133500000D02*
X115000000Y-140000000D01*
X120000000Y-107000000D02*
X113500000Y-113500000D01*
X46500000Y-70500000D02*
X115500000Y-70500000D01*
X42418000Y-83812000D02*
X44000000Y-82230000D01*
X44000000Y-79025305D02*
X44725000Y-78300305D01*
X113500000Y-113500000D02*
X108500000Y-113500000D01*
X108500000Y-113500000D02*
X102500000Y-119500000D01*
X102500000Y-119500000D02*
X102500000Y-129000000D01*
X115000000Y-140000000D02*
X113540000Y-141460000D01*
X113500000Y-132000000D02*
X115000000Y-133500000D01*
X44000000Y-82230000D02*
X44000000Y-79025305D01*
X44725000Y-78300305D02*
X44725000Y-72275000D01*
%TO.N,Net-(U2-Trim)*%
X76839653Y-72390000D02*
X105410000Y-72390000D01*
X107440000Y-85600000D02*
X105000000Y-85600000D01*
X73922000Y-75307653D02*
X76839653Y-72390000D01*
X110490000Y-77470000D02*
X110490000Y-82550000D01*
X105410000Y-72390000D02*
X110490000Y-77470000D01*
X73922000Y-80506000D02*
X73922000Y-75307653D01*
X110490000Y-82550000D02*
X107440000Y-85600000D01*
%TO.N,Net-(U1-Trim)*%
X94750000Y-80506000D02*
X95600000Y-80506000D01*
X95600000Y-80506000D02*
X105000000Y-89906000D01*
X105000000Y-89906000D02*
X105000000Y-92000000D01*
%TD*%
%TA.AperFunction,Conductor*%
%TO.N,+3V3*%
G36*
X106856420Y-81502867D02*
G01*
X106794601Y-81461561D01*
X106721680Y-81447056D01*
X106672432Y-81447056D01*
X106599511Y-81461561D01*
X106516816Y-81516816D01*
X106461561Y-81599511D01*
X106442158Y-81697056D01*
X106461561Y-81794601D01*
X106502867Y-81856420D01*
X105944180Y-81297733D01*
X106134870Y-81134870D01*
X106297733Y-80944180D01*
X106856420Y-81502867D01*
G37*
%TD.AperFunction*%
%TA.AperFunction,Conductor*%
G36*
X103865130Y-81134870D02*
G01*
X104055819Y-81297733D01*
X103497135Y-81856416D01*
X103538439Y-81794601D01*
X103557842Y-81697056D01*
X103538439Y-81599511D01*
X103483184Y-81516816D01*
X103400489Y-81461561D01*
X103327568Y-81447056D01*
X103278320Y-81447056D01*
X103205399Y-81461561D01*
X103143577Y-81502868D01*
X103702266Y-80944180D01*
X103865130Y-81134870D01*
G37*
%TD.AperFunction*%
%TA.AperFunction,Conductor*%
G36*
X104055819Y-78702266D02*
G01*
X103865130Y-78865130D01*
X103702266Y-79055818D01*
X103143582Y-78497134D01*
X103205399Y-78538439D01*
X103278320Y-78552944D01*
X103327568Y-78552944D01*
X103400489Y-78538439D01*
X103483184Y-78483184D01*
X103538439Y-78400489D01*
X103557842Y-78302944D01*
X103538439Y-78205399D01*
X103497133Y-78143581D01*
X104055819Y-78702266D01*
G37*
%TD.AperFunction*%
%TA.AperFunction,Conductor*%
G36*
X106461561Y-78205399D02*
G01*
X106442158Y-78302944D01*
X106461561Y-78400489D01*
X106516816Y-78483184D01*
X106599511Y-78538439D01*
X106672432Y-78552944D01*
X106721680Y-78552944D01*
X106794601Y-78538439D01*
X106856415Y-78497135D01*
X106297732Y-79055818D01*
X106134870Y-78865130D01*
X105944180Y-78702266D01*
X106502867Y-78143578D01*
X106461561Y-78205399D01*
G37*
%TD.AperFunction*%
%TA.AperFunction,Conductor*%
G36*
X102851185Y-73035185D02*
G01*
X102896940Y-73087989D01*
X102906884Y-73157147D01*
X102885720Y-73210624D01*
X102789870Y-73347510D01*
X102789866Y-73347516D01*
X102693734Y-73553673D01*
X102693730Y-73553682D01*
X102634860Y-73773389D01*
X102634858Y-73773400D01*
X102615034Y-73999997D01*
X102615034Y-74000002D01*
X102634858Y-74226599D01*
X102634860Y-74226610D01*
X102693730Y-74446317D01*
X102693734Y-74446326D01*
X102789865Y-74652481D01*
X102789866Y-74652483D01*
X102840973Y-74725471D01*
X102840973Y-74725472D01*
X103522045Y-74044399D01*
X103534835Y-74125148D01*
X103592359Y-74238045D01*
X103681955Y-74327641D01*
X103794852Y-74385165D01*
X103875599Y-74397953D01*
X103194526Y-75079025D01*
X103194526Y-75079026D01*
X103267512Y-75130131D01*
X103267516Y-75130133D01*
X103473673Y-75226265D01*
X103473682Y-75226269D01*
X103693389Y-75285139D01*
X103693400Y-75285141D01*
X103919998Y-75304966D01*
X103920002Y-75304966D01*
X104146599Y-75285141D01*
X104146610Y-75285139D01*
X104366317Y-75226269D01*
X104366331Y-75226264D01*
X104572478Y-75130136D01*
X104645472Y-75079025D01*
X103964401Y-74397953D01*
X104045148Y-74385165D01*
X104158045Y-74327641D01*
X104247641Y-74238045D01*
X104305165Y-74125148D01*
X104317953Y-74044400D01*
X104999025Y-74725472D01*
X105050136Y-74652478D01*
X105146264Y-74446331D01*
X105146269Y-74446317D01*
X105205139Y-74226610D01*
X105205141Y-74226599D01*
X105224966Y-74000002D01*
X105224966Y-73999997D01*
X105205141Y-73773400D01*
X105205139Y-73773389D01*
X105146269Y-73553682D01*
X105146265Y-73553673D01*
X105050133Y-73347516D01*
X105050129Y-73347510D01*
X104954280Y-73210624D01*
X104931952Y-73144418D01*
X104948962Y-73076651D01*
X104999910Y-73028837D01*
X105055854Y-73015500D01*
X105099548Y-73015500D01*
X105166587Y-73035185D01*
X105187229Y-73051819D01*
X109828181Y-77692771D01*
X109861666Y-77754094D01*
X109864500Y-77780452D01*
X109864500Y-82239547D01*
X109844815Y-82306586D01*
X109828181Y-82327228D01*
X107217228Y-84938181D01*
X107155905Y-84971666D01*
X107129547Y-84974500D01*
X106331351Y-84974500D01*
X106264312Y-84954815D01*
X106227542Y-84918321D01*
X106108983Y-84736852D01*
X106108980Y-84736849D01*
X106108979Y-84736847D01*
X105951784Y-84566087D01*
X105951779Y-84566083D01*
X105951777Y-84566081D01*
X105768634Y-84423535D01*
X105768628Y-84423531D01*
X105564504Y-84313064D01*
X105564495Y-84313061D01*
X105344984Y-84237702D01*
X105137922Y-84203150D01*
X105116049Y-84199500D01*
X104883951Y-84199500D01*
X104862078Y-84203150D01*
X104655015Y-84237702D01*
X104435504Y-84313061D01*
X104435495Y-84313064D01*
X104231372Y-84423531D01*
X104085335Y-84537196D01*
X104020341Y-84562838D01*
X103957662Y-84552136D01*
X103876297Y-84514977D01*
X103876289Y-84514975D01*
X103733875Y-84494500D01*
X100978591Y-84494500D01*
X100942526Y-84495788D01*
X100801936Y-84526371D01*
X100691319Y-84586773D01*
X100623046Y-84601624D01*
X100557582Y-84577207D01*
X100544212Y-84565621D01*
X100436342Y-84457751D01*
X100402857Y-84396428D01*
X100407841Y-84326736D01*
X100421884Y-84303079D01*
X100420459Y-84302163D01*
X100425247Y-84294710D01*
X100425254Y-84294703D01*
X100485024Y-84163825D01*
X100505500Y-84021409D01*
X100505500Y-81000000D01*
X100500355Y-80928060D01*
X100497584Y-80918624D01*
X100491929Y-80899365D01*
X100459819Y-80790008D01*
X100430762Y-80744794D01*
X100382032Y-80668969D01*
X100382028Y-80668965D01*
X100273299Y-80574750D01*
X100273297Y-80574748D01*
X100273294Y-80574746D01*
X100227589Y-80553873D01*
X100142417Y-80514976D01*
X100106351Y-80509790D01*
X100042796Y-80480763D01*
X100005022Y-80421985D01*
X100000000Y-80387052D01*
X100000000Y-80000000D01*
X101294922Y-80000000D01*
X101315219Y-80387287D01*
X101375886Y-80770323D01*
X101375887Y-80770330D01*
X101476262Y-81144936D01*
X101615244Y-81506994D01*
X101791310Y-81852543D01*
X102002531Y-82177793D01*
X102211095Y-82435350D01*
X102211096Y-82435350D01*
X103108756Y-81537689D01*
X103067449Y-81599511D01*
X103048046Y-81697056D01*
X103067449Y-81794601D01*
X103122704Y-81877296D01*
X103205399Y-81932551D01*
X103278320Y-81947056D01*
X103327568Y-81947056D01*
X103400489Y-81932551D01*
X103462304Y-81891247D01*
X102564648Y-82788903D01*
X102564649Y-82788904D01*
X102822206Y-82997468D01*
X103147456Y-83208689D01*
X103493005Y-83384755D01*
X103855063Y-83523737D01*
X104229669Y-83624112D01*
X104229676Y-83624113D01*
X104612712Y-83684780D01*
X104999999Y-83705078D01*
X105000001Y-83705078D01*
X105387287Y-83684780D01*
X105770323Y-83624113D01*
X105770330Y-83624112D01*
X106144936Y-83523737D01*
X106506994Y-83384755D01*
X106852543Y-83208689D01*
X107177783Y-82997476D01*
X107177785Y-82997475D01*
X107435349Y-82788902D01*
X106537691Y-81891244D01*
X106599511Y-81932551D01*
X106672432Y-81947056D01*
X106721680Y-81947056D01*
X106794601Y-81932551D01*
X106877296Y-81877296D01*
X106932551Y-81794601D01*
X106951954Y-81697056D01*
X106932551Y-81599511D01*
X106891244Y-81537691D01*
X107788902Y-82435349D01*
X107997475Y-82177785D01*
X107997476Y-82177783D01*
X108208689Y-81852543D01*
X108384755Y-81506994D01*
X108523737Y-81144936D01*
X108624112Y-80770330D01*
X108624113Y-80770323D01*
X108684780Y-80387287D01*
X108705078Y-80000000D01*
X108705078Y-79999999D01*
X108684780Y-79612712D01*
X108624113Y-79229676D01*
X108624112Y-79229669D01*
X108523737Y-78855063D01*
X108384755Y-78493005D01*
X108208689Y-78147456D01*
X107997468Y-77822206D01*
X107788904Y-77564649D01*
X107788903Y-77564648D01*
X106891247Y-78462303D01*
X106932551Y-78400489D01*
X106951954Y-78302944D01*
X106932551Y-78205399D01*
X106877296Y-78122704D01*
X106794601Y-78067449D01*
X106721680Y-78052944D01*
X106672432Y-78052944D01*
X106599511Y-78067449D01*
X106537690Y-78108755D01*
X107435350Y-77211096D01*
X107435350Y-77211095D01*
X107177793Y-77002531D01*
X106852543Y-76791310D01*
X106506994Y-76615244D01*
X106144936Y-76476262D01*
X105770330Y-76375887D01*
X105770323Y-76375886D01*
X105387287Y-76315219D01*
X105000001Y-76294922D01*
X104999999Y-76294922D01*
X104612712Y-76315219D01*
X104229676Y-76375886D01*
X104229669Y-76375887D01*
X103855063Y-76476262D01*
X103493005Y-76615244D01*
X103147456Y-76791310D01*
X102822206Y-77002531D01*
X102564648Y-77211095D01*
X102564648Y-77211096D01*
X103462306Y-78108754D01*
X103400489Y-78067449D01*
X103327568Y-78052944D01*
X103278320Y-78052944D01*
X103205399Y-78067449D01*
X103122704Y-78122704D01*
X103067449Y-78205399D01*
X103048046Y-78302944D01*
X103067449Y-78400489D01*
X103108753Y-78462305D01*
X102211096Y-77564648D01*
X102211095Y-77564648D01*
X102002531Y-77822206D01*
X101791310Y-78147456D01*
X101615244Y-78493005D01*
X101476262Y-78855063D01*
X101375887Y-79229669D01*
X101375886Y-79229676D01*
X101315219Y-79612712D01*
X101294922Y-79999999D01*
X101294922Y-80000000D01*
X100000000Y-80000000D01*
X100000000Y-77000000D01*
X91500000Y-77000000D01*
X91500000Y-78610460D01*
X91480315Y-78677499D01*
X91475266Y-78684772D01*
X91413953Y-78766674D01*
X91358019Y-78808544D01*
X91288327Y-78813528D01*
X91227004Y-78780042D01*
X91215420Y-78766673D01*
X91127186Y-78648809D01*
X91012093Y-78562649D01*
X91012086Y-78562645D01*
X90877379Y-78512403D01*
X90877372Y-78512401D01*
X90817844Y-78506000D01*
X90420000Y-78506000D01*
X90420000Y-80632000D01*
X90400315Y-80699039D01*
X90347511Y-80744794D01*
X90296000Y-80756000D01*
X90044000Y-80756000D01*
X89976961Y-80736315D01*
X89931206Y-80683511D01*
X89920000Y-80632000D01*
X89920000Y-78506000D01*
X89522155Y-78506000D01*
X89462627Y-78512401D01*
X89462620Y-78512403D01*
X89327913Y-78562645D01*
X89327906Y-78562649D01*
X89212812Y-78648809D01*
X89212809Y-78648812D01*
X89126649Y-78763906D01*
X89126645Y-78763913D01*
X89076403Y-78898620D01*
X89076401Y-78898627D01*
X89070000Y-78958155D01*
X89070000Y-79848313D01*
X89050315Y-79915352D01*
X88997511Y-79961107D01*
X88928353Y-79971051D01*
X88902668Y-79964495D01*
X88882583Y-79957003D01*
X88882572Y-79957001D01*
X88823044Y-79950600D01*
X86814000Y-79950600D01*
X86746961Y-79930915D01*
X86701206Y-79878111D01*
X86690000Y-79826600D01*
X86690000Y-78958172D01*
X86689999Y-78958155D01*
X86683598Y-78898627D01*
X86683596Y-78898620D01*
X86633354Y-78763913D01*
X86633350Y-78763906D01*
X86547190Y-78648812D01*
X86547187Y-78648809D01*
X86432093Y-78562649D01*
X86432086Y-78562645D01*
X86297379Y-78512403D01*
X86297372Y-78512401D01*
X86237844Y-78506000D01*
X85840000Y-78506000D01*
X85840000Y-80632000D01*
X85820315Y-80699039D01*
X85767511Y-80744794D01*
X85716000Y-80756000D01*
X85464000Y-80756000D01*
X85396961Y-80736315D01*
X85351206Y-80683511D01*
X85340000Y-80632000D01*
X85340000Y-78506000D01*
X84942155Y-78506000D01*
X84882627Y-78512401D01*
X84882620Y-78512403D01*
X84747913Y-78562645D01*
X84747906Y-78562649D01*
X84632812Y-78648809D01*
X84632809Y-78648812D01*
X84546649Y-78763906D01*
X84546645Y-78763913D01*
X84496403Y-78898620D01*
X84496401Y-78898627D01*
X84490000Y-78958155D01*
X84490000Y-79873825D01*
X84470315Y-79940864D01*
X84417511Y-79986619D01*
X84409335Y-79990006D01*
X84363108Y-80007247D01*
X84363107Y-80007248D01*
X84248012Y-80093409D01*
X84248009Y-80093412D01*
X84161849Y-80208506D01*
X84161845Y-80208513D01*
X84111603Y-80343220D01*
X84111601Y-80343227D01*
X84105200Y-80402755D01*
X84105200Y-81131600D01*
X86816200Y-81131600D01*
X86883239Y-81151285D01*
X86928994Y-81204089D01*
X86940200Y-81255600D01*
X86940200Y-81507600D01*
X86920515Y-81574639D01*
X86867711Y-81620394D01*
X86816200Y-81631600D01*
X84105200Y-81631600D01*
X84105200Y-81870500D01*
X84085515Y-81937539D01*
X84032711Y-81983294D01*
X83981200Y-81994500D01*
X82810780Y-81994500D01*
X82771613Y-81996936D01*
X82748111Y-81998399D01*
X82748110Y-81998399D01*
X82609338Y-82036371D01*
X82486874Y-82111907D01*
X82471820Y-82128644D01*
X82412350Y-82165320D01*
X82342493Y-82164023D01*
X82340632Y-82163422D01*
X82328805Y-82159503D01*
X82328800Y-82159502D01*
X82328797Y-82159501D01*
X82328792Y-82159500D01*
X82328790Y-82159500D01*
X82226010Y-82149000D01*
X80825998Y-82149000D01*
X80825981Y-82149001D01*
X80723203Y-82159500D01*
X80723200Y-82159501D01*
X80709916Y-82163903D01*
X80640087Y-82166301D01*
X80589715Y-82139908D01*
X80514518Y-82074750D01*
X80514516Y-82074748D01*
X80514513Y-82074746D01*
X80514509Y-82074744D01*
X80383638Y-82014976D01*
X80383633Y-82014975D01*
X80241219Y-81994500D01*
X78124000Y-81994500D01*
X78056961Y-81974815D01*
X78011206Y-81922011D01*
X78000000Y-81870500D01*
X78000000Y-80437000D01*
X80126001Y-80437000D01*
X80126001Y-80649486D01*
X80136494Y-80752197D01*
X80191641Y-80918619D01*
X80191643Y-80918624D01*
X80283684Y-81067845D01*
X80407654Y-81191815D01*
X80556875Y-81283856D01*
X80556880Y-81283858D01*
X80723302Y-81339005D01*
X80723309Y-81339006D01*
X80826019Y-81349499D01*
X81275999Y-81349499D01*
X81276000Y-81349498D01*
X81276000Y-80437000D01*
X81776000Y-80437000D01*
X81776000Y-81349499D01*
X82225972Y-81349499D01*
X82225986Y-81349498D01*
X82328697Y-81339005D01*
X82495119Y-81283858D01*
X82495124Y-81283856D01*
X82644345Y-81191815D01*
X82768315Y-81067845D01*
X82860356Y-80918624D01*
X82860358Y-80918619D01*
X82915505Y-80752197D01*
X82915506Y-80752190D01*
X82925999Y-80649486D01*
X82926000Y-80649473D01*
X82926000Y-80437000D01*
X81776000Y-80437000D01*
X81276000Y-80437000D01*
X80126001Y-80437000D01*
X78000000Y-80437000D01*
X78000000Y-79937000D01*
X80126000Y-79937000D01*
X81276000Y-79937000D01*
X81276000Y-79024500D01*
X81776000Y-79024500D01*
X81776000Y-79937000D01*
X82925999Y-79937000D01*
X82925999Y-79724528D01*
X82925998Y-79724513D01*
X82915505Y-79621802D01*
X82860358Y-79455380D01*
X82860356Y-79455375D01*
X82768315Y-79306154D01*
X82644345Y-79182184D01*
X82495124Y-79090143D01*
X82495119Y-79090141D01*
X82328697Y-79034994D01*
X82328690Y-79034993D01*
X82225986Y-79024500D01*
X81776000Y-79024500D01*
X81276000Y-79024500D01*
X80826028Y-79024500D01*
X80826012Y-79024501D01*
X80723302Y-79034994D01*
X80556880Y-79090141D01*
X80556875Y-79090143D01*
X80407654Y-79182184D01*
X80283684Y-79306154D01*
X80191643Y-79455375D01*
X80191641Y-79455380D01*
X80136494Y-79621802D01*
X80136493Y-79621809D01*
X80126000Y-79724513D01*
X80126000Y-79937000D01*
X78000000Y-79937000D01*
X78000000Y-78051361D01*
X78019685Y-77984322D01*
X78036314Y-77963685D01*
X78256036Y-77743963D01*
X78317355Y-77710481D01*
X78317518Y-77710445D01*
X78384803Y-77696144D01*
X78557730Y-77619151D01*
X78710871Y-77507888D01*
X78837533Y-77367216D01*
X78932179Y-77203284D01*
X78990674Y-77023256D01*
X78990674Y-77023251D01*
X78991038Y-77022133D01*
X78992725Y-77017561D01*
X79000000Y-76999999D01*
X79000000Y-76937775D01*
X79000340Y-76931290D01*
X79002080Y-76914726D01*
X79010460Y-76835000D01*
X79000340Y-76738708D01*
X79000000Y-76732223D01*
X79000000Y-73139500D01*
X79019685Y-73072461D01*
X79072489Y-73026706D01*
X79124000Y-73015500D01*
X102784146Y-73015500D01*
X102851185Y-73035185D01*
G37*
%TD.AperFunction*%
%TD*%
%TA.AperFunction,Conductor*%
%TO.N,GND*%
G36*
X106856420Y-101502867D02*
G01*
X106794601Y-101461561D01*
X106721680Y-101447056D01*
X106672432Y-101447056D01*
X106599511Y-101461561D01*
X106516816Y-101516816D01*
X106461561Y-101599511D01*
X106442158Y-101697056D01*
X106461561Y-101794601D01*
X106502867Y-101856420D01*
X105944180Y-101297733D01*
X106134870Y-101134870D01*
X106297733Y-100944180D01*
X106856420Y-101502867D01*
G37*
%TD.AperFunction*%
%TA.AperFunction,Conductor*%
G36*
X103865130Y-101134870D02*
G01*
X104055819Y-101297733D01*
X103497135Y-101856416D01*
X103538439Y-101794601D01*
X103557842Y-101697056D01*
X103538439Y-101599511D01*
X103483184Y-101516816D01*
X103400489Y-101461561D01*
X103327568Y-101447056D01*
X103278320Y-101447056D01*
X103205399Y-101461561D01*
X103143577Y-101502868D01*
X103702266Y-100944180D01*
X103865130Y-101134870D01*
G37*
%TD.AperFunction*%
%TA.AperFunction,Conductor*%
G36*
X104055819Y-98702266D02*
G01*
X103865130Y-98865130D01*
X103702266Y-99055818D01*
X103143582Y-98497134D01*
X103205399Y-98538439D01*
X103278320Y-98552944D01*
X103327568Y-98552944D01*
X103400489Y-98538439D01*
X103483184Y-98483184D01*
X103538439Y-98400489D01*
X103557842Y-98302944D01*
X103538439Y-98205399D01*
X103497133Y-98143581D01*
X104055819Y-98702266D01*
G37*
%TD.AperFunction*%
%TA.AperFunction,Conductor*%
G36*
X106461561Y-98205399D02*
G01*
X106442158Y-98302944D01*
X106461561Y-98400489D01*
X106516816Y-98483184D01*
X106599511Y-98538439D01*
X106672432Y-98552944D01*
X106721680Y-98552944D01*
X106794601Y-98538439D01*
X106856415Y-98497135D01*
X106297732Y-99055818D01*
X106134870Y-98865130D01*
X105944180Y-98702266D01*
X106502867Y-98143578D01*
X106461561Y-98205399D01*
G37*
%TD.AperFunction*%
%TA.AperFunction,Conductor*%
G36*
X89462517Y-82500091D02*
G01*
X89462516Y-82500091D01*
X89469444Y-82500835D01*
X89522127Y-82506500D01*
X90817872Y-82506499D01*
X90877483Y-82500091D01*
X90877727Y-82500000D01*
X94042273Y-82500000D01*
X94042517Y-82500091D01*
X94075579Y-82503645D01*
X94140127Y-82530381D01*
X94179976Y-82587773D01*
X94182471Y-82657598D01*
X94146819Y-82717688D01*
X94105656Y-82743116D01*
X94027669Y-82772203D01*
X94027664Y-82772206D01*
X93912455Y-82858452D01*
X93912452Y-82858455D01*
X93826206Y-82973664D01*
X93826202Y-82973671D01*
X93775908Y-83108517D01*
X93769501Y-83168116D01*
X93769501Y-83168123D01*
X93769500Y-83168135D01*
X93769500Y-84463870D01*
X93769501Y-84463876D01*
X93775908Y-84523483D01*
X93826202Y-84658328D01*
X93826206Y-84658335D01*
X93912452Y-84773544D01*
X93912453Y-84773544D01*
X93912454Y-84773546D01*
X93974469Y-84819970D01*
X94030674Y-84862046D01*
X94072544Y-84917980D01*
X94077528Y-84987671D01*
X94044042Y-85048994D01*
X94030674Y-85060578D01*
X93912809Y-85148812D01*
X93826649Y-85263906D01*
X93826645Y-85263913D01*
X93776403Y-85398620D01*
X93776401Y-85398627D01*
X93770000Y-85458155D01*
X93770000Y-85856000D01*
X97770000Y-85856000D01*
X97770000Y-85458172D01*
X97769999Y-85458155D01*
X97763598Y-85398627D01*
X97763596Y-85398620D01*
X97713354Y-85263913D01*
X97713350Y-85263906D01*
X97627190Y-85148812D01*
X97627187Y-85148809D01*
X97509326Y-85060578D01*
X97467455Y-85004645D01*
X97462471Y-84934953D01*
X97495956Y-84873630D01*
X97509326Y-84862045D01*
X97512329Y-84859796D01*
X97512331Y-84859796D01*
X97627546Y-84773546D01*
X97713796Y-84658331D01*
X97764091Y-84523483D01*
X97770500Y-84463873D01*
X97770499Y-83860449D01*
X97790183Y-83793412D01*
X97842987Y-83747657D01*
X97912146Y-83737713D01*
X97975702Y-83766738D01*
X97982180Y-83772770D01*
X104338181Y-90128771D01*
X104371666Y-90190094D01*
X104374500Y-90216452D01*
X104374500Y-90672185D01*
X104354815Y-90739224D01*
X104309518Y-90781239D01*
X104231380Y-90823525D01*
X104231365Y-90823535D01*
X104048222Y-90966081D01*
X104048219Y-90966084D01*
X103891016Y-91136852D01*
X103764075Y-91331151D01*
X103670842Y-91543699D01*
X103613866Y-91768691D01*
X103613864Y-91768702D01*
X103594700Y-91999993D01*
X103594700Y-92000006D01*
X103613864Y-92231297D01*
X103613866Y-92231308D01*
X103670842Y-92456300D01*
X103764075Y-92668848D01*
X103891016Y-92863147D01*
X103891019Y-92863151D01*
X103891021Y-92863153D01*
X104048216Y-93033913D01*
X104048219Y-93033915D01*
X104048222Y-93033918D01*
X104231365Y-93176464D01*
X104231371Y-93176468D01*
X104231374Y-93176470D01*
X104435497Y-93286936D01*
X104512523Y-93313379D01*
X104655015Y-93362297D01*
X104655017Y-93362297D01*
X104655019Y-93362298D01*
X104883951Y-93400500D01*
X104883952Y-93400500D01*
X105116048Y-93400500D01*
X105116049Y-93400500D01*
X105344981Y-93362298D01*
X105564503Y-93286936D01*
X105768626Y-93176470D01*
X105951784Y-93033913D01*
X106108979Y-92863153D01*
X106235924Y-92668849D01*
X106329157Y-92456300D01*
X106386134Y-92231305D01*
X106388115Y-92207396D01*
X106405300Y-92000006D01*
X106405300Y-91999993D01*
X106386135Y-91768702D01*
X106386133Y-91768691D01*
X106329157Y-91543699D01*
X106235924Y-91331151D01*
X106108983Y-91136852D01*
X106108980Y-91136849D01*
X106108979Y-91136847D01*
X105951784Y-90966087D01*
X105951779Y-90966083D01*
X105951777Y-90966081D01*
X105768634Y-90823535D01*
X105768619Y-90823525D01*
X105690482Y-90781239D01*
X105640891Y-90732020D01*
X105625500Y-90672185D01*
X105625500Y-89988737D01*
X105627224Y-89973123D01*
X105626938Y-89973096D01*
X105627672Y-89965333D01*
X105625500Y-89896202D01*
X105625500Y-89866651D01*
X105625500Y-89866650D01*
X105624629Y-89859759D01*
X105624172Y-89853945D01*
X105623999Y-89848452D01*
X105622709Y-89807372D01*
X105617120Y-89788137D01*
X105613174Y-89769084D01*
X105610664Y-89749208D01*
X105593501Y-89705859D01*
X105591614Y-89700346D01*
X105589740Y-89693897D01*
X105578617Y-89655610D01*
X105568421Y-89638369D01*
X105559860Y-89620893D01*
X105552486Y-89602269D01*
X105552486Y-89602267D01*
X105538439Y-89582934D01*
X105525083Y-89564550D01*
X105521900Y-89559705D01*
X105498170Y-89519579D01*
X105498165Y-89519573D01*
X105484005Y-89505413D01*
X105471370Y-89490620D01*
X105459593Y-89474412D01*
X105423693Y-89444713D01*
X105419381Y-89440790D01*
X104118596Y-88140005D01*
X111215202Y-88140005D01*
X111234361Y-88371218D01*
X111291317Y-88596135D01*
X111384516Y-88808609D01*
X111468811Y-88937633D01*
X112136922Y-88269523D01*
X112160507Y-88349844D01*
X112238239Y-88470798D01*
X112346900Y-88564952D01*
X112477685Y-88624680D01*
X112487466Y-88626086D01*
X111821199Y-89292351D01*
X111851650Y-89316050D01*
X112055697Y-89426476D01*
X112055706Y-89426479D01*
X112275139Y-89501811D01*
X112503993Y-89540000D01*
X112736007Y-89540000D01*
X112964860Y-89501811D01*
X113184293Y-89426479D01*
X113184302Y-89426476D01*
X113388350Y-89316050D01*
X113418798Y-89292351D01*
X112752533Y-88626086D01*
X112762315Y-88624680D01*
X112893100Y-88564952D01*
X113001761Y-88470798D01*
X113079493Y-88349844D01*
X113103076Y-88269524D01*
X113771186Y-88937634D01*
X113855484Y-88808606D01*
X113948682Y-88596135D01*
X114005638Y-88371218D01*
X114024798Y-88140005D01*
X114024798Y-88139994D01*
X114005638Y-87908781D01*
X113948682Y-87683864D01*
X113855483Y-87471390D01*
X113771186Y-87342364D01*
X113103076Y-88010475D01*
X113079493Y-87930156D01*
X113001761Y-87809202D01*
X112893100Y-87715048D01*
X112762315Y-87655320D01*
X112752534Y-87653913D01*
X113418799Y-86987648D01*
X113418799Y-86987647D01*
X113388349Y-86963949D01*
X113184302Y-86853523D01*
X113184293Y-86853520D01*
X112964860Y-86778188D01*
X112736007Y-86740000D01*
X112503993Y-86740000D01*
X112275139Y-86778188D01*
X112055706Y-86853520D01*
X112055698Y-86853523D01*
X111851644Y-86963952D01*
X111821200Y-86987646D01*
X111821200Y-86987647D01*
X112487466Y-87653913D01*
X112477685Y-87655320D01*
X112346900Y-87715048D01*
X112238239Y-87809202D01*
X112160507Y-87930156D01*
X112136923Y-88010476D01*
X111468812Y-87342365D01*
X111384516Y-87471391D01*
X111384514Y-87471395D01*
X111291317Y-87683864D01*
X111234361Y-87908781D01*
X111215202Y-88139994D01*
X111215202Y-88140005D01*
X104118596Y-88140005D01*
X100978591Y-85000000D01*
X103733875Y-85000000D01*
X103670842Y-85143699D01*
X103613866Y-85368691D01*
X103613864Y-85368702D01*
X103594700Y-85599993D01*
X103594700Y-85600006D01*
X103613864Y-85831297D01*
X103613866Y-85831308D01*
X103670842Y-86056300D01*
X103764075Y-86268848D01*
X103891016Y-86463147D01*
X103891019Y-86463151D01*
X103891021Y-86463153D01*
X104048216Y-86633913D01*
X104048219Y-86633915D01*
X104048222Y-86633918D01*
X104231365Y-86776464D01*
X104231371Y-86776468D01*
X104231374Y-86776470D01*
X104435497Y-86886936D01*
X104532543Y-86920252D01*
X104655015Y-86962297D01*
X104655017Y-86962297D01*
X104655019Y-86962298D01*
X104883951Y-87000500D01*
X104883952Y-87000500D01*
X105116048Y-87000500D01*
X105116049Y-87000500D01*
X105344981Y-86962298D01*
X105564503Y-86886936D01*
X105768626Y-86776470D01*
X105951784Y-86633913D01*
X106108979Y-86463153D01*
X106129265Y-86432103D01*
X106227542Y-86281679D01*
X106280689Y-86236322D01*
X106331351Y-86225500D01*
X107357257Y-86225500D01*
X107372877Y-86227224D01*
X107372904Y-86226939D01*
X107380660Y-86227671D01*
X107380667Y-86227673D01*
X107449814Y-86225500D01*
X107479350Y-86225500D01*
X107486228Y-86224630D01*
X107492041Y-86224172D01*
X107538627Y-86222709D01*
X107557869Y-86217117D01*
X107576912Y-86213174D01*
X107596792Y-86210664D01*
X107640122Y-86193507D01*
X107645646Y-86191617D01*
X107649396Y-86190527D01*
X107690390Y-86178618D01*
X107707629Y-86168422D01*
X107725103Y-86159862D01*
X107743727Y-86152488D01*
X107743727Y-86152487D01*
X107743732Y-86152486D01*
X107781449Y-86125082D01*
X107786305Y-86121892D01*
X107826420Y-86098170D01*
X107840589Y-86083999D01*
X107855379Y-86071368D01*
X107871587Y-86059594D01*
X107901299Y-86023676D01*
X107905212Y-86019376D01*
X108924589Y-85000000D01*
X115000000Y-85000000D01*
X115000000Y-107000000D01*
X104000000Y-107000000D01*
X101500000Y-109500000D01*
X101500000Y-130000000D01*
X105500000Y-134000000D01*
X114374500Y-134000000D01*
X114374500Y-139689547D01*
X114354815Y-139756586D01*
X114338181Y-139777228D01*
X114115409Y-140000000D01*
X112706306Y-140000000D01*
X112147626Y-139441320D01*
X112265695Y-139390037D01*
X112381909Y-139295489D01*
X112468306Y-139173093D01*
X112499299Y-139085887D01*
X113131045Y-139717634D01*
X113215343Y-139588606D01*
X113308541Y-139376135D01*
X113365497Y-139151218D01*
X113384657Y-138920005D01*
X113384657Y-138919994D01*
X113365497Y-138688781D01*
X113308541Y-138463864D01*
X113215342Y-138251390D01*
X113131045Y-138122364D01*
X112501559Y-138751850D01*
X112498219Y-138735775D01*
X112429294Y-138602754D01*
X112327036Y-138493263D01*
X112199029Y-138415420D01*
X112145800Y-138400506D01*
X112778658Y-137767648D01*
X112778658Y-137767647D01*
X112748208Y-137743949D01*
X112544161Y-137633523D01*
X112544152Y-137633520D01*
X112324719Y-137558188D01*
X112095866Y-137520000D01*
X111863852Y-137520000D01*
X111634998Y-137558188D01*
X111415565Y-137633520D01*
X111415557Y-137633523D01*
X111211503Y-137743952D01*
X111181059Y-137767646D01*
X111181059Y-137767647D01*
X111812091Y-138398679D01*
X111694023Y-138449963D01*
X111577809Y-138544511D01*
X111491412Y-138666907D01*
X111460418Y-138754112D01*
X110828671Y-138122365D01*
X110744375Y-138251391D01*
X110744373Y-138251395D01*
X110651176Y-138463864D01*
X110594220Y-138688781D01*
X110575061Y-138919994D01*
X110575061Y-138920005D01*
X110594220Y-139151218D01*
X110651176Y-139376135D01*
X110744375Y-139588609D01*
X110828670Y-139717633D01*
X111458157Y-139088147D01*
X111461499Y-139104225D01*
X111530424Y-139237246D01*
X111632682Y-139346737D01*
X111760689Y-139424580D01*
X111813917Y-139439493D01*
X111253409Y-140000000D01*
X96500000Y-140000000D01*
X96500000Y-135000000D01*
X95000000Y-133500000D01*
X90000000Y-129000000D01*
X65000000Y-129000000D01*
X59500000Y-134000000D01*
X46000000Y-134000000D01*
X46000000Y-132080000D01*
X46451207Y-132080000D01*
X46470348Y-132323219D01*
X46527303Y-132560457D01*
X46620668Y-132785861D01*
X46744504Y-132987942D01*
X47480070Y-132252376D01*
X47482884Y-132265915D01*
X47552442Y-132400156D01*
X47655638Y-132510652D01*
X47784819Y-132589209D01*
X47836002Y-132603549D01*
X47098056Y-133341494D01*
X47300138Y-133465331D01*
X47525542Y-133558696D01*
X47762780Y-133615651D01*
X47762779Y-133615651D01*
X48006000Y-133634792D01*
X48249219Y-133615651D01*
X48486457Y-133558696D01*
X48711861Y-133465331D01*
X48913942Y-133341494D01*
X48177568Y-132605121D01*
X48294458Y-132554349D01*
X48411739Y-132458934D01*
X48498928Y-132335415D01*
X48529354Y-132249802D01*
X49267494Y-132987942D01*
X49391331Y-132785861D01*
X49484696Y-132560457D01*
X49541651Y-132323219D01*
X49560792Y-132080000D01*
X49541651Y-131836780D01*
X49484696Y-131599542D01*
X49391331Y-131374138D01*
X49267494Y-131172056D01*
X48531929Y-131907622D01*
X48529116Y-131894085D01*
X48459558Y-131759844D01*
X48356362Y-131649348D01*
X48227181Y-131570791D01*
X48175997Y-131556450D01*
X48913942Y-130818504D01*
X48711861Y-130694668D01*
X48486457Y-130601303D01*
X48249219Y-130544348D01*
X48249220Y-130544348D01*
X48006000Y-130525207D01*
X47762780Y-130544348D01*
X47525542Y-130601303D01*
X47300146Y-130694665D01*
X47300141Y-130694668D01*
X47098056Y-130818504D01*
X47834431Y-131554878D01*
X47717542Y-131605651D01*
X47600261Y-131701066D01*
X47513072Y-131824585D01*
X47482645Y-131910197D01*
X46744504Y-131172056D01*
X46620668Y-131374141D01*
X46620665Y-131374146D01*
X46527303Y-131599542D01*
X46470348Y-131836780D01*
X46451207Y-132080000D01*
X46000000Y-132080000D01*
X46000000Y-130000500D01*
X49975240Y-130000500D01*
X49975383Y-130000528D01*
X49975384Y-130000524D01*
X49999997Y-130000539D01*
X50000000Y-130000541D01*
X50000383Y-130000383D01*
X50000500Y-130000099D01*
X50000541Y-130000000D01*
X50000540Y-129999997D01*
X50000583Y-129975889D01*
X50000500Y-129975467D01*
X50000500Y-120024855D01*
X50000553Y-120024586D01*
X50000542Y-120000000D01*
X50000424Y-119999718D01*
X50000424Y-119999717D01*
X50000383Y-119999617D01*
X50000381Y-119999616D01*
X49983339Y-119982488D01*
X49982904Y-119982197D01*
X49009585Y-119008878D01*
X45011584Y-115010876D01*
X45000383Y-114999618D01*
X45000383Y-114999617D01*
X45000381Y-114999616D01*
X45000380Y-114999615D01*
X45000284Y-114999575D01*
X45000002Y-114999457D01*
X44975334Y-114999461D01*
X44975145Y-114999500D01*
X41000000Y-114999500D01*
X41000000Y-109474005D01*
X42339156Y-109474005D01*
X42358511Y-109781663D01*
X42358512Y-109781670D01*
X42416280Y-110084499D01*
X42511544Y-110377689D01*
X42511546Y-110377694D01*
X42642802Y-110656626D01*
X42642805Y-110656632D01*
X42807985Y-110916916D01*
X42893799Y-111020646D01*
X43747664Y-110166780D01*
X43886855Y-110341320D01*
X44056299Y-110489358D01*
X44103808Y-110517743D01*
X43244768Y-111376783D01*
X43244769Y-111376785D01*
X43478617Y-111546685D01*
X43478635Y-111546697D01*
X43748778Y-111695209D01*
X43748786Y-111695213D01*
X44035406Y-111808693D01*
X44334008Y-111885361D01*
X44334017Y-111885363D01*
X44639847Y-111923999D01*
X44639861Y-111924000D01*
X44948139Y-111924000D01*
X44948152Y-111923999D01*
X45253982Y-111885363D01*
X45253991Y-111885361D01*
X45552593Y-111808693D01*
X45839213Y-111695213D01*
X45839221Y-111695209D01*
X46109364Y-111546697D01*
X46109374Y-111546690D01*
X46343229Y-111376783D01*
X46343230Y-111376783D01*
X45484125Y-110517678D01*
X45619747Y-110419144D01*
X45775239Y-110256512D01*
X45836801Y-110163248D01*
X46694199Y-111020645D01*
X46780014Y-110916916D01*
X46945194Y-110656632D01*
X46945197Y-110656626D01*
X47076453Y-110377694D01*
X47076455Y-110377689D01*
X47171719Y-110084499D01*
X47229487Y-109781670D01*
X47229488Y-109781663D01*
X47248844Y-109474005D01*
X47248844Y-109473994D01*
X47229488Y-109166336D01*
X47229487Y-109166329D01*
X47171719Y-108863500D01*
X47076455Y-108570310D01*
X47076453Y-108570305D01*
X46945197Y-108291373D01*
X46945194Y-108291367D01*
X46780014Y-108031083D01*
X46694198Y-107927352D01*
X45840333Y-108781217D01*
X45701145Y-108606680D01*
X45531701Y-108458642D01*
X45484190Y-108430255D01*
X46343230Y-107571215D01*
X46343229Y-107571213D01*
X46109382Y-107401314D01*
X46109364Y-107401302D01*
X45839221Y-107252790D01*
X45839213Y-107252786D01*
X45552593Y-107139306D01*
X45253991Y-107062638D01*
X45253982Y-107062636D01*
X44948152Y-107024000D01*
X44639847Y-107024000D01*
X44334017Y-107062636D01*
X44334008Y-107062638D01*
X44035406Y-107139306D01*
X43748786Y-107252786D01*
X43748778Y-107252790D01*
X43478635Y-107401302D01*
X43478617Y-107401314D01*
X43244769Y-107571214D01*
X43244768Y-107571215D01*
X44103874Y-108430321D01*
X43968253Y-108528856D01*
X43812761Y-108691488D01*
X43751198Y-108784751D01*
X42893799Y-107927352D01*
X42807990Y-108031076D01*
X42807987Y-108031080D01*
X42642805Y-108291367D01*
X42642802Y-108291373D01*
X42511546Y-108570305D01*
X42511544Y-108570310D01*
X42416280Y-108863500D01*
X42358512Y-109166329D01*
X42358511Y-109166336D01*
X42339156Y-109473994D01*
X42339156Y-109474005D01*
X41000000Y-109474005D01*
X41000000Y-105000000D01*
X88000000Y-105000000D01*
X88000000Y-100000000D01*
X101294922Y-100000000D01*
X101315219Y-100387287D01*
X101375886Y-100770323D01*
X101375887Y-100770330D01*
X101476262Y-101144936D01*
X101615244Y-101506994D01*
X101791310Y-101852543D01*
X102002531Y-102177793D01*
X102211095Y-102435350D01*
X102211096Y-102435350D01*
X103108756Y-101537689D01*
X103067449Y-101599511D01*
X103048046Y-101697056D01*
X103067449Y-101794601D01*
X103122704Y-101877296D01*
X103205399Y-101932551D01*
X103278320Y-101947056D01*
X103327568Y-101947056D01*
X103400489Y-101932551D01*
X103462304Y-101891247D01*
X102564648Y-102788903D01*
X102564649Y-102788904D01*
X102822206Y-102997468D01*
X103147456Y-103208689D01*
X103493005Y-103384755D01*
X103855063Y-103523737D01*
X104229669Y-103624112D01*
X104229676Y-103624113D01*
X104612712Y-103684780D01*
X104999999Y-103705078D01*
X105000001Y-103705078D01*
X105387287Y-103684780D01*
X105770323Y-103624113D01*
X105770330Y-103624112D01*
X106144936Y-103523737D01*
X106506994Y-103384755D01*
X106852543Y-103208689D01*
X107177783Y-102997476D01*
X107177785Y-102997475D01*
X107435349Y-102788902D01*
X106537691Y-101891244D01*
X106599511Y-101932551D01*
X106672432Y-101947056D01*
X106721680Y-101947056D01*
X106794601Y-101932551D01*
X106877296Y-101877296D01*
X106932551Y-101794601D01*
X106951954Y-101697056D01*
X106932551Y-101599511D01*
X106891244Y-101537691D01*
X107788902Y-102435349D01*
X107997475Y-102177785D01*
X107997476Y-102177783D01*
X108208689Y-101852543D01*
X108384755Y-101506994D01*
X108523737Y-101144936D01*
X108624112Y-100770330D01*
X108624113Y-100770323D01*
X108684780Y-100387287D01*
X108705078Y-100000000D01*
X108705078Y-99999999D01*
X108684780Y-99612712D01*
X108624113Y-99229676D01*
X108624112Y-99229669D01*
X108523737Y-98855063D01*
X108384755Y-98493005D01*
X108208689Y-98147456D01*
X107997468Y-97822206D01*
X107788904Y-97564649D01*
X107788903Y-97564648D01*
X106891247Y-98462303D01*
X106932551Y-98400489D01*
X106951954Y-98302944D01*
X106932551Y-98205399D01*
X106877296Y-98122704D01*
X106794601Y-98067449D01*
X106721680Y-98052944D01*
X106672432Y-98052944D01*
X106599511Y-98067449D01*
X106537690Y-98108755D01*
X107435350Y-97211096D01*
X107435350Y-97211095D01*
X107177793Y-97002531D01*
X106852543Y-96791310D01*
X106506994Y-96615244D01*
X106144936Y-96476262D01*
X105770330Y-96375887D01*
X105770323Y-96375886D01*
X105387287Y-96315219D01*
X105000001Y-96294922D01*
X104999999Y-96294922D01*
X104612712Y-96315219D01*
X104229676Y-96375886D01*
X104229669Y-96375887D01*
X103855063Y-96476262D01*
X103493005Y-96615244D01*
X103147456Y-96791310D01*
X102822206Y-97002531D01*
X102564648Y-97211095D01*
X102564648Y-97211096D01*
X103462306Y-98108754D01*
X103400489Y-98067449D01*
X103327568Y-98052944D01*
X103278320Y-98052944D01*
X103205399Y-98067449D01*
X103122704Y-98122704D01*
X103067449Y-98205399D01*
X103048046Y-98302944D01*
X103067449Y-98400489D01*
X103108753Y-98462305D01*
X102211096Y-97564648D01*
X102211095Y-97564648D01*
X102002531Y-97822206D01*
X101791310Y-98147456D01*
X101615244Y-98493005D01*
X101476262Y-98855063D01*
X101375887Y-99229669D01*
X101375886Y-99229676D01*
X101315219Y-99612712D01*
X101294922Y-99999999D01*
X101294922Y-100000000D01*
X88000000Y-100000000D01*
X88000000Y-94540005D01*
X111215202Y-94540005D01*
X111234361Y-94771218D01*
X111291317Y-94996135D01*
X111384516Y-95208609D01*
X111468811Y-95337633D01*
X112136922Y-94669523D01*
X112160507Y-94749844D01*
X112238239Y-94870798D01*
X112346900Y-94964952D01*
X112477685Y-95024680D01*
X112487466Y-95026086D01*
X111821199Y-95692351D01*
X111851650Y-95716050D01*
X112055697Y-95826476D01*
X112055706Y-95826479D01*
X112275139Y-95901811D01*
X112503993Y-95940000D01*
X112736007Y-95940000D01*
X112964860Y-95901811D01*
X113184293Y-95826479D01*
X113184302Y-95826476D01*
X113388350Y-95716050D01*
X113418798Y-95692351D01*
X112752533Y-95026086D01*
X112762315Y-95024680D01*
X112893100Y-94964952D01*
X113001761Y-94870798D01*
X113079493Y-94749844D01*
X113103076Y-94669524D01*
X113771186Y-95337634D01*
X113855484Y-95208606D01*
X113948682Y-94996135D01*
X114005638Y-94771218D01*
X114024798Y-94540005D01*
X114024798Y-94539994D01*
X114005638Y-94308781D01*
X113948682Y-94083864D01*
X113855483Y-93871390D01*
X113771186Y-93742364D01*
X113103076Y-94410475D01*
X113079493Y-94330156D01*
X113001761Y-94209202D01*
X112893100Y-94115048D01*
X112762315Y-94055320D01*
X112752534Y-94053913D01*
X113418799Y-93387648D01*
X113418799Y-93387647D01*
X113388349Y-93363949D01*
X113184302Y-93253523D01*
X113184293Y-93253520D01*
X112964860Y-93178188D01*
X112736007Y-93140000D01*
X112503993Y-93140000D01*
X112275139Y-93178188D01*
X112055706Y-93253520D01*
X112055698Y-93253523D01*
X111851644Y-93363952D01*
X111821200Y-93387646D01*
X111821200Y-93387647D01*
X112487466Y-94053913D01*
X112477685Y-94055320D01*
X112346900Y-94115048D01*
X112238239Y-94209202D01*
X112160507Y-94330156D01*
X112136923Y-94410476D01*
X111468812Y-93742365D01*
X111384516Y-93871391D01*
X111384514Y-93871395D01*
X111291317Y-94083864D01*
X111234361Y-94308781D01*
X111215202Y-94539994D01*
X111215202Y-94540005D01*
X88000000Y-94540005D01*
X88000000Y-91956000D01*
X89070000Y-91956000D01*
X89070000Y-93253844D01*
X89076401Y-93313372D01*
X89076403Y-93313379D01*
X89126645Y-93448086D01*
X89126649Y-93448093D01*
X89212809Y-93563187D01*
X89212812Y-93563190D01*
X89327906Y-93649350D01*
X89327913Y-93649354D01*
X89462620Y-93699596D01*
X89462627Y-93699598D01*
X89522155Y-93705999D01*
X89522172Y-93706000D01*
X89920000Y-93706000D01*
X90420000Y-93706000D01*
X90817828Y-93706000D01*
X90817844Y-93705999D01*
X90877372Y-93699598D01*
X90877379Y-93699596D01*
X91012086Y-93649354D01*
X91012093Y-93649350D01*
X91127186Y-93563191D01*
X91215420Y-93445326D01*
X91271354Y-93403455D01*
X91341045Y-93398471D01*
X91402369Y-93431956D01*
X91413953Y-93445325D01*
X91465216Y-93513803D01*
X91502187Y-93563190D01*
X91502455Y-93563547D01*
X91617664Y-93649793D01*
X91617671Y-93649797D01*
X91752517Y-93700091D01*
X91752516Y-93700091D01*
X91759444Y-93700835D01*
X91812127Y-93706500D01*
X93107872Y-93706499D01*
X93167483Y-93700091D01*
X93302331Y-93649796D01*
X93417546Y-93563546D01*
X93503796Y-93448331D01*
X93503796Y-93448329D01*
X93505733Y-93445743D01*
X93561667Y-93403872D01*
X93631359Y-93398888D01*
X93692682Y-93432373D01*
X93704267Y-93445743D01*
X93706203Y-93448329D01*
X93706204Y-93448331D01*
X93792454Y-93563546D01*
X93821848Y-93585550D01*
X93907664Y-93649793D01*
X93907671Y-93649797D01*
X94042517Y-93700091D01*
X94042516Y-93700091D01*
X94049444Y-93700835D01*
X94102127Y-93706500D01*
X95397872Y-93706499D01*
X95457483Y-93700091D01*
X95592331Y-93649796D01*
X95707546Y-93563546D01*
X95793796Y-93448331D01*
X95844091Y-93313483D01*
X95850500Y-93253873D01*
X95850499Y-90158128D01*
X95844091Y-90098517D01*
X95810533Y-90008544D01*
X95793797Y-89963671D01*
X95793793Y-89963664D01*
X95707547Y-89848455D01*
X95707544Y-89848452D01*
X95592335Y-89762206D01*
X95592328Y-89762202D01*
X95523902Y-89736681D01*
X95467968Y-89694810D01*
X95443551Y-89629345D01*
X95458403Y-89561072D01*
X95507808Y-89511667D01*
X95567232Y-89496499D01*
X97317872Y-89496499D01*
X97377483Y-89490091D01*
X97512331Y-89439796D01*
X97627546Y-89353546D01*
X97713796Y-89238331D01*
X97764091Y-89103483D01*
X97770500Y-89043873D01*
X97770499Y-87748128D01*
X97764091Y-87688517D01*
X97751709Y-87655320D01*
X97713797Y-87553671D01*
X97713793Y-87553664D01*
X97627547Y-87438455D01*
X97509325Y-87349953D01*
X97467455Y-87294019D01*
X97462471Y-87224327D01*
X97495957Y-87163005D01*
X97509326Y-87151420D01*
X97627191Y-87063186D01*
X97713350Y-86948093D01*
X97713354Y-86948086D01*
X97763596Y-86813379D01*
X97763598Y-86813372D01*
X97769999Y-86753844D01*
X97770000Y-86753827D01*
X97770000Y-86356000D01*
X93770000Y-86356000D01*
X93770000Y-86753844D01*
X93776401Y-86813372D01*
X93776403Y-86813379D01*
X93826645Y-86948086D01*
X93826649Y-86948093D01*
X93912809Y-87063186D01*
X94030673Y-87151420D01*
X94072544Y-87207354D01*
X94077528Y-87277046D01*
X94044043Y-87338369D01*
X94030674Y-87349953D01*
X93912452Y-87438455D01*
X93826206Y-87553664D01*
X93826202Y-87553671D01*
X93775908Y-87688517D01*
X93772983Y-87715728D01*
X93769501Y-87748123D01*
X93769500Y-87748135D01*
X93769500Y-89043870D01*
X93769501Y-89043876D01*
X93775908Y-89103483D01*
X93826202Y-89238328D01*
X93826206Y-89238335D01*
X93912452Y-89353544D01*
X93912455Y-89353547D01*
X94027664Y-89439793D01*
X94027671Y-89439797D01*
X94105655Y-89468883D01*
X94161589Y-89510754D01*
X94186006Y-89576218D01*
X94171155Y-89644491D01*
X94121750Y-89693897D01*
X94075576Y-89708355D01*
X94042516Y-89711909D01*
X93907671Y-89762202D01*
X93907664Y-89762206D01*
X93792455Y-89848452D01*
X93704266Y-89966257D01*
X93648332Y-90008127D01*
X93578640Y-90013111D01*
X93517318Y-89979625D01*
X93505734Y-89966257D01*
X93431168Y-89866651D01*
X93417546Y-89848454D01*
X93417544Y-89848453D01*
X93417544Y-89848452D01*
X93302335Y-89762206D01*
X93302328Y-89762202D01*
X93167482Y-89711908D01*
X93167483Y-89711908D01*
X93107883Y-89705501D01*
X93107881Y-89705500D01*
X93107873Y-89705500D01*
X93107864Y-89705500D01*
X91812129Y-89705500D01*
X91812123Y-89705501D01*
X91752516Y-89711908D01*
X91617671Y-89762202D01*
X91617664Y-89762206D01*
X91502455Y-89848452D01*
X91413953Y-89966674D01*
X91358019Y-90008544D01*
X91288327Y-90013528D01*
X91227004Y-89980042D01*
X91215420Y-89966673D01*
X91127186Y-89848809D01*
X91012093Y-89762649D01*
X91012086Y-89762645D01*
X90877379Y-89712403D01*
X90877372Y-89712401D01*
X90817844Y-89706000D01*
X90420000Y-89706000D01*
X90420000Y-93706000D01*
X89920000Y-93706000D01*
X89920000Y-91956000D01*
X89070000Y-91956000D01*
X88000000Y-91956000D01*
X88000000Y-91456000D01*
X89070000Y-91456000D01*
X89920000Y-91456000D01*
X89920000Y-89706000D01*
X89522155Y-89706000D01*
X89462627Y-89712401D01*
X89462620Y-89712403D01*
X89327913Y-89762645D01*
X89327906Y-89762649D01*
X89212812Y-89848809D01*
X89212809Y-89848812D01*
X89126649Y-89963906D01*
X89126645Y-89963913D01*
X89076403Y-90098620D01*
X89076401Y-90098627D01*
X89070000Y-90158155D01*
X89070000Y-91456000D01*
X88000000Y-91456000D01*
X88000000Y-87000000D01*
X86975000Y-87000000D01*
X86975000Y-85208650D01*
X85464000Y-85208650D01*
X85396961Y-85188965D01*
X85351206Y-85136161D01*
X85340000Y-85084650D01*
X85340000Y-84832650D01*
X85359685Y-84765611D01*
X85412489Y-84719856D01*
X85464000Y-84708650D01*
X86975000Y-84708650D01*
X86975000Y-82937099D01*
X86994685Y-82870060D01*
X87047489Y-82824305D01*
X87098998Y-82813099D01*
X88823072Y-82813099D01*
X88882683Y-82806691D01*
X89017531Y-82756396D01*
X89132746Y-82670146D01*
X89218996Y-82554931D01*
X89218996Y-82554929D01*
X89218998Y-82554927D01*
X89223357Y-82543239D01*
X89255723Y-82500000D01*
X89462273Y-82500000D01*
X89462517Y-82500091D01*
G37*
%TD.AperFunction*%
%TA.AperFunction,Conductor*%
G36*
X68634517Y-82500091D02*
G01*
X68634516Y-82500091D01*
X68641444Y-82500835D01*
X68694127Y-82506500D01*
X69989872Y-82506499D01*
X70049483Y-82500091D01*
X70049727Y-82500000D01*
X73214273Y-82500000D01*
X73214517Y-82500091D01*
X73247579Y-82503645D01*
X73312127Y-82530381D01*
X73351976Y-82587773D01*
X73354471Y-82657598D01*
X73318819Y-82717688D01*
X73277656Y-82743116D01*
X73199669Y-82772203D01*
X73199664Y-82772206D01*
X73084455Y-82858452D01*
X73084452Y-82858455D01*
X72998206Y-82973664D01*
X72998202Y-82973671D01*
X72947908Y-83108517D01*
X72941501Y-83168116D01*
X72941501Y-83168123D01*
X72941500Y-83168135D01*
X72941500Y-84463870D01*
X72941501Y-84463876D01*
X72947908Y-84523483D01*
X72998202Y-84658328D01*
X72998206Y-84658335D01*
X73084452Y-84773544D01*
X73084453Y-84773544D01*
X73084454Y-84773546D01*
X73146469Y-84819970D01*
X73202674Y-84862046D01*
X73244544Y-84917980D01*
X73249528Y-84987671D01*
X73216042Y-85048994D01*
X73202674Y-85060578D01*
X73084809Y-85148812D01*
X72998649Y-85263906D01*
X72998645Y-85263913D01*
X72948403Y-85398620D01*
X72948401Y-85398627D01*
X72942000Y-85458155D01*
X72942000Y-85856000D01*
X76942000Y-85856000D01*
X76942000Y-85458172D01*
X76941999Y-85458155D01*
X76935598Y-85398627D01*
X76935596Y-85398620D01*
X76885354Y-85263913D01*
X76885350Y-85263906D01*
X76799190Y-85148812D01*
X76799187Y-85148809D01*
X76681326Y-85060578D01*
X76639455Y-85004645D01*
X76634471Y-84934953D01*
X76667956Y-84873630D01*
X76681326Y-84862045D01*
X76684329Y-84859796D01*
X76684331Y-84859796D01*
X76799546Y-84773546D01*
X76885796Y-84658331D01*
X76936091Y-84523483D01*
X76942500Y-84463873D01*
X76942499Y-83562000D01*
X80126001Y-83562000D01*
X80126001Y-83774486D01*
X80136494Y-83877197D01*
X80191641Y-84043619D01*
X80191643Y-84043624D01*
X80283684Y-84192845D01*
X80407654Y-84316815D01*
X80556875Y-84408856D01*
X80556880Y-84408858D01*
X80723302Y-84464005D01*
X80723309Y-84464006D01*
X80826019Y-84474499D01*
X81275999Y-84474499D01*
X81276000Y-84474498D01*
X81276000Y-83562000D01*
X80126001Y-83562000D01*
X76942499Y-83562000D01*
X76942499Y-83168128D01*
X76936091Y-83108517D01*
X76926083Y-83081685D01*
X76885797Y-82973671D01*
X76885793Y-82973664D01*
X76799547Y-82858455D01*
X76799544Y-82858452D01*
X76684335Y-82772206D01*
X76684328Y-82772202D01*
X76549482Y-82721908D01*
X76549483Y-82721908D01*
X76489883Y-82715501D01*
X76489881Y-82715500D01*
X76489873Y-82715500D01*
X76489865Y-82715500D01*
X74739235Y-82715500D01*
X74672196Y-82695815D01*
X74626441Y-82643011D01*
X74616497Y-82573853D01*
X74645522Y-82510297D01*
X74660353Y-82500000D01*
X80241219Y-82500000D01*
X80191643Y-82580375D01*
X80191641Y-82580380D01*
X80136494Y-82746802D01*
X80136493Y-82746809D01*
X80126000Y-82849513D01*
X80126000Y-83062000D01*
X81652000Y-83062000D01*
X81719039Y-83081685D01*
X81764794Y-83134489D01*
X81776000Y-83186000D01*
X81776000Y-84474499D01*
X82225972Y-84474499D01*
X82225986Y-84474498D01*
X82328697Y-84464005D01*
X82416864Y-84434790D01*
X82486692Y-84432388D01*
X82546734Y-84468120D01*
X82572566Y-84516527D01*
X82573691Y-84516108D01*
X82626645Y-84658086D01*
X82626649Y-84658093D01*
X82712809Y-84773187D01*
X82831091Y-84861734D01*
X82872961Y-84917668D01*
X82877945Y-84987359D01*
X82844459Y-85048682D01*
X82831091Y-85060266D01*
X82712809Y-85148812D01*
X82626649Y-85263906D01*
X82626646Y-85263911D01*
X82604882Y-85322265D01*
X82563010Y-85378198D01*
X82497546Y-85402615D01*
X82429273Y-85387763D01*
X82423603Y-85384470D01*
X82320124Y-85320643D01*
X82320119Y-85320641D01*
X82153697Y-85265494D01*
X82153690Y-85265493D01*
X82050986Y-85255000D01*
X81776000Y-85255000D01*
X81776000Y-86092500D01*
X82530000Y-86092500D01*
X82530000Y-85980000D01*
X82549685Y-85912961D01*
X82602489Y-85867206D01*
X82654000Y-85856000D01*
X84696000Y-85856000D01*
X84763039Y-85875685D01*
X84808794Y-85928489D01*
X84820000Y-85980000D01*
X84820000Y-86232000D01*
X84800315Y-86299039D01*
X84747511Y-86344794D01*
X84696000Y-86356000D01*
X82791000Y-86356000D01*
X82791000Y-86468500D01*
X82771315Y-86535539D01*
X82718511Y-86581294D01*
X82667000Y-86592500D01*
X80301001Y-86592500D01*
X80301001Y-86729986D01*
X80311494Y-86832697D01*
X80366641Y-86999119D01*
X80366645Y-86999128D01*
X80367183Y-87000000D01*
X79000000Y-87000000D01*
X79000000Y-94000000D01*
X68000000Y-94000000D01*
X68000000Y-91956000D01*
X68242000Y-91956000D01*
X68242000Y-93253844D01*
X68248401Y-93313372D01*
X68248403Y-93313379D01*
X68298645Y-93448086D01*
X68298649Y-93448093D01*
X68384809Y-93563187D01*
X68384812Y-93563190D01*
X68499906Y-93649350D01*
X68499913Y-93649354D01*
X68634620Y-93699596D01*
X68634627Y-93699598D01*
X68694155Y-93705999D01*
X68694172Y-93706000D01*
X69092000Y-93706000D01*
X69592000Y-93706000D01*
X69989828Y-93706000D01*
X69989844Y-93705999D01*
X70049372Y-93699598D01*
X70049379Y-93699596D01*
X70184086Y-93649354D01*
X70184093Y-93649350D01*
X70299186Y-93563191D01*
X70387420Y-93445326D01*
X70443354Y-93403455D01*
X70513045Y-93398471D01*
X70574369Y-93431956D01*
X70585953Y-93445325D01*
X70637216Y-93513803D01*
X70674187Y-93563190D01*
X70674455Y-93563547D01*
X70789664Y-93649793D01*
X70789671Y-93649797D01*
X70924517Y-93700091D01*
X70924516Y-93700091D01*
X70931444Y-93700835D01*
X70984127Y-93706500D01*
X72279872Y-93706499D01*
X72339483Y-93700091D01*
X72474331Y-93649796D01*
X72589546Y-93563546D01*
X72675796Y-93448331D01*
X72675796Y-93448329D01*
X72677733Y-93445743D01*
X72733667Y-93403872D01*
X72803359Y-93398888D01*
X72864682Y-93432373D01*
X72876267Y-93445743D01*
X72878203Y-93448329D01*
X72878204Y-93448331D01*
X72964454Y-93563546D01*
X72993848Y-93585550D01*
X73079664Y-93649793D01*
X73079671Y-93649797D01*
X73214517Y-93700091D01*
X73214516Y-93700091D01*
X73221444Y-93700835D01*
X73274127Y-93706500D01*
X74569872Y-93706499D01*
X74629483Y-93700091D01*
X74764331Y-93649796D01*
X74879546Y-93563546D01*
X74965796Y-93448331D01*
X75016091Y-93313483D01*
X75022500Y-93253873D01*
X75022499Y-90158128D01*
X75016091Y-90098517D01*
X74982533Y-90008544D01*
X74965797Y-89963671D01*
X74965793Y-89963664D01*
X74879547Y-89848455D01*
X74879544Y-89848452D01*
X74764335Y-89762206D01*
X74764328Y-89762202D01*
X74695902Y-89736681D01*
X74639968Y-89694810D01*
X74615551Y-89629345D01*
X74630403Y-89561072D01*
X74679808Y-89511667D01*
X74739232Y-89496499D01*
X76489872Y-89496499D01*
X76549483Y-89490091D01*
X76684331Y-89439796D01*
X76799546Y-89353546D01*
X76885796Y-89238331D01*
X76936091Y-89103483D01*
X76942500Y-89043873D01*
X76942499Y-87748128D01*
X76936091Y-87688517D01*
X76923709Y-87655320D01*
X76885797Y-87553671D01*
X76885793Y-87553664D01*
X76799547Y-87438455D01*
X76681325Y-87349953D01*
X76639455Y-87294019D01*
X76634471Y-87224327D01*
X76667957Y-87163005D01*
X76681326Y-87151420D01*
X76799191Y-87063186D01*
X76885350Y-86948093D01*
X76885354Y-86948086D01*
X76935596Y-86813379D01*
X76935598Y-86813372D01*
X76941999Y-86753844D01*
X76942000Y-86753827D01*
X76942000Y-86356000D01*
X72942000Y-86356000D01*
X72942000Y-86753844D01*
X72948401Y-86813372D01*
X72948403Y-86813379D01*
X72998645Y-86948086D01*
X72998649Y-86948093D01*
X73084809Y-87063186D01*
X73202673Y-87151420D01*
X73244544Y-87207354D01*
X73249528Y-87277046D01*
X73216043Y-87338369D01*
X73202674Y-87349953D01*
X73084452Y-87438455D01*
X72998206Y-87553664D01*
X72998202Y-87553671D01*
X72947908Y-87688517D01*
X72944983Y-87715728D01*
X72941501Y-87748123D01*
X72941500Y-87748135D01*
X72941500Y-89043870D01*
X72941501Y-89043876D01*
X72947908Y-89103483D01*
X72998202Y-89238328D01*
X72998206Y-89238335D01*
X73084452Y-89353544D01*
X73084455Y-89353547D01*
X73199664Y-89439793D01*
X73199671Y-89439797D01*
X73277655Y-89468883D01*
X73333589Y-89510754D01*
X73358006Y-89576218D01*
X73343155Y-89644491D01*
X73293750Y-89693897D01*
X73247576Y-89708355D01*
X73214516Y-89711909D01*
X73079671Y-89762202D01*
X73079664Y-89762206D01*
X72964455Y-89848452D01*
X72876266Y-89966257D01*
X72820332Y-90008127D01*
X72750640Y-90013111D01*
X72689318Y-89979625D01*
X72677734Y-89966257D01*
X72603168Y-89866651D01*
X72589546Y-89848454D01*
X72589544Y-89848453D01*
X72589544Y-89848452D01*
X72474335Y-89762206D01*
X72474328Y-89762202D01*
X72339482Y-89711908D01*
X72339483Y-89711908D01*
X72279883Y-89705501D01*
X72279881Y-89705500D01*
X72279873Y-89705500D01*
X72279864Y-89705500D01*
X70984129Y-89705500D01*
X70984123Y-89705501D01*
X70924516Y-89711908D01*
X70789671Y-89762202D01*
X70789664Y-89762206D01*
X70674455Y-89848452D01*
X70585953Y-89966674D01*
X70530019Y-90008544D01*
X70460327Y-90013528D01*
X70399004Y-89980042D01*
X70387420Y-89966673D01*
X70299186Y-89848809D01*
X70184093Y-89762649D01*
X70184086Y-89762645D01*
X70049379Y-89712403D01*
X70049372Y-89712401D01*
X69989844Y-89706000D01*
X69592000Y-89706000D01*
X69592000Y-93706000D01*
X69092000Y-93706000D01*
X69092000Y-91956000D01*
X68242000Y-91956000D01*
X68000000Y-91956000D01*
X68000000Y-91456000D01*
X68242000Y-91456000D01*
X69092000Y-91456000D01*
X69092000Y-89706000D01*
X68694155Y-89706000D01*
X68634627Y-89712401D01*
X68634620Y-89712403D01*
X68499913Y-89762645D01*
X68499906Y-89762649D01*
X68384812Y-89848809D01*
X68384809Y-89848812D01*
X68298649Y-89963906D01*
X68298645Y-89963913D01*
X68248403Y-90098620D01*
X68248401Y-90098627D01*
X68242000Y-90158155D01*
X68242000Y-91456000D01*
X68000000Y-91456000D01*
X68000000Y-87000000D01*
X66147000Y-87000000D01*
X66147000Y-86092500D01*
X80301000Y-86092500D01*
X81276000Y-86092500D01*
X81276000Y-85255000D01*
X81001029Y-85255000D01*
X81001012Y-85255001D01*
X80898302Y-85265494D01*
X80731880Y-85320641D01*
X80731875Y-85320643D01*
X80582654Y-85412684D01*
X80458684Y-85536654D01*
X80366643Y-85685875D01*
X80366641Y-85685880D01*
X80311494Y-85852302D01*
X80311493Y-85852309D01*
X80301000Y-85955013D01*
X80301000Y-86092500D01*
X66147000Y-86092500D01*
X66147000Y-85208650D01*
X64636000Y-85208650D01*
X64568961Y-85188965D01*
X64523206Y-85136161D01*
X64512000Y-85084650D01*
X64512000Y-84832650D01*
X64531685Y-84765611D01*
X64584489Y-84719856D01*
X64636000Y-84708650D01*
X66147000Y-84708650D01*
X66147000Y-82937099D01*
X66166685Y-82870060D01*
X66219489Y-82824305D01*
X66270998Y-82813099D01*
X67995072Y-82813099D01*
X68054683Y-82806691D01*
X68189531Y-82756396D01*
X68304746Y-82670146D01*
X68390996Y-82554931D01*
X68390996Y-82554929D01*
X68390998Y-82554927D01*
X68395357Y-82543239D01*
X68427723Y-82500000D01*
X68634273Y-82500000D01*
X68634517Y-82500091D01*
G37*
%TD.AperFunction*%
%TA.AperFunction,Conductor*%
G36*
X58963643Y-82580375D02*
G01*
X58963641Y-82580380D01*
X58908494Y-82746802D01*
X58908493Y-82746809D01*
X58898000Y-82849513D01*
X58898000Y-83062000D01*
X60424000Y-83062000D01*
X60491039Y-83081685D01*
X60536794Y-83134489D01*
X60548000Y-83186000D01*
X60548000Y-84474499D01*
X60997972Y-84474499D01*
X60997986Y-84474498D01*
X61100697Y-84464005D01*
X61267119Y-84408858D01*
X61267124Y-84408856D01*
X61416345Y-84316815D01*
X61530319Y-84202842D01*
X61591642Y-84169357D01*
X61661334Y-84174341D01*
X61717267Y-84216213D01*
X61741684Y-84281677D01*
X61742000Y-84290523D01*
X61742000Y-84463844D01*
X61748401Y-84523372D01*
X61748403Y-84523379D01*
X61798645Y-84658086D01*
X61798649Y-84658093D01*
X61884809Y-84773187D01*
X62003091Y-84861734D01*
X62044961Y-84917668D01*
X62049945Y-84987359D01*
X62016459Y-85048682D01*
X62003091Y-85060266D01*
X61884809Y-85148812D01*
X61798649Y-85263906D01*
X61798645Y-85263913D01*
X61748403Y-85398620D01*
X61748401Y-85398626D01*
X61745760Y-85423195D01*
X61719022Y-85487745D01*
X61661629Y-85527593D01*
X61591803Y-85530086D01*
X61531715Y-85494433D01*
X61504765Y-85448942D01*
X61457358Y-85305880D01*
X61457356Y-85305875D01*
X61365315Y-85156654D01*
X61241345Y-85032684D01*
X61092124Y-84940643D01*
X61092119Y-84940641D01*
X60925697Y-84885494D01*
X60925690Y-84885493D01*
X60822986Y-84875000D01*
X60548000Y-84875000D01*
X60548000Y-86088500D01*
X60528315Y-86155539D01*
X60475511Y-86201294D01*
X60424000Y-86212500D01*
X59073001Y-86212500D01*
X59073001Y-86349986D01*
X59083494Y-86452697D01*
X59138641Y-86619119D01*
X59138643Y-86619124D01*
X59230684Y-86768345D01*
X59354655Y-86892316D01*
X59354659Y-86892319D01*
X59357656Y-86894168D01*
X59359279Y-86895972D01*
X59360323Y-86896798D01*
X59360181Y-86896976D01*
X59404381Y-86946116D01*
X59413148Y-87000000D01*
X58000000Y-87000000D01*
X56712500Y-85712500D01*
X59073000Y-85712500D01*
X60048000Y-85712500D01*
X60048000Y-84875000D01*
X59773029Y-84875000D01*
X59773012Y-84875001D01*
X59670302Y-84885494D01*
X59503880Y-84940641D01*
X59503875Y-84940643D01*
X59354654Y-85032684D01*
X59230684Y-85156654D01*
X59138643Y-85305875D01*
X59138641Y-85305880D01*
X59083494Y-85472302D01*
X59083493Y-85472309D01*
X59073000Y-85575013D01*
X59073000Y-85712500D01*
X56712500Y-85712500D01*
X56000000Y-85000000D01*
X56000000Y-83562000D01*
X58898001Y-83562000D01*
X58898001Y-83774486D01*
X58908494Y-83877197D01*
X58963641Y-84043619D01*
X58963643Y-84043624D01*
X59055684Y-84192845D01*
X59179654Y-84316815D01*
X59328875Y-84408856D01*
X59328880Y-84408858D01*
X59495302Y-84464005D01*
X59495309Y-84464006D01*
X59598019Y-84474499D01*
X60047999Y-84474499D01*
X60048000Y-84474498D01*
X60048000Y-83562000D01*
X58898001Y-83562000D01*
X56000000Y-83562000D01*
X56000000Y-82500000D01*
X59013219Y-82500000D01*
X58963643Y-82580375D01*
G37*
%TD.AperFunction*%
%TA.AperFunction,Conductor*%
G36*
X100000000Y-84021409D02*
G01*
X96978591Y-81000000D01*
X100000000Y-81000000D01*
X100000000Y-84021409D01*
G37*
%TD.AperFunction*%
%TA.AperFunction,Conductor*%
G36*
X96055701Y-81846737D02*
G01*
X96062180Y-81852770D01*
X96713228Y-82503819D01*
X96746713Y-82565142D01*
X96741729Y-82634834D01*
X96699857Y-82690767D01*
X96634393Y-82715184D01*
X96625547Y-82715500D01*
X95567235Y-82715500D01*
X95500196Y-82695815D01*
X95454441Y-82643011D01*
X95444497Y-82573853D01*
X95473522Y-82510297D01*
X95523903Y-82475318D01*
X95592326Y-82449798D01*
X95592326Y-82449797D01*
X95592331Y-82449796D01*
X95707546Y-82363546D01*
X95793796Y-82248331D01*
X95844091Y-82113483D01*
X95850500Y-82053873D01*
X95850499Y-81940449D01*
X95870183Y-81873412D01*
X95922987Y-81827657D01*
X95992145Y-81817713D01*
X96055701Y-81846737D01*
G37*
%TD.AperFunction*%
%TD*%
%TA.AperFunction,Conductor*%
%TO.N,+5V*%
G36*
X51856420Y-81502867D02*
G01*
X51794601Y-81461561D01*
X51721680Y-81447056D01*
X51672432Y-81447056D01*
X51599511Y-81461561D01*
X51516816Y-81516816D01*
X51461561Y-81599511D01*
X51442158Y-81697056D01*
X51461561Y-81794601D01*
X51502867Y-81856420D01*
X50944180Y-81297733D01*
X51134870Y-81134870D01*
X51297733Y-80944180D01*
X51856420Y-81502867D01*
G37*
%TD.AperFunction*%
%TA.AperFunction,Conductor*%
G36*
X48865130Y-81134870D02*
G01*
X49055819Y-81297733D01*
X48497135Y-81856416D01*
X48538439Y-81794601D01*
X48557842Y-81697056D01*
X48538439Y-81599511D01*
X48483184Y-81516816D01*
X48400489Y-81461561D01*
X48327568Y-81447056D01*
X48278320Y-81447056D01*
X48205399Y-81461561D01*
X48143577Y-81502868D01*
X48702266Y-80944180D01*
X48865130Y-81134870D01*
G37*
%TD.AperFunction*%
%TA.AperFunction,Conductor*%
G36*
X49055819Y-78702266D02*
G01*
X48865130Y-78865130D01*
X48702266Y-79055818D01*
X48143582Y-78497134D01*
X48205399Y-78538439D01*
X48278320Y-78552944D01*
X48327568Y-78552944D01*
X48400489Y-78538439D01*
X48483184Y-78483184D01*
X48538439Y-78400489D01*
X48557842Y-78302944D01*
X48538439Y-78205399D01*
X48497133Y-78143581D01*
X49055819Y-78702266D01*
G37*
%TD.AperFunction*%
%TA.AperFunction,Conductor*%
G36*
X51461561Y-78205399D02*
G01*
X51442158Y-78302944D01*
X51461561Y-78400489D01*
X51516816Y-78483184D01*
X51599511Y-78538439D01*
X51672432Y-78552944D01*
X51721680Y-78552944D01*
X51794601Y-78538439D01*
X51856415Y-78497135D01*
X51297732Y-79055818D01*
X51134870Y-78865130D01*
X50944180Y-78702266D01*
X51502867Y-78143578D01*
X51461561Y-78205399D01*
G37*
%TD.AperFunction*%
%TA.AperFunction,Conductor*%
G36*
X70443039Y-74019685D02*
G01*
X70488794Y-74072489D01*
X70500000Y-74124000D01*
X70500000Y-78551416D01*
X70480315Y-78618455D01*
X70427511Y-78664210D01*
X70358353Y-78674154D01*
X70301689Y-78650682D01*
X70184093Y-78562649D01*
X70184086Y-78562645D01*
X70049379Y-78512403D01*
X70049372Y-78512401D01*
X69989844Y-78506000D01*
X69592000Y-78506000D01*
X69592000Y-80632000D01*
X69572315Y-80699039D01*
X69519511Y-80744794D01*
X69468000Y-80756000D01*
X69216000Y-80756000D01*
X69148961Y-80736315D01*
X69103206Y-80683511D01*
X69092000Y-80632000D01*
X69092000Y-78506000D01*
X68694155Y-78506000D01*
X68634627Y-78512401D01*
X68634620Y-78512403D01*
X68499913Y-78562645D01*
X68499906Y-78562649D01*
X68384812Y-78648809D01*
X68384809Y-78648812D01*
X68298649Y-78763906D01*
X68298645Y-78763913D01*
X68248403Y-78898620D01*
X68248401Y-78898627D01*
X68242000Y-78958155D01*
X68242000Y-79848313D01*
X68222315Y-79915352D01*
X68169511Y-79961107D01*
X68100353Y-79971051D01*
X68074668Y-79964495D01*
X68054583Y-79957003D01*
X68054572Y-79957001D01*
X67995044Y-79950600D01*
X65986000Y-79950600D01*
X65918961Y-79930915D01*
X65873206Y-79878111D01*
X65862000Y-79826600D01*
X65862000Y-78958172D01*
X65861999Y-78958155D01*
X65855598Y-78898627D01*
X65855596Y-78898620D01*
X65805354Y-78763913D01*
X65805350Y-78763906D01*
X65719190Y-78648812D01*
X65719187Y-78648809D01*
X65604093Y-78562649D01*
X65604086Y-78562645D01*
X65469379Y-78512403D01*
X65469372Y-78512401D01*
X65409844Y-78506000D01*
X65012000Y-78506000D01*
X65012000Y-80632000D01*
X64992315Y-80699039D01*
X64939511Y-80744794D01*
X64888000Y-80756000D01*
X64636000Y-80756000D01*
X64568961Y-80736315D01*
X64523206Y-80683511D01*
X64512000Y-80632000D01*
X64512000Y-78506000D01*
X64114155Y-78506000D01*
X64054627Y-78512401D01*
X64054620Y-78512403D01*
X63919913Y-78562645D01*
X63919906Y-78562649D01*
X63804812Y-78648809D01*
X63804809Y-78648812D01*
X63718649Y-78763906D01*
X63718645Y-78763913D01*
X63668403Y-78898620D01*
X63668401Y-78898627D01*
X63662000Y-78958155D01*
X63662000Y-79873825D01*
X63642315Y-79940864D01*
X63589511Y-79986619D01*
X63581335Y-79990006D01*
X63535108Y-80007247D01*
X63535107Y-80007248D01*
X63420012Y-80093409D01*
X63420009Y-80093412D01*
X63333849Y-80208506D01*
X63333845Y-80208513D01*
X63283603Y-80343220D01*
X63283601Y-80343227D01*
X63277200Y-80402755D01*
X63277200Y-81131600D01*
X65988200Y-81131600D01*
X66055239Y-81151285D01*
X66100994Y-81204089D01*
X66112200Y-81255600D01*
X66112200Y-81507600D01*
X66092515Y-81574639D01*
X66039711Y-81620394D01*
X65988200Y-81631600D01*
X63277200Y-81631600D01*
X63277200Y-81870500D01*
X63257515Y-81937539D01*
X63204711Y-81983294D01*
X63153200Y-81994500D01*
X61582780Y-81994500D01*
X61543613Y-81996936D01*
X61520111Y-81998399D01*
X61520110Y-81998399D01*
X61381338Y-82036371D01*
X61258874Y-82111907D01*
X61243820Y-82128644D01*
X61184350Y-82165320D01*
X61114493Y-82164023D01*
X61112632Y-82163422D01*
X61100805Y-82159503D01*
X61100800Y-82159502D01*
X61100797Y-82159501D01*
X61100792Y-82159500D01*
X61100790Y-82159500D01*
X60998010Y-82149000D01*
X59597998Y-82149000D01*
X59597981Y-82149001D01*
X59495203Y-82159500D01*
X59495200Y-82159501D01*
X59481916Y-82163903D01*
X59412087Y-82166301D01*
X59361715Y-82139908D01*
X59286518Y-82074750D01*
X59286516Y-82074748D01*
X59286513Y-82074746D01*
X59286509Y-82074744D01*
X59155638Y-82014976D01*
X59155633Y-82014975D01*
X59013219Y-81994500D01*
X56000000Y-81994500D01*
X55928059Y-81999644D01*
X55790005Y-82040182D01*
X55668969Y-82117967D01*
X55668965Y-82117971D01*
X55574750Y-82226700D01*
X55574744Y-82226709D01*
X55514976Y-82357580D01*
X55514975Y-82357585D01*
X55494500Y-82499999D01*
X55494500Y-84876000D01*
X55474815Y-84943039D01*
X55422011Y-84988794D01*
X55370500Y-85000000D01*
X48051362Y-85000000D01*
X47984323Y-84980315D01*
X47963681Y-84963681D01*
X47249176Y-84249176D01*
X47218926Y-84199812D01*
X47182182Y-84086724D01*
X47182180Y-84086720D01*
X47182179Y-84086716D01*
X47087533Y-83922784D01*
X46960871Y-83782112D01*
X46960870Y-83782111D01*
X46807734Y-83670851D01*
X46807729Y-83670848D01*
X46634807Y-83593857D01*
X46634805Y-83593856D01*
X46618728Y-83590439D01*
X46557247Y-83557245D01*
X46556830Y-83556830D01*
X45036319Y-82036319D01*
X45002834Y-81974996D01*
X45000000Y-81948638D01*
X45000000Y-80000000D01*
X46294922Y-80000000D01*
X46315219Y-80387287D01*
X46375886Y-80770323D01*
X46375887Y-80770330D01*
X46476262Y-81144936D01*
X46615244Y-81506994D01*
X46791310Y-81852543D01*
X47002531Y-82177793D01*
X47211095Y-82435350D01*
X47211096Y-82435350D01*
X48108756Y-81537689D01*
X48067449Y-81599511D01*
X48048046Y-81697056D01*
X48067449Y-81794601D01*
X48122704Y-81877296D01*
X48205399Y-81932551D01*
X48278320Y-81947056D01*
X48327568Y-81947056D01*
X48400489Y-81932551D01*
X48462304Y-81891247D01*
X47564648Y-82788903D01*
X47564649Y-82788904D01*
X47822206Y-82997468D01*
X48147456Y-83208689D01*
X48493005Y-83384755D01*
X48855063Y-83523737D01*
X49229669Y-83624112D01*
X49229676Y-83624113D01*
X49612712Y-83684780D01*
X49999999Y-83705078D01*
X50000001Y-83705078D01*
X50387287Y-83684780D01*
X50770323Y-83624113D01*
X50770330Y-83624112D01*
X51144936Y-83523737D01*
X51506994Y-83384755D01*
X51852543Y-83208689D01*
X52177783Y-82997476D01*
X52177785Y-82997475D01*
X52435349Y-82788902D01*
X51537691Y-81891244D01*
X51599511Y-81932551D01*
X51672432Y-81947056D01*
X51721680Y-81947056D01*
X51794601Y-81932551D01*
X51877296Y-81877296D01*
X51932551Y-81794601D01*
X51951954Y-81697056D01*
X51932551Y-81599511D01*
X51891244Y-81537691D01*
X52788902Y-82435349D01*
X52997475Y-82177785D01*
X52997476Y-82177783D01*
X53208689Y-81852543D01*
X53384755Y-81506994D01*
X53523737Y-81144936D01*
X53624112Y-80770330D01*
X53624113Y-80770323D01*
X53676906Y-80437000D01*
X58898001Y-80437000D01*
X58898001Y-80649486D01*
X58908494Y-80752197D01*
X58963641Y-80918619D01*
X58963643Y-80918624D01*
X59055684Y-81067845D01*
X59179654Y-81191815D01*
X59328875Y-81283856D01*
X59328880Y-81283858D01*
X59495302Y-81339005D01*
X59495309Y-81339006D01*
X59598019Y-81349499D01*
X60047999Y-81349499D01*
X60048000Y-81349498D01*
X60048000Y-80437000D01*
X60548000Y-80437000D01*
X60548000Y-81349499D01*
X60997972Y-81349499D01*
X60997986Y-81349498D01*
X61100697Y-81339005D01*
X61267119Y-81283858D01*
X61267124Y-81283856D01*
X61416345Y-81191815D01*
X61540315Y-81067845D01*
X61632356Y-80918624D01*
X61632358Y-80918619D01*
X61687505Y-80752197D01*
X61687506Y-80752190D01*
X61697999Y-80649486D01*
X61698000Y-80649473D01*
X61698000Y-80437000D01*
X60548000Y-80437000D01*
X60048000Y-80437000D01*
X58898001Y-80437000D01*
X53676906Y-80437000D01*
X53684780Y-80387287D01*
X53705078Y-80000000D01*
X53705078Y-79999999D01*
X53701776Y-79937000D01*
X58898000Y-79937000D01*
X60048000Y-79937000D01*
X60048000Y-79024500D01*
X60548000Y-79024500D01*
X60548000Y-79937000D01*
X61697999Y-79937000D01*
X61697999Y-79724528D01*
X61697998Y-79724513D01*
X61687505Y-79621802D01*
X61632358Y-79455380D01*
X61632356Y-79455375D01*
X61540315Y-79306154D01*
X61416345Y-79182184D01*
X61267124Y-79090143D01*
X61267119Y-79090141D01*
X61100697Y-79034994D01*
X61100690Y-79034993D01*
X60997986Y-79024500D01*
X60548000Y-79024500D01*
X60048000Y-79024500D01*
X59598028Y-79024500D01*
X59598012Y-79024501D01*
X59495302Y-79034994D01*
X59328880Y-79090141D01*
X59328875Y-79090143D01*
X59179654Y-79182184D01*
X59055684Y-79306154D01*
X58963643Y-79455375D01*
X58963641Y-79455380D01*
X58908494Y-79621802D01*
X58908493Y-79621809D01*
X58898000Y-79724513D01*
X58898000Y-79937000D01*
X53701776Y-79937000D01*
X53684780Y-79612712D01*
X53624113Y-79229676D01*
X53624112Y-79229669D01*
X53523737Y-78855063D01*
X53384755Y-78493005D01*
X53208689Y-78147456D01*
X52997468Y-77822206D01*
X52788904Y-77564649D01*
X52788903Y-77564648D01*
X51891247Y-78462303D01*
X51932551Y-78400489D01*
X51951954Y-78302944D01*
X51932551Y-78205399D01*
X51877296Y-78122704D01*
X51794601Y-78067449D01*
X51721680Y-78052944D01*
X51672432Y-78052944D01*
X51599511Y-78067449D01*
X51537690Y-78108755D01*
X52435350Y-77211096D01*
X52435350Y-77211095D01*
X52177793Y-77002531D01*
X51852543Y-76791310D01*
X51506994Y-76615244D01*
X51144936Y-76476262D01*
X50770330Y-76375887D01*
X50770323Y-76375886D01*
X50387287Y-76315219D01*
X50000001Y-76294922D01*
X49999999Y-76294922D01*
X49612712Y-76315219D01*
X49229676Y-76375886D01*
X49229669Y-76375887D01*
X48855063Y-76476262D01*
X48493005Y-76615244D01*
X48147456Y-76791310D01*
X47822206Y-77002531D01*
X47564648Y-77211095D01*
X47564648Y-77211096D01*
X48462306Y-78108754D01*
X48400489Y-78067449D01*
X48327568Y-78052944D01*
X48278320Y-78052944D01*
X48205399Y-78067449D01*
X48122704Y-78122704D01*
X48067449Y-78205399D01*
X48048046Y-78302944D01*
X48067449Y-78400489D01*
X48108753Y-78462305D01*
X47211096Y-77564648D01*
X47211095Y-77564648D01*
X47002531Y-77822206D01*
X46791310Y-78147456D01*
X46615244Y-78493005D01*
X46476262Y-78855063D01*
X46375887Y-79229669D01*
X46375886Y-79229676D01*
X46315219Y-79612712D01*
X46294922Y-79999999D01*
X46294922Y-80000000D01*
X45000000Y-80000000D01*
X45000000Y-78961257D01*
X45019685Y-78894218D01*
X45036313Y-78873581D01*
X45108792Y-78801102D01*
X45121042Y-78791290D01*
X45120859Y-78791069D01*
X45126866Y-78786097D01*
X45126877Y-78786091D01*
X45157775Y-78753187D01*
X45174227Y-78735669D01*
X45184671Y-78725223D01*
X45195120Y-78714776D01*
X45199379Y-78709283D01*
X45203152Y-78704866D01*
X45235062Y-78670887D01*
X45244715Y-78653325D01*
X45255389Y-78637075D01*
X45267673Y-78621241D01*
X45286180Y-78578472D01*
X45288749Y-78573229D01*
X45311196Y-78532398D01*
X45311197Y-78532397D01*
X45316177Y-78512996D01*
X45322478Y-78494593D01*
X45330438Y-78476201D01*
X45337730Y-78430154D01*
X45338911Y-78424457D01*
X45350500Y-78379324D01*
X45350500Y-78359288D01*
X45352027Y-78339887D01*
X45355160Y-78320109D01*
X45350775Y-78273720D01*
X45350500Y-78267882D01*
X45350500Y-75700862D01*
X45370185Y-75633823D01*
X45386819Y-75613181D01*
X46000003Y-74999997D01*
X46712439Y-74287560D01*
X46773760Y-74254077D01*
X46843452Y-74259061D01*
X46899385Y-74300933D01*
X46923802Y-74366397D01*
X46912500Y-74427647D01*
X46853735Y-74553668D01*
X46853730Y-74553682D01*
X46794860Y-74773389D01*
X46794858Y-74773400D01*
X46775034Y-74999997D01*
X46775034Y-75000002D01*
X46794858Y-75226599D01*
X46794860Y-75226610D01*
X46853730Y-75446317D01*
X46853734Y-75446326D01*
X46949865Y-75652481D01*
X46949866Y-75652483D01*
X47000973Y-75725471D01*
X47000973Y-75725472D01*
X47682045Y-75044399D01*
X47694835Y-75125148D01*
X47752359Y-75238045D01*
X47841955Y-75327641D01*
X47954852Y-75385165D01*
X48035599Y-75397953D01*
X47354526Y-76079025D01*
X47354526Y-76079026D01*
X47427512Y-76130131D01*
X47427516Y-76130133D01*
X47633673Y-76226265D01*
X47633682Y-76226269D01*
X47853389Y-76285139D01*
X47853400Y-76285141D01*
X48079998Y-76304966D01*
X48080002Y-76304966D01*
X48306599Y-76285141D01*
X48306610Y-76285139D01*
X48526317Y-76226269D01*
X48526331Y-76226264D01*
X48732478Y-76130136D01*
X48805472Y-76079025D01*
X48124401Y-75397953D01*
X48205148Y-75385165D01*
X48318045Y-75327641D01*
X48407641Y-75238045D01*
X48465165Y-75125148D01*
X48477953Y-75044400D01*
X49159025Y-75725472D01*
X49210136Y-75652478D01*
X49306264Y-75446331D01*
X49306269Y-75446317D01*
X49365139Y-75226610D01*
X49365141Y-75226599D01*
X49384966Y-75000002D01*
X49384966Y-74999997D01*
X49365141Y-74773400D01*
X49365139Y-74773389D01*
X49306269Y-74553682D01*
X49306265Y-74553673D01*
X49210134Y-74347517D01*
X49103426Y-74195124D01*
X49081099Y-74128918D01*
X49098109Y-74061150D01*
X49149057Y-74013337D01*
X49205001Y-74000000D01*
X70376000Y-74000000D01*
X70443039Y-74019685D01*
G37*
%TD.AperFunction*%
%TD*%
%TA.AperFunction,Conductor*%
%TO.N,VDD*%
G36*
X57642558Y-87357442D02*
G01*
X57726706Y-87425254D01*
X57756392Y-87438811D01*
X57857580Y-87485023D01*
X57857583Y-87485023D01*
X57857584Y-87485024D01*
X58000000Y-87505500D01*
X58000003Y-87505500D01*
X58950451Y-87505500D01*
X59017490Y-87525185D01*
X59063245Y-87577989D01*
X59073809Y-87642105D01*
X59073000Y-87650018D01*
X59073000Y-87787500D01*
X60424000Y-87787500D01*
X60491039Y-87807185D01*
X60536794Y-87859989D01*
X60548000Y-87911500D01*
X60548000Y-89124999D01*
X60822972Y-89124999D01*
X60822986Y-89124998D01*
X60925697Y-89114505D01*
X61092119Y-89059358D01*
X61092124Y-89059356D01*
X61241345Y-88967315D01*
X61365315Y-88843345D01*
X61457356Y-88694124D01*
X61457358Y-88694119D01*
X61500294Y-88564548D01*
X61540066Y-88507103D01*
X61604582Y-88480280D01*
X61673358Y-88492595D01*
X61724558Y-88540138D01*
X61742000Y-88603552D01*
X61742000Y-89043844D01*
X61748401Y-89103372D01*
X61748403Y-89103379D01*
X61798645Y-89238086D01*
X61798649Y-89238093D01*
X61884809Y-89353187D01*
X61884812Y-89353190D01*
X61999906Y-89439350D01*
X61999913Y-89439354D01*
X62134620Y-89489596D01*
X62134627Y-89489598D01*
X62194155Y-89495999D01*
X62194172Y-89496000D01*
X63193038Y-89496000D01*
X63252976Y-89513600D01*
X66262000Y-89513600D01*
X66262000Y-87715772D01*
X66261999Y-87715755D01*
X66254769Y-87648513D01*
X66256539Y-87648322D01*
X66259764Y-87588239D01*
X66300634Y-87531570D01*
X66365654Y-87505993D01*
X66376698Y-87505500D01*
X67370500Y-87505500D01*
X67437539Y-87525185D01*
X67483294Y-87577989D01*
X67494500Y-87629500D01*
X67494500Y-93351374D01*
X67488430Y-93389692D01*
X67440326Y-93537744D01*
X67420540Y-93726000D01*
X67440326Y-93914256D01*
X67440327Y-93914259D01*
X67498819Y-94094281D01*
X67506437Y-94107476D01*
X67518023Y-94134535D01*
X67540179Y-94209986D01*
X67540181Y-94209992D01*
X67540183Y-94209995D01*
X67617967Y-94331030D01*
X67617971Y-94331034D01*
X67726700Y-94425249D01*
X67726706Y-94425254D01*
X67726710Y-94425256D01*
X67726712Y-94425257D01*
X67795389Y-94456621D01*
X67816763Y-94469097D01*
X67873265Y-94510148D01*
X67873270Y-94510151D01*
X68046192Y-94587142D01*
X68046197Y-94587144D01*
X68231354Y-94626500D01*
X68231355Y-94626500D01*
X68420644Y-94626500D01*
X68420646Y-94626500D01*
X68605803Y-94587144D01*
X68765099Y-94516220D01*
X68815535Y-94505500D01*
X79000000Y-94505500D01*
X79071940Y-94500355D01*
X79209992Y-94459819D01*
X79331032Y-94382031D01*
X79425254Y-94273294D01*
X79485024Y-94142416D01*
X79505500Y-94000000D01*
X79505500Y-90013600D01*
X84090000Y-90013600D01*
X84090000Y-91811444D01*
X84096401Y-91870972D01*
X84096403Y-91870979D01*
X84146645Y-92005686D01*
X84146649Y-92005693D01*
X84232809Y-92120787D01*
X84232812Y-92120790D01*
X84347906Y-92206950D01*
X84347913Y-92206954D01*
X84409333Y-92229862D01*
X84465266Y-92271733D01*
X84489684Y-92337197D01*
X84490000Y-92346044D01*
X84490000Y-93253844D01*
X84496401Y-93313372D01*
X84496403Y-93313379D01*
X84546645Y-93448086D01*
X84546649Y-93448093D01*
X84632809Y-93563187D01*
X84632812Y-93563190D01*
X84747906Y-93649350D01*
X84747913Y-93649354D01*
X84882620Y-93699596D01*
X84882627Y-93699598D01*
X84942155Y-93705999D01*
X84942172Y-93706000D01*
X85340000Y-93706000D01*
X85340000Y-91580000D01*
X85359685Y-91512961D01*
X85412489Y-91467206D01*
X85464000Y-91456000D01*
X85716000Y-91456000D01*
X85783039Y-91475685D01*
X85828794Y-91528489D01*
X85840000Y-91580000D01*
X85840000Y-93706000D01*
X86237828Y-93706000D01*
X86237844Y-93705999D01*
X86297372Y-93699598D01*
X86297379Y-93699596D01*
X86432086Y-93649354D01*
X86432093Y-93649350D01*
X86547187Y-93563190D01*
X86547190Y-93563187D01*
X86633350Y-93448093D01*
X86633354Y-93448086D01*
X86683596Y-93313379D01*
X86683598Y-93313372D01*
X86689999Y-93253844D01*
X86690000Y-93253827D01*
X86690000Y-92346044D01*
X86709685Y-92279005D01*
X86762489Y-92233250D01*
X86770667Y-92229862D01*
X86832086Y-92206954D01*
X86832093Y-92206950D01*
X86947187Y-92120790D01*
X86947190Y-92120787D01*
X87033350Y-92005693D01*
X87033354Y-92005686D01*
X87083596Y-91870979D01*
X87083598Y-91870972D01*
X87089999Y-91811444D01*
X87090000Y-91811427D01*
X87090000Y-90013600D01*
X84090000Y-90013600D01*
X79505500Y-90013600D01*
X79505500Y-88667500D01*
X80301001Y-88667500D01*
X80301001Y-88804986D01*
X80311494Y-88907697D01*
X80366641Y-89074119D01*
X80366643Y-89074124D01*
X80458684Y-89223345D01*
X80582654Y-89347315D01*
X80731875Y-89439356D01*
X80731880Y-89439358D01*
X80898302Y-89494505D01*
X80898309Y-89494506D01*
X81001019Y-89504999D01*
X81275999Y-89504999D01*
X81276000Y-89504998D01*
X81276000Y-88667500D01*
X80301001Y-88667500D01*
X79505500Y-88667500D01*
X79505500Y-87629500D01*
X79525185Y-87562461D01*
X79577989Y-87516706D01*
X79629500Y-87505500D01*
X80301986Y-87505500D01*
X80369025Y-87525185D01*
X80414780Y-87577989D01*
X80424724Y-87647147D01*
X80407525Y-87694597D01*
X80366643Y-87760875D01*
X80366641Y-87760880D01*
X80311494Y-87927302D01*
X80311493Y-87927309D01*
X80301000Y-88030013D01*
X80301000Y-88167500D01*
X82542320Y-88167500D01*
X82576504Y-88148834D01*
X82602862Y-88146000D01*
X84696000Y-88146000D01*
X84763039Y-88165685D01*
X84808794Y-88218489D01*
X84820000Y-88270000D01*
X84820000Y-88522000D01*
X84800315Y-88589039D01*
X84747511Y-88634794D01*
X84696000Y-88646000D01*
X82778680Y-88646000D01*
X82744496Y-88664666D01*
X82718138Y-88667500D01*
X81776000Y-88667500D01*
X81776000Y-89504999D01*
X82050972Y-89504999D01*
X82050986Y-89504998D01*
X82153697Y-89494505D01*
X82320119Y-89439358D01*
X82320124Y-89439356D01*
X82469344Y-89347315D01*
X82504875Y-89311785D01*
X82566197Y-89278299D01*
X82635889Y-89283283D01*
X82691823Y-89325153D01*
X82712812Y-89353190D01*
X82827906Y-89439350D01*
X82827913Y-89439354D01*
X82962620Y-89489596D01*
X82962627Y-89489598D01*
X83022155Y-89495999D01*
X83022172Y-89496000D01*
X84021038Y-89496000D01*
X84080976Y-89513600D01*
X87090000Y-89513600D01*
X87090000Y-87715772D01*
X87089999Y-87715755D01*
X87082769Y-87648513D01*
X87084539Y-87648322D01*
X87087764Y-87588239D01*
X87128634Y-87531570D01*
X87193654Y-87505993D01*
X87204698Y-87505500D01*
X87370500Y-87505500D01*
X87437539Y-87525185D01*
X87483294Y-87577989D01*
X87494500Y-87629500D01*
X87494500Y-104370500D01*
X87474815Y-104437539D01*
X87422011Y-104483294D01*
X87370500Y-104494500D01*
X56000000Y-104494500D01*
X56000000Y-99000000D01*
X56000000Y-90013600D01*
X63262000Y-90013600D01*
X63262000Y-91811444D01*
X63268401Y-91870972D01*
X63268403Y-91870979D01*
X63318645Y-92005686D01*
X63318649Y-92005693D01*
X63404809Y-92120787D01*
X63404812Y-92120790D01*
X63519906Y-92206950D01*
X63519913Y-92206954D01*
X63581333Y-92229862D01*
X63637266Y-92271733D01*
X63661684Y-92337197D01*
X63662000Y-92346044D01*
X63662000Y-93253844D01*
X63668401Y-93313372D01*
X63668403Y-93313379D01*
X63718645Y-93448086D01*
X63718649Y-93448093D01*
X63804809Y-93563187D01*
X63804812Y-93563190D01*
X63919906Y-93649350D01*
X63919913Y-93649354D01*
X64054620Y-93699596D01*
X64054627Y-93699598D01*
X64114155Y-93705999D01*
X64114172Y-93706000D01*
X64512000Y-93706000D01*
X64512000Y-91580000D01*
X64531685Y-91512961D01*
X64584489Y-91467206D01*
X64636000Y-91456000D01*
X64888000Y-91456000D01*
X64955039Y-91475685D01*
X65000794Y-91528489D01*
X65012000Y-91580000D01*
X65012000Y-93706000D01*
X65409828Y-93706000D01*
X65409844Y-93705999D01*
X65469372Y-93699598D01*
X65469379Y-93699596D01*
X65604086Y-93649354D01*
X65604093Y-93649350D01*
X65719187Y-93563190D01*
X65719190Y-93563187D01*
X65805350Y-93448093D01*
X65805354Y-93448086D01*
X65855596Y-93313379D01*
X65855598Y-93313372D01*
X65861999Y-93253844D01*
X65862000Y-93253827D01*
X65862000Y-92346044D01*
X65881685Y-92279005D01*
X65934489Y-92233250D01*
X65942667Y-92229862D01*
X66004086Y-92206954D01*
X66004093Y-92206950D01*
X66119187Y-92120790D01*
X66119190Y-92120787D01*
X66205350Y-92005693D01*
X66205354Y-92005686D01*
X66255596Y-91870979D01*
X66255598Y-91870972D01*
X66261999Y-91811444D01*
X66262000Y-91811427D01*
X66262000Y-90013600D01*
X63262000Y-90013600D01*
X56000000Y-90013600D01*
X56000000Y-88287500D01*
X59073001Y-88287500D01*
X59073001Y-88424986D01*
X59083494Y-88527697D01*
X59138641Y-88694119D01*
X59138643Y-88694124D01*
X59230684Y-88843345D01*
X59354654Y-88967315D01*
X59503875Y-89059356D01*
X59503880Y-89059358D01*
X59670302Y-89114505D01*
X59670309Y-89114506D01*
X59773019Y-89124999D01*
X60047999Y-89124999D01*
X60048000Y-89124998D01*
X60048000Y-88287500D01*
X59073001Y-88287500D01*
X56000000Y-88287500D01*
X56000000Y-85714884D01*
X57642558Y-87357442D01*
G37*
%TD.AperFunction*%
%TD*%
%TA.AperFunction,Conductor*%
%TO.N,Net-(Q1-S)*%
G36*
X37437539Y-81019685D02*
G01*
X37483294Y-81072489D01*
X37494500Y-81124000D01*
X37494500Y-84962177D01*
X37494973Y-84971012D01*
X37495950Y-84989227D01*
X37495950Y-84989228D01*
X37500231Y-85029036D01*
X37508885Y-85082445D01*
X37508885Y-85082447D01*
X37549787Y-85192106D01*
X37559168Y-85217257D01*
X37592653Y-85278580D01*
X37678877Y-85393761D01*
X37678881Y-85393765D01*
X37678886Y-85393771D01*
X38390178Y-86105062D01*
X39615819Y-87330704D01*
X39615820Y-87330704D01*
X39635956Y-87348791D01*
X39635955Y-87348791D01*
X39667139Y-87373920D01*
X39667142Y-87373922D01*
X39711026Y-87405567D01*
X39841903Y-87465338D01*
X39884675Y-87477897D01*
X39908937Y-87485022D01*
X39908942Y-87485023D01*
X39908946Y-87485024D01*
X40051362Y-87505500D01*
X40051365Y-87505500D01*
X41100642Y-87505500D01*
X41167681Y-87525185D01*
X41213436Y-87577989D01*
X41223380Y-87647147D01*
X41211365Y-87685325D01*
X41111422Y-87883547D01*
X41043693Y-88104705D01*
X41038918Y-88142000D01*
X41923148Y-88142000D01*
X41874441Y-88279047D01*
X41864123Y-88429886D01*
X41894884Y-88577915D01*
X41928090Y-88642000D01*
X41040682Y-88642000D01*
X41072861Y-88791313D01*
X41072862Y-88791316D01*
X41159098Y-89005922D01*
X41280368Y-89202878D01*
X41433178Y-89376504D01*
X41613137Y-89521810D01*
X41815052Y-89634607D01*
X42033137Y-89711662D01*
X42168000Y-89734786D01*
X42168000Y-88883683D01*
X42196819Y-88901209D01*
X42342404Y-88942000D01*
X42455622Y-88942000D01*
X42567783Y-88926584D01*
X42668000Y-88883053D01*
X42668000Y-89737894D01*
X42689709Y-89736047D01*
X42913539Y-89677767D01*
X43124302Y-89582496D01*
X43315928Y-89452980D01*
X43482909Y-89292942D01*
X43620450Y-89106975D01*
X43724577Y-88900452D01*
X43792306Y-88679294D01*
X43797082Y-88642000D01*
X42912852Y-88642000D01*
X42961559Y-88504953D01*
X42971877Y-88354114D01*
X42941116Y-88206085D01*
X42907910Y-88142000D01*
X43795318Y-88142000D01*
X43763138Y-87992686D01*
X43763137Y-87992683D01*
X43676901Y-87778077D01*
X43625450Y-87694514D01*
X43607063Y-87627107D01*
X43628038Y-87560460D01*
X43681715Y-87515732D01*
X43731040Y-87505500D01*
X44370500Y-87505500D01*
X44437539Y-87525185D01*
X44483294Y-87577989D01*
X44494500Y-87629500D01*
X44494500Y-97876000D01*
X44474815Y-97943039D01*
X44422011Y-97988794D01*
X44370500Y-98000000D01*
X30124500Y-98000000D01*
X30057461Y-97980315D01*
X30011706Y-97927511D01*
X30000500Y-97876000D01*
X30000500Y-88384004D01*
X32233233Y-88384004D01*
X32252273Y-88638079D01*
X32308968Y-88886477D01*
X32308973Y-88886494D01*
X32402058Y-89123671D01*
X32402057Y-89123671D01*
X32529457Y-89344332D01*
X32571452Y-89396993D01*
X32571453Y-89396993D01*
X33221338Y-88747108D01*
X33308577Y-88885948D01*
X33436052Y-89013423D01*
X33574890Y-89100661D01*
X32924813Y-89750737D01*
X33085623Y-89860375D01*
X33085624Y-89860376D01*
X33315176Y-89970921D01*
X33315174Y-89970921D01*
X33558652Y-90046024D01*
X33558658Y-90046026D01*
X33810595Y-90083999D01*
X33810604Y-90084000D01*
X34065396Y-90084000D01*
X34065404Y-90083999D01*
X34317341Y-90046026D01*
X34317347Y-90046024D01*
X34560824Y-89970921D01*
X34790381Y-89860373D01*
X34951185Y-89750737D01*
X34301108Y-89100661D01*
X34439948Y-89013423D01*
X34567423Y-88885948D01*
X34654661Y-88747108D01*
X35304545Y-89396993D01*
X35346545Y-89344327D01*
X35473941Y-89123671D01*
X35522572Y-88999763D01*
X35565387Y-88944549D01*
X35631257Y-88921248D01*
X35699268Y-88937259D01*
X35747827Y-88987496D01*
X35753428Y-88999763D01*
X35802058Y-89123671D01*
X35929457Y-89344332D01*
X35971452Y-89396993D01*
X35971453Y-89396993D01*
X36621338Y-88747108D01*
X36708577Y-88885948D01*
X36836052Y-89013423D01*
X36974890Y-89100661D01*
X36324813Y-89750737D01*
X36485623Y-89860375D01*
X36485624Y-89860376D01*
X36715176Y-89970921D01*
X36715174Y-89970921D01*
X36958652Y-90046024D01*
X36958658Y-90046026D01*
X37210595Y-90083999D01*
X37210604Y-90084000D01*
X37465396Y-90084000D01*
X37465404Y-90083999D01*
X37717341Y-90046026D01*
X37717347Y-90046024D01*
X37960824Y-89970921D01*
X38190381Y-89860373D01*
X38351185Y-89750737D01*
X37701108Y-89100661D01*
X37839948Y-89013423D01*
X37967423Y-88885948D01*
X38054661Y-88747109D01*
X38704545Y-89396993D01*
X38746545Y-89344327D01*
X38873941Y-89123671D01*
X38967026Y-88886494D01*
X38967031Y-88886477D01*
X39023726Y-88638079D01*
X39042767Y-88384004D01*
X39042767Y-88383995D01*
X39023726Y-88129920D01*
X38967031Y-87881522D01*
X38967026Y-87881505D01*
X38873941Y-87644328D01*
X38873942Y-87644328D01*
X38746544Y-87423671D01*
X38704546Y-87371006D01*
X38054661Y-88020890D01*
X37967423Y-87882052D01*
X37839948Y-87754577D01*
X37701108Y-87667338D01*
X38351185Y-87017261D01*
X38190377Y-86907624D01*
X38190376Y-86907623D01*
X37960823Y-86797078D01*
X37960825Y-86797078D01*
X37717347Y-86721975D01*
X37717341Y-86721973D01*
X37465404Y-86684000D01*
X37210595Y-86684000D01*
X36958658Y-86721973D01*
X36958652Y-86721975D01*
X36715175Y-86797078D01*
X36485624Y-86907623D01*
X36485616Y-86907628D01*
X36324813Y-87017261D01*
X36974891Y-87667338D01*
X36836052Y-87754577D01*
X36708577Y-87882052D01*
X36621338Y-88020891D01*
X35971453Y-87371006D01*
X35929455Y-87423670D01*
X35802058Y-87644328D01*
X35753428Y-87768236D01*
X35710612Y-87823450D01*
X35644742Y-87846751D01*
X35576732Y-87830740D01*
X35528173Y-87780502D01*
X35522572Y-87768236D01*
X35473941Y-87644328D01*
X35473942Y-87644328D01*
X35346544Y-87423671D01*
X35304546Y-87371006D01*
X34654661Y-88020890D01*
X34567423Y-87882052D01*
X34439948Y-87754577D01*
X34301108Y-87667338D01*
X34951185Y-87017261D01*
X34790377Y-86907624D01*
X34790376Y-86907623D01*
X34560823Y-86797078D01*
X34560825Y-86797078D01*
X34317347Y-86721975D01*
X34317341Y-86721973D01*
X34065404Y-86684000D01*
X33810595Y-86684000D01*
X33558658Y-86721973D01*
X33558652Y-86721975D01*
X33315175Y-86797078D01*
X33085624Y-86907623D01*
X33085616Y-86907628D01*
X32924813Y-87017261D01*
X33574891Y-87667338D01*
X33436052Y-87754577D01*
X33308577Y-87882052D01*
X33221338Y-88020891D01*
X32571453Y-87371006D01*
X32529455Y-87423670D01*
X32402058Y-87644328D01*
X32308973Y-87881505D01*
X32308968Y-87881522D01*
X32252273Y-88129920D01*
X32233233Y-88383995D01*
X32233233Y-88384004D01*
X30000500Y-88384004D01*
X30000500Y-83080002D01*
X32695034Y-83080002D01*
X32714858Y-83306599D01*
X32714860Y-83306610D01*
X32773730Y-83526317D01*
X32773734Y-83526326D01*
X32869865Y-83732481D01*
X32869866Y-83732483D01*
X32920973Y-83805471D01*
X32920974Y-83805472D01*
X33602046Y-83124399D01*
X33614835Y-83205148D01*
X33672359Y-83318045D01*
X33761955Y-83407641D01*
X33874852Y-83465165D01*
X33955599Y-83477953D01*
X33274526Y-84159025D01*
X33274526Y-84159026D01*
X33347512Y-84210131D01*
X33347516Y-84210133D01*
X33553673Y-84306265D01*
X33553682Y-84306269D01*
X33773389Y-84365139D01*
X33773400Y-84365141D01*
X33999998Y-84384966D01*
X34000002Y-84384966D01*
X34226599Y-84365141D01*
X34226610Y-84365139D01*
X34446317Y-84306269D01*
X34446331Y-84306264D01*
X34652478Y-84210136D01*
X34725472Y-84159025D01*
X34044401Y-83477953D01*
X34125148Y-83465165D01*
X34238045Y-83407641D01*
X34327641Y-83318045D01*
X34385165Y-83205148D01*
X34397953Y-83124400D01*
X35079025Y-83805472D01*
X35130136Y-83732478D01*
X35226264Y-83526331D01*
X35226269Y-83526317D01*
X35285139Y-83306610D01*
X35285141Y-83306599D01*
X35304966Y-83080002D01*
X35304966Y-83079997D01*
X35285141Y-82853400D01*
X35285139Y-82853389D01*
X35226269Y-82633682D01*
X35226265Y-82633673D01*
X35130133Y-82427516D01*
X35130131Y-82427512D01*
X35079026Y-82354526D01*
X35079025Y-82354526D01*
X34397953Y-83035598D01*
X34385165Y-82954852D01*
X34327641Y-82841955D01*
X34238045Y-82752359D01*
X34125148Y-82694835D01*
X34044400Y-82682046D01*
X34725472Y-82000974D01*
X34725471Y-82000973D01*
X34652483Y-81949866D01*
X34652481Y-81949865D01*
X34446326Y-81853734D01*
X34446317Y-81853730D01*
X34226610Y-81794860D01*
X34226599Y-81794858D01*
X34000002Y-81775034D01*
X33999998Y-81775034D01*
X33773400Y-81794858D01*
X33773389Y-81794860D01*
X33553682Y-81853730D01*
X33553673Y-81853734D01*
X33347513Y-81949868D01*
X33274527Y-82000972D01*
X33274526Y-82000973D01*
X33955600Y-82682046D01*
X33874852Y-82694835D01*
X33761955Y-82752359D01*
X33672359Y-82841955D01*
X33614835Y-82954852D01*
X33602046Y-83035599D01*
X32920973Y-82354526D01*
X32920972Y-82354527D01*
X32869868Y-82427513D01*
X32773734Y-82633673D01*
X32773730Y-82633682D01*
X32714860Y-82853389D01*
X32714858Y-82853400D01*
X32695034Y-83079997D01*
X32695034Y-83080002D01*
X30000500Y-83080002D01*
X30000500Y-81124000D01*
X30020185Y-81056961D01*
X30072989Y-81011206D01*
X30124500Y-81000000D01*
X37370500Y-81000000D01*
X37437539Y-81019685D01*
G37*
%TD.AperFunction*%
%TD*%
%TA.AperFunction,Conductor*%
%TO.N,GND*%
G36*
X120942539Y-70020185D02*
G01*
X120988294Y-70072989D01*
X120999500Y-70124500D01*
X120999500Y-114875500D01*
X120979815Y-114942539D01*
X120927011Y-114988294D01*
X120875500Y-114999500D01*
X110024856Y-114999500D01*
X110024703Y-114999469D01*
X110024703Y-114999478D01*
X110000000Y-114999457D01*
X109999756Y-114999559D01*
X109999616Y-114999617D01*
X109982558Y-115016635D01*
X109982357Y-115016934D01*
X105016995Y-119982295D01*
X105016819Y-119982413D01*
X104999616Y-119999616D01*
X104999457Y-119999995D01*
X104999461Y-120024665D01*
X104999500Y-120024855D01*
X104999500Y-129975467D01*
X104999416Y-129975889D01*
X104999459Y-130000001D01*
X104999500Y-130000099D01*
X104999616Y-130000382D01*
X104999618Y-130000384D01*
X104999808Y-130000462D01*
X105000000Y-130000541D01*
X105000002Y-130000539D01*
X105024616Y-130000524D01*
X105024616Y-130000528D01*
X105024760Y-130000500D01*
X120875500Y-130000500D01*
X120942539Y-130020185D01*
X120988294Y-130072989D01*
X120999500Y-130124500D01*
X120999500Y-149875500D01*
X120979815Y-149942539D01*
X120927011Y-149988294D01*
X120875500Y-149999500D01*
X100051569Y-149999500D01*
X99984530Y-149979815D01*
X99963888Y-149963181D01*
X95036819Y-145036111D01*
X95003334Y-144974788D01*
X95000500Y-144948430D01*
X95000500Y-135024855D01*
X95000553Y-135024586D01*
X95000542Y-135000000D01*
X95000424Y-134999718D01*
X95000424Y-134999717D01*
X95000383Y-134999617D01*
X95000381Y-134999616D01*
X94983339Y-134982488D01*
X94982904Y-134982197D01*
X92510765Y-132510058D01*
X90011584Y-130010876D01*
X90000383Y-129999618D01*
X90000383Y-129999617D01*
X90000381Y-129999616D01*
X90000380Y-129999615D01*
X90000284Y-129999575D01*
X90000002Y-129999457D01*
X89975334Y-129999461D01*
X89975145Y-129999500D01*
X65024856Y-129999500D01*
X65024703Y-129999469D01*
X65024703Y-129999478D01*
X65000000Y-129999457D01*
X64999756Y-129999559D01*
X64999616Y-129999617D01*
X64982558Y-130016635D01*
X64982357Y-130016934D01*
X60016995Y-134982295D01*
X60016819Y-134982413D01*
X59999616Y-134999616D01*
X59999457Y-134999995D01*
X59999461Y-135024665D01*
X59999500Y-135024855D01*
X59999500Y-144948430D01*
X59979815Y-145015469D01*
X59963181Y-145036111D01*
X55036111Y-149963181D01*
X54974788Y-149996666D01*
X54948430Y-149999500D01*
X23124500Y-149999500D01*
X23057461Y-149979815D01*
X23011706Y-149927011D01*
X23000500Y-149875500D01*
X23000500Y-140100658D01*
X23849500Y-140100658D01*
X23884456Y-140298908D01*
X23953309Y-140488077D01*
X23953312Y-140488084D01*
X24016106Y-140596847D01*
X24053965Y-140662421D01*
X24183366Y-140816634D01*
X24337579Y-140946035D01*
X24511920Y-141046690D01*
X24701091Y-141115543D01*
X24899344Y-141150500D01*
X24999901Y-141150500D01*
X26125500Y-141150500D01*
X26192539Y-141170185D01*
X26238294Y-141222989D01*
X26249500Y-141274500D01*
X26249500Y-145725467D01*
X26249416Y-145725889D01*
X26249459Y-145750001D01*
X26249500Y-145750099D01*
X26249616Y-145750382D01*
X26249618Y-145750384D01*
X26249808Y-145750462D01*
X26250000Y-145750541D01*
X26250002Y-145750539D01*
X26274616Y-145750524D01*
X26274616Y-145750528D01*
X26274760Y-145750500D01*
X49725240Y-145750500D01*
X49725383Y-145750528D01*
X49725384Y-145750524D01*
X49749997Y-145750539D01*
X49750000Y-145750541D01*
X49750383Y-145750383D01*
X49750500Y-145750099D01*
X49750541Y-145750000D01*
X49750540Y-145749997D01*
X49750583Y-145725889D01*
X49750500Y-145725467D01*
X49750500Y-141274500D01*
X49770185Y-141207461D01*
X49822989Y-141161706D01*
X49874500Y-141150500D01*
X51100654Y-141150500D01*
X51100656Y-141150500D01*
X51298909Y-141115543D01*
X51488080Y-141046690D01*
X51662421Y-140946035D01*
X51816634Y-140816634D01*
X51946035Y-140662421D01*
X52046690Y-140488080D01*
X52115543Y-140298909D01*
X52150500Y-140100656D01*
X52150500Y-139899344D01*
X52115543Y-139701091D01*
X52046690Y-139511920D01*
X51946035Y-139337579D01*
X51816634Y-139183366D01*
X51662421Y-139053965D01*
X51624248Y-139031926D01*
X51488084Y-138953312D01*
X51488081Y-138953311D01*
X51488080Y-138953310D01*
X51396576Y-138920005D01*
X51298908Y-138884456D01*
X51100658Y-138849500D01*
X51100656Y-138849500D01*
X51000099Y-138849500D01*
X49874500Y-138849500D01*
X49807461Y-138829815D01*
X49761706Y-138777011D01*
X49750500Y-138725500D01*
X49750500Y-134274759D01*
X49750528Y-134274616D01*
X49750524Y-134274616D01*
X49750539Y-134250002D01*
X49750541Y-134250000D01*
X49750462Y-134249808D01*
X49750384Y-134249618D01*
X49750382Y-134249616D01*
X49750099Y-134249500D01*
X49750000Y-134249459D01*
X49725446Y-134249459D01*
X49725240Y-134249500D01*
X26274760Y-134249500D01*
X26274554Y-134249459D01*
X26250000Y-134249459D01*
X26249901Y-134249500D01*
X26249617Y-134249616D01*
X26249615Y-134249618D01*
X26249459Y-134249999D01*
X26249476Y-134274616D01*
X26249471Y-134274616D01*
X26249500Y-134274759D01*
X26249500Y-138725500D01*
X26229815Y-138792539D01*
X26177011Y-138838294D01*
X26125500Y-138849500D01*
X24899341Y-138849500D01*
X24701091Y-138884456D01*
X24511922Y-138953309D01*
X24511915Y-138953312D01*
X24337578Y-139053965D01*
X24337574Y-139053968D01*
X24183366Y-139183366D01*
X24053968Y-139337574D01*
X24053965Y-139337578D01*
X23953312Y-139511915D01*
X23953309Y-139511922D01*
X23884456Y-139701091D01*
X23849500Y-139899341D01*
X23849500Y-140100658D01*
X23000500Y-140100658D01*
X23000500Y-132930015D01*
X41855500Y-132930015D01*
X41866000Y-133032795D01*
X41866001Y-133032797D01*
X41885788Y-133092511D01*
X41921186Y-133199335D01*
X41921187Y-133199337D01*
X42013286Y-133348651D01*
X42013289Y-133348655D01*
X42137344Y-133472710D01*
X42137348Y-133472713D01*
X42286662Y-133564812D01*
X42286664Y-133564813D01*
X42286666Y-133564814D01*
X42453203Y-133619999D01*
X42555992Y-133630500D01*
X42555997Y-133630500D01*
X44256003Y-133630500D01*
X44256008Y-133630500D01*
X44358797Y-133619999D01*
X44525334Y-133564814D01*
X44674655Y-133472711D01*
X44798711Y-133348655D01*
X44890814Y-133199334D01*
X44945999Y-133032797D01*
X44956500Y-132930008D01*
X44956500Y-131229992D01*
X44945999Y-131127203D01*
X44890814Y-130960666D01*
X44798711Y-130811345D01*
X44674655Y-130687289D01*
X44674651Y-130687286D01*
X44525337Y-130595187D01*
X44525335Y-130595186D01*
X44371915Y-130544348D01*
X44358797Y-130540001D01*
X44358795Y-130540000D01*
X44256015Y-130529500D01*
X44256008Y-130529500D01*
X42555992Y-130529500D01*
X42555984Y-130529500D01*
X42453204Y-130540000D01*
X42453203Y-130540001D01*
X42286664Y-130595186D01*
X42286662Y-130595187D01*
X42137348Y-130687286D01*
X42137344Y-130687289D01*
X42013289Y-130811344D01*
X42013286Y-130811348D01*
X41921187Y-130960662D01*
X41921186Y-130960664D01*
X41866001Y-131127203D01*
X41866000Y-131127204D01*
X41855500Y-131229984D01*
X41855500Y-132930015D01*
X23000500Y-132930015D01*
X23000500Y-130124500D01*
X23020185Y-130057461D01*
X23072989Y-130011706D01*
X23124500Y-130000500D01*
X46000000Y-130000500D01*
X46000000Y-134000000D01*
X59500000Y-134000000D01*
X65000000Y-129000000D01*
X90000000Y-129000000D01*
X95000000Y-133500000D01*
X96500000Y-135000000D01*
X96500000Y-140000000D01*
X111253409Y-140000000D01*
X111181058Y-140072351D01*
X111206083Y-140091828D01*
X111246897Y-140148538D01*
X111250572Y-140218311D01*
X111215942Y-140278995D01*
X111206084Y-140287536D01*
X111028081Y-140426081D01*
X111028078Y-140426084D01*
X110870875Y-140596852D01*
X110743934Y-140791151D01*
X110650701Y-141003699D01*
X110593725Y-141228691D01*
X110593723Y-141228702D01*
X110574559Y-141459993D01*
X110574559Y-141460006D01*
X110593723Y-141691297D01*
X110593725Y-141691308D01*
X110650701Y-141916300D01*
X110743934Y-142128848D01*
X110870875Y-142323147D01*
X110870878Y-142323151D01*
X110870880Y-142323153D01*
X111028075Y-142493913D01*
X111028078Y-142493915D01*
X111028081Y-142493918D01*
X111205677Y-142632147D01*
X111246490Y-142688857D01*
X111250165Y-142758630D01*
X111215533Y-142819313D01*
X111205677Y-142827853D01*
X111028081Y-142966081D01*
X111028078Y-142966084D01*
X110870875Y-143136852D01*
X110743934Y-143331151D01*
X110650701Y-143543699D01*
X110593725Y-143768691D01*
X110593723Y-143768702D01*
X110574559Y-143999993D01*
X110574559Y-144000006D01*
X110593723Y-144231297D01*
X110593725Y-144231308D01*
X110650701Y-144456300D01*
X110743934Y-144668848D01*
X110870875Y-144863147D01*
X110870878Y-144863151D01*
X110870880Y-144863153D01*
X111028075Y-145033913D01*
X111028078Y-145033915D01*
X111028081Y-145033918D01*
X111211224Y-145176464D01*
X111211230Y-145176468D01*
X111211233Y-145176470D01*
X111415356Y-145286936D01*
X111529346Y-145326068D01*
X111634874Y-145362297D01*
X111634876Y-145362297D01*
X111634878Y-145362298D01*
X111863810Y-145400500D01*
X111863811Y-145400500D01*
X112095907Y-145400500D01*
X112095908Y-145400500D01*
X112324840Y-145362298D01*
X112544362Y-145286936D01*
X112748485Y-145176470D01*
X112931643Y-145033913D01*
X113088838Y-144863153D01*
X113215783Y-144668849D01*
X113309016Y-144456300D01*
X113365993Y-144231305D01*
X113385159Y-144000006D01*
X115654559Y-144000006D01*
X115673723Y-144231297D01*
X115673725Y-144231308D01*
X115730701Y-144456300D01*
X115823934Y-144668848D01*
X115950875Y-144863147D01*
X115950878Y-144863151D01*
X115950880Y-144863153D01*
X116108075Y-145033913D01*
X116108078Y-145033915D01*
X116108081Y-145033918D01*
X116291224Y-145176464D01*
X116291230Y-145176468D01*
X116291233Y-145176470D01*
X116495356Y-145286936D01*
X116609346Y-145326068D01*
X116714874Y-145362297D01*
X116714876Y-145362297D01*
X116714878Y-145362298D01*
X116943810Y-145400500D01*
X116943811Y-145400500D01*
X117175907Y-145400500D01*
X117175908Y-145400500D01*
X117404840Y-145362298D01*
X117624362Y-145286936D01*
X117828485Y-145176470D01*
X118011643Y-145033913D01*
X118168838Y-144863153D01*
X118295783Y-144668849D01*
X118389016Y-144456300D01*
X118445993Y-144231305D01*
X118465159Y-144000000D01*
X118465159Y-143999993D01*
X118445994Y-143768702D01*
X118445992Y-143768691D01*
X118389016Y-143543699D01*
X118295783Y-143331151D01*
X118168842Y-143136852D01*
X118168839Y-143136849D01*
X118168838Y-143136847D01*
X118011643Y-142966087D01*
X118011638Y-142966083D01*
X118011636Y-142966081D01*
X117828493Y-142823535D01*
X117828487Y-142823531D01*
X117624363Y-142713064D01*
X117624354Y-142713061D01*
X117404843Y-142637702D01*
X117233141Y-142609050D01*
X117175908Y-142599500D01*
X116943810Y-142599500D01*
X116898023Y-142607140D01*
X116714874Y-142637702D01*
X116495363Y-142713061D01*
X116495354Y-142713064D01*
X116291230Y-142823531D01*
X116291224Y-142823535D01*
X116108081Y-142966081D01*
X116108078Y-142966084D01*
X115950875Y-143136852D01*
X115823934Y-143331151D01*
X115730701Y-143543699D01*
X115673725Y-143768691D01*
X115673723Y-143768702D01*
X115654559Y-143999993D01*
X115654559Y-144000006D01*
X113385159Y-144000006D01*
X113385159Y-144000000D01*
X113385159Y-143999993D01*
X113365994Y-143768702D01*
X113365992Y-143768691D01*
X113309016Y-143543699D01*
X113215783Y-143331151D01*
X113088842Y-143136852D01*
X113088839Y-143136849D01*
X113088838Y-143136847D01*
X112931643Y-142966087D01*
X112754039Y-142827853D01*
X112713227Y-142771143D01*
X112709552Y-142701370D01*
X112744183Y-142640687D01*
X112754040Y-142632146D01*
X112931643Y-142493913D01*
X113088838Y-142323153D01*
X113207401Y-142141679D01*
X113260548Y-142096322D01*
X113311210Y-142085500D01*
X113457257Y-142085500D01*
X113472877Y-142087224D01*
X113472904Y-142086939D01*
X113480660Y-142087671D01*
X113480667Y-142087673D01*
X113549814Y-142085500D01*
X113579350Y-142085500D01*
X113586228Y-142084630D01*
X113592041Y-142084172D01*
X113638627Y-142082709D01*
X113657869Y-142077117D01*
X113676912Y-142073174D01*
X113696792Y-142070664D01*
X113740122Y-142053507D01*
X113745646Y-142051617D01*
X113749396Y-142050527D01*
X113790390Y-142038618D01*
X113807629Y-142028422D01*
X113825103Y-142019862D01*
X113843727Y-142012488D01*
X113843727Y-142012487D01*
X113843732Y-142012486D01*
X113881449Y-141985082D01*
X113886305Y-141981892D01*
X113926420Y-141958170D01*
X113940589Y-141943999D01*
X113955379Y-141931368D01*
X113971587Y-141919594D01*
X114001299Y-141883676D01*
X114005212Y-141879376D01*
X115383786Y-140500802D01*
X115396048Y-140490980D01*
X115395865Y-140490759D01*
X115401867Y-140485792D01*
X115401877Y-140485786D01*
X115449241Y-140435348D01*
X115470120Y-140414470D01*
X115474370Y-140408989D01*
X115478151Y-140404561D01*
X115510062Y-140370582D01*
X115519713Y-140353024D01*
X115530396Y-140336761D01*
X115542673Y-140320936D01*
X115561183Y-140278158D01*
X115563743Y-140272932D01*
X115586197Y-140232092D01*
X115591178Y-140212687D01*
X115597482Y-140194279D01*
X115605438Y-140175895D01*
X115612729Y-140129853D01*
X115613908Y-140124162D01*
X115625500Y-140079019D01*
X115625500Y-140058983D01*
X115627027Y-140039582D01*
X115630160Y-140019804D01*
X115625775Y-139973415D01*
X115625500Y-139967577D01*
X115625500Y-139701630D01*
X115645185Y-139634591D01*
X115697989Y-139588836D01*
X115767147Y-139578892D01*
X115830703Y-139607917D01*
X115853309Y-139633809D01*
X115950875Y-139783147D01*
X115950878Y-139783151D01*
X115950880Y-139783153D01*
X116108075Y-139953913D01*
X116108078Y-139953915D01*
X116108081Y-139953918D01*
X116291224Y-140096464D01*
X116291230Y-140096468D01*
X116291233Y-140096470D01*
X116495356Y-140206936D01*
X116568630Y-140232091D01*
X116714874Y-140282297D01*
X116714876Y-140282297D01*
X116714878Y-140282298D01*
X116943810Y-140320500D01*
X116943811Y-140320500D01*
X117175907Y-140320500D01*
X117175908Y-140320500D01*
X117404840Y-140282298D01*
X117624362Y-140206936D01*
X117828485Y-140096470D01*
X117876649Y-140058983D01*
X117952430Y-140000000D01*
X118011643Y-139953913D01*
X118168838Y-139783153D01*
X118295783Y-139588849D01*
X118389016Y-139376300D01*
X118445993Y-139151305D01*
X118445994Y-139151297D01*
X118465159Y-138920006D01*
X118465159Y-138919993D01*
X118445994Y-138688702D01*
X118445992Y-138688691D01*
X118389016Y-138463699D01*
X118295783Y-138251151D01*
X118168842Y-138056852D01*
X118168839Y-138056849D01*
X118168838Y-138056847D01*
X118011643Y-137886087D01*
X118011638Y-137886083D01*
X118011636Y-137886081D01*
X117828493Y-137743535D01*
X117828487Y-137743531D01*
X117624363Y-137633064D01*
X117624354Y-137633061D01*
X117404843Y-137557702D01*
X117233141Y-137529050D01*
X117175908Y-137519500D01*
X116943810Y-137519500D01*
X116898023Y-137527140D01*
X116714874Y-137557702D01*
X116495363Y-137633061D01*
X116495354Y-137633064D01*
X116291230Y-137743531D01*
X116291224Y-137743535D01*
X116108081Y-137886081D01*
X116108078Y-137886084D01*
X115950877Y-138056850D01*
X115853309Y-138206191D01*
X115800162Y-138251547D01*
X115730931Y-138260971D01*
X115667595Y-138231469D01*
X115630264Y-138172409D01*
X115625500Y-138138369D01*
X115625500Y-133582737D01*
X115627224Y-133567123D01*
X115626938Y-133567096D01*
X115627672Y-133559333D01*
X115625500Y-133490203D01*
X115625500Y-133460651D01*
X115625500Y-133460650D01*
X115624629Y-133453759D01*
X115624172Y-133447945D01*
X115622709Y-133401373D01*
X115617121Y-133382139D01*
X115613174Y-133363081D01*
X115610664Y-133343208D01*
X115593507Y-133299875D01*
X115591614Y-133294346D01*
X115578618Y-133249614D01*
X115578617Y-133249610D01*
X115568420Y-133232368D01*
X115559863Y-133214902D01*
X115552486Y-133196268D01*
X115525083Y-133158550D01*
X115521900Y-133153705D01*
X115498170Y-133113579D01*
X115498165Y-133113573D01*
X115484005Y-133099413D01*
X115471370Y-133084620D01*
X115459593Y-133068412D01*
X115423693Y-133038713D01*
X115419381Y-133034790D01*
X114000803Y-131616212D01*
X113990980Y-131603950D01*
X113990759Y-131604134D01*
X113985786Y-131598123D01*
X113935364Y-131550773D01*
X113924919Y-131540328D01*
X113914475Y-131529883D01*
X113908986Y-131525625D01*
X113904561Y-131521847D01*
X113870582Y-131489938D01*
X113870580Y-131489936D01*
X113870577Y-131489935D01*
X113853029Y-131480288D01*
X113836763Y-131469604D01*
X113820933Y-131457325D01*
X113778168Y-131438818D01*
X113772922Y-131436248D01*
X113732093Y-131413803D01*
X113732092Y-131413802D01*
X113712693Y-131408822D01*
X113694281Y-131402518D01*
X113675898Y-131394562D01*
X113675892Y-131394560D01*
X113629874Y-131387272D01*
X113624152Y-131386087D01*
X113579021Y-131374500D01*
X113579019Y-131374500D01*
X113558984Y-131374500D01*
X113539586Y-131372973D01*
X113532162Y-131371797D01*
X113519805Y-131369840D01*
X113519804Y-131369840D01*
X113473416Y-131374225D01*
X113467578Y-131374500D01*
X105810452Y-131374500D01*
X105743413Y-131354815D01*
X105722771Y-131338181D01*
X103161819Y-128777228D01*
X103128334Y-128715905D01*
X103125500Y-128689547D01*
X103125500Y-119810452D01*
X103145185Y-119743413D01*
X103161819Y-119722771D01*
X108722772Y-114161819D01*
X108784095Y-114128334D01*
X108810453Y-114125500D01*
X113417257Y-114125500D01*
X113432877Y-114127224D01*
X113432904Y-114126939D01*
X113440660Y-114127671D01*
X113440667Y-114127673D01*
X113509814Y-114125500D01*
X113539350Y-114125500D01*
X113546228Y-114124630D01*
X113552041Y-114124172D01*
X113598627Y-114122709D01*
X113617869Y-114117117D01*
X113636912Y-114113174D01*
X113656792Y-114110664D01*
X113700122Y-114093507D01*
X113705646Y-114091617D01*
X113709396Y-114090527D01*
X113750390Y-114078618D01*
X113767629Y-114068422D01*
X113785103Y-114059862D01*
X113803727Y-114052488D01*
X113803727Y-114052487D01*
X113803732Y-114052486D01*
X113841449Y-114025082D01*
X113846305Y-114021892D01*
X113886420Y-113998170D01*
X113900589Y-113983999D01*
X113915379Y-113971368D01*
X113931587Y-113959594D01*
X113961299Y-113923676D01*
X113965212Y-113919376D01*
X120383788Y-107500801D01*
X120396042Y-107490986D01*
X120395859Y-107490764D01*
X120401866Y-107485792D01*
X120401877Y-107485786D01*
X120432775Y-107452882D01*
X120449227Y-107435364D01*
X120459671Y-107424918D01*
X120470120Y-107414471D01*
X120474379Y-107408978D01*
X120478152Y-107404561D01*
X120510062Y-107370582D01*
X120519713Y-107353024D01*
X120530396Y-107336761D01*
X120542673Y-107320936D01*
X120561185Y-107278153D01*
X120563738Y-107272941D01*
X120586197Y-107232092D01*
X120591180Y-107212680D01*
X120597481Y-107194280D01*
X120605437Y-107175896D01*
X120612729Y-107129852D01*
X120613906Y-107124171D01*
X120625500Y-107079019D01*
X120625500Y-107058983D01*
X120627027Y-107039582D01*
X120629495Y-107024000D01*
X120630160Y-107019804D01*
X120625775Y-106973415D01*
X120625500Y-106967577D01*
X120625500Y-75082742D01*
X120627224Y-75067122D01*
X120626939Y-75067096D01*
X120627671Y-75059340D01*
X120627673Y-75059333D01*
X120625500Y-74990185D01*
X120625500Y-74960650D01*
X120624631Y-74953772D01*
X120624172Y-74947943D01*
X120623830Y-74937071D01*
X120622709Y-74901373D01*
X120622592Y-74900972D01*
X120617122Y-74882144D01*
X120613174Y-74863084D01*
X120610663Y-74843204D01*
X120593512Y-74799887D01*
X120591619Y-74794358D01*
X120578618Y-74749609D01*
X120578616Y-74749606D01*
X120568423Y-74732371D01*
X120559861Y-74714894D01*
X120552487Y-74696270D01*
X120552486Y-74696268D01*
X120525079Y-74658545D01*
X120521888Y-74653686D01*
X120516217Y-74644097D01*
X120498170Y-74613580D01*
X120498168Y-74613578D01*
X120498165Y-74613574D01*
X120484006Y-74599415D01*
X120471368Y-74584619D01*
X120459594Y-74568413D01*
X120441776Y-74553673D01*
X120423688Y-74538709D01*
X120419376Y-74534786D01*
X116096772Y-70212181D01*
X116063287Y-70150858D01*
X116068271Y-70081166D01*
X116110143Y-70025233D01*
X116175607Y-70000816D01*
X116184453Y-70000500D01*
X120875500Y-70000500D01*
X120942539Y-70020185D01*
G37*
%TD.AperFunction*%
%TA.AperFunction,Conductor*%
G36*
X113366621Y-140748787D02*
G01*
X113305298Y-140782272D01*
X113235606Y-140777288D01*
X113179673Y-140735416D01*
X113175132Y-140728928D01*
X113088843Y-140596854D01*
X113088841Y-140596852D01*
X113088838Y-140596847D01*
X112931643Y-140426087D01*
X112860330Y-140370582D01*
X112753632Y-140287535D01*
X112712819Y-140230825D01*
X112709145Y-140161052D01*
X112743777Y-140100369D01*
X112753633Y-140091828D01*
X112778657Y-140072351D01*
X112706306Y-140000000D01*
X114115409Y-140000000D01*
X113366621Y-140748787D01*
G37*
%TD.AperFunction*%
%TA.AperFunction,Conductor*%
G36*
X115256587Y-71145185D02*
G01*
X115277229Y-71161819D01*
X119338181Y-75222771D01*
X119371666Y-75284094D01*
X119374500Y-75310452D01*
X119374500Y-106689547D01*
X119354815Y-106756586D01*
X119338181Y-106777228D01*
X113277228Y-112838181D01*
X113215905Y-112871666D01*
X113189547Y-112874500D01*
X108582737Y-112874500D01*
X108567120Y-112872776D01*
X108567093Y-112873062D01*
X108559331Y-112872327D01*
X108490203Y-112874500D01*
X108460650Y-112874500D01*
X108459929Y-112874590D01*
X108453757Y-112875369D01*
X108447945Y-112875826D01*
X108401372Y-112877290D01*
X108401369Y-112877291D01*
X108382126Y-112882881D01*
X108363083Y-112886825D01*
X108343204Y-112889336D01*
X108343203Y-112889337D01*
X108299878Y-112906490D01*
X108294352Y-112908382D01*
X108249608Y-112921383D01*
X108249604Y-112921385D01*
X108232365Y-112931580D01*
X108214898Y-112940137D01*
X108196269Y-112947512D01*
X108196267Y-112947513D01*
X108158564Y-112974906D01*
X108153682Y-112978112D01*
X108113580Y-113001828D01*
X108099408Y-113016000D01*
X108084623Y-113028628D01*
X108068412Y-113040407D01*
X108038709Y-113076310D01*
X108034777Y-113080631D01*
X102116208Y-118999199D01*
X102103951Y-119009020D01*
X102104134Y-119009241D01*
X102098123Y-119014213D01*
X102050772Y-119064636D01*
X102029889Y-119085519D01*
X102029877Y-119085532D01*
X102025621Y-119091017D01*
X102021837Y-119095447D01*
X101989937Y-119129418D01*
X101989936Y-119129420D01*
X101980284Y-119146976D01*
X101969610Y-119163226D01*
X101957329Y-119179061D01*
X101957324Y-119179068D01*
X101938815Y-119221838D01*
X101936245Y-119227084D01*
X101913803Y-119267906D01*
X101908822Y-119287307D01*
X101902521Y-119305710D01*
X101894562Y-119324102D01*
X101894561Y-119324105D01*
X101887271Y-119370127D01*
X101886087Y-119375846D01*
X101874501Y-119420972D01*
X101874500Y-119420982D01*
X101874500Y-119441016D01*
X101872973Y-119460415D01*
X101869840Y-119480194D01*
X101869840Y-119480195D01*
X101874225Y-119526583D01*
X101874500Y-119532421D01*
X101874500Y-128917255D01*
X101872775Y-128932872D01*
X101873061Y-128932899D01*
X101872326Y-128940665D01*
X101874500Y-129009814D01*
X101874500Y-129039343D01*
X101874501Y-129039360D01*
X101875368Y-129046231D01*
X101875826Y-129052050D01*
X101877290Y-129098624D01*
X101877291Y-129098627D01*
X101882880Y-129117867D01*
X101886824Y-129136911D01*
X101889336Y-129156791D01*
X101906490Y-129200119D01*
X101908382Y-129205647D01*
X101921381Y-129250388D01*
X101931580Y-129267634D01*
X101940138Y-129285103D01*
X101947514Y-129303732D01*
X101974898Y-129341423D01*
X101978106Y-129346307D01*
X102001827Y-129386416D01*
X102001833Y-129386424D01*
X102015990Y-129400580D01*
X102028628Y-129415376D01*
X102040405Y-129431586D01*
X102040406Y-129431587D01*
X102076309Y-129461288D01*
X102080620Y-129465210D01*
X103576072Y-130960662D01*
X104999194Y-132383784D01*
X105009019Y-132396048D01*
X105009240Y-132395866D01*
X105014210Y-132401873D01*
X105014213Y-132401876D01*
X105014214Y-132401877D01*
X105064651Y-132449241D01*
X105085530Y-132470120D01*
X105091004Y-132474366D01*
X105095442Y-132478156D01*
X105129418Y-132510062D01*
X105146973Y-132519713D01*
X105163231Y-132530392D01*
X105179064Y-132542674D01*
X105201015Y-132552172D01*
X105221837Y-132561183D01*
X105227081Y-132563752D01*
X105267908Y-132586197D01*
X105287312Y-132591179D01*
X105305710Y-132597478D01*
X105324105Y-132605438D01*
X105370129Y-132612726D01*
X105375832Y-132613907D01*
X105420981Y-132625500D01*
X105441016Y-132625500D01*
X105460413Y-132627026D01*
X105480196Y-132630160D01*
X105526584Y-132625775D01*
X105532422Y-132625500D01*
X113189548Y-132625500D01*
X113256587Y-132645185D01*
X113277229Y-132661819D01*
X114338181Y-133722771D01*
X114371666Y-133784094D01*
X114374500Y-133810452D01*
X114374500Y-134000000D01*
X105500000Y-134000000D01*
X101500000Y-130000000D01*
X101500000Y-109500000D01*
X104000000Y-107000000D01*
X115000000Y-107000000D01*
X115000000Y-92000005D01*
X116295202Y-92000005D01*
X116314361Y-92231218D01*
X116371317Y-92456135D01*
X116464516Y-92668609D01*
X116548811Y-92797633D01*
X117216922Y-92129523D01*
X117240507Y-92209844D01*
X117318239Y-92330798D01*
X117426900Y-92424952D01*
X117557685Y-92484680D01*
X117567466Y-92486086D01*
X116901199Y-93152351D01*
X116931650Y-93176050D01*
X117135697Y-93286476D01*
X117135706Y-93286479D01*
X117355139Y-93361811D01*
X117583993Y-93400000D01*
X117816007Y-93400000D01*
X118044860Y-93361811D01*
X118264293Y-93286479D01*
X118264302Y-93286476D01*
X118468350Y-93176050D01*
X118498798Y-93152351D01*
X117832533Y-92486086D01*
X117842315Y-92484680D01*
X117973100Y-92424952D01*
X118081761Y-92330798D01*
X118159493Y-92209844D01*
X118183076Y-92129524D01*
X118851186Y-92797634D01*
X118935484Y-92668606D01*
X119028682Y-92456135D01*
X119085638Y-92231218D01*
X119104798Y-92000005D01*
X119104798Y-91999994D01*
X119085638Y-91768781D01*
X119028682Y-91543864D01*
X118935483Y-91331390D01*
X118851186Y-91202364D01*
X118183076Y-91870475D01*
X118159493Y-91790156D01*
X118081761Y-91669202D01*
X117973100Y-91575048D01*
X117842315Y-91515320D01*
X117832534Y-91513913D01*
X118498799Y-90847648D01*
X118498799Y-90847647D01*
X118468349Y-90823949D01*
X118264302Y-90713523D01*
X118264293Y-90713520D01*
X118044860Y-90638188D01*
X117816007Y-90600000D01*
X117583993Y-90600000D01*
X117355139Y-90638188D01*
X117135706Y-90713520D01*
X117135698Y-90713523D01*
X116931644Y-90823952D01*
X116901200Y-90847646D01*
X116901200Y-90847647D01*
X117567466Y-91513913D01*
X117557685Y-91515320D01*
X117426900Y-91575048D01*
X117318239Y-91669202D01*
X117240507Y-91790156D01*
X117216923Y-91870476D01*
X116548812Y-91202365D01*
X116464516Y-91331391D01*
X116464514Y-91331395D01*
X116371317Y-91543864D01*
X116314361Y-91768781D01*
X116295202Y-91999994D01*
X116295202Y-92000005D01*
X115000000Y-92000005D01*
X115000000Y-85600005D01*
X116295202Y-85600005D01*
X116314361Y-85831218D01*
X116371317Y-86056135D01*
X116464516Y-86268609D01*
X116548811Y-86397633D01*
X117216922Y-85729523D01*
X117240507Y-85809844D01*
X117318239Y-85930798D01*
X117426900Y-86024952D01*
X117557685Y-86084680D01*
X117567466Y-86086086D01*
X116901199Y-86752351D01*
X116931650Y-86776050D01*
X117135697Y-86886476D01*
X117135706Y-86886479D01*
X117355139Y-86961811D01*
X117583993Y-87000000D01*
X117816007Y-87000000D01*
X118044860Y-86961811D01*
X118264293Y-86886479D01*
X118264302Y-86886476D01*
X118468350Y-86776050D01*
X118498798Y-86752351D01*
X117832533Y-86086086D01*
X117842315Y-86084680D01*
X117973100Y-86024952D01*
X118081761Y-85930798D01*
X118159493Y-85809844D01*
X118183076Y-85729524D01*
X118851186Y-86397634D01*
X118935484Y-86268606D01*
X119028682Y-86056135D01*
X119085638Y-85831218D01*
X119104798Y-85600005D01*
X119104798Y-85599994D01*
X119085638Y-85368781D01*
X119028682Y-85143864D01*
X118935483Y-84931390D01*
X118851186Y-84802364D01*
X118183076Y-85470475D01*
X118159493Y-85390156D01*
X118081761Y-85269202D01*
X117973100Y-85175048D01*
X117842315Y-85115320D01*
X117832534Y-85113913D01*
X118498799Y-84447648D01*
X118498799Y-84447647D01*
X118468349Y-84423949D01*
X118264302Y-84313523D01*
X118264293Y-84313520D01*
X118044860Y-84238188D01*
X117816007Y-84200000D01*
X117583993Y-84200000D01*
X117355139Y-84238188D01*
X117135706Y-84313520D01*
X117135698Y-84313523D01*
X116931644Y-84423952D01*
X116901200Y-84447646D01*
X116901200Y-84447647D01*
X117567466Y-85113913D01*
X117557685Y-85115320D01*
X117426900Y-85175048D01*
X117318239Y-85269202D01*
X117240507Y-85390156D01*
X117216923Y-85470476D01*
X116548812Y-84802365D01*
X116464516Y-84931391D01*
X116464514Y-84931395D01*
X116371317Y-85143864D01*
X116314361Y-85368781D01*
X116295202Y-85599994D01*
X116295202Y-85600005D01*
X115000000Y-85600005D01*
X115000000Y-85000000D01*
X110376000Y-85000000D01*
X110483456Y-84988447D01*
X110534967Y-84977241D01*
X110569197Y-84965847D01*
X110637497Y-84943116D01*
X110637501Y-84943113D01*
X110637504Y-84943113D01*
X110758543Y-84865325D01*
X110811347Y-84819570D01*
X110905567Y-84710836D01*
X110965338Y-84579959D01*
X110979620Y-84531318D01*
X110985022Y-84512925D01*
X110985023Y-84512919D01*
X110985024Y-84512916D01*
X111005500Y-84370500D01*
X111005500Y-83714926D01*
X111004862Y-83697060D01*
X111003896Y-83679045D01*
X110973313Y-83538453D01*
X110948896Y-83472988D01*
X110948894Y-83472983D01*
X110948891Y-83472978D01*
X110948889Y-83472972D01*
X110879939Y-83346704D01*
X110816593Y-83283359D01*
X110783108Y-83222036D01*
X110788092Y-83152344D01*
X110816591Y-83107998D01*
X110873788Y-83050801D01*
X110886042Y-83040986D01*
X110885859Y-83040764D01*
X110891866Y-83035792D01*
X110891877Y-83035786D01*
X110922775Y-83002882D01*
X110939227Y-82985364D01*
X110949671Y-82974918D01*
X110960120Y-82964471D01*
X110964379Y-82958978D01*
X110968152Y-82954561D01*
X111000062Y-82920582D01*
X111009713Y-82903024D01*
X111020396Y-82886761D01*
X111032673Y-82870936D01*
X111051185Y-82828153D01*
X111053738Y-82822941D01*
X111076197Y-82782092D01*
X111081180Y-82762680D01*
X111087481Y-82744280D01*
X111095437Y-82725896D01*
X111102729Y-82679852D01*
X111103906Y-82674171D01*
X111115500Y-82629019D01*
X111115500Y-82608983D01*
X111117027Y-82589582D01*
X111120160Y-82569804D01*
X111115775Y-82523415D01*
X111115500Y-82517577D01*
X111115500Y-77552742D01*
X111117224Y-77537122D01*
X111116939Y-77537096D01*
X111117671Y-77529340D01*
X111117673Y-77529333D01*
X111115500Y-77460185D01*
X111115500Y-77430650D01*
X111114631Y-77423772D01*
X111114172Y-77417943D01*
X111112709Y-77371372D01*
X111107122Y-77352144D01*
X111103174Y-77333084D01*
X111100663Y-77313204D01*
X111083512Y-77269887D01*
X111081619Y-77264358D01*
X111068618Y-77219609D01*
X111068616Y-77219606D01*
X111058423Y-77202371D01*
X111049861Y-77184894D01*
X111042487Y-77166270D01*
X111042486Y-77166268D01*
X111015079Y-77128545D01*
X111011888Y-77123686D01*
X111009984Y-77120467D01*
X110988170Y-77083580D01*
X110988168Y-77083578D01*
X110988165Y-77083574D01*
X110974006Y-77069415D01*
X110961368Y-77054619D01*
X110949594Y-77038413D01*
X110913688Y-77008709D01*
X110909376Y-77004786D01*
X110817941Y-76913351D01*
X110784456Y-76852028D01*
X110789440Y-76782336D01*
X110811907Y-76744470D01*
X110905567Y-76636383D01*
X110965338Y-76505506D01*
X110985023Y-76438467D01*
X110985024Y-76438463D01*
X111005500Y-76296047D01*
X111005500Y-73749999D01*
X112801127Y-73749999D01*
X112801128Y-73750000D01*
X113764314Y-73750000D01*
X113752359Y-73761955D01*
X113694835Y-73874852D01*
X113675014Y-74000000D01*
X113694835Y-74125148D01*
X113752359Y-74238045D01*
X113764314Y-74250000D01*
X112801128Y-74250000D01*
X112853730Y-74446317D01*
X112853734Y-74446326D01*
X112949865Y-74652482D01*
X113080342Y-74838820D01*
X113241179Y-74999657D01*
X113427517Y-75130134D01*
X113633673Y-75226265D01*
X113633682Y-75226269D01*
X113829999Y-75278872D01*
X113830000Y-75278871D01*
X113830000Y-74315686D01*
X113841955Y-74327641D01*
X113954852Y-74385165D01*
X114048519Y-74400000D01*
X114111481Y-74400000D01*
X114205148Y-74385165D01*
X114318045Y-74327641D01*
X114330000Y-74315686D01*
X114330000Y-75278872D01*
X114526317Y-75226269D01*
X114526326Y-75226265D01*
X114732482Y-75130134D01*
X114918820Y-74999657D01*
X115079657Y-74838820D01*
X115210134Y-74652482D01*
X115306265Y-74446326D01*
X115306269Y-74446317D01*
X115358872Y-74250000D01*
X114395686Y-74250000D01*
X114407641Y-74238045D01*
X114465165Y-74125148D01*
X114484986Y-74000000D01*
X114465165Y-73874852D01*
X114407641Y-73761955D01*
X114395686Y-73750000D01*
X115358872Y-73750000D01*
X115358872Y-73749999D01*
X115306269Y-73553682D01*
X115306265Y-73553673D01*
X115210134Y-73347517D01*
X115079657Y-73161179D01*
X114918820Y-73000342D01*
X114732482Y-72869865D01*
X114526328Y-72773734D01*
X114330000Y-72721127D01*
X114330000Y-73684314D01*
X114318045Y-73672359D01*
X114205148Y-73614835D01*
X114111481Y-73600000D01*
X114048519Y-73600000D01*
X113954852Y-73614835D01*
X113841955Y-73672359D01*
X113830000Y-73684314D01*
X113830000Y-72721127D01*
X113633671Y-72773734D01*
X113427517Y-72869865D01*
X113241179Y-73000342D01*
X113080342Y-73161179D01*
X112949865Y-73347517D01*
X112853734Y-73553673D01*
X112853730Y-73553682D01*
X112801127Y-73749999D01*
X111005500Y-73749999D01*
X111005500Y-73037823D01*
X111004051Y-73010784D01*
X110999769Y-72970964D01*
X110991114Y-72917552D01*
X110940832Y-72782743D01*
X110907347Y-72721420D01*
X110821123Y-72606239D01*
X110821117Y-72606233D01*
X110821113Y-72606228D01*
X109552066Y-71337181D01*
X109518581Y-71275858D01*
X109523565Y-71206166D01*
X109565437Y-71150233D01*
X109630901Y-71125816D01*
X109639747Y-71125500D01*
X115189548Y-71125500D01*
X115256587Y-71145185D01*
G37*
%TD.AperFunction*%
%TA.AperFunction,Conductor*%
G36*
X44795751Y-104905588D02*
G01*
X44914534Y-104959835D01*
X44914541Y-104959838D01*
X44959357Y-104972997D01*
X44981575Y-104979522D01*
X44981580Y-104979523D01*
X44981584Y-104979524D01*
X45124000Y-105000000D01*
X44370500Y-105000000D01*
X44477956Y-104988447D01*
X44529467Y-104977241D01*
X44632004Y-104943113D01*
X44677198Y-104914067D01*
X44744236Y-104894382D01*
X44795751Y-104905588D01*
G37*
%TD.AperFunction*%
%TA.AperFunction,Conductor*%
G36*
X88000000Y-105000000D02*
G01*
X87370500Y-105000000D01*
X87477956Y-104988447D01*
X87529467Y-104977241D01*
X87563697Y-104965847D01*
X87631997Y-104943116D01*
X87632001Y-104943113D01*
X87632004Y-104943113D01*
X87753043Y-104865325D01*
X87805847Y-104819570D01*
X87900067Y-104710836D01*
X87959838Y-104579959D01*
X87979523Y-104512920D01*
X87979524Y-104512916D01*
X88000000Y-104370500D01*
X88000000Y-105000000D01*
G37*
%TD.AperFunction*%
%TA.AperFunction,Conductor*%
G36*
X68721792Y-94009851D02*
G01*
X68710430Y-94011046D01*
X68710428Y-94011046D01*
X68660007Y-94021764D01*
X68559489Y-94054425D01*
X68559484Y-94054427D01*
X68460640Y-94098434D01*
X68435990Y-94106444D01*
X68403942Y-94113256D01*
X68380262Y-94118290D01*
X68354482Y-94121000D01*
X68297516Y-94121000D01*
X68271735Y-94118290D01*
X68256482Y-94115048D01*
X68216013Y-94106446D01*
X68191357Y-94098435D01*
X68191355Y-94098434D01*
X68139314Y-94075263D01*
X68116870Y-94062305D01*
X68107255Y-94055320D01*
X68103663Y-94052710D01*
X68082502Y-94038896D01*
X68082500Y-94038895D01*
X68082501Y-94038895D01*
X68043361Y-94016049D01*
X68028203Y-94000000D01*
X68815535Y-94000000D01*
X68721792Y-94009851D01*
G37*
%TD.AperFunction*%
%TA.AperFunction,Conductor*%
G36*
X68000000Y-93970138D02*
G01*
X67995386Y-93965253D01*
X67989180Y-93950901D01*
X67988635Y-93949384D01*
X67967424Y-93899846D01*
X67965453Y-93894601D01*
X67941529Y-93820969D01*
X67936142Y-93795626D01*
X67930186Y-93738956D01*
X67930186Y-93713037D01*
X67930926Y-93705999D01*
X67936141Y-93656372D01*
X67941527Y-93631033D01*
X67969190Y-93545897D01*
X67987704Y-93468783D01*
X67993774Y-93430465D01*
X67999140Y-93362297D01*
X68000000Y-93351377D01*
X68000000Y-93970138D01*
G37*
%TD.AperFunction*%
%TA.AperFunction,Conductor*%
G36*
X68000000Y-87629500D02*
G01*
X67988447Y-87522044D01*
X67977241Y-87470533D01*
X67977137Y-87470222D01*
X67943116Y-87368002D01*
X67943113Y-87367996D01*
X67875700Y-87263101D01*
X67865325Y-87246957D01*
X67860691Y-87241609D01*
X67819576Y-87194159D01*
X67819572Y-87194156D01*
X67819570Y-87194153D01*
X67710836Y-87099933D01*
X67710833Y-87099931D01*
X67710831Y-87099930D01*
X67579965Y-87040164D01*
X67579960Y-87040162D01*
X67579959Y-87040162D01*
X67542256Y-87029091D01*
X67512925Y-87020478D01*
X67512919Y-87020476D01*
X67422609Y-87007492D01*
X67370500Y-87000000D01*
X68000000Y-87000000D01*
X68000000Y-87629500D01*
G37*
%TD.AperFunction*%
%TA.AperFunction,Conductor*%
G36*
X79629490Y-87000001D02*
G01*
X79522049Y-87011552D01*
X79522037Y-87011554D01*
X79470527Y-87022760D01*
X79368002Y-87056883D01*
X79367996Y-87056886D01*
X79246962Y-87134671D01*
X79246951Y-87134679D01*
X79194159Y-87180423D01*
X79099933Y-87289164D01*
X79099930Y-87289168D01*
X79040164Y-87420034D01*
X79020478Y-87487075D01*
X79020476Y-87487080D01*
X79010902Y-87553671D01*
X79000002Y-87629490D01*
X79000000Y-87629500D01*
X79000000Y-87000000D01*
X79629491Y-87000000D01*
X79629490Y-87000001D01*
G37*
%TD.AperFunction*%
%TA.AperFunction,Conductor*%
G36*
X88000000Y-87629500D02*
G01*
X87988447Y-87522044D01*
X87977241Y-87470533D01*
X87977137Y-87470222D01*
X87943116Y-87368002D01*
X87943113Y-87367996D01*
X87875700Y-87263101D01*
X87865325Y-87246957D01*
X87860691Y-87241609D01*
X87819576Y-87194159D01*
X87819572Y-87194156D01*
X87819570Y-87194153D01*
X87710836Y-87099933D01*
X87710833Y-87099931D01*
X87710831Y-87099930D01*
X87579965Y-87040164D01*
X87579960Y-87040162D01*
X87579959Y-87040162D01*
X87542256Y-87029091D01*
X87512925Y-87020478D01*
X87512919Y-87020476D01*
X87422609Y-87007492D01*
X87370500Y-87000000D01*
X88000000Y-87000000D01*
X88000000Y-87629500D01*
G37*
%TD.AperFunction*%
%TA.AperFunction,Conductor*%
G36*
X59291111Y-87029091D02*
G01*
X59225647Y-87053508D01*
X59165290Y-87042619D01*
X59159913Y-87040163D01*
X59092876Y-87020478D01*
X59092870Y-87020476D01*
X59002560Y-87007492D01*
X58950451Y-87000000D01*
X59312889Y-87000000D01*
X59291111Y-87029091D01*
G37*
%TD.AperFunction*%
%TA.AperFunction,Conductor*%
G36*
X66343111Y-87000996D02*
G01*
X66320633Y-87002502D01*
X66320629Y-87002502D01*
X66320626Y-87002503D01*
X66299505Y-87007492D01*
X66229736Y-87003746D01*
X66224542Y-87000000D01*
X66365421Y-87000000D01*
X66343111Y-87000996D01*
G37*
%TD.AperFunction*%
%TA.AperFunction,Conductor*%
G36*
X87171111Y-87000996D02*
G01*
X87148633Y-87002502D01*
X87148629Y-87002502D01*
X87148626Y-87002503D01*
X87127505Y-87007492D01*
X87057736Y-87003746D01*
X87052542Y-87000000D01*
X87193421Y-87000000D01*
X87171111Y-87000996D01*
G37*
%TD.AperFunction*%
%TA.AperFunction,Conductor*%
G36*
X56000000Y-85000000D02*
G01*
X56119924Y-85119924D01*
X56038152Y-85057564D01*
X55996782Y-85001259D01*
X55990608Y-84941320D01*
X56000000Y-84876000D01*
X56000000Y-85000000D01*
G37*
%TD.AperFunction*%
%TA.AperFunction,Conductor*%
G36*
X109243163Y-84783939D02*
G01*
X109281028Y-84806406D01*
X109389117Y-84900067D01*
X109389120Y-84900068D01*
X109389121Y-84900069D01*
X109483378Y-84943116D01*
X109519994Y-84959838D01*
X109564810Y-84972997D01*
X109587028Y-84979522D01*
X109587033Y-84979523D01*
X109587037Y-84979524D01*
X109729453Y-85000000D01*
X108924588Y-85000000D01*
X109112150Y-84812438D01*
X109173471Y-84778955D01*
X109243163Y-84783939D01*
G37*
%TD.AperFunction*%
%TA.AperFunction,Conductor*%
G36*
X68554873Y-82470386D02*
G01*
X68634273Y-82500000D01*
X68427723Y-82500000D01*
X68437226Y-82487304D01*
X68502689Y-82462884D01*
X68554873Y-82470386D01*
G37*
%TD.AperFunction*%
%TA.AperFunction,Conductor*%
G36*
X70647702Y-80832538D02*
G01*
X70665761Y-80851933D01*
X70674454Y-80863546D01*
X70674455Y-80863546D01*
X70674456Y-80863548D01*
X70789664Y-80949793D01*
X70789671Y-80949797D01*
X70924517Y-81000091D01*
X70924516Y-81000091D01*
X70931444Y-81000835D01*
X70984127Y-81006500D01*
X72279872Y-81006499D01*
X72339483Y-81000091D01*
X72474331Y-80949796D01*
X72589546Y-80863546D01*
X72598233Y-80851940D01*
X72654165Y-80810070D01*
X72723856Y-80805084D01*
X72785180Y-80838569D01*
X72818666Y-80899891D01*
X72821500Y-80926251D01*
X72821500Y-82053870D01*
X72821501Y-82053876D01*
X72827908Y-82113483D01*
X72878202Y-82248328D01*
X72878206Y-82248335D01*
X72964452Y-82363544D01*
X72964455Y-82363547D01*
X73079664Y-82449793D01*
X73079671Y-82449797D01*
X73079674Y-82449798D01*
X73214273Y-82500000D01*
X70049727Y-82500000D01*
X70184331Y-82449796D01*
X70299546Y-82363546D01*
X70385796Y-82248331D01*
X70436091Y-82113483D01*
X70442500Y-82053873D01*
X70442499Y-80926248D01*
X70462184Y-80859212D01*
X70514987Y-80813457D01*
X70584146Y-80803513D01*
X70647702Y-80832538D01*
G37*
%TD.AperFunction*%
%TA.AperFunction,Conductor*%
G36*
X78437539Y-73035185D02*
G01*
X78483294Y-73087989D01*
X78494500Y-73139500D01*
X78494500Y-76738843D01*
X78494847Y-76752078D01*
X78495880Y-76771777D01*
X78496918Y-76784965D01*
X78500814Y-76822039D01*
X78500814Y-76847956D01*
X78496918Y-76885032D01*
X78495782Y-76899457D01*
X78490096Y-76928040D01*
X78471865Y-76984149D01*
X78461320Y-77007832D01*
X78432834Y-77057170D01*
X78417599Y-77078140D01*
X78379489Y-77120467D01*
X78360222Y-77137815D01*
X78314124Y-77171306D01*
X78291675Y-77184267D01*
X78239634Y-77207437D01*
X78215016Y-77215440D01*
X78213771Y-77215704D01*
X78212252Y-77216028D01*
X78211180Y-77216258D01*
X78209906Y-77216532D01*
X78075098Y-77266812D01*
X78075092Y-77266815D01*
X78013787Y-77300290D01*
X78013777Y-77300294D01*
X77898595Y-77386519D01*
X77898583Y-77386530D01*
X77779614Y-77505500D01*
X77669295Y-77615819D01*
X77651197Y-77635968D01*
X77651197Y-77635969D01*
X77626070Y-77667150D01*
X77626071Y-77667149D01*
X77594431Y-77711027D01*
X77534664Y-77841895D01*
X77514978Y-77908936D01*
X77514976Y-77908941D01*
X77498595Y-78022877D01*
X77494500Y-78051361D01*
X77494500Y-80626100D01*
X77494500Y-81870500D01*
X77494501Y-81870509D01*
X77506052Y-81977950D01*
X77506054Y-81977962D01*
X77517260Y-82029472D01*
X77551383Y-82131997D01*
X77551386Y-82132003D01*
X77629171Y-82253037D01*
X77629179Y-82253048D01*
X77674923Y-82305840D01*
X77674926Y-82305843D01*
X77674930Y-82305847D01*
X77783664Y-82400067D01*
X77783667Y-82400068D01*
X77783668Y-82400069D01*
X77892554Y-82449797D01*
X77914541Y-82459838D01*
X77959357Y-82472997D01*
X77981575Y-82479522D01*
X77981580Y-82479523D01*
X77981584Y-82479524D01*
X78124000Y-82500000D01*
X74660353Y-82500000D01*
X74695903Y-82475318D01*
X74764326Y-82449798D01*
X74764326Y-82449797D01*
X74764331Y-82449796D01*
X74879546Y-82363546D01*
X74965796Y-82248331D01*
X75016091Y-82113483D01*
X75022500Y-82053873D01*
X75022499Y-78958128D01*
X75016091Y-78898517D01*
X75014940Y-78895432D01*
X74965797Y-78763671D01*
X74965793Y-78763664D01*
X74879547Y-78648455D01*
X74879544Y-78648452D01*
X74764335Y-78562206D01*
X74764330Y-78562203D01*
X74628166Y-78511417D01*
X74572233Y-78469545D01*
X74547816Y-78404081D01*
X74547500Y-78395235D01*
X74547500Y-75618105D01*
X74567185Y-75551066D01*
X74583819Y-75530424D01*
X77062425Y-73051819D01*
X77123748Y-73018334D01*
X77150106Y-73015500D01*
X78370500Y-73015500D01*
X78437539Y-73035185D01*
G37*
%TD.AperFunction*%
%TA.AperFunction,Conductor*%
G36*
X89382873Y-82470386D02*
G01*
X89462273Y-82500000D01*
X89255723Y-82500000D01*
X89265226Y-82487304D01*
X89330689Y-82462884D01*
X89382873Y-82470386D01*
G37*
%TD.AperFunction*%
%TA.AperFunction,Conductor*%
G36*
X91475702Y-80832538D02*
G01*
X91493761Y-80851933D01*
X91502454Y-80863546D01*
X91502455Y-80863546D01*
X91502456Y-80863548D01*
X91617664Y-80949793D01*
X91617671Y-80949797D01*
X91752517Y-81000091D01*
X91752516Y-81000091D01*
X91759444Y-81000835D01*
X91812127Y-81006500D01*
X93107872Y-81006499D01*
X93167483Y-81000091D01*
X93302331Y-80949796D01*
X93417546Y-80863546D01*
X93426233Y-80851940D01*
X93482165Y-80810070D01*
X93551856Y-80805084D01*
X93613180Y-80838569D01*
X93646666Y-80899891D01*
X93649500Y-80926251D01*
X93649500Y-82053870D01*
X93649501Y-82053876D01*
X93655908Y-82113483D01*
X93706202Y-82248328D01*
X93706206Y-82248335D01*
X93792452Y-82363544D01*
X93792455Y-82363547D01*
X93907664Y-82449793D01*
X93907671Y-82449797D01*
X93907674Y-82449798D01*
X94042273Y-82500000D01*
X90877727Y-82500000D01*
X91012331Y-82449796D01*
X91127546Y-82363546D01*
X91213796Y-82248331D01*
X91264091Y-82113483D01*
X91270500Y-82053873D01*
X91270499Y-80926248D01*
X91290184Y-80859212D01*
X91342987Y-80813457D01*
X91412146Y-80803513D01*
X91475702Y-80832538D01*
G37*
%TD.AperFunction*%
%TA.AperFunction,Conductor*%
G36*
X99437539Y-77525185D02*
G01*
X99483294Y-77577989D01*
X99494500Y-77629500D01*
X99494500Y-80387051D01*
X99499644Y-80458986D01*
X99499644Y-80458985D01*
X99504666Y-80493917D01*
X99504667Y-80493920D01*
X99519996Y-80564395D01*
X99547983Y-80625679D01*
X99579767Y-80695277D01*
X99617541Y-80754055D01*
X99647327Y-80788431D01*
X99711752Y-80862785D01*
X99711755Y-80862787D01*
X99832775Y-80940567D01*
X99832784Y-80940571D01*
X99832789Y-80940575D01*
X99852972Y-80949793D01*
X99896343Y-80969602D01*
X99896349Y-80969604D01*
X99896353Y-80969606D01*
X99896356Y-80969606D01*
X99896359Y-80969608D01*
X99910935Y-80973888D01*
X99951565Y-81000000D01*
X96978591Y-81000000D01*
X96100803Y-80122212D01*
X96090980Y-80109950D01*
X96090759Y-80110134D01*
X96085786Y-80104123D01*
X96035364Y-80056773D01*
X96024919Y-80046328D01*
X96014475Y-80035883D01*
X96008986Y-80031625D01*
X96004561Y-80027847D01*
X95970582Y-79995938D01*
X95970580Y-79995936D01*
X95970577Y-79995935D01*
X95953029Y-79986288D01*
X95936763Y-79975604D01*
X95920932Y-79963324D01*
X95914219Y-79959354D01*
X95915542Y-79957116D01*
X95871539Y-79920496D01*
X95850524Y-79853861D01*
X95850499Y-79851393D01*
X95850499Y-78958129D01*
X95850498Y-78958123D01*
X95844091Y-78898516D01*
X95793797Y-78763671D01*
X95793793Y-78763664D01*
X95707547Y-78648455D01*
X95707544Y-78648452D01*
X95592335Y-78562206D01*
X95592328Y-78562202D01*
X95457482Y-78511908D01*
X95457483Y-78511908D01*
X95397883Y-78505501D01*
X95397881Y-78505500D01*
X95397873Y-78505500D01*
X95397864Y-78505500D01*
X94102129Y-78505500D01*
X94102123Y-78505501D01*
X94042516Y-78511908D01*
X93907671Y-78562202D01*
X93907664Y-78562206D01*
X93792455Y-78648452D01*
X93704266Y-78766257D01*
X93648332Y-78808127D01*
X93578640Y-78813111D01*
X93517318Y-78779625D01*
X93505734Y-78766257D01*
X93447548Y-78688531D01*
X93417546Y-78648454D01*
X93417544Y-78648453D01*
X93417544Y-78648452D01*
X93302335Y-78562206D01*
X93302328Y-78562202D01*
X93167482Y-78511908D01*
X93167483Y-78511908D01*
X93107883Y-78505501D01*
X93107881Y-78505500D01*
X93107873Y-78505500D01*
X93107865Y-78505500D01*
X92129500Y-78505500D01*
X92062461Y-78485815D01*
X92016706Y-78433011D01*
X92005500Y-78381500D01*
X92005500Y-77629500D01*
X92025185Y-77562461D01*
X92077989Y-77516706D01*
X92129500Y-77505500D01*
X99370500Y-77505500D01*
X99437539Y-77525185D01*
G37*
%TD.AperFunction*%
%TA.AperFunction,Conductor*%
G36*
X45882586Y-70020185D02*
G01*
X45928341Y-70072989D01*
X45938285Y-70142147D01*
X45909260Y-70205703D01*
X45903228Y-70212181D01*
X44887145Y-71228265D01*
X44341206Y-71774201D01*
X44328947Y-71784024D01*
X44329130Y-71784245D01*
X44323120Y-71789216D01*
X44275769Y-71839639D01*
X43857228Y-72258181D01*
X43795905Y-72291666D01*
X43769547Y-72294500D01*
X35214188Y-72294500D01*
X35147149Y-72274815D01*
X35112613Y-72241623D01*
X35000045Y-72080858D01*
X34839141Y-71919954D01*
X34652734Y-71789432D01*
X34652732Y-71789431D01*
X34446497Y-71693261D01*
X34446488Y-71693258D01*
X34226697Y-71634366D01*
X34226693Y-71634365D01*
X34226692Y-71634365D01*
X34226691Y-71634364D01*
X34226686Y-71634364D01*
X34000002Y-71614532D01*
X33999998Y-71614532D01*
X33773313Y-71634364D01*
X33773302Y-71634366D01*
X33553511Y-71693258D01*
X33553502Y-71693261D01*
X33347267Y-71789431D01*
X33347265Y-71789432D01*
X33160858Y-71919954D01*
X32999954Y-72080858D01*
X32869432Y-72267265D01*
X32869431Y-72267267D01*
X32773261Y-72473502D01*
X32773258Y-72473511D01*
X32714366Y-72693302D01*
X32714364Y-72693313D01*
X32694532Y-72919998D01*
X32694532Y-72920001D01*
X32714364Y-73146686D01*
X32714366Y-73146697D01*
X32773258Y-73366488D01*
X32773261Y-73366497D01*
X32869431Y-73572732D01*
X32869432Y-73572734D01*
X32999954Y-73759141D01*
X33160858Y-73920045D01*
X33207693Y-73952839D01*
X33347266Y-74050568D01*
X33553504Y-74146739D01*
X33773308Y-74205635D01*
X33935230Y-74219801D01*
X33999998Y-74225468D01*
X34000000Y-74225468D01*
X34000002Y-74225468D01*
X34056673Y-74220509D01*
X34226692Y-74205635D01*
X34446496Y-74146739D01*
X34652734Y-74050568D01*
X34839139Y-73920047D01*
X35000047Y-73759139D01*
X35080154Y-73644734D01*
X35112613Y-73598377D01*
X35167189Y-73554752D01*
X35214188Y-73545500D01*
X37403795Y-73545500D01*
X37470834Y-73565185D01*
X37516589Y-73617989D01*
X37526533Y-73687147D01*
X37497508Y-73750703D01*
X37456200Y-73781882D01*
X37267517Y-73869865D01*
X37081179Y-74000342D01*
X36920342Y-74161179D01*
X36789865Y-74347517D01*
X36693734Y-74553673D01*
X36693730Y-74553682D01*
X36641127Y-74749999D01*
X36641128Y-74750000D01*
X37604314Y-74750000D01*
X37592359Y-74761955D01*
X37534835Y-74874852D01*
X37515014Y-75000000D01*
X37534835Y-75125148D01*
X37592359Y-75238045D01*
X37604314Y-75250000D01*
X36641128Y-75250000D01*
X36693730Y-75446317D01*
X36693734Y-75446326D01*
X36789865Y-75652482D01*
X36920342Y-75838820D01*
X37081179Y-75999657D01*
X37267517Y-76130134D01*
X37473673Y-76226265D01*
X37473682Y-76226269D01*
X37669999Y-76278872D01*
X37670000Y-76278871D01*
X37670000Y-75315686D01*
X37681955Y-75327641D01*
X37794852Y-75385165D01*
X37888519Y-75400000D01*
X37951481Y-75400000D01*
X38045148Y-75385165D01*
X38158045Y-75327641D01*
X38170000Y-75315686D01*
X38170000Y-76278872D01*
X38366317Y-76226269D01*
X38366326Y-76226265D01*
X38572482Y-76130134D01*
X38758820Y-75999657D01*
X38919657Y-75838820D01*
X39050134Y-75652482D01*
X39146265Y-75446326D01*
X39146269Y-75446317D01*
X39198872Y-75250000D01*
X38235686Y-75250000D01*
X38247641Y-75238045D01*
X38305165Y-75125148D01*
X38324986Y-75000000D01*
X38305165Y-74874852D01*
X38247641Y-74761955D01*
X38235686Y-74750000D01*
X39198872Y-74750000D01*
X39198872Y-74749999D01*
X39146269Y-74553682D01*
X39146265Y-74553673D01*
X39050134Y-74347517D01*
X38919657Y-74161179D01*
X38758820Y-74000342D01*
X38572482Y-73869865D01*
X38383800Y-73781882D01*
X38331361Y-73735710D01*
X38312209Y-73668516D01*
X38332425Y-73601635D01*
X38385590Y-73556301D01*
X38436205Y-73545500D01*
X43975500Y-73545500D01*
X44042539Y-73565185D01*
X44088294Y-73617989D01*
X44099500Y-73669500D01*
X44099500Y-77989851D01*
X44079815Y-78056890D01*
X44063181Y-78077532D01*
X43616208Y-78524504D01*
X43603951Y-78534325D01*
X43604134Y-78534546D01*
X43598123Y-78539518D01*
X43550772Y-78589941D01*
X43529889Y-78610824D01*
X43529877Y-78610837D01*
X43525621Y-78616322D01*
X43521837Y-78620752D01*
X43489937Y-78654723D01*
X43489936Y-78654725D01*
X43480284Y-78672281D01*
X43469610Y-78688531D01*
X43457329Y-78704366D01*
X43457324Y-78704373D01*
X43438815Y-78747143D01*
X43436245Y-78752389D01*
X43413803Y-78793211D01*
X43408822Y-78812612D01*
X43402521Y-78831015D01*
X43394562Y-78849407D01*
X43394561Y-78849410D01*
X43387271Y-78895432D01*
X43386087Y-78901151D01*
X43374501Y-78946277D01*
X43374500Y-78946287D01*
X43374500Y-78966321D01*
X43372973Y-78985720D01*
X43369840Y-79005499D01*
X43369840Y-79005500D01*
X43374225Y-79051888D01*
X43374500Y-79057726D01*
X43374500Y-80370500D01*
X43354815Y-80437539D01*
X43302011Y-80483294D01*
X43250500Y-80494500D01*
X38124000Y-80494500D01*
X38123991Y-80494500D01*
X38123990Y-80494501D01*
X38016549Y-80506052D01*
X38016537Y-80506054D01*
X37965027Y-80517260D01*
X37862499Y-80551385D01*
X37817297Y-80580434D01*
X37750257Y-80600117D01*
X37698747Y-80588911D01*
X37579965Y-80534664D01*
X37579960Y-80534662D01*
X37579959Y-80534662D01*
X37557358Y-80528025D01*
X37512925Y-80514978D01*
X37512919Y-80514976D01*
X37427466Y-80502690D01*
X37370500Y-80494500D01*
X30124500Y-80494500D01*
X30057461Y-80474815D01*
X30011706Y-80422011D01*
X30000500Y-80370500D01*
X30000500Y-70124500D01*
X30020185Y-70057461D01*
X30072989Y-70011706D01*
X30124500Y-70000500D01*
X45815547Y-70000500D01*
X45882586Y-70020185D01*
G37*
%TD.AperFunction*%
%TA.AperFunction,Conductor*%
G36*
X79465110Y-71145185D02*
G01*
X79510865Y-71197989D01*
X79520809Y-71267147D01*
X79502386Y-71316539D01*
X79481335Y-71349294D01*
X79481320Y-71349322D01*
X79452348Y-71412764D01*
X79452304Y-71412856D01*
X79452302Y-71412864D01*
X79411768Y-71550917D01*
X79411768Y-71614532D01*
X79411769Y-71640499D01*
X79392085Y-71707538D01*
X79339282Y-71753294D01*
X79287769Y-71764500D01*
X76922390Y-71764500D01*
X76906773Y-71762776D01*
X76906746Y-71763062D01*
X76898984Y-71762327D01*
X76829856Y-71764500D01*
X76800303Y-71764500D01*
X76799582Y-71764590D01*
X76793410Y-71765369D01*
X76787598Y-71765826D01*
X76741025Y-71767290D01*
X76741022Y-71767291D01*
X76721779Y-71772881D01*
X76702736Y-71776825D01*
X76682857Y-71779336D01*
X76682856Y-71779337D01*
X76639531Y-71796490D01*
X76634005Y-71798382D01*
X76589261Y-71811383D01*
X76589257Y-71811385D01*
X76572018Y-71821580D01*
X76554551Y-71830137D01*
X76535922Y-71837512D01*
X76535920Y-71837513D01*
X76498217Y-71864906D01*
X76493335Y-71868112D01*
X76453233Y-71891828D01*
X76439061Y-71906000D01*
X76424276Y-71918628D01*
X76408065Y-71930407D01*
X76378362Y-71966310D01*
X76374430Y-71970631D01*
X73538208Y-74806852D01*
X73525951Y-74816673D01*
X73526134Y-74816894D01*
X73520123Y-74821866D01*
X73472772Y-74872289D01*
X73451889Y-74893172D01*
X73451877Y-74893185D01*
X73447621Y-74898670D01*
X73443837Y-74903100D01*
X73411937Y-74937071D01*
X73411936Y-74937073D01*
X73402284Y-74954629D01*
X73391610Y-74970879D01*
X73379329Y-74986714D01*
X73379324Y-74986721D01*
X73360815Y-75029491D01*
X73358245Y-75034737D01*
X73335803Y-75075559D01*
X73330822Y-75094960D01*
X73324521Y-75113363D01*
X73316562Y-75131755D01*
X73316561Y-75131758D01*
X73309271Y-75177780D01*
X73308087Y-75183499D01*
X73296501Y-75228625D01*
X73296500Y-75228635D01*
X73296500Y-75248669D01*
X73294973Y-75268068D01*
X73291840Y-75287847D01*
X73291840Y-75287848D01*
X73296225Y-75334236D01*
X73296500Y-75340074D01*
X73296500Y-78395235D01*
X73276815Y-78462274D01*
X73224011Y-78508029D01*
X73215834Y-78511417D01*
X73079669Y-78562203D01*
X73079664Y-78562206D01*
X72964455Y-78648452D01*
X72876266Y-78766257D01*
X72820332Y-78808127D01*
X72750640Y-78813111D01*
X72689318Y-78779625D01*
X72677734Y-78766257D01*
X72619548Y-78688531D01*
X72589546Y-78648454D01*
X72589544Y-78648453D01*
X72589544Y-78648452D01*
X72474335Y-78562206D01*
X72474328Y-78562202D01*
X72339482Y-78511908D01*
X72339483Y-78511908D01*
X72279883Y-78505501D01*
X72279881Y-78505500D01*
X72279873Y-78505500D01*
X72279865Y-78505500D01*
X71129500Y-78505500D01*
X71062461Y-78485815D01*
X71016706Y-78433011D01*
X71005500Y-78381500D01*
X71005500Y-74124010D01*
X71005500Y-74124000D01*
X70993947Y-74016544D01*
X70982741Y-73965033D01*
X70967768Y-73920047D01*
X70948616Y-73862502D01*
X70948613Y-73862496D01*
X70891264Y-73773261D01*
X70870825Y-73741457D01*
X70865845Y-73735710D01*
X70825076Y-73688659D01*
X70825072Y-73688656D01*
X70825070Y-73688653D01*
X70716336Y-73594433D01*
X70716333Y-73594431D01*
X70716331Y-73594430D01*
X70585465Y-73534664D01*
X70585460Y-73534662D01*
X70585459Y-73534662D01*
X70562858Y-73528025D01*
X70518425Y-73514978D01*
X70518419Y-73514976D01*
X70432966Y-73502690D01*
X70376000Y-73494500D01*
X49205001Y-73494500D01*
X49204998Y-73494500D01*
X49134665Y-73502768D01*
X49087775Y-73508280D01*
X49087774Y-73508280D01*
X49031831Y-73521617D01*
X48920992Y-73562208D01*
X48920991Y-73562208D01*
X48803131Y-73644737D01*
X48752187Y-73692547D01*
X48752183Y-73692550D01*
X48704793Y-73751839D01*
X48647559Y-73791915D01*
X48577745Y-73794686D01*
X48555528Y-73786799D01*
X48526496Y-73773261D01*
X48526492Y-73773260D01*
X48526488Y-73773258D01*
X48306697Y-73714366D01*
X48306693Y-73714365D01*
X48306692Y-73714365D01*
X48306691Y-73714364D01*
X48306686Y-73714364D01*
X48080002Y-73694532D01*
X48079998Y-73694532D01*
X47853313Y-73714364D01*
X47853302Y-73714366D01*
X47633511Y-73773258D01*
X47633502Y-73773261D01*
X47427267Y-73869431D01*
X47364412Y-73913442D01*
X47298205Y-73935769D01*
X47230438Y-73918757D01*
X47205602Y-73899540D01*
X47202332Y-73896270D01*
X47202331Y-73896269D01*
X47202325Y-73896263D01*
X47202321Y-73896260D01*
X47146397Y-73854394D01*
X47146393Y-73854391D01*
X47146387Y-73854387D01*
X47146384Y-73854385D01*
X47065846Y-73810409D01*
X47020102Y-73785431D01*
X46879518Y-73754850D01*
X46879512Y-73754849D01*
X46879511Y-73754849D01*
X46856280Y-73753187D01*
X46809821Y-73749865D01*
X46809819Y-73749865D01*
X46666313Y-73760128D01*
X46666310Y-73760128D01*
X46666310Y-73760129D01*
X46531502Y-73810408D01*
X46531500Y-73810409D01*
X46473463Y-73842098D01*
X46472913Y-73842357D01*
X46470180Y-73843891D01*
X46354997Y-73930117D01*
X46354985Y-73930127D01*
X45562181Y-74722932D01*
X45500858Y-74756417D01*
X45431166Y-74751433D01*
X45375233Y-74709561D01*
X45350816Y-74644097D01*
X45350500Y-74635251D01*
X45350500Y-72585452D01*
X45370185Y-72518413D01*
X45386819Y-72497771D01*
X46722772Y-71161819D01*
X46784095Y-71128334D01*
X46810453Y-71125500D01*
X79398071Y-71125500D01*
X79465110Y-71145185D01*
G37*
%TD.AperFunction*%
%TD*%
%TA.AperFunction,Conductor*%
%TO.N,Net-(J2-Pin_1)*%
G36*
X44437539Y-98525185D02*
G01*
X44483294Y-98577989D01*
X44494500Y-98629500D01*
X44494500Y-104370500D01*
X44474815Y-104437539D01*
X44422011Y-104483294D01*
X44370500Y-104494500D01*
X41000000Y-104494500D01*
X40928059Y-104499644D01*
X40790005Y-104540182D01*
X40668969Y-104617967D01*
X40668965Y-104617971D01*
X40574750Y-104726700D01*
X40574744Y-104726709D01*
X40514976Y-104857580D01*
X40514975Y-104857585D01*
X40494500Y-104999999D01*
X40494500Y-114875500D01*
X40474815Y-114942539D01*
X40422011Y-114988294D01*
X40370500Y-114999500D01*
X30124500Y-114999500D01*
X30057461Y-114979815D01*
X30011706Y-114927011D01*
X30000500Y-114875500D01*
X30000500Y-109224000D01*
X34544000Y-109224000D01*
X35768916Y-109224000D01*
X35750307Y-109305530D01*
X35740212Y-109530308D01*
X35766449Y-109724000D01*
X34544001Y-109724000D01*
X34544001Y-111223984D01*
X34554494Y-111326695D01*
X34609641Y-111493117D01*
X34609643Y-111493122D01*
X34701684Y-111642344D01*
X34825655Y-111766315D01*
X34974877Y-111858356D01*
X34974882Y-111858358D01*
X35141304Y-111913505D01*
X35141311Y-111913506D01*
X35244021Y-111923999D01*
X36743999Y-111923999D01*
X36744000Y-111923998D01*
X36744000Y-110699047D01*
X36881498Y-110724000D01*
X37050133Y-110724000D01*
X37218098Y-110708883D01*
X37244000Y-110701734D01*
X37244000Y-111923999D01*
X38743970Y-111923999D01*
X38743984Y-111923998D01*
X38846695Y-111913505D01*
X39013117Y-111858358D01*
X39013122Y-111858356D01*
X39162344Y-111766315D01*
X39286315Y-111642344D01*
X39378356Y-111493122D01*
X39378358Y-111493117D01*
X39433505Y-111326695D01*
X39433506Y-111326688D01*
X39443999Y-111223984D01*
X39444000Y-111223971D01*
X39444000Y-109724000D01*
X38219084Y-109724000D01*
X38237693Y-109642470D01*
X38247788Y-109417692D01*
X38221551Y-109224000D01*
X39443999Y-109224000D01*
X39443999Y-107724030D01*
X39443998Y-107724015D01*
X39433505Y-107621304D01*
X39378358Y-107454882D01*
X39378356Y-107454877D01*
X39286315Y-107305655D01*
X39162344Y-107181684D01*
X39013122Y-107089643D01*
X39013117Y-107089641D01*
X38846695Y-107034494D01*
X38846688Y-107034493D01*
X38743984Y-107024000D01*
X37244000Y-107024000D01*
X37244000Y-108248952D01*
X37106502Y-108224000D01*
X36937867Y-108224000D01*
X36769902Y-108239117D01*
X36744000Y-108246265D01*
X36744000Y-107024000D01*
X35244030Y-107024000D01*
X35244014Y-107024001D01*
X35141304Y-107034494D01*
X34974882Y-107089641D01*
X34974877Y-107089643D01*
X34825655Y-107181684D01*
X34701684Y-107305655D01*
X34609643Y-107454877D01*
X34609641Y-107454882D01*
X34554494Y-107621304D01*
X34554493Y-107621311D01*
X34544000Y-107724015D01*
X34544000Y-109224000D01*
X30000500Y-109224000D01*
X30000500Y-101854004D01*
X32233233Y-101854004D01*
X32252273Y-102108079D01*
X32308968Y-102356477D01*
X32308973Y-102356494D01*
X32402058Y-102593671D01*
X32402057Y-102593671D01*
X32529457Y-102814332D01*
X32571452Y-102866993D01*
X32571453Y-102866993D01*
X33221338Y-102217108D01*
X33308577Y-102355948D01*
X33436052Y-102483423D01*
X33574890Y-102570661D01*
X32924813Y-103220737D01*
X33085623Y-103330375D01*
X33085624Y-103330376D01*
X33315176Y-103440921D01*
X33315174Y-103440921D01*
X33558652Y-103516024D01*
X33558658Y-103516026D01*
X33810595Y-103553999D01*
X33810604Y-103554000D01*
X34065396Y-103554000D01*
X34065404Y-103553999D01*
X34317341Y-103516026D01*
X34317347Y-103516024D01*
X34560824Y-103440921D01*
X34790381Y-103330373D01*
X34951185Y-103220737D01*
X34301108Y-102570661D01*
X34439948Y-102483423D01*
X34567423Y-102355948D01*
X34654661Y-102217108D01*
X35304545Y-102866993D01*
X35346545Y-102814327D01*
X35473941Y-102593671D01*
X35522572Y-102469763D01*
X35565387Y-102414549D01*
X35631257Y-102391248D01*
X35699268Y-102407259D01*
X35747827Y-102457496D01*
X35753428Y-102469763D01*
X35802058Y-102593671D01*
X35929457Y-102814332D01*
X35971452Y-102866993D01*
X35971453Y-102866993D01*
X36621338Y-102217108D01*
X36708577Y-102355948D01*
X36836052Y-102483423D01*
X36974890Y-102570661D01*
X36324813Y-103220737D01*
X36485623Y-103330375D01*
X36485624Y-103330376D01*
X36715176Y-103440921D01*
X36715174Y-103440921D01*
X36958652Y-103516024D01*
X36958658Y-103516026D01*
X37210595Y-103553999D01*
X37210604Y-103554000D01*
X37465396Y-103554000D01*
X37465404Y-103553999D01*
X37717341Y-103516026D01*
X37717347Y-103516024D01*
X37960824Y-103440921D01*
X38190381Y-103330373D01*
X38351185Y-103220737D01*
X37701108Y-102570661D01*
X37839948Y-102483423D01*
X37967423Y-102355948D01*
X38054661Y-102217109D01*
X38704545Y-102866993D01*
X38746545Y-102814327D01*
X38873941Y-102593671D01*
X38967026Y-102356494D01*
X38967031Y-102356477D01*
X39023726Y-102108079D01*
X39042767Y-101854004D01*
X39042767Y-101853995D01*
X39023726Y-101599920D01*
X38967031Y-101351522D01*
X38967026Y-101351505D01*
X38873941Y-101114328D01*
X38873942Y-101114328D01*
X38746544Y-100893671D01*
X38704546Y-100841006D01*
X38054661Y-101490890D01*
X37967423Y-101352052D01*
X37839948Y-101224577D01*
X37701108Y-101137338D01*
X38351185Y-100487261D01*
X38190377Y-100377624D01*
X38190376Y-100377623D01*
X37960823Y-100267078D01*
X37960825Y-100267078D01*
X37717347Y-100191975D01*
X37717341Y-100191973D01*
X37465404Y-100154000D01*
X37210595Y-100154000D01*
X36958658Y-100191973D01*
X36958652Y-100191975D01*
X36715175Y-100267078D01*
X36485624Y-100377623D01*
X36485616Y-100377628D01*
X36324813Y-100487261D01*
X36974891Y-101137338D01*
X36836052Y-101224577D01*
X36708577Y-101352052D01*
X36621338Y-101490891D01*
X35971453Y-100841006D01*
X35929455Y-100893670D01*
X35802058Y-101114328D01*
X35753428Y-101238236D01*
X35710612Y-101293450D01*
X35644742Y-101316751D01*
X35576732Y-101300740D01*
X35528173Y-101250502D01*
X35522572Y-101238236D01*
X35473941Y-101114328D01*
X35473942Y-101114328D01*
X35346544Y-100893671D01*
X35304546Y-100841006D01*
X34654661Y-101490890D01*
X34567423Y-101352052D01*
X34439948Y-101224577D01*
X34301108Y-101137338D01*
X34951185Y-100487261D01*
X34790377Y-100377624D01*
X34790376Y-100377623D01*
X34560823Y-100267078D01*
X34560825Y-100267078D01*
X34317347Y-100191975D01*
X34317341Y-100191973D01*
X34065404Y-100154000D01*
X33810595Y-100154000D01*
X33558658Y-100191973D01*
X33558652Y-100191975D01*
X33315175Y-100267078D01*
X33085624Y-100377623D01*
X33085616Y-100377628D01*
X32924813Y-100487261D01*
X33574891Y-101137338D01*
X33436052Y-101224577D01*
X33308577Y-101352052D01*
X33221338Y-101490891D01*
X32571453Y-100841006D01*
X32529455Y-100893670D01*
X32402058Y-101114328D01*
X32308973Y-101351505D01*
X32308968Y-101351522D01*
X32252273Y-101599920D01*
X32233233Y-101853995D01*
X32233233Y-101854004D01*
X30000500Y-101854004D01*
X30000500Y-98629500D01*
X30020185Y-98562461D01*
X30072989Y-98516706D01*
X30124500Y-98505500D01*
X44370500Y-98505500D01*
X44437539Y-98525185D01*
G37*
%TD.AperFunction*%
%TD*%
%TA.AperFunction,Conductor*%
%TO.N,VDD*%
G36*
X51856420Y-101502867D02*
G01*
X51794601Y-101461561D01*
X51721680Y-101447056D01*
X51672432Y-101447056D01*
X51599511Y-101461561D01*
X51516816Y-101516816D01*
X51461561Y-101599511D01*
X51442158Y-101697056D01*
X51461561Y-101794601D01*
X51502867Y-101856420D01*
X50944180Y-101297733D01*
X51134870Y-101134870D01*
X51297733Y-100944180D01*
X51856420Y-101502867D01*
G37*
%TD.AperFunction*%
%TA.AperFunction,Conductor*%
G36*
X48865130Y-101134870D02*
G01*
X49055819Y-101297733D01*
X48497135Y-101856416D01*
X48538439Y-101794601D01*
X48557842Y-101697056D01*
X48538439Y-101599511D01*
X48483184Y-101516816D01*
X48400489Y-101461561D01*
X48327568Y-101447056D01*
X48278320Y-101447056D01*
X48205399Y-101461561D01*
X48143577Y-101502868D01*
X48702266Y-100944180D01*
X48865130Y-101134870D01*
G37*
%TD.AperFunction*%
%TA.AperFunction,Conductor*%
G36*
X49055819Y-98702266D02*
G01*
X48865130Y-98865130D01*
X48702266Y-99055818D01*
X48143582Y-98497134D01*
X48205399Y-98538439D01*
X48278320Y-98552944D01*
X48327568Y-98552944D01*
X48400489Y-98538439D01*
X48483184Y-98483184D01*
X48538439Y-98400489D01*
X48557842Y-98302944D01*
X48538439Y-98205399D01*
X48497133Y-98143581D01*
X49055819Y-98702266D01*
G37*
%TD.AperFunction*%
%TA.AperFunction,Conductor*%
G36*
X51461561Y-98205399D02*
G01*
X51442158Y-98302944D01*
X51461561Y-98400489D01*
X51516816Y-98483184D01*
X51599511Y-98538439D01*
X51672432Y-98552944D01*
X51721680Y-98552944D01*
X51794601Y-98538439D01*
X51856415Y-98497135D01*
X51297732Y-99055818D01*
X51134870Y-98865130D01*
X50944180Y-98702266D01*
X51502867Y-98143578D01*
X51461561Y-98205399D01*
G37*
%TD.AperFunction*%
%TA.AperFunction,Conductor*%
G36*
X44737560Y-82457232D02*
G01*
X44760302Y-82475187D01*
X46199803Y-83914686D01*
X46201502Y-83916377D01*
X46201507Y-83916382D01*
X46311607Y-83997990D01*
X46317091Y-84002055D01*
X46378572Y-84035249D01*
X46378589Y-84035258D01*
X46404160Y-84044656D01*
X46407990Y-84046210D01*
X46429197Y-84055651D01*
X46429197Y-84055652D01*
X46541682Y-84105734D01*
X46564121Y-84118689D01*
X46587173Y-84135437D01*
X46610223Y-84152184D01*
X46629486Y-84169529D01*
X46667599Y-84211857D01*
X46682837Y-84232830D01*
X46711321Y-84282166D01*
X46721865Y-84305847D01*
X46738167Y-84356020D01*
X46738169Y-84356025D01*
X46787911Y-84463927D01*
X46818166Y-84513299D01*
X46854285Y-84559115D01*
X46891734Y-84606618D01*
X46891740Y-84606624D01*
X47615819Y-85330704D01*
X47615820Y-85330704D01*
X47635956Y-85348791D01*
X47635955Y-85348791D01*
X47667139Y-85373920D01*
X47667142Y-85373922D01*
X47711026Y-85405567D01*
X47841903Y-85465338D01*
X47882886Y-85477372D01*
X47908937Y-85485022D01*
X47908942Y-85485023D01*
X47908946Y-85485024D01*
X48051362Y-85505500D01*
X48051365Y-85505500D01*
X55370490Y-85505500D01*
X55370500Y-85505500D01*
X55477956Y-85493947D01*
X55529467Y-85482741D01*
X55632004Y-85448613D01*
X55632009Y-85448609D01*
X55635646Y-85447399D01*
X55705471Y-85444904D01*
X55762488Y-85477372D01*
X56000000Y-85714884D01*
X56000000Y-104494500D01*
X45124000Y-104494500D01*
X45056961Y-104474815D01*
X45011206Y-104422011D01*
X45000000Y-104370500D01*
X45000000Y-100000000D01*
X46294922Y-100000000D01*
X46315219Y-100387287D01*
X46375886Y-100770323D01*
X46375887Y-100770330D01*
X46476262Y-101144936D01*
X46615244Y-101506994D01*
X46791310Y-101852543D01*
X47002531Y-102177793D01*
X47211095Y-102435350D01*
X47211096Y-102435350D01*
X48108756Y-101537689D01*
X48067449Y-101599511D01*
X48048046Y-101697056D01*
X48067449Y-101794601D01*
X48122704Y-101877296D01*
X48205399Y-101932551D01*
X48278320Y-101947056D01*
X48327568Y-101947056D01*
X48400489Y-101932551D01*
X48462304Y-101891247D01*
X47564648Y-102788903D01*
X47564649Y-102788904D01*
X47822206Y-102997468D01*
X48147456Y-103208689D01*
X48493005Y-103384755D01*
X48855063Y-103523737D01*
X49229669Y-103624112D01*
X49229676Y-103624113D01*
X49612712Y-103684780D01*
X49999999Y-103705078D01*
X50000001Y-103705078D01*
X50387287Y-103684780D01*
X50770323Y-103624113D01*
X50770330Y-103624112D01*
X51144936Y-103523737D01*
X51506994Y-103384755D01*
X51852543Y-103208689D01*
X52177783Y-102997476D01*
X52177785Y-102997475D01*
X52435349Y-102788902D01*
X51537691Y-101891244D01*
X51599511Y-101932551D01*
X51672432Y-101947056D01*
X51721680Y-101947056D01*
X51794601Y-101932551D01*
X51877296Y-101877296D01*
X51932551Y-101794601D01*
X51951954Y-101697056D01*
X51932551Y-101599511D01*
X51891244Y-101537691D01*
X52788902Y-102435349D01*
X52997475Y-102177785D01*
X52997476Y-102177783D01*
X53208689Y-101852543D01*
X53384755Y-101506994D01*
X53523737Y-101144936D01*
X53624112Y-100770330D01*
X53624113Y-100770323D01*
X53684780Y-100387287D01*
X53705078Y-100000000D01*
X53705078Y-99999999D01*
X53684780Y-99612712D01*
X53624113Y-99229676D01*
X53624112Y-99229669D01*
X53523737Y-98855063D01*
X53384755Y-98493005D01*
X53208689Y-98147456D01*
X52997468Y-97822206D01*
X52788904Y-97564649D01*
X52788903Y-97564648D01*
X51891247Y-98462303D01*
X51932551Y-98400489D01*
X51951954Y-98302944D01*
X51932551Y-98205399D01*
X51877296Y-98122704D01*
X51794601Y-98067449D01*
X51721680Y-98052944D01*
X51672432Y-98052944D01*
X51599511Y-98067449D01*
X51537690Y-98108755D01*
X52435350Y-97211096D01*
X52435350Y-97211095D01*
X52177793Y-97002531D01*
X51852543Y-96791310D01*
X51506994Y-96615244D01*
X51144936Y-96476262D01*
X50770330Y-96375887D01*
X50770323Y-96375886D01*
X50387287Y-96315219D01*
X50000001Y-96294922D01*
X49999999Y-96294922D01*
X49612712Y-96315219D01*
X49229676Y-96375886D01*
X49229669Y-96375887D01*
X48855063Y-96476262D01*
X48493005Y-96615244D01*
X48147456Y-96791310D01*
X47822206Y-97002531D01*
X47564648Y-97211095D01*
X47564648Y-97211096D01*
X48462306Y-98108754D01*
X48400489Y-98067449D01*
X48327568Y-98052944D01*
X48278320Y-98052944D01*
X48205399Y-98067449D01*
X48122704Y-98122704D01*
X48067449Y-98205399D01*
X48048046Y-98302944D01*
X48067449Y-98400489D01*
X48108753Y-98462305D01*
X47211096Y-97564648D01*
X47211095Y-97564648D01*
X47002531Y-97822206D01*
X46791310Y-98147456D01*
X46615244Y-98493005D01*
X46476262Y-98855063D01*
X46375887Y-99229669D01*
X46375886Y-99229676D01*
X46315219Y-99612712D01*
X46294922Y-99999999D01*
X46294922Y-100000000D01*
X45000000Y-100000000D01*
X45000000Y-87000000D01*
X43729560Y-87000000D01*
X43662521Y-86980315D01*
X43616766Y-86927511D01*
X43606822Y-86858353D01*
X43618837Y-86820175D01*
X43724577Y-86610452D01*
X43792306Y-86389294D01*
X43797082Y-86352000D01*
X42912852Y-86352000D01*
X42961559Y-86214953D01*
X42971877Y-86064114D01*
X42941116Y-85916085D01*
X42907910Y-85852000D01*
X43795318Y-85852000D01*
X43763138Y-85702686D01*
X43763137Y-85702683D01*
X43676901Y-85488077D01*
X43555631Y-85291121D01*
X43552490Y-85287552D01*
X43522976Y-85224222D01*
X43532386Y-85154989D01*
X43571263Y-85106363D01*
X43658971Y-85040704D01*
X43675546Y-85028296D01*
X43761796Y-84913081D01*
X43812091Y-84778233D01*
X43818500Y-84718623D01*
X43818499Y-83347451D01*
X43838184Y-83280413D01*
X43854813Y-83259776D01*
X44383788Y-82730801D01*
X44396042Y-82720986D01*
X44395859Y-82720764D01*
X44401866Y-82715792D01*
X44401877Y-82715786D01*
X44432775Y-82682882D01*
X44449227Y-82665364D01*
X44459671Y-82654918D01*
X44470120Y-82644471D01*
X44474379Y-82638978D01*
X44478152Y-82634561D01*
X44510062Y-82600582D01*
X44519715Y-82583020D01*
X44530389Y-82566770D01*
X44542673Y-82550936D01*
X44558819Y-82513621D01*
X44603508Y-82459914D01*
X44670141Y-82438893D01*
X44737560Y-82457232D01*
G37*
%TD.AperFunction*%
%TA.AperFunction,Conductor*%
G36*
X43317539Y-81019685D02*
G01*
X43363294Y-81072489D01*
X43374500Y-81124000D01*
X43374500Y-81919547D01*
X43354815Y-81986586D01*
X43338181Y-82007228D01*
X42928977Y-82416431D01*
X42867654Y-82449916D01*
X42841296Y-82452750D01*
X41470129Y-82452750D01*
X41470123Y-82452751D01*
X41410516Y-82459158D01*
X41275671Y-82509452D01*
X41275664Y-82509456D01*
X41160455Y-82595702D01*
X41160452Y-82595705D01*
X41074206Y-82710914D01*
X41074202Y-82710921D01*
X41023908Y-82845767D01*
X41017501Y-82905366D01*
X41017500Y-82905385D01*
X41017500Y-84718620D01*
X41017501Y-84718626D01*
X41023908Y-84778233D01*
X41074202Y-84913078D01*
X41074206Y-84913085D01*
X41139272Y-85000000D01*
X41160454Y-85028296D01*
X41267990Y-85108797D01*
X41309860Y-85164730D01*
X41314844Y-85234422D01*
X41293374Y-85281797D01*
X41215553Y-85387019D01*
X41215550Y-85387023D01*
X41111422Y-85593547D01*
X41043693Y-85814705D01*
X41038918Y-85852000D01*
X41923148Y-85852000D01*
X41874441Y-85989047D01*
X41864123Y-86139886D01*
X41894884Y-86287915D01*
X41928090Y-86352000D01*
X41040682Y-86352000D01*
X41072861Y-86501313D01*
X41072862Y-86501316D01*
X41159098Y-86715922D01*
X41217631Y-86810986D01*
X41236018Y-86878393D01*
X41215043Y-86945040D01*
X41161366Y-86989767D01*
X41112041Y-87000000D01*
X40051362Y-87000000D01*
X39984323Y-86980315D01*
X39963681Y-86963681D01*
X38036319Y-85036319D01*
X38002834Y-84974996D01*
X38000000Y-84948638D01*
X38000000Y-81124000D01*
X38019685Y-81056961D01*
X38072489Y-81011206D01*
X38124000Y-81000000D01*
X43250500Y-81000000D01*
X43317539Y-81019685D01*
G37*
%TD.AperFunction*%
%TD*%
M02*
