0
SECTION
2
HEADER
9
$INSUNITS
70
4
9
$ACADVER
1
AC1014
9
$HANDSEED
5
FFFF
0
ENDSEC
0
SECTION
2
TABLES
0
TABLE
2
VPORT
5
8
100
AcDbSymbolTable
0
ENDTAB
0
TABLE
2
LTYPE
5
5
100
AcDbSymbolTable
0
LTYPE
5
14
100
AcDbSymbolTableRecord
100
AcDbLinetypeTableRecord
2
BYBLOCK
70
0
0
LTYPE
5
15
100
AcDbSymbolTableRecord
100
AcDbLinetypeTableRecord
2
BYLAYER
70
0
0
LTYPE
5
16
100
AcDbSymbolTableRecord
100
AcDbLinetypeTableRecord
2
DASHED
70
0
3
Dashed __ __ __ __ __ __ __ __ __ __ __ __ __ _
72
65
73
2
40
0.75
49
0.5
74
0
49
-0.25
74
0
0
ENDTAB
0
TABLE
2
LAYER
5
2
100
AcDbSymbolTable
70
3
0
LAYER
5
50
100
AcDbSymbolTableRecord
100
AcDbLayerTableRecord
2
1
70
0
62
7
6
DASHED
0
LAYER
5
51
100
AcDbSymbolTableRecord
100
AcDbLayerTableRecord
2
0
70
0
62
7
6
CONTINUOUS
0
ENDTAB
0
TABLE
2
STYLE
5
3
100
AcDbSymbolTable
70
1
0
STYLE
5
11
100
AcDbSymbolTableRecord
100
AcDbTextStyleTableRecord
2
STANDARD
70
0
0
ENDTAB
0
TABLE
2
VIEW
5
6
100
AcDbSymbolTable
70
0
0
ENDTAB
0
TABLE
2
UCS
5
7
100
AcDbSymbolTable
70
0
0
ENDTAB
0
TABLE
2
APPID
5
9
100
AcDbSymbolTable
70
2
0
APPID
5
12
100
AcDbSymbolTableRecord
100
AcDbRegAppTableRecord
2
ACAD
70
0
0
ENDTAB
0
TABLE
2
DIMSTYLE
5
A
100
AcDbSymbolTable
70
1
0
ENDTAB
0
TABLE
2
BLOCK_RECORD
5
1
100
AcDbSymbolTable
70
1
0
BLOCK_RECORD
5
1F
100
AcDbSymbolTableRecord
100
AcDbBlockTableRecord
2
*MODEL_SPACE
0
BLOCK_RECORD
5
1B
100
AcDbSymbolTableRecord
100
AcDbBlockTableRecord
2
*PAPER_SPACE
0
ENDTAB
0
ENDSEC
0
SECTION
2
BLOCKS
0
BLOCK
5
20
100
AcDbEntity
100
AcDbBlockBegin
2
*MODEL_SPACE
0
ENDBLK
5
21
100
AcDbEntity
100
AcDbBlockEnd
0
BLOCK
5
1C
100
AcDbEntity
100
AcDbBlockBegin
2
*PAPER_SPACE
0
ENDBLK
5
1D
100
AcDbEntity
100
AcDbBlockEnd
0
ENDSEC
0
SECTION
2
ENTITIES
0
LWPOLYLINE
5
100
100
AcDbEntity
8
0
100
AcDbPolyline
90
35
70
1
43
0.0
10
-54.146824116779484
20
-38.999999418854642
10
-28.000000417232513
20
-38.999999418854642
10
-28.000000417232513
20
-25.00000037252903
10
-25.00000037252903
20
-22.000000327825546
10
-13.000000193715096
20
-22.000000327825546
10
-10.000000134110447
20
-25.00000037252903
10
-10.000000134110447
20
-55.000000819563859
10
-6.9999997168779693
20
-58.000000864267271
10
22.000000327825546
20
-58.000000864267342
10
25
20
-55.000000819563859
10
25
20
-35.000000521540642
10
55.000000819563866
20
-35.000000521540642
10
55.000000819563866
20
-23.000000342726707
10
58.000000864267349
20
-20.000000298023224
10
73.000001043081284
20
-20.000000298023224
10
73.000001043081284
20
20.000000298023224
10
58.000000864267349
20
20.000000298023224
10
55.000000819563866
20
23.000000342726707
10
55.000000819563866
20
35.000000521540642
10
25
20
35.000000521540642
10
25
20
55.000000819563866
10
22.000000327825546
20
58.000000864267349
10
-6.9999997168779693
20
58.000000864267271
10
-10.000000134110447
20
55.000000819563866
10
-10.000000134110447
20
25.00000037252903
10
-13.000000193715096
20
22.000000327825546
10
-25.00000037252903
20
22.000000327825546
10
-28.000000417232513
20
25.00000037252903
10
-28.000000417232513
20
38.999999418854642
10
-54.146824116779662
20
38.999999418854635
42
-0.36862202160177965
10
-55.853175883220331
20
38.999999418854635
10
-57.000000849366188
20
38.999999418854642
10
-57.000000819563859
20
-0.00042286396795709891
10
-57.000000849366188
20
-38.999999418854642
10
-55.853175883220516
20
-38.999999418854642
42
-0.36862202160188634
0
CIRCLE
5
101
100
AcDbEntity
8
0
100
AcDbCircle
10
-53.000000789761543
20
34.000000506639559
30
1.8207657603852567e-13
40
1.2645000000000017
210
0
220
-5.4400928206632726e-15
230
1
0
CIRCLE
5
102
100
AcDbEntity
8
0
100
AcDbCircle
10
-53.000000789761543
20
-34.000000506639402
30
-1.8207657603852567e-13
40
1.2645000000000017
210
0
220
-5.4400928206632726e-15
230
1
0
CIRCLE
5
103
100
AcDbEntity
8
0
100
AcDbCircle
10
60.88498716861114
20
15.050000714836724
30
7.9936057773011271e-14
40
1.2645000000000017
210
0
220
-5.4400928206632726e-15
230
1
0
CIRCLE
5
104
100
AcDbEntity
8
0
100
AcDbCircle
10
-4.0433730773822267
20
-49.885300350769612
30
-2.6867397195928788e-13
40
1.2645
210
-2.2204460492504097e-16
220
-5.4400928206632726e-15
230
1
0
CIRCLE
5
105
100
AcDbEntity
8
0
100
AcDbCircle
10
-4.0469883811979903
20
49.968959066311555
30
2.6423307986078726e-13
40
1.2645
210
-2.2204460492504097e-16
220
-5.4400928206632726e-15
230
1
0
CIRCLE
5
106
100
AcDbEntity
8
0
100
AcDbCircle
10
60.878258005174253
20
-14.976714971840345
30
-7.9936057773011271e-14
40
1.2645000000000017
210
0
220
-5.4400928206632726e-15
230
1
0
CIRCLE
5
107
100
AcDbEntity
8
0
100
AcDbCircle
10
-10.000000149011612
20
-18.000000268220823
30
-9.5479180117763462e-14
40
1.2644999999999995
210
0
220
-5.4400928206632726e-15
230
1
0
CIRCLE
5
108
100
AcDbEntity
8
0
100
AcDbCircle
10
-10.000000149011612
20
18.00000026822098
30
9.5479180117763462e-14
40
1.2644999999999995
210
0
220
-5.4400928206632726e-15
230
1
0
CIRCLE
5
109
100
AcDbEntity
8
0
100
AcDbCircle
10
50
20
30.000000000000078
30
1.5987211554602254e-13
40
1.2645000000000017
210
0
220
-5.4400928206632726e-15
230
1
0
CIRCLE
5
110
100
AcDbEntity
8
0
100
AcDbCircle
10
50
20
-29.999999999999922
30
-1.5987211554602254e-13
40
1.2645000000000017
210
0
220
-5.4400928206632726e-15
230
1
0
CIRCLE
5
111
100
AcDbEntity
8
0
100
AcDbCircle
10
20.000000000000004
20
-49.999999999999922
30
-2.6867397195928788e-13
40
1.3145000000000007
210
-2.7755575615627903e-16
220
-5.4400928206632726e-15
230
1
0
CIRCLE
5
112
100
AcDbEntity
8
0
100
AcDbCircle
10
20.000000000000004
20
50.000000000000078
30
2.7533531010703882e-13
40
1.3145000000000007
210
-2.7755575615627903e-16
220
-5.4400928206632726e-15
230
1
0
ENDSEC
0
SECTION
2
OBJECTS
0
DICTIONARY
5
C
100
AcDbDictionary
3
ACAD_GROUP
350
D
3
ACAD_MLINESTYLE
350
17
0
DICTIONARY
5
D
100
AcDbDictionary
0
DICTIONARY
5
1A
330
C
100
AcDbDictionary
0
DICTIONARY
5
17
100
AcDbDictionary
0
ENDSEC
0
EOF
