M48
; DRILL file {KiCad 7.0.9} date Sun Jan 19 15:35:17 2025
; FORMAT={-:-/ absolute / inch / decimal}
; #@! TF.CreationDate,2025-01-19T15:35:17+09:00
; #@! TF.GenerationSoftware,Kicad,Pcbnew,7.0.9
; #@! TF.FileFunction,Plated,1,2,PTH
FMAT,2
INCH
; #@! TA.AperFunction,Plated,PTH,ViaDrill
T1C0.0157
; #@! TA.AperFunction,Plated,PTH,ComponentDrill
T2C0.0315
; #@! TA.AperFunction,Plated,PTH,ComponentDrill
T3C0.0374
; #@! TA.AperFunction,Plated,PTH,ComponentDrill
T4C0.0394
%
G90
G05
T1
X2.04Y-3.14
X2.0472Y-2.82
X2.0866Y-3.6614
X2.126Y-3.1496
X2.24Y-3.0
X2.25Y-3.89
X2.2835Y-3.1496
X2.32Y-3.53
X2.425Y-3.475
X2.43Y-3.64
X2.5Y-3.7
X2.52Y-3.3
X2.55Y-2.96
X2.55Y-3.48
X2.6Y-3.58
X2.63Y-3.2
X2.7Y-3.06
X2.7Y-3.48
X2.725Y-3.3
X2.75Y-2.8
X2.825Y-3.575
X2.85Y-3.89
X2.87Y-3.04
X2.875Y-3.2
X2.875Y-3.7
X2.89Y-2.88
X2.99Y-3.76
X3.04Y-3.2
X3.05Y-3.08
X3.075Y-3.5
X3.1Y-3.26
X3.13Y-3.35
X3.15Y-3.6
X3.3Y-2.84
X3.33Y-2.93
X3.33Y-3.49
X3.34Y-3.01
X3.35Y-3.66
X3.45Y-3.56
X3.47Y-3.0
X3.47Y-3.25
X3.48Y-3.12
X3.59Y-3.23
X3.63Y-2.79
X3.63Y-2.9
X3.68Y-3.15
X3.75Y-3.23
X3.76Y-3.01
X3.79Y-3.56
X3.84Y-3.34
X3.9Y-3.525
X3.92Y-3.13
X3.925Y-3.225
X4.025Y-3.65
X4.03Y-2.84
X4.06Y-3.84
X4.1Y-3.55
X4.175Y-3.8
X4.225Y-3.45
X4.23Y-3.35
X4.3Y-3.225
X4.38Y-2.94
X4.49Y-3.36
X4.61Y-2.79
X4.61Y-3.5
X4.63Y-3.23
X4.74Y-3.33
X4.84Y-3.17
X5.01Y-3.8
X5.02Y-3.52
X5.08Y-3.34
X5.11Y-3.43
X5.3Y-2.95
X5.4Y-3.8
X5.52Y-3.49
X5.6Y-3.34
X5.71Y-3.16
X5.74Y-3.02
X5.74Y-3.48
X5.8Y-2.81
X5.85Y-3.14
X5.85Y-3.35
X5.8661Y-3.8189
X5.9055Y-2.9921
T2
X4.38Y-2.86
X4.38Y-3.26
X4.51Y-2.86
X4.51Y-3.26
T3
X3.7894Y-2.9321
X3.8878Y-2.9321
X3.9862Y-2.9321
X4.0846Y-2.9321
T4
X2.0941Y-3.4189
X2.0941Y-3.8189
X2.1941Y-3.4189
X2.1941Y-3.8189
X2.2941Y-3.4189
X2.3941Y-3.4189
X2.8Y-2.87
X2.8Y-2.97
X2.8Y-3.07
X2.8Y-3.17
X2.8Y-3.27
X2.8Y-3.37
X2.8Y-3.47
X2.948Y-3.4189
X2.948Y-3.8189
X3.048Y-3.4189
X3.048Y-3.8189
X3.148Y-3.4189
X3.248Y-3.4189
X3.4Y-2.87
X3.4Y-2.97
X3.4Y-3.07
X3.4Y-3.17
X3.4Y-3.27
X3.4Y-3.37
X3.4Y-3.47
X3.8339Y-3.4189
X3.8339Y-3.8189
X3.9339Y-3.4189
X3.9339Y-3.8189
X4.0339Y-3.4189
X4.1339Y-3.4189
X4.7197Y-3.4189
X4.7197Y-3.8189
X4.8197Y-3.4189
X4.8197Y-3.8189
X4.9197Y-3.4189
X5.0197Y-3.4189
X5.5906Y-3.4189
X5.5906Y-3.8189
X5.6906Y-3.4189
X5.6906Y-3.8189
X5.7906Y-3.4189
X5.8906Y-3.4189
T0
M30
