%TF.GenerationSoftware,KiCad,Pcbnew,7.0.9*%
%TF.CreationDate,2025-01-19T15:35:17+09:00*%
%TF.ProjectId,03-FRONT,30332d46-524f-44e5-942e-6b696361645f,rev?*%
%TF.SameCoordinates,Original*%
%TF.FileFunction,Soldermask,Top*%
%TF.FilePolarity,Negative*%
%FSLAX46Y46*%
G04 Gerber Fmt 4.6, Leading zero omitted, Abs format (unit mm)*
G04 Created by KiCad (PCBNEW 7.0.9) date 2025-01-19 15:35:17*
%MOMM*%
%LPD*%
G01*
G04 APERTURE LIST*
G04 Aperture macros list*
%AMRoundRect*
0 Rectangle with rounded corners*
0 $1 Rounding radius*
0 $2 $3 $4 $5 $6 $7 $8 $9 X,Y pos of 4 corners*
0 Add a 4 corners polygon primitive as box body*
4,1,4,$2,$3,$4,$5,$6,$7,$8,$9,$2,$3,0*
0 Add four circle primitives for the rounded corners*
1,1,$1+$1,$2,$3*
1,1,$1+$1,$4,$5*
1,1,$1+$1,$6,$7*
1,1,$1+$1,$8,$9*
0 Add four rect primitives between the rounded corners*
20,1,$1+$1,$2,$3,$4,$5,0*
20,1,$1+$1,$4,$5,$6,$7,0*
20,1,$1+$1,$6,$7,$8,$9,0*
20,1,$1+$1,$8,$9,$2,$3,0*%
G04 Aperture macros list end*
%ADD10C,3.200000*%
%ADD11R,1.500000X0.900000*%
%ADD12C,1.700000*%
%ADD13C,1.600000*%
%ADD14O,1.600000X1.600000*%
%ADD15RoundRect,0.250000X0.600000X0.725000X-0.600000X0.725000X-0.600000X-0.725000X0.600000X-0.725000X0*%
%ADD16O,1.700000X1.950000*%
%ADD17R,1.600000X1.600000*%
G04 APERTURE END LIST*
D10*
%TO.C,H2*%
X90000000Y-95000000D03*
%TD*%
D11*
%TO.C,D1*%
X54550000Y-78350000D03*
X54550000Y-81650000D03*
X59450000Y-81650000D03*
X59450000Y-78350000D03*
%TD*%
D12*
%TO.C,U5*%
X149620000Y-86840000D03*
X147080000Y-86840000D03*
X144540000Y-86840000D03*
X142000000Y-86840000D03*
X144540000Y-97000000D03*
X142000000Y-97000000D03*
%TD*%
D11*
%TO.C,D4*%
X120050000Y-78350000D03*
X120050000Y-81650000D03*
X124950000Y-81650000D03*
X124950000Y-78350000D03*
%TD*%
%TO.C,D2*%
X75050000Y-78350000D03*
X75050000Y-81650000D03*
X79950000Y-81650000D03*
X79950000Y-78350000D03*
%TD*%
D12*
%TO.C,U2*%
X82500000Y-86840000D03*
X79960000Y-86840000D03*
X77420000Y-86840000D03*
X74880000Y-86840000D03*
X77420000Y-97000000D03*
X74880000Y-97000000D03*
%TD*%
D11*
%TO.C,D5*%
X142550000Y-78350000D03*
X142550000Y-81650000D03*
X147450000Y-81650000D03*
X147450000Y-78350000D03*
%TD*%
D10*
%TO.C,H1*%
X112000000Y-95000000D03*
%TD*%
D12*
%TO.C,U4*%
X127500000Y-86840000D03*
X124960000Y-86840000D03*
X122420000Y-86840000D03*
X119880000Y-86840000D03*
X122420000Y-97000000D03*
X119880000Y-97000000D03*
%TD*%
D11*
%TO.C,D3*%
X97550000Y-78350000D03*
X97550000Y-81650000D03*
X102450000Y-81650000D03*
X102450000Y-78350000D03*
%TD*%
D12*
%TO.C,U3*%
X105000000Y-86840000D03*
X102460000Y-86840000D03*
X99920000Y-86840000D03*
X97380000Y-86840000D03*
X99920000Y-97000000D03*
X97380000Y-97000000D03*
%TD*%
%TO.C,U1*%
X60810000Y-86840000D03*
X58270000Y-86840000D03*
X55730000Y-86840000D03*
X53190000Y-86840000D03*
X55730000Y-97000000D03*
X53190000Y-97000000D03*
%TD*%
D13*
%TO.C,R1*%
X114554000Y-82804000D03*
D14*
X114554000Y-72644000D03*
%TD*%
D15*
%TO.C,J1*%
X103750000Y-74475000D03*
D16*
X101250000Y-74475000D03*
X98750000Y-74475000D03*
X96250000Y-74475000D03*
%TD*%
D13*
%TO.C,R2*%
X111252000Y-82804000D03*
D14*
X111252000Y-72644000D03*
%TD*%
D17*
%TO.C,U6*%
X86360000Y-72898000D03*
D13*
X86360000Y-75438000D03*
X86360000Y-77978000D03*
X86360000Y-80518000D03*
X86360000Y-83058000D03*
X86360000Y-85598000D03*
X86360000Y-88138000D03*
X71120000Y-88138000D03*
X71120000Y-85598000D03*
X71120000Y-83058000D03*
X71120000Y-80518000D03*
X71120000Y-77978000D03*
X71120000Y-75438000D03*
X71120000Y-72898000D03*
%TD*%
M02*
