%TF.GenerationSoftware,KiCad,Pcbnew,7.0.9*%
%TF.CreationDate,2025-01-19T15:35:17+09:00*%
%TF.ProjectId,03-FRONT,30332d46-524f-44e5-942e-6b696361645f,rev?*%
%TF.SameCoordinates,Original*%
%TF.FileFunction,Legend,Top*%
%TF.FilePolarity,Positive*%
%FSLAX46Y46*%
G04 Gerber Fmt 4.6, Leading zero omitted, Abs format (unit mm)*
G04 Created by KiCad (PCBNEW 7.0.9) date 2025-01-19 15:35:17*
%MOMM*%
%LPD*%
G01*
G04 APERTURE LIST*
G04 Aperture macros list*
%AMRoundRect*
0 Rectangle with rounded corners*
0 $1 Rounding radius*
0 $2 $3 $4 $5 $6 $7 $8 $9 X,Y pos of 4 corners*
0 Add a 4 corners polygon primitive as box body*
4,1,4,$2,$3,$4,$5,$6,$7,$8,$9,$2,$3,0*
0 Add four circle primitives for the rounded corners*
1,1,$1+$1,$2,$3*
1,1,$1+$1,$4,$5*
1,1,$1+$1,$6,$7*
1,1,$1+$1,$8,$9*
0 Add four rect primitives between the rounded corners*
20,1,$1+$1,$2,$3,$4,$5,0*
20,1,$1+$1,$4,$5,$6,$7,0*
20,1,$1+$1,$6,$7,$8,$9,0*
20,1,$1+$1,$8,$9,$2,$3,0*%
G04 Aperture macros list end*
%ADD10C,0.200000*%
%ADD11C,0.150000*%
%ADD12C,0.152400*%
%ADD13C,0.100000*%
%ADD14C,0.120000*%
%ADD15C,3.200000*%
%ADD16R,1.500000X0.900000*%
%ADD17C,1.700000*%
%ADD18C,1.600000*%
%ADD19O,1.600000X1.600000*%
%ADD20RoundRect,0.250000X0.600000X0.725000X-0.600000X0.725000X-0.600000X-0.725000X0.600000X-0.725000X0*%
%ADD21O,1.700000X1.950000*%
%ADD22R,1.600000X1.600000*%
G04 APERTURE END LIST*
D10*
X104344780Y-71845863D02*
X104344780Y-71369673D01*
X104344780Y-71369673D02*
X103868590Y-71322054D01*
X103868590Y-71322054D02*
X103916209Y-71369673D01*
X103916209Y-71369673D02*
X103963828Y-71464911D01*
X103963828Y-71464911D02*
X103963828Y-71703006D01*
X103963828Y-71703006D02*
X103916209Y-71798244D01*
X103916209Y-71798244D02*
X103868590Y-71845863D01*
X103868590Y-71845863D02*
X103773352Y-71893482D01*
X103773352Y-71893482D02*
X103535257Y-71893482D01*
X103535257Y-71893482D02*
X103440019Y-71845863D01*
X103440019Y-71845863D02*
X103392400Y-71798244D01*
X103392400Y-71798244D02*
X103344780Y-71703006D01*
X103344780Y-71703006D02*
X103344780Y-71464911D01*
X103344780Y-71464911D02*
X103392400Y-71369673D01*
X103392400Y-71369673D02*
X103440019Y-71322054D01*
X104344780Y-72179197D02*
X103344780Y-72512530D01*
X103344780Y-72512530D02*
X104344780Y-72845863D01*
X88206054Y-83462600D02*
X88348911Y-83510219D01*
X88348911Y-83510219D02*
X88587006Y-83510219D01*
X88587006Y-83510219D02*
X88682244Y-83462600D01*
X88682244Y-83462600D02*
X88729863Y-83414980D01*
X88729863Y-83414980D02*
X88777482Y-83319742D01*
X88777482Y-83319742D02*
X88777482Y-83224504D01*
X88777482Y-83224504D02*
X88729863Y-83129266D01*
X88729863Y-83129266D02*
X88682244Y-83081647D01*
X88682244Y-83081647D02*
X88587006Y-83034028D01*
X88587006Y-83034028D02*
X88396530Y-82986409D01*
X88396530Y-82986409D02*
X88301292Y-82938790D01*
X88301292Y-82938790D02*
X88253673Y-82891171D01*
X88253673Y-82891171D02*
X88206054Y-82795933D01*
X88206054Y-82795933D02*
X88206054Y-82700695D01*
X88206054Y-82700695D02*
X88253673Y-82605457D01*
X88253673Y-82605457D02*
X88301292Y-82557838D01*
X88301292Y-82557838D02*
X88396530Y-82510219D01*
X88396530Y-82510219D02*
X88634625Y-82510219D01*
X88634625Y-82510219D02*
X88777482Y-82557838D01*
X89206054Y-83510219D02*
X89206054Y-82510219D01*
X89206054Y-82510219D02*
X89444149Y-82510219D01*
X89444149Y-82510219D02*
X89587006Y-82557838D01*
X89587006Y-82557838D02*
X89682244Y-82653076D01*
X89682244Y-82653076D02*
X89729863Y-82748314D01*
X89729863Y-82748314D02*
X89777482Y-82938790D01*
X89777482Y-82938790D02*
X89777482Y-83081647D01*
X89777482Y-83081647D02*
X89729863Y-83272123D01*
X89729863Y-83272123D02*
X89682244Y-83367361D01*
X89682244Y-83367361D02*
X89587006Y-83462600D01*
X89587006Y-83462600D02*
X89444149Y-83510219D01*
X89444149Y-83510219D02*
X89206054Y-83510219D01*
X90158435Y-83224504D02*
X90634625Y-83224504D01*
X90063197Y-83510219D02*
X90396530Y-82510219D01*
X90396530Y-82510219D02*
X90729863Y-83510219D01*
X88110816Y-87844219D02*
X88682244Y-87844219D01*
X88396530Y-88844219D02*
X88396530Y-87844219D01*
X88920340Y-87844219D02*
X89587006Y-88844219D01*
X89587006Y-87844219D02*
X88920340Y-88844219D01*
X96771561Y-70893482D02*
X96819180Y-70798244D01*
X96819180Y-70798244D02*
X96819180Y-70655387D01*
X96819180Y-70655387D02*
X96771561Y-70512530D01*
X96771561Y-70512530D02*
X96676323Y-70417292D01*
X96676323Y-70417292D02*
X96581085Y-70369673D01*
X96581085Y-70369673D02*
X96390609Y-70322054D01*
X96390609Y-70322054D02*
X96247752Y-70322054D01*
X96247752Y-70322054D02*
X96057276Y-70369673D01*
X96057276Y-70369673D02*
X95962038Y-70417292D01*
X95962038Y-70417292D02*
X95866800Y-70512530D01*
X95866800Y-70512530D02*
X95819180Y-70655387D01*
X95819180Y-70655387D02*
X95819180Y-70750625D01*
X95819180Y-70750625D02*
X95866800Y-70893482D01*
X95866800Y-70893482D02*
X95914419Y-70941101D01*
X95914419Y-70941101D02*
X96247752Y-70941101D01*
X96247752Y-70941101D02*
X96247752Y-70750625D01*
X95819180Y-71369673D02*
X96819180Y-71369673D01*
X96819180Y-71369673D02*
X95819180Y-71941101D01*
X95819180Y-71941101D02*
X96819180Y-71941101D01*
X95819180Y-72417292D02*
X96819180Y-72417292D01*
X96819180Y-72417292D02*
X96819180Y-72655387D01*
X96819180Y-72655387D02*
X96771561Y-72798244D01*
X96771561Y-72798244D02*
X96676323Y-72893482D01*
X96676323Y-72893482D02*
X96581085Y-72941101D01*
X96581085Y-72941101D02*
X96390609Y-72988720D01*
X96390609Y-72988720D02*
X96247752Y-72988720D01*
X96247752Y-72988720D02*
X96057276Y-72941101D01*
X96057276Y-72941101D02*
X95962038Y-72893482D01*
X95962038Y-72893482D02*
X95866800Y-72798244D01*
X95866800Y-72798244D02*
X95819180Y-72655387D01*
X95819180Y-72655387D02*
X95819180Y-72417292D01*
X88206054Y-86002600D02*
X88348911Y-86050219D01*
X88348911Y-86050219D02*
X88587006Y-86050219D01*
X88587006Y-86050219D02*
X88682244Y-86002600D01*
X88682244Y-86002600D02*
X88729863Y-85954980D01*
X88729863Y-85954980D02*
X88777482Y-85859742D01*
X88777482Y-85859742D02*
X88777482Y-85764504D01*
X88777482Y-85764504D02*
X88729863Y-85669266D01*
X88729863Y-85669266D02*
X88682244Y-85621647D01*
X88682244Y-85621647D02*
X88587006Y-85574028D01*
X88587006Y-85574028D02*
X88396530Y-85526409D01*
X88396530Y-85526409D02*
X88301292Y-85478790D01*
X88301292Y-85478790D02*
X88253673Y-85431171D01*
X88253673Y-85431171D02*
X88206054Y-85335933D01*
X88206054Y-85335933D02*
X88206054Y-85240695D01*
X88206054Y-85240695D02*
X88253673Y-85145457D01*
X88253673Y-85145457D02*
X88301292Y-85097838D01*
X88301292Y-85097838D02*
X88396530Y-85050219D01*
X88396530Y-85050219D02*
X88634625Y-85050219D01*
X88634625Y-85050219D02*
X88777482Y-85097838D01*
X89777482Y-85954980D02*
X89729863Y-86002600D01*
X89729863Y-86002600D02*
X89587006Y-86050219D01*
X89587006Y-86050219D02*
X89491768Y-86050219D01*
X89491768Y-86050219D02*
X89348911Y-86002600D01*
X89348911Y-86002600D02*
X89253673Y-85907361D01*
X89253673Y-85907361D02*
X89206054Y-85812123D01*
X89206054Y-85812123D02*
X89158435Y-85621647D01*
X89158435Y-85621647D02*
X89158435Y-85478790D01*
X89158435Y-85478790D02*
X89206054Y-85288314D01*
X89206054Y-85288314D02*
X89253673Y-85193076D01*
X89253673Y-85193076D02*
X89348911Y-85097838D01*
X89348911Y-85097838D02*
X89491768Y-85050219D01*
X89491768Y-85050219D02*
X89587006Y-85050219D01*
X89587006Y-85050219D02*
X89729863Y-85097838D01*
X89729863Y-85097838D02*
X89777482Y-85145457D01*
X90682244Y-86050219D02*
X90206054Y-86050219D01*
X90206054Y-86050219D02*
X90206054Y-85050219D01*
X100975380Y-71941101D02*
X101451571Y-71607768D01*
X100975380Y-71369673D02*
X101975380Y-71369673D01*
X101975380Y-71369673D02*
X101975380Y-71750625D01*
X101975380Y-71750625D02*
X101927761Y-71845863D01*
X101927761Y-71845863D02*
X101880142Y-71893482D01*
X101880142Y-71893482D02*
X101784904Y-71941101D01*
X101784904Y-71941101D02*
X101642047Y-71941101D01*
X101642047Y-71941101D02*
X101546809Y-71893482D01*
X101546809Y-71893482D02*
X101499190Y-71845863D01*
X101499190Y-71845863D02*
X101451571Y-71750625D01*
X101451571Y-71750625D02*
X101451571Y-71369673D01*
X101975380Y-72274435D02*
X100975380Y-72941101D01*
X101975380Y-72941101D02*
X100975380Y-72274435D01*
X68115183Y-72604219D02*
X67638993Y-72604219D01*
X67638993Y-72604219D02*
X67591374Y-73080409D01*
X67591374Y-73080409D02*
X67638993Y-73032790D01*
X67638993Y-73032790D02*
X67734231Y-72985171D01*
X67734231Y-72985171D02*
X67972326Y-72985171D01*
X67972326Y-72985171D02*
X68067564Y-73032790D01*
X68067564Y-73032790D02*
X68115183Y-73080409D01*
X68115183Y-73080409D02*
X68162802Y-73175647D01*
X68162802Y-73175647D02*
X68162802Y-73413742D01*
X68162802Y-73413742D02*
X68115183Y-73508980D01*
X68115183Y-73508980D02*
X68067564Y-73556600D01*
X68067564Y-73556600D02*
X67972326Y-73604219D01*
X67972326Y-73604219D02*
X67734231Y-73604219D01*
X67734231Y-73604219D02*
X67638993Y-73556600D01*
X67638993Y-73556600D02*
X67591374Y-73508980D01*
X68448517Y-72604219D02*
X68781850Y-73604219D01*
X68781850Y-73604219D02*
X69115183Y-72604219D01*
X88158435Y-79970219D02*
X88825101Y-80970219D01*
X88825101Y-79970219D02*
X88158435Y-80970219D01*
X89634625Y-80303552D02*
X89634625Y-80970219D01*
X89396530Y-79922600D02*
X89158435Y-80636885D01*
X89158435Y-80636885D02*
X89777482Y-80636885D01*
X66845374Y-77430219D02*
X67464421Y-77430219D01*
X67464421Y-77430219D02*
X67131088Y-77811171D01*
X67131088Y-77811171D02*
X67273945Y-77811171D01*
X67273945Y-77811171D02*
X67369183Y-77858790D01*
X67369183Y-77858790D02*
X67416802Y-77906409D01*
X67416802Y-77906409D02*
X67464421Y-78001647D01*
X67464421Y-78001647D02*
X67464421Y-78239742D01*
X67464421Y-78239742D02*
X67416802Y-78334980D01*
X67416802Y-78334980D02*
X67369183Y-78382600D01*
X67369183Y-78382600D02*
X67273945Y-78430219D01*
X67273945Y-78430219D02*
X66988231Y-78430219D01*
X66988231Y-78430219D02*
X66892993Y-78382600D01*
X66892993Y-78382600D02*
X66845374Y-78334980D01*
X67750136Y-77430219D02*
X68083469Y-78430219D01*
X68083469Y-78430219D02*
X68416802Y-77430219D01*
X68654898Y-77430219D02*
X69273945Y-77430219D01*
X69273945Y-77430219D02*
X68940612Y-77811171D01*
X68940612Y-77811171D02*
X69083469Y-77811171D01*
X69083469Y-77811171D02*
X69178707Y-77858790D01*
X69178707Y-77858790D02*
X69226326Y-77906409D01*
X69226326Y-77906409D02*
X69273945Y-78001647D01*
X69273945Y-78001647D02*
X69273945Y-78239742D01*
X69273945Y-78239742D02*
X69226326Y-78334980D01*
X69226326Y-78334980D02*
X69178707Y-78382600D01*
X69178707Y-78382600D02*
X69083469Y-78430219D01*
X69083469Y-78430219D02*
X68797755Y-78430219D01*
X68797755Y-78430219D02*
X68702517Y-78382600D01*
X68702517Y-78382600D02*
X68654898Y-78334980D01*
D11*
G36*
X106059074Y-78261498D02*
G01*
X106106601Y-78264203D01*
X106152840Y-78268711D01*
X106197791Y-78275022D01*
X106241455Y-78283136D01*
X106283830Y-78293054D01*
X106324917Y-78304775D01*
X106364716Y-78318299D01*
X106403227Y-78333626D01*
X106440450Y-78350756D01*
X106476386Y-78369690D01*
X106511033Y-78390426D01*
X106544392Y-78412966D01*
X106576463Y-78437310D01*
X106607246Y-78463456D01*
X106636742Y-78491406D01*
X106660698Y-78516459D01*
X106683110Y-78542159D01*
X106703975Y-78568505D01*
X106723295Y-78595499D01*
X106741070Y-78623139D01*
X106757298Y-78651427D01*
X106771982Y-78680361D01*
X106785119Y-78709942D01*
X106796711Y-78740170D01*
X106806758Y-78771045D01*
X106815258Y-78802566D01*
X106822214Y-78834735D01*
X106827623Y-78867550D01*
X106831487Y-78901012D01*
X106833806Y-78935121D01*
X106834578Y-78969877D01*
X106834000Y-79006391D01*
X106832266Y-79041742D01*
X106829375Y-79075931D01*
X106825328Y-79108958D01*
X106820124Y-79140824D01*
X106813764Y-79171527D01*
X106806248Y-79201068D01*
X106797576Y-79229446D01*
X106782399Y-79269836D01*
X106764620Y-79307611D01*
X106744239Y-79342771D01*
X106721257Y-79375317D01*
X106695673Y-79405248D01*
X106686567Y-79414644D01*
X106663727Y-79436777D01*
X106640634Y-79457749D01*
X106617290Y-79477558D01*
X106593694Y-79496205D01*
X106569846Y-79513691D01*
X106533601Y-79537740D01*
X106496790Y-79559174D01*
X106459413Y-79577994D01*
X106421468Y-79594199D01*
X106382957Y-79607790D01*
X106343879Y-79618766D01*
X106304235Y-79627127D01*
X106290894Y-79629333D01*
X106327344Y-79637834D01*
X106362506Y-79646850D01*
X106396381Y-79656381D01*
X106428967Y-79666427D01*
X106460266Y-79676989D01*
X106490276Y-79688066D01*
X106518998Y-79699658D01*
X106546433Y-79711765D01*
X106585169Y-79730892D01*
X106621008Y-79751178D01*
X106653949Y-79772623D01*
X106683991Y-79795227D01*
X106711136Y-79818991D01*
X106719540Y-79827170D01*
X106743497Y-79852220D01*
X106765908Y-79877911D01*
X106786773Y-79904244D01*
X106806093Y-79931217D01*
X106823868Y-79958832D01*
X106840097Y-79987088D01*
X106854780Y-80015985D01*
X106867917Y-80045523D01*
X106879509Y-80075702D01*
X106889556Y-80106523D01*
X106898057Y-80137984D01*
X106905012Y-80170087D01*
X106910421Y-80202831D01*
X106914285Y-80236215D01*
X106916604Y-80270242D01*
X106917377Y-80304909D01*
X106916475Y-80349731D01*
X106913770Y-80393523D01*
X106909262Y-80436285D01*
X106902951Y-80478016D01*
X106894837Y-80518717D01*
X106884919Y-80558387D01*
X106873198Y-80597027D01*
X106859674Y-80634637D01*
X106844347Y-80671216D01*
X106827217Y-80706765D01*
X106808283Y-80741283D01*
X106787546Y-80774771D01*
X106765006Y-80807229D01*
X106740663Y-80838656D01*
X106714517Y-80869053D01*
X106686567Y-80898419D01*
X106652822Y-80930361D01*
X106617530Y-80960243D01*
X106580694Y-80988064D01*
X106542311Y-81013824D01*
X106502383Y-81037523D01*
X106460910Y-81059161D01*
X106417890Y-81078739D01*
X106373326Y-81096256D01*
X106327215Y-81111712D01*
X106279559Y-81125107D01*
X106230358Y-81136441D01*
X106179611Y-81145715D01*
X106127318Y-81152928D01*
X106073479Y-81158080D01*
X106018095Y-81161171D01*
X105961166Y-81162201D01*
X105906317Y-81161300D01*
X105853146Y-81158595D01*
X105801651Y-81154087D01*
X105751835Y-81147776D01*
X105703695Y-81139661D01*
X105657232Y-81129744D01*
X105612447Y-81118023D01*
X105569339Y-81104499D01*
X105527909Y-81089172D01*
X105488155Y-81072041D01*
X105450079Y-81053108D01*
X105413680Y-81032371D01*
X105378959Y-81009831D01*
X105345914Y-80985488D01*
X105314547Y-80959341D01*
X105284857Y-80931392D01*
X105260772Y-80906147D01*
X105237974Y-80879872D01*
X105216465Y-80852566D01*
X105196243Y-80824230D01*
X105177309Y-80794864D01*
X105159664Y-80764467D01*
X105143306Y-80733040D01*
X105128237Y-80700582D01*
X105114455Y-80667094D01*
X105101962Y-80632576D01*
X105090756Y-80597027D01*
X105080838Y-80560448D01*
X105072209Y-80522838D01*
X105064867Y-80484198D01*
X105058814Y-80444528D01*
X105054048Y-80403827D01*
X105466574Y-80403827D01*
X105470324Y-80437171D01*
X105475530Y-80469060D01*
X105482191Y-80499493D01*
X105490308Y-80528471D01*
X105503394Y-80564844D01*
X105519067Y-80598630D01*
X105537328Y-80629828D01*
X105558177Y-80658439D01*
X105581613Y-80684462D01*
X105607360Y-80708033D01*
X105635142Y-80729285D01*
X105664959Y-80748218D01*
X105696811Y-80764833D01*
X105730698Y-80779130D01*
X105766621Y-80791109D01*
X105804578Y-80800769D01*
X105844570Y-80808110D01*
X105886598Y-80813133D01*
X105930660Y-80815838D01*
X105961166Y-80816353D01*
X105993686Y-80815772D01*
X106025303Y-80814029D01*
X106056014Y-80811124D01*
X106085821Y-80807057D01*
X106114724Y-80801828D01*
X106156382Y-80791805D01*
X106196005Y-80779167D01*
X106233594Y-80763915D01*
X106269147Y-80746049D01*
X106302665Y-80725567D01*
X106334148Y-80702471D01*
X106363596Y-80676761D01*
X106372959Y-80667609D01*
X106396530Y-80642159D01*
X106417782Y-80615265D01*
X106436715Y-80586929D01*
X106453330Y-80557151D01*
X106467627Y-80525929D01*
X106479606Y-80493266D01*
X106489266Y-80459160D01*
X106496607Y-80423611D01*
X106501630Y-80386619D01*
X106504335Y-80348186D01*
X106504850Y-80321762D01*
X106503691Y-80279354D01*
X106500214Y-80238686D01*
X106494418Y-80199756D01*
X106486303Y-80162565D01*
X106475870Y-80127113D01*
X106463119Y-80093399D01*
X106448050Y-80061425D01*
X106430662Y-80031189D01*
X106410955Y-80002692D01*
X106388931Y-79975934D01*
X106372959Y-79959061D01*
X106351192Y-79939097D01*
X106327107Y-79920421D01*
X106300703Y-79903033D01*
X106271980Y-79886933D01*
X106240939Y-79872121D01*
X106207580Y-79858597D01*
X106171903Y-79846361D01*
X106133907Y-79835413D01*
X106093592Y-79825753D01*
X106050959Y-79817381D01*
X106006008Y-79810297D01*
X105958739Y-79804501D01*
X105909151Y-79799993D01*
X105857244Y-79796773D01*
X105803020Y-79794841D01*
X105746476Y-79794197D01*
X105746476Y-79447616D01*
X105800939Y-79449142D01*
X105852951Y-79449505D01*
X105902513Y-79448707D01*
X105949625Y-79446746D01*
X105994288Y-79443624D01*
X106036500Y-79439339D01*
X106076262Y-79433892D01*
X106113573Y-79427283D01*
X106148435Y-79419512D01*
X106180847Y-79410579D01*
X106210809Y-79400484D01*
X106238320Y-79389227D01*
X106274994Y-79370163D01*
X106306155Y-79348483D01*
X106323867Y-79332578D01*
X106344425Y-79310150D01*
X106362962Y-79286279D01*
X106379476Y-79260965D01*
X106393968Y-79234209D01*
X106406438Y-79206011D01*
X106416886Y-79176369D01*
X106425311Y-79145286D01*
X106431715Y-79112759D01*
X106436096Y-79078791D01*
X106438456Y-79043379D01*
X106438905Y-79018970D01*
X106437746Y-78982455D01*
X106434268Y-78947100D01*
X106428472Y-78912903D01*
X106420358Y-78879866D01*
X106409925Y-78847988D01*
X106397174Y-78817269D01*
X106382104Y-78787710D01*
X106364716Y-78759310D01*
X106345010Y-78732068D01*
X106322985Y-78705986D01*
X106307014Y-78689242D01*
X106280487Y-78666058D01*
X106250365Y-78645966D01*
X106216648Y-78628964D01*
X106189001Y-78618241D01*
X106159332Y-78609258D01*
X106127641Y-78602013D01*
X106093927Y-78596506D01*
X106058192Y-78592739D01*
X106020434Y-78590710D01*
X105994139Y-78590324D01*
X105951731Y-78591483D01*
X105911063Y-78594961D01*
X105872133Y-78600757D01*
X105834942Y-78608871D01*
X105799490Y-78619304D01*
X105765776Y-78632055D01*
X105733802Y-78647125D01*
X105703566Y-78664513D01*
X105675069Y-78684219D01*
X105648311Y-78706244D01*
X105631438Y-78722215D01*
X105610459Y-78744064D01*
X105590935Y-78766196D01*
X105567167Y-78796146D01*
X105545986Y-78826600D01*
X105527393Y-78857558D01*
X105511388Y-78889020D01*
X105497970Y-78920985D01*
X105487139Y-78953454D01*
X105482694Y-78969877D01*
X105054048Y-78969877D01*
X105062743Y-78937225D01*
X105072343Y-78905214D01*
X105082848Y-78873844D01*
X105094256Y-78843115D01*
X105106570Y-78813028D01*
X105119787Y-78783581D01*
X105133910Y-78754776D01*
X105148936Y-78726612D01*
X105164867Y-78699088D01*
X105181703Y-78672206D01*
X105199443Y-78645966D01*
X105218088Y-78620366D01*
X105237637Y-78595407D01*
X105258090Y-78571090D01*
X105279448Y-78547414D01*
X105301710Y-78524378D01*
X105335390Y-78492436D01*
X105370484Y-78462554D01*
X105406991Y-78434734D01*
X105444913Y-78408974D01*
X105484248Y-78385274D01*
X105524998Y-78363636D01*
X105567161Y-78344059D01*
X105610738Y-78326542D01*
X105655730Y-78311086D01*
X105702135Y-78297691D01*
X105749954Y-78286356D01*
X105799187Y-78277083D01*
X105849834Y-78269870D01*
X105901895Y-78264718D01*
X105955370Y-78261627D01*
X106010259Y-78260596D01*
X106059074Y-78261498D01*
G37*
G36*
X106079398Y-77700638D02*
G01*
X106131202Y-77702377D01*
X106182524Y-77705275D01*
X106233363Y-77709332D01*
X106283720Y-77714549D01*
X106333595Y-77720924D01*
X106382988Y-77728459D01*
X106431898Y-77737153D01*
X106480326Y-77747006D01*
X106528272Y-77758019D01*
X106575736Y-77770190D01*
X106622717Y-77783521D01*
X106669216Y-77798011D01*
X106715232Y-77813660D01*
X106760767Y-77830469D01*
X106805819Y-77848436D01*
X106850389Y-77867563D01*
X106894476Y-77887849D01*
X106938081Y-77909294D01*
X106981204Y-77931899D01*
X107023845Y-77955662D01*
X107066003Y-77980585D01*
X107107679Y-78006667D01*
X107148873Y-78033908D01*
X107189585Y-78062309D01*
X107229814Y-78091868D01*
X107269561Y-78122587D01*
X107308825Y-78154465D01*
X107347608Y-78187502D01*
X107385908Y-78221699D01*
X107423726Y-78257054D01*
X107461061Y-78293569D01*
X107497576Y-78330905D01*
X107532932Y-78368725D01*
X107567128Y-78407029D01*
X107600165Y-78445816D01*
X107632043Y-78485087D01*
X107662762Y-78524842D01*
X107692322Y-78565081D01*
X107720722Y-78605803D01*
X107747963Y-78647009D01*
X107774045Y-78688699D01*
X107798968Y-78730872D01*
X107822731Y-78773529D01*
X107845336Y-78816670D01*
X107866781Y-78860294D01*
X107887067Y-78904403D01*
X107906194Y-78948995D01*
X107924161Y-78994070D01*
X107940970Y-79039630D01*
X107956619Y-79085673D01*
X107971109Y-79132200D01*
X107984440Y-79179210D01*
X107996611Y-79226704D01*
X108007624Y-79274682D01*
X108017477Y-79323144D01*
X108026171Y-79372090D01*
X108033706Y-79421519D01*
X108040081Y-79471431D01*
X108045298Y-79521828D01*
X108049355Y-79572708D01*
X108052253Y-79624072D01*
X108053992Y-79675920D01*
X108054571Y-79728251D01*
X108053992Y-79780538D01*
X108052253Y-79832342D01*
X108049355Y-79883664D01*
X108045298Y-79934503D01*
X108040081Y-79984860D01*
X108033706Y-80034735D01*
X108026171Y-80084128D01*
X108017477Y-80133038D01*
X108007624Y-80181466D01*
X107996611Y-80229412D01*
X107984440Y-80276875D01*
X107971109Y-80323857D01*
X107956619Y-80370356D01*
X107940970Y-80416372D01*
X107924161Y-80461907D01*
X107906194Y-80506959D01*
X107887067Y-80551528D01*
X107866781Y-80595616D01*
X107845336Y-80639221D01*
X107822731Y-80682344D01*
X107798968Y-80724985D01*
X107774045Y-80767143D01*
X107747963Y-80808819D01*
X107720722Y-80850013D01*
X107692322Y-80890725D01*
X107662762Y-80930954D01*
X107632043Y-80970701D01*
X107600165Y-81009965D01*
X107567128Y-81048748D01*
X107532932Y-81087048D01*
X107497576Y-81124866D01*
X107461061Y-81162201D01*
X107423726Y-81198761D01*
X107385908Y-81234160D01*
X107347608Y-81268399D01*
X107308825Y-81301477D01*
X107269561Y-81333394D01*
X107229814Y-81364151D01*
X107189585Y-81393747D01*
X107148873Y-81422182D01*
X107107679Y-81449457D01*
X107066003Y-81475571D01*
X107023845Y-81500525D01*
X106981204Y-81524318D01*
X106938081Y-81546950D01*
X106894476Y-81568422D01*
X106850389Y-81588733D01*
X106805819Y-81607883D01*
X106760767Y-81625873D01*
X106715232Y-81642702D01*
X106669216Y-81658371D01*
X106622717Y-81672879D01*
X106575736Y-81686226D01*
X106528272Y-81698412D01*
X106480326Y-81709438D01*
X106431898Y-81719304D01*
X106382988Y-81728009D01*
X106333595Y-81735553D01*
X106283720Y-81741936D01*
X106233363Y-81747159D01*
X106182524Y-81751221D01*
X106131202Y-81754123D01*
X106079398Y-81755864D01*
X106027111Y-81756444D01*
X105974780Y-81755864D01*
X105922932Y-81754123D01*
X105871568Y-81751221D01*
X105820688Y-81747159D01*
X105770292Y-81741936D01*
X105720379Y-81735553D01*
X105670950Y-81728009D01*
X105622004Y-81719304D01*
X105573542Y-81709438D01*
X105525564Y-81698412D01*
X105478070Y-81686226D01*
X105431060Y-81672879D01*
X105384533Y-81658371D01*
X105338490Y-81642702D01*
X105292930Y-81625873D01*
X105247855Y-81607883D01*
X105203263Y-81588733D01*
X105159154Y-81568422D01*
X105115530Y-81546950D01*
X105072389Y-81524318D01*
X105029732Y-81500525D01*
X104987559Y-81475571D01*
X104945869Y-81449457D01*
X104904663Y-81422182D01*
X104863941Y-81393747D01*
X104823702Y-81364151D01*
X104783947Y-81333394D01*
X104744676Y-81301477D01*
X104705889Y-81268399D01*
X104667585Y-81234160D01*
X104629765Y-81198761D01*
X104592429Y-81162201D01*
X104555914Y-81124866D01*
X104520559Y-81087048D01*
X104486362Y-81048748D01*
X104453325Y-81009965D01*
X104421447Y-80970701D01*
X104390728Y-80930954D01*
X104361169Y-80890725D01*
X104332768Y-80850013D01*
X104305527Y-80808819D01*
X104279445Y-80767143D01*
X104254522Y-80724985D01*
X104230759Y-80682344D01*
X104208154Y-80639221D01*
X104186709Y-80595616D01*
X104166423Y-80551528D01*
X104147296Y-80506959D01*
X104129329Y-80461907D01*
X104112520Y-80416372D01*
X104096871Y-80370356D01*
X104082381Y-80323857D01*
X104069050Y-80276875D01*
X104056879Y-80229412D01*
X104045866Y-80181466D01*
X104036013Y-80133038D01*
X104027319Y-80084128D01*
X104019784Y-80034735D01*
X104013409Y-79984860D01*
X104008192Y-79934503D01*
X104004135Y-79883664D01*
X104001237Y-79832342D01*
X103999498Y-79780538D01*
X103998919Y-79728251D01*
X104163783Y-79728251D01*
X104164314Y-79776433D01*
X104165909Y-79824164D01*
X104168568Y-79871447D01*
X104172289Y-79918280D01*
X104177074Y-79964664D01*
X104182922Y-80010598D01*
X104189834Y-80056083D01*
X104197809Y-80101119D01*
X104206847Y-80145705D01*
X104216949Y-80189842D01*
X104228113Y-80233529D01*
X104240341Y-80276767D01*
X104253633Y-80319556D01*
X104267988Y-80361896D01*
X104283406Y-80403786D01*
X104299887Y-80445226D01*
X104317432Y-80486218D01*
X104336040Y-80526760D01*
X104355711Y-80566852D01*
X104376446Y-80606495D01*
X104398244Y-80645689D01*
X104421105Y-80684434D01*
X104445030Y-80722729D01*
X104470018Y-80760574D01*
X104496069Y-80797971D01*
X104523183Y-80834918D01*
X104551361Y-80871415D01*
X104580602Y-80907464D01*
X104610907Y-80943062D01*
X104642275Y-80978212D01*
X104674706Y-81012912D01*
X104708200Y-81047163D01*
X104742406Y-81080657D01*
X104777065Y-81113088D01*
X104812176Y-81144456D01*
X104847739Y-81174761D01*
X104883754Y-81204002D01*
X104920222Y-81232180D01*
X104957142Y-81259294D01*
X104994514Y-81285345D01*
X105032338Y-81310333D01*
X105070614Y-81334258D01*
X105109343Y-81357119D01*
X105148524Y-81378917D01*
X105188157Y-81399652D01*
X105228243Y-81419323D01*
X105268780Y-81437931D01*
X105309770Y-81455476D01*
X105351212Y-81471957D01*
X105393107Y-81487375D01*
X105435453Y-81501730D01*
X105478252Y-81515021D01*
X105521503Y-81527250D01*
X105565206Y-81538414D01*
X105609362Y-81548516D01*
X105653969Y-81557554D01*
X105699029Y-81565529D01*
X105744542Y-81572440D01*
X105790506Y-81578289D01*
X105836923Y-81583074D01*
X105883791Y-81586795D01*
X105931113Y-81589453D01*
X105978886Y-81591048D01*
X106027111Y-81591580D01*
X106075293Y-81591048D01*
X106123024Y-81589453D01*
X106170307Y-81586795D01*
X106217140Y-81583074D01*
X106263524Y-81578289D01*
X106309458Y-81572440D01*
X106354943Y-81565529D01*
X106399979Y-81557554D01*
X106444565Y-81548516D01*
X106488702Y-81538414D01*
X106532389Y-81527250D01*
X106575627Y-81515021D01*
X106618416Y-81501730D01*
X106660756Y-81487375D01*
X106702646Y-81471957D01*
X106744086Y-81455476D01*
X106785078Y-81437931D01*
X106825620Y-81419323D01*
X106865712Y-81399652D01*
X106905355Y-81378917D01*
X106944549Y-81357119D01*
X106983294Y-81334258D01*
X107021589Y-81310333D01*
X107059434Y-81285345D01*
X107096831Y-81259294D01*
X107133778Y-81232180D01*
X107170275Y-81204002D01*
X107206324Y-81174761D01*
X107241922Y-81144456D01*
X107277072Y-81113088D01*
X107311772Y-81080657D01*
X107346023Y-81047163D01*
X107379472Y-81012912D01*
X107411860Y-80978212D01*
X107443185Y-80943062D01*
X107473449Y-80907464D01*
X107502651Y-80871415D01*
X107530791Y-80834918D01*
X107557869Y-80797971D01*
X107583885Y-80760574D01*
X107608839Y-80722729D01*
X107632731Y-80684434D01*
X107655562Y-80645689D01*
X107677331Y-80606495D01*
X107698037Y-80566852D01*
X107717682Y-80526760D01*
X107736265Y-80486218D01*
X107753786Y-80445226D01*
X107770245Y-80403786D01*
X107785643Y-80361896D01*
X107799978Y-80319556D01*
X107813252Y-80276767D01*
X107825463Y-80233529D01*
X107836613Y-80189842D01*
X107846701Y-80145705D01*
X107855727Y-80101119D01*
X107863691Y-80056083D01*
X107870593Y-80010598D01*
X107876434Y-79964664D01*
X107881212Y-79918280D01*
X107884929Y-79871447D01*
X107887584Y-79824164D01*
X107889176Y-79776433D01*
X107889707Y-79728251D01*
X107889176Y-79680026D01*
X107887584Y-79632253D01*
X107884929Y-79584931D01*
X107881212Y-79538063D01*
X107876434Y-79491646D01*
X107870593Y-79445682D01*
X107863691Y-79400169D01*
X107855727Y-79355109D01*
X107846701Y-79310502D01*
X107836613Y-79266346D01*
X107825463Y-79222643D01*
X107813252Y-79179392D01*
X107799978Y-79136593D01*
X107785643Y-79094247D01*
X107770245Y-79052352D01*
X107753786Y-79010910D01*
X107736265Y-78969920D01*
X107717682Y-78929383D01*
X107698037Y-78889297D01*
X107677331Y-78849664D01*
X107655562Y-78810483D01*
X107632731Y-78771754D01*
X107608839Y-78733478D01*
X107583885Y-78695654D01*
X107557869Y-78658282D01*
X107530791Y-78621362D01*
X107502651Y-78584894D01*
X107473449Y-78548879D01*
X107443185Y-78513316D01*
X107411860Y-78478205D01*
X107379472Y-78443546D01*
X107346023Y-78409340D01*
X107311772Y-78375846D01*
X107277072Y-78343415D01*
X107241922Y-78312047D01*
X107206324Y-78281742D01*
X107170275Y-78252501D01*
X107133778Y-78224323D01*
X107096831Y-78197209D01*
X107059434Y-78171157D01*
X107021589Y-78146170D01*
X106983294Y-78122245D01*
X106944549Y-78099384D01*
X106905355Y-78077586D01*
X106865712Y-78056851D01*
X106825620Y-78037180D01*
X106785078Y-78018572D01*
X106744086Y-78001027D01*
X106702646Y-77984546D01*
X106660756Y-77969128D01*
X106618416Y-77954773D01*
X106575627Y-77941481D01*
X106532389Y-77929253D01*
X106488702Y-77918088D01*
X106444565Y-77907987D01*
X106399979Y-77898949D01*
X106354943Y-77890974D01*
X106309458Y-77884062D01*
X106263524Y-77878214D01*
X106217140Y-77873429D01*
X106170307Y-77869708D01*
X106123024Y-77867049D01*
X106075293Y-77865454D01*
X106027111Y-77864923D01*
X105978886Y-77865454D01*
X105931113Y-77867049D01*
X105883791Y-77869708D01*
X105836923Y-77873429D01*
X105790506Y-77878214D01*
X105744542Y-77884062D01*
X105699029Y-77890974D01*
X105653969Y-77898949D01*
X105609362Y-77907987D01*
X105565206Y-77918088D01*
X105521503Y-77929253D01*
X105478252Y-77941481D01*
X105435453Y-77954773D01*
X105393107Y-77969128D01*
X105351212Y-77984546D01*
X105309770Y-78001027D01*
X105268780Y-78018572D01*
X105228243Y-78037180D01*
X105188157Y-78056851D01*
X105148524Y-78077586D01*
X105109343Y-78099384D01*
X105070614Y-78122245D01*
X105032338Y-78146170D01*
X104994514Y-78171157D01*
X104957142Y-78197209D01*
X104920222Y-78224323D01*
X104883754Y-78252501D01*
X104847739Y-78281742D01*
X104812176Y-78312047D01*
X104777065Y-78343415D01*
X104742406Y-78375846D01*
X104708200Y-78409340D01*
X104674706Y-78443546D01*
X104642275Y-78478205D01*
X104610907Y-78513316D01*
X104580602Y-78548879D01*
X104551361Y-78584894D01*
X104523183Y-78621362D01*
X104496069Y-78658282D01*
X104470018Y-78695654D01*
X104445030Y-78733478D01*
X104421105Y-78771754D01*
X104398244Y-78810483D01*
X104376446Y-78849664D01*
X104355711Y-78889297D01*
X104336040Y-78929383D01*
X104317432Y-78969920D01*
X104299887Y-79010910D01*
X104283406Y-79052352D01*
X104267988Y-79094247D01*
X104253633Y-79136593D01*
X104240341Y-79179392D01*
X104228113Y-79222643D01*
X104216949Y-79266346D01*
X104206847Y-79310502D01*
X104197809Y-79355109D01*
X104189834Y-79400169D01*
X104182922Y-79445682D01*
X104177074Y-79491646D01*
X104172289Y-79538063D01*
X104168568Y-79584931D01*
X104165909Y-79632253D01*
X104164314Y-79680026D01*
X104163783Y-79728251D01*
X103998919Y-79728251D01*
X103999498Y-79675920D01*
X104001237Y-79624072D01*
X104004135Y-79572708D01*
X104008192Y-79521828D01*
X104013409Y-79471431D01*
X104019784Y-79421519D01*
X104027319Y-79372090D01*
X104036013Y-79323144D01*
X104045866Y-79274682D01*
X104056879Y-79226704D01*
X104069050Y-79179210D01*
X104082381Y-79132200D01*
X104096871Y-79085673D01*
X104112520Y-79039630D01*
X104129329Y-78994070D01*
X104147296Y-78948995D01*
X104166423Y-78904403D01*
X104186709Y-78860294D01*
X104208154Y-78816670D01*
X104230759Y-78773529D01*
X104254522Y-78730872D01*
X104279445Y-78688699D01*
X104305527Y-78647009D01*
X104332768Y-78605803D01*
X104361169Y-78565081D01*
X104390728Y-78524842D01*
X104421447Y-78485087D01*
X104453325Y-78445816D01*
X104486362Y-78407029D01*
X104520559Y-78368725D01*
X104555914Y-78330905D01*
X104592429Y-78293569D01*
X104629765Y-78257054D01*
X104667585Y-78221699D01*
X104705889Y-78187502D01*
X104744676Y-78154465D01*
X104783947Y-78122587D01*
X104823702Y-78091868D01*
X104863941Y-78062309D01*
X104904663Y-78033908D01*
X104945869Y-78006667D01*
X104987559Y-77980585D01*
X105029732Y-77955662D01*
X105072389Y-77931899D01*
X105115530Y-77909294D01*
X105159154Y-77887849D01*
X105203263Y-77867563D01*
X105247855Y-77848436D01*
X105292930Y-77830469D01*
X105338490Y-77813660D01*
X105384533Y-77798011D01*
X105431060Y-77783521D01*
X105478070Y-77770190D01*
X105525564Y-77758019D01*
X105573542Y-77747006D01*
X105622004Y-77737153D01*
X105670950Y-77728459D01*
X105720379Y-77720924D01*
X105770292Y-77714549D01*
X105820688Y-77709332D01*
X105871568Y-77705275D01*
X105922932Y-77702377D01*
X105974780Y-77700638D01*
X106027111Y-77700059D01*
X106079398Y-77700638D01*
G37*
D10*
X68321564Y-88844219D02*
X67988231Y-88368028D01*
X67750136Y-88844219D02*
X67750136Y-87844219D01*
X67750136Y-87844219D02*
X68131088Y-87844219D01*
X68131088Y-87844219D02*
X68226326Y-87891838D01*
X68226326Y-87891838D02*
X68273945Y-87939457D01*
X68273945Y-87939457D02*
X68321564Y-88034695D01*
X68321564Y-88034695D02*
X68321564Y-88177552D01*
X68321564Y-88177552D02*
X68273945Y-88272790D01*
X68273945Y-88272790D02*
X68226326Y-88320409D01*
X68226326Y-88320409D02*
X68131088Y-88368028D01*
X68131088Y-88368028D02*
X67750136Y-88368028D01*
X68654898Y-87844219D02*
X69321564Y-88844219D01*
X69321564Y-87844219D02*
X68654898Y-88844219D01*
D11*
G36*
X145851431Y-73717819D02*
G01*
X144532520Y-73717819D01*
X144466574Y-74464469D01*
X144501694Y-74440512D01*
X144537076Y-74418101D01*
X144572722Y-74397236D01*
X144608632Y-74377916D01*
X144644805Y-74360141D01*
X144681241Y-74343912D01*
X144717940Y-74329229D01*
X144754903Y-74316092D01*
X144792129Y-74304500D01*
X144829618Y-74294453D01*
X144867371Y-74285952D01*
X144905387Y-74278997D01*
X144943666Y-74273588D01*
X144982209Y-74269724D01*
X145021015Y-74267405D01*
X145060084Y-74266632D01*
X145104970Y-74267597D01*
X145148950Y-74270491D01*
X145192027Y-74275314D01*
X145234199Y-74282066D01*
X145275466Y-74290747D01*
X145315829Y-74301357D01*
X145355288Y-74313896D01*
X145393842Y-74328365D01*
X145431492Y-74344762D01*
X145468237Y-74363089D01*
X145504078Y-74383345D01*
X145539014Y-74405530D01*
X145573046Y-74429645D01*
X145606173Y-74455688D01*
X145638396Y-74483660D01*
X145669714Y-74513562D01*
X145699705Y-74545227D01*
X145727760Y-74578305D01*
X145753881Y-74612798D01*
X145778067Y-74648705D01*
X145800318Y-74686025D01*
X145820634Y-74724760D01*
X145839015Y-74764908D01*
X145855461Y-74806470D01*
X145869973Y-74849446D01*
X145882549Y-74893837D01*
X145893191Y-74939641D01*
X145901898Y-74986859D01*
X145908670Y-75035491D01*
X145913507Y-75085537D01*
X145916409Y-75136997D01*
X145917377Y-75189870D01*
X145916475Y-75246671D01*
X145913770Y-75301669D01*
X145909262Y-75354863D01*
X145902951Y-75406254D01*
X145894837Y-75455842D01*
X145884919Y-75503627D01*
X145873198Y-75549609D01*
X145859674Y-75593787D01*
X145844347Y-75636162D01*
X145827217Y-75676734D01*
X145808283Y-75715503D01*
X145787546Y-75752469D01*
X145765006Y-75787631D01*
X145740663Y-75820990D01*
X145714517Y-75852546D01*
X145686567Y-75882299D01*
X145652950Y-75914241D01*
X145618046Y-75944123D01*
X145581853Y-75971944D01*
X145544372Y-75997704D01*
X145505603Y-76021403D01*
X145465546Y-76043041D01*
X145424202Y-76062619D01*
X145381569Y-76080136D01*
X145337648Y-76095592D01*
X145292439Y-76108987D01*
X145245943Y-76120321D01*
X145198158Y-76129595D01*
X145149085Y-76136808D01*
X145098724Y-76141960D01*
X145047075Y-76145051D01*
X144994139Y-76146081D01*
X144937272Y-76145114D01*
X144882077Y-76142211D01*
X144828553Y-76137374D01*
X144776701Y-76130602D01*
X144726521Y-76121895D01*
X144678012Y-76111254D01*
X144631175Y-76098677D01*
X144586009Y-76084166D01*
X144542515Y-76067719D01*
X144500692Y-76049338D01*
X144460541Y-76029022D01*
X144422061Y-76006771D01*
X144385253Y-75982585D01*
X144350116Y-75956465D01*
X144316651Y-75928409D01*
X144284857Y-75898419D01*
X144262813Y-75875535D01*
X144241924Y-75852131D01*
X144222192Y-75828206D01*
X144203616Y-75803760D01*
X144186197Y-75778792D01*
X144169934Y-75753304D01*
X144154827Y-75727295D01*
X144140876Y-75700765D01*
X144128082Y-75673715D01*
X144116444Y-75646143D01*
X144105963Y-75618050D01*
X144096638Y-75589436D01*
X144088469Y-75560302D01*
X144081457Y-75530646D01*
X144075600Y-75500470D01*
X144070901Y-75469773D01*
X144532520Y-75469773D01*
X144541530Y-75505917D01*
X144552074Y-75539977D01*
X144564153Y-75571954D01*
X144577766Y-75601847D01*
X144592913Y-75629656D01*
X144609594Y-75655382D01*
X144627809Y-75679024D01*
X144647558Y-75700582D01*
X144674612Y-75723766D01*
X144706314Y-75743859D01*
X144733141Y-75756900D01*
X144762582Y-75768202D01*
X144794638Y-75777766D01*
X144829309Y-75785590D01*
X144866595Y-75791676D01*
X144906495Y-75796023D01*
X144949009Y-75798631D01*
X144978805Y-75799404D01*
X144994139Y-75799501D01*
X145026659Y-75798922D01*
X145058275Y-75797188D01*
X145088987Y-75794297D01*
X145118794Y-75790250D01*
X145147697Y-75785046D01*
X145189355Y-75775073D01*
X145228978Y-75762498D01*
X145266566Y-75747321D01*
X145302119Y-75729542D01*
X145335637Y-75709162D01*
X145367120Y-75686179D01*
X145396568Y-75660596D01*
X145405932Y-75651489D01*
X145429503Y-75625021D01*
X145450754Y-75595075D01*
X145469688Y-75561651D01*
X145486303Y-75524750D01*
X145500600Y-75484371D01*
X145508843Y-75455520D01*
X145516056Y-75425123D01*
X145522238Y-75393181D01*
X145527390Y-75359693D01*
X145531512Y-75324660D01*
X145534603Y-75288080D01*
X145536664Y-75249956D01*
X145537694Y-75210285D01*
X145537823Y-75189870D01*
X145537245Y-75153354D01*
X145535511Y-75117994D01*
X145532620Y-75083791D01*
X145528573Y-75050744D01*
X145523369Y-75018853D01*
X145517009Y-74988118D01*
X145509493Y-74958540D01*
X145500820Y-74930118D01*
X145485644Y-74889653D01*
X145467865Y-74851791D01*
X145447484Y-74816529D01*
X145424502Y-74783870D01*
X145398918Y-74753812D01*
X145389812Y-74744371D01*
X145358172Y-74714908D01*
X145325077Y-74688343D01*
X145290527Y-74664676D01*
X145254521Y-74643907D01*
X145217059Y-74626037D01*
X145178142Y-74611064D01*
X145137770Y-74598989D01*
X145095942Y-74589812D01*
X145052659Y-74583533D01*
X145022995Y-74580957D01*
X144992684Y-74579669D01*
X144977286Y-74579508D01*
X144946483Y-74580475D01*
X144915805Y-74583377D01*
X144885254Y-74588214D01*
X144854829Y-74594986D01*
X144824529Y-74603693D01*
X144794356Y-74614335D01*
X144764308Y-74626912D01*
X144734386Y-74641423D01*
X144704591Y-74657869D01*
X144674921Y-74676251D01*
X144645377Y-74696567D01*
X144615959Y-74718818D01*
X144586667Y-74743003D01*
X144557501Y-74769124D01*
X144528461Y-74797179D01*
X144499547Y-74827170D01*
X144087021Y-74827170D01*
X144218912Y-73343394D01*
X145851431Y-73343394D01*
X145851431Y-73717819D01*
G37*
G36*
X145079398Y-72700638D02*
G01*
X145131202Y-72702377D01*
X145182524Y-72705275D01*
X145233363Y-72709332D01*
X145283720Y-72714549D01*
X145333595Y-72720924D01*
X145382988Y-72728459D01*
X145431898Y-72737153D01*
X145480326Y-72747006D01*
X145528272Y-72758019D01*
X145575736Y-72770190D01*
X145622717Y-72783521D01*
X145669216Y-72798011D01*
X145715232Y-72813660D01*
X145760767Y-72830469D01*
X145805819Y-72848436D01*
X145850389Y-72867563D01*
X145894476Y-72887849D01*
X145938081Y-72909294D01*
X145981204Y-72931899D01*
X146023845Y-72955662D01*
X146066003Y-72980585D01*
X146107679Y-73006667D01*
X146148873Y-73033908D01*
X146189585Y-73062309D01*
X146229814Y-73091868D01*
X146269561Y-73122587D01*
X146308825Y-73154465D01*
X146347608Y-73187502D01*
X146385908Y-73221699D01*
X146423726Y-73257054D01*
X146461061Y-73293569D01*
X146497576Y-73330905D01*
X146532932Y-73368725D01*
X146567128Y-73407029D01*
X146600165Y-73445816D01*
X146632043Y-73485087D01*
X146662762Y-73524842D01*
X146692322Y-73565081D01*
X146720722Y-73605803D01*
X146747963Y-73647009D01*
X146774045Y-73688699D01*
X146798968Y-73730872D01*
X146822731Y-73773529D01*
X146845336Y-73816670D01*
X146866781Y-73860294D01*
X146887067Y-73904403D01*
X146906194Y-73948995D01*
X146924161Y-73994070D01*
X146940970Y-74039630D01*
X146956619Y-74085673D01*
X146971109Y-74132200D01*
X146984440Y-74179210D01*
X146996611Y-74226704D01*
X147007624Y-74274682D01*
X147017477Y-74323144D01*
X147026171Y-74372090D01*
X147033706Y-74421519D01*
X147040081Y-74471431D01*
X147045298Y-74521828D01*
X147049355Y-74572708D01*
X147052253Y-74624072D01*
X147053992Y-74675920D01*
X147054571Y-74728251D01*
X147053992Y-74780538D01*
X147052253Y-74832342D01*
X147049355Y-74883664D01*
X147045298Y-74934503D01*
X147040081Y-74984860D01*
X147033706Y-75034735D01*
X147026171Y-75084128D01*
X147017477Y-75133038D01*
X147007624Y-75181466D01*
X146996611Y-75229412D01*
X146984440Y-75276875D01*
X146971109Y-75323857D01*
X146956619Y-75370356D01*
X146940970Y-75416372D01*
X146924161Y-75461907D01*
X146906194Y-75506959D01*
X146887067Y-75551528D01*
X146866781Y-75595616D01*
X146845336Y-75639221D01*
X146822731Y-75682344D01*
X146798968Y-75724985D01*
X146774045Y-75767143D01*
X146747963Y-75808819D01*
X146720722Y-75850013D01*
X146692322Y-75890725D01*
X146662762Y-75930954D01*
X146632043Y-75970701D01*
X146600165Y-76009965D01*
X146567128Y-76048748D01*
X146532932Y-76087048D01*
X146497576Y-76124866D01*
X146461061Y-76162201D01*
X146423726Y-76198761D01*
X146385908Y-76234160D01*
X146347608Y-76268399D01*
X146308825Y-76301477D01*
X146269561Y-76333394D01*
X146229814Y-76364151D01*
X146189585Y-76393747D01*
X146148873Y-76422182D01*
X146107679Y-76449457D01*
X146066003Y-76475571D01*
X146023845Y-76500525D01*
X145981204Y-76524318D01*
X145938081Y-76546950D01*
X145894476Y-76568422D01*
X145850389Y-76588733D01*
X145805819Y-76607883D01*
X145760767Y-76625873D01*
X145715232Y-76642702D01*
X145669216Y-76658371D01*
X145622717Y-76672879D01*
X145575736Y-76686226D01*
X145528272Y-76698412D01*
X145480326Y-76709438D01*
X145431898Y-76719304D01*
X145382988Y-76728009D01*
X145333595Y-76735553D01*
X145283720Y-76741936D01*
X145233363Y-76747159D01*
X145182524Y-76751221D01*
X145131202Y-76754123D01*
X145079398Y-76755864D01*
X145027111Y-76756444D01*
X144974780Y-76755864D01*
X144922932Y-76754123D01*
X144871568Y-76751221D01*
X144820688Y-76747159D01*
X144770292Y-76741936D01*
X144720379Y-76735553D01*
X144670950Y-76728009D01*
X144622004Y-76719304D01*
X144573542Y-76709438D01*
X144525564Y-76698412D01*
X144478070Y-76686226D01*
X144431060Y-76672879D01*
X144384533Y-76658371D01*
X144338490Y-76642702D01*
X144292930Y-76625873D01*
X144247855Y-76607883D01*
X144203263Y-76588733D01*
X144159154Y-76568422D01*
X144115530Y-76546950D01*
X144072389Y-76524318D01*
X144029732Y-76500525D01*
X143987559Y-76475571D01*
X143945869Y-76449457D01*
X143904663Y-76422182D01*
X143863941Y-76393747D01*
X143823702Y-76364151D01*
X143783947Y-76333394D01*
X143744676Y-76301477D01*
X143705889Y-76268399D01*
X143667585Y-76234160D01*
X143629765Y-76198761D01*
X143592429Y-76162201D01*
X143555914Y-76124866D01*
X143520559Y-76087048D01*
X143486362Y-76048748D01*
X143453325Y-76009965D01*
X143421447Y-75970701D01*
X143390728Y-75930954D01*
X143361169Y-75890725D01*
X143332768Y-75850013D01*
X143305527Y-75808819D01*
X143279445Y-75767143D01*
X143254522Y-75724985D01*
X143230759Y-75682344D01*
X143208154Y-75639221D01*
X143186709Y-75595616D01*
X143166423Y-75551528D01*
X143147296Y-75506959D01*
X143129329Y-75461907D01*
X143112520Y-75416372D01*
X143096871Y-75370356D01*
X143082381Y-75323857D01*
X143069050Y-75276875D01*
X143056879Y-75229412D01*
X143045866Y-75181466D01*
X143036013Y-75133038D01*
X143027319Y-75084128D01*
X143019784Y-75034735D01*
X143013409Y-74984860D01*
X143008192Y-74934503D01*
X143004135Y-74883664D01*
X143001237Y-74832342D01*
X142999498Y-74780538D01*
X142998919Y-74728251D01*
X143163783Y-74728251D01*
X143164314Y-74776433D01*
X143165909Y-74824164D01*
X143168568Y-74871447D01*
X143172289Y-74918280D01*
X143177074Y-74964664D01*
X143182922Y-75010598D01*
X143189834Y-75056083D01*
X143197809Y-75101119D01*
X143206847Y-75145705D01*
X143216949Y-75189842D01*
X143228113Y-75233529D01*
X143240341Y-75276767D01*
X143253633Y-75319556D01*
X143267988Y-75361896D01*
X143283406Y-75403786D01*
X143299887Y-75445226D01*
X143317432Y-75486218D01*
X143336040Y-75526760D01*
X143355711Y-75566852D01*
X143376446Y-75606495D01*
X143398244Y-75645689D01*
X143421105Y-75684434D01*
X143445030Y-75722729D01*
X143470018Y-75760574D01*
X143496069Y-75797971D01*
X143523183Y-75834918D01*
X143551361Y-75871415D01*
X143580602Y-75907464D01*
X143610907Y-75943062D01*
X143642275Y-75978212D01*
X143674706Y-76012912D01*
X143708200Y-76047163D01*
X143742406Y-76080657D01*
X143777065Y-76113088D01*
X143812176Y-76144456D01*
X143847739Y-76174761D01*
X143883754Y-76204002D01*
X143920222Y-76232180D01*
X143957142Y-76259294D01*
X143994514Y-76285345D01*
X144032338Y-76310333D01*
X144070614Y-76334258D01*
X144109343Y-76357119D01*
X144148524Y-76378917D01*
X144188157Y-76399652D01*
X144228243Y-76419323D01*
X144268780Y-76437931D01*
X144309770Y-76455476D01*
X144351212Y-76471957D01*
X144393107Y-76487375D01*
X144435453Y-76501730D01*
X144478252Y-76515021D01*
X144521503Y-76527250D01*
X144565206Y-76538414D01*
X144609362Y-76548516D01*
X144653969Y-76557554D01*
X144699029Y-76565529D01*
X144744542Y-76572440D01*
X144790506Y-76578289D01*
X144836923Y-76583074D01*
X144883791Y-76586795D01*
X144931113Y-76589453D01*
X144978886Y-76591048D01*
X145027111Y-76591580D01*
X145075293Y-76591048D01*
X145123024Y-76589453D01*
X145170307Y-76586795D01*
X145217140Y-76583074D01*
X145263524Y-76578289D01*
X145309458Y-76572440D01*
X145354943Y-76565529D01*
X145399979Y-76557554D01*
X145444565Y-76548516D01*
X145488702Y-76538414D01*
X145532389Y-76527250D01*
X145575627Y-76515021D01*
X145618416Y-76501730D01*
X145660756Y-76487375D01*
X145702646Y-76471957D01*
X145744086Y-76455476D01*
X145785078Y-76437931D01*
X145825620Y-76419323D01*
X145865712Y-76399652D01*
X145905355Y-76378917D01*
X145944549Y-76357119D01*
X145983294Y-76334258D01*
X146021589Y-76310333D01*
X146059434Y-76285345D01*
X146096831Y-76259294D01*
X146133778Y-76232180D01*
X146170275Y-76204002D01*
X146206324Y-76174761D01*
X146241922Y-76144456D01*
X146277072Y-76113088D01*
X146311772Y-76080657D01*
X146346023Y-76047163D01*
X146379472Y-76012912D01*
X146411860Y-75978212D01*
X146443185Y-75943062D01*
X146473449Y-75907464D01*
X146502651Y-75871415D01*
X146530791Y-75834918D01*
X146557869Y-75797971D01*
X146583885Y-75760574D01*
X146608839Y-75722729D01*
X146632731Y-75684434D01*
X146655562Y-75645689D01*
X146677331Y-75606495D01*
X146698037Y-75566852D01*
X146717682Y-75526760D01*
X146736265Y-75486218D01*
X146753786Y-75445226D01*
X146770245Y-75403786D01*
X146785643Y-75361896D01*
X146799978Y-75319556D01*
X146813252Y-75276767D01*
X146825463Y-75233529D01*
X146836613Y-75189842D01*
X146846701Y-75145705D01*
X146855727Y-75101119D01*
X146863691Y-75056083D01*
X146870593Y-75010598D01*
X146876434Y-74964664D01*
X146881212Y-74918280D01*
X146884929Y-74871447D01*
X146887584Y-74824164D01*
X146889176Y-74776433D01*
X146889707Y-74728251D01*
X146889176Y-74680026D01*
X146887584Y-74632253D01*
X146884929Y-74584931D01*
X146881212Y-74538063D01*
X146876434Y-74491646D01*
X146870593Y-74445682D01*
X146863691Y-74400169D01*
X146855727Y-74355109D01*
X146846701Y-74310502D01*
X146836613Y-74266346D01*
X146825463Y-74222643D01*
X146813252Y-74179392D01*
X146799978Y-74136593D01*
X146785643Y-74094247D01*
X146770245Y-74052352D01*
X146753786Y-74010910D01*
X146736265Y-73969920D01*
X146717682Y-73929383D01*
X146698037Y-73889297D01*
X146677331Y-73849664D01*
X146655562Y-73810483D01*
X146632731Y-73771754D01*
X146608839Y-73733478D01*
X146583885Y-73695654D01*
X146557869Y-73658282D01*
X146530791Y-73621362D01*
X146502651Y-73584894D01*
X146473449Y-73548879D01*
X146443185Y-73513316D01*
X146411860Y-73478205D01*
X146379472Y-73443546D01*
X146346023Y-73409340D01*
X146311772Y-73375846D01*
X146277072Y-73343415D01*
X146241922Y-73312047D01*
X146206324Y-73281742D01*
X146170275Y-73252501D01*
X146133778Y-73224323D01*
X146096831Y-73197209D01*
X146059434Y-73171157D01*
X146021589Y-73146170D01*
X145983294Y-73122245D01*
X145944549Y-73099384D01*
X145905355Y-73077586D01*
X145865712Y-73056851D01*
X145825620Y-73037180D01*
X145785078Y-73018572D01*
X145744086Y-73001027D01*
X145702646Y-72984546D01*
X145660756Y-72969128D01*
X145618416Y-72954773D01*
X145575627Y-72941481D01*
X145532389Y-72929253D01*
X145488702Y-72918088D01*
X145444565Y-72907987D01*
X145399979Y-72898949D01*
X145354943Y-72890974D01*
X145309458Y-72884062D01*
X145263524Y-72878214D01*
X145217140Y-72873429D01*
X145170307Y-72869708D01*
X145123024Y-72867049D01*
X145075293Y-72865454D01*
X145027111Y-72864923D01*
X144978886Y-72865454D01*
X144931113Y-72867049D01*
X144883791Y-72869708D01*
X144836923Y-72873429D01*
X144790506Y-72878214D01*
X144744542Y-72884062D01*
X144699029Y-72890974D01*
X144653969Y-72898949D01*
X144609362Y-72907987D01*
X144565206Y-72918088D01*
X144521503Y-72929253D01*
X144478252Y-72941481D01*
X144435453Y-72954773D01*
X144393107Y-72969128D01*
X144351212Y-72984546D01*
X144309770Y-73001027D01*
X144268780Y-73018572D01*
X144228243Y-73037180D01*
X144188157Y-73056851D01*
X144148524Y-73077586D01*
X144109343Y-73099384D01*
X144070614Y-73122245D01*
X144032338Y-73146170D01*
X143994514Y-73171157D01*
X143957142Y-73197209D01*
X143920222Y-73224323D01*
X143883754Y-73252501D01*
X143847739Y-73281742D01*
X143812176Y-73312047D01*
X143777065Y-73343415D01*
X143742406Y-73375846D01*
X143708200Y-73409340D01*
X143674706Y-73443546D01*
X143642275Y-73478205D01*
X143610907Y-73513316D01*
X143580602Y-73548879D01*
X143551361Y-73584894D01*
X143523183Y-73621362D01*
X143496069Y-73658282D01*
X143470018Y-73695654D01*
X143445030Y-73733478D01*
X143421105Y-73771754D01*
X143398244Y-73810483D01*
X143376446Y-73849664D01*
X143355711Y-73889297D01*
X143336040Y-73929383D01*
X143317432Y-73969920D01*
X143299887Y-74010910D01*
X143283406Y-74052352D01*
X143267988Y-74094247D01*
X143253633Y-74136593D01*
X143240341Y-74179392D01*
X143228113Y-74222643D01*
X143216949Y-74266346D01*
X143206847Y-74310502D01*
X143197809Y-74355109D01*
X143189834Y-74400169D01*
X143182922Y-74445682D01*
X143177074Y-74491646D01*
X143172289Y-74538063D01*
X143168568Y-74584931D01*
X143165909Y-74632253D01*
X143164314Y-74680026D01*
X143163783Y-74728251D01*
X142998919Y-74728251D01*
X142999498Y-74675920D01*
X143001237Y-74624072D01*
X143004135Y-74572708D01*
X143008192Y-74521828D01*
X143013409Y-74471431D01*
X143019784Y-74421519D01*
X143027319Y-74372090D01*
X143036013Y-74323144D01*
X143045866Y-74274682D01*
X143056879Y-74226704D01*
X143069050Y-74179210D01*
X143082381Y-74132200D01*
X143096871Y-74085673D01*
X143112520Y-74039630D01*
X143129329Y-73994070D01*
X143147296Y-73948995D01*
X143166423Y-73904403D01*
X143186709Y-73860294D01*
X143208154Y-73816670D01*
X143230759Y-73773529D01*
X143254522Y-73730872D01*
X143279445Y-73688699D01*
X143305527Y-73647009D01*
X143332768Y-73605803D01*
X143361169Y-73565081D01*
X143390728Y-73524842D01*
X143421447Y-73485087D01*
X143453325Y-73445816D01*
X143486362Y-73407029D01*
X143520559Y-73368725D01*
X143555914Y-73330905D01*
X143592429Y-73293569D01*
X143629765Y-73257054D01*
X143667585Y-73221699D01*
X143705889Y-73187502D01*
X143744676Y-73154465D01*
X143783947Y-73122587D01*
X143823702Y-73091868D01*
X143863941Y-73062309D01*
X143904663Y-73033908D01*
X143945869Y-73006667D01*
X143987559Y-72980585D01*
X144029732Y-72955662D01*
X144072389Y-72931899D01*
X144115530Y-72909294D01*
X144159154Y-72887849D01*
X144203263Y-72867563D01*
X144247855Y-72848436D01*
X144292930Y-72830469D01*
X144338490Y-72813660D01*
X144384533Y-72798011D01*
X144431060Y-72783521D01*
X144478070Y-72770190D01*
X144525564Y-72758019D01*
X144573542Y-72747006D01*
X144622004Y-72737153D01*
X144670950Y-72728459D01*
X144720379Y-72720924D01*
X144770292Y-72714549D01*
X144820688Y-72709332D01*
X144871568Y-72705275D01*
X144922932Y-72702377D01*
X144974780Y-72700638D01*
X145027111Y-72700059D01*
X145079398Y-72700638D01*
G37*
D10*
X67464421Y-83510219D02*
X66988231Y-83510219D01*
X66988231Y-83510219D02*
X66988231Y-82510219D01*
X67797755Y-82986409D02*
X68131088Y-82986409D01*
X68273945Y-83510219D02*
X67797755Y-83510219D01*
X67797755Y-83510219D02*
X67797755Y-82510219D01*
X67797755Y-82510219D02*
X68273945Y-82510219D01*
X68702517Y-83510219D02*
X68702517Y-82510219D01*
X68702517Y-82510219D02*
X68940612Y-82510219D01*
X68940612Y-82510219D02*
X69083469Y-82557838D01*
X69083469Y-82557838D02*
X69178707Y-82653076D01*
X69178707Y-82653076D02*
X69226326Y-82748314D01*
X69226326Y-82748314D02*
X69273945Y-82938790D01*
X69273945Y-82938790D02*
X69273945Y-83081647D01*
X69273945Y-83081647D02*
X69226326Y-83272123D01*
X69226326Y-83272123D02*
X69178707Y-83367361D01*
X69178707Y-83367361D02*
X69083469Y-83462600D01*
X69083469Y-83462600D02*
X68940612Y-83510219D01*
X68940612Y-83510219D02*
X68702517Y-83510219D01*
D11*
G36*
X57274041Y-76113108D02*
G01*
X56895220Y-76113108D01*
X56895220Y-73903932D01*
X56251885Y-73903932D01*
X56251885Y-73640150D01*
X56289597Y-73641807D01*
X56326440Y-73642660D01*
X56362412Y-73642706D01*
X56397514Y-73641947D01*
X56431747Y-73640382D01*
X56465109Y-73638011D01*
X56497601Y-73634835D01*
X56529222Y-73630853D01*
X56559974Y-73626065D01*
X56589856Y-73620472D01*
X56618867Y-73614073D01*
X56674280Y-73598857D01*
X56726212Y-73580419D01*
X56774664Y-73558757D01*
X56819635Y-73533873D01*
X56861126Y-73505766D01*
X56899136Y-73474436D01*
X56933666Y-73439884D01*
X56964715Y-73402108D01*
X56992284Y-73361109D01*
X57016372Y-73316888D01*
X57027111Y-73293569D01*
X57274041Y-73293569D01*
X57274041Y-76113108D01*
G37*
G36*
X57079398Y-72700638D02*
G01*
X57131202Y-72702377D01*
X57182524Y-72705275D01*
X57233363Y-72709332D01*
X57283720Y-72714549D01*
X57333595Y-72720924D01*
X57382988Y-72728459D01*
X57431898Y-72737153D01*
X57480326Y-72747006D01*
X57528272Y-72758019D01*
X57575736Y-72770190D01*
X57622717Y-72783521D01*
X57669216Y-72798011D01*
X57715232Y-72813660D01*
X57760767Y-72830469D01*
X57805819Y-72848436D01*
X57850389Y-72867563D01*
X57894476Y-72887849D01*
X57938081Y-72909294D01*
X57981204Y-72931899D01*
X58023845Y-72955662D01*
X58066003Y-72980585D01*
X58107679Y-73006667D01*
X58148873Y-73033908D01*
X58189585Y-73062309D01*
X58229814Y-73091868D01*
X58269561Y-73122587D01*
X58308825Y-73154465D01*
X58347608Y-73187502D01*
X58385908Y-73221699D01*
X58423726Y-73257054D01*
X58461061Y-73293569D01*
X58497576Y-73330905D01*
X58532932Y-73368725D01*
X58567128Y-73407029D01*
X58600165Y-73445816D01*
X58632043Y-73485087D01*
X58662762Y-73524842D01*
X58692322Y-73565081D01*
X58720722Y-73605803D01*
X58747963Y-73647009D01*
X58774045Y-73688699D01*
X58798968Y-73730872D01*
X58822731Y-73773529D01*
X58845336Y-73816670D01*
X58866781Y-73860294D01*
X58887067Y-73904403D01*
X58906194Y-73948995D01*
X58924161Y-73994070D01*
X58940970Y-74039630D01*
X58956619Y-74085673D01*
X58971109Y-74132200D01*
X58984440Y-74179210D01*
X58996611Y-74226704D01*
X59007624Y-74274682D01*
X59017477Y-74323144D01*
X59026171Y-74372090D01*
X59033706Y-74421519D01*
X59040081Y-74471431D01*
X59045298Y-74521828D01*
X59049355Y-74572708D01*
X59052253Y-74624072D01*
X59053992Y-74675920D01*
X59054571Y-74728251D01*
X59053992Y-74780538D01*
X59052253Y-74832342D01*
X59049355Y-74883664D01*
X59045298Y-74934503D01*
X59040081Y-74984860D01*
X59033706Y-75034735D01*
X59026171Y-75084128D01*
X59017477Y-75133038D01*
X59007624Y-75181466D01*
X58996611Y-75229412D01*
X58984440Y-75276875D01*
X58971109Y-75323857D01*
X58956619Y-75370356D01*
X58940970Y-75416372D01*
X58924161Y-75461907D01*
X58906194Y-75506959D01*
X58887067Y-75551528D01*
X58866781Y-75595616D01*
X58845336Y-75639221D01*
X58822731Y-75682344D01*
X58798968Y-75724985D01*
X58774045Y-75767143D01*
X58747963Y-75808819D01*
X58720722Y-75850013D01*
X58692322Y-75890725D01*
X58662762Y-75930954D01*
X58632043Y-75970701D01*
X58600165Y-76009965D01*
X58567128Y-76048748D01*
X58532932Y-76087048D01*
X58497576Y-76124866D01*
X58461061Y-76162201D01*
X58423726Y-76198761D01*
X58385908Y-76234160D01*
X58347608Y-76268399D01*
X58308825Y-76301477D01*
X58269561Y-76333394D01*
X58229814Y-76364151D01*
X58189585Y-76393747D01*
X58148873Y-76422182D01*
X58107679Y-76449457D01*
X58066003Y-76475571D01*
X58023845Y-76500525D01*
X57981204Y-76524318D01*
X57938081Y-76546950D01*
X57894476Y-76568422D01*
X57850389Y-76588733D01*
X57805819Y-76607883D01*
X57760767Y-76625873D01*
X57715232Y-76642702D01*
X57669216Y-76658371D01*
X57622717Y-76672879D01*
X57575736Y-76686226D01*
X57528272Y-76698412D01*
X57480326Y-76709438D01*
X57431898Y-76719304D01*
X57382988Y-76728009D01*
X57333595Y-76735553D01*
X57283720Y-76741936D01*
X57233363Y-76747159D01*
X57182524Y-76751221D01*
X57131202Y-76754123D01*
X57079398Y-76755864D01*
X57027111Y-76756444D01*
X56974780Y-76755864D01*
X56922932Y-76754123D01*
X56871568Y-76751221D01*
X56820688Y-76747159D01*
X56770292Y-76741936D01*
X56720379Y-76735553D01*
X56670950Y-76728009D01*
X56622004Y-76719304D01*
X56573542Y-76709438D01*
X56525564Y-76698412D01*
X56478070Y-76686226D01*
X56431060Y-76672879D01*
X56384533Y-76658371D01*
X56338490Y-76642702D01*
X56292930Y-76625873D01*
X56247855Y-76607883D01*
X56203263Y-76588733D01*
X56159154Y-76568422D01*
X56115530Y-76546950D01*
X56072389Y-76524318D01*
X56029732Y-76500525D01*
X55987559Y-76475571D01*
X55945869Y-76449457D01*
X55904663Y-76422182D01*
X55863941Y-76393747D01*
X55823702Y-76364151D01*
X55783947Y-76333394D01*
X55744676Y-76301477D01*
X55705889Y-76268399D01*
X55667585Y-76234160D01*
X55629765Y-76198761D01*
X55592429Y-76162201D01*
X55555914Y-76124866D01*
X55520559Y-76087048D01*
X55486362Y-76048748D01*
X55453325Y-76009965D01*
X55421447Y-75970701D01*
X55390728Y-75930954D01*
X55361169Y-75890725D01*
X55332768Y-75850013D01*
X55305527Y-75808819D01*
X55279445Y-75767143D01*
X55254522Y-75724985D01*
X55230759Y-75682344D01*
X55208154Y-75639221D01*
X55186709Y-75595616D01*
X55166423Y-75551528D01*
X55147296Y-75506959D01*
X55129329Y-75461907D01*
X55112520Y-75416372D01*
X55096871Y-75370356D01*
X55082381Y-75323857D01*
X55069050Y-75276875D01*
X55056879Y-75229412D01*
X55045866Y-75181466D01*
X55036013Y-75133038D01*
X55027319Y-75084128D01*
X55019784Y-75034735D01*
X55013409Y-74984860D01*
X55008192Y-74934503D01*
X55004135Y-74883664D01*
X55001237Y-74832342D01*
X54999498Y-74780538D01*
X54998919Y-74728251D01*
X55163783Y-74728251D01*
X55164314Y-74776433D01*
X55165909Y-74824164D01*
X55168568Y-74871447D01*
X55172289Y-74918280D01*
X55177074Y-74964664D01*
X55182922Y-75010598D01*
X55189834Y-75056083D01*
X55197809Y-75101119D01*
X55206847Y-75145705D01*
X55216949Y-75189842D01*
X55228113Y-75233529D01*
X55240341Y-75276767D01*
X55253633Y-75319556D01*
X55267988Y-75361896D01*
X55283406Y-75403786D01*
X55299887Y-75445226D01*
X55317432Y-75486218D01*
X55336040Y-75526760D01*
X55355711Y-75566852D01*
X55376446Y-75606495D01*
X55398244Y-75645689D01*
X55421105Y-75684434D01*
X55445030Y-75722729D01*
X55470018Y-75760574D01*
X55496069Y-75797971D01*
X55523183Y-75834918D01*
X55551361Y-75871415D01*
X55580602Y-75907464D01*
X55610907Y-75943062D01*
X55642275Y-75978212D01*
X55674706Y-76012912D01*
X55708200Y-76047163D01*
X55742406Y-76080657D01*
X55777065Y-76113088D01*
X55812176Y-76144456D01*
X55847739Y-76174761D01*
X55883754Y-76204002D01*
X55920222Y-76232180D01*
X55957142Y-76259294D01*
X55994514Y-76285345D01*
X56032338Y-76310333D01*
X56070614Y-76334258D01*
X56109343Y-76357119D01*
X56148524Y-76378917D01*
X56188157Y-76399652D01*
X56228243Y-76419323D01*
X56268780Y-76437931D01*
X56309770Y-76455476D01*
X56351212Y-76471957D01*
X56393107Y-76487375D01*
X56435453Y-76501730D01*
X56478252Y-76515021D01*
X56521503Y-76527250D01*
X56565206Y-76538414D01*
X56609362Y-76548516D01*
X56653969Y-76557554D01*
X56699029Y-76565529D01*
X56744542Y-76572440D01*
X56790506Y-76578289D01*
X56836923Y-76583074D01*
X56883791Y-76586795D01*
X56931113Y-76589453D01*
X56978886Y-76591048D01*
X57027111Y-76591580D01*
X57075293Y-76591048D01*
X57123024Y-76589453D01*
X57170307Y-76586795D01*
X57217140Y-76583074D01*
X57263524Y-76578289D01*
X57309458Y-76572440D01*
X57354943Y-76565529D01*
X57399979Y-76557554D01*
X57444565Y-76548516D01*
X57488702Y-76538414D01*
X57532389Y-76527250D01*
X57575627Y-76515021D01*
X57618416Y-76501730D01*
X57660756Y-76487375D01*
X57702646Y-76471957D01*
X57744086Y-76455476D01*
X57785078Y-76437931D01*
X57825620Y-76419323D01*
X57865712Y-76399652D01*
X57905355Y-76378917D01*
X57944549Y-76357119D01*
X57983294Y-76334258D01*
X58021589Y-76310333D01*
X58059434Y-76285345D01*
X58096831Y-76259294D01*
X58133778Y-76232180D01*
X58170275Y-76204002D01*
X58206324Y-76174761D01*
X58241922Y-76144456D01*
X58277072Y-76113088D01*
X58311772Y-76080657D01*
X58346023Y-76047163D01*
X58379472Y-76012912D01*
X58411860Y-75978212D01*
X58443185Y-75943062D01*
X58473449Y-75907464D01*
X58502651Y-75871415D01*
X58530791Y-75834918D01*
X58557869Y-75797971D01*
X58583885Y-75760574D01*
X58608839Y-75722729D01*
X58632731Y-75684434D01*
X58655562Y-75645689D01*
X58677331Y-75606495D01*
X58698037Y-75566852D01*
X58717682Y-75526760D01*
X58736265Y-75486218D01*
X58753786Y-75445226D01*
X58770245Y-75403786D01*
X58785643Y-75361896D01*
X58799978Y-75319556D01*
X58813252Y-75276767D01*
X58825463Y-75233529D01*
X58836613Y-75189842D01*
X58846701Y-75145705D01*
X58855727Y-75101119D01*
X58863691Y-75056083D01*
X58870593Y-75010598D01*
X58876434Y-74964664D01*
X58881212Y-74918280D01*
X58884929Y-74871447D01*
X58887584Y-74824164D01*
X58889176Y-74776433D01*
X58889707Y-74728251D01*
X58889176Y-74680026D01*
X58887584Y-74632253D01*
X58884929Y-74584931D01*
X58881212Y-74538063D01*
X58876434Y-74491646D01*
X58870593Y-74445682D01*
X58863691Y-74400169D01*
X58855727Y-74355109D01*
X58846701Y-74310502D01*
X58836613Y-74266346D01*
X58825463Y-74222643D01*
X58813252Y-74179392D01*
X58799978Y-74136593D01*
X58785643Y-74094247D01*
X58770245Y-74052352D01*
X58753786Y-74010910D01*
X58736265Y-73969920D01*
X58717682Y-73929383D01*
X58698037Y-73889297D01*
X58677331Y-73849664D01*
X58655562Y-73810483D01*
X58632731Y-73771754D01*
X58608839Y-73733478D01*
X58583885Y-73695654D01*
X58557869Y-73658282D01*
X58530791Y-73621362D01*
X58502651Y-73584894D01*
X58473449Y-73548879D01*
X58443185Y-73513316D01*
X58411860Y-73478205D01*
X58379472Y-73443546D01*
X58346023Y-73409340D01*
X58311772Y-73375846D01*
X58277072Y-73343415D01*
X58241922Y-73312047D01*
X58206324Y-73281742D01*
X58170275Y-73252501D01*
X58133778Y-73224323D01*
X58096831Y-73197209D01*
X58059434Y-73171157D01*
X58021589Y-73146170D01*
X57983294Y-73122245D01*
X57944549Y-73099384D01*
X57905355Y-73077586D01*
X57865712Y-73056851D01*
X57825620Y-73037180D01*
X57785078Y-73018572D01*
X57744086Y-73001027D01*
X57702646Y-72984546D01*
X57660756Y-72969128D01*
X57618416Y-72954773D01*
X57575627Y-72941481D01*
X57532389Y-72929253D01*
X57488702Y-72918088D01*
X57444565Y-72907987D01*
X57399979Y-72898949D01*
X57354943Y-72890974D01*
X57309458Y-72884062D01*
X57263524Y-72878214D01*
X57217140Y-72873429D01*
X57170307Y-72869708D01*
X57123024Y-72867049D01*
X57075293Y-72865454D01*
X57027111Y-72864923D01*
X56978886Y-72865454D01*
X56931113Y-72867049D01*
X56883791Y-72869708D01*
X56836923Y-72873429D01*
X56790506Y-72878214D01*
X56744542Y-72884062D01*
X56699029Y-72890974D01*
X56653969Y-72898949D01*
X56609362Y-72907987D01*
X56565206Y-72918088D01*
X56521503Y-72929253D01*
X56478252Y-72941481D01*
X56435453Y-72954773D01*
X56393107Y-72969128D01*
X56351212Y-72984546D01*
X56309770Y-73001027D01*
X56268780Y-73018572D01*
X56228243Y-73037180D01*
X56188157Y-73056851D01*
X56148524Y-73077586D01*
X56109343Y-73099384D01*
X56070614Y-73122245D01*
X56032338Y-73146170D01*
X55994514Y-73171157D01*
X55957142Y-73197209D01*
X55920222Y-73224323D01*
X55883754Y-73252501D01*
X55847739Y-73281742D01*
X55812176Y-73312047D01*
X55777065Y-73343415D01*
X55742406Y-73375846D01*
X55708200Y-73409340D01*
X55674706Y-73443546D01*
X55642275Y-73478205D01*
X55610907Y-73513316D01*
X55580602Y-73548879D01*
X55551361Y-73584894D01*
X55523183Y-73621362D01*
X55496069Y-73658282D01*
X55470018Y-73695654D01*
X55445030Y-73733478D01*
X55421105Y-73771754D01*
X55398244Y-73810483D01*
X55376446Y-73849664D01*
X55355711Y-73889297D01*
X55336040Y-73929383D01*
X55317432Y-73969920D01*
X55299887Y-74010910D01*
X55283406Y-74052352D01*
X55267988Y-74094247D01*
X55253633Y-74136593D01*
X55240341Y-74179392D01*
X55228113Y-74222643D01*
X55216949Y-74266346D01*
X55206847Y-74310502D01*
X55197809Y-74355109D01*
X55189834Y-74400169D01*
X55182922Y-74445682D01*
X55177074Y-74491646D01*
X55172289Y-74538063D01*
X55168568Y-74584931D01*
X55165909Y-74632253D01*
X55164314Y-74680026D01*
X55163783Y-74728251D01*
X54998919Y-74728251D01*
X54999498Y-74675920D01*
X55001237Y-74624072D01*
X55004135Y-74572708D01*
X55008192Y-74521828D01*
X55013409Y-74471431D01*
X55019784Y-74421519D01*
X55027319Y-74372090D01*
X55036013Y-74323144D01*
X55045866Y-74274682D01*
X55056879Y-74226704D01*
X55069050Y-74179210D01*
X55082381Y-74132200D01*
X55096871Y-74085673D01*
X55112520Y-74039630D01*
X55129329Y-73994070D01*
X55147296Y-73948995D01*
X55166423Y-73904403D01*
X55186709Y-73860294D01*
X55208154Y-73816670D01*
X55230759Y-73773529D01*
X55254522Y-73730872D01*
X55279445Y-73688699D01*
X55305527Y-73647009D01*
X55332768Y-73605803D01*
X55361169Y-73565081D01*
X55390728Y-73524842D01*
X55421447Y-73485087D01*
X55453325Y-73445816D01*
X55486362Y-73407029D01*
X55520559Y-73368725D01*
X55555914Y-73330905D01*
X55592429Y-73293569D01*
X55629765Y-73257054D01*
X55667585Y-73221699D01*
X55705889Y-73187502D01*
X55744676Y-73154465D01*
X55783947Y-73122587D01*
X55823702Y-73091868D01*
X55863941Y-73062309D01*
X55904663Y-73033908D01*
X55945869Y-73006667D01*
X55987559Y-72980585D01*
X56029732Y-72955662D01*
X56072389Y-72931899D01*
X56115530Y-72909294D01*
X56159154Y-72887849D01*
X56203263Y-72867563D01*
X56247855Y-72848436D01*
X56292930Y-72830469D01*
X56338490Y-72813660D01*
X56384533Y-72798011D01*
X56431060Y-72783521D01*
X56478070Y-72770190D01*
X56525564Y-72758019D01*
X56573542Y-72747006D01*
X56622004Y-72737153D01*
X56670950Y-72728459D01*
X56720379Y-72720924D01*
X56770292Y-72714549D01*
X56820688Y-72709332D01*
X56871568Y-72705275D01*
X56922932Y-72702377D01*
X56974780Y-72700638D01*
X57027111Y-72700059D01*
X57079398Y-72700638D01*
G37*
D10*
X88158435Y-74890219D02*
X88825101Y-75890219D01*
X88825101Y-74890219D02*
X88158435Y-75890219D01*
X89158435Y-74985457D02*
X89206054Y-74937838D01*
X89206054Y-74937838D02*
X89301292Y-74890219D01*
X89301292Y-74890219D02*
X89539387Y-74890219D01*
X89539387Y-74890219D02*
X89634625Y-74937838D01*
X89634625Y-74937838D02*
X89682244Y-74985457D01*
X89682244Y-74985457D02*
X89729863Y-75080695D01*
X89729863Y-75080695D02*
X89729863Y-75175933D01*
X89729863Y-75175933D02*
X89682244Y-75318790D01*
X89682244Y-75318790D02*
X89110816Y-75890219D01*
X89110816Y-75890219D02*
X89729863Y-75890219D01*
X67178707Y-75191838D02*
X67083469Y-75144219D01*
X67083469Y-75144219D02*
X66940612Y-75144219D01*
X66940612Y-75144219D02*
X66797755Y-75191838D01*
X66797755Y-75191838D02*
X66702517Y-75287076D01*
X66702517Y-75287076D02*
X66654898Y-75382314D01*
X66654898Y-75382314D02*
X66607279Y-75572790D01*
X66607279Y-75572790D02*
X66607279Y-75715647D01*
X66607279Y-75715647D02*
X66654898Y-75906123D01*
X66654898Y-75906123D02*
X66702517Y-76001361D01*
X66702517Y-76001361D02*
X66797755Y-76096600D01*
X66797755Y-76096600D02*
X66940612Y-76144219D01*
X66940612Y-76144219D02*
X67035850Y-76144219D01*
X67035850Y-76144219D02*
X67178707Y-76096600D01*
X67178707Y-76096600D02*
X67226326Y-76048980D01*
X67226326Y-76048980D02*
X67226326Y-75715647D01*
X67226326Y-75715647D02*
X67035850Y-75715647D01*
X67654898Y-76144219D02*
X67654898Y-75144219D01*
X67654898Y-75144219D02*
X68226326Y-76144219D01*
X68226326Y-76144219D02*
X68226326Y-75144219D01*
X68702517Y-76144219D02*
X68702517Y-75144219D01*
X68702517Y-75144219D02*
X68940612Y-75144219D01*
X68940612Y-75144219D02*
X69083469Y-75191838D01*
X69083469Y-75191838D02*
X69178707Y-75287076D01*
X69178707Y-75287076D02*
X69226326Y-75382314D01*
X69226326Y-75382314D02*
X69273945Y-75572790D01*
X69273945Y-75572790D02*
X69273945Y-75715647D01*
X69273945Y-75715647D02*
X69226326Y-75906123D01*
X69226326Y-75906123D02*
X69178707Y-76001361D01*
X69178707Y-76001361D02*
X69083469Y-76096600D01*
X69083469Y-76096600D02*
X68940612Y-76144219D01*
X68940612Y-76144219D02*
X68702517Y-76144219D01*
X99359180Y-71226816D02*
X99359180Y-71798244D01*
X98359180Y-71512530D02*
X99359180Y-71512530D01*
X99359180Y-72036340D02*
X98359180Y-72703006D01*
X99359180Y-72703006D02*
X98359180Y-72036340D01*
X67702517Y-85050219D02*
X68369183Y-86050219D01*
X68369183Y-85050219D02*
X67702517Y-86050219D01*
X69226326Y-85050219D02*
X68750136Y-85050219D01*
X68750136Y-85050219D02*
X68702517Y-85526409D01*
X68702517Y-85526409D02*
X68750136Y-85478790D01*
X68750136Y-85478790D02*
X68845374Y-85431171D01*
X68845374Y-85431171D02*
X69083469Y-85431171D01*
X69083469Y-85431171D02*
X69178707Y-85478790D01*
X69178707Y-85478790D02*
X69226326Y-85526409D01*
X69226326Y-85526409D02*
X69273945Y-85621647D01*
X69273945Y-85621647D02*
X69273945Y-85859742D01*
X69273945Y-85859742D02*
X69226326Y-85954980D01*
X69226326Y-85954980D02*
X69178707Y-86002600D01*
X69178707Y-86002600D02*
X69083469Y-86050219D01*
X69083469Y-86050219D02*
X68845374Y-86050219D01*
X68845374Y-86050219D02*
X68750136Y-86002600D01*
X68750136Y-86002600D02*
X68702517Y-85954980D01*
X88158435Y-72350219D02*
X88825101Y-73350219D01*
X88825101Y-72350219D02*
X88158435Y-73350219D01*
X89729863Y-73350219D02*
X89158435Y-73350219D01*
X89444149Y-73350219D02*
X89444149Y-72350219D01*
X89444149Y-72350219D02*
X89348911Y-72493076D01*
X89348911Y-72493076D02*
X89253673Y-72588314D01*
X89253673Y-72588314D02*
X89158435Y-72635933D01*
D11*
G36*
X123054676Y-75156898D02*
G01*
X123417377Y-75156898D01*
X123417377Y-75531322D01*
X123054676Y-75531322D01*
X123054676Y-76113108D01*
X122675123Y-76113108D01*
X122675123Y-75531322D01*
X121389184Y-75531322D01*
X121389184Y-75156898D01*
X121784857Y-75156898D01*
X122675123Y-75156898D01*
X122675123Y-73821133D01*
X121784857Y-75156898D01*
X121389184Y-75156898D01*
X122626030Y-73293569D01*
X123054676Y-73293569D01*
X123054676Y-75156898D01*
G37*
G36*
X122579398Y-72700638D02*
G01*
X122631202Y-72702377D01*
X122682524Y-72705275D01*
X122733363Y-72709332D01*
X122783720Y-72714549D01*
X122833595Y-72720924D01*
X122882988Y-72728459D01*
X122931898Y-72737153D01*
X122980326Y-72747006D01*
X123028272Y-72758019D01*
X123075736Y-72770190D01*
X123122717Y-72783521D01*
X123169216Y-72798011D01*
X123215232Y-72813660D01*
X123260767Y-72830469D01*
X123305819Y-72848436D01*
X123350389Y-72867563D01*
X123394476Y-72887849D01*
X123438081Y-72909294D01*
X123481204Y-72931899D01*
X123523845Y-72955662D01*
X123566003Y-72980585D01*
X123607679Y-73006667D01*
X123648873Y-73033908D01*
X123689585Y-73062309D01*
X123729814Y-73091868D01*
X123769561Y-73122587D01*
X123808825Y-73154465D01*
X123847608Y-73187502D01*
X123885908Y-73221699D01*
X123923726Y-73257054D01*
X123961061Y-73293569D01*
X123997576Y-73330905D01*
X124032932Y-73368725D01*
X124067128Y-73407029D01*
X124100165Y-73445816D01*
X124132043Y-73485087D01*
X124162762Y-73524842D01*
X124192322Y-73565081D01*
X124220722Y-73605803D01*
X124247963Y-73647009D01*
X124274045Y-73688699D01*
X124298968Y-73730872D01*
X124322731Y-73773529D01*
X124345336Y-73816670D01*
X124366781Y-73860294D01*
X124387067Y-73904403D01*
X124406194Y-73948995D01*
X124424161Y-73994070D01*
X124440970Y-74039630D01*
X124456619Y-74085673D01*
X124471109Y-74132200D01*
X124484440Y-74179210D01*
X124496611Y-74226704D01*
X124507624Y-74274682D01*
X124517477Y-74323144D01*
X124526171Y-74372090D01*
X124533706Y-74421519D01*
X124540081Y-74471431D01*
X124545298Y-74521828D01*
X124549355Y-74572708D01*
X124552253Y-74624072D01*
X124553992Y-74675920D01*
X124554571Y-74728251D01*
X124553992Y-74780538D01*
X124552253Y-74832342D01*
X124549355Y-74883664D01*
X124545298Y-74934503D01*
X124540081Y-74984860D01*
X124533706Y-75034735D01*
X124526171Y-75084128D01*
X124517477Y-75133038D01*
X124507624Y-75181466D01*
X124496611Y-75229412D01*
X124484440Y-75276875D01*
X124471109Y-75323857D01*
X124456619Y-75370356D01*
X124440970Y-75416372D01*
X124424161Y-75461907D01*
X124406194Y-75506959D01*
X124387067Y-75551528D01*
X124366781Y-75595616D01*
X124345336Y-75639221D01*
X124322731Y-75682344D01*
X124298968Y-75724985D01*
X124274045Y-75767143D01*
X124247963Y-75808819D01*
X124220722Y-75850013D01*
X124192322Y-75890725D01*
X124162762Y-75930954D01*
X124132043Y-75970701D01*
X124100165Y-76009965D01*
X124067128Y-76048748D01*
X124032932Y-76087048D01*
X123997576Y-76124866D01*
X123961061Y-76162201D01*
X123923726Y-76198761D01*
X123885908Y-76234160D01*
X123847608Y-76268399D01*
X123808825Y-76301477D01*
X123769561Y-76333394D01*
X123729814Y-76364151D01*
X123689585Y-76393747D01*
X123648873Y-76422182D01*
X123607679Y-76449457D01*
X123566003Y-76475571D01*
X123523845Y-76500525D01*
X123481204Y-76524318D01*
X123438081Y-76546950D01*
X123394476Y-76568422D01*
X123350389Y-76588733D01*
X123305819Y-76607883D01*
X123260767Y-76625873D01*
X123215232Y-76642702D01*
X123169216Y-76658371D01*
X123122717Y-76672879D01*
X123075736Y-76686226D01*
X123028272Y-76698412D01*
X122980326Y-76709438D01*
X122931898Y-76719304D01*
X122882988Y-76728009D01*
X122833595Y-76735553D01*
X122783720Y-76741936D01*
X122733363Y-76747159D01*
X122682524Y-76751221D01*
X122631202Y-76754123D01*
X122579398Y-76755864D01*
X122527111Y-76756444D01*
X122474780Y-76755864D01*
X122422932Y-76754123D01*
X122371568Y-76751221D01*
X122320688Y-76747159D01*
X122270292Y-76741936D01*
X122220379Y-76735553D01*
X122170950Y-76728009D01*
X122122004Y-76719304D01*
X122073542Y-76709438D01*
X122025564Y-76698412D01*
X121978070Y-76686226D01*
X121931060Y-76672879D01*
X121884533Y-76658371D01*
X121838490Y-76642702D01*
X121792930Y-76625873D01*
X121747855Y-76607883D01*
X121703263Y-76588733D01*
X121659154Y-76568422D01*
X121615530Y-76546950D01*
X121572389Y-76524318D01*
X121529732Y-76500525D01*
X121487559Y-76475571D01*
X121445869Y-76449457D01*
X121404663Y-76422182D01*
X121363941Y-76393747D01*
X121323702Y-76364151D01*
X121283947Y-76333394D01*
X121244676Y-76301477D01*
X121205889Y-76268399D01*
X121167585Y-76234160D01*
X121129765Y-76198761D01*
X121092429Y-76162201D01*
X121055914Y-76124866D01*
X121020559Y-76087048D01*
X120986362Y-76048748D01*
X120953325Y-76009965D01*
X120921447Y-75970701D01*
X120890728Y-75930954D01*
X120861169Y-75890725D01*
X120832768Y-75850013D01*
X120805527Y-75808819D01*
X120779445Y-75767143D01*
X120754522Y-75724985D01*
X120730759Y-75682344D01*
X120708154Y-75639221D01*
X120686709Y-75595616D01*
X120666423Y-75551528D01*
X120647296Y-75506959D01*
X120629329Y-75461907D01*
X120612520Y-75416372D01*
X120596871Y-75370356D01*
X120582381Y-75323857D01*
X120569050Y-75276875D01*
X120556879Y-75229412D01*
X120545866Y-75181466D01*
X120536013Y-75133038D01*
X120527319Y-75084128D01*
X120519784Y-75034735D01*
X120513409Y-74984860D01*
X120508192Y-74934503D01*
X120504135Y-74883664D01*
X120501237Y-74832342D01*
X120499498Y-74780538D01*
X120498919Y-74728251D01*
X120663783Y-74728251D01*
X120664314Y-74776433D01*
X120665909Y-74824164D01*
X120668568Y-74871447D01*
X120672289Y-74918280D01*
X120677074Y-74964664D01*
X120682922Y-75010598D01*
X120689834Y-75056083D01*
X120697809Y-75101119D01*
X120706847Y-75145705D01*
X120716949Y-75189842D01*
X120728113Y-75233529D01*
X120740341Y-75276767D01*
X120753633Y-75319556D01*
X120767988Y-75361896D01*
X120783406Y-75403786D01*
X120799887Y-75445226D01*
X120817432Y-75486218D01*
X120836040Y-75526760D01*
X120855711Y-75566852D01*
X120876446Y-75606495D01*
X120898244Y-75645689D01*
X120921105Y-75684434D01*
X120945030Y-75722729D01*
X120970018Y-75760574D01*
X120996069Y-75797971D01*
X121023183Y-75834918D01*
X121051361Y-75871415D01*
X121080602Y-75907464D01*
X121110907Y-75943062D01*
X121142275Y-75978212D01*
X121174706Y-76012912D01*
X121208200Y-76047163D01*
X121242406Y-76080657D01*
X121277065Y-76113088D01*
X121312176Y-76144456D01*
X121347739Y-76174761D01*
X121383754Y-76204002D01*
X121420222Y-76232180D01*
X121457142Y-76259294D01*
X121494514Y-76285345D01*
X121532338Y-76310333D01*
X121570614Y-76334258D01*
X121609343Y-76357119D01*
X121648524Y-76378917D01*
X121688157Y-76399652D01*
X121728243Y-76419323D01*
X121768780Y-76437931D01*
X121809770Y-76455476D01*
X121851212Y-76471957D01*
X121893107Y-76487375D01*
X121935453Y-76501730D01*
X121978252Y-76515021D01*
X122021503Y-76527250D01*
X122065206Y-76538414D01*
X122109362Y-76548516D01*
X122153969Y-76557554D01*
X122199029Y-76565529D01*
X122244542Y-76572440D01*
X122290506Y-76578289D01*
X122336923Y-76583074D01*
X122383791Y-76586795D01*
X122431113Y-76589453D01*
X122478886Y-76591048D01*
X122527111Y-76591580D01*
X122575293Y-76591048D01*
X122623024Y-76589453D01*
X122670307Y-76586795D01*
X122717140Y-76583074D01*
X122763524Y-76578289D01*
X122809458Y-76572440D01*
X122854943Y-76565529D01*
X122899979Y-76557554D01*
X122944565Y-76548516D01*
X122988702Y-76538414D01*
X123032389Y-76527250D01*
X123075627Y-76515021D01*
X123118416Y-76501730D01*
X123160756Y-76487375D01*
X123202646Y-76471957D01*
X123244086Y-76455476D01*
X123285078Y-76437931D01*
X123325620Y-76419323D01*
X123365712Y-76399652D01*
X123405355Y-76378917D01*
X123444549Y-76357119D01*
X123483294Y-76334258D01*
X123521589Y-76310333D01*
X123559434Y-76285345D01*
X123596831Y-76259294D01*
X123633778Y-76232180D01*
X123670275Y-76204002D01*
X123706324Y-76174761D01*
X123741922Y-76144456D01*
X123777072Y-76113088D01*
X123811772Y-76080657D01*
X123846023Y-76047163D01*
X123879472Y-76012912D01*
X123911860Y-75978212D01*
X123943185Y-75943062D01*
X123973449Y-75907464D01*
X124002651Y-75871415D01*
X124030791Y-75834918D01*
X124057869Y-75797971D01*
X124083885Y-75760574D01*
X124108839Y-75722729D01*
X124132731Y-75684434D01*
X124155562Y-75645689D01*
X124177331Y-75606495D01*
X124198037Y-75566852D01*
X124217682Y-75526760D01*
X124236265Y-75486218D01*
X124253786Y-75445226D01*
X124270245Y-75403786D01*
X124285643Y-75361896D01*
X124299978Y-75319556D01*
X124313252Y-75276767D01*
X124325463Y-75233529D01*
X124336613Y-75189842D01*
X124346701Y-75145705D01*
X124355727Y-75101119D01*
X124363691Y-75056083D01*
X124370593Y-75010598D01*
X124376434Y-74964664D01*
X124381212Y-74918280D01*
X124384929Y-74871447D01*
X124387584Y-74824164D01*
X124389176Y-74776433D01*
X124389707Y-74728251D01*
X124389176Y-74680026D01*
X124387584Y-74632253D01*
X124384929Y-74584931D01*
X124381212Y-74538063D01*
X124376434Y-74491646D01*
X124370593Y-74445682D01*
X124363691Y-74400169D01*
X124355727Y-74355109D01*
X124346701Y-74310502D01*
X124336613Y-74266346D01*
X124325463Y-74222643D01*
X124313252Y-74179392D01*
X124299978Y-74136593D01*
X124285643Y-74094247D01*
X124270245Y-74052352D01*
X124253786Y-74010910D01*
X124236265Y-73969920D01*
X124217682Y-73929383D01*
X124198037Y-73889297D01*
X124177331Y-73849664D01*
X124155562Y-73810483D01*
X124132731Y-73771754D01*
X124108839Y-73733478D01*
X124083885Y-73695654D01*
X124057869Y-73658282D01*
X124030791Y-73621362D01*
X124002651Y-73584894D01*
X123973449Y-73548879D01*
X123943185Y-73513316D01*
X123911860Y-73478205D01*
X123879472Y-73443546D01*
X123846023Y-73409340D01*
X123811772Y-73375846D01*
X123777072Y-73343415D01*
X123741922Y-73312047D01*
X123706324Y-73281742D01*
X123670275Y-73252501D01*
X123633778Y-73224323D01*
X123596831Y-73197209D01*
X123559434Y-73171157D01*
X123521589Y-73146170D01*
X123483294Y-73122245D01*
X123444549Y-73099384D01*
X123405355Y-73077586D01*
X123365712Y-73056851D01*
X123325620Y-73037180D01*
X123285078Y-73018572D01*
X123244086Y-73001027D01*
X123202646Y-72984546D01*
X123160756Y-72969128D01*
X123118416Y-72954773D01*
X123075627Y-72941481D01*
X123032389Y-72929253D01*
X122988702Y-72918088D01*
X122944565Y-72907987D01*
X122899979Y-72898949D01*
X122854943Y-72890974D01*
X122809458Y-72884062D01*
X122763524Y-72878214D01*
X122717140Y-72873429D01*
X122670307Y-72869708D01*
X122623024Y-72867049D01*
X122575293Y-72865454D01*
X122527111Y-72864923D01*
X122478886Y-72865454D01*
X122431113Y-72867049D01*
X122383791Y-72869708D01*
X122336923Y-72873429D01*
X122290506Y-72878214D01*
X122244542Y-72884062D01*
X122199029Y-72890974D01*
X122153969Y-72898949D01*
X122109362Y-72907987D01*
X122065206Y-72918088D01*
X122021503Y-72929253D01*
X121978252Y-72941481D01*
X121935453Y-72954773D01*
X121893107Y-72969128D01*
X121851212Y-72984546D01*
X121809770Y-73001027D01*
X121768780Y-73018572D01*
X121728243Y-73037180D01*
X121688157Y-73056851D01*
X121648524Y-73077586D01*
X121609343Y-73099384D01*
X121570614Y-73122245D01*
X121532338Y-73146170D01*
X121494514Y-73171157D01*
X121457142Y-73197209D01*
X121420222Y-73224323D01*
X121383754Y-73252501D01*
X121347739Y-73281742D01*
X121312176Y-73312047D01*
X121277065Y-73343415D01*
X121242406Y-73375846D01*
X121208200Y-73409340D01*
X121174706Y-73443546D01*
X121142275Y-73478205D01*
X121110907Y-73513316D01*
X121080602Y-73548879D01*
X121051361Y-73584894D01*
X121023183Y-73621362D01*
X120996069Y-73658282D01*
X120970018Y-73695654D01*
X120945030Y-73733478D01*
X120921105Y-73771754D01*
X120898244Y-73810483D01*
X120876446Y-73849664D01*
X120855711Y-73889297D01*
X120836040Y-73929383D01*
X120817432Y-73969920D01*
X120799887Y-74010910D01*
X120783406Y-74052352D01*
X120767988Y-74094247D01*
X120753633Y-74136593D01*
X120740341Y-74179392D01*
X120728113Y-74222643D01*
X120716949Y-74266346D01*
X120706847Y-74310502D01*
X120697809Y-74355109D01*
X120689834Y-74400169D01*
X120682922Y-74445682D01*
X120677074Y-74491646D01*
X120672289Y-74538063D01*
X120668568Y-74584931D01*
X120665909Y-74632253D01*
X120664314Y-74680026D01*
X120663783Y-74728251D01*
X120498919Y-74728251D01*
X120499498Y-74675920D01*
X120501237Y-74624072D01*
X120504135Y-74572708D01*
X120508192Y-74521828D01*
X120513409Y-74471431D01*
X120519784Y-74421519D01*
X120527319Y-74372090D01*
X120536013Y-74323144D01*
X120545866Y-74274682D01*
X120556879Y-74226704D01*
X120569050Y-74179210D01*
X120582381Y-74132200D01*
X120596871Y-74085673D01*
X120612520Y-74039630D01*
X120629329Y-73994070D01*
X120647296Y-73948995D01*
X120666423Y-73904403D01*
X120686709Y-73860294D01*
X120708154Y-73816670D01*
X120730759Y-73773529D01*
X120754522Y-73730872D01*
X120779445Y-73688699D01*
X120805527Y-73647009D01*
X120832768Y-73605803D01*
X120861169Y-73565081D01*
X120890728Y-73524842D01*
X120921447Y-73485087D01*
X120953325Y-73445816D01*
X120986362Y-73407029D01*
X121020559Y-73368725D01*
X121055914Y-73330905D01*
X121092429Y-73293569D01*
X121129765Y-73257054D01*
X121167585Y-73221699D01*
X121205889Y-73187502D01*
X121244676Y-73154465D01*
X121283947Y-73122587D01*
X121323702Y-73091868D01*
X121363941Y-73062309D01*
X121404663Y-73033908D01*
X121445869Y-73006667D01*
X121487559Y-72980585D01*
X121529732Y-72955662D01*
X121572389Y-72931899D01*
X121615530Y-72909294D01*
X121659154Y-72887849D01*
X121703263Y-72867563D01*
X121747855Y-72848436D01*
X121792930Y-72830469D01*
X121838490Y-72813660D01*
X121884533Y-72798011D01*
X121931060Y-72783521D01*
X121978070Y-72770190D01*
X122025564Y-72758019D01*
X122073542Y-72747006D01*
X122122004Y-72737153D01*
X122170950Y-72728459D01*
X122220379Y-72720924D01*
X122270292Y-72714549D01*
X122320688Y-72709332D01*
X122371568Y-72705275D01*
X122422932Y-72702377D01*
X122474780Y-72700638D01*
X122527111Y-72700059D01*
X122579398Y-72700638D01*
G37*
D10*
X88158435Y-77430219D02*
X88825101Y-78430219D01*
X88825101Y-77430219D02*
X88158435Y-78430219D01*
X89110816Y-77430219D02*
X89729863Y-77430219D01*
X89729863Y-77430219D02*
X89396530Y-77811171D01*
X89396530Y-77811171D02*
X89539387Y-77811171D01*
X89539387Y-77811171D02*
X89634625Y-77858790D01*
X89634625Y-77858790D02*
X89682244Y-77906409D01*
X89682244Y-77906409D02*
X89729863Y-78001647D01*
X89729863Y-78001647D02*
X89729863Y-78239742D01*
X89729863Y-78239742D02*
X89682244Y-78334980D01*
X89682244Y-78334980D02*
X89634625Y-78382600D01*
X89634625Y-78382600D02*
X89539387Y-78430219D01*
X89539387Y-78430219D02*
X89253673Y-78430219D01*
X89253673Y-78430219D02*
X89158435Y-78382600D01*
X89158435Y-78382600D02*
X89110816Y-78334980D01*
D11*
G36*
X77559074Y-73261498D02*
G01*
X77606601Y-73264203D01*
X77652840Y-73268711D01*
X77697791Y-73275022D01*
X77741455Y-73283136D01*
X77783830Y-73293054D01*
X77824917Y-73304775D01*
X77864716Y-73318299D01*
X77903227Y-73333626D01*
X77940450Y-73350756D01*
X77976386Y-73369690D01*
X78011033Y-73390426D01*
X78044392Y-73412966D01*
X78076463Y-73437310D01*
X78107246Y-73463456D01*
X78136742Y-73491406D01*
X78166732Y-73522747D01*
X78194787Y-73554855D01*
X78220908Y-73587731D01*
X78245094Y-73621373D01*
X78267345Y-73655783D01*
X78287661Y-73690960D01*
X78306042Y-73726903D01*
X78322488Y-73763614D01*
X78337000Y-73801092D01*
X78349576Y-73839337D01*
X78360218Y-73878349D01*
X78368925Y-73918128D01*
X78375697Y-73958675D01*
X78380534Y-73999988D01*
X78383436Y-74042068D01*
X78384404Y-74084916D01*
X78383502Y-74125874D01*
X78380797Y-74166317D01*
X78376289Y-74206245D01*
X78369978Y-74245658D01*
X78361864Y-74284556D01*
X78351946Y-74322938D01*
X78340225Y-74360805D01*
X78326701Y-74398157D01*
X78311374Y-74434994D01*
X78294244Y-74471316D01*
X78275310Y-74507122D01*
X78254574Y-74542413D01*
X78232034Y-74577189D01*
X78207690Y-74611450D01*
X78181544Y-74645195D01*
X78153594Y-74678426D01*
X78128413Y-74701332D01*
X78102326Y-74724622D01*
X78075336Y-74748296D01*
X78047440Y-74772353D01*
X78018641Y-74796793D01*
X77988937Y-74821617D01*
X77958328Y-74846825D01*
X77926815Y-74872416D01*
X77894397Y-74898390D01*
X77861075Y-74924749D01*
X77826849Y-74951490D01*
X77791718Y-74978616D01*
X77755683Y-75006124D01*
X77718743Y-75034017D01*
X77680899Y-75062293D01*
X77642150Y-75090952D01*
X77607584Y-75116529D01*
X77573952Y-75141785D01*
X77541254Y-75166721D01*
X77509492Y-75191336D01*
X77478663Y-75215630D01*
X77448770Y-75239604D01*
X77419810Y-75263258D01*
X77391786Y-75286591D01*
X77364695Y-75309603D01*
X77338540Y-75332295D01*
X77313319Y-75354666D01*
X77289032Y-75376716D01*
X77265680Y-75398446D01*
X77243262Y-75419856D01*
X77221779Y-75440944D01*
X77181616Y-75482160D01*
X77145192Y-75522094D01*
X77112505Y-75560746D01*
X77083557Y-75598115D01*
X77058346Y-75634202D01*
X77036874Y-75669006D01*
X77019140Y-75702529D01*
X77005143Y-75734769D01*
X76999547Y-75750408D01*
X78466469Y-75750408D01*
X78466469Y-76124832D01*
X76570901Y-76124832D01*
X76570901Y-75783381D01*
X76592539Y-75734113D01*
X76616238Y-75685229D01*
X76641998Y-75636729D01*
X76669819Y-75588612D01*
X76699701Y-75540879D01*
X76731643Y-75493529D01*
X76765646Y-75446563D01*
X76783421Y-75423224D01*
X76801710Y-75399980D01*
X76820515Y-75376833D01*
X76839835Y-75353781D01*
X76859670Y-75330825D01*
X76880021Y-75307966D01*
X76900886Y-75285202D01*
X76922267Y-75262534D01*
X76944163Y-75239961D01*
X76966574Y-75217485D01*
X76989501Y-75195105D01*
X77012942Y-75172820D01*
X77036899Y-75150631D01*
X77061371Y-75128539D01*
X77086358Y-75106542D01*
X77111860Y-75084641D01*
X77137878Y-75062836D01*
X77164411Y-75041127D01*
X77192988Y-75018635D01*
X77221017Y-74996499D01*
X77248498Y-74974717D01*
X77275431Y-74953291D01*
X77301815Y-74932219D01*
X77327652Y-74911502D01*
X77352940Y-74891140D01*
X77377681Y-74871133D01*
X77401873Y-74851481D01*
X77425517Y-74832184D01*
X77448613Y-74813242D01*
X77493161Y-74776423D01*
X77535516Y-74741023D01*
X77575678Y-74707042D01*
X77613649Y-74674482D01*
X77649426Y-74643341D01*
X77683012Y-74613619D01*
X77714404Y-74585318D01*
X77743605Y-74558436D01*
X77770613Y-74532974D01*
X77795428Y-74508931D01*
X77807014Y-74497442D01*
X77829019Y-74476511D01*
X77849604Y-74454932D01*
X77868769Y-74432707D01*
X77894855Y-74398156D01*
X77917747Y-74362150D01*
X77937445Y-74324689D01*
X77953949Y-74285772D01*
X77967258Y-74245400D01*
X77977373Y-74203572D01*
X77984294Y-74160289D01*
X77987133Y-74130625D01*
X77988553Y-74100314D01*
X77988730Y-74084916D01*
X77987423Y-74045372D01*
X77983501Y-74006975D01*
X77976965Y-73969724D01*
X77967813Y-73933619D01*
X77956047Y-73898660D01*
X77941667Y-73864848D01*
X77924672Y-73832182D01*
X77905062Y-73800663D01*
X77882838Y-73770290D01*
X77857998Y-73741063D01*
X77839987Y-73722215D01*
X77813196Y-73699031D01*
X77782284Y-73678938D01*
X77747251Y-73661937D01*
X77718271Y-73651214D01*
X77686972Y-73642230D01*
X77653355Y-73634985D01*
X77617420Y-73629479D01*
X77579167Y-73625712D01*
X77538595Y-73623683D01*
X77510259Y-73623297D01*
X77468141Y-73624166D01*
X77428342Y-73626774D01*
X77390861Y-73631121D01*
X77355699Y-73637207D01*
X77322855Y-73645032D01*
X77292329Y-73654595D01*
X77264122Y-73665897D01*
X77230119Y-73683672D01*
X77200237Y-73704537D01*
X77180531Y-73722215D01*
X77154369Y-73751116D01*
X77131389Y-73782038D01*
X77111591Y-73814983D01*
X77094973Y-73849950D01*
X77081537Y-73886940D01*
X77071283Y-73925951D01*
X77064209Y-73966984D01*
X77060318Y-74010040D01*
X77059490Y-74039867D01*
X77060077Y-74070593D01*
X77062078Y-74102218D01*
X77065492Y-74134741D01*
X76652966Y-74134741D01*
X76651916Y-74085926D01*
X76652795Y-74038399D01*
X76655602Y-73992160D01*
X76660339Y-73947209D01*
X76667005Y-73903545D01*
X76675601Y-73861170D01*
X76686125Y-73820083D01*
X76698579Y-73780284D01*
X76712961Y-73741773D01*
X76729273Y-73704550D01*
X76747514Y-73668614D01*
X76767684Y-73633967D01*
X76789783Y-73600608D01*
X76813812Y-73568537D01*
X76839769Y-73537754D01*
X76867656Y-73508258D01*
X76899103Y-73478268D01*
X76931712Y-73450213D01*
X76965484Y-73424092D01*
X77000417Y-73399906D01*
X77036512Y-73377655D01*
X77073770Y-73357339D01*
X77112190Y-73338958D01*
X77151771Y-73322512D01*
X77192515Y-73308000D01*
X77234421Y-73295424D01*
X77277489Y-73284782D01*
X77321718Y-73276075D01*
X77367110Y-73269303D01*
X77413664Y-73264466D01*
X77461381Y-73261564D01*
X77510259Y-73260596D01*
X77559074Y-73261498D01*
G37*
G36*
X77579398Y-72700638D02*
G01*
X77631202Y-72702377D01*
X77682524Y-72705275D01*
X77733363Y-72709332D01*
X77783720Y-72714549D01*
X77833595Y-72720924D01*
X77882988Y-72728459D01*
X77931898Y-72737153D01*
X77980326Y-72747006D01*
X78028272Y-72758019D01*
X78075736Y-72770190D01*
X78122717Y-72783521D01*
X78169216Y-72798011D01*
X78215232Y-72813660D01*
X78260767Y-72830469D01*
X78305819Y-72848436D01*
X78350389Y-72867563D01*
X78394476Y-72887849D01*
X78438081Y-72909294D01*
X78481204Y-72931899D01*
X78523845Y-72955662D01*
X78566003Y-72980585D01*
X78607679Y-73006667D01*
X78648873Y-73033908D01*
X78689585Y-73062309D01*
X78729814Y-73091868D01*
X78769561Y-73122587D01*
X78808825Y-73154465D01*
X78847608Y-73187502D01*
X78885908Y-73221699D01*
X78923726Y-73257054D01*
X78961061Y-73293569D01*
X78997576Y-73330905D01*
X79032932Y-73368725D01*
X79067128Y-73407029D01*
X79100165Y-73445816D01*
X79132043Y-73485087D01*
X79162762Y-73524842D01*
X79192322Y-73565081D01*
X79220722Y-73605803D01*
X79247963Y-73647009D01*
X79274045Y-73688699D01*
X79298968Y-73730872D01*
X79322731Y-73773529D01*
X79345336Y-73816670D01*
X79366781Y-73860294D01*
X79387067Y-73904403D01*
X79406194Y-73948995D01*
X79424161Y-73994070D01*
X79440970Y-74039630D01*
X79456619Y-74085673D01*
X79471109Y-74132200D01*
X79484440Y-74179210D01*
X79496611Y-74226704D01*
X79507624Y-74274682D01*
X79517477Y-74323144D01*
X79526171Y-74372090D01*
X79533706Y-74421519D01*
X79540081Y-74471431D01*
X79545298Y-74521828D01*
X79549355Y-74572708D01*
X79552253Y-74624072D01*
X79553992Y-74675920D01*
X79554571Y-74728251D01*
X79553992Y-74780538D01*
X79552253Y-74832342D01*
X79549355Y-74883664D01*
X79545298Y-74934503D01*
X79540081Y-74984860D01*
X79533706Y-75034735D01*
X79526171Y-75084128D01*
X79517477Y-75133038D01*
X79507624Y-75181466D01*
X79496611Y-75229412D01*
X79484440Y-75276875D01*
X79471109Y-75323857D01*
X79456619Y-75370356D01*
X79440970Y-75416372D01*
X79424161Y-75461907D01*
X79406194Y-75506959D01*
X79387067Y-75551528D01*
X79366781Y-75595616D01*
X79345336Y-75639221D01*
X79322731Y-75682344D01*
X79298968Y-75724985D01*
X79274045Y-75767143D01*
X79247963Y-75808819D01*
X79220722Y-75850013D01*
X79192322Y-75890725D01*
X79162762Y-75930954D01*
X79132043Y-75970701D01*
X79100165Y-76009965D01*
X79067128Y-76048748D01*
X79032932Y-76087048D01*
X78997576Y-76124866D01*
X78961061Y-76162201D01*
X78923726Y-76198761D01*
X78885908Y-76234160D01*
X78847608Y-76268399D01*
X78808825Y-76301477D01*
X78769561Y-76333394D01*
X78729814Y-76364151D01*
X78689585Y-76393747D01*
X78648873Y-76422182D01*
X78607679Y-76449457D01*
X78566003Y-76475571D01*
X78523845Y-76500525D01*
X78481204Y-76524318D01*
X78438081Y-76546950D01*
X78394476Y-76568422D01*
X78350389Y-76588733D01*
X78305819Y-76607883D01*
X78260767Y-76625873D01*
X78215232Y-76642702D01*
X78169216Y-76658371D01*
X78122717Y-76672879D01*
X78075736Y-76686226D01*
X78028272Y-76698412D01*
X77980326Y-76709438D01*
X77931898Y-76719304D01*
X77882988Y-76728009D01*
X77833595Y-76735553D01*
X77783720Y-76741936D01*
X77733363Y-76747159D01*
X77682524Y-76751221D01*
X77631202Y-76754123D01*
X77579398Y-76755864D01*
X77527111Y-76756444D01*
X77474780Y-76755864D01*
X77422932Y-76754123D01*
X77371568Y-76751221D01*
X77320688Y-76747159D01*
X77270292Y-76741936D01*
X77220379Y-76735553D01*
X77170950Y-76728009D01*
X77122004Y-76719304D01*
X77073542Y-76709438D01*
X77025564Y-76698412D01*
X76978070Y-76686226D01*
X76931060Y-76672879D01*
X76884533Y-76658371D01*
X76838490Y-76642702D01*
X76792930Y-76625873D01*
X76747855Y-76607883D01*
X76703263Y-76588733D01*
X76659154Y-76568422D01*
X76615530Y-76546950D01*
X76572389Y-76524318D01*
X76529732Y-76500525D01*
X76487559Y-76475571D01*
X76445869Y-76449457D01*
X76404663Y-76422182D01*
X76363941Y-76393747D01*
X76323702Y-76364151D01*
X76283947Y-76333394D01*
X76244676Y-76301477D01*
X76205889Y-76268399D01*
X76167585Y-76234160D01*
X76129765Y-76198761D01*
X76092429Y-76162201D01*
X76055914Y-76124866D01*
X76020559Y-76087048D01*
X75986362Y-76048748D01*
X75953325Y-76009965D01*
X75921447Y-75970701D01*
X75890728Y-75930954D01*
X75861169Y-75890725D01*
X75832768Y-75850013D01*
X75805527Y-75808819D01*
X75779445Y-75767143D01*
X75754522Y-75724985D01*
X75730759Y-75682344D01*
X75708154Y-75639221D01*
X75686709Y-75595616D01*
X75666423Y-75551528D01*
X75647296Y-75506959D01*
X75629329Y-75461907D01*
X75612520Y-75416372D01*
X75596871Y-75370356D01*
X75582381Y-75323857D01*
X75569050Y-75276875D01*
X75556879Y-75229412D01*
X75545866Y-75181466D01*
X75536013Y-75133038D01*
X75527319Y-75084128D01*
X75519784Y-75034735D01*
X75513409Y-74984860D01*
X75508192Y-74934503D01*
X75504135Y-74883664D01*
X75501237Y-74832342D01*
X75499498Y-74780538D01*
X75498919Y-74728251D01*
X75663783Y-74728251D01*
X75664314Y-74776433D01*
X75665909Y-74824164D01*
X75668568Y-74871447D01*
X75672289Y-74918280D01*
X75677074Y-74964664D01*
X75682922Y-75010598D01*
X75689834Y-75056083D01*
X75697809Y-75101119D01*
X75706847Y-75145705D01*
X75716949Y-75189842D01*
X75728113Y-75233529D01*
X75740341Y-75276767D01*
X75753633Y-75319556D01*
X75767988Y-75361896D01*
X75783406Y-75403786D01*
X75799887Y-75445226D01*
X75817432Y-75486218D01*
X75836040Y-75526760D01*
X75855711Y-75566852D01*
X75876446Y-75606495D01*
X75898244Y-75645689D01*
X75921105Y-75684434D01*
X75945030Y-75722729D01*
X75970018Y-75760574D01*
X75996069Y-75797971D01*
X76023183Y-75834918D01*
X76051361Y-75871415D01*
X76080602Y-75907464D01*
X76110907Y-75943062D01*
X76142275Y-75978212D01*
X76174706Y-76012912D01*
X76208200Y-76047163D01*
X76242406Y-76080657D01*
X76277065Y-76113088D01*
X76312176Y-76144456D01*
X76347739Y-76174761D01*
X76383754Y-76204002D01*
X76420222Y-76232180D01*
X76457142Y-76259294D01*
X76494514Y-76285345D01*
X76532338Y-76310333D01*
X76570614Y-76334258D01*
X76609343Y-76357119D01*
X76648524Y-76378917D01*
X76688157Y-76399652D01*
X76728243Y-76419323D01*
X76768780Y-76437931D01*
X76809770Y-76455476D01*
X76851212Y-76471957D01*
X76893107Y-76487375D01*
X76935453Y-76501730D01*
X76978252Y-76515021D01*
X77021503Y-76527250D01*
X77065206Y-76538414D01*
X77109362Y-76548516D01*
X77153969Y-76557554D01*
X77199029Y-76565529D01*
X77244542Y-76572440D01*
X77290506Y-76578289D01*
X77336923Y-76583074D01*
X77383791Y-76586795D01*
X77431113Y-76589453D01*
X77478886Y-76591048D01*
X77527111Y-76591580D01*
X77575293Y-76591048D01*
X77623024Y-76589453D01*
X77670307Y-76586795D01*
X77717140Y-76583074D01*
X77763524Y-76578289D01*
X77809458Y-76572440D01*
X77854943Y-76565529D01*
X77899979Y-76557554D01*
X77944565Y-76548516D01*
X77988702Y-76538414D01*
X78032389Y-76527250D01*
X78075627Y-76515021D01*
X78118416Y-76501730D01*
X78160756Y-76487375D01*
X78202646Y-76471957D01*
X78244086Y-76455476D01*
X78285078Y-76437931D01*
X78325620Y-76419323D01*
X78365712Y-76399652D01*
X78405355Y-76378917D01*
X78444549Y-76357119D01*
X78483294Y-76334258D01*
X78521589Y-76310333D01*
X78559434Y-76285345D01*
X78596831Y-76259294D01*
X78633778Y-76232180D01*
X78670275Y-76204002D01*
X78706324Y-76174761D01*
X78741922Y-76144456D01*
X78777072Y-76113088D01*
X78811772Y-76080657D01*
X78846023Y-76047163D01*
X78879472Y-76012912D01*
X78911860Y-75978212D01*
X78943185Y-75943062D01*
X78973449Y-75907464D01*
X79002651Y-75871415D01*
X79030791Y-75834918D01*
X79057869Y-75797971D01*
X79083885Y-75760574D01*
X79108839Y-75722729D01*
X79132731Y-75684434D01*
X79155562Y-75645689D01*
X79177331Y-75606495D01*
X79198037Y-75566852D01*
X79217682Y-75526760D01*
X79236265Y-75486218D01*
X79253786Y-75445226D01*
X79270245Y-75403786D01*
X79285643Y-75361896D01*
X79299978Y-75319556D01*
X79313252Y-75276767D01*
X79325463Y-75233529D01*
X79336613Y-75189842D01*
X79346701Y-75145705D01*
X79355727Y-75101119D01*
X79363691Y-75056083D01*
X79370593Y-75010598D01*
X79376434Y-74964664D01*
X79381212Y-74918280D01*
X79384929Y-74871447D01*
X79387584Y-74824164D01*
X79389176Y-74776433D01*
X79389707Y-74728251D01*
X79389176Y-74680026D01*
X79387584Y-74632253D01*
X79384929Y-74584931D01*
X79381212Y-74538063D01*
X79376434Y-74491646D01*
X79370593Y-74445682D01*
X79363691Y-74400169D01*
X79355727Y-74355109D01*
X79346701Y-74310502D01*
X79336613Y-74266346D01*
X79325463Y-74222643D01*
X79313252Y-74179392D01*
X79299978Y-74136593D01*
X79285643Y-74094247D01*
X79270245Y-74052352D01*
X79253786Y-74010910D01*
X79236265Y-73969920D01*
X79217682Y-73929383D01*
X79198037Y-73889297D01*
X79177331Y-73849664D01*
X79155562Y-73810483D01*
X79132731Y-73771754D01*
X79108839Y-73733478D01*
X79083885Y-73695654D01*
X79057869Y-73658282D01*
X79030791Y-73621362D01*
X79002651Y-73584894D01*
X78973449Y-73548879D01*
X78943185Y-73513316D01*
X78911860Y-73478205D01*
X78879472Y-73443546D01*
X78846023Y-73409340D01*
X78811772Y-73375846D01*
X78777072Y-73343415D01*
X78741922Y-73312047D01*
X78706324Y-73281742D01*
X78670275Y-73252501D01*
X78633778Y-73224323D01*
X78596831Y-73197209D01*
X78559434Y-73171157D01*
X78521589Y-73146170D01*
X78483294Y-73122245D01*
X78444549Y-73099384D01*
X78405355Y-73077586D01*
X78365712Y-73056851D01*
X78325620Y-73037180D01*
X78285078Y-73018572D01*
X78244086Y-73001027D01*
X78202646Y-72984546D01*
X78160756Y-72969128D01*
X78118416Y-72954773D01*
X78075627Y-72941481D01*
X78032389Y-72929253D01*
X77988702Y-72918088D01*
X77944565Y-72907987D01*
X77899979Y-72898949D01*
X77854943Y-72890974D01*
X77809458Y-72884062D01*
X77763524Y-72878214D01*
X77717140Y-72873429D01*
X77670307Y-72869708D01*
X77623024Y-72867049D01*
X77575293Y-72865454D01*
X77527111Y-72864923D01*
X77478886Y-72865454D01*
X77431113Y-72867049D01*
X77383791Y-72869708D01*
X77336923Y-72873429D01*
X77290506Y-72878214D01*
X77244542Y-72884062D01*
X77199029Y-72890974D01*
X77153969Y-72898949D01*
X77109362Y-72907987D01*
X77065206Y-72918088D01*
X77021503Y-72929253D01*
X76978252Y-72941481D01*
X76935453Y-72954773D01*
X76893107Y-72969128D01*
X76851212Y-72984546D01*
X76809770Y-73001027D01*
X76768780Y-73018572D01*
X76728243Y-73037180D01*
X76688157Y-73056851D01*
X76648524Y-73077586D01*
X76609343Y-73099384D01*
X76570614Y-73122245D01*
X76532338Y-73146170D01*
X76494514Y-73171157D01*
X76457142Y-73197209D01*
X76420222Y-73224323D01*
X76383754Y-73252501D01*
X76347739Y-73281742D01*
X76312176Y-73312047D01*
X76277065Y-73343415D01*
X76242406Y-73375846D01*
X76208200Y-73409340D01*
X76174706Y-73443546D01*
X76142275Y-73478205D01*
X76110907Y-73513316D01*
X76080602Y-73548879D01*
X76051361Y-73584894D01*
X76023183Y-73621362D01*
X75996069Y-73658282D01*
X75970018Y-73695654D01*
X75945030Y-73733478D01*
X75921105Y-73771754D01*
X75898244Y-73810483D01*
X75876446Y-73849664D01*
X75855711Y-73889297D01*
X75836040Y-73929383D01*
X75817432Y-73969920D01*
X75799887Y-74010910D01*
X75783406Y-74052352D01*
X75767988Y-74094247D01*
X75753633Y-74136593D01*
X75740341Y-74179392D01*
X75728113Y-74222643D01*
X75716949Y-74266346D01*
X75706847Y-74310502D01*
X75697809Y-74355109D01*
X75689834Y-74400169D01*
X75682922Y-74445682D01*
X75677074Y-74491646D01*
X75672289Y-74538063D01*
X75668568Y-74584931D01*
X75665909Y-74632253D01*
X75664314Y-74680026D01*
X75663783Y-74728251D01*
X75498919Y-74728251D01*
X75499498Y-74675920D01*
X75501237Y-74624072D01*
X75504135Y-74572708D01*
X75508192Y-74521828D01*
X75513409Y-74471431D01*
X75519784Y-74421519D01*
X75527319Y-74372090D01*
X75536013Y-74323144D01*
X75545866Y-74274682D01*
X75556879Y-74226704D01*
X75569050Y-74179210D01*
X75582381Y-74132200D01*
X75596871Y-74085673D01*
X75612520Y-74039630D01*
X75629329Y-73994070D01*
X75647296Y-73948995D01*
X75666423Y-73904403D01*
X75686709Y-73860294D01*
X75708154Y-73816670D01*
X75730759Y-73773529D01*
X75754522Y-73730872D01*
X75779445Y-73688699D01*
X75805527Y-73647009D01*
X75832768Y-73605803D01*
X75861169Y-73565081D01*
X75890728Y-73524842D01*
X75921447Y-73485087D01*
X75953325Y-73445816D01*
X75986362Y-73407029D01*
X76020559Y-73368725D01*
X76055914Y-73330905D01*
X76092429Y-73293569D01*
X76129765Y-73257054D01*
X76167585Y-73221699D01*
X76205889Y-73187502D01*
X76244676Y-73154465D01*
X76283947Y-73122587D01*
X76323702Y-73091868D01*
X76363941Y-73062309D01*
X76404663Y-73033908D01*
X76445869Y-73006667D01*
X76487559Y-72980585D01*
X76529732Y-72955662D01*
X76572389Y-72931899D01*
X76615530Y-72909294D01*
X76659154Y-72887849D01*
X76703263Y-72867563D01*
X76747855Y-72848436D01*
X76792930Y-72830469D01*
X76838490Y-72813660D01*
X76884533Y-72798011D01*
X76931060Y-72783521D01*
X76978070Y-72770190D01*
X77025564Y-72758019D01*
X77073542Y-72747006D01*
X77122004Y-72737153D01*
X77170950Y-72728459D01*
X77220379Y-72720924D01*
X77270292Y-72714549D01*
X77320688Y-72709332D01*
X77371568Y-72705275D01*
X77422932Y-72702377D01*
X77474780Y-72700638D01*
X77527111Y-72700059D01*
X77579398Y-72700638D01*
G37*
X53135714Y-78854819D02*
X52564286Y-78854819D01*
X52850000Y-78854819D02*
X52850000Y-77854819D01*
X52850000Y-77854819D02*
X52754762Y-77997676D01*
X52754762Y-77997676D02*
X52659524Y-78092914D01*
X52659524Y-78092914D02*
X52564286Y-78140533D01*
D12*
X147660571Y-88936893D02*
X147733143Y-88973179D01*
X147733143Y-88973179D02*
X147842000Y-88973179D01*
X147842000Y-88973179D02*
X147950857Y-88936893D01*
X147950857Y-88936893D02*
X148023428Y-88864322D01*
X148023428Y-88864322D02*
X148059714Y-88791750D01*
X148059714Y-88791750D02*
X148096000Y-88646607D01*
X148096000Y-88646607D02*
X148096000Y-88537750D01*
X148096000Y-88537750D02*
X148059714Y-88392607D01*
X148059714Y-88392607D02*
X148023428Y-88320036D01*
X148023428Y-88320036D02*
X147950857Y-88247465D01*
X147950857Y-88247465D02*
X147842000Y-88211179D01*
X147842000Y-88211179D02*
X147769428Y-88211179D01*
X147769428Y-88211179D02*
X147660571Y-88247465D01*
X147660571Y-88247465D02*
X147624285Y-88283750D01*
X147624285Y-88283750D02*
X147624285Y-88537750D01*
X147624285Y-88537750D02*
X147769428Y-88537750D01*
X147297714Y-88211179D02*
X147297714Y-88973179D01*
X147297714Y-88973179D02*
X146862285Y-88211179D01*
X146862285Y-88211179D02*
X146862285Y-88973179D01*
X146499428Y-88211179D02*
X146499428Y-88973179D01*
X146499428Y-88973179D02*
X146317999Y-88973179D01*
X146317999Y-88973179D02*
X146209142Y-88936893D01*
X146209142Y-88936893D02*
X146136571Y-88864322D01*
X146136571Y-88864322D02*
X146100285Y-88791750D01*
X146100285Y-88791750D02*
X146063999Y-88646607D01*
X146063999Y-88646607D02*
X146063999Y-88537750D01*
X146063999Y-88537750D02*
X146100285Y-88392607D01*
X146100285Y-88392607D02*
X146136571Y-88320036D01*
X146136571Y-88320036D02*
X146209142Y-88247465D01*
X146209142Y-88247465D02*
X146317999Y-88211179D01*
X146317999Y-88211179D02*
X146499428Y-88211179D01*
X142925285Y-88247465D02*
X142816428Y-88211179D01*
X142816428Y-88211179D02*
X142634999Y-88211179D01*
X142634999Y-88211179D02*
X142562428Y-88247465D01*
X142562428Y-88247465D02*
X142526142Y-88283750D01*
X142526142Y-88283750D02*
X142489856Y-88356322D01*
X142489856Y-88356322D02*
X142489856Y-88428893D01*
X142489856Y-88428893D02*
X142526142Y-88501465D01*
X142526142Y-88501465D02*
X142562428Y-88537750D01*
X142562428Y-88537750D02*
X142634999Y-88574036D01*
X142634999Y-88574036D02*
X142780142Y-88610322D01*
X142780142Y-88610322D02*
X142852713Y-88646607D01*
X142852713Y-88646607D02*
X142888999Y-88682893D01*
X142888999Y-88682893D02*
X142925285Y-88755465D01*
X142925285Y-88755465D02*
X142925285Y-88828036D01*
X142925285Y-88828036D02*
X142888999Y-88900607D01*
X142888999Y-88900607D02*
X142852713Y-88936893D01*
X142852713Y-88936893D02*
X142780142Y-88973179D01*
X142780142Y-88973179D02*
X142598713Y-88973179D01*
X142598713Y-88973179D02*
X142489856Y-88936893D01*
X142163285Y-88211179D02*
X142163285Y-88973179D01*
X142163285Y-88973179D02*
X141981856Y-88973179D01*
X141981856Y-88973179D02*
X141872999Y-88936893D01*
X141872999Y-88936893D02*
X141800428Y-88864322D01*
X141800428Y-88864322D02*
X141764142Y-88791750D01*
X141764142Y-88791750D02*
X141727856Y-88646607D01*
X141727856Y-88646607D02*
X141727856Y-88537750D01*
X141727856Y-88537750D02*
X141764142Y-88392607D01*
X141764142Y-88392607D02*
X141800428Y-88320036D01*
X141800428Y-88320036D02*
X141872999Y-88247465D01*
X141872999Y-88247465D02*
X141981856Y-88211179D01*
X141981856Y-88211179D02*
X142163285Y-88211179D01*
X141437571Y-88428893D02*
X141074714Y-88428893D01*
X141510142Y-88211179D02*
X141256142Y-88973179D01*
X141256142Y-88973179D02*
X141002142Y-88211179D01*
X145447142Y-88247465D02*
X145338285Y-88211179D01*
X145338285Y-88211179D02*
X145156856Y-88211179D01*
X145156856Y-88211179D02*
X145084285Y-88247465D01*
X145084285Y-88247465D02*
X145047999Y-88283750D01*
X145047999Y-88283750D02*
X145011713Y-88356322D01*
X145011713Y-88356322D02*
X145011713Y-88428893D01*
X145011713Y-88428893D02*
X145047999Y-88501465D01*
X145047999Y-88501465D02*
X145084285Y-88537750D01*
X145084285Y-88537750D02*
X145156856Y-88574036D01*
X145156856Y-88574036D02*
X145301999Y-88610322D01*
X145301999Y-88610322D02*
X145374570Y-88646607D01*
X145374570Y-88646607D02*
X145410856Y-88682893D01*
X145410856Y-88682893D02*
X145447142Y-88755465D01*
X145447142Y-88755465D02*
X145447142Y-88828036D01*
X145447142Y-88828036D02*
X145410856Y-88900607D01*
X145410856Y-88900607D02*
X145374570Y-88936893D01*
X145374570Y-88936893D02*
X145301999Y-88973179D01*
X145301999Y-88973179D02*
X145120570Y-88973179D01*
X145120570Y-88973179D02*
X145011713Y-88936893D01*
X144249713Y-88283750D02*
X144285999Y-88247465D01*
X144285999Y-88247465D02*
X144394856Y-88211179D01*
X144394856Y-88211179D02*
X144467428Y-88211179D01*
X144467428Y-88211179D02*
X144576285Y-88247465D01*
X144576285Y-88247465D02*
X144648856Y-88320036D01*
X144648856Y-88320036D02*
X144685142Y-88392607D01*
X144685142Y-88392607D02*
X144721428Y-88537750D01*
X144721428Y-88537750D02*
X144721428Y-88646607D01*
X144721428Y-88646607D02*
X144685142Y-88791750D01*
X144685142Y-88791750D02*
X144648856Y-88864322D01*
X144648856Y-88864322D02*
X144576285Y-88936893D01*
X144576285Y-88936893D02*
X144467428Y-88973179D01*
X144467428Y-88973179D02*
X144394856Y-88973179D01*
X144394856Y-88973179D02*
X144285999Y-88936893D01*
X144285999Y-88936893D02*
X144249713Y-88900607D01*
X143560285Y-88211179D02*
X143923142Y-88211179D01*
X143923142Y-88211179D02*
X143923142Y-88973179D01*
X141800428Y-95286893D02*
X141873000Y-95323179D01*
X141873000Y-95323179D02*
X141981857Y-95323179D01*
X141981857Y-95323179D02*
X142090714Y-95286893D01*
X142090714Y-95286893D02*
X142163285Y-95214322D01*
X142163285Y-95214322D02*
X142199571Y-95141750D01*
X142199571Y-95141750D02*
X142235857Y-94996607D01*
X142235857Y-94996607D02*
X142235857Y-94887750D01*
X142235857Y-94887750D02*
X142199571Y-94742607D01*
X142199571Y-94742607D02*
X142163285Y-94670036D01*
X142163285Y-94670036D02*
X142090714Y-94597465D01*
X142090714Y-94597465D02*
X141981857Y-94561179D01*
X141981857Y-94561179D02*
X141909285Y-94561179D01*
X141909285Y-94561179D02*
X141800428Y-94597465D01*
X141800428Y-94597465D02*
X141764142Y-94633750D01*
X141764142Y-94633750D02*
X141764142Y-94887750D01*
X141764142Y-94887750D02*
X141909285Y-94887750D01*
X144793999Y-95323179D02*
X144285999Y-94561179D01*
X144285999Y-95323179D02*
X144793999Y-94561179D01*
D13*
X148146429Y-92398628D02*
X147917857Y-92398628D01*
X148060714Y-92598628D02*
X148060714Y-92084342D01*
X148060714Y-92084342D02*
X148032143Y-92027200D01*
X148032143Y-92027200D02*
X147975000Y-91998628D01*
X147975000Y-91998628D02*
X147917857Y-91998628D01*
X147460715Y-92398628D02*
X147460715Y-91998628D01*
X147717857Y-92398628D02*
X147717857Y-92084342D01*
X147717857Y-92084342D02*
X147689286Y-92027200D01*
X147689286Y-92027200D02*
X147632143Y-91998628D01*
X147632143Y-91998628D02*
X147546429Y-91998628D01*
X147546429Y-91998628D02*
X147489286Y-92027200D01*
X147489286Y-92027200D02*
X147460715Y-92055771D01*
X147260715Y-92398628D02*
X147032143Y-92398628D01*
X147175000Y-92598628D02*
X147175000Y-92084342D01*
X147175000Y-92084342D02*
X147146429Y-92027200D01*
X147146429Y-92027200D02*
X147089286Y-91998628D01*
X147089286Y-91998628D02*
X147032143Y-91998628D01*
X146746429Y-91998628D02*
X146803572Y-92027200D01*
X146803572Y-92027200D02*
X146832143Y-92055771D01*
X146832143Y-92055771D02*
X146860715Y-92112914D01*
X146860715Y-92112914D02*
X146860715Y-92284342D01*
X146860715Y-92284342D02*
X146832143Y-92341485D01*
X146832143Y-92341485D02*
X146803572Y-92370057D01*
X146803572Y-92370057D02*
X146746429Y-92398628D01*
X146746429Y-92398628D02*
X146660715Y-92398628D01*
X146660715Y-92398628D02*
X146603572Y-92370057D01*
X146603572Y-92370057D02*
X146575001Y-92341485D01*
X146575001Y-92341485D02*
X146546429Y-92284342D01*
X146546429Y-92284342D02*
X146546429Y-92112914D01*
X146546429Y-92112914D02*
X146575001Y-92055771D01*
X146575001Y-92055771D02*
X146603572Y-92027200D01*
X146603572Y-92027200D02*
X146660715Y-91998628D01*
X146660715Y-91998628D02*
X146746429Y-91998628D01*
X146289286Y-92398628D02*
X146289286Y-91998628D01*
X146289286Y-92341485D02*
X146260715Y-92370057D01*
X146260715Y-92370057D02*
X146203572Y-92398628D01*
X146203572Y-92398628D02*
X146117858Y-92398628D01*
X146117858Y-92398628D02*
X146060715Y-92370057D01*
X146060715Y-92370057D02*
X146032144Y-92312914D01*
X146032144Y-92312914D02*
X146032144Y-91998628D01*
X145889287Y-91941485D02*
X145432144Y-91941485D01*
X145346429Y-92398628D02*
X145203572Y-91998628D01*
X145203572Y-91998628D02*
X145060715Y-92398628D01*
X144746429Y-91998628D02*
X144803572Y-92027200D01*
X144803572Y-92027200D02*
X144832143Y-92084342D01*
X144832143Y-92084342D02*
X144832143Y-92598628D01*
X144232143Y-92598628D02*
X144517857Y-92598628D01*
X144517857Y-92598628D02*
X144546429Y-92312914D01*
X144546429Y-92312914D02*
X144517857Y-92341485D01*
X144517857Y-92341485D02*
X144460715Y-92370057D01*
X144460715Y-92370057D02*
X144317857Y-92370057D01*
X144317857Y-92370057D02*
X144260715Y-92341485D01*
X144260715Y-92341485D02*
X144232143Y-92312914D01*
X144232143Y-92312914D02*
X144203572Y-92255771D01*
X144203572Y-92255771D02*
X144203572Y-92112914D01*
X144203572Y-92112914D02*
X144232143Y-92055771D01*
X144232143Y-92055771D02*
X144260715Y-92027200D01*
X144260715Y-92027200D02*
X144317857Y-91998628D01*
X144317857Y-91998628D02*
X144460715Y-91998628D01*
X144460715Y-91998628D02*
X144517857Y-92027200D01*
X144517857Y-92027200D02*
X144546429Y-92055771D01*
X144003571Y-92598628D02*
X143632143Y-92598628D01*
X143632143Y-92598628D02*
X143832143Y-92370057D01*
X143832143Y-92370057D02*
X143746428Y-92370057D01*
X143746428Y-92370057D02*
X143689286Y-92341485D01*
X143689286Y-92341485D02*
X143660714Y-92312914D01*
X143660714Y-92312914D02*
X143632143Y-92255771D01*
X143632143Y-92255771D02*
X143632143Y-92112914D01*
X143632143Y-92112914D02*
X143660714Y-92055771D01*
X143660714Y-92055771D02*
X143689286Y-92027200D01*
X143689286Y-92027200D02*
X143746428Y-91998628D01*
X143746428Y-91998628D02*
X143917857Y-91998628D01*
X143917857Y-91998628D02*
X143975000Y-92027200D01*
X143975000Y-92027200D02*
X144003571Y-92055771D01*
X143289285Y-91998628D02*
X143346428Y-92027200D01*
X143346428Y-92027200D02*
X143374999Y-92084342D01*
X143374999Y-92084342D02*
X143374999Y-92598628D01*
X142946428Y-92598628D02*
X142889285Y-92598628D01*
X142889285Y-92598628D02*
X142832142Y-92570057D01*
X142832142Y-92570057D02*
X142803571Y-92541485D01*
X142803571Y-92541485D02*
X142774999Y-92484342D01*
X142774999Y-92484342D02*
X142746428Y-92370057D01*
X142746428Y-92370057D02*
X142746428Y-92227200D01*
X142746428Y-92227200D02*
X142774999Y-92112914D01*
X142774999Y-92112914D02*
X142803571Y-92055771D01*
X142803571Y-92055771D02*
X142832142Y-92027200D01*
X142832142Y-92027200D02*
X142889285Y-91998628D01*
X142889285Y-91998628D02*
X142946428Y-91998628D01*
X142946428Y-91998628D02*
X143003571Y-92027200D01*
X143003571Y-92027200D02*
X143032142Y-92055771D01*
X143032142Y-92055771D02*
X143060713Y-92112914D01*
X143060713Y-92112914D02*
X143089285Y-92227200D01*
X143089285Y-92227200D02*
X143089285Y-92370057D01*
X143089285Y-92370057D02*
X143060713Y-92484342D01*
X143060713Y-92484342D02*
X143032142Y-92541485D01*
X143032142Y-92541485D02*
X143003571Y-92570057D01*
X143003571Y-92570057D02*
X142946428Y-92598628D01*
X142546427Y-91998628D02*
X142232142Y-92398628D01*
X142546427Y-92398628D02*
X142232142Y-91998628D01*
D12*
X150563427Y-88973179D02*
X150091713Y-88973179D01*
X150091713Y-88973179D02*
X150345713Y-88682893D01*
X150345713Y-88682893D02*
X150236856Y-88682893D01*
X150236856Y-88682893D02*
X150164285Y-88646607D01*
X150164285Y-88646607D02*
X150127999Y-88610322D01*
X150127999Y-88610322D02*
X150091713Y-88537750D01*
X150091713Y-88537750D02*
X150091713Y-88356322D01*
X150091713Y-88356322D02*
X150127999Y-88283750D01*
X150127999Y-88283750D02*
X150164285Y-88247465D01*
X150164285Y-88247465D02*
X150236856Y-88211179D01*
X150236856Y-88211179D02*
X150454570Y-88211179D01*
X150454570Y-88211179D02*
X150527142Y-88247465D01*
X150527142Y-88247465D02*
X150563427Y-88283750D01*
X149873999Y-88973179D02*
X149619999Y-88211179D01*
X149619999Y-88211179D02*
X149365999Y-88973179D01*
X149184570Y-88973179D02*
X148712856Y-88973179D01*
X148712856Y-88973179D02*
X148966856Y-88682893D01*
X148966856Y-88682893D02*
X148857999Y-88682893D01*
X148857999Y-88682893D02*
X148785428Y-88646607D01*
X148785428Y-88646607D02*
X148749142Y-88610322D01*
X148749142Y-88610322D02*
X148712856Y-88537750D01*
X148712856Y-88537750D02*
X148712856Y-88356322D01*
X148712856Y-88356322D02*
X148749142Y-88283750D01*
X148749142Y-88283750D02*
X148785428Y-88247465D01*
X148785428Y-88247465D02*
X148857999Y-88211179D01*
X148857999Y-88211179D02*
X149075713Y-88211179D01*
X149075713Y-88211179D02*
X149148285Y-88247465D01*
X149148285Y-88247465D02*
X149184570Y-88283750D01*
D11*
X118635714Y-78854819D02*
X118064286Y-78854819D01*
X118350000Y-78854819D02*
X118350000Y-77854819D01*
X118350000Y-77854819D02*
X118254762Y-77997676D01*
X118254762Y-77997676D02*
X118159524Y-78092914D01*
X118159524Y-78092914D02*
X118064286Y-78140533D01*
X73635714Y-78854819D02*
X73064286Y-78854819D01*
X73350000Y-78854819D02*
X73350000Y-77854819D01*
X73350000Y-77854819D02*
X73254762Y-77997676D01*
X73254762Y-77997676D02*
X73159524Y-78092914D01*
X73159524Y-78092914D02*
X73064286Y-78140533D01*
D12*
X75805285Y-88247465D02*
X75696428Y-88211179D01*
X75696428Y-88211179D02*
X75514999Y-88211179D01*
X75514999Y-88211179D02*
X75442428Y-88247465D01*
X75442428Y-88247465D02*
X75406142Y-88283750D01*
X75406142Y-88283750D02*
X75369856Y-88356322D01*
X75369856Y-88356322D02*
X75369856Y-88428893D01*
X75369856Y-88428893D02*
X75406142Y-88501465D01*
X75406142Y-88501465D02*
X75442428Y-88537750D01*
X75442428Y-88537750D02*
X75514999Y-88574036D01*
X75514999Y-88574036D02*
X75660142Y-88610322D01*
X75660142Y-88610322D02*
X75732713Y-88646607D01*
X75732713Y-88646607D02*
X75768999Y-88682893D01*
X75768999Y-88682893D02*
X75805285Y-88755465D01*
X75805285Y-88755465D02*
X75805285Y-88828036D01*
X75805285Y-88828036D02*
X75768999Y-88900607D01*
X75768999Y-88900607D02*
X75732713Y-88936893D01*
X75732713Y-88936893D02*
X75660142Y-88973179D01*
X75660142Y-88973179D02*
X75478713Y-88973179D01*
X75478713Y-88973179D02*
X75369856Y-88936893D01*
X75043285Y-88211179D02*
X75043285Y-88973179D01*
X75043285Y-88973179D02*
X74861856Y-88973179D01*
X74861856Y-88973179D02*
X74752999Y-88936893D01*
X74752999Y-88936893D02*
X74680428Y-88864322D01*
X74680428Y-88864322D02*
X74644142Y-88791750D01*
X74644142Y-88791750D02*
X74607856Y-88646607D01*
X74607856Y-88646607D02*
X74607856Y-88537750D01*
X74607856Y-88537750D02*
X74644142Y-88392607D01*
X74644142Y-88392607D02*
X74680428Y-88320036D01*
X74680428Y-88320036D02*
X74752999Y-88247465D01*
X74752999Y-88247465D02*
X74861856Y-88211179D01*
X74861856Y-88211179D02*
X75043285Y-88211179D01*
X74317571Y-88428893D02*
X73954714Y-88428893D01*
X74390142Y-88211179D02*
X74136142Y-88973179D01*
X74136142Y-88973179D02*
X73882142Y-88211179D01*
D13*
X81026429Y-92398628D02*
X80797857Y-92398628D01*
X80940714Y-92598628D02*
X80940714Y-92084342D01*
X80940714Y-92084342D02*
X80912143Y-92027200D01*
X80912143Y-92027200D02*
X80855000Y-91998628D01*
X80855000Y-91998628D02*
X80797857Y-91998628D01*
X80340715Y-92398628D02*
X80340715Y-91998628D01*
X80597857Y-92398628D02*
X80597857Y-92084342D01*
X80597857Y-92084342D02*
X80569286Y-92027200D01*
X80569286Y-92027200D02*
X80512143Y-91998628D01*
X80512143Y-91998628D02*
X80426429Y-91998628D01*
X80426429Y-91998628D02*
X80369286Y-92027200D01*
X80369286Y-92027200D02*
X80340715Y-92055771D01*
X80140715Y-92398628D02*
X79912143Y-92398628D01*
X80055000Y-92598628D02*
X80055000Y-92084342D01*
X80055000Y-92084342D02*
X80026429Y-92027200D01*
X80026429Y-92027200D02*
X79969286Y-91998628D01*
X79969286Y-91998628D02*
X79912143Y-91998628D01*
X79626429Y-91998628D02*
X79683572Y-92027200D01*
X79683572Y-92027200D02*
X79712143Y-92055771D01*
X79712143Y-92055771D02*
X79740715Y-92112914D01*
X79740715Y-92112914D02*
X79740715Y-92284342D01*
X79740715Y-92284342D02*
X79712143Y-92341485D01*
X79712143Y-92341485D02*
X79683572Y-92370057D01*
X79683572Y-92370057D02*
X79626429Y-92398628D01*
X79626429Y-92398628D02*
X79540715Y-92398628D01*
X79540715Y-92398628D02*
X79483572Y-92370057D01*
X79483572Y-92370057D02*
X79455001Y-92341485D01*
X79455001Y-92341485D02*
X79426429Y-92284342D01*
X79426429Y-92284342D02*
X79426429Y-92112914D01*
X79426429Y-92112914D02*
X79455001Y-92055771D01*
X79455001Y-92055771D02*
X79483572Y-92027200D01*
X79483572Y-92027200D02*
X79540715Y-91998628D01*
X79540715Y-91998628D02*
X79626429Y-91998628D01*
X79169286Y-92398628D02*
X79169286Y-91998628D01*
X79169286Y-92341485D02*
X79140715Y-92370057D01*
X79140715Y-92370057D02*
X79083572Y-92398628D01*
X79083572Y-92398628D02*
X78997858Y-92398628D01*
X78997858Y-92398628D02*
X78940715Y-92370057D01*
X78940715Y-92370057D02*
X78912144Y-92312914D01*
X78912144Y-92312914D02*
X78912144Y-91998628D01*
X78769287Y-91941485D02*
X78312144Y-91941485D01*
X78226429Y-92398628D02*
X78083572Y-91998628D01*
X78083572Y-91998628D02*
X77940715Y-92398628D01*
X77626429Y-91998628D02*
X77683572Y-92027200D01*
X77683572Y-92027200D02*
X77712143Y-92084342D01*
X77712143Y-92084342D02*
X77712143Y-92598628D01*
X77112143Y-92598628D02*
X77397857Y-92598628D01*
X77397857Y-92598628D02*
X77426429Y-92312914D01*
X77426429Y-92312914D02*
X77397857Y-92341485D01*
X77397857Y-92341485D02*
X77340715Y-92370057D01*
X77340715Y-92370057D02*
X77197857Y-92370057D01*
X77197857Y-92370057D02*
X77140715Y-92341485D01*
X77140715Y-92341485D02*
X77112143Y-92312914D01*
X77112143Y-92312914D02*
X77083572Y-92255771D01*
X77083572Y-92255771D02*
X77083572Y-92112914D01*
X77083572Y-92112914D02*
X77112143Y-92055771D01*
X77112143Y-92055771D02*
X77140715Y-92027200D01*
X77140715Y-92027200D02*
X77197857Y-91998628D01*
X77197857Y-91998628D02*
X77340715Y-91998628D01*
X77340715Y-91998628D02*
X77397857Y-92027200D01*
X77397857Y-92027200D02*
X77426429Y-92055771D01*
X76883571Y-92598628D02*
X76512143Y-92598628D01*
X76512143Y-92598628D02*
X76712143Y-92370057D01*
X76712143Y-92370057D02*
X76626428Y-92370057D01*
X76626428Y-92370057D02*
X76569286Y-92341485D01*
X76569286Y-92341485D02*
X76540714Y-92312914D01*
X76540714Y-92312914D02*
X76512143Y-92255771D01*
X76512143Y-92255771D02*
X76512143Y-92112914D01*
X76512143Y-92112914D02*
X76540714Y-92055771D01*
X76540714Y-92055771D02*
X76569286Y-92027200D01*
X76569286Y-92027200D02*
X76626428Y-91998628D01*
X76626428Y-91998628D02*
X76797857Y-91998628D01*
X76797857Y-91998628D02*
X76855000Y-92027200D01*
X76855000Y-92027200D02*
X76883571Y-92055771D01*
X76169285Y-91998628D02*
X76226428Y-92027200D01*
X76226428Y-92027200D02*
X76254999Y-92084342D01*
X76254999Y-92084342D02*
X76254999Y-92598628D01*
X75826428Y-92598628D02*
X75769285Y-92598628D01*
X75769285Y-92598628D02*
X75712142Y-92570057D01*
X75712142Y-92570057D02*
X75683571Y-92541485D01*
X75683571Y-92541485D02*
X75654999Y-92484342D01*
X75654999Y-92484342D02*
X75626428Y-92370057D01*
X75626428Y-92370057D02*
X75626428Y-92227200D01*
X75626428Y-92227200D02*
X75654999Y-92112914D01*
X75654999Y-92112914D02*
X75683571Y-92055771D01*
X75683571Y-92055771D02*
X75712142Y-92027200D01*
X75712142Y-92027200D02*
X75769285Y-91998628D01*
X75769285Y-91998628D02*
X75826428Y-91998628D01*
X75826428Y-91998628D02*
X75883571Y-92027200D01*
X75883571Y-92027200D02*
X75912142Y-92055771D01*
X75912142Y-92055771D02*
X75940713Y-92112914D01*
X75940713Y-92112914D02*
X75969285Y-92227200D01*
X75969285Y-92227200D02*
X75969285Y-92370057D01*
X75969285Y-92370057D02*
X75940713Y-92484342D01*
X75940713Y-92484342D02*
X75912142Y-92541485D01*
X75912142Y-92541485D02*
X75883571Y-92570057D01*
X75883571Y-92570057D02*
X75826428Y-92598628D01*
X75426427Y-91998628D02*
X75112142Y-92398628D01*
X75426427Y-92398628D02*
X75112142Y-91998628D01*
D12*
X77673999Y-95323179D02*
X77165999Y-94561179D01*
X77165999Y-95323179D02*
X77673999Y-94561179D01*
X78327142Y-88247465D02*
X78218285Y-88211179D01*
X78218285Y-88211179D02*
X78036856Y-88211179D01*
X78036856Y-88211179D02*
X77964285Y-88247465D01*
X77964285Y-88247465D02*
X77927999Y-88283750D01*
X77927999Y-88283750D02*
X77891713Y-88356322D01*
X77891713Y-88356322D02*
X77891713Y-88428893D01*
X77891713Y-88428893D02*
X77927999Y-88501465D01*
X77927999Y-88501465D02*
X77964285Y-88537750D01*
X77964285Y-88537750D02*
X78036856Y-88574036D01*
X78036856Y-88574036D02*
X78181999Y-88610322D01*
X78181999Y-88610322D02*
X78254570Y-88646607D01*
X78254570Y-88646607D02*
X78290856Y-88682893D01*
X78290856Y-88682893D02*
X78327142Y-88755465D01*
X78327142Y-88755465D02*
X78327142Y-88828036D01*
X78327142Y-88828036D02*
X78290856Y-88900607D01*
X78290856Y-88900607D02*
X78254570Y-88936893D01*
X78254570Y-88936893D02*
X78181999Y-88973179D01*
X78181999Y-88973179D02*
X78000570Y-88973179D01*
X78000570Y-88973179D02*
X77891713Y-88936893D01*
X77129713Y-88283750D02*
X77165999Y-88247465D01*
X77165999Y-88247465D02*
X77274856Y-88211179D01*
X77274856Y-88211179D02*
X77347428Y-88211179D01*
X77347428Y-88211179D02*
X77456285Y-88247465D01*
X77456285Y-88247465D02*
X77528856Y-88320036D01*
X77528856Y-88320036D02*
X77565142Y-88392607D01*
X77565142Y-88392607D02*
X77601428Y-88537750D01*
X77601428Y-88537750D02*
X77601428Y-88646607D01*
X77601428Y-88646607D02*
X77565142Y-88791750D01*
X77565142Y-88791750D02*
X77528856Y-88864322D01*
X77528856Y-88864322D02*
X77456285Y-88936893D01*
X77456285Y-88936893D02*
X77347428Y-88973179D01*
X77347428Y-88973179D02*
X77274856Y-88973179D01*
X77274856Y-88973179D02*
X77165999Y-88936893D01*
X77165999Y-88936893D02*
X77129713Y-88900607D01*
X76440285Y-88211179D02*
X76803142Y-88211179D01*
X76803142Y-88211179D02*
X76803142Y-88973179D01*
X74680428Y-95286893D02*
X74753000Y-95323179D01*
X74753000Y-95323179D02*
X74861857Y-95323179D01*
X74861857Y-95323179D02*
X74970714Y-95286893D01*
X74970714Y-95286893D02*
X75043285Y-95214322D01*
X75043285Y-95214322D02*
X75079571Y-95141750D01*
X75079571Y-95141750D02*
X75115857Y-94996607D01*
X75115857Y-94996607D02*
X75115857Y-94887750D01*
X75115857Y-94887750D02*
X75079571Y-94742607D01*
X75079571Y-94742607D02*
X75043285Y-94670036D01*
X75043285Y-94670036D02*
X74970714Y-94597465D01*
X74970714Y-94597465D02*
X74861857Y-94561179D01*
X74861857Y-94561179D02*
X74789285Y-94561179D01*
X74789285Y-94561179D02*
X74680428Y-94597465D01*
X74680428Y-94597465D02*
X74644142Y-94633750D01*
X74644142Y-94633750D02*
X74644142Y-94887750D01*
X74644142Y-94887750D02*
X74789285Y-94887750D01*
X83443427Y-88973179D02*
X82971713Y-88973179D01*
X82971713Y-88973179D02*
X83225713Y-88682893D01*
X83225713Y-88682893D02*
X83116856Y-88682893D01*
X83116856Y-88682893D02*
X83044285Y-88646607D01*
X83044285Y-88646607D02*
X83007999Y-88610322D01*
X83007999Y-88610322D02*
X82971713Y-88537750D01*
X82971713Y-88537750D02*
X82971713Y-88356322D01*
X82971713Y-88356322D02*
X83007999Y-88283750D01*
X83007999Y-88283750D02*
X83044285Y-88247465D01*
X83044285Y-88247465D02*
X83116856Y-88211179D01*
X83116856Y-88211179D02*
X83334570Y-88211179D01*
X83334570Y-88211179D02*
X83407142Y-88247465D01*
X83407142Y-88247465D02*
X83443427Y-88283750D01*
X82753999Y-88973179D02*
X82499999Y-88211179D01*
X82499999Y-88211179D02*
X82245999Y-88973179D01*
X82064570Y-88973179D02*
X81592856Y-88973179D01*
X81592856Y-88973179D02*
X81846856Y-88682893D01*
X81846856Y-88682893D02*
X81737999Y-88682893D01*
X81737999Y-88682893D02*
X81665428Y-88646607D01*
X81665428Y-88646607D02*
X81629142Y-88610322D01*
X81629142Y-88610322D02*
X81592856Y-88537750D01*
X81592856Y-88537750D02*
X81592856Y-88356322D01*
X81592856Y-88356322D02*
X81629142Y-88283750D01*
X81629142Y-88283750D02*
X81665428Y-88247465D01*
X81665428Y-88247465D02*
X81737999Y-88211179D01*
X81737999Y-88211179D02*
X81955713Y-88211179D01*
X81955713Y-88211179D02*
X82028285Y-88247465D01*
X82028285Y-88247465D02*
X82064570Y-88283750D01*
X80540571Y-88936893D02*
X80613143Y-88973179D01*
X80613143Y-88973179D02*
X80722000Y-88973179D01*
X80722000Y-88973179D02*
X80830857Y-88936893D01*
X80830857Y-88936893D02*
X80903428Y-88864322D01*
X80903428Y-88864322D02*
X80939714Y-88791750D01*
X80939714Y-88791750D02*
X80976000Y-88646607D01*
X80976000Y-88646607D02*
X80976000Y-88537750D01*
X80976000Y-88537750D02*
X80939714Y-88392607D01*
X80939714Y-88392607D02*
X80903428Y-88320036D01*
X80903428Y-88320036D02*
X80830857Y-88247465D01*
X80830857Y-88247465D02*
X80722000Y-88211179D01*
X80722000Y-88211179D02*
X80649428Y-88211179D01*
X80649428Y-88211179D02*
X80540571Y-88247465D01*
X80540571Y-88247465D02*
X80504285Y-88283750D01*
X80504285Y-88283750D02*
X80504285Y-88537750D01*
X80504285Y-88537750D02*
X80649428Y-88537750D01*
X80177714Y-88211179D02*
X80177714Y-88973179D01*
X80177714Y-88973179D02*
X79742285Y-88211179D01*
X79742285Y-88211179D02*
X79742285Y-88973179D01*
X79379428Y-88211179D02*
X79379428Y-88973179D01*
X79379428Y-88973179D02*
X79197999Y-88973179D01*
X79197999Y-88973179D02*
X79089142Y-88936893D01*
X79089142Y-88936893D02*
X79016571Y-88864322D01*
X79016571Y-88864322D02*
X78980285Y-88791750D01*
X78980285Y-88791750D02*
X78943999Y-88646607D01*
X78943999Y-88646607D02*
X78943999Y-88537750D01*
X78943999Y-88537750D02*
X78980285Y-88392607D01*
X78980285Y-88392607D02*
X79016571Y-88320036D01*
X79016571Y-88320036D02*
X79089142Y-88247465D01*
X79089142Y-88247465D02*
X79197999Y-88211179D01*
X79197999Y-88211179D02*
X79379428Y-88211179D01*
D11*
X141135714Y-78854819D02*
X140564286Y-78854819D01*
X140850000Y-78854819D02*
X140850000Y-77854819D01*
X140850000Y-77854819D02*
X140754762Y-77997676D01*
X140754762Y-77997676D02*
X140659524Y-78092914D01*
X140659524Y-78092914D02*
X140564286Y-78140533D01*
D12*
X120805285Y-88247465D02*
X120696428Y-88211179D01*
X120696428Y-88211179D02*
X120514999Y-88211179D01*
X120514999Y-88211179D02*
X120442428Y-88247465D01*
X120442428Y-88247465D02*
X120406142Y-88283750D01*
X120406142Y-88283750D02*
X120369856Y-88356322D01*
X120369856Y-88356322D02*
X120369856Y-88428893D01*
X120369856Y-88428893D02*
X120406142Y-88501465D01*
X120406142Y-88501465D02*
X120442428Y-88537750D01*
X120442428Y-88537750D02*
X120514999Y-88574036D01*
X120514999Y-88574036D02*
X120660142Y-88610322D01*
X120660142Y-88610322D02*
X120732713Y-88646607D01*
X120732713Y-88646607D02*
X120768999Y-88682893D01*
X120768999Y-88682893D02*
X120805285Y-88755465D01*
X120805285Y-88755465D02*
X120805285Y-88828036D01*
X120805285Y-88828036D02*
X120768999Y-88900607D01*
X120768999Y-88900607D02*
X120732713Y-88936893D01*
X120732713Y-88936893D02*
X120660142Y-88973179D01*
X120660142Y-88973179D02*
X120478713Y-88973179D01*
X120478713Y-88973179D02*
X120369856Y-88936893D01*
X120043285Y-88211179D02*
X120043285Y-88973179D01*
X120043285Y-88973179D02*
X119861856Y-88973179D01*
X119861856Y-88973179D02*
X119752999Y-88936893D01*
X119752999Y-88936893D02*
X119680428Y-88864322D01*
X119680428Y-88864322D02*
X119644142Y-88791750D01*
X119644142Y-88791750D02*
X119607856Y-88646607D01*
X119607856Y-88646607D02*
X119607856Y-88537750D01*
X119607856Y-88537750D02*
X119644142Y-88392607D01*
X119644142Y-88392607D02*
X119680428Y-88320036D01*
X119680428Y-88320036D02*
X119752999Y-88247465D01*
X119752999Y-88247465D02*
X119861856Y-88211179D01*
X119861856Y-88211179D02*
X120043285Y-88211179D01*
X119317571Y-88428893D02*
X118954714Y-88428893D01*
X119390142Y-88211179D02*
X119136142Y-88973179D01*
X119136142Y-88973179D02*
X118882142Y-88211179D01*
X122673999Y-95323179D02*
X122165999Y-94561179D01*
X122165999Y-95323179D02*
X122673999Y-94561179D01*
X125540571Y-88936893D02*
X125613143Y-88973179D01*
X125613143Y-88973179D02*
X125722000Y-88973179D01*
X125722000Y-88973179D02*
X125830857Y-88936893D01*
X125830857Y-88936893D02*
X125903428Y-88864322D01*
X125903428Y-88864322D02*
X125939714Y-88791750D01*
X125939714Y-88791750D02*
X125976000Y-88646607D01*
X125976000Y-88646607D02*
X125976000Y-88537750D01*
X125976000Y-88537750D02*
X125939714Y-88392607D01*
X125939714Y-88392607D02*
X125903428Y-88320036D01*
X125903428Y-88320036D02*
X125830857Y-88247465D01*
X125830857Y-88247465D02*
X125722000Y-88211179D01*
X125722000Y-88211179D02*
X125649428Y-88211179D01*
X125649428Y-88211179D02*
X125540571Y-88247465D01*
X125540571Y-88247465D02*
X125504285Y-88283750D01*
X125504285Y-88283750D02*
X125504285Y-88537750D01*
X125504285Y-88537750D02*
X125649428Y-88537750D01*
X125177714Y-88211179D02*
X125177714Y-88973179D01*
X125177714Y-88973179D02*
X124742285Y-88211179D01*
X124742285Y-88211179D02*
X124742285Y-88973179D01*
X124379428Y-88211179D02*
X124379428Y-88973179D01*
X124379428Y-88973179D02*
X124197999Y-88973179D01*
X124197999Y-88973179D02*
X124089142Y-88936893D01*
X124089142Y-88936893D02*
X124016571Y-88864322D01*
X124016571Y-88864322D02*
X123980285Y-88791750D01*
X123980285Y-88791750D02*
X123943999Y-88646607D01*
X123943999Y-88646607D02*
X123943999Y-88537750D01*
X123943999Y-88537750D02*
X123980285Y-88392607D01*
X123980285Y-88392607D02*
X124016571Y-88320036D01*
X124016571Y-88320036D02*
X124089142Y-88247465D01*
X124089142Y-88247465D02*
X124197999Y-88211179D01*
X124197999Y-88211179D02*
X124379428Y-88211179D01*
X119680428Y-95286893D02*
X119753000Y-95323179D01*
X119753000Y-95323179D02*
X119861857Y-95323179D01*
X119861857Y-95323179D02*
X119970714Y-95286893D01*
X119970714Y-95286893D02*
X120043285Y-95214322D01*
X120043285Y-95214322D02*
X120079571Y-95141750D01*
X120079571Y-95141750D02*
X120115857Y-94996607D01*
X120115857Y-94996607D02*
X120115857Y-94887750D01*
X120115857Y-94887750D02*
X120079571Y-94742607D01*
X120079571Y-94742607D02*
X120043285Y-94670036D01*
X120043285Y-94670036D02*
X119970714Y-94597465D01*
X119970714Y-94597465D02*
X119861857Y-94561179D01*
X119861857Y-94561179D02*
X119789285Y-94561179D01*
X119789285Y-94561179D02*
X119680428Y-94597465D01*
X119680428Y-94597465D02*
X119644142Y-94633750D01*
X119644142Y-94633750D02*
X119644142Y-94887750D01*
X119644142Y-94887750D02*
X119789285Y-94887750D01*
D13*
X126026429Y-92398628D02*
X125797857Y-92398628D01*
X125940714Y-92598628D02*
X125940714Y-92084342D01*
X125940714Y-92084342D02*
X125912143Y-92027200D01*
X125912143Y-92027200D02*
X125855000Y-91998628D01*
X125855000Y-91998628D02*
X125797857Y-91998628D01*
X125340715Y-92398628D02*
X125340715Y-91998628D01*
X125597857Y-92398628D02*
X125597857Y-92084342D01*
X125597857Y-92084342D02*
X125569286Y-92027200D01*
X125569286Y-92027200D02*
X125512143Y-91998628D01*
X125512143Y-91998628D02*
X125426429Y-91998628D01*
X125426429Y-91998628D02*
X125369286Y-92027200D01*
X125369286Y-92027200D02*
X125340715Y-92055771D01*
X125140715Y-92398628D02*
X124912143Y-92398628D01*
X125055000Y-92598628D02*
X125055000Y-92084342D01*
X125055000Y-92084342D02*
X125026429Y-92027200D01*
X125026429Y-92027200D02*
X124969286Y-91998628D01*
X124969286Y-91998628D02*
X124912143Y-91998628D01*
X124626429Y-91998628D02*
X124683572Y-92027200D01*
X124683572Y-92027200D02*
X124712143Y-92055771D01*
X124712143Y-92055771D02*
X124740715Y-92112914D01*
X124740715Y-92112914D02*
X124740715Y-92284342D01*
X124740715Y-92284342D02*
X124712143Y-92341485D01*
X124712143Y-92341485D02*
X124683572Y-92370057D01*
X124683572Y-92370057D02*
X124626429Y-92398628D01*
X124626429Y-92398628D02*
X124540715Y-92398628D01*
X124540715Y-92398628D02*
X124483572Y-92370057D01*
X124483572Y-92370057D02*
X124455001Y-92341485D01*
X124455001Y-92341485D02*
X124426429Y-92284342D01*
X124426429Y-92284342D02*
X124426429Y-92112914D01*
X124426429Y-92112914D02*
X124455001Y-92055771D01*
X124455001Y-92055771D02*
X124483572Y-92027200D01*
X124483572Y-92027200D02*
X124540715Y-91998628D01*
X124540715Y-91998628D02*
X124626429Y-91998628D01*
X124169286Y-92398628D02*
X124169286Y-91998628D01*
X124169286Y-92341485D02*
X124140715Y-92370057D01*
X124140715Y-92370057D02*
X124083572Y-92398628D01*
X124083572Y-92398628D02*
X123997858Y-92398628D01*
X123997858Y-92398628D02*
X123940715Y-92370057D01*
X123940715Y-92370057D02*
X123912144Y-92312914D01*
X123912144Y-92312914D02*
X123912144Y-91998628D01*
X123769287Y-91941485D02*
X123312144Y-91941485D01*
X123226429Y-92398628D02*
X123083572Y-91998628D01*
X123083572Y-91998628D02*
X122940715Y-92398628D01*
X122626429Y-91998628D02*
X122683572Y-92027200D01*
X122683572Y-92027200D02*
X122712143Y-92084342D01*
X122712143Y-92084342D02*
X122712143Y-92598628D01*
X122112143Y-92598628D02*
X122397857Y-92598628D01*
X122397857Y-92598628D02*
X122426429Y-92312914D01*
X122426429Y-92312914D02*
X122397857Y-92341485D01*
X122397857Y-92341485D02*
X122340715Y-92370057D01*
X122340715Y-92370057D02*
X122197857Y-92370057D01*
X122197857Y-92370057D02*
X122140715Y-92341485D01*
X122140715Y-92341485D02*
X122112143Y-92312914D01*
X122112143Y-92312914D02*
X122083572Y-92255771D01*
X122083572Y-92255771D02*
X122083572Y-92112914D01*
X122083572Y-92112914D02*
X122112143Y-92055771D01*
X122112143Y-92055771D02*
X122140715Y-92027200D01*
X122140715Y-92027200D02*
X122197857Y-91998628D01*
X122197857Y-91998628D02*
X122340715Y-91998628D01*
X122340715Y-91998628D02*
X122397857Y-92027200D01*
X122397857Y-92027200D02*
X122426429Y-92055771D01*
X121883571Y-92598628D02*
X121512143Y-92598628D01*
X121512143Y-92598628D02*
X121712143Y-92370057D01*
X121712143Y-92370057D02*
X121626428Y-92370057D01*
X121626428Y-92370057D02*
X121569286Y-92341485D01*
X121569286Y-92341485D02*
X121540714Y-92312914D01*
X121540714Y-92312914D02*
X121512143Y-92255771D01*
X121512143Y-92255771D02*
X121512143Y-92112914D01*
X121512143Y-92112914D02*
X121540714Y-92055771D01*
X121540714Y-92055771D02*
X121569286Y-92027200D01*
X121569286Y-92027200D02*
X121626428Y-91998628D01*
X121626428Y-91998628D02*
X121797857Y-91998628D01*
X121797857Y-91998628D02*
X121855000Y-92027200D01*
X121855000Y-92027200D02*
X121883571Y-92055771D01*
X121169285Y-91998628D02*
X121226428Y-92027200D01*
X121226428Y-92027200D02*
X121254999Y-92084342D01*
X121254999Y-92084342D02*
X121254999Y-92598628D01*
X120826428Y-92598628D02*
X120769285Y-92598628D01*
X120769285Y-92598628D02*
X120712142Y-92570057D01*
X120712142Y-92570057D02*
X120683571Y-92541485D01*
X120683571Y-92541485D02*
X120654999Y-92484342D01*
X120654999Y-92484342D02*
X120626428Y-92370057D01*
X120626428Y-92370057D02*
X120626428Y-92227200D01*
X120626428Y-92227200D02*
X120654999Y-92112914D01*
X120654999Y-92112914D02*
X120683571Y-92055771D01*
X120683571Y-92055771D02*
X120712142Y-92027200D01*
X120712142Y-92027200D02*
X120769285Y-91998628D01*
X120769285Y-91998628D02*
X120826428Y-91998628D01*
X120826428Y-91998628D02*
X120883571Y-92027200D01*
X120883571Y-92027200D02*
X120912142Y-92055771D01*
X120912142Y-92055771D02*
X120940713Y-92112914D01*
X120940713Y-92112914D02*
X120969285Y-92227200D01*
X120969285Y-92227200D02*
X120969285Y-92370057D01*
X120969285Y-92370057D02*
X120940713Y-92484342D01*
X120940713Y-92484342D02*
X120912142Y-92541485D01*
X120912142Y-92541485D02*
X120883571Y-92570057D01*
X120883571Y-92570057D02*
X120826428Y-92598628D01*
X120426427Y-91998628D02*
X120112142Y-92398628D01*
X120426427Y-92398628D02*
X120112142Y-91998628D01*
D12*
X123327142Y-88247465D02*
X123218285Y-88211179D01*
X123218285Y-88211179D02*
X123036856Y-88211179D01*
X123036856Y-88211179D02*
X122964285Y-88247465D01*
X122964285Y-88247465D02*
X122927999Y-88283750D01*
X122927999Y-88283750D02*
X122891713Y-88356322D01*
X122891713Y-88356322D02*
X122891713Y-88428893D01*
X122891713Y-88428893D02*
X122927999Y-88501465D01*
X122927999Y-88501465D02*
X122964285Y-88537750D01*
X122964285Y-88537750D02*
X123036856Y-88574036D01*
X123036856Y-88574036D02*
X123181999Y-88610322D01*
X123181999Y-88610322D02*
X123254570Y-88646607D01*
X123254570Y-88646607D02*
X123290856Y-88682893D01*
X123290856Y-88682893D02*
X123327142Y-88755465D01*
X123327142Y-88755465D02*
X123327142Y-88828036D01*
X123327142Y-88828036D02*
X123290856Y-88900607D01*
X123290856Y-88900607D02*
X123254570Y-88936893D01*
X123254570Y-88936893D02*
X123181999Y-88973179D01*
X123181999Y-88973179D02*
X123000570Y-88973179D01*
X123000570Y-88973179D02*
X122891713Y-88936893D01*
X122129713Y-88283750D02*
X122165999Y-88247465D01*
X122165999Y-88247465D02*
X122274856Y-88211179D01*
X122274856Y-88211179D02*
X122347428Y-88211179D01*
X122347428Y-88211179D02*
X122456285Y-88247465D01*
X122456285Y-88247465D02*
X122528856Y-88320036D01*
X122528856Y-88320036D02*
X122565142Y-88392607D01*
X122565142Y-88392607D02*
X122601428Y-88537750D01*
X122601428Y-88537750D02*
X122601428Y-88646607D01*
X122601428Y-88646607D02*
X122565142Y-88791750D01*
X122565142Y-88791750D02*
X122528856Y-88864322D01*
X122528856Y-88864322D02*
X122456285Y-88936893D01*
X122456285Y-88936893D02*
X122347428Y-88973179D01*
X122347428Y-88973179D02*
X122274856Y-88973179D01*
X122274856Y-88973179D02*
X122165999Y-88936893D01*
X122165999Y-88936893D02*
X122129713Y-88900607D01*
X121440285Y-88211179D02*
X121803142Y-88211179D01*
X121803142Y-88211179D02*
X121803142Y-88973179D01*
X128352713Y-88973179D02*
X127880999Y-88973179D01*
X127880999Y-88973179D02*
X128171285Y-88682893D01*
X128171285Y-88682893D02*
X128062427Y-88682893D01*
X128062427Y-88682893D02*
X127994392Y-88646607D01*
X127994392Y-88646607D02*
X127962642Y-88610322D01*
X127962642Y-88610322D02*
X127935427Y-88537750D01*
X127935427Y-88537750D02*
X127958106Y-88356322D01*
X127958106Y-88356322D02*
X128003463Y-88283750D01*
X128003463Y-88283750D02*
X128044285Y-88247465D01*
X128044285Y-88247465D02*
X128121392Y-88211179D01*
X128121392Y-88211179D02*
X128339106Y-88211179D01*
X128339106Y-88211179D02*
X128407142Y-88247465D01*
X128407142Y-88247465D02*
X128438892Y-88283750D01*
X127663285Y-88973179D02*
X127504535Y-88211179D01*
X127504535Y-88211179D02*
X127155285Y-88973179D01*
X126973856Y-88973179D02*
X126502142Y-88973179D01*
X126502142Y-88973179D02*
X126792428Y-88682893D01*
X126792428Y-88682893D02*
X126683570Y-88682893D01*
X126683570Y-88682893D02*
X126615535Y-88646607D01*
X126615535Y-88646607D02*
X126583785Y-88610322D01*
X126583785Y-88610322D02*
X126556570Y-88537750D01*
X126556570Y-88537750D02*
X126579249Y-88356322D01*
X126579249Y-88356322D02*
X126624606Y-88283750D01*
X126624606Y-88283750D02*
X126665428Y-88247465D01*
X126665428Y-88247465D02*
X126742535Y-88211179D01*
X126742535Y-88211179D02*
X126960249Y-88211179D01*
X126960249Y-88211179D02*
X127028285Y-88247465D01*
X127028285Y-88247465D02*
X127060035Y-88283750D01*
D11*
X96135714Y-78854819D02*
X95564286Y-78854819D01*
X95850000Y-78854819D02*
X95850000Y-77854819D01*
X95850000Y-77854819D02*
X95754762Y-77997676D01*
X95754762Y-77997676D02*
X95659524Y-78092914D01*
X95659524Y-78092914D02*
X95564286Y-78140533D01*
D13*
X103526429Y-92398628D02*
X103297857Y-92398628D01*
X103440714Y-92598628D02*
X103440714Y-92084342D01*
X103440714Y-92084342D02*
X103412143Y-92027200D01*
X103412143Y-92027200D02*
X103355000Y-91998628D01*
X103355000Y-91998628D02*
X103297857Y-91998628D01*
X102840715Y-92398628D02*
X102840715Y-91998628D01*
X103097857Y-92398628D02*
X103097857Y-92084342D01*
X103097857Y-92084342D02*
X103069286Y-92027200D01*
X103069286Y-92027200D02*
X103012143Y-91998628D01*
X103012143Y-91998628D02*
X102926429Y-91998628D01*
X102926429Y-91998628D02*
X102869286Y-92027200D01*
X102869286Y-92027200D02*
X102840715Y-92055771D01*
X102640715Y-92398628D02*
X102412143Y-92398628D01*
X102555000Y-92598628D02*
X102555000Y-92084342D01*
X102555000Y-92084342D02*
X102526429Y-92027200D01*
X102526429Y-92027200D02*
X102469286Y-91998628D01*
X102469286Y-91998628D02*
X102412143Y-91998628D01*
X102126429Y-91998628D02*
X102183572Y-92027200D01*
X102183572Y-92027200D02*
X102212143Y-92055771D01*
X102212143Y-92055771D02*
X102240715Y-92112914D01*
X102240715Y-92112914D02*
X102240715Y-92284342D01*
X102240715Y-92284342D02*
X102212143Y-92341485D01*
X102212143Y-92341485D02*
X102183572Y-92370057D01*
X102183572Y-92370057D02*
X102126429Y-92398628D01*
X102126429Y-92398628D02*
X102040715Y-92398628D01*
X102040715Y-92398628D02*
X101983572Y-92370057D01*
X101983572Y-92370057D02*
X101955001Y-92341485D01*
X101955001Y-92341485D02*
X101926429Y-92284342D01*
X101926429Y-92284342D02*
X101926429Y-92112914D01*
X101926429Y-92112914D02*
X101955001Y-92055771D01*
X101955001Y-92055771D02*
X101983572Y-92027200D01*
X101983572Y-92027200D02*
X102040715Y-91998628D01*
X102040715Y-91998628D02*
X102126429Y-91998628D01*
X101669286Y-92398628D02*
X101669286Y-91998628D01*
X101669286Y-92341485D02*
X101640715Y-92370057D01*
X101640715Y-92370057D02*
X101583572Y-92398628D01*
X101583572Y-92398628D02*
X101497858Y-92398628D01*
X101497858Y-92398628D02*
X101440715Y-92370057D01*
X101440715Y-92370057D02*
X101412144Y-92312914D01*
X101412144Y-92312914D02*
X101412144Y-91998628D01*
X101269287Y-91941485D02*
X100812144Y-91941485D01*
X100726429Y-92398628D02*
X100583572Y-91998628D01*
X100583572Y-91998628D02*
X100440715Y-92398628D01*
X100126429Y-91998628D02*
X100183572Y-92027200D01*
X100183572Y-92027200D02*
X100212143Y-92084342D01*
X100212143Y-92084342D02*
X100212143Y-92598628D01*
X99612143Y-92598628D02*
X99897857Y-92598628D01*
X99897857Y-92598628D02*
X99926429Y-92312914D01*
X99926429Y-92312914D02*
X99897857Y-92341485D01*
X99897857Y-92341485D02*
X99840715Y-92370057D01*
X99840715Y-92370057D02*
X99697857Y-92370057D01*
X99697857Y-92370057D02*
X99640715Y-92341485D01*
X99640715Y-92341485D02*
X99612143Y-92312914D01*
X99612143Y-92312914D02*
X99583572Y-92255771D01*
X99583572Y-92255771D02*
X99583572Y-92112914D01*
X99583572Y-92112914D02*
X99612143Y-92055771D01*
X99612143Y-92055771D02*
X99640715Y-92027200D01*
X99640715Y-92027200D02*
X99697857Y-91998628D01*
X99697857Y-91998628D02*
X99840715Y-91998628D01*
X99840715Y-91998628D02*
X99897857Y-92027200D01*
X99897857Y-92027200D02*
X99926429Y-92055771D01*
X99383571Y-92598628D02*
X99012143Y-92598628D01*
X99012143Y-92598628D02*
X99212143Y-92370057D01*
X99212143Y-92370057D02*
X99126428Y-92370057D01*
X99126428Y-92370057D02*
X99069286Y-92341485D01*
X99069286Y-92341485D02*
X99040714Y-92312914D01*
X99040714Y-92312914D02*
X99012143Y-92255771D01*
X99012143Y-92255771D02*
X99012143Y-92112914D01*
X99012143Y-92112914D02*
X99040714Y-92055771D01*
X99040714Y-92055771D02*
X99069286Y-92027200D01*
X99069286Y-92027200D02*
X99126428Y-91998628D01*
X99126428Y-91998628D02*
X99297857Y-91998628D01*
X99297857Y-91998628D02*
X99355000Y-92027200D01*
X99355000Y-92027200D02*
X99383571Y-92055771D01*
X98669285Y-91998628D02*
X98726428Y-92027200D01*
X98726428Y-92027200D02*
X98754999Y-92084342D01*
X98754999Y-92084342D02*
X98754999Y-92598628D01*
X98326428Y-92598628D02*
X98269285Y-92598628D01*
X98269285Y-92598628D02*
X98212142Y-92570057D01*
X98212142Y-92570057D02*
X98183571Y-92541485D01*
X98183571Y-92541485D02*
X98154999Y-92484342D01*
X98154999Y-92484342D02*
X98126428Y-92370057D01*
X98126428Y-92370057D02*
X98126428Y-92227200D01*
X98126428Y-92227200D02*
X98154999Y-92112914D01*
X98154999Y-92112914D02*
X98183571Y-92055771D01*
X98183571Y-92055771D02*
X98212142Y-92027200D01*
X98212142Y-92027200D02*
X98269285Y-91998628D01*
X98269285Y-91998628D02*
X98326428Y-91998628D01*
X98326428Y-91998628D02*
X98383571Y-92027200D01*
X98383571Y-92027200D02*
X98412142Y-92055771D01*
X98412142Y-92055771D02*
X98440713Y-92112914D01*
X98440713Y-92112914D02*
X98469285Y-92227200D01*
X98469285Y-92227200D02*
X98469285Y-92370057D01*
X98469285Y-92370057D02*
X98440713Y-92484342D01*
X98440713Y-92484342D02*
X98412142Y-92541485D01*
X98412142Y-92541485D02*
X98383571Y-92570057D01*
X98383571Y-92570057D02*
X98326428Y-92598628D01*
X97926427Y-91998628D02*
X97612142Y-92398628D01*
X97926427Y-92398628D02*
X97612142Y-91998628D01*
D12*
X100827142Y-88247465D02*
X100718285Y-88211179D01*
X100718285Y-88211179D02*
X100536856Y-88211179D01*
X100536856Y-88211179D02*
X100464285Y-88247465D01*
X100464285Y-88247465D02*
X100427999Y-88283750D01*
X100427999Y-88283750D02*
X100391713Y-88356322D01*
X100391713Y-88356322D02*
X100391713Y-88428893D01*
X100391713Y-88428893D02*
X100427999Y-88501465D01*
X100427999Y-88501465D02*
X100464285Y-88537750D01*
X100464285Y-88537750D02*
X100536856Y-88574036D01*
X100536856Y-88574036D02*
X100681999Y-88610322D01*
X100681999Y-88610322D02*
X100754570Y-88646607D01*
X100754570Y-88646607D02*
X100790856Y-88682893D01*
X100790856Y-88682893D02*
X100827142Y-88755465D01*
X100827142Y-88755465D02*
X100827142Y-88828036D01*
X100827142Y-88828036D02*
X100790856Y-88900607D01*
X100790856Y-88900607D02*
X100754570Y-88936893D01*
X100754570Y-88936893D02*
X100681999Y-88973179D01*
X100681999Y-88973179D02*
X100500570Y-88973179D01*
X100500570Y-88973179D02*
X100391713Y-88936893D01*
X99629713Y-88283750D02*
X99665999Y-88247465D01*
X99665999Y-88247465D02*
X99774856Y-88211179D01*
X99774856Y-88211179D02*
X99847428Y-88211179D01*
X99847428Y-88211179D02*
X99956285Y-88247465D01*
X99956285Y-88247465D02*
X100028856Y-88320036D01*
X100028856Y-88320036D02*
X100065142Y-88392607D01*
X100065142Y-88392607D02*
X100101428Y-88537750D01*
X100101428Y-88537750D02*
X100101428Y-88646607D01*
X100101428Y-88646607D02*
X100065142Y-88791750D01*
X100065142Y-88791750D02*
X100028856Y-88864322D01*
X100028856Y-88864322D02*
X99956285Y-88936893D01*
X99956285Y-88936893D02*
X99847428Y-88973179D01*
X99847428Y-88973179D02*
X99774856Y-88973179D01*
X99774856Y-88973179D02*
X99665999Y-88936893D01*
X99665999Y-88936893D02*
X99629713Y-88900607D01*
X98940285Y-88211179D02*
X99303142Y-88211179D01*
X99303142Y-88211179D02*
X99303142Y-88973179D01*
X97180428Y-95286893D02*
X97253000Y-95323179D01*
X97253000Y-95323179D02*
X97361857Y-95323179D01*
X97361857Y-95323179D02*
X97470714Y-95286893D01*
X97470714Y-95286893D02*
X97543285Y-95214322D01*
X97543285Y-95214322D02*
X97579571Y-95141750D01*
X97579571Y-95141750D02*
X97615857Y-94996607D01*
X97615857Y-94996607D02*
X97615857Y-94887750D01*
X97615857Y-94887750D02*
X97579571Y-94742607D01*
X97579571Y-94742607D02*
X97543285Y-94670036D01*
X97543285Y-94670036D02*
X97470714Y-94597465D01*
X97470714Y-94597465D02*
X97361857Y-94561179D01*
X97361857Y-94561179D02*
X97289285Y-94561179D01*
X97289285Y-94561179D02*
X97180428Y-94597465D01*
X97180428Y-94597465D02*
X97144142Y-94633750D01*
X97144142Y-94633750D02*
X97144142Y-94887750D01*
X97144142Y-94887750D02*
X97289285Y-94887750D01*
X103040571Y-88936893D02*
X103113143Y-88973179D01*
X103113143Y-88973179D02*
X103222000Y-88973179D01*
X103222000Y-88973179D02*
X103330857Y-88936893D01*
X103330857Y-88936893D02*
X103403428Y-88864322D01*
X103403428Y-88864322D02*
X103439714Y-88791750D01*
X103439714Y-88791750D02*
X103476000Y-88646607D01*
X103476000Y-88646607D02*
X103476000Y-88537750D01*
X103476000Y-88537750D02*
X103439714Y-88392607D01*
X103439714Y-88392607D02*
X103403428Y-88320036D01*
X103403428Y-88320036D02*
X103330857Y-88247465D01*
X103330857Y-88247465D02*
X103222000Y-88211179D01*
X103222000Y-88211179D02*
X103149428Y-88211179D01*
X103149428Y-88211179D02*
X103040571Y-88247465D01*
X103040571Y-88247465D02*
X103004285Y-88283750D01*
X103004285Y-88283750D02*
X103004285Y-88537750D01*
X103004285Y-88537750D02*
X103149428Y-88537750D01*
X102677714Y-88211179D02*
X102677714Y-88973179D01*
X102677714Y-88973179D02*
X102242285Y-88211179D01*
X102242285Y-88211179D02*
X102242285Y-88973179D01*
X101879428Y-88211179D02*
X101879428Y-88973179D01*
X101879428Y-88973179D02*
X101697999Y-88973179D01*
X101697999Y-88973179D02*
X101589142Y-88936893D01*
X101589142Y-88936893D02*
X101516571Y-88864322D01*
X101516571Y-88864322D02*
X101480285Y-88791750D01*
X101480285Y-88791750D02*
X101443999Y-88646607D01*
X101443999Y-88646607D02*
X101443999Y-88537750D01*
X101443999Y-88537750D02*
X101480285Y-88392607D01*
X101480285Y-88392607D02*
X101516571Y-88320036D01*
X101516571Y-88320036D02*
X101589142Y-88247465D01*
X101589142Y-88247465D02*
X101697999Y-88211179D01*
X101697999Y-88211179D02*
X101879428Y-88211179D01*
X105943427Y-88973179D02*
X105471713Y-88973179D01*
X105471713Y-88973179D02*
X105725713Y-88682893D01*
X105725713Y-88682893D02*
X105616856Y-88682893D01*
X105616856Y-88682893D02*
X105544285Y-88646607D01*
X105544285Y-88646607D02*
X105507999Y-88610322D01*
X105507999Y-88610322D02*
X105471713Y-88537750D01*
X105471713Y-88537750D02*
X105471713Y-88356322D01*
X105471713Y-88356322D02*
X105507999Y-88283750D01*
X105507999Y-88283750D02*
X105544285Y-88247465D01*
X105544285Y-88247465D02*
X105616856Y-88211179D01*
X105616856Y-88211179D02*
X105834570Y-88211179D01*
X105834570Y-88211179D02*
X105907142Y-88247465D01*
X105907142Y-88247465D02*
X105943427Y-88283750D01*
X105253999Y-88973179D02*
X104999999Y-88211179D01*
X104999999Y-88211179D02*
X104745999Y-88973179D01*
X104564570Y-88973179D02*
X104092856Y-88973179D01*
X104092856Y-88973179D02*
X104346856Y-88682893D01*
X104346856Y-88682893D02*
X104237999Y-88682893D01*
X104237999Y-88682893D02*
X104165428Y-88646607D01*
X104165428Y-88646607D02*
X104129142Y-88610322D01*
X104129142Y-88610322D02*
X104092856Y-88537750D01*
X104092856Y-88537750D02*
X104092856Y-88356322D01*
X104092856Y-88356322D02*
X104129142Y-88283750D01*
X104129142Y-88283750D02*
X104165428Y-88247465D01*
X104165428Y-88247465D02*
X104237999Y-88211179D01*
X104237999Y-88211179D02*
X104455713Y-88211179D01*
X104455713Y-88211179D02*
X104528285Y-88247465D01*
X104528285Y-88247465D02*
X104564570Y-88283750D01*
X100173999Y-95323179D02*
X99665999Y-94561179D01*
X99665999Y-95323179D02*
X100173999Y-94561179D01*
X98305285Y-88247465D02*
X98196428Y-88211179D01*
X98196428Y-88211179D02*
X98014999Y-88211179D01*
X98014999Y-88211179D02*
X97942428Y-88247465D01*
X97942428Y-88247465D02*
X97906142Y-88283750D01*
X97906142Y-88283750D02*
X97869856Y-88356322D01*
X97869856Y-88356322D02*
X97869856Y-88428893D01*
X97869856Y-88428893D02*
X97906142Y-88501465D01*
X97906142Y-88501465D02*
X97942428Y-88537750D01*
X97942428Y-88537750D02*
X98014999Y-88574036D01*
X98014999Y-88574036D02*
X98160142Y-88610322D01*
X98160142Y-88610322D02*
X98232713Y-88646607D01*
X98232713Y-88646607D02*
X98268999Y-88682893D01*
X98268999Y-88682893D02*
X98305285Y-88755465D01*
X98305285Y-88755465D02*
X98305285Y-88828036D01*
X98305285Y-88828036D02*
X98268999Y-88900607D01*
X98268999Y-88900607D02*
X98232713Y-88936893D01*
X98232713Y-88936893D02*
X98160142Y-88973179D01*
X98160142Y-88973179D02*
X97978713Y-88973179D01*
X97978713Y-88973179D02*
X97869856Y-88936893D01*
X97543285Y-88211179D02*
X97543285Y-88973179D01*
X97543285Y-88973179D02*
X97361856Y-88973179D01*
X97361856Y-88973179D02*
X97252999Y-88936893D01*
X97252999Y-88936893D02*
X97180428Y-88864322D01*
X97180428Y-88864322D02*
X97144142Y-88791750D01*
X97144142Y-88791750D02*
X97107856Y-88646607D01*
X97107856Y-88646607D02*
X97107856Y-88537750D01*
X97107856Y-88537750D02*
X97144142Y-88392607D01*
X97144142Y-88392607D02*
X97180428Y-88320036D01*
X97180428Y-88320036D02*
X97252999Y-88247465D01*
X97252999Y-88247465D02*
X97361856Y-88211179D01*
X97361856Y-88211179D02*
X97543285Y-88211179D01*
X96817571Y-88428893D02*
X96454714Y-88428893D01*
X96890142Y-88211179D02*
X96636142Y-88973179D01*
X96636142Y-88973179D02*
X96382142Y-88211179D01*
D13*
X59336429Y-92398628D02*
X59107857Y-92398628D01*
X59250714Y-92598628D02*
X59250714Y-92084342D01*
X59250714Y-92084342D02*
X59222143Y-92027200D01*
X59222143Y-92027200D02*
X59165000Y-91998628D01*
X59165000Y-91998628D02*
X59107857Y-91998628D01*
X58650715Y-92398628D02*
X58650715Y-91998628D01*
X58907857Y-92398628D02*
X58907857Y-92084342D01*
X58907857Y-92084342D02*
X58879286Y-92027200D01*
X58879286Y-92027200D02*
X58822143Y-91998628D01*
X58822143Y-91998628D02*
X58736429Y-91998628D01*
X58736429Y-91998628D02*
X58679286Y-92027200D01*
X58679286Y-92027200D02*
X58650715Y-92055771D01*
X58450715Y-92398628D02*
X58222143Y-92398628D01*
X58365000Y-92598628D02*
X58365000Y-92084342D01*
X58365000Y-92084342D02*
X58336429Y-92027200D01*
X58336429Y-92027200D02*
X58279286Y-91998628D01*
X58279286Y-91998628D02*
X58222143Y-91998628D01*
X57936429Y-91998628D02*
X57993572Y-92027200D01*
X57993572Y-92027200D02*
X58022143Y-92055771D01*
X58022143Y-92055771D02*
X58050715Y-92112914D01*
X58050715Y-92112914D02*
X58050715Y-92284342D01*
X58050715Y-92284342D02*
X58022143Y-92341485D01*
X58022143Y-92341485D02*
X57993572Y-92370057D01*
X57993572Y-92370057D02*
X57936429Y-92398628D01*
X57936429Y-92398628D02*
X57850715Y-92398628D01*
X57850715Y-92398628D02*
X57793572Y-92370057D01*
X57793572Y-92370057D02*
X57765001Y-92341485D01*
X57765001Y-92341485D02*
X57736429Y-92284342D01*
X57736429Y-92284342D02*
X57736429Y-92112914D01*
X57736429Y-92112914D02*
X57765001Y-92055771D01*
X57765001Y-92055771D02*
X57793572Y-92027200D01*
X57793572Y-92027200D02*
X57850715Y-91998628D01*
X57850715Y-91998628D02*
X57936429Y-91998628D01*
X57479286Y-92398628D02*
X57479286Y-91998628D01*
X57479286Y-92341485D02*
X57450715Y-92370057D01*
X57450715Y-92370057D02*
X57393572Y-92398628D01*
X57393572Y-92398628D02*
X57307858Y-92398628D01*
X57307858Y-92398628D02*
X57250715Y-92370057D01*
X57250715Y-92370057D02*
X57222144Y-92312914D01*
X57222144Y-92312914D02*
X57222144Y-91998628D01*
X57079287Y-91941485D02*
X56622144Y-91941485D01*
X56536429Y-92398628D02*
X56393572Y-91998628D01*
X56393572Y-91998628D02*
X56250715Y-92398628D01*
X55936429Y-91998628D02*
X55993572Y-92027200D01*
X55993572Y-92027200D02*
X56022143Y-92084342D01*
X56022143Y-92084342D02*
X56022143Y-92598628D01*
X55422143Y-92598628D02*
X55707857Y-92598628D01*
X55707857Y-92598628D02*
X55736429Y-92312914D01*
X55736429Y-92312914D02*
X55707857Y-92341485D01*
X55707857Y-92341485D02*
X55650715Y-92370057D01*
X55650715Y-92370057D02*
X55507857Y-92370057D01*
X55507857Y-92370057D02*
X55450715Y-92341485D01*
X55450715Y-92341485D02*
X55422143Y-92312914D01*
X55422143Y-92312914D02*
X55393572Y-92255771D01*
X55393572Y-92255771D02*
X55393572Y-92112914D01*
X55393572Y-92112914D02*
X55422143Y-92055771D01*
X55422143Y-92055771D02*
X55450715Y-92027200D01*
X55450715Y-92027200D02*
X55507857Y-91998628D01*
X55507857Y-91998628D02*
X55650715Y-91998628D01*
X55650715Y-91998628D02*
X55707857Y-92027200D01*
X55707857Y-92027200D02*
X55736429Y-92055771D01*
X55193571Y-92598628D02*
X54822143Y-92598628D01*
X54822143Y-92598628D02*
X55022143Y-92370057D01*
X55022143Y-92370057D02*
X54936428Y-92370057D01*
X54936428Y-92370057D02*
X54879286Y-92341485D01*
X54879286Y-92341485D02*
X54850714Y-92312914D01*
X54850714Y-92312914D02*
X54822143Y-92255771D01*
X54822143Y-92255771D02*
X54822143Y-92112914D01*
X54822143Y-92112914D02*
X54850714Y-92055771D01*
X54850714Y-92055771D02*
X54879286Y-92027200D01*
X54879286Y-92027200D02*
X54936428Y-91998628D01*
X54936428Y-91998628D02*
X55107857Y-91998628D01*
X55107857Y-91998628D02*
X55165000Y-92027200D01*
X55165000Y-92027200D02*
X55193571Y-92055771D01*
X54479285Y-91998628D02*
X54536428Y-92027200D01*
X54536428Y-92027200D02*
X54564999Y-92084342D01*
X54564999Y-92084342D02*
X54564999Y-92598628D01*
X54136428Y-92598628D02*
X54079285Y-92598628D01*
X54079285Y-92598628D02*
X54022142Y-92570057D01*
X54022142Y-92570057D02*
X53993571Y-92541485D01*
X53993571Y-92541485D02*
X53964999Y-92484342D01*
X53964999Y-92484342D02*
X53936428Y-92370057D01*
X53936428Y-92370057D02*
X53936428Y-92227200D01*
X53936428Y-92227200D02*
X53964999Y-92112914D01*
X53964999Y-92112914D02*
X53993571Y-92055771D01*
X53993571Y-92055771D02*
X54022142Y-92027200D01*
X54022142Y-92027200D02*
X54079285Y-91998628D01*
X54079285Y-91998628D02*
X54136428Y-91998628D01*
X54136428Y-91998628D02*
X54193571Y-92027200D01*
X54193571Y-92027200D02*
X54222142Y-92055771D01*
X54222142Y-92055771D02*
X54250713Y-92112914D01*
X54250713Y-92112914D02*
X54279285Y-92227200D01*
X54279285Y-92227200D02*
X54279285Y-92370057D01*
X54279285Y-92370057D02*
X54250713Y-92484342D01*
X54250713Y-92484342D02*
X54222142Y-92541485D01*
X54222142Y-92541485D02*
X54193571Y-92570057D01*
X54193571Y-92570057D02*
X54136428Y-92598628D01*
X53736427Y-91998628D02*
X53422142Y-92398628D01*
X53736427Y-92398628D02*
X53422142Y-91998628D01*
D12*
X61753427Y-88973179D02*
X61281713Y-88973179D01*
X61281713Y-88973179D02*
X61535713Y-88682893D01*
X61535713Y-88682893D02*
X61426856Y-88682893D01*
X61426856Y-88682893D02*
X61354285Y-88646607D01*
X61354285Y-88646607D02*
X61317999Y-88610322D01*
X61317999Y-88610322D02*
X61281713Y-88537750D01*
X61281713Y-88537750D02*
X61281713Y-88356322D01*
X61281713Y-88356322D02*
X61317999Y-88283750D01*
X61317999Y-88283750D02*
X61354285Y-88247465D01*
X61354285Y-88247465D02*
X61426856Y-88211179D01*
X61426856Y-88211179D02*
X61644570Y-88211179D01*
X61644570Y-88211179D02*
X61717142Y-88247465D01*
X61717142Y-88247465D02*
X61753427Y-88283750D01*
X61063999Y-88973179D02*
X60809999Y-88211179D01*
X60809999Y-88211179D02*
X60555999Y-88973179D01*
X60374570Y-88973179D02*
X59902856Y-88973179D01*
X59902856Y-88973179D02*
X60156856Y-88682893D01*
X60156856Y-88682893D02*
X60047999Y-88682893D01*
X60047999Y-88682893D02*
X59975428Y-88646607D01*
X59975428Y-88646607D02*
X59939142Y-88610322D01*
X59939142Y-88610322D02*
X59902856Y-88537750D01*
X59902856Y-88537750D02*
X59902856Y-88356322D01*
X59902856Y-88356322D02*
X59939142Y-88283750D01*
X59939142Y-88283750D02*
X59975428Y-88247465D01*
X59975428Y-88247465D02*
X60047999Y-88211179D01*
X60047999Y-88211179D02*
X60265713Y-88211179D01*
X60265713Y-88211179D02*
X60338285Y-88247465D01*
X60338285Y-88247465D02*
X60374570Y-88283750D01*
X58850571Y-88936893D02*
X58923143Y-88973179D01*
X58923143Y-88973179D02*
X59032000Y-88973179D01*
X59032000Y-88973179D02*
X59140857Y-88936893D01*
X59140857Y-88936893D02*
X59213428Y-88864322D01*
X59213428Y-88864322D02*
X59249714Y-88791750D01*
X59249714Y-88791750D02*
X59286000Y-88646607D01*
X59286000Y-88646607D02*
X59286000Y-88537750D01*
X59286000Y-88537750D02*
X59249714Y-88392607D01*
X59249714Y-88392607D02*
X59213428Y-88320036D01*
X59213428Y-88320036D02*
X59140857Y-88247465D01*
X59140857Y-88247465D02*
X59032000Y-88211179D01*
X59032000Y-88211179D02*
X58959428Y-88211179D01*
X58959428Y-88211179D02*
X58850571Y-88247465D01*
X58850571Y-88247465D02*
X58814285Y-88283750D01*
X58814285Y-88283750D02*
X58814285Y-88537750D01*
X58814285Y-88537750D02*
X58959428Y-88537750D01*
X58487714Y-88211179D02*
X58487714Y-88973179D01*
X58487714Y-88973179D02*
X58052285Y-88211179D01*
X58052285Y-88211179D02*
X58052285Y-88973179D01*
X57689428Y-88211179D02*
X57689428Y-88973179D01*
X57689428Y-88973179D02*
X57507999Y-88973179D01*
X57507999Y-88973179D02*
X57399142Y-88936893D01*
X57399142Y-88936893D02*
X57326571Y-88864322D01*
X57326571Y-88864322D02*
X57290285Y-88791750D01*
X57290285Y-88791750D02*
X57253999Y-88646607D01*
X57253999Y-88646607D02*
X57253999Y-88537750D01*
X57253999Y-88537750D02*
X57290285Y-88392607D01*
X57290285Y-88392607D02*
X57326571Y-88320036D01*
X57326571Y-88320036D02*
X57399142Y-88247465D01*
X57399142Y-88247465D02*
X57507999Y-88211179D01*
X57507999Y-88211179D02*
X57689428Y-88211179D01*
X54115285Y-88247465D02*
X54006428Y-88211179D01*
X54006428Y-88211179D02*
X53824999Y-88211179D01*
X53824999Y-88211179D02*
X53752428Y-88247465D01*
X53752428Y-88247465D02*
X53716142Y-88283750D01*
X53716142Y-88283750D02*
X53679856Y-88356322D01*
X53679856Y-88356322D02*
X53679856Y-88428893D01*
X53679856Y-88428893D02*
X53716142Y-88501465D01*
X53716142Y-88501465D02*
X53752428Y-88537750D01*
X53752428Y-88537750D02*
X53824999Y-88574036D01*
X53824999Y-88574036D02*
X53970142Y-88610322D01*
X53970142Y-88610322D02*
X54042713Y-88646607D01*
X54042713Y-88646607D02*
X54078999Y-88682893D01*
X54078999Y-88682893D02*
X54115285Y-88755465D01*
X54115285Y-88755465D02*
X54115285Y-88828036D01*
X54115285Y-88828036D02*
X54078999Y-88900607D01*
X54078999Y-88900607D02*
X54042713Y-88936893D01*
X54042713Y-88936893D02*
X53970142Y-88973179D01*
X53970142Y-88973179D02*
X53788713Y-88973179D01*
X53788713Y-88973179D02*
X53679856Y-88936893D01*
X53353285Y-88211179D02*
X53353285Y-88973179D01*
X53353285Y-88973179D02*
X53171856Y-88973179D01*
X53171856Y-88973179D02*
X53062999Y-88936893D01*
X53062999Y-88936893D02*
X52990428Y-88864322D01*
X52990428Y-88864322D02*
X52954142Y-88791750D01*
X52954142Y-88791750D02*
X52917856Y-88646607D01*
X52917856Y-88646607D02*
X52917856Y-88537750D01*
X52917856Y-88537750D02*
X52954142Y-88392607D01*
X52954142Y-88392607D02*
X52990428Y-88320036D01*
X52990428Y-88320036D02*
X53062999Y-88247465D01*
X53062999Y-88247465D02*
X53171856Y-88211179D01*
X53171856Y-88211179D02*
X53353285Y-88211179D01*
X52627571Y-88428893D02*
X52264714Y-88428893D01*
X52700142Y-88211179D02*
X52446142Y-88973179D01*
X52446142Y-88973179D02*
X52192142Y-88211179D01*
X56637142Y-88247465D02*
X56528285Y-88211179D01*
X56528285Y-88211179D02*
X56346856Y-88211179D01*
X56346856Y-88211179D02*
X56274285Y-88247465D01*
X56274285Y-88247465D02*
X56237999Y-88283750D01*
X56237999Y-88283750D02*
X56201713Y-88356322D01*
X56201713Y-88356322D02*
X56201713Y-88428893D01*
X56201713Y-88428893D02*
X56237999Y-88501465D01*
X56237999Y-88501465D02*
X56274285Y-88537750D01*
X56274285Y-88537750D02*
X56346856Y-88574036D01*
X56346856Y-88574036D02*
X56491999Y-88610322D01*
X56491999Y-88610322D02*
X56564570Y-88646607D01*
X56564570Y-88646607D02*
X56600856Y-88682893D01*
X56600856Y-88682893D02*
X56637142Y-88755465D01*
X56637142Y-88755465D02*
X56637142Y-88828036D01*
X56637142Y-88828036D02*
X56600856Y-88900607D01*
X56600856Y-88900607D02*
X56564570Y-88936893D01*
X56564570Y-88936893D02*
X56491999Y-88973179D01*
X56491999Y-88973179D02*
X56310570Y-88973179D01*
X56310570Y-88973179D02*
X56201713Y-88936893D01*
X55439713Y-88283750D02*
X55475999Y-88247465D01*
X55475999Y-88247465D02*
X55584856Y-88211179D01*
X55584856Y-88211179D02*
X55657428Y-88211179D01*
X55657428Y-88211179D02*
X55766285Y-88247465D01*
X55766285Y-88247465D02*
X55838856Y-88320036D01*
X55838856Y-88320036D02*
X55875142Y-88392607D01*
X55875142Y-88392607D02*
X55911428Y-88537750D01*
X55911428Y-88537750D02*
X55911428Y-88646607D01*
X55911428Y-88646607D02*
X55875142Y-88791750D01*
X55875142Y-88791750D02*
X55838856Y-88864322D01*
X55838856Y-88864322D02*
X55766285Y-88936893D01*
X55766285Y-88936893D02*
X55657428Y-88973179D01*
X55657428Y-88973179D02*
X55584856Y-88973179D01*
X55584856Y-88973179D02*
X55475999Y-88936893D01*
X55475999Y-88936893D02*
X55439713Y-88900607D01*
X54750285Y-88211179D02*
X55113142Y-88211179D01*
X55113142Y-88211179D02*
X55113142Y-88973179D01*
X52990428Y-95286893D02*
X53063000Y-95323179D01*
X53063000Y-95323179D02*
X53171857Y-95323179D01*
X53171857Y-95323179D02*
X53280714Y-95286893D01*
X53280714Y-95286893D02*
X53353285Y-95214322D01*
X53353285Y-95214322D02*
X53389571Y-95141750D01*
X53389571Y-95141750D02*
X53425857Y-94996607D01*
X53425857Y-94996607D02*
X53425857Y-94887750D01*
X53425857Y-94887750D02*
X53389571Y-94742607D01*
X53389571Y-94742607D02*
X53353285Y-94670036D01*
X53353285Y-94670036D02*
X53280714Y-94597465D01*
X53280714Y-94597465D02*
X53171857Y-94561179D01*
X53171857Y-94561179D02*
X53099285Y-94561179D01*
X53099285Y-94561179D02*
X52990428Y-94597465D01*
X52990428Y-94597465D02*
X52954142Y-94633750D01*
X52954142Y-94633750D02*
X52954142Y-94887750D01*
X52954142Y-94887750D02*
X53099285Y-94887750D01*
X55983999Y-95323179D02*
X55475999Y-94561179D01*
X55475999Y-95323179D02*
X55983999Y-94561179D01*
D14*
%TO.C,D1*%
X53350000Y-77250000D02*
X60650000Y-77250000D01*
X53350000Y-82750000D02*
X60650000Y-82750000D01*
X60650000Y-82750000D02*
X60650000Y-81600000D01*
%TO.C,D4*%
X118850000Y-77250000D02*
X126150000Y-77250000D01*
X118850000Y-82750000D02*
X126150000Y-82750000D01*
X126150000Y-82750000D02*
X126150000Y-81600000D01*
%TO.C,D2*%
X73850000Y-77250000D02*
X81150000Y-77250000D01*
X73850000Y-82750000D02*
X81150000Y-82750000D01*
X81150000Y-82750000D02*
X81150000Y-81600000D01*
%TO.C,D5*%
X141350000Y-77250000D02*
X148650000Y-77250000D01*
X141350000Y-82750000D02*
X148650000Y-82750000D01*
X148650000Y-82750000D02*
X148650000Y-81600000D01*
%TO.C,D3*%
X96350000Y-77250000D02*
X103650000Y-77250000D01*
X96350000Y-82750000D02*
X103650000Y-82750000D01*
X103650000Y-82750000D02*
X103650000Y-81600000D01*
%TD*%
%LPC*%
D15*
%TO.C,H2*%
X90000000Y-95000000D03*
%TD*%
D16*
%TO.C,D1*%
X54550000Y-78350000D03*
X54550000Y-81650000D03*
X59450000Y-81650000D03*
X59450000Y-78350000D03*
%TD*%
D17*
%TO.C,U5*%
X149620000Y-86840000D03*
X147080000Y-86840000D03*
X144540000Y-86840000D03*
X142000000Y-86840000D03*
X144540000Y-97000000D03*
X142000000Y-97000000D03*
%TD*%
D16*
%TO.C,D4*%
X120050000Y-78350000D03*
X120050000Y-81650000D03*
X124950000Y-81650000D03*
X124950000Y-78350000D03*
%TD*%
%TO.C,D2*%
X75050000Y-78350000D03*
X75050000Y-81650000D03*
X79950000Y-81650000D03*
X79950000Y-78350000D03*
%TD*%
D17*
%TO.C,U2*%
X82500000Y-86840000D03*
X79960000Y-86840000D03*
X77420000Y-86840000D03*
X74880000Y-86840000D03*
X77420000Y-97000000D03*
X74880000Y-97000000D03*
%TD*%
D16*
%TO.C,D5*%
X142550000Y-78350000D03*
X142550000Y-81650000D03*
X147450000Y-81650000D03*
X147450000Y-78350000D03*
%TD*%
D15*
%TO.C,H1*%
X112000000Y-95000000D03*
%TD*%
D17*
%TO.C,U4*%
X127500000Y-86840000D03*
X124960000Y-86840000D03*
X122420000Y-86840000D03*
X119880000Y-86840000D03*
X122420000Y-97000000D03*
X119880000Y-97000000D03*
%TD*%
D16*
%TO.C,D3*%
X97550000Y-78350000D03*
X97550000Y-81650000D03*
X102450000Y-81650000D03*
X102450000Y-78350000D03*
%TD*%
D17*
%TO.C,U3*%
X105000000Y-86840000D03*
X102460000Y-86840000D03*
X99920000Y-86840000D03*
X97380000Y-86840000D03*
X99920000Y-97000000D03*
X97380000Y-97000000D03*
%TD*%
%TO.C,U1*%
X60810000Y-86840000D03*
X58270000Y-86840000D03*
X55730000Y-86840000D03*
X53190000Y-86840000D03*
X55730000Y-97000000D03*
X53190000Y-97000000D03*
%TD*%
D18*
%TO.C,R1*%
X114554000Y-82804000D03*
D19*
X114554000Y-72644000D03*
%TD*%
D20*
%TO.C,J1*%
X103750000Y-74475000D03*
D21*
X101250000Y-74475000D03*
X98750000Y-74475000D03*
X96250000Y-74475000D03*
%TD*%
D18*
%TO.C,R2*%
X111252000Y-82804000D03*
D19*
X111252000Y-72644000D03*
%TD*%
D22*
%TO.C,U6*%
X86360000Y-72898000D03*
D18*
X86360000Y-75438000D03*
X86360000Y-77978000D03*
X86360000Y-80518000D03*
X86360000Y-83058000D03*
X86360000Y-85598000D03*
X86360000Y-88138000D03*
X71120000Y-88138000D03*
X71120000Y-85598000D03*
X71120000Y-83058000D03*
X71120000Y-80518000D03*
X71120000Y-77978000D03*
X71120000Y-75438000D03*
X71120000Y-72898000D03*
%TD*%
%LPD*%
M02*
