%TF.GenerationSoftware,KiCad,Pcbnew,7.0.9*%
%TF.CreationDate,2025-01-19T15:35:17+09:00*%
%TF.ProjectId,03-FRONT,30332d46-524f-44e5-942e-6b696361645f,rev?*%
%TF.SameCoordinates,Original*%
%TF.FileFunction,Copper,L2,Bot*%
%TF.FilePolarity,Positive*%
%FSLAX46Y46*%
G04 Gerber Fmt 4.6, Leading zero omitted, Abs format (unit mm)*
G04 Created by KiCad (PCBNEW 7.0.9) date 2025-01-19 15:35:17*
%MOMM*%
%LPD*%
G01*
G04 APERTURE LIST*
G04 Aperture macros list*
%AMRoundRect*
0 Rectangle with rounded corners*
0 $1 Rounding radius*
0 $2 $3 $4 $5 $6 $7 $8 $9 X,Y pos of 4 corners*
0 Add a 4 corners polygon primitive as box body*
4,1,4,$2,$3,$4,$5,$6,$7,$8,$9,$2,$3,0*
0 Add four circle primitives for the rounded corners*
1,1,$1+$1,$2,$3*
1,1,$1+$1,$4,$5*
1,1,$1+$1,$6,$7*
1,1,$1+$1,$8,$9*
0 Add four rect primitives between the rounded corners*
20,1,$1+$1,$2,$3,$4,$5,0*
20,1,$1+$1,$4,$5,$6,$7,0*
20,1,$1+$1,$6,$7,$8,$9,0*
20,1,$1+$1,$8,$9,$2,$3,0*%
G04 Aperture macros list end*
%TA.AperFunction,ComponentPad*%
%ADD10C,1.700000*%
%TD*%
%TA.AperFunction,ComponentPad*%
%ADD11C,1.600000*%
%TD*%
%TA.AperFunction,ComponentPad*%
%ADD12O,1.600000X1.600000*%
%TD*%
%TA.AperFunction,ComponentPad*%
%ADD13RoundRect,0.250000X0.600000X0.725000X-0.600000X0.725000X-0.600000X-0.725000X0.600000X-0.725000X0*%
%TD*%
%TA.AperFunction,ComponentPad*%
%ADD14O,1.700000X1.950000*%
%TD*%
%TA.AperFunction,ComponentPad*%
%ADD15R,1.600000X1.600000*%
%TD*%
%TA.AperFunction,ViaPad*%
%ADD16C,0.800000*%
%TD*%
%TA.AperFunction,Conductor*%
%ADD17C,0.400000*%
%TD*%
%TA.AperFunction,Conductor*%
%ADD18C,0.250000*%
%TD*%
G04 APERTURE END LIST*
D10*
%TO.P,U5,1,3V3*%
%TO.N,+3V3*%
X149620000Y-86840000D03*
%TO.P,U5,2,GND*%
%TO.N,GND*%
X147080000Y-86840000D03*
%TO.P,U5,3,SCL*%
%TO.N,SCL*%
X144540000Y-86840000D03*
%TO.P,U5,4,SDA*%
%TO.N,SDA*%
X142000000Y-86840000D03*
%TO.P,U5,5,XSHUT*%
%TO.N,XSHUT5*%
X144540000Y-97000000D03*
%TO.P,U5,6,GPIO*%
%TO.N,unconnected-(U5-GPIO-Pad6)*%
X142000000Y-97000000D03*
%TD*%
%TO.P,U2,1,3V3*%
%TO.N,+3V3*%
X82500000Y-86840000D03*
%TO.P,U2,2,GND*%
%TO.N,GND*%
X79960000Y-86840000D03*
%TO.P,U2,3,SCL*%
%TO.N,SCL*%
X77420000Y-86840000D03*
%TO.P,U2,4,SDA*%
%TO.N,SDA*%
X74880000Y-86840000D03*
%TO.P,U2,5,XSHUT*%
%TO.N,XSHUT2*%
X77420000Y-97000000D03*
%TO.P,U2,6,GPIO*%
%TO.N,unconnected-(U2-GPIO-Pad6)*%
X74880000Y-97000000D03*
%TD*%
%TO.P,U4,1,3V3*%
%TO.N,+3V3*%
X127500000Y-86840000D03*
%TO.P,U4,2,GND*%
%TO.N,GND*%
X124960000Y-86840000D03*
%TO.P,U4,3,SCL*%
%TO.N,SCL*%
X122420000Y-86840000D03*
%TO.P,U4,4,SDA*%
%TO.N,SDA*%
X119880000Y-86840000D03*
%TO.P,U4,5,XSHUT*%
%TO.N,XSHUT4*%
X122420000Y-97000000D03*
%TO.P,U4,6,GPIO*%
%TO.N,unconnected-(U4-GPIO-Pad6)*%
X119880000Y-97000000D03*
%TD*%
%TO.P,U3,1,3V3*%
%TO.N,+3V3*%
X105000000Y-86840000D03*
%TO.P,U3,2,GND*%
%TO.N,GND*%
X102460000Y-86840000D03*
%TO.P,U3,3,SCL*%
%TO.N,SCL*%
X99920000Y-86840000D03*
%TO.P,U3,4,SDA*%
%TO.N,SDA*%
X97380000Y-86840000D03*
%TO.P,U3,5,XSHUT*%
%TO.N,XSHUT3*%
X99920000Y-97000000D03*
%TO.P,U3,6,GPIO*%
%TO.N,unconnected-(U3-GPIO-Pad6)*%
X97380000Y-97000000D03*
%TD*%
%TO.P,U1,1,3V3*%
%TO.N,+3V3*%
X60810000Y-86840000D03*
%TO.P,U1,2,GND*%
%TO.N,GND*%
X58270000Y-86840000D03*
%TO.P,U1,3,SCL*%
%TO.N,SCL*%
X55730000Y-86840000D03*
%TO.P,U1,4,SDA*%
%TO.N,SDA*%
X53190000Y-86840000D03*
%TO.P,U1,5,XSHUT*%
%TO.N,XSHUT1*%
X55730000Y-97000000D03*
%TO.P,U1,6,GPIO*%
%TO.N,unconnected-(U1-GPIO-Pad6)*%
X53190000Y-97000000D03*
%TD*%
D11*
%TO.P,R1,1*%
%TO.N,SCL*%
X114554000Y-82804000D03*
D12*
%TO.P,R1,2*%
%TO.N,+3V3*%
X114554000Y-72644000D03*
%TD*%
D13*
%TO.P,J1,1,Pin_1*%
%TO.N,+5V*%
X103750000Y-74475000D03*
D14*
%TO.P,J1,2,Pin_2*%
%TO.N,RX*%
X101250000Y-74475000D03*
%TO.P,J1,3,Pin_3*%
%TO.N,TX*%
X98750000Y-74475000D03*
%TO.P,J1,4,Pin_4*%
%TO.N,GND*%
X96250000Y-74475000D03*
%TD*%
D11*
%TO.P,R2,1*%
%TO.N,SDA*%
X111252000Y-82804000D03*
D12*
%TO.P,R2,2*%
%TO.N,+3V3*%
X111252000Y-72644000D03*
%TD*%
D15*
%TO.P,U6,1,D0/A0*%
%TO.N,XSHUT1*%
X86360000Y-72898000D03*
D11*
%TO.P,U6,2,D1/A1*%
%TO.N,XSHUT2*%
X86360000Y-75438000D03*
%TO.P,U6,3,D2/A2*%
%TO.N,XSHUT3*%
X86360000Y-77978000D03*
%TO.P,U6,4,D3/A3*%
%TO.N,XSHUT4*%
X86360000Y-80518000D03*
%TO.P,U6,5,D4/SDA*%
%TO.N,SDA*%
X86360000Y-83058000D03*
%TO.P,U6,6,D5/SCL*%
%TO.N,SCL*%
X86360000Y-85598000D03*
%TO.P,U6,7,D6/TX*%
%TO.N,TX*%
X86360000Y-88138000D03*
%TO.P,U6,8,RX/D7*%
%TO.N,RX*%
X71120000Y-88138000D03*
%TO.P,U6,9,D8*%
%TO.N,XSHUT5*%
X71120000Y-85598000D03*
%TO.P,U6,10,D9*%
%TO.N,WS2812B*%
X71120000Y-83058000D03*
%TO.P,U6,11,D10*%
%TO.N,unconnected-(U6-D10-Pad11)*%
X71120000Y-80518000D03*
%TO.P,U6,12,3V3*%
%TO.N,+3V3*%
X71120000Y-77978000D03*
%TO.P,U6,13,GND*%
%TO.N,GND*%
X71120000Y-75438000D03*
%TO.P,U6,14,5V*%
%TO.N,+5V*%
X71120000Y-72898000D03*
%TD*%
D16*
%TO.N,GND*%
X80010000Y-91440000D03*
X61595000Y-88265000D03*
X134620000Y-74930000D03*
X69850000Y-71120000D03*
X137160000Y-96520000D03*
X93472000Y-80010000D03*
X84836000Y-76454000D03*
X95250000Y-82042000D03*
X56896000Y-76200000D03*
X145796000Y-76708000D03*
X150000000Y-76000000D03*
X64770000Y-88392000D03*
X79502000Y-85090000D03*
X63500000Y-93980000D03*
X148590000Y-85090000D03*
X75946000Y-95504000D03*
X95504000Y-76454000D03*
X97536000Y-84836000D03*
X84582000Y-88646000D03*
X96266000Y-90424000D03*
X61722000Y-92456000D03*
X109220000Y-81915000D03*
X117094000Y-88900000D03*
X77216000Y-81280000D03*
X53000000Y-93000000D03*
X142240000Y-84836000D03*
X68580000Y-77724000D03*
X88138000Y-76200000D03*
X73025000Y-81280000D03*
X129794000Y-87122000D03*
X129032000Y-84836000D03*
X77470000Y-78232000D03*
X72898000Y-77216000D03*
X58928000Y-89662000D03*
X83820000Y-72136000D03*
X99568000Y-79502000D03*
X122936000Y-80518000D03*
X73025000Y-93980000D03*
X92202000Y-73660000D03*
X114046000Y-85344000D03*
X64008000Y-83820000D03*
X104140000Y-90170000D03*
X92202000Y-70866000D03*
X111252000Y-74676000D03*
X107442000Y-85090000D03*
X69215000Y-83820000D03*
X73406000Y-73152000D03*
X66802000Y-81280000D03*
X127508000Y-89408000D03*
X106045000Y-96520000D03*
X107315000Y-87630000D03*
X72390000Y-98806000D03*
X147320000Y-71374000D03*
X57150000Y-98806000D03*
X87630000Y-90424000D03*
X52000000Y-71628000D03*
X85090000Y-92964000D03*
X127254000Y-96520000D03*
X120396000Y-84582000D03*
X88138000Y-82550000D03*
X66040000Y-90932000D03*
X103124000Y-97536000D03*
X148590000Y-79756000D03*
X68580000Y-88392000D03*
X102362000Y-72136000D03*
X78105000Y-88900000D03*
X84582000Y-74422000D03*
X117602000Y-82042000D03*
X145034000Y-80264000D03*
X54000000Y-80000000D03*
X78740000Y-82804000D03*
X99060000Y-89535000D03*
X58000000Y-80000000D03*
X149000000Y-97000000D03*
X140208000Y-88646000D03*
X91186000Y-82042000D03*
X99695000Y-81915000D03*
X71755000Y-90805000D03*
X117094000Y-70866000D03*
X88392000Y-79248000D03*
X64770000Y-75184000D03*
X51816000Y-79756000D03*
X145796000Y-88392000D03*
X102235000Y-92710000D03*
%TD*%
D17*
%TO.N,+3V3*%
X60810000Y-86840000D02*
X63020000Y-86840000D01*
X63020000Y-86840000D02*
X71120000Y-78740000D01*
D18*
%TO.N,XSHUT1*%
X73406000Y-84064695D02*
X84572695Y-72898000D01*
X73297000Y-84183000D02*
X73406000Y-84074000D01*
X66802000Y-88138000D02*
X70757000Y-84183000D01*
X66802000Y-88528305D02*
X66802000Y-88138000D01*
X84572695Y-72898000D02*
X86360000Y-72898000D01*
X55730000Y-97000000D02*
X58330305Y-97000000D01*
X58330305Y-97000000D02*
X66802000Y-88528305D01*
X70757000Y-84183000D02*
X73297000Y-84183000D01*
X73406000Y-84074000D02*
X73406000Y-84064695D01*
%TO.N,XSHUT2*%
X81280000Y-93140000D02*
X77420000Y-97000000D01*
X86360000Y-75438000D02*
X86360000Y-76200000D01*
X81280000Y-81280000D02*
X81280000Y-93140000D01*
X86360000Y-76200000D02*
X81280000Y-81280000D01*
%TO.N,XSHUT3*%
X99920000Y-97000000D02*
X98622000Y-98298000D01*
X98622000Y-98298000D02*
X87376000Y-98298000D01*
X87376000Y-98298000D02*
X83820000Y-94742000D01*
X83820000Y-94742000D02*
X83820000Y-80518000D01*
X83820000Y-80518000D02*
X86360000Y-77978000D01*
%TO.N,XSHUT4*%
X116840000Y-95504000D02*
X120924000Y-95504000D01*
X87884000Y-80518000D02*
X105410000Y-98044000D01*
X120924000Y-95504000D02*
X122420000Y-97000000D01*
X86360000Y-80518000D02*
X87884000Y-80518000D01*
X105410000Y-98044000D02*
X114300000Y-98044000D01*
X114300000Y-98044000D02*
X116840000Y-95504000D01*
%TO.N,XSHUT5*%
X69850000Y-94488000D02*
X69850000Y-87630000D01*
X74422000Y-99060000D02*
X69850000Y-94488000D01*
X69850000Y-87630000D02*
X71120000Y-86360000D01*
X142480000Y-99060000D02*
X74422000Y-99060000D01*
X144540000Y-97000000D02*
X142480000Y-99060000D01*
%TO.N,RX*%
X84882305Y-75147000D02*
X84619000Y-75147000D01*
X88646000Y-74168000D02*
X85598000Y-74168000D01*
X85307000Y-74722305D02*
X84882305Y-75147000D01*
X90279000Y-72535000D02*
X88646000Y-74168000D01*
X74013000Y-85753000D02*
X73505000Y-85753000D01*
X85598000Y-74168000D02*
X85307000Y-74459000D01*
X99310000Y-72535000D02*
X90279000Y-72535000D01*
X101250000Y-74475000D02*
X99310000Y-72535000D01*
X84619000Y-75147000D02*
X74013000Y-85753000D01*
X85307000Y-74459000D02*
X85307000Y-74722305D01*
X73505000Y-85753000D02*
X71120000Y-88138000D01*
%TO.N,TX*%
X88203991Y-78015000D02*
X86970991Y-79248000D01*
X85726396Y-79248000D02*
X84582000Y-80392396D01*
X84582000Y-87122000D02*
X86360000Y-88900000D01*
X98750000Y-74475000D02*
X98806000Y-74531000D01*
X94017000Y-78015000D02*
X88203991Y-78015000D01*
X98806000Y-75184000D02*
X94996000Y-78994000D01*
X84582000Y-80392396D02*
X84582000Y-87122000D01*
X98806000Y-74531000D02*
X98806000Y-75184000D01*
X86970991Y-79248000D02*
X85726396Y-79248000D01*
X94996000Y-78994000D02*
X94017000Y-78015000D01*
%TD*%
%TA.AperFunction,Conductor*%
%TO.N,GND*%
G36*
X87658778Y-81177456D02*
G01*
X87661605Y-81180195D01*
X104704228Y-98222819D01*
X104737713Y-98284142D01*
X104732729Y-98353834D01*
X104690857Y-98409767D01*
X104625393Y-98434184D01*
X104616547Y-98434500D01*
X100598588Y-98434500D01*
X100531549Y-98414815D01*
X100485794Y-98362011D01*
X100475850Y-98292853D01*
X100504875Y-98229297D01*
X100546181Y-98198119D01*
X100597830Y-98174035D01*
X100791401Y-98038495D01*
X100958495Y-97871401D01*
X101094035Y-97677830D01*
X101193903Y-97463663D01*
X101255063Y-97235408D01*
X101275659Y-97000000D01*
X101255063Y-96764592D01*
X101193903Y-96536337D01*
X101094035Y-96322171D01*
X101093652Y-96321623D01*
X100958494Y-96128597D01*
X100791402Y-95961506D01*
X100791395Y-95961501D01*
X100597834Y-95825967D01*
X100597830Y-95825965D01*
X100597828Y-95825964D01*
X100383663Y-95726097D01*
X100383659Y-95726096D01*
X100383655Y-95726094D01*
X100155413Y-95664938D01*
X100155403Y-95664936D01*
X99920001Y-95644341D01*
X99919999Y-95644341D01*
X99684596Y-95664936D01*
X99684586Y-95664938D01*
X99456344Y-95726094D01*
X99456335Y-95726098D01*
X99242171Y-95825964D01*
X99242169Y-95825965D01*
X99048597Y-95961505D01*
X98881505Y-96128597D01*
X98751575Y-96314158D01*
X98696998Y-96357783D01*
X98627500Y-96364977D01*
X98565145Y-96333454D01*
X98548425Y-96314158D01*
X98418494Y-96128597D01*
X98251402Y-95961506D01*
X98251395Y-95961501D01*
X98057834Y-95825967D01*
X98057830Y-95825965D01*
X98057828Y-95825964D01*
X97843663Y-95726097D01*
X97843659Y-95726096D01*
X97843655Y-95726094D01*
X97615413Y-95664938D01*
X97615403Y-95664936D01*
X97380001Y-95644341D01*
X97379999Y-95644341D01*
X97144596Y-95664936D01*
X97144586Y-95664938D01*
X96916344Y-95726094D01*
X96916335Y-95726098D01*
X96702171Y-95825964D01*
X96702169Y-95825965D01*
X96508597Y-95961505D01*
X96341505Y-96128597D01*
X96205965Y-96322169D01*
X96205964Y-96322171D01*
X96106098Y-96536335D01*
X96106094Y-96536344D01*
X96044938Y-96764586D01*
X96044936Y-96764596D01*
X96024341Y-96999999D01*
X96024341Y-97000000D01*
X96044936Y-97235403D01*
X96044938Y-97235413D01*
X96106094Y-97463655D01*
X96106095Y-97463658D01*
X96106097Y-97463663D01*
X96121221Y-97496097D01*
X96131713Y-97565171D01*
X96103194Y-97628956D01*
X96044718Y-97667196D01*
X96008839Y-97672500D01*
X87686453Y-97672500D01*
X87619414Y-97652815D01*
X87598772Y-97636181D01*
X85030354Y-95067763D01*
X88145787Y-95067763D01*
X88175413Y-95337013D01*
X88175415Y-95337024D01*
X88243926Y-95599082D01*
X88243928Y-95599088D01*
X88349870Y-95848390D01*
X88418904Y-95961506D01*
X88490979Y-96079605D01*
X88490986Y-96079615D01*
X88664253Y-96287819D01*
X88664259Y-96287824D01*
X88757833Y-96371666D01*
X88865998Y-96468582D01*
X89091910Y-96618044D01*
X89337176Y-96733020D01*
X89337183Y-96733022D01*
X89337185Y-96733023D01*
X89596557Y-96811057D01*
X89596564Y-96811058D01*
X89596569Y-96811060D01*
X89864561Y-96850500D01*
X89864566Y-96850500D01*
X90067636Y-96850500D01*
X90119133Y-96846730D01*
X90270156Y-96835677D01*
X90382758Y-96810593D01*
X90534546Y-96776782D01*
X90534548Y-96776781D01*
X90534553Y-96776780D01*
X90787558Y-96680014D01*
X91023777Y-96547441D01*
X91238177Y-96381888D01*
X91426186Y-96186881D01*
X91583799Y-95966579D01*
X91707439Y-95726098D01*
X91707649Y-95725690D01*
X91707651Y-95725684D01*
X91707656Y-95725675D01*
X91795118Y-95469305D01*
X91844319Y-95202933D01*
X91854212Y-94932235D01*
X91824586Y-94662982D01*
X91756072Y-94400912D01*
X91650130Y-94151610D01*
X91509018Y-93920390D01*
X91419747Y-93813119D01*
X91335746Y-93712180D01*
X91335740Y-93712175D01*
X91134002Y-93531418D01*
X90908092Y-93381957D01*
X90908090Y-93381956D01*
X90662824Y-93266980D01*
X90662819Y-93266978D01*
X90662814Y-93266976D01*
X90403442Y-93188942D01*
X90403428Y-93188939D01*
X90287791Y-93171921D01*
X90135439Y-93149500D01*
X89932369Y-93149500D01*
X89932364Y-93149500D01*
X89729844Y-93164323D01*
X89729831Y-93164325D01*
X89465453Y-93223217D01*
X89465446Y-93223220D01*
X89212439Y-93319987D01*
X88976226Y-93452557D01*
X88976224Y-93452558D01*
X88976223Y-93452559D01*
X88923811Y-93493030D01*
X88761822Y-93618112D01*
X88573822Y-93813109D01*
X88573816Y-93813116D01*
X88416202Y-94033419D01*
X88416199Y-94033424D01*
X88292350Y-94274309D01*
X88292343Y-94274327D01*
X88204884Y-94530685D01*
X88204882Y-94530695D01*
X88156667Y-94791732D01*
X88155681Y-94797068D01*
X88155680Y-94797075D01*
X88145787Y-95067763D01*
X85030354Y-95067763D01*
X84481819Y-94519228D01*
X84448334Y-94457905D01*
X84445500Y-94431547D01*
X84445500Y-88169452D01*
X84465185Y-88102413D01*
X84517989Y-88056658D01*
X84587147Y-88046714D01*
X84650703Y-88075739D01*
X84657181Y-88081771D01*
X85100013Y-88524603D01*
X85132104Y-88580181D01*
X85133259Y-88584490D01*
X85133260Y-88584495D01*
X85229431Y-88790732D01*
X85229432Y-88790734D01*
X85359954Y-88977141D01*
X85520858Y-89138045D01*
X85520861Y-89138047D01*
X85707266Y-89268568D01*
X85913504Y-89364739D01*
X85927677Y-89368536D01*
X85971587Y-89390333D01*
X85993262Y-89407145D01*
X86039058Y-89442670D01*
X86039061Y-89442672D01*
X86039064Y-89442674D01*
X86184105Y-89505438D01*
X86340196Y-89530160D01*
X86497533Y-89515287D01*
X86646229Y-89461754D01*
X86760241Y-89384271D01*
X86797846Y-89367056D01*
X86806496Y-89364739D01*
X87012734Y-89268568D01*
X87199139Y-89138047D01*
X87360047Y-88977139D01*
X87490568Y-88790734D01*
X87586739Y-88584496D01*
X87645635Y-88364692D01*
X87665468Y-88138000D01*
X87663318Y-88113431D01*
X87658022Y-88052892D01*
X87645635Y-87911308D01*
X87586739Y-87691504D01*
X87490568Y-87485266D01*
X87388853Y-87340000D01*
X87360045Y-87298858D01*
X87199141Y-87137954D01*
X87012734Y-87007432D01*
X87012728Y-87007429D01*
X86954725Y-86980382D01*
X86902285Y-86934210D01*
X86883133Y-86867017D01*
X86903348Y-86800135D01*
X86954725Y-86755618D01*
X86961802Y-86752318D01*
X87012734Y-86728568D01*
X87199139Y-86598047D01*
X87360047Y-86437139D01*
X87490568Y-86250734D01*
X87586739Y-86044496D01*
X87645635Y-85824692D01*
X87665084Y-85602387D01*
X87665468Y-85598001D01*
X87665468Y-85597998D01*
X87655524Y-85484341D01*
X87645635Y-85371308D01*
X87586739Y-85151504D01*
X87490568Y-84945266D01*
X87371079Y-84774617D01*
X87360045Y-84758858D01*
X87199141Y-84597954D01*
X87012734Y-84467432D01*
X87012728Y-84467429D01*
X86954725Y-84440382D01*
X86902285Y-84394210D01*
X86883133Y-84327017D01*
X86903348Y-84260135D01*
X86954725Y-84215618D01*
X87012734Y-84188568D01*
X87199139Y-84058047D01*
X87360047Y-83897139D01*
X87490568Y-83710734D01*
X87586739Y-83504496D01*
X87645635Y-83284692D01*
X87665468Y-83058000D01*
X87645635Y-82831308D01*
X87586739Y-82611504D01*
X87490568Y-82405266D01*
X87360047Y-82218861D01*
X87360045Y-82218858D01*
X87199141Y-82057954D01*
X87012734Y-81927432D01*
X87012728Y-81927429D01*
X86954725Y-81900382D01*
X86902285Y-81854210D01*
X86883133Y-81787017D01*
X86903348Y-81720135D01*
X86954725Y-81675618D01*
X86959415Y-81673431D01*
X87012734Y-81648568D01*
X87199139Y-81518047D01*
X87360047Y-81357139D01*
X87472350Y-81196752D01*
X87526925Y-81153128D01*
X87596424Y-81145934D01*
X87658778Y-81177456D01*
G37*
%TD.AperFunction*%
%TA.AperFunction,Conductor*%
G36*
X73449483Y-86795620D02*
G01*
X73505416Y-86837492D01*
X73529677Y-86900994D01*
X73544936Y-87075403D01*
X73544938Y-87075413D01*
X73606094Y-87303655D01*
X73606096Y-87303659D01*
X73606097Y-87303663D01*
X73678564Y-87459069D01*
X73705965Y-87517830D01*
X73705967Y-87517834D01*
X73770640Y-87610196D01*
X73841505Y-87711401D01*
X74008599Y-87878495D01*
X74088952Y-87934759D01*
X74202165Y-88014032D01*
X74202167Y-88014033D01*
X74202170Y-88014035D01*
X74416337Y-88113903D01*
X74644592Y-88175063D01*
X74832918Y-88191539D01*
X74879999Y-88195659D01*
X74880000Y-88195659D01*
X74880001Y-88195659D01*
X74919234Y-88192226D01*
X75115408Y-88175063D01*
X75343663Y-88113903D01*
X75557830Y-88014035D01*
X75751401Y-87878495D01*
X75918495Y-87711401D01*
X76048425Y-87525842D01*
X76103002Y-87482217D01*
X76172500Y-87475023D01*
X76234855Y-87506546D01*
X76251575Y-87525842D01*
X76381500Y-87711395D01*
X76381505Y-87711401D01*
X76548599Y-87878495D01*
X76628952Y-87934759D01*
X76742165Y-88014032D01*
X76742167Y-88014033D01*
X76742170Y-88014035D01*
X76956337Y-88113903D01*
X77184592Y-88175063D01*
X77372918Y-88191539D01*
X77419999Y-88195659D01*
X77420000Y-88195659D01*
X77420001Y-88195659D01*
X77459234Y-88192226D01*
X77655408Y-88175063D01*
X77883663Y-88113903D01*
X78097830Y-88014035D01*
X78291401Y-87878495D01*
X78458495Y-87711401D01*
X78588732Y-87525403D01*
X78643307Y-87481780D01*
X78712805Y-87474586D01*
X78775160Y-87506109D01*
X78791880Y-87525405D01*
X78845073Y-87601373D01*
X79476923Y-86969523D01*
X79500507Y-87049844D01*
X79578239Y-87170798D01*
X79686900Y-87264952D01*
X79817685Y-87324680D01*
X79827464Y-87326086D01*
X79198625Y-87954925D01*
X79282421Y-88013599D01*
X79496507Y-88113429D01*
X79496516Y-88113433D01*
X79724673Y-88174567D01*
X79724684Y-88174569D01*
X79959998Y-88195157D01*
X79960002Y-88195157D01*
X80195315Y-88174569D01*
X80195326Y-88174567D01*
X80423483Y-88113433D01*
X80423487Y-88113431D01*
X80478094Y-88087968D01*
X80547172Y-88077476D01*
X80610956Y-88105995D01*
X80649196Y-88164471D01*
X80654500Y-88200350D01*
X80654500Y-92829546D01*
X80634815Y-92896585D01*
X80618181Y-92917227D01*
X77875646Y-95659761D01*
X77814323Y-95693246D01*
X77755873Y-95691855D01*
X77655408Y-95664937D01*
X77420001Y-95644341D01*
X77419999Y-95644341D01*
X77184596Y-95664936D01*
X77184586Y-95664938D01*
X76956344Y-95726094D01*
X76956335Y-95726098D01*
X76742171Y-95825964D01*
X76742169Y-95825965D01*
X76548597Y-95961505D01*
X76381505Y-96128597D01*
X76251575Y-96314158D01*
X76196998Y-96357783D01*
X76127500Y-96364977D01*
X76065145Y-96333454D01*
X76048425Y-96314158D01*
X75918494Y-96128597D01*
X75751402Y-95961506D01*
X75751395Y-95961501D01*
X75557834Y-95825967D01*
X75557830Y-95825965D01*
X75557828Y-95825964D01*
X75343663Y-95726097D01*
X75343659Y-95726096D01*
X75343655Y-95726094D01*
X75115413Y-95664938D01*
X75115403Y-95664936D01*
X74880001Y-95644341D01*
X74879999Y-95644341D01*
X74644596Y-95664936D01*
X74644586Y-95664938D01*
X74416344Y-95726094D01*
X74416335Y-95726098D01*
X74202171Y-95825964D01*
X74202169Y-95825965D01*
X74008597Y-95961505D01*
X73841505Y-96128597D01*
X73705965Y-96322169D01*
X73705964Y-96322171D01*
X73606098Y-96536335D01*
X73606094Y-96536344D01*
X73544938Y-96764586D01*
X73544936Y-96764596D01*
X73525172Y-96990499D01*
X73499719Y-97055567D01*
X73443128Y-97096546D01*
X73373366Y-97100424D01*
X73313963Y-97067372D01*
X70511819Y-94265228D01*
X70478334Y-94203905D01*
X70475500Y-94177547D01*
X70475500Y-89467048D01*
X70495185Y-89400009D01*
X70547989Y-89354254D01*
X70617147Y-89344310D01*
X70651905Y-89354667D01*
X70673504Y-89364739D01*
X70673509Y-89364740D01*
X70673511Y-89364741D01*
X70702756Y-89372577D01*
X70893308Y-89423635D01*
X71055230Y-89437801D01*
X71119998Y-89443468D01*
X71120000Y-89443468D01*
X71120002Y-89443468D01*
X71176673Y-89438509D01*
X71346692Y-89423635D01*
X71566496Y-89364739D01*
X71772734Y-89268568D01*
X71959139Y-89138047D01*
X72120047Y-88977139D01*
X72250568Y-88790734D01*
X72346739Y-88584496D01*
X72405635Y-88364692D01*
X72425468Y-88138000D01*
X72423318Y-88113431D01*
X72418022Y-88052892D01*
X72405635Y-87911308D01*
X72387318Y-87842948D01*
X72388981Y-87773103D01*
X72419410Y-87723179D01*
X73318470Y-86824119D01*
X73379791Y-86790636D01*
X73449483Y-86795620D01*
G37*
%TD.AperFunction*%
%TA.AperFunction,Conductor*%
G36*
X85056562Y-75777653D02*
G01*
X85110018Y-75822644D01*
X85126450Y-75859077D01*
X85133217Y-75884331D01*
X85133262Y-75884499D01*
X85229431Y-76090732D01*
X85316054Y-76214445D01*
X85338381Y-76280651D01*
X85321369Y-76348418D01*
X85302159Y-76373248D01*
X80896208Y-80779199D01*
X80883951Y-80789020D01*
X80884134Y-80789241D01*
X80878123Y-80794213D01*
X80830772Y-80844636D01*
X80809889Y-80865519D01*
X80809877Y-80865532D01*
X80805621Y-80871017D01*
X80801837Y-80875447D01*
X80769937Y-80909418D01*
X80769936Y-80909420D01*
X80760284Y-80926976D01*
X80749610Y-80943226D01*
X80737329Y-80959061D01*
X80737324Y-80959068D01*
X80718815Y-81001838D01*
X80716245Y-81007084D01*
X80693803Y-81047906D01*
X80688822Y-81067307D01*
X80682521Y-81085710D01*
X80674562Y-81104102D01*
X80674561Y-81104105D01*
X80667271Y-81150127D01*
X80666087Y-81155846D01*
X80654501Y-81200972D01*
X80654500Y-81200982D01*
X80654500Y-81221016D01*
X80652973Y-81240415D01*
X80649840Y-81260194D01*
X80649840Y-81260195D01*
X80654225Y-81306583D01*
X80654500Y-81312421D01*
X80654500Y-85479649D01*
X80634815Y-85546688D01*
X80582011Y-85592443D01*
X80512853Y-85602387D01*
X80478096Y-85592031D01*
X80423497Y-85566571D01*
X80423483Y-85566566D01*
X80195326Y-85505432D01*
X80195315Y-85505430D01*
X79960002Y-85484843D01*
X79959998Y-85484843D01*
X79724684Y-85505430D01*
X79724673Y-85505432D01*
X79496516Y-85566566D01*
X79496507Y-85566570D01*
X79282419Y-85666401D01*
X79198625Y-85725072D01*
X79827466Y-86353913D01*
X79817685Y-86355320D01*
X79686900Y-86415048D01*
X79578239Y-86509202D01*
X79500507Y-86630156D01*
X79476923Y-86710476D01*
X78845073Y-86078626D01*
X78791881Y-86154594D01*
X78737304Y-86198219D01*
X78667806Y-86205413D01*
X78605451Y-86173891D01*
X78588730Y-86154594D01*
X78458494Y-85968597D01*
X78291402Y-85801506D01*
X78291395Y-85801501D01*
X78097834Y-85665967D01*
X78097830Y-85665965D01*
X78097828Y-85665964D01*
X77883663Y-85566097D01*
X77883659Y-85566096D01*
X77883655Y-85566094D01*
X77655413Y-85504938D01*
X77655403Y-85504936D01*
X77420001Y-85484341D01*
X77419999Y-85484341D01*
X77184596Y-85504936D01*
X77184586Y-85504938D01*
X76956344Y-85566094D01*
X76956335Y-85566098D01*
X76742171Y-85665964D01*
X76742169Y-85665965D01*
X76548597Y-85801505D01*
X76381505Y-85968597D01*
X76251575Y-86154158D01*
X76196998Y-86197783D01*
X76127500Y-86204977D01*
X76065145Y-86173454D01*
X76048425Y-86154158D01*
X75918494Y-85968597D01*
X75751402Y-85801506D01*
X75751395Y-85801501D01*
X75557834Y-85665967D01*
X75557830Y-85665965D01*
X75557828Y-85665964D01*
X75343663Y-85566097D01*
X75343656Y-85566095D01*
X75338569Y-85564243D01*
X75339252Y-85562365D01*
X75287058Y-85530552D01*
X75256527Y-85467706D01*
X75264821Y-85398330D01*
X75291126Y-85359462D01*
X84842036Y-75808553D01*
X84903355Y-75775071D01*
X84917785Y-75773060D01*
X84917777Y-75772990D01*
X84921652Y-75772500D01*
X84921655Y-75772500D01*
X84928533Y-75771630D01*
X84934346Y-75771172D01*
X84980932Y-75769709D01*
X84980940Y-75769706D01*
X84987267Y-75768705D01*
X85056562Y-75777653D01*
G37*
%TD.AperFunction*%
%TA.AperFunction,Conductor*%
G36*
X85002540Y-73543185D02*
G01*
X85048295Y-73595989D01*
X85059501Y-73647500D01*
X85059501Y-73745883D01*
X85060540Y-73755545D01*
X85048132Y-73824304D01*
X85024931Y-73856476D01*
X84923208Y-73958199D01*
X84910951Y-73968020D01*
X84911134Y-73968241D01*
X84905123Y-73973213D01*
X84857772Y-74023636D01*
X84836889Y-74044519D01*
X84836877Y-74044532D01*
X84832621Y-74050017D01*
X84828837Y-74054447D01*
X84796937Y-74088418D01*
X84796936Y-74088420D01*
X84787284Y-74105976D01*
X84776610Y-74122226D01*
X84764329Y-74138061D01*
X84764324Y-74138068D01*
X84745815Y-74180838D01*
X84743245Y-74186084D01*
X84720803Y-74226906D01*
X84715822Y-74246307D01*
X84709521Y-74264710D01*
X84701562Y-74283102D01*
X84701561Y-74283105D01*
X84694271Y-74329127D01*
X84693087Y-74334846D01*
X84681501Y-74379972D01*
X84681500Y-74379982D01*
X84681500Y-74399062D01*
X84661815Y-74466101D01*
X84609011Y-74511856D01*
X84561397Y-74523001D01*
X84520373Y-74524290D01*
X84520372Y-74524290D01*
X84501129Y-74529881D01*
X84482079Y-74533825D01*
X84462211Y-74536334D01*
X84418884Y-74553488D01*
X84413358Y-74555379D01*
X84368614Y-74568379D01*
X84368610Y-74568381D01*
X84351366Y-74578579D01*
X84333905Y-74587133D01*
X84315274Y-74594510D01*
X84315262Y-74594517D01*
X84277570Y-74621902D01*
X84272687Y-74625109D01*
X84232580Y-74648829D01*
X84218414Y-74662995D01*
X84203624Y-74675627D01*
X84187414Y-74687404D01*
X84187411Y-74687407D01*
X84157710Y-74723309D01*
X84153777Y-74727631D01*
X73790228Y-85091181D01*
X73728905Y-85124666D01*
X73702547Y-85127500D01*
X73587737Y-85127500D01*
X73572120Y-85125776D01*
X73572093Y-85126062D01*
X73564331Y-85125327D01*
X73495203Y-85127500D01*
X73465650Y-85127500D01*
X73464929Y-85127590D01*
X73458757Y-85128369D01*
X73452945Y-85128826D01*
X73406378Y-85130290D01*
X73406367Y-85130292D01*
X73387134Y-85135879D01*
X73368094Y-85139822D01*
X73348217Y-85142334D01*
X73348210Y-85142335D01*
X73348208Y-85142336D01*
X73348206Y-85142336D01*
X73348205Y-85142337D01*
X73304868Y-85159494D01*
X73299342Y-85161386D01*
X73254611Y-85174382D01*
X73254608Y-85174383D01*
X73237363Y-85184581D01*
X73219901Y-85193135D01*
X73201272Y-85200511D01*
X73201267Y-85200513D01*
X73163564Y-85227906D01*
X73158682Y-85231112D01*
X73118580Y-85254828D01*
X73104408Y-85269000D01*
X73089623Y-85281628D01*
X73073412Y-85293407D01*
X73043709Y-85329310D01*
X73039777Y-85333631D01*
X72632818Y-85740589D01*
X72571495Y-85774074D01*
X72501803Y-85769090D01*
X72445870Y-85727218D01*
X72421453Y-85661754D01*
X72421608Y-85642109D01*
X72425468Y-85598000D01*
X72424897Y-85591479D01*
X72415524Y-85484341D01*
X72405635Y-85371308D01*
X72346739Y-85151504D01*
X72269051Y-84984904D01*
X72258560Y-84915827D01*
X72287080Y-84852043D01*
X72345556Y-84813804D01*
X72381434Y-84808500D01*
X73214257Y-84808500D01*
X73229877Y-84810224D01*
X73229904Y-84809939D01*
X73237660Y-84810671D01*
X73237667Y-84810673D01*
X73306814Y-84808500D01*
X73336350Y-84808500D01*
X73343228Y-84807630D01*
X73349041Y-84807172D01*
X73395627Y-84805709D01*
X73414869Y-84800117D01*
X73433912Y-84796174D01*
X73453792Y-84793664D01*
X73497122Y-84776507D01*
X73502646Y-84774617D01*
X73506396Y-84773527D01*
X73547390Y-84761618D01*
X73564629Y-84751422D01*
X73582103Y-84742862D01*
X73600727Y-84735488D01*
X73600727Y-84735487D01*
X73600732Y-84735486D01*
X73638449Y-84708082D01*
X73643305Y-84704892D01*
X73683420Y-84681170D01*
X73697586Y-84667003D01*
X73712381Y-84654368D01*
X73728584Y-84642596D01*
X73728583Y-84642596D01*
X73728587Y-84642594D01*
X73758299Y-84606677D01*
X73762210Y-84602379D01*
X73789788Y-84574801D01*
X73802046Y-84564983D01*
X73801863Y-84564762D01*
X73807874Y-84559789D01*
X73807877Y-84559786D01*
X73855227Y-84509362D01*
X73876120Y-84488471D01*
X73880371Y-84482989D01*
X73884165Y-84478548D01*
X73894605Y-84467431D01*
X73916062Y-84444582D01*
X73916064Y-84444577D01*
X73920649Y-84438269D01*
X73921212Y-84438678D01*
X73935083Y-84420200D01*
X84795466Y-73559819D01*
X84856789Y-73526334D01*
X84883147Y-73523500D01*
X84935501Y-73523500D01*
X85002540Y-73543185D01*
G37*
%TD.AperFunction*%
%TA.AperFunction,Conductor*%
G36*
X95297989Y-73180185D02*
G01*
X95343744Y-73232989D01*
X95353688Y-73302147D01*
X95324663Y-73365703D01*
X95318631Y-73372181D01*
X95211891Y-73478920D01*
X95211886Y-73478926D01*
X95076400Y-73672420D01*
X95076399Y-73672422D01*
X94976570Y-73886507D01*
X94976566Y-73886516D01*
X94915432Y-74114673D01*
X94915430Y-74114683D01*
X94905779Y-74225000D01*
X95846031Y-74225000D01*
X95813481Y-74275649D01*
X95775000Y-74406705D01*
X95775000Y-74543295D01*
X95813481Y-74674351D01*
X95846031Y-74725000D01*
X94905779Y-74725000D01*
X94915430Y-74835316D01*
X94915432Y-74835326D01*
X94976566Y-75063483D01*
X94976570Y-75063492D01*
X95076399Y-75277577D01*
X95076400Y-75277579D01*
X95211886Y-75471073D01*
X95211891Y-75471079D01*
X95378917Y-75638105D01*
X95572421Y-75773600D01*
X95786507Y-75873429D01*
X95786516Y-75873433D01*
X96000000Y-75930634D01*
X96000000Y-74883018D01*
X96114801Y-74935446D01*
X96216025Y-74950000D01*
X96283975Y-74950000D01*
X96385199Y-74935446D01*
X96500000Y-74883018D01*
X96500000Y-75930633D01*
X96713483Y-75873433D01*
X96713492Y-75873429D01*
X96927575Y-75773601D01*
X97114940Y-75642406D01*
X97181146Y-75620079D01*
X97248913Y-75637089D01*
X97296727Y-75688037D01*
X97309405Y-75756746D01*
X97282924Y-75821403D01*
X97273745Y-75831662D01*
X95083680Y-78021727D01*
X95022357Y-78055212D01*
X94952665Y-78050228D01*
X94908318Y-78021727D01*
X94517803Y-77631212D01*
X94507980Y-77618950D01*
X94507759Y-77619134D01*
X94502786Y-77613123D01*
X94452364Y-77565773D01*
X94441919Y-77555328D01*
X94431475Y-77544883D01*
X94425986Y-77540625D01*
X94421561Y-77536847D01*
X94387582Y-77504938D01*
X94387580Y-77504936D01*
X94387577Y-77504935D01*
X94370029Y-77495288D01*
X94353763Y-77484604D01*
X94337933Y-77472325D01*
X94295168Y-77453818D01*
X94289922Y-77451248D01*
X94249093Y-77428803D01*
X94249092Y-77428802D01*
X94229693Y-77423822D01*
X94211281Y-77417518D01*
X94192898Y-77409562D01*
X94192892Y-77409560D01*
X94146874Y-77402272D01*
X94141152Y-77401087D01*
X94096021Y-77389500D01*
X94096019Y-77389500D01*
X94075984Y-77389500D01*
X94056586Y-77387973D01*
X94049162Y-77386797D01*
X94036805Y-77384840D01*
X94036804Y-77384840D01*
X93990416Y-77389225D01*
X93984578Y-77389500D01*
X88286728Y-77389500D01*
X88271111Y-77387776D01*
X88271084Y-77388062D01*
X88263322Y-77387327D01*
X88194194Y-77389500D01*
X88164641Y-77389500D01*
X88163920Y-77389590D01*
X88157748Y-77390369D01*
X88151936Y-77390826D01*
X88105369Y-77392290D01*
X88105358Y-77392292D01*
X88086125Y-77397879D01*
X88067085Y-77401822D01*
X88047208Y-77404334D01*
X88047201Y-77404335D01*
X88047199Y-77404336D01*
X88047197Y-77404336D01*
X88047196Y-77404337D01*
X88003859Y-77421494D01*
X87998333Y-77423386D01*
X87953602Y-77436382D01*
X87953599Y-77436383D01*
X87936354Y-77446581D01*
X87918892Y-77455135D01*
X87900263Y-77462511D01*
X87900258Y-77462513D01*
X87862555Y-77489906D01*
X87857673Y-77493112D01*
X87817571Y-77516828D01*
X87803399Y-77531000D01*
X87788614Y-77543628D01*
X87772404Y-77555406D01*
X87772402Y-77555408D01*
X87766098Y-77559989D01*
X87764554Y-77557865D01*
X87713536Y-77583666D01*
X87644036Y-77576481D01*
X87589454Y-77532863D01*
X87578638Y-77514132D01*
X87574350Y-77504936D01*
X87490568Y-77325266D01*
X87360047Y-77138861D01*
X87360045Y-77138858D01*
X87199141Y-76977954D01*
X87012735Y-76847433D01*
X87012736Y-76847433D01*
X87012734Y-76847432D01*
X86954722Y-76820380D01*
X86902284Y-76774208D01*
X86883133Y-76707014D01*
X86903349Y-76640133D01*
X86954721Y-76595619D01*
X87012734Y-76568568D01*
X87199139Y-76438047D01*
X87360047Y-76277139D01*
X87490568Y-76090734D01*
X87586739Y-75884496D01*
X87645635Y-75664692D01*
X87665468Y-75438000D01*
X87664402Y-75425820D01*
X87658014Y-75352797D01*
X87645635Y-75211308D01*
X87586739Y-74991504D01*
X87576666Y-74969904D01*
X87566175Y-74900827D01*
X87594695Y-74837043D01*
X87653171Y-74798804D01*
X87689049Y-74793500D01*
X88563257Y-74793500D01*
X88578877Y-74795224D01*
X88578904Y-74794939D01*
X88586660Y-74795671D01*
X88586667Y-74795673D01*
X88655814Y-74793500D01*
X88685350Y-74793500D01*
X88692228Y-74792630D01*
X88698041Y-74792172D01*
X88744627Y-74790709D01*
X88763869Y-74785117D01*
X88782912Y-74781174D01*
X88802792Y-74778664D01*
X88846122Y-74761507D01*
X88851646Y-74759617D01*
X88855396Y-74758527D01*
X88896390Y-74746618D01*
X88913629Y-74736422D01*
X88931103Y-74727862D01*
X88949727Y-74720488D01*
X88949727Y-74720487D01*
X88949732Y-74720486D01*
X88987449Y-74693082D01*
X88992305Y-74689892D01*
X89032420Y-74666170D01*
X89046589Y-74651999D01*
X89061379Y-74639368D01*
X89077587Y-74627594D01*
X89107299Y-74591676D01*
X89111212Y-74587376D01*
X90501771Y-73196819D01*
X90563094Y-73163334D01*
X90589452Y-73160500D01*
X95230950Y-73160500D01*
X95297989Y-73180185D01*
G37*
%TD.AperFunction*%
%TA.AperFunction,Conductor*%
G36*
X150942539Y-70020185D02*
G01*
X150988294Y-70072989D01*
X150999500Y-70124500D01*
X150999500Y-86062327D01*
X150979815Y-86129366D01*
X150927011Y-86175121D01*
X150857853Y-86185065D01*
X150794297Y-86156040D01*
X150773925Y-86133450D01*
X150658494Y-85968597D01*
X150491402Y-85801506D01*
X150491395Y-85801501D01*
X150297834Y-85665967D01*
X150297830Y-85665965D01*
X150297828Y-85665964D01*
X150083663Y-85566097D01*
X150083659Y-85566096D01*
X150083655Y-85566094D01*
X149855413Y-85504938D01*
X149855403Y-85504936D01*
X149620001Y-85484341D01*
X149619999Y-85484341D01*
X149384596Y-85504936D01*
X149384586Y-85504938D01*
X149156344Y-85566094D01*
X149156335Y-85566098D01*
X148942171Y-85665964D01*
X148942169Y-85665965D01*
X148748597Y-85801505D01*
X148581505Y-85968597D01*
X148451269Y-86154595D01*
X148396692Y-86198220D01*
X148327194Y-86205414D01*
X148264839Y-86173891D01*
X148248119Y-86154595D01*
X148194925Y-86078626D01*
X148194925Y-86078625D01*
X147563076Y-86710475D01*
X147539493Y-86630156D01*
X147461761Y-86509202D01*
X147353100Y-86415048D01*
X147222315Y-86355320D01*
X147212533Y-86353913D01*
X147841373Y-85725073D01*
X147841373Y-85725072D01*
X147757583Y-85666402D01*
X147757579Y-85666400D01*
X147543492Y-85566570D01*
X147543483Y-85566566D01*
X147315326Y-85505432D01*
X147315315Y-85505430D01*
X147080002Y-85484843D01*
X147079998Y-85484843D01*
X146844684Y-85505430D01*
X146844673Y-85505432D01*
X146616516Y-85566566D01*
X146616507Y-85566570D01*
X146402419Y-85666401D01*
X146318625Y-85725072D01*
X146947466Y-86353913D01*
X146937685Y-86355320D01*
X146806900Y-86415048D01*
X146698239Y-86509202D01*
X146620507Y-86630156D01*
X146596923Y-86710476D01*
X145965073Y-86078626D01*
X145911881Y-86154594D01*
X145857304Y-86198219D01*
X145787806Y-86205413D01*
X145725451Y-86173891D01*
X145708730Y-86154594D01*
X145578494Y-85968597D01*
X145411402Y-85801506D01*
X145411395Y-85801501D01*
X145217834Y-85665967D01*
X145217830Y-85665965D01*
X145217828Y-85665964D01*
X145003663Y-85566097D01*
X145003659Y-85566096D01*
X145003655Y-85566094D01*
X144775413Y-85504938D01*
X144775403Y-85504936D01*
X144540001Y-85484341D01*
X144539999Y-85484341D01*
X144304596Y-85504936D01*
X144304586Y-85504938D01*
X144076344Y-85566094D01*
X144076335Y-85566098D01*
X143862171Y-85665964D01*
X143862169Y-85665965D01*
X143668597Y-85801505D01*
X143501505Y-85968597D01*
X143371575Y-86154158D01*
X143316998Y-86197783D01*
X143247500Y-86204977D01*
X143185145Y-86173454D01*
X143168425Y-86154158D01*
X143038494Y-85968597D01*
X142871402Y-85801506D01*
X142871395Y-85801501D01*
X142677834Y-85665967D01*
X142677830Y-85665965D01*
X142677828Y-85665964D01*
X142463663Y-85566097D01*
X142463659Y-85566096D01*
X142463655Y-85566094D01*
X142235413Y-85504938D01*
X142235403Y-85504936D01*
X142000001Y-85484341D01*
X141999999Y-85484341D01*
X141764596Y-85504936D01*
X141764586Y-85504938D01*
X141536344Y-85566094D01*
X141536335Y-85566098D01*
X141322171Y-85665964D01*
X141322169Y-85665965D01*
X141128597Y-85801505D01*
X140961505Y-85968597D01*
X140825965Y-86162169D01*
X140825964Y-86162171D01*
X140726098Y-86376335D01*
X140726094Y-86376344D01*
X140664938Y-86604586D01*
X140664936Y-86604596D01*
X140644341Y-86839999D01*
X140644341Y-86840000D01*
X140664936Y-87075403D01*
X140664938Y-87075413D01*
X140726094Y-87303655D01*
X140726096Y-87303659D01*
X140726097Y-87303663D01*
X140798564Y-87459069D01*
X140825965Y-87517830D01*
X140825967Y-87517834D01*
X140890640Y-87610196D01*
X140961505Y-87711401D01*
X141128599Y-87878495D01*
X141208952Y-87934759D01*
X141322165Y-88014032D01*
X141322167Y-88014033D01*
X141322170Y-88014035D01*
X141536337Y-88113903D01*
X141764592Y-88175063D01*
X141952918Y-88191539D01*
X141999999Y-88195659D01*
X142000000Y-88195659D01*
X142000001Y-88195659D01*
X142039234Y-88192226D01*
X142235408Y-88175063D01*
X142463663Y-88113903D01*
X142677830Y-88014035D01*
X142871401Y-87878495D01*
X143038495Y-87711401D01*
X143168425Y-87525842D01*
X143223002Y-87482217D01*
X143292500Y-87475023D01*
X143354855Y-87506546D01*
X143371575Y-87525842D01*
X143501500Y-87711395D01*
X143501505Y-87711401D01*
X143668599Y-87878495D01*
X143748952Y-87934759D01*
X143862165Y-88014032D01*
X143862167Y-88014033D01*
X143862170Y-88014035D01*
X144076337Y-88113903D01*
X144304592Y-88175063D01*
X144492918Y-88191539D01*
X144539999Y-88195659D01*
X144540000Y-88195659D01*
X144540001Y-88195659D01*
X144579234Y-88192226D01*
X144775408Y-88175063D01*
X145003663Y-88113903D01*
X145217830Y-88014035D01*
X145411401Y-87878495D01*
X145578495Y-87711401D01*
X145708732Y-87525403D01*
X145763307Y-87481780D01*
X145832805Y-87474586D01*
X145895160Y-87506109D01*
X145911880Y-87525405D01*
X145965073Y-87601373D01*
X146596923Y-86969523D01*
X146620507Y-87049844D01*
X146698239Y-87170798D01*
X146806900Y-87264952D01*
X146937685Y-87324680D01*
X146947466Y-87326086D01*
X146318625Y-87954925D01*
X146402421Y-88013599D01*
X146616507Y-88113429D01*
X146616516Y-88113433D01*
X146844673Y-88174567D01*
X146844684Y-88174569D01*
X147079998Y-88195157D01*
X147080002Y-88195157D01*
X147315315Y-88174569D01*
X147315326Y-88174567D01*
X147543483Y-88113433D01*
X147543492Y-88113429D01*
X147757578Y-88013600D01*
X147757582Y-88013598D01*
X147841373Y-87954926D01*
X147841373Y-87954925D01*
X147212533Y-87326086D01*
X147222315Y-87324680D01*
X147353100Y-87264952D01*
X147461761Y-87170798D01*
X147539493Y-87049844D01*
X147563076Y-86969524D01*
X148194925Y-87601373D01*
X148248119Y-87525405D01*
X148302696Y-87481781D01*
X148372195Y-87474588D01*
X148434549Y-87506110D01*
X148451269Y-87525405D01*
X148581505Y-87711401D01*
X148748599Y-87878495D01*
X148828952Y-87934759D01*
X148942165Y-88014032D01*
X148942167Y-88014033D01*
X148942170Y-88014035D01*
X149156337Y-88113903D01*
X149384592Y-88175063D01*
X149572918Y-88191539D01*
X149619999Y-88195659D01*
X149620000Y-88195659D01*
X149620001Y-88195659D01*
X149659234Y-88192226D01*
X149855408Y-88175063D01*
X150083663Y-88113903D01*
X150297830Y-88014035D01*
X150491401Y-87878495D01*
X150658495Y-87711401D01*
X150773925Y-87546549D01*
X150828502Y-87502925D01*
X150898000Y-87495731D01*
X150960355Y-87527254D01*
X150995769Y-87587484D01*
X150999500Y-87617673D01*
X150999500Y-99875500D01*
X150979815Y-99942539D01*
X150927011Y-99988294D01*
X150875500Y-99999500D01*
X51124500Y-99999500D01*
X51057461Y-99979815D01*
X51011706Y-99927011D01*
X51000500Y-99875500D01*
X51000500Y-97000000D01*
X51834341Y-97000000D01*
X51854936Y-97235403D01*
X51854938Y-97235413D01*
X51916094Y-97463655D01*
X51916096Y-97463659D01*
X51916097Y-97463663D01*
X51962630Y-97563453D01*
X52015965Y-97677830D01*
X52015967Y-97677834D01*
X52124281Y-97832521D01*
X52151505Y-97871401D01*
X52318599Y-98038495D01*
X52415384Y-98106265D01*
X52512165Y-98174032D01*
X52512167Y-98174033D01*
X52512170Y-98174035D01*
X52726337Y-98273903D01*
X52954592Y-98335063D01*
X53142918Y-98351539D01*
X53189999Y-98355659D01*
X53190000Y-98355659D01*
X53190001Y-98355659D01*
X53229234Y-98352226D01*
X53425408Y-98335063D01*
X53653663Y-98273903D01*
X53867830Y-98174035D01*
X54061401Y-98038495D01*
X54228495Y-97871401D01*
X54358425Y-97685842D01*
X54413002Y-97642217D01*
X54482500Y-97635023D01*
X54544855Y-97666546D01*
X54561575Y-97685842D01*
X54691500Y-97871395D01*
X54691505Y-97871401D01*
X54858599Y-98038495D01*
X54955384Y-98106265D01*
X55052165Y-98174032D01*
X55052167Y-98174033D01*
X55052170Y-98174035D01*
X55266337Y-98273903D01*
X55494592Y-98335063D01*
X55682918Y-98351539D01*
X55729999Y-98355659D01*
X55730000Y-98355659D01*
X55730001Y-98355659D01*
X55769234Y-98352226D01*
X55965408Y-98335063D01*
X56193663Y-98273903D01*
X56407830Y-98174035D01*
X56601401Y-98038495D01*
X56768495Y-97871401D01*
X56903652Y-97678377D01*
X56958229Y-97634752D01*
X57005227Y-97625500D01*
X58247562Y-97625500D01*
X58263182Y-97627224D01*
X58263209Y-97626939D01*
X58270965Y-97627671D01*
X58270972Y-97627673D01*
X58340119Y-97625500D01*
X58369655Y-97625500D01*
X58376533Y-97624630D01*
X58382346Y-97624172D01*
X58428932Y-97622709D01*
X58448174Y-97617117D01*
X58467217Y-97613174D01*
X58487097Y-97610664D01*
X58530427Y-97593507D01*
X58535951Y-97591617D01*
X58539701Y-97590527D01*
X58580695Y-97578618D01*
X58597934Y-97568422D01*
X58615408Y-97559862D01*
X58634032Y-97552488D01*
X58634032Y-97552487D01*
X58634037Y-97552486D01*
X58671754Y-97525082D01*
X58676610Y-97521892D01*
X58716725Y-97498170D01*
X58730894Y-97483999D01*
X58745684Y-97471368D01*
X58761892Y-97459594D01*
X58791604Y-97423676D01*
X58795517Y-97419376D01*
X67185788Y-89029106D01*
X67198042Y-89019291D01*
X67197859Y-89019069D01*
X67203866Y-89014097D01*
X67203877Y-89014091D01*
X67238577Y-88977139D01*
X67251227Y-88963669D01*
X67261671Y-88953223D01*
X67272120Y-88942776D01*
X67276379Y-88937283D01*
X67280152Y-88932866D01*
X67312062Y-88898887D01*
X67321715Y-88881325D01*
X67332389Y-88865075D01*
X67344673Y-88849241D01*
X67363180Y-88806472D01*
X67365749Y-88801229D01*
X67388196Y-88760398D01*
X67388197Y-88760397D01*
X67393177Y-88740996D01*
X67399478Y-88722593D01*
X67407438Y-88704201D01*
X67414730Y-88658154D01*
X67415911Y-88652457D01*
X67427500Y-88607324D01*
X67427500Y-88587288D01*
X67429027Y-88567887D01*
X67432160Y-88548109D01*
X67427775Y-88501720D01*
X67427500Y-88495882D01*
X67427500Y-88448451D01*
X67447185Y-88381412D01*
X67463814Y-88360775D01*
X69732052Y-86092536D01*
X69793373Y-86059053D01*
X69863065Y-86064037D01*
X69918998Y-86105909D01*
X69932113Y-86127814D01*
X69989431Y-86250732D01*
X70076054Y-86374445D01*
X70098381Y-86440651D01*
X70081369Y-86508418D01*
X70062159Y-86533248D01*
X69466208Y-87129199D01*
X69453951Y-87139020D01*
X69454134Y-87139241D01*
X69448123Y-87144213D01*
X69400772Y-87194636D01*
X69379889Y-87215519D01*
X69379877Y-87215532D01*
X69375621Y-87221017D01*
X69371837Y-87225447D01*
X69339937Y-87259418D01*
X69339936Y-87259420D01*
X69330284Y-87276976D01*
X69319610Y-87293226D01*
X69307329Y-87309061D01*
X69307324Y-87309068D01*
X69288815Y-87351838D01*
X69286245Y-87357084D01*
X69263803Y-87397906D01*
X69258822Y-87417307D01*
X69252521Y-87435710D01*
X69244562Y-87454102D01*
X69244561Y-87454105D01*
X69237271Y-87500127D01*
X69236087Y-87505846D01*
X69224501Y-87550972D01*
X69224500Y-87550982D01*
X69224500Y-87571016D01*
X69222973Y-87590415D01*
X69219840Y-87610194D01*
X69219840Y-87610195D01*
X69224225Y-87656583D01*
X69224500Y-87662421D01*
X69224500Y-94405255D01*
X69222775Y-94420872D01*
X69223061Y-94420899D01*
X69222326Y-94428665D01*
X69224500Y-94497814D01*
X69224500Y-94527343D01*
X69224501Y-94527360D01*
X69225368Y-94534231D01*
X69225826Y-94540050D01*
X69227290Y-94586624D01*
X69227291Y-94586627D01*
X69232880Y-94605867D01*
X69236824Y-94624911D01*
X69239336Y-94644792D01*
X69250482Y-94672945D01*
X69256490Y-94688119D01*
X69258382Y-94693647D01*
X69271381Y-94738388D01*
X69281580Y-94755634D01*
X69290136Y-94773100D01*
X69293403Y-94781350D01*
X69297514Y-94791732D01*
X69324898Y-94829423D01*
X69328106Y-94834307D01*
X69351827Y-94874416D01*
X69351833Y-94874424D01*
X69365990Y-94888580D01*
X69378628Y-94903376D01*
X69383727Y-94910395D01*
X69390406Y-94919587D01*
X69420928Y-94944837D01*
X69426309Y-94949288D01*
X69430620Y-94953210D01*
X72812470Y-98335061D01*
X73921197Y-99443788D01*
X73931022Y-99456051D01*
X73931243Y-99455869D01*
X73936214Y-99461878D01*
X73957043Y-99481437D01*
X73986635Y-99509226D01*
X74007529Y-99530120D01*
X74013011Y-99534373D01*
X74017443Y-99538157D01*
X74051418Y-99570062D01*
X74068976Y-99579714D01*
X74085235Y-99590395D01*
X74101064Y-99602673D01*
X74143838Y-99621182D01*
X74149056Y-99623738D01*
X74189908Y-99646197D01*
X74209316Y-99651180D01*
X74227717Y-99657480D01*
X74246104Y-99665437D01*
X74289488Y-99672308D01*
X74292119Y-99672725D01*
X74297839Y-99673909D01*
X74342981Y-99685500D01*
X74363016Y-99685500D01*
X74382414Y-99687026D01*
X74402194Y-99690159D01*
X74402195Y-99690160D01*
X74402195Y-99690159D01*
X74402196Y-99690160D01*
X74448584Y-99685775D01*
X74454422Y-99685500D01*
X142397257Y-99685500D01*
X142412877Y-99687224D01*
X142412904Y-99686939D01*
X142420660Y-99687671D01*
X142420667Y-99687673D01*
X142489814Y-99685500D01*
X142519350Y-99685500D01*
X142526228Y-99684630D01*
X142532041Y-99684172D01*
X142578627Y-99682709D01*
X142597869Y-99677117D01*
X142616912Y-99673174D01*
X142636792Y-99670664D01*
X142680122Y-99653507D01*
X142685646Y-99651617D01*
X142689396Y-99650527D01*
X142730390Y-99638618D01*
X142747629Y-99628422D01*
X142765103Y-99619862D01*
X142783727Y-99612488D01*
X142783727Y-99612487D01*
X142783732Y-99612486D01*
X142821449Y-99585082D01*
X142826305Y-99581892D01*
X142866420Y-99558170D01*
X142880589Y-99543999D01*
X142895379Y-99531368D01*
X142911587Y-99519594D01*
X142941299Y-99483676D01*
X142945212Y-99479376D01*
X144084353Y-98340235D01*
X144145674Y-98306752D01*
X144204125Y-98308143D01*
X144216594Y-98311484D01*
X144304592Y-98335063D01*
X144492918Y-98351539D01*
X144539999Y-98355659D01*
X144540000Y-98355659D01*
X144540001Y-98355659D01*
X144579234Y-98352226D01*
X144775408Y-98335063D01*
X145003663Y-98273903D01*
X145217830Y-98174035D01*
X145411401Y-98038495D01*
X145578495Y-97871401D01*
X145714035Y-97677830D01*
X145813903Y-97463663D01*
X145875063Y-97235408D01*
X145895659Y-97000000D01*
X145875063Y-96764592D01*
X145813903Y-96536337D01*
X145714035Y-96322171D01*
X145713652Y-96321623D01*
X145578494Y-96128597D01*
X145411402Y-95961506D01*
X145411395Y-95961501D01*
X145217834Y-95825967D01*
X145217830Y-95825965D01*
X145217828Y-95825964D01*
X145003663Y-95726097D01*
X145003659Y-95726096D01*
X145003655Y-95726094D01*
X144775413Y-95664938D01*
X144775403Y-95664936D01*
X144540001Y-95644341D01*
X144539999Y-95644341D01*
X144304596Y-95664936D01*
X144304586Y-95664938D01*
X144076344Y-95726094D01*
X144076335Y-95726098D01*
X143862171Y-95825964D01*
X143862169Y-95825965D01*
X143668597Y-95961505D01*
X143501505Y-96128597D01*
X143371575Y-96314158D01*
X143316998Y-96357783D01*
X143247500Y-96364977D01*
X143185145Y-96333454D01*
X143168425Y-96314158D01*
X143038494Y-96128597D01*
X142871402Y-95961506D01*
X142871395Y-95961501D01*
X142677834Y-95825967D01*
X142677830Y-95825965D01*
X142677828Y-95825964D01*
X142463663Y-95726097D01*
X142463659Y-95726096D01*
X142463655Y-95726094D01*
X142235413Y-95664938D01*
X142235403Y-95664936D01*
X142000001Y-95644341D01*
X141999999Y-95644341D01*
X141764596Y-95664936D01*
X141764586Y-95664938D01*
X141536344Y-95726094D01*
X141536335Y-95726098D01*
X141322171Y-95825964D01*
X141322169Y-95825965D01*
X141128597Y-95961505D01*
X140961505Y-96128597D01*
X140825965Y-96322169D01*
X140825964Y-96322171D01*
X140726098Y-96536335D01*
X140726094Y-96536344D01*
X140664938Y-96764586D01*
X140664936Y-96764596D01*
X140644341Y-96999999D01*
X140644341Y-97000000D01*
X140664936Y-97235403D01*
X140664938Y-97235413D01*
X140726094Y-97463655D01*
X140726096Y-97463659D01*
X140726097Y-97463663D01*
X140772630Y-97563453D01*
X140825965Y-97677830D01*
X140825967Y-97677834D01*
X140934281Y-97832521D01*
X140961505Y-97871401D01*
X141128599Y-98038495D01*
X141225384Y-98106265D01*
X141322165Y-98174032D01*
X141322167Y-98174033D01*
X141322170Y-98174035D01*
X141373818Y-98198118D01*
X141426256Y-98244290D01*
X141445408Y-98311484D01*
X141425192Y-98378365D01*
X141372027Y-98423699D01*
X141321412Y-98434500D01*
X123098588Y-98434500D01*
X123031549Y-98414815D01*
X122985794Y-98362011D01*
X122975850Y-98292853D01*
X123004875Y-98229297D01*
X123046181Y-98198119D01*
X123097830Y-98174035D01*
X123291401Y-98038495D01*
X123458495Y-97871401D01*
X123594035Y-97677830D01*
X123693903Y-97463663D01*
X123755063Y-97235408D01*
X123775659Y-97000000D01*
X123755063Y-96764592D01*
X123693903Y-96536337D01*
X123594035Y-96322171D01*
X123593652Y-96321623D01*
X123458494Y-96128597D01*
X123291402Y-95961506D01*
X123291395Y-95961501D01*
X123097834Y-95825967D01*
X123097830Y-95825965D01*
X123097828Y-95825964D01*
X122883663Y-95726097D01*
X122883659Y-95726096D01*
X122883655Y-95726094D01*
X122655413Y-95664938D01*
X122655403Y-95664936D01*
X122420001Y-95644341D01*
X122419999Y-95644341D01*
X122184590Y-95664937D01*
X122184589Y-95664937D01*
X122084124Y-95691855D01*
X122014274Y-95690191D01*
X121964352Y-95659761D01*
X121424803Y-95120212D01*
X121414980Y-95107950D01*
X121414759Y-95108134D01*
X121409786Y-95102123D01*
X121359364Y-95054773D01*
X121348919Y-95044328D01*
X121338475Y-95033883D01*
X121332986Y-95029625D01*
X121328561Y-95025847D01*
X121294582Y-94993938D01*
X121294580Y-94993936D01*
X121294577Y-94993935D01*
X121277029Y-94984288D01*
X121260763Y-94973604D01*
X121244933Y-94961325D01*
X121202168Y-94942818D01*
X121196922Y-94940248D01*
X121156093Y-94917803D01*
X121156092Y-94917802D01*
X121136693Y-94912822D01*
X121118281Y-94906518D01*
X121099898Y-94898562D01*
X121099892Y-94898560D01*
X121053874Y-94891272D01*
X121048152Y-94890087D01*
X121003021Y-94878500D01*
X121003019Y-94878500D01*
X120982984Y-94878500D01*
X120963586Y-94876973D01*
X120956162Y-94875797D01*
X120943805Y-94873840D01*
X120943804Y-94873840D01*
X120897416Y-94878225D01*
X120891578Y-94878500D01*
X116922737Y-94878500D01*
X116907120Y-94876776D01*
X116907093Y-94877062D01*
X116899331Y-94876327D01*
X116830203Y-94878500D01*
X116800650Y-94878500D01*
X116799929Y-94878590D01*
X116793757Y-94879369D01*
X116787945Y-94879826D01*
X116741372Y-94881290D01*
X116741369Y-94881291D01*
X116722126Y-94886881D01*
X116703083Y-94890825D01*
X116683204Y-94893336D01*
X116683203Y-94893337D01*
X116639878Y-94910490D01*
X116634352Y-94912382D01*
X116589608Y-94925383D01*
X116589604Y-94925385D01*
X116572365Y-94935580D01*
X116554898Y-94944137D01*
X116536269Y-94951512D01*
X116536267Y-94951513D01*
X116498564Y-94978906D01*
X116493682Y-94982112D01*
X116453580Y-95005828D01*
X116439408Y-95020000D01*
X116424623Y-95032628D01*
X116408412Y-95044407D01*
X116378709Y-95080310D01*
X116374777Y-95084631D01*
X114077228Y-97382181D01*
X114015905Y-97415666D01*
X113989547Y-97418500D01*
X105720452Y-97418500D01*
X105653413Y-97398815D01*
X105632771Y-97382181D01*
X103318353Y-95067763D01*
X110145787Y-95067763D01*
X110175413Y-95337013D01*
X110175415Y-95337024D01*
X110243926Y-95599082D01*
X110243928Y-95599088D01*
X110349870Y-95848390D01*
X110418904Y-95961506D01*
X110490979Y-96079605D01*
X110490986Y-96079615D01*
X110664253Y-96287819D01*
X110664259Y-96287824D01*
X110757833Y-96371666D01*
X110865998Y-96468582D01*
X111091910Y-96618044D01*
X111337176Y-96733020D01*
X111337183Y-96733022D01*
X111337185Y-96733023D01*
X111596557Y-96811057D01*
X111596564Y-96811058D01*
X111596569Y-96811060D01*
X111864561Y-96850500D01*
X111864566Y-96850500D01*
X112067636Y-96850500D01*
X112119133Y-96846730D01*
X112270156Y-96835677D01*
X112382758Y-96810593D01*
X112534546Y-96776782D01*
X112534548Y-96776781D01*
X112534553Y-96776780D01*
X112787558Y-96680014D01*
X113023777Y-96547441D01*
X113238177Y-96381888D01*
X113426186Y-96186881D01*
X113583799Y-95966579D01*
X113707439Y-95726098D01*
X113707649Y-95725690D01*
X113707651Y-95725684D01*
X113707656Y-95725675D01*
X113795118Y-95469305D01*
X113844319Y-95202933D01*
X113854212Y-94932235D01*
X113824586Y-94662982D01*
X113756072Y-94400912D01*
X113650130Y-94151610D01*
X113509018Y-93920390D01*
X113419747Y-93813119D01*
X113335746Y-93712180D01*
X113335740Y-93712175D01*
X113134002Y-93531418D01*
X112908092Y-93381957D01*
X112908090Y-93381956D01*
X112662824Y-93266980D01*
X112662819Y-93266978D01*
X112662814Y-93266976D01*
X112403442Y-93188942D01*
X112403428Y-93188939D01*
X112287791Y-93171921D01*
X112135439Y-93149500D01*
X111932369Y-93149500D01*
X111932364Y-93149500D01*
X111729844Y-93164323D01*
X111729831Y-93164325D01*
X111465453Y-93223217D01*
X111465446Y-93223220D01*
X111212439Y-93319987D01*
X110976226Y-93452557D01*
X110976224Y-93452558D01*
X110976223Y-93452559D01*
X110923811Y-93493030D01*
X110761822Y-93618112D01*
X110573822Y-93813109D01*
X110573816Y-93813116D01*
X110416202Y-94033419D01*
X110416199Y-94033424D01*
X110292350Y-94274309D01*
X110292343Y-94274327D01*
X110204884Y-94530685D01*
X110204882Y-94530695D01*
X110156667Y-94791732D01*
X110155681Y-94797068D01*
X110155680Y-94797075D01*
X110145787Y-95067763D01*
X103318353Y-95067763D01*
X97010988Y-88760398D01*
X95090590Y-86840000D01*
X96024341Y-86840000D01*
X96044936Y-87075403D01*
X96044938Y-87075413D01*
X96106094Y-87303655D01*
X96106096Y-87303659D01*
X96106097Y-87303663D01*
X96178564Y-87459069D01*
X96205965Y-87517830D01*
X96205967Y-87517834D01*
X96270640Y-87610196D01*
X96341505Y-87711401D01*
X96508599Y-87878495D01*
X96588952Y-87934759D01*
X96702165Y-88014032D01*
X96702167Y-88014033D01*
X96702170Y-88014035D01*
X96916337Y-88113903D01*
X97144592Y-88175063D01*
X97332918Y-88191539D01*
X97379999Y-88195659D01*
X97380000Y-88195659D01*
X97380001Y-88195659D01*
X97419234Y-88192226D01*
X97615408Y-88175063D01*
X97843663Y-88113903D01*
X98057830Y-88014035D01*
X98251401Y-87878495D01*
X98418495Y-87711401D01*
X98548425Y-87525842D01*
X98603002Y-87482217D01*
X98672500Y-87475023D01*
X98734855Y-87506546D01*
X98751575Y-87525842D01*
X98881500Y-87711395D01*
X98881505Y-87711401D01*
X99048599Y-87878495D01*
X99128952Y-87934759D01*
X99242165Y-88014032D01*
X99242167Y-88014033D01*
X99242170Y-88014035D01*
X99456337Y-88113903D01*
X99684592Y-88175063D01*
X99872918Y-88191539D01*
X99919999Y-88195659D01*
X99920000Y-88195659D01*
X99920001Y-88195659D01*
X99959234Y-88192226D01*
X100155408Y-88175063D01*
X100383663Y-88113903D01*
X100597830Y-88014035D01*
X100791401Y-87878495D01*
X100958495Y-87711401D01*
X101088732Y-87525403D01*
X101143307Y-87481780D01*
X101212805Y-87474586D01*
X101275160Y-87506109D01*
X101291880Y-87525405D01*
X101345073Y-87601373D01*
X101976923Y-86969523D01*
X102000507Y-87049844D01*
X102078239Y-87170798D01*
X102186900Y-87264952D01*
X102317685Y-87324680D01*
X102327466Y-87326086D01*
X101698625Y-87954925D01*
X101782421Y-88013599D01*
X101996507Y-88113429D01*
X101996516Y-88113433D01*
X102224673Y-88174567D01*
X102224684Y-88174569D01*
X102459998Y-88195157D01*
X102460002Y-88195157D01*
X102695315Y-88174569D01*
X102695326Y-88174567D01*
X102923483Y-88113433D01*
X102923492Y-88113429D01*
X103137578Y-88013600D01*
X103137582Y-88013598D01*
X103221373Y-87954926D01*
X103221373Y-87954925D01*
X102592533Y-87326086D01*
X102602315Y-87324680D01*
X102733100Y-87264952D01*
X102841761Y-87170798D01*
X102919493Y-87049844D01*
X102943076Y-86969524D01*
X103574925Y-87601373D01*
X103628119Y-87525405D01*
X103682696Y-87481781D01*
X103752195Y-87474588D01*
X103814549Y-87506110D01*
X103831269Y-87525405D01*
X103961505Y-87711401D01*
X104128599Y-87878495D01*
X104208952Y-87934759D01*
X104322165Y-88014032D01*
X104322167Y-88014033D01*
X104322170Y-88014035D01*
X104536337Y-88113903D01*
X104764592Y-88175063D01*
X104952918Y-88191539D01*
X104999999Y-88195659D01*
X105000000Y-88195659D01*
X105000001Y-88195659D01*
X105039234Y-88192226D01*
X105235408Y-88175063D01*
X105463663Y-88113903D01*
X105677830Y-88014035D01*
X105871401Y-87878495D01*
X106038495Y-87711401D01*
X106174035Y-87517830D01*
X106273903Y-87303663D01*
X106335063Y-87075408D01*
X106355659Y-86840000D01*
X118524341Y-86840000D01*
X118544936Y-87075403D01*
X118544938Y-87075413D01*
X118606094Y-87303655D01*
X118606096Y-87303659D01*
X118606097Y-87303663D01*
X118678564Y-87459069D01*
X118705965Y-87517830D01*
X118705967Y-87517834D01*
X118770640Y-87610196D01*
X118841505Y-87711401D01*
X119008599Y-87878495D01*
X119088952Y-87934759D01*
X119202165Y-88014032D01*
X119202167Y-88014033D01*
X119202170Y-88014035D01*
X119416337Y-88113903D01*
X119644592Y-88175063D01*
X119832918Y-88191539D01*
X119879999Y-88195659D01*
X119880000Y-88195659D01*
X119880001Y-88195659D01*
X119919234Y-88192226D01*
X120115408Y-88175063D01*
X120343663Y-88113903D01*
X120557830Y-88014035D01*
X120751401Y-87878495D01*
X120918495Y-87711401D01*
X121048425Y-87525842D01*
X121103002Y-87482217D01*
X121172500Y-87475023D01*
X121234855Y-87506546D01*
X121251575Y-87525842D01*
X121381500Y-87711395D01*
X121381505Y-87711401D01*
X121548599Y-87878495D01*
X121628952Y-87934759D01*
X121742165Y-88014032D01*
X121742167Y-88014033D01*
X121742170Y-88014035D01*
X121956337Y-88113903D01*
X122184592Y-88175063D01*
X122372918Y-88191539D01*
X122419999Y-88195659D01*
X122420000Y-88195659D01*
X122420001Y-88195659D01*
X122459234Y-88192226D01*
X122655408Y-88175063D01*
X122883663Y-88113903D01*
X123097830Y-88014035D01*
X123291401Y-87878495D01*
X123458495Y-87711401D01*
X123588732Y-87525403D01*
X123643307Y-87481780D01*
X123712805Y-87474586D01*
X123775160Y-87506109D01*
X123791880Y-87525405D01*
X123845073Y-87601373D01*
X124476923Y-86969523D01*
X124500507Y-87049844D01*
X124578239Y-87170798D01*
X124686900Y-87264952D01*
X124817685Y-87324680D01*
X124827466Y-87326086D01*
X124198625Y-87954925D01*
X124282421Y-88013599D01*
X124496507Y-88113429D01*
X124496516Y-88113433D01*
X124724673Y-88174567D01*
X124724684Y-88174569D01*
X124959998Y-88195157D01*
X124960002Y-88195157D01*
X125195315Y-88174569D01*
X125195326Y-88174567D01*
X125423483Y-88113433D01*
X125423492Y-88113429D01*
X125637578Y-88013600D01*
X125637582Y-88013598D01*
X125721373Y-87954926D01*
X125721373Y-87954925D01*
X125092533Y-87326086D01*
X125102315Y-87324680D01*
X125233100Y-87264952D01*
X125341761Y-87170798D01*
X125419493Y-87049844D01*
X125443076Y-86969524D01*
X126074925Y-87601373D01*
X126128119Y-87525405D01*
X126182696Y-87481781D01*
X126252195Y-87474588D01*
X126314549Y-87506110D01*
X126331269Y-87525405D01*
X126461505Y-87711401D01*
X126628599Y-87878495D01*
X126708952Y-87934759D01*
X126822165Y-88014032D01*
X126822167Y-88014033D01*
X126822170Y-88014035D01*
X127036337Y-88113903D01*
X127264592Y-88175063D01*
X127452918Y-88191539D01*
X127499999Y-88195659D01*
X127500000Y-88195659D01*
X127500001Y-88195659D01*
X127539234Y-88192226D01*
X127735408Y-88175063D01*
X127963663Y-88113903D01*
X128177830Y-88014035D01*
X128371401Y-87878495D01*
X128538495Y-87711401D01*
X128674035Y-87517830D01*
X128773903Y-87303663D01*
X128835063Y-87075408D01*
X128855659Y-86840000D01*
X128835063Y-86604592D01*
X128773903Y-86376337D01*
X128674035Y-86162171D01*
X128668731Y-86154595D01*
X128538494Y-85968597D01*
X128371402Y-85801506D01*
X128371395Y-85801501D01*
X128177834Y-85665967D01*
X128177830Y-85665965D01*
X128177828Y-85665964D01*
X127963663Y-85566097D01*
X127963659Y-85566096D01*
X127963655Y-85566094D01*
X127735413Y-85504938D01*
X127735403Y-85504936D01*
X127500001Y-85484341D01*
X127499999Y-85484341D01*
X127264596Y-85504936D01*
X127264586Y-85504938D01*
X127036344Y-85566094D01*
X127036335Y-85566098D01*
X126822171Y-85665964D01*
X126822169Y-85665965D01*
X126628597Y-85801505D01*
X126461505Y-85968597D01*
X126331269Y-86154595D01*
X126276692Y-86198220D01*
X126207194Y-86205414D01*
X126144839Y-86173891D01*
X126128119Y-86154595D01*
X126074925Y-86078626D01*
X126074925Y-86078625D01*
X125443076Y-86710475D01*
X125419493Y-86630156D01*
X125341761Y-86509202D01*
X125233100Y-86415048D01*
X125102315Y-86355320D01*
X125092533Y-86353913D01*
X125721373Y-85725073D01*
X125721373Y-85725072D01*
X125637583Y-85666402D01*
X125637579Y-85666400D01*
X125423492Y-85566570D01*
X125423483Y-85566566D01*
X125195326Y-85505432D01*
X125195315Y-85505430D01*
X124960002Y-85484843D01*
X124959998Y-85484843D01*
X124724684Y-85505430D01*
X124724673Y-85505432D01*
X124496516Y-85566566D01*
X124496507Y-85566570D01*
X124282419Y-85666401D01*
X124198625Y-85725072D01*
X124827466Y-86353913D01*
X124817685Y-86355320D01*
X124686900Y-86415048D01*
X124578239Y-86509202D01*
X124500507Y-86630156D01*
X124476923Y-86710476D01*
X123845073Y-86078626D01*
X123791881Y-86154594D01*
X123737304Y-86198219D01*
X123667806Y-86205413D01*
X123605451Y-86173891D01*
X123588730Y-86154594D01*
X123458494Y-85968597D01*
X123291402Y-85801506D01*
X123291395Y-85801501D01*
X123097834Y-85665967D01*
X123097830Y-85665965D01*
X123097828Y-85665964D01*
X122883663Y-85566097D01*
X122883659Y-85566096D01*
X122883655Y-85566094D01*
X122655413Y-85504938D01*
X122655403Y-85504936D01*
X122420001Y-85484341D01*
X122419999Y-85484341D01*
X122184596Y-85504936D01*
X122184586Y-85504938D01*
X121956344Y-85566094D01*
X121956335Y-85566098D01*
X121742171Y-85665964D01*
X121742169Y-85665965D01*
X121548597Y-85801505D01*
X121381505Y-85968597D01*
X121251575Y-86154158D01*
X121196998Y-86197783D01*
X121127500Y-86204977D01*
X121065145Y-86173454D01*
X121048425Y-86154158D01*
X120918494Y-85968597D01*
X120751402Y-85801506D01*
X120751395Y-85801501D01*
X120557834Y-85665967D01*
X120557830Y-85665965D01*
X120557828Y-85665964D01*
X120343663Y-85566097D01*
X120343659Y-85566096D01*
X120343655Y-85566094D01*
X120115413Y-85504938D01*
X120115403Y-85504936D01*
X119880001Y-85484341D01*
X119879999Y-85484341D01*
X119644596Y-85504936D01*
X119644586Y-85504938D01*
X119416344Y-85566094D01*
X119416335Y-85566098D01*
X119202171Y-85665964D01*
X119202169Y-85665965D01*
X119008597Y-85801505D01*
X118841505Y-85968597D01*
X118705965Y-86162169D01*
X118705964Y-86162171D01*
X118606098Y-86376335D01*
X118606094Y-86376344D01*
X118544938Y-86604586D01*
X118544936Y-86604596D01*
X118524341Y-86839999D01*
X118524341Y-86840000D01*
X106355659Y-86840000D01*
X106335063Y-86604592D01*
X106273903Y-86376337D01*
X106174035Y-86162171D01*
X106168731Y-86154595D01*
X106038494Y-85968597D01*
X105871402Y-85801506D01*
X105871395Y-85801501D01*
X105677834Y-85665967D01*
X105677830Y-85665965D01*
X105677828Y-85665964D01*
X105463663Y-85566097D01*
X105463659Y-85566096D01*
X105463655Y-85566094D01*
X105235413Y-85504938D01*
X105235403Y-85504936D01*
X105000001Y-85484341D01*
X104999999Y-85484341D01*
X104764596Y-85504936D01*
X104764586Y-85504938D01*
X104536344Y-85566094D01*
X104536335Y-85566098D01*
X104322171Y-85665964D01*
X104322169Y-85665965D01*
X104128597Y-85801505D01*
X103961505Y-85968597D01*
X103831269Y-86154595D01*
X103776692Y-86198220D01*
X103707194Y-86205414D01*
X103644839Y-86173891D01*
X103628119Y-86154595D01*
X103574925Y-86078626D01*
X103574925Y-86078625D01*
X102943076Y-86710475D01*
X102919493Y-86630156D01*
X102841761Y-86509202D01*
X102733100Y-86415048D01*
X102602315Y-86355320D01*
X102592533Y-86353913D01*
X103221373Y-85725073D01*
X103221373Y-85725072D01*
X103137583Y-85666402D01*
X103137579Y-85666400D01*
X102923492Y-85566570D01*
X102923483Y-85566566D01*
X102695326Y-85505432D01*
X102695315Y-85505430D01*
X102460002Y-85484843D01*
X102459998Y-85484843D01*
X102224684Y-85505430D01*
X102224673Y-85505432D01*
X101996516Y-85566566D01*
X101996507Y-85566570D01*
X101782419Y-85666401D01*
X101698625Y-85725072D01*
X102327466Y-86353913D01*
X102317685Y-86355320D01*
X102186900Y-86415048D01*
X102078239Y-86509202D01*
X102000507Y-86630156D01*
X101976923Y-86710476D01*
X101345073Y-86078626D01*
X101291881Y-86154594D01*
X101237304Y-86198219D01*
X101167806Y-86205413D01*
X101105451Y-86173891D01*
X101088730Y-86154594D01*
X100958494Y-85968597D01*
X100791402Y-85801506D01*
X100791395Y-85801501D01*
X100597834Y-85665967D01*
X100597830Y-85665965D01*
X100597828Y-85665964D01*
X100383663Y-85566097D01*
X100383659Y-85566096D01*
X100383655Y-85566094D01*
X100155413Y-85504938D01*
X100155403Y-85504936D01*
X99920001Y-85484341D01*
X99919999Y-85484341D01*
X99684596Y-85504936D01*
X99684586Y-85504938D01*
X99456344Y-85566094D01*
X99456335Y-85566098D01*
X99242171Y-85665964D01*
X99242169Y-85665965D01*
X99048597Y-85801505D01*
X98881505Y-85968597D01*
X98751575Y-86154158D01*
X98696998Y-86197783D01*
X98627500Y-86204977D01*
X98565145Y-86173454D01*
X98548425Y-86154158D01*
X98418494Y-85968597D01*
X98251402Y-85801506D01*
X98251395Y-85801501D01*
X98057834Y-85665967D01*
X98057830Y-85665965D01*
X98057828Y-85665964D01*
X97843663Y-85566097D01*
X97843659Y-85566096D01*
X97843655Y-85566094D01*
X97615413Y-85504938D01*
X97615403Y-85504936D01*
X97380001Y-85484341D01*
X97379999Y-85484341D01*
X97144596Y-85504936D01*
X97144586Y-85504938D01*
X96916344Y-85566094D01*
X96916335Y-85566098D01*
X96702171Y-85665964D01*
X96702169Y-85665965D01*
X96508597Y-85801505D01*
X96341505Y-85968597D01*
X96205965Y-86162169D01*
X96205964Y-86162171D01*
X96106098Y-86376335D01*
X96106094Y-86376344D01*
X96044938Y-86604586D01*
X96044936Y-86604596D01*
X96024341Y-86839999D01*
X96024341Y-86840000D01*
X95090590Y-86840000D01*
X91054592Y-82804001D01*
X109946532Y-82804001D01*
X109966364Y-83030686D01*
X109966366Y-83030697D01*
X110025258Y-83250488D01*
X110025261Y-83250497D01*
X110121431Y-83456732D01*
X110121432Y-83456734D01*
X110251954Y-83643141D01*
X110412858Y-83804045D01*
X110412861Y-83804047D01*
X110599266Y-83934568D01*
X110805504Y-84030739D01*
X111025308Y-84089635D01*
X111187230Y-84103801D01*
X111251998Y-84109468D01*
X111252000Y-84109468D01*
X111252002Y-84109468D01*
X111308673Y-84104509D01*
X111478692Y-84089635D01*
X111698496Y-84030739D01*
X111904734Y-83934568D01*
X112091139Y-83804047D01*
X112252047Y-83643139D01*
X112382568Y-83456734D01*
X112478739Y-83250496D01*
X112537635Y-83030692D01*
X112557468Y-82804001D01*
X113248532Y-82804001D01*
X113268364Y-83030686D01*
X113268366Y-83030697D01*
X113327258Y-83250488D01*
X113327261Y-83250497D01*
X113423431Y-83456732D01*
X113423432Y-83456734D01*
X113553954Y-83643141D01*
X113714858Y-83804045D01*
X113714861Y-83804047D01*
X113901266Y-83934568D01*
X114107504Y-84030739D01*
X114327308Y-84089635D01*
X114489230Y-84103801D01*
X114553998Y-84109468D01*
X114554000Y-84109468D01*
X114554002Y-84109468D01*
X114610673Y-84104509D01*
X114780692Y-84089635D01*
X115000496Y-84030739D01*
X115206734Y-83934568D01*
X115393139Y-83804047D01*
X115554047Y-83643139D01*
X115684568Y-83456734D01*
X115780739Y-83250496D01*
X115839635Y-83030692D01*
X115859468Y-82804000D01*
X115839635Y-82577308D01*
X115780739Y-82357504D01*
X115684568Y-82151266D01*
X115554047Y-81964861D01*
X115554045Y-81964858D01*
X115393141Y-81803954D01*
X115206734Y-81673432D01*
X115206732Y-81673431D01*
X115000497Y-81577261D01*
X115000488Y-81577258D01*
X114780697Y-81518366D01*
X114780693Y-81518365D01*
X114780692Y-81518365D01*
X114780691Y-81518364D01*
X114780686Y-81518364D01*
X114554002Y-81498532D01*
X114553998Y-81498532D01*
X114327313Y-81518364D01*
X114327302Y-81518366D01*
X114107511Y-81577258D01*
X114107502Y-81577261D01*
X113901267Y-81673431D01*
X113901265Y-81673432D01*
X113714858Y-81803954D01*
X113553954Y-81964858D01*
X113423432Y-82151265D01*
X113423431Y-82151267D01*
X113327261Y-82357502D01*
X113327258Y-82357511D01*
X113268366Y-82577302D01*
X113268364Y-82577313D01*
X113248532Y-82803998D01*
X113248532Y-82804001D01*
X112557468Y-82804001D01*
X112557468Y-82804000D01*
X112537635Y-82577308D01*
X112478739Y-82357504D01*
X112382568Y-82151266D01*
X112252047Y-81964861D01*
X112252045Y-81964858D01*
X112091141Y-81803954D01*
X111904734Y-81673432D01*
X111904732Y-81673431D01*
X111698497Y-81577261D01*
X111698488Y-81577258D01*
X111478697Y-81518366D01*
X111478693Y-81518365D01*
X111478692Y-81518365D01*
X111478691Y-81518364D01*
X111478686Y-81518364D01*
X111252002Y-81498532D01*
X111251998Y-81498532D01*
X111025313Y-81518364D01*
X111025302Y-81518366D01*
X110805511Y-81577258D01*
X110805502Y-81577261D01*
X110599267Y-81673431D01*
X110599265Y-81673432D01*
X110412858Y-81803954D01*
X110251954Y-81964858D01*
X110121432Y-82151265D01*
X110121431Y-82151267D01*
X110025261Y-82357502D01*
X110025258Y-82357511D01*
X109966366Y-82577302D01*
X109966364Y-82577313D01*
X109946532Y-82803998D01*
X109946532Y-82804001D01*
X91054592Y-82804001D01*
X88384803Y-80134212D01*
X88374980Y-80121950D01*
X88374759Y-80122134D01*
X88369786Y-80116123D01*
X88334125Y-80082635D01*
X88319364Y-80068773D01*
X88308919Y-80058328D01*
X88298475Y-80047883D01*
X88292986Y-80043625D01*
X88288561Y-80039847D01*
X88254582Y-80007938D01*
X88254580Y-80007936D01*
X88254577Y-80007935D01*
X88237029Y-79998288D01*
X88220763Y-79987604D01*
X88204933Y-79975325D01*
X88162168Y-79956818D01*
X88156922Y-79954248D01*
X88116093Y-79931803D01*
X88116092Y-79931802D01*
X88096693Y-79926822D01*
X88078281Y-79920518D01*
X88059898Y-79912562D01*
X88059892Y-79912560D01*
X88013874Y-79905272D01*
X88008152Y-79904087D01*
X87963021Y-79892500D01*
X87963019Y-79892500D01*
X87942984Y-79892500D01*
X87923586Y-79890973D01*
X87916162Y-79889797D01*
X87903805Y-79887840D01*
X87903804Y-79887840D01*
X87857416Y-79892225D01*
X87851578Y-79892500D01*
X87574188Y-79892500D01*
X87507149Y-79872815D01*
X87472612Y-79839622D01*
X87446359Y-79802128D01*
X87424032Y-79735922D01*
X87441044Y-79668155D01*
X87460250Y-79643329D01*
X88426763Y-78676819D01*
X88488086Y-78643334D01*
X88514444Y-78640500D01*
X93706548Y-78640500D01*
X93773587Y-78660185D01*
X93794229Y-78676819D01*
X94503606Y-79386197D01*
X94518480Y-79404175D01*
X94523076Y-79410938D01*
X94523077Y-79410939D01*
X94523078Y-79410940D01*
X94566138Y-79448902D01*
X94568962Y-79451553D01*
X94581529Y-79464120D01*
X94581530Y-79464121D01*
X94595556Y-79475001D01*
X94598547Y-79477475D01*
X94615216Y-79492170D01*
X94641622Y-79515450D01*
X94648898Y-79519157D01*
X94668606Y-79531664D01*
X94675064Y-79536673D01*
X94713563Y-79553333D01*
X94727752Y-79559473D01*
X94731277Y-79561132D01*
X94782435Y-79587198D01*
X94782438Y-79587199D01*
X94786800Y-79588173D01*
X94790398Y-79588977D01*
X94812608Y-79596193D01*
X94820104Y-79599437D01*
X94820106Y-79599437D01*
X94820108Y-79599438D01*
X94857546Y-79605366D01*
X94876824Y-79608420D01*
X94880637Y-79609148D01*
X94936667Y-79621673D01*
X94944835Y-79621416D01*
X94968124Y-79622881D01*
X94976196Y-79624160D01*
X94976197Y-79624159D01*
X94976199Y-79624160D01*
X95015765Y-79620419D01*
X95033358Y-79618755D01*
X95037224Y-79618512D01*
X95094627Y-79616709D01*
X95102467Y-79614430D01*
X95125400Y-79610055D01*
X95133533Y-79609287D01*
X95187554Y-79589837D01*
X95191248Y-79588638D01*
X95202145Y-79585471D01*
X95246390Y-79572618D01*
X95253427Y-79568455D01*
X95274532Y-79558524D01*
X95282228Y-79555754D01*
X95329713Y-79523482D01*
X95332997Y-79521398D01*
X95336786Y-79519157D01*
X95382420Y-79492170D01*
X95388189Y-79486400D01*
X95406182Y-79471514D01*
X95412938Y-79466924D01*
X95450925Y-79423834D01*
X95453561Y-79421027D01*
X98903215Y-75971373D01*
X98964536Y-75937890D01*
X98980075Y-75935529D01*
X98985408Y-75935063D01*
X99213663Y-75873903D01*
X99427829Y-75774035D01*
X99621401Y-75638495D01*
X99788495Y-75471401D01*
X99898426Y-75314401D01*
X99953001Y-75270778D01*
X100022500Y-75263584D01*
X100084855Y-75295106D01*
X100101571Y-75314398D01*
X100166270Y-75406798D01*
X100211506Y-75471403D01*
X100350479Y-75610375D01*
X100378599Y-75638495D01*
X100421675Y-75668657D01*
X100572165Y-75774032D01*
X100572167Y-75774033D01*
X100572170Y-75774035D01*
X100786337Y-75873903D01*
X101014592Y-75935063D01*
X101191034Y-75950500D01*
X101249999Y-75955659D01*
X101250000Y-75955659D01*
X101250001Y-75955659D01*
X101308966Y-75950500D01*
X101485408Y-75935063D01*
X101713663Y-75873903D01*
X101927829Y-75774035D01*
X102121401Y-75638495D01*
X102268602Y-75491293D01*
X102329924Y-75457810D01*
X102399615Y-75462794D01*
X102455549Y-75504665D01*
X102461821Y-75513879D01*
X102465186Y-75519334D01*
X102557288Y-75668656D01*
X102681344Y-75792712D01*
X102830666Y-75884814D01*
X102997203Y-75939999D01*
X103099991Y-75950500D01*
X104400008Y-75950499D01*
X104502797Y-75939999D01*
X104669334Y-75884814D01*
X104818656Y-75792712D01*
X104942712Y-75668656D01*
X105034814Y-75519334D01*
X105089999Y-75352797D01*
X105100500Y-75250009D01*
X105100499Y-73699992D01*
X105099156Y-73686849D01*
X105089999Y-73597203D01*
X105089998Y-73597200D01*
X105077611Y-73559819D01*
X105034814Y-73430666D01*
X104942712Y-73281344D01*
X104818656Y-73157288D01*
X104710355Y-73090488D01*
X104669336Y-73065187D01*
X104669331Y-73065185D01*
X104667862Y-73064698D01*
X104502797Y-73010001D01*
X104502795Y-73010000D01*
X104400010Y-72999500D01*
X103099998Y-72999500D01*
X103099981Y-72999501D01*
X102997203Y-73010000D01*
X102997200Y-73010001D01*
X102830668Y-73065185D01*
X102830663Y-73065187D01*
X102681342Y-73157289D01*
X102557289Y-73281342D01*
X102461821Y-73436121D01*
X102409873Y-73482845D01*
X102340910Y-73494068D01*
X102276828Y-73466224D01*
X102268601Y-73458705D01*
X102121402Y-73311506D01*
X102121395Y-73311501D01*
X101927834Y-73175967D01*
X101927830Y-73175965D01*
X101887777Y-73157288D01*
X101713663Y-73076097D01*
X101713659Y-73076096D01*
X101713655Y-73076094D01*
X101485413Y-73014938D01*
X101485403Y-73014936D01*
X101250001Y-72994341D01*
X101249999Y-72994341D01*
X101014596Y-73014936D01*
X101014586Y-73014938D01*
X100815542Y-73068271D01*
X100745692Y-73066608D01*
X100695768Y-73036177D01*
X100303592Y-72644001D01*
X109946532Y-72644001D01*
X109966364Y-72870686D01*
X109966366Y-72870697D01*
X110025258Y-73090488D01*
X110025261Y-73090497D01*
X110121431Y-73296732D01*
X110121432Y-73296734D01*
X110251954Y-73483141D01*
X110412858Y-73644045D01*
X110412861Y-73644047D01*
X110599266Y-73774568D01*
X110805504Y-73870739D01*
X111025308Y-73929635D01*
X111187230Y-73943801D01*
X111251998Y-73949468D01*
X111252000Y-73949468D01*
X111252002Y-73949468D01*
X111308673Y-73944509D01*
X111478692Y-73929635D01*
X111698496Y-73870739D01*
X111904734Y-73774568D01*
X112091139Y-73644047D01*
X112252047Y-73483139D01*
X112382568Y-73296734D01*
X112478739Y-73090496D01*
X112537635Y-72870692D01*
X112557468Y-72644001D01*
X113248532Y-72644001D01*
X113268364Y-72870686D01*
X113268366Y-72870697D01*
X113327258Y-73090488D01*
X113327261Y-73090497D01*
X113423431Y-73296732D01*
X113423432Y-73296734D01*
X113553954Y-73483141D01*
X113714858Y-73644045D01*
X113714861Y-73644047D01*
X113901266Y-73774568D01*
X114107504Y-73870739D01*
X114327308Y-73929635D01*
X114489230Y-73943801D01*
X114553998Y-73949468D01*
X114554000Y-73949468D01*
X114554002Y-73949468D01*
X114610673Y-73944509D01*
X114780692Y-73929635D01*
X115000496Y-73870739D01*
X115206734Y-73774568D01*
X115393139Y-73644047D01*
X115554047Y-73483139D01*
X115684568Y-73296734D01*
X115780739Y-73090496D01*
X115839635Y-72870692D01*
X115859468Y-72644000D01*
X115839635Y-72417308D01*
X115793536Y-72245265D01*
X115780741Y-72197511D01*
X115780738Y-72197502D01*
X115684568Y-71991266D01*
X115554047Y-71804861D01*
X115554045Y-71804858D01*
X115393141Y-71643954D01*
X115206734Y-71513432D01*
X115206732Y-71513431D01*
X115000497Y-71417261D01*
X115000488Y-71417258D01*
X114780697Y-71358366D01*
X114780693Y-71358365D01*
X114780692Y-71358365D01*
X114780691Y-71358364D01*
X114780686Y-71358364D01*
X114554002Y-71338532D01*
X114553998Y-71338532D01*
X114327313Y-71358364D01*
X114327302Y-71358366D01*
X114107511Y-71417258D01*
X114107502Y-71417261D01*
X113901267Y-71513431D01*
X113901265Y-71513432D01*
X113714858Y-71643954D01*
X113553954Y-71804858D01*
X113423432Y-71991265D01*
X113423431Y-71991267D01*
X113327261Y-72197502D01*
X113327258Y-72197511D01*
X113268366Y-72417302D01*
X113268364Y-72417313D01*
X113248532Y-72643998D01*
X113248532Y-72644001D01*
X112557468Y-72644001D01*
X112557468Y-72644000D01*
X112537635Y-72417308D01*
X112491536Y-72245265D01*
X112478741Y-72197511D01*
X112478738Y-72197502D01*
X112382568Y-71991266D01*
X112252047Y-71804861D01*
X112252045Y-71804858D01*
X112091141Y-71643954D01*
X111904734Y-71513432D01*
X111904732Y-71513431D01*
X111698497Y-71417261D01*
X111698488Y-71417258D01*
X111478697Y-71358366D01*
X111478693Y-71358365D01*
X111478692Y-71358365D01*
X111478691Y-71358364D01*
X111478686Y-71358364D01*
X111252002Y-71338532D01*
X111251998Y-71338532D01*
X111025313Y-71358364D01*
X111025302Y-71358366D01*
X110805511Y-71417258D01*
X110805502Y-71417261D01*
X110599267Y-71513431D01*
X110599265Y-71513432D01*
X110412858Y-71643954D01*
X110251954Y-71804858D01*
X110121432Y-71991265D01*
X110121431Y-71991267D01*
X110025261Y-72197502D01*
X110025258Y-72197511D01*
X109966366Y-72417302D01*
X109966364Y-72417313D01*
X109946532Y-72643998D01*
X109946532Y-72644001D01*
X100303592Y-72644001D01*
X99810803Y-72151212D01*
X99800980Y-72138950D01*
X99800759Y-72139134D01*
X99795786Y-72133123D01*
X99777159Y-72115631D01*
X99745364Y-72085773D01*
X99734919Y-72075328D01*
X99724475Y-72064883D01*
X99718986Y-72060625D01*
X99714561Y-72056847D01*
X99680582Y-72024938D01*
X99680580Y-72024936D01*
X99680577Y-72024935D01*
X99663029Y-72015288D01*
X99646763Y-72004604D01*
X99630933Y-71992325D01*
X99588168Y-71973818D01*
X99582922Y-71971248D01*
X99542093Y-71948803D01*
X99542092Y-71948802D01*
X99522693Y-71943822D01*
X99504281Y-71937518D01*
X99485898Y-71929562D01*
X99485892Y-71929560D01*
X99439874Y-71922272D01*
X99434152Y-71921087D01*
X99389021Y-71909500D01*
X99389019Y-71909500D01*
X99368984Y-71909500D01*
X99349586Y-71907973D01*
X99342162Y-71906797D01*
X99329805Y-71904840D01*
X99329804Y-71904840D01*
X99283416Y-71909225D01*
X99277578Y-71909500D01*
X90361743Y-71909500D01*
X90346122Y-71907775D01*
X90346095Y-71908061D01*
X90338333Y-71907326D01*
X90269172Y-71909500D01*
X90239649Y-71909500D01*
X90232778Y-71910367D01*
X90226959Y-71910825D01*
X90180374Y-71912289D01*
X90180368Y-71912290D01*
X90161126Y-71917880D01*
X90142087Y-71921823D01*
X90122217Y-71924334D01*
X90122203Y-71924337D01*
X90078883Y-71941488D01*
X90073358Y-71943380D01*
X90028613Y-71956380D01*
X90028610Y-71956381D01*
X90011366Y-71966579D01*
X89993905Y-71975133D01*
X89975274Y-71982510D01*
X89975262Y-71982517D01*
X89937570Y-72009902D01*
X89932687Y-72013109D01*
X89892580Y-72036829D01*
X89878414Y-72050995D01*
X89863624Y-72063627D01*
X89847414Y-72075404D01*
X89847411Y-72075407D01*
X89817710Y-72111309D01*
X89813777Y-72115631D01*
X88423228Y-73506181D01*
X88361905Y-73539666D01*
X88335547Y-73542500D01*
X87784500Y-73542500D01*
X87717461Y-73522815D01*
X87671706Y-73470011D01*
X87660500Y-73418500D01*
X87660499Y-72050129D01*
X87660498Y-72050123D01*
X87660497Y-72050116D01*
X87654172Y-71991266D01*
X87654091Y-71990516D01*
X87603797Y-71855671D01*
X87603793Y-71855664D01*
X87517547Y-71740455D01*
X87517544Y-71740452D01*
X87402335Y-71654206D01*
X87402328Y-71654202D01*
X87267482Y-71603908D01*
X87267483Y-71603908D01*
X87207883Y-71597501D01*
X87207881Y-71597500D01*
X87207873Y-71597500D01*
X87207864Y-71597500D01*
X85512129Y-71597500D01*
X85512123Y-71597501D01*
X85452516Y-71603908D01*
X85317671Y-71654202D01*
X85317664Y-71654206D01*
X85202455Y-71740452D01*
X85202452Y-71740455D01*
X85116206Y-71855664D01*
X85116202Y-71855671D01*
X85065908Y-71990517D01*
X85059501Y-72050116D01*
X85059501Y-72050123D01*
X85059500Y-72050135D01*
X85059500Y-72148500D01*
X85039815Y-72215539D01*
X84987011Y-72261294D01*
X84935500Y-72272500D01*
X84655438Y-72272500D01*
X84639817Y-72270775D01*
X84639790Y-72271061D01*
X84632028Y-72270326D01*
X84562867Y-72272500D01*
X84533344Y-72272500D01*
X84526473Y-72273367D01*
X84520654Y-72273825D01*
X84474069Y-72275289D01*
X84474063Y-72275290D01*
X84454821Y-72280880D01*
X84435782Y-72284823D01*
X84415912Y-72287334D01*
X84415895Y-72287338D01*
X84372577Y-72304488D01*
X84367053Y-72306379D01*
X84322302Y-72319383D01*
X84322299Y-72319384D01*
X84305053Y-72329583D01*
X84287588Y-72338139D01*
X84281705Y-72340468D01*
X84268961Y-72345514D01*
X84231267Y-72372899D01*
X84226386Y-72376105D01*
X84186275Y-72399828D01*
X84172103Y-72414000D01*
X84157318Y-72426628D01*
X84141107Y-72438407D01*
X84111404Y-72474310D01*
X84107472Y-72478631D01*
X73064923Y-83521181D01*
X73003600Y-83554666D01*
X72977242Y-83557500D01*
X72494137Y-83557500D01*
X72427098Y-83537815D01*
X72381343Y-83485011D01*
X72371399Y-83415853D01*
X72374362Y-83401407D01*
X72388263Y-83349524D01*
X72405635Y-83284692D01*
X72425468Y-83058000D01*
X72405635Y-82831308D01*
X72346739Y-82611504D01*
X72250568Y-82405266D01*
X72120047Y-82218861D01*
X72120045Y-82218858D01*
X71959141Y-82057954D01*
X71772734Y-81927432D01*
X71772728Y-81927429D01*
X71714725Y-81900382D01*
X71662285Y-81854210D01*
X71643133Y-81787017D01*
X71663348Y-81720135D01*
X71714725Y-81675618D01*
X71719415Y-81673431D01*
X71772734Y-81648568D01*
X71959139Y-81518047D01*
X72120047Y-81357139D01*
X72250568Y-81170734D01*
X72346739Y-80964496D01*
X72405635Y-80744692D01*
X72425468Y-80518000D01*
X72405635Y-80291308D01*
X72346739Y-80071504D01*
X72250568Y-79865266D01*
X72120047Y-79678861D01*
X72120045Y-79678858D01*
X71959141Y-79517954D01*
X71852546Y-79443317D01*
X71772734Y-79387432D01*
X71716395Y-79361160D01*
X71663957Y-79314987D01*
X71644806Y-79247794D01*
X71665023Y-79180913D01*
X71671179Y-79172321D01*
X71673119Y-79169844D01*
X71718321Y-79133940D01*
X71772734Y-79108568D01*
X71959139Y-78978047D01*
X72120047Y-78817139D01*
X72250568Y-78630734D01*
X72346739Y-78424496D01*
X72405635Y-78204692D01*
X72425468Y-77978000D01*
X72405635Y-77751308D01*
X72360716Y-77583666D01*
X72346741Y-77531511D01*
X72346738Y-77531502D01*
X72334350Y-77504936D01*
X72250568Y-77325266D01*
X72120047Y-77138861D01*
X72120045Y-77138858D01*
X71959141Y-76977954D01*
X71772735Y-76847433D01*
X71772736Y-76847433D01*
X71772734Y-76847432D01*
X71714132Y-76820105D01*
X71661694Y-76773933D01*
X71642543Y-76706739D01*
X71662759Y-76639858D01*
X71714135Y-76595341D01*
X71772482Y-76568133D01*
X71845472Y-76517025D01*
X71252534Y-75924086D01*
X71262315Y-75922680D01*
X71393100Y-75862952D01*
X71501761Y-75768798D01*
X71579493Y-75647844D01*
X71603076Y-75567523D01*
X72199025Y-76163472D01*
X72250136Y-76090478D01*
X72346264Y-75884331D01*
X72346269Y-75884317D01*
X72405139Y-75664610D01*
X72405141Y-75664599D01*
X72424966Y-75438002D01*
X72424966Y-75437997D01*
X72405141Y-75211400D01*
X72405139Y-75211389D01*
X72346269Y-74991682D01*
X72346265Y-74991673D01*
X72250133Y-74785516D01*
X72250131Y-74785512D01*
X72199026Y-74712526D01*
X72199025Y-74712526D01*
X71603076Y-75308475D01*
X71579493Y-75228156D01*
X71501761Y-75107202D01*
X71393100Y-75013048D01*
X71262315Y-74953320D01*
X71252533Y-74951913D01*
X71845472Y-74358974D01*
X71845471Y-74358973D01*
X71772483Y-74307866D01*
X71772481Y-74307865D01*
X71714133Y-74280657D01*
X71661694Y-74234484D01*
X71642542Y-74167291D01*
X71662758Y-74100410D01*
X71714129Y-74055895D01*
X71772734Y-74028568D01*
X71959139Y-73898047D01*
X72120047Y-73737139D01*
X72250568Y-73550734D01*
X72346739Y-73344496D01*
X72405635Y-73124692D01*
X72425468Y-72898000D01*
X72405635Y-72671308D01*
X72346739Y-72451504D01*
X72250568Y-72245266D01*
X72120047Y-72058861D01*
X72120045Y-72058858D01*
X71959141Y-71897954D01*
X71772734Y-71767432D01*
X71772732Y-71767431D01*
X71566497Y-71671261D01*
X71566488Y-71671258D01*
X71346697Y-71612366D01*
X71346693Y-71612365D01*
X71346692Y-71612365D01*
X71346691Y-71612364D01*
X71346686Y-71612364D01*
X71120002Y-71592532D01*
X71119998Y-71592532D01*
X70893313Y-71612364D01*
X70893302Y-71612366D01*
X70673511Y-71671258D01*
X70673502Y-71671261D01*
X70467267Y-71767431D01*
X70467265Y-71767432D01*
X70280858Y-71897954D01*
X70119954Y-72058858D01*
X69989432Y-72245265D01*
X69989431Y-72245267D01*
X69893261Y-72451502D01*
X69893258Y-72451511D01*
X69834366Y-72671302D01*
X69834364Y-72671313D01*
X69814532Y-72897998D01*
X69814532Y-72898001D01*
X69834364Y-73124686D01*
X69834366Y-73124697D01*
X69893258Y-73344488D01*
X69893261Y-73344497D01*
X69989431Y-73550732D01*
X69989432Y-73550734D01*
X70119954Y-73737141D01*
X70280858Y-73898045D01*
X70280861Y-73898047D01*
X70467266Y-74028568D01*
X70525865Y-74055893D01*
X70578305Y-74102065D01*
X70597457Y-74169258D01*
X70577242Y-74236139D01*
X70525867Y-74280657D01*
X70467511Y-74307869D01*
X70394527Y-74358972D01*
X70394526Y-74358973D01*
X70987467Y-74951913D01*
X70977685Y-74953320D01*
X70846900Y-75013048D01*
X70738239Y-75107202D01*
X70660507Y-75228156D01*
X70636923Y-75308476D01*
X70040973Y-74712526D01*
X70040972Y-74712527D01*
X69989868Y-74785513D01*
X69893734Y-74991673D01*
X69893730Y-74991682D01*
X69834860Y-75211389D01*
X69834858Y-75211400D01*
X69815034Y-75437997D01*
X69815034Y-75438002D01*
X69834858Y-75664599D01*
X69834860Y-75664610D01*
X69893730Y-75884317D01*
X69893734Y-75884326D01*
X69989865Y-76090481D01*
X69989866Y-76090483D01*
X70040973Y-76163471D01*
X70040974Y-76163472D01*
X70636922Y-75567523D01*
X70660507Y-75647844D01*
X70738239Y-75768798D01*
X70846900Y-75862952D01*
X70977685Y-75922680D01*
X70987466Y-75924086D01*
X70394526Y-76517025D01*
X70394526Y-76517026D01*
X70467512Y-76568131D01*
X70467520Y-76568135D01*
X70525865Y-76595342D01*
X70578305Y-76641514D01*
X70597457Y-76708707D01*
X70577242Y-76775589D01*
X70525867Y-76820105D01*
X70525277Y-76820381D01*
X70467264Y-76847433D01*
X70280858Y-76977954D01*
X70119954Y-77138858D01*
X69989432Y-77325265D01*
X69989431Y-77325267D01*
X69893261Y-77531502D01*
X69893258Y-77531511D01*
X69834366Y-77751302D01*
X69834364Y-77751313D01*
X69814532Y-77977998D01*
X69814532Y-77978001D01*
X69834364Y-78204686D01*
X69834366Y-78204697D01*
X69893258Y-78424488D01*
X69893261Y-78424497D01*
X69989431Y-78630732D01*
X69989432Y-78630734D01*
X70032372Y-78692059D01*
X70054699Y-78758265D01*
X70037688Y-78826033D01*
X70018478Y-78850863D01*
X62766162Y-86103181D01*
X62704839Y-86136666D01*
X62678481Y-86139500D01*
X62032711Y-86139500D01*
X61965672Y-86119815D01*
X61931136Y-86086623D01*
X61925536Y-86078626D01*
X61848495Y-85968599D01*
X61848494Y-85968597D01*
X61681402Y-85801506D01*
X61681395Y-85801501D01*
X61487834Y-85665967D01*
X61487830Y-85665965D01*
X61487828Y-85665964D01*
X61273663Y-85566097D01*
X61273659Y-85566096D01*
X61273655Y-85566094D01*
X61045413Y-85504938D01*
X61045403Y-85504936D01*
X60810001Y-85484341D01*
X60809999Y-85484341D01*
X60574596Y-85504936D01*
X60574586Y-85504938D01*
X60346344Y-85566094D01*
X60346335Y-85566098D01*
X60132171Y-85665964D01*
X60132169Y-85665965D01*
X59938597Y-85801505D01*
X59771505Y-85968597D01*
X59641269Y-86154595D01*
X59586692Y-86198220D01*
X59517194Y-86205414D01*
X59454839Y-86173891D01*
X59438119Y-86154595D01*
X59384925Y-86078626D01*
X59384925Y-86078625D01*
X58753076Y-86710475D01*
X58729493Y-86630156D01*
X58651761Y-86509202D01*
X58543100Y-86415048D01*
X58412315Y-86355320D01*
X58402533Y-86353913D01*
X59031373Y-85725073D01*
X59031373Y-85725072D01*
X58947583Y-85666402D01*
X58947579Y-85666400D01*
X58733492Y-85566570D01*
X58733483Y-85566566D01*
X58505326Y-85505432D01*
X58505315Y-85505430D01*
X58270002Y-85484843D01*
X58269998Y-85484843D01*
X58034684Y-85505430D01*
X58034673Y-85505432D01*
X57806516Y-85566566D01*
X57806507Y-85566570D01*
X57592419Y-85666401D01*
X57508625Y-85725072D01*
X58137466Y-86353913D01*
X58127685Y-86355320D01*
X57996900Y-86415048D01*
X57888239Y-86509202D01*
X57810507Y-86630156D01*
X57786923Y-86710475D01*
X57155073Y-86078626D01*
X57101881Y-86154594D01*
X57047304Y-86198219D01*
X56977806Y-86205413D01*
X56915451Y-86173891D01*
X56898730Y-86154594D01*
X56768494Y-85968597D01*
X56601402Y-85801506D01*
X56601395Y-85801501D01*
X56407834Y-85665967D01*
X56407830Y-85665965D01*
X56407828Y-85665964D01*
X56193663Y-85566097D01*
X56193659Y-85566096D01*
X56193655Y-85566094D01*
X55965413Y-85504938D01*
X55965403Y-85504936D01*
X55730001Y-85484341D01*
X55729999Y-85484341D01*
X55494596Y-85504936D01*
X55494586Y-85504938D01*
X55266344Y-85566094D01*
X55266335Y-85566098D01*
X55052171Y-85665964D01*
X55052169Y-85665965D01*
X54858597Y-85801505D01*
X54691505Y-85968597D01*
X54561575Y-86154158D01*
X54506998Y-86197783D01*
X54437500Y-86204977D01*
X54375145Y-86173454D01*
X54358425Y-86154158D01*
X54228494Y-85968597D01*
X54061402Y-85801506D01*
X54061395Y-85801501D01*
X53867834Y-85665967D01*
X53867830Y-85665965D01*
X53867828Y-85665964D01*
X53653663Y-85566097D01*
X53653659Y-85566096D01*
X53653655Y-85566094D01*
X53425413Y-85504938D01*
X53425403Y-85504936D01*
X53190001Y-85484341D01*
X53189999Y-85484341D01*
X52954596Y-85504936D01*
X52954586Y-85504938D01*
X52726344Y-85566094D01*
X52726335Y-85566098D01*
X52512171Y-85665964D01*
X52512169Y-85665965D01*
X52318597Y-85801505D01*
X52151505Y-85968597D01*
X52015965Y-86162169D01*
X52015964Y-86162171D01*
X51916098Y-86376335D01*
X51916094Y-86376344D01*
X51854938Y-86604586D01*
X51854936Y-86604596D01*
X51834341Y-86839999D01*
X51834341Y-86840000D01*
X51854936Y-87075403D01*
X51854938Y-87075413D01*
X51916094Y-87303655D01*
X51916096Y-87303659D01*
X51916097Y-87303663D01*
X51988564Y-87459069D01*
X52015965Y-87517830D01*
X52015967Y-87517834D01*
X52080640Y-87610196D01*
X52151505Y-87711401D01*
X52318599Y-87878495D01*
X52398952Y-87934759D01*
X52512165Y-88014032D01*
X52512167Y-88014033D01*
X52512170Y-88014035D01*
X52726337Y-88113903D01*
X52954592Y-88175063D01*
X53142918Y-88191539D01*
X53189999Y-88195659D01*
X53190000Y-88195659D01*
X53190001Y-88195659D01*
X53229234Y-88192226D01*
X53425408Y-88175063D01*
X53653663Y-88113903D01*
X53867830Y-88014035D01*
X54061401Y-87878495D01*
X54228495Y-87711401D01*
X54358425Y-87525842D01*
X54413002Y-87482217D01*
X54482500Y-87475023D01*
X54544855Y-87506546D01*
X54561575Y-87525842D01*
X54691500Y-87711395D01*
X54691505Y-87711401D01*
X54858599Y-87878495D01*
X54938952Y-87934759D01*
X55052165Y-88014032D01*
X55052167Y-88014033D01*
X55052170Y-88014035D01*
X55266337Y-88113903D01*
X55494592Y-88175063D01*
X55682918Y-88191539D01*
X55729999Y-88195659D01*
X55730000Y-88195659D01*
X55730001Y-88195659D01*
X55769234Y-88192226D01*
X55965408Y-88175063D01*
X56193663Y-88113903D01*
X56407830Y-88014035D01*
X56601401Y-87878495D01*
X56768495Y-87711401D01*
X56898732Y-87525403D01*
X56953307Y-87481780D01*
X57022805Y-87474586D01*
X57085160Y-87506109D01*
X57101880Y-87525405D01*
X57155073Y-87601373D01*
X57786923Y-86969523D01*
X57810507Y-87049844D01*
X57888239Y-87170798D01*
X57996900Y-87264952D01*
X58127685Y-87324680D01*
X58137466Y-87326086D01*
X57508625Y-87954925D01*
X57592421Y-88013599D01*
X57806507Y-88113429D01*
X57806516Y-88113433D01*
X58034673Y-88174567D01*
X58034684Y-88174569D01*
X58269998Y-88195157D01*
X58270002Y-88195157D01*
X58505315Y-88174569D01*
X58505326Y-88174567D01*
X58733483Y-88113433D01*
X58733492Y-88113429D01*
X58947578Y-88013600D01*
X58947582Y-88013598D01*
X59031373Y-87954926D01*
X59031373Y-87954925D01*
X58402533Y-87326086D01*
X58412315Y-87324680D01*
X58543100Y-87264952D01*
X58651761Y-87170798D01*
X58729493Y-87049844D01*
X58753076Y-86969524D01*
X59384925Y-87601373D01*
X59438119Y-87525405D01*
X59492696Y-87481781D01*
X59562195Y-87474588D01*
X59624549Y-87506110D01*
X59641269Y-87525405D01*
X59771505Y-87711401D01*
X59938599Y-87878495D01*
X60018952Y-87934759D01*
X60132165Y-88014032D01*
X60132167Y-88014033D01*
X60132170Y-88014035D01*
X60346337Y-88113903D01*
X60574592Y-88175063D01*
X60762918Y-88191539D01*
X60809999Y-88195659D01*
X60810000Y-88195659D01*
X60810001Y-88195659D01*
X60849234Y-88192226D01*
X61045408Y-88175063D01*
X61273663Y-88113903D01*
X61487830Y-88014035D01*
X61681401Y-87878495D01*
X61848495Y-87711401D01*
X61931136Y-87593376D01*
X61985713Y-87549752D01*
X62032711Y-87540500D01*
X62996952Y-87540500D01*
X63000697Y-87540613D01*
X63008042Y-87541057D01*
X63062606Y-87544358D01*
X63100314Y-87537447D01*
X63123621Y-87533177D01*
X63127325Y-87532613D01*
X63145170Y-87530446D01*
X63188872Y-87525140D01*
X63198335Y-87521550D01*
X63219961Y-87515522D01*
X63220893Y-87515351D01*
X63229932Y-87513695D01*
X63286512Y-87488229D01*
X63289942Y-87486809D01*
X63347930Y-87464818D01*
X63356266Y-87459062D01*
X63375821Y-87448034D01*
X63385057Y-87443878D01*
X63433896Y-87405613D01*
X63436876Y-87403421D01*
X63487929Y-87368183D01*
X63529065Y-87321748D01*
X63531599Y-87319056D01*
X69765783Y-81084872D01*
X69827104Y-81051389D01*
X69896796Y-81056373D01*
X69952729Y-81098245D01*
X69965842Y-81120146D01*
X69989432Y-81170734D01*
X69989433Y-81170735D01*
X70119954Y-81357141D01*
X70280858Y-81518045D01*
X70310914Y-81539090D01*
X70467266Y-81648568D01*
X70520585Y-81673431D01*
X70525275Y-81675618D01*
X70577714Y-81721791D01*
X70596866Y-81788984D01*
X70576650Y-81855865D01*
X70525275Y-81900382D01*
X70467267Y-81927431D01*
X70467265Y-81927432D01*
X70280858Y-82057954D01*
X70119954Y-82218858D01*
X69989432Y-82405265D01*
X69989431Y-82405267D01*
X69893261Y-82611502D01*
X69893258Y-82611511D01*
X69834366Y-82831302D01*
X69834364Y-82831313D01*
X69814532Y-83057998D01*
X69814532Y-83058001D01*
X69834364Y-83284686D01*
X69834366Y-83284697D01*
X69893258Y-83504488D01*
X69893261Y-83504497D01*
X69989431Y-83710732D01*
X70076054Y-83834445D01*
X70098381Y-83900651D01*
X70081369Y-83968418D01*
X70062159Y-83993248D01*
X66418208Y-87637199D01*
X66405951Y-87647020D01*
X66406134Y-87647241D01*
X66400123Y-87652213D01*
X66352772Y-87702636D01*
X66331889Y-87723519D01*
X66331877Y-87723532D01*
X66327621Y-87729017D01*
X66323837Y-87733447D01*
X66291937Y-87767418D01*
X66291936Y-87767420D01*
X66282284Y-87784976D01*
X66271610Y-87801226D01*
X66259329Y-87817061D01*
X66259324Y-87817068D01*
X66240815Y-87859838D01*
X66238245Y-87865084D01*
X66215803Y-87905906D01*
X66210822Y-87925307D01*
X66204521Y-87943710D01*
X66196562Y-87962102D01*
X66196561Y-87962105D01*
X66189271Y-88008127D01*
X66188087Y-88013846D01*
X66176501Y-88058972D01*
X66176500Y-88058982D01*
X66176500Y-88079016D01*
X66174973Y-88098415D01*
X66171840Y-88118194D01*
X66171840Y-88118195D01*
X66176225Y-88164583D01*
X66176500Y-88170421D01*
X66176500Y-88217852D01*
X66156815Y-88284891D01*
X66140181Y-88305533D01*
X58107533Y-96338181D01*
X58046210Y-96371666D01*
X58019852Y-96374500D01*
X57005227Y-96374500D01*
X56938188Y-96354815D01*
X56903652Y-96321623D01*
X56768494Y-96128597D01*
X56601402Y-95961506D01*
X56601395Y-95961501D01*
X56407834Y-95825967D01*
X56407830Y-95825965D01*
X56407828Y-95825964D01*
X56193663Y-95726097D01*
X56193659Y-95726096D01*
X56193655Y-95726094D01*
X55965413Y-95664938D01*
X55965403Y-95664936D01*
X55730001Y-95644341D01*
X55729999Y-95644341D01*
X55494596Y-95664936D01*
X55494586Y-95664938D01*
X55266344Y-95726094D01*
X55266335Y-95726098D01*
X55052171Y-95825964D01*
X55052169Y-95825965D01*
X54858597Y-95961505D01*
X54691505Y-96128597D01*
X54561575Y-96314158D01*
X54506998Y-96357783D01*
X54437500Y-96364977D01*
X54375145Y-96333454D01*
X54358425Y-96314158D01*
X54228494Y-96128597D01*
X54061402Y-95961506D01*
X54061395Y-95961501D01*
X53867834Y-95825967D01*
X53867830Y-95825965D01*
X53867828Y-95825964D01*
X53653663Y-95726097D01*
X53653659Y-95726096D01*
X53653655Y-95726094D01*
X53425413Y-95664938D01*
X53425403Y-95664936D01*
X53190001Y-95644341D01*
X53189999Y-95644341D01*
X52954596Y-95664936D01*
X52954586Y-95664938D01*
X52726344Y-95726094D01*
X52726335Y-95726098D01*
X52512171Y-95825964D01*
X52512169Y-95825965D01*
X52318597Y-95961505D01*
X52151505Y-96128597D01*
X52015965Y-96322169D01*
X52015964Y-96322171D01*
X51916098Y-96536335D01*
X51916094Y-96536344D01*
X51854938Y-96764586D01*
X51854936Y-96764596D01*
X51834341Y-96999999D01*
X51834341Y-97000000D01*
X51000500Y-97000000D01*
X51000500Y-70124500D01*
X51020185Y-70057461D01*
X51072989Y-70011706D01*
X51124500Y-70000500D01*
X150875500Y-70000500D01*
X150942539Y-70020185D01*
G37*
%TD.AperFunction*%
%TD*%
M02*
