%TF.GenerationSoftware,KiCad,Pcbnew,7.0.9*%
%TF.CreationDate,2024-10-29T13:44:47+09:00*%
%TF.ProjectId,01-main,30312d6d-6169-46e2-9e6b-696361645f70,rev?*%
%TF.SameCoordinates,Original*%
%TF.FileFunction,Legend,Bot*%
%TF.FilePolarity,Positive*%
%FSLAX46Y46*%
G04 Gerber Fmt 4.6, Leading zero omitted, Abs format (unit mm)*
G04 Created by KiCad (PCBNEW 7.0.9) date 2024-10-29 13:44:47*
%MOMM*%
%LPD*%
G01*
G04 APERTURE LIST*
G04 Aperture macros list*
%AMRoundRect*
0 Rectangle with rounded corners*
0 $1 Rounding radius*
0 $2 $3 $4 $5 $6 $7 $8 $9 X,Y pos of 4 corners*
0 Add a 4 corners polygon primitive as box body*
4,1,4,$2,$3,$4,$5,$6,$7,$8,$9,$2,$3,0*
0 Add four circle primitives for the rounded corners*
1,1,$1+$1,$2,$3*
1,1,$1+$1,$4,$5*
1,1,$1+$1,$6,$7*
1,1,$1+$1,$8,$9*
0 Add four rect primitives between the rounded corners*
20,1,$1+$1,$2,$3,$4,$5,0*
20,1,$1+$1,$4,$5,$6,$7,0*
20,1,$1+$1,$6,$7,$8,$9,0*
20,1,$1+$1,$8,$9,$2,$3,0*%
G04 Aperture macros list end*
%ADD10C,0.150000*%
%ADD11RoundRect,0.250000X-0.600000X-0.725000X0.600000X-0.725000X0.600000X0.725000X-0.600000X0.725000X0*%
%ADD12O,1.700000X1.950000*%
%ADD13C,1.524000*%
%ADD14C,3.200000*%
%ADD15R,0.900000X2.000000*%
%ADD16RoundRect,1.025000X-1.025000X-1.025000X1.025000X-1.025000X1.025000X1.025000X-1.025000X1.025000X0*%
%ADD17C,4.100000*%
%ADD18R,1.700000X1.700000*%
%ADD19O,1.700000X1.700000*%
%ADD20C,2.000000*%
%ADD21RoundRect,0.250000X0.600000X0.725000X-0.600000X0.725000X-0.600000X-0.725000X0.600000X-0.725000X0*%
%ADD22C,0.650000*%
%ADD23O,2.100000X1.000000*%
%ADD24O,1.800000X1.000000*%
%ADD25R,2.000000X2.000000*%
%ADD26R,1.500000X1.050000*%
%ADD27O,1.500000X1.050000*%
G04 APERTURE END LIST*
D10*
X168910001Y-96520000D02*
G75*
G03*
X168910001Y-96520000I-4065984J0D01*
G01*
X163830000Y-94615000D02*
X163830000Y-96520000D01*
X162560000Y-94615000D02*
X162560000Y-96520000D01*
%TO.C,G\u002A\u002A\u002A*%
G36*
X154507045Y-131576175D02*
G01*
X154751502Y-131590849D01*
X155216875Y-131647247D01*
X155668399Y-131746463D01*
X156141555Y-131897214D01*
X156671818Y-132108220D01*
X156908864Y-132212179D01*
X157101899Y-132304374D01*
X157191509Y-132358821D01*
X157176688Y-132374396D01*
X157056429Y-132349976D01*
X156829726Y-132284440D01*
X156541572Y-132201131D01*
X156024598Y-132087916D01*
X155525671Y-132034067D01*
X154995801Y-132032863D01*
X154850708Y-132040848D01*
X154413390Y-132099509D01*
X154057575Y-132212508D01*
X153763753Y-132387738D01*
X153512413Y-132633095D01*
X153299187Y-132888181D01*
X152503230Y-132888181D01*
X152206234Y-132886404D01*
X151965537Y-132879242D01*
X151812101Y-132865212D01*
X151730990Y-132842863D01*
X151707272Y-132810741D01*
X151728866Y-132754292D01*
X151825604Y-132629965D01*
X151980364Y-132472142D01*
X152171484Y-132300020D01*
X152377300Y-132132799D01*
X152576147Y-131989679D01*
X152746363Y-131889858D01*
X152881775Y-131827166D01*
X153246266Y-131690634D01*
X153615131Y-131607480D01*
X154023636Y-131571421D01*
X154507045Y-131576175D01*
G37*
G36*
X157637402Y-133072697D02*
G01*
X157693183Y-133112729D01*
X157737137Y-133198186D01*
X157778161Y-133345957D01*
X157825154Y-133572932D01*
X157887016Y-133896000D01*
X157930530Y-134112622D01*
X157983546Y-134351706D01*
X158029453Y-134532814D01*
X158061614Y-134628113D01*
X158061615Y-134628114D01*
X158179720Y-134745743D01*
X158340126Y-134767267D01*
X158516065Y-134689092D01*
X158673036Y-134573038D01*
X158855836Y-134688779D01*
X158885601Y-134708184D01*
X158994561Y-134791336D01*
X159038636Y-134846515D01*
X159038432Y-134850843D01*
X158985890Y-134939090D01*
X158865496Y-135043821D01*
X158713501Y-135138251D01*
X158566157Y-135195598D01*
X158318544Y-135218392D01*
X158023463Y-135162624D01*
X157768672Y-135024482D01*
X157583428Y-134815290D01*
X157550652Y-134736813D01*
X157494924Y-134557129D01*
X157429665Y-134314306D01*
X157361474Y-134036542D01*
X157296949Y-133752033D01*
X157242690Y-133488978D01*
X157205295Y-133275573D01*
X157191363Y-133140016D01*
X157195461Y-133120096D01*
X157270350Y-133075525D01*
X157447246Y-133061363D01*
X157454757Y-133061353D01*
X157560892Y-133061201D01*
X157637402Y-133072697D01*
G37*
G36*
X154064961Y-133062235D02*
G01*
X154195624Y-133069063D01*
X154247272Y-133080453D01*
X154255529Y-133126758D01*
X154283343Y-133270011D01*
X154327247Y-133491842D01*
X154383577Y-133773753D01*
X154448669Y-134097242D01*
X154503691Y-134378124D01*
X154557283Y-134672213D01*
X154596349Y-134911068D01*
X154617774Y-135075446D01*
X154618444Y-135146107D01*
X154551753Y-135165959D01*
X154393307Y-135182235D01*
X154166839Y-135193233D01*
X153896073Y-135197272D01*
X153205324Y-135197272D01*
X153146669Y-135042999D01*
X153113968Y-134942336D01*
X153111579Y-134835760D01*
X153178624Y-134772894D01*
X153330247Y-134743029D01*
X153581597Y-134735454D01*
X153623630Y-134735387D01*
X153822971Y-134733007D01*
X153963103Y-134727908D01*
X154015905Y-134721022D01*
X154015860Y-134720530D01*
X154003463Y-134656293D01*
X153972255Y-134502495D01*
X153926781Y-134281369D01*
X153871587Y-134015148D01*
X153856575Y-133943000D01*
X153789256Y-133613703D01*
X153747391Y-133378687D01*
X153732911Y-133222053D01*
X153747750Y-133127903D01*
X153793840Y-133080337D01*
X153873112Y-133063457D01*
X153987500Y-133061363D01*
X154064961Y-133062235D01*
G37*
G36*
X151916967Y-133090114D02*
G01*
X152208100Y-133228646D01*
X152466768Y-133429577D01*
X152672389Y-133683901D01*
X152804381Y-133982613D01*
X152811242Y-134008096D01*
X152858246Y-134358753D01*
X152811202Y-134665035D01*
X152676440Y-134914840D01*
X152460292Y-135096071D01*
X152169090Y-135196628D01*
X152142344Y-135200751D01*
X151856486Y-135202807D01*
X151554578Y-135146006D01*
X151299418Y-135041548D01*
X151292212Y-135037266D01*
X151165878Y-134940462D01*
X151141404Y-134845162D01*
X151210359Y-134721022D01*
X151225710Y-134701493D01*
X151308315Y-134633389D01*
X151411043Y-134635474D01*
X151570787Y-134706235D01*
X151764942Y-134778953D01*
X151964992Y-134768887D01*
X152142851Y-134651487D01*
X152179584Y-134610145D01*
X152272539Y-134403188D01*
X152269019Y-134150852D01*
X152168524Y-133868435D01*
X152125282Y-133793695D01*
X151947536Y-133601849D01*
X151730750Y-133491458D01*
X151500618Y-133471705D01*
X151282830Y-133551776D01*
X151261043Y-133565789D01*
X151176005Y-133602792D01*
X151100607Y-133575539D01*
X150992354Y-133472419D01*
X150833624Y-133306740D01*
X150985874Y-133186979D01*
X151054604Y-133138962D01*
X151319637Y-133036267D01*
X151613952Y-133022986D01*
X151916967Y-133090114D01*
G37*
G36*
X153856478Y-135792275D02*
G01*
X154118738Y-136037911D01*
X154403079Y-136252236D01*
X154709090Y-136423429D01*
X154967124Y-136542721D01*
X155284056Y-136666566D01*
X155590294Y-136751941D01*
X155917195Y-136805237D01*
X156296114Y-136832846D01*
X156758409Y-136841159D01*
X156957876Y-136841293D01*
X157239781Y-136839074D01*
X157445190Y-136830651D01*
X157599125Y-136812447D01*
X157726605Y-136780886D01*
X157852649Y-136732393D01*
X158002279Y-136663393D01*
X158381315Y-136451281D01*
X158714962Y-136175526D01*
X158961265Y-135850611D01*
X159019446Y-135757008D01*
X159096681Y-135653095D01*
X159138795Y-135624552D01*
X159139950Y-135626225D01*
X159135439Y-135699113D01*
X159101990Y-135848977D01*
X159046227Y-136045683D01*
X158992534Y-136200023D01*
X158767841Y-136623908D01*
X158449903Y-136981024D01*
X158038219Y-137271757D01*
X157532282Y-137496489D01*
X156931590Y-137655604D01*
X156614789Y-137700092D01*
X156027369Y-137708946D01*
X155403272Y-137637753D01*
X154765595Y-137492317D01*
X154137436Y-137278438D01*
X153541892Y-137001918D01*
X153002061Y-136668560D01*
X152826458Y-136532512D01*
X152559358Y-136293657D01*
X152299921Y-136029983D01*
X152077259Y-135771630D01*
X151920486Y-135548743D01*
X151816200Y-135370454D01*
X152626510Y-135370454D01*
X153436821Y-135370454D01*
X153856478Y-135792275D01*
G37*
G36*
X145680042Y-132830743D02*
G01*
X145897646Y-132836293D01*
X146030219Y-132852133D01*
X146100486Y-132882462D01*
X146131173Y-132931477D01*
X146157971Y-133021678D01*
X146221225Y-133250334D01*
X146297773Y-133541489D01*
X146383419Y-133877710D01*
X146473970Y-134241563D01*
X146565232Y-134615612D01*
X146653010Y-134982423D01*
X146733111Y-135324563D01*
X146801340Y-135624596D01*
X146853504Y-135865088D01*
X146885408Y-136028606D01*
X146892858Y-136097714D01*
X146880186Y-136114333D01*
X146826930Y-136137178D01*
X146722538Y-136154149D01*
X146554149Y-136166013D01*
X146308905Y-136173537D01*
X145973944Y-136177489D01*
X145536406Y-136178636D01*
X144211007Y-136178636D01*
X144141062Y-135866090D01*
X144109216Y-135719181D01*
X144089555Y-135571649D01*
X144110299Y-135472994D01*
X144186460Y-135413382D01*
X144333046Y-135382977D01*
X144565067Y-135371946D01*
X144897532Y-135370454D01*
X145133938Y-135369881D01*
X145367965Y-135366048D01*
X145516601Y-135356497D01*
X145597172Y-135338819D01*
X145627001Y-135310600D01*
X145623415Y-135269431D01*
X145594406Y-135167113D01*
X145538226Y-134954352D01*
X145469637Y-134683570D01*
X145393718Y-134376013D01*
X145315546Y-134052929D01*
X145240200Y-133735565D01*
X145172758Y-133445166D01*
X145118298Y-133202981D01*
X145081898Y-133030256D01*
X145068636Y-132948237D01*
X145073604Y-132900913D01*
X145105472Y-132862515D01*
X145186476Y-132841338D01*
X145338716Y-132832334D01*
X145584291Y-132830454D01*
X145680042Y-132830743D01*
G37*
G36*
X147753951Y-132843088D02*
G01*
X148496034Y-132859318D01*
X148570767Y-133147954D01*
X148608583Y-133298196D01*
X148637844Y-133456256D01*
X148624862Y-133540785D01*
X148563014Y-133574697D01*
X148445681Y-133580909D01*
X148404928Y-133581093D01*
X148319969Y-133588905D01*
X148269746Y-133621198D01*
X148253017Y-133695453D01*
X148268537Y-133829149D01*
X148315063Y-134039763D01*
X148391354Y-134344774D01*
X148477581Y-134667277D01*
X148561908Y-134930808D01*
X148643568Y-135117519D01*
X148731195Y-135246811D01*
X148833424Y-135338086D01*
X148837287Y-135340727D01*
X148997487Y-135400009D01*
X149220010Y-135425459D01*
X149457898Y-135415382D01*
X149664194Y-135368082D01*
X149784389Y-135340664D01*
X149883088Y-135378642D01*
X149958640Y-135502901D01*
X150025619Y-135727949D01*
X150042424Y-135798387D01*
X150078906Y-135975664D01*
X150080262Y-136078639D01*
X150042348Y-136136101D01*
X149961022Y-136176837D01*
X149814829Y-136208782D01*
X149584988Y-136226891D01*
X149308728Y-136230481D01*
X149020530Y-136219998D01*
X148754876Y-136195887D01*
X148546249Y-136158591D01*
X148185731Y-136020075D01*
X147875625Y-135795415D01*
X147651004Y-135497943D01*
X147603430Y-135388805D01*
X147532860Y-135187269D01*
X147450438Y-134923371D01*
X147361178Y-134616323D01*
X147270093Y-134285338D01*
X147182196Y-133949631D01*
X147102500Y-133628415D01*
X147036020Y-133340903D01*
X146987768Y-133106308D01*
X146962758Y-132943844D01*
X146966002Y-132872724D01*
X146969631Y-132870232D01*
X147055853Y-132854821D01*
X147230878Y-132844574D01*
X147471358Y-132840371D01*
X147753951Y-132843088D01*
G37*
G36*
X141558369Y-132812164D02*
G01*
X141909507Y-132858667D01*
X142191078Y-132936126D01*
X142637585Y-133168487D01*
X143005074Y-133481055D01*
X143285620Y-133868510D01*
X143476041Y-134327409D01*
X143542389Y-134628565D01*
X143557668Y-135038600D01*
X143481510Y-135406549D01*
X143318706Y-135720424D01*
X143074049Y-135968236D01*
X142752329Y-136137999D01*
X142517953Y-136195434D01*
X142167433Y-136228951D01*
X141780728Y-136223897D01*
X141397295Y-136181121D01*
X141056590Y-136101473D01*
X140652500Y-135972401D01*
X140542584Y-135553321D01*
X140516173Y-135449391D01*
X140475498Y-135252160D01*
X140471000Y-135131988D01*
X140500729Y-135066179D01*
X140577124Y-135028166D01*
X140687039Y-135071965D01*
X140764536Y-135119070D01*
X141197359Y-135329945D01*
X141598224Y-135431626D01*
X141969715Y-135424824D01*
X141974483Y-135424006D01*
X142171725Y-135367746D01*
X142297414Y-135266380D01*
X142368271Y-135097125D01*
X142401020Y-134837197D01*
X142387872Y-134532604D01*
X142286565Y-134194496D01*
X142099402Y-133914687D01*
X141835098Y-133710523D01*
X141601667Y-133619028D01*
X141256665Y-133580696D01*
X140910890Y-133641754D01*
X140593994Y-133800064D01*
X140484513Y-133872514D01*
X140339381Y-133953498D01*
X140248334Y-133985000D01*
X140245931Y-133984875D01*
X140186327Y-133928586D01*
X140118168Y-133790894D01*
X140052329Y-133602671D01*
X139999686Y-133394786D01*
X139971114Y-133198109D01*
X139969873Y-133145780D01*
X139995257Y-133064106D01*
X140079577Y-132998357D01*
X140248409Y-132923173D01*
X140462616Y-132860886D01*
X140797416Y-132813023D01*
X141175169Y-132796866D01*
X141558369Y-132812164D01*
G37*
G36*
X139622867Y-134345413D02*
G01*
X139746011Y-134833586D01*
X139844344Y-135231154D01*
X139919522Y-135545026D01*
X139973200Y-135782109D01*
X140007033Y-135949309D01*
X140022676Y-136053534D01*
X140021786Y-136101690D01*
X139993113Y-136134837D01*
X139905893Y-136160885D01*
X139743569Y-136170626D01*
X139486251Y-136166465D01*
X138981978Y-136149772D01*
X138911459Y-135890000D01*
X138898764Y-135843067D01*
X138835517Y-135606066D01*
X138777563Y-135384886D01*
X138714186Y-135139545D01*
X138297888Y-135138860D01*
X137955227Y-135119902D01*
X137506022Y-135032950D01*
X137114032Y-134881989D01*
X136792424Y-134674160D01*
X136554363Y-134416604D01*
X136413016Y-134116464D01*
X136382415Y-133988302D01*
X136377157Y-133900135D01*
X137524689Y-133900135D01*
X137584765Y-134067195D01*
X137677365Y-134179091D01*
X137796652Y-134274520D01*
X137845612Y-134295090D01*
X138006921Y-134338592D01*
X138200743Y-134371183D01*
X138215964Y-134372971D01*
X138369395Y-134384460D01*
X138457035Y-134362043D01*
X138487464Y-134286424D01*
X138469264Y-134138311D01*
X138411016Y-133898409D01*
X138390876Y-133823547D01*
X138339209Y-133683789D01*
X138274176Y-133616314D01*
X138172103Y-133590626D01*
X138158501Y-133589113D01*
X137896166Y-133591187D01*
X137694007Y-133651081D01*
X137565642Y-133757747D01*
X137524689Y-133900135D01*
X136377157Y-133900135D01*
X136364002Y-133679535D01*
X136444021Y-133411041D01*
X136627363Y-133161029D01*
X136633229Y-133154938D01*
X136769060Y-133042609D01*
X136940007Y-132957797D01*
X137162020Y-132897339D01*
X137451046Y-132858072D01*
X137823034Y-132836831D01*
X138293934Y-132830454D01*
X139233731Y-132830454D01*
X139289660Y-133046931D01*
X139295524Y-133069629D01*
X139473256Y-133759730D01*
X139607798Y-134286424D01*
X139622867Y-134345413D01*
G37*
G36*
X134342468Y-132808544D02*
G01*
X134519957Y-132823720D01*
X134664248Y-132854682D01*
X134806520Y-132906649D01*
X134977950Y-132984840D01*
X135275880Y-133151642D01*
X135653190Y-133461648D01*
X135941533Y-133834834D01*
X136133649Y-134261019D01*
X136222279Y-134730021D01*
X136227150Y-134912389D01*
X136213050Y-135166603D01*
X136179066Y-135370454D01*
X136126667Y-135510069D01*
X135952401Y-135769245D01*
X135706492Y-135988619D01*
X135417793Y-136139057D01*
X135173986Y-136197607D01*
X134825898Y-136229190D01*
X134443023Y-136223389D01*
X134064877Y-136181048D01*
X133730973Y-136103011D01*
X133332628Y-135975478D01*
X133227887Y-135600807D01*
X133176109Y-135407945D01*
X133136871Y-135246431D01*
X133121119Y-135160153D01*
X133137536Y-135098376D01*
X133229350Y-135070076D01*
X133404354Y-135114273D01*
X133665561Y-135231359D01*
X133787677Y-135290818D01*
X134001474Y-135376235D01*
X134197135Y-135417471D01*
X134427528Y-135428181D01*
X134559036Y-135426377D01*
X134728338Y-135409677D01*
X134842512Y-135366600D01*
X134940124Y-135286487D01*
X134982198Y-135236194D01*
X135068708Y-135027982D01*
X135089029Y-134762128D01*
X135043365Y-134466428D01*
X134931919Y-134168679D01*
X134778977Y-133925396D01*
X134547088Y-133719391D01*
X134257145Y-133609835D01*
X133899419Y-133591287D01*
X133860583Y-133593944D01*
X133630666Y-133624164D01*
X133452689Y-133686702D01*
X133271322Y-133799936D01*
X133143281Y-133888126D01*
X132989938Y-133966402D01*
X132886785Y-133957652D01*
X132811723Y-133855811D01*
X132742658Y-133654812D01*
X132712172Y-133548695D01*
X132653969Y-133318294D01*
X132639590Y-133164715D01*
X132674799Y-133063764D01*
X132765363Y-132991247D01*
X132917045Y-132922970D01*
X132972104Y-132901882D01*
X133133437Y-132854833D01*
X133322049Y-132825223D01*
X133567264Y-132809502D01*
X133898409Y-132804117D01*
X134100605Y-132803935D01*
X134342468Y-132808544D01*
G37*
G36*
X132311431Y-134452551D02*
G01*
X132327695Y-134516286D01*
X132429831Y-134924081D01*
X132519546Y-135295077D01*
X132550364Y-135428181D01*
X132593456Y-135614299D01*
X132648175Y-135866777D01*
X132680319Y-136037536D01*
X132686502Y-136111606D01*
X132686022Y-136112788D01*
X132652880Y-136139206D01*
X132570868Y-136157903D01*
X132426686Y-136169504D01*
X132207036Y-136174634D01*
X131898620Y-136173920D01*
X131488139Y-136167987D01*
X131458352Y-136167451D01*
X131062676Y-136159336D01*
X130762088Y-136149890D01*
X130537482Y-136137083D01*
X130369751Y-136118884D01*
X130239787Y-136093264D01*
X130128483Y-136058192D01*
X130016732Y-136011638D01*
X129793303Y-135887936D01*
X129549911Y-135680752D01*
X129375839Y-135442117D01*
X129277292Y-135189744D01*
X129268206Y-135055557D01*
X130434772Y-135055557D01*
X130441342Y-135134838D01*
X130497725Y-135238138D01*
X130636818Y-135327069D01*
X130685542Y-135348362D01*
X130903652Y-135405837D01*
X131146518Y-135428092D01*
X131454173Y-135428181D01*
X131413368Y-135240568D01*
X131381565Y-135100668D01*
X131328867Y-134931262D01*
X131261862Y-134839764D01*
X131159078Y-134803284D01*
X130999042Y-134798936D01*
X130931660Y-134800746D01*
X130686978Y-134820009D01*
X130534733Y-134863382D01*
X130456730Y-134939139D01*
X130434772Y-135055557D01*
X129268206Y-135055557D01*
X129260472Y-134941345D01*
X129331585Y-134714633D01*
X129496833Y-134527319D01*
X129633728Y-134424058D01*
X129384819Y-134185561D01*
X129301983Y-134103781D01*
X129195424Y-133974691D01*
X129147214Y-133854264D01*
X129142309Y-133787656D01*
X130290454Y-133787656D01*
X130311842Y-133879082D01*
X130407561Y-133985884D01*
X130442833Y-134001953D01*
X130583272Y-134043025D01*
X130754933Y-134074007D01*
X130921924Y-134090778D01*
X131048349Y-134089216D01*
X131098314Y-134065200D01*
X131097384Y-134053318D01*
X131076832Y-133949653D01*
X131037873Y-133797386D01*
X131031249Y-133773852D01*
X130981518Y-133644629D01*
X130906402Y-133591579D01*
X130763991Y-133581697D01*
X130631442Y-133585348D01*
X130432132Y-133615220D01*
X130323406Y-133680509D01*
X130290454Y-133787656D01*
X129142309Y-133787656D01*
X129135909Y-133700734D01*
X129136200Y-133675333D01*
X129190783Y-133389507D01*
X129342739Y-133162657D01*
X129596466Y-132987978D01*
X129640164Y-132967125D01*
X129745431Y-132925279D01*
X129864204Y-132894836D01*
X130016875Y-132873450D01*
X130223831Y-132858780D01*
X130505462Y-132848481D01*
X130882159Y-132840211D01*
X131179036Y-132835745D01*
X131469936Y-132833774D01*
X131700424Y-132834886D01*
X131852163Y-132838977D01*
X131906818Y-132845944D01*
X131907225Y-132848653D01*
X131925469Y-132926299D01*
X131968188Y-133098974D01*
X132031763Y-133352307D01*
X132112575Y-133671928D01*
X132207004Y-134043466D01*
X132212552Y-134065200D01*
X132311431Y-134452551D01*
G37*
G36*
X156783858Y-134740058D02*
G01*
X156691734Y-134918522D01*
X156681113Y-134929424D01*
X156531284Y-135005659D01*
X156337795Y-135019431D01*
X156151981Y-134966207D01*
X156084719Y-134939726D01*
X156008051Y-134966207D01*
X155978486Y-134994681D01*
X155851540Y-135023617D01*
X155668646Y-135005958D01*
X155460847Y-134949131D01*
X155259190Y-134860564D01*
X155094720Y-134747684D01*
X155034577Y-134684211D01*
X154902607Y-134482006D01*
X154804962Y-134249931D01*
X154766818Y-134042160D01*
X154799336Y-133833206D01*
X154925733Y-133595582D01*
X155128590Y-133424282D01*
X155294862Y-133362543D01*
X155575718Y-133321183D01*
X155888371Y-133324160D01*
X156190781Y-133370370D01*
X156440909Y-133458711D01*
X156693765Y-133613054D01*
X156992588Y-133891372D01*
X157189380Y-134223335D01*
X157284562Y-134609516D01*
X157289464Y-134677067D01*
X157248732Y-134962669D01*
X157107887Y-135197067D01*
X156872819Y-135373251D01*
X156549421Y-135484210D01*
X156432019Y-135501567D01*
X156191559Y-135515304D01*
X155950227Y-135508737D01*
X155844231Y-135496408D01*
X155598626Y-135442677D01*
X155365854Y-135362105D01*
X155165841Y-135265283D01*
X155018512Y-135162803D01*
X154943793Y-135065257D01*
X154961611Y-134983237D01*
X155020382Y-134986879D01*
X155153254Y-135033907D01*
X155328526Y-135114853D01*
X155457658Y-135176733D01*
X155642401Y-135242797D01*
X155836850Y-135273520D01*
X156093533Y-135280259D01*
X156440270Y-135257999D01*
X156707660Y-135186510D01*
X156886640Y-135058768D01*
X156986913Y-134867700D01*
X157018181Y-134606233D01*
X156991108Y-134404288D01*
X156872196Y-134121916D01*
X156678942Y-133873091D01*
X156433635Y-133692653D01*
X156423405Y-133687500D01*
X156148811Y-133587228D01*
X155852642Y-133537685D01*
X155574851Y-133542156D01*
X155355386Y-133603931D01*
X155296998Y-133636189D01*
X155106287Y-133795076D01*
X155024431Y-133985017D01*
X155047814Y-134213171D01*
X155055741Y-134236817D01*
X155133737Y-134385482D01*
X155249384Y-134537996D01*
X155378128Y-134668823D01*
X155495417Y-134752425D01*
X155576701Y-134763266D01*
X155583871Y-134708514D01*
X155550505Y-134576993D01*
X155481553Y-134401200D01*
X155457042Y-134346579D01*
X155402286Y-134224098D01*
X155784719Y-134224098D01*
X155837849Y-134419124D01*
X155980381Y-134621382D01*
X156013321Y-134654957D01*
X156174387Y-134771026D01*
X156310897Y-134795746D01*
X156405517Y-134730763D01*
X156440909Y-134577720D01*
X156440229Y-134552350D01*
X156397262Y-134368593D01*
X156302254Y-134204371D01*
X156176006Y-134076397D01*
X156039320Y-134001385D01*
X155912996Y-133996046D01*
X155817834Y-134077094D01*
X155784719Y-134224098D01*
X155402286Y-134224098D01*
X155349335Y-134105653D01*
X155286165Y-133949493D01*
X155267316Y-133859799D01*
X155292573Y-133818270D01*
X155361720Y-133806604D01*
X155474541Y-133806501D01*
X155496556Y-133806402D01*
X155733393Y-133803161D01*
X155964170Y-133797139D01*
X156186495Y-133831216D01*
X156400238Y-133943064D01*
X156580884Y-134111509D01*
X156714395Y-134314914D01*
X156786732Y-134531643D01*
X156786097Y-134577720D01*
X156783858Y-134740058D01*
G37*
G36*
X116495865Y-138509712D02*
G01*
X116554713Y-138515408D01*
X116604332Y-138528096D01*
X116657089Y-138550082D01*
X116767040Y-138615746D01*
X116856925Y-138702841D01*
X116926350Y-138812755D01*
X116933488Y-138827401D01*
X116956906Y-138880740D01*
X116970239Y-138927283D01*
X116976229Y-138979761D01*
X116977616Y-139050908D01*
X116976575Y-139111045D01*
X116970956Y-139170251D01*
X116958422Y-139219865D01*
X116936707Y-139272142D01*
X116897241Y-139344435D01*
X116815150Y-139446163D01*
X116712273Y-139524387D01*
X116587793Y-139579828D01*
X116561401Y-139586625D01*
X116490014Y-139595497D01*
X116407967Y-139596121D01*
X116320952Y-139585414D01*
X116199795Y-139545637D01*
X116093051Y-139479107D01*
X116003485Y-139387704D01*
X115933860Y-139273312D01*
X115915533Y-139230676D01*
X115901159Y-139181541D01*
X115894218Y-139125726D01*
X115892415Y-139050908D01*
X115892471Y-139032134D01*
X115894679Y-138966435D01*
X115902123Y-138916460D01*
X115917543Y-138869477D01*
X115943682Y-138812755D01*
X116010930Y-138705555D01*
X116100209Y-138617870D01*
X116212943Y-138550082D01*
X116255126Y-138531928D01*
X116304376Y-138517451D01*
X116360217Y-138510456D01*
X116435016Y-138508638D01*
X116495865Y-138509712D01*
G37*
G36*
X125386236Y-139960097D02*
G01*
X125435375Y-140044842D01*
X125470031Y-140104607D01*
X125489556Y-140138276D01*
X125634438Y-140388080D01*
X120649402Y-140388080D01*
X115664366Y-140388080D01*
X115664366Y-140167895D01*
X115664366Y-139947709D01*
X119660475Y-139947709D01*
X119936817Y-139947682D01*
X120318637Y-139947551D01*
X120685060Y-139947315D01*
X121035083Y-139946978D01*
X121367702Y-139946543D01*
X121681914Y-139946013D01*
X121976715Y-139945393D01*
X122251101Y-139944685D01*
X122504068Y-139943894D01*
X122734613Y-139943022D01*
X122941733Y-139942074D01*
X123124423Y-139941052D01*
X123281681Y-139939961D01*
X123412501Y-139938804D01*
X123515881Y-139937585D01*
X123590817Y-139936307D01*
X123636305Y-139934973D01*
X123651342Y-139933588D01*
X123642958Y-139918230D01*
X123619615Y-139877148D01*
X123582162Y-139811823D01*
X123531429Y-139723683D01*
X123468245Y-139614158D01*
X123393441Y-139484679D01*
X123307848Y-139336673D01*
X123212295Y-139171570D01*
X123107612Y-138990800D01*
X122994630Y-138795792D01*
X122874179Y-138587976D01*
X122747089Y-138368780D01*
X122614190Y-138139633D01*
X122476313Y-137901967D01*
X122334287Y-137657209D01*
X122188943Y-137406789D01*
X122041111Y-137152136D01*
X121891621Y-136894680D01*
X121741304Y-136635850D01*
X121590989Y-136377076D01*
X121441507Y-136119786D01*
X121293688Y-135865410D01*
X121148362Y-135615378D01*
X121006359Y-135371118D01*
X120868509Y-135134060D01*
X120735644Y-134905634D01*
X120608592Y-134687269D01*
X120488184Y-134480394D01*
X120375251Y-134286438D01*
X120270621Y-134106831D01*
X120175127Y-133943002D01*
X120089597Y-133796381D01*
X120014862Y-133668396D01*
X119951752Y-133560478D01*
X119901097Y-133474055D01*
X119863728Y-133410557D01*
X119840475Y-133371413D01*
X119832167Y-133358053D01*
X119830896Y-133359777D01*
X119817141Y-133382653D01*
X119788987Y-133431038D01*
X119747223Y-133503544D01*
X119692639Y-133598783D01*
X119626024Y-133715369D01*
X119548166Y-133851914D01*
X119459855Y-134007031D01*
X119361879Y-134179332D01*
X119255029Y-134367430D01*
X119140092Y-134569937D01*
X119017858Y-134785467D01*
X118889117Y-135012631D01*
X118754656Y-135250043D01*
X118615265Y-135496315D01*
X118471734Y-135750059D01*
X118422379Y-135837335D01*
X118279958Y-136089142D01*
X118141868Y-136333230D01*
X118008906Y-136568194D01*
X117881867Y-136792631D01*
X117761548Y-137005136D01*
X117648744Y-137204302D01*
X117544253Y-137388727D01*
X117448869Y-137557006D01*
X117363390Y-137707733D01*
X117288611Y-137839504D01*
X117225329Y-137950914D01*
X117174339Y-138040559D01*
X117136438Y-138107034D01*
X117112422Y-138148934D01*
X117103087Y-138164856D01*
X117101625Y-138166710D01*
X117089626Y-138172318D01*
X117068013Y-138168555D01*
X117032475Y-138153675D01*
X116978696Y-138125931D01*
X116902364Y-138083577D01*
X116883626Y-138072932D01*
X116819171Y-138035103D01*
X116767807Y-138003066D01*
X116734368Y-137979925D01*
X116723686Y-137968785D01*
X116741939Y-137936333D01*
X116807014Y-137820768D01*
X116883345Y-137685377D01*
X116970123Y-137531588D01*
X117066538Y-137360834D01*
X117171778Y-137174544D01*
X117285035Y-136974148D01*
X117405496Y-136761078D01*
X117532352Y-136536764D01*
X117664792Y-136302636D01*
X117802005Y-136060124D01*
X117943183Y-135810660D01*
X118087513Y-135555673D01*
X118234186Y-135296595D01*
X118382391Y-135034855D01*
X118531317Y-134771884D01*
X118680155Y-134509113D01*
X118828094Y-134247971D01*
X118974323Y-133989891D01*
X119118033Y-133736301D01*
X119258411Y-133488632D01*
X119394649Y-133248316D01*
X119525936Y-133016782D01*
X119587691Y-132907898D01*
X120083808Y-132907898D01*
X120086544Y-132913029D01*
X120103350Y-132942695D01*
X120134892Y-132997750D01*
X120180511Y-133077053D01*
X120239545Y-133179465D01*
X120311334Y-133303842D01*
X120395218Y-133449043D01*
X120490537Y-133613928D01*
X120596629Y-133797355D01*
X120712835Y-133998182D01*
X120838493Y-134215269D01*
X120972943Y-134447473D01*
X121115525Y-134693653D01*
X121265579Y-134952668D01*
X121422443Y-135223377D01*
X121585458Y-135504638D01*
X121753963Y-135795310D01*
X121927296Y-136094251D01*
X122104799Y-136400320D01*
X122209102Y-136580182D01*
X122384305Y-136882441D01*
X122554950Y-137177003D01*
X122720375Y-137462721D01*
X122879919Y-137738447D01*
X123032921Y-138003035D01*
X123178720Y-138255337D01*
X123316655Y-138494206D01*
X123446064Y-138718494D01*
X123566286Y-138927055D01*
X123676660Y-139118741D01*
X123776525Y-139292406D01*
X123865220Y-139446901D01*
X123942084Y-139581079D01*
X124006455Y-139693794D01*
X124057672Y-139783898D01*
X124095074Y-139850244D01*
X124118001Y-139891684D01*
X124125790Y-139907071D01*
X124124179Y-139916533D01*
X124106130Y-139937293D01*
X124113050Y-139939229D01*
X124147103Y-139941303D01*
X124205251Y-139943159D01*
X124283581Y-139944702D01*
X124378183Y-139945836D01*
X124485145Y-139946467D01*
X124883819Y-139947709D01*
X124853674Y-139896594D01*
X124852175Y-139894033D01*
X124837174Y-139868229D01*
X124807241Y-139816664D01*
X124763022Y-139740452D01*
X124705164Y-139640707D01*
X124634312Y-139518545D01*
X124551113Y-139375080D01*
X124456214Y-139211428D01*
X124350261Y-139028702D01*
X124233900Y-138828018D01*
X124107777Y-138610491D01*
X123972540Y-138377235D01*
X123828834Y-138129365D01*
X123677306Y-137867996D01*
X123518602Y-137594242D01*
X123353368Y-137309220D01*
X123182251Y-137014042D01*
X123005897Y-136709825D01*
X122824953Y-136397683D01*
X122640065Y-136078731D01*
X122579974Y-135975069D01*
X122396592Y-135658752D01*
X122217480Y-135349849D01*
X122043276Y-135049458D01*
X121874620Y-134758682D01*
X121712150Y-134478618D01*
X121556505Y-134210369D01*
X121408325Y-133955033D01*
X121268248Y-133713712D01*
X121136913Y-133487505D01*
X121014959Y-133277513D01*
X120903024Y-133084835D01*
X120801749Y-132910572D01*
X120711771Y-132755825D01*
X120633730Y-132621692D01*
X120568264Y-132509275D01*
X120516012Y-132419674D01*
X120477614Y-132353988D01*
X120453708Y-132313319D01*
X120444933Y-132298766D01*
X120441754Y-132300752D01*
X120425175Y-132322958D01*
X120397206Y-132365589D01*
X120360579Y-132424037D01*
X120318027Y-132493693D01*
X120272283Y-132569946D01*
X120226080Y-132648187D01*
X120182149Y-132723808D01*
X120143224Y-132792199D01*
X120112037Y-132848750D01*
X120091321Y-132888853D01*
X120083808Y-132907898D01*
X119587691Y-132907898D01*
X119651461Y-132795460D01*
X119770415Y-132585782D01*
X119881985Y-132389178D01*
X119985363Y-132207078D01*
X120079737Y-132040913D01*
X120164298Y-131892114D01*
X120238234Y-131762109D01*
X120300736Y-131652331D01*
X120350992Y-131564210D01*
X120388194Y-131499176D01*
X120411529Y-131458660D01*
X120420188Y-131444091D01*
X120422122Y-131444902D01*
X120432098Y-131457332D01*
X120450541Y-131484667D01*
X120477812Y-131527523D01*
X120514274Y-131586519D01*
X120560289Y-131662272D01*
X120616218Y-131755398D01*
X120682425Y-131866516D01*
X120759270Y-131996242D01*
X120847117Y-132145194D01*
X120946327Y-132313990D01*
X121057263Y-132503247D01*
X121180286Y-132713582D01*
X121315758Y-132945612D01*
X121464042Y-133199956D01*
X121625500Y-133477229D01*
X121800494Y-133778051D01*
X121989386Y-134103037D01*
X122192538Y-134452806D01*
X122410313Y-134827974D01*
X122643072Y-135229160D01*
X122891177Y-135656980D01*
X122961713Y-135778632D01*
X123158096Y-136117329D01*
X123350993Y-136450013D01*
X123539757Y-136775569D01*
X123723742Y-137092882D01*
X123902300Y-137400835D01*
X124074785Y-137698313D01*
X124240549Y-137984201D01*
X124398946Y-138257381D01*
X124549329Y-138516739D01*
X124691050Y-138761158D01*
X124823463Y-138989523D01*
X124945920Y-139200719D01*
X125057776Y-139393629D01*
X125158382Y-139567137D01*
X125247092Y-139720129D01*
X125323259Y-139851487D01*
X125379053Y-139947709D01*
X125386236Y-139960097D01*
G37*
G36*
X156489047Y-146249330D02*
G01*
X156513128Y-146332223D01*
X156500253Y-146399427D01*
X156447799Y-146423684D01*
X156423683Y-146410697D01*
X156382470Y-146332223D01*
X156387108Y-146304953D01*
X156447799Y-146240762D01*
X156489047Y-146249330D01*
G37*
G36*
X154443838Y-147192885D02*
G01*
X154475445Y-147297892D01*
X154440014Y-147394911D01*
X154360343Y-147429052D01*
X154250575Y-147412904D01*
X154178621Y-147347306D01*
X154172166Y-147322429D01*
X154198524Y-147221892D01*
X154282507Y-147151190D01*
X154387182Y-147145976D01*
X154443838Y-147192885D01*
G37*
G36*
X156469837Y-146550707D02*
G01*
X156529910Y-146568473D01*
X156595372Y-146620252D01*
X156605001Y-146673559D01*
X156543615Y-146698066D01*
X156536994Y-146698286D01*
X156490583Y-146725807D01*
X156467265Y-146814399D01*
X156460865Y-146985515D01*
X156467643Y-147156603D01*
X156491983Y-147247157D01*
X156539260Y-147272963D01*
X156575820Y-147282069D01*
X156617655Y-147351358D01*
X156613861Y-147373896D01*
X156553963Y-147416808D01*
X156408601Y-147429754D01*
X156314500Y-147423264D01*
X156218489Y-147390961D01*
X156202256Y-147342890D01*
X156277943Y-147291863D01*
X156289397Y-147286229D01*
X156329122Y-147228866D01*
X156350168Y-147105792D01*
X156356338Y-146897893D01*
X156356477Y-146827366D01*
X156360776Y-146665703D01*
X156376395Y-146580106D01*
X156410395Y-146548974D01*
X156469837Y-146550707D01*
G37*
G36*
X152763428Y-146546421D02*
G01*
X152792968Y-146619557D01*
X152805753Y-146755959D01*
X152803092Y-146925647D01*
X152786295Y-147098641D01*
X152756670Y-147244961D01*
X152715527Y-147334627D01*
X152653660Y-147383966D01*
X152536763Y-147416324D01*
X152349683Y-147418979D01*
X152070741Y-147407307D01*
X152070741Y-146974292D01*
X152071013Y-146925655D01*
X152079276Y-146724763D01*
X152097370Y-146590311D01*
X152123005Y-146541276D01*
X152138159Y-146551273D01*
X152164744Y-146633985D01*
X152175268Y-146773059D01*
X152196922Y-147024706D01*
X152268874Y-147208686D01*
X152391149Y-147301262D01*
X152502757Y-147304372D01*
X152606722Y-147222864D01*
X152673995Y-147058917D01*
X152697902Y-146822935D01*
X152702311Y-146710016D01*
X152721292Y-146588478D01*
X152750165Y-146541276D01*
X152763428Y-146546421D01*
G37*
G36*
X148464568Y-146564007D02*
G01*
X148464568Y-146996880D01*
X148464297Y-147045408D01*
X148456036Y-147246277D01*
X148437941Y-147380720D01*
X148412305Y-147429754D01*
X148390796Y-147404130D01*
X148368633Y-147299722D01*
X148360042Y-147142305D01*
X148354655Y-146998210D01*
X148323108Y-146851045D01*
X148255515Y-146750330D01*
X148158881Y-146668016D01*
X148075081Y-146655712D01*
X147968832Y-146717175D01*
X147919642Y-146771680D01*
X147874115Y-146899645D01*
X147848035Y-147109150D01*
X147847270Y-147119491D01*
X147823322Y-147316740D01*
X147793447Y-147411346D01*
X147764107Y-147404384D01*
X147741765Y-147296925D01*
X147732881Y-147090042D01*
X147736423Y-146957395D01*
X147770758Y-146750894D01*
X147851754Y-146624032D01*
X147991793Y-146562661D01*
X148203256Y-146552637D01*
X148464568Y-146564007D01*
G37*
G36*
X157095563Y-146292935D02*
G01*
X157140288Y-146332223D01*
X157131444Y-146356265D01*
X157061893Y-146384486D01*
X157023262Y-146402723D01*
X156999029Y-146470698D01*
X156986845Y-146606629D01*
X156983498Y-146828725D01*
X156986717Y-147047638D01*
X156998712Y-147184959D01*
X157022700Y-147253997D01*
X157061893Y-147272963D01*
X157098453Y-147282069D01*
X157140288Y-147351358D01*
X157140135Y-147356268D01*
X157094517Y-147412145D01*
X156960451Y-147429754D01*
X156861715Y-147421483D01*
X156765250Y-147387344D01*
X156738079Y-147339799D01*
X156797264Y-147293134D01*
X156803462Y-147290460D01*
X156840937Y-147250914D01*
X156864041Y-147163748D01*
X156875732Y-147010040D01*
X156878972Y-146770870D01*
X156878997Y-146695851D01*
X156880927Y-146493623D01*
X156889715Y-146370610D01*
X156910600Y-146307121D01*
X156948825Y-146283468D01*
X157009630Y-146279959D01*
X157095563Y-146292935D01*
G37*
G36*
X147401410Y-146312399D02*
G01*
X147419301Y-146410618D01*
X147434878Y-146495748D01*
X147494611Y-146541276D01*
X147503481Y-146541464D01*
X147587885Y-146573348D01*
X147599605Y-146633004D01*
X147529086Y-146681548D01*
X147528152Y-146681793D01*
X147470110Y-146708213D01*
X147437252Y-146765337D01*
X147422631Y-146877742D01*
X147419301Y-147070005D01*
X147412527Y-147252462D01*
X147393962Y-147381489D01*
X147367037Y-147429754D01*
X147366987Y-147429753D01*
X147340188Y-147381256D01*
X147321680Y-147251579D01*
X147314774Y-147063910D01*
X147314745Y-147034789D01*
X147311042Y-146853948D01*
X147296649Y-146752447D01*
X147265179Y-146707936D01*
X147210247Y-146698066D01*
X147149292Y-146683516D01*
X147105721Y-146619671D01*
X147125121Y-146573955D01*
X147210247Y-146541276D01*
X147290276Y-146513075D01*
X147314774Y-146410618D01*
X147327750Y-146324685D01*
X147367037Y-146279959D01*
X147401410Y-146312399D01*
G37*
G36*
X155809843Y-146272767D02*
G01*
X155897424Y-146354229D01*
X156029692Y-146509193D01*
X156074021Y-146577221D01*
X156091116Y-146663001D01*
X156042758Y-146698066D01*
X156021249Y-146723690D01*
X155999086Y-146828098D01*
X155990494Y-146985515D01*
X155995153Y-147103813D01*
X156014136Y-147225709D01*
X156042758Y-147272963D01*
X156066800Y-147281808D01*
X156095021Y-147351358D01*
X156094690Y-147358498D01*
X156047391Y-147412754D01*
X155912099Y-147429754D01*
X155895439Y-147429612D01*
X155768844Y-147409341D01*
X155729177Y-147351358D01*
X155735074Y-147315295D01*
X155781441Y-147272963D01*
X155802949Y-147247340D01*
X155825112Y-147142932D01*
X155833704Y-146985515D01*
X155829045Y-146867217D01*
X155810062Y-146745321D01*
X155781441Y-146698066D01*
X155774830Y-146697678D01*
X155733053Y-146655656D01*
X155740889Y-146580229D01*
X155794507Y-146522783D01*
X155821062Y-146483865D01*
X155758118Y-146413705D01*
X155693453Y-146339756D01*
X155713694Y-146274537D01*
X155751141Y-146253067D01*
X155809843Y-146272767D01*
G37*
G36*
X150335899Y-141324502D02*
G01*
X150879759Y-141327412D01*
X152981369Y-141341070D01*
X153061755Y-141488889D01*
X153142140Y-141636707D01*
X152319261Y-142429630D01*
X152066741Y-142675314D01*
X151808918Y-142936034D01*
X151614271Y-143150576D01*
X151474273Y-143331790D01*
X151380398Y-143492527D01*
X151324117Y-143645635D01*
X151296904Y-143803967D01*
X151290232Y-143980371D01*
X151311559Y-144239892D01*
X151422181Y-144598431D01*
X151627758Y-144913799D01*
X151928983Y-145187309D01*
X152142297Y-145341833D01*
X151264014Y-145327460D01*
X150385730Y-145313087D01*
X149583677Y-143379342D01*
X149524676Y-143236923D01*
X149353134Y-142820891D01*
X149196163Y-142437321D01*
X149058047Y-142096879D01*
X148943076Y-141810229D01*
X148855534Y-141588035D01*
X148799708Y-141440963D01*
X148779887Y-141379675D01*
X148782690Y-141372572D01*
X148819138Y-141356978D01*
X148904055Y-141344625D01*
X149045449Y-141335314D01*
X149251325Y-141328845D01*
X149529688Y-141325020D01*
X149888544Y-141323639D01*
X150335899Y-141324502D01*
G37*
G36*
X155564868Y-146944057D02*
G01*
X155554896Y-147129417D01*
X155444104Y-147301471D01*
X155393349Y-147344925D01*
X155211699Y-147422437D01*
X155018127Y-147414475D01*
X154847099Y-147319972D01*
X154774704Y-147240611D01*
X154761710Y-147186312D01*
X154828157Y-147187062D01*
X154966125Y-147247669D01*
X154993758Y-147262437D01*
X155104819Y-147311762D01*
X155183944Y-147308864D01*
X155280018Y-147254862D01*
X155335310Y-147216187D01*
X155403208Y-147144515D01*
X155380078Y-147097490D01*
X155261758Y-147071744D01*
X155044088Y-147063910D01*
X154672578Y-147063910D01*
X154707671Y-146920186D01*
X154735008Y-146843483D01*
X154869592Y-146843483D01*
X154884752Y-146882865D01*
X154964956Y-146902063D01*
X155129789Y-146907120D01*
X155312043Y-146894966D01*
X155402105Y-146860923D01*
X155395595Y-146808843D01*
X155288793Y-146742576D01*
X155245965Y-146726536D01*
X155092418Y-146711038D01*
X154954751Y-146747795D01*
X154874237Y-146828274D01*
X154869592Y-146843483D01*
X154735008Y-146843483D01*
X154746526Y-146811165D01*
X154880599Y-146649543D01*
X155087039Y-146562564D01*
X155192582Y-146551864D01*
X155295047Y-146586073D01*
X155413503Y-146687932D01*
X155474619Y-146757384D01*
X155524676Y-146860923D01*
X155564868Y-146944057D01*
G37*
G36*
X153928333Y-147084209D02*
G01*
X153816918Y-147268953D01*
X153761511Y-147329508D01*
X153640192Y-147409046D01*
X153480291Y-147429754D01*
X153445275Y-147428898D01*
X153314322Y-147409293D01*
X153243219Y-147371910D01*
X153215647Y-147343849D01*
X153167582Y-147378606D01*
X153152549Y-147400297D01*
X153095976Y-147428259D01*
X153051321Y-147362693D01*
X153022013Y-147212233D01*
X153015192Y-147065390D01*
X153176406Y-147065390D01*
X153272799Y-147220700D01*
X153368078Y-147289756D01*
X153481852Y-147325227D01*
X153532484Y-147319386D01*
X153663919Y-147246332D01*
X153757315Y-147116543D01*
X153794033Y-146964199D01*
X153755435Y-146823483D01*
X153663582Y-146733646D01*
X153512431Y-146678954D01*
X153364260Y-146704052D01*
X153273402Y-146765950D01*
X153177859Y-146906735D01*
X153176406Y-147065390D01*
X153015192Y-147065390D01*
X153011482Y-146985515D01*
X153012132Y-146924870D01*
X153027370Y-146718197D01*
X153060009Y-146585833D01*
X153106284Y-146537791D01*
X153162429Y-146584085D01*
X153189102Y-146608530D01*
X153274178Y-146591581D01*
X153438516Y-146540818D01*
X153625185Y-146575573D01*
X153799453Y-146694046D01*
X153842443Y-146740498D01*
X153936929Y-146910964D01*
X153934288Y-146964199D01*
X153928333Y-147084209D01*
G37*
G36*
X149510328Y-146948022D02*
G01*
X149488272Y-147132678D01*
X149381553Y-147301471D01*
X149304584Y-147363712D01*
X149115610Y-147430583D01*
X148917666Y-147405812D01*
X148738060Y-147289890D01*
X148709874Y-147260266D01*
X148649505Y-147169076D01*
X148667023Y-147129763D01*
X148749191Y-147147893D01*
X148882771Y-147229035D01*
X148894198Y-147237452D01*
X149003326Y-147307121D01*
X149083518Y-147316310D01*
X149181697Y-147271721D01*
X149254476Y-147227586D01*
X149337063Y-147153093D01*
X149321946Y-147102265D01*
X149207364Y-147073178D01*
X148991557Y-147063910D01*
X148901580Y-147063688D01*
X148745085Y-147058781D01*
X148661283Y-147041620D01*
X148627573Y-147004667D01*
X148621358Y-146940378D01*
X148639549Y-146861256D01*
X148778149Y-146861256D01*
X148803759Y-146880126D01*
X148908168Y-146899579D01*
X149065597Y-146907120D01*
X149183867Y-146903033D01*
X149305783Y-146886375D01*
X149353046Y-146861256D01*
X149309475Y-146780373D01*
X149200461Y-146712893D01*
X149065597Y-146685000D01*
X148933689Y-146711717D01*
X148823637Y-146778561D01*
X148778149Y-146861256D01*
X148639549Y-146861256D01*
X148646780Y-146829803D01*
X148749609Y-146687751D01*
X148902751Y-146582455D01*
X149075100Y-146541276D01*
X149170305Y-146551362D01*
X149341166Y-146632114D01*
X149457900Y-146772750D01*
X149484374Y-146861256D01*
X149510328Y-146948022D01*
G37*
G36*
X146036563Y-147084209D02*
G01*
X145925149Y-147268953D01*
X145909423Y-147286719D01*
X145745170Y-147400815D01*
X145558312Y-147434002D01*
X145382409Y-147379449D01*
X145337953Y-147359775D01*
X145270659Y-147386945D01*
X145252107Y-147406261D01*
X145177819Y-147407233D01*
X145167443Y-147395009D01*
X145141613Y-147292307D01*
X145125359Y-147099082D01*
X145124723Y-147068297D01*
X145289082Y-147068297D01*
X145381029Y-147220700D01*
X145476309Y-147289756D01*
X145590083Y-147325227D01*
X145685362Y-147299003D01*
X145799136Y-147220700D01*
X145830795Y-147185313D01*
X145899975Y-147037616D01*
X145891665Y-146893241D01*
X145822458Y-146772400D01*
X145708945Y-146695306D01*
X145567720Y-146682171D01*
X145415373Y-146753207D01*
X145401482Y-146764570D01*
X145296413Y-146909265D01*
X145289082Y-147068297D01*
X145124723Y-147068297D01*
X145119712Y-146825640D01*
X145120301Y-146685231D01*
X145125748Y-146482559D01*
X145138911Y-146358730D01*
X145162221Y-146296833D01*
X145198107Y-146279959D01*
X145206530Y-146280424D01*
X145259850Y-146328702D01*
X145276502Y-146464720D01*
X145282199Y-146581994D01*
X145310479Y-146620136D01*
X145377593Y-146595378D01*
X145527169Y-146545603D01*
X145723638Y-146569570D01*
X145907683Y-146694046D01*
X145950673Y-146740498D01*
X146045160Y-146910964D01*
X146038875Y-147037616D01*
X146036563Y-147084209D01*
G37*
G36*
X147053457Y-146958799D02*
G01*
X147045212Y-147034420D01*
X146972435Y-147217507D01*
X146848933Y-147362762D01*
X146805941Y-147390051D01*
X146633021Y-147430155D01*
X146445310Y-147395103D01*
X146281682Y-147289890D01*
X146262245Y-147269780D01*
X146195442Y-147174226D01*
X146208007Y-147130107D01*
X146286561Y-147144036D01*
X146417727Y-147222628D01*
X146426237Y-147228802D01*
X146591723Y-147301775D01*
X146737039Y-147279760D01*
X146846298Y-147164897D01*
X146857168Y-147143541D01*
X146866204Y-147099511D01*
X146827818Y-147075648D01*
X146722981Y-147065823D01*
X146532662Y-147063910D01*
X146427910Y-147063644D01*
X146278782Y-147058393D01*
X146200404Y-147039998D01*
X146170047Y-147000234D01*
X146164980Y-146930876D01*
X146177643Y-146856061D01*
X146321770Y-146856061D01*
X146346860Y-146876921D01*
X146450671Y-146898680D01*
X146607578Y-146907120D01*
X146678624Y-146906585D01*
X146809559Y-146897631D01*
X146863860Y-146872530D01*
X146861767Y-146824721D01*
X146843818Y-146789769D01*
X146736210Y-146703661D01*
X146589487Y-146678379D01*
X146445374Y-146724014D01*
X146361137Y-146792986D01*
X146321770Y-146856061D01*
X146177643Y-146856061D01*
X146179636Y-146844287D01*
X146269986Y-146695566D01*
X146415586Y-146584753D01*
X146584732Y-146541276D01*
X146591013Y-146541361D01*
X146744698Y-146584813D01*
X146894615Y-146688125D01*
X147008343Y-146822414D01*
X147024921Y-146872530D01*
X147053457Y-146958799D01*
G37*
G36*
X146965339Y-141314612D02*
G01*
X147203385Y-141323218D01*
X147404795Y-141337117D01*
X147548193Y-141356177D01*
X147612204Y-141380268D01*
X147615930Y-141386510D01*
X147658870Y-141475504D01*
X147733060Y-141643288D01*
X147833385Y-141877349D01*
X147954730Y-142165169D01*
X148091981Y-142494235D01*
X148240023Y-142852031D01*
X148393742Y-143226041D01*
X148548023Y-143603751D01*
X148697751Y-143972644D01*
X148837812Y-144320207D01*
X148963090Y-144633924D01*
X149068473Y-144901279D01*
X149148844Y-145109757D01*
X149199090Y-145246842D01*
X149214095Y-145300021D01*
X149205089Y-145306126D01*
X149117389Y-145323010D01*
X148959716Y-145334791D01*
X148758243Y-145339219D01*
X148662065Y-145338192D01*
X148313932Y-145309251D01*
X148030576Y-145233148D01*
X147784772Y-145099990D01*
X147549299Y-144899883D01*
X147515766Y-144866340D01*
X147444819Y-144790492D01*
X147379946Y-144709243D01*
X147315459Y-144611167D01*
X147245670Y-144484840D01*
X147164891Y-144318836D01*
X147067432Y-144101729D01*
X146947605Y-143822095D01*
X146799722Y-143468507D01*
X146618095Y-143029542D01*
X146510108Y-142767200D01*
X146360270Y-142400570D01*
X146227184Y-142071824D01*
X146115527Y-141792686D01*
X146029979Y-141574883D01*
X145975219Y-141430139D01*
X145955926Y-141370180D01*
X145973683Y-141355507D01*
X146074286Y-141335703D01*
X146245129Y-141321842D01*
X146464835Y-141313793D01*
X146712030Y-141311426D01*
X146965339Y-141314612D01*
G37*
G36*
X150173196Y-146598381D02*
G01*
X150224047Y-146627345D01*
X150332426Y-146600831D01*
X150353980Y-146591275D01*
X150487668Y-146562183D01*
X150651617Y-146554831D01*
X150868684Y-146563487D01*
X150868684Y-146996620D01*
X150868411Y-147045346D01*
X150860146Y-147246259D01*
X150842052Y-147380718D01*
X150816420Y-147429754D01*
X150793079Y-147397451D01*
X150772176Y-147285409D01*
X150764157Y-147119906D01*
X150762844Y-147041993D01*
X150738566Y-146841437D01*
X150682029Y-146727931D01*
X150612987Y-146665693D01*
X150548016Y-146653575D01*
X150447141Y-146699905D01*
X150414583Y-146721483D01*
X150371921Y-146785232D01*
X150351371Y-146899803D01*
X150346050Y-147091880D01*
X150345511Y-147166278D01*
X150336173Y-147325664D01*
X150311731Y-147406984D01*
X150267655Y-147429754D01*
X150250393Y-147427432D01*
X150213411Y-147387187D01*
X150194543Y-147281842D01*
X150189260Y-147091880D01*
X150188017Y-146982399D01*
X150175775Y-146833258D01*
X150144786Y-146747989D01*
X150088169Y-146699905D01*
X149997938Y-146656671D01*
X149931253Y-146660261D01*
X149853281Y-146727931D01*
X149830513Y-146757040D01*
X149785597Y-146896044D01*
X149771153Y-147124262D01*
X149771124Y-147135046D01*
X149757238Y-147326062D01*
X149725167Y-147417859D01*
X149685437Y-147411540D01*
X149648579Y-147308207D01*
X149625118Y-147108964D01*
X149623807Y-146935133D01*
X149651879Y-146796633D01*
X149720372Y-146681920D01*
X149758174Y-146641002D01*
X149899063Y-146557942D01*
X150050192Y-146541375D01*
X150173196Y-146598381D01*
G37*
G36*
X151892061Y-147169699D02*
G01*
X151789827Y-147307696D01*
X151645130Y-147400856D01*
X151471723Y-147429925D01*
X151283355Y-147375651D01*
X151282499Y-147375194D01*
X151200688Y-147351063D01*
X151189711Y-147397079D01*
X151251669Y-147504692D01*
X151277373Y-147533028D01*
X151406550Y-147591364D01*
X151562769Y-147583605D01*
X151703605Y-147509318D01*
X151799427Y-147442574D01*
X151869804Y-147437072D01*
X151874887Y-147496546D01*
X151797249Y-147603470D01*
X151712320Y-147672792D01*
X151528189Y-147744627D01*
X151344927Y-147732602D01*
X151188090Y-147641305D01*
X151083234Y-147475321D01*
X151061109Y-147398820D01*
X151032745Y-147225468D01*
X151024512Y-147071118D01*
X151200045Y-147071118D01*
X151283625Y-147217534D01*
X151382053Y-147296358D01*
X151492209Y-147314449D01*
X151640704Y-147260933D01*
X151735181Y-147180494D01*
X151800369Y-147034787D01*
X151791738Y-146884150D01*
X151732961Y-146806349D01*
X151626320Y-146719272D01*
X151626311Y-146719267D01*
X151526428Y-146663122D01*
X151451733Y-146667217D01*
X151349128Y-146734462D01*
X151312322Y-146764736D01*
X151210726Y-146911964D01*
X151200045Y-147071118D01*
X151024512Y-147071118D01*
X151022760Y-147038270D01*
X151029094Y-146856926D01*
X151049686Y-146701136D01*
X151082478Y-146590599D01*
X151125410Y-146545015D01*
X151176421Y-146584085D01*
X151203094Y-146608530D01*
X151288170Y-146591581D01*
X151431056Y-146545288D01*
X151617184Y-146567799D01*
X151790831Y-146665162D01*
X151806481Y-146679195D01*
X151914139Y-146836196D01*
X151938082Y-147006115D01*
X151930016Y-147034787D01*
X151892061Y-147169699D01*
G37*
G36*
X149640937Y-139331343D02*
G01*
X150414285Y-139332184D01*
X151090846Y-139333637D01*
X151676903Y-139335803D01*
X152178743Y-139338785D01*
X152602648Y-139342687D01*
X152954905Y-139347612D01*
X153241797Y-139353662D01*
X153469608Y-139360940D01*
X153644624Y-139369550D01*
X153773129Y-139379594D01*
X153861407Y-139391175D01*
X153915743Y-139404395D01*
X153969083Y-139424785D01*
X154241363Y-139567732D01*
X154486396Y-139755232D01*
X154665891Y-139958977D01*
X154703292Y-140031250D01*
X154776493Y-140189330D01*
X154879172Y-140419156D01*
X155005934Y-140708029D01*
X155151383Y-141043246D01*
X155310122Y-141412108D01*
X155476757Y-141801913D01*
X155645891Y-142199961D01*
X155812127Y-142593551D01*
X155970071Y-142969982D01*
X156114327Y-143316554D01*
X156239497Y-143620565D01*
X156340187Y-143869314D01*
X156411001Y-144050102D01*
X156446542Y-144150227D01*
X156446605Y-144150443D01*
X156448098Y-144173837D01*
X156431387Y-144192863D01*
X156386881Y-144207971D01*
X156304990Y-144219608D01*
X156176120Y-144228224D01*
X155990681Y-144234268D01*
X155739081Y-144238187D01*
X155411730Y-144240431D01*
X154999035Y-144241448D01*
X154491405Y-144241688D01*
X154278346Y-144241566D01*
X153766809Y-144239929D01*
X153350228Y-144236214D01*
X153021614Y-144230207D01*
X152773977Y-144221694D01*
X152600328Y-144210460D01*
X152493678Y-144196291D01*
X152447037Y-144178972D01*
X152423488Y-144153191D01*
X152387688Y-144087380D01*
X152388995Y-144010518D01*
X152434247Y-143912878D01*
X152530285Y-143784730D01*
X152683947Y-143616345D01*
X152902072Y-143397994D01*
X153191501Y-143119949D01*
X153473975Y-142848695D01*
X153693639Y-142630245D01*
X153855177Y-142458395D01*
X153968762Y-142321723D01*
X154044567Y-142208810D01*
X154092766Y-142108238D01*
X154153874Y-141875521D01*
X154179562Y-141580621D01*
X154160783Y-141290438D01*
X154097344Y-141049821D01*
X154088897Y-141030659D01*
X153929268Y-140771987D01*
X153707476Y-140534331D01*
X153460669Y-140358053D01*
X153423577Y-140338653D01*
X153381010Y-140319670D01*
X153330183Y-140303340D01*
X153263690Y-140289429D01*
X153174125Y-140277703D01*
X153054085Y-140267928D01*
X152896164Y-140259870D01*
X152692957Y-140253296D01*
X152437058Y-140247971D01*
X152121064Y-140243662D01*
X151737569Y-140240134D01*
X151279168Y-140237154D01*
X150738455Y-140234488D01*
X150108027Y-140231901D01*
X149380478Y-140229161D01*
X148668563Y-140225955D01*
X147948769Y-140221344D01*
X147314770Y-140215705D01*
X146769241Y-140209082D01*
X146314859Y-140201520D01*
X145954298Y-140193066D01*
X145690235Y-140183764D01*
X145525345Y-140173659D01*
X145462303Y-140162797D01*
X145450620Y-140148501D01*
X145396531Y-140051294D01*
X145329105Y-139901648D01*
X145259761Y-139729035D01*
X145199918Y-139562928D01*
X145160996Y-139432802D01*
X145154413Y-139368128D01*
X145168913Y-139365111D01*
X145272472Y-139359253D01*
X145468896Y-139353765D01*
X145750387Y-139348714D01*
X146109147Y-139344167D01*
X146537376Y-139340191D01*
X147027274Y-139336853D01*
X147571044Y-139334221D01*
X148160886Y-139332360D01*
X148789002Y-139331339D01*
X149447591Y-139331224D01*
X149640937Y-139331343D01*
G37*
%TD*%
%LPC*%
D11*
%TO.C,J7*%
X161350000Y-75675000D03*
D12*
X163850000Y-75675000D03*
X166350000Y-75675000D03*
X168850000Y-75675000D03*
%TD*%
D13*
%TO.C,U2*%
X82550000Y-97790000D03*
X82550000Y-100330000D03*
X82550000Y-102870000D03*
X82550000Y-105410000D03*
X85090000Y-102870000D03*
X85090000Y-105410000D03*
%TD*%
%TO.C,U4*%
X177800000Y-105410000D03*
X177800000Y-102870000D03*
X177800000Y-100330000D03*
X177800000Y-97790000D03*
X175260000Y-100330000D03*
X175260000Y-97790000D03*
%TD*%
%TO.C,U5*%
X180340000Y-63500000D03*
X177800000Y-63500000D03*
X175260000Y-63500000D03*
X172720000Y-63500000D03*
X175260000Y-66040000D03*
X172720000Y-66040000D03*
%TD*%
D14*
%TO.C,REF\u002A\u002A*%
X170000000Y-105000000D03*
%TD*%
%TO.C,REF\u002A\u002A*%
X165000000Y-150000000D03*
%TD*%
D15*
%TO.C,J4*%
X108420000Y-102750000D03*
X121920000Y-102750000D03*
D16*
X111570000Y-108750000D03*
D17*
X118770000Y-108750000D03*
%TD*%
D11*
%TO.C,J3*%
X157600000Y-111760000D03*
D12*
X160100000Y-111760000D03*
X162600000Y-111760000D03*
X165100000Y-111760000D03*
%TD*%
D18*
%TO.C,J9*%
X95250000Y-93980000D03*
D19*
X97790000Y-93980000D03*
X100330000Y-93980000D03*
%TD*%
D14*
%TO.C,REF\u002A\u002A*%
X165000000Y-65000000D03*
%TD*%
D13*
%TO.C,U7*%
X87630000Y-63500000D03*
X85090000Y-63500000D03*
X82550000Y-63500000D03*
X80010000Y-63500000D03*
X82550000Y-66040000D03*
X80010000Y-66040000D03*
%TD*%
D18*
%TO.C,J13*%
X127015000Y-147320000D03*
D19*
X129555000Y-147320000D03*
X132095000Y-147320000D03*
%TD*%
D20*
%TO.C,SW1*%
X80570000Y-81570000D03*
X87070000Y-81570000D03*
X80570000Y-86070000D03*
X87070000Y-86070000D03*
%TD*%
D21*
%TO.C,J1*%
X134560000Y-102510000D03*
D12*
X132060000Y-102510000D03*
X129560000Y-102510000D03*
X127060000Y-102510000D03*
%TD*%
D14*
%TO.C,REF\u002A\u002A*%
X95000000Y-150000000D03*
%TD*%
%TO.C,REF\u002A\u002A*%
X95000000Y-65000000D03*
%TD*%
D13*
%TO.C,U1*%
X142240000Y-121920000D03*
X142240000Y-124460000D03*
X142240000Y-127000000D03*
X142240000Y-129540000D03*
X149860000Y-129540000D03*
X149860000Y-127000000D03*
X149860000Y-124460000D03*
X149860000Y-121920000D03*
%TD*%
D15*
%TO.C,J5*%
X139300000Y-102750000D03*
X152800000Y-102750000D03*
D16*
X142450000Y-108750000D03*
D17*
X149650000Y-108750000D03*
%TD*%
D18*
%TO.C,J12*%
X95250000Y-82550000D03*
D19*
X97790000Y-82550000D03*
X100330000Y-82550000D03*
%TD*%
D18*
%TO.C,J10*%
X95250000Y-90170000D03*
D19*
X97790000Y-90170000D03*
X100330000Y-90170000D03*
%TD*%
D14*
%TO.C,REF\u002A\u002A*%
X90000000Y-105000000D03*
%TD*%
D13*
%TO.C,U6*%
X97790000Y-134620000D03*
X100330000Y-134620000D03*
X102870000Y-134620000D03*
X105410000Y-134620000D03*
X107950000Y-134620000D03*
X110490000Y-134620000D03*
X113030000Y-134620000D03*
X113030000Y-119380000D03*
X110490000Y-119380000D03*
X107950000Y-119380000D03*
X105410000Y-119380000D03*
X102870000Y-119380000D03*
X100330000Y-119380000D03*
X97790000Y-119380000D03*
%TD*%
%TO.C,U13*%
X140970000Y-151130000D03*
X143510000Y-151130000D03*
X146050000Y-151130000D03*
X148590000Y-151130000D03*
X151130000Y-151130000D03*
X153670000Y-151130000D03*
X156210000Y-151130000D03*
X158750000Y-151130000D03*
%TD*%
D11*
%TO.C,J8*%
X161410000Y-85090000D03*
D12*
X163910000Y-85090000D03*
X166410000Y-85090000D03*
X168910000Y-85090000D03*
%TD*%
D22*
%TO.C,J22*%
X84960000Y-70770000D03*
X84960000Y-76550000D03*
D23*
X85460000Y-69340000D03*
D24*
X81280000Y-69340000D03*
D23*
X85460000Y-77980000D03*
D24*
X81280000Y-77980000D03*
%TD*%
D18*
%TO.C,J11*%
X95250000Y-86360000D03*
D19*
X97790000Y-86360000D03*
X100330000Y-86360000D03*
%TD*%
D25*
%TO.C,BZ1*%
X114220000Y-146050000D03*
D20*
X109220000Y-146050000D03*
%TD*%
D26*
%TO.C,Q1*%
X124460000Y-115824000D03*
D27*
X124460000Y-114554000D03*
X124460000Y-113284000D03*
%TD*%
D11*
%TO.C,J2*%
X96005000Y-110490000D03*
D12*
X98505000Y-110490000D03*
X101005000Y-110490000D03*
X103505000Y-110490000D03*
%TD*%
D20*
%TO.C,SW2*%
X80570000Y-89190000D03*
X87070000Y-89190000D03*
X80570000Y-93690000D03*
X87070000Y-93690000D03*
%TD*%
%LPD*%
M02*
