M48
; DRILL file {KiCad 7.0.9} date Tue Oct 29 13:44:47 2024
; FORMAT={-:-/ absolute / inch / decimal}
; #@! TF.CreationDate,2024-10-29T13:44:47+09:00
; #@! TF.GenerationSoftware,Kicad,Pcbnew,7.0.9
; #@! TF.FileFunction,Plated,1,2,PTH
FMAT,2
INCH
; #@! TA.AperFunction,Plated,PTH,ViaDrill
T1C0.0157
; #@! TA.AperFunction,Plated,PTH,ComponentDrill
T2C0.0236
; #@! TA.AperFunction,Plated,PTH,ComponentDrill
T3C0.0295
; #@! TA.AperFunction,Plated,PTH,ComponentDrill
T4C0.0300
; #@! TA.AperFunction,Plated,PTH,ComponentDrill
T5C0.0374
; #@! TA.AperFunction,Plated,PTH,ComponentDrill
T6C0.0394
; #@! TA.AperFunction,Plated,PTH,ComponentDrill
T7C0.0433
; #@! TA.AperFunction,Plated,PTH,ComponentDrill
T8C0.1063
%
G90
G05
T1
X3.1102Y-2.4016
X3.15Y-4.125
X3.175Y-4.3
X3.35Y-3.3
X3.375Y-2.65
X3.375Y-3.8
X3.525Y-3.9
X3.55Y-3.52
X3.55Y-3.775
X3.58Y-4.51
X3.6225Y-4.05
X3.67Y-5.63
X3.74Y-3.08
X3.825Y-4.9
X3.86Y-4.22
X3.94Y-3.92
X3.95Y-3.1
X3.96Y-2.92
X3.97Y-2.99
X3.9764Y-2.4016
X4.21Y-5.15
X4.252Y-4.5276
X4.275Y-5.225
X4.4Y-5.7
X4.41Y-4.8
X4.42Y-4.9285
X4.525Y-5.0
X4.59Y-5.04
X4.6Y-5.15
X4.6Y-5.55
X4.61Y-5.43
X4.62Y-4.9
X4.63Y-4.79
X4.7Y-4.62
X4.72Y-4.98
X4.75Y-4.81
X4.75Y-5.3
X4.7638Y-4.5276
X4.8Y-4.71
X4.81Y-4.6
X4.82Y-4.95
X4.83Y-5.58
X4.8425Y-4.2913
X4.87Y-4.03
X4.88Y-5.43
X4.9Y-5.575
X4.92Y-4.78
X4.925Y-5.475
X4.94Y-4.16
X4.95Y-4.37
X4.95Y-4.83
X4.9734Y-4.7066
X4.9748Y-4.5945
X4.98Y-5.14
X4.98Y-5.56
X4.982Y-4.793
X5.0Y-5.0465
X5.0Y-5.3
X5.0278Y-5.2722
X5.0394Y-5.0465
X5.04Y-4.79
X5.07Y-5.7
X5.0708Y-5.1083
X5.1Y-5.075
X5.15Y-5.0725
X5.15Y-5.25
X5.15Y-5.3
X5.15Y-5.3458
X5.17Y-5.71
X5.2Y-5.05
X5.2023Y-5.1798
X5.21Y-4.92
X5.225Y-5.3064
X5.25Y-4.71
X5.25Y-4.9
X5.25Y-5.3465
X5.25Y-5.65
X5.31Y-5.71
X5.33Y-4.91
X5.4Y-5.45
X5.425Y-5.125
X5.43Y-5.2725
X5.45Y-4.425
X5.475Y-5.15
X5.48Y-5.1
X5.48Y-5.2051
X5.49Y-5.43
X5.5Y-4.9225
X5.54Y-4.91
X5.54Y-5.26
X5.55Y-5.475
X5.55Y-5.57
X5.55Y-6.06
X5.63Y-5.43
X5.65Y-4.575
X5.67Y-4.15
X5.7Y-3.92
X5.73Y-5.15
X5.75Y-4.32
X5.78Y-5.1726
X5.81Y-5.09
X5.825Y-4.625
X5.825Y-5.25
X5.85Y-5.14
X5.94Y-3.89
X5.975Y-5.0785
X6.05Y-4.34
X6.22Y-2.93
X6.25Y-4.9
X6.27Y-3.85
X6.32Y-2.47
X6.37Y-3.2
X6.44Y-4.17
X6.49Y-4.64
X6.55Y-3.21
X6.56Y-2.84
X6.56Y-4.28
X6.62Y-6.05
X6.65Y-4.83
X6.82Y-3.75
X6.98Y-4.37
X7.09Y-3.21
X7.11Y-2.67
X7.11Y-4.23
X7.125Y-3.3
T3
X4.9Y-4.46
X4.9Y-4.51
X4.9Y-4.56
T4
X3.15Y-2.5
X3.15Y-2.6
X3.25Y-2.5
X3.25Y-2.6
X3.25Y-3.85
X3.25Y-3.95
X3.25Y-4.05
X3.25Y-4.15
X3.35Y-2.5
X3.35Y-4.05
X3.35Y-4.15
X3.45Y-2.5
X3.85Y-4.7
X3.85Y-5.3
X3.95Y-4.7
X3.95Y-5.3
X4.05Y-4.7
X4.05Y-5.3
X4.15Y-4.7
X4.15Y-5.3
X4.25Y-4.7
X4.25Y-5.3
X4.35Y-4.7
X4.35Y-5.3
X4.45Y-4.7
X4.45Y-5.3
X5.55Y-5.95
X5.6Y-4.8
X5.6Y-4.9
X5.6Y-5.0
X5.6Y-5.1
X5.65Y-5.95
X5.75Y-5.95
X5.85Y-5.95
X5.9Y-4.8
X5.9Y-4.9
X5.9Y-5.0
X5.9Y-5.1
X5.95Y-5.95
X6.05Y-5.95
X6.15Y-5.95
X6.25Y-5.95
X6.8Y-2.5
X6.8Y-2.6
X6.9Y-2.5
X6.9Y-2.6
X6.9Y-3.85
X6.9Y-3.95
X7.0Y-2.5
X7.0Y-3.85
X7.0Y-3.95
X7.0Y-4.05
X7.0Y-4.15
X7.1Y-2.5
T5
X3.7797Y-4.35
X3.8781Y-4.35
X3.9766Y-4.35
X4.075Y-4.35
X5.0024Y-4.0358
X5.1008Y-4.0358
X5.1992Y-4.0358
X5.2976Y-4.0358
X6.2047Y-4.4
X6.3031Y-4.4
X6.3524Y-2.9793
X6.3547Y-3.35
X6.4016Y-4.4
X6.4508Y-2.9793
X6.4531Y-3.35
X6.5Y-4.4
X6.5492Y-2.9793
X6.5516Y-3.35
X6.6476Y-2.9793
X6.65Y-3.35
T6
X3.75Y-3.25
X3.75Y-3.4
X3.75Y-3.55
X3.75Y-3.7
X3.85Y-3.25
X3.85Y-3.4
X3.85Y-3.55
X3.85Y-3.7
X3.95Y-3.25
X3.95Y-3.4
X3.95Y-3.55
X3.95Y-3.7
X4.3Y-5.75
X4.4969Y-5.75
X5.0006Y-5.8
X5.1006Y-5.8
X5.2006Y-5.8
T7
X3.172Y-3.2114
X3.172Y-3.3886
X3.172Y-3.5114
X3.172Y-3.6886
X3.428Y-3.2114
X3.428Y-3.3886
X3.428Y-3.5114
X3.428Y-3.6886
T8
X4.3925Y-4.2815
X4.676Y-4.2815
X5.6083Y-4.2815
X5.8917Y-4.2815
T2
G00X3.2157Y-2.7299
M15
G01X3.1843Y-2.7299
M16
G05
G00X3.2157Y-3.0701
M15
G01X3.1843Y-3.0701
M16
G05
G00X3.3862Y-2.7299
M15
G01X3.3429Y-2.7299
M16
G05
G00X3.3862Y-3.0701
M15
G01X3.3429Y-3.0701
M16
G05
G00X4.2685Y-4.0236
M15
G01X4.2685Y-4.0669
M16
G05
G00X4.8Y-4.0236
M15
G01X4.8Y-4.0669
M16
G05
G00X5.4843Y-4.0236
M15
G01X5.4843Y-4.0669
M16
G05
G00X6.0157Y-4.0236
M15
G01X6.0157Y-4.0669
M16
G05
T0
M30
