%TF.GenerationSoftware,KiCad,Pcbnew,7.0.9*%
%TF.CreationDate,2024-10-29T13:44:47+09:00*%
%TF.ProjectId,01-main,30312d6d-6169-46e2-9e6b-696361645f70,rev?*%
%TF.SameCoordinates,Original*%
%TF.FileFunction,Legend,Top*%
%TF.FilePolarity,Positive*%
%FSLAX46Y46*%
G04 Gerber Fmt 4.6, Leading zero omitted, Abs format (unit mm)*
G04 Created by KiCad (PCBNEW 7.0.9) date 2024-10-29 13:44:47*
%MOMM*%
%LPD*%
G01*
G04 APERTURE LIST*
G04 Aperture macros list*
%AMRoundRect*
0 Rectangle with rounded corners*
0 $1 Rounding radius*
0 $2 $3 $4 $5 $6 $7 $8 $9 X,Y pos of 4 corners*
0 Add a 4 corners polygon primitive as box body*
4,1,4,$2,$3,$4,$5,$6,$7,$8,$9,$2,$3,0*
0 Add four circle primitives for the rounded corners*
1,1,$1+$1,$2,$3*
1,1,$1+$1,$4,$5*
1,1,$1+$1,$6,$7*
1,1,$1+$1,$8,$9*
0 Add four rect primitives between the rounded corners*
20,1,$1+$1,$2,$3,$4,$5,0*
20,1,$1+$1,$4,$5,$6,$7,0*
20,1,$1+$1,$6,$7,$8,$9,0*
20,1,$1+$1,$8,$9,$2,$3,0*%
G04 Aperture macros list end*
%ADD10C,0.150000*%
%ADD11C,0.200000*%
%ADD12C,0.400000*%
%ADD13C,0.100000*%
%ADD14C,0.300000*%
%ADD15C,0.120000*%
%ADD16C,0.050000*%
%ADD17RoundRect,0.200000X0.275000X-0.200000X0.275000X0.200000X-0.275000X0.200000X-0.275000X-0.200000X0*%
%ADD18RoundRect,0.250000X-0.600000X-0.725000X0.600000X-0.725000X0.600000X0.725000X-0.600000X0.725000X0*%
%ADD19O,1.700000X1.950000*%
%ADD20RoundRect,0.140000X0.140000X0.170000X-0.140000X0.170000X-0.140000X-0.170000X0.140000X-0.170000X0*%
%ADD21C,1.524000*%
%ADD22RoundRect,0.200000X-0.275000X0.200000X-0.275000X-0.200000X0.275000X-0.200000X0.275000X0.200000X0*%
%ADD23RoundRect,0.140000X-0.170000X0.140000X-0.170000X-0.140000X0.170000X-0.140000X0.170000X0.140000X0*%
%ADD24C,3.200000*%
%ADD25R,0.900000X2.000000*%
%ADD26RoundRect,1.025000X-1.025000X-1.025000X1.025000X-1.025000X1.025000X1.025000X-1.025000X1.025000X0*%
%ADD27C,4.100000*%
%ADD28R,0.300000X1.400000*%
%ADD29RoundRect,0.200000X-0.200000X-0.275000X0.200000X-0.275000X0.200000X0.275000X-0.200000X0.275000X0*%
%ADD30R,1.700000X1.700000*%
%ADD31O,1.700000X1.700000*%
%ADD32RoundRect,0.140000X-0.140000X-0.170000X0.140000X-0.170000X0.140000X0.170000X-0.140000X0.170000X0*%
%ADD33C,2.000000*%
%ADD34RoundRect,0.250000X0.600000X0.725000X-0.600000X0.725000X-0.600000X-0.725000X0.600000X-0.725000X0*%
%ADD35RoundRect,0.075000X-0.700000X-0.075000X0.700000X-0.075000X0.700000X0.075000X-0.700000X0.075000X0*%
%ADD36RoundRect,0.075000X-0.075000X-0.700000X0.075000X-0.700000X0.075000X0.700000X-0.075000X0.700000X0*%
%ADD37RoundRect,0.250000X0.450000X-0.262500X0.450000X0.262500X-0.450000X0.262500X-0.450000X-0.262500X0*%
%ADD38RoundRect,0.150000X0.150000X-0.825000X0.150000X0.825000X-0.150000X0.825000X-0.150000X-0.825000X0*%
%ADD39RoundRect,0.250000X-0.450000X0.262500X-0.450000X-0.262500X0.450000X-0.262500X0.450000X0.262500X0*%
%ADD40RoundRect,0.140000X0.170000X-0.140000X0.170000X0.140000X-0.170000X0.140000X-0.170000X-0.140000X0*%
%ADD41RoundRect,0.250000X0.262500X0.450000X-0.262500X0.450000X-0.262500X-0.450000X0.262500X-0.450000X0*%
%ADD42C,0.650000*%
%ADD43RoundRect,0.150000X-0.425000X0.150000X-0.425000X-0.150000X0.425000X-0.150000X0.425000X0.150000X0*%
%ADD44RoundRect,0.075000X-0.500000X0.075000X-0.500000X-0.075000X0.500000X-0.075000X0.500000X0.075000X0*%
%ADD45O,2.100000X1.000000*%
%ADD46O,1.800000X1.000000*%
%ADD47RoundRect,0.250000X-0.375000X-0.625000X0.375000X-0.625000X0.375000X0.625000X-0.375000X0.625000X0*%
%ADD48R,2.000000X2.000000*%
%ADD49RoundRect,0.150000X0.150000X-0.675000X0.150000X0.675000X-0.150000X0.675000X-0.150000X-0.675000X0*%
%ADD50R,1.500000X1.050000*%
%ADD51O,1.500000X1.050000*%
G04 APERTURE END LIST*
D10*
X101460180Y-114808095D02*
X101460180Y-115379523D01*
X100460180Y-115093809D02*
X101460180Y-115093809D01*
X101460180Y-115617619D02*
X100460180Y-116284285D01*
X101460180Y-116284285D02*
X100460180Y-115617619D01*
X122205714Y-128774819D02*
X121634286Y-128774819D01*
X121920000Y-128774819D02*
X121920000Y-127774819D01*
X121920000Y-127774819D02*
X121824762Y-127917676D01*
X121824762Y-127917676D02*
X121729524Y-128012914D01*
X121729524Y-128012914D02*
X121634286Y-128060533D01*
X127920714Y-117979819D02*
X127349286Y-117979819D01*
X127635000Y-117979819D02*
X127635000Y-116979819D01*
X127635000Y-116979819D02*
X127539762Y-117122676D01*
X127539762Y-117122676D02*
X127444524Y-117217914D01*
X127444524Y-117217914D02*
X127349286Y-117265533D01*
X91776779Y-83054819D02*
X91776779Y-82054819D01*
X92205350Y-83054819D02*
X92205350Y-82531009D01*
X92205350Y-82531009D02*
X92157731Y-82435771D01*
X92157731Y-82435771D02*
X92062493Y-82388152D01*
X92062493Y-82388152D02*
X91919636Y-82388152D01*
X91919636Y-82388152D02*
X91824398Y-82435771D01*
X91824398Y-82435771D02*
X91776779Y-82483390D01*
X93252969Y-83054819D02*
X92919636Y-82578628D01*
X92681541Y-83054819D02*
X92681541Y-82054819D01*
X92681541Y-82054819D02*
X93062493Y-82054819D01*
X93062493Y-82054819D02*
X93157731Y-82102438D01*
X93157731Y-82102438D02*
X93205350Y-82150057D01*
X93205350Y-82150057D02*
X93252969Y-82245295D01*
X93252969Y-82245295D02*
X93252969Y-82388152D01*
X93252969Y-82388152D02*
X93205350Y-82483390D01*
X93205350Y-82483390D02*
X93157731Y-82531009D01*
X93157731Y-82531009D02*
X93062493Y-82578628D01*
X93062493Y-82578628D02*
X92681541Y-82578628D01*
X103952561Y-114808095D02*
X104000180Y-114712857D01*
X104000180Y-114712857D02*
X104000180Y-114570000D01*
X104000180Y-114570000D02*
X103952561Y-114427143D01*
X103952561Y-114427143D02*
X103857323Y-114331905D01*
X103857323Y-114331905D02*
X103762085Y-114284286D01*
X103762085Y-114284286D02*
X103571609Y-114236667D01*
X103571609Y-114236667D02*
X103428752Y-114236667D01*
X103428752Y-114236667D02*
X103238276Y-114284286D01*
X103238276Y-114284286D02*
X103143038Y-114331905D01*
X103143038Y-114331905D02*
X103047800Y-114427143D01*
X103047800Y-114427143D02*
X103000180Y-114570000D01*
X103000180Y-114570000D02*
X103000180Y-114665238D01*
X103000180Y-114665238D02*
X103047800Y-114808095D01*
X103047800Y-114808095D02*
X103095419Y-114855714D01*
X103095419Y-114855714D02*
X103428752Y-114855714D01*
X103428752Y-114855714D02*
X103428752Y-114665238D01*
X103000180Y-115284286D02*
X104000180Y-115284286D01*
X104000180Y-115284286D02*
X103000180Y-115855714D01*
X103000180Y-115855714D02*
X104000180Y-115855714D01*
X103000180Y-116331905D02*
X104000180Y-116331905D01*
X104000180Y-116331905D02*
X104000180Y-116570000D01*
X104000180Y-116570000D02*
X103952561Y-116712857D01*
X103952561Y-116712857D02*
X103857323Y-116808095D01*
X103857323Y-116808095D02*
X103762085Y-116855714D01*
X103762085Y-116855714D02*
X103571609Y-116903333D01*
X103571609Y-116903333D02*
X103428752Y-116903333D01*
X103428752Y-116903333D02*
X103238276Y-116855714D01*
X103238276Y-116855714D02*
X103143038Y-116808095D01*
X103143038Y-116808095D02*
X103047800Y-116712857D01*
X103047800Y-116712857D02*
X103000180Y-116570000D01*
X103000180Y-116570000D02*
X103000180Y-116331905D01*
X128463865Y-104849209D02*
X128606722Y-104896828D01*
X128606722Y-104896828D02*
X128844817Y-104896828D01*
X128844817Y-104896828D02*
X128940055Y-104849209D01*
X128940055Y-104849209D02*
X128987674Y-104801589D01*
X128987674Y-104801589D02*
X129035293Y-104706351D01*
X129035293Y-104706351D02*
X129035293Y-104611113D01*
X129035293Y-104611113D02*
X128987674Y-104515875D01*
X128987674Y-104515875D02*
X128940055Y-104468256D01*
X128940055Y-104468256D02*
X128844817Y-104420637D01*
X128844817Y-104420637D02*
X128654341Y-104373018D01*
X128654341Y-104373018D02*
X128559103Y-104325399D01*
X128559103Y-104325399D02*
X128511484Y-104277780D01*
X128511484Y-104277780D02*
X128463865Y-104182542D01*
X128463865Y-104182542D02*
X128463865Y-104087304D01*
X128463865Y-104087304D02*
X128511484Y-103992066D01*
X128511484Y-103992066D02*
X128559103Y-103944447D01*
X128559103Y-103944447D02*
X128654341Y-103896828D01*
X128654341Y-103896828D02*
X128892436Y-103896828D01*
X128892436Y-103896828D02*
X129035293Y-103944447D01*
X129321008Y-103896828D02*
X129892436Y-103896828D01*
X129606722Y-104896828D02*
X129606722Y-103896828D01*
X130178151Y-104849209D02*
X130321008Y-104896828D01*
X130321008Y-104896828D02*
X130559103Y-104896828D01*
X130559103Y-104896828D02*
X130654341Y-104849209D01*
X130654341Y-104849209D02*
X130701960Y-104801589D01*
X130701960Y-104801589D02*
X130749579Y-104706351D01*
X130749579Y-104706351D02*
X130749579Y-104611113D01*
X130749579Y-104611113D02*
X130701960Y-104515875D01*
X130701960Y-104515875D02*
X130654341Y-104468256D01*
X130654341Y-104468256D02*
X130559103Y-104420637D01*
X130559103Y-104420637D02*
X130368627Y-104373018D01*
X130368627Y-104373018D02*
X130273389Y-104325399D01*
X130273389Y-104325399D02*
X130225770Y-104277780D01*
X130225770Y-104277780D02*
X130178151Y-104182542D01*
X130178151Y-104182542D02*
X130178151Y-104087304D01*
X130178151Y-104087304D02*
X130225770Y-103992066D01*
X130225770Y-103992066D02*
X130273389Y-103944447D01*
X130273389Y-103944447D02*
X130368627Y-103896828D01*
X130368627Y-103896828D02*
X130606722Y-103896828D01*
X130606722Y-103896828D02*
X130749579Y-103944447D01*
X91776779Y-86864819D02*
X91776779Y-85864819D01*
X92205350Y-86864819D02*
X92205350Y-86341009D01*
X92205350Y-86341009D02*
X92157731Y-86245771D01*
X92157731Y-86245771D02*
X92062493Y-86198152D01*
X92062493Y-86198152D02*
X91919636Y-86198152D01*
X91919636Y-86198152D02*
X91824398Y-86245771D01*
X91824398Y-86245771D02*
X91776779Y-86293390D01*
X93157731Y-86864819D02*
X92681541Y-86864819D01*
X92681541Y-86864819D02*
X92681541Y-85864819D01*
X92205350Y-90674819D02*
X92205350Y-90151009D01*
X92205350Y-90151009D02*
X92157731Y-90055771D01*
X92157731Y-90055771D02*
X92062493Y-90008152D01*
X92062493Y-90008152D02*
X91872017Y-90008152D01*
X91872017Y-90008152D02*
X91776779Y-90055771D01*
X92205350Y-90627200D02*
X92110112Y-90674819D01*
X92110112Y-90674819D02*
X91872017Y-90674819D01*
X91872017Y-90674819D02*
X91776779Y-90627200D01*
X91776779Y-90627200D02*
X91729160Y-90531961D01*
X91729160Y-90531961D02*
X91729160Y-90436723D01*
X91729160Y-90436723D02*
X91776779Y-90341485D01*
X91776779Y-90341485D02*
X91872017Y-90293866D01*
X91872017Y-90293866D02*
X92110112Y-90293866D01*
X92110112Y-90293866D02*
X92205350Y-90246247D01*
X92633922Y-89770057D02*
X92681541Y-89722438D01*
X92681541Y-89722438D02*
X92776779Y-89674819D01*
X92776779Y-89674819D02*
X93014874Y-89674819D01*
X93014874Y-89674819D02*
X93110112Y-89722438D01*
X93110112Y-89722438D02*
X93157731Y-89770057D01*
X93157731Y-89770057D02*
X93205350Y-89865295D01*
X93205350Y-89865295D02*
X93205350Y-89960533D01*
X93205350Y-89960533D02*
X93157731Y-90103390D01*
X93157731Y-90103390D02*
X92586303Y-90674819D01*
X92586303Y-90674819D02*
X93205350Y-90674819D01*
X126542800Y-150106191D02*
X126495180Y-150249048D01*
X126495180Y-150249048D02*
X126495180Y-150487143D01*
X126495180Y-150487143D02*
X126542800Y-150582381D01*
X126542800Y-150582381D02*
X126590419Y-150630000D01*
X126590419Y-150630000D02*
X126685657Y-150677619D01*
X126685657Y-150677619D02*
X126780895Y-150677619D01*
X126780895Y-150677619D02*
X126876133Y-150630000D01*
X126876133Y-150630000D02*
X126923752Y-150582381D01*
X126923752Y-150582381D02*
X126971371Y-150487143D01*
X126971371Y-150487143D02*
X127018990Y-150296667D01*
X127018990Y-150296667D02*
X127066609Y-150201429D01*
X127066609Y-150201429D02*
X127114228Y-150153810D01*
X127114228Y-150153810D02*
X127209466Y-150106191D01*
X127209466Y-150106191D02*
X127304704Y-150106191D01*
X127304704Y-150106191D02*
X127399942Y-150153810D01*
X127399942Y-150153810D02*
X127447561Y-150201429D01*
X127447561Y-150201429D02*
X127495180Y-150296667D01*
X127495180Y-150296667D02*
X127495180Y-150534762D01*
X127495180Y-150534762D02*
X127447561Y-150677619D01*
X126495180Y-151106191D02*
X127495180Y-151106191D01*
X127447561Y-152106190D02*
X127495180Y-152010952D01*
X127495180Y-152010952D02*
X127495180Y-151868095D01*
X127495180Y-151868095D02*
X127447561Y-151725238D01*
X127447561Y-151725238D02*
X127352323Y-151630000D01*
X127352323Y-151630000D02*
X127257085Y-151582381D01*
X127257085Y-151582381D02*
X127066609Y-151534762D01*
X127066609Y-151534762D02*
X126923752Y-151534762D01*
X126923752Y-151534762D02*
X126733276Y-151582381D01*
X126733276Y-151582381D02*
X126638038Y-151630000D01*
X126638038Y-151630000D02*
X126542800Y-151725238D01*
X126542800Y-151725238D02*
X126495180Y-151868095D01*
X126495180Y-151868095D02*
X126495180Y-151963333D01*
X126495180Y-151963333D02*
X126542800Y-152106190D01*
X126542800Y-152106190D02*
X126590419Y-152153809D01*
X126590419Y-152153809D02*
X126923752Y-152153809D01*
X126923752Y-152153809D02*
X126923752Y-151963333D01*
X97920180Y-115403333D02*
X98396371Y-115070000D01*
X97920180Y-114831905D02*
X98920180Y-114831905D01*
X98920180Y-114831905D02*
X98920180Y-115212857D01*
X98920180Y-115212857D02*
X98872561Y-115308095D01*
X98872561Y-115308095D02*
X98824942Y-115355714D01*
X98824942Y-115355714D02*
X98729704Y-115403333D01*
X98729704Y-115403333D02*
X98586847Y-115403333D01*
X98586847Y-115403333D02*
X98491609Y-115355714D01*
X98491609Y-115355714D02*
X98443990Y-115308095D01*
X98443990Y-115308095D02*
X98396371Y-115212857D01*
X98396371Y-115212857D02*
X98396371Y-114831905D01*
X98920180Y-115736667D02*
X97920180Y-116403333D01*
X98920180Y-116403333D02*
X97920180Y-115736667D01*
D11*
X96865863Y-130386028D02*
X97865863Y-131886028D01*
X97865863Y-130386028D02*
X96865863Y-131886028D01*
X98437291Y-131886028D02*
X98437291Y-130386028D01*
X99080149Y-131457457D02*
X99794435Y-131457457D01*
X98937292Y-131886028D02*
X99437292Y-130386028D01*
X99437292Y-130386028D02*
X99937292Y-131886028D01*
X100723006Y-130386028D02*
X101008720Y-130386028D01*
X101008720Y-130386028D02*
X101151577Y-130457457D01*
X101151577Y-130457457D02*
X101294434Y-130600314D01*
X101294434Y-130600314D02*
X101365863Y-130886028D01*
X101365863Y-130886028D02*
X101365863Y-131386028D01*
X101365863Y-131386028D02*
X101294434Y-131671742D01*
X101294434Y-131671742D02*
X101151577Y-131814600D01*
X101151577Y-131814600D02*
X101008720Y-131886028D01*
X101008720Y-131886028D02*
X100723006Y-131886028D01*
X100723006Y-131886028D02*
X100580149Y-131814600D01*
X100580149Y-131814600D02*
X100437291Y-131671742D01*
X100437291Y-131671742D02*
X100365863Y-131386028D01*
X100365863Y-131386028D02*
X100365863Y-130886028D01*
X100365863Y-130886028D02*
X100437291Y-130600314D01*
X100437291Y-130600314D02*
X100580149Y-130457457D01*
X100580149Y-130457457D02*
X100723006Y-130386028D01*
X103151577Y-131100314D02*
X103651577Y-131100314D01*
X103865863Y-131886028D02*
X103151577Y-131886028D01*
X103151577Y-131886028D02*
X103151577Y-130386028D01*
X103151577Y-130386028D02*
X103865863Y-130386028D01*
X104437292Y-131814600D02*
X104651578Y-131886028D01*
X104651578Y-131886028D02*
X105008720Y-131886028D01*
X105008720Y-131886028D02*
X105151578Y-131814600D01*
X105151578Y-131814600D02*
X105223006Y-131743171D01*
X105223006Y-131743171D02*
X105294435Y-131600314D01*
X105294435Y-131600314D02*
X105294435Y-131457457D01*
X105294435Y-131457457D02*
X105223006Y-131314600D01*
X105223006Y-131314600D02*
X105151578Y-131243171D01*
X105151578Y-131243171D02*
X105008720Y-131171742D01*
X105008720Y-131171742D02*
X104723006Y-131100314D01*
X104723006Y-131100314D02*
X104580149Y-131028885D01*
X104580149Y-131028885D02*
X104508720Y-130957457D01*
X104508720Y-130957457D02*
X104437292Y-130814600D01*
X104437292Y-130814600D02*
X104437292Y-130671742D01*
X104437292Y-130671742D02*
X104508720Y-130528885D01*
X104508720Y-130528885D02*
X104580149Y-130457457D01*
X104580149Y-130457457D02*
X104723006Y-130386028D01*
X104723006Y-130386028D02*
X105080149Y-130386028D01*
X105080149Y-130386028D02*
X105294435Y-130457457D01*
X105937291Y-131886028D02*
X105937291Y-130386028D01*
X105937291Y-130386028D02*
X106508720Y-130386028D01*
X106508720Y-130386028D02*
X106651577Y-130457457D01*
X106651577Y-130457457D02*
X106723006Y-130528885D01*
X106723006Y-130528885D02*
X106794434Y-130671742D01*
X106794434Y-130671742D02*
X106794434Y-130886028D01*
X106794434Y-130886028D02*
X106723006Y-131028885D01*
X106723006Y-131028885D02*
X106651577Y-131100314D01*
X106651577Y-131100314D02*
X106508720Y-131171742D01*
X106508720Y-131171742D02*
X105937291Y-131171742D01*
X107294434Y-130386028D02*
X108223006Y-130386028D01*
X108223006Y-130386028D02*
X107723006Y-130957457D01*
X107723006Y-130957457D02*
X107937291Y-130957457D01*
X107937291Y-130957457D02*
X108080149Y-131028885D01*
X108080149Y-131028885D02*
X108151577Y-131100314D01*
X108151577Y-131100314D02*
X108223006Y-131243171D01*
X108223006Y-131243171D02*
X108223006Y-131600314D01*
X108223006Y-131600314D02*
X108151577Y-131743171D01*
X108151577Y-131743171D02*
X108080149Y-131814600D01*
X108080149Y-131814600D02*
X107937291Y-131886028D01*
X107937291Y-131886028D02*
X107508720Y-131886028D01*
X107508720Y-131886028D02*
X107365863Y-131814600D01*
X107365863Y-131814600D02*
X107294434Y-131743171D01*
X108794434Y-130528885D02*
X108865862Y-130457457D01*
X108865862Y-130457457D02*
X109008720Y-130386028D01*
X109008720Y-130386028D02*
X109365862Y-130386028D01*
X109365862Y-130386028D02*
X109508720Y-130457457D01*
X109508720Y-130457457D02*
X109580148Y-130528885D01*
X109580148Y-130528885D02*
X109651577Y-130671742D01*
X109651577Y-130671742D02*
X109651577Y-130814600D01*
X109651577Y-130814600D02*
X109580148Y-131028885D01*
X109580148Y-131028885D02*
X108723005Y-131886028D01*
X108723005Y-131886028D02*
X109651577Y-131886028D01*
X111151576Y-131743171D02*
X111080148Y-131814600D01*
X111080148Y-131814600D02*
X110865862Y-131886028D01*
X110865862Y-131886028D02*
X110723005Y-131886028D01*
X110723005Y-131886028D02*
X110508719Y-131814600D01*
X110508719Y-131814600D02*
X110365862Y-131671742D01*
X110365862Y-131671742D02*
X110294433Y-131528885D01*
X110294433Y-131528885D02*
X110223005Y-131243171D01*
X110223005Y-131243171D02*
X110223005Y-131028885D01*
X110223005Y-131028885D02*
X110294433Y-130743171D01*
X110294433Y-130743171D02*
X110365862Y-130600314D01*
X110365862Y-130600314D02*
X110508719Y-130457457D01*
X110508719Y-130457457D02*
X110723005Y-130386028D01*
X110723005Y-130386028D02*
X110865862Y-130386028D01*
X110865862Y-130386028D02*
X111080148Y-130457457D01*
X111080148Y-130457457D02*
X111151576Y-130528885D01*
X111651576Y-130386028D02*
X112580148Y-130386028D01*
X112580148Y-130386028D02*
X112080148Y-130957457D01*
X112080148Y-130957457D02*
X112294433Y-130957457D01*
X112294433Y-130957457D02*
X112437291Y-131028885D01*
X112437291Y-131028885D02*
X112508719Y-131100314D01*
X112508719Y-131100314D02*
X112580148Y-131243171D01*
X112580148Y-131243171D02*
X112580148Y-131600314D01*
X112580148Y-131600314D02*
X112508719Y-131743171D01*
X112508719Y-131743171D02*
X112437291Y-131814600D01*
X112437291Y-131814600D02*
X112294433Y-131886028D01*
X112294433Y-131886028D02*
X111865862Y-131886028D01*
X111865862Y-131886028D02*
X111723005Y-131814600D01*
X111723005Y-131814600D02*
X111651576Y-131743171D01*
D10*
X94792800Y-96131191D02*
X94745180Y-96274048D01*
X94745180Y-96274048D02*
X94745180Y-96512143D01*
X94745180Y-96512143D02*
X94792800Y-96607381D01*
X94792800Y-96607381D02*
X94840419Y-96655000D01*
X94840419Y-96655000D02*
X94935657Y-96702619D01*
X94935657Y-96702619D02*
X95030895Y-96702619D01*
X95030895Y-96702619D02*
X95126133Y-96655000D01*
X95126133Y-96655000D02*
X95173752Y-96607381D01*
X95173752Y-96607381D02*
X95221371Y-96512143D01*
X95221371Y-96512143D02*
X95268990Y-96321667D01*
X95268990Y-96321667D02*
X95316609Y-96226429D01*
X95316609Y-96226429D02*
X95364228Y-96178810D01*
X95364228Y-96178810D02*
X95459466Y-96131191D01*
X95459466Y-96131191D02*
X95554704Y-96131191D01*
X95554704Y-96131191D02*
X95649942Y-96178810D01*
X95649942Y-96178810D02*
X95697561Y-96226429D01*
X95697561Y-96226429D02*
X95745180Y-96321667D01*
X95745180Y-96321667D02*
X95745180Y-96559762D01*
X95745180Y-96559762D02*
X95697561Y-96702619D01*
X94745180Y-97131191D02*
X95745180Y-97131191D01*
X95697561Y-98131190D02*
X95745180Y-98035952D01*
X95745180Y-98035952D02*
X95745180Y-97893095D01*
X95745180Y-97893095D02*
X95697561Y-97750238D01*
X95697561Y-97750238D02*
X95602323Y-97655000D01*
X95602323Y-97655000D02*
X95507085Y-97607381D01*
X95507085Y-97607381D02*
X95316609Y-97559762D01*
X95316609Y-97559762D02*
X95173752Y-97559762D01*
X95173752Y-97559762D02*
X94983276Y-97607381D01*
X94983276Y-97607381D02*
X94888038Y-97655000D01*
X94888038Y-97655000D02*
X94792800Y-97750238D01*
X94792800Y-97750238D02*
X94745180Y-97893095D01*
X94745180Y-97893095D02*
X94745180Y-97988333D01*
X94745180Y-97988333D02*
X94792800Y-98131190D01*
X94792800Y-98131190D02*
X94840419Y-98178809D01*
X94840419Y-98178809D02*
X95173752Y-98178809D01*
X95173752Y-98178809D02*
X95173752Y-97988333D01*
X131318095Y-104914819D02*
X131889523Y-104914819D01*
X131603809Y-105914819D02*
X131603809Y-104914819D01*
X132127619Y-104914819D02*
X132794285Y-105914819D01*
X132794285Y-104914819D02*
X132127619Y-105914819D01*
D12*
X102933571Y-100117057D02*
X101504999Y-100117057D01*
X101504999Y-100117057D02*
X101362142Y-101545628D01*
X101362142Y-101545628D02*
X101504999Y-101402771D01*
X101504999Y-101402771D02*
X101790714Y-101259914D01*
X101790714Y-101259914D02*
X102504999Y-101259914D01*
X102504999Y-101259914D02*
X102790714Y-101402771D01*
X102790714Y-101402771D02*
X102933571Y-101545628D01*
X102933571Y-101545628D02*
X103076428Y-101831342D01*
X103076428Y-101831342D02*
X103076428Y-102545628D01*
X103076428Y-102545628D02*
X102933571Y-102831342D01*
X102933571Y-102831342D02*
X102790714Y-102974200D01*
X102790714Y-102974200D02*
X102504999Y-103117057D01*
X102504999Y-103117057D02*
X101790714Y-103117057D01*
X101790714Y-103117057D02*
X101504999Y-102974200D01*
X101504999Y-102974200D02*
X101362142Y-102831342D01*
X103933571Y-100117057D02*
X104933571Y-103117057D01*
X104933571Y-103117057D02*
X105933571Y-100117057D01*
D10*
X92205350Y-94484819D02*
X92205350Y-93961009D01*
X92205350Y-93961009D02*
X92157731Y-93865771D01*
X92157731Y-93865771D02*
X92062493Y-93818152D01*
X92062493Y-93818152D02*
X91872017Y-93818152D01*
X91872017Y-93818152D02*
X91776779Y-93865771D01*
X92205350Y-94437200D02*
X92110112Y-94484819D01*
X92110112Y-94484819D02*
X91872017Y-94484819D01*
X91872017Y-94484819D02*
X91776779Y-94437200D01*
X91776779Y-94437200D02*
X91729160Y-94341961D01*
X91729160Y-94341961D02*
X91729160Y-94246723D01*
X91729160Y-94246723D02*
X91776779Y-94151485D01*
X91776779Y-94151485D02*
X91872017Y-94103866D01*
X91872017Y-94103866D02*
X92110112Y-94103866D01*
X92110112Y-94103866D02*
X92205350Y-94056247D01*
X93205350Y-94484819D02*
X92633922Y-94484819D01*
X92919636Y-94484819D02*
X92919636Y-93484819D01*
X92919636Y-93484819D02*
X92824398Y-93627676D01*
X92824398Y-93627676D02*
X92729160Y-93722914D01*
X92729160Y-93722914D02*
X92633922Y-93770533D01*
X78758990Y-81950112D02*
X78711371Y-82092969D01*
X78711371Y-82092969D02*
X78663752Y-82140588D01*
X78663752Y-82140588D02*
X78568514Y-82188207D01*
X78568514Y-82188207D02*
X78425657Y-82188207D01*
X78425657Y-82188207D02*
X78330419Y-82140588D01*
X78330419Y-82140588D02*
X78282800Y-82092969D01*
X78282800Y-82092969D02*
X78235180Y-81997731D01*
X78235180Y-81997731D02*
X78235180Y-81616779D01*
X78235180Y-81616779D02*
X79235180Y-81616779D01*
X79235180Y-81616779D02*
X79235180Y-81950112D01*
X79235180Y-81950112D02*
X79187561Y-82045350D01*
X79187561Y-82045350D02*
X79139942Y-82092969D01*
X79139942Y-82092969D02*
X79044704Y-82140588D01*
X79044704Y-82140588D02*
X78949466Y-82140588D01*
X78949466Y-82140588D02*
X78854228Y-82092969D01*
X78854228Y-82092969D02*
X78806609Y-82045350D01*
X78806609Y-82045350D02*
X78758990Y-81950112D01*
X78758990Y-81950112D02*
X78758990Y-81616779D01*
X79235180Y-82807255D02*
X79235180Y-82997731D01*
X79235180Y-82997731D02*
X79187561Y-83092969D01*
X79187561Y-83092969D02*
X79092323Y-83188207D01*
X79092323Y-83188207D02*
X78901847Y-83235826D01*
X78901847Y-83235826D02*
X78568514Y-83235826D01*
X78568514Y-83235826D02*
X78378038Y-83188207D01*
X78378038Y-83188207D02*
X78282800Y-83092969D01*
X78282800Y-83092969D02*
X78235180Y-82997731D01*
X78235180Y-82997731D02*
X78235180Y-82807255D01*
X78235180Y-82807255D02*
X78282800Y-82712017D01*
X78282800Y-82712017D02*
X78378038Y-82616779D01*
X78378038Y-82616779D02*
X78568514Y-82569160D01*
X78568514Y-82569160D02*
X78901847Y-82569160D01*
X78901847Y-82569160D02*
X79092323Y-82616779D01*
X79092323Y-82616779D02*
X79187561Y-82712017D01*
X79187561Y-82712017D02*
X79235180Y-82807255D01*
X79235180Y-83854874D02*
X79235180Y-84045350D01*
X79235180Y-84045350D02*
X79187561Y-84140588D01*
X79187561Y-84140588D02*
X79092323Y-84235826D01*
X79092323Y-84235826D02*
X78901847Y-84283445D01*
X78901847Y-84283445D02*
X78568514Y-84283445D01*
X78568514Y-84283445D02*
X78378038Y-84235826D01*
X78378038Y-84235826D02*
X78282800Y-84140588D01*
X78282800Y-84140588D02*
X78235180Y-84045350D01*
X78235180Y-84045350D02*
X78235180Y-83854874D01*
X78235180Y-83854874D02*
X78282800Y-83759636D01*
X78282800Y-83759636D02*
X78378038Y-83664398D01*
X78378038Y-83664398D02*
X78568514Y-83616779D01*
X78568514Y-83616779D02*
X78901847Y-83616779D01*
X78901847Y-83616779D02*
X79092323Y-83664398D01*
X79092323Y-83664398D02*
X79187561Y-83759636D01*
X79187561Y-83759636D02*
X79235180Y-83854874D01*
X79235180Y-84569160D02*
X79235180Y-85140588D01*
X78235180Y-84854874D02*
X79235180Y-84854874D01*
X79235180Y-85664398D02*
X79235180Y-85759636D01*
X79235180Y-85759636D02*
X79187561Y-85854874D01*
X79187561Y-85854874D02*
X79139942Y-85902493D01*
X79139942Y-85902493D02*
X79044704Y-85950112D01*
X79044704Y-85950112D02*
X78854228Y-85997731D01*
X78854228Y-85997731D02*
X78616133Y-85997731D01*
X78616133Y-85997731D02*
X78425657Y-85950112D01*
X78425657Y-85950112D02*
X78330419Y-85902493D01*
X78330419Y-85902493D02*
X78282800Y-85854874D01*
X78282800Y-85854874D02*
X78235180Y-85759636D01*
X78235180Y-85759636D02*
X78235180Y-85664398D01*
X78235180Y-85664398D02*
X78282800Y-85569160D01*
X78282800Y-85569160D02*
X78330419Y-85521541D01*
X78330419Y-85521541D02*
X78425657Y-85473922D01*
X78425657Y-85473922D02*
X78616133Y-85426303D01*
X78616133Y-85426303D02*
X78854228Y-85426303D01*
X78854228Y-85426303D02*
X79044704Y-85473922D01*
X79044704Y-85473922D02*
X79139942Y-85521541D01*
X79139942Y-85521541D02*
X79187561Y-85569160D01*
X79187561Y-85569160D02*
X79235180Y-85664398D01*
X96380180Y-115379523D02*
X96380180Y-114903333D01*
X96380180Y-114903333D02*
X95903990Y-114855714D01*
X95903990Y-114855714D02*
X95951609Y-114903333D01*
X95951609Y-114903333D02*
X95999228Y-114998571D01*
X95999228Y-114998571D02*
X95999228Y-115236666D01*
X95999228Y-115236666D02*
X95951609Y-115331904D01*
X95951609Y-115331904D02*
X95903990Y-115379523D01*
X95903990Y-115379523D02*
X95808752Y-115427142D01*
X95808752Y-115427142D02*
X95570657Y-115427142D01*
X95570657Y-115427142D02*
X95475419Y-115379523D01*
X95475419Y-115379523D02*
X95427800Y-115331904D01*
X95427800Y-115331904D02*
X95380180Y-115236666D01*
X95380180Y-115236666D02*
X95380180Y-114998571D01*
X95380180Y-114998571D02*
X95427800Y-114903333D01*
X95427800Y-114903333D02*
X95475419Y-114855714D01*
X96380180Y-115712857D02*
X95380180Y-116046190D01*
X95380180Y-116046190D02*
X96380180Y-116379523D01*
X97983922Y-105549819D02*
X98555350Y-105549819D01*
X98269636Y-106549819D02*
X98269636Y-105549819D01*
X99031541Y-106549819D02*
X98936303Y-106502200D01*
X98936303Y-106502200D02*
X98888684Y-106454580D01*
X98888684Y-106454580D02*
X98841065Y-106359342D01*
X98841065Y-106359342D02*
X98841065Y-106073628D01*
X98841065Y-106073628D02*
X98888684Y-105978390D01*
X98888684Y-105978390D02*
X98936303Y-105930771D01*
X98936303Y-105930771D02*
X99031541Y-105883152D01*
X99031541Y-105883152D02*
X99174398Y-105883152D01*
X99174398Y-105883152D02*
X99269636Y-105930771D01*
X99269636Y-105930771D02*
X99317255Y-105978390D01*
X99317255Y-105978390D02*
X99364874Y-106073628D01*
X99364874Y-106073628D02*
X99364874Y-106359342D01*
X99364874Y-106359342D02*
X99317255Y-106454580D01*
X99317255Y-106454580D02*
X99269636Y-106502200D01*
X99269636Y-106502200D02*
X99174398Y-106549819D01*
X99174398Y-106549819D02*
X99031541Y-106549819D01*
X99650589Y-105549819D02*
X100222017Y-105549819D01*
X99936303Y-106549819D02*
X99936303Y-105549819D01*
X100698208Y-106549819D02*
X100602970Y-106502200D01*
X100602970Y-106502200D02*
X100555351Y-106454580D01*
X100555351Y-106454580D02*
X100507732Y-106359342D01*
X100507732Y-106359342D02*
X100507732Y-106073628D01*
X100507732Y-106073628D02*
X100555351Y-105978390D01*
X100555351Y-105978390D02*
X100602970Y-105930771D01*
X100602970Y-105930771D02*
X100698208Y-105883152D01*
X100698208Y-105883152D02*
X100841065Y-105883152D01*
X100841065Y-105883152D02*
X100936303Y-105930771D01*
X100936303Y-105930771D02*
X100983922Y-105978390D01*
X100983922Y-105978390D02*
X101031541Y-106073628D01*
X101031541Y-106073628D02*
X101031541Y-106359342D01*
X101031541Y-106359342D02*
X100983922Y-106454580D01*
X100983922Y-106454580D02*
X100936303Y-106502200D01*
X100936303Y-106502200D02*
X100841065Y-106549819D01*
X100841065Y-106549819D02*
X100698208Y-106549819D01*
X101460113Y-105883152D02*
X101460113Y-106883152D01*
X101460113Y-105930771D02*
X101555351Y-105883152D01*
X101555351Y-105883152D02*
X101745827Y-105883152D01*
X101745827Y-105883152D02*
X101841065Y-105930771D01*
X101841065Y-105930771D02*
X101888684Y-105978390D01*
X101888684Y-105978390D02*
X101936303Y-106073628D01*
X101936303Y-106073628D02*
X101936303Y-106359342D01*
X101936303Y-106359342D02*
X101888684Y-106454580D01*
X101888684Y-106454580D02*
X101841065Y-106502200D01*
X101841065Y-106502200D02*
X101745827Y-106549819D01*
X101745827Y-106549819D02*
X101555351Y-106549819D01*
X101555351Y-106549819D02*
X101460113Y-106502200D01*
X100777561Y-96393095D02*
X100825180Y-96297857D01*
X100825180Y-96297857D02*
X100825180Y-96155000D01*
X100825180Y-96155000D02*
X100777561Y-96012143D01*
X100777561Y-96012143D02*
X100682323Y-95916905D01*
X100682323Y-95916905D02*
X100587085Y-95869286D01*
X100587085Y-95869286D02*
X100396609Y-95821667D01*
X100396609Y-95821667D02*
X100253752Y-95821667D01*
X100253752Y-95821667D02*
X100063276Y-95869286D01*
X100063276Y-95869286D02*
X99968038Y-95916905D01*
X99968038Y-95916905D02*
X99872800Y-96012143D01*
X99872800Y-96012143D02*
X99825180Y-96155000D01*
X99825180Y-96155000D02*
X99825180Y-96250238D01*
X99825180Y-96250238D02*
X99872800Y-96393095D01*
X99872800Y-96393095D02*
X99920419Y-96440714D01*
X99920419Y-96440714D02*
X100253752Y-96440714D01*
X100253752Y-96440714D02*
X100253752Y-96250238D01*
X99825180Y-96869286D02*
X100825180Y-96869286D01*
X100825180Y-96869286D02*
X99825180Y-97440714D01*
X99825180Y-97440714D02*
X100825180Y-97440714D01*
X99825180Y-97916905D02*
X100825180Y-97916905D01*
X100825180Y-97916905D02*
X100825180Y-98155000D01*
X100825180Y-98155000D02*
X100777561Y-98297857D01*
X100777561Y-98297857D02*
X100682323Y-98393095D01*
X100682323Y-98393095D02*
X100587085Y-98440714D01*
X100587085Y-98440714D02*
X100396609Y-98488333D01*
X100396609Y-98488333D02*
X100253752Y-98488333D01*
X100253752Y-98488333D02*
X100063276Y-98440714D01*
X100063276Y-98440714D02*
X99968038Y-98393095D01*
X99968038Y-98393095D02*
X99872800Y-98297857D01*
X99872800Y-98297857D02*
X99825180Y-98155000D01*
X99825180Y-98155000D02*
X99825180Y-97916905D01*
X94900714Y-76704819D02*
X94329286Y-76704819D01*
X94615000Y-76704819D02*
X94615000Y-75704819D01*
X94615000Y-75704819D02*
X94519762Y-75847676D01*
X94519762Y-75847676D02*
X94424524Y-75942914D01*
X94424524Y-75942914D02*
X94329286Y-75990533D01*
X121832857Y-147301009D02*
X121975714Y-147348628D01*
X121975714Y-147348628D02*
X122023333Y-147396247D01*
X122023333Y-147396247D02*
X122070952Y-147491485D01*
X122070952Y-147491485D02*
X122070952Y-147634342D01*
X122070952Y-147634342D02*
X122023333Y-147729580D01*
X122023333Y-147729580D02*
X121975714Y-147777200D01*
X121975714Y-147777200D02*
X121880476Y-147824819D01*
X121880476Y-147824819D02*
X121499524Y-147824819D01*
X121499524Y-147824819D02*
X121499524Y-146824819D01*
X121499524Y-146824819D02*
X121832857Y-146824819D01*
X121832857Y-146824819D02*
X121928095Y-146872438D01*
X121928095Y-146872438D02*
X121975714Y-146920057D01*
X121975714Y-146920057D02*
X122023333Y-147015295D01*
X122023333Y-147015295D02*
X122023333Y-147110533D01*
X122023333Y-147110533D02*
X121975714Y-147205771D01*
X121975714Y-147205771D02*
X121928095Y-147253390D01*
X121928095Y-147253390D02*
X121832857Y-147301009D01*
X121832857Y-147301009D02*
X121499524Y-147301009D01*
X122451905Y-147539104D02*
X122928095Y-147539104D01*
X122356667Y-147824819D02*
X122690000Y-146824819D01*
X122690000Y-146824819D02*
X123023333Y-147824819D01*
X123928095Y-147729580D02*
X123880476Y-147777200D01*
X123880476Y-147777200D02*
X123737619Y-147824819D01*
X123737619Y-147824819D02*
X123642381Y-147824819D01*
X123642381Y-147824819D02*
X123499524Y-147777200D01*
X123499524Y-147777200D02*
X123404286Y-147681961D01*
X123404286Y-147681961D02*
X123356667Y-147586723D01*
X123356667Y-147586723D02*
X123309048Y-147396247D01*
X123309048Y-147396247D02*
X123309048Y-147253390D01*
X123309048Y-147253390D02*
X123356667Y-147062914D01*
X123356667Y-147062914D02*
X123404286Y-146967676D01*
X123404286Y-146967676D02*
X123499524Y-146872438D01*
X123499524Y-146872438D02*
X123642381Y-146824819D01*
X123642381Y-146824819D02*
X123737619Y-146824819D01*
X123737619Y-146824819D02*
X123880476Y-146872438D01*
X123880476Y-146872438D02*
X123928095Y-146920057D01*
X124356667Y-147824819D02*
X124356667Y-146824819D01*
X124928095Y-147824819D02*
X124499524Y-147253390D01*
X124928095Y-146824819D02*
X124356667Y-147396247D01*
X126261904Y-104373018D02*
X126404761Y-104420637D01*
X126404761Y-104420637D02*
X126452380Y-104468256D01*
X126452380Y-104468256D02*
X126499999Y-104563494D01*
X126499999Y-104563494D02*
X126499999Y-104706351D01*
X126499999Y-104706351D02*
X126452380Y-104801589D01*
X126452380Y-104801589D02*
X126404761Y-104849209D01*
X126404761Y-104849209D02*
X126309523Y-104896828D01*
X126309523Y-104896828D02*
X125928571Y-104896828D01*
X125928571Y-104896828D02*
X125928571Y-103896828D01*
X125928571Y-103896828D02*
X126261904Y-103896828D01*
X126261904Y-103896828D02*
X126357142Y-103944447D01*
X126357142Y-103944447D02*
X126404761Y-103992066D01*
X126404761Y-103992066D02*
X126452380Y-104087304D01*
X126452380Y-104087304D02*
X126452380Y-104182542D01*
X126452380Y-104182542D02*
X126404761Y-104277780D01*
X126404761Y-104277780D02*
X126357142Y-104325399D01*
X126357142Y-104325399D02*
X126261904Y-104373018D01*
X126261904Y-104373018D02*
X125928571Y-104373018D01*
X126880952Y-104611113D02*
X127357142Y-104611113D01*
X126785714Y-104896828D02*
X127119047Y-103896828D01*
X127119047Y-103896828D02*
X127452380Y-104896828D01*
X127642857Y-103896828D02*
X128214285Y-103896828D01*
X127928571Y-104896828D02*
X127928571Y-103896828D01*
X99920588Y-120837438D02*
X99825350Y-120789819D01*
X99825350Y-120789819D02*
X99682493Y-120789819D01*
X99682493Y-120789819D02*
X99539636Y-120837438D01*
X99539636Y-120837438D02*
X99444398Y-120932676D01*
X99444398Y-120932676D02*
X99396779Y-121027914D01*
X99396779Y-121027914D02*
X99349160Y-121218390D01*
X99349160Y-121218390D02*
X99349160Y-121361247D01*
X99349160Y-121361247D02*
X99396779Y-121551723D01*
X99396779Y-121551723D02*
X99444398Y-121646961D01*
X99444398Y-121646961D02*
X99539636Y-121742200D01*
X99539636Y-121742200D02*
X99682493Y-121789819D01*
X99682493Y-121789819D02*
X99777731Y-121789819D01*
X99777731Y-121789819D02*
X99920588Y-121742200D01*
X99920588Y-121742200D02*
X99968207Y-121694580D01*
X99968207Y-121694580D02*
X99968207Y-121361247D01*
X99968207Y-121361247D02*
X99777731Y-121361247D01*
X100396779Y-121789819D02*
X100396779Y-120789819D01*
X100396779Y-120789819D02*
X100968207Y-121789819D01*
X100968207Y-121789819D02*
X100968207Y-120789819D01*
X101444398Y-121789819D02*
X101444398Y-120789819D01*
X101444398Y-120789819D02*
X101682493Y-120789819D01*
X101682493Y-120789819D02*
X101825350Y-120837438D01*
X101825350Y-120837438D02*
X101920588Y-120932676D01*
X101920588Y-120932676D02*
X101968207Y-121027914D01*
X101968207Y-121027914D02*
X102015826Y-121218390D01*
X102015826Y-121218390D02*
X102015826Y-121361247D01*
X102015826Y-121361247D02*
X101968207Y-121551723D01*
X101968207Y-121551723D02*
X101920588Y-121646961D01*
X101920588Y-121646961D02*
X101825350Y-121742200D01*
X101825350Y-121742200D02*
X101682493Y-121789819D01*
X101682493Y-121789819D02*
X101444398Y-121789819D01*
X165547561Y-116713095D02*
X165595180Y-116617857D01*
X165595180Y-116617857D02*
X165595180Y-116475000D01*
X165595180Y-116475000D02*
X165547561Y-116332143D01*
X165547561Y-116332143D02*
X165452323Y-116236905D01*
X165452323Y-116236905D02*
X165357085Y-116189286D01*
X165357085Y-116189286D02*
X165166609Y-116141667D01*
X165166609Y-116141667D02*
X165023752Y-116141667D01*
X165023752Y-116141667D02*
X164833276Y-116189286D01*
X164833276Y-116189286D02*
X164738038Y-116236905D01*
X164738038Y-116236905D02*
X164642800Y-116332143D01*
X164642800Y-116332143D02*
X164595180Y-116475000D01*
X164595180Y-116475000D02*
X164595180Y-116570238D01*
X164595180Y-116570238D02*
X164642800Y-116713095D01*
X164642800Y-116713095D02*
X164690419Y-116760714D01*
X164690419Y-116760714D02*
X165023752Y-116760714D01*
X165023752Y-116760714D02*
X165023752Y-116570238D01*
X164595180Y-117189286D02*
X165595180Y-117189286D01*
X165595180Y-117189286D02*
X164595180Y-117760714D01*
X164595180Y-117760714D02*
X165595180Y-117760714D01*
X164595180Y-118236905D02*
X165595180Y-118236905D01*
X165595180Y-118236905D02*
X165595180Y-118475000D01*
X165595180Y-118475000D02*
X165547561Y-118617857D01*
X165547561Y-118617857D02*
X165452323Y-118713095D01*
X165452323Y-118713095D02*
X165357085Y-118760714D01*
X165357085Y-118760714D02*
X165166609Y-118808333D01*
X165166609Y-118808333D02*
X165023752Y-118808333D01*
X165023752Y-118808333D02*
X164833276Y-118760714D01*
X164833276Y-118760714D02*
X164738038Y-118713095D01*
X164738038Y-118713095D02*
X164642800Y-118617857D01*
X164642800Y-118617857D02*
X164595180Y-118475000D01*
X164595180Y-118475000D02*
X164595180Y-118236905D01*
X98285180Y-96964523D02*
X98285180Y-96488333D01*
X98285180Y-96488333D02*
X97808990Y-96440714D01*
X97808990Y-96440714D02*
X97856609Y-96488333D01*
X97856609Y-96488333D02*
X97904228Y-96583571D01*
X97904228Y-96583571D02*
X97904228Y-96821666D01*
X97904228Y-96821666D02*
X97856609Y-96916904D01*
X97856609Y-96916904D02*
X97808990Y-96964523D01*
X97808990Y-96964523D02*
X97713752Y-97012142D01*
X97713752Y-97012142D02*
X97475657Y-97012142D01*
X97475657Y-97012142D02*
X97380419Y-96964523D01*
X97380419Y-96964523D02*
X97332800Y-96916904D01*
X97332800Y-96916904D02*
X97285180Y-96821666D01*
X97285180Y-96821666D02*
X97285180Y-96583571D01*
X97285180Y-96583571D02*
X97332800Y-96488333D01*
X97332800Y-96488333D02*
X97380419Y-96440714D01*
X98285180Y-97297857D02*
X97285180Y-97631190D01*
X97285180Y-97631190D02*
X98285180Y-97964523D01*
X158943922Y-107454819D02*
X159515350Y-107454819D01*
X159229636Y-108454819D02*
X159229636Y-107454819D01*
X159991541Y-108454819D02*
X159896303Y-108407200D01*
X159896303Y-108407200D02*
X159848684Y-108359580D01*
X159848684Y-108359580D02*
X159801065Y-108264342D01*
X159801065Y-108264342D02*
X159801065Y-107978628D01*
X159801065Y-107978628D02*
X159848684Y-107883390D01*
X159848684Y-107883390D02*
X159896303Y-107835771D01*
X159896303Y-107835771D02*
X159991541Y-107788152D01*
X159991541Y-107788152D02*
X160134398Y-107788152D01*
X160134398Y-107788152D02*
X160229636Y-107835771D01*
X160229636Y-107835771D02*
X160277255Y-107883390D01*
X160277255Y-107883390D02*
X160324874Y-107978628D01*
X160324874Y-107978628D02*
X160324874Y-108264342D01*
X160324874Y-108264342D02*
X160277255Y-108359580D01*
X160277255Y-108359580D02*
X160229636Y-108407200D01*
X160229636Y-108407200D02*
X160134398Y-108454819D01*
X160134398Y-108454819D02*
X159991541Y-108454819D01*
X161086779Y-107931009D02*
X160753446Y-107931009D01*
X160753446Y-108454819D02*
X160753446Y-107454819D01*
X160753446Y-107454819D02*
X161229636Y-107454819D01*
X161610589Y-108454819D02*
X161610589Y-107788152D01*
X161610589Y-107978628D02*
X161658208Y-107883390D01*
X161658208Y-107883390D02*
X161705827Y-107835771D01*
X161705827Y-107835771D02*
X161801065Y-107788152D01*
X161801065Y-107788152D02*
X161896303Y-107788152D01*
X162372494Y-108454819D02*
X162277256Y-108407200D01*
X162277256Y-108407200D02*
X162229637Y-108359580D01*
X162229637Y-108359580D02*
X162182018Y-108264342D01*
X162182018Y-108264342D02*
X162182018Y-107978628D01*
X162182018Y-107978628D02*
X162229637Y-107883390D01*
X162229637Y-107883390D02*
X162277256Y-107835771D01*
X162277256Y-107835771D02*
X162372494Y-107788152D01*
X162372494Y-107788152D02*
X162515351Y-107788152D01*
X162515351Y-107788152D02*
X162610589Y-107835771D01*
X162610589Y-107835771D02*
X162658208Y-107883390D01*
X162658208Y-107883390D02*
X162705827Y-107978628D01*
X162705827Y-107978628D02*
X162705827Y-108264342D01*
X162705827Y-108264342D02*
X162658208Y-108359580D01*
X162658208Y-108359580D02*
X162610589Y-108407200D01*
X162610589Y-108407200D02*
X162515351Y-108454819D01*
X162515351Y-108454819D02*
X162372494Y-108454819D01*
X163134399Y-107788152D02*
X163134399Y-108454819D01*
X163134399Y-107883390D02*
X163182018Y-107835771D01*
X163182018Y-107835771D02*
X163277256Y-107788152D01*
X163277256Y-107788152D02*
X163420113Y-107788152D01*
X163420113Y-107788152D02*
X163515351Y-107835771D01*
X163515351Y-107835771D02*
X163562970Y-107931009D01*
X163562970Y-107931009D02*
X163562970Y-108454819D01*
X163896304Y-107788152D02*
X164277256Y-107788152D01*
X164039161Y-107454819D02*
X164039161Y-108311961D01*
X164039161Y-108311961D02*
X164086780Y-108407200D01*
X164086780Y-108407200D02*
X164182018Y-108454819D01*
X164182018Y-108454819D02*
X164277256Y-108454819D01*
X163055180Y-116713095D02*
X163055180Y-117284523D01*
X162055180Y-116998809D02*
X163055180Y-116998809D01*
X163055180Y-117522619D02*
X162055180Y-118189285D01*
X163055180Y-118189285D02*
X162055180Y-117522619D01*
X161467969Y-90039819D02*
X160991779Y-90039819D01*
X160991779Y-90039819D02*
X160991779Y-89039819D01*
X161991779Y-89039819D02*
X162182255Y-89039819D01*
X162182255Y-89039819D02*
X162277493Y-89087438D01*
X162277493Y-89087438D02*
X162372731Y-89182676D01*
X162372731Y-89182676D02*
X162420350Y-89373152D01*
X162420350Y-89373152D02*
X162420350Y-89706485D01*
X162420350Y-89706485D02*
X162372731Y-89896961D01*
X162372731Y-89896961D02*
X162277493Y-89992200D01*
X162277493Y-89992200D02*
X162182255Y-90039819D01*
X162182255Y-90039819D02*
X161991779Y-90039819D01*
X161991779Y-90039819D02*
X161896541Y-89992200D01*
X161896541Y-89992200D02*
X161801303Y-89896961D01*
X161801303Y-89896961D02*
X161753684Y-89706485D01*
X161753684Y-89706485D02*
X161753684Y-89373152D01*
X161753684Y-89373152D02*
X161801303Y-89182676D01*
X161801303Y-89182676D02*
X161896541Y-89087438D01*
X161896541Y-89087438D02*
X161991779Y-89039819D01*
X162801303Y-89754104D02*
X163277493Y-89754104D01*
X162706065Y-90039819D02*
X163039398Y-89039819D01*
X163039398Y-89039819D02*
X163372731Y-90039819D01*
X163706065Y-90039819D02*
X163706065Y-89039819D01*
X163706065Y-89039819D02*
X163944160Y-89039819D01*
X163944160Y-89039819D02*
X164087017Y-89087438D01*
X164087017Y-89087438D02*
X164182255Y-89182676D01*
X164182255Y-89182676D02*
X164229874Y-89277914D01*
X164229874Y-89277914D02*
X164277493Y-89468390D01*
X164277493Y-89468390D02*
X164277493Y-89611247D01*
X164277493Y-89611247D02*
X164229874Y-89801723D01*
X164229874Y-89801723D02*
X164182255Y-89896961D01*
X164182255Y-89896961D02*
X164087017Y-89992200D01*
X164087017Y-89992200D02*
X163944160Y-90039819D01*
X163944160Y-90039819D02*
X163706065Y-90039819D01*
X165277493Y-89944580D02*
X165229874Y-89992200D01*
X165229874Y-89992200D02*
X165087017Y-90039819D01*
X165087017Y-90039819D02*
X164991779Y-90039819D01*
X164991779Y-90039819D02*
X164848922Y-89992200D01*
X164848922Y-89992200D02*
X164753684Y-89896961D01*
X164753684Y-89896961D02*
X164706065Y-89801723D01*
X164706065Y-89801723D02*
X164658446Y-89611247D01*
X164658446Y-89611247D02*
X164658446Y-89468390D01*
X164658446Y-89468390D02*
X164706065Y-89277914D01*
X164706065Y-89277914D02*
X164753684Y-89182676D01*
X164753684Y-89182676D02*
X164848922Y-89087438D01*
X164848922Y-89087438D02*
X164991779Y-89039819D01*
X164991779Y-89039819D02*
X165087017Y-89039819D01*
X165087017Y-89039819D02*
X165229874Y-89087438D01*
X165229874Y-89087438D02*
X165277493Y-89135057D01*
X165706065Y-89516009D02*
X166039398Y-89516009D01*
X166182255Y-90039819D02*
X165706065Y-90039819D01*
X165706065Y-90039819D02*
X165706065Y-89039819D01*
X165706065Y-89039819D02*
X166182255Y-89039819D01*
X167087017Y-90039819D02*
X166610827Y-90039819D01*
X166610827Y-90039819D02*
X166610827Y-89039819D01*
X167896541Y-90039819D02*
X167420351Y-90039819D01*
X167420351Y-90039819D02*
X167420351Y-89039819D01*
X169467970Y-90039819D02*
X168991780Y-90039819D01*
X168991780Y-90039819D02*
X168991780Y-89039819D01*
X132527561Y-150368095D02*
X132575180Y-150272857D01*
X132575180Y-150272857D02*
X132575180Y-150130000D01*
X132575180Y-150130000D02*
X132527561Y-149987143D01*
X132527561Y-149987143D02*
X132432323Y-149891905D01*
X132432323Y-149891905D02*
X132337085Y-149844286D01*
X132337085Y-149844286D02*
X132146609Y-149796667D01*
X132146609Y-149796667D02*
X132003752Y-149796667D01*
X132003752Y-149796667D02*
X131813276Y-149844286D01*
X131813276Y-149844286D02*
X131718038Y-149891905D01*
X131718038Y-149891905D02*
X131622800Y-149987143D01*
X131622800Y-149987143D02*
X131575180Y-150130000D01*
X131575180Y-150130000D02*
X131575180Y-150225238D01*
X131575180Y-150225238D02*
X131622800Y-150368095D01*
X131622800Y-150368095D02*
X131670419Y-150415714D01*
X131670419Y-150415714D02*
X132003752Y-150415714D01*
X132003752Y-150415714D02*
X132003752Y-150225238D01*
X131575180Y-150844286D02*
X132575180Y-150844286D01*
X132575180Y-150844286D02*
X131575180Y-151415714D01*
X131575180Y-151415714D02*
X132575180Y-151415714D01*
X131575180Y-151891905D02*
X132575180Y-151891905D01*
X132575180Y-151891905D02*
X132575180Y-152130000D01*
X132575180Y-152130000D02*
X132527561Y-152272857D01*
X132527561Y-152272857D02*
X132432323Y-152368095D01*
X132432323Y-152368095D02*
X132337085Y-152415714D01*
X132337085Y-152415714D02*
X132146609Y-152463333D01*
X132146609Y-152463333D02*
X132003752Y-152463333D01*
X132003752Y-152463333D02*
X131813276Y-152415714D01*
X131813276Y-152415714D02*
X131718038Y-152368095D01*
X131718038Y-152368095D02*
X131622800Y-152272857D01*
X131622800Y-152272857D02*
X131575180Y-152130000D01*
X131575180Y-152130000D02*
X131575180Y-151891905D01*
X96480952Y-153174819D02*
X96576190Y-153174819D01*
X96576190Y-153174819D02*
X96671428Y-153222438D01*
X96671428Y-153222438D02*
X96719047Y-153270057D01*
X96719047Y-153270057D02*
X96766666Y-153365295D01*
X96766666Y-153365295D02*
X96814285Y-153555771D01*
X96814285Y-153555771D02*
X96814285Y-153793866D01*
X96814285Y-153793866D02*
X96766666Y-153984342D01*
X96766666Y-153984342D02*
X96719047Y-154079580D01*
X96719047Y-154079580D02*
X96671428Y-154127200D01*
X96671428Y-154127200D02*
X96576190Y-154174819D01*
X96576190Y-154174819D02*
X96480952Y-154174819D01*
X96480952Y-154174819D02*
X96385714Y-154127200D01*
X96385714Y-154127200D02*
X96338095Y-154079580D01*
X96338095Y-154079580D02*
X96290476Y-153984342D01*
X96290476Y-153984342D02*
X96242857Y-153793866D01*
X96242857Y-153793866D02*
X96242857Y-153555771D01*
X96242857Y-153555771D02*
X96290476Y-153365295D01*
X96290476Y-153365295D02*
X96338095Y-153270057D01*
X96338095Y-153270057D02*
X96385714Y-153222438D01*
X96385714Y-153222438D02*
X96480952Y-153174819D01*
X97766666Y-154174819D02*
X97195238Y-154174819D01*
X97480952Y-154174819D02*
X97480952Y-153174819D01*
X97480952Y-153174819D02*
X97385714Y-153317676D01*
X97385714Y-153317676D02*
X97290476Y-153412914D01*
X97290476Y-153412914D02*
X97195238Y-153460533D01*
X98195238Y-153793866D02*
X98957143Y-153793866D01*
X99433333Y-154174819D02*
X99433333Y-153174819D01*
X99433333Y-153174819D02*
X99766666Y-153889104D01*
X99766666Y-153889104D02*
X100099999Y-153174819D01*
X100099999Y-153174819D02*
X100099999Y-154174819D01*
X100528571Y-153889104D02*
X101004761Y-153889104D01*
X100433333Y-154174819D02*
X100766666Y-153174819D01*
X100766666Y-153174819D02*
X101099999Y-154174819D01*
X101433333Y-154174819D02*
X101433333Y-153174819D01*
X101909523Y-154174819D02*
X101909523Y-153174819D01*
X101909523Y-153174819D02*
X102480951Y-154174819D01*
X102480951Y-154174819D02*
X102480951Y-153174819D01*
X103623809Y-153508152D02*
X103861904Y-154174819D01*
X103861904Y-154174819D02*
X104099999Y-153508152D01*
X104861904Y-154127200D02*
X104766666Y-154174819D01*
X104766666Y-154174819D02*
X104576190Y-154174819D01*
X104576190Y-154174819D02*
X104480952Y-154127200D01*
X104480952Y-154127200D02*
X104433333Y-154031961D01*
X104433333Y-154031961D02*
X104433333Y-153651009D01*
X104433333Y-153651009D02*
X104480952Y-153555771D01*
X104480952Y-153555771D02*
X104576190Y-153508152D01*
X104576190Y-153508152D02*
X104766666Y-153508152D01*
X104766666Y-153508152D02*
X104861904Y-153555771D01*
X104861904Y-153555771D02*
X104909523Y-153651009D01*
X104909523Y-153651009D02*
X104909523Y-153746247D01*
X104909523Y-153746247D02*
X104433333Y-153841485D01*
X105338095Y-154174819D02*
X105338095Y-153508152D01*
X105338095Y-153698628D02*
X105385714Y-153603390D01*
X105385714Y-153603390D02*
X105433333Y-153555771D01*
X105433333Y-153555771D02*
X105528571Y-153508152D01*
X105528571Y-153508152D02*
X105623809Y-153508152D01*
X105957143Y-154079580D02*
X106004762Y-154127200D01*
X106004762Y-154127200D02*
X105957143Y-154174819D01*
X105957143Y-154174819D02*
X105909524Y-154127200D01*
X105909524Y-154127200D02*
X105957143Y-154079580D01*
X105957143Y-154079580D02*
X105957143Y-154174819D01*
X106957142Y-154174819D02*
X106385714Y-154174819D01*
X106671428Y-154174819D02*
X106671428Y-153174819D01*
X106671428Y-153174819D02*
X106576190Y-153317676D01*
X106576190Y-153317676D02*
X106480952Y-153412914D01*
X106480952Y-153412914D02*
X106385714Y-153460533D01*
X154853332Y-154174819D02*
X154519999Y-153698628D01*
X154281904Y-154174819D02*
X154281904Y-153174819D01*
X154281904Y-153174819D02*
X154662856Y-153174819D01*
X154662856Y-153174819D02*
X154758094Y-153222438D01*
X154758094Y-153222438D02*
X154805713Y-153270057D01*
X154805713Y-153270057D02*
X154853332Y-153365295D01*
X154853332Y-153365295D02*
X154853332Y-153508152D01*
X154853332Y-153508152D02*
X154805713Y-153603390D01*
X154805713Y-153603390D02*
X154758094Y-153651009D01*
X154758094Y-153651009D02*
X154662856Y-153698628D01*
X154662856Y-153698628D02*
X154281904Y-153698628D01*
X155853332Y-154079580D02*
X155805713Y-154127200D01*
X155805713Y-154127200D02*
X155662856Y-154174819D01*
X155662856Y-154174819D02*
X155567618Y-154174819D01*
X155567618Y-154174819D02*
X155424761Y-154127200D01*
X155424761Y-154127200D02*
X155329523Y-154031961D01*
X155329523Y-154031961D02*
X155281904Y-153936723D01*
X155281904Y-153936723D02*
X155234285Y-153746247D01*
X155234285Y-153746247D02*
X155234285Y-153603390D01*
X155234285Y-153603390D02*
X155281904Y-153412914D01*
X155281904Y-153412914D02*
X155329523Y-153317676D01*
X155329523Y-153317676D02*
X155424761Y-153222438D01*
X155424761Y-153222438D02*
X155567618Y-153174819D01*
X155567618Y-153174819D02*
X155662856Y-153174819D01*
X155662856Y-153174819D02*
X155805713Y-153222438D01*
X155805713Y-153222438D02*
X155853332Y-153270057D01*
X156567618Y-153174819D02*
X156567618Y-153889104D01*
X156567618Y-153889104D02*
X156519999Y-154031961D01*
X156519999Y-154031961D02*
X156424761Y-154127200D01*
X156424761Y-154127200D02*
X156281904Y-154174819D01*
X156281904Y-154174819D02*
X156186666Y-154174819D01*
X157758095Y-153270057D02*
X157805714Y-153222438D01*
X157805714Y-153222438D02*
X157900952Y-153174819D01*
X157900952Y-153174819D02*
X158139047Y-153174819D01*
X158139047Y-153174819D02*
X158234285Y-153222438D01*
X158234285Y-153222438D02*
X158281904Y-153270057D01*
X158281904Y-153270057D02*
X158329523Y-153365295D01*
X158329523Y-153365295D02*
X158329523Y-153460533D01*
X158329523Y-153460533D02*
X158281904Y-153603390D01*
X158281904Y-153603390D02*
X157710476Y-154174819D01*
X157710476Y-154174819D02*
X158329523Y-154174819D01*
X158948571Y-153174819D02*
X159043809Y-153174819D01*
X159043809Y-153174819D02*
X159139047Y-153222438D01*
X159139047Y-153222438D02*
X159186666Y-153270057D01*
X159186666Y-153270057D02*
X159234285Y-153365295D01*
X159234285Y-153365295D02*
X159281904Y-153555771D01*
X159281904Y-153555771D02*
X159281904Y-153793866D01*
X159281904Y-153793866D02*
X159234285Y-153984342D01*
X159234285Y-153984342D02*
X159186666Y-154079580D01*
X159186666Y-154079580D02*
X159139047Y-154127200D01*
X159139047Y-154127200D02*
X159043809Y-154174819D01*
X159043809Y-154174819D02*
X158948571Y-154174819D01*
X158948571Y-154174819D02*
X158853333Y-154127200D01*
X158853333Y-154127200D02*
X158805714Y-154079580D01*
X158805714Y-154079580D02*
X158758095Y-153984342D01*
X158758095Y-153984342D02*
X158710476Y-153793866D01*
X158710476Y-153793866D02*
X158710476Y-153555771D01*
X158710476Y-153555771D02*
X158758095Y-153365295D01*
X158758095Y-153365295D02*
X158805714Y-153270057D01*
X158805714Y-153270057D02*
X158853333Y-153222438D01*
X158853333Y-153222438D02*
X158948571Y-153174819D01*
X159662857Y-153270057D02*
X159710476Y-153222438D01*
X159710476Y-153222438D02*
X159805714Y-153174819D01*
X159805714Y-153174819D02*
X160043809Y-153174819D01*
X160043809Y-153174819D02*
X160139047Y-153222438D01*
X160139047Y-153222438D02*
X160186666Y-153270057D01*
X160186666Y-153270057D02*
X160234285Y-153365295D01*
X160234285Y-153365295D02*
X160234285Y-153460533D01*
X160234285Y-153460533D02*
X160186666Y-153603390D01*
X160186666Y-153603390D02*
X159615238Y-154174819D01*
X159615238Y-154174819D02*
X160234285Y-154174819D01*
X161139047Y-153174819D02*
X160662857Y-153174819D01*
X160662857Y-153174819D02*
X160615238Y-153651009D01*
X160615238Y-153651009D02*
X160662857Y-153603390D01*
X160662857Y-153603390D02*
X160758095Y-153555771D01*
X160758095Y-153555771D02*
X160996190Y-153555771D01*
X160996190Y-153555771D02*
X161091428Y-153603390D01*
X161091428Y-153603390D02*
X161139047Y-153651009D01*
X161139047Y-153651009D02*
X161186666Y-153746247D01*
X161186666Y-153746247D02*
X161186666Y-153984342D01*
X161186666Y-153984342D02*
X161139047Y-154079580D01*
X161139047Y-154079580D02*
X161091428Y-154127200D01*
X161091428Y-154127200D02*
X160996190Y-154174819D01*
X160996190Y-154174819D02*
X160758095Y-154174819D01*
X160758095Y-154174819D02*
X160662857Y-154127200D01*
X160662857Y-154127200D02*
X160615238Y-154079580D01*
X162234286Y-153508152D02*
X162615238Y-153508152D01*
X162377143Y-153174819D02*
X162377143Y-154031961D01*
X162377143Y-154031961D02*
X162424762Y-154127200D01*
X162424762Y-154127200D02*
X162520000Y-154174819D01*
X162520000Y-154174819D02*
X162615238Y-154174819D01*
X163377143Y-153508152D02*
X163377143Y-154174819D01*
X162948572Y-153508152D02*
X162948572Y-154031961D01*
X162948572Y-154031961D02*
X162996191Y-154127200D01*
X162996191Y-154127200D02*
X163091429Y-154174819D01*
X163091429Y-154174819D02*
X163234286Y-154174819D01*
X163234286Y-154174819D02*
X163329524Y-154127200D01*
X163329524Y-154127200D02*
X163377143Y-154079580D01*
X163710477Y-153508152D02*
X164091429Y-153508152D01*
X163853334Y-153174819D02*
X163853334Y-154031961D01*
X163853334Y-154031961D02*
X163900953Y-154127200D01*
X163900953Y-154127200D02*
X163996191Y-154174819D01*
X163996191Y-154174819D02*
X164091429Y-154174819D01*
X164567620Y-154174819D02*
X164472382Y-154127200D01*
X164472382Y-154127200D02*
X164424763Y-154079580D01*
X164424763Y-154079580D02*
X164377144Y-153984342D01*
X164377144Y-153984342D02*
X164377144Y-153698628D01*
X164377144Y-153698628D02*
X164424763Y-153603390D01*
X164424763Y-153603390D02*
X164472382Y-153555771D01*
X164472382Y-153555771D02*
X164567620Y-153508152D01*
X164567620Y-153508152D02*
X164710477Y-153508152D01*
X164710477Y-153508152D02*
X164805715Y-153555771D01*
X164805715Y-153555771D02*
X164853334Y-153603390D01*
X164853334Y-153603390D02*
X164900953Y-153698628D01*
X164900953Y-153698628D02*
X164900953Y-153984342D01*
X164900953Y-153984342D02*
X164853334Y-154079580D01*
X164853334Y-154079580D02*
X164805715Y-154127200D01*
X164805715Y-154127200D02*
X164710477Y-154174819D01*
X164710477Y-154174819D02*
X164567620Y-154174819D01*
X165329525Y-153508152D02*
X165329525Y-154174819D01*
X165329525Y-153603390D02*
X165377144Y-153555771D01*
X165377144Y-153555771D02*
X165472382Y-153508152D01*
X165472382Y-153508152D02*
X165615239Y-153508152D01*
X165615239Y-153508152D02*
X165710477Y-153555771D01*
X165710477Y-153555771D02*
X165758096Y-153651009D01*
X165758096Y-153651009D02*
X165758096Y-154174819D01*
X173640714Y-86864819D02*
X173069286Y-86864819D01*
X173355000Y-86864819D02*
X173355000Y-85864819D01*
X173355000Y-85864819D02*
X173259762Y-86007676D01*
X173259762Y-86007676D02*
X173164524Y-86102914D01*
X173164524Y-86102914D02*
X173069286Y-86150533D01*
X130035180Y-150939523D02*
X130035180Y-150463333D01*
X130035180Y-150463333D02*
X129558990Y-150415714D01*
X129558990Y-150415714D02*
X129606609Y-150463333D01*
X129606609Y-150463333D02*
X129654228Y-150558571D01*
X129654228Y-150558571D02*
X129654228Y-150796666D01*
X129654228Y-150796666D02*
X129606609Y-150891904D01*
X129606609Y-150891904D02*
X129558990Y-150939523D01*
X129558990Y-150939523D02*
X129463752Y-150987142D01*
X129463752Y-150987142D02*
X129225657Y-150987142D01*
X129225657Y-150987142D02*
X129130419Y-150939523D01*
X129130419Y-150939523D02*
X129082800Y-150891904D01*
X129082800Y-150891904D02*
X129035180Y-150796666D01*
X129035180Y-150796666D02*
X129035180Y-150558571D01*
X129035180Y-150558571D02*
X129082800Y-150463333D01*
X129082800Y-150463333D02*
X129130419Y-150415714D01*
X130035180Y-151272857D02*
X129035180Y-151606190D01*
X129035180Y-151606190D02*
X130035180Y-151939523D01*
X78235180Y-90443207D02*
X78711371Y-90109874D01*
X78235180Y-89871779D02*
X79235180Y-89871779D01*
X79235180Y-89871779D02*
X79235180Y-90252731D01*
X79235180Y-90252731D02*
X79187561Y-90347969D01*
X79187561Y-90347969D02*
X79139942Y-90395588D01*
X79139942Y-90395588D02*
X79044704Y-90443207D01*
X79044704Y-90443207D02*
X78901847Y-90443207D01*
X78901847Y-90443207D02*
X78806609Y-90395588D01*
X78806609Y-90395588D02*
X78758990Y-90347969D01*
X78758990Y-90347969D02*
X78711371Y-90252731D01*
X78711371Y-90252731D02*
X78711371Y-89871779D01*
X78282800Y-90824160D02*
X78235180Y-90967017D01*
X78235180Y-90967017D02*
X78235180Y-91205112D01*
X78235180Y-91205112D02*
X78282800Y-91300350D01*
X78282800Y-91300350D02*
X78330419Y-91347969D01*
X78330419Y-91347969D02*
X78425657Y-91395588D01*
X78425657Y-91395588D02*
X78520895Y-91395588D01*
X78520895Y-91395588D02*
X78616133Y-91347969D01*
X78616133Y-91347969D02*
X78663752Y-91300350D01*
X78663752Y-91300350D02*
X78711371Y-91205112D01*
X78711371Y-91205112D02*
X78758990Y-91014636D01*
X78758990Y-91014636D02*
X78806609Y-90919398D01*
X78806609Y-90919398D02*
X78854228Y-90871779D01*
X78854228Y-90871779D02*
X78949466Y-90824160D01*
X78949466Y-90824160D02*
X79044704Y-90824160D01*
X79044704Y-90824160D02*
X79139942Y-90871779D01*
X79139942Y-90871779D02*
X79187561Y-90919398D01*
X79187561Y-90919398D02*
X79235180Y-91014636D01*
X79235180Y-91014636D02*
X79235180Y-91252731D01*
X79235180Y-91252731D02*
X79187561Y-91395588D01*
X79235180Y-91681303D02*
X79235180Y-92252731D01*
X78235180Y-91967017D02*
X79235180Y-91967017D01*
D12*
X155035714Y-100117057D02*
X156892857Y-100117057D01*
X156892857Y-100117057D02*
X155892857Y-101259914D01*
X155892857Y-101259914D02*
X156321428Y-101259914D01*
X156321428Y-101259914D02*
X156607143Y-101402771D01*
X156607143Y-101402771D02*
X156750000Y-101545628D01*
X156750000Y-101545628D02*
X156892857Y-101831342D01*
X156892857Y-101831342D02*
X156892857Y-102545628D01*
X156892857Y-102545628D02*
X156750000Y-102831342D01*
X156750000Y-102831342D02*
X156607143Y-102974200D01*
X156607143Y-102974200D02*
X156321428Y-103117057D01*
X156321428Y-103117057D02*
X155464285Y-103117057D01*
X155464285Y-103117057D02*
X155178571Y-102974200D01*
X155178571Y-102974200D02*
X155035714Y-102831342D01*
X157750000Y-100117057D02*
X158750000Y-103117057D01*
X158750000Y-103117057D02*
X159750000Y-100117057D01*
X160464286Y-100117057D02*
X162321429Y-100117057D01*
X162321429Y-100117057D02*
X161321429Y-101259914D01*
X161321429Y-101259914D02*
X161750000Y-101259914D01*
X161750000Y-101259914D02*
X162035715Y-101402771D01*
X162035715Y-101402771D02*
X162178572Y-101545628D01*
X162178572Y-101545628D02*
X162321429Y-101831342D01*
X162321429Y-101831342D02*
X162321429Y-102545628D01*
X162321429Y-102545628D02*
X162178572Y-102831342D01*
X162178572Y-102831342D02*
X162035715Y-102974200D01*
X162035715Y-102974200D02*
X161750000Y-103117057D01*
X161750000Y-103117057D02*
X160892857Y-103117057D01*
X160892857Y-103117057D02*
X160607143Y-102974200D01*
X160607143Y-102974200D02*
X160464286Y-102831342D01*
D10*
X159515180Y-117308333D02*
X159991371Y-116975000D01*
X159515180Y-116736905D02*
X160515180Y-116736905D01*
X160515180Y-116736905D02*
X160515180Y-117117857D01*
X160515180Y-117117857D02*
X160467561Y-117213095D01*
X160467561Y-117213095D02*
X160419942Y-117260714D01*
X160419942Y-117260714D02*
X160324704Y-117308333D01*
X160324704Y-117308333D02*
X160181847Y-117308333D01*
X160181847Y-117308333D02*
X160086609Y-117260714D01*
X160086609Y-117260714D02*
X160038990Y-117213095D01*
X160038990Y-117213095D02*
X159991371Y-117117857D01*
X159991371Y-117117857D02*
X159991371Y-116736905D01*
X160515180Y-117641667D02*
X159515180Y-118308333D01*
X160515180Y-118308333D02*
X159515180Y-117641667D01*
X97599523Y-120789819D02*
X97123333Y-120789819D01*
X97123333Y-120789819D02*
X97075714Y-121266009D01*
X97075714Y-121266009D02*
X97123333Y-121218390D01*
X97123333Y-121218390D02*
X97218571Y-121170771D01*
X97218571Y-121170771D02*
X97456666Y-121170771D01*
X97456666Y-121170771D02*
X97551904Y-121218390D01*
X97551904Y-121218390D02*
X97599523Y-121266009D01*
X97599523Y-121266009D02*
X97647142Y-121361247D01*
X97647142Y-121361247D02*
X97647142Y-121599342D01*
X97647142Y-121599342D02*
X97599523Y-121694580D01*
X97599523Y-121694580D02*
X97551904Y-121742200D01*
X97551904Y-121742200D02*
X97456666Y-121789819D01*
X97456666Y-121789819D02*
X97218571Y-121789819D01*
X97218571Y-121789819D02*
X97123333Y-121742200D01*
X97123333Y-121742200D02*
X97075714Y-121694580D01*
X97932857Y-120789819D02*
X98266190Y-121789819D01*
X98266190Y-121789819D02*
X98599523Y-120789819D01*
X134453333Y-105914819D02*
X134120000Y-105438628D01*
X133881905Y-105914819D02*
X133881905Y-104914819D01*
X133881905Y-104914819D02*
X134262857Y-104914819D01*
X134262857Y-104914819D02*
X134358095Y-104962438D01*
X134358095Y-104962438D02*
X134405714Y-105010057D01*
X134405714Y-105010057D02*
X134453333Y-105105295D01*
X134453333Y-105105295D02*
X134453333Y-105248152D01*
X134453333Y-105248152D02*
X134405714Y-105343390D01*
X134405714Y-105343390D02*
X134358095Y-105391009D01*
X134358095Y-105391009D02*
X134262857Y-105438628D01*
X134262857Y-105438628D02*
X133881905Y-105438628D01*
X134786667Y-104914819D02*
X135453333Y-105914819D01*
X135453333Y-104914819D02*
X134786667Y-105914819D01*
X157975180Y-116236905D02*
X157975180Y-116855952D01*
X157975180Y-116855952D02*
X157594228Y-116522619D01*
X157594228Y-116522619D02*
X157594228Y-116665476D01*
X157594228Y-116665476D02*
X157546609Y-116760714D01*
X157546609Y-116760714D02*
X157498990Y-116808333D01*
X157498990Y-116808333D02*
X157403752Y-116855952D01*
X157403752Y-116855952D02*
X157165657Y-116855952D01*
X157165657Y-116855952D02*
X157070419Y-116808333D01*
X157070419Y-116808333D02*
X157022800Y-116760714D01*
X157022800Y-116760714D02*
X156975180Y-116665476D01*
X156975180Y-116665476D02*
X156975180Y-116379762D01*
X156975180Y-116379762D02*
X157022800Y-116284524D01*
X157022800Y-116284524D02*
X157070419Y-116236905D01*
X157975180Y-117141667D02*
X156975180Y-117475000D01*
X156975180Y-117475000D02*
X157975180Y-117808333D01*
X157975180Y-118046429D02*
X157975180Y-118665476D01*
X157975180Y-118665476D02*
X157594228Y-118332143D01*
X157594228Y-118332143D02*
X157594228Y-118475000D01*
X157594228Y-118475000D02*
X157546609Y-118570238D01*
X157546609Y-118570238D02*
X157498990Y-118617857D01*
X157498990Y-118617857D02*
X157403752Y-118665476D01*
X157403752Y-118665476D02*
X157165657Y-118665476D01*
X157165657Y-118665476D02*
X157070419Y-118617857D01*
X157070419Y-118617857D02*
X157022800Y-118570238D01*
X157022800Y-118570238D02*
X156975180Y-118475000D01*
X156975180Y-118475000D02*
X156975180Y-118189286D01*
X156975180Y-118189286D02*
X157022800Y-118094048D01*
X157022800Y-118094048D02*
X157070419Y-118046429D01*
X161467969Y-72259819D02*
X160991779Y-72259819D01*
X160991779Y-72259819D02*
X160991779Y-71259819D01*
X161991779Y-71259819D02*
X162182255Y-71259819D01*
X162182255Y-71259819D02*
X162277493Y-71307438D01*
X162277493Y-71307438D02*
X162372731Y-71402676D01*
X162372731Y-71402676D02*
X162420350Y-71593152D01*
X162420350Y-71593152D02*
X162420350Y-71926485D01*
X162420350Y-71926485D02*
X162372731Y-72116961D01*
X162372731Y-72116961D02*
X162277493Y-72212200D01*
X162277493Y-72212200D02*
X162182255Y-72259819D01*
X162182255Y-72259819D02*
X161991779Y-72259819D01*
X161991779Y-72259819D02*
X161896541Y-72212200D01*
X161896541Y-72212200D02*
X161801303Y-72116961D01*
X161801303Y-72116961D02*
X161753684Y-71926485D01*
X161753684Y-71926485D02*
X161753684Y-71593152D01*
X161753684Y-71593152D02*
X161801303Y-71402676D01*
X161801303Y-71402676D02*
X161896541Y-71307438D01*
X161896541Y-71307438D02*
X161991779Y-71259819D01*
X162801303Y-71974104D02*
X163277493Y-71974104D01*
X162706065Y-72259819D02*
X163039398Y-71259819D01*
X163039398Y-71259819D02*
X163372731Y-72259819D01*
X163706065Y-72259819D02*
X163706065Y-71259819D01*
X163706065Y-71259819D02*
X163944160Y-71259819D01*
X163944160Y-71259819D02*
X164087017Y-71307438D01*
X164087017Y-71307438D02*
X164182255Y-71402676D01*
X164182255Y-71402676D02*
X164229874Y-71497914D01*
X164229874Y-71497914D02*
X164277493Y-71688390D01*
X164277493Y-71688390D02*
X164277493Y-71831247D01*
X164277493Y-71831247D02*
X164229874Y-72021723D01*
X164229874Y-72021723D02*
X164182255Y-72116961D01*
X164182255Y-72116961D02*
X164087017Y-72212200D01*
X164087017Y-72212200D02*
X163944160Y-72259819D01*
X163944160Y-72259819D02*
X163706065Y-72259819D01*
X165277493Y-72164580D02*
X165229874Y-72212200D01*
X165229874Y-72212200D02*
X165087017Y-72259819D01*
X165087017Y-72259819D02*
X164991779Y-72259819D01*
X164991779Y-72259819D02*
X164848922Y-72212200D01*
X164848922Y-72212200D02*
X164753684Y-72116961D01*
X164753684Y-72116961D02*
X164706065Y-72021723D01*
X164706065Y-72021723D02*
X164658446Y-71831247D01*
X164658446Y-71831247D02*
X164658446Y-71688390D01*
X164658446Y-71688390D02*
X164706065Y-71497914D01*
X164706065Y-71497914D02*
X164753684Y-71402676D01*
X164753684Y-71402676D02*
X164848922Y-71307438D01*
X164848922Y-71307438D02*
X164991779Y-71259819D01*
X164991779Y-71259819D02*
X165087017Y-71259819D01*
X165087017Y-71259819D02*
X165229874Y-71307438D01*
X165229874Y-71307438D02*
X165277493Y-71355057D01*
X165706065Y-71736009D02*
X166039398Y-71736009D01*
X166182255Y-72259819D02*
X165706065Y-72259819D01*
X165706065Y-72259819D02*
X165706065Y-71259819D01*
X165706065Y-71259819D02*
X166182255Y-71259819D01*
X167087017Y-72259819D02*
X166610827Y-72259819D01*
X166610827Y-72259819D02*
X166610827Y-71259819D01*
X167896541Y-72259819D02*
X167420351Y-72259819D01*
X167420351Y-72259819D02*
X167420351Y-71259819D01*
X169563208Y-72259819D02*
X169229875Y-71783628D01*
X168991780Y-72259819D02*
X168991780Y-71259819D01*
X168991780Y-71259819D02*
X169372732Y-71259819D01*
X169372732Y-71259819D02*
X169467970Y-71307438D01*
X169467970Y-71307438D02*
X169515589Y-71355057D01*
X169515589Y-71355057D02*
X169563208Y-71450295D01*
X169563208Y-71450295D02*
X169563208Y-71593152D01*
X169563208Y-71593152D02*
X169515589Y-71688390D01*
X169515589Y-71688390D02*
X169467970Y-71736009D01*
X169467970Y-71736009D02*
X169372732Y-71783628D01*
X169372732Y-71783628D02*
X168991780Y-71783628D01*
D13*
X83592580Y-102108095D02*
X82783057Y-102108095D01*
X82783057Y-102108095D02*
X82687819Y-102155714D01*
X82687819Y-102155714D02*
X82640200Y-102203333D01*
X82640200Y-102203333D02*
X82592580Y-102298571D01*
X82592580Y-102298571D02*
X82592580Y-102489047D01*
X82592580Y-102489047D02*
X82640200Y-102584285D01*
X82640200Y-102584285D02*
X82687819Y-102631904D01*
X82687819Y-102631904D02*
X82783057Y-102679523D01*
X82783057Y-102679523D02*
X83592580Y-102679523D01*
X83497342Y-103108095D02*
X83544961Y-103155714D01*
X83544961Y-103155714D02*
X83592580Y-103250952D01*
X83592580Y-103250952D02*
X83592580Y-103489047D01*
X83592580Y-103489047D02*
X83544961Y-103584285D01*
X83544961Y-103584285D02*
X83497342Y-103631904D01*
X83497342Y-103631904D02*
X83402104Y-103679523D01*
X83402104Y-103679523D02*
X83306866Y-103679523D01*
X83306866Y-103679523D02*
X83164009Y-103631904D01*
X83164009Y-103631904D02*
X82592580Y-103060476D01*
X82592580Y-103060476D02*
X82592580Y-103679523D01*
X176757419Y-101091904D02*
X177566942Y-101091904D01*
X177566942Y-101091904D02*
X177662180Y-101044285D01*
X177662180Y-101044285D02*
X177709800Y-100996666D01*
X177709800Y-100996666D02*
X177757419Y-100901428D01*
X177757419Y-100901428D02*
X177757419Y-100710952D01*
X177757419Y-100710952D02*
X177709800Y-100615714D01*
X177709800Y-100615714D02*
X177662180Y-100568095D01*
X177662180Y-100568095D02*
X177566942Y-100520476D01*
X177566942Y-100520476D02*
X176757419Y-100520476D01*
X177090752Y-99615714D02*
X177757419Y-99615714D01*
X176709800Y-99853809D02*
X177424085Y-100091904D01*
X177424085Y-100091904D02*
X177424085Y-99472857D01*
X176021904Y-64542580D02*
X176021904Y-63733057D01*
X176021904Y-63733057D02*
X175974285Y-63637819D01*
X175974285Y-63637819D02*
X175926666Y-63590200D01*
X175926666Y-63590200D02*
X175831428Y-63542580D01*
X175831428Y-63542580D02*
X175640952Y-63542580D01*
X175640952Y-63542580D02*
X175545714Y-63590200D01*
X175545714Y-63590200D02*
X175498095Y-63637819D01*
X175498095Y-63637819D02*
X175450476Y-63733057D01*
X175450476Y-63733057D02*
X175450476Y-64542580D01*
X174498095Y-64542580D02*
X174974285Y-64542580D01*
X174974285Y-64542580D02*
X175021904Y-64066390D01*
X175021904Y-64066390D02*
X174974285Y-64114009D01*
X174974285Y-64114009D02*
X174879047Y-64161628D01*
X174879047Y-64161628D02*
X174640952Y-64161628D01*
X174640952Y-64161628D02*
X174545714Y-64114009D01*
X174545714Y-64114009D02*
X174498095Y-64066390D01*
X174498095Y-64066390D02*
X174450476Y-63971152D01*
X174450476Y-63971152D02*
X174450476Y-63733057D01*
X174450476Y-63733057D02*
X174498095Y-63637819D01*
X174498095Y-63637819D02*
X174545714Y-63590200D01*
X174545714Y-63590200D02*
X174640952Y-63542580D01*
X174640952Y-63542580D02*
X174879047Y-63542580D01*
X174879047Y-63542580D02*
X174974285Y-63590200D01*
X174974285Y-63590200D02*
X175021904Y-63637819D01*
D10*
X114836666Y-90704819D02*
X114836666Y-91419104D01*
X114836666Y-91419104D02*
X114789047Y-91561961D01*
X114789047Y-91561961D02*
X114693809Y-91657200D01*
X114693809Y-91657200D02*
X114550952Y-91704819D01*
X114550952Y-91704819D02*
X114455714Y-91704819D01*
X115741428Y-91038152D02*
X115741428Y-91704819D01*
X115503333Y-90657200D02*
X115265238Y-91371485D01*
X115265238Y-91371485D02*
X115884285Y-91371485D01*
X108198571Y-111364700D02*
X109341429Y-111364700D01*
X120498571Y-111364700D02*
X121641429Y-111364700D01*
X121070000Y-111936128D02*
X121070000Y-110793271D01*
X96512142Y-71369580D02*
X96464523Y-71417200D01*
X96464523Y-71417200D02*
X96321666Y-71464819D01*
X96321666Y-71464819D02*
X96226428Y-71464819D01*
X96226428Y-71464819D02*
X96083571Y-71417200D01*
X96083571Y-71417200D02*
X95988333Y-71321961D01*
X95988333Y-71321961D02*
X95940714Y-71226723D01*
X95940714Y-71226723D02*
X95893095Y-71036247D01*
X95893095Y-71036247D02*
X95893095Y-70893390D01*
X95893095Y-70893390D02*
X95940714Y-70702914D01*
X95940714Y-70702914D02*
X95988333Y-70607676D01*
X95988333Y-70607676D02*
X96083571Y-70512438D01*
X96083571Y-70512438D02*
X96226428Y-70464819D01*
X96226428Y-70464819D02*
X96321666Y-70464819D01*
X96321666Y-70464819D02*
X96464523Y-70512438D01*
X96464523Y-70512438D02*
X96512142Y-70560057D01*
X97464523Y-71464819D02*
X96893095Y-71464819D01*
X97178809Y-71464819D02*
X97178809Y-70464819D01*
X97178809Y-70464819D02*
X97083571Y-70607676D01*
X97083571Y-70607676D02*
X96988333Y-70702914D01*
X96988333Y-70702914D02*
X96893095Y-70750533D01*
X97845476Y-70560057D02*
X97893095Y-70512438D01*
X97893095Y-70512438D02*
X97988333Y-70464819D01*
X97988333Y-70464819D02*
X98226428Y-70464819D01*
X98226428Y-70464819D02*
X98321666Y-70512438D01*
X98321666Y-70512438D02*
X98369285Y-70560057D01*
X98369285Y-70560057D02*
X98416904Y-70655295D01*
X98416904Y-70655295D02*
X98416904Y-70750533D01*
X98416904Y-70750533D02*
X98369285Y-70893390D01*
X98369285Y-70893390D02*
X97797857Y-71464819D01*
X97797857Y-71464819D02*
X98416904Y-71464819D01*
D13*
X145288095Y-131537419D02*
X145288095Y-132346942D01*
X145288095Y-132346942D02*
X145335714Y-132442180D01*
X145335714Y-132442180D02*
X145383333Y-132489800D01*
X145383333Y-132489800D02*
X145478571Y-132537419D01*
X145478571Y-132537419D02*
X145669047Y-132537419D01*
X145669047Y-132537419D02*
X145764285Y-132489800D01*
X145764285Y-132489800D02*
X145811904Y-132442180D01*
X145811904Y-132442180D02*
X145859523Y-132346942D01*
X145859523Y-132346942D02*
X145859523Y-131537419D01*
X146859523Y-132537419D02*
X146288095Y-132537419D01*
X146573809Y-132537419D02*
X146573809Y-131537419D01*
X146573809Y-131537419D02*
X146478571Y-131680276D01*
X146478571Y-131680276D02*
X146383333Y-131775514D01*
X146383333Y-131775514D02*
X146288095Y-131823133D01*
X143766265Y-129999800D02*
X143909122Y-130047419D01*
X143909122Y-130047419D02*
X144147217Y-130047419D01*
X144147217Y-130047419D02*
X144242455Y-129999800D01*
X144242455Y-129999800D02*
X144290074Y-129952180D01*
X144290074Y-129952180D02*
X144337693Y-129856942D01*
X144337693Y-129856942D02*
X144337693Y-129761704D01*
X144337693Y-129761704D02*
X144290074Y-129666466D01*
X144290074Y-129666466D02*
X144242455Y-129618847D01*
X144242455Y-129618847D02*
X144147217Y-129571228D01*
X144147217Y-129571228D02*
X143956741Y-129523609D01*
X143956741Y-129523609D02*
X143861503Y-129475990D01*
X143861503Y-129475990D02*
X143813884Y-129428371D01*
X143813884Y-129428371D02*
X143766265Y-129333133D01*
X143766265Y-129333133D02*
X143766265Y-129237895D01*
X143766265Y-129237895D02*
X143813884Y-129142657D01*
X143813884Y-129142657D02*
X143861503Y-129095038D01*
X143861503Y-129095038D02*
X143956741Y-129047419D01*
X143956741Y-129047419D02*
X144194836Y-129047419D01*
X144194836Y-129047419D02*
X144337693Y-129095038D01*
X145337693Y-129952180D02*
X145290074Y-129999800D01*
X145290074Y-129999800D02*
X145147217Y-130047419D01*
X145147217Y-130047419D02*
X145051979Y-130047419D01*
X145051979Y-130047419D02*
X144909122Y-129999800D01*
X144909122Y-129999800D02*
X144813884Y-129904561D01*
X144813884Y-129904561D02*
X144766265Y-129809323D01*
X144766265Y-129809323D02*
X144718646Y-129618847D01*
X144718646Y-129618847D02*
X144718646Y-129475990D01*
X144718646Y-129475990D02*
X144766265Y-129285514D01*
X144766265Y-129285514D02*
X144813884Y-129190276D01*
X144813884Y-129190276D02*
X144909122Y-129095038D01*
X144909122Y-129095038D02*
X145051979Y-129047419D01*
X145051979Y-129047419D02*
X145147217Y-129047419D01*
X145147217Y-129047419D02*
X145290074Y-129095038D01*
X145290074Y-129095038D02*
X145337693Y-129142657D01*
X146242455Y-130047419D02*
X145766265Y-130047419D01*
X145766265Y-130047419D02*
X145766265Y-129047419D01*
X143671027Y-121427419D02*
X144004360Y-122427419D01*
X144004360Y-122427419D02*
X144337693Y-121427419D01*
X144671027Y-122427419D02*
X144671027Y-121427419D01*
X145147217Y-122427419D02*
X145147217Y-121427419D01*
X145147217Y-121427419D02*
X145718645Y-122427419D01*
X145718645Y-122427419D02*
X145718645Y-121427419D01*
X144337693Y-124015038D02*
X144242455Y-123967419D01*
X144242455Y-123967419D02*
X144099598Y-123967419D01*
X144099598Y-123967419D02*
X143956741Y-124015038D01*
X143956741Y-124015038D02*
X143861503Y-124110276D01*
X143861503Y-124110276D02*
X143813884Y-124205514D01*
X143813884Y-124205514D02*
X143766265Y-124395990D01*
X143766265Y-124395990D02*
X143766265Y-124538847D01*
X143766265Y-124538847D02*
X143813884Y-124729323D01*
X143813884Y-124729323D02*
X143861503Y-124824561D01*
X143861503Y-124824561D02*
X143956741Y-124919800D01*
X143956741Y-124919800D02*
X144099598Y-124967419D01*
X144099598Y-124967419D02*
X144194836Y-124967419D01*
X144194836Y-124967419D02*
X144337693Y-124919800D01*
X144337693Y-124919800D02*
X144385312Y-124872180D01*
X144385312Y-124872180D02*
X144385312Y-124538847D01*
X144385312Y-124538847D02*
X144194836Y-124538847D01*
X144813884Y-124967419D02*
X144813884Y-123967419D01*
X144813884Y-123967419D02*
X145385312Y-124967419D01*
X145385312Y-124967419D02*
X145385312Y-123967419D01*
X145861503Y-124967419D02*
X145861503Y-123967419D01*
X145861503Y-123967419D02*
X146099598Y-123967419D01*
X146099598Y-123967419D02*
X146242455Y-124015038D01*
X146242455Y-124015038D02*
X146337693Y-124110276D01*
X146337693Y-124110276D02*
X146385312Y-124205514D01*
X146385312Y-124205514D02*
X146432931Y-124395990D01*
X146432931Y-124395990D02*
X146432931Y-124538847D01*
X146432931Y-124538847D02*
X146385312Y-124729323D01*
X146385312Y-124729323D02*
X146337693Y-124824561D01*
X146337693Y-124824561D02*
X146242455Y-124919800D01*
X146242455Y-124919800D02*
X146099598Y-124967419D01*
X146099598Y-124967419D02*
X145861503Y-124967419D01*
X143766265Y-127459800D02*
X143909122Y-127507419D01*
X143909122Y-127507419D02*
X144147217Y-127507419D01*
X144147217Y-127507419D02*
X144242455Y-127459800D01*
X144242455Y-127459800D02*
X144290074Y-127412180D01*
X144290074Y-127412180D02*
X144337693Y-127316942D01*
X144337693Y-127316942D02*
X144337693Y-127221704D01*
X144337693Y-127221704D02*
X144290074Y-127126466D01*
X144290074Y-127126466D02*
X144242455Y-127078847D01*
X144242455Y-127078847D02*
X144147217Y-127031228D01*
X144147217Y-127031228D02*
X143956741Y-126983609D01*
X143956741Y-126983609D02*
X143861503Y-126935990D01*
X143861503Y-126935990D02*
X143813884Y-126888371D01*
X143813884Y-126888371D02*
X143766265Y-126793133D01*
X143766265Y-126793133D02*
X143766265Y-126697895D01*
X143766265Y-126697895D02*
X143813884Y-126602657D01*
X143813884Y-126602657D02*
X143861503Y-126555038D01*
X143861503Y-126555038D02*
X143956741Y-126507419D01*
X143956741Y-126507419D02*
X144194836Y-126507419D01*
X144194836Y-126507419D02*
X144337693Y-126555038D01*
X144766265Y-127507419D02*
X144766265Y-126507419D01*
X144766265Y-126507419D02*
X145004360Y-126507419D01*
X145004360Y-126507419D02*
X145147217Y-126555038D01*
X145147217Y-126555038D02*
X145242455Y-126650276D01*
X145242455Y-126650276D02*
X145290074Y-126745514D01*
X145290074Y-126745514D02*
X145337693Y-126935990D01*
X145337693Y-126935990D02*
X145337693Y-127078847D01*
X145337693Y-127078847D02*
X145290074Y-127269323D01*
X145290074Y-127269323D02*
X145242455Y-127364561D01*
X145242455Y-127364561D02*
X145147217Y-127459800D01*
X145147217Y-127459800D02*
X145004360Y-127507419D01*
X145004360Y-127507419D02*
X144766265Y-127507419D01*
X145718646Y-127221704D02*
X146194836Y-127221704D01*
X145623408Y-127507419D02*
X145956741Y-126507419D01*
X145956741Y-126507419D02*
X146290074Y-127507419D01*
D10*
X145716666Y-90704819D02*
X145716666Y-91419104D01*
X145716666Y-91419104D02*
X145669047Y-91561961D01*
X145669047Y-91561961D02*
X145573809Y-91657200D01*
X145573809Y-91657200D02*
X145430952Y-91704819D01*
X145430952Y-91704819D02*
X145335714Y-91704819D01*
X146669047Y-90704819D02*
X146192857Y-90704819D01*
X146192857Y-90704819D02*
X146145238Y-91181009D01*
X146145238Y-91181009D02*
X146192857Y-91133390D01*
X146192857Y-91133390D02*
X146288095Y-91085771D01*
X146288095Y-91085771D02*
X146526190Y-91085771D01*
X146526190Y-91085771D02*
X146621428Y-91133390D01*
X146621428Y-91133390D02*
X146669047Y-91181009D01*
X146669047Y-91181009D02*
X146716666Y-91276247D01*
X146716666Y-91276247D02*
X146716666Y-91514342D01*
X146716666Y-91514342D02*
X146669047Y-91609580D01*
X146669047Y-91609580D02*
X146621428Y-91657200D01*
X146621428Y-91657200D02*
X146526190Y-91704819D01*
X146526190Y-91704819D02*
X146288095Y-91704819D01*
X146288095Y-91704819D02*
X146192857Y-91657200D01*
X146192857Y-91657200D02*
X146145238Y-91609580D01*
X139078571Y-111364700D02*
X140221429Y-111364700D01*
X151378571Y-111364700D02*
X152521429Y-111364700D01*
X151950000Y-111936128D02*
X151950000Y-110793271D01*
X172584819Y-85058094D02*
X173394342Y-85058094D01*
X173394342Y-85058094D02*
X173489580Y-85010475D01*
X173489580Y-85010475D02*
X173537200Y-84962856D01*
X173537200Y-84962856D02*
X173584819Y-84867618D01*
X173584819Y-84867618D02*
X173584819Y-84677142D01*
X173584819Y-84677142D02*
X173537200Y-84581904D01*
X173537200Y-84581904D02*
X173489580Y-84534285D01*
X173489580Y-84534285D02*
X173394342Y-84486666D01*
X173394342Y-84486666D02*
X172584819Y-84486666D01*
X173584819Y-83486666D02*
X173584819Y-84058094D01*
X173584819Y-83772380D02*
X172584819Y-83772380D01*
X172584819Y-83772380D02*
X172727676Y-83867618D01*
X172727676Y-83867618D02*
X172822914Y-83962856D01*
X172822914Y-83962856D02*
X172870533Y-84058094D01*
X172918152Y-82629523D02*
X173584819Y-82629523D01*
X172537200Y-82867618D02*
X173251485Y-83105713D01*
X173251485Y-83105713D02*
X173251485Y-82486666D01*
D14*
X156806441Y-143770361D02*
X156806441Y-145770361D01*
X156806441Y-145770361D02*
X156139774Y-144341790D01*
X156139774Y-144341790D02*
X155473108Y-145770361D01*
X155473108Y-145770361D02*
X155473108Y-143770361D01*
X154520727Y-143770361D02*
X154520727Y-145770361D01*
X154520727Y-145770361D02*
X153758822Y-145770361D01*
X153758822Y-145770361D02*
X153568346Y-145675123D01*
X153568346Y-145675123D02*
X153473108Y-145579885D01*
X153473108Y-145579885D02*
X153377870Y-145389409D01*
X153377870Y-145389409D02*
X153377870Y-145103695D01*
X153377870Y-145103695D02*
X153473108Y-144913219D01*
X153473108Y-144913219D02*
X153568346Y-144817980D01*
X153568346Y-144817980D02*
X153758822Y-144722742D01*
X153758822Y-144722742D02*
X154520727Y-144722742D01*
X152520727Y-145770361D02*
X152520727Y-144151314D01*
X152520727Y-144151314D02*
X152425489Y-143960838D01*
X152425489Y-143960838D02*
X152330251Y-143865600D01*
X152330251Y-143865600D02*
X152139775Y-143770361D01*
X152139775Y-143770361D02*
X151758822Y-143770361D01*
X151758822Y-143770361D02*
X151568346Y-143865600D01*
X151568346Y-143865600D02*
X151473108Y-143960838D01*
X151473108Y-143960838D02*
X151377870Y-144151314D01*
X151377870Y-144151314D02*
X151377870Y-145770361D01*
X149568346Y-145770361D02*
X149949299Y-145770361D01*
X149949299Y-145770361D02*
X150139775Y-145675123D01*
X150139775Y-145675123D02*
X150235013Y-145579885D01*
X150235013Y-145579885D02*
X150425489Y-145294171D01*
X150425489Y-145294171D02*
X150520727Y-144913219D01*
X150520727Y-144913219D02*
X150520727Y-144151314D01*
X150520727Y-144151314D02*
X150425489Y-143960838D01*
X150425489Y-143960838D02*
X150330251Y-143865600D01*
X150330251Y-143865600D02*
X150139775Y-143770361D01*
X150139775Y-143770361D02*
X149758822Y-143770361D01*
X149758822Y-143770361D02*
X149568346Y-143865600D01*
X149568346Y-143865600D02*
X149473108Y-143960838D01*
X149473108Y-143960838D02*
X149377870Y-144151314D01*
X149377870Y-144151314D02*
X149377870Y-144627504D01*
X149377870Y-144627504D02*
X149473108Y-144817980D01*
X149473108Y-144817980D02*
X149568346Y-144913219D01*
X149568346Y-144913219D02*
X149758822Y-145008457D01*
X149758822Y-145008457D02*
X150139775Y-145008457D01*
X150139775Y-145008457D02*
X150330251Y-144913219D01*
X150330251Y-144913219D02*
X150425489Y-144817980D01*
X150425489Y-144817980D02*
X150520727Y-144627504D01*
X148139775Y-145770361D02*
X147949298Y-145770361D01*
X147949298Y-145770361D02*
X147758822Y-145675123D01*
X147758822Y-145675123D02*
X147663584Y-145579885D01*
X147663584Y-145579885D02*
X147568346Y-145389409D01*
X147568346Y-145389409D02*
X147473108Y-145008457D01*
X147473108Y-145008457D02*
X147473108Y-144532266D01*
X147473108Y-144532266D02*
X147568346Y-144151314D01*
X147568346Y-144151314D02*
X147663584Y-143960838D01*
X147663584Y-143960838D02*
X147758822Y-143865600D01*
X147758822Y-143865600D02*
X147949298Y-143770361D01*
X147949298Y-143770361D02*
X148139775Y-143770361D01*
X148139775Y-143770361D02*
X148330251Y-143865600D01*
X148330251Y-143865600D02*
X148425489Y-143960838D01*
X148425489Y-143960838D02*
X148520727Y-144151314D01*
X148520727Y-144151314D02*
X148615965Y-144532266D01*
X148615965Y-144532266D02*
X148615965Y-145008457D01*
X148615965Y-145008457D02*
X148520727Y-145389409D01*
X148520727Y-145389409D02*
X148425489Y-145579885D01*
X148425489Y-145579885D02*
X148330251Y-145675123D01*
X148330251Y-145675123D02*
X148139775Y-145770361D01*
X145663584Y-145770361D02*
X146615965Y-145770361D01*
X146615965Y-145770361D02*
X146711203Y-144817980D01*
X146711203Y-144817980D02*
X146615965Y-144913219D01*
X146615965Y-144913219D02*
X146425489Y-145008457D01*
X146425489Y-145008457D02*
X145949298Y-145008457D01*
X145949298Y-145008457D02*
X145758822Y-144913219D01*
X145758822Y-144913219D02*
X145663584Y-144817980D01*
X145663584Y-144817980D02*
X145568346Y-144627504D01*
X145568346Y-144627504D02*
X145568346Y-144151314D01*
X145568346Y-144151314D02*
X145663584Y-143960838D01*
X145663584Y-143960838D02*
X145758822Y-143865600D01*
X145758822Y-143865600D02*
X145949298Y-143770361D01*
X145949298Y-143770361D02*
X146425489Y-143770361D01*
X146425489Y-143770361D02*
X146615965Y-143865600D01*
X146615965Y-143865600D02*
X146711203Y-143960838D01*
X144330251Y-145770361D02*
X144139774Y-145770361D01*
X144139774Y-145770361D02*
X143949298Y-145675123D01*
X143949298Y-145675123D02*
X143854060Y-145579885D01*
X143854060Y-145579885D02*
X143758822Y-145389409D01*
X143758822Y-145389409D02*
X143663584Y-145008457D01*
X143663584Y-145008457D02*
X143663584Y-144532266D01*
X143663584Y-144532266D02*
X143758822Y-144151314D01*
X143758822Y-144151314D02*
X143854060Y-143960838D01*
X143854060Y-143960838D02*
X143949298Y-143865600D01*
X143949298Y-143865600D02*
X144139774Y-143770361D01*
X144139774Y-143770361D02*
X144330251Y-143770361D01*
X144330251Y-143770361D02*
X144520727Y-143865600D01*
X144520727Y-143865600D02*
X144615965Y-143960838D01*
X144615965Y-143960838D02*
X144711203Y-144151314D01*
X144711203Y-144151314D02*
X144806441Y-144532266D01*
X144806441Y-144532266D02*
X144806441Y-145008457D01*
X144806441Y-145008457D02*
X144711203Y-145389409D01*
X144711203Y-145389409D02*
X144615965Y-145579885D01*
X144615965Y-145579885D02*
X144520727Y-145675123D01*
X144520727Y-145675123D02*
X144330251Y-145770361D01*
D10*
X99529580Y-71762857D02*
X99577200Y-71810476D01*
X99577200Y-71810476D02*
X99624819Y-71953333D01*
X99624819Y-71953333D02*
X99624819Y-72048571D01*
X99624819Y-72048571D02*
X99577200Y-72191428D01*
X99577200Y-72191428D02*
X99481961Y-72286666D01*
X99481961Y-72286666D02*
X99386723Y-72334285D01*
X99386723Y-72334285D02*
X99196247Y-72381904D01*
X99196247Y-72381904D02*
X99053390Y-72381904D01*
X99053390Y-72381904D02*
X98862914Y-72334285D01*
X98862914Y-72334285D02*
X98767676Y-72286666D01*
X98767676Y-72286666D02*
X98672438Y-72191428D01*
X98672438Y-72191428D02*
X98624819Y-72048571D01*
X98624819Y-72048571D02*
X98624819Y-71953333D01*
X98624819Y-71953333D02*
X98672438Y-71810476D01*
X98672438Y-71810476D02*
X98720057Y-71762857D01*
X99624819Y-70810476D02*
X99624819Y-71381904D01*
X99624819Y-71096190D02*
X98624819Y-71096190D01*
X98624819Y-71096190D02*
X98767676Y-71191428D01*
X98767676Y-71191428D02*
X98862914Y-71286666D01*
X98862914Y-71286666D02*
X98910533Y-71381904D01*
X98624819Y-70477142D02*
X98624819Y-69858095D01*
X98624819Y-69858095D02*
X99005771Y-70191428D01*
X99005771Y-70191428D02*
X99005771Y-70048571D01*
X99005771Y-70048571D02*
X99053390Y-69953333D01*
X99053390Y-69953333D02*
X99101009Y-69905714D01*
X99101009Y-69905714D02*
X99196247Y-69858095D01*
X99196247Y-69858095D02*
X99434342Y-69858095D01*
X99434342Y-69858095D02*
X99529580Y-69905714D01*
X99529580Y-69905714D02*
X99577200Y-69953333D01*
X99577200Y-69953333D02*
X99624819Y-70048571D01*
X99624819Y-70048571D02*
X99624819Y-70334285D01*
X99624819Y-70334285D02*
X99577200Y-70429523D01*
X99577200Y-70429523D02*
X99529580Y-70477142D01*
X110839047Y-153151009D02*
X110981904Y-153198628D01*
X110981904Y-153198628D02*
X111029523Y-153246247D01*
X111029523Y-153246247D02*
X111077142Y-153341485D01*
X111077142Y-153341485D02*
X111077142Y-153484342D01*
X111077142Y-153484342D02*
X111029523Y-153579580D01*
X111029523Y-153579580D02*
X110981904Y-153627200D01*
X110981904Y-153627200D02*
X110886666Y-153674819D01*
X110886666Y-153674819D02*
X110505714Y-153674819D01*
X110505714Y-153674819D02*
X110505714Y-152674819D01*
X110505714Y-152674819D02*
X110839047Y-152674819D01*
X110839047Y-152674819D02*
X110934285Y-152722438D01*
X110934285Y-152722438D02*
X110981904Y-152770057D01*
X110981904Y-152770057D02*
X111029523Y-152865295D01*
X111029523Y-152865295D02*
X111029523Y-152960533D01*
X111029523Y-152960533D02*
X110981904Y-153055771D01*
X110981904Y-153055771D02*
X110934285Y-153103390D01*
X110934285Y-153103390D02*
X110839047Y-153151009D01*
X110839047Y-153151009D02*
X110505714Y-153151009D01*
X111410476Y-152674819D02*
X112077142Y-152674819D01*
X112077142Y-152674819D02*
X111410476Y-153674819D01*
X111410476Y-153674819D02*
X112077142Y-153674819D01*
X112981904Y-153674819D02*
X112410476Y-153674819D01*
X112696190Y-153674819D02*
X112696190Y-152674819D01*
X112696190Y-152674819D02*
X112600952Y-152817676D01*
X112600952Y-152817676D02*
X112505714Y-152912914D01*
X112505714Y-152912914D02*
X112410476Y-152960533D01*
D15*
%TO.C,R13*%
X126477500Y-107552258D02*
X126477500Y-107077742D01*
X127522500Y-107552258D02*
X127522500Y-107077742D01*
%TO.C,J7*%
X158500000Y-72925000D02*
X158500000Y-74175000D01*
X158790000Y-73215000D02*
X158790000Y-79185000D01*
X158790000Y-79185000D02*
X171410000Y-79185000D01*
X158800000Y-73225000D02*
X158800000Y-73975000D01*
X158800000Y-73975000D02*
X160600000Y-73975000D01*
X158800000Y-75475000D02*
X159550000Y-75475000D01*
X159550000Y-75475000D02*
X159550000Y-78425000D01*
X159550000Y-78425000D02*
X165100000Y-78425000D01*
X159750000Y-72925000D02*
X158500000Y-72925000D01*
X160600000Y-73225000D02*
X158800000Y-73225000D01*
X160600000Y-73975000D02*
X160600000Y-73225000D01*
X162100000Y-73225000D02*
X162100000Y-73975000D01*
X162100000Y-73975000D02*
X168100000Y-73975000D01*
X168100000Y-73225000D02*
X162100000Y-73225000D01*
X168100000Y-73975000D02*
X168100000Y-73225000D01*
X169600000Y-73225000D02*
X169600000Y-73975000D01*
X169600000Y-73975000D02*
X171400000Y-73975000D01*
X170650000Y-75475000D02*
X170650000Y-78425000D01*
X170650000Y-78425000D02*
X165100000Y-78425000D01*
X171400000Y-73225000D02*
X169600000Y-73225000D01*
X171400000Y-73975000D02*
X171400000Y-73225000D01*
X171400000Y-75475000D02*
X170650000Y-75475000D01*
X171410000Y-73215000D02*
X158790000Y-73215000D01*
X171410000Y-79185000D02*
X171410000Y-73215000D01*
%TO.C,C11*%
X125662836Y-110130000D02*
X125447164Y-110130000D01*
X125662836Y-109410000D02*
X125447164Y-109410000D01*
%TO.C,R3*%
X130747500Y-118982258D02*
X130747500Y-118507742D01*
X131792500Y-118982258D02*
X131792500Y-118507742D01*
%TO.C,R14*%
X129427500Y-107077742D02*
X129427500Y-107552258D01*
X128382500Y-107077742D02*
X128382500Y-107552258D01*
%TO.C,R18*%
X131459500Y-123841742D02*
X131459500Y-124316258D01*
X130414500Y-123841742D02*
X130414500Y-124316258D01*
%TO.C,C4*%
X125455000Y-125876164D02*
X125455000Y-126091836D01*
X124735000Y-125876164D02*
X124735000Y-126091836D01*
%TO.C,R4*%
X178957500Y-76027742D02*
X178957500Y-76502258D01*
X177912500Y-76027742D02*
X177912500Y-76502258D01*
%TO.C,C9*%
X123169000Y-134103164D02*
X123169000Y-134318836D01*
X122449000Y-134103164D02*
X122449000Y-134318836D01*
%TO.C,J4*%
X107310000Y-92290000D02*
X107310000Y-106600000D01*
X107310000Y-92290000D02*
X123030000Y-92290000D01*
X113880000Y-110710000D02*
X117620000Y-110710000D01*
X123030000Y-92290000D02*
X123030000Y-106600000D01*
X107310001Y-106600000D02*
G75*
G03*
X109303194Y-110122957I4109998J-1D01*
G01*
X120121648Y-110530413D02*
G75*
G03*
X123030000Y-106600000I-1201648J3930413D01*
G01*
D10*
%TO.C,U8*%
X95480000Y-75970000D02*
X95705000Y-75970000D01*
X95480000Y-75970000D02*
X95480000Y-72620000D01*
X95705000Y-75970000D02*
X95705000Y-77195000D01*
X98830000Y-75970000D02*
X98530000Y-75970000D01*
X98830000Y-75970000D02*
X98830000Y-72620000D01*
X95480000Y-72620000D02*
X95780000Y-72620000D01*
X98830000Y-72620000D02*
X98530000Y-72620000D01*
D15*
%TO.C,J3*%
X154750000Y-109010000D02*
X154750000Y-110260000D01*
X155040000Y-109300000D02*
X155040000Y-115270000D01*
X155040000Y-115270000D02*
X167660000Y-115270000D01*
X155050000Y-109310000D02*
X155050000Y-110060000D01*
X155050000Y-110060000D02*
X156850000Y-110060000D01*
X155050000Y-111560000D02*
X155800000Y-111560000D01*
X155800000Y-111560000D02*
X155800000Y-114510000D01*
X155800000Y-114510000D02*
X161350000Y-114510000D01*
X156000000Y-109010000D02*
X154750000Y-109010000D01*
X156850000Y-109310000D02*
X155050000Y-109310000D01*
X156850000Y-110060000D02*
X156850000Y-109310000D01*
X158350000Y-109310000D02*
X158350000Y-110060000D01*
X158350000Y-110060000D02*
X164350000Y-110060000D01*
X164350000Y-109310000D02*
X158350000Y-109310000D01*
X164350000Y-110060000D02*
X164350000Y-109310000D01*
X165850000Y-109310000D02*
X165850000Y-110060000D01*
X165850000Y-110060000D02*
X167650000Y-110060000D01*
X166900000Y-111560000D02*
X166900000Y-114510000D01*
X166900000Y-114510000D02*
X161350000Y-114510000D01*
X167650000Y-109310000D02*
X165850000Y-109310000D01*
X167650000Y-110060000D02*
X167650000Y-109310000D01*
X167650000Y-111560000D02*
X166900000Y-111560000D01*
X167660000Y-109300000D02*
X155040000Y-109300000D01*
X167660000Y-115270000D02*
X167660000Y-109300000D01*
%TO.C,R11*%
X178197742Y-88442500D02*
X178672258Y-88442500D01*
X178197742Y-89487500D02*
X178672258Y-89487500D01*
%TO.C,C12*%
X97262836Y-70210000D02*
X97047164Y-70210000D01*
X97262836Y-69490000D02*
X97047164Y-69490000D01*
%TO.C,J9*%
X93920000Y-95310000D02*
X93920000Y-93980000D01*
X95250000Y-95310000D02*
X93920000Y-95310000D01*
X96520000Y-95310000D02*
X101660000Y-95310000D01*
X96520000Y-95310000D02*
X96520000Y-92650000D01*
X101660000Y-95310000D02*
X101660000Y-92650000D01*
X96520000Y-92650000D02*
X101660000Y-92650000D01*
%TO.C,C2*%
X136417164Y-136673000D02*
X136632836Y-136673000D01*
X136417164Y-137393000D02*
X136632836Y-137393000D01*
%TO.C,J13*%
X125685000Y-148650000D02*
X125685000Y-147320000D01*
X127015000Y-148650000D02*
X125685000Y-148650000D01*
X128285000Y-148650000D02*
X133425000Y-148650000D01*
X128285000Y-148650000D02*
X128285000Y-145990000D01*
X133425000Y-148650000D02*
X133425000Y-145990000D01*
X128285000Y-145990000D02*
X133425000Y-145990000D01*
%TO.C,SW1*%
X80320000Y-83070000D02*
X80320000Y-84570000D01*
X81570000Y-87070000D02*
X86070000Y-87070000D01*
X86070000Y-80570000D02*
X81570000Y-80570000D01*
X87320000Y-84570000D02*
X87320000Y-83070000D01*
%TO.C,J1*%
X137120000Y-104920000D02*
X135700000Y-104920000D01*
X137120000Y-93200000D02*
X137120000Y-104920000D01*
X135700000Y-104920000D02*
X135700000Y-100420000D01*
X135700000Y-100420000D02*
X130810000Y-100420000D01*
X134860000Y-104610000D02*
X134260000Y-104610000D01*
X134810000Y-99310000D02*
X134810000Y-93810000D01*
X134810000Y-93810000D02*
X134310000Y-93810000D01*
X134560000Y-104010000D02*
X134860000Y-104610000D01*
X134310000Y-99310000D02*
X134810000Y-99310000D01*
X134310000Y-93810000D02*
X134310000Y-99310000D01*
X134260000Y-104610000D02*
X134560000Y-104010000D01*
X132310000Y-99310000D02*
X132310000Y-93810000D01*
X132310000Y-93810000D02*
X131810000Y-93810000D01*
X131810000Y-99310000D02*
X132310000Y-99310000D01*
X131810000Y-93810000D02*
X131810000Y-99310000D01*
X130810000Y-93200000D02*
X137120000Y-93200000D01*
X130810000Y-93200000D02*
X124500000Y-93200000D01*
X129810000Y-99310000D02*
X129810000Y-93810000D01*
X129810000Y-93810000D02*
X129310000Y-93810000D01*
X129310000Y-99310000D02*
X129810000Y-99310000D01*
X129310000Y-93810000D02*
X129310000Y-99310000D01*
X127310000Y-99310000D02*
X127310000Y-93810000D01*
X127310000Y-93810000D02*
X126810000Y-93810000D01*
X126810000Y-99310000D02*
X127310000Y-99310000D01*
X126810000Y-93810000D02*
X126810000Y-99310000D01*
X125920000Y-104920000D02*
X125920000Y-100420000D01*
X125920000Y-100420000D02*
X130810000Y-100420000D01*
X124500000Y-104920000D02*
X125920000Y-104920000D01*
X124500000Y-93200000D02*
X124500000Y-104920000D01*
%TO.C,R9*%
X179022742Y-78282500D02*
X179497258Y-78282500D01*
X179022742Y-79327500D02*
X179497258Y-79327500D01*
%TO.C,C1*%
X122193164Y-131466000D02*
X122408836Y-131466000D01*
X122193164Y-132186000D02*
X122408836Y-132186000D01*
%TO.C,R15*%
X128890500Y-124316258D02*
X128890500Y-123841742D01*
X129935500Y-124316258D02*
X129935500Y-123841742D01*
D16*
%TO.C,U1*%
X140550000Y-116730000D02*
X151550000Y-116730000D01*
X151550000Y-116730000D02*
X151550000Y-134730000D01*
X151550000Y-134730000D02*
X140550000Y-134730000D01*
X140550000Y-134730000D02*
X140550000Y-116730000D01*
D15*
%TO.C,C8*%
X126765164Y-139467000D02*
X126980836Y-139467000D01*
X126765164Y-140187000D02*
X126980836Y-140187000D01*
%TO.C,R10*%
X175657742Y-78282500D02*
X176132258Y-78282500D01*
X175657742Y-79327500D02*
X176132258Y-79327500D01*
%TO.C,U3*%
X124938000Y-127224000D02*
X124938000Y-128174000D01*
X124938000Y-128174000D02*
X123598000Y-128174000D01*
X124938000Y-137444000D02*
X124938000Y-136494000D01*
X125888000Y-127224000D02*
X124938000Y-127224000D01*
X125888000Y-137444000D02*
X124938000Y-137444000D01*
X134208000Y-127224000D02*
X135158000Y-127224000D01*
X134208000Y-137444000D02*
X135158000Y-137444000D01*
X135158000Y-127224000D02*
X135158000Y-128174000D01*
X135158000Y-137444000D02*
X135158000Y-136494000D01*
%TO.C,J5*%
X138190000Y-92290000D02*
X138190000Y-106600000D01*
X138190000Y-92290000D02*
X153910000Y-92290000D01*
X144760000Y-110710000D02*
X148500000Y-110710000D01*
X153910000Y-92290000D02*
X153910000Y-106600000D01*
X138190001Y-106600000D02*
G75*
G03*
X140183194Y-110122957I4109998J-1D01*
G01*
X151001648Y-110530413D02*
G75*
G03*
X153910000Y-106600000I-1201648J3930413D01*
G01*
%TO.C,R8*%
X129887500Y-118507742D02*
X129887500Y-118982258D01*
X128842500Y-118507742D02*
X128842500Y-118982258D01*
%TO.C,C7*%
X137687164Y-128037000D02*
X137902836Y-128037000D01*
X137687164Y-128757000D02*
X137902836Y-128757000D01*
%TO.C,R20*%
X87530000Y-77062064D02*
X87530000Y-76607936D01*
X89000000Y-77062064D02*
X89000000Y-76607936D01*
%TO.C,U14*%
X173970000Y-83820000D02*
X173970000Y-87270000D01*
X173970000Y-83820000D02*
X173970000Y-81870000D01*
X179090000Y-83820000D02*
X179090000Y-85770000D01*
X179090000Y-83820000D02*
X179090000Y-81870000D01*
%TO.C,R22*%
X89000000Y-70892936D02*
X89000000Y-71347064D01*
X87530000Y-70892936D02*
X87530000Y-71347064D01*
%TO.C,J12*%
X93920000Y-83880000D02*
X93920000Y-82550000D01*
X95250000Y-83880000D02*
X93920000Y-83880000D01*
X96520000Y-83880000D02*
X101660000Y-83880000D01*
X96520000Y-83880000D02*
X96520000Y-81220000D01*
X101660000Y-83880000D02*
X101660000Y-81220000D01*
X96520000Y-81220000D02*
X101660000Y-81220000D01*
%TO.C,J10*%
X93920000Y-91500000D02*
X93920000Y-90170000D01*
X95250000Y-91500000D02*
X93920000Y-91500000D01*
X96520000Y-91500000D02*
X101660000Y-91500000D01*
X96520000Y-91500000D02*
X96520000Y-88840000D01*
X101660000Y-91500000D02*
X101660000Y-88840000D01*
X96520000Y-88840000D02*
X101660000Y-88840000D01*
%TO.C,R16*%
X128411500Y-123841742D02*
X128411500Y-124316258D01*
X127366500Y-123841742D02*
X127366500Y-124316258D01*
D13*
%TO.C,U6*%
X92710000Y-137160000D02*
X115570000Y-137160000D01*
X115570000Y-137160000D02*
X115570000Y-116840000D01*
X115570000Y-116840000D02*
X92710000Y-116840000D01*
X92710000Y-116840000D02*
X92710000Y-137160000D01*
D15*
%TO.C,FB1*%
X121566000Y-137260064D02*
X121566000Y-136805936D01*
X123036000Y-137260064D02*
X123036000Y-136805936D01*
%TO.C,C10*%
X122153000Y-134131164D02*
X122153000Y-134346836D01*
X121433000Y-134131164D02*
X121433000Y-134346836D01*
%TO.C,R1*%
X89647500Y-85772258D02*
X89647500Y-85297742D01*
X90692500Y-85772258D02*
X90692500Y-85297742D01*
D13*
%TO.C,U13*%
X139700000Y-152400000D02*
X160020000Y-152400000D01*
X160020000Y-152400000D02*
X160020000Y-137160000D01*
X160020000Y-137160000D02*
X139700000Y-137160000D01*
X139700000Y-137160000D02*
X139700000Y-152400000D01*
D15*
%TO.C,J8*%
X158560000Y-82340000D02*
X158560000Y-83590000D01*
X158850000Y-82630000D02*
X158850000Y-88600000D01*
X158850000Y-88600000D02*
X171470000Y-88600000D01*
X158860000Y-82640000D02*
X158860000Y-83390000D01*
X158860000Y-83390000D02*
X160660000Y-83390000D01*
X158860000Y-84890000D02*
X159610000Y-84890000D01*
X159610000Y-84890000D02*
X159610000Y-87840000D01*
X159610000Y-87840000D02*
X165160000Y-87840000D01*
X159810000Y-82340000D02*
X158560000Y-82340000D01*
X160660000Y-82640000D02*
X158860000Y-82640000D01*
X160660000Y-83390000D02*
X160660000Y-82640000D01*
X162160000Y-82640000D02*
X162160000Y-83390000D01*
X162160000Y-83390000D02*
X168160000Y-83390000D01*
X168160000Y-82640000D02*
X162160000Y-82640000D01*
X168160000Y-83390000D02*
X168160000Y-82640000D01*
X169660000Y-82640000D02*
X169660000Y-83390000D01*
X169660000Y-83390000D02*
X171460000Y-83390000D01*
X170710000Y-84890000D02*
X170710000Y-87840000D01*
X170710000Y-87840000D02*
X165160000Y-87840000D01*
X171460000Y-82640000D02*
X169660000Y-82640000D01*
X171460000Y-83390000D02*
X171460000Y-82640000D01*
X171460000Y-84890000D02*
X170710000Y-84890000D01*
X171470000Y-82630000D02*
X158850000Y-82630000D01*
X171470000Y-88600000D02*
X171470000Y-82630000D01*
%TO.C,R5*%
X176007500Y-76502258D02*
X176007500Y-76027742D01*
X177052500Y-76502258D02*
X177052500Y-76027742D01*
%TO.C,R2*%
X132350742Y-139431500D02*
X132825258Y-139431500D01*
X132350742Y-140476500D02*
X132825258Y-140476500D01*
%TO.C,C13*%
X99970000Y-71227836D02*
X99970000Y-71012164D01*
X100690000Y-71227836D02*
X100690000Y-71012164D01*
%TO.C,R19*%
X89762064Y-68045000D02*
X89307936Y-68045000D01*
X89762064Y-66575000D02*
X89307936Y-66575000D01*
%TO.C,J22*%
X82455000Y-68990000D02*
X84155000Y-68990000D01*
X82455000Y-78330000D02*
X84155000Y-78330000D01*
%TO.C,C3*%
X123491164Y-127021000D02*
X123706836Y-127021000D01*
X123491164Y-127741000D02*
X123706836Y-127741000D01*
%TO.C,J11*%
X93920000Y-87690000D02*
X93920000Y-86360000D01*
X95250000Y-87690000D02*
X93920000Y-87690000D01*
X96520000Y-87690000D02*
X101660000Y-87690000D01*
X96520000Y-87690000D02*
X96520000Y-85030000D01*
X101660000Y-87690000D02*
X101660000Y-85030000D01*
X96520000Y-85030000D02*
X101660000Y-85030000D01*
%TO.C,D1*%
X90425000Y-68715000D02*
X90425000Y-70985000D01*
X90425000Y-70985000D02*
X94310000Y-70985000D01*
X94310000Y-68715000D02*
X90425000Y-68715000D01*
%TO.C,C6*%
X134768000Y-138791836D02*
X134768000Y-138576164D01*
X135488000Y-138791836D02*
X135488000Y-138576164D01*
%TO.C,BZ1*%
X118120000Y-147550000D02*
G75*
G03*
X118120000Y-144550001I-6400000J1500000D01*
G01*
X117950000Y-146050000D02*
G75*
G03*
X117950000Y-146050000I-6230000J0D01*
G01*
%TO.C,R12*%
X174832742Y-88442500D02*
X175307258Y-88442500D01*
X174832742Y-89487500D02*
X175307258Y-89487500D01*
%TO.C,U12*%
X126980000Y-113030000D02*
X126980000Y-116480000D01*
X126980000Y-113030000D02*
X126980000Y-111080000D01*
X132100000Y-113030000D02*
X132100000Y-114980000D01*
X132100000Y-113030000D02*
X132100000Y-111080000D01*
%TO.C,R21*%
X92175000Y-75972936D02*
X92175000Y-76427064D01*
X90705000Y-75972936D02*
X90705000Y-76427064D01*
%TO.C,C5*%
X136505836Y-127741000D02*
X136290164Y-127741000D01*
X136505836Y-127021000D02*
X136290164Y-127021000D01*
%TO.C,Q1*%
X126310000Y-116354000D02*
X126310000Y-112754000D01*
X121860000Y-114554000D02*
G75*
G03*
X126298478Y-116392478I2600000J0D01*
G01*
X126298478Y-112715522D02*
G75*
G03*
X121860000Y-114554000I-1838478J-1838478D01*
G01*
%TO.C,R7*%
X176417500Y-91267742D02*
X176417500Y-91742258D01*
X175372500Y-91267742D02*
X175372500Y-91742258D01*
%TO.C,R17*%
X132731742Y-141082500D02*
X133206258Y-141082500D01*
X132731742Y-142127500D02*
X133206258Y-142127500D01*
%TO.C,R6*%
X177277500Y-91742258D02*
X177277500Y-91267742D01*
X178322500Y-91742258D02*
X178322500Y-91267742D01*
%TO.C,J2*%
X93155000Y-107740000D02*
X93155000Y-108990000D01*
X93445000Y-108030000D02*
X93445000Y-114000000D01*
X93445000Y-114000000D02*
X106065000Y-114000000D01*
X93455000Y-108040000D02*
X93455000Y-108790000D01*
X93455000Y-108790000D02*
X95255000Y-108790000D01*
X93455000Y-110290000D02*
X94205000Y-110290000D01*
X94205000Y-110290000D02*
X94205000Y-113240000D01*
X94205000Y-113240000D02*
X99755000Y-113240000D01*
X94405000Y-107740000D02*
X93155000Y-107740000D01*
X95255000Y-108040000D02*
X93455000Y-108040000D01*
X95255000Y-108790000D02*
X95255000Y-108040000D01*
X96755000Y-108040000D02*
X96755000Y-108790000D01*
X96755000Y-108790000D02*
X102755000Y-108790000D01*
X102755000Y-108040000D02*
X96755000Y-108040000D01*
X102755000Y-108790000D02*
X102755000Y-108040000D01*
X104255000Y-108040000D02*
X104255000Y-108790000D01*
X104255000Y-108790000D02*
X106055000Y-108790000D01*
X105305000Y-110290000D02*
X105305000Y-113240000D01*
X105305000Y-113240000D02*
X99755000Y-113240000D01*
X106055000Y-108040000D02*
X104255000Y-108040000D01*
X106055000Y-108790000D02*
X106055000Y-108040000D01*
X106055000Y-110290000D02*
X105305000Y-110290000D01*
X106065000Y-108030000D02*
X93445000Y-108030000D01*
X106065000Y-114000000D02*
X106065000Y-108030000D01*
%TO.C,SW2*%
X80320000Y-90690000D02*
X80320000Y-92190000D01*
X81570000Y-94690000D02*
X86070000Y-94690000D01*
X86070000Y-88190000D02*
X81570000Y-88190000D01*
X87320000Y-92190000D02*
X87320000Y-90690000D01*
%TO.C,D2*%
X90425000Y-71890000D02*
X90425000Y-74160000D01*
X90425000Y-74160000D02*
X94310000Y-74160000D01*
X94310000Y-71890000D02*
X90425000Y-71890000D01*
%TD*%
%LPC*%
D17*
%TO.C,R13*%
X127000000Y-108140000D03*
X127000000Y-106490000D03*
%TD*%
D18*
%TO.C,J7*%
X161350000Y-75675000D03*
D19*
X163850000Y-75675000D03*
X166350000Y-75675000D03*
X168850000Y-75675000D03*
%TD*%
D20*
%TO.C,C11*%
X126035000Y-109770000D03*
X125075000Y-109770000D03*
%TD*%
D17*
%TO.C,R3*%
X131270000Y-119570000D03*
X131270000Y-117920000D03*
%TD*%
D21*
%TO.C,U2*%
X82550000Y-97790000D03*
X82550000Y-100330000D03*
X82550000Y-102870000D03*
X82550000Y-105410000D03*
X85090000Y-102870000D03*
X85090000Y-105410000D03*
%TD*%
D22*
%TO.C,R14*%
X128905000Y-106490000D03*
X128905000Y-108140000D03*
%TD*%
%TO.C,R18*%
X130937000Y-123254000D03*
X130937000Y-124904000D03*
%TD*%
D21*
%TO.C,U4*%
X177800000Y-105410000D03*
X177800000Y-102870000D03*
X177800000Y-100330000D03*
X177800000Y-97790000D03*
X175260000Y-100330000D03*
X175260000Y-97790000D03*
%TD*%
%TO.C,U5*%
X180340000Y-63500000D03*
X177800000Y-63500000D03*
X175260000Y-63500000D03*
X172720000Y-63500000D03*
X175260000Y-66040000D03*
X172720000Y-66040000D03*
%TD*%
D23*
%TO.C,C4*%
X125095000Y-125504000D03*
X125095000Y-126464000D03*
%TD*%
D22*
%TO.C,R4*%
X178435000Y-75440000D03*
X178435000Y-77090000D03*
%TD*%
D23*
%TO.C,C9*%
X122809000Y-133731000D03*
X122809000Y-134691000D03*
%TD*%
D24*
%TO.C,REF\u002A\u002A*%
X170000000Y-105000000D03*
%TD*%
%TO.C,REF\u002A\u002A*%
X165000000Y-150000000D03*
%TD*%
D25*
%TO.C,J4*%
X108420000Y-102750000D03*
X121920000Y-102750000D03*
D26*
X111570000Y-108750000D03*
D27*
X118770000Y-108750000D03*
%TD*%
D28*
%TO.C,U8*%
X96155000Y-76495000D03*
X96655000Y-76495000D03*
X97155000Y-76495000D03*
X97655000Y-76495000D03*
X98155000Y-76495000D03*
X98155000Y-72095000D03*
X97655000Y-72095000D03*
X97155000Y-72095000D03*
X96655000Y-72095000D03*
X96155000Y-72095000D03*
%TD*%
D18*
%TO.C,J3*%
X157600000Y-111760000D03*
D19*
X160100000Y-111760000D03*
X162600000Y-111760000D03*
X165100000Y-111760000D03*
%TD*%
D29*
%TO.C,R11*%
X177610000Y-88965000D03*
X179260000Y-88965000D03*
%TD*%
D20*
%TO.C,C12*%
X97635000Y-69850000D03*
X96675000Y-69850000D03*
%TD*%
D30*
%TO.C,J9*%
X95250000Y-93980000D03*
D31*
X97790000Y-93980000D03*
X100330000Y-93980000D03*
%TD*%
D32*
%TO.C,C2*%
X136045000Y-137033000D03*
X137005000Y-137033000D03*
%TD*%
D24*
%TO.C,REF\u002A\u002A*%
X165000000Y-65000000D03*
%TD*%
D21*
%TO.C,U7*%
X87630000Y-63500000D03*
X85090000Y-63500000D03*
X82550000Y-63500000D03*
X80010000Y-63500000D03*
X82550000Y-66040000D03*
X80010000Y-66040000D03*
%TD*%
D30*
%TO.C,J13*%
X127015000Y-147320000D03*
D31*
X129555000Y-147320000D03*
X132095000Y-147320000D03*
%TD*%
D33*
%TO.C,SW1*%
X80570000Y-81570000D03*
X87070000Y-81570000D03*
X80570000Y-86070000D03*
X87070000Y-86070000D03*
%TD*%
D34*
%TO.C,J1*%
X134560000Y-102510000D03*
D19*
X132060000Y-102510000D03*
X129560000Y-102510000D03*
X127060000Y-102510000D03*
%TD*%
D24*
%TO.C,REF\u002A\u002A*%
X95000000Y-150000000D03*
%TD*%
D29*
%TO.C,R9*%
X178435000Y-78805000D03*
X180085000Y-78805000D03*
%TD*%
D32*
%TO.C,C1*%
X121821000Y-131826000D03*
X122781000Y-131826000D03*
%TD*%
D17*
%TO.C,R15*%
X129413000Y-124904000D03*
X129413000Y-123254000D03*
%TD*%
D24*
%TO.C,REF\u002A\u002A*%
X95000000Y-65000000D03*
%TD*%
D21*
%TO.C,U1*%
X142240000Y-121920000D03*
X142240000Y-124460000D03*
X142240000Y-127000000D03*
X142240000Y-129540000D03*
X149860000Y-129540000D03*
X149860000Y-127000000D03*
X149860000Y-124460000D03*
X149860000Y-121920000D03*
%TD*%
D32*
%TO.C,C8*%
X126393000Y-139827000D03*
X127353000Y-139827000D03*
%TD*%
D29*
%TO.C,R10*%
X175070000Y-78805000D03*
X176720000Y-78805000D03*
%TD*%
D35*
%TO.C,U3*%
X124373000Y-128584000D03*
X124373000Y-129084000D03*
X124373000Y-129584000D03*
X124373000Y-130084000D03*
X124373000Y-130584000D03*
X124373000Y-131084000D03*
X124373000Y-131584000D03*
X124373000Y-132084000D03*
X124373000Y-132584000D03*
X124373000Y-133084000D03*
X124373000Y-133584000D03*
X124373000Y-134084000D03*
X124373000Y-134584000D03*
X124373000Y-135084000D03*
X124373000Y-135584000D03*
X124373000Y-136084000D03*
D36*
X126298000Y-138009000D03*
X126798000Y-138009000D03*
X127298000Y-138009000D03*
X127798000Y-138009000D03*
X128298000Y-138009000D03*
X128798000Y-138009000D03*
X129298000Y-138009000D03*
X129798000Y-138009000D03*
X130298000Y-138009000D03*
X130798000Y-138009000D03*
X131298000Y-138009000D03*
X131798000Y-138009000D03*
X132298000Y-138009000D03*
X132798000Y-138009000D03*
X133298000Y-138009000D03*
X133798000Y-138009000D03*
D35*
X135723000Y-136084000D03*
X135723000Y-135584000D03*
X135723000Y-135084000D03*
X135723000Y-134584000D03*
X135723000Y-134084000D03*
X135723000Y-133584000D03*
X135723000Y-133084000D03*
X135723000Y-132584000D03*
X135723000Y-132084000D03*
X135723000Y-131584000D03*
X135723000Y-131084000D03*
X135723000Y-130584000D03*
X135723000Y-130084000D03*
X135723000Y-129584000D03*
X135723000Y-129084000D03*
X135723000Y-128584000D03*
D36*
X133798000Y-126659000D03*
X133298000Y-126659000D03*
X132798000Y-126659000D03*
X132298000Y-126659000D03*
X131798000Y-126659000D03*
X131298000Y-126659000D03*
X130798000Y-126659000D03*
X130298000Y-126659000D03*
X129798000Y-126659000D03*
X129298000Y-126659000D03*
X128798000Y-126659000D03*
X128298000Y-126659000D03*
X127798000Y-126659000D03*
X127298000Y-126659000D03*
X126798000Y-126659000D03*
X126298000Y-126659000D03*
%TD*%
D25*
%TO.C,J5*%
X139300000Y-102750000D03*
X152800000Y-102750000D03*
D26*
X142450000Y-108750000D03*
D27*
X149650000Y-108750000D03*
%TD*%
D22*
%TO.C,R8*%
X129365000Y-117920000D03*
X129365000Y-119570000D03*
%TD*%
D32*
%TO.C,C7*%
X137315000Y-128397000D03*
X138275000Y-128397000D03*
%TD*%
D37*
%TO.C,R20*%
X88265000Y-77747500D03*
X88265000Y-75922500D03*
%TD*%
D38*
%TO.C,U14*%
X174625000Y-86295000D03*
X175895000Y-86295000D03*
X177165000Y-86295000D03*
X178435000Y-86295000D03*
X178435000Y-81345000D03*
X177165000Y-81345000D03*
X175895000Y-81345000D03*
X174625000Y-81345000D03*
%TD*%
D39*
%TO.C,R22*%
X88265000Y-70207500D03*
X88265000Y-72032500D03*
%TD*%
D30*
%TO.C,J12*%
X95250000Y-82550000D03*
D31*
X97790000Y-82550000D03*
X100330000Y-82550000D03*
%TD*%
D30*
%TO.C,J10*%
X95250000Y-90170000D03*
D31*
X97790000Y-90170000D03*
X100330000Y-90170000D03*
%TD*%
D22*
%TO.C,R16*%
X127889000Y-123254000D03*
X127889000Y-124904000D03*
%TD*%
D24*
%TO.C,REF\u002A\u002A*%
X90000000Y-105000000D03*
%TD*%
D21*
%TO.C,U6*%
X97790000Y-134620000D03*
X100330000Y-134620000D03*
X102870000Y-134620000D03*
X105410000Y-134620000D03*
X107950000Y-134620000D03*
X110490000Y-134620000D03*
X113030000Y-134620000D03*
X113030000Y-119380000D03*
X110490000Y-119380000D03*
X107950000Y-119380000D03*
X105410000Y-119380000D03*
X102870000Y-119380000D03*
X100330000Y-119380000D03*
X97790000Y-119380000D03*
%TD*%
D37*
%TO.C,FB1*%
X122301000Y-137945500D03*
X122301000Y-136120500D03*
%TD*%
D23*
%TO.C,C10*%
X121793000Y-133759000D03*
X121793000Y-134719000D03*
%TD*%
D17*
%TO.C,R1*%
X90170000Y-86360000D03*
X90170000Y-84710000D03*
%TD*%
D21*
%TO.C,U13*%
X140970000Y-151130000D03*
X143510000Y-151130000D03*
X146050000Y-151130000D03*
X148590000Y-151130000D03*
X151130000Y-151130000D03*
X153670000Y-151130000D03*
X156210000Y-151130000D03*
X158750000Y-151130000D03*
%TD*%
D18*
%TO.C,J8*%
X161410000Y-85090000D03*
D19*
X163910000Y-85090000D03*
X166410000Y-85090000D03*
X168910000Y-85090000D03*
%TD*%
D17*
%TO.C,R5*%
X176530000Y-77090000D03*
X176530000Y-75440000D03*
%TD*%
D29*
%TO.C,R2*%
X131763000Y-139954000D03*
X133413000Y-139954000D03*
%TD*%
D40*
%TO.C,C13*%
X100330000Y-71600000D03*
X100330000Y-70640000D03*
%TD*%
D41*
%TO.C,R19*%
X90447500Y-67310000D03*
X88622500Y-67310000D03*
%TD*%
D42*
%TO.C,J22*%
X84960000Y-70770000D03*
X84960000Y-76550000D03*
D43*
X86035000Y-70460000D03*
X86035000Y-71260000D03*
D44*
X86035000Y-72410000D03*
X86035000Y-73410000D03*
X86035000Y-73910000D03*
X86035000Y-74910000D03*
D43*
X86035000Y-76060000D03*
X86035000Y-76860000D03*
X86035000Y-76860000D03*
X86035000Y-76060000D03*
D44*
X86035000Y-75410000D03*
X86035000Y-74410000D03*
X86035000Y-72910000D03*
X86035000Y-71910000D03*
D43*
X86035000Y-71260000D03*
X86035000Y-70460000D03*
D45*
X85460000Y-69340000D03*
D46*
X81280000Y-69340000D03*
D45*
X85460000Y-77980000D03*
D46*
X81280000Y-77980000D03*
%TD*%
D32*
%TO.C,C3*%
X123119000Y-127381000D03*
X124079000Y-127381000D03*
%TD*%
D30*
%TO.C,J11*%
X95250000Y-86360000D03*
D31*
X97790000Y-86360000D03*
X100330000Y-86360000D03*
%TD*%
D47*
%TO.C,D1*%
X91310000Y-69850000D03*
X94110000Y-69850000D03*
%TD*%
D40*
%TO.C,C6*%
X135128000Y-139164000D03*
X135128000Y-138204000D03*
%TD*%
D48*
%TO.C,BZ1*%
X114220000Y-146050000D03*
D33*
X109220000Y-146050000D03*
%TD*%
D29*
%TO.C,R12*%
X174245000Y-88965000D03*
X175895000Y-88965000D03*
%TD*%
D49*
%TO.C,U12*%
X127635000Y-115655000D03*
X128905000Y-115655000D03*
X130175000Y-115655000D03*
X131445000Y-115655000D03*
X131445000Y-110405000D03*
X130175000Y-110405000D03*
X128905000Y-110405000D03*
X127635000Y-110405000D03*
%TD*%
D39*
%TO.C,R21*%
X91440000Y-75287500D03*
X91440000Y-77112500D03*
%TD*%
D20*
%TO.C,C5*%
X136878000Y-127381000D03*
X135918000Y-127381000D03*
%TD*%
D50*
%TO.C,Q1*%
X124460000Y-115824000D03*
D51*
X124460000Y-114554000D03*
X124460000Y-113284000D03*
%TD*%
D22*
%TO.C,R7*%
X175895000Y-90680000D03*
X175895000Y-92330000D03*
%TD*%
D29*
%TO.C,R17*%
X132144000Y-141605000D03*
X133794000Y-141605000D03*
%TD*%
D17*
%TO.C,R6*%
X177800000Y-92330000D03*
X177800000Y-90680000D03*
%TD*%
D18*
%TO.C,J2*%
X96005000Y-110490000D03*
D19*
X98505000Y-110490000D03*
X101005000Y-110490000D03*
X103505000Y-110490000D03*
%TD*%
D33*
%TO.C,SW2*%
X80570000Y-89190000D03*
X87070000Y-89190000D03*
X80570000Y-93690000D03*
X87070000Y-93690000D03*
%TD*%
D47*
%TO.C,D2*%
X91310000Y-73025000D03*
X94110000Y-73025000D03*
%TD*%
%LPD*%
M02*
