%TF.GenerationSoftware,KiCad,Pcbnew,7.0.9*%
%TF.CreationDate,2025-01-29T15:25:45+09:00*%
%TF.ProjectId,01-MAIN,30312d4d-4149-44e2-9e6b-696361645f70,rev?*%
%TF.SameCoordinates,Original*%
%TF.FileFunction,Paste,Bot*%
%TF.FilePolarity,Positive*%
%FSLAX46Y46*%
G04 Gerber Fmt 4.6, Leading zero omitted, Abs format (unit mm)*
G04 Created by KiCad (PCBNEW 7.0.9) date 2025-01-29 15:25:45*
%MOMM*%
%LPD*%
G01*
G04 APERTURE LIST*
G04 Aperture macros list*
%AMRoundRect*
0 Rectangle with rounded corners*
0 $1 Rounding radius*
0 $2 $3 $4 $5 $6 $7 $8 $9 X,Y pos of 4 corners*
0 Add a 4 corners polygon primitive as box body*
4,1,4,$2,$3,$4,$5,$6,$7,$8,$9,$2,$3,0*
0 Add four circle primitives for the rounded corners*
1,1,$1+$1,$2,$3*
1,1,$1+$1,$4,$5*
1,1,$1+$1,$6,$7*
1,1,$1+$1,$8,$9*
0 Add four rect primitives between the rounded corners*
20,1,$1+$1,$2,$3,$4,$5,0*
20,1,$1+$1,$4,$5,$6,$7,0*
20,1,$1+$1,$6,$7,$8,$9,0*
20,1,$1+$1,$8,$9,$2,$3,0*%
G04 Aperture macros list end*
%ADD10RoundRect,0.243750X-0.456250X0.243750X-0.456250X-0.243750X0.456250X-0.243750X0.456250X0.243750X0*%
%ADD11RoundRect,0.140000X0.140000X0.170000X-0.140000X0.170000X-0.140000X-0.170000X0.140000X-0.170000X0*%
%ADD12R,1.550000X0.600000*%
%ADD13R,2.600000X3.100000*%
%ADD14RoundRect,0.140000X-0.170000X0.140000X-0.170000X-0.140000X0.170000X-0.140000X0.170000X0.140000X0*%
%ADD15RoundRect,0.243750X0.243750X0.456250X-0.243750X0.456250X-0.243750X-0.456250X0.243750X-0.456250X0*%
%ADD16RoundRect,0.225000X0.250000X-0.225000X0.250000X0.225000X-0.250000X0.225000X-0.250000X-0.225000X0*%
%ADD17RoundRect,0.243750X-0.243750X-0.456250X0.243750X-0.456250X0.243750X0.456250X-0.243750X0.456250X0*%
%ADD18RoundRect,0.250000X0.450000X-0.262500X0.450000X0.262500X-0.450000X0.262500X-0.450000X-0.262500X0*%
%ADD19R,1.400000X0.300000*%
%ADD20RoundRect,0.200000X-0.200000X-0.275000X0.200000X-0.275000X0.200000X0.275000X-0.200000X0.275000X0*%
%ADD21RoundRect,0.250000X0.262500X0.450000X-0.262500X0.450000X-0.262500X-0.450000X0.262500X-0.450000X0*%
%ADD22RoundRect,0.200000X0.275000X-0.200000X0.275000X0.200000X-0.275000X0.200000X-0.275000X-0.200000X0*%
%ADD23RoundRect,0.200000X-0.275000X0.200000X-0.275000X-0.200000X0.275000X-0.200000X0.275000X0.200000X0*%
%ADD24RoundRect,1.025000X1.025000X-1.025000X1.025000X1.025000X-1.025000X1.025000X-1.025000X-1.025000X0*%
%ADD25O,1.800000X1.000000*%
%ADD26O,2.100000X1.000000*%
%ADD27RoundRect,0.150000X-0.425000X0.150000X-0.425000X-0.150000X0.425000X-0.150000X0.425000X0.150000X0*%
%ADD28RoundRect,0.075000X-0.500000X0.075000X-0.500000X-0.075000X0.500000X-0.075000X0.500000X0.075000X0*%
%ADD29RoundRect,0.200000X0.200000X0.275000X-0.200000X0.275000X-0.200000X-0.275000X0.200000X-0.275000X0*%
%ADD30RoundRect,0.075000X0.700000X0.075000X-0.700000X0.075000X-0.700000X-0.075000X0.700000X-0.075000X0*%
%ADD31RoundRect,0.075000X0.075000X0.700000X-0.075000X0.700000X-0.075000X-0.700000X0.075000X-0.700000X0*%
%ADD32RoundRect,0.140000X-0.140000X-0.170000X0.140000X-0.170000X0.140000X0.170000X-0.140000X0.170000X0*%
%ADD33RoundRect,0.250000X-0.475000X0.250000X-0.475000X-0.250000X0.475000X-0.250000X0.475000X0.250000X0*%
%ADD34RoundRect,0.150000X-0.150000X0.675000X-0.150000X-0.675000X0.150000X-0.675000X0.150000X0.675000X0*%
%ADD35RoundRect,0.250000X-0.450000X0.262500X-0.450000X-0.262500X0.450000X-0.262500X0.450000X0.262500X0*%
%ADD36RoundRect,0.140000X0.170000X-0.140000X0.170000X0.140000X-0.170000X0.140000X-0.170000X-0.140000X0*%
%ADD37RoundRect,0.250000X-1.000000X-0.650000X1.000000X-0.650000X1.000000X0.650000X-1.000000X0.650000X0*%
%ADD38RoundRect,0.243750X0.456250X-0.243750X0.456250X0.243750X-0.456250X0.243750X-0.456250X-0.243750X0*%
G04 APERTURE END LIST*
D10*
%TO.C,D2*%
X118745000Y-127967500D03*
X118745000Y-129842500D03*
%TD*%
D11*
%TO.C,C12*%
X184601000Y-89688000D03*
X183641000Y-89688000D03*
%TD*%
D12*
%TO.C,U8*%
X125982000Y-111928000D03*
X125982000Y-113198000D03*
X125982000Y-114468000D03*
X125982000Y-115738000D03*
X120582000Y-115738000D03*
X120582000Y-114468000D03*
X120582000Y-113198000D03*
X120582000Y-111928000D03*
D13*
X123282000Y-113833000D03*
%TD*%
D14*
%TO.C,C10*%
X159679000Y-95016000D03*
X159679000Y-95976000D03*
%TD*%
D15*
%TO.C,D7*%
X149636500Y-116916000D03*
X147761500Y-116916000D03*
%TD*%
D16*
%TO.C,C17*%
X128016000Y-112344000D03*
X128016000Y-110794000D03*
%TD*%
D17*
%TO.C,D4*%
X197211500Y-95486000D03*
X199086500Y-95486000D03*
%TD*%
D18*
%TO.C,R9*%
X190754000Y-93622500D03*
X190754000Y-91797500D03*
%TD*%
D19*
%TO.C,U6*%
X188468000Y-91218000D03*
X188468000Y-91718000D03*
X188468000Y-92218000D03*
X188468000Y-92718000D03*
X188468000Y-93218000D03*
X184068000Y-93218000D03*
X184068000Y-92718000D03*
X184068000Y-92218000D03*
X184068000Y-91718000D03*
X184068000Y-91218000D03*
%TD*%
D20*
%TO.C,R18*%
X122111000Y-117411000D03*
X123761000Y-117411000D03*
%TD*%
D12*
%TO.C,U7*%
X155555000Y-111179000D03*
X155555000Y-112449000D03*
X155555000Y-113719000D03*
X155555000Y-114989000D03*
X150155000Y-114989000D03*
X150155000Y-113719000D03*
X150155000Y-112449000D03*
X150155000Y-111179000D03*
D13*
X152855000Y-113084000D03*
%TD*%
D21*
%TO.C,R11*%
X193952500Y-82296000D03*
X192127500Y-82296000D03*
%TD*%
D22*
%TO.C,R7*%
X118745000Y-70485000D03*
X118745000Y-68835000D03*
%TD*%
D11*
%TO.C,C4*%
X155587000Y-101084000D03*
X154627000Y-101084000D03*
%TD*%
D20*
%TO.C,R17*%
X151176000Y-116662000D03*
X152826000Y-116662000D03*
%TD*%
D23*
%TO.C,R15*%
X128016000Y-114046000D03*
X128016000Y-115696000D03*
%TD*%
D20*
%TO.C,R1*%
X140653000Y-74676000D03*
X142303000Y-74676000D03*
%TD*%
%TO.C,R4*%
X137859000Y-83820000D03*
X139509000Y-83820000D03*
%TD*%
D24*
%TO.C,L2*%
X135128000Y-107911000D03*
X135128000Y-117411000D03*
%TD*%
D25*
%TO.C,J4*%
X197612000Y-84580000D03*
D26*
X193432000Y-84580000D03*
D25*
X197612000Y-93220000D03*
D26*
X193432000Y-93220000D03*
D27*
X192857000Y-85700000D03*
X192857000Y-86500000D03*
D28*
X192857000Y-87650000D03*
X192857000Y-88650000D03*
X192857000Y-89150000D03*
X192857000Y-90150000D03*
D27*
X192857000Y-91300000D03*
X192857000Y-92100000D03*
X192857000Y-92100000D03*
X192857000Y-91300000D03*
D28*
X192857000Y-90650000D03*
X192857000Y-89650000D03*
X192857000Y-88150000D03*
X192857000Y-87150000D03*
D27*
X192857000Y-86500000D03*
X192857000Y-85700000D03*
%TD*%
D29*
%TO.C,R3*%
X139255000Y-74676000D03*
X137605000Y-74676000D03*
%TD*%
D30*
%TO.C,U1*%
X157988000Y-90004000D03*
X157988000Y-90504000D03*
X157988000Y-91004000D03*
X157988000Y-91504000D03*
X157988000Y-92004000D03*
X157988000Y-92504000D03*
X157988000Y-93004000D03*
X157988000Y-93504000D03*
X157988000Y-94004000D03*
X157988000Y-94504000D03*
X157988000Y-95004000D03*
X157988000Y-95504000D03*
X157988000Y-96004000D03*
X157988000Y-96504000D03*
X157988000Y-97004000D03*
X157988000Y-97504000D03*
D31*
X156063000Y-99429000D03*
X155563000Y-99429000D03*
X155063000Y-99429000D03*
X154563000Y-99429000D03*
X154063000Y-99429000D03*
X153563000Y-99429000D03*
X153063000Y-99429000D03*
X152563000Y-99429000D03*
X152063000Y-99429000D03*
X151563000Y-99429000D03*
X151063000Y-99429000D03*
X150563000Y-99429000D03*
X150063000Y-99429000D03*
X149563000Y-99429000D03*
X149063000Y-99429000D03*
X148563000Y-99429000D03*
D30*
X146638000Y-97504000D03*
X146638000Y-97004000D03*
X146638000Y-96504000D03*
X146638000Y-96004000D03*
X146638000Y-95504000D03*
X146638000Y-95004000D03*
X146638000Y-94504000D03*
X146638000Y-94004000D03*
X146638000Y-93504000D03*
X146638000Y-93004000D03*
X146638000Y-92504000D03*
X146638000Y-92004000D03*
X146638000Y-91504000D03*
X146638000Y-91004000D03*
X146638000Y-90504000D03*
X146638000Y-90004000D03*
D31*
X148563000Y-88079000D03*
X149063000Y-88079000D03*
X149563000Y-88079000D03*
X150063000Y-88079000D03*
X150563000Y-88079000D03*
X151063000Y-88079000D03*
X151563000Y-88079000D03*
X152063000Y-88079000D03*
X152563000Y-88079000D03*
X153063000Y-88079000D03*
X153563000Y-88079000D03*
X154063000Y-88079000D03*
X154563000Y-88079000D03*
X155063000Y-88079000D03*
X155563000Y-88079000D03*
X156063000Y-88079000D03*
%TD*%
D29*
%TO.C,R14*%
X155874000Y-116662000D03*
X154224000Y-116662000D03*
%TD*%
D14*
%TO.C,C11*%
X160695000Y-95016000D03*
X160695000Y-95976000D03*
%TD*%
D32*
%TO.C,C9*%
X137724000Y-85090000D03*
X138684000Y-85090000D03*
%TD*%
D20*
%TO.C,R6*%
X151321000Y-101346000D03*
X152971000Y-101346000D03*
%TD*%
D33*
%TO.C,C15*%
X118364000Y-112905000D03*
X118364000Y-114805000D03*
%TD*%
D17*
%TO.C,D3*%
X197211500Y-82278000D03*
X199086500Y-82278000D03*
%TD*%
D34*
%TO.C,U2*%
X138049000Y-76623000D03*
X139319000Y-76623000D03*
X140589000Y-76623000D03*
X141859000Y-76623000D03*
X141859000Y-81873000D03*
X140589000Y-81873000D03*
X139319000Y-81873000D03*
X138049000Y-81873000D03*
%TD*%
D23*
%TO.C,R13*%
X157589000Y-115075000D03*
X157589000Y-116725000D03*
%TD*%
D33*
%TO.C,C14*%
X147937000Y-112156000D03*
X147937000Y-114056000D03*
%TD*%
D35*
%TO.C,R8*%
X118745000Y-124182500D03*
X118745000Y-126007500D03*
%TD*%
D15*
%TO.C,D8*%
X120571500Y-117665000D03*
X118696500Y-117665000D03*
%TD*%
D16*
%TO.C,C16*%
X157589000Y-111087000D03*
X157589000Y-109537000D03*
%TD*%
D36*
%TO.C,C5*%
X147487000Y-100576000D03*
X147487000Y-99616000D03*
%TD*%
D23*
%TO.C,R2*%
X191008000Y-104585000D03*
X191008000Y-106235000D03*
%TD*%
D29*
%TO.C,R12*%
X195672000Y-95486000D03*
X194022000Y-95486000D03*
%TD*%
D32*
%TO.C,C13*%
X183641000Y-94768000D03*
X184601000Y-94768000D03*
%TD*%
D22*
%TO.C,R10*%
X195580000Y-82613000D03*
X195580000Y-80963000D03*
%TD*%
D29*
%TO.C,R16*%
X126809000Y-117411000D03*
X125159000Y-117411000D03*
%TD*%
D36*
%TO.C,C6*%
X144947000Y-90642000D03*
X144947000Y-89682000D03*
%TD*%
D14*
%TO.C,C1*%
X191000000Y-108000000D03*
X191000000Y-108960000D03*
%TD*%
D37*
%TO.C,D6*%
X120936000Y-108521000D03*
X124936000Y-108521000D03*
%TD*%
D29*
%TO.C,R5*%
X142557000Y-83820000D03*
X140907000Y-83820000D03*
%TD*%
D37*
%TO.C,D5*%
X150763000Y-108026000D03*
X154763000Y-108026000D03*
%TD*%
D32*
%TO.C,C8*%
X155135000Y-86352000D03*
X156095000Y-86352000D03*
%TD*%
D11*
%TO.C,C2*%
X149999000Y-101084000D03*
X149039000Y-101084000D03*
%TD*%
D14*
%TO.C,C3*%
X159679000Y-88920000D03*
X159679000Y-89880000D03*
%TD*%
D35*
%TO.C,FB1*%
X162219000Y-93821500D03*
X162219000Y-95646500D03*
%TD*%
D24*
%TO.C,L1*%
X163939000Y-108356000D03*
X163939000Y-117856000D03*
%TD*%
D32*
%TO.C,C7*%
X157167000Y-87622000D03*
X158127000Y-87622000D03*
%TD*%
D38*
%TO.C,D1*%
X118745000Y-66977500D03*
X118745000Y-65102500D03*
%TD*%
M02*
