M48
; DRILL file {KiCad 7.0.9} date Tue Oct  1 14:40:40 2024
; FORMAT={-:-/ absolute / inch / decimal}
; #@! TF.CreationDate,2024-10-01T14:40:40+09:00
; #@! TF.GenerationSoftware,Kicad,Pcbnew,7.0.9
; #@! TF.FileFunction,Plated,1,2,PTH
FMAT,2
INCH
; #@! TA.AperFunction,Plated,PTH,ViaDrill
T1C0.0157
; #@! TA.AperFunction,Plated,PTH,ComponentDrill
T2C0.0300
; #@! TA.AperFunction,Plated,PTH,ComponentDrill
T3C0.0374
; #@! TA.AperFunction,Plated,PTH,ComponentDrill
T4C0.0394
%
G90
G05
T1
X4.0Y-3.625
X4.0Y-4.0
X4.025Y-4.675
X4.1Y-4.225
X4.1Y-4.45
X4.25Y-4.275
X4.475Y-4.5
X4.5Y-3.85
X4.7Y-3.975
X4.775Y-3.05
X4.825Y-2.45
X4.85Y-4.525
X5.0Y-4.225
X5.0Y-4.65
X5.05Y-3.275
X5.05Y-3.575
X5.075Y-3.025
X5.2Y-3.275
X5.2Y-4.425
X5.275Y-3.775
X5.3Y-2.625
X5.375Y-3.7
X5.375Y-3.8215
X5.4Y-2.575
X5.45Y-3.425
X5.475Y-3.3
X5.48Y-3.52
X5.5Y-2.6
X5.525Y-3.425
X5.5317Y-3.7465
X5.55Y-4.225
X5.5525Y-3.7129
X5.5681Y-3.525
X5.5718Y-3.6726
X5.575Y-3.975
X5.725Y-3.975
X5.725Y-4.075
X5.725Y-4.25
X5.7315Y-3.7215
X5.7886Y-3.6961
X5.8Y-3.8
X5.825Y-4.15
X5.85Y-3.4
X5.85Y-3.88
X5.875Y-3.5
X5.875Y-3.6
X5.88Y-3.67
X5.9Y-3.8
X5.925Y-3.85
X5.925Y-4.25
X5.94Y-3.66
X6.025Y-3.425
X6.06Y-3.66
X6.1Y-4.425
X6.125Y-4.2
X6.15Y-4.0
X6.225Y-4.1
X6.25Y-3.875
X6.25Y-4.25
X6.275Y-3.625
X6.325Y-3.7
X6.425Y-3.6
X6.5Y-3.825
X6.525Y-3.6
X6.625Y-4.3
X6.67Y-3.55
X6.67Y-3.65
X6.675Y-4.225
X6.7Y-2.6
X6.7Y-3.4
X6.73Y-3.5
X6.875Y-4.0
X6.9Y-3.55
X6.9Y-3.84
X6.925Y-4.2
X6.975Y-2.875
X7.15Y-2.6
X7.175Y-3.575
X7.25Y-4.05
X7.35Y-2.45
X7.35Y-4.175
X7.375Y-3.075
X7.4Y-3.95
X7.425Y-4.05
X7.55Y-4.125
X8.175Y-3.625
X8.2Y-4.675
X8.225Y-4.4
T2
X4.1Y-4.35
X4.2Y-4.35
X4.3Y-3.95
X4.3Y-4.35
X4.4Y-3.95
X4.4Y-4.35
X5.0Y-4.35
X5.1Y-4.35
X5.2Y-3.95
X5.2Y-4.35
X5.3Y-3.95
X5.3Y-4.35
X5.48Y-3.6
X5.48Y-3.7
X5.48Y-3.8
X5.48Y-3.9
X5.48Y-4.0
X5.48Y-4.1
X5.48Y-4.2
X5.48Y-4.3
X5.9Y-4.35
X6.0Y-4.35
X6.1Y-3.95
X6.1Y-4.35
X6.2Y-3.95
X6.2Y-4.35
X6.6Y-3.6
X6.6Y-3.7
X6.6Y-3.8
X6.6Y-3.9
X6.6Y-4.0
X6.6Y-4.1
X6.75Y-3.6
X6.75Y-3.7
X6.75Y-3.8
X6.75Y-3.9
X6.75Y-4.0
X6.75Y-4.1
X6.75Y-4.2
X6.75Y-4.3
X7.0Y-4.35
X7.1Y-4.35
X7.2Y-3.95
X7.2Y-4.35
X7.3Y-3.95
X7.3Y-4.35
X7.8Y-4.35
X7.9Y-4.35
X8.0Y-3.95
X8.0Y-4.35
X8.1Y-3.95
X8.1Y-4.35
T3
X5.2Y-2.6047
X5.2Y-2.7031
X5.2Y-2.8016
X5.2Y-2.9
T4
X6.4Y-3.95
X6.4Y-4.05
X6.4Y-4.15
X6.4Y-4.25
X6.5Y-3.95
X6.5Y-4.05
X6.5Y-4.15
X6.5Y-4.25
T0
M30
