%TF.GenerationSoftware,KiCad,Pcbnew,7.0.9*%
%TF.CreationDate,2024-10-01T14:40:39+09:00*%
%TF.ProjectId,03-front,30332d66-726f-46e7-942e-6b696361645f,rev?*%
%TF.SameCoordinates,Original*%
%TF.FileFunction,Legend,Top*%
%TF.FilePolarity,Positive*%
%FSLAX46Y46*%
G04 Gerber Fmt 4.6, Leading zero omitted, Abs format (unit mm)*
G04 Created by KiCad (PCBNEW 7.0.9) date 2024-10-01 14:40:39*
%MOMM*%
%LPD*%
G01*
G04 APERTURE LIST*
G04 Aperture macros list*
%AMRoundRect*
0 Rectangle with rounded corners*
0 $1 Rounding radius*
0 $2 $3 $4 $5 $6 $7 $8 $9 X,Y pos of 4 corners*
0 Add a 4 corners polygon primitive as box body*
4,1,4,$2,$3,$4,$5,$6,$7,$8,$9,$2,$3,0*
0 Add four circle primitives for the rounded corners*
1,1,$1+$1,$2,$3*
1,1,$1+$1,$4,$5*
1,1,$1+$1,$6,$7*
1,1,$1+$1,$8,$9*
0 Add four rect primitives between the rounded corners*
20,1,$1+$1,$2,$3,$4,$5,0*
20,1,$1+$1,$4,$5,$6,$7,0*
20,1,$1+$1,$6,$7,$8,$9,0*
20,1,$1+$1,$8,$9,$2,$3,0*%
G04 Aperture macros list end*
%ADD10C,0.150000*%
%ADD11C,0.100000*%
%ADD12C,0.152400*%
%ADD13C,0.120000*%
%ADD14C,1.524000*%
%ADD15R,1.500000X0.900000*%
%ADD16C,3.200000*%
%ADD17R,0.900000X1.500000*%
%ADD18R,1.700000X1.700000*%
%ADD19O,1.700000X1.700000*%
%ADD20RoundRect,0.250000X-0.725000X0.600000X-0.725000X-0.600000X0.725000X-0.600000X0.725000X0.600000X0*%
%ADD21O,1.950000X1.700000*%
G04 APERTURE END LIST*
D10*
X140576541Y-108724819D02*
X141195588Y-108724819D01*
X141195588Y-108724819D02*
X140862255Y-109105771D01*
X140862255Y-109105771D02*
X141005112Y-109105771D01*
X141005112Y-109105771D02*
X141100350Y-109153390D01*
X141100350Y-109153390D02*
X141147969Y-109201009D01*
X141147969Y-109201009D02*
X141195588Y-109296247D01*
X141195588Y-109296247D02*
X141195588Y-109534342D01*
X141195588Y-109534342D02*
X141147969Y-109629580D01*
X141147969Y-109629580D02*
X141100350Y-109677200D01*
X141100350Y-109677200D02*
X141005112Y-109724819D01*
X141005112Y-109724819D02*
X140719398Y-109724819D01*
X140719398Y-109724819D02*
X140624160Y-109677200D01*
X140624160Y-109677200D02*
X140576541Y-109629580D01*
X141481303Y-108724819D02*
X141814636Y-109724819D01*
X141814636Y-109724819D02*
X142147969Y-108724819D01*
X142386065Y-108724819D02*
X143005112Y-108724819D01*
X143005112Y-108724819D02*
X142671779Y-109105771D01*
X142671779Y-109105771D02*
X142814636Y-109105771D01*
X142814636Y-109105771D02*
X142909874Y-109153390D01*
X142909874Y-109153390D02*
X142957493Y-109201009D01*
X142957493Y-109201009D02*
X143005112Y-109296247D01*
X143005112Y-109296247D02*
X143005112Y-109534342D01*
X143005112Y-109534342D02*
X142957493Y-109629580D01*
X142957493Y-109629580D02*
X142909874Y-109677200D01*
X142909874Y-109677200D02*
X142814636Y-109724819D01*
X142814636Y-109724819D02*
X142528922Y-109724819D01*
X142528922Y-109724819D02*
X142433684Y-109677200D01*
X142433684Y-109677200D02*
X142386065Y-109629580D01*
X162166541Y-98294819D02*
X162690350Y-97628152D01*
X162166541Y-97628152D02*
X162690350Y-98294819D01*
X173580588Y-108772438D02*
X173485350Y-108724819D01*
X173485350Y-108724819D02*
X173342493Y-108724819D01*
X173342493Y-108724819D02*
X173199636Y-108772438D01*
X173199636Y-108772438D02*
X173104398Y-108867676D01*
X173104398Y-108867676D02*
X173056779Y-108962914D01*
X173056779Y-108962914D02*
X173009160Y-109153390D01*
X173009160Y-109153390D02*
X173009160Y-109296247D01*
X173009160Y-109296247D02*
X173056779Y-109486723D01*
X173056779Y-109486723D02*
X173104398Y-109581961D01*
X173104398Y-109581961D02*
X173199636Y-109677200D01*
X173199636Y-109677200D02*
X173342493Y-109724819D01*
X173342493Y-109724819D02*
X173437731Y-109724819D01*
X173437731Y-109724819D02*
X173580588Y-109677200D01*
X173580588Y-109677200D02*
X173628207Y-109629580D01*
X173628207Y-109629580D02*
X173628207Y-109296247D01*
X173628207Y-109296247D02*
X173437731Y-109296247D01*
X174056779Y-109724819D02*
X174056779Y-108724819D01*
X174056779Y-108724819D02*
X174628207Y-109724819D01*
X174628207Y-109724819D02*
X174628207Y-108724819D01*
X175104398Y-109724819D02*
X175104398Y-108724819D01*
X175104398Y-108724819D02*
X175342493Y-108724819D01*
X175342493Y-108724819D02*
X175485350Y-108772438D01*
X175485350Y-108772438D02*
X175580588Y-108867676D01*
X175580588Y-108867676D02*
X175628207Y-108962914D01*
X175628207Y-108962914D02*
X175675826Y-109153390D01*
X175675826Y-109153390D02*
X175675826Y-109296247D01*
X175675826Y-109296247D02*
X175628207Y-109486723D01*
X175628207Y-109486723D02*
X175580588Y-109581961D01*
X175580588Y-109581961D02*
X175485350Y-109677200D01*
X175485350Y-109677200D02*
X175342493Y-109724819D01*
X175342493Y-109724819D02*
X175104398Y-109724819D01*
X162166541Y-110359819D02*
X162690350Y-109693152D01*
X162166541Y-109693152D02*
X162690350Y-110359819D01*
D11*
X202438095Y-106137419D02*
X202438095Y-106946942D01*
X202438095Y-106946942D02*
X202485714Y-107042180D01*
X202485714Y-107042180D02*
X202533333Y-107089800D01*
X202533333Y-107089800D02*
X202628571Y-107137419D01*
X202628571Y-107137419D02*
X202819047Y-107137419D01*
X202819047Y-107137419D02*
X202914285Y-107089800D01*
X202914285Y-107089800D02*
X202961904Y-107042180D01*
X202961904Y-107042180D02*
X203009523Y-106946942D01*
X203009523Y-106946942D02*
X203009523Y-106137419D01*
X203914285Y-106137419D02*
X203723809Y-106137419D01*
X203723809Y-106137419D02*
X203628571Y-106185038D01*
X203628571Y-106185038D02*
X203580952Y-106232657D01*
X203580952Y-106232657D02*
X203485714Y-106375514D01*
X203485714Y-106375514D02*
X203438095Y-106565990D01*
X203438095Y-106565990D02*
X203438095Y-106946942D01*
X203438095Y-106946942D02*
X203485714Y-107042180D01*
X203485714Y-107042180D02*
X203533333Y-107089800D01*
X203533333Y-107089800D02*
X203628571Y-107137419D01*
X203628571Y-107137419D02*
X203819047Y-107137419D01*
X203819047Y-107137419D02*
X203914285Y-107089800D01*
X203914285Y-107089800D02*
X203961904Y-107042180D01*
X203961904Y-107042180D02*
X204009523Y-106946942D01*
X204009523Y-106946942D02*
X204009523Y-106708847D01*
X204009523Y-106708847D02*
X203961904Y-106613609D01*
X203961904Y-106613609D02*
X203914285Y-106565990D01*
X203914285Y-106565990D02*
X203819047Y-106518371D01*
X203819047Y-106518371D02*
X203628571Y-106518371D01*
X203628571Y-106518371D02*
X203533333Y-106565990D01*
X203533333Y-106565990D02*
X203485714Y-106613609D01*
X203485714Y-106613609D02*
X203438095Y-106708847D01*
X199593570Y-104931371D02*
X199822142Y-104931371D01*
X199679285Y-104731371D02*
X199679285Y-105245657D01*
X199679285Y-105245657D02*
X199707856Y-105302800D01*
X199707856Y-105302800D02*
X199764999Y-105331371D01*
X199764999Y-105331371D02*
X199822142Y-105331371D01*
X200279285Y-104931371D02*
X200279285Y-105331371D01*
X200022142Y-104931371D02*
X200022142Y-105245657D01*
X200022142Y-105245657D02*
X200050713Y-105302800D01*
X200050713Y-105302800D02*
X200107856Y-105331371D01*
X200107856Y-105331371D02*
X200193570Y-105331371D01*
X200193570Y-105331371D02*
X200250713Y-105302800D01*
X200250713Y-105302800D02*
X200279285Y-105274228D01*
X200479284Y-104931371D02*
X200707856Y-104931371D01*
X200564999Y-104731371D02*
X200564999Y-105245657D01*
X200564999Y-105245657D02*
X200593570Y-105302800D01*
X200593570Y-105302800D02*
X200650713Y-105331371D01*
X200650713Y-105331371D02*
X200707856Y-105331371D01*
X200993570Y-105331371D02*
X200936427Y-105302800D01*
X200936427Y-105302800D02*
X200907856Y-105274228D01*
X200907856Y-105274228D02*
X200879284Y-105217085D01*
X200879284Y-105217085D02*
X200879284Y-105045657D01*
X200879284Y-105045657D02*
X200907856Y-104988514D01*
X200907856Y-104988514D02*
X200936427Y-104959942D01*
X200936427Y-104959942D02*
X200993570Y-104931371D01*
X200993570Y-104931371D02*
X201079284Y-104931371D01*
X201079284Y-104931371D02*
X201136427Y-104959942D01*
X201136427Y-104959942D02*
X201164999Y-104988514D01*
X201164999Y-104988514D02*
X201193570Y-105045657D01*
X201193570Y-105045657D02*
X201193570Y-105217085D01*
X201193570Y-105217085D02*
X201164999Y-105274228D01*
X201164999Y-105274228D02*
X201136427Y-105302800D01*
X201136427Y-105302800D02*
X201079284Y-105331371D01*
X201079284Y-105331371D02*
X200993570Y-105331371D01*
X201450713Y-104931371D02*
X201450713Y-105331371D01*
X201450713Y-104988514D02*
X201479284Y-104959942D01*
X201479284Y-104959942D02*
X201536427Y-104931371D01*
X201536427Y-104931371D02*
X201622141Y-104931371D01*
X201622141Y-104931371D02*
X201679284Y-104959942D01*
X201679284Y-104959942D02*
X201707856Y-105017085D01*
X201707856Y-105017085D02*
X201707856Y-105331371D01*
X201850713Y-105388514D02*
X202307855Y-105388514D01*
X202393570Y-104931371D02*
X202536427Y-105331371D01*
X202536427Y-105331371D02*
X202679284Y-104931371D01*
X202993570Y-105331371D02*
X202936427Y-105302800D01*
X202936427Y-105302800D02*
X202907856Y-105245657D01*
X202907856Y-105245657D02*
X202907856Y-104731371D01*
X203507856Y-104731371D02*
X203222142Y-104731371D01*
X203222142Y-104731371D02*
X203193570Y-105017085D01*
X203193570Y-105017085D02*
X203222142Y-104988514D01*
X203222142Y-104988514D02*
X203279285Y-104959942D01*
X203279285Y-104959942D02*
X203422142Y-104959942D01*
X203422142Y-104959942D02*
X203479285Y-104988514D01*
X203479285Y-104988514D02*
X203507856Y-105017085D01*
X203507856Y-105017085D02*
X203536427Y-105074228D01*
X203536427Y-105074228D02*
X203536427Y-105217085D01*
X203536427Y-105217085D02*
X203507856Y-105274228D01*
X203507856Y-105274228D02*
X203479285Y-105302800D01*
X203479285Y-105302800D02*
X203422142Y-105331371D01*
X203422142Y-105331371D02*
X203279285Y-105331371D01*
X203279285Y-105331371D02*
X203222142Y-105302800D01*
X203222142Y-105302800D02*
X203193570Y-105274228D01*
X203736428Y-104731371D02*
X204107856Y-104731371D01*
X204107856Y-104731371D02*
X203907856Y-104959942D01*
X203907856Y-104959942D02*
X203993571Y-104959942D01*
X203993571Y-104959942D02*
X204050714Y-104988514D01*
X204050714Y-104988514D02*
X204079285Y-105017085D01*
X204079285Y-105017085D02*
X204107856Y-105074228D01*
X204107856Y-105074228D02*
X204107856Y-105217085D01*
X204107856Y-105217085D02*
X204079285Y-105274228D01*
X204079285Y-105274228D02*
X204050714Y-105302800D01*
X204050714Y-105302800D02*
X203993571Y-105331371D01*
X203993571Y-105331371D02*
X203822142Y-105331371D01*
X203822142Y-105331371D02*
X203764999Y-105302800D01*
X203764999Y-105302800D02*
X203736428Y-105274228D01*
X204450714Y-105331371D02*
X204393571Y-105302800D01*
X204393571Y-105302800D02*
X204365000Y-105245657D01*
X204365000Y-105245657D02*
X204365000Y-104731371D01*
X204793571Y-104731371D02*
X204850714Y-104731371D01*
X204850714Y-104731371D02*
X204907857Y-104759942D01*
X204907857Y-104759942D02*
X204936429Y-104788514D01*
X204936429Y-104788514D02*
X204965000Y-104845657D01*
X204965000Y-104845657D02*
X204993571Y-104959942D01*
X204993571Y-104959942D02*
X204993571Y-105102800D01*
X204993571Y-105102800D02*
X204965000Y-105217085D01*
X204965000Y-105217085D02*
X204936429Y-105274228D01*
X204936429Y-105274228D02*
X204907857Y-105302800D01*
X204907857Y-105302800D02*
X204850714Y-105331371D01*
X204850714Y-105331371D02*
X204793571Y-105331371D01*
X204793571Y-105331371D02*
X204736429Y-105302800D01*
X204736429Y-105302800D02*
X204707857Y-105274228D01*
X204707857Y-105274228D02*
X204679286Y-105217085D01*
X204679286Y-105217085D02*
X204650714Y-105102800D01*
X204650714Y-105102800D02*
X204650714Y-104959942D01*
X204650714Y-104959942D02*
X204679286Y-104845657D01*
X204679286Y-104845657D02*
X204707857Y-104788514D01*
X204707857Y-104788514D02*
X204736429Y-104759942D01*
X204736429Y-104759942D02*
X204793571Y-104731371D01*
X205193572Y-105331371D02*
X205507858Y-104931371D01*
X205193572Y-104931371D02*
X205507858Y-105331371D01*
D12*
X202292857Y-109082535D02*
X202401715Y-109118820D01*
X202401715Y-109118820D02*
X202583143Y-109118820D01*
X202583143Y-109118820D02*
X202655715Y-109082535D01*
X202655715Y-109082535D02*
X202692000Y-109046249D01*
X202692000Y-109046249D02*
X202728286Y-108973677D01*
X202728286Y-108973677D02*
X202728286Y-108901106D01*
X202728286Y-108901106D02*
X202692000Y-108828535D01*
X202692000Y-108828535D02*
X202655715Y-108792249D01*
X202655715Y-108792249D02*
X202583143Y-108755963D01*
X202583143Y-108755963D02*
X202438000Y-108719677D01*
X202438000Y-108719677D02*
X202365429Y-108683392D01*
X202365429Y-108683392D02*
X202329143Y-108647106D01*
X202329143Y-108647106D02*
X202292857Y-108574535D01*
X202292857Y-108574535D02*
X202292857Y-108501963D01*
X202292857Y-108501963D02*
X202329143Y-108429392D01*
X202329143Y-108429392D02*
X202365429Y-108393106D01*
X202365429Y-108393106D02*
X202438000Y-108356820D01*
X202438000Y-108356820D02*
X202619429Y-108356820D01*
X202619429Y-108356820D02*
X202728286Y-108393106D01*
X203490286Y-109046249D02*
X203454000Y-109082535D01*
X203454000Y-109082535D02*
X203345143Y-109118820D01*
X203345143Y-109118820D02*
X203272571Y-109118820D01*
X203272571Y-109118820D02*
X203163714Y-109082535D01*
X203163714Y-109082535D02*
X203091143Y-109009963D01*
X203091143Y-109009963D02*
X203054857Y-108937392D01*
X203054857Y-108937392D02*
X203018571Y-108792249D01*
X203018571Y-108792249D02*
X203018571Y-108683392D01*
X203018571Y-108683392D02*
X203054857Y-108538249D01*
X203054857Y-108538249D02*
X203091143Y-108465677D01*
X203091143Y-108465677D02*
X203163714Y-108393106D01*
X203163714Y-108393106D02*
X203272571Y-108356820D01*
X203272571Y-108356820D02*
X203345143Y-108356820D01*
X203345143Y-108356820D02*
X203454000Y-108393106D01*
X203454000Y-108393106D02*
X203490286Y-108429392D01*
X204179714Y-109118820D02*
X203816857Y-109118820D01*
X203816857Y-109118820D02*
X203816857Y-108356820D01*
X202946000Y-102006820D02*
X203454000Y-102768820D01*
X203454000Y-102006820D02*
X202946000Y-102768820D01*
X205939571Y-102043106D02*
X205867000Y-102006820D01*
X205867000Y-102006820D02*
X205758142Y-102006820D01*
X205758142Y-102006820D02*
X205649285Y-102043106D01*
X205649285Y-102043106D02*
X205576714Y-102115677D01*
X205576714Y-102115677D02*
X205540428Y-102188249D01*
X205540428Y-102188249D02*
X205504142Y-102333392D01*
X205504142Y-102333392D02*
X205504142Y-102442249D01*
X205504142Y-102442249D02*
X205540428Y-102587392D01*
X205540428Y-102587392D02*
X205576714Y-102659963D01*
X205576714Y-102659963D02*
X205649285Y-102732535D01*
X205649285Y-102732535D02*
X205758142Y-102768820D01*
X205758142Y-102768820D02*
X205830714Y-102768820D01*
X205830714Y-102768820D02*
X205939571Y-102732535D01*
X205939571Y-102732535D02*
X205975857Y-102696249D01*
X205975857Y-102696249D02*
X205975857Y-102442249D01*
X205975857Y-102442249D02*
X205830714Y-102442249D01*
X200079428Y-108393106D02*
X200006857Y-108356820D01*
X200006857Y-108356820D02*
X199897999Y-108356820D01*
X199897999Y-108356820D02*
X199789142Y-108393106D01*
X199789142Y-108393106D02*
X199716571Y-108465677D01*
X199716571Y-108465677D02*
X199680285Y-108538249D01*
X199680285Y-108538249D02*
X199643999Y-108683392D01*
X199643999Y-108683392D02*
X199643999Y-108792249D01*
X199643999Y-108792249D02*
X199680285Y-108937392D01*
X199680285Y-108937392D02*
X199716571Y-109009963D01*
X199716571Y-109009963D02*
X199789142Y-109082535D01*
X199789142Y-109082535D02*
X199897999Y-109118820D01*
X199897999Y-109118820D02*
X199970571Y-109118820D01*
X199970571Y-109118820D02*
X200079428Y-109082535D01*
X200079428Y-109082535D02*
X200115714Y-109046249D01*
X200115714Y-109046249D02*
X200115714Y-108792249D01*
X200115714Y-108792249D02*
X199970571Y-108792249D01*
X200442285Y-109118820D02*
X200442285Y-108356820D01*
X200442285Y-108356820D02*
X200877714Y-109118820D01*
X200877714Y-109118820D02*
X200877714Y-108356820D01*
X201240571Y-109118820D02*
X201240571Y-108356820D01*
X201240571Y-108356820D02*
X201422000Y-108356820D01*
X201422000Y-108356820D02*
X201530857Y-108393106D01*
X201530857Y-108393106D02*
X201603428Y-108465677D01*
X201603428Y-108465677D02*
X201639714Y-108538249D01*
X201639714Y-108538249D02*
X201676000Y-108683392D01*
X201676000Y-108683392D02*
X201676000Y-108792249D01*
X201676000Y-108792249D02*
X201639714Y-108937392D01*
X201639714Y-108937392D02*
X201603428Y-109009963D01*
X201603428Y-109009963D02*
X201530857Y-109082535D01*
X201530857Y-109082535D02*
X201422000Y-109118820D01*
X201422000Y-109118820D02*
X201240571Y-109118820D01*
X197176572Y-108356820D02*
X197648286Y-108356820D01*
X197648286Y-108356820D02*
X197394286Y-108647106D01*
X197394286Y-108647106D02*
X197503143Y-108647106D01*
X197503143Y-108647106D02*
X197575715Y-108683392D01*
X197575715Y-108683392D02*
X197612000Y-108719677D01*
X197612000Y-108719677D02*
X197648286Y-108792249D01*
X197648286Y-108792249D02*
X197648286Y-108973677D01*
X197648286Y-108973677D02*
X197612000Y-109046249D01*
X197612000Y-109046249D02*
X197575715Y-109082535D01*
X197575715Y-109082535D02*
X197503143Y-109118820D01*
X197503143Y-109118820D02*
X197285429Y-109118820D01*
X197285429Y-109118820D02*
X197212857Y-109082535D01*
X197212857Y-109082535D02*
X197176572Y-109046249D01*
X197866000Y-108356820D02*
X198120000Y-109118820D01*
X198120000Y-109118820D02*
X198374000Y-108356820D01*
X198555429Y-108356820D02*
X199027143Y-108356820D01*
X199027143Y-108356820D02*
X198773143Y-108647106D01*
X198773143Y-108647106D02*
X198882000Y-108647106D01*
X198882000Y-108647106D02*
X198954572Y-108683392D01*
X198954572Y-108683392D02*
X198990857Y-108719677D01*
X198990857Y-108719677D02*
X199027143Y-108792249D01*
X199027143Y-108792249D02*
X199027143Y-108973677D01*
X199027143Y-108973677D02*
X198990857Y-109046249D01*
X198990857Y-109046249D02*
X198954572Y-109082535D01*
X198954572Y-109082535D02*
X198882000Y-109118820D01*
X198882000Y-109118820D02*
X198664286Y-109118820D01*
X198664286Y-109118820D02*
X198591714Y-109082535D01*
X198591714Y-109082535D02*
X198555429Y-109046249D01*
X204814714Y-109082535D02*
X204923572Y-109118820D01*
X204923572Y-109118820D02*
X205105000Y-109118820D01*
X205105000Y-109118820D02*
X205177572Y-109082535D01*
X205177572Y-109082535D02*
X205213857Y-109046249D01*
X205213857Y-109046249D02*
X205250143Y-108973677D01*
X205250143Y-108973677D02*
X205250143Y-108901106D01*
X205250143Y-108901106D02*
X205213857Y-108828535D01*
X205213857Y-108828535D02*
X205177572Y-108792249D01*
X205177572Y-108792249D02*
X205105000Y-108755963D01*
X205105000Y-108755963D02*
X204959857Y-108719677D01*
X204959857Y-108719677D02*
X204887286Y-108683392D01*
X204887286Y-108683392D02*
X204851000Y-108647106D01*
X204851000Y-108647106D02*
X204814714Y-108574535D01*
X204814714Y-108574535D02*
X204814714Y-108501963D01*
X204814714Y-108501963D02*
X204851000Y-108429392D01*
X204851000Y-108429392D02*
X204887286Y-108393106D01*
X204887286Y-108393106D02*
X204959857Y-108356820D01*
X204959857Y-108356820D02*
X205141286Y-108356820D01*
X205141286Y-108356820D02*
X205250143Y-108393106D01*
X205576714Y-109118820D02*
X205576714Y-108356820D01*
X205576714Y-108356820D02*
X205758143Y-108356820D01*
X205758143Y-108356820D02*
X205867000Y-108393106D01*
X205867000Y-108393106D02*
X205939571Y-108465677D01*
X205939571Y-108465677D02*
X205975857Y-108538249D01*
X205975857Y-108538249D02*
X206012143Y-108683392D01*
X206012143Y-108683392D02*
X206012143Y-108792249D01*
X206012143Y-108792249D02*
X205975857Y-108937392D01*
X205975857Y-108937392D02*
X205939571Y-109009963D01*
X205939571Y-109009963D02*
X205867000Y-109082535D01*
X205867000Y-109082535D02*
X205758143Y-109118820D01*
X205758143Y-109118820D02*
X205576714Y-109118820D01*
X206302428Y-108901106D02*
X206665286Y-108901106D01*
X206229857Y-109118820D02*
X206483857Y-108356820D01*
X206483857Y-108356820D02*
X206737857Y-109118820D01*
D10*
X202371905Y-113414819D02*
X202371905Y-112414819D01*
X202371905Y-112414819D02*
X202610000Y-112414819D01*
X202610000Y-112414819D02*
X202752857Y-112462438D01*
X202752857Y-112462438D02*
X202848095Y-112557676D01*
X202848095Y-112557676D02*
X202895714Y-112652914D01*
X202895714Y-112652914D02*
X202943333Y-112843390D01*
X202943333Y-112843390D02*
X202943333Y-112986247D01*
X202943333Y-112986247D02*
X202895714Y-113176723D01*
X202895714Y-113176723D02*
X202848095Y-113271961D01*
X202848095Y-113271961D02*
X202752857Y-113367200D01*
X202752857Y-113367200D02*
X202610000Y-113414819D01*
X202610000Y-113414819D02*
X202371905Y-113414819D01*
X203895714Y-113414819D02*
X203324286Y-113414819D01*
X203610000Y-113414819D02*
X203610000Y-112414819D01*
X203610000Y-112414819D02*
X203514762Y-112557676D01*
X203514762Y-112557676D02*
X203419524Y-112652914D01*
X203419524Y-112652914D02*
X203324286Y-112700533D01*
X199245714Y-115314819D02*
X198674286Y-115314819D01*
X198960000Y-115314819D02*
X198960000Y-114314819D01*
X198960000Y-114314819D02*
X198864762Y-114457676D01*
X198864762Y-114457676D02*
X198769524Y-114552914D01*
X198769524Y-114552914D02*
X198674286Y-114600533D01*
X134311905Y-77344819D02*
X134311905Y-76344819D01*
X134311905Y-76344819D02*
X134550000Y-76344819D01*
X134550000Y-76344819D02*
X134692857Y-76392438D01*
X134692857Y-76392438D02*
X134788095Y-76487676D01*
X134788095Y-76487676D02*
X134835714Y-76582914D01*
X134835714Y-76582914D02*
X134883333Y-76773390D01*
X134883333Y-76773390D02*
X134883333Y-76916247D01*
X134883333Y-76916247D02*
X134835714Y-77106723D01*
X134835714Y-77106723D02*
X134788095Y-77201961D01*
X134788095Y-77201961D02*
X134692857Y-77297200D01*
X134692857Y-77297200D02*
X134550000Y-77344819D01*
X134550000Y-77344819D02*
X134311905Y-77344819D01*
X135359524Y-77344819D02*
X135550000Y-77344819D01*
X135550000Y-77344819D02*
X135645238Y-77297200D01*
X135645238Y-77297200D02*
X135692857Y-77249580D01*
X135692857Y-77249580D02*
X135788095Y-77106723D01*
X135788095Y-77106723D02*
X135835714Y-76916247D01*
X135835714Y-76916247D02*
X135835714Y-76535295D01*
X135835714Y-76535295D02*
X135788095Y-76440057D01*
X135788095Y-76440057D02*
X135740476Y-76392438D01*
X135740476Y-76392438D02*
X135645238Y-76344819D01*
X135645238Y-76344819D02*
X135454762Y-76344819D01*
X135454762Y-76344819D02*
X135359524Y-76392438D01*
X135359524Y-76392438D02*
X135311905Y-76440057D01*
X135311905Y-76440057D02*
X135264286Y-76535295D01*
X135264286Y-76535295D02*
X135264286Y-76773390D01*
X135264286Y-76773390D02*
X135311905Y-76868628D01*
X135311905Y-76868628D02*
X135359524Y-76916247D01*
X135359524Y-76916247D02*
X135454762Y-76963866D01*
X135454762Y-76963866D02*
X135645238Y-76963866D01*
X135645238Y-76963866D02*
X135740476Y-76916247D01*
X135740476Y-76916247D02*
X135788095Y-76868628D01*
X135788095Y-76868628D02*
X135835714Y-76773390D01*
X131185714Y-79244819D02*
X130614286Y-79244819D01*
X130900000Y-79244819D02*
X130900000Y-78244819D01*
X130900000Y-78244819D02*
X130804762Y-78387676D01*
X130804762Y-78387676D02*
X130709524Y-78482914D01*
X130709524Y-78482914D02*
X130614286Y-78530533D01*
D11*
X154178095Y-106137419D02*
X154178095Y-106946942D01*
X154178095Y-106946942D02*
X154225714Y-107042180D01*
X154225714Y-107042180D02*
X154273333Y-107089800D01*
X154273333Y-107089800D02*
X154368571Y-107137419D01*
X154368571Y-107137419D02*
X154559047Y-107137419D01*
X154559047Y-107137419D02*
X154654285Y-107089800D01*
X154654285Y-107089800D02*
X154701904Y-107042180D01*
X154701904Y-107042180D02*
X154749523Y-106946942D01*
X154749523Y-106946942D02*
X154749523Y-106137419D01*
X155654285Y-106470752D02*
X155654285Y-107137419D01*
X155416190Y-106089800D02*
X155178095Y-106804085D01*
X155178095Y-106804085D02*
X155797142Y-106804085D01*
D12*
X157679571Y-102043106D02*
X157607000Y-102006820D01*
X157607000Y-102006820D02*
X157498142Y-102006820D01*
X157498142Y-102006820D02*
X157389285Y-102043106D01*
X157389285Y-102043106D02*
X157316714Y-102115677D01*
X157316714Y-102115677D02*
X157280428Y-102188249D01*
X157280428Y-102188249D02*
X157244142Y-102333392D01*
X157244142Y-102333392D02*
X157244142Y-102442249D01*
X157244142Y-102442249D02*
X157280428Y-102587392D01*
X157280428Y-102587392D02*
X157316714Y-102659963D01*
X157316714Y-102659963D02*
X157389285Y-102732535D01*
X157389285Y-102732535D02*
X157498142Y-102768820D01*
X157498142Y-102768820D02*
X157570714Y-102768820D01*
X157570714Y-102768820D02*
X157679571Y-102732535D01*
X157679571Y-102732535D02*
X157715857Y-102696249D01*
X157715857Y-102696249D02*
X157715857Y-102442249D01*
X157715857Y-102442249D02*
X157570714Y-102442249D01*
X156554714Y-109082535D02*
X156663572Y-109118820D01*
X156663572Y-109118820D02*
X156845000Y-109118820D01*
X156845000Y-109118820D02*
X156917572Y-109082535D01*
X156917572Y-109082535D02*
X156953857Y-109046249D01*
X156953857Y-109046249D02*
X156990143Y-108973677D01*
X156990143Y-108973677D02*
X156990143Y-108901106D01*
X156990143Y-108901106D02*
X156953857Y-108828535D01*
X156953857Y-108828535D02*
X156917572Y-108792249D01*
X156917572Y-108792249D02*
X156845000Y-108755963D01*
X156845000Y-108755963D02*
X156699857Y-108719677D01*
X156699857Y-108719677D02*
X156627286Y-108683392D01*
X156627286Y-108683392D02*
X156591000Y-108647106D01*
X156591000Y-108647106D02*
X156554714Y-108574535D01*
X156554714Y-108574535D02*
X156554714Y-108501963D01*
X156554714Y-108501963D02*
X156591000Y-108429392D01*
X156591000Y-108429392D02*
X156627286Y-108393106D01*
X156627286Y-108393106D02*
X156699857Y-108356820D01*
X156699857Y-108356820D02*
X156881286Y-108356820D01*
X156881286Y-108356820D02*
X156990143Y-108393106D01*
X157316714Y-109118820D02*
X157316714Y-108356820D01*
X157316714Y-108356820D02*
X157498143Y-108356820D01*
X157498143Y-108356820D02*
X157607000Y-108393106D01*
X157607000Y-108393106D02*
X157679571Y-108465677D01*
X157679571Y-108465677D02*
X157715857Y-108538249D01*
X157715857Y-108538249D02*
X157752143Y-108683392D01*
X157752143Y-108683392D02*
X157752143Y-108792249D01*
X157752143Y-108792249D02*
X157715857Y-108937392D01*
X157715857Y-108937392D02*
X157679571Y-109009963D01*
X157679571Y-109009963D02*
X157607000Y-109082535D01*
X157607000Y-109082535D02*
X157498143Y-109118820D01*
X157498143Y-109118820D02*
X157316714Y-109118820D01*
X158042428Y-108901106D02*
X158405286Y-108901106D01*
X157969857Y-109118820D02*
X158223857Y-108356820D01*
X158223857Y-108356820D02*
X158477857Y-109118820D01*
X151819428Y-108393106D02*
X151746857Y-108356820D01*
X151746857Y-108356820D02*
X151637999Y-108356820D01*
X151637999Y-108356820D02*
X151529142Y-108393106D01*
X151529142Y-108393106D02*
X151456571Y-108465677D01*
X151456571Y-108465677D02*
X151420285Y-108538249D01*
X151420285Y-108538249D02*
X151383999Y-108683392D01*
X151383999Y-108683392D02*
X151383999Y-108792249D01*
X151383999Y-108792249D02*
X151420285Y-108937392D01*
X151420285Y-108937392D02*
X151456571Y-109009963D01*
X151456571Y-109009963D02*
X151529142Y-109082535D01*
X151529142Y-109082535D02*
X151637999Y-109118820D01*
X151637999Y-109118820D02*
X151710571Y-109118820D01*
X151710571Y-109118820D02*
X151819428Y-109082535D01*
X151819428Y-109082535D02*
X151855714Y-109046249D01*
X151855714Y-109046249D02*
X151855714Y-108792249D01*
X151855714Y-108792249D02*
X151710571Y-108792249D01*
X152182285Y-109118820D02*
X152182285Y-108356820D01*
X152182285Y-108356820D02*
X152617714Y-109118820D01*
X152617714Y-109118820D02*
X152617714Y-108356820D01*
X152980571Y-109118820D02*
X152980571Y-108356820D01*
X152980571Y-108356820D02*
X153162000Y-108356820D01*
X153162000Y-108356820D02*
X153270857Y-108393106D01*
X153270857Y-108393106D02*
X153343428Y-108465677D01*
X153343428Y-108465677D02*
X153379714Y-108538249D01*
X153379714Y-108538249D02*
X153416000Y-108683392D01*
X153416000Y-108683392D02*
X153416000Y-108792249D01*
X153416000Y-108792249D02*
X153379714Y-108937392D01*
X153379714Y-108937392D02*
X153343428Y-109009963D01*
X153343428Y-109009963D02*
X153270857Y-109082535D01*
X153270857Y-109082535D02*
X153162000Y-109118820D01*
X153162000Y-109118820D02*
X152980571Y-109118820D01*
D11*
X151333570Y-104931371D02*
X151562142Y-104931371D01*
X151419285Y-104731371D02*
X151419285Y-105245657D01*
X151419285Y-105245657D02*
X151447856Y-105302800D01*
X151447856Y-105302800D02*
X151504999Y-105331371D01*
X151504999Y-105331371D02*
X151562142Y-105331371D01*
X152019285Y-104931371D02*
X152019285Y-105331371D01*
X151762142Y-104931371D02*
X151762142Y-105245657D01*
X151762142Y-105245657D02*
X151790713Y-105302800D01*
X151790713Y-105302800D02*
X151847856Y-105331371D01*
X151847856Y-105331371D02*
X151933570Y-105331371D01*
X151933570Y-105331371D02*
X151990713Y-105302800D01*
X151990713Y-105302800D02*
X152019285Y-105274228D01*
X152219284Y-104931371D02*
X152447856Y-104931371D01*
X152304999Y-104731371D02*
X152304999Y-105245657D01*
X152304999Y-105245657D02*
X152333570Y-105302800D01*
X152333570Y-105302800D02*
X152390713Y-105331371D01*
X152390713Y-105331371D02*
X152447856Y-105331371D01*
X152733570Y-105331371D02*
X152676427Y-105302800D01*
X152676427Y-105302800D02*
X152647856Y-105274228D01*
X152647856Y-105274228D02*
X152619284Y-105217085D01*
X152619284Y-105217085D02*
X152619284Y-105045657D01*
X152619284Y-105045657D02*
X152647856Y-104988514D01*
X152647856Y-104988514D02*
X152676427Y-104959942D01*
X152676427Y-104959942D02*
X152733570Y-104931371D01*
X152733570Y-104931371D02*
X152819284Y-104931371D01*
X152819284Y-104931371D02*
X152876427Y-104959942D01*
X152876427Y-104959942D02*
X152904999Y-104988514D01*
X152904999Y-104988514D02*
X152933570Y-105045657D01*
X152933570Y-105045657D02*
X152933570Y-105217085D01*
X152933570Y-105217085D02*
X152904999Y-105274228D01*
X152904999Y-105274228D02*
X152876427Y-105302800D01*
X152876427Y-105302800D02*
X152819284Y-105331371D01*
X152819284Y-105331371D02*
X152733570Y-105331371D01*
X153190713Y-104931371D02*
X153190713Y-105331371D01*
X153190713Y-104988514D02*
X153219284Y-104959942D01*
X153219284Y-104959942D02*
X153276427Y-104931371D01*
X153276427Y-104931371D02*
X153362141Y-104931371D01*
X153362141Y-104931371D02*
X153419284Y-104959942D01*
X153419284Y-104959942D02*
X153447856Y-105017085D01*
X153447856Y-105017085D02*
X153447856Y-105331371D01*
X153590713Y-105388514D02*
X154047855Y-105388514D01*
X154133570Y-104931371D02*
X154276427Y-105331371D01*
X154276427Y-105331371D02*
X154419284Y-104931371D01*
X154733570Y-105331371D02*
X154676427Y-105302800D01*
X154676427Y-105302800D02*
X154647856Y-105245657D01*
X154647856Y-105245657D02*
X154647856Y-104731371D01*
X155247856Y-104731371D02*
X154962142Y-104731371D01*
X154962142Y-104731371D02*
X154933570Y-105017085D01*
X154933570Y-105017085D02*
X154962142Y-104988514D01*
X154962142Y-104988514D02*
X155019285Y-104959942D01*
X155019285Y-104959942D02*
X155162142Y-104959942D01*
X155162142Y-104959942D02*
X155219285Y-104988514D01*
X155219285Y-104988514D02*
X155247856Y-105017085D01*
X155247856Y-105017085D02*
X155276427Y-105074228D01*
X155276427Y-105074228D02*
X155276427Y-105217085D01*
X155276427Y-105217085D02*
X155247856Y-105274228D01*
X155247856Y-105274228D02*
X155219285Y-105302800D01*
X155219285Y-105302800D02*
X155162142Y-105331371D01*
X155162142Y-105331371D02*
X155019285Y-105331371D01*
X155019285Y-105331371D02*
X154962142Y-105302800D01*
X154962142Y-105302800D02*
X154933570Y-105274228D01*
X155476428Y-104731371D02*
X155847856Y-104731371D01*
X155847856Y-104731371D02*
X155647856Y-104959942D01*
X155647856Y-104959942D02*
X155733571Y-104959942D01*
X155733571Y-104959942D02*
X155790714Y-104988514D01*
X155790714Y-104988514D02*
X155819285Y-105017085D01*
X155819285Y-105017085D02*
X155847856Y-105074228D01*
X155847856Y-105074228D02*
X155847856Y-105217085D01*
X155847856Y-105217085D02*
X155819285Y-105274228D01*
X155819285Y-105274228D02*
X155790714Y-105302800D01*
X155790714Y-105302800D02*
X155733571Y-105331371D01*
X155733571Y-105331371D02*
X155562142Y-105331371D01*
X155562142Y-105331371D02*
X155504999Y-105302800D01*
X155504999Y-105302800D02*
X155476428Y-105274228D01*
X156190714Y-105331371D02*
X156133571Y-105302800D01*
X156133571Y-105302800D02*
X156105000Y-105245657D01*
X156105000Y-105245657D02*
X156105000Y-104731371D01*
X156533571Y-104731371D02*
X156590714Y-104731371D01*
X156590714Y-104731371D02*
X156647857Y-104759942D01*
X156647857Y-104759942D02*
X156676429Y-104788514D01*
X156676429Y-104788514D02*
X156705000Y-104845657D01*
X156705000Y-104845657D02*
X156733571Y-104959942D01*
X156733571Y-104959942D02*
X156733571Y-105102800D01*
X156733571Y-105102800D02*
X156705000Y-105217085D01*
X156705000Y-105217085D02*
X156676429Y-105274228D01*
X156676429Y-105274228D02*
X156647857Y-105302800D01*
X156647857Y-105302800D02*
X156590714Y-105331371D01*
X156590714Y-105331371D02*
X156533571Y-105331371D01*
X156533571Y-105331371D02*
X156476429Y-105302800D01*
X156476429Y-105302800D02*
X156447857Y-105274228D01*
X156447857Y-105274228D02*
X156419286Y-105217085D01*
X156419286Y-105217085D02*
X156390714Y-105102800D01*
X156390714Y-105102800D02*
X156390714Y-104959942D01*
X156390714Y-104959942D02*
X156419286Y-104845657D01*
X156419286Y-104845657D02*
X156447857Y-104788514D01*
X156447857Y-104788514D02*
X156476429Y-104759942D01*
X156476429Y-104759942D02*
X156533571Y-104731371D01*
X156933572Y-105331371D02*
X157247858Y-104931371D01*
X156933572Y-104931371D02*
X157247858Y-105331371D01*
D12*
X154032857Y-109082535D02*
X154141715Y-109118820D01*
X154141715Y-109118820D02*
X154323143Y-109118820D01*
X154323143Y-109118820D02*
X154395715Y-109082535D01*
X154395715Y-109082535D02*
X154432000Y-109046249D01*
X154432000Y-109046249D02*
X154468286Y-108973677D01*
X154468286Y-108973677D02*
X154468286Y-108901106D01*
X154468286Y-108901106D02*
X154432000Y-108828535D01*
X154432000Y-108828535D02*
X154395715Y-108792249D01*
X154395715Y-108792249D02*
X154323143Y-108755963D01*
X154323143Y-108755963D02*
X154178000Y-108719677D01*
X154178000Y-108719677D02*
X154105429Y-108683392D01*
X154105429Y-108683392D02*
X154069143Y-108647106D01*
X154069143Y-108647106D02*
X154032857Y-108574535D01*
X154032857Y-108574535D02*
X154032857Y-108501963D01*
X154032857Y-108501963D02*
X154069143Y-108429392D01*
X154069143Y-108429392D02*
X154105429Y-108393106D01*
X154105429Y-108393106D02*
X154178000Y-108356820D01*
X154178000Y-108356820D02*
X154359429Y-108356820D01*
X154359429Y-108356820D02*
X154468286Y-108393106D01*
X155230286Y-109046249D02*
X155194000Y-109082535D01*
X155194000Y-109082535D02*
X155085143Y-109118820D01*
X155085143Y-109118820D02*
X155012571Y-109118820D01*
X155012571Y-109118820D02*
X154903714Y-109082535D01*
X154903714Y-109082535D02*
X154831143Y-109009963D01*
X154831143Y-109009963D02*
X154794857Y-108937392D01*
X154794857Y-108937392D02*
X154758571Y-108792249D01*
X154758571Y-108792249D02*
X154758571Y-108683392D01*
X154758571Y-108683392D02*
X154794857Y-108538249D01*
X154794857Y-108538249D02*
X154831143Y-108465677D01*
X154831143Y-108465677D02*
X154903714Y-108393106D01*
X154903714Y-108393106D02*
X155012571Y-108356820D01*
X155012571Y-108356820D02*
X155085143Y-108356820D01*
X155085143Y-108356820D02*
X155194000Y-108393106D01*
X155194000Y-108393106D02*
X155230286Y-108429392D01*
X155919714Y-109118820D02*
X155556857Y-109118820D01*
X155556857Y-109118820D02*
X155556857Y-108356820D01*
X148916572Y-108356820D02*
X149388286Y-108356820D01*
X149388286Y-108356820D02*
X149134286Y-108647106D01*
X149134286Y-108647106D02*
X149243143Y-108647106D01*
X149243143Y-108647106D02*
X149315715Y-108683392D01*
X149315715Y-108683392D02*
X149352000Y-108719677D01*
X149352000Y-108719677D02*
X149388286Y-108792249D01*
X149388286Y-108792249D02*
X149388286Y-108973677D01*
X149388286Y-108973677D02*
X149352000Y-109046249D01*
X149352000Y-109046249D02*
X149315715Y-109082535D01*
X149315715Y-109082535D02*
X149243143Y-109118820D01*
X149243143Y-109118820D02*
X149025429Y-109118820D01*
X149025429Y-109118820D02*
X148952857Y-109082535D01*
X148952857Y-109082535D02*
X148916572Y-109046249D01*
X149606000Y-108356820D02*
X149860000Y-109118820D01*
X149860000Y-109118820D02*
X150114000Y-108356820D01*
X150295429Y-108356820D02*
X150767143Y-108356820D01*
X150767143Y-108356820D02*
X150513143Y-108647106D01*
X150513143Y-108647106D02*
X150622000Y-108647106D01*
X150622000Y-108647106D02*
X150694572Y-108683392D01*
X150694572Y-108683392D02*
X150730857Y-108719677D01*
X150730857Y-108719677D02*
X150767143Y-108792249D01*
X150767143Y-108792249D02*
X150767143Y-108973677D01*
X150767143Y-108973677D02*
X150730857Y-109046249D01*
X150730857Y-109046249D02*
X150694572Y-109082535D01*
X150694572Y-109082535D02*
X150622000Y-109118820D01*
X150622000Y-109118820D02*
X150404286Y-109118820D01*
X150404286Y-109118820D02*
X150331714Y-109082535D01*
X150331714Y-109082535D02*
X150295429Y-109046249D01*
X154686000Y-102006820D02*
X155194000Y-102768820D01*
X155194000Y-102006820D02*
X154686000Y-102768820D01*
D11*
X131318095Y-106137419D02*
X131318095Y-106946942D01*
X131318095Y-106946942D02*
X131365714Y-107042180D01*
X131365714Y-107042180D02*
X131413333Y-107089800D01*
X131413333Y-107089800D02*
X131508571Y-107137419D01*
X131508571Y-107137419D02*
X131699047Y-107137419D01*
X131699047Y-107137419D02*
X131794285Y-107089800D01*
X131794285Y-107089800D02*
X131841904Y-107042180D01*
X131841904Y-107042180D02*
X131889523Y-106946942D01*
X131889523Y-106946942D02*
X131889523Y-106137419D01*
X132270476Y-106137419D02*
X132889523Y-106137419D01*
X132889523Y-106137419D02*
X132556190Y-106518371D01*
X132556190Y-106518371D02*
X132699047Y-106518371D01*
X132699047Y-106518371D02*
X132794285Y-106565990D01*
X132794285Y-106565990D02*
X132841904Y-106613609D01*
X132841904Y-106613609D02*
X132889523Y-106708847D01*
X132889523Y-106708847D02*
X132889523Y-106946942D01*
X132889523Y-106946942D02*
X132841904Y-107042180D01*
X132841904Y-107042180D02*
X132794285Y-107089800D01*
X132794285Y-107089800D02*
X132699047Y-107137419D01*
X132699047Y-107137419D02*
X132413333Y-107137419D01*
X132413333Y-107137419D02*
X132318095Y-107089800D01*
X132318095Y-107089800D02*
X132270476Y-107042180D01*
D12*
X126056572Y-108356820D02*
X126528286Y-108356820D01*
X126528286Y-108356820D02*
X126274286Y-108647106D01*
X126274286Y-108647106D02*
X126383143Y-108647106D01*
X126383143Y-108647106D02*
X126455715Y-108683392D01*
X126455715Y-108683392D02*
X126492000Y-108719677D01*
X126492000Y-108719677D02*
X126528286Y-108792249D01*
X126528286Y-108792249D02*
X126528286Y-108973677D01*
X126528286Y-108973677D02*
X126492000Y-109046249D01*
X126492000Y-109046249D02*
X126455715Y-109082535D01*
X126455715Y-109082535D02*
X126383143Y-109118820D01*
X126383143Y-109118820D02*
X126165429Y-109118820D01*
X126165429Y-109118820D02*
X126092857Y-109082535D01*
X126092857Y-109082535D02*
X126056572Y-109046249D01*
X126746000Y-108356820D02*
X127000000Y-109118820D01*
X127000000Y-109118820D02*
X127254000Y-108356820D01*
X127435429Y-108356820D02*
X127907143Y-108356820D01*
X127907143Y-108356820D02*
X127653143Y-108647106D01*
X127653143Y-108647106D02*
X127762000Y-108647106D01*
X127762000Y-108647106D02*
X127834572Y-108683392D01*
X127834572Y-108683392D02*
X127870857Y-108719677D01*
X127870857Y-108719677D02*
X127907143Y-108792249D01*
X127907143Y-108792249D02*
X127907143Y-108973677D01*
X127907143Y-108973677D02*
X127870857Y-109046249D01*
X127870857Y-109046249D02*
X127834572Y-109082535D01*
X127834572Y-109082535D02*
X127762000Y-109118820D01*
X127762000Y-109118820D02*
X127544286Y-109118820D01*
X127544286Y-109118820D02*
X127471714Y-109082535D01*
X127471714Y-109082535D02*
X127435429Y-109046249D01*
X131172857Y-109082535D02*
X131281715Y-109118820D01*
X131281715Y-109118820D02*
X131463143Y-109118820D01*
X131463143Y-109118820D02*
X131535715Y-109082535D01*
X131535715Y-109082535D02*
X131572000Y-109046249D01*
X131572000Y-109046249D02*
X131608286Y-108973677D01*
X131608286Y-108973677D02*
X131608286Y-108901106D01*
X131608286Y-108901106D02*
X131572000Y-108828535D01*
X131572000Y-108828535D02*
X131535715Y-108792249D01*
X131535715Y-108792249D02*
X131463143Y-108755963D01*
X131463143Y-108755963D02*
X131318000Y-108719677D01*
X131318000Y-108719677D02*
X131245429Y-108683392D01*
X131245429Y-108683392D02*
X131209143Y-108647106D01*
X131209143Y-108647106D02*
X131172857Y-108574535D01*
X131172857Y-108574535D02*
X131172857Y-108501963D01*
X131172857Y-108501963D02*
X131209143Y-108429392D01*
X131209143Y-108429392D02*
X131245429Y-108393106D01*
X131245429Y-108393106D02*
X131318000Y-108356820D01*
X131318000Y-108356820D02*
X131499429Y-108356820D01*
X131499429Y-108356820D02*
X131608286Y-108393106D01*
X132370286Y-109046249D02*
X132334000Y-109082535D01*
X132334000Y-109082535D02*
X132225143Y-109118820D01*
X132225143Y-109118820D02*
X132152571Y-109118820D01*
X132152571Y-109118820D02*
X132043714Y-109082535D01*
X132043714Y-109082535D02*
X131971143Y-109009963D01*
X131971143Y-109009963D02*
X131934857Y-108937392D01*
X131934857Y-108937392D02*
X131898571Y-108792249D01*
X131898571Y-108792249D02*
X131898571Y-108683392D01*
X131898571Y-108683392D02*
X131934857Y-108538249D01*
X131934857Y-108538249D02*
X131971143Y-108465677D01*
X131971143Y-108465677D02*
X132043714Y-108393106D01*
X132043714Y-108393106D02*
X132152571Y-108356820D01*
X132152571Y-108356820D02*
X132225143Y-108356820D01*
X132225143Y-108356820D02*
X132334000Y-108393106D01*
X132334000Y-108393106D02*
X132370286Y-108429392D01*
X133059714Y-109118820D02*
X132696857Y-109118820D01*
X132696857Y-109118820D02*
X132696857Y-108356820D01*
X128959428Y-108393106D02*
X128886857Y-108356820D01*
X128886857Y-108356820D02*
X128777999Y-108356820D01*
X128777999Y-108356820D02*
X128669142Y-108393106D01*
X128669142Y-108393106D02*
X128596571Y-108465677D01*
X128596571Y-108465677D02*
X128560285Y-108538249D01*
X128560285Y-108538249D02*
X128523999Y-108683392D01*
X128523999Y-108683392D02*
X128523999Y-108792249D01*
X128523999Y-108792249D02*
X128560285Y-108937392D01*
X128560285Y-108937392D02*
X128596571Y-109009963D01*
X128596571Y-109009963D02*
X128669142Y-109082535D01*
X128669142Y-109082535D02*
X128777999Y-109118820D01*
X128777999Y-109118820D02*
X128850571Y-109118820D01*
X128850571Y-109118820D02*
X128959428Y-109082535D01*
X128959428Y-109082535D02*
X128995714Y-109046249D01*
X128995714Y-109046249D02*
X128995714Y-108792249D01*
X128995714Y-108792249D02*
X128850571Y-108792249D01*
X129322285Y-109118820D02*
X129322285Y-108356820D01*
X129322285Y-108356820D02*
X129757714Y-109118820D01*
X129757714Y-109118820D02*
X129757714Y-108356820D01*
X130120571Y-109118820D02*
X130120571Y-108356820D01*
X130120571Y-108356820D02*
X130302000Y-108356820D01*
X130302000Y-108356820D02*
X130410857Y-108393106D01*
X130410857Y-108393106D02*
X130483428Y-108465677D01*
X130483428Y-108465677D02*
X130519714Y-108538249D01*
X130519714Y-108538249D02*
X130556000Y-108683392D01*
X130556000Y-108683392D02*
X130556000Y-108792249D01*
X130556000Y-108792249D02*
X130519714Y-108937392D01*
X130519714Y-108937392D02*
X130483428Y-109009963D01*
X130483428Y-109009963D02*
X130410857Y-109082535D01*
X130410857Y-109082535D02*
X130302000Y-109118820D01*
X130302000Y-109118820D02*
X130120571Y-109118820D01*
X131826000Y-102006820D02*
X132334000Y-102768820D01*
X132334000Y-102006820D02*
X131826000Y-102768820D01*
X133694714Y-109082535D02*
X133803572Y-109118820D01*
X133803572Y-109118820D02*
X133985000Y-109118820D01*
X133985000Y-109118820D02*
X134057572Y-109082535D01*
X134057572Y-109082535D02*
X134093857Y-109046249D01*
X134093857Y-109046249D02*
X134130143Y-108973677D01*
X134130143Y-108973677D02*
X134130143Y-108901106D01*
X134130143Y-108901106D02*
X134093857Y-108828535D01*
X134093857Y-108828535D02*
X134057572Y-108792249D01*
X134057572Y-108792249D02*
X133985000Y-108755963D01*
X133985000Y-108755963D02*
X133839857Y-108719677D01*
X133839857Y-108719677D02*
X133767286Y-108683392D01*
X133767286Y-108683392D02*
X133731000Y-108647106D01*
X133731000Y-108647106D02*
X133694714Y-108574535D01*
X133694714Y-108574535D02*
X133694714Y-108501963D01*
X133694714Y-108501963D02*
X133731000Y-108429392D01*
X133731000Y-108429392D02*
X133767286Y-108393106D01*
X133767286Y-108393106D02*
X133839857Y-108356820D01*
X133839857Y-108356820D02*
X134021286Y-108356820D01*
X134021286Y-108356820D02*
X134130143Y-108393106D01*
X134456714Y-109118820D02*
X134456714Y-108356820D01*
X134456714Y-108356820D02*
X134638143Y-108356820D01*
X134638143Y-108356820D02*
X134747000Y-108393106D01*
X134747000Y-108393106D02*
X134819571Y-108465677D01*
X134819571Y-108465677D02*
X134855857Y-108538249D01*
X134855857Y-108538249D02*
X134892143Y-108683392D01*
X134892143Y-108683392D02*
X134892143Y-108792249D01*
X134892143Y-108792249D02*
X134855857Y-108937392D01*
X134855857Y-108937392D02*
X134819571Y-109009963D01*
X134819571Y-109009963D02*
X134747000Y-109082535D01*
X134747000Y-109082535D02*
X134638143Y-109118820D01*
X134638143Y-109118820D02*
X134456714Y-109118820D01*
X135182428Y-108901106D02*
X135545286Y-108901106D01*
X135109857Y-109118820D02*
X135363857Y-108356820D01*
X135363857Y-108356820D02*
X135617857Y-109118820D01*
D11*
X128473570Y-104931371D02*
X128702142Y-104931371D01*
X128559285Y-104731371D02*
X128559285Y-105245657D01*
X128559285Y-105245657D02*
X128587856Y-105302800D01*
X128587856Y-105302800D02*
X128644999Y-105331371D01*
X128644999Y-105331371D02*
X128702142Y-105331371D01*
X129159285Y-104931371D02*
X129159285Y-105331371D01*
X128902142Y-104931371D02*
X128902142Y-105245657D01*
X128902142Y-105245657D02*
X128930713Y-105302800D01*
X128930713Y-105302800D02*
X128987856Y-105331371D01*
X128987856Y-105331371D02*
X129073570Y-105331371D01*
X129073570Y-105331371D02*
X129130713Y-105302800D01*
X129130713Y-105302800D02*
X129159285Y-105274228D01*
X129359284Y-104931371D02*
X129587856Y-104931371D01*
X129444999Y-104731371D02*
X129444999Y-105245657D01*
X129444999Y-105245657D02*
X129473570Y-105302800D01*
X129473570Y-105302800D02*
X129530713Y-105331371D01*
X129530713Y-105331371D02*
X129587856Y-105331371D01*
X129873570Y-105331371D02*
X129816427Y-105302800D01*
X129816427Y-105302800D02*
X129787856Y-105274228D01*
X129787856Y-105274228D02*
X129759284Y-105217085D01*
X129759284Y-105217085D02*
X129759284Y-105045657D01*
X129759284Y-105045657D02*
X129787856Y-104988514D01*
X129787856Y-104988514D02*
X129816427Y-104959942D01*
X129816427Y-104959942D02*
X129873570Y-104931371D01*
X129873570Y-104931371D02*
X129959284Y-104931371D01*
X129959284Y-104931371D02*
X130016427Y-104959942D01*
X130016427Y-104959942D02*
X130044999Y-104988514D01*
X130044999Y-104988514D02*
X130073570Y-105045657D01*
X130073570Y-105045657D02*
X130073570Y-105217085D01*
X130073570Y-105217085D02*
X130044999Y-105274228D01*
X130044999Y-105274228D02*
X130016427Y-105302800D01*
X130016427Y-105302800D02*
X129959284Y-105331371D01*
X129959284Y-105331371D02*
X129873570Y-105331371D01*
X130330713Y-104931371D02*
X130330713Y-105331371D01*
X130330713Y-104988514D02*
X130359284Y-104959942D01*
X130359284Y-104959942D02*
X130416427Y-104931371D01*
X130416427Y-104931371D02*
X130502141Y-104931371D01*
X130502141Y-104931371D02*
X130559284Y-104959942D01*
X130559284Y-104959942D02*
X130587856Y-105017085D01*
X130587856Y-105017085D02*
X130587856Y-105331371D01*
X130730713Y-105388514D02*
X131187855Y-105388514D01*
X131273570Y-104931371D02*
X131416427Y-105331371D01*
X131416427Y-105331371D02*
X131559284Y-104931371D01*
X131873570Y-105331371D02*
X131816427Y-105302800D01*
X131816427Y-105302800D02*
X131787856Y-105245657D01*
X131787856Y-105245657D02*
X131787856Y-104731371D01*
X132387856Y-104731371D02*
X132102142Y-104731371D01*
X132102142Y-104731371D02*
X132073570Y-105017085D01*
X132073570Y-105017085D02*
X132102142Y-104988514D01*
X132102142Y-104988514D02*
X132159285Y-104959942D01*
X132159285Y-104959942D02*
X132302142Y-104959942D01*
X132302142Y-104959942D02*
X132359285Y-104988514D01*
X132359285Y-104988514D02*
X132387856Y-105017085D01*
X132387856Y-105017085D02*
X132416427Y-105074228D01*
X132416427Y-105074228D02*
X132416427Y-105217085D01*
X132416427Y-105217085D02*
X132387856Y-105274228D01*
X132387856Y-105274228D02*
X132359285Y-105302800D01*
X132359285Y-105302800D02*
X132302142Y-105331371D01*
X132302142Y-105331371D02*
X132159285Y-105331371D01*
X132159285Y-105331371D02*
X132102142Y-105302800D01*
X132102142Y-105302800D02*
X132073570Y-105274228D01*
X132616428Y-104731371D02*
X132987856Y-104731371D01*
X132987856Y-104731371D02*
X132787856Y-104959942D01*
X132787856Y-104959942D02*
X132873571Y-104959942D01*
X132873571Y-104959942D02*
X132930714Y-104988514D01*
X132930714Y-104988514D02*
X132959285Y-105017085D01*
X132959285Y-105017085D02*
X132987856Y-105074228D01*
X132987856Y-105074228D02*
X132987856Y-105217085D01*
X132987856Y-105217085D02*
X132959285Y-105274228D01*
X132959285Y-105274228D02*
X132930714Y-105302800D01*
X132930714Y-105302800D02*
X132873571Y-105331371D01*
X132873571Y-105331371D02*
X132702142Y-105331371D01*
X132702142Y-105331371D02*
X132644999Y-105302800D01*
X132644999Y-105302800D02*
X132616428Y-105274228D01*
X133330714Y-105331371D02*
X133273571Y-105302800D01*
X133273571Y-105302800D02*
X133245000Y-105245657D01*
X133245000Y-105245657D02*
X133245000Y-104731371D01*
X133673571Y-104731371D02*
X133730714Y-104731371D01*
X133730714Y-104731371D02*
X133787857Y-104759942D01*
X133787857Y-104759942D02*
X133816429Y-104788514D01*
X133816429Y-104788514D02*
X133845000Y-104845657D01*
X133845000Y-104845657D02*
X133873571Y-104959942D01*
X133873571Y-104959942D02*
X133873571Y-105102800D01*
X133873571Y-105102800D02*
X133845000Y-105217085D01*
X133845000Y-105217085D02*
X133816429Y-105274228D01*
X133816429Y-105274228D02*
X133787857Y-105302800D01*
X133787857Y-105302800D02*
X133730714Y-105331371D01*
X133730714Y-105331371D02*
X133673571Y-105331371D01*
X133673571Y-105331371D02*
X133616429Y-105302800D01*
X133616429Y-105302800D02*
X133587857Y-105274228D01*
X133587857Y-105274228D02*
X133559286Y-105217085D01*
X133559286Y-105217085D02*
X133530714Y-105102800D01*
X133530714Y-105102800D02*
X133530714Y-104959942D01*
X133530714Y-104959942D02*
X133559286Y-104845657D01*
X133559286Y-104845657D02*
X133587857Y-104788514D01*
X133587857Y-104788514D02*
X133616429Y-104759942D01*
X133616429Y-104759942D02*
X133673571Y-104731371D01*
X134073572Y-105331371D02*
X134387858Y-104931371D01*
X134073572Y-104931371D02*
X134387858Y-105331371D01*
D12*
X134819571Y-102043106D02*
X134747000Y-102006820D01*
X134747000Y-102006820D02*
X134638142Y-102006820D01*
X134638142Y-102006820D02*
X134529285Y-102043106D01*
X134529285Y-102043106D02*
X134456714Y-102115677D01*
X134456714Y-102115677D02*
X134420428Y-102188249D01*
X134420428Y-102188249D02*
X134384142Y-102333392D01*
X134384142Y-102333392D02*
X134384142Y-102442249D01*
X134384142Y-102442249D02*
X134420428Y-102587392D01*
X134420428Y-102587392D02*
X134456714Y-102659963D01*
X134456714Y-102659963D02*
X134529285Y-102732535D01*
X134529285Y-102732535D02*
X134638142Y-102768820D01*
X134638142Y-102768820D02*
X134710714Y-102768820D01*
X134710714Y-102768820D02*
X134819571Y-102732535D01*
X134819571Y-102732535D02*
X134855857Y-102696249D01*
X134855857Y-102696249D02*
X134855857Y-102442249D01*
X134855857Y-102442249D02*
X134710714Y-102442249D01*
D10*
X130616905Y-113414819D02*
X130616905Y-112414819D01*
X130616905Y-112414819D02*
X130855000Y-112414819D01*
X130855000Y-112414819D02*
X130997857Y-112462438D01*
X130997857Y-112462438D02*
X131093095Y-112557676D01*
X131093095Y-112557676D02*
X131140714Y-112652914D01*
X131140714Y-112652914D02*
X131188333Y-112843390D01*
X131188333Y-112843390D02*
X131188333Y-112986247D01*
X131188333Y-112986247D02*
X131140714Y-113176723D01*
X131140714Y-113176723D02*
X131093095Y-113271961D01*
X131093095Y-113271961D02*
X130997857Y-113367200D01*
X130997857Y-113367200D02*
X130855000Y-113414819D01*
X130855000Y-113414819D02*
X130616905Y-113414819D01*
X132045476Y-112414819D02*
X131855000Y-112414819D01*
X131855000Y-112414819D02*
X131759762Y-112462438D01*
X131759762Y-112462438D02*
X131712143Y-112510057D01*
X131712143Y-112510057D02*
X131616905Y-112652914D01*
X131616905Y-112652914D02*
X131569286Y-112843390D01*
X131569286Y-112843390D02*
X131569286Y-113224342D01*
X131569286Y-113224342D02*
X131616905Y-113319580D01*
X131616905Y-113319580D02*
X131664524Y-113367200D01*
X131664524Y-113367200D02*
X131759762Y-113414819D01*
X131759762Y-113414819D02*
X131950238Y-113414819D01*
X131950238Y-113414819D02*
X132045476Y-113367200D01*
X132045476Y-113367200D02*
X132093095Y-113319580D01*
X132093095Y-113319580D02*
X132140714Y-113224342D01*
X132140714Y-113224342D02*
X132140714Y-112986247D01*
X132140714Y-112986247D02*
X132093095Y-112891009D01*
X132093095Y-112891009D02*
X132045476Y-112843390D01*
X132045476Y-112843390D02*
X131950238Y-112795771D01*
X131950238Y-112795771D02*
X131759762Y-112795771D01*
X131759762Y-112795771D02*
X131664524Y-112843390D01*
X131664524Y-112843390D02*
X131616905Y-112891009D01*
X131616905Y-112891009D02*
X131569286Y-112986247D01*
X127490714Y-115314819D02*
X126919286Y-115314819D01*
X127205000Y-115314819D02*
X127205000Y-114314819D01*
X127205000Y-114314819D02*
X127109762Y-114457676D01*
X127109762Y-114457676D02*
X127014524Y-114552914D01*
X127014524Y-114552914D02*
X126919286Y-114600533D01*
D11*
X147828095Y-100557419D02*
X147828095Y-101366942D01*
X147828095Y-101366942D02*
X147875714Y-101462180D01*
X147875714Y-101462180D02*
X147923333Y-101509800D01*
X147923333Y-101509800D02*
X148018571Y-101557419D01*
X148018571Y-101557419D02*
X148209047Y-101557419D01*
X148209047Y-101557419D02*
X148304285Y-101509800D01*
X148304285Y-101509800D02*
X148351904Y-101462180D01*
X148351904Y-101462180D02*
X148399523Y-101366942D01*
X148399523Y-101366942D02*
X148399523Y-100557419D01*
X148780476Y-100557419D02*
X149447142Y-100557419D01*
X149447142Y-100557419D02*
X149018571Y-101557419D01*
D10*
X180781905Y-113414819D02*
X180781905Y-112414819D01*
X180781905Y-112414819D02*
X181020000Y-112414819D01*
X181020000Y-112414819D02*
X181162857Y-112462438D01*
X181162857Y-112462438D02*
X181258095Y-112557676D01*
X181258095Y-112557676D02*
X181305714Y-112652914D01*
X181305714Y-112652914D02*
X181353333Y-112843390D01*
X181353333Y-112843390D02*
X181353333Y-112986247D01*
X181353333Y-112986247D02*
X181305714Y-113176723D01*
X181305714Y-113176723D02*
X181258095Y-113271961D01*
X181258095Y-113271961D02*
X181162857Y-113367200D01*
X181162857Y-113367200D02*
X181020000Y-113414819D01*
X181020000Y-113414819D02*
X180781905Y-113414819D01*
X181686667Y-112414819D02*
X182305714Y-112414819D01*
X182305714Y-112414819D02*
X181972381Y-112795771D01*
X181972381Y-112795771D02*
X182115238Y-112795771D01*
X182115238Y-112795771D02*
X182210476Y-112843390D01*
X182210476Y-112843390D02*
X182258095Y-112891009D01*
X182258095Y-112891009D02*
X182305714Y-112986247D01*
X182305714Y-112986247D02*
X182305714Y-113224342D01*
X182305714Y-113224342D02*
X182258095Y-113319580D01*
X182258095Y-113319580D02*
X182210476Y-113367200D01*
X182210476Y-113367200D02*
X182115238Y-113414819D01*
X182115238Y-113414819D02*
X181829524Y-113414819D01*
X181829524Y-113414819D02*
X181734286Y-113367200D01*
X181734286Y-113367200D02*
X181686667Y-113319580D01*
X177655714Y-115314819D02*
X177084286Y-115314819D01*
X177370000Y-115314819D02*
X177370000Y-114314819D01*
X177370000Y-114314819D02*
X177274762Y-114457676D01*
X177274762Y-114457676D02*
X177179524Y-114552914D01*
X177179524Y-114552914D02*
X177084286Y-114600533D01*
X172775714Y-77599819D02*
X172775714Y-76599819D01*
X172775714Y-76599819D02*
X173013809Y-76599819D01*
X173013809Y-76599819D02*
X173156666Y-76647438D01*
X173156666Y-76647438D02*
X173251904Y-76742676D01*
X173251904Y-76742676D02*
X173299523Y-76837914D01*
X173299523Y-76837914D02*
X173347142Y-77028390D01*
X173347142Y-77028390D02*
X173347142Y-77171247D01*
X173347142Y-77171247D02*
X173299523Y-77361723D01*
X173299523Y-77361723D02*
X173251904Y-77456961D01*
X173251904Y-77456961D02*
X173156666Y-77552200D01*
X173156666Y-77552200D02*
X173013809Y-77599819D01*
X173013809Y-77599819D02*
X172775714Y-77599819D01*
X174299523Y-77599819D02*
X173728095Y-77599819D01*
X174013809Y-77599819D02*
X174013809Y-76599819D01*
X174013809Y-76599819D02*
X173918571Y-76742676D01*
X173918571Y-76742676D02*
X173823333Y-76837914D01*
X173823333Y-76837914D02*
X173728095Y-76885533D01*
X174680476Y-76695057D02*
X174728095Y-76647438D01*
X174728095Y-76647438D02*
X174823333Y-76599819D01*
X174823333Y-76599819D02*
X175061428Y-76599819D01*
X175061428Y-76599819D02*
X175156666Y-76647438D01*
X175156666Y-76647438D02*
X175204285Y-76695057D01*
X175204285Y-76695057D02*
X175251904Y-76790295D01*
X175251904Y-76790295D02*
X175251904Y-76885533D01*
X175251904Y-76885533D02*
X175204285Y-77028390D01*
X175204285Y-77028390D02*
X174632857Y-77599819D01*
X174632857Y-77599819D02*
X175251904Y-77599819D01*
X170125714Y-79499819D02*
X169554286Y-79499819D01*
X169840000Y-79499819D02*
X169840000Y-78499819D01*
X169840000Y-78499819D02*
X169744762Y-78642676D01*
X169744762Y-78642676D02*
X169649524Y-78737914D01*
X169649524Y-78737914D02*
X169554286Y-78785533D01*
X190941905Y-107444819D02*
X190941905Y-106444819D01*
X190941905Y-106444819D02*
X191180000Y-106444819D01*
X191180000Y-106444819D02*
X191322857Y-106492438D01*
X191322857Y-106492438D02*
X191418095Y-106587676D01*
X191418095Y-106587676D02*
X191465714Y-106682914D01*
X191465714Y-106682914D02*
X191513333Y-106873390D01*
X191513333Y-106873390D02*
X191513333Y-107016247D01*
X191513333Y-107016247D02*
X191465714Y-107206723D01*
X191465714Y-107206723D02*
X191418095Y-107301961D01*
X191418095Y-107301961D02*
X191322857Y-107397200D01*
X191322857Y-107397200D02*
X191180000Y-107444819D01*
X191180000Y-107444819D02*
X190941905Y-107444819D01*
X191894286Y-106540057D02*
X191941905Y-106492438D01*
X191941905Y-106492438D02*
X192037143Y-106444819D01*
X192037143Y-106444819D02*
X192275238Y-106444819D01*
X192275238Y-106444819D02*
X192370476Y-106492438D01*
X192370476Y-106492438D02*
X192418095Y-106540057D01*
X192418095Y-106540057D02*
X192465714Y-106635295D01*
X192465714Y-106635295D02*
X192465714Y-106730533D01*
X192465714Y-106730533D02*
X192418095Y-106873390D01*
X192418095Y-106873390D02*
X191846667Y-107444819D01*
X191846667Y-107444819D02*
X192465714Y-107444819D01*
X187815714Y-109344819D02*
X187244286Y-109344819D01*
X187530000Y-109344819D02*
X187530000Y-108344819D01*
X187530000Y-108344819D02*
X187434762Y-108487676D01*
X187434762Y-108487676D02*
X187339524Y-108582914D01*
X187339524Y-108582914D02*
X187244286Y-108630533D01*
D11*
X182118095Y-106137419D02*
X182118095Y-106946942D01*
X182118095Y-106946942D02*
X182165714Y-107042180D01*
X182165714Y-107042180D02*
X182213333Y-107089800D01*
X182213333Y-107089800D02*
X182308571Y-107137419D01*
X182308571Y-107137419D02*
X182499047Y-107137419D01*
X182499047Y-107137419D02*
X182594285Y-107089800D01*
X182594285Y-107089800D02*
X182641904Y-107042180D01*
X182641904Y-107042180D02*
X182689523Y-106946942D01*
X182689523Y-106946942D02*
X182689523Y-106137419D01*
X183641904Y-106137419D02*
X183165714Y-106137419D01*
X183165714Y-106137419D02*
X183118095Y-106613609D01*
X183118095Y-106613609D02*
X183165714Y-106565990D01*
X183165714Y-106565990D02*
X183260952Y-106518371D01*
X183260952Y-106518371D02*
X183499047Y-106518371D01*
X183499047Y-106518371D02*
X183594285Y-106565990D01*
X183594285Y-106565990D02*
X183641904Y-106613609D01*
X183641904Y-106613609D02*
X183689523Y-106708847D01*
X183689523Y-106708847D02*
X183689523Y-106946942D01*
X183689523Y-106946942D02*
X183641904Y-107042180D01*
X183641904Y-107042180D02*
X183594285Y-107089800D01*
X183594285Y-107089800D02*
X183499047Y-107137419D01*
X183499047Y-107137419D02*
X183260952Y-107137419D01*
X183260952Y-107137419D02*
X183165714Y-107089800D01*
X183165714Y-107089800D02*
X183118095Y-107042180D01*
D12*
X179759428Y-108393106D02*
X179686857Y-108356820D01*
X179686857Y-108356820D02*
X179577999Y-108356820D01*
X179577999Y-108356820D02*
X179469142Y-108393106D01*
X179469142Y-108393106D02*
X179396571Y-108465677D01*
X179396571Y-108465677D02*
X179360285Y-108538249D01*
X179360285Y-108538249D02*
X179323999Y-108683392D01*
X179323999Y-108683392D02*
X179323999Y-108792249D01*
X179323999Y-108792249D02*
X179360285Y-108937392D01*
X179360285Y-108937392D02*
X179396571Y-109009963D01*
X179396571Y-109009963D02*
X179469142Y-109082535D01*
X179469142Y-109082535D02*
X179577999Y-109118820D01*
X179577999Y-109118820D02*
X179650571Y-109118820D01*
X179650571Y-109118820D02*
X179759428Y-109082535D01*
X179759428Y-109082535D02*
X179795714Y-109046249D01*
X179795714Y-109046249D02*
X179795714Y-108792249D01*
X179795714Y-108792249D02*
X179650571Y-108792249D01*
X180122285Y-109118820D02*
X180122285Y-108356820D01*
X180122285Y-108356820D02*
X180557714Y-109118820D01*
X180557714Y-109118820D02*
X180557714Y-108356820D01*
X180920571Y-109118820D02*
X180920571Y-108356820D01*
X180920571Y-108356820D02*
X181102000Y-108356820D01*
X181102000Y-108356820D02*
X181210857Y-108393106D01*
X181210857Y-108393106D02*
X181283428Y-108465677D01*
X181283428Y-108465677D02*
X181319714Y-108538249D01*
X181319714Y-108538249D02*
X181356000Y-108683392D01*
X181356000Y-108683392D02*
X181356000Y-108792249D01*
X181356000Y-108792249D02*
X181319714Y-108937392D01*
X181319714Y-108937392D02*
X181283428Y-109009963D01*
X181283428Y-109009963D02*
X181210857Y-109082535D01*
X181210857Y-109082535D02*
X181102000Y-109118820D01*
X181102000Y-109118820D02*
X180920571Y-109118820D01*
D11*
X179273570Y-104931371D02*
X179502142Y-104931371D01*
X179359285Y-104731371D02*
X179359285Y-105245657D01*
X179359285Y-105245657D02*
X179387856Y-105302800D01*
X179387856Y-105302800D02*
X179444999Y-105331371D01*
X179444999Y-105331371D02*
X179502142Y-105331371D01*
X179959285Y-104931371D02*
X179959285Y-105331371D01*
X179702142Y-104931371D02*
X179702142Y-105245657D01*
X179702142Y-105245657D02*
X179730713Y-105302800D01*
X179730713Y-105302800D02*
X179787856Y-105331371D01*
X179787856Y-105331371D02*
X179873570Y-105331371D01*
X179873570Y-105331371D02*
X179930713Y-105302800D01*
X179930713Y-105302800D02*
X179959285Y-105274228D01*
X180159284Y-104931371D02*
X180387856Y-104931371D01*
X180244999Y-104731371D02*
X180244999Y-105245657D01*
X180244999Y-105245657D02*
X180273570Y-105302800D01*
X180273570Y-105302800D02*
X180330713Y-105331371D01*
X180330713Y-105331371D02*
X180387856Y-105331371D01*
X180673570Y-105331371D02*
X180616427Y-105302800D01*
X180616427Y-105302800D02*
X180587856Y-105274228D01*
X180587856Y-105274228D02*
X180559284Y-105217085D01*
X180559284Y-105217085D02*
X180559284Y-105045657D01*
X180559284Y-105045657D02*
X180587856Y-104988514D01*
X180587856Y-104988514D02*
X180616427Y-104959942D01*
X180616427Y-104959942D02*
X180673570Y-104931371D01*
X180673570Y-104931371D02*
X180759284Y-104931371D01*
X180759284Y-104931371D02*
X180816427Y-104959942D01*
X180816427Y-104959942D02*
X180844999Y-104988514D01*
X180844999Y-104988514D02*
X180873570Y-105045657D01*
X180873570Y-105045657D02*
X180873570Y-105217085D01*
X180873570Y-105217085D02*
X180844999Y-105274228D01*
X180844999Y-105274228D02*
X180816427Y-105302800D01*
X180816427Y-105302800D02*
X180759284Y-105331371D01*
X180759284Y-105331371D02*
X180673570Y-105331371D01*
X181130713Y-104931371D02*
X181130713Y-105331371D01*
X181130713Y-104988514D02*
X181159284Y-104959942D01*
X181159284Y-104959942D02*
X181216427Y-104931371D01*
X181216427Y-104931371D02*
X181302141Y-104931371D01*
X181302141Y-104931371D02*
X181359284Y-104959942D01*
X181359284Y-104959942D02*
X181387856Y-105017085D01*
X181387856Y-105017085D02*
X181387856Y-105331371D01*
X181530713Y-105388514D02*
X181987855Y-105388514D01*
X182073570Y-104931371D02*
X182216427Y-105331371D01*
X182216427Y-105331371D02*
X182359284Y-104931371D01*
X182673570Y-105331371D02*
X182616427Y-105302800D01*
X182616427Y-105302800D02*
X182587856Y-105245657D01*
X182587856Y-105245657D02*
X182587856Y-104731371D01*
X183187856Y-104731371D02*
X182902142Y-104731371D01*
X182902142Y-104731371D02*
X182873570Y-105017085D01*
X182873570Y-105017085D02*
X182902142Y-104988514D01*
X182902142Y-104988514D02*
X182959285Y-104959942D01*
X182959285Y-104959942D02*
X183102142Y-104959942D01*
X183102142Y-104959942D02*
X183159285Y-104988514D01*
X183159285Y-104988514D02*
X183187856Y-105017085D01*
X183187856Y-105017085D02*
X183216427Y-105074228D01*
X183216427Y-105074228D02*
X183216427Y-105217085D01*
X183216427Y-105217085D02*
X183187856Y-105274228D01*
X183187856Y-105274228D02*
X183159285Y-105302800D01*
X183159285Y-105302800D02*
X183102142Y-105331371D01*
X183102142Y-105331371D02*
X182959285Y-105331371D01*
X182959285Y-105331371D02*
X182902142Y-105302800D01*
X182902142Y-105302800D02*
X182873570Y-105274228D01*
X183416428Y-104731371D02*
X183787856Y-104731371D01*
X183787856Y-104731371D02*
X183587856Y-104959942D01*
X183587856Y-104959942D02*
X183673571Y-104959942D01*
X183673571Y-104959942D02*
X183730714Y-104988514D01*
X183730714Y-104988514D02*
X183759285Y-105017085D01*
X183759285Y-105017085D02*
X183787856Y-105074228D01*
X183787856Y-105074228D02*
X183787856Y-105217085D01*
X183787856Y-105217085D02*
X183759285Y-105274228D01*
X183759285Y-105274228D02*
X183730714Y-105302800D01*
X183730714Y-105302800D02*
X183673571Y-105331371D01*
X183673571Y-105331371D02*
X183502142Y-105331371D01*
X183502142Y-105331371D02*
X183444999Y-105302800D01*
X183444999Y-105302800D02*
X183416428Y-105274228D01*
X184130714Y-105331371D02*
X184073571Y-105302800D01*
X184073571Y-105302800D02*
X184045000Y-105245657D01*
X184045000Y-105245657D02*
X184045000Y-104731371D01*
X184473571Y-104731371D02*
X184530714Y-104731371D01*
X184530714Y-104731371D02*
X184587857Y-104759942D01*
X184587857Y-104759942D02*
X184616429Y-104788514D01*
X184616429Y-104788514D02*
X184645000Y-104845657D01*
X184645000Y-104845657D02*
X184673571Y-104959942D01*
X184673571Y-104959942D02*
X184673571Y-105102800D01*
X184673571Y-105102800D02*
X184645000Y-105217085D01*
X184645000Y-105217085D02*
X184616429Y-105274228D01*
X184616429Y-105274228D02*
X184587857Y-105302800D01*
X184587857Y-105302800D02*
X184530714Y-105331371D01*
X184530714Y-105331371D02*
X184473571Y-105331371D01*
X184473571Y-105331371D02*
X184416429Y-105302800D01*
X184416429Y-105302800D02*
X184387857Y-105274228D01*
X184387857Y-105274228D02*
X184359286Y-105217085D01*
X184359286Y-105217085D02*
X184330714Y-105102800D01*
X184330714Y-105102800D02*
X184330714Y-104959942D01*
X184330714Y-104959942D02*
X184359286Y-104845657D01*
X184359286Y-104845657D02*
X184387857Y-104788514D01*
X184387857Y-104788514D02*
X184416429Y-104759942D01*
X184416429Y-104759942D02*
X184473571Y-104731371D01*
X184873572Y-105331371D02*
X185187858Y-104931371D01*
X184873572Y-104931371D02*
X185187858Y-105331371D01*
D12*
X182626000Y-102006820D02*
X183134000Y-102768820D01*
X183134000Y-102006820D02*
X182626000Y-102768820D01*
X181972857Y-109082535D02*
X182081715Y-109118820D01*
X182081715Y-109118820D02*
X182263143Y-109118820D01*
X182263143Y-109118820D02*
X182335715Y-109082535D01*
X182335715Y-109082535D02*
X182372000Y-109046249D01*
X182372000Y-109046249D02*
X182408286Y-108973677D01*
X182408286Y-108973677D02*
X182408286Y-108901106D01*
X182408286Y-108901106D02*
X182372000Y-108828535D01*
X182372000Y-108828535D02*
X182335715Y-108792249D01*
X182335715Y-108792249D02*
X182263143Y-108755963D01*
X182263143Y-108755963D02*
X182118000Y-108719677D01*
X182118000Y-108719677D02*
X182045429Y-108683392D01*
X182045429Y-108683392D02*
X182009143Y-108647106D01*
X182009143Y-108647106D02*
X181972857Y-108574535D01*
X181972857Y-108574535D02*
X181972857Y-108501963D01*
X181972857Y-108501963D02*
X182009143Y-108429392D01*
X182009143Y-108429392D02*
X182045429Y-108393106D01*
X182045429Y-108393106D02*
X182118000Y-108356820D01*
X182118000Y-108356820D02*
X182299429Y-108356820D01*
X182299429Y-108356820D02*
X182408286Y-108393106D01*
X183170286Y-109046249D02*
X183134000Y-109082535D01*
X183134000Y-109082535D02*
X183025143Y-109118820D01*
X183025143Y-109118820D02*
X182952571Y-109118820D01*
X182952571Y-109118820D02*
X182843714Y-109082535D01*
X182843714Y-109082535D02*
X182771143Y-109009963D01*
X182771143Y-109009963D02*
X182734857Y-108937392D01*
X182734857Y-108937392D02*
X182698571Y-108792249D01*
X182698571Y-108792249D02*
X182698571Y-108683392D01*
X182698571Y-108683392D02*
X182734857Y-108538249D01*
X182734857Y-108538249D02*
X182771143Y-108465677D01*
X182771143Y-108465677D02*
X182843714Y-108393106D01*
X182843714Y-108393106D02*
X182952571Y-108356820D01*
X182952571Y-108356820D02*
X183025143Y-108356820D01*
X183025143Y-108356820D02*
X183134000Y-108393106D01*
X183134000Y-108393106D02*
X183170286Y-108429392D01*
X183859714Y-109118820D02*
X183496857Y-109118820D01*
X183496857Y-109118820D02*
X183496857Y-108356820D01*
X184494714Y-109082535D02*
X184603572Y-109118820D01*
X184603572Y-109118820D02*
X184785000Y-109118820D01*
X184785000Y-109118820D02*
X184857572Y-109082535D01*
X184857572Y-109082535D02*
X184893857Y-109046249D01*
X184893857Y-109046249D02*
X184930143Y-108973677D01*
X184930143Y-108973677D02*
X184930143Y-108901106D01*
X184930143Y-108901106D02*
X184893857Y-108828535D01*
X184893857Y-108828535D02*
X184857572Y-108792249D01*
X184857572Y-108792249D02*
X184785000Y-108755963D01*
X184785000Y-108755963D02*
X184639857Y-108719677D01*
X184639857Y-108719677D02*
X184567286Y-108683392D01*
X184567286Y-108683392D02*
X184531000Y-108647106D01*
X184531000Y-108647106D02*
X184494714Y-108574535D01*
X184494714Y-108574535D02*
X184494714Y-108501963D01*
X184494714Y-108501963D02*
X184531000Y-108429392D01*
X184531000Y-108429392D02*
X184567286Y-108393106D01*
X184567286Y-108393106D02*
X184639857Y-108356820D01*
X184639857Y-108356820D02*
X184821286Y-108356820D01*
X184821286Y-108356820D02*
X184930143Y-108393106D01*
X185256714Y-109118820D02*
X185256714Y-108356820D01*
X185256714Y-108356820D02*
X185438143Y-108356820D01*
X185438143Y-108356820D02*
X185547000Y-108393106D01*
X185547000Y-108393106D02*
X185619571Y-108465677D01*
X185619571Y-108465677D02*
X185655857Y-108538249D01*
X185655857Y-108538249D02*
X185692143Y-108683392D01*
X185692143Y-108683392D02*
X185692143Y-108792249D01*
X185692143Y-108792249D02*
X185655857Y-108937392D01*
X185655857Y-108937392D02*
X185619571Y-109009963D01*
X185619571Y-109009963D02*
X185547000Y-109082535D01*
X185547000Y-109082535D02*
X185438143Y-109118820D01*
X185438143Y-109118820D02*
X185256714Y-109118820D01*
X185982428Y-108901106D02*
X186345286Y-108901106D01*
X185909857Y-109118820D02*
X186163857Y-108356820D01*
X186163857Y-108356820D02*
X186417857Y-109118820D01*
X176856572Y-108356820D02*
X177328286Y-108356820D01*
X177328286Y-108356820D02*
X177074286Y-108647106D01*
X177074286Y-108647106D02*
X177183143Y-108647106D01*
X177183143Y-108647106D02*
X177255715Y-108683392D01*
X177255715Y-108683392D02*
X177292000Y-108719677D01*
X177292000Y-108719677D02*
X177328286Y-108792249D01*
X177328286Y-108792249D02*
X177328286Y-108973677D01*
X177328286Y-108973677D02*
X177292000Y-109046249D01*
X177292000Y-109046249D02*
X177255715Y-109082535D01*
X177255715Y-109082535D02*
X177183143Y-109118820D01*
X177183143Y-109118820D02*
X176965429Y-109118820D01*
X176965429Y-109118820D02*
X176892857Y-109082535D01*
X176892857Y-109082535D02*
X176856572Y-109046249D01*
X177546000Y-108356820D02*
X177800000Y-109118820D01*
X177800000Y-109118820D02*
X178054000Y-108356820D01*
X178235429Y-108356820D02*
X178707143Y-108356820D01*
X178707143Y-108356820D02*
X178453143Y-108647106D01*
X178453143Y-108647106D02*
X178562000Y-108647106D01*
X178562000Y-108647106D02*
X178634572Y-108683392D01*
X178634572Y-108683392D02*
X178670857Y-108719677D01*
X178670857Y-108719677D02*
X178707143Y-108792249D01*
X178707143Y-108792249D02*
X178707143Y-108973677D01*
X178707143Y-108973677D02*
X178670857Y-109046249D01*
X178670857Y-109046249D02*
X178634572Y-109082535D01*
X178634572Y-109082535D02*
X178562000Y-109118820D01*
X178562000Y-109118820D02*
X178344286Y-109118820D01*
X178344286Y-109118820D02*
X178271714Y-109082535D01*
X178271714Y-109082535D02*
X178235429Y-109046249D01*
X185619571Y-102043106D02*
X185547000Y-102006820D01*
X185547000Y-102006820D02*
X185438142Y-102006820D01*
X185438142Y-102006820D02*
X185329285Y-102043106D01*
X185329285Y-102043106D02*
X185256714Y-102115677D01*
X185256714Y-102115677D02*
X185220428Y-102188249D01*
X185220428Y-102188249D02*
X185184142Y-102333392D01*
X185184142Y-102333392D02*
X185184142Y-102442249D01*
X185184142Y-102442249D02*
X185220428Y-102587392D01*
X185220428Y-102587392D02*
X185256714Y-102659963D01*
X185256714Y-102659963D02*
X185329285Y-102732535D01*
X185329285Y-102732535D02*
X185438142Y-102768820D01*
X185438142Y-102768820D02*
X185510714Y-102768820D01*
X185510714Y-102768820D02*
X185619571Y-102732535D01*
X185619571Y-102732535D02*
X185655857Y-102696249D01*
X185655857Y-102696249D02*
X185655857Y-102442249D01*
X185655857Y-102442249D02*
X185510714Y-102442249D01*
D10*
X107301905Y-113414819D02*
X107301905Y-112414819D01*
X107301905Y-112414819D02*
X107540000Y-112414819D01*
X107540000Y-112414819D02*
X107682857Y-112462438D01*
X107682857Y-112462438D02*
X107778095Y-112557676D01*
X107778095Y-112557676D02*
X107825714Y-112652914D01*
X107825714Y-112652914D02*
X107873333Y-112843390D01*
X107873333Y-112843390D02*
X107873333Y-112986247D01*
X107873333Y-112986247D02*
X107825714Y-113176723D01*
X107825714Y-113176723D02*
X107778095Y-113271961D01*
X107778095Y-113271961D02*
X107682857Y-113367200D01*
X107682857Y-113367200D02*
X107540000Y-113414819D01*
X107540000Y-113414819D02*
X107301905Y-113414819D01*
X108444762Y-112843390D02*
X108349524Y-112795771D01*
X108349524Y-112795771D02*
X108301905Y-112748152D01*
X108301905Y-112748152D02*
X108254286Y-112652914D01*
X108254286Y-112652914D02*
X108254286Y-112605295D01*
X108254286Y-112605295D02*
X108301905Y-112510057D01*
X108301905Y-112510057D02*
X108349524Y-112462438D01*
X108349524Y-112462438D02*
X108444762Y-112414819D01*
X108444762Y-112414819D02*
X108635238Y-112414819D01*
X108635238Y-112414819D02*
X108730476Y-112462438D01*
X108730476Y-112462438D02*
X108778095Y-112510057D01*
X108778095Y-112510057D02*
X108825714Y-112605295D01*
X108825714Y-112605295D02*
X108825714Y-112652914D01*
X108825714Y-112652914D02*
X108778095Y-112748152D01*
X108778095Y-112748152D02*
X108730476Y-112795771D01*
X108730476Y-112795771D02*
X108635238Y-112843390D01*
X108635238Y-112843390D02*
X108444762Y-112843390D01*
X108444762Y-112843390D02*
X108349524Y-112891009D01*
X108349524Y-112891009D02*
X108301905Y-112938628D01*
X108301905Y-112938628D02*
X108254286Y-113033866D01*
X108254286Y-113033866D02*
X108254286Y-113224342D01*
X108254286Y-113224342D02*
X108301905Y-113319580D01*
X108301905Y-113319580D02*
X108349524Y-113367200D01*
X108349524Y-113367200D02*
X108444762Y-113414819D01*
X108444762Y-113414819D02*
X108635238Y-113414819D01*
X108635238Y-113414819D02*
X108730476Y-113367200D01*
X108730476Y-113367200D02*
X108778095Y-113319580D01*
X108778095Y-113319580D02*
X108825714Y-113224342D01*
X108825714Y-113224342D02*
X108825714Y-113033866D01*
X108825714Y-113033866D02*
X108778095Y-112938628D01*
X108778095Y-112938628D02*
X108730476Y-112891009D01*
X108730476Y-112891009D02*
X108635238Y-112843390D01*
X104175714Y-115314819D02*
X103604286Y-115314819D01*
X103890000Y-115314819D02*
X103890000Y-114314819D01*
X103890000Y-114314819D02*
X103794762Y-114457676D01*
X103794762Y-114457676D02*
X103699524Y-114552914D01*
X103699524Y-114552914D02*
X103604286Y-114600533D01*
X162366905Y-113414819D02*
X162366905Y-112414819D01*
X162366905Y-112414819D02*
X162605000Y-112414819D01*
X162605000Y-112414819D02*
X162747857Y-112462438D01*
X162747857Y-112462438D02*
X162843095Y-112557676D01*
X162843095Y-112557676D02*
X162890714Y-112652914D01*
X162890714Y-112652914D02*
X162938333Y-112843390D01*
X162938333Y-112843390D02*
X162938333Y-112986247D01*
X162938333Y-112986247D02*
X162890714Y-113176723D01*
X162890714Y-113176723D02*
X162843095Y-113271961D01*
X162843095Y-113271961D02*
X162747857Y-113367200D01*
X162747857Y-113367200D02*
X162605000Y-113414819D01*
X162605000Y-113414819D02*
X162366905Y-113414819D01*
X163795476Y-112748152D02*
X163795476Y-113414819D01*
X163557381Y-112367200D02*
X163319286Y-113081485D01*
X163319286Y-113081485D02*
X163938333Y-113081485D01*
X159240714Y-115314819D02*
X158669286Y-115314819D01*
X158955000Y-115314819D02*
X158955000Y-114314819D01*
X158955000Y-114314819D02*
X158859762Y-114457676D01*
X158859762Y-114457676D02*
X158764524Y-114552914D01*
X158764524Y-114552914D02*
X158669286Y-114600533D01*
X122304819Y-73604285D02*
X121304819Y-73604285D01*
X121304819Y-73604285D02*
X121304819Y-73366190D01*
X121304819Y-73366190D02*
X121352438Y-73223333D01*
X121352438Y-73223333D02*
X121447676Y-73128095D01*
X121447676Y-73128095D02*
X121542914Y-73080476D01*
X121542914Y-73080476D02*
X121733390Y-73032857D01*
X121733390Y-73032857D02*
X121876247Y-73032857D01*
X121876247Y-73032857D02*
X122066723Y-73080476D01*
X122066723Y-73080476D02*
X122161961Y-73128095D01*
X122161961Y-73128095D02*
X122257200Y-73223333D01*
X122257200Y-73223333D02*
X122304819Y-73366190D01*
X122304819Y-73366190D02*
X122304819Y-73604285D01*
X122304819Y-72080476D02*
X122304819Y-72651904D01*
X122304819Y-72366190D02*
X121304819Y-72366190D01*
X121304819Y-72366190D02*
X121447676Y-72461428D01*
X121447676Y-72461428D02*
X121542914Y-72556666D01*
X121542914Y-72556666D02*
X121590533Y-72651904D01*
X121304819Y-71461428D02*
X121304819Y-71366190D01*
X121304819Y-71366190D02*
X121352438Y-71270952D01*
X121352438Y-71270952D02*
X121400057Y-71223333D01*
X121400057Y-71223333D02*
X121495295Y-71175714D01*
X121495295Y-71175714D02*
X121685771Y-71128095D01*
X121685771Y-71128095D02*
X121923866Y-71128095D01*
X121923866Y-71128095D02*
X122114342Y-71175714D01*
X122114342Y-71175714D02*
X122209580Y-71223333D01*
X122209580Y-71223333D02*
X122257200Y-71270952D01*
X122257200Y-71270952D02*
X122304819Y-71366190D01*
X122304819Y-71366190D02*
X122304819Y-71461428D01*
X122304819Y-71461428D02*
X122257200Y-71556666D01*
X122257200Y-71556666D02*
X122209580Y-71604285D01*
X122209580Y-71604285D02*
X122114342Y-71651904D01*
X122114342Y-71651904D02*
X121923866Y-71699523D01*
X121923866Y-71699523D02*
X121685771Y-71699523D01*
X121685771Y-71699523D02*
X121495295Y-71651904D01*
X121495295Y-71651904D02*
X121400057Y-71604285D01*
X121400057Y-71604285D02*
X121352438Y-71556666D01*
X121352438Y-71556666D02*
X121304819Y-71461428D01*
X124204819Y-76254285D02*
X124204819Y-76825713D01*
X124204819Y-76539999D02*
X123204819Y-76539999D01*
X123204819Y-76539999D02*
X123347676Y-76635237D01*
X123347676Y-76635237D02*
X123442914Y-76730475D01*
X123442914Y-76730475D02*
X123490533Y-76825713D01*
X146671905Y-113414819D02*
X146671905Y-112414819D01*
X146671905Y-112414819D02*
X146910000Y-112414819D01*
X146910000Y-112414819D02*
X147052857Y-112462438D01*
X147052857Y-112462438D02*
X147148095Y-112557676D01*
X147148095Y-112557676D02*
X147195714Y-112652914D01*
X147195714Y-112652914D02*
X147243333Y-112843390D01*
X147243333Y-112843390D02*
X147243333Y-112986247D01*
X147243333Y-112986247D02*
X147195714Y-113176723D01*
X147195714Y-113176723D02*
X147148095Y-113271961D01*
X147148095Y-113271961D02*
X147052857Y-113367200D01*
X147052857Y-113367200D02*
X146910000Y-113414819D01*
X146910000Y-113414819D02*
X146671905Y-113414819D01*
X148148095Y-112414819D02*
X147671905Y-112414819D01*
X147671905Y-112414819D02*
X147624286Y-112891009D01*
X147624286Y-112891009D02*
X147671905Y-112843390D01*
X147671905Y-112843390D02*
X147767143Y-112795771D01*
X147767143Y-112795771D02*
X148005238Y-112795771D01*
X148005238Y-112795771D02*
X148100476Y-112843390D01*
X148100476Y-112843390D02*
X148148095Y-112891009D01*
X148148095Y-112891009D02*
X148195714Y-112986247D01*
X148195714Y-112986247D02*
X148195714Y-113224342D01*
X148195714Y-113224342D02*
X148148095Y-113319580D01*
X148148095Y-113319580D02*
X148100476Y-113367200D01*
X148100476Y-113367200D02*
X148005238Y-113414819D01*
X148005238Y-113414819D02*
X147767143Y-113414819D01*
X147767143Y-113414819D02*
X147671905Y-113367200D01*
X147671905Y-113367200D02*
X147624286Y-113319580D01*
X143545714Y-115314819D02*
X142974286Y-115314819D01*
X143260000Y-115314819D02*
X143260000Y-114314819D01*
X143260000Y-114314819D02*
X143164762Y-114457676D01*
X143164762Y-114457676D02*
X143069524Y-114552914D01*
X143069524Y-114552914D02*
X142974286Y-114600533D01*
X118641905Y-108079819D02*
X118641905Y-107079819D01*
X118641905Y-107079819D02*
X118880000Y-107079819D01*
X118880000Y-107079819D02*
X119022857Y-107127438D01*
X119022857Y-107127438D02*
X119118095Y-107222676D01*
X119118095Y-107222676D02*
X119165714Y-107317914D01*
X119165714Y-107317914D02*
X119213333Y-107508390D01*
X119213333Y-107508390D02*
X119213333Y-107651247D01*
X119213333Y-107651247D02*
X119165714Y-107841723D01*
X119165714Y-107841723D02*
X119118095Y-107936961D01*
X119118095Y-107936961D02*
X119022857Y-108032200D01*
X119022857Y-108032200D02*
X118880000Y-108079819D01*
X118880000Y-108079819D02*
X118641905Y-108079819D01*
X119546667Y-107079819D02*
X120213333Y-107079819D01*
X120213333Y-107079819D02*
X119784762Y-108079819D01*
X115515714Y-109979819D02*
X114944286Y-109979819D01*
X115230000Y-109979819D02*
X115230000Y-108979819D01*
X115230000Y-108979819D02*
X115134762Y-109122676D01*
X115134762Y-109122676D02*
X115039524Y-109217914D01*
X115039524Y-109217914D02*
X114944286Y-109265533D01*
X180724819Y-73604285D02*
X179724819Y-73604285D01*
X179724819Y-73604285D02*
X179724819Y-73366190D01*
X179724819Y-73366190D02*
X179772438Y-73223333D01*
X179772438Y-73223333D02*
X179867676Y-73128095D01*
X179867676Y-73128095D02*
X179962914Y-73080476D01*
X179962914Y-73080476D02*
X180153390Y-73032857D01*
X180153390Y-73032857D02*
X180296247Y-73032857D01*
X180296247Y-73032857D02*
X180486723Y-73080476D01*
X180486723Y-73080476D02*
X180581961Y-73128095D01*
X180581961Y-73128095D02*
X180677200Y-73223333D01*
X180677200Y-73223333D02*
X180724819Y-73366190D01*
X180724819Y-73366190D02*
X180724819Y-73604285D01*
X180724819Y-72080476D02*
X180724819Y-72651904D01*
X180724819Y-72366190D02*
X179724819Y-72366190D01*
X179724819Y-72366190D02*
X179867676Y-72461428D01*
X179867676Y-72461428D02*
X179962914Y-72556666D01*
X179962914Y-72556666D02*
X180010533Y-72651904D01*
X180724819Y-71128095D02*
X180724819Y-71699523D01*
X180724819Y-71413809D02*
X179724819Y-71413809D01*
X179724819Y-71413809D02*
X179867676Y-71509047D01*
X179867676Y-71509047D02*
X179962914Y-71604285D01*
X179962914Y-71604285D02*
X180010533Y-71699523D01*
X182624819Y-76254285D02*
X182624819Y-76825713D01*
X182624819Y-76539999D02*
X181624819Y-76539999D01*
X181624819Y-76539999D02*
X181767676Y-76635237D01*
X181767676Y-76635237D02*
X181862914Y-76730475D01*
X181862914Y-76730475D02*
X181910533Y-76825713D01*
D11*
X108458095Y-106137419D02*
X108458095Y-106946942D01*
X108458095Y-106946942D02*
X108505714Y-107042180D01*
X108505714Y-107042180D02*
X108553333Y-107089800D01*
X108553333Y-107089800D02*
X108648571Y-107137419D01*
X108648571Y-107137419D02*
X108839047Y-107137419D01*
X108839047Y-107137419D02*
X108934285Y-107089800D01*
X108934285Y-107089800D02*
X108981904Y-107042180D01*
X108981904Y-107042180D02*
X109029523Y-106946942D01*
X109029523Y-106946942D02*
X109029523Y-106137419D01*
X109458095Y-106232657D02*
X109505714Y-106185038D01*
X109505714Y-106185038D02*
X109600952Y-106137419D01*
X109600952Y-106137419D02*
X109839047Y-106137419D01*
X109839047Y-106137419D02*
X109934285Y-106185038D01*
X109934285Y-106185038D02*
X109981904Y-106232657D01*
X109981904Y-106232657D02*
X110029523Y-106327895D01*
X110029523Y-106327895D02*
X110029523Y-106423133D01*
X110029523Y-106423133D02*
X109981904Y-106565990D01*
X109981904Y-106565990D02*
X109410476Y-107137419D01*
X109410476Y-107137419D02*
X110029523Y-107137419D01*
D12*
X108312857Y-109082535D02*
X108421715Y-109118820D01*
X108421715Y-109118820D02*
X108603143Y-109118820D01*
X108603143Y-109118820D02*
X108675715Y-109082535D01*
X108675715Y-109082535D02*
X108712000Y-109046249D01*
X108712000Y-109046249D02*
X108748286Y-108973677D01*
X108748286Y-108973677D02*
X108748286Y-108901106D01*
X108748286Y-108901106D02*
X108712000Y-108828535D01*
X108712000Y-108828535D02*
X108675715Y-108792249D01*
X108675715Y-108792249D02*
X108603143Y-108755963D01*
X108603143Y-108755963D02*
X108458000Y-108719677D01*
X108458000Y-108719677D02*
X108385429Y-108683392D01*
X108385429Y-108683392D02*
X108349143Y-108647106D01*
X108349143Y-108647106D02*
X108312857Y-108574535D01*
X108312857Y-108574535D02*
X108312857Y-108501963D01*
X108312857Y-108501963D02*
X108349143Y-108429392D01*
X108349143Y-108429392D02*
X108385429Y-108393106D01*
X108385429Y-108393106D02*
X108458000Y-108356820D01*
X108458000Y-108356820D02*
X108639429Y-108356820D01*
X108639429Y-108356820D02*
X108748286Y-108393106D01*
X109510286Y-109046249D02*
X109474000Y-109082535D01*
X109474000Y-109082535D02*
X109365143Y-109118820D01*
X109365143Y-109118820D02*
X109292571Y-109118820D01*
X109292571Y-109118820D02*
X109183714Y-109082535D01*
X109183714Y-109082535D02*
X109111143Y-109009963D01*
X109111143Y-109009963D02*
X109074857Y-108937392D01*
X109074857Y-108937392D02*
X109038571Y-108792249D01*
X109038571Y-108792249D02*
X109038571Y-108683392D01*
X109038571Y-108683392D02*
X109074857Y-108538249D01*
X109074857Y-108538249D02*
X109111143Y-108465677D01*
X109111143Y-108465677D02*
X109183714Y-108393106D01*
X109183714Y-108393106D02*
X109292571Y-108356820D01*
X109292571Y-108356820D02*
X109365143Y-108356820D01*
X109365143Y-108356820D02*
X109474000Y-108393106D01*
X109474000Y-108393106D02*
X109510286Y-108429392D01*
X110199714Y-109118820D02*
X109836857Y-109118820D01*
X109836857Y-109118820D02*
X109836857Y-108356820D01*
X103196572Y-108356820D02*
X103668286Y-108356820D01*
X103668286Y-108356820D02*
X103414286Y-108647106D01*
X103414286Y-108647106D02*
X103523143Y-108647106D01*
X103523143Y-108647106D02*
X103595715Y-108683392D01*
X103595715Y-108683392D02*
X103632000Y-108719677D01*
X103632000Y-108719677D02*
X103668286Y-108792249D01*
X103668286Y-108792249D02*
X103668286Y-108973677D01*
X103668286Y-108973677D02*
X103632000Y-109046249D01*
X103632000Y-109046249D02*
X103595715Y-109082535D01*
X103595715Y-109082535D02*
X103523143Y-109118820D01*
X103523143Y-109118820D02*
X103305429Y-109118820D01*
X103305429Y-109118820D02*
X103232857Y-109082535D01*
X103232857Y-109082535D02*
X103196572Y-109046249D01*
X103886000Y-108356820D02*
X104140000Y-109118820D01*
X104140000Y-109118820D02*
X104394000Y-108356820D01*
X104575429Y-108356820D02*
X105047143Y-108356820D01*
X105047143Y-108356820D02*
X104793143Y-108647106D01*
X104793143Y-108647106D02*
X104902000Y-108647106D01*
X104902000Y-108647106D02*
X104974572Y-108683392D01*
X104974572Y-108683392D02*
X105010857Y-108719677D01*
X105010857Y-108719677D02*
X105047143Y-108792249D01*
X105047143Y-108792249D02*
X105047143Y-108973677D01*
X105047143Y-108973677D02*
X105010857Y-109046249D01*
X105010857Y-109046249D02*
X104974572Y-109082535D01*
X104974572Y-109082535D02*
X104902000Y-109118820D01*
X104902000Y-109118820D02*
X104684286Y-109118820D01*
X104684286Y-109118820D02*
X104611714Y-109082535D01*
X104611714Y-109082535D02*
X104575429Y-109046249D01*
X110834714Y-109082535D02*
X110943572Y-109118820D01*
X110943572Y-109118820D02*
X111125000Y-109118820D01*
X111125000Y-109118820D02*
X111197572Y-109082535D01*
X111197572Y-109082535D02*
X111233857Y-109046249D01*
X111233857Y-109046249D02*
X111270143Y-108973677D01*
X111270143Y-108973677D02*
X111270143Y-108901106D01*
X111270143Y-108901106D02*
X111233857Y-108828535D01*
X111233857Y-108828535D02*
X111197572Y-108792249D01*
X111197572Y-108792249D02*
X111125000Y-108755963D01*
X111125000Y-108755963D02*
X110979857Y-108719677D01*
X110979857Y-108719677D02*
X110907286Y-108683392D01*
X110907286Y-108683392D02*
X110871000Y-108647106D01*
X110871000Y-108647106D02*
X110834714Y-108574535D01*
X110834714Y-108574535D02*
X110834714Y-108501963D01*
X110834714Y-108501963D02*
X110871000Y-108429392D01*
X110871000Y-108429392D02*
X110907286Y-108393106D01*
X110907286Y-108393106D02*
X110979857Y-108356820D01*
X110979857Y-108356820D02*
X111161286Y-108356820D01*
X111161286Y-108356820D02*
X111270143Y-108393106D01*
X111596714Y-109118820D02*
X111596714Y-108356820D01*
X111596714Y-108356820D02*
X111778143Y-108356820D01*
X111778143Y-108356820D02*
X111887000Y-108393106D01*
X111887000Y-108393106D02*
X111959571Y-108465677D01*
X111959571Y-108465677D02*
X111995857Y-108538249D01*
X111995857Y-108538249D02*
X112032143Y-108683392D01*
X112032143Y-108683392D02*
X112032143Y-108792249D01*
X112032143Y-108792249D02*
X111995857Y-108937392D01*
X111995857Y-108937392D02*
X111959571Y-109009963D01*
X111959571Y-109009963D02*
X111887000Y-109082535D01*
X111887000Y-109082535D02*
X111778143Y-109118820D01*
X111778143Y-109118820D02*
X111596714Y-109118820D01*
X112322428Y-108901106D02*
X112685286Y-108901106D01*
X112249857Y-109118820D02*
X112503857Y-108356820D01*
X112503857Y-108356820D02*
X112757857Y-109118820D01*
D11*
X105613570Y-104931371D02*
X105842142Y-104931371D01*
X105699285Y-104731371D02*
X105699285Y-105245657D01*
X105699285Y-105245657D02*
X105727856Y-105302800D01*
X105727856Y-105302800D02*
X105784999Y-105331371D01*
X105784999Y-105331371D02*
X105842142Y-105331371D01*
X106299285Y-104931371D02*
X106299285Y-105331371D01*
X106042142Y-104931371D02*
X106042142Y-105245657D01*
X106042142Y-105245657D02*
X106070713Y-105302800D01*
X106070713Y-105302800D02*
X106127856Y-105331371D01*
X106127856Y-105331371D02*
X106213570Y-105331371D01*
X106213570Y-105331371D02*
X106270713Y-105302800D01*
X106270713Y-105302800D02*
X106299285Y-105274228D01*
X106499284Y-104931371D02*
X106727856Y-104931371D01*
X106584999Y-104731371D02*
X106584999Y-105245657D01*
X106584999Y-105245657D02*
X106613570Y-105302800D01*
X106613570Y-105302800D02*
X106670713Y-105331371D01*
X106670713Y-105331371D02*
X106727856Y-105331371D01*
X107013570Y-105331371D02*
X106956427Y-105302800D01*
X106956427Y-105302800D02*
X106927856Y-105274228D01*
X106927856Y-105274228D02*
X106899284Y-105217085D01*
X106899284Y-105217085D02*
X106899284Y-105045657D01*
X106899284Y-105045657D02*
X106927856Y-104988514D01*
X106927856Y-104988514D02*
X106956427Y-104959942D01*
X106956427Y-104959942D02*
X107013570Y-104931371D01*
X107013570Y-104931371D02*
X107099284Y-104931371D01*
X107099284Y-104931371D02*
X107156427Y-104959942D01*
X107156427Y-104959942D02*
X107184999Y-104988514D01*
X107184999Y-104988514D02*
X107213570Y-105045657D01*
X107213570Y-105045657D02*
X107213570Y-105217085D01*
X107213570Y-105217085D02*
X107184999Y-105274228D01*
X107184999Y-105274228D02*
X107156427Y-105302800D01*
X107156427Y-105302800D02*
X107099284Y-105331371D01*
X107099284Y-105331371D02*
X107013570Y-105331371D01*
X107470713Y-104931371D02*
X107470713Y-105331371D01*
X107470713Y-104988514D02*
X107499284Y-104959942D01*
X107499284Y-104959942D02*
X107556427Y-104931371D01*
X107556427Y-104931371D02*
X107642141Y-104931371D01*
X107642141Y-104931371D02*
X107699284Y-104959942D01*
X107699284Y-104959942D02*
X107727856Y-105017085D01*
X107727856Y-105017085D02*
X107727856Y-105331371D01*
X107870713Y-105388514D02*
X108327855Y-105388514D01*
X108413570Y-104931371D02*
X108556427Y-105331371D01*
X108556427Y-105331371D02*
X108699284Y-104931371D01*
X109013570Y-105331371D02*
X108956427Y-105302800D01*
X108956427Y-105302800D02*
X108927856Y-105245657D01*
X108927856Y-105245657D02*
X108927856Y-104731371D01*
X109527856Y-104731371D02*
X109242142Y-104731371D01*
X109242142Y-104731371D02*
X109213570Y-105017085D01*
X109213570Y-105017085D02*
X109242142Y-104988514D01*
X109242142Y-104988514D02*
X109299285Y-104959942D01*
X109299285Y-104959942D02*
X109442142Y-104959942D01*
X109442142Y-104959942D02*
X109499285Y-104988514D01*
X109499285Y-104988514D02*
X109527856Y-105017085D01*
X109527856Y-105017085D02*
X109556427Y-105074228D01*
X109556427Y-105074228D02*
X109556427Y-105217085D01*
X109556427Y-105217085D02*
X109527856Y-105274228D01*
X109527856Y-105274228D02*
X109499285Y-105302800D01*
X109499285Y-105302800D02*
X109442142Y-105331371D01*
X109442142Y-105331371D02*
X109299285Y-105331371D01*
X109299285Y-105331371D02*
X109242142Y-105302800D01*
X109242142Y-105302800D02*
X109213570Y-105274228D01*
X109756428Y-104731371D02*
X110127856Y-104731371D01*
X110127856Y-104731371D02*
X109927856Y-104959942D01*
X109927856Y-104959942D02*
X110013571Y-104959942D01*
X110013571Y-104959942D02*
X110070714Y-104988514D01*
X110070714Y-104988514D02*
X110099285Y-105017085D01*
X110099285Y-105017085D02*
X110127856Y-105074228D01*
X110127856Y-105074228D02*
X110127856Y-105217085D01*
X110127856Y-105217085D02*
X110099285Y-105274228D01*
X110099285Y-105274228D02*
X110070714Y-105302800D01*
X110070714Y-105302800D02*
X110013571Y-105331371D01*
X110013571Y-105331371D02*
X109842142Y-105331371D01*
X109842142Y-105331371D02*
X109784999Y-105302800D01*
X109784999Y-105302800D02*
X109756428Y-105274228D01*
X110470714Y-105331371D02*
X110413571Y-105302800D01*
X110413571Y-105302800D02*
X110385000Y-105245657D01*
X110385000Y-105245657D02*
X110385000Y-104731371D01*
X110813571Y-104731371D02*
X110870714Y-104731371D01*
X110870714Y-104731371D02*
X110927857Y-104759942D01*
X110927857Y-104759942D02*
X110956429Y-104788514D01*
X110956429Y-104788514D02*
X110985000Y-104845657D01*
X110985000Y-104845657D02*
X111013571Y-104959942D01*
X111013571Y-104959942D02*
X111013571Y-105102800D01*
X111013571Y-105102800D02*
X110985000Y-105217085D01*
X110985000Y-105217085D02*
X110956429Y-105274228D01*
X110956429Y-105274228D02*
X110927857Y-105302800D01*
X110927857Y-105302800D02*
X110870714Y-105331371D01*
X110870714Y-105331371D02*
X110813571Y-105331371D01*
X110813571Y-105331371D02*
X110756429Y-105302800D01*
X110756429Y-105302800D02*
X110727857Y-105274228D01*
X110727857Y-105274228D02*
X110699286Y-105217085D01*
X110699286Y-105217085D02*
X110670714Y-105102800D01*
X110670714Y-105102800D02*
X110670714Y-104959942D01*
X110670714Y-104959942D02*
X110699286Y-104845657D01*
X110699286Y-104845657D02*
X110727857Y-104788514D01*
X110727857Y-104788514D02*
X110756429Y-104759942D01*
X110756429Y-104759942D02*
X110813571Y-104731371D01*
X111213572Y-105331371D02*
X111527858Y-104931371D01*
X111213572Y-104931371D02*
X111527858Y-105331371D01*
D12*
X108966000Y-102006820D02*
X109474000Y-102768820D01*
X109474000Y-102006820D02*
X108966000Y-102768820D01*
X106099428Y-108393106D02*
X106026857Y-108356820D01*
X106026857Y-108356820D02*
X105917999Y-108356820D01*
X105917999Y-108356820D02*
X105809142Y-108393106D01*
X105809142Y-108393106D02*
X105736571Y-108465677D01*
X105736571Y-108465677D02*
X105700285Y-108538249D01*
X105700285Y-108538249D02*
X105663999Y-108683392D01*
X105663999Y-108683392D02*
X105663999Y-108792249D01*
X105663999Y-108792249D02*
X105700285Y-108937392D01*
X105700285Y-108937392D02*
X105736571Y-109009963D01*
X105736571Y-109009963D02*
X105809142Y-109082535D01*
X105809142Y-109082535D02*
X105917999Y-109118820D01*
X105917999Y-109118820D02*
X105990571Y-109118820D01*
X105990571Y-109118820D02*
X106099428Y-109082535D01*
X106099428Y-109082535D02*
X106135714Y-109046249D01*
X106135714Y-109046249D02*
X106135714Y-108792249D01*
X106135714Y-108792249D02*
X105990571Y-108792249D01*
X106462285Y-109118820D02*
X106462285Y-108356820D01*
X106462285Y-108356820D02*
X106897714Y-109118820D01*
X106897714Y-109118820D02*
X106897714Y-108356820D01*
X107260571Y-109118820D02*
X107260571Y-108356820D01*
X107260571Y-108356820D02*
X107442000Y-108356820D01*
X107442000Y-108356820D02*
X107550857Y-108393106D01*
X107550857Y-108393106D02*
X107623428Y-108465677D01*
X107623428Y-108465677D02*
X107659714Y-108538249D01*
X107659714Y-108538249D02*
X107696000Y-108683392D01*
X107696000Y-108683392D02*
X107696000Y-108792249D01*
X107696000Y-108792249D02*
X107659714Y-108937392D01*
X107659714Y-108937392D02*
X107623428Y-109009963D01*
X107623428Y-109009963D02*
X107550857Y-109082535D01*
X107550857Y-109082535D02*
X107442000Y-109118820D01*
X107442000Y-109118820D02*
X107260571Y-109118820D01*
X111959571Y-102043106D02*
X111887000Y-102006820D01*
X111887000Y-102006820D02*
X111778142Y-102006820D01*
X111778142Y-102006820D02*
X111669285Y-102043106D01*
X111669285Y-102043106D02*
X111596714Y-102115677D01*
X111596714Y-102115677D02*
X111560428Y-102188249D01*
X111560428Y-102188249D02*
X111524142Y-102333392D01*
X111524142Y-102333392D02*
X111524142Y-102442249D01*
X111524142Y-102442249D02*
X111560428Y-102587392D01*
X111560428Y-102587392D02*
X111596714Y-102659963D01*
X111596714Y-102659963D02*
X111669285Y-102732535D01*
X111669285Y-102732535D02*
X111778142Y-102768820D01*
X111778142Y-102768820D02*
X111850714Y-102768820D01*
X111850714Y-102768820D02*
X111959571Y-102732535D01*
X111959571Y-102732535D02*
X111995857Y-102696249D01*
X111995857Y-102696249D02*
X111995857Y-102442249D01*
X111995857Y-102442249D02*
X111850714Y-102442249D01*
D13*
%TO.C,D1*%
X199460000Y-113710000D02*
X206760000Y-113710000D01*
X199460000Y-119210000D02*
X206760000Y-119210000D01*
X206760000Y-119210000D02*
X206760000Y-118060000D01*
%TO.C,D9*%
X131400000Y-77640000D02*
X138700000Y-77640000D01*
X131400000Y-83140000D02*
X138700000Y-83140000D01*
X138700000Y-83140000D02*
X138700000Y-81990000D01*
%TO.C,D6*%
X127705000Y-113710000D02*
X135005000Y-113710000D01*
X127705000Y-119210000D02*
X135005000Y-119210000D01*
X135005000Y-119210000D02*
X135005000Y-118060000D01*
%TO.C,D3*%
X177870000Y-113710000D02*
X185170000Y-113710000D01*
X177870000Y-119210000D02*
X185170000Y-119210000D01*
X185170000Y-119210000D02*
X185170000Y-118060000D01*
%TO.C,D12*%
X170340000Y-77895000D02*
X177640000Y-77895000D01*
X170340000Y-83395000D02*
X177640000Y-83395000D01*
X177640000Y-83395000D02*
X177640000Y-82245000D01*
%TO.C,D2*%
X188030000Y-107740000D02*
X195330000Y-107740000D01*
X188030000Y-113240000D02*
X195330000Y-113240000D01*
X195330000Y-113240000D02*
X195330000Y-112090000D01*
%TO.C,D8*%
X104390000Y-113710000D02*
X111690000Y-113710000D01*
X104390000Y-119210000D02*
X111690000Y-119210000D01*
X111690000Y-119210000D02*
X111690000Y-118060000D01*
%TO.C,D4*%
X159455000Y-113710000D02*
X166755000Y-113710000D01*
X159455000Y-119210000D02*
X166755000Y-119210000D01*
X166755000Y-119210000D02*
X166755000Y-118060000D01*
%TO.C,D10*%
X122600000Y-76040000D02*
X122600000Y-68740000D01*
X128100000Y-76040000D02*
X128100000Y-68740000D01*
X128100000Y-68740000D02*
X126950000Y-68740000D01*
%TO.C,D5*%
X143760000Y-113710000D02*
X151060000Y-113710000D01*
X143760000Y-119210000D02*
X151060000Y-119210000D01*
X151060000Y-119210000D02*
X151060000Y-118060000D01*
%TO.C,J1*%
X166430000Y-109280000D02*
X166430000Y-99000000D01*
X166430000Y-109280000D02*
X163830000Y-109280000D01*
X166430000Y-99000000D02*
X161230000Y-99000000D01*
X163830000Y-109280000D02*
X163830000Y-106680000D01*
X163830000Y-106680000D02*
X161230000Y-106680000D01*
X162560000Y-109280000D02*
X161230000Y-109280000D01*
X161230000Y-109280000D02*
X161230000Y-107950000D01*
X161230000Y-106680000D02*
X161230000Y-99000000D01*
%TO.C,D7*%
X115730000Y-108375000D02*
X123030000Y-108375000D01*
X115730000Y-113875000D02*
X123030000Y-113875000D01*
X123030000Y-113875000D02*
X123030000Y-112725000D01*
%TO.C,D11*%
X181020000Y-76040000D02*
X181020000Y-68740000D01*
X186520000Y-76040000D02*
X186520000Y-68740000D01*
X186520000Y-68740000D02*
X185370000Y-68740000D01*
%TD*%
%LPC*%
D14*
%TO.C,U6*%
X198120000Y-110490000D03*
X200660000Y-110490000D03*
X203200000Y-110490000D03*
X205740000Y-110490000D03*
X203200000Y-100330000D03*
X205740000Y-100330000D03*
%TD*%
D15*
%TO.C,D1*%
X200660000Y-114810000D03*
X200660000Y-118110000D03*
X205560000Y-118110000D03*
X205560000Y-114810000D03*
%TD*%
%TO.C,D9*%
X132600000Y-78740000D03*
X132600000Y-82040000D03*
X137500000Y-82040000D03*
X137500000Y-78740000D03*
%TD*%
D14*
%TO.C,U4*%
X149860000Y-110490000D03*
X152400000Y-110490000D03*
X154940000Y-110490000D03*
X157480000Y-110490000D03*
X154940000Y-100330000D03*
X157480000Y-100330000D03*
%TD*%
D16*
%TO.C,REF\u002A\u002A*%
X190000000Y-95000000D03*
%TD*%
D14*
%TO.C,U3*%
X134620000Y-100330000D03*
X132080000Y-100330000D03*
X134620000Y-110490000D03*
X132080000Y-110490000D03*
X129540000Y-110490000D03*
X127000000Y-110490000D03*
%TD*%
D15*
%TO.C,D6*%
X128905000Y-114810000D03*
X128905000Y-118110000D03*
X133805000Y-118110000D03*
X133805000Y-114810000D03*
%TD*%
D14*
%TO.C,U7*%
X139192000Y-91440000D03*
X139192000Y-93980000D03*
X139192000Y-96520000D03*
X139192000Y-99060000D03*
X139192000Y-101600000D03*
X139192000Y-104140000D03*
X139192000Y-106680000D03*
X139192000Y-109220000D03*
X171450000Y-91440000D03*
X171450000Y-93980000D03*
X171450000Y-96520000D03*
X171450000Y-99060000D03*
X171450000Y-101600000D03*
X171450000Y-104140000D03*
X171450000Y-106680000D03*
X171450000Y-109220000D03*
X167640000Y-91440000D03*
X167640000Y-93980000D03*
X167640000Y-96520000D03*
X167640000Y-99060000D03*
X167640000Y-101600000D03*
X167640000Y-104140000D03*
%TD*%
D15*
%TO.C,D3*%
X179070000Y-114810000D03*
X179070000Y-118110000D03*
X183970000Y-118110000D03*
X183970000Y-114810000D03*
%TD*%
%TO.C,D12*%
X171540000Y-78995000D03*
X171540000Y-82295000D03*
X176440000Y-82295000D03*
X176440000Y-78995000D03*
%TD*%
%TO.C,D2*%
X189230000Y-108840000D03*
X189230000Y-112140000D03*
X194130000Y-112140000D03*
X194130000Y-108840000D03*
%TD*%
D14*
%TO.C,U5*%
X177800000Y-110490000D03*
X180340000Y-110490000D03*
X182880000Y-110490000D03*
X185420000Y-110490000D03*
X182880000Y-100330000D03*
X185420000Y-100330000D03*
%TD*%
D15*
%TO.C,D8*%
X105590000Y-114810000D03*
X105590000Y-118110000D03*
X110490000Y-118110000D03*
X110490000Y-114810000D03*
%TD*%
%TO.C,D4*%
X160655000Y-114810000D03*
X160655000Y-118110000D03*
X165555000Y-118110000D03*
X165555000Y-114810000D03*
%TD*%
D17*
%TO.C,D10*%
X123700000Y-74840000D03*
X127000000Y-74840000D03*
X127000000Y-69940000D03*
X123700000Y-69940000D03*
%TD*%
D15*
%TO.C,D5*%
X144960000Y-114810000D03*
X144960000Y-118110000D03*
X149860000Y-118110000D03*
X149860000Y-114810000D03*
%TD*%
D18*
%TO.C,J1*%
X162560000Y-107950000D03*
D19*
X165100000Y-107950000D03*
X162560000Y-105410000D03*
X165100000Y-105410000D03*
X162560000Y-102870000D03*
X165100000Y-102870000D03*
X162560000Y-100330000D03*
X165100000Y-100330000D03*
%TD*%
D15*
%TO.C,D7*%
X116930000Y-109475000D03*
X116930000Y-112775000D03*
X121830000Y-112775000D03*
X121830000Y-109475000D03*
%TD*%
D16*
%TO.C,REF\u002A\u002A*%
X120000000Y-95000000D03*
%TD*%
D17*
%TO.C,D11*%
X182120000Y-74840000D03*
X185420000Y-74840000D03*
X185420000Y-69940000D03*
X182120000Y-69940000D03*
%TD*%
D14*
%TO.C,U2*%
X104140000Y-110490000D03*
X106680000Y-110490000D03*
X109220000Y-110490000D03*
X111760000Y-110490000D03*
X109220000Y-100330000D03*
X111760000Y-100330000D03*
%TD*%
D20*
%TO.C,J2*%
X132080000Y-66160000D03*
D21*
X132080000Y-68660000D03*
X132080000Y-71160000D03*
X132080000Y-73660000D03*
%TD*%
%LPD*%
M02*
