%TF.GenerationSoftware,KiCad,Pcbnew,7.0.9*%
%TF.CreationDate,2024-06-25T19:37:56+09:00*%
%TF.ProjectId,08-REG_mod,30382d52-4547-45f6-9d6f-642e6b696361,rev?*%
%TF.SameCoordinates,Original*%
%TF.FileFunction,Legend,Bot*%
%TF.FilePolarity,Positive*%
%FSLAX46Y46*%
G04 Gerber Fmt 4.6, Leading zero omitted, Abs format (unit mm)*
G04 Created by KiCad (PCBNEW 7.0.9) date 2024-06-25 19:37:56*
%MOMM*%
%LPD*%
G01*
G04 APERTURE LIST*
%ADD10C,1.195097*%
%ADD11C,0.150000*%
%ADD12R,1.600000X1.600000*%
%ADD13C,1.600000*%
%ADD14R,1.700000X1.700000*%
%ADD15O,1.700000X1.700000*%
G04 APERTURE END LIST*
D10*
X116929548Y-70104000D02*
G75*
G03*
X116929548Y-70104000I-597548J0D01*
G01*
D11*
X121801798Y-70104000D02*
G75*
G03*
X121801798Y-70104000I-1659798J0D01*
G01*
X116773617Y-72915402D02*
G75*
G03*
X119634000Y-72898000I1423583J1095002D01*
G01*
D10*
X120739548Y-70104000D02*
G75*
G03*
X120739548Y-70104000I-597548J0D01*
G01*
D11*
X117991798Y-70104000D02*
G75*
G03*
X117991798Y-70104000I-1659798J0D01*
G01*
X114360077Y-67703819D02*
X113788649Y-67703819D01*
X114074363Y-68703819D02*
X114074363Y-67703819D01*
X113455315Y-68703819D02*
X113455315Y-67703819D01*
X113455315Y-67703819D02*
X113074363Y-67703819D01*
X113074363Y-67703819D02*
X112979125Y-67751438D01*
X112979125Y-67751438D02*
X112931506Y-67799057D01*
X112931506Y-67799057D02*
X112883887Y-67894295D01*
X112883887Y-67894295D02*
X112883887Y-68037152D01*
X112883887Y-68037152D02*
X112931506Y-68132390D01*
X112931506Y-68132390D02*
X112979125Y-68180009D01*
X112979125Y-68180009D02*
X113074363Y-68227628D01*
X113074363Y-68227628D02*
X113455315Y-68227628D01*
X112502934Y-68656200D02*
X112360077Y-68703819D01*
X112360077Y-68703819D02*
X112121982Y-68703819D01*
X112121982Y-68703819D02*
X112026744Y-68656200D01*
X112026744Y-68656200D02*
X111979125Y-68608580D01*
X111979125Y-68608580D02*
X111931506Y-68513342D01*
X111931506Y-68513342D02*
X111931506Y-68418104D01*
X111931506Y-68418104D02*
X111979125Y-68322866D01*
X111979125Y-68322866D02*
X112026744Y-68275247D01*
X112026744Y-68275247D02*
X112121982Y-68227628D01*
X112121982Y-68227628D02*
X112312458Y-68180009D01*
X112312458Y-68180009D02*
X112407696Y-68132390D01*
X112407696Y-68132390D02*
X112455315Y-68084771D01*
X112455315Y-68084771D02*
X112502934Y-67989533D01*
X112502934Y-67989533D02*
X112502934Y-67894295D01*
X112502934Y-67894295D02*
X112455315Y-67799057D01*
X112455315Y-67799057D02*
X112407696Y-67751438D01*
X112407696Y-67751438D02*
X112312458Y-67703819D01*
X112312458Y-67703819D02*
X112074363Y-67703819D01*
X112074363Y-67703819D02*
X111931506Y-67751438D01*
X111026744Y-67703819D02*
X111502934Y-67703819D01*
X111502934Y-67703819D02*
X111550553Y-68180009D01*
X111550553Y-68180009D02*
X111502934Y-68132390D01*
X111502934Y-68132390D02*
X111407696Y-68084771D01*
X111407696Y-68084771D02*
X111169601Y-68084771D01*
X111169601Y-68084771D02*
X111074363Y-68132390D01*
X111074363Y-68132390D02*
X111026744Y-68180009D01*
X111026744Y-68180009D02*
X110979125Y-68275247D01*
X110979125Y-68275247D02*
X110979125Y-68513342D01*
X110979125Y-68513342D02*
X111026744Y-68608580D01*
X111026744Y-68608580D02*
X111074363Y-68656200D01*
X111074363Y-68656200D02*
X111169601Y-68703819D01*
X111169601Y-68703819D02*
X111407696Y-68703819D01*
X111407696Y-68703819D02*
X111502934Y-68656200D01*
X111502934Y-68656200D02*
X111550553Y-68608580D01*
X110121982Y-68037152D02*
X110121982Y-68703819D01*
X110360077Y-67656200D02*
X110598172Y-68370485D01*
X110598172Y-68370485D02*
X109979125Y-68370485D01*
X109693410Y-67703819D02*
X109074363Y-67703819D01*
X109074363Y-67703819D02*
X109407696Y-68084771D01*
X109407696Y-68084771D02*
X109264839Y-68084771D01*
X109264839Y-68084771D02*
X109169601Y-68132390D01*
X109169601Y-68132390D02*
X109121982Y-68180009D01*
X109121982Y-68180009D02*
X109074363Y-68275247D01*
X109074363Y-68275247D02*
X109074363Y-68513342D01*
X109074363Y-68513342D02*
X109121982Y-68608580D01*
X109121982Y-68608580D02*
X109169601Y-68656200D01*
X109169601Y-68656200D02*
X109264839Y-68703819D01*
X109264839Y-68703819D02*
X109550553Y-68703819D01*
X109550553Y-68703819D02*
X109645791Y-68656200D01*
X109645791Y-68656200D02*
X109693410Y-68608580D01*
X108455315Y-67703819D02*
X108360077Y-67703819D01*
X108360077Y-67703819D02*
X108264839Y-67751438D01*
X108264839Y-67751438D02*
X108217220Y-67799057D01*
X108217220Y-67799057D02*
X108169601Y-67894295D01*
X108169601Y-67894295D02*
X108121982Y-68084771D01*
X108121982Y-68084771D02*
X108121982Y-68322866D01*
X108121982Y-68322866D02*
X108169601Y-68513342D01*
X108169601Y-68513342D02*
X108217220Y-68608580D01*
X108217220Y-68608580D02*
X108264839Y-68656200D01*
X108264839Y-68656200D02*
X108360077Y-68703819D01*
X108360077Y-68703819D02*
X108455315Y-68703819D01*
X108455315Y-68703819D02*
X108550553Y-68656200D01*
X108550553Y-68656200D02*
X108598172Y-68608580D01*
X108598172Y-68608580D02*
X108645791Y-68513342D01*
X108645791Y-68513342D02*
X108693410Y-68322866D01*
X108693410Y-68322866D02*
X108693410Y-68084771D01*
X108693410Y-68084771D02*
X108645791Y-67894295D01*
X108645791Y-67894295D02*
X108598172Y-67799057D01*
X108598172Y-67799057D02*
X108550553Y-67751438D01*
X108550553Y-67751438D02*
X108455315Y-67703819D01*
X107026743Y-67703819D02*
X106407696Y-67703819D01*
X106407696Y-67703819D02*
X106741029Y-68084771D01*
X106741029Y-68084771D02*
X106598172Y-68084771D01*
X106598172Y-68084771D02*
X106502934Y-68132390D01*
X106502934Y-68132390D02*
X106455315Y-68180009D01*
X106455315Y-68180009D02*
X106407696Y-68275247D01*
X106407696Y-68275247D02*
X106407696Y-68513342D01*
X106407696Y-68513342D02*
X106455315Y-68608580D01*
X106455315Y-68608580D02*
X106502934Y-68656200D01*
X106502934Y-68656200D02*
X106598172Y-68703819D01*
X106598172Y-68703819D02*
X106883886Y-68703819D01*
X106883886Y-68703819D02*
X106979124Y-68656200D01*
X106979124Y-68656200D02*
X107026743Y-68608580D01*
X106026743Y-68418104D02*
X105550553Y-68418104D01*
X106121981Y-68703819D02*
X105788648Y-67703819D01*
X105788648Y-67703819D02*
X105455315Y-68703819D01*
X112947220Y-70141819D02*
X112947220Y-69141819D01*
X112947220Y-69141819D02*
X112709125Y-69141819D01*
X112709125Y-69141819D02*
X112566268Y-69189438D01*
X112566268Y-69189438D02*
X112471030Y-69284676D01*
X112471030Y-69284676D02*
X112423411Y-69379914D01*
X112423411Y-69379914D02*
X112375792Y-69570390D01*
X112375792Y-69570390D02*
X112375792Y-69713247D01*
X112375792Y-69713247D02*
X112423411Y-69903723D01*
X112423411Y-69903723D02*
X112471030Y-69998961D01*
X112471030Y-69998961D02*
X112566268Y-70094200D01*
X112566268Y-70094200D02*
X112709125Y-70141819D01*
X112709125Y-70141819D02*
X112947220Y-70141819D01*
X111375792Y-70046580D02*
X111423411Y-70094200D01*
X111423411Y-70094200D02*
X111566268Y-70141819D01*
X111566268Y-70141819D02*
X111661506Y-70141819D01*
X111661506Y-70141819D02*
X111804363Y-70094200D01*
X111804363Y-70094200D02*
X111899601Y-69998961D01*
X111899601Y-69998961D02*
X111947220Y-69903723D01*
X111947220Y-69903723D02*
X111994839Y-69713247D01*
X111994839Y-69713247D02*
X111994839Y-69570390D01*
X111994839Y-69570390D02*
X111947220Y-69379914D01*
X111947220Y-69379914D02*
X111899601Y-69284676D01*
X111899601Y-69284676D02*
X111804363Y-69189438D01*
X111804363Y-69189438D02*
X111661506Y-69141819D01*
X111661506Y-69141819D02*
X111566268Y-69141819D01*
X111566268Y-69141819D02*
X111423411Y-69189438D01*
X111423411Y-69189438D02*
X111375792Y-69237057D01*
X110947220Y-70141819D02*
X110947220Y-69141819D01*
X110947220Y-69141819D02*
X110709125Y-69141819D01*
X110709125Y-69141819D02*
X110566268Y-69189438D01*
X110566268Y-69189438D02*
X110471030Y-69284676D01*
X110471030Y-69284676D02*
X110423411Y-69379914D01*
X110423411Y-69379914D02*
X110375792Y-69570390D01*
X110375792Y-69570390D02*
X110375792Y-69713247D01*
X110375792Y-69713247D02*
X110423411Y-69903723D01*
X110423411Y-69903723D02*
X110471030Y-69998961D01*
X110471030Y-69998961D02*
X110566268Y-70094200D01*
X110566268Y-70094200D02*
X110709125Y-70141819D01*
X110709125Y-70141819D02*
X110947220Y-70141819D01*
X109375792Y-70046580D02*
X109423411Y-70094200D01*
X109423411Y-70094200D02*
X109566268Y-70141819D01*
X109566268Y-70141819D02*
X109661506Y-70141819D01*
X109661506Y-70141819D02*
X109804363Y-70094200D01*
X109804363Y-70094200D02*
X109899601Y-69998961D01*
X109899601Y-69998961D02*
X109947220Y-69903723D01*
X109947220Y-69903723D02*
X109994839Y-69713247D01*
X109994839Y-69713247D02*
X109994839Y-69570390D01*
X109994839Y-69570390D02*
X109947220Y-69379914D01*
X109947220Y-69379914D02*
X109899601Y-69284676D01*
X109899601Y-69284676D02*
X109804363Y-69189438D01*
X109804363Y-69189438D02*
X109661506Y-69141819D01*
X109661506Y-69141819D02*
X109566268Y-69141819D01*
X109566268Y-69141819D02*
X109423411Y-69189438D01*
X109423411Y-69189438D02*
X109375792Y-69237057D01*
X110661505Y-71751819D02*
X110661505Y-70751819D01*
X110661505Y-71132771D02*
X110566267Y-71085152D01*
X110566267Y-71085152D02*
X110375791Y-71085152D01*
X110375791Y-71085152D02*
X110280553Y-71132771D01*
X110280553Y-71132771D02*
X110232934Y-71180390D01*
X110232934Y-71180390D02*
X110185315Y-71275628D01*
X110185315Y-71275628D02*
X110185315Y-71561342D01*
X110185315Y-71561342D02*
X110232934Y-71656580D01*
X110232934Y-71656580D02*
X110280553Y-71704200D01*
X110280553Y-71704200D02*
X110375791Y-71751819D01*
X110375791Y-71751819D02*
X110566267Y-71751819D01*
X110566267Y-71751819D02*
X110661505Y-71704200D01*
X109851981Y-71085152D02*
X109613886Y-71751819D01*
X109375791Y-71085152D02*
X109613886Y-71751819D01*
X109613886Y-71751819D02*
X109709124Y-71989914D01*
X109709124Y-71989914D02*
X109756743Y-72037533D01*
X109756743Y-72037533D02*
X109851981Y-72085152D01*
X108375790Y-71085152D02*
X107994838Y-71085152D01*
X108232933Y-70751819D02*
X108232933Y-71608961D01*
X108232933Y-71608961D02*
X108185314Y-71704200D01*
X108185314Y-71704200D02*
X108090076Y-71751819D01*
X108090076Y-71751819D02*
X107994838Y-71751819D01*
X107232933Y-71085152D02*
X107232933Y-71751819D01*
X107661504Y-71085152D02*
X107661504Y-71608961D01*
X107661504Y-71608961D02*
X107613885Y-71704200D01*
X107613885Y-71704200D02*
X107518647Y-71751819D01*
X107518647Y-71751819D02*
X107375790Y-71751819D01*
X107375790Y-71751819D02*
X107280552Y-71704200D01*
X107280552Y-71704200D02*
X107232933Y-71656580D01*
X106899599Y-71085152D02*
X106518647Y-71085152D01*
X106756742Y-70751819D02*
X106756742Y-71608961D01*
X106756742Y-71608961D02*
X106709123Y-71704200D01*
X106709123Y-71704200D02*
X106613885Y-71751819D01*
X106613885Y-71751819D02*
X106518647Y-71751819D01*
X106042456Y-71751819D02*
X106137694Y-71704200D01*
X106137694Y-71704200D02*
X106185313Y-71656580D01*
X106185313Y-71656580D02*
X106232932Y-71561342D01*
X106232932Y-71561342D02*
X106232932Y-71275628D01*
X106232932Y-71275628D02*
X106185313Y-71180390D01*
X106185313Y-71180390D02*
X106137694Y-71132771D01*
X106137694Y-71132771D02*
X106042456Y-71085152D01*
X106042456Y-71085152D02*
X105899599Y-71085152D01*
X105899599Y-71085152D02*
X105804361Y-71132771D01*
X105804361Y-71132771D02*
X105756742Y-71180390D01*
X105756742Y-71180390D02*
X105709123Y-71275628D01*
X105709123Y-71275628D02*
X105709123Y-71561342D01*
X105709123Y-71561342D02*
X105756742Y-71656580D01*
X105756742Y-71656580D02*
X105804361Y-71704200D01*
X105804361Y-71704200D02*
X105899599Y-71751819D01*
X105899599Y-71751819D02*
X106042456Y-71751819D01*
X105280551Y-71085152D02*
X105280551Y-71751819D01*
X105280551Y-71180390D02*
X105232932Y-71132771D01*
X105232932Y-71132771D02*
X105137694Y-71085152D01*
X105137694Y-71085152D02*
X104994837Y-71085152D01*
X104994837Y-71085152D02*
X104899599Y-71132771D01*
X104899599Y-71132771D02*
X104851980Y-71228009D01*
X104851980Y-71228009D02*
X104851980Y-71751819D01*
%TO.C,G\u002A\u002A\u002A*%
G36*
X118211023Y-56898088D02*
G01*
X118333251Y-56905425D01*
X118565938Y-56933624D01*
X118791700Y-56983232D01*
X119028278Y-57058607D01*
X119293409Y-57164110D01*
X119411932Y-57216090D01*
X119508450Y-57262187D01*
X119553255Y-57289411D01*
X119545844Y-57297198D01*
X119485715Y-57284988D01*
X119372363Y-57252220D01*
X119228286Y-57210566D01*
X118969799Y-57153958D01*
X118720336Y-57127034D01*
X118455401Y-57126432D01*
X118382854Y-57130424D01*
X118164195Y-57159755D01*
X117986288Y-57216254D01*
X117839377Y-57303869D01*
X117713707Y-57426548D01*
X117607094Y-57554091D01*
X117209115Y-57554091D01*
X117060617Y-57553202D01*
X116940269Y-57549621D01*
X116863551Y-57542606D01*
X116822995Y-57531432D01*
X116811136Y-57515371D01*
X116821933Y-57487146D01*
X116870302Y-57424983D01*
X116947682Y-57346071D01*
X117043242Y-57260010D01*
X117146150Y-57176400D01*
X117245574Y-57104840D01*
X117330682Y-57054929D01*
X117398388Y-57023583D01*
X117580633Y-56955317D01*
X117765066Y-56913740D01*
X117969318Y-56895711D01*
X118211023Y-56898088D01*
G37*
G36*
X119776201Y-57646349D02*
G01*
X119804092Y-57666365D01*
X119826069Y-57709093D01*
X119846581Y-57782979D01*
X119870077Y-57896466D01*
X119901008Y-58058000D01*
X119922765Y-58166311D01*
X119949273Y-58285853D01*
X119972227Y-58376407D01*
X119988307Y-58424057D01*
X119988308Y-58424057D01*
X120047360Y-58482872D01*
X120127563Y-58493634D01*
X120215533Y-58454546D01*
X120294018Y-58396519D01*
X120385418Y-58454390D01*
X120400301Y-58464092D01*
X120454781Y-58505668D01*
X120476818Y-58533258D01*
X120476716Y-58535422D01*
X120450445Y-58579545D01*
X120390248Y-58631911D01*
X120314251Y-58679126D01*
X120240579Y-58707799D01*
X120116772Y-58719196D01*
X119969232Y-58691312D01*
X119841836Y-58622241D01*
X119749214Y-58517645D01*
X119732826Y-58478407D01*
X119704962Y-58388565D01*
X119672333Y-58267153D01*
X119638237Y-58128271D01*
X119605975Y-57986017D01*
X119578845Y-57854489D01*
X119560148Y-57747787D01*
X119553182Y-57680008D01*
X119555231Y-57670048D01*
X119592675Y-57647763D01*
X119681123Y-57640682D01*
X119684879Y-57640677D01*
X119737946Y-57640601D01*
X119776201Y-57646349D01*
G37*
G36*
X117989981Y-57641118D02*
G01*
X118055312Y-57644532D01*
X118081136Y-57650227D01*
X118085265Y-57673379D01*
X118099172Y-57745006D01*
X118121124Y-57855921D01*
X118149289Y-57996877D01*
X118181835Y-58158621D01*
X118209346Y-58299062D01*
X118236142Y-58446107D01*
X118255675Y-58565534D01*
X118266387Y-58647723D01*
X118266722Y-58683054D01*
X118233377Y-58692980D01*
X118154154Y-58701118D01*
X118040920Y-58706617D01*
X117905537Y-58708636D01*
X117560162Y-58708636D01*
X117530835Y-58631500D01*
X117514484Y-58581168D01*
X117513290Y-58527880D01*
X117546812Y-58496447D01*
X117622624Y-58481515D01*
X117748299Y-58477727D01*
X117769315Y-58477694D01*
X117868986Y-58476504D01*
X117939052Y-58473954D01*
X117965453Y-58470511D01*
X117965430Y-58470265D01*
X117959232Y-58438147D01*
X117943628Y-58361248D01*
X117920891Y-58250685D01*
X117893294Y-58117574D01*
X117885788Y-58081500D01*
X117852128Y-57916852D01*
X117831196Y-57799344D01*
X117823956Y-57721027D01*
X117831375Y-57673952D01*
X117854420Y-57650169D01*
X117894056Y-57641729D01*
X117951250Y-57640682D01*
X117989981Y-57641118D01*
G37*
G36*
X116915984Y-57655057D02*
G01*
X117061550Y-57724323D01*
X117190884Y-57824789D01*
X117293695Y-57951951D01*
X117359691Y-58101307D01*
X117363121Y-58114048D01*
X117386623Y-58289377D01*
X117363101Y-58442518D01*
X117295720Y-58567420D01*
X117187646Y-58658036D01*
X117042045Y-58708314D01*
X117028672Y-58710376D01*
X116885743Y-58711404D01*
X116734789Y-58683003D01*
X116607209Y-58630774D01*
X116603606Y-58628633D01*
X116540439Y-58580231D01*
X116528202Y-58532581D01*
X116562680Y-58470511D01*
X116570355Y-58460747D01*
X116611658Y-58426695D01*
X116663022Y-58427737D01*
X116742894Y-58463118D01*
X116839971Y-58499477D01*
X116939996Y-58494444D01*
X117028926Y-58435744D01*
X117047292Y-58415073D01*
X117093770Y-58311594D01*
X117092010Y-58185426D01*
X117041762Y-58044218D01*
X117020141Y-58006848D01*
X116931268Y-57910925D01*
X116822875Y-57855729D01*
X116707809Y-57845853D01*
X116598915Y-57885888D01*
X116588022Y-57892895D01*
X116545503Y-57911396D01*
X116507804Y-57897770D01*
X116453677Y-57846210D01*
X116374312Y-57763370D01*
X116450437Y-57703490D01*
X116484802Y-57679481D01*
X116617319Y-57628134D01*
X116764476Y-57621493D01*
X116915984Y-57655057D01*
G37*
G36*
X117885739Y-59006138D02*
G01*
X118016869Y-59128956D01*
X118159040Y-59236118D01*
X118312045Y-59321715D01*
X118441062Y-59381361D01*
X118599528Y-59443283D01*
X118752647Y-59485971D01*
X118916098Y-59512619D01*
X119105557Y-59526423D01*
X119336705Y-59530580D01*
X119436438Y-59530647D01*
X119577391Y-59529537D01*
X119680095Y-59525326D01*
X119757063Y-59516224D01*
X119820803Y-59500443D01*
X119883825Y-59476197D01*
X119958640Y-59441697D01*
X120148158Y-59335641D01*
X120314981Y-59197763D01*
X120438133Y-59035306D01*
X120467223Y-58988504D01*
X120505841Y-58936548D01*
X120526898Y-58922276D01*
X120527475Y-58923113D01*
X120525220Y-58959557D01*
X120508495Y-59034489D01*
X120480614Y-59132842D01*
X120453767Y-59210012D01*
X120341421Y-59421954D01*
X120182452Y-59600512D01*
X119976610Y-59745879D01*
X119723641Y-59858245D01*
X119423295Y-59937802D01*
X119264895Y-59960046D01*
X118971185Y-59964473D01*
X118659136Y-59928877D01*
X118340298Y-59856159D01*
X118026218Y-59749219D01*
X117728446Y-59610959D01*
X117458531Y-59444280D01*
X117370729Y-59376256D01*
X117237179Y-59256829D01*
X117107461Y-59124992D01*
X116996130Y-58995815D01*
X116917743Y-58884372D01*
X116865600Y-58795227D01*
X117270755Y-58795227D01*
X117675911Y-58795227D01*
X117885739Y-59006138D01*
G37*
G36*
X113797521Y-57525372D02*
G01*
X113906323Y-57528147D01*
X113972610Y-57536067D01*
X114007743Y-57551231D01*
X114023087Y-57575739D01*
X114036486Y-57620839D01*
X114068113Y-57735167D01*
X114106387Y-57880745D01*
X114149210Y-58048855D01*
X114194485Y-58230782D01*
X114240116Y-58417806D01*
X114284005Y-58601212D01*
X114324056Y-58772282D01*
X114358170Y-58922298D01*
X114384252Y-59042544D01*
X114400204Y-59124303D01*
X114403929Y-59158857D01*
X114397593Y-59167167D01*
X114370965Y-59178589D01*
X114318769Y-59187075D01*
X114234575Y-59193007D01*
X114111953Y-59196769D01*
X113944472Y-59198745D01*
X113725703Y-59199318D01*
X113063004Y-59199318D01*
X113028031Y-59043045D01*
X113012108Y-58969591D01*
X113002278Y-58895825D01*
X113012650Y-58846497D01*
X113050730Y-58816691D01*
X113124023Y-58801489D01*
X113240034Y-58795973D01*
X113406266Y-58795227D01*
X113524469Y-58794941D01*
X113641483Y-58793024D01*
X113715801Y-58788249D01*
X113756086Y-58779410D01*
X113771001Y-58765300D01*
X113769208Y-58744716D01*
X113754703Y-58693557D01*
X113726613Y-58587176D01*
X113692319Y-58451785D01*
X113654359Y-58298007D01*
X113615273Y-58136465D01*
X113577600Y-57977783D01*
X113543879Y-57832583D01*
X113516649Y-57711491D01*
X113498449Y-57625128D01*
X113491818Y-57584119D01*
X113494302Y-57560457D01*
X113510236Y-57541258D01*
X113550738Y-57530669D01*
X113626858Y-57526167D01*
X113749646Y-57525227D01*
X113797521Y-57525372D01*
G37*
G36*
X114834476Y-57531544D02*
G01*
X115205517Y-57539659D01*
X115242884Y-57683977D01*
X115261792Y-57759098D01*
X115276422Y-57838128D01*
X115269931Y-57880393D01*
X115239007Y-57897349D01*
X115180341Y-57900455D01*
X115159964Y-57900547D01*
X115117485Y-57904453D01*
X115092373Y-57920599D01*
X115084009Y-57957727D01*
X115091769Y-58024575D01*
X115115032Y-58129882D01*
X115153177Y-58282387D01*
X115196291Y-58443639D01*
X115238454Y-58575404D01*
X115279284Y-58668760D01*
X115323098Y-58733406D01*
X115374212Y-58779043D01*
X115376144Y-58780364D01*
X115456244Y-58810005D01*
X115567505Y-58822730D01*
X115686449Y-58817691D01*
X115789597Y-58794041D01*
X115849695Y-58780332D01*
X115899044Y-58799321D01*
X115936820Y-58861451D01*
X115970310Y-58973975D01*
X115978712Y-59009194D01*
X115996953Y-59097832D01*
X115997631Y-59149320D01*
X115978674Y-59178051D01*
X115938011Y-59198419D01*
X115864915Y-59214391D01*
X115749994Y-59223446D01*
X115611864Y-59225241D01*
X115467765Y-59219999D01*
X115334938Y-59207944D01*
X115230625Y-59189296D01*
X115050366Y-59120038D01*
X114895313Y-59007708D01*
X114783002Y-58858972D01*
X114759215Y-58804403D01*
X114723930Y-58703635D01*
X114682719Y-58571686D01*
X114638089Y-58418162D01*
X114592547Y-58252669D01*
X114548598Y-58084816D01*
X114508750Y-57924208D01*
X114475510Y-57780452D01*
X114451384Y-57663154D01*
X114438879Y-57581922D01*
X114440501Y-57546362D01*
X114442316Y-57545116D01*
X114485427Y-57537411D01*
X114572939Y-57532287D01*
X114693179Y-57530186D01*
X114834476Y-57531544D01*
G37*
G36*
X111736685Y-57516082D02*
G01*
X111912254Y-57539334D01*
X112053039Y-57578063D01*
X112276293Y-57694244D01*
X112460037Y-57850528D01*
X112600310Y-58044255D01*
X112695521Y-58273705D01*
X112728695Y-58424283D01*
X112736334Y-58629300D01*
X112698255Y-58813275D01*
X112616853Y-58970212D01*
X112494525Y-59094118D01*
X112333665Y-59179000D01*
X112216477Y-59207717D01*
X112041217Y-59224476D01*
X111847864Y-59221949D01*
X111656148Y-59200561D01*
X111485795Y-59160737D01*
X111283750Y-59096201D01*
X111228792Y-58886661D01*
X111215587Y-58834696D01*
X111195249Y-58736080D01*
X111193000Y-58675994D01*
X111207865Y-58643090D01*
X111246062Y-58624083D01*
X111301020Y-58645983D01*
X111339768Y-58669535D01*
X111556180Y-58774973D01*
X111756612Y-58825813D01*
X111942358Y-58822412D01*
X111944742Y-58822003D01*
X112043363Y-58793873D01*
X112106207Y-58743190D01*
X112141636Y-58658563D01*
X112158010Y-58528599D01*
X112151436Y-58376302D01*
X112100783Y-58207248D01*
X112007201Y-58067344D01*
X111875049Y-57965262D01*
X111758334Y-57919514D01*
X111585833Y-57900348D01*
X111412945Y-57930877D01*
X111254497Y-58010032D01*
X111199757Y-58046257D01*
X111127191Y-58086749D01*
X111081667Y-58102500D01*
X111080466Y-58102438D01*
X111050664Y-58074293D01*
X111016584Y-58005447D01*
X110983665Y-57911336D01*
X110957343Y-57807393D01*
X110943057Y-57709055D01*
X110942437Y-57682890D01*
X110955129Y-57642053D01*
X110997289Y-57609179D01*
X111081705Y-57571587D01*
X111188808Y-57540443D01*
X111356208Y-57516512D01*
X111545085Y-57508433D01*
X111736685Y-57516082D01*
G37*
G36*
X110768934Y-58282707D02*
G01*
X110830506Y-58526793D01*
X110879672Y-58725577D01*
X110917261Y-58882513D01*
X110944100Y-59001055D01*
X110961017Y-59084655D01*
X110968838Y-59136767D01*
X110968393Y-59160845D01*
X110954057Y-59177419D01*
X110910447Y-59190443D01*
X110829285Y-59195313D01*
X110700626Y-59193233D01*
X110448489Y-59184886D01*
X110413230Y-59055000D01*
X110406882Y-59031534D01*
X110375259Y-58913033D01*
X110346282Y-58802443D01*
X110314593Y-58679773D01*
X110106444Y-58679430D01*
X109935114Y-58669951D01*
X109710511Y-58626475D01*
X109514516Y-58550995D01*
X109353712Y-58447080D01*
X109234682Y-58318302D01*
X109164008Y-58168232D01*
X109148708Y-58104151D01*
X109146079Y-58060068D01*
X109719845Y-58060068D01*
X109749883Y-58143598D01*
X109796183Y-58199546D01*
X109855826Y-58247260D01*
X109880306Y-58257545D01*
X109960961Y-58279296D01*
X110057872Y-58295592D01*
X110065482Y-58296486D01*
X110142198Y-58302230D01*
X110186018Y-58291022D01*
X110201232Y-58253212D01*
X110192132Y-58179156D01*
X110163008Y-58059205D01*
X110152938Y-58021774D01*
X110127105Y-57951895D01*
X110094588Y-57918157D01*
X110043552Y-57905313D01*
X110036751Y-57904557D01*
X109905583Y-57905594D01*
X109804504Y-57935541D01*
X109740321Y-57988874D01*
X109719845Y-58060068D01*
X109146079Y-58060068D01*
X109139501Y-57949768D01*
X109179511Y-57815521D01*
X109271182Y-57690515D01*
X109274115Y-57687469D01*
X109342030Y-57631305D01*
X109427504Y-57588899D01*
X109538510Y-57558670D01*
X109683023Y-57539036D01*
X109869017Y-57528416D01*
X110104467Y-57525227D01*
X110574366Y-57525227D01*
X110602330Y-57633466D01*
X110605262Y-57644815D01*
X110694128Y-57989865D01*
X110761400Y-58253212D01*
X110768934Y-58282707D01*
G37*
G36*
X108128734Y-57514272D02*
G01*
X108217479Y-57521860D01*
X108289624Y-57537341D01*
X108360760Y-57563325D01*
X108446475Y-57602420D01*
X108595440Y-57685821D01*
X108784095Y-57840824D01*
X108928267Y-58027417D01*
X109024325Y-58240510D01*
X109068640Y-58475011D01*
X109071075Y-58566195D01*
X109064025Y-58693302D01*
X109047033Y-58795227D01*
X109020834Y-58865035D01*
X108933701Y-58994623D01*
X108810746Y-59104310D01*
X108666397Y-59179529D01*
X108544493Y-59208804D01*
X108370449Y-59224595D01*
X108179012Y-59221695D01*
X107989939Y-59200524D01*
X107822987Y-59161506D01*
X107623814Y-59097739D01*
X107571444Y-58910404D01*
X107545555Y-58813973D01*
X107525936Y-58733216D01*
X107518060Y-58690077D01*
X107526268Y-58659188D01*
X107572175Y-58645038D01*
X107659677Y-58667137D01*
X107790281Y-58725680D01*
X107851339Y-58755409D01*
X107958237Y-58798118D01*
X108056068Y-58818736D01*
X108171264Y-58824091D01*
X108237018Y-58823189D01*
X108321669Y-58814839D01*
X108378756Y-58793300D01*
X108427562Y-58753244D01*
X108448599Y-58728097D01*
X108491854Y-58623991D01*
X108502015Y-58491064D01*
X108479183Y-58343214D01*
X108423460Y-58194340D01*
X108346989Y-58072698D01*
X108231044Y-57969696D01*
X108086073Y-57914918D01*
X107907210Y-57905644D01*
X107887792Y-57906972D01*
X107772833Y-57922082D01*
X107683845Y-57953351D01*
X107593161Y-58009968D01*
X107529141Y-58054063D01*
X107452469Y-58093201D01*
X107400893Y-58088826D01*
X107363362Y-58037906D01*
X107328829Y-57937406D01*
X107313586Y-57884348D01*
X107284485Y-57769147D01*
X107277295Y-57692358D01*
X107294900Y-57641882D01*
X107340182Y-57605624D01*
X107416023Y-57571485D01*
X107443552Y-57560941D01*
X107524219Y-57537417D01*
X107618525Y-57522612D01*
X107741132Y-57514751D01*
X107906705Y-57512059D01*
X108007803Y-57511968D01*
X108128734Y-57514272D01*
G37*
G36*
X107113216Y-58336276D02*
G01*
X107121348Y-58368143D01*
X107172416Y-58572041D01*
X107217273Y-58757539D01*
X107232682Y-58824091D01*
X107254228Y-58917150D01*
X107281588Y-59043389D01*
X107297660Y-59128768D01*
X107300751Y-59165803D01*
X107300511Y-59166394D01*
X107283940Y-59179603D01*
X107242934Y-59188952D01*
X107170843Y-59194752D01*
X107061018Y-59197317D01*
X106906810Y-59196960D01*
X106701570Y-59193994D01*
X106686676Y-59193726D01*
X106488838Y-59189668D01*
X106338544Y-59184945D01*
X106226241Y-59178542D01*
X106142376Y-59169442D01*
X106077394Y-59156632D01*
X106021742Y-59139096D01*
X105965866Y-59115819D01*
X105854152Y-59053968D01*
X105732456Y-58950376D01*
X105645420Y-58831059D01*
X105596146Y-58704872D01*
X105591603Y-58637779D01*
X106174886Y-58637779D01*
X106178171Y-58677419D01*
X106206363Y-58729069D01*
X106275909Y-58773535D01*
X106300271Y-58784181D01*
X106409326Y-58812919D01*
X106530759Y-58824046D01*
X106684587Y-58824091D01*
X106664184Y-58730284D01*
X106648283Y-58660334D01*
X106621934Y-58575631D01*
X106588431Y-58529882D01*
X106537039Y-58511642D01*
X106457021Y-58509468D01*
X106423330Y-58510373D01*
X106300989Y-58520005D01*
X106224867Y-58541691D01*
X106185865Y-58579570D01*
X106174886Y-58637779D01*
X105591603Y-58637779D01*
X105587736Y-58580673D01*
X105623293Y-58467317D01*
X105705917Y-58373660D01*
X105774364Y-58322029D01*
X105649910Y-58202781D01*
X105608492Y-58161891D01*
X105555212Y-58097346D01*
X105531107Y-58037132D01*
X105528655Y-58003828D01*
X106102727Y-58003828D01*
X106113421Y-58049541D01*
X106161281Y-58102942D01*
X106178917Y-58110977D01*
X106249136Y-58131513D01*
X106334967Y-58147004D01*
X106418462Y-58155389D01*
X106481675Y-58154608D01*
X106506657Y-58142600D01*
X106506192Y-58136659D01*
X106495916Y-58084827D01*
X106476437Y-58008693D01*
X106473125Y-57996926D01*
X106448259Y-57932315D01*
X106410701Y-57905790D01*
X106339496Y-57900849D01*
X106273221Y-57902674D01*
X106173566Y-57917610D01*
X106119203Y-57950255D01*
X106102727Y-58003828D01*
X105528655Y-58003828D01*
X105525455Y-57960367D01*
X105525600Y-57947667D01*
X105552892Y-57804754D01*
X105628870Y-57691329D01*
X105755733Y-57603989D01*
X105777582Y-57593563D01*
X105830216Y-57572640D01*
X105889602Y-57557418D01*
X105965938Y-57546725D01*
X106069416Y-57539390D01*
X106210231Y-57534241D01*
X106398580Y-57530106D01*
X106547018Y-57527873D01*
X106692468Y-57526887D01*
X106807712Y-57527443D01*
X106883582Y-57529489D01*
X106910909Y-57532972D01*
X106911113Y-57534327D01*
X106920235Y-57573150D01*
X106941594Y-57659487D01*
X106973382Y-57786154D01*
X107013788Y-57945964D01*
X107061002Y-58131733D01*
X107063776Y-58142600D01*
X107113216Y-58336276D01*
G37*
G36*
X119349429Y-58480029D02*
G01*
X119303367Y-58569261D01*
X119298057Y-58574712D01*
X119223142Y-58612830D01*
X119126398Y-58619716D01*
X119033491Y-58593104D01*
X118999860Y-58579863D01*
X118961526Y-58593104D01*
X118946743Y-58607341D01*
X118883270Y-58621809D01*
X118791823Y-58612979D01*
X118687924Y-58584566D01*
X118587095Y-58540282D01*
X118504860Y-58483842D01*
X118474789Y-58452106D01*
X118408804Y-58351003D01*
X118359981Y-58234966D01*
X118340909Y-58131080D01*
X118357168Y-58026603D01*
X118420367Y-57907791D01*
X118521795Y-57822141D01*
X118604931Y-57791272D01*
X118745359Y-57770592D01*
X118901686Y-57772080D01*
X119052891Y-57795185D01*
X119177955Y-57839356D01*
X119304383Y-57916527D01*
X119453794Y-58055686D01*
X119552190Y-58221668D01*
X119599781Y-58414758D01*
X119602232Y-58448534D01*
X119581866Y-58591335D01*
X119511444Y-58708534D01*
X119393910Y-58796626D01*
X119232211Y-58852105D01*
X119173510Y-58860784D01*
X119053280Y-58867652D01*
X118932614Y-58864369D01*
X118879616Y-58858204D01*
X118756813Y-58831339D01*
X118640427Y-58791053D01*
X118540421Y-58742642D01*
X118466756Y-58691402D01*
X118429397Y-58642629D01*
X118438306Y-58601619D01*
X118467691Y-58603440D01*
X118534127Y-58626954D01*
X118621763Y-58667427D01*
X118686329Y-58698367D01*
X118778701Y-58731399D01*
X118875925Y-58746760D01*
X119004267Y-58750130D01*
X119177635Y-58739000D01*
X119311330Y-58703255D01*
X119400820Y-58639384D01*
X119450957Y-58543850D01*
X119466591Y-58413117D01*
X119453054Y-58312144D01*
X119393598Y-58170958D01*
X119296971Y-58046546D01*
X119174318Y-57956327D01*
X119169203Y-57953750D01*
X119031906Y-57903614D01*
X118883821Y-57878843D01*
X118744926Y-57881078D01*
X118635193Y-57911966D01*
X118605999Y-57928095D01*
X118510644Y-58007538D01*
X118469716Y-58102509D01*
X118481407Y-58216586D01*
X118485371Y-58228409D01*
X118524369Y-58302741D01*
X118582192Y-58378998D01*
X118646564Y-58444412D01*
X118705209Y-58486213D01*
X118745851Y-58491633D01*
X118749436Y-58464257D01*
X118732753Y-58398497D01*
X118698277Y-58310600D01*
X118686021Y-58283290D01*
X118658643Y-58222049D01*
X118849860Y-58222049D01*
X118876425Y-58319562D01*
X118947691Y-58420691D01*
X118964161Y-58437479D01*
X119044694Y-58495513D01*
X119112949Y-58507873D01*
X119160259Y-58475382D01*
X119177955Y-58398860D01*
X119177615Y-58386175D01*
X119156131Y-58294297D01*
X119108627Y-58212186D01*
X119045503Y-58148199D01*
X118977160Y-58110693D01*
X118913998Y-58108023D01*
X118866417Y-58148547D01*
X118849860Y-58222049D01*
X118658643Y-58222049D01*
X118632168Y-58162827D01*
X118600583Y-58084747D01*
X118591158Y-58039900D01*
X118603787Y-58019135D01*
X118638360Y-58013302D01*
X118694771Y-58013251D01*
X118705778Y-58013201D01*
X118824197Y-58011581D01*
X118939585Y-58008570D01*
X119050748Y-58025608D01*
X119157619Y-58081532D01*
X119247942Y-58165755D01*
X119314698Y-58267457D01*
X119350866Y-58375822D01*
X119350548Y-58398860D01*
X119349429Y-58480029D01*
G37*
G36*
X108909877Y-62734823D02*
G01*
X108919898Y-62769315D01*
X108914540Y-62797278D01*
X108892714Y-62807371D01*
X108882680Y-62801967D01*
X108865531Y-62769315D01*
X108867461Y-62757968D01*
X108892714Y-62731258D01*
X108909877Y-62734823D01*
G37*
G36*
X108058875Y-63127433D02*
G01*
X108072026Y-63171126D01*
X108057283Y-63211495D01*
X108024133Y-63225701D01*
X107978458Y-63218981D01*
X107948519Y-63191687D01*
X107945833Y-63181335D01*
X107956800Y-63139502D01*
X107991745Y-63110084D01*
X108035300Y-63107914D01*
X108058875Y-63127433D01*
G37*
G36*
X108901884Y-62860225D02*
G01*
X108926880Y-62867617D01*
X108954119Y-62889162D01*
X108958126Y-62911343D01*
X108932583Y-62921541D01*
X108929828Y-62921632D01*
X108910517Y-62933083D01*
X108900814Y-62969946D01*
X108898151Y-63041147D01*
X108900971Y-63112336D01*
X108911099Y-63150015D01*
X108930771Y-63160753D01*
X108945983Y-63164542D01*
X108963391Y-63193373D01*
X108961812Y-63202751D01*
X108936889Y-63220606D01*
X108876404Y-63225993D01*
X108837249Y-63223292D01*
X108797299Y-63209851D01*
X108790545Y-63189849D01*
X108822038Y-63168617D01*
X108826804Y-63166273D01*
X108843333Y-63142404D01*
X108852091Y-63091194D01*
X108854658Y-63004688D01*
X108854716Y-62975342D01*
X108856505Y-62908074D01*
X108863004Y-62872458D01*
X108877151Y-62859504D01*
X108901884Y-62860225D01*
G37*
G36*
X107359663Y-62858442D02*
G01*
X107371954Y-62888873D01*
X107377274Y-62945630D01*
X107376167Y-63016236D01*
X107369178Y-63088218D01*
X107356851Y-63149101D01*
X107339731Y-63186411D01*
X107313989Y-63206941D01*
X107265349Y-63220405D01*
X107187505Y-63221510D01*
X107071439Y-63216653D01*
X107071439Y-63036477D01*
X107071552Y-63016239D01*
X107074990Y-62932649D01*
X107082519Y-62876704D01*
X107093185Y-62856301D01*
X107099491Y-62860460D01*
X107110553Y-62894877D01*
X107114932Y-62952745D01*
X107123942Y-63057454D01*
X107153881Y-63134008D01*
X107204759Y-63172528D01*
X107251199Y-63173822D01*
X107294458Y-63139907D01*
X107322450Y-63071689D01*
X107332398Y-62973498D01*
X107334232Y-62926513D01*
X107342130Y-62875941D01*
X107354144Y-62856301D01*
X107359663Y-62858442D01*
G37*
G36*
X105570925Y-62865759D02*
G01*
X105570925Y-63045876D01*
X105570812Y-63066068D01*
X105567375Y-63149649D01*
X105559846Y-63205590D01*
X105549178Y-63225993D01*
X105540229Y-63215331D01*
X105531007Y-63171887D01*
X105527432Y-63106387D01*
X105525191Y-63046429D01*
X105512064Y-62985194D01*
X105483939Y-62943287D01*
X105443730Y-62909037D01*
X105408861Y-62903917D01*
X105364651Y-62929492D01*
X105344184Y-62952171D01*
X105325240Y-63005417D01*
X105314388Y-63092591D01*
X105314070Y-63096894D01*
X105304105Y-63178968D01*
X105291674Y-63218334D01*
X105279466Y-63215437D01*
X105270169Y-63170723D01*
X105266473Y-63084640D01*
X105267947Y-63029446D01*
X105282233Y-62943522D01*
X105315936Y-62890735D01*
X105374205Y-62865199D01*
X105462194Y-62861028D01*
X105570925Y-62865759D01*
G37*
G36*
X109162246Y-62752967D02*
G01*
X109180856Y-62769315D01*
X109177176Y-62779319D01*
X109148237Y-62791061D01*
X109132162Y-62798649D01*
X109122079Y-62826934D01*
X109117009Y-62883494D01*
X109115617Y-62975907D01*
X109116956Y-63066996D01*
X109121947Y-63124135D01*
X109131928Y-63152861D01*
X109148237Y-63160753D01*
X109163449Y-63164542D01*
X109180856Y-63193373D01*
X109180792Y-63195416D01*
X109161811Y-63218666D01*
X109106027Y-63225993D01*
X109064943Y-63222551D01*
X109024805Y-63208346D01*
X109013499Y-63188563D01*
X109038125Y-63169146D01*
X109040704Y-63168033D01*
X109056298Y-63151578D01*
X109065911Y-63115309D01*
X109070776Y-63051351D01*
X109072124Y-62951834D01*
X109072134Y-62920619D01*
X109072937Y-62836472D01*
X109076594Y-62785287D01*
X109085284Y-62758870D01*
X109101190Y-62749028D01*
X109126490Y-62747568D01*
X109162246Y-62752967D01*
G37*
G36*
X105128549Y-62761066D02*
G01*
X105135993Y-62801934D01*
X105142475Y-62837357D01*
X105167330Y-62856301D01*
X105171021Y-62856379D01*
X105206140Y-62869646D01*
X105211017Y-62894468D01*
X105181675Y-62914667D01*
X105181286Y-62914770D01*
X105157135Y-62925763D01*
X105143463Y-62949532D01*
X105137379Y-62996303D01*
X105135993Y-63076303D01*
X105133175Y-63152223D01*
X105125450Y-63205910D01*
X105114247Y-63225993D01*
X105114226Y-63225993D01*
X105103075Y-63205813D01*
X105095374Y-63151855D01*
X105092500Y-63073767D01*
X105092488Y-63061650D01*
X105090948Y-62986402D01*
X105084959Y-62944168D01*
X105071864Y-62925648D01*
X105049007Y-62921541D01*
X105023644Y-62915486D01*
X105005514Y-62888921D01*
X105013587Y-62869898D01*
X105049007Y-62856301D01*
X105082307Y-62844567D01*
X105092500Y-62801934D01*
X105097899Y-62766178D01*
X105114247Y-62747568D01*
X105128549Y-62761066D01*
G37*
G36*
X108627264Y-62744575D02*
G01*
X108663706Y-62778471D01*
X108718742Y-62842951D01*
X108737187Y-62871257D01*
X108744300Y-62906950D01*
X108724178Y-62921541D01*
X108715229Y-62932203D01*
X108706007Y-62975646D01*
X108702432Y-63041147D01*
X108704370Y-63090370D01*
X108712269Y-63141091D01*
X108724178Y-63160753D01*
X108734182Y-63164433D01*
X108745925Y-63193373D01*
X108745787Y-63196344D01*
X108726106Y-63218919D01*
X108669812Y-63225993D01*
X108662880Y-63225934D01*
X108610204Y-63217499D01*
X108593699Y-63193373D01*
X108596152Y-63178367D01*
X108615446Y-63160753D01*
X108624395Y-63150091D01*
X108633617Y-63106647D01*
X108637192Y-63041147D01*
X108635254Y-62991924D01*
X108627355Y-62941203D01*
X108615446Y-62921541D01*
X108612695Y-62921379D01*
X108595312Y-62903894D01*
X108598572Y-62872509D01*
X108620882Y-62848606D01*
X108631932Y-62832412D01*
X108605741Y-62803219D01*
X108578834Y-62772449D01*
X108587256Y-62745312D01*
X108602838Y-62736378D01*
X108627264Y-62744575D01*
G37*
G36*
X106349578Y-60685623D02*
G01*
X106575876Y-60686833D01*
X107450347Y-60692517D01*
X107483795Y-60754023D01*
X107517243Y-60815530D01*
X107174847Y-61145462D01*
X107069774Y-61247690D01*
X106962495Y-61356175D01*
X106881503Y-61445445D01*
X106823251Y-61520847D01*
X106784190Y-61587729D01*
X106760771Y-61651437D01*
X106749448Y-61717318D01*
X106746672Y-61790719D01*
X106755546Y-61898705D01*
X106801576Y-62047891D01*
X106887115Y-62179114D01*
X107012453Y-62292921D01*
X107101213Y-62357218D01*
X106735763Y-62351237D01*
X106370313Y-62345256D01*
X106036582Y-61540633D01*
X106012031Y-61481373D01*
X105940654Y-61308264D01*
X105875338Y-61148662D01*
X105817869Y-61007006D01*
X105770030Y-60887732D01*
X105733604Y-60795278D01*
X105710375Y-60734081D01*
X105702128Y-60708580D01*
X105703294Y-60705624D01*
X105718460Y-60699136D01*
X105753794Y-60693996D01*
X105812627Y-60690121D01*
X105898291Y-60687430D01*
X106014117Y-60685838D01*
X106163435Y-60685263D01*
X106349578Y-60685623D01*
G37*
G36*
X108525331Y-63023896D02*
G01*
X108521181Y-63101024D01*
X108475081Y-63172615D01*
X108453962Y-63190696D01*
X108378378Y-63222948D01*
X108297834Y-63219635D01*
X108226670Y-63180313D01*
X108196546Y-63147291D01*
X108191140Y-63124698D01*
X108218788Y-63125010D01*
X108276196Y-63150228D01*
X108287694Y-63156373D01*
X108333906Y-63176897D01*
X108366830Y-63175691D01*
X108406806Y-63153221D01*
X108429812Y-63137129D01*
X108458065Y-63107306D01*
X108448440Y-63087739D01*
X108399208Y-63077026D01*
X108308636Y-63073767D01*
X108154052Y-63073767D01*
X108168654Y-63013964D01*
X108180029Y-62982048D01*
X108236029Y-62982048D01*
X108242337Y-62998435D01*
X108275710Y-63006423D01*
X108344296Y-63008527D01*
X108420131Y-63003470D01*
X108457606Y-62989305D01*
X108454897Y-62967634D01*
X108410457Y-62940061D01*
X108392636Y-62933387D01*
X108328746Y-62926938D01*
X108271463Y-62942232D01*
X108237962Y-62975719D01*
X108236029Y-62982048D01*
X108180029Y-62982048D01*
X108184822Y-62968601D01*
X108240609Y-62901350D01*
X108326508Y-62865159D01*
X108370424Y-62860707D01*
X108413059Y-62874941D01*
X108462348Y-62917324D01*
X108487778Y-62946223D01*
X108508607Y-62989305D01*
X108525331Y-63023896D01*
G37*
G36*
X107844375Y-63082213D02*
G01*
X107798016Y-63159084D01*
X107774961Y-63184281D01*
X107724481Y-63217376D01*
X107657947Y-63225993D01*
X107643377Y-63225637D01*
X107588888Y-63217479D01*
X107559302Y-63201924D01*
X107547829Y-63190248D01*
X107527830Y-63204710D01*
X107521574Y-63213736D01*
X107498035Y-63225371D01*
X107479454Y-63198089D01*
X107467259Y-63135483D01*
X107464421Y-63074382D01*
X107531501Y-63074382D01*
X107571610Y-63139006D01*
X107611255Y-63167740D01*
X107658596Y-63182500D01*
X107679664Y-63180069D01*
X107734354Y-63149672D01*
X107773215Y-63095667D01*
X107788493Y-63032277D01*
X107772433Y-62973726D01*
X107734213Y-62936345D01*
X107671320Y-62913588D01*
X107609666Y-62924031D01*
X107571861Y-62949787D01*
X107532106Y-63008367D01*
X107531501Y-63074382D01*
X107464421Y-63074382D01*
X107462877Y-63041147D01*
X107463147Y-63015913D01*
X107469488Y-62929917D01*
X107483069Y-62874841D01*
X107502324Y-62854851D01*
X107525685Y-62874113D01*
X107536784Y-62884285D01*
X107572184Y-62877233D01*
X107640564Y-62856110D01*
X107718236Y-62870572D01*
X107790748Y-62919868D01*
X107808637Y-62939196D01*
X107847952Y-63010126D01*
X107846853Y-63032277D01*
X107844375Y-63082213D01*
G37*
G36*
X106006061Y-63025546D02*
G01*
X105996884Y-63102381D01*
X105952479Y-63172615D01*
X105920452Y-63198513D01*
X105841821Y-63226338D01*
X105759457Y-63216031D01*
X105684724Y-63167796D01*
X105672996Y-63155470D01*
X105647876Y-63117526D01*
X105655166Y-63101168D01*
X105689355Y-63108712D01*
X105744938Y-63142474D01*
X105749692Y-63145977D01*
X105795100Y-63174966D01*
X105828467Y-63178789D01*
X105869319Y-63160236D01*
X105899602Y-63141872D01*
X105933967Y-63110875D01*
X105927676Y-63089726D01*
X105879999Y-63077623D01*
X105790203Y-63073767D01*
X105752764Y-63073674D01*
X105687647Y-63071632D01*
X105652777Y-63064492D01*
X105638751Y-63049116D01*
X105636165Y-63022366D01*
X105643733Y-62989443D01*
X105701404Y-62989443D01*
X105712061Y-62997295D01*
X105755505Y-63005389D01*
X105821011Y-63008527D01*
X105870222Y-63006827D01*
X105920951Y-62999895D01*
X105940617Y-62989443D01*
X105922487Y-62955788D01*
X105877127Y-62927710D01*
X105821011Y-62916104D01*
X105766124Y-62927220D01*
X105720332Y-62955034D01*
X105701404Y-62989443D01*
X105643733Y-62989443D01*
X105646742Y-62976356D01*
X105689529Y-62917248D01*
X105753251Y-62873435D01*
X105824965Y-62856301D01*
X105864579Y-62860497D01*
X105935674Y-62894098D01*
X105984246Y-62952616D01*
X105995262Y-62989443D01*
X106006061Y-63025546D01*
G37*
G36*
X104560642Y-63082213D02*
G01*
X104514283Y-63159084D01*
X104507739Y-63166477D01*
X104439395Y-63213951D01*
X104361644Y-63227761D01*
X104288451Y-63205061D01*
X104269953Y-63196875D01*
X104241953Y-63208180D01*
X104234233Y-63216217D01*
X104203322Y-63216622D01*
X104199005Y-63211536D01*
X104188257Y-63168802D01*
X104181494Y-63088402D01*
X104181229Y-63075592D01*
X104249618Y-63075592D01*
X104287877Y-63139006D01*
X104327522Y-63167740D01*
X104374863Y-63182500D01*
X104414509Y-63171588D01*
X104461850Y-63139006D01*
X104475023Y-63124282D01*
X104503808Y-63062826D01*
X104500351Y-63002752D01*
X104471554Y-62952471D01*
X104424322Y-62920392D01*
X104365558Y-62914927D01*
X104302167Y-62944485D01*
X104296387Y-62949212D01*
X104252669Y-63009419D01*
X104249618Y-63075592D01*
X104181229Y-63075592D01*
X104179144Y-62974624D01*
X104179389Y-62916200D01*
X104181655Y-62831869D01*
X104187133Y-62780344D01*
X104196832Y-62754589D01*
X104211764Y-62747568D01*
X104215269Y-62747761D01*
X104237455Y-62767849D01*
X104244384Y-62824446D01*
X104246754Y-62873243D01*
X104258521Y-62889114D01*
X104286447Y-62878813D01*
X104348685Y-62858101D01*
X104430435Y-62868074D01*
X104507016Y-62919868D01*
X104524904Y-62939196D01*
X104564219Y-63010126D01*
X104561604Y-63062826D01*
X104560642Y-63082213D01*
G37*
G36*
X104983767Y-63030030D02*
G01*
X104980337Y-63061496D01*
X104950054Y-63137678D01*
X104898666Y-63198118D01*
X104880777Y-63209473D01*
X104808826Y-63226160D01*
X104730720Y-63211575D01*
X104662635Y-63167796D01*
X104654547Y-63159428D01*
X104626751Y-63119669D01*
X104631979Y-63101311D01*
X104664665Y-63107107D01*
X104719243Y-63139809D01*
X104722784Y-63142378D01*
X104791642Y-63172741D01*
X104852107Y-63163581D01*
X104897569Y-63115787D01*
X104902092Y-63106901D01*
X104905852Y-63088580D01*
X104889880Y-63078651D01*
X104846258Y-63074563D01*
X104767067Y-63073767D01*
X104723480Y-63073656D01*
X104661428Y-63071471D01*
X104628816Y-63063817D01*
X104616184Y-63047271D01*
X104614076Y-63018412D01*
X104619345Y-62987282D01*
X104679315Y-62987282D01*
X104689755Y-62995961D01*
X104732951Y-63005015D01*
X104798239Y-63008527D01*
X104827801Y-63008305D01*
X104882282Y-63004579D01*
X104904877Y-62994134D01*
X104904006Y-62974241D01*
X104896537Y-62959698D01*
X104851762Y-62923868D01*
X104790711Y-62913349D01*
X104730747Y-62932337D01*
X104695696Y-62961036D01*
X104679315Y-62987282D01*
X104619345Y-62987282D01*
X104620174Y-62982382D01*
X104657768Y-62920500D01*
X104718352Y-62874392D01*
X104788733Y-62856301D01*
X104791347Y-62856336D01*
X104855294Y-62874417D01*
X104917674Y-62917404D01*
X104964996Y-62973281D01*
X104971894Y-62994134D01*
X104983767Y-63030030D01*
G37*
G36*
X104947102Y-60681507D02*
G01*
X105046152Y-60685089D01*
X105129958Y-60690872D01*
X105189625Y-60698802D01*
X105216260Y-60708827D01*
X105217810Y-60711424D01*
X105235677Y-60748454D01*
X105266547Y-60818268D01*
X105308292Y-60915660D01*
X105358783Y-61035421D01*
X105415893Y-61172344D01*
X105477493Y-61321221D01*
X105541454Y-61476845D01*
X105605650Y-61634009D01*
X105667951Y-61787504D01*
X105726230Y-61932123D01*
X105778358Y-62062659D01*
X105822207Y-62173905D01*
X105855649Y-62260651D01*
X105876556Y-62317692D01*
X105882800Y-62339820D01*
X105879052Y-62342360D01*
X105842561Y-62349385D01*
X105776954Y-62354288D01*
X105693122Y-62356130D01*
X105653102Y-62355702D01*
X105508246Y-62343660D01*
X105390342Y-62311994D01*
X105288064Y-62256588D01*
X105190085Y-62173324D01*
X105176132Y-62159367D01*
X105146611Y-62127807D01*
X105119618Y-62093999D01*
X105092786Y-62053191D01*
X105063747Y-62000626D01*
X105030134Y-61931553D01*
X104989582Y-61841215D01*
X104939723Y-61724861D01*
X104878189Y-61577734D01*
X104802615Y-61395083D01*
X104757682Y-61285923D01*
X104695335Y-61133370D01*
X104639958Y-60996580D01*
X104593499Y-60880432D01*
X104557902Y-60789805D01*
X104535117Y-60729578D01*
X104527089Y-60704629D01*
X104534478Y-60698524D01*
X104576338Y-60690283D01*
X104647425Y-60684516D01*
X104738844Y-60681167D01*
X104841701Y-60680182D01*
X104947102Y-60681507D01*
G37*
G36*
X106281878Y-62880062D02*
G01*
X106303037Y-62892114D01*
X106348133Y-62881081D01*
X106357101Y-62877105D01*
X106412728Y-62865000D01*
X106480947Y-62861941D01*
X106571267Y-62865543D01*
X106571267Y-63045768D01*
X106571154Y-63066042D01*
X106567715Y-63149641D01*
X106560186Y-63205589D01*
X106549521Y-63225993D01*
X106539809Y-63212552D01*
X106531111Y-63165932D01*
X106527774Y-63097067D01*
X106527228Y-63064647D01*
X106517126Y-62981197D01*
X106493601Y-62933967D01*
X106464873Y-62908070D01*
X106437839Y-62903028D01*
X106395865Y-62922306D01*
X106382318Y-62931284D01*
X106364567Y-62957810D01*
X106356016Y-63005482D01*
X106353802Y-63085405D01*
X106353578Y-63116362D01*
X106349692Y-63182682D01*
X106339522Y-63216518D01*
X106321182Y-63225993D01*
X106313999Y-63225027D01*
X106298611Y-63208281D01*
X106290760Y-63164447D01*
X106288562Y-63085405D01*
X106288045Y-63039850D01*
X106282951Y-62977793D01*
X106270057Y-62942313D01*
X106246498Y-62922306D01*
X106208954Y-62904316D01*
X106181206Y-62905810D01*
X106148763Y-62933967D01*
X106139289Y-62946079D01*
X106120599Y-63003918D01*
X106114589Y-63098879D01*
X106114578Y-63103366D01*
X106108800Y-63182847D01*
X106095455Y-63221043D01*
X106078924Y-63218414D01*
X106063587Y-63175418D01*
X106053825Y-63092513D01*
X106053279Y-63020183D01*
X106064960Y-62962554D01*
X106093460Y-62914822D01*
X106109189Y-62897797D01*
X106167812Y-62863235D01*
X106230697Y-62856342D01*
X106281878Y-62880062D01*
G37*
G36*
X106997090Y-63117785D02*
G01*
X106954551Y-63175205D01*
X106894344Y-63213968D01*
X106822190Y-63226064D01*
X106743810Y-63203481D01*
X106743454Y-63203291D01*
X106709413Y-63193250D01*
X106704846Y-63212397D01*
X106730626Y-63257174D01*
X106741322Y-63268965D01*
X106795072Y-63293238D01*
X106860074Y-63290010D01*
X106918675Y-63259099D01*
X106958546Y-63231327D01*
X106987829Y-63229038D01*
X106989945Y-63253785D01*
X106957640Y-63298275D01*
X106922301Y-63327120D01*
X106845685Y-63357010D01*
X106769430Y-63352007D01*
X106704171Y-63314018D01*
X106660541Y-63244953D01*
X106651335Y-63213121D01*
X106639533Y-63140990D01*
X106636107Y-63076766D01*
X106709146Y-63076766D01*
X106743923Y-63137689D01*
X106784878Y-63170487D01*
X106830714Y-63178015D01*
X106892502Y-63155747D01*
X106931813Y-63122277D01*
X106958938Y-63061649D01*
X106955347Y-62998969D01*
X106930890Y-62966597D01*
X106886517Y-62930364D01*
X106886513Y-62930362D01*
X106844952Y-62907001D01*
X106813872Y-62908705D01*
X106771179Y-62936685D01*
X106755864Y-62949282D01*
X106713590Y-63010542D01*
X106709146Y-63076766D01*
X106636107Y-63076766D01*
X106635378Y-63063098D01*
X106638013Y-62987642D01*
X106646582Y-62922818D01*
X106660227Y-62876824D01*
X106678090Y-62857857D01*
X106699316Y-62874113D01*
X106710414Y-62884285D01*
X106745814Y-62877233D01*
X106805268Y-62857970D01*
X106882715Y-62867337D01*
X106954969Y-62907849D01*
X106961481Y-62913689D01*
X107006277Y-62979016D01*
X107016240Y-63049718D01*
X107012883Y-63061649D01*
X106997090Y-63117785D01*
G37*
G36*
X106060407Y-59856277D02*
G01*
X106382194Y-59856627D01*
X106663708Y-59857232D01*
X106907564Y-59858133D01*
X107116378Y-59859374D01*
X107292763Y-59860998D01*
X107439336Y-59863047D01*
X107558710Y-59865564D01*
X107653501Y-59868593D01*
X107726325Y-59872175D01*
X107779795Y-59876354D01*
X107816527Y-59881173D01*
X107839137Y-59886674D01*
X107861331Y-59895158D01*
X107974626Y-59954638D01*
X108076583Y-60032656D01*
X108151270Y-60117433D01*
X108166832Y-60147506D01*
X108197291Y-60213282D01*
X108240015Y-60308912D01*
X108292760Y-60429111D01*
X108353281Y-60568593D01*
X108419332Y-60722075D01*
X108488668Y-60884271D01*
X108559044Y-61049898D01*
X108628214Y-61213669D01*
X108693934Y-61370300D01*
X108753958Y-61514507D01*
X108806041Y-61641005D01*
X108847938Y-61744509D01*
X108877403Y-61819734D01*
X108892191Y-61861395D01*
X108892217Y-61861485D01*
X108892839Y-61871219D01*
X108885886Y-61879136D01*
X108867367Y-61885422D01*
X108833292Y-61890264D01*
X108779670Y-61893849D01*
X108702509Y-61896364D01*
X108597820Y-61897995D01*
X108461610Y-61898929D01*
X108289890Y-61899352D01*
X108078667Y-61899452D01*
X107990014Y-61899401D01*
X107777166Y-61898720D01*
X107603828Y-61897174D01*
X107467093Y-61894675D01*
X107364052Y-61891132D01*
X107291798Y-61886458D01*
X107247421Y-61880562D01*
X107228014Y-61873356D01*
X107218215Y-61862628D01*
X107203319Y-61835245D01*
X107203863Y-61803263D01*
X107222692Y-61762635D01*
X107262653Y-61709313D01*
X107326591Y-61639249D01*
X107417352Y-61548394D01*
X107537782Y-61432701D01*
X107655319Y-61319833D01*
X107746720Y-61228937D01*
X107813935Y-61157431D01*
X107861197Y-61100562D01*
X107892739Y-61053580D01*
X107912795Y-61011732D01*
X107938222Y-60914899D01*
X107948910Y-60792193D01*
X107941097Y-60671449D01*
X107914700Y-60571329D01*
X107911185Y-60563356D01*
X107844764Y-60455723D01*
X107752477Y-60356836D01*
X107649782Y-60283487D01*
X107634348Y-60275415D01*
X107616636Y-60267516D01*
X107595487Y-60260721D01*
X107567820Y-60254933D01*
X107530552Y-60250054D01*
X107480604Y-60245986D01*
X107414894Y-60242634D01*
X107330340Y-60239898D01*
X107223862Y-60237683D01*
X107092378Y-60235889D01*
X106932807Y-60234422D01*
X106742068Y-60233182D01*
X106517080Y-60232072D01*
X106254761Y-60230996D01*
X105952031Y-60229856D01*
X105655806Y-60228522D01*
X105356303Y-60226603D01*
X105092499Y-60224257D01*
X104865506Y-60221501D01*
X104676440Y-60218355D01*
X104526412Y-60214837D01*
X104416536Y-60210966D01*
X104347926Y-60206762D01*
X104321695Y-60202242D01*
X104316833Y-60196293D01*
X104294327Y-60155846D01*
X104266272Y-60093579D01*
X104237418Y-60021755D01*
X104212518Y-59952639D01*
X104196322Y-59898494D01*
X104193583Y-59871583D01*
X104199617Y-59870328D01*
X104242707Y-59867891D01*
X104324438Y-59865607D01*
X104441565Y-59863505D01*
X104590844Y-59861613D01*
X104769028Y-59859959D01*
X104972873Y-59858570D01*
X105199133Y-59857475D01*
X105444564Y-59856701D01*
X105705920Y-59856276D01*
X105979957Y-59856228D01*
X106060407Y-59856277D01*
G37*
G36*
X110306277Y-62511757D02*
G01*
X110326871Y-62513751D01*
X110344235Y-62518191D01*
X110362697Y-62525885D01*
X110401174Y-62548863D01*
X110432629Y-62579342D01*
X110456924Y-62617806D01*
X110459422Y-62622931D01*
X110467617Y-62641597D01*
X110472282Y-62657884D01*
X110474379Y-62676249D01*
X110474864Y-62701146D01*
X110474500Y-62722191D01*
X110472533Y-62742910D01*
X110468147Y-62760272D01*
X110460548Y-62778566D01*
X110446737Y-62803865D01*
X110418010Y-62839464D01*
X110382008Y-62866838D01*
X110338447Y-62886240D01*
X110329211Y-62888618D01*
X110304230Y-62891723D01*
X110275518Y-62891942D01*
X110245067Y-62888195D01*
X110202669Y-62874275D01*
X110165314Y-62850993D01*
X110133971Y-62819007D01*
X110109606Y-62778976D01*
X110103192Y-62764056D01*
X110098162Y-62746861D01*
X110095734Y-62727329D01*
X110095103Y-62701146D01*
X110095122Y-62694577D01*
X110095895Y-62671585D01*
X110098500Y-62654097D01*
X110103896Y-62637656D01*
X110113043Y-62617806D01*
X110136576Y-62580292D01*
X110167819Y-62549607D01*
X110207270Y-62525885D01*
X110222032Y-62519532D01*
X110239267Y-62514465D01*
X110258808Y-62512018D01*
X110284983Y-62511381D01*
X110306277Y-62511757D01*
G37*
G36*
X113453475Y-63081801D02*
G01*
X113504068Y-63169085D01*
X111759683Y-63169085D01*
X110015298Y-63169085D01*
X110015298Y-63092031D01*
X110015298Y-63014978D01*
X111413719Y-63014978D01*
X111510424Y-63014969D01*
X111644040Y-63014923D01*
X111772269Y-63014841D01*
X111894758Y-63014723D01*
X112011156Y-63014570D01*
X112121114Y-63014385D01*
X112224278Y-63014168D01*
X112320298Y-63013920D01*
X112408823Y-63013643D01*
X112489501Y-63013338D01*
X112561982Y-63013006D01*
X112625914Y-63012649D01*
X112680945Y-63012267D01*
X112726725Y-63011862D01*
X112762903Y-63011435D01*
X112789126Y-63010988D01*
X112805045Y-63010522D01*
X112810307Y-63010037D01*
X112807373Y-63004664D01*
X112799205Y-62990289D01*
X112786098Y-62967431D01*
X112768345Y-62936588D01*
X112746234Y-62898261D01*
X112720057Y-62852951D01*
X112690104Y-62801158D01*
X112656666Y-62743382D01*
X112620033Y-62680122D01*
X112580495Y-62611880D01*
X112538344Y-62539156D01*
X112493870Y-62462449D01*
X112447362Y-62382260D01*
X112399113Y-62299089D01*
X112349412Y-62213436D01*
X112298549Y-62125802D01*
X112246816Y-62036686D01*
X112194503Y-61946590D01*
X112141900Y-61856012D01*
X112089298Y-61765454D01*
X112036987Y-61675415D01*
X111985258Y-61586396D01*
X111934402Y-61498897D01*
X111884709Y-61413417D01*
X111836469Y-61330458D01*
X111789973Y-61250520D01*
X111745512Y-61174102D01*
X111703375Y-61101705D01*
X111663854Y-61033829D01*
X111627240Y-60970974D01*
X111593821Y-60913641D01*
X111563890Y-60862329D01*
X111537737Y-60817539D01*
X111515652Y-60779772D01*
X111497925Y-60749526D01*
X111484848Y-60727303D01*
X111476710Y-60713603D01*
X111473802Y-60708925D01*
X111473179Y-60709805D01*
X111467977Y-60718489D01*
X111457753Y-60736066D01*
X111442780Y-60762051D01*
X111423334Y-60795962D01*
X111399690Y-60837316D01*
X111372122Y-60885629D01*
X111340905Y-60940420D01*
X111306315Y-61001204D01*
X111268627Y-61067499D01*
X111228115Y-61138822D01*
X111185054Y-61214689D01*
X111139719Y-61294618D01*
X111092386Y-61378126D01*
X111043329Y-61464729D01*
X110992822Y-61553944D01*
X110970860Y-61592742D01*
X110920942Y-61680864D01*
X110872582Y-61766148D01*
X110826055Y-61848113D01*
X110781636Y-61926278D01*
X110739602Y-62000159D01*
X110700227Y-62069276D01*
X110663787Y-62133145D01*
X110630557Y-62191286D01*
X110600813Y-62243216D01*
X110574829Y-62288454D01*
X110552882Y-62326516D01*
X110535246Y-62356922D01*
X110522197Y-62379189D01*
X110514010Y-62392835D01*
X110510961Y-62397378D01*
X110510643Y-62397226D01*
X110503478Y-62393346D01*
X110488952Y-62385265D01*
X110468990Y-62374059D01*
X110445518Y-62360804D01*
X110383708Y-62325805D01*
X110396895Y-62303014D01*
X110399084Y-62299178D01*
X110406643Y-62285858D01*
X110419205Y-62263690D01*
X110436524Y-62233106D01*
X110458357Y-62194539D01*
X110484459Y-62148419D01*
X110514587Y-62095177D01*
X110548497Y-62035247D01*
X110585943Y-61969058D01*
X110626683Y-61897043D01*
X110670471Y-61819633D01*
X110717064Y-61737259D01*
X110766218Y-61650354D01*
X110817689Y-61559348D01*
X110871232Y-61464673D01*
X110926603Y-61366762D01*
X110983559Y-61266044D01*
X111041854Y-61162952D01*
X111084467Y-61087602D01*
X111141649Y-60986522D01*
X111197261Y-60888251D01*
X111251063Y-60793214D01*
X111302814Y-60701834D01*
X111352275Y-60614533D01*
X111390622Y-60546878D01*
X111563719Y-60546878D01*
X111564553Y-60548866D01*
X111570231Y-60559568D01*
X111581072Y-60579149D01*
X111596847Y-60607209D01*
X111617325Y-60643346D01*
X111642276Y-60687162D01*
X111671469Y-60738253D01*
X111704673Y-60796221D01*
X111741659Y-60860664D01*
X111782196Y-60931182D01*
X111826054Y-61007373D01*
X111873002Y-61088838D01*
X111922810Y-61175176D01*
X111975247Y-61265985D01*
X112030084Y-61360866D01*
X112087089Y-61459417D01*
X112146032Y-61561238D01*
X112206683Y-61665928D01*
X112268812Y-61773087D01*
X112305555Y-61836448D01*
X112366874Y-61942235D01*
X112426597Y-62045327D01*
X112484492Y-62145322D01*
X112540329Y-62241820D01*
X112593876Y-62334419D01*
X112644901Y-62422717D01*
X112693174Y-62506314D01*
X112738463Y-62584807D01*
X112780536Y-62657796D01*
X112819163Y-62724879D01*
X112854111Y-62785654D01*
X112885151Y-62839720D01*
X112912050Y-62886677D01*
X112934576Y-62926122D01*
X112952500Y-62957653D01*
X112965589Y-62980871D01*
X112973612Y-62995373D01*
X112976338Y-63000757D01*
X112975774Y-63004068D01*
X112969458Y-63011333D01*
X112971879Y-63012011D01*
X112983796Y-63012737D01*
X113004145Y-63013386D01*
X113031556Y-63013926D01*
X113064662Y-63014323D01*
X113102093Y-63014544D01*
X113241607Y-63014978D01*
X113231146Y-62997091D01*
X113230537Y-62996044D01*
X113225117Y-62986712D01*
X113214477Y-62968377D01*
X113198843Y-62941429D01*
X113178440Y-62906258D01*
X113153494Y-62863253D01*
X113124231Y-62812804D01*
X113090876Y-62755299D01*
X113053657Y-62691128D01*
X113012798Y-62620681D01*
X112968525Y-62544347D01*
X112921064Y-62462515D01*
X112870642Y-62375575D01*
X112817483Y-62283915D01*
X112761814Y-62187927D01*
X112703860Y-62087998D01*
X112643848Y-61984518D01*
X112582003Y-61877877D01*
X112518551Y-61768463D01*
X112453717Y-61656668D01*
X112429802Y-61615434D01*
X112365590Y-61504782D01*
X112302880Y-61396797D01*
X112241893Y-61291862D01*
X112182852Y-61190356D01*
X112125982Y-61092662D01*
X112071504Y-60999160D01*
X112019642Y-60910232D01*
X111970618Y-60826258D01*
X111924656Y-60747619D01*
X111881979Y-60674697D01*
X111842808Y-60607872D01*
X111807369Y-60547526D01*
X111775882Y-60494039D01*
X111748572Y-60447793D01*
X111725661Y-60409169D01*
X111707372Y-60378547D01*
X111693929Y-60356309D01*
X111685553Y-60342836D01*
X111682469Y-60338509D01*
X111679537Y-60342917D01*
X111671944Y-60355535D01*
X111660813Y-60374533D01*
X111647140Y-60398166D01*
X111631918Y-60424690D01*
X111616141Y-60452361D01*
X111600803Y-60479435D01*
X111586897Y-60504167D01*
X111575419Y-60524815D01*
X111567362Y-60539633D01*
X111563719Y-60546878D01*
X111390622Y-60546878D01*
X111399205Y-60531736D01*
X111443364Y-60453866D01*
X111484511Y-60381346D01*
X111522406Y-60314600D01*
X111556809Y-60254050D01*
X111587479Y-60200121D01*
X111614177Y-60153235D01*
X111636661Y-60113816D01*
X111654692Y-60082287D01*
X111668030Y-60059072D01*
X111676433Y-60044595D01*
X111679662Y-60039277D01*
X111679854Y-60039206D01*
X111681029Y-60040059D01*
X111683196Y-60042678D01*
X111686478Y-60047270D01*
X111690996Y-60054048D01*
X111696873Y-60063219D01*
X111704231Y-60074995D01*
X111713192Y-60089584D01*
X111723879Y-60107196D01*
X111736415Y-60128042D01*
X111750920Y-60152331D01*
X111767518Y-60180272D01*
X111786331Y-60212076D01*
X111807481Y-60247951D01*
X111831090Y-60288109D01*
X111857281Y-60332759D01*
X111886177Y-60382109D01*
X111917898Y-60436371D01*
X111952568Y-60495754D01*
X111990309Y-60560467D01*
X112031242Y-60630721D01*
X112075492Y-60706725D01*
X112123179Y-60788689D01*
X112174425Y-60876822D01*
X112229354Y-60971335D01*
X112288088Y-61072437D01*
X112350748Y-61180337D01*
X112417458Y-61295247D01*
X112488339Y-61417374D01*
X112563513Y-61546930D01*
X112643104Y-61684123D01*
X112727232Y-61829164D01*
X112816022Y-61982262D01*
X112909594Y-62143628D01*
X113008071Y-62313470D01*
X113111575Y-62491998D01*
X113220229Y-62679423D01*
X113334155Y-62875954D01*
X113414741Y-63014978D01*
X113453475Y-63081801D01*
G37*
%TD*%
%LPC*%
D12*
%TO.C,C3*%
X118705000Y-61595000D03*
D13*
X116205000Y-61595000D03*
%TD*%
D14*
%TO.C,J1*%
X118105000Y-78175000D03*
D15*
X115565000Y-78175000D03*
X113025000Y-78175000D03*
X110485000Y-78175000D03*
X107945000Y-78175000D03*
%TD*%
%LPD*%
M02*
