%TF.GenerationSoftware,KiCad,Pcbnew,7.0.9*%
%TF.CreationDate,2024-12-19T19:35:33+09:00*%
%TF.ProjectId,01-MAIN,30312d4d-4149-44e2-9e6b-696361645f70,rev?*%
%TF.SameCoordinates,Original*%
%TF.FileFunction,Legend,Bot*%
%TF.FilePolarity,Positive*%
%FSLAX46Y46*%
G04 Gerber Fmt 4.6, Leading zero omitted, Abs format (unit mm)*
G04 Created by KiCad (PCBNEW 7.0.9) date 2024-12-19 19:35:33*
%MOMM*%
%LPD*%
G01*
G04 APERTURE LIST*
G04 Aperture macros list*
%AMRoundRect*
0 Rectangle with rounded corners*
0 $1 Rounding radius*
0 $2 $3 $4 $5 $6 $7 $8 $9 X,Y pos of 4 corners*
0 Add a 4 corners polygon primitive as box body*
4,1,4,$2,$3,$4,$5,$6,$7,$8,$9,$2,$3,0*
0 Add four circle primitives for the rounded corners*
1,1,$1+$1,$2,$3*
1,1,$1+$1,$4,$5*
1,1,$1+$1,$6,$7*
1,1,$1+$1,$8,$9*
0 Add four rect primitives between the rounded corners*
20,1,$1+$1,$2,$3,$4,$5,0*
20,1,$1+$1,$4,$5,$6,$7,0*
20,1,$1+$1,$6,$7,$8,$9,0*
20,1,$1+$1,$8,$9,$2,$3,0*%
G04 Aperture macros list end*
%ADD10C,0.150000*%
%ADD11C,0.120000*%
%ADD12C,0.127000*%
%ADD13C,0.200000*%
%ADD14C,0.800000*%
%ADD15C,6.400000*%
%ADD16RoundRect,0.250000X-0.725000X0.600000X-0.725000X-0.600000X0.725000X-0.600000X0.725000X0.600000X0*%
%ADD17O,1.950000X1.700000*%
%ADD18RoundRect,0.250000X0.725000X-0.600000X0.725000X0.600000X-0.725000X0.600000X-0.725000X-0.600000X0*%
%ADD19C,1.524000*%
%ADD20RoundRect,0.250000X-0.600000X-0.675000X0.600000X-0.675000X0.600000X0.675000X-0.600000X0.675000X0*%
%ADD21O,1.700000X1.850000*%
%ADD22C,3.200000*%
%ADD23RoundRect,0.250000X-0.675000X0.600000X-0.675000X-0.600000X0.675000X-0.600000X0.675000X0.600000X0*%
%ADD24O,1.850000X1.700000*%
%ADD25R,2.000000X2.000000*%
%ADD26C,2.000000*%
%ADD27R,1.700000X1.700000*%
%ADD28O,1.700000X1.700000*%
%ADD29RoundRect,0.200000X-0.275000X0.200000X-0.275000X-0.200000X0.275000X-0.200000X0.275000X0.200000X0*%
%ADD30RoundRect,0.140000X-0.170000X0.140000X-0.170000X-0.140000X0.170000X-0.140000X0.170000X0.140000X0*%
%ADD31RoundRect,0.200000X-0.200000X-0.275000X0.200000X-0.275000X0.200000X0.275000X-0.200000X0.275000X0*%
%ADD32RoundRect,0.200000X0.275000X-0.200000X0.275000X0.200000X-0.275000X0.200000X-0.275000X-0.200000X0*%
%ADD33RoundRect,0.200000X0.200000X0.275000X-0.200000X0.275000X-0.200000X-0.275000X0.200000X-0.275000X0*%
%ADD34RoundRect,0.075000X0.700000X0.075000X-0.700000X0.075000X-0.700000X-0.075000X0.700000X-0.075000X0*%
%ADD35RoundRect,0.075000X0.075000X0.700000X-0.075000X0.700000X-0.075000X-0.700000X0.075000X-0.700000X0*%
%ADD36RoundRect,0.140000X0.170000X-0.140000X0.170000X0.140000X-0.170000X0.140000X-0.170000X-0.140000X0*%
%ADD37RoundRect,0.243750X0.456250X-0.243750X0.456250X0.243750X-0.456250X0.243750X-0.456250X-0.243750X0*%
%ADD38RoundRect,0.250000X-0.450000X0.262500X-0.450000X-0.262500X0.450000X-0.262500X0.450000X0.262500X0*%
%ADD39RoundRect,0.150000X0.150000X-0.675000X0.150000X0.675000X-0.150000X0.675000X-0.150000X-0.675000X0*%
%ADD40R,1.500000X1.050000*%
%ADD41O,1.500000X1.050000*%
%ADD42RoundRect,0.140000X0.140000X0.170000X-0.140000X0.170000X-0.140000X-0.170000X0.140000X-0.170000X0*%
%ADD43RoundRect,0.147750X-0.259250X0.904250X-0.259250X-0.904250X0.259250X-0.904250X0.259250X0.904250X0*%
%ADD44RoundRect,0.150000X0.150000X-0.825000X0.150000X0.825000X-0.150000X0.825000X-0.150000X-0.825000X0*%
G04 APERTURE END LIST*
D10*
X111305180Y-95659411D02*
X111305180Y-96230839D01*
X111305180Y-95945125D02*
X112305180Y-95945125D01*
X112305180Y-95945125D02*
X112162323Y-96040363D01*
X112162323Y-96040363D02*
X112067085Y-96135601D01*
X112067085Y-96135601D02*
X112019466Y-96230839D01*
X104574180Y-89944411D02*
X104574180Y-90515839D01*
X104574180Y-90230125D02*
X105574180Y-90230125D01*
X105574180Y-90230125D02*
X105431323Y-90325363D01*
X105431323Y-90325363D02*
X105336085Y-90420601D01*
X105336085Y-90420601D02*
X105288466Y-90515839D01*
X172284819Y-87860336D02*
X171284819Y-87860336D01*
X171284819Y-87860336D02*
X171284819Y-88098431D01*
X171284819Y-88098431D02*
X171332438Y-88241288D01*
X171332438Y-88241288D02*
X171427676Y-88336526D01*
X171427676Y-88336526D02*
X171522914Y-88384145D01*
X171522914Y-88384145D02*
X171713390Y-88431764D01*
X171713390Y-88431764D02*
X171856247Y-88431764D01*
X171856247Y-88431764D02*
X172046723Y-88384145D01*
X172046723Y-88384145D02*
X172141961Y-88336526D01*
X172141961Y-88336526D02*
X172237200Y-88241288D01*
X172237200Y-88241288D02*
X172284819Y-88098431D01*
X172284819Y-88098431D02*
X172284819Y-87860336D01*
X172284819Y-89384145D02*
X172284819Y-88812717D01*
X172284819Y-89098431D02*
X171284819Y-89098431D01*
X171284819Y-89098431D02*
X171427676Y-89003193D01*
X171427676Y-89003193D02*
X171522914Y-88907955D01*
X171522914Y-88907955D02*
X171570533Y-88812717D01*
X171999819Y-92098333D02*
X171523628Y-91765000D01*
X171999819Y-91526905D02*
X170999819Y-91526905D01*
X170999819Y-91526905D02*
X170999819Y-91907857D01*
X170999819Y-91907857D02*
X171047438Y-92003095D01*
X171047438Y-92003095D02*
X171095057Y-92050714D01*
X171095057Y-92050714D02*
X171190295Y-92098333D01*
X171190295Y-92098333D02*
X171333152Y-92098333D01*
X171333152Y-92098333D02*
X171428390Y-92050714D01*
X171428390Y-92050714D02*
X171476009Y-92003095D01*
X171476009Y-92003095D02*
X171523628Y-91907857D01*
X171523628Y-91907857D02*
X171523628Y-91526905D01*
X170999819Y-92431667D02*
X170999819Y-93050714D01*
X170999819Y-93050714D02*
X171380771Y-92717381D01*
X171380771Y-92717381D02*
X171380771Y-92860238D01*
X171380771Y-92860238D02*
X171428390Y-92955476D01*
X171428390Y-92955476D02*
X171476009Y-93003095D01*
X171476009Y-93003095D02*
X171571247Y-93050714D01*
X171571247Y-93050714D02*
X171809342Y-93050714D01*
X171809342Y-93050714D02*
X171904580Y-93003095D01*
X171904580Y-93003095D02*
X171952200Y-92955476D01*
X171952200Y-92955476D02*
X171999819Y-92860238D01*
X171999819Y-92860238D02*
X171999819Y-92574524D01*
X171999819Y-92574524D02*
X171952200Y-92479286D01*
X171952200Y-92479286D02*
X171904580Y-92431667D01*
X101644819Y-129936905D02*
X102454342Y-129936905D01*
X102454342Y-129936905D02*
X102549580Y-129984524D01*
X102549580Y-129984524D02*
X102597200Y-130032143D01*
X102597200Y-130032143D02*
X102644819Y-130127381D01*
X102644819Y-130127381D02*
X102644819Y-130317857D01*
X102644819Y-130317857D02*
X102597200Y-130413095D01*
X102597200Y-130413095D02*
X102549580Y-130460714D01*
X102549580Y-130460714D02*
X102454342Y-130508333D01*
X102454342Y-130508333D02*
X101644819Y-130508333D01*
X102644819Y-131508333D02*
X102644819Y-130936905D01*
X102644819Y-131222619D02*
X101644819Y-131222619D01*
X101644819Y-131222619D02*
X101787676Y-131127381D01*
X101787676Y-131127381D02*
X101882914Y-131032143D01*
X101882914Y-131032143D02*
X101930533Y-130936905D01*
X101644819Y-132413095D02*
X101644819Y-131936905D01*
X101644819Y-131936905D02*
X102121009Y-131889286D01*
X102121009Y-131889286D02*
X102073390Y-131936905D01*
X102073390Y-131936905D02*
X102025771Y-132032143D01*
X102025771Y-132032143D02*
X102025771Y-132270238D01*
X102025771Y-132270238D02*
X102073390Y-132365476D01*
X102073390Y-132365476D02*
X102121009Y-132413095D01*
X102121009Y-132413095D02*
X102216247Y-132460714D01*
X102216247Y-132460714D02*
X102454342Y-132460714D01*
X102454342Y-132460714D02*
X102549580Y-132413095D01*
X102549580Y-132413095D02*
X102597200Y-132365476D01*
X102597200Y-132365476D02*
X102644819Y-132270238D01*
X102644819Y-132270238D02*
X102644819Y-132032143D01*
X102644819Y-132032143D02*
X102597200Y-131936905D01*
X102597200Y-131936905D02*
X102549580Y-131889286D01*
X167998333Y-94434819D02*
X167998333Y-95149104D01*
X167998333Y-95149104D02*
X168045952Y-95291961D01*
X168045952Y-95291961D02*
X168141190Y-95387200D01*
X168141190Y-95387200D02*
X168284047Y-95434819D01*
X168284047Y-95434819D02*
X168379285Y-95434819D01*
X166998333Y-95434819D02*
X167569761Y-95434819D01*
X167284047Y-95434819D02*
X167284047Y-94434819D01*
X167284047Y-94434819D02*
X167379285Y-94577676D01*
X167379285Y-94577676D02*
X167474523Y-94672914D01*
X167474523Y-94672914D02*
X167569761Y-94720533D01*
X68259819Y-82138095D02*
X69069342Y-82138095D01*
X69069342Y-82138095D02*
X69164580Y-82185714D01*
X69164580Y-82185714D02*
X69212200Y-82233333D01*
X69212200Y-82233333D02*
X69259819Y-82328571D01*
X69259819Y-82328571D02*
X69259819Y-82519047D01*
X69259819Y-82519047D02*
X69212200Y-82614285D01*
X69212200Y-82614285D02*
X69164580Y-82661904D01*
X69164580Y-82661904D02*
X69069342Y-82709523D01*
X69069342Y-82709523D02*
X68259819Y-82709523D01*
X68259819Y-83661904D02*
X68259819Y-83185714D01*
X68259819Y-83185714D02*
X68736009Y-83138095D01*
X68736009Y-83138095D02*
X68688390Y-83185714D01*
X68688390Y-83185714D02*
X68640771Y-83280952D01*
X68640771Y-83280952D02*
X68640771Y-83519047D01*
X68640771Y-83519047D02*
X68688390Y-83614285D01*
X68688390Y-83614285D02*
X68736009Y-83661904D01*
X68736009Y-83661904D02*
X68831247Y-83709523D01*
X68831247Y-83709523D02*
X69069342Y-83709523D01*
X69069342Y-83709523D02*
X69164580Y-83661904D01*
X69164580Y-83661904D02*
X69212200Y-83614285D01*
X69212200Y-83614285D02*
X69259819Y-83519047D01*
X69259819Y-83519047D02*
X69259819Y-83280952D01*
X69259819Y-83280952D02*
X69212200Y-83185714D01*
X69212200Y-83185714D02*
X69164580Y-83138095D01*
D11*
%TO.C,R12*%
X62371500Y-84694742D02*
X62371500Y-85169258D01*
X61326500Y-84694742D02*
X61326500Y-85169258D01*
%TO.C,C10*%
X112795000Y-102032164D02*
X112795000Y-102247836D01*
X112075000Y-102032164D02*
X112075000Y-102247836D01*
%TO.C,R5*%
X101724242Y-91817000D02*
X102198758Y-91817000D01*
X101724242Y-92862000D02*
X102198758Y-92862000D01*
%TO.C,R18*%
X109967500Y-68817258D02*
X109967500Y-68342742D01*
X111012500Y-68817258D02*
X111012500Y-68342742D01*
%TO.C,R15*%
X66975258Y-87994500D02*
X66500742Y-87994500D01*
X66975258Y-86949500D02*
X66500742Y-86949500D01*
%TO.C,U1*%
X109250000Y-105440000D02*
X109250000Y-104490000D01*
X109250000Y-96170000D02*
X110590000Y-96170000D01*
X109250000Y-95220000D02*
X109250000Y-96170000D01*
X108300000Y-105440000D02*
X109250000Y-105440000D01*
X108300000Y-95220000D02*
X109250000Y-95220000D01*
X99980000Y-105440000D02*
X99030000Y-105440000D01*
X99980000Y-95220000D02*
X99030000Y-95220000D01*
X99030000Y-105440000D02*
X99030000Y-104490000D01*
X99030000Y-95220000D02*
X99030000Y-96170000D01*
%TO.C,C6*%
X96327000Y-96659836D02*
X96327000Y-96444164D01*
X97047000Y-96659836D02*
X97047000Y-96444164D01*
%TO.C,R23*%
X108302742Y-123667500D02*
X108777258Y-123667500D01*
X108302742Y-124712500D02*
X108777258Y-124712500D01*
%TO.C,R7*%
X100799242Y-80730000D02*
X101273758Y-80730000D01*
X100799242Y-81775000D02*
X101273758Y-81775000D01*
%TO.C,C3*%
X110509000Y-94892164D02*
X110509000Y-95107836D01*
X109789000Y-94892164D02*
X109789000Y-95107836D01*
%TO.C,D1*%
X169220000Y-90283431D02*
X169220000Y-87598431D01*
X171140000Y-90283431D02*
X169220000Y-90283431D01*
X171140000Y-87598431D02*
X171140000Y-90283431D01*
%TO.C,R4*%
X101654758Y-91173000D02*
X101180242Y-91173000D01*
X101654758Y-90128000D02*
X101180242Y-90128000D01*
%TO.C,R22*%
X119902500Y-130872742D02*
X119902500Y-131347258D01*
X118857500Y-130872742D02*
X118857500Y-131347258D01*
%TO.C,R11*%
X66975258Y-89518500D02*
X66500742Y-89518500D01*
X66975258Y-88473500D02*
X66500742Y-88473500D01*
%TO.C,R20*%
X106522500Y-123952742D02*
X106522500Y-124427258D01*
X105477500Y-123952742D02*
X105477500Y-124427258D01*
%TO.C,R13*%
X66912258Y-78850500D02*
X66437742Y-78850500D01*
X66912258Y-77805500D02*
X66437742Y-77805500D01*
%TO.C,R6*%
X104448758Y-81775000D02*
X103974242Y-81775000D01*
X104448758Y-80730000D02*
X103974242Y-80730000D01*
%TO.C,C8*%
X109239000Y-93876164D02*
X109239000Y-94091836D01*
X108519000Y-93876164D02*
X108519000Y-94091836D01*
%TO.C,FB1*%
X114694000Y-101122936D02*
X114694000Y-101577064D01*
X113224000Y-101122936D02*
X113224000Y-101577064D01*
%TO.C,U4*%
X99746500Y-85993500D02*
X99746500Y-87943500D01*
X99746500Y-85993500D02*
X99746500Y-84043500D01*
X104866500Y-85993500D02*
X104866500Y-89443500D01*
X104866500Y-85993500D02*
X104866500Y-84043500D01*
%TO.C,Q1*%
X105663500Y-87878500D02*
X105663500Y-84278500D01*
X105675022Y-87916978D02*
G75*
G03*
X110113500Y-86078500I1838478J1838478D01*
G01*
X110113500Y-86078500D02*
G75*
G03*
X105675022Y-84240022I-2600000J0D01*
G01*
%TO.C,R3*%
X169592500Y-92502258D02*
X169592500Y-92027742D01*
X170637500Y-92502258D02*
X170637500Y-92027742D01*
%TO.C,R19*%
X113552500Y-68342742D02*
X113552500Y-68817258D01*
X112507500Y-68342742D02*
X112507500Y-68817258D01*
%TO.C,C11*%
X104882836Y-80370000D02*
X104667164Y-80370000D01*
X104882836Y-79650000D02*
X104667164Y-79650000D01*
%TO.C,R8*%
X63326742Y-77805500D02*
X63801258Y-77805500D01*
X63326742Y-78850500D02*
X63801258Y-78850500D01*
D12*
%TO.C,U15*%
X109060000Y-128975000D02*
X109060000Y-133375000D01*
X104210000Y-128975000D02*
X104210000Y-133375000D01*
D13*
X104830000Y-126095000D02*
G75*
G03*
X104830000Y-126095000I-100000J0D01*
G01*
D11*
%TO.C,R17*%
X47570742Y-80567500D02*
X48045258Y-80567500D01*
X47570742Y-81612500D02*
X48045258Y-81612500D01*
%TO.C,C9*%
X111779000Y-102004164D02*
X111779000Y-102219836D01*
X111059000Y-102004164D02*
X111059000Y-102219836D01*
%TO.C,C7*%
X98825000Y-106576164D02*
X98825000Y-106791836D01*
X98105000Y-106576164D02*
X98105000Y-106791836D01*
%TO.C,R1*%
X106442742Y-92187500D02*
X106917258Y-92187500D01*
X106442742Y-93232500D02*
X106917258Y-93232500D01*
%TO.C,C5*%
X99121000Y-106791836D02*
X99121000Y-106576164D01*
X99841000Y-106791836D02*
X99841000Y-106576164D01*
%TO.C,R10*%
X63389742Y-88473500D02*
X63864258Y-88473500D01*
X63389742Y-89518500D02*
X63864258Y-89518500D01*
%TO.C,C4*%
X107208836Y-108060000D02*
X106993164Y-108060000D01*
X107208836Y-107340000D02*
X106993164Y-107340000D01*
%TO.C,R16*%
X48555500Y-73262258D02*
X48555500Y-72787742D01*
X49600500Y-73262258D02*
X49600500Y-72787742D01*
%TO.C,J1*%
X174645000Y-106700000D02*
X166015000Y-106700000D01*
X174645000Y-104100000D02*
X166015000Y-104100000D01*
X174645000Y-101560000D02*
X166015000Y-101560000D01*
X174645000Y-99020000D02*
X166015000Y-99020000D01*
X174645000Y-98901900D02*
X166015000Y-98901900D01*
X174645000Y-98783805D02*
X166015000Y-98783805D01*
X174645000Y-98665710D02*
X166015000Y-98665710D01*
X174645000Y-98547615D02*
X166015000Y-98547615D01*
X174645000Y-98429520D02*
X166015000Y-98429520D01*
X174645000Y-98311425D02*
X166015000Y-98311425D01*
X174645000Y-98193330D02*
X166015000Y-98193330D01*
X174645000Y-98075235D02*
X166015000Y-98075235D01*
X174645000Y-97957140D02*
X166015000Y-97957140D01*
X174645000Y-97839045D02*
X166015000Y-97839045D01*
X174645000Y-97720950D02*
X166015000Y-97720950D01*
X174645000Y-97602855D02*
X166015000Y-97602855D01*
X174645000Y-97484760D02*
X166015000Y-97484760D01*
X174645000Y-97366665D02*
X166015000Y-97366665D01*
X174645000Y-97248570D02*
X166015000Y-97248570D01*
X174645000Y-97130475D02*
X166015000Y-97130475D01*
X174645000Y-97012380D02*
X166015000Y-97012380D01*
X174645000Y-96894285D02*
X166015000Y-96894285D01*
X174645000Y-96776190D02*
X166015000Y-96776190D01*
X174645000Y-96658095D02*
X166015000Y-96658095D01*
X174645000Y-96540000D02*
X166015000Y-96540000D01*
X174645000Y-96420000D02*
X174645000Y-106700000D01*
X174645000Y-96420000D02*
X166015000Y-96420000D01*
X166015000Y-105730000D02*
X165605000Y-105730000D01*
X166015000Y-105010000D02*
X165605000Y-105010000D01*
X166015000Y-103190000D02*
X165605000Y-103190000D01*
X166015000Y-102470000D02*
X165605000Y-102470000D01*
X166015000Y-100650000D02*
X165605000Y-100650000D01*
X166015000Y-99930000D02*
X165605000Y-99930000D01*
X166015000Y-98110000D02*
X165605000Y-98110000D01*
X166015000Y-97390000D02*
X165605000Y-97390000D01*
X166015000Y-96420000D02*
X166015000Y-106700000D01*
X163505000Y-105730000D02*
X163065000Y-105730000D01*
X163505000Y-105010000D02*
X163065000Y-105010000D01*
X163505000Y-103190000D02*
X163065000Y-103190000D01*
X163505000Y-102470000D02*
X163065000Y-102470000D01*
X163505000Y-100650000D02*
X163065000Y-100650000D01*
X163505000Y-99930000D02*
X163065000Y-99930000D01*
X163505000Y-98110000D02*
X163125000Y-98110000D01*
X163505000Y-97390000D02*
X163125000Y-97390000D01*
X162015000Y-96420000D02*
X160905000Y-96420000D01*
X160905000Y-96420000D02*
X160905000Y-97750000D01*
%TO.C,U5*%
X62845000Y-82900000D02*
X62845000Y-84850000D01*
X62845000Y-82900000D02*
X62845000Y-80950000D01*
X67965000Y-82900000D02*
X67965000Y-86350000D01*
X67965000Y-82900000D02*
X67965000Y-80950000D01*
%TO.C,R21*%
X90937500Y-137782258D02*
X90937500Y-137307742D01*
X91982500Y-137782258D02*
X91982500Y-137307742D01*
%TO.C,C1*%
X111146000Y-100183836D02*
X111146000Y-99968164D01*
X111866000Y-100183836D02*
X111866000Y-99968164D01*
%TO.C,R2*%
X102282258Y-109742500D02*
X101807742Y-109742500D01*
X102282258Y-108697500D02*
X101807742Y-108697500D01*
%TO.C,R14*%
X63864258Y-87994500D02*
X63389742Y-87994500D01*
X63864258Y-86949500D02*
X63389742Y-86949500D01*
%TO.C,C2*%
X101112836Y-108060000D02*
X100897164Y-108060000D01*
X101112836Y-107340000D02*
X100897164Y-107340000D01*
%TO.C,R9*%
X64880258Y-77326500D02*
X64405742Y-77326500D01*
X64880258Y-76281500D02*
X64405742Y-76281500D01*
%TD*%
%LPC*%
D14*
%TO.C,H2*%
X95902944Y-47702944D03*
X97600000Y-51800000D03*
X97600000Y-48405888D03*
X98302944Y-50102944D03*
D15*
X95902944Y-50102944D03*
D14*
X95902944Y-52502944D03*
X94205888Y-48405888D03*
X94205888Y-51800000D03*
X93502944Y-50102944D03*
%TD*%
D16*
%TO.C,J2*%
X64770000Y-119380000D03*
D17*
X64770000Y-121880000D03*
X64770000Y-124380000D03*
X64770000Y-126880000D03*
X64770000Y-129380000D03*
%TD*%
D18*
%TO.C,J7*%
X54610000Y-78740000D03*
D17*
X54610000Y-76240000D03*
X54610000Y-73740000D03*
X54610000Y-71240000D03*
%TD*%
D19*
%TO.C,U10*%
X47173000Y-96520000D03*
X47173000Y-99060000D03*
X47173000Y-101600000D03*
X47173000Y-104140000D03*
X49713000Y-101600000D03*
X49713000Y-104140000D03*
%TD*%
%TO.C,U14*%
X105410000Y-71120000D03*
X107950000Y-71120000D03*
X110490000Y-71120000D03*
X113030000Y-71120000D03*
X115570000Y-71120000D03*
X118110000Y-71120000D03*
X120650000Y-71120000D03*
X123190000Y-71120000D03*
%TD*%
D20*
%TO.C,J6*%
X63580000Y-136144000D03*
D21*
X66080000Y-136144000D03*
X68580000Y-136144000D03*
%TD*%
D19*
%TO.C,U6*%
X109220000Y-44450000D03*
X106680000Y-44450000D03*
X104140000Y-44450000D03*
X101600000Y-44450000D03*
X104140000Y-46990000D03*
X101600000Y-46990000D03*
%TD*%
%TO.C,U8*%
X47173000Y-71120000D03*
X47173000Y-73660000D03*
X47173000Y-76200000D03*
X47173000Y-78740000D03*
X49713000Y-76200000D03*
X49713000Y-78740000D03*
%TD*%
D22*
%TO.C,REF\u002A\u002A*%
X47000000Y-66000000D03*
%TD*%
D19*
%TO.C,U7*%
X96520000Y-156210000D03*
X99060000Y-156210000D03*
X101600000Y-156210000D03*
X104140000Y-156210000D03*
X101600000Y-153670000D03*
X104140000Y-153670000D03*
%TD*%
D23*
%TO.C,J3*%
X135270000Y-125810000D03*
D24*
X135270000Y-128310000D03*
X135270000Y-130810000D03*
%TD*%
D19*
%TO.C,U9*%
X47173000Y-83820000D03*
X47173000Y-86360000D03*
X47173000Y-88900000D03*
X47173000Y-91440000D03*
X49713000Y-88900000D03*
X49713000Y-91440000D03*
%TD*%
%TO.C,U13*%
X57150000Y-107950000D03*
X59690000Y-107950000D03*
X62230000Y-107950000D03*
X64770000Y-107950000D03*
X64770000Y-100330000D03*
X62230000Y-100330000D03*
X59690000Y-100330000D03*
X57150000Y-100330000D03*
%TD*%
D18*
%TO.C,J8*%
X54610000Y-93860000D03*
D17*
X54610000Y-91360000D03*
X54610000Y-88860000D03*
X54610000Y-86360000D03*
%TD*%
D22*
%TO.C,REF\u002A\u002A*%
X47000000Y-134000000D03*
%TD*%
D25*
%TO.C,BZ1*%
X94695000Y-66040000D03*
D26*
X99695000Y-66040000D03*
%TD*%
D23*
%TO.C,J4*%
X135128000Y-68660000D03*
D24*
X135128000Y-71160000D03*
X135128000Y-73660000D03*
%TD*%
D20*
%TO.C,J5*%
X63580000Y-64516000D03*
D21*
X66080000Y-64516000D03*
X68580000Y-64516000D03*
%TD*%
D22*
%TO.C,REF\u002A\u002A*%
X160900000Y-85000000D03*
%TD*%
%TO.C,REF\u002A\u002A*%
X160900000Y-115000000D03*
%TD*%
D19*
%TO.C,U11*%
X47173000Y-109220000D03*
X47173000Y-111760000D03*
X47173000Y-114300000D03*
X47173000Y-116840000D03*
X49713000Y-114300000D03*
X49713000Y-116840000D03*
%TD*%
D27*
%TO.C,U2*%
X116840000Y-140000000D03*
D28*
X116840000Y-137460000D03*
X116840000Y-134920000D03*
X116840000Y-132380000D03*
X116840000Y-129840000D03*
%TD*%
D19*
%TO.C,U12*%
X47173000Y-121920000D03*
X47173000Y-124460000D03*
X47173000Y-127000000D03*
X47173000Y-129540000D03*
X49713000Y-127000000D03*
X49713000Y-129540000D03*
%TD*%
D18*
%TO.C,J9*%
X74930000Y-107870000D03*
D17*
X74930000Y-105370000D03*
X74930000Y-102870000D03*
X74930000Y-100370000D03*
X74930000Y-97870000D03*
X74930000Y-95370000D03*
X74930000Y-92870000D03*
X74930000Y-90370000D03*
%TD*%
D27*
%TO.C,U3*%
X94000000Y-129925000D03*
D28*
X94000000Y-132465000D03*
X94000000Y-135005000D03*
X94000000Y-137545000D03*
X94000000Y-140085000D03*
%TD*%
D14*
%TO.C,H1*%
X93600000Y-150000000D03*
X94302944Y-148302944D03*
X94302944Y-151697056D03*
X96000000Y-147600000D03*
D15*
X96000000Y-150000000D03*
D14*
X96000000Y-152400000D03*
X97697056Y-148302944D03*
X97697056Y-151697056D03*
X98400000Y-150000000D03*
%TD*%
D29*
%TO.C,R12*%
X61849000Y-84107000D03*
X61849000Y-85757000D03*
%TD*%
D30*
%TO.C,C10*%
X112435000Y-101660000D03*
X112435000Y-102620000D03*
%TD*%
D31*
%TO.C,R5*%
X101136500Y-92339500D03*
X102786500Y-92339500D03*
%TD*%
D32*
%TO.C,R18*%
X110490000Y-69405000D03*
X110490000Y-67755000D03*
%TD*%
D33*
%TO.C,R15*%
X67563000Y-87472000D03*
X65913000Y-87472000D03*
%TD*%
D34*
%TO.C,U1*%
X109815000Y-96580000D03*
X109815000Y-97080000D03*
X109815000Y-97580000D03*
X109815000Y-98080000D03*
X109815000Y-98580000D03*
X109815000Y-99080000D03*
X109815000Y-99580000D03*
X109815000Y-100080000D03*
X109815000Y-100580000D03*
X109815000Y-101080000D03*
X109815000Y-101580000D03*
X109815000Y-102080000D03*
X109815000Y-102580000D03*
X109815000Y-103080000D03*
X109815000Y-103580000D03*
X109815000Y-104080000D03*
D35*
X107890000Y-106005000D03*
X107390000Y-106005000D03*
X106890000Y-106005000D03*
X106390000Y-106005000D03*
X105890000Y-106005000D03*
X105390000Y-106005000D03*
X104890000Y-106005000D03*
X104390000Y-106005000D03*
X103890000Y-106005000D03*
X103390000Y-106005000D03*
X102890000Y-106005000D03*
X102390000Y-106005000D03*
X101890000Y-106005000D03*
X101390000Y-106005000D03*
X100890000Y-106005000D03*
X100390000Y-106005000D03*
D34*
X98465000Y-104080000D03*
X98465000Y-103580000D03*
X98465000Y-103080000D03*
X98465000Y-102580000D03*
X98465000Y-102080000D03*
X98465000Y-101580000D03*
X98465000Y-101080000D03*
X98465000Y-100580000D03*
X98465000Y-100080000D03*
X98465000Y-99580000D03*
X98465000Y-99080000D03*
X98465000Y-98580000D03*
X98465000Y-98080000D03*
X98465000Y-97580000D03*
X98465000Y-97080000D03*
X98465000Y-96580000D03*
D35*
X100390000Y-94655000D03*
X100890000Y-94655000D03*
X101390000Y-94655000D03*
X101890000Y-94655000D03*
X102390000Y-94655000D03*
X102890000Y-94655000D03*
X103390000Y-94655000D03*
X103890000Y-94655000D03*
X104390000Y-94655000D03*
X104890000Y-94655000D03*
X105390000Y-94655000D03*
X105890000Y-94655000D03*
X106390000Y-94655000D03*
X106890000Y-94655000D03*
X107390000Y-94655000D03*
X107890000Y-94655000D03*
%TD*%
D36*
%TO.C,C6*%
X96687000Y-97032000D03*
X96687000Y-96072000D03*
%TD*%
D31*
%TO.C,R23*%
X107715000Y-124190000D03*
X109365000Y-124190000D03*
%TD*%
%TO.C,R7*%
X100211500Y-81252500D03*
X101861500Y-81252500D03*
%TD*%
D30*
%TO.C,C3*%
X110149000Y-94520000D03*
X110149000Y-95480000D03*
%TD*%
D37*
%TO.C,D1*%
X170180000Y-89535931D03*
X170180000Y-87660931D03*
%TD*%
D33*
%TO.C,R4*%
X102242500Y-90650500D03*
X100592500Y-90650500D03*
%TD*%
D29*
%TO.C,R22*%
X119380000Y-130285000D03*
X119380000Y-131935000D03*
%TD*%
D33*
%TO.C,R11*%
X67563000Y-88996000D03*
X65913000Y-88996000D03*
%TD*%
D29*
%TO.C,R20*%
X106000000Y-123365000D03*
X106000000Y-125015000D03*
%TD*%
D33*
%TO.C,R13*%
X67500000Y-78328000D03*
X65850000Y-78328000D03*
%TD*%
%TO.C,R6*%
X105036500Y-81252500D03*
X103386500Y-81252500D03*
%TD*%
D30*
%TO.C,C8*%
X108879000Y-93504000D03*
X108879000Y-94464000D03*
%TD*%
D38*
%TO.C,FB1*%
X113959000Y-100437500D03*
X113959000Y-102262500D03*
%TD*%
D39*
%TO.C,U4*%
X104211500Y-88618500D03*
X102941500Y-88618500D03*
X101671500Y-88618500D03*
X100401500Y-88618500D03*
X100401500Y-83368500D03*
X101671500Y-83368500D03*
X102941500Y-83368500D03*
X104211500Y-83368500D03*
%TD*%
D40*
%TO.C,Q1*%
X107513500Y-87348500D03*
D41*
X107513500Y-86078500D03*
X107513500Y-84808500D03*
%TD*%
D32*
%TO.C,R3*%
X170115000Y-93090000D03*
X170115000Y-91440000D03*
%TD*%
D29*
%TO.C,R19*%
X113030000Y-67755000D03*
X113030000Y-69405000D03*
%TD*%
D42*
%TO.C,C11*%
X105255000Y-80010000D03*
X104295000Y-80010000D03*
%TD*%
D31*
%TO.C,R8*%
X62739000Y-78328000D03*
X64389000Y-78328000D03*
%TD*%
D43*
%TO.C,U15*%
X104730000Y-128000000D03*
X106000000Y-128000000D03*
X107270000Y-128000000D03*
X108540000Y-128000000D03*
X108540000Y-134350000D03*
X107270000Y-134350000D03*
X106000000Y-134350000D03*
X104730000Y-134350000D03*
%TD*%
D31*
%TO.C,R17*%
X46983000Y-81090000D03*
X48633000Y-81090000D03*
%TD*%
D30*
%TO.C,C9*%
X111419000Y-101632000D03*
X111419000Y-102592000D03*
%TD*%
%TO.C,C7*%
X98465000Y-106204000D03*
X98465000Y-107164000D03*
%TD*%
D31*
%TO.C,R1*%
X105855000Y-92710000D03*
X107505000Y-92710000D03*
%TD*%
D36*
%TO.C,C5*%
X99481000Y-107164000D03*
X99481000Y-106204000D03*
%TD*%
D31*
%TO.C,R10*%
X62802000Y-88996000D03*
X64452000Y-88996000D03*
%TD*%
D42*
%TO.C,C4*%
X107581000Y-107700000D03*
X106621000Y-107700000D03*
%TD*%
D32*
%TO.C,R16*%
X49078000Y-73850000D03*
X49078000Y-72200000D03*
%TD*%
D27*
%TO.C,J1*%
X162015000Y-97750000D03*
D28*
X164555000Y-97750000D03*
X162015000Y-100290000D03*
X164555000Y-100290000D03*
X162015000Y-102830000D03*
X164555000Y-102830000D03*
X162015000Y-105370000D03*
X164555000Y-105370000D03*
%TD*%
D44*
%TO.C,U5*%
X67310000Y-85375000D03*
X66040000Y-85375000D03*
X64770000Y-85375000D03*
X63500000Y-85375000D03*
X63500000Y-80425000D03*
X64770000Y-80425000D03*
X66040000Y-80425000D03*
X67310000Y-80425000D03*
%TD*%
D32*
%TO.C,R21*%
X91460000Y-138370000D03*
X91460000Y-136720000D03*
%TD*%
D36*
%TO.C,C1*%
X111506000Y-100556000D03*
X111506000Y-99596000D03*
%TD*%
D33*
%TO.C,R2*%
X102870000Y-109220000D03*
X101220000Y-109220000D03*
%TD*%
%TO.C,R14*%
X64452000Y-87472000D03*
X62802000Y-87472000D03*
%TD*%
D42*
%TO.C,C2*%
X101485000Y-107700000D03*
X100525000Y-107700000D03*
%TD*%
D33*
%TO.C,R9*%
X65468000Y-76804000D03*
X63818000Y-76804000D03*
%TD*%
%LPD*%
M02*
