%TF.GenerationSoftware,KiCad,Pcbnew,7.0.9*%
%TF.CreationDate,2024-12-19T19:35:33+09:00*%
%TF.ProjectId,01-MAIN,30312d4d-4149-44e2-9e6b-696361645f70,rev?*%
%TF.SameCoordinates,Original*%
%TF.FileFunction,Profile,NP*%
%FSLAX46Y46*%
G04 Gerber Fmt 4.6, Leading zero omitted, Abs format (unit mm)*
G04 Created by KiCad (PCBNEW 7.0.9) date 2024-12-19 19:35:33*
%MOMM*%
%LPD*%
G01*
G04 APERTURE LIST*
%TA.AperFunction,Profile*%
%ADD10C,0.200000*%
%TD*%
%TA.AperFunction,Profile*%
%ADD11C,0.100000*%
%TD*%
G04 APERTURE END LIST*
D10*
X140000000Y-77000000D02*
X140000000Y-64999999D01*
X42999999Y-100000423D02*
X42999999Y-138999999D01*
X90000000Y-75000000D02*
X87000000Y-78000000D01*
X87000000Y-78000000D02*
X75000000Y-78000000D01*
X140000000Y-64999999D02*
X125000000Y-64999999D01*
D11*
X51435000Y-117000000D02*
X59800000Y-117000000D01*
X59800000Y-135000000D01*
X51435000Y-135000000D01*
X51435000Y-117000000D01*
D10*
X125000000Y-64999999D02*
X125000000Y-44999999D01*
X44146824Y-61000001D02*
X42999999Y-61000001D01*
X140000000Y-122999999D02*
X143000000Y-119999999D01*
X90000000Y-155000001D02*
X93000000Y-158000001D01*
X143000000Y-119999999D02*
X173000001Y-120000000D01*
X143000000Y-80000000D02*
X140000000Y-77000000D01*
X93000000Y-158000001D02*
X122000000Y-158000001D01*
X122000000Y-41999999D02*
X93000000Y-41999999D01*
X72000000Y-61000001D02*
X45853176Y-61000001D01*
X122000000Y-158000001D02*
X125000000Y-155000001D01*
X72000000Y-125000000D02*
X75000000Y-122000000D01*
X72000000Y-138999999D02*
X72000000Y-125000000D01*
X93000000Y-41999999D02*
X90000000Y-44999999D01*
X75000000Y-122000000D02*
X87000000Y-122000000D01*
X72000000Y-75000000D02*
X72000000Y-61000001D01*
X140000000Y-135000000D02*
X140000000Y-122999999D01*
X125000000Y-135000001D02*
X140000000Y-135000000D01*
X42999999Y-61000001D02*
X42999999Y-100000423D01*
X173000001Y-80000000D02*
X143000000Y-80000000D01*
X75000000Y-78000000D02*
X72000000Y-75000000D01*
X42999999Y-138999999D02*
X44146824Y-138999999D01*
X90000000Y-125000000D02*
X90000000Y-155000001D01*
X173000001Y-120000000D02*
X173000001Y-80000000D01*
X45853176Y-138999999D02*
X72000000Y-138999999D01*
X45853176Y-138999999D02*
X44146824Y-138999999D01*
X45853176Y-61000001D02*
X44146824Y-61000001D01*
X125000000Y-44999999D02*
X122000000Y-41999999D01*
X90000000Y-44999999D02*
X90000000Y-75000000D01*
X87000000Y-122000000D02*
X90000000Y-125000000D01*
X125000000Y-155000001D02*
X125000000Y-135000001D01*
M02*
