%TF.GenerationSoftware,KiCad,Pcbnew,7.0.9*%
%TF.CreationDate,2024-12-19T19:35:33+09:00*%
%TF.ProjectId,01-MAIN,30312d4d-4149-44e2-9e6b-696361645f70,rev?*%
%TF.SameCoordinates,Original*%
%TF.FileFunction,Paste,Bot*%
%TF.FilePolarity,Positive*%
%FSLAX46Y46*%
G04 Gerber Fmt 4.6, Leading zero omitted, Abs format (unit mm)*
G04 Created by KiCad (PCBNEW 7.0.9) date 2024-12-19 19:35:33*
%MOMM*%
%LPD*%
G01*
G04 APERTURE LIST*
G04 Aperture macros list*
%AMRoundRect*
0 Rectangle with rounded corners*
0 $1 Rounding radius*
0 $2 $3 $4 $5 $6 $7 $8 $9 X,Y pos of 4 corners*
0 Add a 4 corners polygon primitive as box body*
4,1,4,$2,$3,$4,$5,$6,$7,$8,$9,$2,$3,0*
0 Add four circle primitives for the rounded corners*
1,1,$1+$1,$2,$3*
1,1,$1+$1,$4,$5*
1,1,$1+$1,$6,$7*
1,1,$1+$1,$8,$9*
0 Add four rect primitives between the rounded corners*
20,1,$1+$1,$2,$3,$4,$5,0*
20,1,$1+$1,$4,$5,$6,$7,0*
20,1,$1+$1,$6,$7,$8,$9,0*
20,1,$1+$1,$8,$9,$2,$3,0*%
G04 Aperture macros list end*
%ADD10RoundRect,0.200000X-0.275000X0.200000X-0.275000X-0.200000X0.275000X-0.200000X0.275000X0.200000X0*%
%ADD11RoundRect,0.140000X-0.170000X0.140000X-0.170000X-0.140000X0.170000X-0.140000X0.170000X0.140000X0*%
%ADD12RoundRect,0.200000X-0.200000X-0.275000X0.200000X-0.275000X0.200000X0.275000X-0.200000X0.275000X0*%
%ADD13RoundRect,0.200000X0.275000X-0.200000X0.275000X0.200000X-0.275000X0.200000X-0.275000X-0.200000X0*%
%ADD14RoundRect,0.200000X0.200000X0.275000X-0.200000X0.275000X-0.200000X-0.275000X0.200000X-0.275000X0*%
%ADD15RoundRect,0.075000X0.700000X0.075000X-0.700000X0.075000X-0.700000X-0.075000X0.700000X-0.075000X0*%
%ADD16RoundRect,0.075000X0.075000X0.700000X-0.075000X0.700000X-0.075000X-0.700000X0.075000X-0.700000X0*%
%ADD17RoundRect,0.140000X0.170000X-0.140000X0.170000X0.140000X-0.170000X0.140000X-0.170000X-0.140000X0*%
%ADD18RoundRect,0.243750X0.456250X-0.243750X0.456250X0.243750X-0.456250X0.243750X-0.456250X-0.243750X0*%
%ADD19RoundRect,0.250000X-0.450000X0.262500X-0.450000X-0.262500X0.450000X-0.262500X0.450000X0.262500X0*%
%ADD20RoundRect,0.150000X0.150000X-0.675000X0.150000X0.675000X-0.150000X0.675000X-0.150000X-0.675000X0*%
%ADD21RoundRect,0.140000X0.140000X0.170000X-0.140000X0.170000X-0.140000X-0.170000X0.140000X-0.170000X0*%
%ADD22RoundRect,0.045750X-0.259250X0.904250X-0.259250X-0.904250X0.259250X-0.904250X0.259250X0.904250X0*%
%ADD23RoundRect,0.150000X0.150000X-0.825000X0.150000X0.825000X-0.150000X0.825000X-0.150000X-0.825000X0*%
G04 APERTURE END LIST*
D10*
%TO.C,R12*%
X61849000Y-84107000D03*
X61849000Y-85757000D03*
%TD*%
D11*
%TO.C,C10*%
X112435000Y-101660000D03*
X112435000Y-102620000D03*
%TD*%
D12*
%TO.C,R5*%
X101136500Y-92339500D03*
X102786500Y-92339500D03*
%TD*%
D13*
%TO.C,R18*%
X110490000Y-69405000D03*
X110490000Y-67755000D03*
%TD*%
D14*
%TO.C,R15*%
X67563000Y-87472000D03*
X65913000Y-87472000D03*
%TD*%
D15*
%TO.C,U1*%
X109815000Y-96580000D03*
X109815000Y-97080000D03*
X109815000Y-97580000D03*
X109815000Y-98080000D03*
X109815000Y-98580000D03*
X109815000Y-99080000D03*
X109815000Y-99580000D03*
X109815000Y-100080000D03*
X109815000Y-100580000D03*
X109815000Y-101080000D03*
X109815000Y-101580000D03*
X109815000Y-102080000D03*
X109815000Y-102580000D03*
X109815000Y-103080000D03*
X109815000Y-103580000D03*
X109815000Y-104080000D03*
D16*
X107890000Y-106005000D03*
X107390000Y-106005000D03*
X106890000Y-106005000D03*
X106390000Y-106005000D03*
X105890000Y-106005000D03*
X105390000Y-106005000D03*
X104890000Y-106005000D03*
X104390000Y-106005000D03*
X103890000Y-106005000D03*
X103390000Y-106005000D03*
X102890000Y-106005000D03*
X102390000Y-106005000D03*
X101890000Y-106005000D03*
X101390000Y-106005000D03*
X100890000Y-106005000D03*
X100390000Y-106005000D03*
D15*
X98465000Y-104080000D03*
X98465000Y-103580000D03*
X98465000Y-103080000D03*
X98465000Y-102580000D03*
X98465000Y-102080000D03*
X98465000Y-101580000D03*
X98465000Y-101080000D03*
X98465000Y-100580000D03*
X98465000Y-100080000D03*
X98465000Y-99580000D03*
X98465000Y-99080000D03*
X98465000Y-98580000D03*
X98465000Y-98080000D03*
X98465000Y-97580000D03*
X98465000Y-97080000D03*
X98465000Y-96580000D03*
D16*
X100390000Y-94655000D03*
X100890000Y-94655000D03*
X101390000Y-94655000D03*
X101890000Y-94655000D03*
X102390000Y-94655000D03*
X102890000Y-94655000D03*
X103390000Y-94655000D03*
X103890000Y-94655000D03*
X104390000Y-94655000D03*
X104890000Y-94655000D03*
X105390000Y-94655000D03*
X105890000Y-94655000D03*
X106390000Y-94655000D03*
X106890000Y-94655000D03*
X107390000Y-94655000D03*
X107890000Y-94655000D03*
%TD*%
D17*
%TO.C,C6*%
X96687000Y-97032000D03*
X96687000Y-96072000D03*
%TD*%
D12*
%TO.C,R23*%
X107715000Y-124190000D03*
X109365000Y-124190000D03*
%TD*%
%TO.C,R7*%
X100211500Y-81252500D03*
X101861500Y-81252500D03*
%TD*%
D11*
%TO.C,C3*%
X110149000Y-94520000D03*
X110149000Y-95480000D03*
%TD*%
D18*
%TO.C,D1*%
X170180000Y-89535931D03*
X170180000Y-87660931D03*
%TD*%
D14*
%TO.C,R4*%
X102242500Y-90650500D03*
X100592500Y-90650500D03*
%TD*%
D10*
%TO.C,R22*%
X119380000Y-130285000D03*
X119380000Y-131935000D03*
%TD*%
D14*
%TO.C,R11*%
X67563000Y-88996000D03*
X65913000Y-88996000D03*
%TD*%
D10*
%TO.C,R20*%
X106000000Y-123365000D03*
X106000000Y-125015000D03*
%TD*%
D14*
%TO.C,R13*%
X67500000Y-78328000D03*
X65850000Y-78328000D03*
%TD*%
%TO.C,R6*%
X105036500Y-81252500D03*
X103386500Y-81252500D03*
%TD*%
D11*
%TO.C,C8*%
X108879000Y-93504000D03*
X108879000Y-94464000D03*
%TD*%
D19*
%TO.C,FB1*%
X113959000Y-100437500D03*
X113959000Y-102262500D03*
%TD*%
D20*
%TO.C,U4*%
X104211500Y-88618500D03*
X102941500Y-88618500D03*
X101671500Y-88618500D03*
X100401500Y-88618500D03*
X100401500Y-83368500D03*
X101671500Y-83368500D03*
X102941500Y-83368500D03*
X104211500Y-83368500D03*
%TD*%
D13*
%TO.C,R3*%
X170115000Y-93090000D03*
X170115000Y-91440000D03*
%TD*%
D10*
%TO.C,R19*%
X113030000Y-67755000D03*
X113030000Y-69405000D03*
%TD*%
D21*
%TO.C,C11*%
X105255000Y-80010000D03*
X104295000Y-80010000D03*
%TD*%
D12*
%TO.C,R8*%
X62739000Y-78328000D03*
X64389000Y-78328000D03*
%TD*%
D22*
%TO.C,U15*%
X104730000Y-128000000D03*
X106000000Y-128000000D03*
X107270000Y-128000000D03*
X108540000Y-128000000D03*
X108540000Y-134350000D03*
X107270000Y-134350000D03*
X106000000Y-134350000D03*
X104730000Y-134350000D03*
%TD*%
D12*
%TO.C,R17*%
X46983000Y-81090000D03*
X48633000Y-81090000D03*
%TD*%
D11*
%TO.C,C9*%
X111419000Y-101632000D03*
X111419000Y-102592000D03*
%TD*%
%TO.C,C7*%
X98465000Y-106204000D03*
X98465000Y-107164000D03*
%TD*%
D12*
%TO.C,R1*%
X105855000Y-92710000D03*
X107505000Y-92710000D03*
%TD*%
D17*
%TO.C,C5*%
X99481000Y-107164000D03*
X99481000Y-106204000D03*
%TD*%
D12*
%TO.C,R10*%
X62802000Y-88996000D03*
X64452000Y-88996000D03*
%TD*%
D21*
%TO.C,C4*%
X107581000Y-107700000D03*
X106621000Y-107700000D03*
%TD*%
D13*
%TO.C,R16*%
X49078000Y-73850000D03*
X49078000Y-72200000D03*
%TD*%
D23*
%TO.C,U5*%
X67310000Y-85375000D03*
X66040000Y-85375000D03*
X64770000Y-85375000D03*
X63500000Y-85375000D03*
X63500000Y-80425000D03*
X64770000Y-80425000D03*
X66040000Y-80425000D03*
X67310000Y-80425000D03*
%TD*%
D13*
%TO.C,R21*%
X91460000Y-138370000D03*
X91460000Y-136720000D03*
%TD*%
D17*
%TO.C,C1*%
X111506000Y-100556000D03*
X111506000Y-99596000D03*
%TD*%
D14*
%TO.C,R2*%
X102870000Y-109220000D03*
X101220000Y-109220000D03*
%TD*%
%TO.C,R14*%
X64452000Y-87472000D03*
X62802000Y-87472000D03*
%TD*%
D21*
%TO.C,C2*%
X101485000Y-107700000D03*
X100525000Y-107700000D03*
%TD*%
D14*
%TO.C,R9*%
X65468000Y-76804000D03*
X63818000Y-76804000D03*
%TD*%
M02*
