M48
; DRILL file {KiCad 7.0.9} date Thu Dec 19 19:35:33 2024
; FORMAT={-:-/ absolute / inch / decimal}
; #@! TF.CreationDate,2024-12-19T19:35:33+09:00
; #@! TF.GenerationSoftware,Kicad,Pcbnew,7.0.9
; #@! TF.FileFunction,Plated,1,2,PTH
FMAT,2
INCH
; #@! TA.AperFunction,Plated,PTH,ViaDrill
T1C0.0118
; #@! TA.AperFunction,Plated,PTH,ViaDrill
T2C0.0157
; #@! TA.AperFunction,Plated,PTH,ComponentDrill
T3C0.0197
; #@! TA.AperFunction,Plated,PTH,ComponentDrill
T4C0.0295
; #@! TA.AperFunction,Plated,PTH,ComponentDrill
T5C0.0300
; #@! TA.AperFunction,Plated,PTH,ComponentDrill
T6C0.0335
; #@! TA.AperFunction,Plated,PTH,ComponentDrill
T7C0.0374
; #@! TA.AperFunction,Plated,PTH,ComponentDrill
T8C0.0394
; #@! TA.AperFunction,Plated,PTH,ComponentDrill
T9C0.1260
%
G90
G05
T1
X2.0Y-3.35
X2.7Y-4.55
X2.8Y-4.4
T2
X1.725Y-2.45
X1.725Y-3.3
X1.725Y-3.8
X1.725Y-4.825
X1.725Y-5.425
X1.75Y-2.75
X1.94Y-3.25
X1.94Y-3.34
X1.94Y-3.43
X1.95Y-3.675
X1.95Y-3.925
X1.95Y-4.375
X1.97Y-3.17
X1.975Y-5.325
X2.0Y-4.7
X2.02Y-3.13
X2.05Y-3.96
X2.1Y-3.8
X2.15Y-3.26
X2.15Y-3.875
X2.175Y-2.45
X2.225Y-3.8
X2.29Y-3.39
X2.3Y-5.35
X2.325Y-2.95
X2.35Y-3.675
X2.38Y-3.4753
X2.4Y-4.175
X2.5Y-4.15
X2.51Y-2.73
X2.525Y-2.925
X2.65Y-3.675
X2.65Y-4.175
X2.7Y-3.55
X2.75Y-4.675
X2.775Y-5.425
X2.8Y-2.45
X2.8Y-2.85
X2.8Y-5.025
X2.875Y-3.225
X2.9Y-4.525
X2.9001Y-4.6001
X2.975Y-4.425
X3.025Y-3.1
X3.075Y-4.025
X3.2Y-4.6
X3.225Y-3.875
X3.3Y-3.8298
X3.35Y-3.8573
X3.4Y-3.9
X3.425Y-4.025
X3.45Y-3.9398
X3.55Y-3.025
X3.625Y-5.55
X3.65Y-1.75
X3.65Y-3.075
X3.65Y-4.2
X3.65Y-4.525
X3.65Y-4.7
X3.675Y-3.8
X3.7Y-4.3775
X3.7Y-4.975
X3.72Y-6.116
X3.725Y-4.0
X3.75Y-4.4275
X3.775Y-2.875
X3.775Y-4.15
X3.8Y-4.525
X3.83Y-4.46
X3.8491Y-3.7509
X3.85Y-4.275
X3.89Y-3.58
X3.9Y-1.7
X3.9Y-4.49
X3.91Y-3.67
X3.9491Y-3.8509
X3.95Y-4.05
X3.95Y-4.525
X3.95Y-4.65
X3.975Y-5.5
X3.9759Y-4.0796
X4.05Y-4.75
X4.05Y-4.95
X4.09Y-3.66
X4.1Y-3.8
X4.1Y-4.35
X4.1Y-4.65
X4.15Y-3.6
X4.15Y-3.85
X4.15Y-3.97
X4.157Y-4.382
X4.16Y-3.51
X4.1609Y-4.1117
X4.17Y-3.93
X4.175Y-5.975
X4.2Y-5.15
X4.2Y-6.175
X4.22Y-3.01
X4.225Y-1.85
X4.2453Y-3.91
X4.2484Y-5.4
X4.25Y-4.3
X4.2502Y-3.8098
X4.2695Y-3.8723
X4.275Y-4.6
X4.325Y-5.725
X4.35Y-3.01
X4.37Y-3.64
X4.4Y-5.4473
X4.45Y-3.85
X4.45Y-4.5
X4.46Y-3.72
X4.475Y-5.425
X4.5Y-4.1
X4.5Y-4.25
X4.575Y-4.0
X4.65Y-2.7
X4.65Y-3.0
X4.65Y-4.1
X4.67Y-3.94
X4.8Y-1.775
X4.8Y-5.525
X4.8Y-6.075
X4.875Y-2.6
X4.88Y-4.26
X4.89Y-5.06
X4.9Y-3.94
X4.94Y-3.0
X4.95Y-2.8
X5.075Y-5.25
X5.1Y-3.94
X5.11Y-3.11
X5.125Y-4.95
X5.32Y-2.98
X5.325Y-4.275
X5.34Y-3.94
X5.44Y-3.08
X5.45Y-2.625
X5.45Y-2.925
X5.45Y-5.25
X5.46Y-3.94
X5.475Y-4.275
X5.52Y-4.74
X5.75Y-3.2
X6.22Y-3.92
X6.3Y-3.725
X6.75Y-3.25
X6.75Y-4.275
X6.75Y-4.65
X6.775Y-3.725
T3
X3.6812Y-1.9726
X3.685Y-5.9055
X3.7089Y-1.9057
X3.7089Y-2.0394
X3.7127Y-5.8387
X3.7127Y-5.9723
X3.7757Y-1.8781
X3.7757Y-2.067
X3.7795Y-5.811
X3.7795Y-6.0
X3.8425Y-1.9057
X3.8425Y-2.0394
X3.8463Y-5.8387
X3.8463Y-5.9723
X3.8702Y-1.9726
X3.874Y-5.9055
T4
X4.2328Y-3.3389
X4.2328Y-3.3889
X4.2328Y-3.4389
T5
X1.8572Y-2.8
X1.8572Y-2.9
X1.8572Y-3.0
X1.8572Y-3.1
X1.8572Y-3.3
X1.8572Y-3.4
X1.8572Y-3.5
X1.8572Y-3.6
X1.8572Y-3.8
X1.8572Y-3.9
X1.8572Y-4.0
X1.8572Y-4.1
X1.8572Y-4.3
X1.8572Y-4.4
X1.8572Y-4.5
X1.8572Y-4.6
X1.8572Y-4.8
X1.8572Y-4.9
X1.8572Y-5.0
X1.8572Y-5.1
X1.9572Y-3.0
X1.9572Y-3.1
X1.9572Y-3.5
X1.9572Y-3.6
X1.9572Y-4.0
X1.9572Y-4.1
X1.9572Y-4.5
X1.9572Y-4.6
X1.9572Y-5.0
X1.9572Y-5.1
X2.25Y-3.95
X2.25Y-4.25
X2.35Y-3.95
X2.35Y-4.25
X2.45Y-3.95
X2.45Y-4.25
X2.55Y-3.95
X2.55Y-4.25
X3.8Y-6.15
X3.9Y-6.15
X4.0Y-1.75
X4.0Y-1.85
X4.0Y-6.05
X4.0Y-6.15
X4.1Y-1.75
X4.1Y-1.85
X4.1Y-6.05
X4.1Y-6.15
X4.15Y-2.8
X4.2Y-1.75
X4.25Y-2.8
X4.3Y-1.75
X4.35Y-2.8
X4.45Y-2.8
X4.55Y-2.8
X4.65Y-2.8
X4.75Y-2.8
X4.85Y-2.8
T6
X2.5031Y-2.54
X2.5031Y-5.36
X2.6016Y-2.54
X2.6016Y-5.36
X2.7Y-2.54
X2.7Y-5.36
X5.32Y-2.7031
X5.32Y-2.8016
X5.32Y-2.9
X5.3256Y-4.9531
X5.3256Y-5.0516
X5.3256Y-5.15
T7
X2.15Y-2.8047
X2.15Y-2.9031
X2.15Y-3.0016
X2.15Y-3.1
X2.15Y-3.4
X2.15Y-3.4984
X2.15Y-3.5969
X2.15Y-3.6953
X2.55Y-4.7
X2.55Y-4.7984
X2.55Y-4.8969
X2.55Y-4.9953
X2.55Y-5.0937
X2.95Y-3.5579
X2.95Y-3.6563
X2.95Y-3.7547
X2.95Y-3.8531
X2.95Y-3.9516
X2.95Y-4.05
X2.95Y-4.1484
X2.95Y-4.2469
T8
X3.7008Y-5.1152
X3.7008Y-5.2152
X3.7008Y-5.3152
X3.7008Y-5.4152
X3.7008Y-5.5152
X3.7281Y-2.6
X3.925Y-2.6
X4.6Y-5.1118
X4.6Y-5.2118
X4.6Y-5.3118
X4.6Y-5.4118
X4.6Y-5.5118
X6.3785Y-3.8484
X6.3785Y-3.9484
X6.3785Y-4.0484
X6.3785Y-4.1484
X6.4785Y-3.8484
X6.4785Y-3.9484
X6.4785Y-4.0484
X6.4785Y-4.1484
T9
X3.7757Y-1.9726
X3.7795Y-5.9055
T0
M30
