%TF.GenerationSoftware,KiCad,Pcbnew,7.0.9*%
%TF.CreationDate,2025-01-29T15:25:45+09:00*%
%TF.ProjectId,01-MAIN,30312d4d-4149-44e2-9e6b-696361645f70,rev?*%
%TF.SameCoordinates,Original*%
%TF.FileFunction,Legend,Bot*%
%TF.FilePolarity,Positive*%
%FSLAX46Y46*%
G04 Gerber Fmt 4.6, Leading zero omitted, Abs format (unit mm)*
G04 Created by KiCad (PCBNEW 7.0.9) date 2025-01-29 15:25:45*
%MOMM*%
%LPD*%
G01*
G04 APERTURE LIST*
G04 Aperture macros list*
%AMRoundRect*
0 Rectangle with rounded corners*
0 $1 Rounding radius*
0 $2 $3 $4 $5 $6 $7 $8 $9 X,Y pos of 4 corners*
0 Add a 4 corners polygon primitive as box body*
4,1,4,$2,$3,$4,$5,$6,$7,$8,$9,$2,$3,0*
0 Add four circle primitives for the rounded corners*
1,1,$1+$1,$2,$3*
1,1,$1+$1,$4,$5*
1,1,$1+$1,$6,$7*
1,1,$1+$1,$8,$9*
0 Add four rect primitives between the rounded corners*
20,1,$1+$1,$2,$3,$4,$5,0*
20,1,$1+$1,$4,$5,$6,$7,0*
20,1,$1+$1,$6,$7,$8,$9,0*
20,1,$1+$1,$8,$9,$2,$3,0*%
G04 Aperture macros list end*
%ADD10C,0.150000*%
%ADD11C,0.300000*%
%ADD12C,0.100000*%
%ADD13C,0.120000*%
%ADD14RoundRect,0.250000X0.725000X-0.600000X0.725000X0.600000X-0.725000X0.600000X-0.725000X-0.600000X0*%
%ADD15O,1.950000X1.700000*%
%ADD16C,0.800000*%
%ADD17C,6.400000*%
%ADD18RoundRect,0.250000X-0.725000X0.600000X-0.725000X-0.600000X0.725000X-0.600000X0.725000X0.600000X0*%
%ADD19RoundRect,0.250000X-0.675000X0.600000X-0.675000X-0.600000X0.675000X-0.600000X0.675000X0.600000X0*%
%ADD20O,1.850000X1.700000*%
%ADD21R,1.050000X1.500000*%
%ADD22O,1.050000X1.500000*%
%ADD23C,3.200000*%
%ADD24RoundRect,0.250000X-0.600000X-0.675000X0.600000X-0.675000X0.600000X0.675000X-0.600000X0.675000X0*%
%ADD25O,1.700000X1.850000*%
%ADD26R,1.600000X1.600000*%
%ADD27C,1.600000*%
%ADD28C,1.524000*%
%ADD29R,2.000000X2.000000*%
%ADD30C,2.000000*%
%ADD31RoundRect,0.243750X-0.456250X0.243750X-0.456250X-0.243750X0.456250X-0.243750X0.456250X0.243750X0*%
%ADD32RoundRect,0.140000X0.140000X0.170000X-0.140000X0.170000X-0.140000X-0.170000X0.140000X-0.170000X0*%
%ADD33R,1.550000X0.600000*%
%ADD34R,2.600000X3.100000*%
%ADD35RoundRect,0.140000X-0.170000X0.140000X-0.170000X-0.140000X0.170000X-0.140000X0.170000X0.140000X0*%
%ADD36RoundRect,0.243750X0.243750X0.456250X-0.243750X0.456250X-0.243750X-0.456250X0.243750X-0.456250X0*%
%ADD37RoundRect,0.225000X0.250000X-0.225000X0.250000X0.225000X-0.250000X0.225000X-0.250000X-0.225000X0*%
%ADD38RoundRect,0.243750X-0.243750X-0.456250X0.243750X-0.456250X0.243750X0.456250X-0.243750X0.456250X0*%
%ADD39RoundRect,0.250000X0.450000X-0.262500X0.450000X0.262500X-0.450000X0.262500X-0.450000X-0.262500X0*%
%ADD40R,1.400000X0.300000*%
%ADD41RoundRect,0.200000X-0.200000X-0.275000X0.200000X-0.275000X0.200000X0.275000X-0.200000X0.275000X0*%
%ADD42RoundRect,0.250000X0.262500X0.450000X-0.262500X0.450000X-0.262500X-0.450000X0.262500X-0.450000X0*%
%ADD43RoundRect,0.200000X0.275000X-0.200000X0.275000X0.200000X-0.275000X0.200000X-0.275000X-0.200000X0*%
%ADD44C,2.200000*%
%ADD45RoundRect,0.200000X-0.275000X0.200000X-0.275000X-0.200000X0.275000X-0.200000X0.275000X0.200000X0*%
%ADD46RoundRect,1.025000X1.025000X-1.025000X1.025000X1.025000X-1.025000X1.025000X-1.025000X-1.025000X0*%
%ADD47O,1.800000X1.000000*%
%ADD48O,2.100000X1.000000*%
%ADD49RoundRect,0.150000X-0.425000X0.150000X-0.425000X-0.150000X0.425000X-0.150000X0.425000X0.150000X0*%
%ADD50RoundRect,0.075000X-0.500000X0.075000X-0.500000X-0.075000X0.500000X-0.075000X0.500000X0.075000X0*%
%ADD51RoundRect,0.200000X0.200000X0.275000X-0.200000X0.275000X-0.200000X-0.275000X0.200000X-0.275000X0*%
%ADD52RoundRect,0.075000X0.700000X0.075000X-0.700000X0.075000X-0.700000X-0.075000X0.700000X-0.075000X0*%
%ADD53RoundRect,0.075000X0.075000X0.700000X-0.075000X0.700000X-0.075000X-0.700000X0.075000X-0.700000X0*%
%ADD54RoundRect,0.140000X-0.140000X-0.170000X0.140000X-0.170000X0.140000X0.170000X-0.140000X0.170000X0*%
%ADD55RoundRect,0.250000X-0.475000X0.250000X-0.475000X-0.250000X0.475000X-0.250000X0.475000X0.250000X0*%
%ADD56RoundRect,0.150000X-0.150000X0.675000X-0.150000X-0.675000X0.150000X-0.675000X0.150000X0.675000X0*%
%ADD57RoundRect,0.250000X-0.450000X0.262500X-0.450000X-0.262500X0.450000X-0.262500X0.450000X0.262500X0*%
%ADD58RoundRect,0.140000X0.170000X-0.140000X0.170000X0.140000X-0.170000X0.140000X-0.170000X-0.140000X0*%
%ADD59RoundRect,0.250000X-1.000000X-0.650000X1.000000X-0.650000X1.000000X0.650000X-1.000000X0.650000X0*%
%ADD60RoundRect,0.243750X0.456250X-0.243750X0.456250X0.243750X-0.456250X0.243750X-0.456250X-0.243750X0*%
G04 APERTURE END LIST*
D10*
X135000000Y-68000000D02*
X145000000Y-68000000D01*
X145000000Y-86000000D01*
X135000000Y-86000000D01*
X135000000Y-68000000D01*
X117000000Y-103900000D02*
X142000000Y-103900000D01*
X142000000Y-119900000D01*
X117000000Y-119900000D01*
X117000000Y-103900000D01*
X145000000Y-104000000D02*
X170000000Y-104000000D01*
X170000000Y-120000000D01*
X145000000Y-120000000D01*
X145000000Y-104000000D01*
X90172000Y-115700000D02*
X97536000Y-115700000D01*
X97536000Y-130810000D01*
X90172000Y-130810000D01*
X90172000Y-115700000D01*
X101990786Y-100313000D02*
X110682786Y-100313000D01*
X110682786Y-112923000D01*
X101990786Y-112923000D01*
X101990786Y-100313000D01*
X101992786Y-84428000D02*
X110684786Y-84428000D01*
X110684786Y-97038000D01*
X101992786Y-97038000D01*
X101992786Y-84428000D01*
X182000000Y-89000000D02*
X192000000Y-89000000D01*
X192000000Y-96000000D01*
X182000000Y-96000000D01*
X182000000Y-89000000D01*
X164000000Y-98000000D02*
X160000000Y-102000000D01*
X143000000Y-102000000D01*
X143000000Y-86000000D01*
X164000000Y-86000000D01*
X164000000Y-98000000D01*
D11*
X153034666Y-131751638D02*
X152368000Y-133751638D01*
X152368000Y-133751638D02*
X151701333Y-131751638D01*
X151034666Y-133751638D02*
X151034666Y-131751638D01*
X151034666Y-131751638D02*
X150558476Y-131751638D01*
X150558476Y-131751638D02*
X150272761Y-131846876D01*
X150272761Y-131846876D02*
X150082285Y-132037352D01*
X150082285Y-132037352D02*
X149987047Y-132227828D01*
X149987047Y-132227828D02*
X149891809Y-132608780D01*
X149891809Y-132608780D02*
X149891809Y-132894495D01*
X149891809Y-132894495D02*
X149987047Y-133275447D01*
X149987047Y-133275447D02*
X150082285Y-133465923D01*
X150082285Y-133465923D02*
X150272761Y-133656400D01*
X150272761Y-133656400D02*
X150558476Y-133751638D01*
X150558476Y-133751638D02*
X151034666Y-133751638D01*
X149034666Y-133751638D02*
X149034666Y-131751638D01*
X149034666Y-131751638D02*
X148558476Y-131751638D01*
X148558476Y-131751638D02*
X148272761Y-131846876D01*
X148272761Y-131846876D02*
X148082285Y-132037352D01*
X148082285Y-132037352D02*
X147987047Y-132227828D01*
X147987047Y-132227828D02*
X147891809Y-132608780D01*
X147891809Y-132608780D02*
X147891809Y-132894495D01*
X147891809Y-132894495D02*
X147987047Y-133275447D01*
X147987047Y-133275447D02*
X148082285Y-133465923D01*
X148082285Y-133465923D02*
X148272761Y-133656400D01*
X148272761Y-133656400D02*
X148558476Y-133751638D01*
X148558476Y-133751638D02*
X149034666Y-133751638D01*
D10*
X96421411Y-127772438D02*
X96516649Y-127724819D01*
X96516649Y-127724819D02*
X96659506Y-127724819D01*
X96659506Y-127724819D02*
X96802363Y-127772438D01*
X96802363Y-127772438D02*
X96897601Y-127867676D01*
X96897601Y-127867676D02*
X96945220Y-127962914D01*
X96945220Y-127962914D02*
X96992839Y-128153390D01*
X96992839Y-128153390D02*
X96992839Y-128296247D01*
X96992839Y-128296247D02*
X96945220Y-128486723D01*
X96945220Y-128486723D02*
X96897601Y-128581961D01*
X96897601Y-128581961D02*
X96802363Y-128677200D01*
X96802363Y-128677200D02*
X96659506Y-128724819D01*
X96659506Y-128724819D02*
X96564268Y-128724819D01*
X96564268Y-128724819D02*
X96421411Y-128677200D01*
X96421411Y-128677200D02*
X96373792Y-128629580D01*
X96373792Y-128629580D02*
X96373792Y-128296247D01*
X96373792Y-128296247D02*
X96564268Y-128296247D01*
X95945220Y-128724819D02*
X95945220Y-127724819D01*
X95945220Y-127724819D02*
X95373792Y-128724819D01*
X95373792Y-128724819D02*
X95373792Y-127724819D01*
X94897601Y-128724819D02*
X94897601Y-127724819D01*
X94897601Y-127724819D02*
X94659506Y-127724819D01*
X94659506Y-127724819D02*
X94516649Y-127772438D01*
X94516649Y-127772438D02*
X94421411Y-127867676D01*
X94421411Y-127867676D02*
X94373792Y-127962914D01*
X94373792Y-127962914D02*
X94326173Y-128153390D01*
X94326173Y-128153390D02*
X94326173Y-128296247D01*
X94326173Y-128296247D02*
X94373792Y-128486723D01*
X94373792Y-128486723D02*
X94421411Y-128581961D01*
X94421411Y-128581961D02*
X94516649Y-128677200D01*
X94516649Y-128677200D02*
X94659506Y-128724819D01*
X94659506Y-128724819D02*
X94897601Y-128724819D01*
X188314285Y-90454819D02*
X188885713Y-90454819D01*
X188599999Y-90454819D02*
X188599999Y-89454819D01*
X188599999Y-89454819D02*
X188695237Y-89597676D01*
X188695237Y-89597676D02*
X188790475Y-89692914D01*
X188790475Y-89692914D02*
X188885713Y-89740533D01*
X108381922Y-109944819D02*
X108858112Y-109944819D01*
X108858112Y-109944819D02*
X108905731Y-110421009D01*
X108905731Y-110421009D02*
X108858112Y-110373390D01*
X108858112Y-110373390D02*
X108762874Y-110325771D01*
X108762874Y-110325771D02*
X108524779Y-110325771D01*
X108524779Y-110325771D02*
X108429541Y-110373390D01*
X108429541Y-110373390D02*
X108381922Y-110421009D01*
X108381922Y-110421009D02*
X108334303Y-110516247D01*
X108334303Y-110516247D02*
X108334303Y-110754342D01*
X108334303Y-110754342D02*
X108381922Y-110849580D01*
X108381922Y-110849580D02*
X108429541Y-110897200D01*
X108429541Y-110897200D02*
X108524779Y-110944819D01*
X108524779Y-110944819D02*
X108762874Y-110944819D01*
X108762874Y-110944819D02*
X108858112Y-110897200D01*
X108858112Y-110897200D02*
X108905731Y-110849580D01*
X108048588Y-109944819D02*
X107715255Y-110944819D01*
X107715255Y-110944819D02*
X107381922Y-109944819D01*
X108429541Y-105991819D02*
X108762874Y-105515628D01*
X109000969Y-105991819D02*
X109000969Y-104991819D01*
X109000969Y-104991819D02*
X108620017Y-104991819D01*
X108620017Y-104991819D02*
X108524779Y-105039438D01*
X108524779Y-105039438D02*
X108477160Y-105087057D01*
X108477160Y-105087057D02*
X108429541Y-105182295D01*
X108429541Y-105182295D02*
X108429541Y-105325152D01*
X108429541Y-105325152D02*
X108477160Y-105420390D01*
X108477160Y-105420390D02*
X108524779Y-105468009D01*
X108524779Y-105468009D02*
X108620017Y-105515628D01*
X108620017Y-105515628D02*
X109000969Y-105515628D01*
X108096207Y-104991819D02*
X107429541Y-105991819D01*
X107429541Y-104991819D02*
X108096207Y-105991819D01*
D11*
G36*
X112825031Y-92426360D02*
G01*
X112885845Y-92487174D01*
X112954361Y-92624206D01*
X112954361Y-93200701D01*
X112206742Y-93200701D01*
X112206742Y-92624206D01*
X112275257Y-92487174D01*
X112336072Y-92426360D01*
X112473105Y-92357844D01*
X112687999Y-92357844D01*
X112825031Y-92426360D01*
G37*
G36*
X112741959Y-90343288D02*
G01*
X112885845Y-90487174D01*
X112954361Y-90624206D01*
X112954361Y-90934339D01*
X112885845Y-91071371D01*
X112741959Y-91215256D01*
X112419231Y-91295939D01*
X111789492Y-91295939D01*
X111466764Y-91215257D01*
X111322878Y-91071371D01*
X111254361Y-90934337D01*
X111254361Y-90624207D01*
X111322878Y-90487173D01*
X111466764Y-90343288D01*
X111789492Y-90262606D01*
X112419231Y-90262606D01*
X112741959Y-90343288D01*
G37*
G36*
X113540075Y-95500701D02*
G01*
X110668647Y-95500701D01*
X110668647Y-95064987D01*
X110954361Y-95064987D01*
X110974457Y-95139987D01*
X111029361Y-95194891D01*
X111104361Y-95214987D01*
X112151980Y-95214987D01*
X113104361Y-95214987D01*
X113179361Y-95194891D01*
X113234265Y-95139987D01*
X113254361Y-95064987D01*
X113254361Y-94112606D01*
X113234265Y-94037606D01*
X113179361Y-93982702D01*
X113104361Y-93962606D01*
X113029361Y-93982702D01*
X112974457Y-94037606D01*
X112954361Y-94112606D01*
X112954361Y-94914987D01*
X112301980Y-94914987D01*
X112301980Y-94398320D01*
X112281884Y-94323320D01*
X112226980Y-94268416D01*
X112151980Y-94248320D01*
X112076980Y-94268416D01*
X112022076Y-94323320D01*
X112001980Y-94398320D01*
X112001980Y-94914987D01*
X111104361Y-94914987D01*
X111029361Y-94935083D01*
X110974457Y-94989987D01*
X110954361Y-95064987D01*
X110668647Y-95064987D01*
X110668647Y-93350701D01*
X110954361Y-93350701D01*
X110974457Y-93425701D01*
X111029361Y-93480605D01*
X111104361Y-93500701D01*
X112056742Y-93500701D01*
X113104361Y-93500701D01*
X113179361Y-93480605D01*
X113234265Y-93425701D01*
X113254361Y-93350701D01*
X113254361Y-92588796D01*
X113245437Y-92555492D01*
X113238525Y-92521714D01*
X113143287Y-92331238D01*
X113127263Y-92313168D01*
X113115189Y-92292254D01*
X113019951Y-92197016D01*
X112999035Y-92184940D01*
X112980967Y-92168918D01*
X112790491Y-92073680D01*
X112756710Y-92066767D01*
X112723409Y-92057844D01*
X112437695Y-92057844D01*
X112404391Y-92066767D01*
X112370613Y-92073680D01*
X112180137Y-92168918D01*
X112162068Y-92184939D01*
X112141154Y-92197015D01*
X112045915Y-92292253D01*
X112033838Y-92313169D01*
X112017816Y-92331238D01*
X111922578Y-92521714D01*
X111915665Y-92555494D01*
X111907279Y-92586789D01*
X111190380Y-92084959D01*
X111117414Y-92058413D01*
X111040949Y-92071907D01*
X110981476Y-92121825D01*
X110954930Y-92194791D01*
X110968424Y-92271256D01*
X111018342Y-92330729D01*
X111906742Y-92952609D01*
X111906742Y-93200701D01*
X111104361Y-93200701D01*
X111029361Y-93220797D01*
X110974457Y-93275701D01*
X110954361Y-93350701D01*
X110668647Y-93350701D01*
X110668647Y-90969749D01*
X110954361Y-90969749D01*
X110963283Y-91003049D01*
X110970197Y-91036832D01*
X111065436Y-91227308D01*
X111081459Y-91245377D01*
X111093534Y-91266291D01*
X111284010Y-91456767D01*
X111285138Y-91457418D01*
X111285809Y-91458536D01*
X111318669Y-91476777D01*
X111351253Y-91495590D01*
X111352558Y-91495590D01*
X111353696Y-91496222D01*
X111734647Y-91591460D01*
X111753150Y-91591148D01*
X111771028Y-91595939D01*
X112437695Y-91595939D01*
X112455571Y-91591148D01*
X112474075Y-91591460D01*
X112855027Y-91496222D01*
X112856165Y-91495590D01*
X112857470Y-91495590D01*
X112890053Y-91476777D01*
X112922914Y-91458536D01*
X112923584Y-91457418D01*
X112924713Y-91456767D01*
X113115189Y-91266291D01*
X113127263Y-91245376D01*
X113143287Y-91227307D01*
X113238525Y-91036831D01*
X113245437Y-91003052D01*
X113254361Y-90969749D01*
X113254361Y-90588796D01*
X113245437Y-90555492D01*
X113238525Y-90521714D01*
X113143287Y-90331238D01*
X113127263Y-90313168D01*
X113115189Y-90292254D01*
X112924713Y-90101778D01*
X112923584Y-90101126D01*
X112922914Y-90100009D01*
X112890053Y-90081767D01*
X112857470Y-90062955D01*
X112856165Y-90062955D01*
X112855027Y-90062323D01*
X112474075Y-89967085D01*
X112455571Y-89967396D01*
X112437695Y-89962606D01*
X111771028Y-89962606D01*
X111753150Y-89967396D01*
X111734647Y-89967085D01*
X111353696Y-90062323D01*
X111352558Y-90062955D01*
X111351253Y-90062955D01*
X111318669Y-90081767D01*
X111285809Y-90100009D01*
X111285138Y-90101126D01*
X111284010Y-90101778D01*
X111093534Y-90292254D01*
X111081459Y-90313167D01*
X111065436Y-90331237D01*
X110970197Y-90521713D01*
X110963283Y-90555495D01*
X110954361Y-90588796D01*
X110954361Y-90969749D01*
X110668647Y-90969749D01*
X110668647Y-89255463D01*
X110954361Y-89255463D01*
X110974457Y-89330463D01*
X111029361Y-89385367D01*
X111104361Y-89405463D01*
X113104361Y-89405463D01*
X113104693Y-89405373D01*
X113105029Y-89405462D01*
X113142260Y-89395307D01*
X113179361Y-89385367D01*
X113179604Y-89385123D01*
X113179939Y-89385032D01*
X113207044Y-89357683D01*
X113234265Y-89330463D01*
X113234354Y-89330128D01*
X113234597Y-89329884D01*
X113244391Y-89292668D01*
X113254361Y-89255463D01*
X113254271Y-89255130D01*
X113254360Y-89254795D01*
X113244205Y-89217563D01*
X113234265Y-89180463D01*
X113234021Y-89180219D01*
X113233930Y-89179885D01*
X113206525Y-89152723D01*
X113179361Y-89125559D01*
X113179027Y-89125469D01*
X113178782Y-89125226D01*
X111669195Y-88262606D01*
X113104361Y-88262606D01*
X113179361Y-88242510D01*
X113234265Y-88187606D01*
X113254361Y-88112606D01*
X113234265Y-88037606D01*
X113179361Y-87982702D01*
X113104361Y-87962606D01*
X111104361Y-87962606D01*
X111104028Y-87962695D01*
X111103693Y-87962607D01*
X111066461Y-87972761D01*
X111029361Y-87982702D01*
X111029117Y-87982945D01*
X111028783Y-87983037D01*
X111001677Y-88010385D01*
X110974457Y-88037606D01*
X110974367Y-88037940D01*
X110974125Y-88038185D01*
X110964330Y-88075400D01*
X110954361Y-88112606D01*
X110954450Y-88112938D01*
X110954362Y-88113274D01*
X110964516Y-88150505D01*
X110974457Y-88187606D01*
X110974700Y-88187849D01*
X110974792Y-88188184D01*
X111002140Y-88215289D01*
X111029361Y-88242510D01*
X111029695Y-88242599D01*
X111029940Y-88242842D01*
X112539527Y-89105463D01*
X111104361Y-89105463D01*
X111029361Y-89125559D01*
X110974457Y-89180463D01*
X110954361Y-89255463D01*
X110668647Y-89255463D01*
X110668647Y-86874511D01*
X110954361Y-86874511D01*
X110974457Y-86949511D01*
X111029361Y-87004415D01*
X111104361Y-87024511D01*
X112954361Y-87024511D01*
X112954361Y-87445939D01*
X112974457Y-87520939D01*
X113029361Y-87575843D01*
X113104361Y-87595939D01*
X113179361Y-87575843D01*
X113234265Y-87520939D01*
X113254361Y-87445939D01*
X113254361Y-86303082D01*
X113234265Y-86228082D01*
X113179361Y-86173178D01*
X113104361Y-86153082D01*
X113029361Y-86173178D01*
X112974457Y-86228082D01*
X112954361Y-86303082D01*
X112954361Y-86724511D01*
X111104361Y-86724511D01*
X111029361Y-86744607D01*
X110974457Y-86799511D01*
X110954361Y-86874511D01*
X110668647Y-86874511D01*
X110668647Y-85867368D01*
X113540075Y-85867368D01*
X113540075Y-95500701D01*
G37*
G36*
X169485463Y-103359638D02*
G01*
X168908968Y-103359638D01*
X168771936Y-103291122D01*
X168711122Y-103230307D01*
X168642606Y-103093275D01*
X168642606Y-102878381D01*
X168711122Y-102741349D01*
X168764110Y-102688361D01*
X168993136Y-102612019D01*
X169485463Y-102612019D01*
X169485463Y-103359638D01*
G37*
G36*
X169485463Y-102312019D02*
G01*
X169004207Y-102312019D01*
X168867173Y-102243501D01*
X168806360Y-102182688D01*
X168737844Y-102045656D01*
X168737844Y-101926000D01*
X168806360Y-101788968D01*
X168867174Y-101728154D01*
X169004206Y-101659638D01*
X169485463Y-101659638D01*
X169485463Y-102312019D01*
G37*
G36*
X167522587Y-102788209D02*
G01*
X166986434Y-102788209D01*
X167254510Y-101983979D01*
X167522587Y-102788209D01*
G37*
G36*
X170071177Y-103945352D02*
G01*
X162343683Y-103945352D01*
X162343683Y-103491696D01*
X162629397Y-103491696D01*
X162640378Y-103568561D01*
X162688320Y-103629638D01*
X162760378Y-103658561D01*
X162837243Y-103647580D01*
X162898320Y-103599638D01*
X163651691Y-102595141D01*
X163771177Y-102714627D01*
X163771177Y-103509638D01*
X163791273Y-103584638D01*
X163846177Y-103639542D01*
X163921177Y-103659638D01*
X163996177Y-103639542D01*
X164051081Y-103584638D01*
X164071177Y-103509638D01*
X164071177Y-103357983D01*
X164633431Y-103357983D01*
X164672253Y-103425226D01*
X164767492Y-103520466D01*
X164797354Y-103537707D01*
X164826124Y-103556702D01*
X165111838Y-103651940D01*
X165135943Y-103653387D01*
X165159272Y-103659638D01*
X165349748Y-103659638D01*
X165373073Y-103653388D01*
X165397182Y-103651941D01*
X165682897Y-103556703D01*
X165708632Y-103539710D01*
X166440889Y-103539710D01*
X166475613Y-103609159D01*
X166540410Y-103651940D01*
X166617916Y-103656593D01*
X166687365Y-103621869D01*
X166730146Y-103557072D01*
X166886434Y-103088209D01*
X167622587Y-103088209D01*
X167778875Y-103557072D01*
X167821656Y-103621869D01*
X167891105Y-103656593D01*
X167968611Y-103651941D01*
X168033408Y-103609159D01*
X168068132Y-103539710D01*
X168063480Y-103462204D01*
X167952307Y-103128685D01*
X168342606Y-103128685D01*
X168351529Y-103161986D01*
X168358442Y-103195767D01*
X168453680Y-103386243D01*
X168469702Y-103404311D01*
X168481777Y-103425226D01*
X168577016Y-103520466D01*
X168597930Y-103532540D01*
X168616000Y-103548564D01*
X168806476Y-103643802D01*
X168840254Y-103650714D01*
X168873558Y-103659638D01*
X169635463Y-103659638D01*
X169710463Y-103639542D01*
X169765367Y-103584638D01*
X169785463Y-103509638D01*
X169785463Y-101509638D01*
X169765367Y-101434638D01*
X169710463Y-101379734D01*
X169635463Y-101359638D01*
X168968796Y-101359638D01*
X168935492Y-101368561D01*
X168901714Y-101375474D01*
X168711238Y-101470712D01*
X168693168Y-101486735D01*
X168672254Y-101498810D01*
X168577016Y-101594048D01*
X168564940Y-101614963D01*
X168548918Y-101633032D01*
X168453680Y-101823508D01*
X168446767Y-101857288D01*
X168437844Y-101890590D01*
X168437844Y-102081066D01*
X168446767Y-102114367D01*
X168453680Y-102148148D01*
X168548918Y-102338624D01*
X168564940Y-102356692D01*
X168577016Y-102377608D01*
X168622827Y-102423419D01*
X168606878Y-102433949D01*
X168577016Y-102451191D01*
X168481778Y-102546429D01*
X168469702Y-102567344D01*
X168453680Y-102585413D01*
X168358442Y-102775889D01*
X168351529Y-102809669D01*
X168342606Y-102842971D01*
X168342606Y-103128685D01*
X167952307Y-103128685D01*
X167396814Y-101462204D01*
X167380212Y-101437059D01*
X167366741Y-101410118D01*
X167359087Y-101405064D01*
X167354032Y-101397408D01*
X167327081Y-101383932D01*
X167301945Y-101367336D01*
X167292789Y-101366786D01*
X167284583Y-101362683D01*
X167254507Y-101364488D01*
X167224439Y-101362683D01*
X167216234Y-101366785D01*
X167207077Y-101367335D01*
X167181934Y-101383935D01*
X167154990Y-101397408D01*
X167149935Y-101405062D01*
X167142281Y-101410117D01*
X167128808Y-101437061D01*
X167112208Y-101462204D01*
X166445542Y-103462204D01*
X166440889Y-103539710D01*
X165708632Y-103539710D01*
X165711672Y-103537703D01*
X165741529Y-103520466D01*
X165932005Y-103329989D01*
X165944079Y-103309074D01*
X165960103Y-103291005D01*
X166055341Y-103100529D01*
X166058661Y-103084304D01*
X166066698Y-103069827D01*
X166161936Y-102688876D01*
X166161624Y-102670372D01*
X166166415Y-102652495D01*
X166166415Y-102366780D01*
X166161624Y-102348902D01*
X166161936Y-102330399D01*
X166066698Y-101949448D01*
X166058661Y-101934970D01*
X166055341Y-101918746D01*
X165960103Y-101728270D01*
X165944079Y-101710200D01*
X165932005Y-101689286D01*
X165741529Y-101498810D01*
X165711672Y-101481572D01*
X165682897Y-101462573D01*
X165397182Y-101367335D01*
X165373073Y-101365887D01*
X165349748Y-101359638D01*
X165159272Y-101359638D01*
X165135943Y-101365888D01*
X165111838Y-101367336D01*
X164826124Y-101462574D01*
X164797354Y-101481568D01*
X164767492Y-101498810D01*
X164672254Y-101594048D01*
X164633431Y-101661291D01*
X164633431Y-101738937D01*
X164672254Y-101806180D01*
X164739497Y-101845003D01*
X164817143Y-101845003D01*
X164884386Y-101806180D01*
X164954586Y-101735980D01*
X165183612Y-101659638D01*
X165325405Y-101659638D01*
X165554436Y-101735981D01*
X165702661Y-101884206D01*
X165779650Y-102038184D01*
X165866415Y-102385244D01*
X165866415Y-102634031D01*
X165779650Y-102981091D01*
X165702660Y-103135069D01*
X165554436Y-103283294D01*
X165325405Y-103359638D01*
X165183612Y-103359638D01*
X164954586Y-103283296D01*
X164884387Y-103213096D01*
X164817144Y-103174272D01*
X164739498Y-103174272D01*
X164672255Y-103213094D01*
X164633431Y-103280337D01*
X164633431Y-103357983D01*
X164071177Y-103357983D01*
X164071177Y-101509638D01*
X164051081Y-101434638D01*
X163996177Y-101379734D01*
X163921177Y-101359638D01*
X163846177Y-101379734D01*
X163791273Y-101434638D01*
X163771177Y-101509638D01*
X163771177Y-102290363D01*
X162884386Y-101403572D01*
X162817143Y-101364749D01*
X162739497Y-101364749D01*
X162672254Y-101403572D01*
X162633431Y-101470815D01*
X162633431Y-101548461D01*
X162672254Y-101615704D01*
X163437406Y-102380856D01*
X162658320Y-103419638D01*
X162629397Y-103491696D01*
X162343683Y-103491696D01*
X162343683Y-101073924D01*
X170071177Y-101073924D01*
X170071177Y-103945352D01*
G37*
G36*
X137656133Y-101628154D02*
G01*
X137800019Y-101772040D01*
X137880701Y-102094768D01*
X137880701Y-102724507D01*
X137800018Y-103047235D01*
X137656132Y-103191122D01*
X137519101Y-103259638D01*
X137208968Y-103259638D01*
X137071936Y-103191122D01*
X136928050Y-103047235D01*
X136847368Y-102724506D01*
X136847368Y-102094768D01*
X136928050Y-101772039D01*
X137071936Y-101628154D01*
X137208968Y-101559638D01*
X137519101Y-101559638D01*
X137656133Y-101628154D01*
G37*
G36*
X139785463Y-102307257D02*
G01*
X139208968Y-102307257D01*
X139071936Y-102238741D01*
X139011122Y-102177926D01*
X138942606Y-102040894D01*
X138942606Y-101826000D01*
X139011122Y-101688968D01*
X139071936Y-101628154D01*
X139208968Y-101559638D01*
X139785463Y-101559638D01*
X139785463Y-102307257D01*
G37*
G36*
X142085463Y-103845352D02*
G01*
X132452130Y-103845352D01*
X132452130Y-101409638D01*
X132737844Y-101409638D01*
X132757940Y-101484638D01*
X132812844Y-101539542D01*
X132887844Y-101559638D01*
X133309273Y-101559638D01*
X133309273Y-103409638D01*
X133329369Y-103484638D01*
X133384273Y-103539542D01*
X133459273Y-103559638D01*
X133534273Y-103539542D01*
X133589177Y-103484638D01*
X133609273Y-103409638D01*
X134547368Y-103409638D01*
X134547457Y-103409970D01*
X134547369Y-103410306D01*
X134557523Y-103447537D01*
X134567464Y-103484638D01*
X134567707Y-103484881D01*
X134567799Y-103485216D01*
X134595147Y-103512321D01*
X134622368Y-103539542D01*
X134622702Y-103539631D01*
X134622947Y-103539874D01*
X134660162Y-103549668D01*
X134697368Y-103559638D01*
X134697700Y-103559548D01*
X134698036Y-103559637D01*
X134735267Y-103549482D01*
X134772368Y-103539542D01*
X134772611Y-103539298D01*
X134772946Y-103539207D01*
X134800051Y-103511858D01*
X134827272Y-103484638D01*
X134827361Y-103484303D01*
X134827604Y-103484059D01*
X135690225Y-101974472D01*
X135690225Y-103409638D01*
X135710321Y-103484638D01*
X135765225Y-103539542D01*
X135840225Y-103559638D01*
X135915225Y-103539542D01*
X135970129Y-103484638D01*
X135990225Y-103409638D01*
X135990225Y-102742971D01*
X136547368Y-102742971D01*
X136552158Y-102760847D01*
X136551847Y-102779351D01*
X136647085Y-103160303D01*
X136647717Y-103161441D01*
X136647717Y-103162746D01*
X136666529Y-103195329D01*
X136684771Y-103228190D01*
X136685888Y-103228860D01*
X136686540Y-103229989D01*
X136877015Y-103420465D01*
X136897930Y-103432540D01*
X136916000Y-103448564D01*
X137106476Y-103543802D01*
X137140254Y-103550714D01*
X137173558Y-103559638D01*
X137554511Y-103559638D01*
X137587812Y-103550714D01*
X137621593Y-103543802D01*
X137812069Y-103448564D01*
X137830137Y-103432541D01*
X137851053Y-103420466D01*
X138041529Y-103229989D01*
X138042180Y-103228860D01*
X138043298Y-103228190D01*
X138061539Y-103195329D01*
X138080352Y-103162746D01*
X138080352Y-103161441D01*
X138080984Y-103160303D01*
X138176222Y-102779352D01*
X138175910Y-102760848D01*
X138180701Y-102742971D01*
X138180701Y-102076304D01*
X138642606Y-102076304D01*
X138651529Y-102109605D01*
X138658442Y-102143386D01*
X138753680Y-102333862D01*
X138769702Y-102351930D01*
X138781777Y-102372845D01*
X138877016Y-102468085D01*
X138897930Y-102480159D01*
X138916000Y-102496183D01*
X139106476Y-102591421D01*
X139140254Y-102598333D01*
X139171551Y-102606719D01*
X138669721Y-103323619D01*
X138643175Y-103396585D01*
X138656669Y-103473050D01*
X138706587Y-103532523D01*
X138779553Y-103559069D01*
X138856018Y-103545575D01*
X138915491Y-103495657D01*
X139537372Y-102607257D01*
X139785463Y-102607257D01*
X139785463Y-103409638D01*
X139805559Y-103484638D01*
X139860463Y-103539542D01*
X139935463Y-103559638D01*
X140010463Y-103539542D01*
X140065367Y-103484638D01*
X140085463Y-103409638D01*
X140085463Y-101409638D01*
X140547368Y-101409638D01*
X140567464Y-101484638D01*
X140622368Y-101539542D01*
X140697368Y-101559638D01*
X141499749Y-101559638D01*
X141499749Y-102212019D01*
X140983082Y-102212019D01*
X140908082Y-102232115D01*
X140853178Y-102287019D01*
X140833082Y-102362019D01*
X140853178Y-102437019D01*
X140908082Y-102491923D01*
X140983082Y-102512019D01*
X141499749Y-102512019D01*
X141499749Y-103409638D01*
X141519845Y-103484638D01*
X141574749Y-103539542D01*
X141649749Y-103559638D01*
X141724749Y-103539542D01*
X141779653Y-103484638D01*
X141799749Y-103409638D01*
X141799749Y-101409638D01*
X141779653Y-101334638D01*
X141724749Y-101279734D01*
X141649749Y-101259638D01*
X140697368Y-101259638D01*
X140622368Y-101279734D01*
X140567464Y-101334638D01*
X140547368Y-101409638D01*
X140085463Y-101409638D01*
X140065367Y-101334638D01*
X140010463Y-101279734D01*
X139935463Y-101259638D01*
X139173558Y-101259638D01*
X139140254Y-101268561D01*
X139106476Y-101275474D01*
X138916000Y-101370712D01*
X138897930Y-101386735D01*
X138877016Y-101398810D01*
X138781778Y-101494048D01*
X138769702Y-101514963D01*
X138753680Y-101533032D01*
X138658442Y-101723508D01*
X138651529Y-101757288D01*
X138642606Y-101790590D01*
X138642606Y-102076304D01*
X138180701Y-102076304D01*
X138175910Y-102058426D01*
X138176222Y-102039923D01*
X138080984Y-101658972D01*
X138080352Y-101657833D01*
X138080352Y-101656529D01*
X138061539Y-101623945D01*
X138043298Y-101591085D01*
X138042180Y-101590414D01*
X138041529Y-101589286D01*
X137851053Y-101398810D01*
X137830137Y-101386734D01*
X137812069Y-101370712D01*
X137621593Y-101275474D01*
X137587812Y-101268561D01*
X137554511Y-101259638D01*
X137173558Y-101259638D01*
X137140254Y-101268561D01*
X137106476Y-101275474D01*
X136916000Y-101370712D01*
X136897930Y-101386735D01*
X136877016Y-101398810D01*
X136686540Y-101589286D01*
X136685888Y-101590414D01*
X136684771Y-101591085D01*
X136666529Y-101623945D01*
X136647717Y-101656529D01*
X136647717Y-101657833D01*
X136647085Y-101658972D01*
X136551847Y-102039924D01*
X136552158Y-102058427D01*
X136547368Y-102076304D01*
X136547368Y-102742971D01*
X135990225Y-102742971D01*
X135990225Y-101409638D01*
X135990135Y-101409305D01*
X135990224Y-101408970D01*
X135980069Y-101371738D01*
X135970129Y-101334638D01*
X135969885Y-101334394D01*
X135969794Y-101334060D01*
X135942445Y-101306954D01*
X135915225Y-101279734D01*
X135914890Y-101279644D01*
X135914646Y-101279402D01*
X135877430Y-101269607D01*
X135840225Y-101259638D01*
X135839892Y-101259727D01*
X135839557Y-101259639D01*
X135802325Y-101269793D01*
X135765225Y-101279734D01*
X135764981Y-101279977D01*
X135764647Y-101280069D01*
X135737485Y-101307473D01*
X135710321Y-101334638D01*
X135710231Y-101334971D01*
X135709988Y-101335217D01*
X134847368Y-102844803D01*
X134847368Y-101409638D01*
X134827272Y-101334638D01*
X134772368Y-101279734D01*
X134697368Y-101259638D01*
X134622368Y-101279734D01*
X134567464Y-101334638D01*
X134547368Y-101409638D01*
X134547368Y-103409638D01*
X133609273Y-103409638D01*
X133609273Y-101559638D01*
X134030701Y-101559638D01*
X134105701Y-101539542D01*
X134160605Y-101484638D01*
X134180701Y-101409638D01*
X134160605Y-101334638D01*
X134105701Y-101279734D01*
X134030701Y-101259638D01*
X132887844Y-101259638D01*
X132812844Y-101279734D01*
X132757940Y-101334638D01*
X132737844Y-101409638D01*
X132452130Y-101409638D01*
X132452130Y-100973924D01*
X142085463Y-100973924D01*
X142085463Y-103845352D01*
G37*
D10*
X158514285Y-89354819D02*
X159085713Y-89354819D01*
X158799999Y-89354819D02*
X158799999Y-88354819D01*
X158799999Y-88354819D02*
X158895237Y-88497676D01*
X158895237Y-88497676D02*
X158990475Y-88592914D01*
X158990475Y-88592914D02*
X159085713Y-88640533D01*
X96373792Y-126184819D02*
X96707125Y-125708628D01*
X96945220Y-126184819D02*
X96945220Y-125184819D01*
X96945220Y-125184819D02*
X96564268Y-125184819D01*
X96564268Y-125184819D02*
X96469030Y-125232438D01*
X96469030Y-125232438D02*
X96421411Y-125280057D01*
X96421411Y-125280057D02*
X96373792Y-125375295D01*
X96373792Y-125375295D02*
X96373792Y-125518152D01*
X96373792Y-125518152D02*
X96421411Y-125613390D01*
X96421411Y-125613390D02*
X96469030Y-125661009D01*
X96469030Y-125661009D02*
X96564268Y-125708628D01*
X96564268Y-125708628D02*
X96945220Y-125708628D01*
X96040458Y-125184819D02*
X95373792Y-126184819D01*
X95373792Y-125184819D02*
X96040458Y-126184819D01*
X119063220Y-131388866D02*
X118301316Y-131388866D01*
X118682268Y-131769819D02*
X118682268Y-131007914D01*
D11*
G36*
X125280701Y-93707257D02*
G01*
X124704206Y-93707257D01*
X124567174Y-93638741D01*
X124506360Y-93577926D01*
X124437844Y-93440894D01*
X124437844Y-93226000D01*
X124506360Y-93088968D01*
X124567174Y-93028154D01*
X124704206Y-92959638D01*
X125280701Y-92959638D01*
X125280701Y-93707257D01*
G37*
G36*
X127151370Y-93790057D02*
G01*
X127212184Y-93850872D01*
X127280701Y-93987905D01*
X127280701Y-94393275D01*
X127212184Y-94530307D01*
X127151370Y-94591122D01*
X127014339Y-94659638D01*
X126704206Y-94659638D01*
X126567174Y-94591122D01*
X126506360Y-94530307D01*
X126437844Y-94393275D01*
X126437844Y-93987905D01*
X126506360Y-93850872D01*
X126567174Y-93790057D01*
X126704206Y-93721542D01*
X127014339Y-93721542D01*
X127151370Y-93790057D01*
G37*
G36*
X142914035Y-95245352D02*
G01*
X122042606Y-95245352D01*
X122042606Y-94809638D01*
X122328320Y-94809638D01*
X122348416Y-94884638D01*
X122403320Y-94939542D01*
X122478320Y-94959638D01*
X123430701Y-94959638D01*
X123505701Y-94939542D01*
X123560605Y-94884638D01*
X123580701Y-94809638D01*
X123580701Y-93476304D01*
X124137844Y-93476304D01*
X124146767Y-93509605D01*
X124153680Y-93543386D01*
X124248918Y-93733862D01*
X124264940Y-93751930D01*
X124277015Y-93772845D01*
X124372254Y-93868085D01*
X124393168Y-93880159D01*
X124411238Y-93896183D01*
X124601714Y-93991421D01*
X124635492Y-93998333D01*
X124666789Y-94006719D01*
X124164959Y-94723619D01*
X124138413Y-94796585D01*
X124151907Y-94873050D01*
X124201825Y-94932523D01*
X124274791Y-94959069D01*
X124351256Y-94945575D01*
X124410729Y-94895657D01*
X125032610Y-94007257D01*
X125280701Y-94007257D01*
X125280701Y-94809638D01*
X125300797Y-94884638D01*
X125355701Y-94939542D01*
X125430701Y-94959638D01*
X125505701Y-94939542D01*
X125560605Y-94884638D01*
X125580701Y-94809638D01*
X125580701Y-94428685D01*
X126137844Y-94428685D01*
X126146767Y-94461986D01*
X126153680Y-94495767D01*
X126248918Y-94686243D01*
X126264940Y-94704311D01*
X126277015Y-94725226D01*
X126372254Y-94820466D01*
X126393168Y-94832540D01*
X126411238Y-94848564D01*
X126601714Y-94943802D01*
X126635492Y-94950714D01*
X126668796Y-94959638D01*
X127049749Y-94959638D01*
X127083050Y-94950714D01*
X127116831Y-94943802D01*
X127307307Y-94848564D01*
X127325375Y-94832541D01*
X127346292Y-94820465D01*
X127441530Y-94725226D01*
X127453605Y-94704311D01*
X127469627Y-94686243D01*
X127564865Y-94495767D01*
X127571777Y-94461988D01*
X127580701Y-94428685D01*
X127580701Y-94142971D01*
X127947368Y-94142971D01*
X127967464Y-94217971D01*
X128022368Y-94272875D01*
X128097368Y-94292971D01*
X128233082Y-94292971D01*
X128233082Y-94809638D01*
X128253178Y-94884638D01*
X128308082Y-94939542D01*
X128383082Y-94959638D01*
X128458082Y-94939542D01*
X128512986Y-94884638D01*
X128533082Y-94809638D01*
X128533082Y-94292971D01*
X129335463Y-94292971D01*
X129358788Y-94286721D01*
X129382897Y-94285274D01*
X129395674Y-94276837D01*
X129410463Y-94272875D01*
X129427539Y-94255798D01*
X129447693Y-94242492D01*
X129454540Y-94228797D01*
X129465367Y-94217971D01*
X129471617Y-94194643D01*
X129482418Y-94173043D01*
X129481500Y-94157758D01*
X129485463Y-94142971D01*
X129852130Y-94142971D01*
X129872226Y-94217971D01*
X129927130Y-94272875D01*
X130002130Y-94292971D01*
X130137844Y-94292971D01*
X130137844Y-94809638D01*
X130157940Y-94884638D01*
X130212844Y-94939542D01*
X130287844Y-94959638D01*
X130362844Y-94939542D01*
X130417748Y-94884638D01*
X130437844Y-94809638D01*
X130437844Y-94292971D01*
X131240225Y-94292971D01*
X131263550Y-94286721D01*
X131287659Y-94285274D01*
X131300436Y-94276837D01*
X131315225Y-94272875D01*
X131332301Y-94255798D01*
X131352455Y-94242492D01*
X131359302Y-94228797D01*
X131370129Y-94217971D01*
X131376379Y-94194643D01*
X131387180Y-94173043D01*
X131386262Y-94157758D01*
X131390225Y-94142971D01*
X131383975Y-94119645D01*
X131382528Y-94095537D01*
X130953895Y-92809638D01*
X131756892Y-92809638D01*
X131776988Y-92884638D01*
X131831892Y-92939542D01*
X131906892Y-92959638D01*
X132709273Y-92959638D01*
X132709273Y-93612019D01*
X132192606Y-93612019D01*
X132117606Y-93632115D01*
X132062702Y-93687019D01*
X132042606Y-93762019D01*
X132062702Y-93837019D01*
X132117606Y-93891923D01*
X132192606Y-93912019D01*
X132709273Y-93912019D01*
X132709273Y-94809638D01*
X132729369Y-94884638D01*
X132784273Y-94939542D01*
X132859273Y-94959638D01*
X132934273Y-94939542D01*
X132989177Y-94884638D01*
X133009273Y-94809638D01*
X133566416Y-94809638D01*
X133586512Y-94884638D01*
X133641416Y-94939542D01*
X133716416Y-94959638D01*
X134954511Y-94959638D01*
X134973586Y-94954527D01*
X134993334Y-94954527D01*
X135010436Y-94944653D01*
X135029511Y-94939542D01*
X135043475Y-94925577D01*
X135060577Y-94915704D01*
X135070450Y-94898602D01*
X135084415Y-94884638D01*
X135089526Y-94865563D01*
X135099400Y-94848461D01*
X135099400Y-94828712D01*
X135104511Y-94809638D01*
X135099400Y-94790563D01*
X135099400Y-94770815D01*
X135089526Y-94753712D01*
X135084415Y-94734638D01*
X135070450Y-94720673D01*
X135060577Y-94703572D01*
X134785690Y-94428685D01*
X135471178Y-94428685D01*
X135480101Y-94461986D01*
X135487014Y-94495767D01*
X135582252Y-94686243D01*
X135598274Y-94704311D01*
X135610349Y-94725226D01*
X135705588Y-94820466D01*
X135726502Y-94832540D01*
X135744572Y-94848564D01*
X135935048Y-94943802D01*
X135968826Y-94950714D01*
X136002130Y-94959638D01*
X136573559Y-94959638D01*
X136606860Y-94950714D01*
X136640641Y-94943802D01*
X136831117Y-94848564D01*
X136849185Y-94832541D01*
X136870102Y-94820465D01*
X136880929Y-94809638D01*
X137471178Y-94809638D01*
X137491274Y-94884638D01*
X137546178Y-94939542D01*
X137621178Y-94959638D01*
X137696178Y-94939542D01*
X137751082Y-94884638D01*
X137771178Y-94809638D01*
X137771178Y-93485772D01*
X138151916Y-94301641D01*
X138160424Y-94311775D01*
X138164946Y-94324209D01*
X138185001Y-94341047D01*
X138201843Y-94361107D01*
X138214278Y-94365629D01*
X138224411Y-94374136D01*
X138250200Y-94378691D01*
X138274815Y-94387642D01*
X138287844Y-94385340D01*
X138300873Y-94387642D01*
X138325486Y-94378691D01*
X138351277Y-94374136D01*
X138361409Y-94365628D01*
X138373844Y-94361107D01*
X138390684Y-94341049D01*
X138410742Y-94324209D01*
X138415263Y-94311774D01*
X138423771Y-94301642D01*
X138804511Y-93485772D01*
X138804511Y-94809638D01*
X138824607Y-94884638D01*
X138879511Y-94939542D01*
X138954511Y-94959638D01*
X139029511Y-94939542D01*
X139084415Y-94884638D01*
X139104511Y-94809638D01*
X139104511Y-92809638D01*
X139471178Y-92809638D01*
X139491274Y-92884638D01*
X139546178Y-92939542D01*
X139621178Y-92959638D01*
X140042607Y-92959638D01*
X140042607Y-94809638D01*
X140062703Y-94884638D01*
X140117607Y-94939542D01*
X140192607Y-94959638D01*
X140267607Y-94939542D01*
X140322511Y-94884638D01*
X140342607Y-94809638D01*
X140342607Y-94428685D01*
X141185464Y-94428685D01*
X141194387Y-94461986D01*
X141201300Y-94495767D01*
X141296538Y-94686243D01*
X141312560Y-94704311D01*
X141324635Y-94725226D01*
X141419874Y-94820466D01*
X141440788Y-94832540D01*
X141458858Y-94848564D01*
X141649334Y-94943802D01*
X141683112Y-94950714D01*
X141716416Y-94959638D01*
X142192607Y-94959638D01*
X142215935Y-94953387D01*
X142240041Y-94951940D01*
X142525755Y-94856702D01*
X142590551Y-94813921D01*
X142625276Y-94744472D01*
X142620623Y-94666966D01*
X142577842Y-94602170D01*
X142508393Y-94567445D01*
X142430887Y-94572098D01*
X142168267Y-94659638D01*
X141751826Y-94659638D01*
X141614794Y-94591122D01*
X141553980Y-94530307D01*
X141485464Y-94393275D01*
X141485464Y-94273619D01*
X141553980Y-94136587D01*
X141614794Y-94075773D01*
X141768771Y-93998784D01*
X142133749Y-93907540D01*
X142148225Y-93899503D01*
X142164452Y-93896183D01*
X142354928Y-93800944D01*
X142372997Y-93784920D01*
X142393911Y-93772846D01*
X142489149Y-93677608D01*
X142501223Y-93656693D01*
X142517247Y-93638624D01*
X142612485Y-93448148D01*
X142619397Y-93414369D01*
X142628321Y-93381066D01*
X142628321Y-93190590D01*
X142619397Y-93157286D01*
X142612485Y-93123508D01*
X142517247Y-92933032D01*
X142501223Y-92914962D01*
X142489149Y-92894048D01*
X142393911Y-92798810D01*
X142372995Y-92786734D01*
X142354927Y-92770712D01*
X142164451Y-92675474D01*
X142130670Y-92668561D01*
X142097369Y-92659638D01*
X141621178Y-92659638D01*
X141597849Y-92665888D01*
X141573744Y-92667336D01*
X141288030Y-92762574D01*
X141223234Y-92805355D01*
X141188509Y-92874804D01*
X141193162Y-92952310D01*
X141235943Y-93017106D01*
X141305392Y-93051831D01*
X141382898Y-93047178D01*
X141645518Y-92959638D01*
X142061959Y-92959638D01*
X142198991Y-93028154D01*
X142259805Y-93088968D01*
X142328321Y-93226000D01*
X142328321Y-93345656D01*
X142259805Y-93482688D01*
X142198991Y-93543501D01*
X142045011Y-93620492D01*
X141680036Y-93711736D01*
X141665558Y-93719772D01*
X141649334Y-93723093D01*
X141458858Y-93818331D01*
X141440788Y-93834354D01*
X141419874Y-93846429D01*
X141324636Y-93941667D01*
X141312560Y-93962582D01*
X141296538Y-93980651D01*
X141201300Y-94171127D01*
X141194387Y-94204907D01*
X141185464Y-94238209D01*
X141185464Y-94428685D01*
X140342607Y-94428685D01*
X140342607Y-92959638D01*
X140764035Y-92959638D01*
X140839035Y-92939542D01*
X140893939Y-92884638D01*
X140914035Y-92809638D01*
X140893939Y-92734638D01*
X140839035Y-92679734D01*
X140764035Y-92659638D01*
X139621178Y-92659638D01*
X139546178Y-92679734D01*
X139491274Y-92734638D01*
X139471178Y-92809638D01*
X139104511Y-92809638D01*
X139102782Y-92803186D01*
X139103944Y-92796609D01*
X139092831Y-92766049D01*
X139084415Y-92734638D01*
X139079691Y-92729914D01*
X139077409Y-92723637D01*
X139052502Y-92702725D01*
X139029511Y-92679734D01*
X139023060Y-92678005D01*
X139017944Y-92673710D01*
X138985918Y-92668053D01*
X138954511Y-92659638D01*
X138948059Y-92661366D01*
X138941482Y-92660205D01*
X138910920Y-92671318D01*
X138879511Y-92679734D01*
X138874788Y-92684456D01*
X138868511Y-92686739D01*
X138847601Y-92711643D01*
X138824607Y-92734638D01*
X138822878Y-92741090D01*
X138818584Y-92746205D01*
X138287844Y-93883503D01*
X137757105Y-92746205D01*
X137752810Y-92741090D01*
X137751082Y-92734638D01*
X137728084Y-92711640D01*
X137707178Y-92686740D01*
X137700901Y-92684457D01*
X137696178Y-92679734D01*
X137664764Y-92671316D01*
X137634207Y-92660205D01*
X137627629Y-92661366D01*
X137621178Y-92659638D01*
X137589764Y-92668055D01*
X137557745Y-92673711D01*
X137552630Y-92678005D01*
X137546178Y-92679734D01*
X137523180Y-92702731D01*
X137498280Y-92723638D01*
X137495997Y-92729914D01*
X137491274Y-92734638D01*
X137482856Y-92766051D01*
X137471745Y-92796609D01*
X137472906Y-92803186D01*
X137471178Y-92809638D01*
X137471178Y-94809638D01*
X136880929Y-94809638D01*
X136965340Y-94725226D01*
X137004163Y-94657983D01*
X137004162Y-94580337D01*
X136965339Y-94513094D01*
X136898096Y-94474271D01*
X136820450Y-94474272D01*
X136753207Y-94513095D01*
X136675180Y-94591122D01*
X136538149Y-94659638D01*
X136037540Y-94659638D01*
X135900508Y-94591122D01*
X135839694Y-94530307D01*
X135771178Y-94393275D01*
X135771178Y-93987905D01*
X135839694Y-93850872D01*
X135900508Y-93790057D01*
X136037540Y-93721542D01*
X136287845Y-93721542D01*
X136302159Y-93717706D01*
X136316944Y-93718692D01*
X136339046Y-93707822D01*
X136362845Y-93701446D01*
X136373325Y-93690965D01*
X136386620Y-93684428D01*
X136400326Y-93663964D01*
X136417749Y-93646542D01*
X136421585Y-93632225D01*
X136429830Y-93619916D01*
X136431468Y-93595339D01*
X136437845Y-93571542D01*
X136434009Y-93557226D01*
X136434995Y-93542442D01*
X136424125Y-93520337D01*
X136417749Y-93496542D01*
X136407269Y-93486062D01*
X136400731Y-93472766D01*
X135951743Y-92959638D01*
X136859273Y-92959638D01*
X136934273Y-92939542D01*
X136989177Y-92884638D01*
X137009273Y-92809638D01*
X136989177Y-92734638D01*
X136934273Y-92679734D01*
X136859273Y-92659638D01*
X135621178Y-92659638D01*
X135606866Y-92663472D01*
X135592079Y-92662487D01*
X135569972Y-92673358D01*
X135546178Y-92679734D01*
X135535699Y-92690212D01*
X135522402Y-92696752D01*
X135508693Y-92717218D01*
X135491274Y-92734638D01*
X135487439Y-92748950D01*
X135479192Y-92761263D01*
X135477553Y-92785845D01*
X135471178Y-92809638D01*
X135475012Y-92823949D01*
X135474027Y-92838737D01*
X135484898Y-92860843D01*
X135491274Y-92884638D01*
X135501752Y-92895116D01*
X135508292Y-92908414D01*
X135965655Y-93431114D01*
X135935048Y-93437378D01*
X135744572Y-93532616D01*
X135726502Y-93548639D01*
X135705588Y-93560714D01*
X135610349Y-93655954D01*
X135598274Y-93676868D01*
X135582252Y-93694937D01*
X135487014Y-93885413D01*
X135480101Y-93919193D01*
X135471178Y-93952495D01*
X135471178Y-94428685D01*
X134785690Y-94428685D01*
X133942758Y-93585752D01*
X133866416Y-93356726D01*
X133866416Y-93226000D01*
X133934932Y-93088968D01*
X133995746Y-93028154D01*
X134132778Y-92959638D01*
X134538149Y-92959638D01*
X134675181Y-93028154D01*
X134753207Y-93106180D01*
X134820450Y-93145003D01*
X134898096Y-93145003D01*
X134965339Y-93106180D01*
X135004162Y-93038937D01*
X135004162Y-92961291D01*
X134965339Y-92894048D01*
X134870101Y-92798810D01*
X134849185Y-92786734D01*
X134831117Y-92770712D01*
X134640641Y-92675474D01*
X134606860Y-92668561D01*
X134573559Y-92659638D01*
X134097368Y-92659638D01*
X134064064Y-92668561D01*
X134030286Y-92675474D01*
X133839810Y-92770712D01*
X133821740Y-92786735D01*
X133800826Y-92798810D01*
X133705588Y-92894048D01*
X133693512Y-92914963D01*
X133677490Y-92933032D01*
X133582252Y-93123508D01*
X133575339Y-93157288D01*
X133566416Y-93190590D01*
X133566416Y-93381066D01*
X133572666Y-93404394D01*
X133574114Y-93428500D01*
X133669352Y-93714214D01*
X133688346Y-93742983D01*
X133705588Y-93772846D01*
X134592379Y-94659638D01*
X133716416Y-94659638D01*
X133641416Y-94679734D01*
X133586512Y-94734638D01*
X133566416Y-94809638D01*
X133009273Y-94809638D01*
X133009273Y-92809638D01*
X132989177Y-92734638D01*
X132934273Y-92679734D01*
X132859273Y-92659638D01*
X131906892Y-92659638D01*
X131831892Y-92679734D01*
X131776988Y-92734638D01*
X131756892Y-92809638D01*
X130953895Y-92809638D01*
X130906338Y-92666966D01*
X130863556Y-92602170D01*
X130794107Y-92567445D01*
X130716601Y-92572097D01*
X130651805Y-92614879D01*
X130617080Y-92684328D01*
X130621732Y-92761834D01*
X131032112Y-93992971D01*
X130437844Y-93992971D01*
X130437844Y-93476304D01*
X130417748Y-93401304D01*
X130362844Y-93346400D01*
X130287844Y-93326304D01*
X130212844Y-93346400D01*
X130157940Y-93401304D01*
X130137844Y-93476304D01*
X130137844Y-93992971D01*
X130002130Y-93992971D01*
X129927130Y-94013067D01*
X129872226Y-94067971D01*
X129852130Y-94142971D01*
X129485463Y-94142971D01*
X129479213Y-94119645D01*
X129477766Y-94095537D01*
X129001576Y-92666966D01*
X128958794Y-92602170D01*
X128889345Y-92567445D01*
X128811839Y-92572097D01*
X128747043Y-92614879D01*
X128712318Y-92684328D01*
X128716970Y-92761834D01*
X129127350Y-93992971D01*
X128533082Y-93992971D01*
X128533082Y-93476304D01*
X128512986Y-93401304D01*
X128458082Y-93346400D01*
X128383082Y-93326304D01*
X128308082Y-93346400D01*
X128253178Y-93401304D01*
X128233082Y-93476304D01*
X128233082Y-93992971D01*
X128097368Y-93992971D01*
X128022368Y-94013067D01*
X127967464Y-94067971D01*
X127947368Y-94142971D01*
X127580701Y-94142971D01*
X127580701Y-93666780D01*
X127575910Y-93648902D01*
X127576222Y-93630399D01*
X127480984Y-93249448D01*
X127468507Y-93226973D01*
X127460270Y-93202623D01*
X127269795Y-92916909D01*
X127258542Y-92907019D01*
X127251053Y-92894048D01*
X127155815Y-92798810D01*
X127134899Y-92786734D01*
X127116831Y-92770712D01*
X126926355Y-92675474D01*
X126892574Y-92668561D01*
X126859273Y-92659638D01*
X126478320Y-92659638D01*
X126403320Y-92679734D01*
X126348416Y-92734638D01*
X126328320Y-92809638D01*
X126348416Y-92884638D01*
X126403320Y-92939542D01*
X126478320Y-92959638D01*
X126823863Y-92959638D01*
X126960895Y-93028154D01*
X127028417Y-93095676D01*
X127196244Y-93347416D01*
X127233292Y-93495608D01*
X127116831Y-93437378D01*
X127083050Y-93430465D01*
X127049749Y-93421542D01*
X126668796Y-93421542D01*
X126635492Y-93430465D01*
X126601714Y-93437378D01*
X126411238Y-93532616D01*
X126393168Y-93548639D01*
X126372254Y-93560714D01*
X126277015Y-93655954D01*
X126264940Y-93676868D01*
X126248918Y-93694937D01*
X126153680Y-93885413D01*
X126146767Y-93919193D01*
X126137844Y-93952495D01*
X126137844Y-94428685D01*
X125580701Y-94428685D01*
X125580701Y-92809638D01*
X125560605Y-92734638D01*
X125505701Y-92679734D01*
X125430701Y-92659638D01*
X124668796Y-92659638D01*
X124635492Y-92668561D01*
X124601714Y-92675474D01*
X124411238Y-92770712D01*
X124393168Y-92786735D01*
X124372254Y-92798810D01*
X124277016Y-92894048D01*
X124264940Y-92914963D01*
X124248918Y-92933032D01*
X124153680Y-93123508D01*
X124146767Y-93157288D01*
X124137844Y-93190590D01*
X124137844Y-93476304D01*
X123580701Y-93476304D01*
X123580701Y-92809638D01*
X123560605Y-92734638D01*
X123505701Y-92679734D01*
X123430701Y-92659638D01*
X122478320Y-92659638D01*
X122403320Y-92679734D01*
X122348416Y-92734638D01*
X122328320Y-92809638D01*
X122348416Y-92884638D01*
X122403320Y-92939542D01*
X122478320Y-92959638D01*
X123280701Y-92959638D01*
X123280701Y-93612019D01*
X122764034Y-93612019D01*
X122689034Y-93632115D01*
X122634130Y-93687019D01*
X122614034Y-93762019D01*
X122634130Y-93837019D01*
X122689034Y-93891923D01*
X122764034Y-93912019D01*
X123280701Y-93912019D01*
X123280701Y-94659638D01*
X122478320Y-94659638D01*
X122403320Y-94679734D01*
X122348416Y-94734638D01*
X122328320Y-94809638D01*
X122042606Y-94809638D01*
X122042606Y-92281731D01*
X142914035Y-92281731D01*
X142914035Y-95245352D01*
G37*
D10*
X97088077Y-122644819D02*
X96516649Y-122644819D01*
X96802363Y-123644819D02*
X96802363Y-122644819D01*
X96278553Y-122644819D02*
X95611887Y-123644819D01*
X95611887Y-122644819D02*
X96278553Y-123644819D01*
D11*
X151891809Y-66060876D02*
X152082285Y-65965638D01*
X152082285Y-65965638D02*
X152367999Y-65965638D01*
X152367999Y-65965638D02*
X152653714Y-66060876D01*
X152653714Y-66060876D02*
X152844190Y-66251352D01*
X152844190Y-66251352D02*
X152939428Y-66441828D01*
X152939428Y-66441828D02*
X153034666Y-66822780D01*
X153034666Y-66822780D02*
X153034666Y-67108495D01*
X153034666Y-67108495D02*
X152939428Y-67489447D01*
X152939428Y-67489447D02*
X152844190Y-67679923D01*
X152844190Y-67679923D02*
X152653714Y-67870400D01*
X152653714Y-67870400D02*
X152367999Y-67965638D01*
X152367999Y-67965638D02*
X152177523Y-67965638D01*
X152177523Y-67965638D02*
X151891809Y-67870400D01*
X151891809Y-67870400D02*
X151796571Y-67775161D01*
X151796571Y-67775161D02*
X151796571Y-67108495D01*
X151796571Y-67108495D02*
X152177523Y-67108495D01*
X150939428Y-67965638D02*
X150939428Y-65965638D01*
X150939428Y-65965638D02*
X149796571Y-67965638D01*
X149796571Y-67965638D02*
X149796571Y-65965638D01*
X148844190Y-67965638D02*
X148844190Y-65965638D01*
X148844190Y-65965638D02*
X148368000Y-65965638D01*
X148368000Y-65965638D02*
X148082285Y-66060876D01*
X148082285Y-66060876D02*
X147891809Y-66251352D01*
X147891809Y-66251352D02*
X147796571Y-66441828D01*
X147796571Y-66441828D02*
X147701333Y-66822780D01*
X147701333Y-66822780D02*
X147701333Y-67108495D01*
X147701333Y-67108495D02*
X147796571Y-67489447D01*
X147796571Y-67489447D02*
X147891809Y-67679923D01*
X147891809Y-67679923D02*
X148082285Y-67870400D01*
X148082285Y-67870400D02*
X148368000Y-67965638D01*
X148368000Y-67965638D02*
X148844190Y-67965638D01*
G36*
X112741959Y-106441002D02*
G01*
X112885845Y-106584888D01*
X112954361Y-106721920D01*
X112954361Y-107032053D01*
X112885845Y-107169085D01*
X112741959Y-107312970D01*
X112419231Y-107393653D01*
X111789492Y-107393653D01*
X111466764Y-107312971D01*
X111322878Y-107169085D01*
X111254361Y-107032051D01*
X111254361Y-106721921D01*
X111322878Y-106584887D01*
X111466764Y-106441002D01*
X111789492Y-106360320D01*
X112419231Y-106360320D01*
X112741959Y-106441002D01*
G37*
G36*
X112825031Y-104428836D02*
G01*
X112885845Y-104489650D01*
X112954361Y-104626682D01*
X112954361Y-105203177D01*
X112206742Y-105203177D01*
X112206742Y-104626682D01*
X112275257Y-104489650D01*
X112336072Y-104428836D01*
X112473105Y-104360320D01*
X112687999Y-104360320D01*
X112825031Y-104428836D01*
G37*
G36*
X113540075Y-109693653D02*
G01*
X110668647Y-109693653D01*
X110668647Y-108686511D01*
X110954361Y-108686511D01*
X110974457Y-108761511D01*
X111029361Y-108816415D01*
X111104361Y-108836511D01*
X112954361Y-108836511D01*
X112954361Y-109257939D01*
X112974457Y-109332939D01*
X113029361Y-109387843D01*
X113104361Y-109407939D01*
X113179361Y-109387843D01*
X113234265Y-109332939D01*
X113254361Y-109257939D01*
X113254361Y-108115082D01*
X113234265Y-108040082D01*
X113179361Y-107985178D01*
X113104361Y-107965082D01*
X113029361Y-107985178D01*
X112974457Y-108040082D01*
X112954361Y-108115082D01*
X112954361Y-108536511D01*
X111104361Y-108536511D01*
X111029361Y-108556607D01*
X110974457Y-108611511D01*
X110954361Y-108686511D01*
X110668647Y-108686511D01*
X110668647Y-107067463D01*
X110954361Y-107067463D01*
X110963283Y-107100763D01*
X110970197Y-107134546D01*
X111065436Y-107325022D01*
X111081459Y-107343091D01*
X111093534Y-107364005D01*
X111284010Y-107554481D01*
X111285138Y-107555132D01*
X111285809Y-107556250D01*
X111318669Y-107574491D01*
X111351253Y-107593304D01*
X111352558Y-107593304D01*
X111353696Y-107593936D01*
X111734647Y-107689174D01*
X111753150Y-107688862D01*
X111771028Y-107693653D01*
X112437695Y-107693653D01*
X112455571Y-107688862D01*
X112474075Y-107689174D01*
X112855027Y-107593936D01*
X112856165Y-107593304D01*
X112857470Y-107593304D01*
X112890053Y-107574491D01*
X112922914Y-107556250D01*
X112923584Y-107555132D01*
X112924713Y-107554481D01*
X113115189Y-107364005D01*
X113127263Y-107343090D01*
X113143287Y-107325021D01*
X113238525Y-107134545D01*
X113245437Y-107100766D01*
X113254361Y-107067463D01*
X113254361Y-106686510D01*
X113245437Y-106653206D01*
X113238525Y-106619428D01*
X113143287Y-106428952D01*
X113127263Y-106410882D01*
X113115189Y-106389968D01*
X112924713Y-106199492D01*
X112923584Y-106198840D01*
X112922914Y-106197723D01*
X112890053Y-106179481D01*
X112857470Y-106160669D01*
X112856165Y-106160669D01*
X112855027Y-106160037D01*
X112474075Y-106064799D01*
X112455571Y-106065110D01*
X112437695Y-106060320D01*
X111771028Y-106060320D01*
X111753150Y-106065110D01*
X111734647Y-106064799D01*
X111353696Y-106160037D01*
X111352558Y-106160669D01*
X111351253Y-106160669D01*
X111318669Y-106179481D01*
X111285809Y-106197723D01*
X111285138Y-106198840D01*
X111284010Y-106199492D01*
X111093534Y-106389968D01*
X111081459Y-106410881D01*
X111065436Y-106428951D01*
X110970197Y-106619427D01*
X110963283Y-106653209D01*
X110954361Y-106686510D01*
X110954361Y-107067463D01*
X110668647Y-107067463D01*
X110668647Y-105353177D01*
X110954361Y-105353177D01*
X110974457Y-105428177D01*
X111029361Y-105483081D01*
X111104361Y-105503177D01*
X112056742Y-105503177D01*
X113104361Y-105503177D01*
X113179361Y-105483081D01*
X113234265Y-105428177D01*
X113254361Y-105353177D01*
X113254361Y-104591272D01*
X113245437Y-104557968D01*
X113238525Y-104524190D01*
X113143287Y-104333714D01*
X113127263Y-104315644D01*
X113115189Y-104294730D01*
X113019951Y-104199492D01*
X112999035Y-104187416D01*
X112980967Y-104171394D01*
X112790491Y-104076156D01*
X112756710Y-104069243D01*
X112723409Y-104060320D01*
X112437695Y-104060320D01*
X112404391Y-104069243D01*
X112370613Y-104076156D01*
X112180137Y-104171394D01*
X112162068Y-104187415D01*
X112141154Y-104199491D01*
X112045915Y-104294729D01*
X112033838Y-104315645D01*
X112017816Y-104333714D01*
X111922578Y-104524190D01*
X111915665Y-104557970D01*
X111906742Y-104591272D01*
X111906742Y-105203177D01*
X111104361Y-105203177D01*
X111029361Y-105223273D01*
X110974457Y-105278177D01*
X110954361Y-105353177D01*
X110668647Y-105353177D01*
X110668647Y-103774606D01*
X113540075Y-103774606D01*
X113540075Y-109693653D01*
G37*
D10*
X109572398Y-102499438D02*
X109667636Y-102451819D01*
X109667636Y-102451819D02*
X109810493Y-102451819D01*
X109810493Y-102451819D02*
X109953350Y-102499438D01*
X109953350Y-102499438D02*
X110048588Y-102594676D01*
X110048588Y-102594676D02*
X110096207Y-102689914D01*
X110096207Y-102689914D02*
X110143826Y-102880390D01*
X110143826Y-102880390D02*
X110143826Y-103023247D01*
X110143826Y-103023247D02*
X110096207Y-103213723D01*
X110096207Y-103213723D02*
X110048588Y-103308961D01*
X110048588Y-103308961D02*
X109953350Y-103404200D01*
X109953350Y-103404200D02*
X109810493Y-103451819D01*
X109810493Y-103451819D02*
X109715255Y-103451819D01*
X109715255Y-103451819D02*
X109572398Y-103404200D01*
X109572398Y-103404200D02*
X109524779Y-103356580D01*
X109524779Y-103356580D02*
X109524779Y-103023247D01*
X109524779Y-103023247D02*
X109715255Y-103023247D01*
X109096207Y-103451819D02*
X109096207Y-102451819D01*
X109096207Y-102451819D02*
X108524779Y-103451819D01*
X108524779Y-103451819D02*
X108524779Y-102451819D01*
X108048588Y-103451819D02*
X108048588Y-102451819D01*
X108048588Y-102451819D02*
X107810493Y-102451819D01*
X107810493Y-102451819D02*
X107667636Y-102499438D01*
X107667636Y-102499438D02*
X107572398Y-102594676D01*
X107572398Y-102594676D02*
X107524779Y-102689914D01*
X107524779Y-102689914D02*
X107477160Y-102880390D01*
X107477160Y-102880390D02*
X107477160Y-103023247D01*
X107477160Y-103023247D02*
X107524779Y-103213723D01*
X107524779Y-103213723D02*
X107572398Y-103308961D01*
X107572398Y-103308961D02*
X107667636Y-103404200D01*
X107667636Y-103404200D02*
X107810493Y-103451819D01*
X107810493Y-103451819D02*
X108048588Y-103451819D01*
X119063220Y-63488866D02*
X118301316Y-63488866D01*
X118682268Y-63869819D02*
X118682268Y-63107914D01*
X156114285Y-110154819D02*
X156685713Y-110154819D01*
X156399999Y-110154819D02*
X156399999Y-109154819D01*
X156399999Y-109154819D02*
X156495237Y-109297676D01*
X156495237Y-109297676D02*
X156590475Y-109392914D01*
X156590475Y-109392914D02*
X156685713Y-109440533D01*
X107873922Y-93942819D02*
X108350112Y-93942819D01*
X108350112Y-93942819D02*
X108397731Y-94419009D01*
X108397731Y-94419009D02*
X108350112Y-94371390D01*
X108350112Y-94371390D02*
X108254874Y-94323771D01*
X108254874Y-94323771D02*
X108016779Y-94323771D01*
X108016779Y-94323771D02*
X107921541Y-94371390D01*
X107921541Y-94371390D02*
X107873922Y-94419009D01*
X107873922Y-94419009D02*
X107826303Y-94514247D01*
X107826303Y-94514247D02*
X107826303Y-94752342D01*
X107826303Y-94752342D02*
X107873922Y-94847580D01*
X107873922Y-94847580D02*
X107921541Y-94895200D01*
X107921541Y-94895200D02*
X108016779Y-94942819D01*
X108016779Y-94942819D02*
X108254874Y-94942819D01*
X108254874Y-94942819D02*
X108350112Y-94895200D01*
X108350112Y-94895200D02*
X108397731Y-94847580D01*
X107540588Y-93942819D02*
X107207255Y-94942819D01*
X107207255Y-94942819D02*
X106873922Y-93942819D01*
X107921541Y-89989819D02*
X108254874Y-89513628D01*
X108492969Y-89989819D02*
X108492969Y-88989819D01*
X108492969Y-88989819D02*
X108112017Y-88989819D01*
X108112017Y-88989819D02*
X108016779Y-89037438D01*
X108016779Y-89037438D02*
X107969160Y-89085057D01*
X107969160Y-89085057D02*
X107921541Y-89180295D01*
X107921541Y-89180295D02*
X107921541Y-89323152D01*
X107921541Y-89323152D02*
X107969160Y-89418390D01*
X107969160Y-89418390D02*
X108016779Y-89466009D01*
X108016779Y-89466009D02*
X108112017Y-89513628D01*
X108112017Y-89513628D02*
X108492969Y-89513628D01*
X107588207Y-88989819D02*
X106921541Y-89989819D01*
X106921541Y-88989819D02*
X107588207Y-89989819D01*
D11*
G36*
X173356133Y-93828154D02*
G01*
X173416947Y-93888968D01*
X173493936Y-94042946D01*
X173580701Y-94390006D01*
X173580701Y-94829269D01*
X173493936Y-95176329D01*
X173416946Y-95330307D01*
X173356132Y-95391122D01*
X173219101Y-95459638D01*
X173099444Y-95459638D01*
X172962412Y-95391122D01*
X172901598Y-95330307D01*
X172824609Y-95176329D01*
X172737844Y-94829268D01*
X172737844Y-94390006D01*
X172824609Y-94042945D01*
X172901598Y-93888968D01*
X172962412Y-93828154D01*
X173099444Y-93759638D01*
X173219101Y-93759638D01*
X173356133Y-93828154D01*
G37*
G36*
X182071177Y-96045352D02*
G01*
X170342606Y-96045352D01*
X170342606Y-95609638D01*
X170628320Y-95609638D01*
X170648416Y-95684638D01*
X170703320Y-95739542D01*
X170778320Y-95759638D01*
X171730701Y-95759638D01*
X171805701Y-95739542D01*
X171860605Y-95684638D01*
X171880701Y-95609638D01*
X171880701Y-94847733D01*
X172437844Y-94847733D01*
X172442634Y-94865609D01*
X172442323Y-94884113D01*
X172537561Y-95265065D01*
X172545597Y-95279542D01*
X172548918Y-95295767D01*
X172644156Y-95486243D01*
X172660178Y-95504311D01*
X172672253Y-95525226D01*
X172767492Y-95620466D01*
X172788406Y-95632540D01*
X172806476Y-95648564D01*
X172996952Y-95743802D01*
X173030730Y-95750714D01*
X173064034Y-95759638D01*
X173254511Y-95759638D01*
X173287812Y-95750714D01*
X173321593Y-95743802D01*
X173512069Y-95648564D01*
X173530137Y-95632541D01*
X173551054Y-95620465D01*
X173646292Y-95525226D01*
X173658367Y-95504311D01*
X173674389Y-95486243D01*
X173769627Y-95295767D01*
X173772947Y-95279542D01*
X173780984Y-95265065D01*
X173861508Y-94942971D01*
X174247368Y-94942971D01*
X174267464Y-95017971D01*
X174322368Y-95072875D01*
X174397368Y-95092971D01*
X174533082Y-95092971D01*
X174533082Y-95609638D01*
X174553178Y-95684638D01*
X174608082Y-95739542D01*
X174683082Y-95759638D01*
X174758082Y-95739542D01*
X174812986Y-95684638D01*
X174833082Y-95609638D01*
X174833082Y-95228685D01*
X176247368Y-95228685D01*
X176256291Y-95261986D01*
X176263204Y-95295767D01*
X176358442Y-95486243D01*
X176374464Y-95504311D01*
X176386539Y-95525226D01*
X176481778Y-95620466D01*
X176502692Y-95632540D01*
X176520762Y-95648564D01*
X176711238Y-95743802D01*
X176745016Y-95750714D01*
X176778320Y-95759638D01*
X177349749Y-95759638D01*
X177383050Y-95750714D01*
X177416831Y-95743802D01*
X177607307Y-95648564D01*
X177625375Y-95632541D01*
X177646292Y-95620465D01*
X177657119Y-95609638D01*
X178247368Y-95609638D01*
X178267464Y-95684638D01*
X178322368Y-95739542D01*
X178397368Y-95759638D01*
X178472368Y-95739542D01*
X178527272Y-95684638D01*
X178547368Y-95609638D01*
X178547368Y-94712019D01*
X179390225Y-94712019D01*
X179390225Y-95609638D01*
X179410321Y-95684638D01*
X179465225Y-95739542D01*
X179540225Y-95759638D01*
X179615225Y-95739542D01*
X179670129Y-95684638D01*
X179690225Y-95609638D01*
X179690225Y-95457983D01*
X180252479Y-95457983D01*
X180291301Y-95525226D01*
X180386540Y-95620466D01*
X180416402Y-95637707D01*
X180445172Y-95656702D01*
X180730886Y-95751940D01*
X180754991Y-95753387D01*
X180778320Y-95759638D01*
X180968796Y-95759638D01*
X180992121Y-95753388D01*
X181016230Y-95751941D01*
X181301945Y-95656703D01*
X181330720Y-95637703D01*
X181360577Y-95620466D01*
X181551053Y-95429989D01*
X181563127Y-95409074D01*
X181579151Y-95391005D01*
X181674389Y-95200529D01*
X181677709Y-95184304D01*
X181685746Y-95169827D01*
X181780984Y-94788876D01*
X181780672Y-94770372D01*
X181785463Y-94752495D01*
X181785463Y-94466780D01*
X181780672Y-94448902D01*
X181780984Y-94430399D01*
X181685746Y-94049448D01*
X181677709Y-94034970D01*
X181674389Y-94018746D01*
X181579151Y-93828270D01*
X181563127Y-93810200D01*
X181551053Y-93789286D01*
X181360577Y-93598810D01*
X181330720Y-93581572D01*
X181301945Y-93562573D01*
X181016230Y-93467335D01*
X180992121Y-93465887D01*
X180968796Y-93459638D01*
X180778320Y-93459638D01*
X180754991Y-93465888D01*
X180730886Y-93467336D01*
X180445172Y-93562574D01*
X180416402Y-93581568D01*
X180386540Y-93598810D01*
X180291302Y-93694048D01*
X180252479Y-93761291D01*
X180252479Y-93838937D01*
X180291302Y-93906180D01*
X180358545Y-93945003D01*
X180436191Y-93945003D01*
X180503434Y-93906180D01*
X180573634Y-93835980D01*
X180802660Y-93759638D01*
X180944453Y-93759638D01*
X181173484Y-93835981D01*
X181321709Y-93984206D01*
X181398698Y-94138184D01*
X181485463Y-94485244D01*
X181485463Y-94734031D01*
X181398698Y-95081091D01*
X181321708Y-95235069D01*
X181173484Y-95383294D01*
X180944453Y-95459638D01*
X180802660Y-95459638D01*
X180573634Y-95383296D01*
X180503435Y-95313096D01*
X180436192Y-95274272D01*
X180358546Y-95274272D01*
X180291303Y-95313094D01*
X180252479Y-95380337D01*
X180252479Y-95457983D01*
X179690225Y-95457983D01*
X179690225Y-93609638D01*
X179670129Y-93534638D01*
X179615225Y-93479734D01*
X179540225Y-93459638D01*
X179465225Y-93479734D01*
X179410321Y-93534638D01*
X179390225Y-93609638D01*
X179390225Y-94412019D01*
X178547368Y-94412019D01*
X178547368Y-93609638D01*
X178527272Y-93534638D01*
X178472368Y-93479734D01*
X178397368Y-93459638D01*
X178322368Y-93479734D01*
X178267464Y-93534638D01*
X178247368Y-93609638D01*
X178247368Y-95609638D01*
X177657119Y-95609638D01*
X177741530Y-95525226D01*
X177780353Y-95457983D01*
X177780352Y-95380337D01*
X177741529Y-95313094D01*
X177674286Y-95274271D01*
X177596640Y-95274272D01*
X177529397Y-95313095D01*
X177451370Y-95391122D01*
X177314339Y-95459638D01*
X176813730Y-95459638D01*
X176676698Y-95391122D01*
X176615884Y-95330307D01*
X176547368Y-95193275D01*
X176547368Y-94787905D01*
X176615884Y-94650872D01*
X176676698Y-94590057D01*
X176813730Y-94521542D01*
X177064035Y-94521542D01*
X177078349Y-94517706D01*
X177093134Y-94518692D01*
X177115236Y-94507822D01*
X177139035Y-94501446D01*
X177149515Y-94490965D01*
X177162810Y-94484428D01*
X177176516Y-94463964D01*
X177193939Y-94446542D01*
X177197775Y-94432225D01*
X177206020Y-94419916D01*
X177207658Y-94395339D01*
X177214035Y-94371542D01*
X177210199Y-94357226D01*
X177211185Y-94342442D01*
X177200315Y-94320337D01*
X177193939Y-94296542D01*
X177183459Y-94286062D01*
X177176921Y-94272766D01*
X176727933Y-93759638D01*
X177635463Y-93759638D01*
X177710463Y-93739542D01*
X177765367Y-93684638D01*
X177785463Y-93609638D01*
X177765367Y-93534638D01*
X177710463Y-93479734D01*
X177635463Y-93459638D01*
X176397368Y-93459638D01*
X176383056Y-93463472D01*
X176368269Y-93462487D01*
X176346162Y-93473358D01*
X176322368Y-93479734D01*
X176311889Y-93490212D01*
X176298592Y-93496752D01*
X176284883Y-93517218D01*
X176267464Y-93534638D01*
X176263629Y-93548950D01*
X176255382Y-93561263D01*
X176253743Y-93585845D01*
X176247368Y-93609638D01*
X176251202Y-93623949D01*
X176250217Y-93638737D01*
X176261088Y-93660843D01*
X176267464Y-93684638D01*
X176277942Y-93695116D01*
X176284482Y-93708414D01*
X176741845Y-94231114D01*
X176711238Y-94237378D01*
X176520762Y-94332616D01*
X176502692Y-94348639D01*
X176481778Y-94360714D01*
X176386539Y-94455954D01*
X176374464Y-94476868D01*
X176358442Y-94494937D01*
X176263204Y-94685413D01*
X176256291Y-94719193D01*
X176247368Y-94752495D01*
X176247368Y-95228685D01*
X174833082Y-95228685D01*
X174833082Y-95092971D01*
X175635463Y-95092971D01*
X175658788Y-95086721D01*
X175682897Y-95085274D01*
X175695674Y-95076837D01*
X175710463Y-95072875D01*
X175727539Y-95055798D01*
X175747693Y-95042492D01*
X175754540Y-95028797D01*
X175765367Y-95017971D01*
X175771617Y-94994643D01*
X175782418Y-94973043D01*
X175781500Y-94957758D01*
X175785463Y-94942971D01*
X175779213Y-94919645D01*
X175777766Y-94895537D01*
X175301576Y-93466966D01*
X175258794Y-93402170D01*
X175189345Y-93367445D01*
X175111839Y-93372097D01*
X175047043Y-93414879D01*
X175012318Y-93484328D01*
X175016970Y-93561834D01*
X175427350Y-94792971D01*
X174833082Y-94792971D01*
X174833082Y-94276304D01*
X174812986Y-94201304D01*
X174758082Y-94146400D01*
X174683082Y-94126304D01*
X174608082Y-94146400D01*
X174553178Y-94201304D01*
X174533082Y-94276304D01*
X174533082Y-94792971D01*
X174397368Y-94792971D01*
X174322368Y-94813067D01*
X174267464Y-94867971D01*
X174247368Y-94942971D01*
X173861508Y-94942971D01*
X173876222Y-94884114D01*
X173875910Y-94865610D01*
X173880701Y-94847733D01*
X173880701Y-94371542D01*
X173875910Y-94353664D01*
X173876222Y-94335161D01*
X173780984Y-93954210D01*
X173772947Y-93939732D01*
X173769627Y-93923508D01*
X173674389Y-93733032D01*
X173658365Y-93714962D01*
X173646291Y-93694048D01*
X173551053Y-93598810D01*
X173530137Y-93586734D01*
X173512069Y-93570712D01*
X173321593Y-93475474D01*
X173287812Y-93468561D01*
X173254511Y-93459638D01*
X173064034Y-93459638D01*
X173030730Y-93468561D01*
X172996952Y-93475474D01*
X172806476Y-93570712D01*
X172788406Y-93586735D01*
X172767492Y-93598810D01*
X172672254Y-93694048D01*
X172660178Y-93714963D01*
X172644156Y-93733032D01*
X172548918Y-93923508D01*
X172545597Y-93939732D01*
X172537561Y-93954210D01*
X172442323Y-94335162D01*
X172442634Y-94353665D01*
X172437844Y-94371542D01*
X172437844Y-94847733D01*
X171880701Y-94847733D01*
X171880701Y-93609638D01*
X171860605Y-93534638D01*
X171805701Y-93479734D01*
X171730701Y-93459638D01*
X170778320Y-93459638D01*
X170703320Y-93479734D01*
X170648416Y-93534638D01*
X170628320Y-93609638D01*
X170648416Y-93684638D01*
X170703320Y-93739542D01*
X170778320Y-93759638D01*
X171580701Y-93759638D01*
X171580701Y-94412019D01*
X171064034Y-94412019D01*
X170989034Y-94432115D01*
X170934130Y-94487019D01*
X170914034Y-94562019D01*
X170934130Y-94637019D01*
X170989034Y-94691923D01*
X171064034Y-94712019D01*
X171580701Y-94712019D01*
X171580701Y-95459638D01*
X170778320Y-95459638D01*
X170703320Y-95479734D01*
X170648416Y-95534638D01*
X170628320Y-95609638D01*
X170342606Y-95609638D01*
X170342606Y-93081731D01*
X182071177Y-93081731D01*
X182071177Y-96045352D01*
G37*
D10*
X96469030Y-117564819D02*
X96945220Y-117564819D01*
X96945220Y-117564819D02*
X96992839Y-118041009D01*
X96992839Y-118041009D02*
X96945220Y-117993390D01*
X96945220Y-117993390D02*
X96849982Y-117945771D01*
X96849982Y-117945771D02*
X96611887Y-117945771D01*
X96611887Y-117945771D02*
X96516649Y-117993390D01*
X96516649Y-117993390D02*
X96469030Y-118041009D01*
X96469030Y-118041009D02*
X96421411Y-118136247D01*
X96421411Y-118136247D02*
X96421411Y-118374342D01*
X96421411Y-118374342D02*
X96469030Y-118469580D01*
X96469030Y-118469580D02*
X96516649Y-118517200D01*
X96516649Y-118517200D02*
X96611887Y-118564819D01*
X96611887Y-118564819D02*
X96849982Y-118564819D01*
X96849982Y-118564819D02*
X96945220Y-118517200D01*
X96945220Y-118517200D02*
X96992839Y-118469580D01*
X96135696Y-117564819D02*
X95802363Y-118564819D01*
X95802363Y-118564819D02*
X95469030Y-117564819D01*
X108905731Y-107531819D02*
X108334303Y-107531819D01*
X108620017Y-108531819D02*
X108620017Y-107531819D01*
X108096207Y-107531819D02*
X107429541Y-108531819D01*
X107429541Y-107531819D02*
X108096207Y-108531819D01*
X97040458Y-120104819D02*
X96421411Y-120104819D01*
X96421411Y-120104819D02*
X96754744Y-120485771D01*
X96754744Y-120485771D02*
X96611887Y-120485771D01*
X96611887Y-120485771D02*
X96516649Y-120533390D01*
X96516649Y-120533390D02*
X96469030Y-120581009D01*
X96469030Y-120581009D02*
X96421411Y-120676247D01*
X96421411Y-120676247D02*
X96421411Y-120914342D01*
X96421411Y-120914342D02*
X96469030Y-121009580D01*
X96469030Y-121009580D02*
X96516649Y-121057200D01*
X96516649Y-121057200D02*
X96611887Y-121104819D01*
X96611887Y-121104819D02*
X96897601Y-121104819D01*
X96897601Y-121104819D02*
X96992839Y-121057200D01*
X96992839Y-121057200D02*
X97040458Y-121009580D01*
X96135696Y-120104819D02*
X95802363Y-121104819D01*
X95802363Y-121104819D02*
X95469030Y-120104819D01*
X95230934Y-120104819D02*
X94611887Y-120104819D01*
X94611887Y-120104819D02*
X94945220Y-120485771D01*
X94945220Y-120485771D02*
X94802363Y-120485771D01*
X94802363Y-120485771D02*
X94707125Y-120533390D01*
X94707125Y-120533390D02*
X94659506Y-120581009D01*
X94659506Y-120581009D02*
X94611887Y-120676247D01*
X94611887Y-120676247D02*
X94611887Y-120914342D01*
X94611887Y-120914342D02*
X94659506Y-121009580D01*
X94659506Y-121009580D02*
X94707125Y-121057200D01*
X94707125Y-121057200D02*
X94802363Y-121104819D01*
X94802363Y-121104819D02*
X95088077Y-121104819D01*
X95088077Y-121104819D02*
X95183315Y-121057200D01*
X95183315Y-121057200D02*
X95230934Y-121009580D01*
D11*
X132524190Y-66219638D02*
X131286095Y-66219638D01*
X131286095Y-66219638D02*
X131952762Y-66981542D01*
X131952762Y-66981542D02*
X131667047Y-66981542D01*
X131667047Y-66981542D02*
X131476571Y-67076780D01*
X131476571Y-67076780D02*
X131381333Y-67172019D01*
X131381333Y-67172019D02*
X131286095Y-67362495D01*
X131286095Y-67362495D02*
X131286095Y-67838685D01*
X131286095Y-67838685D02*
X131381333Y-68029161D01*
X131381333Y-68029161D02*
X131476571Y-68124400D01*
X131476571Y-68124400D02*
X131667047Y-68219638D01*
X131667047Y-68219638D02*
X132238476Y-68219638D01*
X132238476Y-68219638D02*
X132428952Y-68124400D01*
X132428952Y-68124400D02*
X132524190Y-68029161D01*
X130714666Y-66219638D02*
X130048000Y-68219638D01*
X130048000Y-68219638D02*
X129381333Y-66219638D01*
X128905142Y-66219638D02*
X127667047Y-66219638D01*
X127667047Y-66219638D02*
X128333714Y-66981542D01*
X128333714Y-66981542D02*
X128047999Y-66981542D01*
X128047999Y-66981542D02*
X127857523Y-67076780D01*
X127857523Y-67076780D02*
X127762285Y-67172019D01*
X127762285Y-67172019D02*
X127667047Y-67362495D01*
X127667047Y-67362495D02*
X127667047Y-67838685D01*
X127667047Y-67838685D02*
X127762285Y-68029161D01*
X127762285Y-68029161D02*
X127857523Y-68124400D01*
X127857523Y-68124400D02*
X128047999Y-68219638D01*
X128047999Y-68219638D02*
X128619428Y-68219638D01*
X128619428Y-68219638D02*
X128809904Y-68124400D01*
X128809904Y-68124400D02*
X128905142Y-68029161D01*
D10*
X109064398Y-86497438D02*
X109159636Y-86449819D01*
X109159636Y-86449819D02*
X109302493Y-86449819D01*
X109302493Y-86449819D02*
X109445350Y-86497438D01*
X109445350Y-86497438D02*
X109540588Y-86592676D01*
X109540588Y-86592676D02*
X109588207Y-86687914D01*
X109588207Y-86687914D02*
X109635826Y-86878390D01*
X109635826Y-86878390D02*
X109635826Y-87021247D01*
X109635826Y-87021247D02*
X109588207Y-87211723D01*
X109588207Y-87211723D02*
X109540588Y-87306961D01*
X109540588Y-87306961D02*
X109445350Y-87402200D01*
X109445350Y-87402200D02*
X109302493Y-87449819D01*
X109302493Y-87449819D02*
X109207255Y-87449819D01*
X109207255Y-87449819D02*
X109064398Y-87402200D01*
X109064398Y-87402200D02*
X109016779Y-87354580D01*
X109016779Y-87354580D02*
X109016779Y-87021247D01*
X109016779Y-87021247D02*
X109207255Y-87021247D01*
X108588207Y-87449819D02*
X108588207Y-86449819D01*
X108588207Y-86449819D02*
X108016779Y-87449819D01*
X108016779Y-87449819D02*
X108016779Y-86449819D01*
X107540588Y-87449819D02*
X107540588Y-86449819D01*
X107540588Y-86449819D02*
X107302493Y-86449819D01*
X107302493Y-86449819D02*
X107159636Y-86497438D01*
X107159636Y-86497438D02*
X107064398Y-86592676D01*
X107064398Y-86592676D02*
X107016779Y-86687914D01*
X107016779Y-86687914D02*
X106969160Y-86878390D01*
X106969160Y-86878390D02*
X106969160Y-87021247D01*
X106969160Y-87021247D02*
X107016779Y-87211723D01*
X107016779Y-87211723D02*
X107064398Y-87306961D01*
X107064398Y-87306961D02*
X107159636Y-87402200D01*
X107159636Y-87402200D02*
X107302493Y-87449819D01*
X107302493Y-87449819D02*
X107540588Y-87449819D01*
D11*
G36*
X126646609Y-84685297D02*
G01*
X126707423Y-84746111D01*
X126775939Y-84883143D01*
X126775939Y-85193275D01*
X126707422Y-85330307D01*
X126646608Y-85391122D01*
X126509577Y-85459638D01*
X126199444Y-85459638D01*
X126062412Y-85391122D01*
X126001598Y-85330307D01*
X125933082Y-85193275D01*
X125933082Y-84883143D01*
X126001598Y-84746111D01*
X126062411Y-84685297D01*
X126199445Y-84616780D01*
X126509576Y-84616780D01*
X126646609Y-84685297D01*
G37*
G36*
X126646609Y-83828154D02*
G01*
X126707423Y-83888968D01*
X126775939Y-84026000D01*
X126775939Y-84050418D01*
X126707423Y-84187450D01*
X126646609Y-84248264D01*
X126509577Y-84316780D01*
X126199444Y-84316780D01*
X126062412Y-84248264D01*
X126001598Y-84187450D01*
X125933082Y-84050418D01*
X125933082Y-84026000D01*
X126001598Y-83888968D01*
X126062412Y-83828154D01*
X126199444Y-83759638D01*
X126509577Y-83759638D01*
X126646609Y-83828154D01*
G37*
G36*
X132241635Y-84888209D02*
G01*
X131705482Y-84888209D01*
X131973558Y-84083979D01*
X132241635Y-84888209D01*
G37*
G36*
X135075939Y-86045352D02*
G01*
X123442606Y-86045352D01*
X123442606Y-85228685D01*
X123728320Y-85228685D01*
X123737243Y-85261986D01*
X123744156Y-85295767D01*
X123839394Y-85486243D01*
X123855416Y-85504311D01*
X123867491Y-85525226D01*
X123962730Y-85620466D01*
X123983644Y-85632540D01*
X124001714Y-85648564D01*
X124192190Y-85743802D01*
X124225968Y-85750714D01*
X124259272Y-85759638D01*
X124735463Y-85759638D01*
X124768764Y-85750714D01*
X124802545Y-85743802D01*
X124993021Y-85648564D01*
X125011089Y-85632541D01*
X125032006Y-85620465D01*
X125127244Y-85525226D01*
X125166067Y-85457983D01*
X125166066Y-85380337D01*
X125127243Y-85313094D01*
X125060000Y-85274271D01*
X124982354Y-85274272D01*
X124915111Y-85313095D01*
X124837084Y-85391122D01*
X124700053Y-85459638D01*
X124294682Y-85459638D01*
X124157650Y-85391122D01*
X124096836Y-85330307D01*
X124046025Y-85228685D01*
X125633082Y-85228685D01*
X125642005Y-85261986D01*
X125648918Y-85295767D01*
X125744156Y-85486243D01*
X125760178Y-85504311D01*
X125772253Y-85525226D01*
X125867492Y-85620466D01*
X125888406Y-85632540D01*
X125906476Y-85648564D01*
X126096952Y-85743802D01*
X126130730Y-85750714D01*
X126164034Y-85759638D01*
X126544987Y-85759638D01*
X126578288Y-85750714D01*
X126612069Y-85743802D01*
X126802545Y-85648564D01*
X126820613Y-85632541D01*
X126841530Y-85620465D01*
X126936768Y-85525226D01*
X126948843Y-85504311D01*
X126964865Y-85486243D01*
X127060103Y-85295767D01*
X127067015Y-85261988D01*
X127075939Y-85228685D01*
X127075939Y-84942971D01*
X127442606Y-84942971D01*
X127462702Y-85017971D01*
X127517606Y-85072875D01*
X127592606Y-85092971D01*
X127728320Y-85092971D01*
X127728320Y-85609638D01*
X127748416Y-85684638D01*
X127803320Y-85739542D01*
X127878320Y-85759638D01*
X127953320Y-85739542D01*
X128008224Y-85684638D01*
X128028320Y-85609638D01*
X128028320Y-85599984D01*
X129347679Y-85599984D01*
X129362906Y-85676122D01*
X129414163Y-85734446D01*
X129487714Y-85759327D01*
X129563852Y-85744100D01*
X129622176Y-85692843D01*
X130164034Y-84880054D01*
X130705894Y-85692843D01*
X130764217Y-85744100D01*
X130840355Y-85759327D01*
X130913906Y-85734446D01*
X130965163Y-85676122D01*
X130972445Y-85639710D01*
X131159937Y-85639710D01*
X131194661Y-85709159D01*
X131259458Y-85751940D01*
X131336964Y-85756593D01*
X131406413Y-85721869D01*
X131449194Y-85657072D01*
X131605482Y-85188209D01*
X132341635Y-85188209D01*
X132497923Y-85657072D01*
X132540704Y-85721869D01*
X132610153Y-85756593D01*
X132687659Y-85751941D01*
X132752456Y-85709159D01*
X132787180Y-85639710D01*
X132785375Y-85609638D01*
X133156892Y-85609638D01*
X133176988Y-85684638D01*
X133231892Y-85739542D01*
X133306892Y-85759638D01*
X133381892Y-85739542D01*
X133436796Y-85684638D01*
X133456892Y-85609638D01*
X133456892Y-84285772D01*
X133837630Y-85101641D01*
X133846138Y-85111775D01*
X133850660Y-85124209D01*
X133870715Y-85141047D01*
X133887557Y-85161107D01*
X133899992Y-85165629D01*
X133910125Y-85174136D01*
X133935914Y-85178691D01*
X133960529Y-85187642D01*
X133973558Y-85185340D01*
X133986587Y-85187642D01*
X134011200Y-85178691D01*
X134036991Y-85174136D01*
X134047123Y-85165628D01*
X134059558Y-85161107D01*
X134076398Y-85141049D01*
X134096456Y-85124209D01*
X134100977Y-85111774D01*
X134109485Y-85101642D01*
X134490225Y-84285772D01*
X134490225Y-85609638D01*
X134510321Y-85684638D01*
X134565225Y-85739542D01*
X134640225Y-85759638D01*
X134715225Y-85739542D01*
X134770129Y-85684638D01*
X134790225Y-85609638D01*
X134790225Y-83609638D01*
X134788496Y-83603186D01*
X134789658Y-83596609D01*
X134778545Y-83566049D01*
X134770129Y-83534638D01*
X134765405Y-83529914D01*
X134763123Y-83523637D01*
X134738216Y-83502725D01*
X134715225Y-83479734D01*
X134708774Y-83478005D01*
X134703658Y-83473710D01*
X134671632Y-83468053D01*
X134640225Y-83459638D01*
X134633773Y-83461366D01*
X134627196Y-83460205D01*
X134596634Y-83471318D01*
X134565225Y-83479734D01*
X134560502Y-83484456D01*
X134554225Y-83486739D01*
X134533315Y-83511643D01*
X134510321Y-83534638D01*
X134508592Y-83541090D01*
X134504298Y-83546205D01*
X133973558Y-84683503D01*
X133442819Y-83546205D01*
X133438524Y-83541090D01*
X133436796Y-83534638D01*
X133413798Y-83511640D01*
X133392892Y-83486740D01*
X133386615Y-83484457D01*
X133381892Y-83479734D01*
X133350478Y-83471316D01*
X133319921Y-83460205D01*
X133313343Y-83461366D01*
X133306892Y-83459638D01*
X133275478Y-83468055D01*
X133243459Y-83473711D01*
X133238344Y-83478005D01*
X133231892Y-83479734D01*
X133208894Y-83502731D01*
X133183994Y-83523638D01*
X133181711Y-83529914D01*
X133176988Y-83534638D01*
X133168570Y-83566051D01*
X133157459Y-83596609D01*
X133158620Y-83603186D01*
X133156892Y-83609638D01*
X133156892Y-85609638D01*
X132785375Y-85609638D01*
X132782528Y-85562204D01*
X132115862Y-83562204D01*
X132099260Y-83537059D01*
X132085789Y-83510118D01*
X132078135Y-83505064D01*
X132073080Y-83497408D01*
X132046129Y-83483932D01*
X132020993Y-83467336D01*
X132011837Y-83466786D01*
X132003631Y-83462683D01*
X131973555Y-83464488D01*
X131943487Y-83462683D01*
X131935282Y-83466785D01*
X131926125Y-83467335D01*
X131900982Y-83483935D01*
X131874038Y-83497408D01*
X131868983Y-83505062D01*
X131861329Y-83510117D01*
X131847856Y-83537061D01*
X131831256Y-83562204D01*
X131164590Y-85562204D01*
X131159937Y-85639710D01*
X130972445Y-85639710D01*
X130980390Y-85599984D01*
X130955509Y-85526433D01*
X130344312Y-84609638D01*
X130955509Y-83692843D01*
X130980390Y-83619292D01*
X130965163Y-83543154D01*
X130913906Y-83484830D01*
X130840355Y-83459949D01*
X130764217Y-83475176D01*
X130705894Y-83526433D01*
X130164034Y-84339221D01*
X129622176Y-83526433D01*
X129563852Y-83475176D01*
X129487714Y-83459949D01*
X129414163Y-83484830D01*
X129362906Y-83543154D01*
X129347679Y-83619292D01*
X129372560Y-83692843D01*
X129983756Y-84609638D01*
X129372560Y-85526433D01*
X129347679Y-85599984D01*
X128028320Y-85599984D01*
X128028320Y-85092971D01*
X128830701Y-85092971D01*
X128854026Y-85086721D01*
X128878135Y-85085274D01*
X128890912Y-85076837D01*
X128905701Y-85072875D01*
X128922777Y-85055798D01*
X128942931Y-85042492D01*
X128949778Y-85028797D01*
X128960605Y-85017971D01*
X128966855Y-84994643D01*
X128977656Y-84973043D01*
X128976738Y-84957758D01*
X128980701Y-84942971D01*
X128974451Y-84919645D01*
X128973004Y-84895537D01*
X128496814Y-83466966D01*
X128454032Y-83402170D01*
X128384583Y-83367445D01*
X128307077Y-83372097D01*
X128242281Y-83414879D01*
X128207556Y-83484328D01*
X128212208Y-83561834D01*
X128622588Y-84792971D01*
X128028320Y-84792971D01*
X128028320Y-84276304D01*
X128008224Y-84201304D01*
X127953320Y-84146400D01*
X127878320Y-84126304D01*
X127803320Y-84146400D01*
X127748416Y-84201304D01*
X127728320Y-84276304D01*
X127728320Y-84792971D01*
X127592606Y-84792971D01*
X127517606Y-84813067D01*
X127462702Y-84867971D01*
X127442606Y-84942971D01*
X127075939Y-84942971D01*
X127075939Y-84847733D01*
X127067015Y-84814429D01*
X127060103Y-84780651D01*
X126964865Y-84590175D01*
X126948841Y-84572105D01*
X126936767Y-84551191D01*
X126852356Y-84466780D01*
X126936767Y-84382370D01*
X126948841Y-84361455D01*
X126964865Y-84343386D01*
X127060103Y-84152910D01*
X127067015Y-84119131D01*
X127075939Y-84085828D01*
X127075939Y-83990590D01*
X127067015Y-83957286D01*
X127060103Y-83923508D01*
X126964865Y-83733032D01*
X126948841Y-83714962D01*
X126936767Y-83694048D01*
X126841529Y-83598810D01*
X126820613Y-83586734D01*
X126802545Y-83570712D01*
X126612069Y-83475474D01*
X126578288Y-83468561D01*
X126544987Y-83459638D01*
X126164034Y-83459638D01*
X126130730Y-83468561D01*
X126096952Y-83475474D01*
X125906476Y-83570712D01*
X125888406Y-83586735D01*
X125867492Y-83598810D01*
X125772254Y-83694048D01*
X125760178Y-83714963D01*
X125744156Y-83733032D01*
X125648918Y-83923508D01*
X125642005Y-83957288D01*
X125633082Y-83990590D01*
X125633082Y-84085828D01*
X125642005Y-84119129D01*
X125648918Y-84152910D01*
X125744156Y-84343386D01*
X125760178Y-84361454D01*
X125772254Y-84382370D01*
X125856664Y-84466780D01*
X125772254Y-84551191D01*
X125760178Y-84572106D01*
X125744156Y-84590175D01*
X125648918Y-84780651D01*
X125642005Y-84814431D01*
X125633082Y-84847733D01*
X125633082Y-85228685D01*
X124046025Y-85228685D01*
X124028320Y-85193275D01*
X124028320Y-84787905D01*
X124096836Y-84650872D01*
X124157650Y-84590057D01*
X124294682Y-84521542D01*
X124700053Y-84521542D01*
X124837084Y-84590057D01*
X124915111Y-84668085D01*
X124938536Y-84681609D01*
X124959475Y-84698741D01*
X124971660Y-84700734D01*
X124982354Y-84706908D01*
X125009406Y-84706908D01*
X125036103Y-84711275D01*
X125047650Y-84706908D01*
X125060000Y-84706909D01*
X125083432Y-84693380D01*
X125108731Y-84683815D01*
X125116548Y-84674260D01*
X125127243Y-84668086D01*
X125140770Y-84644655D01*
X125157899Y-84623721D01*
X125159891Y-84611536D01*
X125166066Y-84600843D01*
X125166066Y-84573789D01*
X125170433Y-84547093D01*
X125075195Y-83594712D01*
X125064019Y-83565152D01*
X125055843Y-83534638D01*
X125050439Y-83529234D01*
X125047736Y-83522084D01*
X125023278Y-83502073D01*
X125000939Y-83479734D01*
X124993556Y-83477755D01*
X124987641Y-83472916D01*
X124956457Y-83467815D01*
X124925939Y-83459638D01*
X123973558Y-83459638D01*
X123898558Y-83479734D01*
X123843654Y-83534638D01*
X123823558Y-83609638D01*
X123843654Y-83684638D01*
X123898558Y-83739542D01*
X123973558Y-83759638D01*
X124790190Y-83759638D01*
X124839828Y-84256019D01*
X124802545Y-84237378D01*
X124768764Y-84230465D01*
X124735463Y-84221542D01*
X124259272Y-84221542D01*
X124225968Y-84230465D01*
X124192190Y-84237378D01*
X124001714Y-84332616D01*
X123983644Y-84348639D01*
X123962730Y-84360714D01*
X123867491Y-84455954D01*
X123855416Y-84476868D01*
X123839394Y-84494937D01*
X123744156Y-84685413D01*
X123737243Y-84719193D01*
X123728320Y-84752495D01*
X123728320Y-85228685D01*
X123442606Y-85228685D01*
X123442606Y-83081731D01*
X135075939Y-83081731D01*
X135075939Y-86045352D01*
G37*
D10*
X126714285Y-110854819D02*
X127285713Y-110854819D01*
X126999999Y-110854819D02*
X126999999Y-109854819D01*
X126999999Y-109854819D02*
X127095237Y-109997676D01*
X127095237Y-109997676D02*
X127190475Y-110092914D01*
X127190475Y-110092914D02*
X127285713Y-110140533D01*
D11*
X130454060Y-131751638D02*
X131406441Y-131751638D01*
X131406441Y-131751638D02*
X131501679Y-132704019D01*
X131501679Y-132704019D02*
X131406441Y-132608780D01*
X131406441Y-132608780D02*
X131215965Y-132513542D01*
X131215965Y-132513542D02*
X130739774Y-132513542D01*
X130739774Y-132513542D02*
X130549298Y-132608780D01*
X130549298Y-132608780D02*
X130454060Y-132704019D01*
X130454060Y-132704019D02*
X130358822Y-132894495D01*
X130358822Y-132894495D02*
X130358822Y-133370685D01*
X130358822Y-133370685D02*
X130454060Y-133561161D01*
X130454060Y-133561161D02*
X130549298Y-133656400D01*
X130549298Y-133656400D02*
X130739774Y-133751638D01*
X130739774Y-133751638D02*
X131215965Y-133751638D01*
X131215965Y-133751638D02*
X131406441Y-133656400D01*
X131406441Y-133656400D02*
X131501679Y-133561161D01*
X129787393Y-131751638D02*
X129120727Y-133751638D01*
X129120727Y-133751638D02*
X128454060Y-131751638D01*
D10*
X137054819Y-77085714D02*
X137054819Y-76514286D01*
X137054819Y-76800000D02*
X136054819Y-76800000D01*
X136054819Y-76800000D02*
X136197676Y-76704762D01*
X136197676Y-76704762D02*
X136292914Y-76609524D01*
X136292914Y-76609524D02*
X136340533Y-76514286D01*
X108397731Y-91529819D02*
X107826303Y-91529819D01*
X108112017Y-92529819D02*
X108112017Y-91529819D01*
X107588207Y-91529819D02*
X106921541Y-92529819D01*
X106921541Y-91529819D02*
X107588207Y-92529819D01*
D12*
X196909800Y-112166667D02*
X196957419Y-112309524D01*
X196957419Y-112309524D02*
X196957419Y-112547619D01*
X196957419Y-112547619D02*
X196909800Y-112642857D01*
X196909800Y-112642857D02*
X196862180Y-112690476D01*
X196862180Y-112690476D02*
X196766942Y-112738095D01*
X196766942Y-112738095D02*
X196671704Y-112738095D01*
X196671704Y-112738095D02*
X196576466Y-112690476D01*
X196576466Y-112690476D02*
X196528847Y-112642857D01*
X196528847Y-112642857D02*
X196481228Y-112547619D01*
X196481228Y-112547619D02*
X196433609Y-112357143D01*
X196433609Y-112357143D02*
X196385990Y-112261905D01*
X196385990Y-112261905D02*
X196338371Y-112214286D01*
X196338371Y-112214286D02*
X196243133Y-112166667D01*
X196243133Y-112166667D02*
X196147895Y-112166667D01*
X196147895Y-112166667D02*
X196052657Y-112214286D01*
X196052657Y-112214286D02*
X196005038Y-112261905D01*
X196005038Y-112261905D02*
X195957419Y-112357143D01*
X195957419Y-112357143D02*
X195957419Y-112595238D01*
X195957419Y-112595238D02*
X196005038Y-112738095D01*
X195957419Y-113071429D02*
X196957419Y-113309524D01*
X196957419Y-113309524D02*
X196243133Y-113500000D01*
X196243133Y-113500000D02*
X196957419Y-113690476D01*
X196957419Y-113690476D02*
X195957419Y-113928572D01*
X196957419Y-114833333D02*
X196957419Y-114261905D01*
X196957419Y-114547619D02*
X195957419Y-114547619D01*
X195957419Y-114547619D02*
X196100276Y-114452381D01*
X196100276Y-114452381D02*
X196195514Y-114357143D01*
X196195514Y-114357143D02*
X196243133Y-114261905D01*
X135170580Y-112827666D02*
X135170580Y-113303856D01*
X135170580Y-113303856D02*
X136170580Y-113303856D01*
X136075342Y-112541951D02*
X136122961Y-112494332D01*
X136122961Y-112494332D02*
X136170580Y-112399094D01*
X136170580Y-112399094D02*
X136170580Y-112160999D01*
X136170580Y-112160999D02*
X136122961Y-112065761D01*
X136122961Y-112065761D02*
X136075342Y-112018142D01*
X136075342Y-112018142D02*
X135980104Y-111970523D01*
X135980104Y-111970523D02*
X135884866Y-111970523D01*
X135884866Y-111970523D02*
X135742009Y-112018142D01*
X135742009Y-112018142D02*
X135170580Y-112589570D01*
X135170580Y-112589570D02*
X135170580Y-111970523D01*
X196909800Y-101166667D02*
X196957419Y-101309524D01*
X196957419Y-101309524D02*
X196957419Y-101547619D01*
X196957419Y-101547619D02*
X196909800Y-101642857D01*
X196909800Y-101642857D02*
X196862180Y-101690476D01*
X196862180Y-101690476D02*
X196766942Y-101738095D01*
X196766942Y-101738095D02*
X196671704Y-101738095D01*
X196671704Y-101738095D02*
X196576466Y-101690476D01*
X196576466Y-101690476D02*
X196528847Y-101642857D01*
X196528847Y-101642857D02*
X196481228Y-101547619D01*
X196481228Y-101547619D02*
X196433609Y-101357143D01*
X196433609Y-101357143D02*
X196385990Y-101261905D01*
X196385990Y-101261905D02*
X196338371Y-101214286D01*
X196338371Y-101214286D02*
X196243133Y-101166667D01*
X196243133Y-101166667D02*
X196147895Y-101166667D01*
X196147895Y-101166667D02*
X196052657Y-101214286D01*
X196052657Y-101214286D02*
X196005038Y-101261905D01*
X196005038Y-101261905D02*
X195957419Y-101357143D01*
X195957419Y-101357143D02*
X195957419Y-101595238D01*
X195957419Y-101595238D02*
X196005038Y-101738095D01*
X195957419Y-102071429D02*
X196957419Y-102309524D01*
X196957419Y-102309524D02*
X196243133Y-102500000D01*
X196243133Y-102500000D02*
X196957419Y-102690476D01*
X196957419Y-102690476D02*
X195957419Y-102928572D01*
X196052657Y-103261905D02*
X196005038Y-103309524D01*
X196005038Y-103309524D02*
X195957419Y-103404762D01*
X195957419Y-103404762D02*
X195957419Y-103642857D01*
X195957419Y-103642857D02*
X196005038Y-103738095D01*
X196005038Y-103738095D02*
X196052657Y-103785714D01*
X196052657Y-103785714D02*
X196147895Y-103833333D01*
X196147895Y-103833333D02*
X196243133Y-103833333D01*
X196243133Y-103833333D02*
X196385990Y-103785714D01*
X196385990Y-103785714D02*
X196957419Y-103214286D01*
X196957419Y-103214286D02*
X196957419Y-103833333D01*
X163981580Y-113272666D02*
X163981580Y-113748856D01*
X163981580Y-113748856D02*
X164981580Y-113748856D01*
X163981580Y-112415523D02*
X163981580Y-112986951D01*
X163981580Y-112701237D02*
X164981580Y-112701237D01*
X164981580Y-112701237D02*
X164838723Y-112796475D01*
X164838723Y-112796475D02*
X164743485Y-112891713D01*
X164743485Y-112891713D02*
X164695866Y-112986951D01*
D13*
%TO.C,D2*%
X119705000Y-127220000D02*
X119705000Y-129905000D01*
X117785000Y-127220000D02*
X119705000Y-127220000D01*
X117785000Y-129905000D02*
X117785000Y-127220000D01*
%TO.C,C12*%
X184228836Y-90048000D02*
X184013164Y-90048000D01*
X184228836Y-89328000D02*
X184013164Y-89328000D01*
D10*
%TO.C,U8*%
X125357000Y-116408000D02*
X125357000Y-116263000D01*
X125357000Y-116408000D02*
X121207000Y-116408000D01*
X125357000Y-111308000D02*
X126757000Y-111308000D01*
X125357000Y-111258000D02*
X125357000Y-111308000D01*
X125357000Y-111258000D02*
X121207000Y-111258000D01*
X121207000Y-116408000D02*
X121207000Y-116263000D01*
X121207000Y-111258000D02*
X121207000Y-111403000D01*
D13*
%TO.C,C10*%
X160039000Y-95388164D02*
X160039000Y-95603836D01*
X159319000Y-95388164D02*
X159319000Y-95603836D01*
%TO.C,D7*%
X150384000Y-117876000D02*
X147699000Y-117876000D01*
X150384000Y-115956000D02*
X150384000Y-117876000D01*
X147699000Y-115956000D02*
X150384000Y-115956000D01*
%TO.C,C17*%
X127506000Y-111709580D02*
X127506000Y-111428420D01*
X128526000Y-111709580D02*
X128526000Y-111428420D01*
%TO.C,D4*%
X196464000Y-94526000D02*
X199149000Y-94526000D01*
X196464000Y-96446000D02*
X196464000Y-94526000D01*
X199149000Y-96446000D02*
X196464000Y-96446000D01*
%TO.C,R9*%
X190019000Y-92937064D02*
X190019000Y-92482936D01*
X191489000Y-92937064D02*
X191489000Y-92482936D01*
D10*
%TO.C,U6*%
X187943000Y-93893000D02*
X187943000Y-93593000D01*
X187943000Y-93893000D02*
X184593000Y-93893000D01*
X187943000Y-90768000D02*
X189168000Y-90768000D01*
X187943000Y-90543000D02*
X187943000Y-90768000D01*
X187943000Y-90543000D02*
X184593000Y-90543000D01*
X184593000Y-93893000D02*
X184593000Y-93593000D01*
X184593000Y-90543000D02*
X184593000Y-90843000D01*
D13*
%TO.C,R18*%
X122698742Y-116888500D02*
X123173258Y-116888500D01*
X122698742Y-117933500D02*
X123173258Y-117933500D01*
D10*
%TO.C,U7*%
X154930000Y-115659000D02*
X154930000Y-115514000D01*
X154930000Y-115659000D02*
X150780000Y-115659000D01*
X154930000Y-110559000D02*
X156330000Y-110559000D01*
X154930000Y-110509000D02*
X154930000Y-110559000D01*
X154930000Y-110509000D02*
X150780000Y-110509000D01*
X150780000Y-115659000D02*
X150780000Y-115514000D01*
X150780000Y-110509000D02*
X150780000Y-110654000D01*
D13*
%TO.C,R11*%
X193267064Y-83031000D02*
X192812936Y-83031000D01*
X193267064Y-81561000D02*
X192812936Y-81561000D01*
%TO.C,R7*%
X118222500Y-69897258D02*
X118222500Y-69422742D01*
X119267500Y-69897258D02*
X119267500Y-69422742D01*
%TO.C,C4*%
X155214836Y-101444000D02*
X154999164Y-101444000D01*
X155214836Y-100724000D02*
X154999164Y-100724000D01*
%TO.C,R17*%
X151763742Y-116139500D02*
X152238258Y-116139500D01*
X151763742Y-117184500D02*
X152238258Y-117184500D01*
%TO.C,R15*%
X128538500Y-114633742D02*
X128538500Y-115108258D01*
X127493500Y-114633742D02*
X127493500Y-115108258D01*
%TO.C,R1*%
X141240742Y-74153500D02*
X141715258Y-74153500D01*
X141240742Y-75198500D02*
X141715258Y-75198500D01*
%TO.C,R4*%
X138446742Y-83297500D02*
X138921258Y-83297500D01*
X138446742Y-84342500D02*
X138921258Y-84342500D01*
D12*
%TO.C,L2*%
X130128000Y-118411000D02*
X132588000Y-118411000D01*
X137668000Y-118411000D02*
X140128000Y-118411000D01*
X140128000Y-118411000D02*
X140128000Y-106911000D01*
X130128000Y-106911000D02*
X130128000Y-118411000D01*
X132588000Y-106911000D02*
X130128000Y-106911000D01*
X140128000Y-106911000D02*
X137668000Y-106911000D01*
D13*
%TO.C,J4*%
X196437000Y-84230000D02*
X194737000Y-84230000D01*
X196437000Y-93570000D02*
X194737000Y-93570000D01*
%TO.C,R3*%
X138667258Y-75198500D02*
X138192742Y-75198500D01*
X138667258Y-74153500D02*
X138192742Y-74153500D01*
%TO.C,U1*%
X157423000Y-98864000D02*
X157423000Y-97914000D01*
X157423000Y-89594000D02*
X158763000Y-89594000D01*
X157423000Y-88644000D02*
X157423000Y-89594000D01*
X156473000Y-98864000D02*
X157423000Y-98864000D01*
X156473000Y-88644000D02*
X157423000Y-88644000D01*
X148153000Y-98864000D02*
X147203000Y-98864000D01*
X148153000Y-88644000D02*
X147203000Y-88644000D01*
X147203000Y-98864000D02*
X147203000Y-97914000D01*
X147203000Y-88644000D02*
X147203000Y-89594000D01*
%TO.C,R14*%
X155286258Y-117184500D02*
X154811742Y-117184500D01*
X155286258Y-116139500D02*
X154811742Y-116139500D01*
%TO.C,C11*%
X161055000Y-95388164D02*
X161055000Y-95603836D01*
X160335000Y-95388164D02*
X160335000Y-95603836D01*
%TO.C,C9*%
X138096164Y-84730000D02*
X138311836Y-84730000D01*
X138096164Y-85450000D02*
X138311836Y-85450000D01*
%TO.C,R6*%
X151908742Y-100823500D02*
X152383258Y-100823500D01*
X151908742Y-101868500D02*
X152383258Y-101868500D01*
%TO.C,C15*%
X119099000Y-113593748D02*
X119099000Y-114116252D01*
X117629000Y-113593748D02*
X117629000Y-114116252D01*
%TO.C,D3*%
X196464000Y-81318000D02*
X199149000Y-81318000D01*
X196464000Y-83238000D02*
X196464000Y-81318000D01*
X199149000Y-83238000D02*
X196464000Y-83238000D01*
%TO.C,U2*%
X142514000Y-79248000D02*
X142514000Y-77298000D01*
X142514000Y-79248000D02*
X142514000Y-81198000D01*
X137394000Y-79248000D02*
X137394000Y-75798000D01*
X137394000Y-79248000D02*
X137394000Y-81198000D01*
%TO.C,R13*%
X158111500Y-115662742D02*
X158111500Y-116137258D01*
X157066500Y-115662742D02*
X157066500Y-116137258D01*
%TO.C,C14*%
X148672000Y-112844748D02*
X148672000Y-113367252D01*
X147202000Y-112844748D02*
X147202000Y-113367252D01*
%TO.C,R8*%
X119480000Y-124867936D02*
X119480000Y-125322064D01*
X118010000Y-124867936D02*
X118010000Y-125322064D01*
%TO.C,D8*%
X121319000Y-118625000D02*
X118634000Y-118625000D01*
X121319000Y-116705000D02*
X121319000Y-118625000D01*
X118634000Y-116705000D02*
X121319000Y-116705000D01*
%TO.C,C16*%
X157079000Y-110452580D02*
X157079000Y-110171420D01*
X158099000Y-110452580D02*
X158099000Y-110171420D01*
%TO.C,C5*%
X147127000Y-100203836D02*
X147127000Y-99988164D01*
X147847000Y-100203836D02*
X147847000Y-99988164D01*
%TO.C,R2*%
X191530500Y-105172742D02*
X191530500Y-105647258D01*
X190485500Y-105172742D02*
X190485500Y-105647258D01*
%TO.C,R12*%
X195084258Y-96008500D02*
X194609742Y-96008500D01*
X195084258Y-94963500D02*
X194609742Y-94963500D01*
%TO.C,C13*%
X184013164Y-94408000D02*
X184228836Y-94408000D01*
X184013164Y-95128000D02*
X184228836Y-95128000D01*
%TO.C,R10*%
X195057500Y-82025258D02*
X195057500Y-81550742D01*
X196102500Y-82025258D02*
X196102500Y-81550742D01*
%TO.C,R16*%
X126221258Y-117933500D02*
X125746742Y-117933500D01*
X126221258Y-116888500D02*
X125746742Y-116888500D01*
%TO.C,C6*%
X144587000Y-90269836D02*
X144587000Y-90054164D01*
X145307000Y-90269836D02*
X145307000Y-90054164D01*
%TO.C,C1*%
X191360000Y-108372164D02*
X191360000Y-108587836D01*
X190640000Y-108372164D02*
X190640000Y-108587836D01*
%TO.C,D6*%
X119426000Y-106871000D02*
X124936000Y-106871000D01*
X119426000Y-110171000D02*
X119426000Y-106871000D01*
X119426000Y-110171000D02*
X124936000Y-110171000D01*
%TO.C,R5*%
X141969258Y-84342500D02*
X141494742Y-84342500D01*
X141969258Y-83297500D02*
X141494742Y-83297500D01*
%TO.C,D5*%
X149253000Y-106376000D02*
X154763000Y-106376000D01*
X149253000Y-109676000D02*
X149253000Y-106376000D01*
X149253000Y-109676000D02*
X154763000Y-109676000D01*
%TO.C,C8*%
X155507164Y-85992000D02*
X155722836Y-85992000D01*
X155507164Y-86712000D02*
X155722836Y-86712000D01*
%TO.C,C2*%
X149626836Y-101444000D02*
X149411164Y-101444000D01*
X149626836Y-100724000D02*
X149411164Y-100724000D01*
%TO.C,C3*%
X160039000Y-89292164D02*
X160039000Y-89507836D01*
X159319000Y-89292164D02*
X159319000Y-89507836D01*
%TO.C,FB1*%
X162954000Y-94506936D02*
X162954000Y-94961064D01*
X161484000Y-94506936D02*
X161484000Y-94961064D01*
D12*
%TO.C,L1*%
X158939000Y-118856000D02*
X161399000Y-118856000D01*
X166479000Y-118856000D02*
X168939000Y-118856000D01*
X168939000Y-118856000D02*
X168939000Y-107356000D01*
X158939000Y-107356000D02*
X158939000Y-118856000D01*
X161399000Y-107356000D02*
X158939000Y-107356000D01*
X168939000Y-107356000D02*
X166479000Y-107356000D01*
D13*
%TO.C,C7*%
X157539164Y-87262000D02*
X157754836Y-87262000D01*
X157539164Y-87982000D02*
X157754836Y-87982000D01*
%TO.C,D1*%
X117785000Y-67725000D02*
X117785000Y-65040000D01*
X119705000Y-67725000D02*
X117785000Y-67725000D01*
X119705000Y-65040000D02*
X119705000Y-67725000D01*
%TD*%
%LPC*%
D14*
%TO.C,J1*%
X104394000Y-94488000D03*
D15*
X104394000Y-91988000D03*
X104394000Y-89488000D03*
X104394000Y-86988000D03*
%TD*%
D16*
%TO.C,H4*%
X127600000Y-127500000D03*
X128302944Y-125802944D03*
X128302944Y-129197056D03*
X130000000Y-125100000D03*
D17*
X130000000Y-127500000D03*
D16*
X130000000Y-129900000D03*
X131697056Y-125802944D03*
X131697056Y-129197056D03*
X132400000Y-127500000D03*
%TD*%
D18*
%TO.C,J3*%
X92710000Y-118270000D03*
D15*
X92710000Y-120770000D03*
X92710000Y-123270000D03*
X92710000Y-125770000D03*
X92710000Y-128270000D03*
%TD*%
D19*
%TO.C,J5*%
X162052000Y-69422000D03*
D20*
X162052000Y-71922000D03*
X162052000Y-74422000D03*
%TD*%
D21*
%TO.C,Q1*%
X138684000Y-71734000D03*
D22*
X139954000Y-71734000D03*
X141224000Y-71734000D03*
%TD*%
D23*
%TO.C,REF\u002A\u002A*%
X74000000Y-134000000D03*
%TD*%
%TO.C,REF\u002A\u002A*%
X187900000Y-115000000D03*
%TD*%
%TO.C,REF\u002A\u002A*%
X187900000Y-85000000D03*
%TD*%
D24*
%TO.C,J8*%
X90170000Y-65532000D03*
D25*
X92670000Y-65532000D03*
X95170000Y-65532000D03*
%TD*%
D24*
%TO.C,J7*%
X90758000Y-136144000D03*
D25*
X93258000Y-136144000D03*
X95758000Y-136144000D03*
%TD*%
D26*
%TO.C,C18*%
X141000000Y-136000000D03*
D27*
X138500000Y-136000000D03*
%TD*%
D16*
%TO.C,H2*%
X147600000Y-72500000D03*
X148302944Y-70802944D03*
X148302944Y-74197056D03*
X150000000Y-70100000D03*
D17*
X150000000Y-72500000D03*
D16*
X150000000Y-74900000D03*
X151697056Y-70802944D03*
X151697056Y-74197056D03*
X152400000Y-72500000D03*
%TD*%
D28*
%TO.C,U5*%
X122174000Y-171270000D03*
X124714000Y-171270000D03*
X127254000Y-171270000D03*
X129794000Y-171270000D03*
X127254000Y-168730000D03*
X129794000Y-168730000D03*
%TD*%
D19*
%TO.C,J6*%
X162052000Y-125810000D03*
D20*
X162052000Y-128310000D03*
X162052000Y-130810000D03*
%TD*%
D16*
%TO.C,H3*%
X127600000Y-72500000D03*
X128302944Y-70802944D03*
X128302944Y-74197056D03*
X130000000Y-70100000D03*
D17*
X130000000Y-72500000D03*
D16*
X130000000Y-74900000D03*
X131697056Y-70802944D03*
X131697056Y-74197056D03*
X132400000Y-72500000D03*
%TD*%
D28*
%TO.C,U3*%
X129810000Y-28730000D03*
X127270000Y-28730000D03*
X124730000Y-28730000D03*
X122190000Y-28730000D03*
X124730000Y-31270000D03*
X122190000Y-31270000D03*
%TD*%
D14*
%TO.C,J2*%
X104394000Y-110363000D03*
D15*
X104394000Y-107863000D03*
X104394000Y-105363000D03*
X104394000Y-102863000D03*
%TD*%
D28*
%TO.C,U4*%
X130380000Y-60000000D03*
X132920000Y-60000000D03*
X135460000Y-60000000D03*
X138000000Y-60000000D03*
X138000000Y-52380000D03*
X135460000Y-52380000D03*
X132920000Y-52380000D03*
X130380000Y-52380000D03*
%TD*%
D26*
%TO.C,C19*%
X141000000Y-127508000D03*
D27*
X138500000Y-127508000D03*
%TD*%
D29*
%TO.C,BZ1*%
X131400000Y-149000000D03*
D30*
X139000000Y-149000000D03*
%TD*%
D23*
%TO.C,REF\u002A\u002A*%
X74000000Y-66000000D03*
%TD*%
D16*
%TO.C,H1*%
X147600000Y-127500000D03*
X148302944Y-125802944D03*
X148302944Y-129197056D03*
X150000000Y-125100000D03*
D17*
X150000000Y-127500000D03*
D16*
X150000000Y-129900000D03*
X151697056Y-125802944D03*
X151697056Y-129197056D03*
X152400000Y-127500000D03*
%TD*%
D31*
%TO.C,D2*%
X118745000Y-127967500D03*
X118745000Y-129842500D03*
%TD*%
D32*
%TO.C,C12*%
X184601000Y-89688000D03*
X183641000Y-89688000D03*
%TD*%
D33*
%TO.C,U8*%
X125982000Y-111928000D03*
X125982000Y-113198000D03*
X125982000Y-114468000D03*
X125982000Y-115738000D03*
X120582000Y-115738000D03*
X120582000Y-114468000D03*
X120582000Y-113198000D03*
X120582000Y-111928000D03*
D34*
X123282000Y-113833000D03*
%TD*%
D35*
%TO.C,C10*%
X159679000Y-95016000D03*
X159679000Y-95976000D03*
%TD*%
D36*
%TO.C,D7*%
X149636500Y-116916000D03*
X147761500Y-116916000D03*
%TD*%
D37*
%TO.C,C17*%
X128016000Y-112344000D03*
X128016000Y-110794000D03*
%TD*%
D38*
%TO.C,D4*%
X197211500Y-95486000D03*
X199086500Y-95486000D03*
%TD*%
D39*
%TO.C,R9*%
X190754000Y-93622500D03*
X190754000Y-91797500D03*
%TD*%
D40*
%TO.C,U6*%
X188468000Y-91218000D03*
X188468000Y-91718000D03*
X188468000Y-92218000D03*
X188468000Y-92718000D03*
X188468000Y-93218000D03*
X184068000Y-93218000D03*
X184068000Y-92718000D03*
X184068000Y-92218000D03*
X184068000Y-91718000D03*
X184068000Y-91218000D03*
%TD*%
D41*
%TO.C,R18*%
X122111000Y-117411000D03*
X123761000Y-117411000D03*
%TD*%
D33*
%TO.C,U7*%
X155555000Y-111179000D03*
X155555000Y-112449000D03*
X155555000Y-113719000D03*
X155555000Y-114989000D03*
X150155000Y-114989000D03*
X150155000Y-113719000D03*
X150155000Y-112449000D03*
X150155000Y-111179000D03*
D34*
X152855000Y-113084000D03*
%TD*%
D42*
%TO.C,R11*%
X193952500Y-82296000D03*
X192127500Y-82296000D03*
%TD*%
D43*
%TO.C,R7*%
X118745000Y-70485000D03*
X118745000Y-68835000D03*
%TD*%
D44*
%TO.C,SW1*%
X194500000Y-110000000D03*
X194500000Y-117000000D03*
D28*
X197000000Y-111000000D03*
X197000000Y-116000000D03*
%TD*%
D32*
%TO.C,C4*%
X155587000Y-101084000D03*
X154627000Y-101084000D03*
%TD*%
D41*
%TO.C,R17*%
X151176000Y-116662000D03*
X152826000Y-116662000D03*
%TD*%
D45*
%TO.C,R15*%
X128016000Y-114046000D03*
X128016000Y-115696000D03*
%TD*%
D41*
%TO.C,R1*%
X140653000Y-74676000D03*
X142303000Y-74676000D03*
%TD*%
%TO.C,R4*%
X137859000Y-83820000D03*
X139509000Y-83820000D03*
%TD*%
D46*
%TO.C,L2*%
X135128000Y-107911000D03*
X135128000Y-117411000D03*
%TD*%
D47*
%TO.C,J4*%
X197612000Y-84580000D03*
D48*
X193432000Y-84580000D03*
D47*
X197612000Y-93220000D03*
D48*
X193432000Y-93220000D03*
D49*
X192857000Y-85700000D03*
X192857000Y-86500000D03*
D50*
X192857000Y-87650000D03*
X192857000Y-88650000D03*
X192857000Y-89150000D03*
X192857000Y-90150000D03*
D49*
X192857000Y-91300000D03*
X192857000Y-92100000D03*
X192857000Y-92100000D03*
X192857000Y-91300000D03*
D50*
X192857000Y-90650000D03*
X192857000Y-89650000D03*
X192857000Y-88150000D03*
X192857000Y-87150000D03*
D49*
X192857000Y-86500000D03*
X192857000Y-85700000D03*
%TD*%
D51*
%TO.C,R3*%
X139255000Y-74676000D03*
X137605000Y-74676000D03*
%TD*%
D44*
%TO.C,SW2*%
X194500000Y-99000000D03*
X194500000Y-106000000D03*
D28*
X197000000Y-100000000D03*
X197000000Y-105000000D03*
%TD*%
D52*
%TO.C,U1*%
X157988000Y-90004000D03*
X157988000Y-90504000D03*
X157988000Y-91004000D03*
X157988000Y-91504000D03*
X157988000Y-92004000D03*
X157988000Y-92504000D03*
X157988000Y-93004000D03*
X157988000Y-93504000D03*
X157988000Y-94004000D03*
X157988000Y-94504000D03*
X157988000Y-95004000D03*
X157988000Y-95504000D03*
X157988000Y-96004000D03*
X157988000Y-96504000D03*
X157988000Y-97004000D03*
X157988000Y-97504000D03*
D53*
X156063000Y-99429000D03*
X155563000Y-99429000D03*
X155063000Y-99429000D03*
X154563000Y-99429000D03*
X154063000Y-99429000D03*
X153563000Y-99429000D03*
X153063000Y-99429000D03*
X152563000Y-99429000D03*
X152063000Y-99429000D03*
X151563000Y-99429000D03*
X151063000Y-99429000D03*
X150563000Y-99429000D03*
X150063000Y-99429000D03*
X149563000Y-99429000D03*
X149063000Y-99429000D03*
X148563000Y-99429000D03*
D52*
X146638000Y-97504000D03*
X146638000Y-97004000D03*
X146638000Y-96504000D03*
X146638000Y-96004000D03*
X146638000Y-95504000D03*
X146638000Y-95004000D03*
X146638000Y-94504000D03*
X146638000Y-94004000D03*
X146638000Y-93504000D03*
X146638000Y-93004000D03*
X146638000Y-92504000D03*
X146638000Y-92004000D03*
X146638000Y-91504000D03*
X146638000Y-91004000D03*
X146638000Y-90504000D03*
X146638000Y-90004000D03*
D53*
X148563000Y-88079000D03*
X149063000Y-88079000D03*
X149563000Y-88079000D03*
X150063000Y-88079000D03*
X150563000Y-88079000D03*
X151063000Y-88079000D03*
X151563000Y-88079000D03*
X152063000Y-88079000D03*
X152563000Y-88079000D03*
X153063000Y-88079000D03*
X153563000Y-88079000D03*
X154063000Y-88079000D03*
X154563000Y-88079000D03*
X155063000Y-88079000D03*
X155563000Y-88079000D03*
X156063000Y-88079000D03*
%TD*%
D51*
%TO.C,R14*%
X155874000Y-116662000D03*
X154224000Y-116662000D03*
%TD*%
D35*
%TO.C,C11*%
X160695000Y-95016000D03*
X160695000Y-95976000D03*
%TD*%
D54*
%TO.C,C9*%
X137724000Y-85090000D03*
X138684000Y-85090000D03*
%TD*%
D41*
%TO.C,R6*%
X151321000Y-101346000D03*
X152971000Y-101346000D03*
%TD*%
D55*
%TO.C,C15*%
X118364000Y-112905000D03*
X118364000Y-114805000D03*
%TD*%
D38*
%TO.C,D3*%
X197211500Y-82278000D03*
X199086500Y-82278000D03*
%TD*%
D56*
%TO.C,U2*%
X138049000Y-76623000D03*
X139319000Y-76623000D03*
X140589000Y-76623000D03*
X141859000Y-76623000D03*
X141859000Y-81873000D03*
X140589000Y-81873000D03*
X139319000Y-81873000D03*
X138049000Y-81873000D03*
%TD*%
D45*
%TO.C,R13*%
X157589000Y-115075000D03*
X157589000Y-116725000D03*
%TD*%
D55*
%TO.C,C14*%
X147937000Y-112156000D03*
X147937000Y-114056000D03*
%TD*%
D57*
%TO.C,R8*%
X118745000Y-124182500D03*
X118745000Y-126007500D03*
%TD*%
D36*
%TO.C,D8*%
X120571500Y-117665000D03*
X118696500Y-117665000D03*
%TD*%
D37*
%TO.C,C16*%
X157589000Y-111087000D03*
X157589000Y-109537000D03*
%TD*%
D58*
%TO.C,C5*%
X147487000Y-100576000D03*
X147487000Y-99616000D03*
%TD*%
D45*
%TO.C,R2*%
X191008000Y-104585000D03*
X191008000Y-106235000D03*
%TD*%
D51*
%TO.C,R12*%
X195672000Y-95486000D03*
X194022000Y-95486000D03*
%TD*%
D54*
%TO.C,C13*%
X183641000Y-94768000D03*
X184601000Y-94768000D03*
%TD*%
D43*
%TO.C,R10*%
X195580000Y-82613000D03*
X195580000Y-80963000D03*
%TD*%
D51*
%TO.C,R16*%
X126809000Y-117411000D03*
X125159000Y-117411000D03*
%TD*%
D58*
%TO.C,C6*%
X144947000Y-90642000D03*
X144947000Y-89682000D03*
%TD*%
D35*
%TO.C,C1*%
X191000000Y-108000000D03*
X191000000Y-108960000D03*
%TD*%
D59*
%TO.C,D6*%
X120936000Y-108521000D03*
X124936000Y-108521000D03*
%TD*%
D51*
%TO.C,R5*%
X142557000Y-83820000D03*
X140907000Y-83820000D03*
%TD*%
D59*
%TO.C,D5*%
X150763000Y-108026000D03*
X154763000Y-108026000D03*
%TD*%
D54*
%TO.C,C8*%
X155135000Y-86352000D03*
X156095000Y-86352000D03*
%TD*%
D32*
%TO.C,C2*%
X149999000Y-101084000D03*
X149039000Y-101084000D03*
%TD*%
D35*
%TO.C,C3*%
X159679000Y-88920000D03*
X159679000Y-89880000D03*
%TD*%
D57*
%TO.C,FB1*%
X162219000Y-93821500D03*
X162219000Y-95646500D03*
%TD*%
D46*
%TO.C,L1*%
X163939000Y-108356000D03*
X163939000Y-117856000D03*
%TD*%
D54*
%TO.C,C7*%
X157167000Y-87622000D03*
X158127000Y-87622000D03*
%TD*%
D60*
%TO.C,D1*%
X118745000Y-66977500D03*
X118745000Y-65102500D03*
%TD*%
%LPD*%
M02*
