%TF.GenerationSoftware,KiCad,Pcbnew,7.0.9*%
%TF.CreationDate,2025-01-29T15:25:45+09:00*%
%TF.ProjectId,01-MAIN,30312d4d-4149-44e2-9e6b-696361645f70,rev?*%
%TF.SameCoordinates,Original*%
%TF.FileFunction,Soldermask,Top*%
%TF.FilePolarity,Negative*%
%FSLAX46Y46*%
G04 Gerber Fmt 4.6, Leading zero omitted, Abs format (unit mm)*
G04 Created by KiCad (PCBNEW 7.0.9) date 2025-01-29 15:25:45*
%MOMM*%
%LPD*%
G01*
G04 APERTURE LIST*
G04 Aperture macros list*
%AMRoundRect*
0 Rectangle with rounded corners*
0 $1 Rounding radius*
0 $2 $3 $4 $5 $6 $7 $8 $9 X,Y pos of 4 corners*
0 Add a 4 corners polygon primitive as box body*
4,1,4,$2,$3,$4,$5,$6,$7,$8,$9,$2,$3,0*
0 Add four circle primitives for the rounded corners*
1,1,$1+$1,$2,$3*
1,1,$1+$1,$4,$5*
1,1,$1+$1,$6,$7*
1,1,$1+$1,$8,$9*
0 Add four rect primitives between the rounded corners*
20,1,$1+$1,$2,$3,$4,$5,0*
20,1,$1+$1,$4,$5,$6,$7,0*
20,1,$1+$1,$6,$7,$8,$9,0*
20,1,$1+$1,$8,$9,$2,$3,0*%
G04 Aperture macros list end*
%ADD10RoundRect,0.250000X0.725000X-0.600000X0.725000X0.600000X-0.725000X0.600000X-0.725000X-0.600000X0*%
%ADD11O,1.950000X1.700000*%
%ADD12C,0.800000*%
%ADD13C,6.400000*%
%ADD14RoundRect,0.250000X-0.725000X0.600000X-0.725000X-0.600000X0.725000X-0.600000X0.725000X0.600000X0*%
%ADD15RoundRect,0.250000X-0.675000X0.600000X-0.675000X-0.600000X0.675000X-0.600000X0.675000X0.600000X0*%
%ADD16O,1.850000X1.700000*%
%ADD17R,1.050000X1.500000*%
%ADD18O,1.050000X1.500000*%
%ADD19C,3.200000*%
%ADD20RoundRect,0.250000X-0.600000X-0.675000X0.600000X-0.675000X0.600000X0.675000X-0.600000X0.675000X0*%
%ADD21O,1.700000X1.850000*%
%ADD22R,1.600000X1.600000*%
%ADD23C,1.600000*%
%ADD24C,1.524000*%
%ADD25R,2.000000X2.000000*%
%ADD26C,2.000000*%
%ADD27C,2.200000*%
%ADD28O,1.800000X1.000000*%
%ADD29O,2.100000X1.000000*%
G04 APERTURE END LIST*
D10*
%TO.C,J1*%
X104394000Y-94488000D03*
D11*
X104394000Y-91988000D03*
X104394000Y-89488000D03*
X104394000Y-86988000D03*
%TD*%
D12*
%TO.C,H4*%
X127600000Y-127500000D03*
X128302944Y-125802944D03*
X128302944Y-129197056D03*
X130000000Y-125100000D03*
D13*
X130000000Y-127500000D03*
D12*
X130000000Y-129900000D03*
X131697056Y-125802944D03*
X131697056Y-129197056D03*
X132400000Y-127500000D03*
%TD*%
D14*
%TO.C,J3*%
X92710000Y-118270000D03*
D11*
X92710000Y-120770000D03*
X92710000Y-123270000D03*
X92710000Y-125770000D03*
X92710000Y-128270000D03*
%TD*%
D15*
%TO.C,J5*%
X162052000Y-69422000D03*
D16*
X162052000Y-71922000D03*
X162052000Y-74422000D03*
%TD*%
D17*
%TO.C,Q1*%
X138684000Y-71734000D03*
D18*
X139954000Y-71734000D03*
X141224000Y-71734000D03*
%TD*%
D19*
%TO.C,REF\u002A\u002A*%
X74000000Y-134000000D03*
%TD*%
%TO.C,REF\u002A\u002A*%
X187900000Y-115000000D03*
%TD*%
%TO.C,REF\u002A\u002A*%
X187900000Y-85000000D03*
%TD*%
D20*
%TO.C,J8*%
X90170000Y-65532000D03*
D21*
X92670000Y-65532000D03*
X95170000Y-65532000D03*
%TD*%
D20*
%TO.C,J7*%
X90758000Y-136144000D03*
D21*
X93258000Y-136144000D03*
X95758000Y-136144000D03*
%TD*%
D22*
%TO.C,C18*%
X141000000Y-136000000D03*
D23*
X138500000Y-136000000D03*
%TD*%
D12*
%TO.C,H2*%
X147600000Y-72500000D03*
X148302944Y-70802944D03*
X148302944Y-74197056D03*
X150000000Y-70100000D03*
D13*
X150000000Y-72500000D03*
D12*
X150000000Y-74900000D03*
X151697056Y-70802944D03*
X151697056Y-74197056D03*
X152400000Y-72500000D03*
%TD*%
D24*
%TO.C,U5*%
X122174000Y-171270000D03*
X124714000Y-171270000D03*
X127254000Y-171270000D03*
X129794000Y-171270000D03*
X127254000Y-168730000D03*
X129794000Y-168730000D03*
%TD*%
D15*
%TO.C,J6*%
X162052000Y-125810000D03*
D16*
X162052000Y-128310000D03*
X162052000Y-130810000D03*
%TD*%
D12*
%TO.C,H3*%
X127600000Y-72500000D03*
X128302944Y-70802944D03*
X128302944Y-74197056D03*
X130000000Y-70100000D03*
D13*
X130000000Y-72500000D03*
D12*
X130000000Y-74900000D03*
X131697056Y-70802944D03*
X131697056Y-74197056D03*
X132400000Y-72500000D03*
%TD*%
D24*
%TO.C,U3*%
X129810000Y-28730000D03*
X127270000Y-28730000D03*
X124730000Y-28730000D03*
X122190000Y-28730000D03*
X124730000Y-31270000D03*
X122190000Y-31270000D03*
%TD*%
D10*
%TO.C,J2*%
X104394000Y-110363000D03*
D11*
X104394000Y-107863000D03*
X104394000Y-105363000D03*
X104394000Y-102863000D03*
%TD*%
D24*
%TO.C,U4*%
X130380000Y-60000000D03*
X132920000Y-60000000D03*
X135460000Y-60000000D03*
X138000000Y-60000000D03*
X138000000Y-52380000D03*
X135460000Y-52380000D03*
X132920000Y-52380000D03*
X130380000Y-52380000D03*
%TD*%
D22*
%TO.C,C19*%
X141000000Y-127508000D03*
D23*
X138500000Y-127508000D03*
%TD*%
D25*
%TO.C,BZ1*%
X131400000Y-149000000D03*
D26*
X139000000Y-149000000D03*
%TD*%
D19*
%TO.C,REF\u002A\u002A*%
X74000000Y-66000000D03*
%TD*%
D12*
%TO.C,H1*%
X147600000Y-127500000D03*
X148302944Y-125802944D03*
X148302944Y-129197056D03*
X150000000Y-125100000D03*
D13*
X150000000Y-127500000D03*
D12*
X150000000Y-129900000D03*
X151697056Y-125802944D03*
X151697056Y-129197056D03*
X152400000Y-127500000D03*
%TD*%
D27*
%TO.C,SW1*%
X194500000Y-110000000D03*
X194500000Y-117000000D03*
D24*
X197000000Y-111000000D03*
X197000000Y-116000000D03*
%TD*%
D28*
%TO.C,J4*%
X197612000Y-84580000D03*
D29*
X193432000Y-84580000D03*
D28*
X197612000Y-93220000D03*
D29*
X193432000Y-93220000D03*
%TD*%
D27*
%TO.C,SW2*%
X194500000Y-99000000D03*
X194500000Y-106000000D03*
D24*
X197000000Y-100000000D03*
X197000000Y-105000000D03*
%TD*%
M02*
