%TF.GenerationSoftware,KiCad,Pcbnew,7.0.9*%
%TF.CreationDate,2025-01-29T15:25:45+09:00*%
%TF.ProjectId,01-MAIN,30312d4d-4149-44e2-9e6b-696361645f70,rev?*%
%TF.SameCoordinates,Original*%
%TF.FileFunction,Copper,L1,Top*%
%TF.FilePolarity,Positive*%
%FSLAX46Y46*%
G04 Gerber Fmt 4.6, Leading zero omitted, Abs format (unit mm)*
G04 Created by KiCad (PCBNEW 7.0.9) date 2025-01-29 15:25:45*
%MOMM*%
%LPD*%
G01*
G04 APERTURE LIST*
G04 Aperture macros list*
%AMRoundRect*
0 Rectangle with rounded corners*
0 $1 Rounding radius*
0 $2 $3 $4 $5 $6 $7 $8 $9 X,Y pos of 4 corners*
0 Add a 4 corners polygon primitive as box body*
4,1,4,$2,$3,$4,$5,$6,$7,$8,$9,$2,$3,0*
0 Add four circle primitives for the rounded corners*
1,1,$1+$1,$2,$3*
1,1,$1+$1,$4,$5*
1,1,$1+$1,$6,$7*
1,1,$1+$1,$8,$9*
0 Add four rect primitives between the rounded corners*
20,1,$1+$1,$2,$3,$4,$5,0*
20,1,$1+$1,$4,$5,$6,$7,0*
20,1,$1+$1,$6,$7,$8,$9,0*
20,1,$1+$1,$8,$9,$2,$3,0*%
G04 Aperture macros list end*
%TA.AperFunction,ComponentPad*%
%ADD10RoundRect,0.250000X0.725000X-0.600000X0.725000X0.600000X-0.725000X0.600000X-0.725000X-0.600000X0*%
%TD*%
%TA.AperFunction,ComponentPad*%
%ADD11O,1.950000X1.700000*%
%TD*%
%TA.AperFunction,ComponentPad*%
%ADD12C,0.800000*%
%TD*%
%TA.AperFunction,ComponentPad*%
%ADD13C,6.400000*%
%TD*%
%TA.AperFunction,ComponentPad*%
%ADD14RoundRect,0.250000X-0.725000X0.600000X-0.725000X-0.600000X0.725000X-0.600000X0.725000X0.600000X0*%
%TD*%
%TA.AperFunction,ComponentPad*%
%ADD15RoundRect,0.250000X-0.675000X0.600000X-0.675000X-0.600000X0.675000X-0.600000X0.675000X0.600000X0*%
%TD*%
%TA.AperFunction,ComponentPad*%
%ADD16O,1.850000X1.700000*%
%TD*%
%TA.AperFunction,ComponentPad*%
%ADD17R,1.050000X1.500000*%
%TD*%
%TA.AperFunction,ComponentPad*%
%ADD18O,1.050000X1.500000*%
%TD*%
%TA.AperFunction,ComponentPad*%
%ADD19RoundRect,0.250000X-0.600000X-0.675000X0.600000X-0.675000X0.600000X0.675000X-0.600000X0.675000X0*%
%TD*%
%TA.AperFunction,ComponentPad*%
%ADD20O,1.700000X1.850000*%
%TD*%
%TA.AperFunction,ComponentPad*%
%ADD21R,1.600000X1.600000*%
%TD*%
%TA.AperFunction,ComponentPad*%
%ADD22C,1.600000*%
%TD*%
%TA.AperFunction,ComponentPad*%
%ADD23C,1.524000*%
%TD*%
%TA.AperFunction,ComponentPad*%
%ADD24R,2.000000X2.000000*%
%TD*%
%TA.AperFunction,ComponentPad*%
%ADD25C,2.000000*%
%TD*%
%TA.AperFunction,ComponentPad*%
%ADD26C,0.600000*%
%TD*%
%TA.AperFunction,SMDPad,CuDef*%
%ADD27R,2.950000X4.500000*%
%TD*%
%TA.AperFunction,ComponentPad*%
%ADD28C,2.200000*%
%TD*%
%TA.AperFunction,ComponentPad*%
%ADD29O,1.800000X1.000000*%
%TD*%
%TA.AperFunction,ComponentPad*%
%ADD30O,2.100000X1.000000*%
%TD*%
%TA.AperFunction,ViaPad*%
%ADD31C,0.800000*%
%TD*%
%TA.AperFunction,ViaPad*%
%ADD32C,0.500000*%
%TD*%
%TA.AperFunction,Conductor*%
%ADD33C,0.250000*%
%TD*%
%TA.AperFunction,Conductor*%
%ADD34C,0.200000*%
%TD*%
%TA.AperFunction,Conductor*%
%ADD35C,2.000000*%
%TD*%
%TA.AperFunction,Conductor*%
%ADD36C,3.000000*%
%TD*%
G04 APERTURE END LIST*
D10*
%TO.P,J1,1,Pin_1*%
%TO.N,+5V*%
X104394000Y-94488000D03*
D11*
%TO.P,J1,2,Pin_2*%
%TO.N,UART4_TX*%
X104394000Y-91988000D03*
%TO.P,J1,3,Pin_3*%
%TO.N,UART4_RX*%
X104394000Y-89488000D03*
%TO.P,J1,4,Pin_4*%
%TO.N,GND*%
X104394000Y-86988000D03*
%TD*%
D12*
%TO.P,H4,1,1*%
%TO.N,+5V*%
X127600000Y-127500000D03*
X128302944Y-125802944D03*
X128302944Y-129197056D03*
X130000000Y-125100000D03*
D13*
X130000000Y-127500000D03*
D12*
X130000000Y-129900000D03*
X131697056Y-125802944D03*
X131697056Y-129197056D03*
X132400000Y-127500000D03*
%TD*%
D14*
%TO.P,J3,1,Pin_1*%
%TO.N,+5V*%
X92710000Y-118270000D03*
D11*
%TO.P,J3,2,Pin_2*%
%TO.N,+3V3*%
X92710000Y-120770000D03*
%TO.P,J3,3,Pin_3*%
%TO.N,UART2_TX*%
X92710000Y-123270000D03*
%TO.P,J3,4,Pin_4*%
%TO.N,UART2_RX*%
X92710000Y-125770000D03*
%TO.P,J3,5,Pin_5*%
%TO.N,GND*%
X92710000Y-128270000D03*
%TD*%
D15*
%TO.P,J5,1,Pin_1*%
%TO.N,GND*%
X162052000Y-69422000D03*
D16*
%TO.P,J5,2,Pin_2*%
%TO.N,Net-(D7-A)*%
X162052000Y-71922000D03*
%TO.P,J5,3,Pin_3*%
%TO.N,STS_SIG*%
X162052000Y-74422000D03*
%TD*%
D17*
%TO.P,Q1,1,E*%
%TO.N,Net-(Q1-E)*%
X138684000Y-71734000D03*
D18*
%TO.P,Q1,2,C*%
%TO.N,+5V*%
X139954000Y-71734000D03*
%TO.P,Q1,3,B*%
%TO.N,Net-(Q1-B)*%
X141224000Y-71734000D03*
%TD*%
D19*
%TO.P,J8,1,Pin_1*%
%TO.N,GND*%
X90170000Y-65532000D03*
D20*
%TO.P,J8,2,Pin_2*%
%TO.N,Net-(D8-A)*%
X92670000Y-65532000D03*
%TO.P,J8,3,Pin_3*%
%TO.N,STS_SIG*%
X95170000Y-65532000D03*
%TD*%
D19*
%TO.P,J7,1,Pin_1*%
%TO.N,GND*%
X90758000Y-136144000D03*
D20*
%TO.P,J7,2,Pin_2*%
%TO.N,Net-(D8-A)*%
X93258000Y-136144000D03*
%TO.P,J7,3,Pin_3*%
%TO.N,STS_SIG*%
X95758000Y-136144000D03*
%TD*%
D21*
%TO.P,C18,1*%
%TO.N,Net-(D7-A)*%
X141000000Y-136000000D03*
D22*
%TO.P,C18,2*%
%TO.N,GND*%
X138500000Y-136000000D03*
%TD*%
D12*
%TO.P,H2,1,1*%
%TO.N,GND*%
X147600000Y-72500000D03*
X148302944Y-70802944D03*
X148302944Y-74197056D03*
X150000000Y-70100000D03*
D13*
X150000000Y-72500000D03*
D12*
X150000000Y-74900000D03*
X151697056Y-70802944D03*
X151697056Y-74197056D03*
X152400000Y-72500000D03*
%TD*%
D23*
%TO.P,U5,1,3V3*%
%TO.N,+3V3*%
X122174000Y-171270000D03*
%TO.P,U5,2,GND*%
%TO.N,GND*%
X124714000Y-171270000D03*
%TO.P,U5,3,SCL*%
%TO.N,I2C1_SCL*%
X127254000Y-171270000D03*
%TO.P,U5,4,SDA*%
%TO.N,I2C1_SDA*%
X129794000Y-171270000D03*
%TO.P,U5,5,XSHUT*%
%TO.N,XSHUT2*%
X127254000Y-168730000D03*
%TO.P,U5,6,GPIO*%
%TO.N,unconnected-(U5-GPIO-Pad6)*%
X129794000Y-168730000D03*
%TD*%
D15*
%TO.P,J6,1,Pin_1*%
%TO.N,GND*%
X162052000Y-125810000D03*
D16*
%TO.P,J6,2,Pin_2*%
%TO.N,Net-(D7-A)*%
X162052000Y-128310000D03*
%TO.P,J6,3,Pin_3*%
%TO.N,STS_SIG*%
X162052000Y-130810000D03*
%TD*%
D12*
%TO.P,H3,1,1*%
%TO.N,+3V3*%
X127600000Y-72500000D03*
X128302944Y-70802944D03*
X128302944Y-74197056D03*
X130000000Y-70100000D03*
D13*
X130000000Y-72500000D03*
D12*
X130000000Y-74900000D03*
X131697056Y-70802944D03*
X131697056Y-74197056D03*
X132400000Y-72500000D03*
%TD*%
D23*
%TO.P,U3,1,3V3*%
%TO.N,+3V3*%
X129810000Y-28730000D03*
%TO.P,U3,2,GND*%
%TO.N,GND*%
X127270000Y-28730000D03*
%TO.P,U3,3,SCL*%
%TO.N,I2C1_SCL*%
X124730000Y-28730000D03*
%TO.P,U3,4,SDA*%
%TO.N,I2C1_SDA*%
X122190000Y-28730000D03*
%TO.P,U3,5,XSHUT*%
%TO.N,XSHUT1*%
X124730000Y-31270000D03*
%TO.P,U3,6,GPIO*%
%TO.N,unconnected-(U3-GPIO-Pad6)*%
X122190000Y-31270000D03*
%TD*%
D10*
%TO.P,J2,1,Pin_1*%
%TO.N,+5V*%
X104394000Y-110363000D03*
D11*
%TO.P,J2,2,Pin_2*%
%TO.N,UART5_TX*%
X104394000Y-107863000D03*
%TO.P,J2,3,Pin_3*%
%TO.N,UART5_RX*%
X104394000Y-105363000D03*
%TO.P,J2,4,Pin_4*%
%TO.N,GND*%
X104394000Y-102863000D03*
%TD*%
D23*
%TO.P,U4,1,VIN*%
%TO.N,+3V3*%
X130380000Y-60000000D03*
%TO.P,U4,2,GND*%
%TO.N,GND*%
X132920000Y-60000000D03*
%TO.P,U4,3,SDA*%
%TO.N,I2C1_SDA*%
X135460000Y-60000000D03*
%TO.P,U4,4,SCL*%
%TO.N,I2C1_SCL*%
X138000000Y-60000000D03*
%TO.P,U4,5,RST*%
%TO.N,unconnected-(U4-RST-Pad5)*%
X138000000Y-52380000D03*
%TO.P,U4,6,INT*%
%TO.N,unconnected-(U4-INT-Pad6)*%
X135460000Y-52380000D03*
%TO.P,U4,7,GND*%
%TO.N,unconnected-(U4-GND-Pad7)*%
X132920000Y-52380000D03*
%TO.P,U4,8,VOUT*%
%TO.N,unconnected-(U4-VOUT-Pad8)*%
X130380000Y-52380000D03*
%TD*%
D21*
%TO.P,C19,1*%
%TO.N,Net-(D8-A)*%
X141000000Y-127508000D03*
D22*
%TO.P,C19,2*%
%TO.N,GND*%
X138500000Y-127508000D03*
%TD*%
D24*
%TO.P,BZ1,1,-*%
%TO.N,buzzer*%
X131400000Y-149000000D03*
D25*
%TO.P,BZ1,2,+*%
%TO.N,GND*%
X139000000Y-149000000D03*
%TD*%
D12*
%TO.P,H1,1,1*%
%TO.N,VDD*%
X147600000Y-127500000D03*
X148302944Y-125802944D03*
X148302944Y-129197056D03*
X150000000Y-125100000D03*
D13*
X150000000Y-127500000D03*
D12*
X150000000Y-129900000D03*
X151697056Y-125802944D03*
X151697056Y-129197056D03*
X152400000Y-127500000D03*
%TD*%
D26*
%TO.P,U8,9,GNDPAD*%
%TO.N,GND*%
X123882000Y-115633000D03*
X123882000Y-114533000D03*
X123882000Y-113233000D03*
X123882000Y-112033000D03*
D27*
X123282000Y-113833000D03*
D26*
X122682000Y-115633000D03*
X122682000Y-114533000D03*
X122682000Y-113233000D03*
X122682000Y-112033000D03*
%TD*%
%TO.P,U7,9,GNDPAD*%
%TO.N,GND*%
X153455000Y-114884000D03*
X153455000Y-113784000D03*
X153455000Y-112484000D03*
X153455000Y-111284000D03*
D27*
X152855000Y-113084000D03*
D26*
X152255000Y-114884000D03*
X152255000Y-113784000D03*
X152255000Y-112484000D03*
X152255000Y-111284000D03*
%TD*%
D28*
%TO.P,SW1,*%
%TO.N,*%
X194500000Y-110000000D03*
X194500000Y-117000000D03*
D23*
%TO.P,SW1,1,1*%
%TO.N,GND*%
X197000000Y-111000000D03*
%TO.P,SW1,2,2*%
%TO.N,NRST*%
X197000000Y-116000000D03*
%TD*%
D29*
%TO.P,J4,*%
%TO.N,*%
X197612000Y-84580000D03*
D30*
X193432000Y-84580000D03*
D29*
X197612000Y-93220000D03*
D30*
X193432000Y-93220000D03*
%TD*%
D28*
%TO.P,SW2,*%
%TO.N,*%
X194500000Y-99000000D03*
X194500000Y-106000000D03*
D23*
%TO.P,SW2,1,1*%
%TO.N,+3V3*%
X197000000Y-100000000D03*
%TO.P,SW2,2,2*%
%TO.N,BOOT0*%
X197000000Y-105000000D03*
%TD*%
D31*
%TO.N,buzzer*%
X140720299Y-117597701D03*
%TO.N,GND*%
X137000000Y-72000000D03*
X180086000Y-92456000D03*
X141224000Y-108966000D03*
X132080000Y-117602000D03*
X157734000Y-86106000D03*
X127000000Y-30480000D03*
X168148000Y-79502000D03*
X166370000Y-73152000D03*
X127000000Y-87630000D03*
X140970000Y-100965000D03*
X196596000Y-90678000D03*
X142748000Y-118618000D03*
X162560000Y-86360000D03*
X125000000Y-156000000D03*
X159512000Y-93980000D03*
X128524000Y-117602000D03*
X199136000Y-80518000D03*
X143510000Y-77470000D03*
X147828000Y-115316000D03*
X137922000Y-143002000D03*
X144526000Y-104902000D03*
X130048000Y-166370000D03*
X128905000Y-76835000D03*
X144145000Y-85090000D03*
X148556858Y-104868858D03*
X175260000Y-93980000D03*
X157988000Y-88900000D03*
X148590000Y-109728000D03*
X171196000Y-89916000D03*
X168148000Y-84582000D03*
X144018000Y-98044000D03*
X92000000Y-109000000D03*
X149606000Y-90932000D03*
X186182000Y-92964000D03*
X126492000Y-109982000D03*
X178562000Y-81026000D03*
X154432000Y-93726000D03*
X122936000Y-109728000D03*
X146812000Y-87376000D03*
X163576000Y-92456000D03*
X192024000Y-80772000D03*
X93000000Y-79000000D03*
X129540000Y-115062000D03*
X117856000Y-108204000D03*
X142875000Y-88265000D03*
X126365000Y-79375000D03*
%TO.N,NRST*%
X164000000Y-95000000D03*
X169000000Y-95000000D03*
%TO.N,+3V3*%
X140970000Y-88900000D03*
D32*
X163830000Y-93980000D03*
D31*
X97790000Y-118110000D03*
X143574500Y-90170000D03*
D32*
%TO.N,+5V*%
X139000000Y-78000000D03*
X116205000Y-94672683D03*
D31*
X167640000Y-88265000D03*
D32*
X136000000Y-85090000D03*
D31*
%TO.N,Net-(D7-A)*%
X148082000Y-119634000D03*
D32*
%TO.N,Net-(D8-A)*%
X140970000Y-118872000D03*
D31*
%TO.N,UART4_TX*%
X156000000Y-95000000D03*
%TO.N,UART4_RX*%
X156308319Y-96691681D03*
%TO.N,UART5_TX*%
X150975048Y-85975048D03*
%TO.N,UART5_RX*%
X154000000Y-84000000D03*
D32*
%TO.N,UART2_TX*%
X115242104Y-102601500D03*
D31*
X156000000Y-103000000D03*
%TO.N,UART2_RX*%
X154002107Y-103326500D03*
D32*
X114000000Y-104000000D03*
%TO.N,STS_SIG*%
X163195000Y-80645000D03*
X140000000Y-80000000D03*
X164465000Y-105410000D03*
D31*
%TO.N,BOOT0*%
X168275000Y-90775500D03*
X163830000Y-85090000D03*
D32*
%TO.N,XSHUT1*%
X153035000Y-97790000D03*
X144780000Y-86995000D03*
%TO.N,XSHUT2*%
X141605000Y-116205000D03*
%TO.N,UART1_TX*%
X181610000Y-93980000D03*
X153043875Y-96511125D03*
%TO.N,UART1_RX*%
X157413500Y-99695000D03*
X182245000Y-92075000D03*
%TO.N,I2C1_SCL*%
X126476895Y-70485000D03*
X141605000Y-107315000D03*
%TO.N,I2C1_SDA*%
X142875000Y-106045000D03*
X157480000Y-82480686D03*
X147320000Y-81915000D03*
%TD*%
D33*
%TO.N,buzzer*%
X136525000Y-143875000D02*
X131400000Y-149000000D01*
X136525000Y-121793000D02*
X136525000Y-143875000D01*
X140720299Y-117597701D02*
X136525000Y-121793000D01*
%TO.N,GND*%
X123282000Y-113833000D02*
X127051000Y-117602000D01*
D34*
X90170000Y-76170000D02*
X93000000Y-79000000D01*
X124714000Y-156286000D02*
X124714000Y-171270000D01*
X90170000Y-65532000D02*
X90170000Y-76170000D01*
X137000000Y-72000000D02*
X137000000Y-71543000D01*
D33*
X123282000Y-113630000D02*
X117856000Y-108204000D01*
X127051000Y-117602000D02*
X128524000Y-117602000D01*
D34*
X137000000Y-71543000D02*
X137000000Y-73000000D01*
X125000000Y-156000000D02*
X124714000Y-156286000D01*
D33*
X123282000Y-113833000D02*
X123282000Y-113630000D01*
X127270000Y-30210000D02*
X127000000Y-30480000D01*
X127270000Y-28730000D02*
X127270000Y-30210000D01*
%TO.N,NRST*%
X164000000Y-95000000D02*
X169000000Y-95000000D01*
D35*
%TO.N,+3V3*%
X98000000Y-75775000D02*
X101225001Y-79000001D01*
X123499999Y-79000001D02*
X130000000Y-72500000D01*
X88120000Y-63645000D02*
X89325000Y-62440000D01*
D33*
X197000000Y-98922370D02*
X197000000Y-100000000D01*
D34*
X140970000Y-88900000D02*
X142240000Y-90170000D01*
X125420000Y-60000000D02*
X123825000Y-61595000D01*
X124000000Y-169444000D02*
X124000000Y-155215950D01*
X123825000Y-34715000D02*
X123825000Y-71755000D01*
D35*
X89985000Y-120770000D02*
X89535000Y-120320000D01*
D34*
X124570000Y-72500000D02*
X130000000Y-72500000D01*
D35*
X101225001Y-79000001D02*
X123499999Y-79000001D01*
D34*
X123506000Y-154721950D02*
X123506000Y-131364578D01*
D35*
X92710000Y-120770000D02*
X89985000Y-120770000D01*
D33*
X189577630Y-91500000D02*
X197000000Y-98922370D01*
D35*
X89535000Y-120320000D02*
X89535000Y-108585000D01*
X89325000Y-62440000D02*
X96095000Y-62440000D01*
D34*
X123825000Y-61595000D02*
X123825000Y-71755000D01*
D35*
X98000000Y-64345000D02*
X98000000Y-75775000D01*
D34*
X124000000Y-155215950D02*
X123506000Y-154721950D01*
X110251422Y-118110000D02*
X97790000Y-118110000D01*
D35*
X96095000Y-62440000D02*
X98000000Y-64345000D01*
D33*
X166310000Y-91500000D02*
X189577630Y-91500000D01*
D34*
X142240000Y-90170000D02*
X143574500Y-90170000D01*
X130380000Y-60000000D02*
X125420000Y-60000000D01*
D35*
X88120000Y-107170000D02*
X88120000Y-63645000D01*
D34*
X122174000Y-171270000D02*
X124000000Y-169444000D01*
X123825000Y-71755000D02*
X124570000Y-72500000D01*
D33*
X163830000Y-93980000D02*
X166310000Y-91500000D01*
D34*
X129810000Y-28730000D02*
X123825000Y-34715000D01*
X123506000Y-131364578D02*
X110251422Y-118110000D01*
D35*
X89535000Y-108585000D02*
X88120000Y-107170000D01*
%TO.N,+5V*%
X103251000Y-95631000D02*
X104394000Y-94488000D01*
D34*
X139954000Y-77046000D02*
X139000000Y-78000000D01*
D33*
X167640000Y-86360000D02*
X162500000Y-81220000D01*
D34*
X139954000Y-71734000D02*
X139954000Y-77046000D01*
D35*
X104394000Y-110363000D02*
X103419000Y-110363000D01*
D33*
X100330000Y-83279618D02*
X100330000Y-92710000D01*
D36*
X130000000Y-127500000D02*
X112913000Y-110413000D01*
X112913000Y-110413000D02*
X104444000Y-110413000D01*
D33*
X116205000Y-94672683D02*
X116205000Y-94659351D01*
X167640000Y-88265000D02*
X167640000Y-86360000D01*
D35*
X102219000Y-109163000D02*
X102219000Y-96663000D01*
D33*
X125774351Y-85090000D02*
X136000000Y-85090000D01*
X100330000Y-92710000D02*
X103251000Y-95631000D01*
X162500000Y-81220000D02*
X102389618Y-81220000D01*
D35*
X102219000Y-96663000D02*
X103251000Y-95631000D01*
X103419000Y-110363000D02*
X102219000Y-109163000D01*
D33*
X102389618Y-81220000D02*
X100330000Y-83279618D01*
X116205000Y-94659351D02*
X125774351Y-85090000D01*
%TO.N,Net-(D7-A)*%
X144526000Y-123190000D02*
X148082000Y-119634000D01*
X144526000Y-132474000D02*
X144526000Y-123190000D01*
X141000000Y-136000000D02*
X144526000Y-132474000D01*
%TO.N,Net-(D8-A)*%
X141000000Y-118902000D02*
X141000000Y-127508000D01*
X140970000Y-118872000D02*
X141000000Y-118902000D01*
%TO.N,UART4_TX*%
X154300305Y-83275000D02*
X156000000Y-84974695D01*
X156000000Y-84974695D02*
X156000000Y-95000000D01*
X113107000Y-83275000D02*
X154300305Y-83275000D01*
X104394000Y-91988000D02*
X113107000Y-83275000D01*
%TO.N,UART4_RX*%
X111057000Y-82825000D02*
X104394000Y-89488000D01*
X156308319Y-96691681D02*
X156308319Y-95716986D01*
X156725000Y-95300305D02*
X156725000Y-84725000D01*
X154825000Y-82825000D02*
X111057000Y-82825000D01*
X156308319Y-95716986D02*
X156725000Y-95300305D01*
X156725000Y-84725000D02*
X154825000Y-82825000D01*
%TO.N,UART5_TX*%
X126257000Y-86000000D02*
X104394000Y-107863000D01*
X150950096Y-86000000D02*
X126257000Y-86000000D01*
X150975048Y-85975048D02*
X150950096Y-86000000D01*
%TO.N,UART5_RX*%
X154000000Y-84000000D02*
X125757000Y-84000000D01*
X125757000Y-84000000D02*
X104394000Y-105363000D01*
%TO.N,UART2_TX*%
X115242104Y-102601500D02*
X155601500Y-102601500D01*
X155601500Y-102601500D02*
X156000000Y-103000000D01*
%TO.N,UART2_RX*%
X154002107Y-103326500D02*
X115153500Y-103326500D01*
X115153500Y-103326500D02*
X114673500Y-103326500D01*
X114673500Y-103326500D02*
X114000000Y-104000000D01*
D34*
%TO.N,STS_SIG*%
X95170000Y-135556000D02*
X95758000Y-136144000D01*
X164465000Y-105410000D02*
X164465000Y-128397000D01*
X156474000Y-80000000D02*
X140000000Y-80000000D01*
X162052000Y-74422000D02*
X156474000Y-80000000D01*
X163195000Y-75565000D02*
X163195000Y-80645000D01*
X139355000Y-80645000D02*
X140000000Y-80000000D01*
X99060000Y-80645000D02*
X139355000Y-80645000D01*
X95170000Y-65532000D02*
X95170000Y-76755000D01*
X95170000Y-65532000D02*
X95170000Y-135556000D01*
X95170000Y-76755000D02*
X99060000Y-80645000D01*
X162052000Y-74422000D02*
X163195000Y-75565000D01*
X164465000Y-128397000D02*
X162052000Y-130810000D01*
D33*
%TO.N,BOOT0*%
X163830000Y-87630000D02*
X166975500Y-90775500D01*
X163830000Y-85090000D02*
X163830000Y-87630000D01*
X166975500Y-90775500D02*
X168275000Y-90775500D01*
D34*
%TO.N,XSHUT1*%
X146685000Y-88900000D02*
X146685000Y-91440000D01*
X144780000Y-86995000D02*
X146685000Y-88900000D01*
X146685000Y-91440000D02*
X153035000Y-97790000D01*
%TO.N,XSHUT2*%
X141605000Y-116205000D02*
X141123050Y-116205000D01*
X135890000Y-140970000D02*
X127254000Y-149606000D01*
X141123050Y-116205000D02*
X135890000Y-121438050D01*
X127254000Y-149606000D02*
X127254000Y-168730000D01*
X135890000Y-121438050D02*
X135890000Y-140970000D01*
%TO.N,UART1_TX*%
X175345000Y-100245000D02*
X181610000Y-93980000D01*
X156760000Y-100245000D02*
X175345000Y-100245000D01*
X153043875Y-96528875D02*
X156760000Y-100245000D01*
X153043875Y-96511125D02*
X153043875Y-96528875D01*
%TO.N,UART1_RX*%
X161925000Y-99695000D02*
X174625000Y-99695000D01*
X174625000Y-99695000D02*
X182245000Y-92075000D01*
X157413500Y-99695000D02*
X161925000Y-99695000D01*
%TO.N,I2C1_SCL*%
X140970000Y-107950000D02*
X141605000Y-107315000D01*
X126192000Y-136698000D02*
X135490000Y-127400000D01*
X136961895Y-60000000D02*
X138000000Y-60000000D01*
X135490000Y-127400000D02*
X135490000Y-113430000D01*
X135490000Y-113430000D02*
X140970000Y-107950000D01*
X126192000Y-170208000D02*
X126192000Y-136698000D01*
X126476895Y-70485000D02*
X136961895Y-60000000D01*
X127254000Y-171270000D02*
X126192000Y-170208000D01*
%TO.N,I2C1_SDA*%
X128000000Y-155000000D02*
X146500000Y-136500000D01*
X148782000Y-120458000D02*
X148782000Y-111952000D01*
X156914314Y-81915000D02*
X157480000Y-82480686D01*
X128000000Y-167974105D02*
X128000000Y-155000000D01*
X147320000Y-81915000D02*
X156914314Y-81915000D01*
X128004947Y-169480947D02*
X128316000Y-169169895D01*
X148782000Y-111952000D02*
X142875000Y-106045000D01*
X146500000Y-122740000D02*
X148782000Y-120458000D01*
X128316000Y-169169895D02*
X128316000Y-168290105D01*
X128316000Y-168290105D02*
X128000000Y-167974105D01*
X129794000Y-171270000D02*
X128004947Y-169480947D01*
X146500000Y-136500000D02*
X146500000Y-122740000D01*
%TD*%
%TA.AperFunction,Conductor*%
%TO.N,GND*%
G36*
X125765741Y-171968187D02*
G01*
X125765742Y-171968186D01*
X125811093Y-171903420D01*
X125811100Y-171903408D01*
X125871342Y-171774219D01*
X125917514Y-171721779D01*
X125984707Y-171702627D01*
X126051588Y-171722842D01*
X126096106Y-171774219D01*
X126156464Y-171903658D01*
X126156468Y-171903666D01*
X126283170Y-172084615D01*
X126283175Y-172084621D01*
X126439378Y-172240824D01*
X126439384Y-172240829D01*
X126620333Y-172367531D01*
X126620335Y-172367532D01*
X126620338Y-172367534D01*
X126820550Y-172460894D01*
X127033932Y-172518070D01*
X127191123Y-172531822D01*
X127253998Y-172537323D01*
X127254000Y-172537323D01*
X127254002Y-172537323D01*
X127309017Y-172532509D01*
X127474068Y-172518070D01*
X127687450Y-172460894D01*
X127887662Y-172367534D01*
X128068620Y-172240826D01*
X128224826Y-172084620D01*
X128351534Y-171903662D01*
X128411618Y-171774811D01*
X128457790Y-171722371D01*
X128524983Y-171703219D01*
X128591865Y-171723435D01*
X128636382Y-171774811D01*
X128696464Y-171903658D01*
X128696468Y-171903666D01*
X128823170Y-172084615D01*
X128823175Y-172084621D01*
X128979378Y-172240824D01*
X128979384Y-172240829D01*
X129160333Y-172367531D01*
X129160335Y-172367532D01*
X129160338Y-172367534D01*
X129360550Y-172460894D01*
X129573932Y-172518070D01*
X129731123Y-172531822D01*
X129793998Y-172537323D01*
X129794000Y-172537323D01*
X129794002Y-172537323D01*
X129849017Y-172532509D01*
X130014068Y-172518070D01*
X130227450Y-172460894D01*
X130427662Y-172367534D01*
X130608620Y-172240826D01*
X130764826Y-172084620D01*
X130773924Y-172071625D01*
X130828499Y-172028001D01*
X130897998Y-172020806D01*
X130960353Y-172052327D01*
X130995768Y-172112556D01*
X130999500Y-172142748D01*
X130999500Y-172875500D01*
X130979815Y-172942539D01*
X130927011Y-172988294D01*
X130875500Y-172999500D01*
X121124500Y-172999500D01*
X121057461Y-172979815D01*
X121011706Y-172927011D01*
X121000500Y-172875500D01*
X121000500Y-172181308D01*
X121020185Y-172114269D01*
X121072989Y-172068514D01*
X121142147Y-172058570D01*
X121205703Y-172087595D01*
X121212181Y-172093627D01*
X121359378Y-172240824D01*
X121359384Y-172240829D01*
X121540333Y-172367531D01*
X121540335Y-172367532D01*
X121540338Y-172367534D01*
X121740550Y-172460894D01*
X121953932Y-172518070D01*
X122111123Y-172531822D01*
X122173998Y-172537323D01*
X122174000Y-172537323D01*
X122174002Y-172537323D01*
X122229017Y-172532509D01*
X122394068Y-172518070D01*
X122607450Y-172460894D01*
X122807662Y-172367534D01*
X122988620Y-172240826D01*
X123144826Y-172084620D01*
X123271534Y-171903662D01*
X123331894Y-171774218D01*
X123378066Y-171721779D01*
X123445259Y-171702627D01*
X123512141Y-171722843D01*
X123556658Y-171774219D01*
X123616899Y-171903407D01*
X123616900Y-171903409D01*
X123662258Y-171968187D01*
X124329096Y-171301349D01*
X124329051Y-171301898D01*
X124360266Y-171425162D01*
X124429813Y-171531612D01*
X124530157Y-171609713D01*
X124650422Y-171651000D01*
X124686553Y-171651000D01*
X124015811Y-172321741D01*
X124080582Y-172367094D01*
X124080592Y-172367100D01*
X124280715Y-172460419D01*
X124280729Y-172460424D01*
X124494013Y-172517573D01*
X124494023Y-172517575D01*
X124713999Y-172536821D01*
X124714001Y-172536821D01*
X124933976Y-172517575D01*
X124933986Y-172517573D01*
X125147270Y-172460424D01*
X125147284Y-172460419D01*
X125347408Y-172367100D01*
X125347420Y-172367093D01*
X125412186Y-172321742D01*
X125412187Y-172321740D01*
X124741448Y-171651000D01*
X124745569Y-171651000D01*
X124839421Y-171635339D01*
X124951251Y-171574820D01*
X125037371Y-171481269D01*
X125088448Y-171364823D01*
X125094105Y-171296551D01*
X125765741Y-171968187D01*
G37*
%TD.AperFunction*%
%TA.AperFunction,Conductor*%
G36*
X88431704Y-61020185D02*
G01*
X88477459Y-61072989D01*
X88487403Y-61142147D01*
X88458378Y-61205703D01*
X88444803Y-61219125D01*
X88429251Y-61232296D01*
X88423087Y-61236892D01*
X88400215Y-61251835D01*
X88400212Y-61251838D01*
X88331552Y-61315044D01*
X88307870Y-61335102D01*
X88285934Y-61357038D01*
X88217261Y-61420257D01*
X88217256Y-61420262D01*
X88200472Y-61441826D01*
X88195383Y-61447589D01*
X87127588Y-62515382D01*
X87121827Y-62520471D01*
X87100256Y-62537262D01*
X87037049Y-62605922D01*
X87015102Y-62627869D01*
X87015098Y-62627874D01*
X86995033Y-62651564D01*
X86964641Y-62684578D01*
X86931834Y-62720216D01*
X86916892Y-62743087D01*
X86912297Y-62749250D01*
X86894635Y-62770104D01*
X86846860Y-62850278D01*
X86795828Y-62928390D01*
X86795824Y-62928397D01*
X86784853Y-62953409D01*
X86781335Y-62960244D01*
X86767348Y-62983717D01*
X86767343Y-62983726D01*
X86733420Y-63070663D01*
X86695935Y-63156123D01*
X86689226Y-63182616D01*
X86686881Y-63189935D01*
X86676953Y-63215379D01*
X86676948Y-63215395D01*
X86657801Y-63306711D01*
X86634892Y-63397175D01*
X86634890Y-63397185D01*
X86632635Y-63424408D01*
X86631526Y-63432016D01*
X86625920Y-63458750D01*
X86625919Y-63458763D01*
X86622062Y-63552009D01*
X86619500Y-63582936D01*
X86619500Y-63613964D01*
X86615642Y-63707219D01*
X86615642Y-63707220D01*
X86619023Y-63734342D01*
X86619500Y-63742018D01*
X86619500Y-107072981D01*
X86619024Y-107080656D01*
X86615643Y-107107779D01*
X86619500Y-107201035D01*
X86619500Y-107232064D01*
X86622062Y-107262990D01*
X86625918Y-107356233D01*
X86631526Y-107382983D01*
X86632635Y-107390590D01*
X86634891Y-107417818D01*
X86634891Y-107417819D01*
X86645693Y-107460475D01*
X86657801Y-107508288D01*
X86676951Y-107599614D01*
X86676952Y-107599616D01*
X86686882Y-107625067D01*
X86689227Y-107632387D01*
X86691837Y-107642694D01*
X86695937Y-107658881D01*
X86718406Y-107710105D01*
X86733420Y-107744335D01*
X86767344Y-107831275D01*
X86781332Y-107854750D01*
X86784852Y-107861588D01*
X86795825Y-107886604D01*
X86795827Y-107886607D01*
X86846860Y-107964720D01*
X86894634Y-108044894D01*
X86912296Y-108065747D01*
X86916887Y-108071904D01*
X86931836Y-108094785D01*
X86931837Y-108094786D01*
X86995033Y-108163435D01*
X87015100Y-108187129D01*
X87037049Y-108209078D01*
X87100257Y-108277739D01*
X87121822Y-108294524D01*
X87127587Y-108299615D01*
X87998181Y-109170209D01*
X88031666Y-109231532D01*
X88034500Y-109257890D01*
X88034500Y-120222981D01*
X88034024Y-120230651D01*
X88030643Y-120257779D01*
X88034500Y-120351035D01*
X88034500Y-120382067D01*
X88036018Y-120400386D01*
X88037062Y-120412990D01*
X88040918Y-120506233D01*
X88046526Y-120532983D01*
X88047635Y-120540590D01*
X88049891Y-120567818D01*
X88049891Y-120567819D01*
X88049892Y-120567821D01*
X88072801Y-120658288D01*
X88091951Y-120749614D01*
X88091952Y-120749616D01*
X88101882Y-120775067D01*
X88104227Y-120782387D01*
X88110937Y-120808881D01*
X88144887Y-120886280D01*
X88148420Y-120894335D01*
X88182344Y-120981275D01*
X88196332Y-121004750D01*
X88199852Y-121011588D01*
X88210825Y-121036604D01*
X88210827Y-121036607D01*
X88261860Y-121114720D01*
X88309634Y-121194894D01*
X88327296Y-121215747D01*
X88331887Y-121221904D01*
X88346836Y-121244785D01*
X88346837Y-121244786D01*
X88410033Y-121313435D01*
X88430100Y-121337129D01*
X88452049Y-121359078D01*
X88515257Y-121427739D01*
X88536822Y-121444524D01*
X88542587Y-121449615D01*
X88855384Y-121762412D01*
X88860473Y-121768174D01*
X88877262Y-121789744D01*
X88877264Y-121789746D01*
X88877265Y-121789747D01*
X88945921Y-121852950D01*
X88967866Y-121874894D01*
X88967874Y-121874902D01*
X88991564Y-121894966D01*
X89060215Y-121958164D01*
X89060217Y-121958165D01*
X89060218Y-121958166D01*
X89083086Y-121973106D01*
X89089250Y-121977702D01*
X89110106Y-121995366D01*
X89117408Y-121999717D01*
X89190278Y-122043139D01*
X89234082Y-122071757D01*
X89268393Y-122094173D01*
X89293412Y-122105147D01*
X89300243Y-122108663D01*
X89313315Y-122116452D01*
X89323720Y-122122653D01*
X89323730Y-122122658D01*
X89410663Y-122156579D01*
X89443607Y-122171029D01*
X89496119Y-122194063D01*
X89520908Y-122200340D01*
X89522609Y-122200771D01*
X89529932Y-122203116D01*
X89555386Y-122213049D01*
X89646702Y-122232196D01*
X89737179Y-122255108D01*
X89764415Y-122257364D01*
X89772018Y-122258471D01*
X89798763Y-122264080D01*
X89891994Y-122267936D01*
X89922933Y-122270500D01*
X89922935Y-122270500D01*
X89953974Y-122270500D01*
X90047221Y-122274357D01*
X90063914Y-122272276D01*
X90074342Y-122270977D01*
X90082018Y-122270500D01*
X91397999Y-122270500D01*
X91465038Y-122290185D01*
X91510793Y-122342989D01*
X91520737Y-122412147D01*
X91499574Y-122465624D01*
X91410965Y-122592170D01*
X91311098Y-122806335D01*
X91311094Y-122806344D01*
X91249938Y-123034586D01*
X91249936Y-123034596D01*
X91229341Y-123269999D01*
X91229341Y-123270000D01*
X91249936Y-123505403D01*
X91249938Y-123505413D01*
X91311094Y-123733655D01*
X91311096Y-123733659D01*
X91311097Y-123733663D01*
X91339430Y-123794422D01*
X91410964Y-123947828D01*
X91410965Y-123947830D01*
X91546505Y-124141402D01*
X91713597Y-124308494D01*
X91870595Y-124418425D01*
X91914220Y-124473002D01*
X91921414Y-124542500D01*
X91889891Y-124604855D01*
X91870595Y-124621575D01*
X91713597Y-124731505D01*
X91546506Y-124898597D01*
X91546501Y-124898604D01*
X91410967Y-125092165D01*
X91410965Y-125092169D01*
X91311098Y-125306335D01*
X91311094Y-125306344D01*
X91249938Y-125534586D01*
X91249936Y-125534596D01*
X91229341Y-125769999D01*
X91229341Y-125770000D01*
X91249936Y-126005403D01*
X91249938Y-126005413D01*
X91311094Y-126233655D01*
X91311096Y-126233659D01*
X91311097Y-126233663D01*
X91325338Y-126264202D01*
X91410964Y-126447828D01*
X91410965Y-126447830D01*
X91546505Y-126641402D01*
X91713597Y-126808494D01*
X91871031Y-126918730D01*
X91914656Y-126973307D01*
X91921850Y-127042805D01*
X91890327Y-127105160D01*
X91871032Y-127121880D01*
X91713922Y-127231890D01*
X91713920Y-127231891D01*
X91546894Y-127398917D01*
X91411399Y-127592421D01*
X91311570Y-127806507D01*
X91311567Y-127806513D01*
X91254364Y-128019999D01*
X91254364Y-128020000D01*
X92306031Y-128020000D01*
X92273481Y-128070649D01*
X92235000Y-128201705D01*
X92235000Y-128338295D01*
X92273481Y-128469351D01*
X92306031Y-128520000D01*
X91254364Y-128520000D01*
X91311567Y-128733486D01*
X91311570Y-128733492D01*
X91411399Y-128947577D01*
X91411400Y-128947579D01*
X91546886Y-129141073D01*
X91546891Y-129141079D01*
X91713920Y-129308108D01*
X91713926Y-129308113D01*
X91907420Y-129443599D01*
X91907422Y-129443600D01*
X92121507Y-129543429D01*
X92121516Y-129543433D01*
X92349678Y-129604568D01*
X92460000Y-129614219D01*
X92460000Y-128678018D01*
X92574801Y-128730446D01*
X92676025Y-128745000D01*
X92743975Y-128745000D01*
X92845199Y-128730446D01*
X92960000Y-128678018D01*
X92960000Y-129614219D01*
X93070320Y-129604568D01*
X93070323Y-129604568D01*
X93298483Y-129543433D01*
X93298492Y-129543429D01*
X93512577Y-129443600D01*
X93512579Y-129443599D01*
X93706073Y-129308113D01*
X93706079Y-129308108D01*
X93873105Y-129141082D01*
X94008600Y-128947578D01*
X94108429Y-128733492D01*
X94108432Y-128733486D01*
X94165636Y-128520000D01*
X93113969Y-128520000D01*
X93146519Y-128469351D01*
X93185000Y-128338295D01*
X93185000Y-128201705D01*
X93146519Y-128070649D01*
X93113969Y-128020000D01*
X94165636Y-128020000D01*
X94165635Y-128019999D01*
X94108432Y-127806513D01*
X94108429Y-127806507D01*
X94008600Y-127592422D01*
X94008599Y-127592420D01*
X93873113Y-127398926D01*
X93873108Y-127398920D01*
X93706079Y-127231891D01*
X93706073Y-127231886D01*
X93548967Y-127121880D01*
X93505342Y-127067303D01*
X93498148Y-126997805D01*
X93529671Y-126935450D01*
X93548960Y-126918735D01*
X93706401Y-126808495D01*
X93873495Y-126641401D01*
X94009035Y-126447830D01*
X94108903Y-126233663D01*
X94170063Y-126005408D01*
X94190659Y-125770000D01*
X94170063Y-125534592D01*
X94108903Y-125306337D01*
X94009035Y-125092171D01*
X94009034Y-125092169D01*
X93873494Y-124898597D01*
X93706403Y-124731506D01*
X93650187Y-124692144D01*
X93549401Y-124621573D01*
X93505778Y-124566999D01*
X93498584Y-124497500D01*
X93530106Y-124435145D01*
X93549398Y-124418428D01*
X93706401Y-124308495D01*
X93873495Y-124141401D01*
X94009035Y-123947830D01*
X94108903Y-123733663D01*
X94170063Y-123505408D01*
X94190659Y-123270000D01*
X94170063Y-123034592D01*
X94108903Y-122806337D01*
X94009035Y-122592171D01*
X94009034Y-122592169D01*
X93873494Y-122398597D01*
X93706403Y-122231506D01*
X93620032Y-122171029D01*
X93576407Y-122116452D01*
X93569213Y-122046954D01*
X93600736Y-121984599D01*
X93623337Y-121965643D01*
X93634785Y-121958164D01*
X93817738Y-121789744D01*
X93970474Y-121593509D01*
X94088828Y-121374810D01*
X94169571Y-121139614D01*
X94210500Y-120894335D01*
X94210500Y-120645665D01*
X94169571Y-120400386D01*
X94088828Y-120165190D01*
X93970474Y-119946491D01*
X93817738Y-119750256D01*
X93785584Y-119720656D01*
X93749594Y-119660768D01*
X93751695Y-119590930D01*
X93791220Y-119533315D01*
X93804463Y-119523894D01*
X93903656Y-119462712D01*
X94027712Y-119338656D01*
X94119814Y-119189334D01*
X94174999Y-119022797D01*
X94185500Y-118920009D01*
X94185499Y-117619992D01*
X94174999Y-117517203D01*
X94119814Y-117350666D01*
X94027712Y-117201344D01*
X93903656Y-117077288D01*
X93778512Y-117000099D01*
X93754336Y-116985187D01*
X93754331Y-116985185D01*
X93752862Y-116984698D01*
X93587797Y-116930001D01*
X93587795Y-116930000D01*
X93485010Y-116919500D01*
X91934998Y-116919500D01*
X91934981Y-116919501D01*
X91832203Y-116930000D01*
X91832200Y-116930001D01*
X91665668Y-116985185D01*
X91665663Y-116985187D01*
X91516342Y-117077289D01*
X91392289Y-117201342D01*
X91300187Y-117350663D01*
X91300185Y-117350668D01*
X91277206Y-117420016D01*
X91237433Y-117477461D01*
X91172917Y-117504284D01*
X91104142Y-117491969D01*
X91052942Y-117444426D01*
X91035500Y-117381012D01*
X91035500Y-108682018D01*
X91035977Y-108674342D01*
X91037276Y-108663914D01*
X91039357Y-108647221D01*
X91035500Y-108553973D01*
X91035500Y-108522933D01*
X91032936Y-108491994D01*
X91029080Y-108398763D01*
X91023471Y-108372018D01*
X91022364Y-108364415D01*
X91020108Y-108337179D01*
X90997196Y-108246702D01*
X90978049Y-108155386D01*
X90968116Y-108129932D01*
X90965771Y-108122609D01*
X90965340Y-108120908D01*
X90959063Y-108096119D01*
X90958479Y-108094786D01*
X90921579Y-108010663D01*
X90887658Y-107923730D01*
X90887653Y-107923720D01*
X90876784Y-107905481D01*
X90873663Y-107900243D01*
X90870147Y-107893412D01*
X90859173Y-107868393D01*
X90859172Y-107868392D01*
X90855649Y-107863000D01*
X90834922Y-107831274D01*
X90808139Y-107790278D01*
X90760365Y-107710105D01*
X90742704Y-107689253D01*
X90738106Y-107683086D01*
X90723166Y-107660218D01*
X90723165Y-107660217D01*
X90723164Y-107660215D01*
X90659966Y-107591564D01*
X90639902Y-107567874D01*
X90639894Y-107567866D01*
X90617950Y-107545921D01*
X90554747Y-107477265D01*
X90554746Y-107477264D01*
X90554744Y-107477262D01*
X90533174Y-107460473D01*
X90527412Y-107455384D01*
X89656819Y-106584791D01*
X89623334Y-106523468D01*
X89620500Y-106497110D01*
X89620500Y-67080999D01*
X89640185Y-67013960D01*
X89692989Y-66968205D01*
X89744500Y-66956999D01*
X89920000Y-66956999D01*
X89920000Y-65881607D01*
X90037031Y-65941238D01*
X90136549Y-65957000D01*
X90203451Y-65957000D01*
X90302969Y-65941238D01*
X90420000Y-65881607D01*
X90420000Y-66956999D01*
X90819972Y-66956999D01*
X90819986Y-66956998D01*
X90922697Y-66946505D01*
X91089119Y-66891358D01*
X91089124Y-66891356D01*
X91238345Y-66799315D01*
X91362315Y-66675345D01*
X91457815Y-66520516D01*
X91509763Y-66473792D01*
X91578726Y-66462569D01*
X91642808Y-66490413D01*
X91651035Y-66497931D01*
X91798599Y-66645495D01*
X91798602Y-66645497D01*
X91798603Y-66645498D01*
X91992165Y-66781032D01*
X91992167Y-66781033D01*
X91992170Y-66781035D01*
X92206337Y-66880903D01*
X92206343Y-66880904D01*
X92206344Y-66880905D01*
X92245356Y-66891358D01*
X92434592Y-66942063D01*
X92622918Y-66958539D01*
X92669999Y-66962659D01*
X92670000Y-66962659D01*
X92670001Y-66962659D01*
X92709234Y-66959226D01*
X92905408Y-66942063D01*
X93133663Y-66880903D01*
X93347829Y-66781035D01*
X93541401Y-66645495D01*
X93708495Y-66478401D01*
X93818426Y-66321401D01*
X93873001Y-66277778D01*
X93942500Y-66270584D01*
X94004855Y-66302106D01*
X94021571Y-66321398D01*
X94035529Y-66341332D01*
X94131506Y-66478403D01*
X94252186Y-66599082D01*
X94298599Y-66645495D01*
X94395384Y-66713265D01*
X94492165Y-66781032D01*
X94492167Y-66781033D01*
X94492170Y-66781035D01*
X94497898Y-66783706D01*
X94550339Y-66829872D01*
X94569500Y-66896090D01*
X94569500Y-76711571D01*
X94568969Y-76719673D01*
X94564318Y-76754999D01*
X94564318Y-76755000D01*
X94568969Y-76790326D01*
X94569500Y-76798427D01*
X94569500Y-135194212D01*
X94549815Y-135261251D01*
X94497011Y-135307006D01*
X94427853Y-135316950D01*
X94364297Y-135287925D01*
X94343925Y-135265336D01*
X94328403Y-135243168D01*
X94296495Y-135197599D01*
X94296493Y-135197597D01*
X94296491Y-135197594D01*
X94129402Y-135030506D01*
X94129395Y-135030501D01*
X94120990Y-135024616D01*
X94069118Y-134988294D01*
X93935834Y-134894967D01*
X93935830Y-134894965D01*
X93882003Y-134869865D01*
X93721663Y-134795097D01*
X93721659Y-134795096D01*
X93721655Y-134795094D01*
X93493413Y-134733938D01*
X93493403Y-134733936D01*
X93258001Y-134713341D01*
X93257999Y-134713341D01*
X93022596Y-134733936D01*
X93022586Y-134733938D01*
X92794344Y-134795094D01*
X92794335Y-134795098D01*
X92580171Y-134894964D01*
X92580169Y-134894965D01*
X92386597Y-135030505D01*
X92239035Y-135178068D01*
X92177712Y-135211553D01*
X92108020Y-135206569D01*
X92052087Y-135164697D01*
X92045815Y-135155484D01*
X91950315Y-135000654D01*
X91826345Y-134876684D01*
X91677124Y-134784643D01*
X91677119Y-134784641D01*
X91510697Y-134729494D01*
X91510690Y-134729493D01*
X91407986Y-134719000D01*
X91008000Y-134719000D01*
X91008000Y-135794392D01*
X90890969Y-135734762D01*
X90791451Y-135719000D01*
X90724549Y-135719000D01*
X90625031Y-135734762D01*
X90508000Y-135794392D01*
X90508000Y-134719000D01*
X90108028Y-134719000D01*
X90108012Y-134719001D01*
X90005302Y-134729494D01*
X89838880Y-134784641D01*
X89838875Y-134784643D01*
X89689654Y-134876684D01*
X89565684Y-135000654D01*
X89473643Y-135149875D01*
X89473641Y-135149880D01*
X89418494Y-135316302D01*
X89418493Y-135316309D01*
X89408000Y-135419013D01*
X89408000Y-135894000D01*
X90408393Y-135894000D01*
X90348762Y-136011031D01*
X90327702Y-136144000D01*
X90348762Y-136276969D01*
X90408393Y-136394000D01*
X89408001Y-136394000D01*
X89408001Y-136868986D01*
X89418494Y-136971697D01*
X89473641Y-137138119D01*
X89473643Y-137138124D01*
X89565684Y-137287345D01*
X89689654Y-137411315D01*
X89838875Y-137503356D01*
X89838880Y-137503358D01*
X90005302Y-137558505D01*
X90005309Y-137558506D01*
X90108019Y-137568999D01*
X90507999Y-137568999D01*
X90508000Y-137568998D01*
X90508000Y-136493607D01*
X90625031Y-136553238D01*
X90724549Y-136569000D01*
X90791451Y-136569000D01*
X90890969Y-136553238D01*
X91008000Y-136493607D01*
X91008000Y-137568999D01*
X91407972Y-137568999D01*
X91407986Y-137568998D01*
X91510697Y-137558505D01*
X91677119Y-137503358D01*
X91677124Y-137503356D01*
X91826345Y-137411315D01*
X91950315Y-137287345D01*
X92045815Y-137132516D01*
X92097763Y-137085792D01*
X92166726Y-137074569D01*
X92230808Y-137102413D01*
X92239035Y-137109931D01*
X92386599Y-137257495D01*
X92386602Y-137257497D01*
X92386603Y-137257498D01*
X92580165Y-137393032D01*
X92580167Y-137393033D01*
X92580170Y-137393035D01*
X92794337Y-137492903D01*
X92794343Y-137492904D01*
X92794344Y-137492905D01*
X92833356Y-137503358D01*
X93022592Y-137554063D01*
X93210918Y-137570539D01*
X93257999Y-137574659D01*
X93258000Y-137574659D01*
X93258001Y-137574659D01*
X93297234Y-137571226D01*
X93493408Y-137554063D01*
X93721663Y-137492903D01*
X93935829Y-137393035D01*
X94129401Y-137257495D01*
X94296495Y-137090401D01*
X94406426Y-136933401D01*
X94461001Y-136889778D01*
X94530500Y-136882584D01*
X94592855Y-136914106D01*
X94609571Y-136933398D01*
X94680144Y-137034187D01*
X94719506Y-137090403D01*
X94855368Y-137226264D01*
X94886599Y-137257495D01*
X94954395Y-137304966D01*
X95080165Y-137393032D01*
X95080167Y-137393033D01*
X95080170Y-137393035D01*
X95294337Y-137492903D01*
X95294343Y-137492904D01*
X95294344Y-137492905D01*
X95333356Y-137503358D01*
X95522592Y-137554063D01*
X95710918Y-137570539D01*
X95757999Y-137574659D01*
X95758000Y-137574659D01*
X95758001Y-137574659D01*
X95797234Y-137571226D01*
X95993408Y-137554063D01*
X96221663Y-137492903D01*
X96435829Y-137393035D01*
X96629401Y-137257495D01*
X96796495Y-137090401D01*
X96932035Y-136896829D01*
X97031903Y-136682663D01*
X97093063Y-136454408D01*
X97108500Y-136277966D01*
X97108500Y-136010034D01*
X97093063Y-135833592D01*
X97031903Y-135605337D01*
X96932035Y-135391171D01*
X96925535Y-135381887D01*
X96796494Y-135197597D01*
X96629402Y-135030506D01*
X96629395Y-135030501D01*
X96620990Y-135024616D01*
X96569118Y-134988294D01*
X96435834Y-134894967D01*
X96435830Y-134894965D01*
X96382003Y-134869865D01*
X96221663Y-134795097D01*
X96221659Y-134795096D01*
X96221655Y-134795094D01*
X95993413Y-134733938D01*
X95993403Y-134733936D01*
X95883691Y-134724337D01*
X95818623Y-134698884D01*
X95777645Y-134642292D01*
X95770500Y-134600809D01*
X95770500Y-78504097D01*
X95790185Y-78437058D01*
X95842989Y-78391303D01*
X95912147Y-78381359D01*
X95975703Y-78410384D01*
X95982181Y-78416416D01*
X98604669Y-81038904D01*
X98610020Y-81045005D01*
X98631718Y-81073282D01*
X98687246Y-81115890D01*
X98757159Y-81169536D01*
X98903238Y-81230044D01*
X98944506Y-81235477D01*
X99059999Y-81250682D01*
X99060000Y-81250682D01*
X99095329Y-81246030D01*
X99103428Y-81245500D01*
X101180166Y-81245500D01*
X101247205Y-81265185D01*
X101292960Y-81317989D01*
X101302904Y-81387147D01*
X101273879Y-81450703D01*
X101267847Y-81457181D01*
X99946208Y-82778817D01*
X99933951Y-82788638D01*
X99934134Y-82788859D01*
X99928123Y-82793831D01*
X99880772Y-82844254D01*
X99859889Y-82865137D01*
X99859877Y-82865150D01*
X99855621Y-82870635D01*
X99851837Y-82875065D01*
X99819937Y-82909036D01*
X99819936Y-82909038D01*
X99810284Y-82926594D01*
X99799610Y-82942844D01*
X99787329Y-82958679D01*
X99787324Y-82958686D01*
X99768815Y-83001456D01*
X99766245Y-83006702D01*
X99743803Y-83047524D01*
X99738822Y-83066925D01*
X99732521Y-83085328D01*
X99724562Y-83103720D01*
X99724561Y-83103723D01*
X99717271Y-83149745D01*
X99716087Y-83155464D01*
X99704501Y-83200590D01*
X99704500Y-83200600D01*
X99704500Y-83220634D01*
X99702973Y-83240033D01*
X99699840Y-83259812D01*
X99699840Y-83259813D01*
X99704225Y-83306201D01*
X99704500Y-83312039D01*
X99704500Y-92627255D01*
X99702775Y-92642872D01*
X99703061Y-92642899D01*
X99702326Y-92650665D01*
X99704500Y-92719814D01*
X99704500Y-92749343D01*
X99704501Y-92749360D01*
X99705368Y-92756231D01*
X99705826Y-92762050D01*
X99707290Y-92808624D01*
X99707291Y-92808627D01*
X99712880Y-92827867D01*
X99716824Y-92846911D01*
X99719336Y-92866792D01*
X99720895Y-92870729D01*
X99736490Y-92910119D01*
X99738382Y-92915647D01*
X99749792Y-92954920D01*
X99751382Y-92960390D01*
X99755840Y-92967929D01*
X99761580Y-92977634D01*
X99770136Y-92995100D01*
X99777514Y-93013732D01*
X99804898Y-93051423D01*
X99808106Y-93056307D01*
X99831827Y-93096416D01*
X99831833Y-93096424D01*
X99845990Y-93110580D01*
X99858627Y-93125375D01*
X99870406Y-93141587D01*
X99903620Y-93169064D01*
X99906309Y-93171288D01*
X99910620Y-93175210D01*
X101660010Y-94924601D01*
X101693494Y-94985922D01*
X101688510Y-95055614D01*
X101660009Y-95099961D01*
X101226588Y-95533382D01*
X101220827Y-95538471D01*
X101199256Y-95555262D01*
X101136049Y-95623922D01*
X101114102Y-95645869D01*
X101114098Y-95645874D01*
X101094033Y-95669564D01*
X101083771Y-95680712D01*
X101030834Y-95738216D01*
X101015892Y-95761087D01*
X101011297Y-95767250D01*
X100993635Y-95788104D01*
X100945860Y-95868278D01*
X100894828Y-95946390D01*
X100894824Y-95946397D01*
X100883853Y-95971409D01*
X100880335Y-95978244D01*
X100866348Y-96001717D01*
X100866343Y-96001726D01*
X100832420Y-96088663D01*
X100794935Y-96174123D01*
X100788226Y-96200616D01*
X100785881Y-96207935D01*
X100775953Y-96233379D01*
X100775948Y-96233395D01*
X100756801Y-96324711D01*
X100733892Y-96415175D01*
X100733890Y-96415185D01*
X100731635Y-96442408D01*
X100730526Y-96450016D01*
X100724920Y-96476750D01*
X100724919Y-96476763D01*
X100721062Y-96570009D01*
X100718500Y-96600936D01*
X100718500Y-96631964D01*
X100714642Y-96725219D01*
X100714642Y-96725220D01*
X100718023Y-96752342D01*
X100718500Y-96760018D01*
X100718500Y-109065981D01*
X100718024Y-109073656D01*
X100714643Y-109100779D01*
X100718500Y-109194035D01*
X100718500Y-109225064D01*
X100721062Y-109255990D01*
X100724918Y-109349233D01*
X100730526Y-109375983D01*
X100731635Y-109383590D01*
X100733891Y-109410818D01*
X100733891Y-109410819D01*
X100733892Y-109410821D01*
X100756801Y-109501288D01*
X100775951Y-109592614D01*
X100775952Y-109592616D01*
X100785882Y-109618067D01*
X100788227Y-109625387D01*
X100794937Y-109651881D01*
X100830597Y-109733179D01*
X100832420Y-109737335D01*
X100866344Y-109824275D01*
X100880332Y-109847750D01*
X100883852Y-109854588D01*
X100894825Y-109879604D01*
X100894827Y-109879607D01*
X100945860Y-109957720D01*
X100993634Y-110037894D01*
X101011296Y-110058747D01*
X101015887Y-110064904D01*
X101030836Y-110087785D01*
X101030837Y-110087786D01*
X101094033Y-110156435D01*
X101114100Y-110180129D01*
X101136049Y-110202078D01*
X101199257Y-110270739D01*
X101220822Y-110287524D01*
X101226587Y-110292615D01*
X102289384Y-111355412D01*
X102294473Y-111361174D01*
X102311262Y-111382744D01*
X102311264Y-111382746D01*
X102311265Y-111382747D01*
X102379921Y-111445950D01*
X102401866Y-111467894D01*
X102401874Y-111467902D01*
X102425564Y-111487966D01*
X102494215Y-111551164D01*
X102494217Y-111551165D01*
X102494218Y-111551166D01*
X102517086Y-111566106D01*
X102523250Y-111570702D01*
X102544106Y-111588366D01*
X102624272Y-111636134D01*
X102702393Y-111687173D01*
X102727414Y-111698148D01*
X102734245Y-111701664D01*
X102757726Y-111715655D01*
X102782124Y-111725175D01*
X102844651Y-111749574D01*
X102907116Y-111776973D01*
X102930119Y-111787063D01*
X102956613Y-111793772D01*
X102963922Y-111796113D01*
X102984103Y-111803987D01*
X102994167Y-111807915D01*
X102993502Y-111809618D01*
X103037972Y-111836106D01*
X103084866Y-111883000D01*
X103130602Y-111928736D01*
X103130612Y-111928745D01*
X103359682Y-112100224D01*
X103359690Y-112100229D01*
X103610833Y-112237364D01*
X103610832Y-112237364D01*
X103610836Y-112237365D01*
X103610839Y-112237367D01*
X103878954Y-112337369D01*
X103878960Y-112337370D01*
X103878962Y-112337371D01*
X104158566Y-112398195D01*
X104158568Y-112398195D01*
X104158572Y-112398196D01*
X104372552Y-112413500D01*
X112033004Y-112413500D01*
X112100043Y-112433185D01*
X112120685Y-112449819D01*
X126334144Y-126663278D01*
X126367629Y-126724601D01*
X126368936Y-126770356D01*
X126314722Y-127112658D01*
X126294422Y-127499999D01*
X126294422Y-127500000D01*
X126314722Y-127887339D01*
X126371923Y-128248492D01*
X126375398Y-128270433D01*
X126473923Y-128638136D01*
X126475788Y-128645094D01*
X126614787Y-129007197D01*
X126790877Y-129352793D01*
X127002122Y-129678082D01*
X127002124Y-129678084D01*
X127246219Y-129979516D01*
X127520484Y-130253781D01*
X127520488Y-130253784D01*
X127821917Y-130497877D01*
X127940039Y-130574586D01*
X128147211Y-130709125D01*
X128492806Y-130885214D01*
X128854913Y-131024214D01*
X129229567Y-131124602D01*
X129612662Y-131185278D01*
X129978576Y-131204455D01*
X129999999Y-131205578D01*
X130000000Y-131205578D01*
X130000001Y-131205578D01*
X130020301Y-131204514D01*
X130387338Y-131185278D01*
X130566654Y-131156877D01*
X130635946Y-131165831D01*
X130689398Y-131210828D01*
X130710038Y-131277579D01*
X130691313Y-131344893D01*
X130673732Y-131367031D01*
X125798096Y-136242668D01*
X125791994Y-136248019D01*
X125763716Y-136269719D01*
X125667464Y-136395157D01*
X125606956Y-136541237D01*
X125606955Y-136541239D01*
X125588338Y-136682655D01*
X125586318Y-136698000D01*
X125590856Y-136732472D01*
X125590969Y-136733326D01*
X125591500Y-136741428D01*
X125591500Y-170105612D01*
X125571815Y-170172651D01*
X125519011Y-170218406D01*
X125449853Y-170228350D01*
X125396377Y-170207187D01*
X125347415Y-170172903D01*
X125347407Y-170172899D01*
X125147284Y-170079580D01*
X125147270Y-170079575D01*
X124933986Y-170022426D01*
X124933976Y-170022424D01*
X124714001Y-170003179D01*
X124713998Y-170003179D01*
X124580790Y-170014833D01*
X124512290Y-170001066D01*
X124462107Y-169952451D01*
X124446174Y-169884422D01*
X124469549Y-169818579D01*
X124471608Y-169815818D01*
X124524535Y-169746842D01*
X124524534Y-169746842D01*
X124524536Y-169746841D01*
X124585044Y-169600762D01*
X124600500Y-169483361D01*
X124605682Y-169444000D01*
X124601030Y-169408669D01*
X124600500Y-169400571D01*
X124600500Y-155259378D01*
X124601031Y-155251276D01*
X124605682Y-155215949D01*
X124605682Y-155215948D01*
X124585044Y-155059189D01*
X124585044Y-155059188D01*
X124524536Y-154913109D01*
X124524535Y-154913108D01*
X124524535Y-154913107D01*
X124451463Y-154817877D01*
X124451448Y-154817859D01*
X124428281Y-154787667D01*
X124400013Y-154765976D01*
X124393917Y-154760631D01*
X124142819Y-154509533D01*
X124109334Y-154448210D01*
X124106500Y-154421852D01*
X124106500Y-131408005D01*
X124107031Y-131399904D01*
X124111682Y-131364578D01*
X124111682Y-131364576D01*
X124097923Y-131260070D01*
X124091044Y-131207816D01*
X124056576Y-131124602D01*
X124030537Y-131061738D01*
X124027621Y-131057939D01*
X124018006Y-131045408D01*
X123934282Y-130936296D01*
X123906005Y-130914598D01*
X123899904Y-130909247D01*
X117409082Y-124418425D01*
X110706742Y-117716085D01*
X110701402Y-117709995D01*
X110679704Y-117681718D01*
X110554263Y-117585464D01*
X110535724Y-117577785D01*
X110408184Y-117524956D01*
X110408182Y-117524955D01*
X110290783Y-117509500D01*
X110251422Y-117504318D01*
X110216092Y-117508969D01*
X110207994Y-117509500D01*
X98516258Y-117509500D01*
X98449219Y-117489815D01*
X98424109Y-117468473D01*
X98395871Y-117437112D01*
X98395864Y-117437106D01*
X98242734Y-117325851D01*
X98242729Y-117325848D01*
X98069807Y-117248857D01*
X98069802Y-117248855D01*
X97924001Y-117217865D01*
X97884646Y-117209500D01*
X97695354Y-117209500D01*
X97662897Y-117216398D01*
X97510197Y-117248855D01*
X97510192Y-117248857D01*
X97337270Y-117325848D01*
X97337265Y-117325851D01*
X97184129Y-117437111D01*
X97057466Y-117577785D01*
X96962821Y-117741715D01*
X96962818Y-117741722D01*
X96904327Y-117921740D01*
X96904326Y-117921744D01*
X96884540Y-118110000D01*
X96904326Y-118298256D01*
X96904327Y-118298259D01*
X96962818Y-118478277D01*
X96962821Y-118478284D01*
X97057467Y-118642216D01*
X97175095Y-118772855D01*
X97184129Y-118782888D01*
X97337265Y-118894148D01*
X97337270Y-118894151D01*
X97510192Y-118971142D01*
X97510197Y-118971144D01*
X97695354Y-119010500D01*
X97695355Y-119010500D01*
X97884644Y-119010500D01*
X97884646Y-119010500D01*
X98069803Y-118971144D01*
X98242730Y-118894151D01*
X98395871Y-118782888D01*
X98424109Y-118751527D01*
X98483595Y-118714879D01*
X98516258Y-118710500D01*
X109951325Y-118710500D01*
X110018364Y-118730185D01*
X110039006Y-118746819D01*
X113080006Y-121787819D01*
X113113491Y-121849142D01*
X113108507Y-121918834D01*
X113066635Y-121974767D01*
X113001171Y-121999184D01*
X112992325Y-121999500D01*
X102024856Y-121999500D01*
X102024703Y-121999469D01*
X102024703Y-121999478D01*
X102000000Y-121999457D01*
X101999756Y-121999559D01*
X101999616Y-121999617D01*
X101982558Y-122016635D01*
X101982357Y-122016934D01*
X99016995Y-124982295D01*
X99016819Y-124982413D01*
X98999616Y-124999616D01*
X98999457Y-124999995D01*
X98999461Y-125024665D01*
X98999500Y-125024855D01*
X98999500Y-138875500D01*
X98979815Y-138942539D01*
X98927011Y-138988294D01*
X98875500Y-138999500D01*
X70124500Y-138999500D01*
X70057461Y-138979815D01*
X70011706Y-138927011D01*
X70000500Y-138875500D01*
X70000500Y-134067763D01*
X72145787Y-134067763D01*
X72175413Y-134337013D01*
X72175415Y-134337024D01*
X72243926Y-134599082D01*
X72243928Y-134599088D01*
X72349870Y-134848390D01*
X72442719Y-135000528D01*
X72490979Y-135079605D01*
X72490986Y-135079615D01*
X72664253Y-135287819D01*
X72664259Y-135287824D01*
X72814222Y-135422191D01*
X72865998Y-135468582D01*
X73091910Y-135618044D01*
X73337176Y-135733020D01*
X73337183Y-135733022D01*
X73337185Y-135733023D01*
X73596557Y-135811057D01*
X73596564Y-135811058D01*
X73596569Y-135811060D01*
X73864561Y-135850500D01*
X73864566Y-135850500D01*
X74067636Y-135850500D01*
X74119133Y-135846730D01*
X74270156Y-135835677D01*
X74382758Y-135810593D01*
X74534546Y-135776782D01*
X74534548Y-135776781D01*
X74534553Y-135776780D01*
X74787558Y-135680014D01*
X75023777Y-135547441D01*
X75238177Y-135381888D01*
X75426186Y-135186881D01*
X75577138Y-134975889D01*
X77999416Y-134975889D01*
X77999459Y-135000001D01*
X77999500Y-135000099D01*
X77999616Y-135000382D01*
X77999618Y-135000384D01*
X77999808Y-135000462D01*
X78000000Y-135000541D01*
X78000002Y-135000539D01*
X78024616Y-135000524D01*
X78024616Y-135000528D01*
X78024760Y-135000500D01*
X87340240Y-135000500D01*
X87340383Y-135000528D01*
X87340384Y-135000524D01*
X87364997Y-135000539D01*
X87365000Y-135000541D01*
X87365383Y-135000383D01*
X87365500Y-135000099D01*
X87365541Y-135000000D01*
X87365540Y-134999997D01*
X87365583Y-134975889D01*
X87365500Y-134975467D01*
X87365500Y-117024759D01*
X87365528Y-117024616D01*
X87365524Y-117024616D01*
X87365539Y-117000002D01*
X87365541Y-117000000D01*
X87365462Y-116999808D01*
X87365384Y-116999618D01*
X87365382Y-116999616D01*
X87365099Y-116999500D01*
X87365000Y-116999459D01*
X87340446Y-116999459D01*
X87340240Y-116999500D01*
X78024760Y-116999500D01*
X78024554Y-116999459D01*
X78000000Y-116999459D01*
X77999901Y-116999500D01*
X77999617Y-116999616D01*
X77999615Y-116999618D01*
X77999459Y-116999999D01*
X77999476Y-117024616D01*
X77999471Y-117024616D01*
X77999500Y-117024759D01*
X77999500Y-134975467D01*
X77999416Y-134975889D01*
X75577138Y-134975889D01*
X75583799Y-134966579D01*
X75671964Y-134795097D01*
X75707649Y-134725690D01*
X75707651Y-134725684D01*
X75707656Y-134725675D01*
X75795118Y-134469305D01*
X75844319Y-134202933D01*
X75854212Y-133932235D01*
X75824586Y-133662982D01*
X75756072Y-133400912D01*
X75650130Y-133151610D01*
X75509018Y-132920390D01*
X75474197Y-132878548D01*
X75335746Y-132712180D01*
X75335740Y-132712175D01*
X75134002Y-132531418D01*
X74908092Y-132381957D01*
X74908090Y-132381956D01*
X74662824Y-132266980D01*
X74662819Y-132266978D01*
X74662814Y-132266976D01*
X74403442Y-132188942D01*
X74403428Y-132188939D01*
X74287791Y-132171921D01*
X74135439Y-132149500D01*
X73932369Y-132149500D01*
X73932364Y-132149500D01*
X73729844Y-132164323D01*
X73729831Y-132164325D01*
X73465453Y-132223217D01*
X73465446Y-132223220D01*
X73212439Y-132319987D01*
X72976226Y-132452557D01*
X72761822Y-132618112D01*
X72573822Y-132813109D01*
X72573816Y-132813116D01*
X72416202Y-133033419D01*
X72416199Y-133033424D01*
X72292350Y-133274309D01*
X72292343Y-133274327D01*
X72204884Y-133530685D01*
X72204881Y-133530699D01*
X72155681Y-133797068D01*
X72155680Y-133797075D01*
X72145787Y-134067763D01*
X70000500Y-134067763D01*
X70000500Y-124051568D01*
X70020185Y-123984529D01*
X70036814Y-123963892D01*
X74982518Y-119018187D01*
X74982644Y-119018104D01*
X75000381Y-119000385D01*
X75000381Y-119000383D01*
X75000383Y-119000383D01*
X75000440Y-119000243D01*
X75000542Y-119000000D01*
X75000541Y-118999997D01*
X75000542Y-118999996D01*
X75000624Y-118975996D01*
X75000500Y-118975367D01*
X75000500Y-82003303D01*
X75000654Y-81999906D01*
X75000565Y-81999661D01*
X74998305Y-81997185D01*
X70291764Y-76349335D01*
X70029241Y-76034307D01*
X70001445Y-75970204D01*
X70000500Y-75954924D01*
X70000500Y-66067763D01*
X72145787Y-66067763D01*
X72175413Y-66337013D01*
X72175415Y-66337024D01*
X72243926Y-66599082D01*
X72243928Y-66599088D01*
X72349870Y-66848390D01*
X72450916Y-67013960D01*
X72490979Y-67079605D01*
X72490986Y-67079615D01*
X72664253Y-67287819D01*
X72664259Y-67287824D01*
X72865998Y-67468582D01*
X73091910Y-67618044D01*
X73337176Y-67733020D01*
X73337183Y-67733022D01*
X73337185Y-67733023D01*
X73596557Y-67811057D01*
X73596564Y-67811058D01*
X73596569Y-67811060D01*
X73864561Y-67850500D01*
X73864566Y-67850500D01*
X74067636Y-67850500D01*
X74119133Y-67846730D01*
X74270156Y-67835677D01*
X74382758Y-67810593D01*
X74534546Y-67776782D01*
X74534548Y-67776781D01*
X74534553Y-67776780D01*
X74787558Y-67680014D01*
X75023777Y-67547441D01*
X75238177Y-67381888D01*
X75426186Y-67186881D01*
X75583799Y-66966579D01*
X75669795Y-66799315D01*
X75707649Y-66725690D01*
X75707651Y-66725684D01*
X75707656Y-66725675D01*
X75795118Y-66469305D01*
X75844319Y-66202933D01*
X75854212Y-65932235D01*
X75824586Y-65662982D01*
X75756072Y-65400912D01*
X75650130Y-65151610D01*
X75509018Y-64920390D01*
X75419747Y-64813119D01*
X75335746Y-64712180D01*
X75335740Y-64712175D01*
X75134002Y-64531418D01*
X74908092Y-64381957D01*
X74908090Y-64381956D01*
X74662824Y-64266980D01*
X74662819Y-64266978D01*
X74662814Y-64266976D01*
X74403442Y-64188942D01*
X74403428Y-64188939D01*
X74275000Y-64170039D01*
X74135439Y-64149500D01*
X73932369Y-64149500D01*
X73932364Y-64149500D01*
X73729844Y-64164323D01*
X73729831Y-64164325D01*
X73465453Y-64223217D01*
X73465446Y-64223220D01*
X73212439Y-64319987D01*
X72976226Y-64452557D01*
X72761822Y-64618112D01*
X72573822Y-64813109D01*
X72573816Y-64813116D01*
X72416202Y-65033419D01*
X72416199Y-65033424D01*
X72292350Y-65274309D01*
X72292343Y-65274327D01*
X72204884Y-65530685D01*
X72204881Y-65530699D01*
X72155681Y-65797068D01*
X72155680Y-65797075D01*
X72145787Y-66067763D01*
X70000500Y-66067763D01*
X70000500Y-61124500D01*
X70020185Y-61057461D01*
X70072989Y-61011706D01*
X70124500Y-61000500D01*
X88364665Y-61000500D01*
X88431704Y-61020185D01*
G37*
%TD.AperFunction*%
%TA.AperFunction,Conductor*%
G36*
X151856420Y-74002867D02*
G01*
X151794601Y-73961561D01*
X151721680Y-73947056D01*
X151672432Y-73947056D01*
X151599511Y-73961561D01*
X151516816Y-74016816D01*
X151461561Y-74099511D01*
X151442158Y-74197056D01*
X151461561Y-74294601D01*
X151502867Y-74356420D01*
X150944180Y-73797733D01*
X151134870Y-73634870D01*
X151297733Y-73444180D01*
X151856420Y-74002867D01*
G37*
%TD.AperFunction*%
%TA.AperFunction,Conductor*%
G36*
X148865130Y-73634870D02*
G01*
X149055819Y-73797733D01*
X148497135Y-74356416D01*
X148538439Y-74294601D01*
X148557842Y-74197056D01*
X148538439Y-74099511D01*
X148483184Y-74016816D01*
X148400489Y-73961561D01*
X148327568Y-73947056D01*
X148278320Y-73947056D01*
X148205399Y-73961561D01*
X148143577Y-74002868D01*
X148702266Y-73444180D01*
X148865130Y-73634870D01*
G37*
%TD.AperFunction*%
%TA.AperFunction,Conductor*%
G36*
X149055819Y-71202266D02*
G01*
X148865130Y-71365130D01*
X148702266Y-71555818D01*
X148143582Y-70997134D01*
X148205399Y-71038439D01*
X148278320Y-71052944D01*
X148327568Y-71052944D01*
X148400489Y-71038439D01*
X148483184Y-70983184D01*
X148538439Y-70900489D01*
X148557842Y-70802944D01*
X148538439Y-70705399D01*
X148497133Y-70643581D01*
X149055819Y-71202266D01*
G37*
%TD.AperFunction*%
%TA.AperFunction,Conductor*%
G36*
X151461561Y-70705399D02*
G01*
X151442158Y-70802944D01*
X151461561Y-70900489D01*
X151516816Y-70983184D01*
X151599511Y-71038439D01*
X151672432Y-71052944D01*
X151721680Y-71052944D01*
X151794601Y-71038439D01*
X151856415Y-70997135D01*
X151297732Y-71555818D01*
X151134870Y-71365130D01*
X150944180Y-71202266D01*
X151502867Y-70643578D01*
X151461561Y-70705399D01*
G37*
%TD.AperFunction*%
%TA.AperFunction,Conductor*%
G36*
X130967912Y-29542020D02*
G01*
X130997942Y-29605107D01*
X130999500Y-29624701D01*
X130999500Y-39948429D01*
X130979815Y-40015468D01*
X130963181Y-40036110D01*
X129016995Y-41982295D01*
X129016819Y-41982413D01*
X128999616Y-41999616D01*
X128999458Y-41999995D01*
X128999457Y-42000001D01*
X128999615Y-42000382D01*
X128999616Y-42000382D01*
X128999617Y-42000383D01*
X129000000Y-42000542D01*
X129024680Y-42000535D01*
X129024856Y-42000500D01*
X130999901Y-42000500D01*
X148948430Y-42000500D01*
X149015469Y-42020185D01*
X149036111Y-42036819D01*
X151963181Y-44963888D01*
X151996666Y-45025211D01*
X151999500Y-45051569D01*
X151999500Y-64975467D01*
X151999416Y-64975889D01*
X151999459Y-65000001D01*
X151999500Y-65000099D01*
X151999616Y-65000382D01*
X151999618Y-65000384D01*
X151999808Y-65000462D01*
X152000000Y-65000541D01*
X152000002Y-65000539D01*
X152024616Y-65000524D01*
X152024616Y-65000528D01*
X152024760Y-65000500D01*
X166875500Y-65000500D01*
X166942539Y-65020185D01*
X166988294Y-65072989D01*
X166999500Y-65124500D01*
X166999500Y-76975368D01*
X166999419Y-76975774D01*
X166999457Y-76999999D01*
X166999576Y-77000284D01*
X166999616Y-77000382D01*
X167010881Y-77011589D01*
X168503390Y-78504097D01*
X169982197Y-79982904D01*
X169982488Y-79983339D01*
X169999616Y-80000381D01*
X169999617Y-80000383D01*
X169999717Y-80000424D01*
X170000000Y-80000542D01*
X170024585Y-80000553D01*
X170024856Y-80000500D01*
X199875500Y-80000500D01*
X199942539Y-80020185D01*
X199988294Y-80072989D01*
X199999500Y-80124500D01*
X199999500Y-119875500D01*
X199979815Y-119942539D01*
X199927011Y-119988294D01*
X199875500Y-119999500D01*
X170024856Y-119999500D01*
X170024703Y-119999469D01*
X170024703Y-119999478D01*
X170000000Y-119999457D01*
X169999756Y-119999559D01*
X169999616Y-119999617D01*
X169982558Y-120016635D01*
X169982357Y-120016934D01*
X167016995Y-122982295D01*
X167016819Y-122982413D01*
X166999616Y-122999616D01*
X166999457Y-122999995D01*
X166999461Y-123024665D01*
X166999500Y-123024855D01*
X166999500Y-134875500D01*
X166979815Y-134942539D01*
X166927011Y-134988294D01*
X166875500Y-134999500D01*
X152024760Y-134999500D01*
X152024554Y-134999459D01*
X152000000Y-134999459D01*
X151999901Y-134999500D01*
X151999617Y-134999616D01*
X151999615Y-134999618D01*
X151999459Y-134999999D01*
X151999476Y-135024616D01*
X151999471Y-135024616D01*
X151999500Y-135024759D01*
X151999500Y-154948430D01*
X151979815Y-155015469D01*
X151963181Y-155036111D01*
X149036111Y-157963181D01*
X148974788Y-157996666D01*
X148948430Y-157999500D01*
X129024856Y-157999500D01*
X129024680Y-157999464D01*
X129000000Y-157999457D01*
X128999615Y-157999617D01*
X128999457Y-157999998D01*
X128999458Y-158000001D01*
X128999576Y-158000286D01*
X128999615Y-158000381D01*
X129010881Y-158011589D01*
X130963180Y-159963887D01*
X130963181Y-159963888D01*
X130996666Y-160025211D01*
X130999500Y-160051569D01*
X130999500Y-167857251D01*
X130979815Y-167924290D01*
X130927011Y-167970045D01*
X130857853Y-167979989D01*
X130794297Y-167950964D01*
X130773925Y-167928375D01*
X130764825Y-167915379D01*
X130687101Y-167837655D01*
X130608620Y-167759174D01*
X130608616Y-167759171D01*
X130608615Y-167759170D01*
X130427666Y-167632468D01*
X130427662Y-167632466D01*
X130427660Y-167632465D01*
X130227450Y-167539106D01*
X130227447Y-167539105D01*
X130227445Y-167539104D01*
X130014070Y-167481930D01*
X130014062Y-167481929D01*
X129794002Y-167462677D01*
X129793998Y-167462677D01*
X129573937Y-167481929D01*
X129573929Y-167481930D01*
X129360554Y-167539104D01*
X129360548Y-167539107D01*
X129160340Y-167632465D01*
X129160338Y-167632466D01*
X128979377Y-167759175D01*
X128896119Y-167842434D01*
X128834796Y-167875919D01*
X128765104Y-167870935D01*
X128732954Y-167853130D01*
X128716006Y-167840126D01*
X128709916Y-167834785D01*
X128636819Y-167761688D01*
X128603334Y-167700365D01*
X128600500Y-167674007D01*
X128600500Y-155300096D01*
X128620185Y-155233057D01*
X128636814Y-155212420D01*
X134849229Y-149000005D01*
X137494859Y-149000005D01*
X137515385Y-149247729D01*
X137515387Y-149247738D01*
X137576412Y-149488717D01*
X137676266Y-149716364D01*
X137776564Y-149869882D01*
X138516923Y-149129523D01*
X138540507Y-149209844D01*
X138618239Y-149330798D01*
X138726900Y-149424952D01*
X138857685Y-149484680D01*
X138867466Y-149486086D01*
X138129942Y-150223609D01*
X138176768Y-150260055D01*
X138176770Y-150260056D01*
X138395385Y-150378364D01*
X138395396Y-150378369D01*
X138630506Y-150459083D01*
X138875707Y-150500000D01*
X139124293Y-150500000D01*
X139369493Y-150459083D01*
X139604603Y-150378369D01*
X139604614Y-150378364D01*
X139823228Y-150260057D01*
X139823231Y-150260055D01*
X139870056Y-150223609D01*
X139132533Y-149486086D01*
X139142315Y-149484680D01*
X139273100Y-149424952D01*
X139381761Y-149330798D01*
X139459493Y-149209844D01*
X139483076Y-149129524D01*
X140223434Y-149869882D01*
X140323731Y-149716369D01*
X140423587Y-149488717D01*
X140484612Y-149247738D01*
X140484614Y-149247729D01*
X140505141Y-149000005D01*
X140505141Y-148999994D01*
X140484614Y-148752270D01*
X140484612Y-148752261D01*
X140423587Y-148511282D01*
X140323731Y-148283630D01*
X140223434Y-148130116D01*
X139483076Y-148870475D01*
X139459493Y-148790156D01*
X139381761Y-148669202D01*
X139273100Y-148575048D01*
X139142315Y-148515320D01*
X139132534Y-148513913D01*
X139870057Y-147776390D01*
X139870056Y-147776389D01*
X139823229Y-147739943D01*
X139604614Y-147621635D01*
X139604603Y-147621630D01*
X139369493Y-147540916D01*
X139124293Y-147500000D01*
X138875707Y-147500000D01*
X138630506Y-147540916D01*
X138395396Y-147621630D01*
X138395390Y-147621632D01*
X138176761Y-147739949D01*
X138129942Y-147776388D01*
X138129942Y-147776390D01*
X138867466Y-148513913D01*
X138857685Y-148515320D01*
X138726900Y-148575048D01*
X138618239Y-148669202D01*
X138540507Y-148790156D01*
X138516923Y-148870475D01*
X137776564Y-148130116D01*
X137676267Y-148283632D01*
X137576412Y-148511282D01*
X137515387Y-148752261D01*
X137515385Y-148752270D01*
X137494859Y-148999994D01*
X137494859Y-149000005D01*
X134849229Y-149000005D01*
X146893923Y-136955310D01*
X146899998Y-136949984D01*
X146928282Y-136928282D01*
X147024536Y-136802841D01*
X147085044Y-136656762D01*
X147100500Y-136539361D01*
X147105682Y-136500000D01*
X147101030Y-136464669D01*
X147100500Y-136456571D01*
X147100500Y-130133159D01*
X147120185Y-130066120D01*
X147172989Y-130020365D01*
X147242147Y-130010421D01*
X147305703Y-130039446D01*
X147312181Y-130045478D01*
X147520484Y-130253781D01*
X147520488Y-130253784D01*
X147821917Y-130497877D01*
X147940039Y-130574586D01*
X148147211Y-130709125D01*
X148492806Y-130885214D01*
X148854913Y-131024214D01*
X149229567Y-131124602D01*
X149612662Y-131185278D01*
X149978576Y-131204455D01*
X149999999Y-131205578D01*
X150000000Y-131205578D01*
X150000001Y-131205578D01*
X150020301Y-131204514D01*
X150387338Y-131185278D01*
X150770433Y-131124602D01*
X151145087Y-131024214D01*
X151507194Y-130885214D01*
X151654810Y-130810000D01*
X160621341Y-130810000D01*
X160641936Y-131045403D01*
X160641938Y-131045413D01*
X160703094Y-131273655D01*
X160703096Y-131273659D01*
X160703097Y-131273663D01*
X160745491Y-131364576D01*
X160802964Y-131487828D01*
X160802965Y-131487830D01*
X160938505Y-131681402D01*
X161105597Y-131848494D01*
X161299169Y-131984034D01*
X161299171Y-131984035D01*
X161513337Y-132083903D01*
X161741592Y-132145063D01*
X161918034Y-132160500D01*
X162185966Y-132160500D01*
X162362408Y-132145063D01*
X162590663Y-132083903D01*
X162804829Y-131984035D01*
X162998401Y-131848495D01*
X163165495Y-131681401D01*
X163301035Y-131487830D01*
X163400903Y-131273663D01*
X163462063Y-131045408D01*
X163482659Y-130810000D01*
X163462063Y-130574592D01*
X163411822Y-130387088D01*
X163413485Y-130317242D01*
X163443914Y-130267319D01*
X164858922Y-128852311D01*
X164864999Y-128846983D01*
X164893282Y-128825282D01*
X164989536Y-128699841D01*
X165050044Y-128553762D01*
X165065500Y-128436361D01*
X165070682Y-128397000D01*
X165066030Y-128361669D01*
X165065500Y-128353571D01*
X165065500Y-117000000D01*
X192894551Y-117000000D01*
X192914317Y-117251151D01*
X192973126Y-117496110D01*
X193069533Y-117728859D01*
X193201160Y-117943653D01*
X193201161Y-117943656D01*
X193201164Y-117943659D01*
X193364776Y-118135224D01*
X193484946Y-118237859D01*
X193556343Y-118298838D01*
X193556346Y-118298839D01*
X193771140Y-118430466D01*
X193886567Y-118478277D01*
X194003889Y-118526873D01*
X194248852Y-118585683D01*
X194500000Y-118605449D01*
X194751148Y-118585683D01*
X194996111Y-118526873D01*
X195228859Y-118430466D01*
X195443659Y-118298836D01*
X195635224Y-118135224D01*
X195798836Y-117943659D01*
X195930466Y-117728859D01*
X196026873Y-117496111D01*
X196085683Y-117251148D01*
X196094777Y-117135587D01*
X196119661Y-117070302D01*
X196175892Y-117028831D01*
X196245618Y-117024344D01*
X196289515Y-117043742D01*
X196366338Y-117097534D01*
X196566550Y-117190894D01*
X196779932Y-117248070D01*
X196937123Y-117261822D01*
X196999998Y-117267323D01*
X197000000Y-117267323D01*
X197000002Y-117267323D01*
X197055017Y-117262509D01*
X197220068Y-117248070D01*
X197433450Y-117190894D01*
X197633662Y-117097534D01*
X197814620Y-116970826D01*
X197970826Y-116814620D01*
X198097534Y-116633662D01*
X198190894Y-116433450D01*
X198248070Y-116220068D01*
X198267323Y-116000000D01*
X198248070Y-115779932D01*
X198190894Y-115566550D01*
X198097534Y-115366339D01*
X197983117Y-115202933D01*
X197970827Y-115185381D01*
X197913570Y-115128124D01*
X197814620Y-115029174D01*
X197814616Y-115029171D01*
X197814615Y-115029170D01*
X197633666Y-114902468D01*
X197633662Y-114902466D01*
X197547980Y-114862512D01*
X197433450Y-114809106D01*
X197433447Y-114809105D01*
X197433445Y-114809104D01*
X197220070Y-114751930D01*
X197220062Y-114751929D01*
X197000002Y-114732677D01*
X196999998Y-114732677D01*
X196779937Y-114751929D01*
X196779929Y-114751930D01*
X196566554Y-114809104D01*
X196566548Y-114809107D01*
X196366340Y-114902465D01*
X196366338Y-114902466D01*
X196185377Y-115029175D01*
X196029175Y-115185377D01*
X195902466Y-115366338D01*
X195902465Y-115366340D01*
X195809107Y-115566548D01*
X195809104Y-115566555D01*
X195762560Y-115740258D01*
X195726194Y-115799918D01*
X195663347Y-115830447D01*
X195593972Y-115822152D01*
X195562257Y-115802457D01*
X195443659Y-115701164D01*
X195443657Y-115701162D01*
X195443655Y-115701161D01*
X195443653Y-115701160D01*
X195228859Y-115569533D01*
X194996110Y-115473126D01*
X194751151Y-115414317D01*
X194500000Y-115394551D01*
X194248848Y-115414317D01*
X194003889Y-115473126D01*
X193771140Y-115569533D01*
X193556346Y-115701160D01*
X193556343Y-115701161D01*
X193364776Y-115864776D01*
X193201161Y-116056343D01*
X193201160Y-116056346D01*
X193069533Y-116271140D01*
X192973126Y-116503889D01*
X192914317Y-116748848D01*
X192894551Y-117000000D01*
X165065500Y-117000000D01*
X165065500Y-115067763D01*
X186045787Y-115067763D01*
X186075413Y-115337013D01*
X186075415Y-115337024D01*
X186143926Y-115599082D01*
X186143928Y-115599088D01*
X186249870Y-115848390D01*
X186364943Y-116036943D01*
X186390979Y-116079605D01*
X186390986Y-116079615D01*
X186564253Y-116287819D01*
X186564259Y-116287824D01*
X186669240Y-116381887D01*
X186765998Y-116468582D01*
X186991910Y-116618044D01*
X187237176Y-116733020D01*
X187237183Y-116733022D01*
X187237185Y-116733023D01*
X187496557Y-116811057D01*
X187496564Y-116811058D01*
X187496569Y-116811060D01*
X187764561Y-116850500D01*
X187764566Y-116850500D01*
X187967636Y-116850500D01*
X188019133Y-116846730D01*
X188170156Y-116835677D01*
X188350620Y-116795477D01*
X188434546Y-116776782D01*
X188434548Y-116776781D01*
X188434553Y-116776780D01*
X188687558Y-116680014D01*
X188923777Y-116547441D01*
X189138177Y-116381888D01*
X189326186Y-116186881D01*
X189483799Y-115966579D01*
X189565219Y-115808216D01*
X189607649Y-115725690D01*
X189607651Y-115725684D01*
X189607656Y-115725675D01*
X189695118Y-115469305D01*
X189744319Y-115202933D01*
X189754212Y-114932235D01*
X189724586Y-114662982D01*
X189656072Y-114400912D01*
X189550130Y-114151610D01*
X189409018Y-113920390D01*
X189360131Y-113861646D01*
X189235746Y-113712180D01*
X189235740Y-113712175D01*
X189034002Y-113531418D01*
X188808092Y-113381957D01*
X188808090Y-113381956D01*
X188562824Y-113266980D01*
X188562819Y-113266978D01*
X188562814Y-113266976D01*
X188303442Y-113188942D01*
X188303428Y-113188939D01*
X188187791Y-113171921D01*
X188035439Y-113149500D01*
X187832369Y-113149500D01*
X187832364Y-113149500D01*
X187629844Y-113164323D01*
X187629831Y-113164325D01*
X187365453Y-113223217D01*
X187365446Y-113223220D01*
X187112439Y-113319987D01*
X186876226Y-113452557D01*
X186661822Y-113618112D01*
X186473822Y-113813109D01*
X186473816Y-113813116D01*
X186316202Y-114033419D01*
X186316199Y-114033424D01*
X186192350Y-114274309D01*
X186192343Y-114274327D01*
X186104884Y-114530685D01*
X186104881Y-114530699D01*
X186090114Y-114610646D01*
X186064465Y-114749514D01*
X186055681Y-114797068D01*
X186055680Y-114797075D01*
X186045787Y-115067763D01*
X165065500Y-115067763D01*
X165065500Y-110000000D01*
X192894551Y-110000000D01*
X192914317Y-110251151D01*
X192973126Y-110496110D01*
X193069533Y-110728859D01*
X193201160Y-110943653D01*
X193201161Y-110943656D01*
X193201164Y-110943659D01*
X193364776Y-111135224D01*
X193470841Y-111225812D01*
X193556343Y-111298838D01*
X193556346Y-111298839D01*
X193771140Y-111430466D01*
X193937920Y-111499548D01*
X194003889Y-111526873D01*
X194248852Y-111585683D01*
X194500000Y-111605449D01*
X194751148Y-111585683D01*
X194996111Y-111526873D01*
X195228859Y-111430466D01*
X195443659Y-111298836D01*
X195562679Y-111197183D01*
X195626436Y-111168614D01*
X195695522Y-111179051D01*
X195747998Y-111225181D01*
X195762982Y-111259381D01*
X195809576Y-111433272D01*
X195809580Y-111433284D01*
X195902899Y-111633407D01*
X195902900Y-111633409D01*
X195948258Y-111698187D01*
X196602046Y-111044400D01*
X196614835Y-111125148D01*
X196672359Y-111238045D01*
X196761955Y-111327641D01*
X196874852Y-111385165D01*
X196955599Y-111397953D01*
X196301811Y-112051741D01*
X196366582Y-112097094D01*
X196366592Y-112097100D01*
X196566715Y-112190419D01*
X196566729Y-112190424D01*
X196780013Y-112247573D01*
X196780023Y-112247575D01*
X196999999Y-112266821D01*
X197000001Y-112266821D01*
X197219976Y-112247575D01*
X197219986Y-112247573D01*
X197433270Y-112190424D01*
X197433284Y-112190419D01*
X197633408Y-112097100D01*
X197633420Y-112097093D01*
X197698186Y-112051742D01*
X197698187Y-112051740D01*
X197044401Y-111397953D01*
X197125148Y-111385165D01*
X197238045Y-111327641D01*
X197327641Y-111238045D01*
X197385165Y-111125148D01*
X197397953Y-111044400D01*
X198051740Y-111698187D01*
X198051742Y-111698186D01*
X198097093Y-111633420D01*
X198097100Y-111633408D01*
X198190419Y-111433284D01*
X198190424Y-111433270D01*
X198247573Y-111219986D01*
X198247575Y-111219976D01*
X198266821Y-111000000D01*
X198266821Y-110999999D01*
X198247575Y-110780023D01*
X198247573Y-110780013D01*
X198190424Y-110566729D01*
X198190420Y-110566720D01*
X198097098Y-110366590D01*
X198051740Y-110301811D01*
X197397953Y-110955598D01*
X197385165Y-110874852D01*
X197327641Y-110761955D01*
X197238045Y-110672359D01*
X197125148Y-110614835D01*
X197044400Y-110602046D01*
X197698187Y-109948258D01*
X197633409Y-109902900D01*
X197633407Y-109902899D01*
X197433284Y-109809580D01*
X197433270Y-109809575D01*
X197219986Y-109752426D01*
X197219976Y-109752424D01*
X197000001Y-109733179D01*
X196999999Y-109733179D01*
X196780023Y-109752424D01*
X196780013Y-109752426D01*
X196566729Y-109809575D01*
X196566720Y-109809579D01*
X196366591Y-109902900D01*
X196289562Y-109956836D01*
X196223356Y-109979163D01*
X196155589Y-109962151D01*
X196107777Y-109911203D01*
X196094823Y-109864993D01*
X196085683Y-109748852D01*
X196026873Y-109503889D01*
X195973893Y-109375983D01*
X195930466Y-109271140D01*
X195798839Y-109056346D01*
X195798838Y-109056343D01*
X195761875Y-109013066D01*
X195635224Y-108864776D01*
X195472469Y-108725770D01*
X195443656Y-108701161D01*
X195443653Y-108701160D01*
X195228859Y-108569533D01*
X194996110Y-108473126D01*
X194751151Y-108414317D01*
X194500000Y-108394551D01*
X194248848Y-108414317D01*
X194003889Y-108473126D01*
X193771140Y-108569533D01*
X193556346Y-108701160D01*
X193556343Y-108701161D01*
X193364776Y-108864776D01*
X193201161Y-109056343D01*
X193201160Y-109056346D01*
X193069533Y-109271140D01*
X192973126Y-109503889D01*
X192914317Y-109748848D01*
X192894551Y-110000000D01*
X165065500Y-110000000D01*
X165065500Y-106000000D01*
X192894551Y-106000000D01*
X192914317Y-106251151D01*
X192973126Y-106496110D01*
X193069533Y-106728859D01*
X193201160Y-106943653D01*
X193201161Y-106943656D01*
X193201164Y-106943659D01*
X193364776Y-107135224D01*
X193476188Y-107230379D01*
X193556343Y-107298838D01*
X193556346Y-107298839D01*
X193771140Y-107430466D01*
X194003889Y-107526873D01*
X194248852Y-107585683D01*
X194500000Y-107605449D01*
X194751148Y-107585683D01*
X194996111Y-107526873D01*
X195228859Y-107430466D01*
X195443659Y-107298836D01*
X195635224Y-107135224D01*
X195798836Y-106943659D01*
X195930466Y-106728859D01*
X196026873Y-106496111D01*
X196085683Y-106251148D01*
X196094777Y-106135587D01*
X196119661Y-106070302D01*
X196175892Y-106028831D01*
X196245618Y-106024344D01*
X196289515Y-106043742D01*
X196366338Y-106097534D01*
X196566550Y-106190894D01*
X196779932Y-106248070D01*
X196937123Y-106261822D01*
X196999998Y-106267323D01*
X197000000Y-106267323D01*
X197000002Y-106267323D01*
X197055017Y-106262509D01*
X197220068Y-106248070D01*
X197433450Y-106190894D01*
X197633662Y-106097534D01*
X197814620Y-105970826D01*
X197970826Y-105814620D01*
X198097534Y-105633662D01*
X198190894Y-105433450D01*
X198248070Y-105220068D01*
X198267323Y-105000000D01*
X198248070Y-104779932D01*
X198190894Y-104566550D01*
X198097534Y-104366339D01*
X198034180Y-104275859D01*
X197970827Y-104185381D01*
X197896094Y-104110648D01*
X197814620Y-104029174D01*
X197814616Y-104029171D01*
X197814615Y-104029170D01*
X197633666Y-103902468D01*
X197633662Y-103902466D01*
X197539835Y-103858714D01*
X197433450Y-103809106D01*
X197433447Y-103809105D01*
X197433445Y-103809104D01*
X197220070Y-103751930D01*
X197220062Y-103751929D01*
X197000002Y-103732677D01*
X196999998Y-103732677D01*
X196779937Y-103751929D01*
X196779929Y-103751930D01*
X196566554Y-103809104D01*
X196566548Y-103809107D01*
X196366340Y-103902465D01*
X196366338Y-103902466D01*
X196185377Y-104029175D01*
X196029175Y-104185377D01*
X195902466Y-104366338D01*
X195902465Y-104366340D01*
X195809107Y-104566548D01*
X195809104Y-104566555D01*
X195762560Y-104740258D01*
X195726194Y-104799918D01*
X195663347Y-104830447D01*
X195593972Y-104822152D01*
X195562257Y-104802457D01*
X195443659Y-104701164D01*
X195443657Y-104701162D01*
X195443655Y-104701161D01*
X195443653Y-104701160D01*
X195228859Y-104569533D01*
X194996110Y-104473126D01*
X194751151Y-104414317D01*
X194500000Y-104394551D01*
X194248848Y-104414317D01*
X194003889Y-104473126D01*
X193771140Y-104569533D01*
X193556346Y-104701160D01*
X193556343Y-104701161D01*
X193364776Y-104864776D01*
X193201161Y-105056343D01*
X193201160Y-105056346D01*
X193069533Y-105271140D01*
X192973126Y-105503889D01*
X192914317Y-105748848D01*
X192894551Y-106000000D01*
X165065500Y-106000000D01*
X165065500Y-105900662D01*
X165084507Y-105834689D01*
X165090427Y-105825265D01*
X165145456Y-105737690D01*
X165201313Y-105578059D01*
X165217607Y-105433450D01*
X165220249Y-105410002D01*
X165220249Y-105409997D01*
X165201314Y-105241943D01*
X165145454Y-105082305D01*
X165145452Y-105082302D01*
X165055481Y-104939115D01*
X165055476Y-104939109D01*
X164935890Y-104819523D01*
X164935884Y-104819518D01*
X164792697Y-104729547D01*
X164792694Y-104729545D01*
X164633056Y-104673685D01*
X164465003Y-104654751D01*
X164464997Y-104654751D01*
X164296943Y-104673685D01*
X164137305Y-104729545D01*
X164137302Y-104729547D01*
X163994115Y-104819518D01*
X163994109Y-104819523D01*
X163874523Y-104939109D01*
X163874518Y-104939115D01*
X163784547Y-105082302D01*
X163784545Y-105082305D01*
X163728685Y-105241943D01*
X163709751Y-105409997D01*
X163709751Y-105410002D01*
X163728686Y-105578057D01*
X163784544Y-105737690D01*
X163845493Y-105834689D01*
X163864500Y-105900662D01*
X163864500Y-128096902D01*
X163844815Y-128163941D01*
X163828181Y-128184583D01*
X163688399Y-128324365D01*
X163627076Y-128357850D01*
X163557384Y-128352866D01*
X163501451Y-128310994D01*
X163477190Y-128247492D01*
X163476416Y-128238646D01*
X163462063Y-128074592D01*
X163400903Y-127846337D01*
X163301035Y-127632171D01*
X163301034Y-127632169D01*
X163165494Y-127438597D01*
X163017932Y-127291035D01*
X162984447Y-127229712D01*
X162989431Y-127160020D01*
X163031303Y-127104087D01*
X163040516Y-127097815D01*
X163195345Y-127002315D01*
X163319315Y-126878345D01*
X163411356Y-126729124D01*
X163411358Y-126729119D01*
X163466505Y-126562697D01*
X163466506Y-126562690D01*
X163476999Y-126459986D01*
X163477000Y-126459973D01*
X163477000Y-126060000D01*
X162401607Y-126060000D01*
X162461238Y-125942969D01*
X162482298Y-125810000D01*
X162461238Y-125677031D01*
X162401607Y-125560000D01*
X163476999Y-125560000D01*
X163476999Y-125160028D01*
X163476998Y-125160013D01*
X163466505Y-125057302D01*
X163411358Y-124890880D01*
X163411356Y-124890875D01*
X163319315Y-124741654D01*
X163195345Y-124617684D01*
X163046124Y-124525643D01*
X163046119Y-124525641D01*
X162879697Y-124470494D01*
X162879690Y-124470493D01*
X162776986Y-124460000D01*
X162302000Y-124460000D01*
X162302000Y-125460392D01*
X162184969Y-125400762D01*
X162085451Y-125385000D01*
X162018549Y-125385000D01*
X161919031Y-125400762D01*
X161802000Y-125460392D01*
X161802000Y-124460000D01*
X161327028Y-124460000D01*
X161327012Y-124460001D01*
X161224302Y-124470494D01*
X161057880Y-124525641D01*
X161057875Y-124525643D01*
X160908654Y-124617684D01*
X160784684Y-124741654D01*
X160692643Y-124890875D01*
X160692641Y-124890880D01*
X160637494Y-125057302D01*
X160637493Y-125057309D01*
X160627000Y-125160013D01*
X160627000Y-125560000D01*
X161702393Y-125560000D01*
X161642762Y-125677031D01*
X161621702Y-125810000D01*
X161642762Y-125942969D01*
X161702393Y-126060000D01*
X160627001Y-126060000D01*
X160627001Y-126459986D01*
X160637494Y-126562697D01*
X160692641Y-126729119D01*
X160692643Y-126729124D01*
X160784684Y-126878345D01*
X160908654Y-127002315D01*
X161063484Y-127097815D01*
X161110208Y-127149763D01*
X161121431Y-127218726D01*
X161093587Y-127282808D01*
X161086069Y-127291035D01*
X160938501Y-127438603D01*
X160938501Y-127438604D01*
X160802967Y-127632165D01*
X160802965Y-127632169D01*
X160703098Y-127846335D01*
X160703094Y-127846344D01*
X160641938Y-128074586D01*
X160641936Y-128074596D01*
X160621341Y-128309999D01*
X160621341Y-128310000D01*
X160641936Y-128545403D01*
X160641938Y-128545413D01*
X160703094Y-128773655D01*
X160703096Y-128773659D01*
X160703097Y-128773663D01*
X160753031Y-128880746D01*
X160802964Y-128987828D01*
X160802965Y-128987830D01*
X160938505Y-129181402D01*
X161105597Y-129348494D01*
X161262595Y-129458425D01*
X161306220Y-129513002D01*
X161313414Y-129582500D01*
X161281891Y-129644855D01*
X161262595Y-129661575D01*
X161105597Y-129771505D01*
X160938506Y-129938597D01*
X160938501Y-129938604D01*
X160802967Y-130132165D01*
X160802965Y-130132169D01*
X160703098Y-130346335D01*
X160703094Y-130346344D01*
X160641938Y-130574586D01*
X160641936Y-130574596D01*
X160621341Y-130809999D01*
X160621341Y-130810000D01*
X151654810Y-130810000D01*
X151852789Y-130709125D01*
X152178084Y-130497876D01*
X152479516Y-130253781D01*
X152753781Y-129979516D01*
X152997876Y-129678084D01*
X153209125Y-129352789D01*
X153385214Y-129007194D01*
X153524214Y-128645087D01*
X153624602Y-128270433D01*
X153685278Y-127887338D01*
X153705578Y-127500000D01*
X153685278Y-127112662D01*
X153624602Y-126729567D01*
X153524214Y-126354913D01*
X153385214Y-125992806D01*
X153209125Y-125647211D01*
X153152490Y-125560000D01*
X152997877Y-125321917D01*
X152783601Y-125057309D01*
X152753781Y-125020484D01*
X152479516Y-124746219D01*
X152258198Y-124566999D01*
X152178082Y-124502122D01*
X151852793Y-124290877D01*
X151507197Y-124114787D01*
X151145094Y-123975788D01*
X151040768Y-123947834D01*
X150770433Y-123875398D01*
X150770429Y-123875397D01*
X150770428Y-123875397D01*
X150387339Y-123814722D01*
X150000001Y-123794422D01*
X149999999Y-123794422D01*
X149612660Y-123814722D01*
X149229572Y-123875397D01*
X149229570Y-123875397D01*
X148854905Y-123975788D01*
X148492802Y-124114787D01*
X148147206Y-124290877D01*
X147821917Y-124502122D01*
X147520488Y-124746215D01*
X147520480Y-124746222D01*
X147312181Y-124954522D01*
X147250858Y-124988007D01*
X147181166Y-124983023D01*
X147125233Y-124941151D01*
X147100816Y-124875687D01*
X147100500Y-124866841D01*
X147100500Y-123040096D01*
X147120185Y-122973057D01*
X147136814Y-122952420D01*
X149175923Y-120913310D01*
X149181998Y-120907984D01*
X149210282Y-120886282D01*
X149306536Y-120760841D01*
X149367044Y-120614762D01*
X149373224Y-120567821D01*
X149387682Y-120458000D01*
X149383030Y-120422669D01*
X149382500Y-120414571D01*
X149382500Y-113334000D01*
X150880000Y-113334000D01*
X150880000Y-115381844D01*
X150886401Y-115441372D01*
X150886403Y-115441379D01*
X150936645Y-115576086D01*
X150936649Y-115576093D01*
X151022809Y-115691187D01*
X151022812Y-115691190D01*
X151137906Y-115777350D01*
X151137913Y-115777354D01*
X151272620Y-115827596D01*
X151272627Y-115827598D01*
X151332155Y-115833999D01*
X151332172Y-115834000D01*
X152605000Y-115834000D01*
X152605000Y-114887553D01*
X152604999Y-114887552D01*
X152342680Y-115149871D01*
X152281357Y-115183356D01*
X152211665Y-115178372D01*
X152167318Y-115149871D01*
X151901447Y-114884000D01*
X152099709Y-114884000D01*
X152120514Y-114961645D01*
X152177355Y-115018486D01*
X152235254Y-115034000D01*
X152274746Y-115034000D01*
X152332645Y-115018486D01*
X152389486Y-114961646D01*
X152410291Y-114884000D01*
X153299709Y-114884000D01*
X153320514Y-114961645D01*
X153377355Y-115018486D01*
X153435254Y-115034000D01*
X153474746Y-115034000D01*
X153532645Y-115018486D01*
X153589486Y-114961646D01*
X153610291Y-114884000D01*
X153589486Y-114806355D01*
X153532645Y-114749514D01*
X153474746Y-114734000D01*
X153435254Y-114734000D01*
X153377355Y-114749514D01*
X153320514Y-114806354D01*
X153299709Y-114884000D01*
X152410291Y-114884000D01*
X152389486Y-114806355D01*
X152332645Y-114749514D01*
X152274746Y-114734000D01*
X152235254Y-114734000D01*
X152177355Y-114749514D01*
X152120514Y-114806354D01*
X152099709Y-114884000D01*
X151901447Y-114884000D01*
X151571934Y-114554487D01*
X151538449Y-114493164D01*
X151543433Y-114423472D01*
X151571934Y-114379124D01*
X151617058Y-114334000D01*
X152058553Y-114334000D01*
X152255000Y-114530447D01*
X152451447Y-114334000D01*
X153258553Y-114334000D01*
X153455000Y-114530447D01*
X153651447Y-114334000D01*
X153455000Y-114137553D01*
X153258553Y-114334000D01*
X152451447Y-114334000D01*
X152255000Y-114137553D01*
X152058553Y-114334000D01*
X151617058Y-114334000D01*
X151617059Y-114333999D01*
X151571934Y-114288874D01*
X151538449Y-114227551D01*
X151543433Y-114157859D01*
X151571934Y-114113512D01*
X151901446Y-113784000D01*
X152099709Y-113784000D01*
X152120514Y-113861645D01*
X152177355Y-113918486D01*
X152235254Y-113934000D01*
X152274746Y-113934000D01*
X152332645Y-113918486D01*
X152389486Y-113861646D01*
X152410291Y-113784000D01*
X153299709Y-113784000D01*
X153320514Y-113861645D01*
X153377355Y-113918486D01*
X153435254Y-113934000D01*
X153474746Y-113934000D01*
X153532645Y-113918486D01*
X153589486Y-113861646D01*
X153610291Y-113784000D01*
X153589486Y-113706355D01*
X153532645Y-113649514D01*
X153474746Y-113634000D01*
X153435254Y-113634000D01*
X153377355Y-113649514D01*
X153320514Y-113706354D01*
X153299709Y-113784000D01*
X152410291Y-113784000D01*
X152389486Y-113706355D01*
X152332645Y-113649514D01*
X152274746Y-113634000D01*
X152235254Y-113634000D01*
X152177355Y-113649514D01*
X152120514Y-113706354D01*
X152099709Y-113784000D01*
X151901446Y-113784000D01*
X152167318Y-113518128D01*
X152228641Y-113484643D01*
X152298333Y-113489627D01*
X152342680Y-113518128D01*
X152604999Y-113780447D01*
X152605000Y-113780446D01*
X152605000Y-113334000D01*
X153105000Y-113334000D01*
X153105000Y-113780447D01*
X153367319Y-113518128D01*
X153428642Y-113484643D01*
X153498333Y-113489627D01*
X153542681Y-113518128D01*
X154138065Y-114113512D01*
X154171550Y-114174835D01*
X154166566Y-114244527D01*
X154138065Y-114288874D01*
X154092939Y-114334000D01*
X154138065Y-114379126D01*
X154171550Y-114440449D01*
X154166566Y-114510141D01*
X154138065Y-114554488D01*
X153542681Y-115149871D01*
X153481358Y-115183356D01*
X153411666Y-115178372D01*
X153367319Y-115149871D01*
X153105000Y-114887552D01*
X153105000Y-115834000D01*
X154377828Y-115834000D01*
X154377844Y-115833999D01*
X154437372Y-115827598D01*
X154437379Y-115827596D01*
X154572086Y-115777354D01*
X154572093Y-115777350D01*
X154687187Y-115691190D01*
X154687190Y-115691187D01*
X154773350Y-115576093D01*
X154773354Y-115576086D01*
X154823596Y-115441379D01*
X154823598Y-115441372D01*
X154829999Y-115381844D01*
X154830000Y-115381827D01*
X154830000Y-113334000D01*
X153105000Y-113334000D01*
X152605000Y-113334000D01*
X150880000Y-113334000D01*
X149382500Y-113334000D01*
X149382500Y-112834000D01*
X150880000Y-112834000D01*
X152605000Y-112834000D01*
X152605000Y-110334000D01*
X153105000Y-110334000D01*
X153105000Y-112834000D01*
X154830000Y-112834000D01*
X154830000Y-110786172D01*
X154829999Y-110786155D01*
X154823598Y-110726627D01*
X154823596Y-110726620D01*
X154773354Y-110591913D01*
X154773350Y-110591906D01*
X154687190Y-110476812D01*
X154687187Y-110476809D01*
X154572093Y-110390649D01*
X154572086Y-110390645D01*
X154437379Y-110340403D01*
X154437372Y-110340401D01*
X154377844Y-110334000D01*
X153105000Y-110334000D01*
X152605000Y-110334000D01*
X151332155Y-110334000D01*
X151272627Y-110340401D01*
X151272620Y-110340403D01*
X151137913Y-110390645D01*
X151137906Y-110390649D01*
X151022812Y-110476809D01*
X151022809Y-110476812D01*
X150936649Y-110591906D01*
X150936645Y-110591913D01*
X150886403Y-110726620D01*
X150886401Y-110726627D01*
X150880000Y-110786155D01*
X150880000Y-112834000D01*
X149382500Y-112834000D01*
X149382500Y-111995434D01*
X149383031Y-111987333D01*
X149387683Y-111952000D01*
X149387683Y-111951999D01*
X149380641Y-111898514D01*
X149367044Y-111795238D01*
X149306536Y-111649159D01*
X149257829Y-111585683D01*
X149210282Y-111523718D01*
X149182005Y-111502020D01*
X149175904Y-111496669D01*
X143648995Y-105969760D01*
X143615510Y-105908437D01*
X143613457Y-105895973D01*
X143611313Y-105876941D01*
X143555456Y-105717310D01*
X143555453Y-105717305D01*
X143555452Y-105717302D01*
X143465481Y-105574115D01*
X143465476Y-105574109D01*
X143345890Y-105454523D01*
X143345884Y-105454518D01*
X143202697Y-105364547D01*
X143202694Y-105364545D01*
X143043056Y-105308685D01*
X142875003Y-105289751D01*
X142874997Y-105289751D01*
X142706943Y-105308685D01*
X142547305Y-105364545D01*
X142547302Y-105364547D01*
X142404115Y-105454518D01*
X142404109Y-105454523D01*
X142284523Y-105574109D01*
X142284518Y-105574115D01*
X142194547Y-105717302D01*
X142194545Y-105717305D01*
X142138685Y-105876943D01*
X142119751Y-106044997D01*
X142119751Y-106045002D01*
X142138685Y-106213056D01*
X142194545Y-106372694D01*
X142194547Y-106372697D01*
X142284518Y-106515884D01*
X142284523Y-106515890D01*
X142404109Y-106635476D01*
X142404115Y-106635481D01*
X142547302Y-106725452D01*
X142547308Y-106725455D01*
X142547310Y-106725456D01*
X142706941Y-106781313D01*
X142725961Y-106783455D01*
X142790373Y-106810520D01*
X142799760Y-106818995D01*
X148145181Y-112164416D01*
X148178666Y-112225739D01*
X148181500Y-112252097D01*
X148181500Y-118609500D01*
X148161815Y-118676539D01*
X148109011Y-118722294D01*
X148057500Y-118733500D01*
X147987354Y-118733500D01*
X147954897Y-118740398D01*
X147802197Y-118772855D01*
X147802192Y-118772857D01*
X147629270Y-118849848D01*
X147629265Y-118849851D01*
X147476129Y-118961111D01*
X147349466Y-119101785D01*
X147254821Y-119265715D01*
X147254818Y-119265722D01*
X147196327Y-119445740D01*
X147196326Y-119445744D01*
X147178679Y-119613649D01*
X147152094Y-119678263D01*
X147143039Y-119688368D01*
X144142208Y-122689199D01*
X144129951Y-122699020D01*
X144130134Y-122699241D01*
X144124123Y-122704213D01*
X144076772Y-122754636D01*
X144055889Y-122775519D01*
X144055877Y-122775532D01*
X144051621Y-122781017D01*
X144047837Y-122785447D01*
X144015937Y-122819418D01*
X144015936Y-122819420D01*
X144006284Y-122836976D01*
X143995610Y-122853226D01*
X143983329Y-122869061D01*
X143983324Y-122869068D01*
X143964815Y-122911838D01*
X143962245Y-122917084D01*
X143939803Y-122957906D01*
X143934822Y-122977307D01*
X143928521Y-122995710D01*
X143920562Y-123014102D01*
X143920561Y-123014105D01*
X143913271Y-123060127D01*
X143912087Y-123065846D01*
X143900501Y-123110972D01*
X143900500Y-123110982D01*
X143900500Y-123131016D01*
X143898973Y-123150415D01*
X143895840Y-123170194D01*
X143895840Y-123170195D01*
X143900225Y-123216583D01*
X143900500Y-123222421D01*
X143900500Y-132163546D01*
X143880815Y-132230585D01*
X143864181Y-132251227D01*
X141452226Y-134663181D01*
X141390903Y-134696666D01*
X141364545Y-134699500D01*
X140152129Y-134699500D01*
X140152123Y-134699501D01*
X140092516Y-134705908D01*
X139957671Y-134756202D01*
X139957664Y-134756206D01*
X139842455Y-134842452D01*
X139842452Y-134842455D01*
X139756206Y-134957664D01*
X139756202Y-134957671D01*
X139705908Y-135092517D01*
X139699501Y-135152116D01*
X139699322Y-135155452D01*
X139697847Y-135155372D01*
X139679815Y-135216783D01*
X139627011Y-135262538D01*
X139583523Y-135270028D01*
X138897953Y-135955598D01*
X138885165Y-135874852D01*
X138827641Y-135761955D01*
X138738045Y-135672359D01*
X138625148Y-135614835D01*
X138544400Y-135602046D01*
X139225472Y-134920974D01*
X139225471Y-134920973D01*
X139152483Y-134869866D01*
X139152481Y-134869865D01*
X138946326Y-134773734D01*
X138946317Y-134773730D01*
X138726610Y-134714860D01*
X138726599Y-134714858D01*
X138500002Y-134695034D01*
X138499998Y-134695034D01*
X138273400Y-134714858D01*
X138273389Y-134714860D01*
X138053682Y-134773730D01*
X138053673Y-134773734D01*
X137847513Y-134869868D01*
X137774527Y-134920972D01*
X137774526Y-134920973D01*
X138455600Y-135602046D01*
X138374852Y-135614835D01*
X138261955Y-135672359D01*
X138172359Y-135761955D01*
X138114835Y-135874852D01*
X138102046Y-135955599D01*
X137420973Y-135274526D01*
X137420972Y-135274527D01*
X137376075Y-135338648D01*
X137321498Y-135382273D01*
X137252000Y-135389467D01*
X137189645Y-135357944D01*
X137154231Y-135297714D01*
X137150500Y-135267525D01*
X137150500Y-128240472D01*
X137170185Y-128173433D01*
X137222989Y-128127678D01*
X137292147Y-128117734D01*
X137355703Y-128146759D01*
X137376076Y-128169350D01*
X137420973Y-128233472D01*
X137420974Y-128233472D01*
X138102046Y-127552399D01*
X138114835Y-127633148D01*
X138172359Y-127746045D01*
X138261955Y-127835641D01*
X138374852Y-127893165D01*
X138455599Y-127905953D01*
X137774526Y-128587025D01*
X137774526Y-128587026D01*
X137847512Y-128638131D01*
X137847516Y-128638133D01*
X138053673Y-128734265D01*
X138053682Y-128734269D01*
X138273389Y-128793139D01*
X138273400Y-128793141D01*
X138499998Y-128812966D01*
X138500002Y-128812966D01*
X138726599Y-128793141D01*
X138726610Y-128793139D01*
X138946317Y-128734269D01*
X138946331Y-128734264D01*
X139152478Y-128638136D01*
X139225472Y-128587025D01*
X138544401Y-127905953D01*
X138625148Y-127893165D01*
X138738045Y-127835641D01*
X138827641Y-127746045D01*
X138885165Y-127633148D01*
X138897953Y-127552400D01*
X139584199Y-128238646D01*
X139633192Y-128248492D01*
X139683375Y-128297107D01*
X139698049Y-128352632D01*
X139699099Y-128352576D01*
X139699146Y-128352571D01*
X139699146Y-128352573D01*
X139699324Y-128352564D01*
X139699501Y-128355876D01*
X139705908Y-128415483D01*
X139756202Y-128550328D01*
X139756206Y-128550335D01*
X139842452Y-128665544D01*
X139842455Y-128665547D01*
X139957664Y-128751793D01*
X139957671Y-128751797D01*
X140092517Y-128802091D01*
X140092516Y-128802091D01*
X140099444Y-128802835D01*
X140152127Y-128808500D01*
X141847872Y-128808499D01*
X141907483Y-128802091D01*
X142042331Y-128751796D01*
X142157546Y-128665546D01*
X142243796Y-128550331D01*
X142294091Y-128415483D01*
X142300500Y-128355873D01*
X142300499Y-126660128D01*
X142294091Y-126600517D01*
X142279982Y-126562690D01*
X142243797Y-126465671D01*
X142243793Y-126465664D01*
X142157547Y-126350455D01*
X142157544Y-126350452D01*
X142042335Y-126264206D01*
X142042328Y-126264202D01*
X141907482Y-126213908D01*
X141907483Y-126213908D01*
X141847883Y-126207501D01*
X141847881Y-126207500D01*
X141847873Y-126207500D01*
X141847865Y-126207500D01*
X141749500Y-126207500D01*
X141682461Y-126187815D01*
X141636706Y-126135011D01*
X141625500Y-126083500D01*
X141625500Y-119275131D01*
X141644508Y-119209156D01*
X141650456Y-119199690D01*
X141706313Y-119040059D01*
X141706313Y-119040058D01*
X141706314Y-119040056D01*
X141725249Y-118872002D01*
X141725249Y-118871997D01*
X141706314Y-118703943D01*
X141650454Y-118544305D01*
X141650452Y-118544302D01*
X141560481Y-118401115D01*
X141560476Y-118401109D01*
X141458549Y-118299182D01*
X141425064Y-118237859D01*
X141430048Y-118168167D01*
X141449739Y-118135699D01*
X141449014Y-118135172D01*
X141452828Y-118129921D01*
X141452832Y-118129917D01*
X141547478Y-117965985D01*
X141605973Y-117785957D01*
X141625759Y-117597701D01*
X141605973Y-117409445D01*
X141547478Y-117229417D01*
X141499460Y-117146248D01*
X141482988Y-117078348D01*
X141505841Y-117012322D01*
X141560762Y-116969131D01*
X141598180Y-116961919D01*
X141598080Y-116961029D01*
X141773056Y-116941314D01*
X141805387Y-116930001D01*
X141932690Y-116885456D01*
X141932692Y-116885454D01*
X141932694Y-116885454D01*
X141932697Y-116885452D01*
X142075884Y-116795481D01*
X142075885Y-116795480D01*
X142075890Y-116795477D01*
X142195477Y-116675890D01*
X142203158Y-116663666D01*
X142285452Y-116532697D01*
X142285454Y-116532694D01*
X142285454Y-116532692D01*
X142285456Y-116532690D01*
X142341313Y-116373059D01*
X142341313Y-116373058D01*
X142341314Y-116373056D01*
X142360249Y-116205002D01*
X142360249Y-116204997D01*
X142341314Y-116036943D01*
X142285454Y-115877305D01*
X142285452Y-115877302D01*
X142195481Y-115734115D01*
X142195476Y-115734109D01*
X142075890Y-115614523D01*
X142075884Y-115614518D01*
X141932697Y-115524547D01*
X141932694Y-115524545D01*
X141773056Y-115468685D01*
X141605003Y-115449751D01*
X141604997Y-115449751D01*
X141436943Y-115468685D01*
X141277309Y-115524544D01*
X141236838Y-115549973D01*
X141188553Y-115580312D01*
X141130931Y-115596913D01*
X141131108Y-115598257D01*
X141106768Y-115601461D01*
X141083689Y-115604500D01*
X141068234Y-115606534D01*
X140966289Y-115619955D01*
X140966287Y-115619956D01*
X140820207Y-115680464D01*
X140694769Y-115776716D01*
X140673069Y-115804994D01*
X140667718Y-115811096D01*
X136302181Y-120176633D01*
X136240858Y-120210118D01*
X136171166Y-120205134D01*
X136115233Y-120163262D01*
X136090816Y-120097798D01*
X136090500Y-120088952D01*
X136090500Y-113730097D01*
X136110185Y-113663058D01*
X136126819Y-113642416D01*
X141422450Y-108346785D01*
X141442572Y-108326663D01*
X141680241Y-108088992D01*
X141741560Y-108055510D01*
X141754024Y-108053457D01*
X141773059Y-108051313D01*
X141932690Y-107995456D01*
X141932693Y-107995453D01*
X141932697Y-107995452D01*
X142075884Y-107905481D01*
X142075885Y-107905480D01*
X142075890Y-107905477D01*
X142195477Y-107785890D01*
X142221588Y-107744335D01*
X142285452Y-107642697D01*
X142285454Y-107642694D01*
X142285454Y-107642692D01*
X142285456Y-107642690D01*
X142341313Y-107483059D01*
X142341313Y-107483058D01*
X142341314Y-107483056D01*
X142360249Y-107315002D01*
X142360249Y-107314997D01*
X142341314Y-107146943D01*
X142285454Y-106987305D01*
X142285452Y-106987302D01*
X142195481Y-106844115D01*
X142195476Y-106844109D01*
X142075890Y-106724523D01*
X142075884Y-106724518D01*
X141932697Y-106634547D01*
X141932694Y-106634545D01*
X141773056Y-106578685D01*
X141605003Y-106559751D01*
X141604997Y-106559751D01*
X141436943Y-106578685D01*
X141277305Y-106634545D01*
X141277302Y-106634547D01*
X141134115Y-106724518D01*
X141134109Y-106724523D01*
X141014523Y-106844109D01*
X141014518Y-106844115D01*
X140924547Y-106987302D01*
X140924544Y-106987307D01*
X140868687Y-107146940D01*
X140868687Y-107146943D01*
X140866543Y-107165966D01*
X140839473Y-107230379D01*
X140831005Y-107239759D01*
X140573215Y-107497550D01*
X135096096Y-112974668D01*
X135089993Y-112980020D01*
X135061719Y-113001716D01*
X135037550Y-113033215D01*
X134965461Y-113127162D01*
X134965461Y-113127163D01*
X134904957Y-113273234D01*
X134904955Y-113273239D01*
X134884318Y-113429998D01*
X134884318Y-113429999D01*
X134888969Y-113465326D01*
X134889500Y-113473428D01*
X134889500Y-127099902D01*
X134869815Y-127166941D01*
X134853181Y-127187583D01*
X133867031Y-128173732D01*
X133805708Y-128207217D01*
X133736016Y-128202233D01*
X133680083Y-128160361D01*
X133655666Y-128094897D01*
X133656877Y-128066653D01*
X133685278Y-127887338D01*
X133705578Y-127500000D01*
X133685278Y-127112662D01*
X133624602Y-126729567D01*
X133524214Y-126354913D01*
X133385214Y-125992806D01*
X133209125Y-125647211D01*
X133152490Y-125560000D01*
X132997877Y-125321917D01*
X132783601Y-125057309D01*
X132753781Y-125020484D01*
X132479516Y-124746219D01*
X132258198Y-124566999D01*
X132178082Y-124502122D01*
X131852793Y-124290877D01*
X131507197Y-124114787D01*
X131145094Y-123975788D01*
X131040768Y-123947834D01*
X130770433Y-123875398D01*
X130770429Y-123875397D01*
X130770428Y-123875397D01*
X130387339Y-123814722D01*
X130000001Y-123794422D01*
X129999999Y-123794422D01*
X129612658Y-123814722D01*
X129270356Y-123868936D01*
X129201063Y-123859981D01*
X129163278Y-123834144D01*
X122123815Y-116794681D01*
X122090330Y-116733358D01*
X122095314Y-116663666D01*
X122137186Y-116607733D01*
X122202650Y-116583316D01*
X122211496Y-116583000D01*
X123032000Y-116583000D01*
X123032000Y-115636553D01*
X123031999Y-115636552D01*
X122769680Y-115898871D01*
X122708357Y-115932356D01*
X122638665Y-115927372D01*
X122594318Y-115898871D01*
X122328447Y-115633000D01*
X122526709Y-115633000D01*
X122547514Y-115710645D01*
X122604355Y-115767486D01*
X122662254Y-115783000D01*
X122701746Y-115783000D01*
X122759645Y-115767486D01*
X122816486Y-115710646D01*
X122837291Y-115633000D01*
X123726709Y-115633000D01*
X123747514Y-115710645D01*
X123804355Y-115767486D01*
X123862254Y-115783000D01*
X123901746Y-115783000D01*
X123959645Y-115767486D01*
X124016486Y-115710646D01*
X124037291Y-115633000D01*
X124016486Y-115555355D01*
X123959645Y-115498514D01*
X123901746Y-115483000D01*
X123862254Y-115483000D01*
X123804355Y-115498514D01*
X123747514Y-115555354D01*
X123726709Y-115633000D01*
X122837291Y-115633000D01*
X122816486Y-115555355D01*
X122759645Y-115498514D01*
X122701746Y-115483000D01*
X122662254Y-115483000D01*
X122604355Y-115498514D01*
X122547514Y-115555354D01*
X122526709Y-115633000D01*
X122328447Y-115633000D01*
X121998934Y-115303487D01*
X121965449Y-115242164D01*
X121970433Y-115172472D01*
X121998934Y-115128124D01*
X122044058Y-115083000D01*
X122485553Y-115083000D01*
X122682000Y-115279447D01*
X122878447Y-115083000D01*
X123685553Y-115083000D01*
X123882000Y-115279447D01*
X124078447Y-115083000D01*
X123882000Y-114886553D01*
X123685553Y-115083000D01*
X122878447Y-115083000D01*
X122682000Y-114886553D01*
X122485553Y-115083000D01*
X122044058Y-115083000D01*
X122044059Y-115082999D01*
X121998934Y-115037874D01*
X121965449Y-114976551D01*
X121970433Y-114906859D01*
X121998934Y-114862512D01*
X122328446Y-114533000D01*
X122526709Y-114533000D01*
X122547514Y-114610645D01*
X122604355Y-114667486D01*
X122662254Y-114683000D01*
X122701746Y-114683000D01*
X122759645Y-114667486D01*
X122816486Y-114610646D01*
X122837291Y-114533000D01*
X123726709Y-114533000D01*
X123747514Y-114610645D01*
X123804355Y-114667486D01*
X123862254Y-114683000D01*
X123901746Y-114683000D01*
X123959645Y-114667486D01*
X124016486Y-114610646D01*
X124037291Y-114533000D01*
X124016486Y-114455355D01*
X123959645Y-114398514D01*
X123901746Y-114383000D01*
X123862254Y-114383000D01*
X123804355Y-114398514D01*
X123747514Y-114455354D01*
X123726709Y-114533000D01*
X122837291Y-114533000D01*
X122816486Y-114455355D01*
X122759645Y-114398514D01*
X122701746Y-114383000D01*
X122662254Y-114383000D01*
X122604355Y-114398514D01*
X122547514Y-114455354D01*
X122526709Y-114533000D01*
X122328446Y-114533000D01*
X122594318Y-114267128D01*
X122655641Y-114233643D01*
X122725333Y-114238627D01*
X122769680Y-114267128D01*
X123031999Y-114529447D01*
X123032000Y-114529446D01*
X123032000Y-114083000D01*
X123532000Y-114083000D01*
X123532000Y-114529447D01*
X123794319Y-114267128D01*
X123855642Y-114233643D01*
X123925333Y-114238627D01*
X123969681Y-114267128D01*
X124565065Y-114862512D01*
X124598550Y-114923835D01*
X124593566Y-114993527D01*
X124565065Y-115037874D01*
X124519939Y-115083000D01*
X124565065Y-115128126D01*
X124598550Y-115189449D01*
X124593566Y-115259141D01*
X124565065Y-115303488D01*
X123969681Y-115898871D01*
X123908358Y-115932356D01*
X123838666Y-115927372D01*
X123794319Y-115898871D01*
X123532000Y-115636552D01*
X123532000Y-116583000D01*
X124804828Y-116583000D01*
X124804844Y-116582999D01*
X124864372Y-116576598D01*
X124864379Y-116576596D01*
X124999086Y-116526354D01*
X124999093Y-116526350D01*
X125114187Y-116440190D01*
X125114190Y-116440187D01*
X125200350Y-116325093D01*
X125200354Y-116325086D01*
X125250596Y-116190379D01*
X125250598Y-116190372D01*
X125256999Y-116130844D01*
X125257000Y-116130827D01*
X125257000Y-114083000D01*
X123532000Y-114083000D01*
X123032000Y-114083000D01*
X121307000Y-114083000D01*
X121307000Y-115678504D01*
X121287315Y-115745543D01*
X121234511Y-115791298D01*
X121165353Y-115801242D01*
X121101797Y-115772217D01*
X121095319Y-115766185D01*
X118912134Y-113583000D01*
X121307000Y-113583000D01*
X123032000Y-113583000D01*
X123032000Y-111083000D01*
X123532000Y-111083000D01*
X123532000Y-113583000D01*
X125257000Y-113583000D01*
X125257000Y-111535172D01*
X125256999Y-111535155D01*
X125250598Y-111475627D01*
X125250596Y-111475620D01*
X125200354Y-111340913D01*
X125200350Y-111340906D01*
X125114190Y-111225812D01*
X125114187Y-111225809D01*
X124999093Y-111139649D01*
X124999086Y-111139645D01*
X124864379Y-111089403D01*
X124864372Y-111089401D01*
X124804844Y-111083000D01*
X123532000Y-111083000D01*
X123032000Y-111083000D01*
X121759155Y-111083000D01*
X121699627Y-111089401D01*
X121699620Y-111089403D01*
X121564913Y-111139645D01*
X121564906Y-111139649D01*
X121449812Y-111225809D01*
X121449809Y-111225812D01*
X121363649Y-111340906D01*
X121363645Y-111340913D01*
X121313403Y-111475620D01*
X121313401Y-111475627D01*
X121307000Y-111535155D01*
X121307000Y-113583000D01*
X118912134Y-113583000D01*
X117727329Y-112398195D01*
X114277046Y-108947912D01*
X114251724Y-108922590D01*
X114226404Y-108897269D01*
X114226393Y-108897259D01*
X114170825Y-108855661D01*
X114167378Y-108852884D01*
X114114923Y-108807430D01*
X114114918Y-108807427D01*
X114114917Y-108807426D01*
X114056499Y-108769883D01*
X114052875Y-108767366D01*
X113997315Y-108725774D01*
X113997310Y-108725771D01*
X113997309Y-108725770D01*
X113936396Y-108692509D01*
X113932589Y-108690250D01*
X113874192Y-108652720D01*
X113874182Y-108652715D01*
X113836929Y-108635703D01*
X113811034Y-108623877D01*
X113807104Y-108621910D01*
X113746161Y-108588633D01*
X113681117Y-108564372D01*
X113677029Y-108562678D01*
X113613891Y-108533845D01*
X113547292Y-108514289D01*
X113543092Y-108512891D01*
X113478047Y-108488631D01*
X113478050Y-108488631D01*
X113410205Y-108473873D01*
X113405915Y-108472778D01*
X113339331Y-108453227D01*
X113339318Y-108453224D01*
X113270616Y-108443346D01*
X113266272Y-108442562D01*
X113237415Y-108436285D01*
X113198431Y-108427804D01*
X113129184Y-108422850D01*
X113124784Y-108422377D01*
X113056082Y-108412500D01*
X113056079Y-108412500D01*
X112984448Y-108412500D01*
X105931503Y-108412500D01*
X105864464Y-108392815D01*
X105818709Y-108340011D01*
X105808765Y-108270853D01*
X105811728Y-108256407D01*
X105824409Y-108209078D01*
X105854063Y-108098408D01*
X105874659Y-107863000D01*
X105874535Y-107861588D01*
X105868297Y-107790279D01*
X105854063Y-107627592D01*
X105815335Y-107483056D01*
X105800728Y-107428540D01*
X105802391Y-107358690D01*
X105832820Y-107308768D01*
X109141586Y-104000002D01*
X113244751Y-104000002D01*
X113263685Y-104168056D01*
X113319545Y-104327694D01*
X113319547Y-104327697D01*
X113409518Y-104470884D01*
X113409523Y-104470890D01*
X113529109Y-104590476D01*
X113529115Y-104590481D01*
X113672302Y-104680452D01*
X113672305Y-104680454D01*
X113672309Y-104680455D01*
X113672310Y-104680456D01*
X113744913Y-104705860D01*
X113831943Y-104736314D01*
X113999997Y-104755249D01*
X114000000Y-104755249D01*
X114000003Y-104755249D01*
X114168056Y-104736314D01*
X114187401Y-104729545D01*
X114327690Y-104680456D01*
X114327692Y-104680454D01*
X114327694Y-104680454D01*
X114327697Y-104680452D01*
X114470884Y-104590481D01*
X114470885Y-104590480D01*
X114470890Y-104590477D01*
X114590477Y-104470890D01*
X114590481Y-104470884D01*
X114680452Y-104327697D01*
X114680455Y-104327692D01*
X114680456Y-104327690D01*
X114736313Y-104168059D01*
X114736313Y-104168053D01*
X114737612Y-104164343D01*
X114766974Y-104117615D01*
X114896274Y-103988318D01*
X114957597Y-103954833D01*
X114983954Y-103952000D01*
X115074481Y-103952000D01*
X153298359Y-103952000D01*
X153365398Y-103971685D01*
X153390507Y-103993026D01*
X153396233Y-103999385D01*
X153396237Y-103999389D01*
X153549372Y-104110648D01*
X153549377Y-104110651D01*
X153722299Y-104187642D01*
X153722304Y-104187644D01*
X153907461Y-104227000D01*
X153907462Y-104227000D01*
X154096751Y-104227000D01*
X154096753Y-104227000D01*
X154281910Y-104187644D01*
X154454837Y-104110651D01*
X154607978Y-103999388D01*
X154734640Y-103858716D01*
X154829286Y-103694784D01*
X154887781Y-103514756D01*
X154906354Y-103338036D01*
X154932939Y-103273424D01*
X154990236Y-103233439D01*
X155029675Y-103227000D01*
X155036824Y-103227000D01*
X155103863Y-103246685D01*
X155149618Y-103299489D01*
X155154755Y-103312683D01*
X155172817Y-103368275D01*
X155172821Y-103368284D01*
X155267467Y-103532216D01*
X155393601Y-103672302D01*
X155394129Y-103672888D01*
X155547265Y-103784148D01*
X155547270Y-103784151D01*
X155720192Y-103861142D01*
X155720197Y-103861144D01*
X155905354Y-103900500D01*
X155905355Y-103900500D01*
X156094644Y-103900500D01*
X156094646Y-103900500D01*
X156279803Y-103861144D01*
X156452730Y-103784151D01*
X156605871Y-103672888D01*
X156732533Y-103532216D01*
X156827179Y-103368284D01*
X156885674Y-103188256D01*
X156905460Y-103000000D01*
X156885674Y-102811744D01*
X156827179Y-102631716D01*
X156732533Y-102467784D01*
X156605871Y-102327112D01*
X156605870Y-102327111D01*
X156452734Y-102215851D01*
X156452729Y-102215848D01*
X156279807Y-102138857D01*
X156279802Y-102138855D01*
X156134001Y-102107865D01*
X156094646Y-102099500D01*
X156094645Y-102099500D01*
X156018584Y-102099500D01*
X155958845Y-102084161D01*
X155954525Y-102081786D01*
X155938263Y-102071104D01*
X155922433Y-102058825D01*
X155879668Y-102040318D01*
X155874422Y-102037748D01*
X155833593Y-102015303D01*
X155833592Y-102015302D01*
X155814193Y-102010322D01*
X155795781Y-102004018D01*
X155777398Y-101996062D01*
X155777392Y-101996060D01*
X155731374Y-101988772D01*
X155725652Y-101987587D01*
X155680521Y-101976000D01*
X155680519Y-101976000D01*
X155660484Y-101976000D01*
X155641086Y-101974473D01*
X155633662Y-101973297D01*
X155621305Y-101971340D01*
X155621304Y-101971340D01*
X155574916Y-101975725D01*
X155569078Y-101976000D01*
X115692980Y-101976000D01*
X115627008Y-101956994D01*
X115569796Y-101921045D01*
X115569795Y-101921044D01*
X115569794Y-101921044D01*
X115531474Y-101907635D01*
X115410160Y-101865185D01*
X115242107Y-101846251D01*
X115242101Y-101846251D01*
X115074047Y-101865185D01*
X114914409Y-101921045D01*
X114914406Y-101921047D01*
X114771219Y-102011018D01*
X114771213Y-102011023D01*
X114651627Y-102130609D01*
X114651622Y-102130615D01*
X114561651Y-102273802D01*
X114561649Y-102273805D01*
X114505789Y-102433443D01*
X114486855Y-102601497D01*
X114486855Y-102601498D01*
X114489349Y-102623639D01*
X114477292Y-102692460D01*
X114429942Y-102743838D01*
X114429247Y-102744252D01*
X114405869Y-102758077D01*
X114388405Y-102766633D01*
X114369774Y-102774010D01*
X114369762Y-102774017D01*
X114332070Y-102801402D01*
X114327187Y-102804609D01*
X114287080Y-102828329D01*
X114272914Y-102842495D01*
X114258124Y-102855127D01*
X114241914Y-102866904D01*
X114241911Y-102866907D01*
X114212210Y-102902809D01*
X114208277Y-102907131D01*
X113882381Y-103233027D01*
X113835654Y-103262388D01*
X113831941Y-103263686D01*
X113831941Y-103263687D01*
X113823316Y-103266705D01*
X113672308Y-103319544D01*
X113672302Y-103319547D01*
X113529115Y-103409518D01*
X113529109Y-103409523D01*
X113409523Y-103529109D01*
X113409518Y-103529115D01*
X113319547Y-103672302D01*
X113319545Y-103672305D01*
X113263685Y-103831943D01*
X113244751Y-103999997D01*
X113244751Y-104000002D01*
X109141586Y-104000002D01*
X124241591Y-88900000D01*
X140064540Y-88900000D01*
X140084326Y-89088256D01*
X140084327Y-89088259D01*
X140142818Y-89268277D01*
X140142821Y-89268284D01*
X140237467Y-89432216D01*
X140328377Y-89533181D01*
X140364129Y-89572888D01*
X140517265Y-89684148D01*
X140517270Y-89684151D01*
X140690192Y-89761142D01*
X140690197Y-89761144D01*
X140875354Y-89800500D01*
X140969903Y-89800500D01*
X141036942Y-89820185D01*
X141057584Y-89836819D01*
X141784669Y-90563904D01*
X141790020Y-90570005D01*
X141811718Y-90598282D01*
X141882946Y-90652937D01*
X141937159Y-90694536D01*
X142083238Y-90755044D01*
X142124681Y-90760500D01*
X142239999Y-90775682D01*
X142240000Y-90775682D01*
X142275329Y-90771030D01*
X142283428Y-90770500D01*
X142848242Y-90770500D01*
X142915281Y-90790185D01*
X142940391Y-90811527D01*
X142968628Y-90842887D01*
X142968635Y-90842893D01*
X143121765Y-90954148D01*
X143121770Y-90954151D01*
X143294692Y-91031142D01*
X143294697Y-91031144D01*
X143479854Y-91070500D01*
X143479855Y-91070500D01*
X143669144Y-91070500D01*
X143669146Y-91070500D01*
X143854303Y-91031144D01*
X144027230Y-90954151D01*
X144180371Y-90842888D01*
X144307033Y-90702216D01*
X144401679Y-90538284D01*
X144460174Y-90358256D01*
X144479960Y-90170000D01*
X144460174Y-89981744D01*
X144401679Y-89801716D01*
X144307033Y-89637784D01*
X144180371Y-89497112D01*
X144180363Y-89497106D01*
X144027234Y-89385851D01*
X144027229Y-89385848D01*
X143854307Y-89308857D01*
X143854302Y-89308855D01*
X143708501Y-89277865D01*
X143669146Y-89269500D01*
X143479854Y-89269500D01*
X143447397Y-89276398D01*
X143294697Y-89308855D01*
X143294692Y-89308857D01*
X143121770Y-89385848D01*
X143121765Y-89385851D01*
X142968635Y-89497106D01*
X142968628Y-89497112D01*
X142940391Y-89528473D01*
X142880905Y-89565121D01*
X142848242Y-89569500D01*
X142540097Y-89569500D01*
X142473058Y-89549815D01*
X142452416Y-89533181D01*
X141911779Y-88992544D01*
X141878294Y-88931221D01*
X141875460Y-88904863D01*
X141875460Y-88900002D01*
X141875460Y-88899998D01*
X141855674Y-88711744D01*
X141797179Y-88531716D01*
X141702533Y-88367784D01*
X141575871Y-88227112D01*
X141575870Y-88227111D01*
X141422734Y-88115851D01*
X141422729Y-88115848D01*
X141249807Y-88038857D01*
X141249802Y-88038855D01*
X141104001Y-88007865D01*
X141064646Y-87999500D01*
X140875354Y-87999500D01*
X140842897Y-88006398D01*
X140690197Y-88038855D01*
X140690192Y-88038857D01*
X140517270Y-88115848D01*
X140517265Y-88115851D01*
X140364129Y-88227111D01*
X140237466Y-88367785D01*
X140142821Y-88531715D01*
X140142818Y-88531722D01*
X140109819Y-88633284D01*
X140084326Y-88711744D01*
X140064540Y-88900000D01*
X124241591Y-88900000D01*
X126479772Y-86661819D01*
X126541095Y-86628334D01*
X126567453Y-86625500D01*
X143939412Y-86625500D01*
X144006451Y-86645185D01*
X144052206Y-86697989D01*
X144062150Y-86767147D01*
X144056454Y-86790455D01*
X144043685Y-86826943D01*
X144024751Y-86994997D01*
X144024751Y-86995002D01*
X144043685Y-87163056D01*
X144099545Y-87322694D01*
X144099547Y-87322697D01*
X144189518Y-87465884D01*
X144189523Y-87465890D01*
X144309109Y-87585476D01*
X144309115Y-87585481D01*
X144452302Y-87675452D01*
X144452308Y-87675455D01*
X144452310Y-87675456D01*
X144611941Y-87731313D01*
X144630961Y-87733455D01*
X144695373Y-87760520D01*
X144704760Y-87768995D01*
X146048181Y-89112416D01*
X146081666Y-89173739D01*
X146084500Y-89200097D01*
X146084500Y-91396571D01*
X146083969Y-91404673D01*
X146079318Y-91439999D01*
X146079318Y-91440000D01*
X146084500Y-91479360D01*
X146099955Y-91596760D01*
X146099956Y-91596762D01*
X146160464Y-91742841D01*
X146256718Y-91868282D01*
X146284995Y-91889980D01*
X146291085Y-91895320D01*
X149320364Y-94924599D01*
X152261004Y-97865239D01*
X152294489Y-97926562D01*
X152296543Y-97939032D01*
X152298687Y-97958058D01*
X152354544Y-98117692D01*
X152354547Y-98117697D01*
X152444518Y-98260884D01*
X152444523Y-98260890D01*
X152564109Y-98380476D01*
X152564115Y-98380481D01*
X152707302Y-98470452D01*
X152707305Y-98470454D01*
X152707309Y-98470455D01*
X152707310Y-98470456D01*
X152765399Y-98490782D01*
X152866943Y-98526314D01*
X153034997Y-98545249D01*
X153035000Y-98545249D01*
X153035003Y-98545249D01*
X153203056Y-98526314D01*
X153216005Y-98521783D01*
X153362690Y-98470456D01*
X153362692Y-98470454D01*
X153362694Y-98470454D01*
X153362697Y-98470452D01*
X153505884Y-98380481D01*
X153505885Y-98380480D01*
X153505890Y-98380477D01*
X153625477Y-98260890D01*
X153658970Y-98207586D01*
X153711301Y-98161297D01*
X153780354Y-98150647D01*
X153844203Y-98179022D01*
X153851643Y-98185878D01*
X156304669Y-100638904D01*
X156310020Y-100645005D01*
X156331718Y-100673282D01*
X156408936Y-100732533D01*
X156457159Y-100769536D01*
X156457162Y-100769537D01*
X156457163Y-100769538D01*
X156530198Y-100799790D01*
X156603238Y-100830044D01*
X156681619Y-100840363D01*
X156759999Y-100850682D01*
X156760000Y-100850682D01*
X156795329Y-100846030D01*
X156803428Y-100845500D01*
X175301572Y-100845500D01*
X175309670Y-100846030D01*
X175345000Y-100850682D01*
X175345001Y-100850682D01*
X175397254Y-100843802D01*
X175501762Y-100830044D01*
X175647841Y-100769536D01*
X175696064Y-100732533D01*
X175773282Y-100673282D01*
X175794983Y-100644999D01*
X175800311Y-100638922D01*
X181685240Y-94753993D01*
X181746561Y-94720510D01*
X181759024Y-94718457D01*
X181778059Y-94716313D01*
X181937690Y-94660456D01*
X181937693Y-94660453D01*
X181937697Y-94660452D01*
X182080884Y-94570481D01*
X182080885Y-94570480D01*
X182080890Y-94570477D01*
X182200477Y-94450890D01*
X182212233Y-94432181D01*
X182290452Y-94307697D01*
X182290454Y-94307694D01*
X182290454Y-94307692D01*
X182290456Y-94307690D01*
X182346313Y-94148059D01*
X182346313Y-94148058D01*
X182346314Y-94148056D01*
X182365249Y-93980002D01*
X182365249Y-93979997D01*
X182346314Y-93811943D01*
X182290454Y-93652305D01*
X182290452Y-93652302D01*
X182200481Y-93509115D01*
X182200476Y-93509109D01*
X182080890Y-93389523D01*
X182080887Y-93389521D01*
X182027586Y-93356029D01*
X181981295Y-93303694D01*
X181970648Y-93234641D01*
X181999023Y-93170792D01*
X182005866Y-93163367D01*
X182320240Y-92848993D01*
X182381561Y-92815510D01*
X182394024Y-92813457D01*
X182413059Y-92811313D01*
X182572690Y-92755456D01*
X182572693Y-92755453D01*
X182572697Y-92755452D01*
X182715884Y-92665481D01*
X182715885Y-92665480D01*
X182715890Y-92665477D01*
X182835477Y-92545890D01*
X182847262Y-92527134D01*
X182925452Y-92402697D01*
X182925454Y-92402694D01*
X182925454Y-92402692D01*
X182925456Y-92402690D01*
X182981313Y-92243059D01*
X182982151Y-92235618D01*
X183009217Y-92171205D01*
X183066811Y-92131648D01*
X183105372Y-92125500D01*
X189267178Y-92125500D01*
X189334217Y-92145185D01*
X189354859Y-92161819D01*
X194391004Y-97197965D01*
X194424489Y-97259288D01*
X194419505Y-97328980D01*
X194377633Y-97384913D01*
X194313054Y-97409264D01*
X194302432Y-97410100D01*
X194248852Y-97414317D01*
X194248848Y-97414318D01*
X194003889Y-97473126D01*
X193771140Y-97569533D01*
X193556346Y-97701160D01*
X193556343Y-97701161D01*
X193364776Y-97864776D01*
X193201161Y-98056343D01*
X193201160Y-98056346D01*
X193069533Y-98271140D01*
X192973126Y-98503889D01*
X192914317Y-98748848D01*
X192894551Y-99000000D01*
X192914317Y-99251151D01*
X192973126Y-99496110D01*
X193069533Y-99728859D01*
X193201160Y-99943653D01*
X193201161Y-99943656D01*
X193201164Y-99943659D01*
X193364776Y-100135224D01*
X193437745Y-100197545D01*
X193556343Y-100298838D01*
X193556346Y-100298839D01*
X193771140Y-100430466D01*
X194003889Y-100526873D01*
X194248852Y-100585683D01*
X194500000Y-100605449D01*
X194751148Y-100585683D01*
X194996111Y-100526873D01*
X195228859Y-100430466D01*
X195443659Y-100298836D01*
X195562258Y-100197542D01*
X195626014Y-100168974D01*
X195695100Y-100179411D01*
X195747576Y-100225541D01*
X195762560Y-100259741D01*
X195809104Y-100433444D01*
X195809105Y-100433446D01*
X195809106Y-100433450D01*
X195852670Y-100526873D01*
X195902466Y-100633662D01*
X195902468Y-100633666D01*
X196029170Y-100814615D01*
X196029175Y-100814621D01*
X196185378Y-100970824D01*
X196185384Y-100970829D01*
X196366333Y-101097531D01*
X196366335Y-101097532D01*
X196366338Y-101097534D01*
X196566550Y-101190894D01*
X196779932Y-101248070D01*
X196937123Y-101261822D01*
X196999998Y-101267323D01*
X197000000Y-101267323D01*
X197000002Y-101267323D01*
X197055017Y-101262509D01*
X197220068Y-101248070D01*
X197433450Y-101190894D01*
X197633662Y-101097534D01*
X197814620Y-100970826D01*
X197970826Y-100814620D01*
X198097534Y-100633662D01*
X198190894Y-100433450D01*
X198248070Y-100220068D01*
X198267323Y-100000000D01*
X198248070Y-99779932D01*
X198190894Y-99566550D01*
X198097534Y-99366339D01*
X197970826Y-99185380D01*
X197814620Y-99029174D01*
X197814616Y-99029171D01*
X197814615Y-99029170D01*
X197675857Y-98932011D01*
X197632232Y-98877434D01*
X197623041Y-98834328D01*
X197622709Y-98823743D01*
X197617121Y-98804509D01*
X197613174Y-98785451D01*
X197610664Y-98765578D01*
X197593507Y-98722245D01*
X197591614Y-98716716D01*
X197578618Y-98671984D01*
X197578617Y-98671980D01*
X197568420Y-98654738D01*
X197559863Y-98637272D01*
X197552486Y-98618638D01*
X197525083Y-98580920D01*
X197521900Y-98576075D01*
X197498170Y-98535949D01*
X197498165Y-98535943D01*
X197484005Y-98521783D01*
X197471370Y-98506990D01*
X197459593Y-98490782D01*
X197423693Y-98461083D01*
X197419381Y-98457160D01*
X193394402Y-94432181D01*
X193360917Y-94370858D01*
X193365901Y-94301166D01*
X193407773Y-94245233D01*
X193473237Y-94220816D01*
X193482083Y-94220500D01*
X194032743Y-94220500D01*
X194184439Y-94205074D01*
X194378579Y-94144162D01*
X194378580Y-94144161D01*
X194378588Y-94144159D01*
X194556502Y-94045409D01*
X194710895Y-93912866D01*
X194835448Y-93751958D01*
X194925060Y-93569271D01*
X194976063Y-93372285D01*
X194981203Y-93270936D01*
X196207631Y-93270936D01*
X196238442Y-93472063D01*
X196238445Y-93472075D01*
X196309111Y-93662881D01*
X196309115Y-93662888D01*
X196416745Y-93835567D01*
X196416747Y-93835569D01*
X196416748Y-93835571D01*
X196556941Y-93983053D01*
X196679721Y-94068510D01*
X196723949Y-94099294D01*
X196723950Y-94099294D01*
X196723951Y-94099295D01*
X196910942Y-94179540D01*
X197110259Y-94220500D01*
X198062743Y-94220500D01*
X198214439Y-94205074D01*
X198408579Y-94144162D01*
X198408580Y-94144161D01*
X198408588Y-94144159D01*
X198586502Y-94045409D01*
X198740895Y-93912866D01*
X198865448Y-93751958D01*
X198955060Y-93569271D01*
X199006063Y-93372285D01*
X199016369Y-93169064D01*
X198985556Y-92967929D01*
X198933680Y-92827858D01*
X198914888Y-92777118D01*
X198914887Y-92777117D01*
X198914886Y-92777113D01*
X198807252Y-92604429D01*
X198667059Y-92456947D01*
X198568587Y-92388409D01*
X198500050Y-92340705D01*
X198313056Y-92260459D01*
X198113741Y-92219500D01*
X197161258Y-92219500D01*
X197161257Y-92219500D01*
X197009560Y-92234925D01*
X196815420Y-92295837D01*
X196815405Y-92295844D01*
X196637500Y-92394589D01*
X196637495Y-92394592D01*
X196483106Y-92527132D01*
X196483104Y-92527134D01*
X196358554Y-92688037D01*
X196358553Y-92688040D01*
X196268940Y-92870728D01*
X196217937Y-93067714D01*
X196207631Y-93270936D01*
X194981203Y-93270936D01*
X194986369Y-93169064D01*
X194955556Y-92967929D01*
X194903680Y-92827858D01*
X194884888Y-92777118D01*
X194884887Y-92777117D01*
X194884886Y-92777113D01*
X194777252Y-92604429D01*
X194637059Y-92456947D01*
X194538587Y-92388409D01*
X194470050Y-92340705D01*
X194283056Y-92260459D01*
X194083741Y-92219500D01*
X192831258Y-92219500D01*
X192831257Y-92219500D01*
X192679560Y-92234925D01*
X192485420Y-92295837D01*
X192485405Y-92295844D01*
X192307500Y-92394589D01*
X192307495Y-92394592D01*
X192153106Y-92527132D01*
X192153104Y-92527134D01*
X192028554Y-92688037D01*
X192028553Y-92688040D01*
X192028552Y-92688041D01*
X192028552Y-92688042D01*
X191984859Y-92777118D01*
X191980436Y-92786134D01*
X191933239Y-92837653D01*
X191865681Y-92855478D01*
X191799211Y-92833948D01*
X191781427Y-92819206D01*
X190078433Y-91116212D01*
X190068610Y-91103950D01*
X190068389Y-91104134D01*
X190063416Y-91098123D01*
X190044789Y-91080631D01*
X190012994Y-91050773D01*
X190002549Y-91040328D01*
X189992105Y-91029883D01*
X189986616Y-91025625D01*
X189982191Y-91021847D01*
X189948212Y-90989938D01*
X189948210Y-90989936D01*
X189948207Y-90989935D01*
X189930659Y-90980288D01*
X189914393Y-90969604D01*
X189898563Y-90957325D01*
X189855798Y-90938818D01*
X189850552Y-90936248D01*
X189809723Y-90913803D01*
X189809722Y-90913802D01*
X189790323Y-90908822D01*
X189771911Y-90902518D01*
X189753528Y-90894562D01*
X189753522Y-90894560D01*
X189707504Y-90887272D01*
X189701782Y-90886087D01*
X189656651Y-90874500D01*
X189656649Y-90874500D01*
X189636614Y-90874500D01*
X189617216Y-90872973D01*
X189609792Y-90871797D01*
X189597435Y-90869840D01*
X189597434Y-90869840D01*
X189551046Y-90874225D01*
X189545208Y-90874500D01*
X169302515Y-90874500D01*
X169235476Y-90854815D01*
X169189721Y-90802011D01*
X169179195Y-90763465D01*
X169160674Y-90587244D01*
X169102179Y-90407216D01*
X169007533Y-90243284D01*
X168880871Y-90102612D01*
X168880870Y-90102611D01*
X168727734Y-89991351D01*
X168727729Y-89991348D01*
X168554807Y-89914357D01*
X168554802Y-89914355D01*
X168409001Y-89883365D01*
X168369646Y-89875000D01*
X168180354Y-89875000D01*
X168147897Y-89881898D01*
X167995197Y-89914355D01*
X167995192Y-89914357D01*
X167822270Y-89991348D01*
X167822265Y-89991351D01*
X167669130Y-90102610D01*
X167669126Y-90102614D01*
X167663400Y-90108974D01*
X167603913Y-90145621D01*
X167571252Y-90150000D01*
X167285952Y-90150000D01*
X167218913Y-90130315D01*
X167198271Y-90113681D01*
X164491819Y-87407228D01*
X164458334Y-87345905D01*
X164455500Y-87319547D01*
X164455500Y-85788687D01*
X164475185Y-85721648D01*
X164487350Y-85705715D01*
X164505891Y-85685122D01*
X164562533Y-85622216D01*
X164657179Y-85458284D01*
X164715674Y-85278256D01*
X164735460Y-85090000D01*
X164715674Y-84901744D01*
X164657179Y-84721716D01*
X164562533Y-84557784D01*
X164435871Y-84417112D01*
X164435870Y-84417111D01*
X164282734Y-84305851D01*
X164282729Y-84305848D01*
X164109807Y-84228857D01*
X164109802Y-84228855D01*
X163964001Y-84197865D01*
X163924646Y-84189500D01*
X163735354Y-84189500D01*
X163702897Y-84196398D01*
X163550197Y-84228855D01*
X163550192Y-84228857D01*
X163377270Y-84305848D01*
X163377265Y-84305851D01*
X163224129Y-84417111D01*
X163097466Y-84557785D01*
X163002821Y-84721715D01*
X163002818Y-84721722D01*
X162944730Y-84900500D01*
X162944326Y-84901744D01*
X162924540Y-85090000D01*
X162944326Y-85278256D01*
X162944327Y-85278259D01*
X163002818Y-85458277D01*
X163002821Y-85458284D01*
X163097467Y-85622216D01*
X163140772Y-85670310D01*
X163172650Y-85705715D01*
X163202880Y-85768706D01*
X163204500Y-85788687D01*
X163204500Y-87547255D01*
X163202775Y-87562872D01*
X163203061Y-87562899D01*
X163202326Y-87570665D01*
X163204500Y-87639814D01*
X163204500Y-87669343D01*
X163204501Y-87669360D01*
X163205368Y-87676231D01*
X163205826Y-87682050D01*
X163207290Y-87728624D01*
X163207291Y-87728627D01*
X163212880Y-87747867D01*
X163216824Y-87766911D01*
X163217088Y-87768995D01*
X163219336Y-87786791D01*
X163236490Y-87830119D01*
X163238382Y-87835647D01*
X163245188Y-87859073D01*
X163251382Y-87880390D01*
X163261040Y-87896722D01*
X163261580Y-87897634D01*
X163270138Y-87915103D01*
X163277514Y-87933732D01*
X163304898Y-87971423D01*
X163308106Y-87976307D01*
X163331827Y-88016416D01*
X163331833Y-88016424D01*
X163345990Y-88030580D01*
X163358628Y-88045376D01*
X163370405Y-88061586D01*
X163370406Y-88061587D01*
X163406309Y-88091288D01*
X163410620Y-88095210D01*
X164739286Y-89423876D01*
X166056646Y-90741236D01*
X166090131Y-90802559D01*
X166085147Y-90872251D01*
X166043275Y-90928184D01*
X166014620Y-90944206D01*
X166006274Y-90947510D01*
X166006262Y-90947517D01*
X165968570Y-90974902D01*
X165963687Y-90978109D01*
X165923580Y-91001829D01*
X165909414Y-91015995D01*
X165894624Y-91028627D01*
X165878414Y-91040404D01*
X165878411Y-91040407D01*
X165848710Y-91076309D01*
X165844777Y-91080631D01*
X163712380Y-93213027D01*
X163665653Y-93242388D01*
X163502308Y-93299544D01*
X163502302Y-93299547D01*
X163359115Y-93389518D01*
X163359109Y-93389523D01*
X163239523Y-93509109D01*
X163239518Y-93509115D01*
X163149547Y-93652302D01*
X163149545Y-93652305D01*
X163093685Y-93811943D01*
X163074751Y-93979997D01*
X163074751Y-93980002D01*
X163093685Y-94148056D01*
X163127689Y-94245233D01*
X163147312Y-94301312D01*
X163149545Y-94307692D01*
X163219416Y-94418891D01*
X163238416Y-94486128D01*
X163221810Y-94546862D01*
X163172820Y-94631716D01*
X163114327Y-94811740D01*
X163114326Y-94811744D01*
X163094540Y-95000000D01*
X163114326Y-95188256D01*
X163114327Y-95188259D01*
X163172818Y-95368277D01*
X163172821Y-95368284D01*
X163267467Y-95532216D01*
X163376524Y-95653336D01*
X163394129Y-95672888D01*
X163547265Y-95784148D01*
X163547270Y-95784151D01*
X163720192Y-95861142D01*
X163720197Y-95861144D01*
X163905354Y-95900500D01*
X163905355Y-95900500D01*
X164094644Y-95900500D01*
X164094646Y-95900500D01*
X164279803Y-95861144D01*
X164452730Y-95784151D01*
X164605871Y-95672888D01*
X164608864Y-95669564D01*
X164611600Y-95666526D01*
X164671087Y-95629879D01*
X164703748Y-95625500D01*
X168296252Y-95625500D01*
X168363291Y-95645185D01*
X168388400Y-95666526D01*
X168394126Y-95672885D01*
X168394130Y-95672889D01*
X168547265Y-95784148D01*
X168547270Y-95784151D01*
X168720192Y-95861142D01*
X168720197Y-95861144D01*
X168905354Y-95900500D01*
X168905355Y-95900500D01*
X169094644Y-95900500D01*
X169094646Y-95900500D01*
X169279803Y-95861144D01*
X169452730Y-95784151D01*
X169605871Y-95672888D01*
X169732533Y-95532216D01*
X169827179Y-95368284D01*
X169885674Y-95188256D01*
X169905460Y-95000000D01*
X169885674Y-94811744D01*
X169827179Y-94631716D01*
X169732533Y-94467784D01*
X169605871Y-94327112D01*
X169605870Y-94327111D01*
X169452734Y-94215851D01*
X169452729Y-94215848D01*
X169279807Y-94138857D01*
X169279802Y-94138855D01*
X169134001Y-94107865D01*
X169094646Y-94099500D01*
X168905354Y-94099500D01*
X168872897Y-94106398D01*
X168720197Y-94138855D01*
X168720192Y-94138857D01*
X168547270Y-94215848D01*
X168547265Y-94215851D01*
X168394130Y-94327110D01*
X168394126Y-94327114D01*
X168388400Y-94333474D01*
X168328913Y-94370121D01*
X168296252Y-94374500D01*
X164703748Y-94374500D01*
X164636709Y-94354815D01*
X164611600Y-94333474D01*
X164605873Y-94327114D01*
X164605872Y-94327113D01*
X164605871Y-94327112D01*
X164598992Y-94322114D01*
X164556329Y-94266784D01*
X164550353Y-94197170D01*
X164554840Y-94180845D01*
X164555297Y-94179540D01*
X164566313Y-94148059D01*
X164566313Y-94148054D01*
X164567613Y-94144341D01*
X164596972Y-94097616D01*
X166532771Y-92161819D01*
X166594094Y-92128334D01*
X166620452Y-92125500D01*
X181045903Y-92125500D01*
X181112942Y-92145185D01*
X181158697Y-92197989D01*
X181168641Y-92267147D01*
X181139616Y-92330703D01*
X181133584Y-92337181D01*
X174412584Y-99058181D01*
X174351261Y-99091666D01*
X174324903Y-99094500D01*
X157904163Y-99094500D01*
X157838191Y-99075494D01*
X157741192Y-99014545D01*
X157741191Y-99014544D01*
X157741190Y-99014544D01*
X157699625Y-99000000D01*
X157581556Y-98958685D01*
X157413503Y-98939751D01*
X157413497Y-98939751D01*
X157245443Y-98958685D01*
X157085805Y-99014545D01*
X157085802Y-99014547D01*
X156942615Y-99104518D01*
X156942609Y-99104523D01*
X156823023Y-99224109D01*
X156823021Y-99224112D01*
X156815191Y-99236574D01*
X156762856Y-99282865D01*
X156693802Y-99293512D01*
X156629954Y-99265136D01*
X156622517Y-99258282D01*
X153820124Y-96455889D01*
X153786639Y-96394566D01*
X153784586Y-96382106D01*
X153780188Y-96343066D01*
X153724331Y-96183435D01*
X153724330Y-96183433D01*
X153724327Y-96183427D01*
X153634356Y-96040240D01*
X153634351Y-96040234D01*
X153514765Y-95920648D01*
X153514759Y-95920643D01*
X153371572Y-95830672D01*
X153371569Y-95830670D01*
X153211931Y-95774810D01*
X153043878Y-95755876D01*
X153043872Y-95755876D01*
X152875818Y-95774810D01*
X152716180Y-95830670D01*
X152716177Y-95830672D01*
X152572990Y-95920643D01*
X152572984Y-95920648D01*
X152453399Y-96040233D01*
X152413055Y-96104439D01*
X152360720Y-96150729D01*
X152291666Y-96161376D01*
X152227818Y-96133000D01*
X152220381Y-96126146D01*
X147321819Y-91227584D01*
X147288334Y-91166261D01*
X147285500Y-91139903D01*
X147285500Y-88943428D01*
X147286031Y-88935326D01*
X147286237Y-88933766D01*
X147290682Y-88900000D01*
X147270044Y-88743238D01*
X147245840Y-88684806D01*
X147209539Y-88597165D01*
X147209536Y-88597159D01*
X147201689Y-88586933D01*
X147113281Y-88471717D01*
X147085007Y-88450022D01*
X147078904Y-88444669D01*
X145553995Y-86919760D01*
X145520510Y-86858437D01*
X145518457Y-86845973D01*
X145516313Y-86826941D01*
X145503546Y-86790454D01*
X145499985Y-86720675D01*
X145534714Y-86660048D01*
X145596708Y-86627821D01*
X145620588Y-86625500D01*
X150298006Y-86625500D01*
X150365045Y-86645185D01*
X150370891Y-86649182D01*
X150522313Y-86759196D01*
X150522318Y-86759199D01*
X150695240Y-86836190D01*
X150695245Y-86836192D01*
X150880402Y-86875548D01*
X150880403Y-86875548D01*
X151069692Y-86875548D01*
X151069694Y-86875548D01*
X151254851Y-86836192D01*
X151427778Y-86759199D01*
X151580919Y-86647936D01*
X151707581Y-86507264D01*
X151802227Y-86343332D01*
X151860722Y-86163304D01*
X151880508Y-85975048D01*
X151860722Y-85786792D01*
X151802227Y-85606764D01*
X151707581Y-85442832D01*
X151580919Y-85302160D01*
X151580918Y-85302159D01*
X151427782Y-85190899D01*
X151427777Y-85190896D01*
X151254855Y-85113905D01*
X151254850Y-85113903D01*
X151109049Y-85082913D01*
X151069694Y-85074548D01*
X150880402Y-85074548D01*
X150847945Y-85081446D01*
X150695245Y-85113903D01*
X150695240Y-85113905D01*
X150522318Y-85190896D01*
X150522313Y-85190899D01*
X150369178Y-85302158D01*
X150369172Y-85302164D01*
X150340983Y-85333472D01*
X150281497Y-85370120D01*
X150248833Y-85374500D01*
X136861950Y-85374500D01*
X136794911Y-85354815D01*
X136749156Y-85302011D01*
X136738730Y-85236617D01*
X136755249Y-85090003D01*
X136755249Y-85089997D01*
X136736314Y-84921943D01*
X136696353Y-84807742D01*
X136690303Y-84790453D01*
X136686743Y-84720676D01*
X136721472Y-84660048D01*
X136783465Y-84627821D01*
X136807346Y-84625500D01*
X153296252Y-84625500D01*
X153363291Y-84645185D01*
X153388400Y-84666526D01*
X153394126Y-84672885D01*
X153394130Y-84672889D01*
X153547265Y-84784148D01*
X153547270Y-84784151D01*
X153720192Y-84861142D01*
X153720197Y-84861144D01*
X153905354Y-84900500D01*
X153905355Y-84900500D01*
X154094644Y-84900500D01*
X154094646Y-84900500D01*
X154279803Y-84861144D01*
X154452730Y-84784151D01*
X154605871Y-84672888D01*
X154616858Y-84660685D01*
X154676343Y-84624036D01*
X154746200Y-84625365D01*
X154796690Y-84655975D01*
X155338181Y-85197466D01*
X155371666Y-85258789D01*
X155374500Y-85285147D01*
X155374500Y-94301312D01*
X155354815Y-94368351D01*
X155342650Y-94384284D01*
X155267466Y-94467784D01*
X155172821Y-94631715D01*
X155172818Y-94631722D01*
X155114327Y-94811740D01*
X155114326Y-94811744D01*
X155094540Y-95000000D01*
X155114326Y-95188256D01*
X155114327Y-95188259D01*
X155172818Y-95368277D01*
X155172821Y-95368284D01*
X155267467Y-95532216D01*
X155376524Y-95653336D01*
X155394129Y-95672888D01*
X155547265Y-95784148D01*
X155547267Y-95784149D01*
X155547270Y-95784151D01*
X155609257Y-95811749D01*
X155662491Y-95856997D01*
X155682813Y-95923846D01*
X155682819Y-95925027D01*
X155682819Y-95992993D01*
X155663134Y-96060032D01*
X155650969Y-96075965D01*
X155575785Y-96159465D01*
X155481140Y-96323396D01*
X155481137Y-96323403D01*
X155438090Y-96455889D01*
X155422645Y-96503425D01*
X155402859Y-96691681D01*
X155422645Y-96879937D01*
X155422646Y-96879940D01*
X155481137Y-97059958D01*
X155481140Y-97059965D01*
X155575786Y-97223897D01*
X155702448Y-97364569D01*
X155855584Y-97475829D01*
X155855589Y-97475832D01*
X156028511Y-97552823D01*
X156028516Y-97552825D01*
X156213673Y-97592181D01*
X156213674Y-97592181D01*
X156402963Y-97592181D01*
X156402965Y-97592181D01*
X156588122Y-97552825D01*
X156761049Y-97475832D01*
X156914190Y-97364569D01*
X157040852Y-97223897D01*
X157135498Y-97059965D01*
X157193993Y-96879937D01*
X157213779Y-96691681D01*
X157193993Y-96503425D01*
X157135498Y-96323397D01*
X157040852Y-96159465D01*
X156981988Y-96094090D01*
X156951758Y-96031099D01*
X156960383Y-95961763D01*
X156986452Y-95923442D01*
X157108789Y-95801104D01*
X157121041Y-95791292D01*
X157120858Y-95791070D01*
X157126875Y-95786092D01*
X157126874Y-95786092D01*
X157126877Y-95786091D01*
X157155251Y-95755876D01*
X157174227Y-95735669D01*
X157184671Y-95725223D01*
X157195120Y-95714776D01*
X157199379Y-95709283D01*
X157203152Y-95704866D01*
X157235062Y-95670887D01*
X157244715Y-95653325D01*
X157255389Y-95637075D01*
X157267673Y-95621241D01*
X157286180Y-95578472D01*
X157288749Y-95573229D01*
X157297860Y-95556656D01*
X157311197Y-95532397D01*
X157316177Y-95512996D01*
X157322478Y-95494593D01*
X157330438Y-95476201D01*
X157337730Y-95430154D01*
X157338911Y-95424457D01*
X157343307Y-95407336D01*
X157350500Y-95379324D01*
X157350500Y-95359288D01*
X157352027Y-95339887D01*
X157355160Y-95320109D01*
X157350775Y-95273720D01*
X157350500Y-95267882D01*
X157350500Y-84807742D01*
X157352224Y-84792122D01*
X157351939Y-84792095D01*
X157352673Y-84784333D01*
X157350500Y-84715172D01*
X157350500Y-84685656D01*
X157350500Y-84685650D01*
X157349631Y-84678779D01*
X157349173Y-84672952D01*
X157348860Y-84662982D01*
X157347710Y-84626373D01*
X157342119Y-84607130D01*
X157338173Y-84588078D01*
X157335664Y-84568208D01*
X157318504Y-84524867D01*
X157316624Y-84519379D01*
X157303618Y-84474610D01*
X157293422Y-84457370D01*
X157284861Y-84439894D01*
X157277487Y-84421270D01*
X157274466Y-84417112D01*
X157250079Y-84383545D01*
X157246888Y-84378686D01*
X157223172Y-84338583D01*
X157223165Y-84338574D01*
X157209006Y-84324415D01*
X157196368Y-84309619D01*
X157184594Y-84293413D01*
X157161520Y-84274325D01*
X157148688Y-84263709D01*
X157144376Y-84259786D01*
X155611772Y-82727181D01*
X155578287Y-82665858D01*
X155583271Y-82596166D01*
X155625143Y-82540233D01*
X155690607Y-82515816D01*
X155699453Y-82515500D01*
X156614217Y-82515500D01*
X156681256Y-82535185D01*
X156701898Y-82551819D01*
X156706004Y-82555925D01*
X156739489Y-82617248D01*
X156741543Y-82629718D01*
X156743687Y-82648744D01*
X156799544Y-82808378D01*
X156799547Y-82808383D01*
X156889518Y-82951570D01*
X156889523Y-82951576D01*
X157009109Y-83071162D01*
X157009115Y-83071167D01*
X157152302Y-83161138D01*
X157152305Y-83161140D01*
X157152309Y-83161141D01*
X157152310Y-83161142D01*
X157161401Y-83164323D01*
X157311943Y-83217000D01*
X157479997Y-83235935D01*
X157480000Y-83235935D01*
X157480003Y-83235935D01*
X157648056Y-83217000D01*
X157648059Y-83216999D01*
X157807690Y-83161142D01*
X157807692Y-83161140D01*
X157807694Y-83161140D01*
X157807697Y-83161138D01*
X157950884Y-83071167D01*
X157950885Y-83071166D01*
X157950890Y-83071163D01*
X158070477Y-82951576D01*
X158080803Y-82935143D01*
X158160452Y-82808383D01*
X158160454Y-82808380D01*
X158160454Y-82808378D01*
X158160456Y-82808376D01*
X158216313Y-82648745D01*
X158216313Y-82648744D01*
X158216314Y-82648742D01*
X158235249Y-82480688D01*
X158235249Y-82480683D01*
X158216314Y-82312629D01*
X158188583Y-82233379D01*
X158160456Y-82152996D01*
X158160454Y-82152993D01*
X158160454Y-82152992D01*
X158086611Y-82035473D01*
X158067610Y-81968236D01*
X158087977Y-81901401D01*
X158141245Y-81856186D01*
X158191604Y-81845500D01*
X162189548Y-81845500D01*
X162256587Y-81865185D01*
X162277229Y-81881819D01*
X166978181Y-86582771D01*
X167011666Y-86644094D01*
X167014500Y-86670452D01*
X167014500Y-87566312D01*
X166994815Y-87633351D01*
X166982650Y-87649284D01*
X166907466Y-87732784D01*
X166812821Y-87896715D01*
X166812818Y-87896722D01*
X166754327Y-88076740D01*
X166754326Y-88076744D01*
X166734540Y-88265000D01*
X166754326Y-88453256D01*
X166754327Y-88453259D01*
X166812818Y-88633277D01*
X166812821Y-88633284D01*
X166907467Y-88797216D01*
X167000016Y-88900002D01*
X167034129Y-88937888D01*
X167187265Y-89049148D01*
X167187270Y-89049151D01*
X167360192Y-89126142D01*
X167360197Y-89126144D01*
X167545354Y-89165500D01*
X167545355Y-89165500D01*
X167734644Y-89165500D01*
X167734646Y-89165500D01*
X167919803Y-89126144D01*
X168092730Y-89049151D01*
X168245871Y-88937888D01*
X168372533Y-88797216D01*
X168467179Y-88633284D01*
X168525674Y-88453256D01*
X168545460Y-88265000D01*
X168525674Y-88076744D01*
X168467179Y-87896716D01*
X168372533Y-87732784D01*
X168324223Y-87679130D01*
X168297350Y-87649284D01*
X168267120Y-87586292D01*
X168265500Y-87566312D01*
X168265500Y-86442742D01*
X168267224Y-86427122D01*
X168266939Y-86427095D01*
X168267673Y-86419333D01*
X168265500Y-86350171D01*
X168265500Y-86320650D01*
X168264631Y-86313779D01*
X168264173Y-86307952D01*
X168262710Y-86261373D01*
X168257119Y-86242130D01*
X168253173Y-86223078D01*
X168250664Y-86203208D01*
X168233504Y-86159867D01*
X168231624Y-86154379D01*
X168218618Y-86109610D01*
X168208422Y-86092370D01*
X168199861Y-86074894D01*
X168192487Y-86056270D01*
X168192486Y-86056268D01*
X168165079Y-86018545D01*
X168161888Y-86013686D01*
X168138172Y-85973583D01*
X168138165Y-85973574D01*
X168124006Y-85959415D01*
X168111368Y-85944619D01*
X168099594Y-85928413D01*
X168063688Y-85898709D01*
X168059376Y-85894786D01*
X167232353Y-85067763D01*
X186045787Y-85067763D01*
X186075413Y-85337013D01*
X186075415Y-85337024D01*
X186139068Y-85580500D01*
X186143928Y-85599088D01*
X186249870Y-85848390D01*
X186327169Y-85975048D01*
X186390979Y-86079605D01*
X186390986Y-86079615D01*
X186564253Y-86287819D01*
X186564259Y-86287824D01*
X186600902Y-86320656D01*
X186765998Y-86468582D01*
X186991910Y-86618044D01*
X187237176Y-86733020D01*
X187237183Y-86733022D01*
X187237185Y-86733023D01*
X187496557Y-86811057D01*
X187496564Y-86811058D01*
X187496569Y-86811060D01*
X187764561Y-86850500D01*
X187764566Y-86850500D01*
X187967636Y-86850500D01*
X188019133Y-86846730D01*
X188170156Y-86835677D01*
X188282758Y-86810593D01*
X188434546Y-86776782D01*
X188434548Y-86776781D01*
X188434553Y-86776780D01*
X188687558Y-86680014D01*
X188923777Y-86547441D01*
X189138177Y-86381888D01*
X189326186Y-86186881D01*
X189483799Y-85966579D01*
X189562040Y-85814399D01*
X189607649Y-85725690D01*
X189607651Y-85725684D01*
X189607656Y-85725675D01*
X189695118Y-85469305D01*
X189744319Y-85202933D01*
X189754212Y-84932235D01*
X189724586Y-84662982D01*
X189716208Y-84630936D01*
X191877631Y-84630936D01*
X191908442Y-84832063D01*
X191908445Y-84832075D01*
X191979111Y-85022881D01*
X191979113Y-85022884D01*
X191979114Y-85022887D01*
X192011314Y-85074548D01*
X192086745Y-85195567D01*
X192086749Y-85195572D01*
X192221199Y-85337013D01*
X192226941Y-85343053D01*
X192355344Y-85432424D01*
X192393949Y-85459294D01*
X192393950Y-85459294D01*
X192393951Y-85459295D01*
X192580942Y-85539540D01*
X192780259Y-85580500D01*
X194032743Y-85580500D01*
X194184439Y-85565074D01*
X194378579Y-85504162D01*
X194378580Y-85504161D01*
X194378588Y-85504159D01*
X194556502Y-85405409D01*
X194710895Y-85272866D01*
X194833942Y-85113904D01*
X194835445Y-85111962D01*
X194835445Y-85111961D01*
X194835448Y-85111958D01*
X194925060Y-84929271D01*
X194976063Y-84732285D01*
X194981203Y-84630936D01*
X196207631Y-84630936D01*
X196238442Y-84832063D01*
X196238445Y-84832075D01*
X196309111Y-85022881D01*
X196309113Y-85022884D01*
X196309114Y-85022887D01*
X196341314Y-85074548D01*
X196416745Y-85195567D01*
X196416749Y-85195572D01*
X196551199Y-85337013D01*
X196556941Y-85343053D01*
X196685344Y-85432424D01*
X196723949Y-85459294D01*
X196723950Y-85459294D01*
X196723951Y-85459295D01*
X196910942Y-85539540D01*
X197110259Y-85580500D01*
X198062743Y-85580500D01*
X198214439Y-85565074D01*
X198408579Y-85504162D01*
X198408580Y-85504161D01*
X198408588Y-85504159D01*
X198586502Y-85405409D01*
X198740895Y-85272866D01*
X198863942Y-85113904D01*
X198865445Y-85111962D01*
X198865445Y-85111961D01*
X198865448Y-85111958D01*
X198955060Y-84929271D01*
X199006063Y-84732285D01*
X199016369Y-84529064D01*
X198985556Y-84327929D01*
X198914886Y-84137113D01*
X198823102Y-83989859D01*
X198807254Y-83964432D01*
X198807250Y-83964427D01*
X198765389Y-83920390D01*
X198667059Y-83816947D01*
X198516536Y-83712180D01*
X198500050Y-83700705D01*
X198313056Y-83620459D01*
X198113741Y-83579500D01*
X197161258Y-83579500D01*
X197161257Y-83579500D01*
X197009560Y-83594925D01*
X196815420Y-83655837D01*
X196815405Y-83655844D01*
X196637500Y-83754589D01*
X196637495Y-83754592D01*
X196483106Y-83887132D01*
X196483104Y-83887134D01*
X196358554Y-84048037D01*
X196358553Y-84048040D01*
X196268940Y-84230728D01*
X196217937Y-84427714D01*
X196207631Y-84630936D01*
X194981203Y-84630936D01*
X194986369Y-84529064D01*
X194955556Y-84327929D01*
X194884886Y-84137113D01*
X194793102Y-83989859D01*
X194777254Y-83964432D01*
X194777250Y-83964427D01*
X194735389Y-83920390D01*
X194637059Y-83816947D01*
X194486536Y-83712180D01*
X194470050Y-83700705D01*
X194283056Y-83620459D01*
X194083741Y-83579500D01*
X192831258Y-83579500D01*
X192831257Y-83579500D01*
X192679560Y-83594925D01*
X192485420Y-83655837D01*
X192485405Y-83655844D01*
X192307500Y-83754589D01*
X192307495Y-83754592D01*
X192153106Y-83887132D01*
X192153104Y-83887134D01*
X192028554Y-84048037D01*
X192028553Y-84048040D01*
X191938940Y-84230728D01*
X191887937Y-84427714D01*
X191877631Y-84630936D01*
X189716208Y-84630936D01*
X189656072Y-84400912D01*
X189550130Y-84151610D01*
X189409018Y-83920390D01*
X189394824Y-83903334D01*
X189235746Y-83712180D01*
X189235740Y-83712175D01*
X189034002Y-83531418D01*
X188808092Y-83381957D01*
X188808090Y-83381956D01*
X188562824Y-83266980D01*
X188562819Y-83266978D01*
X188562814Y-83266976D01*
X188303442Y-83188942D01*
X188303428Y-83188939D01*
X188187791Y-83171921D01*
X188035439Y-83149500D01*
X187832369Y-83149500D01*
X187832364Y-83149500D01*
X187629844Y-83164323D01*
X187629831Y-83164325D01*
X187365453Y-83223217D01*
X187365446Y-83223220D01*
X187112439Y-83319987D01*
X186876226Y-83452557D01*
X186876224Y-83452558D01*
X186876223Y-83452559D01*
X186813893Y-83500688D01*
X186661822Y-83618112D01*
X186473822Y-83813109D01*
X186473816Y-83813116D01*
X186316202Y-84033419D01*
X186316199Y-84033424D01*
X186192350Y-84274309D01*
X186192343Y-84274327D01*
X186104884Y-84530685D01*
X186104881Y-84530699D01*
X186086942Y-84627821D01*
X186056595Y-84792122D01*
X186055681Y-84797068D01*
X186055680Y-84797075D01*
X186045787Y-85067763D01*
X167232353Y-85067763D01*
X163612591Y-81448000D01*
X163579106Y-81386677D01*
X163584090Y-81316985D01*
X163625962Y-81261052D01*
X163634282Y-81255337D01*
X163665890Y-81235477D01*
X163785477Y-81115890D01*
X163812250Y-81073282D01*
X163875452Y-80972697D01*
X163875454Y-80972694D01*
X163875454Y-80972692D01*
X163875456Y-80972690D01*
X163931313Y-80813059D01*
X163931313Y-80813058D01*
X163931314Y-80813056D01*
X163950249Y-80645002D01*
X163950249Y-80644997D01*
X163931314Y-80476943D01*
X163917904Y-80438621D01*
X163875456Y-80317310D01*
X163864307Y-80299566D01*
X163814506Y-80220308D01*
X163795500Y-80154336D01*
X163795500Y-75608428D01*
X163796031Y-75600326D01*
X163800682Y-75564999D01*
X163800682Y-75564998D01*
X163780044Y-75408239D01*
X163780042Y-75408234D01*
X163719538Y-75262163D01*
X163719538Y-75262162D01*
X163719536Y-75262159D01*
X163647450Y-75168215D01*
X163635366Y-75152466D01*
X163623283Y-75136718D01*
X163595009Y-75115023D01*
X163588912Y-75109677D01*
X163443916Y-74964681D01*
X163410431Y-74903358D01*
X163411821Y-74844912D01*
X163462063Y-74657408D01*
X163482659Y-74422000D01*
X163462063Y-74186592D01*
X163400903Y-73958337D01*
X163301035Y-73744171D01*
X163301034Y-73744169D01*
X163165494Y-73550597D01*
X162998403Y-73383506D01*
X162942187Y-73344144D01*
X162841401Y-73273573D01*
X162797778Y-73218999D01*
X162790584Y-73149500D01*
X162822106Y-73087145D01*
X162841398Y-73070428D01*
X162998401Y-72960495D01*
X163165495Y-72793401D01*
X163301035Y-72599830D01*
X163400903Y-72385663D01*
X163462063Y-72157408D01*
X163482659Y-71922000D01*
X163480690Y-71899500D01*
X163465832Y-71729669D01*
X163462063Y-71686592D01*
X163400903Y-71458337D01*
X163301035Y-71244171D01*
X163301034Y-71244169D01*
X163165494Y-71050597D01*
X163017932Y-70903035D01*
X162984447Y-70841712D01*
X162989431Y-70772020D01*
X163031303Y-70716087D01*
X163040516Y-70709815D01*
X163195345Y-70614315D01*
X163319315Y-70490345D01*
X163411356Y-70341124D01*
X163411358Y-70341119D01*
X163466505Y-70174697D01*
X163466506Y-70174690D01*
X163476999Y-70071986D01*
X163477000Y-70071973D01*
X163477000Y-69672000D01*
X162401607Y-69672000D01*
X162461238Y-69554969D01*
X162482298Y-69422000D01*
X162461238Y-69289031D01*
X162401607Y-69172000D01*
X163476999Y-69172000D01*
X163476999Y-68772028D01*
X163476998Y-68772013D01*
X163466505Y-68669302D01*
X163411358Y-68502880D01*
X163411356Y-68502875D01*
X163319315Y-68353654D01*
X163195345Y-68229684D01*
X163046124Y-68137643D01*
X163046119Y-68137641D01*
X162879697Y-68082494D01*
X162879690Y-68082493D01*
X162776986Y-68072000D01*
X162302000Y-68072000D01*
X162302000Y-69072392D01*
X162184969Y-69012762D01*
X162085451Y-68997000D01*
X162018549Y-68997000D01*
X161919031Y-69012762D01*
X161802000Y-69072392D01*
X161802000Y-68072000D01*
X161327028Y-68072000D01*
X161327012Y-68072001D01*
X161224302Y-68082494D01*
X161057880Y-68137641D01*
X161057875Y-68137643D01*
X160908654Y-68229684D01*
X160784684Y-68353654D01*
X160692643Y-68502875D01*
X160692641Y-68502880D01*
X160637494Y-68669302D01*
X160637493Y-68669309D01*
X160627000Y-68772013D01*
X160627000Y-69172000D01*
X161702393Y-69172000D01*
X161642762Y-69289031D01*
X161621702Y-69422000D01*
X161642762Y-69554969D01*
X161702393Y-69672000D01*
X160627001Y-69672000D01*
X160627001Y-70071986D01*
X160637494Y-70174697D01*
X160692641Y-70341119D01*
X160692643Y-70341124D01*
X160784684Y-70490345D01*
X160908654Y-70614315D01*
X161063484Y-70709815D01*
X161110208Y-70761763D01*
X161121431Y-70830726D01*
X161093587Y-70894808D01*
X161086069Y-70903035D01*
X160938501Y-71050603D01*
X160938501Y-71050604D01*
X160802967Y-71244165D01*
X160802965Y-71244169D01*
X160703098Y-71458335D01*
X160703094Y-71458344D01*
X160641938Y-71686586D01*
X160641936Y-71686596D01*
X160621341Y-71921999D01*
X160621341Y-71922000D01*
X160641936Y-72157403D01*
X160641938Y-72157413D01*
X160703094Y-72385655D01*
X160703096Y-72385659D01*
X160703097Y-72385663D01*
X160753031Y-72492746D01*
X160802964Y-72599828D01*
X160802965Y-72599830D01*
X160938505Y-72793402D01*
X161105597Y-72960494D01*
X161262595Y-73070425D01*
X161306220Y-73125002D01*
X161313414Y-73194500D01*
X161281891Y-73256855D01*
X161262595Y-73273575D01*
X161105597Y-73383505D01*
X160938506Y-73550597D01*
X160938501Y-73550604D01*
X160802967Y-73744165D01*
X160802965Y-73744169D01*
X160703098Y-73958335D01*
X160703094Y-73958344D01*
X160641938Y-74186586D01*
X160641936Y-74186596D01*
X160621341Y-74421999D01*
X160621341Y-74422000D01*
X160641936Y-74657403D01*
X160641938Y-74657413D01*
X160692176Y-74844907D01*
X160690513Y-74914757D01*
X160660082Y-74964681D01*
X156261584Y-79363181D01*
X156200261Y-79396666D01*
X156173903Y-79399500D01*
X140490663Y-79399500D01*
X140424691Y-79380494D01*
X140327692Y-79319545D01*
X140327691Y-79319544D01*
X140327690Y-79319544D01*
X140289370Y-79306135D01*
X140168056Y-79263685D01*
X140000003Y-79244751D01*
X139999997Y-79244751D01*
X139831943Y-79263685D01*
X139672305Y-79319545D01*
X139672302Y-79319547D01*
X139529115Y-79409518D01*
X139529109Y-79409523D01*
X139409523Y-79529109D01*
X139409518Y-79529115D01*
X139319547Y-79672302D01*
X139319544Y-79672307D01*
X139263687Y-79831940D01*
X139263687Y-79831942D01*
X139261543Y-79850966D01*
X139234473Y-79915379D01*
X139226005Y-79924757D01*
X139142584Y-80008180D01*
X139081262Y-80041666D01*
X139054902Y-80044500D01*
X124876889Y-80044500D01*
X124809850Y-80024815D01*
X124764095Y-79972011D01*
X124754151Y-79902853D01*
X124783176Y-79839297D01*
X124789208Y-79832819D01*
X126622030Y-77999997D01*
X128612189Y-76009837D01*
X128673510Y-75976354D01*
X128743202Y-75981338D01*
X128744306Y-75981756D01*
X128817465Y-76009839D01*
X128854913Y-76024214D01*
X129229567Y-76124602D01*
X129612662Y-76185278D01*
X129978576Y-76204455D01*
X129999999Y-76205578D01*
X130000000Y-76205578D01*
X130000001Y-76205578D01*
X130020301Y-76204514D01*
X130387338Y-76185278D01*
X130770433Y-76124602D01*
X131145087Y-76024214D01*
X131507194Y-75885214D01*
X131852789Y-75709125D01*
X132178084Y-75497876D01*
X132479516Y-75253781D01*
X132753781Y-74979516D01*
X132997876Y-74678084D01*
X133209125Y-74352789D01*
X133385214Y-74007194D01*
X133524214Y-73645087D01*
X133624602Y-73270433D01*
X133685278Y-72887338D01*
X133703908Y-72531870D01*
X137658500Y-72531870D01*
X137658501Y-72531876D01*
X137664908Y-72591483D01*
X137715202Y-72726328D01*
X137715206Y-72726335D01*
X137801452Y-72841544D01*
X137801455Y-72841547D01*
X137916664Y-72927793D01*
X137916671Y-72927797D01*
X138051517Y-72978091D01*
X138051516Y-72978091D01*
X138058444Y-72978835D01*
X138111127Y-72984500D01*
X139229500Y-72984499D01*
X139296539Y-73004184D01*
X139342294Y-73056987D01*
X139353500Y-73108499D01*
X139353500Y-76745902D01*
X139333815Y-76812941D01*
X139317181Y-76833583D01*
X138924759Y-77226004D01*
X138863436Y-77259489D01*
X138850966Y-77261543D01*
X138842673Y-77262477D01*
X138831941Y-77263687D01*
X138831940Y-77263687D01*
X138672307Y-77319544D01*
X138672302Y-77319547D01*
X138529115Y-77409518D01*
X138529109Y-77409523D01*
X138409523Y-77529109D01*
X138409518Y-77529115D01*
X138319547Y-77672302D01*
X138319545Y-77672305D01*
X138263685Y-77831943D01*
X138244751Y-77999997D01*
X138244751Y-78000002D01*
X138263685Y-78168056D01*
X138319545Y-78327694D01*
X138319547Y-78327697D01*
X138409518Y-78470884D01*
X138409523Y-78470890D01*
X138529109Y-78590476D01*
X138529115Y-78590481D01*
X138672302Y-78680452D01*
X138672305Y-78680454D01*
X138672309Y-78680455D01*
X138672310Y-78680456D01*
X138744913Y-78705860D01*
X138831943Y-78736314D01*
X138999997Y-78755249D01*
X139000000Y-78755249D01*
X139000003Y-78755249D01*
X139168056Y-78736314D01*
X139168059Y-78736313D01*
X139327690Y-78680456D01*
X139327692Y-78680454D01*
X139327694Y-78680454D01*
X139327697Y-78680452D01*
X139470884Y-78590481D01*
X139470885Y-78590480D01*
X139470890Y-78590477D01*
X139590477Y-78470890D01*
X139611735Y-78437058D01*
X139680452Y-78327697D01*
X139680455Y-78327691D01*
X139680456Y-78327690D01*
X139736313Y-78168059D01*
X139738456Y-78149037D01*
X139765519Y-78084625D01*
X139773985Y-78075248D01*
X140347922Y-77501311D01*
X140353999Y-77495983D01*
X140382282Y-77474282D01*
X140478536Y-77348841D01*
X140539044Y-77202762D01*
X140554500Y-77085361D01*
X140559682Y-77046000D01*
X140555030Y-77010669D01*
X140554500Y-77002571D01*
X140554500Y-72970828D01*
X140574185Y-72903789D01*
X140626989Y-72858034D01*
X140696147Y-72848090D01*
X140736949Y-72861468D01*
X140829659Y-72911023D01*
X141022967Y-72969662D01*
X141224000Y-72989462D01*
X141425033Y-72969662D01*
X141618341Y-72911023D01*
X141638951Y-72900007D01*
X141717476Y-72858034D01*
X141796494Y-72815798D01*
X141952647Y-72687647D01*
X142080798Y-72531494D01*
X142097632Y-72500000D01*
X146294922Y-72500000D01*
X146315219Y-72887287D01*
X146375886Y-73270323D01*
X146375887Y-73270330D01*
X146476262Y-73644936D01*
X146615244Y-74006994D01*
X146791310Y-74352543D01*
X147002531Y-74677793D01*
X147211095Y-74935350D01*
X147211096Y-74935350D01*
X148108756Y-74037689D01*
X148067449Y-74099511D01*
X148048046Y-74197056D01*
X148067449Y-74294601D01*
X148122704Y-74377296D01*
X148205399Y-74432551D01*
X148278320Y-74447056D01*
X148327568Y-74447056D01*
X148400489Y-74432551D01*
X148462304Y-74391247D01*
X147564648Y-75288903D01*
X147564649Y-75288904D01*
X147822206Y-75497468D01*
X148147456Y-75708689D01*
X148493005Y-75884755D01*
X148855063Y-76023737D01*
X149229669Y-76124112D01*
X149229676Y-76124113D01*
X149612712Y-76184780D01*
X149999999Y-76205078D01*
X150000001Y-76205078D01*
X150387287Y-76184780D01*
X150770323Y-76124113D01*
X150770330Y-76124112D01*
X151144936Y-76023737D01*
X151506994Y-75884755D01*
X151852543Y-75708689D01*
X152177783Y-75497476D01*
X152177785Y-75497475D01*
X152435349Y-75288902D01*
X151537691Y-74391244D01*
X151599511Y-74432551D01*
X151672432Y-74447056D01*
X151721680Y-74447056D01*
X151794601Y-74432551D01*
X151877296Y-74377296D01*
X151932551Y-74294601D01*
X151951954Y-74197056D01*
X151932551Y-74099511D01*
X151891244Y-74037691D01*
X152788902Y-74935349D01*
X152997475Y-74677785D01*
X152997476Y-74677783D01*
X153208689Y-74352543D01*
X153384755Y-74006994D01*
X153523737Y-73644936D01*
X153624112Y-73270330D01*
X153624113Y-73270323D01*
X153684780Y-72887287D01*
X153705078Y-72500000D01*
X153705078Y-72499999D01*
X153684780Y-72112712D01*
X153624113Y-71729676D01*
X153624112Y-71729669D01*
X153523737Y-71355063D01*
X153384755Y-70993005D01*
X153208689Y-70647456D01*
X152997468Y-70322206D01*
X152788904Y-70064649D01*
X152788903Y-70064648D01*
X151891247Y-70962303D01*
X151932551Y-70900489D01*
X151951954Y-70802944D01*
X151932551Y-70705399D01*
X151877296Y-70622704D01*
X151794601Y-70567449D01*
X151721680Y-70552944D01*
X151672432Y-70552944D01*
X151599511Y-70567449D01*
X151537690Y-70608755D01*
X152435350Y-69711096D01*
X152435350Y-69711095D01*
X152177793Y-69502531D01*
X151852543Y-69291310D01*
X151506994Y-69115244D01*
X151144936Y-68976262D01*
X150770330Y-68875887D01*
X150770323Y-68875886D01*
X150387287Y-68815219D01*
X150000001Y-68794922D01*
X149999999Y-68794922D01*
X149612712Y-68815219D01*
X149229676Y-68875886D01*
X149229669Y-68875887D01*
X148855063Y-68976262D01*
X148493005Y-69115244D01*
X148147456Y-69291310D01*
X147822206Y-69502531D01*
X147564648Y-69711095D01*
X147564648Y-69711096D01*
X148462306Y-70608754D01*
X148400489Y-70567449D01*
X148327568Y-70552944D01*
X148278320Y-70552944D01*
X148205399Y-70567449D01*
X148122704Y-70622704D01*
X148067449Y-70705399D01*
X148048046Y-70802944D01*
X148067449Y-70900489D01*
X148108753Y-70962305D01*
X147211096Y-70064648D01*
X147211095Y-70064648D01*
X147002531Y-70322206D01*
X146791310Y-70647456D01*
X146615244Y-70993005D01*
X146476262Y-71355063D01*
X146375887Y-71729669D01*
X146375886Y-71729676D01*
X146315219Y-72112712D01*
X146294922Y-72499999D01*
X146294922Y-72500000D01*
X142097632Y-72500000D01*
X142158746Y-72385664D01*
X142176021Y-72353345D01*
X142176021Y-72353344D01*
X142176023Y-72353341D01*
X142234662Y-72160033D01*
X142249500Y-72009380D01*
X142249500Y-71458620D01*
X142234662Y-71307967D01*
X142176023Y-71114659D01*
X142176021Y-71114656D01*
X142176021Y-71114654D01*
X142080801Y-70936511D01*
X142080799Y-70936509D01*
X142080798Y-70936506D01*
X142037301Y-70883505D01*
X141952647Y-70780352D01*
X141797538Y-70653059D01*
X141796494Y-70652202D01*
X141796492Y-70652201D01*
X141796488Y-70652198D01*
X141618345Y-70556978D01*
X141425031Y-70498337D01*
X141224000Y-70478538D01*
X141022968Y-70498337D01*
X140829654Y-70556978D01*
X140647453Y-70654367D01*
X140579050Y-70668609D01*
X140530547Y-70654367D01*
X140348345Y-70556978D01*
X140155031Y-70498337D01*
X139954000Y-70478538D01*
X139752968Y-70498337D01*
X139614959Y-70540202D01*
X139559659Y-70556977D01*
X139559658Y-70556977D01*
X139558575Y-70557306D01*
X139488708Y-70557929D01*
X139459618Y-70543529D01*
X139459114Y-70544454D01*
X139451328Y-70540202D01*
X139316482Y-70489908D01*
X139316483Y-70489908D01*
X139256883Y-70483501D01*
X139256881Y-70483500D01*
X139256873Y-70483500D01*
X139256864Y-70483500D01*
X138111129Y-70483500D01*
X138111123Y-70483501D01*
X138051516Y-70489908D01*
X137916671Y-70540202D01*
X137916664Y-70540206D01*
X137801455Y-70626452D01*
X137801452Y-70626455D01*
X137715206Y-70741664D01*
X137715202Y-70741671D01*
X137664908Y-70876517D01*
X137658501Y-70936116D01*
X137658500Y-70936135D01*
X137658500Y-72531870D01*
X133703908Y-72531870D01*
X133705578Y-72500000D01*
X133685278Y-72112662D01*
X133624602Y-71729567D01*
X133524214Y-71354913D01*
X133385214Y-70992806D01*
X133209125Y-70647211D01*
X133195646Y-70626455D01*
X132997877Y-70321917D01*
X132864581Y-70157310D01*
X132753781Y-70020484D01*
X132479516Y-69746219D01*
X132178084Y-69502124D01*
X132178082Y-69502122D01*
X131852793Y-69290877D01*
X131507197Y-69114787D01*
X131145094Y-68975788D01*
X131145087Y-68975786D01*
X130770433Y-68875398D01*
X130770429Y-68875397D01*
X130770428Y-68875397D01*
X130387339Y-68814722D01*
X130000001Y-68794422D01*
X129999999Y-68794422D01*
X129612658Y-68814722D01*
X129257366Y-68870994D01*
X129188073Y-68862039D01*
X129134621Y-68817043D01*
X129113982Y-68750291D01*
X129132707Y-68682978D01*
X129150284Y-68660844D01*
X136925162Y-60885966D01*
X136986483Y-60852483D01*
X137056175Y-60857467D01*
X137100522Y-60885968D01*
X137185378Y-60970824D01*
X137185384Y-60970829D01*
X137366333Y-61097531D01*
X137366335Y-61097532D01*
X137366338Y-61097534D01*
X137566550Y-61190894D01*
X137779932Y-61248070D01*
X137937123Y-61261822D01*
X137999998Y-61267323D01*
X138000000Y-61267323D01*
X138000002Y-61267323D01*
X138055017Y-61262509D01*
X138220068Y-61248070D01*
X138433450Y-61190894D01*
X138633662Y-61097534D01*
X138814620Y-60970826D01*
X138970826Y-60814620D01*
X139097534Y-60633662D01*
X139190894Y-60433450D01*
X139248070Y-60220068D01*
X139267323Y-60000000D01*
X139264532Y-59968102D01*
X139253748Y-59844838D01*
X139248070Y-59779932D01*
X139190894Y-59566550D01*
X139097534Y-59366339D01*
X138970826Y-59185380D01*
X138814620Y-59029174D01*
X138814616Y-59029171D01*
X138814615Y-59029170D01*
X138633666Y-58902468D01*
X138633662Y-58902466D01*
X138633660Y-58902465D01*
X138433450Y-58809106D01*
X138433447Y-58809105D01*
X138433445Y-58809104D01*
X138220070Y-58751930D01*
X138220062Y-58751929D01*
X138000002Y-58732677D01*
X137999998Y-58732677D01*
X137779937Y-58751929D01*
X137779929Y-58751930D01*
X137566554Y-58809104D01*
X137566548Y-58809107D01*
X137366340Y-58902465D01*
X137366338Y-58902466D01*
X137185377Y-59029175D01*
X137029177Y-59185375D01*
X136906145Y-59361083D01*
X136851568Y-59404708D01*
X136820762Y-59412897D01*
X136805135Y-59414955D01*
X136805133Y-59414955D01*
X136726283Y-59447616D01*
X136656814Y-59455085D01*
X136594335Y-59423809D01*
X136566450Y-59385460D01*
X136557534Y-59366339D01*
X136430826Y-59185380D01*
X136274620Y-59029174D01*
X136274616Y-59029171D01*
X136274615Y-59029170D01*
X136093666Y-58902468D01*
X136093662Y-58902466D01*
X136093660Y-58902465D01*
X135893450Y-58809106D01*
X135893447Y-58809105D01*
X135893445Y-58809104D01*
X135680070Y-58751930D01*
X135680062Y-58751929D01*
X135460002Y-58732677D01*
X135459998Y-58732677D01*
X135239937Y-58751929D01*
X135239929Y-58751930D01*
X135026554Y-58809104D01*
X135026548Y-58809107D01*
X134826340Y-58902465D01*
X134826338Y-58902466D01*
X134645377Y-59029175D01*
X134489175Y-59185377D01*
X134376271Y-59346623D01*
X134362466Y-59366339D01*
X134362348Y-59366593D01*
X134302105Y-59495782D01*
X134255932Y-59548221D01*
X134188738Y-59567372D01*
X134121857Y-59547156D01*
X134077341Y-59495780D01*
X134017100Y-59366593D01*
X134017099Y-59366591D01*
X133971740Y-59301811D01*
X133304903Y-59968648D01*
X133304949Y-59968102D01*
X133273734Y-59844838D01*
X133204187Y-59738388D01*
X133103843Y-59660287D01*
X132983578Y-59619000D01*
X132947447Y-59619000D01*
X133618187Y-58948258D01*
X133553409Y-58902900D01*
X133553407Y-58902899D01*
X133353284Y-58809580D01*
X133353270Y-58809575D01*
X133139986Y-58752426D01*
X133139976Y-58752424D01*
X132920001Y-58733179D01*
X132919999Y-58733179D01*
X132700023Y-58752424D01*
X132700013Y-58752426D01*
X132486729Y-58809575D01*
X132486720Y-58809579D01*
X132286586Y-58902903D01*
X132221812Y-58948257D01*
X132221811Y-58948258D01*
X132892554Y-59619000D01*
X132888431Y-59619000D01*
X132794579Y-59634661D01*
X132682749Y-59695180D01*
X132596629Y-59788731D01*
X132545552Y-59905177D01*
X132539894Y-59973447D01*
X131868258Y-59301811D01*
X131868257Y-59301812D01*
X131822903Y-59366586D01*
X131762658Y-59495781D01*
X131716485Y-59548220D01*
X131649292Y-59567372D01*
X131582411Y-59547156D01*
X131537894Y-59495781D01*
X131499244Y-59412897D01*
X131477534Y-59366339D01*
X131350826Y-59185380D01*
X131194620Y-59029174D01*
X131194616Y-59029171D01*
X131194615Y-59029170D01*
X131013666Y-58902468D01*
X131013662Y-58902466D01*
X131013660Y-58902465D01*
X130813450Y-58809106D01*
X130813447Y-58809105D01*
X130813445Y-58809104D01*
X130600070Y-58751930D01*
X130600062Y-58751929D01*
X130380002Y-58732677D01*
X130379998Y-58732677D01*
X130159937Y-58751929D01*
X130159929Y-58751930D01*
X129946554Y-58809104D01*
X129946548Y-58809107D01*
X129746340Y-58902465D01*
X129746338Y-58902466D01*
X129565377Y-59029175D01*
X129409175Y-59185377D01*
X129296271Y-59346623D01*
X129241694Y-59390248D01*
X129194696Y-59399500D01*
X125463428Y-59399500D01*
X125455329Y-59398969D01*
X125420000Y-59394318D01*
X125380639Y-59399500D01*
X125263239Y-59414955D01*
X125263237Y-59414956D01*
X125117157Y-59475464D01*
X124991719Y-59571716D01*
X124970019Y-59599994D01*
X124964668Y-59606096D01*
X124637181Y-59933583D01*
X124575858Y-59967068D01*
X124506167Y-59962084D01*
X124450233Y-59920213D01*
X124425816Y-59854748D01*
X124425500Y-59845902D01*
X124425500Y-52380002D01*
X129112677Y-52380002D01*
X129131929Y-52600062D01*
X129131930Y-52600070D01*
X129189104Y-52813445D01*
X129189105Y-52813447D01*
X129189106Y-52813450D01*
X129222382Y-52884811D01*
X129282466Y-53013662D01*
X129282468Y-53013666D01*
X129409170Y-53194615D01*
X129409175Y-53194621D01*
X129565378Y-53350824D01*
X129565384Y-53350829D01*
X129746333Y-53477531D01*
X129746335Y-53477532D01*
X129746338Y-53477534D01*
X129946550Y-53570894D01*
X130159932Y-53628070D01*
X130317123Y-53641822D01*
X130379998Y-53647323D01*
X130380000Y-53647323D01*
X130380002Y-53647323D01*
X130435017Y-53642509D01*
X130600068Y-53628070D01*
X130813450Y-53570894D01*
X131013662Y-53477534D01*
X131194620Y-53350826D01*
X131350826Y-53194620D01*
X131477534Y-53013662D01*
X131537618Y-52884811D01*
X131583790Y-52832371D01*
X131650983Y-52813219D01*
X131717865Y-52833435D01*
X131762382Y-52884811D01*
X131822464Y-53013658D01*
X131822468Y-53013666D01*
X131949170Y-53194615D01*
X131949175Y-53194621D01*
X132105378Y-53350824D01*
X132105384Y-53350829D01*
X132286333Y-53477531D01*
X132286335Y-53477532D01*
X132286338Y-53477534D01*
X132486550Y-53570894D01*
X132699932Y-53628070D01*
X132857123Y-53641822D01*
X132919998Y-53647323D01*
X132920000Y-53647323D01*
X132920002Y-53647323D01*
X132975017Y-53642509D01*
X133140068Y-53628070D01*
X133353450Y-53570894D01*
X133553662Y-53477534D01*
X133734620Y-53350826D01*
X133890826Y-53194620D01*
X134017534Y-53013662D01*
X134077618Y-52884811D01*
X134123790Y-52832371D01*
X134190983Y-52813219D01*
X134257865Y-52833435D01*
X134302382Y-52884811D01*
X134362464Y-53013658D01*
X134362468Y-53013666D01*
X134489170Y-53194615D01*
X134489175Y-53194621D01*
X134645378Y-53350824D01*
X134645384Y-53350829D01*
X134826333Y-53477531D01*
X134826335Y-53477532D01*
X134826338Y-53477534D01*
X135026550Y-53570894D01*
X135239932Y-53628070D01*
X135397123Y-53641822D01*
X135459998Y-53647323D01*
X135460000Y-53647323D01*
X135460002Y-53647323D01*
X135515017Y-53642509D01*
X135680068Y-53628070D01*
X135893450Y-53570894D01*
X136093662Y-53477534D01*
X136274620Y-53350826D01*
X136430826Y-53194620D01*
X136557534Y-53013662D01*
X136617618Y-52884811D01*
X136663790Y-52832371D01*
X136730983Y-52813219D01*
X136797865Y-52833435D01*
X136842382Y-52884811D01*
X136902464Y-53013658D01*
X136902468Y-53013666D01*
X137029170Y-53194615D01*
X137029175Y-53194621D01*
X137185378Y-53350824D01*
X137185384Y-53350829D01*
X137366333Y-53477531D01*
X137366335Y-53477532D01*
X137366338Y-53477534D01*
X137566550Y-53570894D01*
X137779932Y-53628070D01*
X137937123Y-53641822D01*
X137999998Y-53647323D01*
X138000000Y-53647323D01*
X138000002Y-53647323D01*
X138055017Y-53642509D01*
X138220068Y-53628070D01*
X138433450Y-53570894D01*
X138633662Y-53477534D01*
X138814620Y-53350826D01*
X138970826Y-53194620D01*
X139097534Y-53013662D01*
X139190894Y-52813450D01*
X139248070Y-52600068D01*
X139267323Y-52380000D01*
X139248070Y-52159932D01*
X139190894Y-51946550D01*
X139097534Y-51746339D01*
X138970826Y-51565380D01*
X138814620Y-51409174D01*
X138814616Y-51409171D01*
X138814615Y-51409170D01*
X138633666Y-51282468D01*
X138633662Y-51282466D01*
X138633660Y-51282465D01*
X138433450Y-51189106D01*
X138433447Y-51189105D01*
X138433445Y-51189104D01*
X138220070Y-51131930D01*
X138220062Y-51131929D01*
X138000002Y-51112677D01*
X137999998Y-51112677D01*
X137779937Y-51131929D01*
X137779929Y-51131930D01*
X137566554Y-51189104D01*
X137566548Y-51189107D01*
X137366340Y-51282465D01*
X137366338Y-51282466D01*
X137185377Y-51409175D01*
X137029175Y-51565377D01*
X136902466Y-51746338D01*
X136902465Y-51746340D01*
X136842382Y-51875189D01*
X136796209Y-51927628D01*
X136729016Y-51946780D01*
X136662135Y-51926564D01*
X136617618Y-51875189D01*
X136557534Y-51746340D01*
X136557533Y-51746338D01*
X136430827Y-51565381D01*
X136430823Y-51565377D01*
X136274620Y-51409174D01*
X136274616Y-51409171D01*
X136274615Y-51409170D01*
X136093666Y-51282468D01*
X136093662Y-51282466D01*
X136093660Y-51282465D01*
X135893450Y-51189106D01*
X135893447Y-51189105D01*
X135893445Y-51189104D01*
X135680070Y-51131930D01*
X135680062Y-51131929D01*
X135460002Y-51112677D01*
X135459998Y-51112677D01*
X135239937Y-51131929D01*
X135239929Y-51131930D01*
X135026554Y-51189104D01*
X135026548Y-51189107D01*
X134826340Y-51282465D01*
X134826338Y-51282466D01*
X134645377Y-51409175D01*
X134489175Y-51565377D01*
X134362466Y-51746338D01*
X134362465Y-51746340D01*
X134302382Y-51875189D01*
X134256209Y-51927628D01*
X134189016Y-51946780D01*
X134122135Y-51926564D01*
X134077618Y-51875189D01*
X134017534Y-51746340D01*
X134017533Y-51746338D01*
X133890827Y-51565381D01*
X133890823Y-51565377D01*
X133734620Y-51409174D01*
X133734616Y-51409171D01*
X133734615Y-51409170D01*
X133553666Y-51282468D01*
X133553662Y-51282466D01*
X133553660Y-51282465D01*
X133353450Y-51189106D01*
X133353447Y-51189105D01*
X133353445Y-51189104D01*
X133140070Y-51131930D01*
X133140062Y-51131929D01*
X132920002Y-51112677D01*
X132919998Y-51112677D01*
X132699937Y-51131929D01*
X132699929Y-51131930D01*
X132486554Y-51189104D01*
X132486548Y-51189107D01*
X132286340Y-51282465D01*
X132286338Y-51282466D01*
X132105377Y-51409175D01*
X131949175Y-51565377D01*
X131822466Y-51746338D01*
X131822465Y-51746340D01*
X131762382Y-51875189D01*
X131716209Y-51927628D01*
X131649016Y-51946780D01*
X131582135Y-51926564D01*
X131537618Y-51875189D01*
X131477534Y-51746340D01*
X131477533Y-51746338D01*
X131350827Y-51565381D01*
X131350823Y-51565377D01*
X131194620Y-51409174D01*
X131194616Y-51409171D01*
X131194615Y-51409170D01*
X131013666Y-51282468D01*
X131013662Y-51282466D01*
X131013660Y-51282465D01*
X130813450Y-51189106D01*
X130813447Y-51189105D01*
X130813445Y-51189104D01*
X130600070Y-51131930D01*
X130600062Y-51131929D01*
X130380002Y-51112677D01*
X130379998Y-51112677D01*
X130159937Y-51131929D01*
X130159929Y-51131930D01*
X129946554Y-51189104D01*
X129946548Y-51189107D01*
X129746340Y-51282465D01*
X129746338Y-51282466D01*
X129565377Y-51409175D01*
X129409175Y-51565377D01*
X129282466Y-51746338D01*
X129282465Y-51746340D01*
X129189107Y-51946548D01*
X129189104Y-51946554D01*
X129131930Y-52159929D01*
X129131929Y-52159937D01*
X129112677Y-52379997D01*
X129112677Y-52380002D01*
X124425500Y-52380002D01*
X124425500Y-35015096D01*
X124445185Y-34948057D01*
X124461814Y-34927420D01*
X129398321Y-29990912D01*
X129459642Y-29957429D01*
X129518095Y-29958821D01*
X129589924Y-29978068D01*
X129589925Y-29978068D01*
X129589932Y-29978070D01*
X129777226Y-29994455D01*
X129809998Y-29997323D01*
X129810000Y-29997323D01*
X129810002Y-29997323D01*
X129865017Y-29992509D01*
X130030068Y-29978070D01*
X130243450Y-29920894D01*
X130443662Y-29827534D01*
X130624620Y-29700826D01*
X130780826Y-29544620D01*
X130780826Y-29544619D01*
X130784654Y-29540792D01*
X130785523Y-29541661D01*
X130838680Y-29506294D01*
X130908541Y-29505184D01*
X130967912Y-29542020D01*
G37*
%TD.AperFunction*%
%TA.AperFunction,Conductor*%
G36*
X145818834Y-122884269D02*
G01*
X145874767Y-122926141D01*
X145899184Y-122991605D01*
X145899500Y-123000451D01*
X145899500Y-136199902D01*
X145879815Y-136266941D01*
X145863181Y-136287583D01*
X133112180Y-149038584D01*
X133050857Y-149072069D01*
X132981165Y-149067085D01*
X132925232Y-149025213D01*
X132900815Y-148959749D01*
X132900499Y-148950903D01*
X132900499Y-148435452D01*
X132920184Y-148368413D01*
X132936818Y-148347771D01*
X133996770Y-147287819D01*
X136908786Y-144375802D01*
X136921048Y-144365980D01*
X136920865Y-144365759D01*
X136926867Y-144360792D01*
X136926877Y-144360786D01*
X136974241Y-144310348D01*
X136995120Y-144289470D01*
X136999373Y-144283986D01*
X137003150Y-144279563D01*
X137035062Y-144245582D01*
X137044714Y-144228023D01*
X137055389Y-144211772D01*
X137067674Y-144195936D01*
X137086186Y-144153152D01*
X137088742Y-144147935D01*
X137111197Y-144107092D01*
X137116180Y-144087680D01*
X137122477Y-144069291D01*
X137130438Y-144050895D01*
X137137729Y-144004853D01*
X137138908Y-143999162D01*
X137150500Y-143954019D01*
X137150500Y-143933983D01*
X137152027Y-143914582D01*
X137155160Y-143894804D01*
X137150775Y-143848415D01*
X137150500Y-143842577D01*
X137150500Y-136732472D01*
X137170185Y-136665433D01*
X137222989Y-136619678D01*
X137292147Y-136609734D01*
X137355703Y-136638759D01*
X137376076Y-136661350D01*
X137420973Y-136725472D01*
X137420974Y-136725472D01*
X138102046Y-136044399D01*
X138114835Y-136125148D01*
X138172359Y-136238045D01*
X138261955Y-136327641D01*
X138374852Y-136385165D01*
X138455599Y-136397953D01*
X137774526Y-137079025D01*
X137774526Y-137079026D01*
X137847512Y-137130131D01*
X137847516Y-137130133D01*
X138053673Y-137226265D01*
X138053682Y-137226269D01*
X138273389Y-137285139D01*
X138273400Y-137285141D01*
X138499998Y-137304966D01*
X138500002Y-137304966D01*
X138726599Y-137285141D01*
X138726610Y-137285139D01*
X138946317Y-137226269D01*
X138946331Y-137226264D01*
X139152478Y-137130136D01*
X139225472Y-137079025D01*
X138544401Y-136397953D01*
X138625148Y-136385165D01*
X138738045Y-136327641D01*
X138827641Y-136238045D01*
X138885165Y-136125148D01*
X138897953Y-136044400D01*
X139584199Y-136730646D01*
X139633192Y-136740492D01*
X139683375Y-136789107D01*
X139698049Y-136844632D01*
X139699099Y-136844576D01*
X139699146Y-136844571D01*
X139699146Y-136844573D01*
X139699324Y-136844564D01*
X139699501Y-136847876D01*
X139705908Y-136907483D01*
X139756202Y-137042328D01*
X139756206Y-137042335D01*
X139842452Y-137157544D01*
X139842455Y-137157547D01*
X139957664Y-137243793D01*
X139957671Y-137243797D01*
X140092517Y-137294091D01*
X140092516Y-137294091D01*
X140099444Y-137294835D01*
X140152127Y-137300500D01*
X141847872Y-137300499D01*
X141907483Y-137294091D01*
X142042331Y-137243796D01*
X142157546Y-137157546D01*
X142243796Y-137042331D01*
X142294091Y-136907483D01*
X142300500Y-136847873D01*
X142300499Y-135635450D01*
X142320184Y-135568412D01*
X142336813Y-135547775D01*
X144909788Y-132974801D01*
X144922042Y-132964986D01*
X144921859Y-132964764D01*
X144927866Y-132959792D01*
X144927877Y-132959786D01*
X144958775Y-132926882D01*
X144975227Y-132909364D01*
X144985671Y-132898918D01*
X144996120Y-132888471D01*
X145000379Y-132882978D01*
X145004152Y-132878561D01*
X145036062Y-132844582D01*
X145045715Y-132827020D01*
X145056389Y-132810770D01*
X145068673Y-132794936D01*
X145087180Y-132752167D01*
X145089749Y-132746924D01*
X145108850Y-132712180D01*
X145112197Y-132706092D01*
X145117177Y-132686691D01*
X145123478Y-132668288D01*
X145131438Y-132649896D01*
X145138730Y-132603849D01*
X145139911Y-132598152D01*
X145151500Y-132553019D01*
X145151500Y-132532983D01*
X145153027Y-132513582D01*
X145156160Y-132493804D01*
X145151775Y-132447415D01*
X145151500Y-132441577D01*
X145151500Y-123500451D01*
X145171185Y-123433412D01*
X145187815Y-123412774D01*
X145687819Y-122912769D01*
X145749142Y-122879285D01*
X145818834Y-122884269D01*
G37*
%TD.AperFunction*%
%TA.AperFunction,Conductor*%
G36*
X140206712Y-119098390D02*
G01*
X140262645Y-119140262D01*
X140280419Y-119173615D01*
X140289542Y-119199687D01*
X140289544Y-119199690D01*
X140355493Y-119304646D01*
X140374500Y-119370618D01*
X140374500Y-126083500D01*
X140354815Y-126150539D01*
X140302011Y-126196294D01*
X140250501Y-126207500D01*
X140152130Y-126207500D01*
X140152123Y-126207501D01*
X140092516Y-126213908D01*
X139957671Y-126264202D01*
X139957664Y-126264206D01*
X139842455Y-126350452D01*
X139842452Y-126350455D01*
X139756206Y-126465664D01*
X139756202Y-126465671D01*
X139705908Y-126600517D01*
X139701514Y-126641395D01*
X139699501Y-126660123D01*
X139699322Y-126663452D01*
X139697847Y-126663372D01*
X139679815Y-126724783D01*
X139627011Y-126770538D01*
X139583523Y-126778028D01*
X138897953Y-127463598D01*
X138885165Y-127382852D01*
X138827641Y-127269955D01*
X138738045Y-127180359D01*
X138625148Y-127122835D01*
X138544400Y-127110046D01*
X139225472Y-126428974D01*
X139225471Y-126428973D01*
X139152483Y-126377866D01*
X139152481Y-126377865D01*
X138946326Y-126281734D01*
X138946317Y-126281730D01*
X138726610Y-126222860D01*
X138726599Y-126222858D01*
X138500002Y-126203034D01*
X138499998Y-126203034D01*
X138273400Y-126222858D01*
X138273389Y-126222860D01*
X138053682Y-126281730D01*
X138053673Y-126281734D01*
X137847513Y-126377868D01*
X137774527Y-126428972D01*
X137774526Y-126428973D01*
X138455600Y-127110046D01*
X138374852Y-127122835D01*
X138261955Y-127180359D01*
X138172359Y-127269955D01*
X138114835Y-127382852D01*
X138102046Y-127463599D01*
X137420973Y-126782526D01*
X137420972Y-126782527D01*
X137376075Y-126846648D01*
X137321498Y-126890273D01*
X137252000Y-126897467D01*
X137189645Y-126865944D01*
X137154231Y-126805714D01*
X137150500Y-126775525D01*
X137150500Y-122103451D01*
X137170185Y-122036412D01*
X137186814Y-122015775D01*
X140075699Y-119126889D01*
X140137020Y-119093406D01*
X140206712Y-119098390D01*
G37*
%TD.AperFunction*%
%TA.AperFunction,Conductor*%
G36*
X124739586Y-83920185D02*
G01*
X124785341Y-83972989D01*
X124795285Y-84042147D01*
X124766260Y-84105703D01*
X124760228Y-84112181D01*
X106073070Y-102799336D01*
X106011747Y-102832821D01*
X105942055Y-102827837D01*
X105886122Y-102785965D01*
X105861861Y-102722462D01*
X105853569Y-102627684D01*
X105853567Y-102627673D01*
X105792433Y-102399516D01*
X105792429Y-102399507D01*
X105692600Y-102185422D01*
X105692599Y-102185420D01*
X105557113Y-101991926D01*
X105557108Y-101991920D01*
X105390079Y-101824891D01*
X105390073Y-101824886D01*
X105196579Y-101689400D01*
X105196577Y-101689399D01*
X104982492Y-101589570D01*
X104982483Y-101589566D01*
X104754326Y-101528432D01*
X104754316Y-101528430D01*
X104644000Y-101518778D01*
X104644000Y-102454981D01*
X104529199Y-102402554D01*
X104427975Y-102388000D01*
X104360025Y-102388000D01*
X104258801Y-102402554D01*
X104144000Y-102454981D01*
X104144000Y-101518778D01*
X104033683Y-101528430D01*
X104033673Y-101528432D01*
X103875593Y-101570789D01*
X103805743Y-101569126D01*
X103747881Y-101529963D01*
X103720377Y-101465734D01*
X103719500Y-101451014D01*
X103719500Y-97335888D01*
X103739185Y-97268849D01*
X103755815Y-97248211D01*
X104267131Y-96736894D01*
X104267143Y-96736884D01*
X104268122Y-96735904D01*
X104268126Y-96735902D01*
X105133939Y-95870087D01*
X105195260Y-95836604D01*
X105209017Y-95834412D01*
X105271797Y-95827999D01*
X105438334Y-95772814D01*
X105587656Y-95680712D01*
X105711712Y-95556656D01*
X105803814Y-95407334D01*
X105858999Y-95240797D01*
X105869500Y-95138009D01*
X105869499Y-94775711D01*
X105872138Y-94750265D01*
X105888080Y-94674235D01*
X105888650Y-94660452D01*
X105898357Y-94425779D01*
X105869976Y-94198092D01*
X105869499Y-94190416D01*
X105869499Y-93837998D01*
X105869498Y-93837981D01*
X105858999Y-93735203D01*
X105858998Y-93735200D01*
X105804014Y-93569271D01*
X105803814Y-93568666D01*
X105711712Y-93419344D01*
X105587656Y-93295288D01*
X105454289Y-93213027D01*
X105432879Y-93199821D01*
X105386155Y-93147873D01*
X105374932Y-93078910D01*
X105402776Y-93014828D01*
X105410295Y-93006601D01*
X105461976Y-92954920D01*
X105557495Y-92859401D01*
X105693035Y-92665830D01*
X105792903Y-92451663D01*
X105854063Y-92223408D01*
X105874659Y-91988000D01*
X105854063Y-91752592D01*
X105812309Y-91596762D01*
X105800728Y-91553540D01*
X105802391Y-91483690D01*
X105832820Y-91433768D01*
X113329771Y-83936819D01*
X113391094Y-83903334D01*
X113417452Y-83900500D01*
X124672547Y-83900500D01*
X124739586Y-83920185D01*
G37*
%TD.AperFunction*%
%TA.AperFunction,Conductor*%
G36*
X146513146Y-81865185D02*
G01*
X146558901Y-81917989D01*
X146569327Y-81955617D01*
X146581270Y-82061617D01*
X146569215Y-82130439D01*
X146521866Y-82181818D01*
X146458050Y-82199500D01*
X111139743Y-82199500D01*
X111124122Y-82197775D01*
X111124096Y-82198061D01*
X111116334Y-82197327D01*
X111116333Y-82197327D01*
X111047186Y-82199500D01*
X111017649Y-82199500D01*
X111010766Y-82200369D01*
X111004949Y-82200826D01*
X110958373Y-82202290D01*
X110939129Y-82207881D01*
X110920079Y-82211825D01*
X110900211Y-82214334D01*
X110856884Y-82231488D01*
X110851358Y-82233379D01*
X110806614Y-82246379D01*
X110806610Y-82246381D01*
X110789366Y-82256579D01*
X110771905Y-82265133D01*
X110753274Y-82272510D01*
X110753262Y-82272517D01*
X110715570Y-82299902D01*
X110710687Y-82303109D01*
X110670580Y-82326829D01*
X110656414Y-82340995D01*
X110641624Y-82353627D01*
X110625414Y-82365404D01*
X110625411Y-82365407D01*
X110595710Y-82401309D01*
X110591777Y-82405631D01*
X106073070Y-86924336D01*
X106011747Y-86957821D01*
X105942055Y-86952837D01*
X105886122Y-86910965D01*
X105861861Y-86847462D01*
X105853569Y-86752684D01*
X105853567Y-86752673D01*
X105792433Y-86524516D01*
X105792429Y-86524507D01*
X105692600Y-86310422D01*
X105692599Y-86310420D01*
X105557113Y-86116926D01*
X105557108Y-86116920D01*
X105390079Y-85949891D01*
X105390073Y-85949886D01*
X105196579Y-85814400D01*
X105196577Y-85814399D01*
X104982492Y-85714570D01*
X104982483Y-85714566D01*
X104754326Y-85653432D01*
X104754316Y-85653430D01*
X104644000Y-85643778D01*
X104644000Y-86579981D01*
X104529199Y-86527554D01*
X104427975Y-86513000D01*
X104360025Y-86513000D01*
X104258801Y-86527554D01*
X104144000Y-86579981D01*
X104144000Y-85643778D01*
X104033683Y-85653430D01*
X104033673Y-85653432D01*
X103805516Y-85714566D01*
X103805507Y-85714570D01*
X103591422Y-85814399D01*
X103591420Y-85814400D01*
X103397926Y-85949886D01*
X103397920Y-85949891D01*
X103230894Y-86116917D01*
X103095399Y-86310421D01*
X102995570Y-86524507D01*
X102995567Y-86524513D01*
X102938364Y-86737999D01*
X102938364Y-86738000D01*
X103990031Y-86738000D01*
X103957481Y-86788649D01*
X103919000Y-86919705D01*
X103919000Y-87056295D01*
X103957481Y-87187351D01*
X103990031Y-87238000D01*
X102938364Y-87238000D01*
X102995567Y-87451486D01*
X102995570Y-87451492D01*
X103095399Y-87665577D01*
X103095400Y-87665579D01*
X103230886Y-87859073D01*
X103230891Y-87859079D01*
X103397920Y-88026108D01*
X103397926Y-88026113D01*
X103555031Y-88136119D01*
X103598656Y-88190696D01*
X103605850Y-88260194D01*
X103574327Y-88322549D01*
X103555032Y-88339269D01*
X103397594Y-88449508D01*
X103230506Y-88616597D01*
X103230501Y-88616604D01*
X103094967Y-88810165D01*
X103094965Y-88810169D01*
X102995098Y-89024335D01*
X102995094Y-89024344D01*
X102933938Y-89252586D01*
X102933936Y-89252596D01*
X102913341Y-89487999D01*
X102913341Y-89488000D01*
X102933936Y-89723403D01*
X102933938Y-89723413D01*
X102995094Y-89951655D01*
X102995096Y-89951659D01*
X102995097Y-89951663D01*
X103009124Y-89981744D01*
X103094964Y-90165828D01*
X103094965Y-90165830D01*
X103230505Y-90359402D01*
X103397597Y-90526494D01*
X103554595Y-90636425D01*
X103598220Y-90691002D01*
X103605414Y-90760500D01*
X103573891Y-90822855D01*
X103554595Y-90839575D01*
X103397597Y-90949505D01*
X103230506Y-91116597D01*
X103230501Y-91116604D01*
X103094967Y-91310165D01*
X103094965Y-91310169D01*
X102995098Y-91524335D01*
X102995094Y-91524344D01*
X102933938Y-91752586D01*
X102933936Y-91752596D01*
X102913341Y-91987999D01*
X102913341Y-91988000D01*
X102933936Y-92223403D01*
X102933938Y-92223413D01*
X102995094Y-92451655D01*
X102995096Y-92451659D01*
X102995097Y-92451663D01*
X103030289Y-92527132D01*
X103094964Y-92665828D01*
X103094965Y-92665830D01*
X103230505Y-92859402D01*
X103377704Y-93006601D01*
X103411189Y-93067924D01*
X103406205Y-93137616D01*
X103364333Y-93193549D01*
X103355120Y-93199820D01*
X103200347Y-93295285D01*
X103200343Y-93295288D01*
X103076289Y-93419342D01*
X102984187Y-93568663D01*
X102984185Y-93568668D01*
X102929001Y-93735204D01*
X102929000Y-93735205D01*
X102922587Y-93797982D01*
X102896190Y-93862674D01*
X102886911Y-93873060D01*
X102719960Y-94040010D01*
X102658639Y-94073494D01*
X102588948Y-94068510D01*
X102544600Y-94040009D01*
X100991819Y-92487228D01*
X100958334Y-92425905D01*
X100955500Y-92399547D01*
X100955500Y-83590070D01*
X100975185Y-83523031D01*
X100991819Y-83502389D01*
X102612389Y-81881819D01*
X102673712Y-81848334D01*
X102700070Y-81845500D01*
X146446107Y-81845500D01*
X146513146Y-81865185D01*
G37*
%TD.AperFunction*%
%TA.AperFunction,Conductor*%
G36*
X133971740Y-60698187D02*
G01*
X133971742Y-60698186D01*
X134017093Y-60633420D01*
X134017100Y-60633408D01*
X134077342Y-60504219D01*
X134123514Y-60451779D01*
X134190707Y-60432627D01*
X134257588Y-60452842D01*
X134302106Y-60504219D01*
X134362464Y-60633658D01*
X134362468Y-60633666D01*
X134489170Y-60814615D01*
X134489174Y-60814620D01*
X134645380Y-60970826D01*
X134816323Y-61090521D01*
X134859948Y-61145098D01*
X134867142Y-61214596D01*
X134835619Y-61276951D01*
X134832881Y-61279777D01*
X126401654Y-69711004D01*
X126340331Y-69744489D01*
X126327861Y-69746543D01*
X126319568Y-69747477D01*
X126308836Y-69748687D01*
X126308835Y-69748687D01*
X126149202Y-69804544D01*
X126149197Y-69804547D01*
X126006010Y-69894518D01*
X126006004Y-69894523D01*
X125886418Y-70014109D01*
X125886413Y-70014115D01*
X125796442Y-70157302D01*
X125796440Y-70157305D01*
X125740580Y-70316943D01*
X125721646Y-70484997D01*
X125721646Y-70485002D01*
X125740580Y-70653056D01*
X125796440Y-70812694D01*
X125796442Y-70812697D01*
X125886413Y-70955884D01*
X125886418Y-70955890D01*
X126006004Y-71075476D01*
X126006010Y-71075481D01*
X126149197Y-71165452D01*
X126149200Y-71165454D01*
X126149204Y-71165455D01*
X126149205Y-71165456D01*
X126308836Y-71221313D01*
X126308839Y-71221314D01*
X126362457Y-71227355D01*
X126426871Y-71254421D01*
X126466426Y-71312016D01*
X126468564Y-71381852D01*
X126468349Y-71382668D01*
X126375398Y-71729565D01*
X126375396Y-71729575D01*
X126365051Y-71794897D01*
X126335122Y-71858032D01*
X126275811Y-71894964D01*
X126242578Y-71899500D01*
X124870097Y-71899500D01*
X124803058Y-71879815D01*
X124782416Y-71863181D01*
X124461819Y-71542584D01*
X124428334Y-71481261D01*
X124425500Y-71454903D01*
X124425500Y-61895097D01*
X124445185Y-61828058D01*
X124461819Y-61807416D01*
X125632416Y-60636819D01*
X125693739Y-60603334D01*
X125720097Y-60600500D01*
X129194695Y-60600500D01*
X129261734Y-60620185D01*
X129296270Y-60653377D01*
X129379887Y-60772794D01*
X129409170Y-60814615D01*
X129409175Y-60814621D01*
X129565378Y-60970824D01*
X129565384Y-60970829D01*
X129746333Y-61097531D01*
X129746335Y-61097532D01*
X129746338Y-61097534D01*
X129946550Y-61190894D01*
X130159932Y-61248070D01*
X130317123Y-61261822D01*
X130379998Y-61267323D01*
X130380000Y-61267323D01*
X130380002Y-61267323D01*
X130435017Y-61262509D01*
X130600068Y-61248070D01*
X130813450Y-61190894D01*
X131013662Y-61097534D01*
X131194620Y-60970826D01*
X131350826Y-60814620D01*
X131477534Y-60633662D01*
X131537894Y-60504218D01*
X131584066Y-60451779D01*
X131651259Y-60432627D01*
X131718141Y-60452843D01*
X131762658Y-60504219D01*
X131822899Y-60633407D01*
X131822900Y-60633409D01*
X131868258Y-60698187D01*
X132535096Y-60031349D01*
X132535051Y-60031898D01*
X132566266Y-60155162D01*
X132635813Y-60261612D01*
X132736157Y-60339713D01*
X132856422Y-60381000D01*
X132892553Y-60381000D01*
X132221811Y-61051741D01*
X132286582Y-61097094D01*
X132286592Y-61097100D01*
X132486715Y-61190419D01*
X132486729Y-61190424D01*
X132700013Y-61247573D01*
X132700023Y-61247575D01*
X132919999Y-61266821D01*
X132920001Y-61266821D01*
X133139976Y-61247575D01*
X133139986Y-61247573D01*
X133353270Y-61190424D01*
X133353284Y-61190419D01*
X133553408Y-61097100D01*
X133553420Y-61097093D01*
X133618186Y-61051742D01*
X133618187Y-61051740D01*
X132947448Y-60381000D01*
X132951569Y-60381000D01*
X133045421Y-60365339D01*
X133157251Y-60304820D01*
X133243371Y-60211269D01*
X133294448Y-60094823D01*
X133300105Y-60026552D01*
X133971740Y-60698187D01*
G37*
%TD.AperFunction*%
%TA.AperFunction,Conductor*%
G36*
X126885051Y-28761898D02*
G01*
X126916266Y-28885162D01*
X126985813Y-28991612D01*
X127086157Y-29069713D01*
X127206422Y-29111000D01*
X127242553Y-29111000D01*
X126571811Y-29781741D01*
X126636582Y-29827094D01*
X126636592Y-29827100D01*
X126836715Y-29920419D01*
X126836729Y-29920424D01*
X127050013Y-29977573D01*
X127050023Y-29977575D01*
X127269999Y-29996821D01*
X127270001Y-29996821D01*
X127395197Y-29985867D01*
X127463697Y-29999633D01*
X127513880Y-30048248D01*
X127529814Y-30116277D01*
X127506439Y-30182121D01*
X127493686Y-30197076D01*
X126197626Y-31493136D01*
X126136303Y-31526621D01*
X126066611Y-31521637D01*
X126010678Y-31479765D01*
X125986261Y-31414301D01*
X125986416Y-31394660D01*
X125997323Y-31270000D01*
X125978070Y-31049932D01*
X125920894Y-30836550D01*
X125827534Y-30636339D01*
X125728435Y-30494810D01*
X125700827Y-30455381D01*
X125640324Y-30394878D01*
X125544620Y-30299174D01*
X125544616Y-30299171D01*
X125544615Y-30299170D01*
X125363666Y-30172468D01*
X125363658Y-30172464D01*
X125234811Y-30112382D01*
X125182371Y-30066210D01*
X125163219Y-29999017D01*
X125183435Y-29932135D01*
X125234811Y-29887618D01*
X125240802Y-29884824D01*
X125363662Y-29827534D01*
X125544620Y-29700826D01*
X125700826Y-29544620D01*
X125827534Y-29363662D01*
X125887894Y-29234218D01*
X125934066Y-29181779D01*
X126001259Y-29162627D01*
X126068141Y-29182843D01*
X126112658Y-29234219D01*
X126172899Y-29363407D01*
X126172900Y-29363409D01*
X126218258Y-29428187D01*
X126885096Y-28761349D01*
X126885051Y-28761898D01*
G37*
%TD.AperFunction*%
%TA.AperFunction,Conductor*%
G36*
X130942539Y-27020185D02*
G01*
X130988294Y-27072989D01*
X130999500Y-27124500D01*
X130999500Y-27835297D01*
X130979815Y-27902336D01*
X130927011Y-27948091D01*
X130857853Y-27958035D01*
X130794297Y-27929010D01*
X130784338Y-27918892D01*
X130720324Y-27854878D01*
X130624620Y-27759174D01*
X130624616Y-27759171D01*
X130624615Y-27759170D01*
X130443666Y-27632468D01*
X130443662Y-27632466D01*
X130443660Y-27632465D01*
X130243450Y-27539106D01*
X130243447Y-27539105D01*
X130243445Y-27539104D01*
X130030070Y-27481930D01*
X130030062Y-27481929D01*
X129810002Y-27462677D01*
X129809998Y-27462677D01*
X129589937Y-27481929D01*
X129589929Y-27481930D01*
X129376554Y-27539104D01*
X129376548Y-27539107D01*
X129176340Y-27632465D01*
X129176338Y-27632466D01*
X128995377Y-27759175D01*
X128839175Y-27915377D01*
X128712467Y-28096337D01*
X128712466Y-28096339D01*
X128712348Y-28096593D01*
X128652105Y-28225782D01*
X128605932Y-28278221D01*
X128538738Y-28297372D01*
X128471857Y-28277156D01*
X128427341Y-28225780D01*
X128367100Y-28096593D01*
X128367099Y-28096591D01*
X128321740Y-28031811D01*
X127654903Y-28698648D01*
X127654949Y-28698102D01*
X127623734Y-28574838D01*
X127554187Y-28468388D01*
X127453843Y-28390287D01*
X127333578Y-28349000D01*
X127297447Y-28349000D01*
X127968187Y-27678258D01*
X127903409Y-27632900D01*
X127903407Y-27632899D01*
X127703284Y-27539580D01*
X127703270Y-27539575D01*
X127489986Y-27482426D01*
X127489976Y-27482424D01*
X127270001Y-27463179D01*
X127269999Y-27463179D01*
X127050023Y-27482424D01*
X127050013Y-27482426D01*
X126836729Y-27539575D01*
X126836720Y-27539579D01*
X126636586Y-27632903D01*
X126571812Y-27678257D01*
X126571811Y-27678258D01*
X127242554Y-28349000D01*
X127238431Y-28349000D01*
X127144579Y-28364661D01*
X127032749Y-28425180D01*
X126946629Y-28518731D01*
X126895552Y-28635177D01*
X126889894Y-28703447D01*
X126218258Y-28031811D01*
X126218257Y-28031812D01*
X126172903Y-28096586D01*
X126112658Y-28225781D01*
X126066485Y-28278220D01*
X125999292Y-28297372D01*
X125932411Y-28277156D01*
X125887894Y-28225781D01*
X125827652Y-28096593D01*
X125827534Y-28096339D01*
X125728435Y-27954810D01*
X125700827Y-27915381D01*
X125640324Y-27854878D01*
X125544620Y-27759174D01*
X125544616Y-27759171D01*
X125544615Y-27759170D01*
X125363666Y-27632468D01*
X125363662Y-27632466D01*
X125363660Y-27632465D01*
X125163450Y-27539106D01*
X125163447Y-27539105D01*
X125163445Y-27539104D01*
X124950070Y-27481930D01*
X124950062Y-27481929D01*
X124730002Y-27462677D01*
X124729998Y-27462677D01*
X124509937Y-27481929D01*
X124509929Y-27481930D01*
X124296554Y-27539104D01*
X124296548Y-27539107D01*
X124096340Y-27632465D01*
X124096338Y-27632466D01*
X123915377Y-27759175D01*
X123759175Y-27915377D01*
X123632466Y-28096338D01*
X123632465Y-28096340D01*
X123572382Y-28225189D01*
X123526209Y-28277628D01*
X123459016Y-28296780D01*
X123392135Y-28276564D01*
X123347618Y-28225189D01*
X123287652Y-28096593D01*
X123287534Y-28096339D01*
X123188435Y-27954810D01*
X123160827Y-27915381D01*
X123100324Y-27854878D01*
X123004620Y-27759174D01*
X123004616Y-27759171D01*
X123004615Y-27759170D01*
X122823666Y-27632468D01*
X122823662Y-27632466D01*
X122823660Y-27632465D01*
X122623450Y-27539106D01*
X122623447Y-27539105D01*
X122623445Y-27539104D01*
X122410070Y-27481930D01*
X122410062Y-27481929D01*
X122190002Y-27462677D01*
X122189998Y-27462677D01*
X121969937Y-27481929D01*
X121969929Y-27481930D01*
X121756554Y-27539104D01*
X121756548Y-27539107D01*
X121556340Y-27632465D01*
X121556338Y-27632466D01*
X121375377Y-27759175D01*
X121215345Y-27919208D01*
X121214477Y-27918340D01*
X121161307Y-27953708D01*
X121091446Y-27954810D01*
X121032080Y-27917968D01*
X121002056Y-27854878D01*
X121000500Y-27835297D01*
X121000500Y-27124500D01*
X121020185Y-27057461D01*
X121072989Y-27011706D01*
X121124500Y-27000500D01*
X130875500Y-27000500D01*
X130942539Y-27020185D01*
G37*
%TD.AperFunction*%
%TD*%
M02*
