M48
; DRILL file {KiCad 7.0.9} date Wed Jan 29 15:25:45 2025
; FORMAT={-:-/ absolute / inch / decimal}
; #@! TF.CreationDate,2025-01-29T15:25:45+09:00
; #@! TF.GenerationSoftware,Kicad,Pcbnew,7.0.9
; #@! TF.FileFunction,Plated,1,2,PTH
FMAT,2
INCH
; #@! TA.AperFunction,Plated,PTH,ViaDrill
T1C0.0118
; #@! TA.AperFunction,Plated,PTH,ComponentDrill
T2C0.0118
; #@! TA.AperFunction,Plated,PTH,ViaDrill
T3C0.0157
; #@! TA.AperFunction,Plated,PTH,ComponentDrill
T4C0.0197
; #@! TA.AperFunction,Plated,PTH,ComponentDrill
T5C0.0236
; #@! TA.AperFunction,Plated,PTH,ComponentDrill
T6C0.0295
; #@! TA.AperFunction,Plated,PTH,ComponentDrill
T7C0.0300
; #@! TA.AperFunction,Plated,PTH,ComponentDrill
T8C0.0315
; #@! TA.AperFunction,Plated,PTH,ComponentDrill
T9C0.0335
; #@! TA.AperFunction,Plated,PTH,ComponentDrill
T10C0.0374
; #@! TA.AperFunction,Plated,PTH,ComponentDrill
T11C0.0394
; #@! TA.AperFunction,Plated,PTH,ComponentDrill
T12C0.0591
; #@! TA.AperFunction,Plated,PTH,ComponentDrill
T13C0.1260
%
G90
G05
T1
X4.4882Y-4.0945
X4.5371Y-4.0394
X4.575Y-3.7273
X4.9794Y-2.775
X5.3543Y-3.35
X5.4724Y-3.0709
X5.5118Y-3.1496
X5.55Y-4.68
X5.575Y-4.225
X5.575Y-4.575
X5.625Y-4.175
X5.7Y-3.425
X5.8Y-3.225
X6.025Y-3.85
X6.0253Y-3.7997
X6.1974Y-3.925
X6.2Y-3.2473
X6.425Y-3.175
X6.45Y-3.7
X6.475Y-4.15
X7.15Y-3.7
X7.175Y-3.625
T2
X4.83Y-4.4107
X4.83Y-4.458
X4.83Y-4.5092
X4.83Y-4.5525
X4.8772Y-4.4107
X4.8772Y-4.458
X4.8772Y-4.5092
X4.8772Y-4.5525
X5.9943Y-4.3813
X5.9943Y-4.4285
X5.9943Y-4.4797
X5.9943Y-4.523
X6.0415Y-4.3813
X6.0415Y-4.4285
X6.0415Y-4.4797
X6.0415Y-4.523
T3
X3.622Y-4.2913
X3.6614Y-3.1102
X3.85Y-4.65
X4.64Y-4.26
X4.84Y-4.32
X4.9213Y-6.1417
X4.975Y-3.125
X4.98Y-4.33
X5.0Y-1.2
X5.0Y-3.45
X5.06Y-4.63
X5.075Y-3.025
X5.1Y-4.53
X5.12Y-6.55
X5.2Y-4.63
X5.3937Y-2.8346
X5.43Y-5.63
X5.5402Y-4.6298
X5.55Y-3.5
X5.55Y-3.975
X5.56Y-4.29
X5.62Y-4.67
X5.625Y-3.475
X5.65Y-3.05
X5.6525Y-3.55
X5.67Y-3.86
X5.675Y-3.35
X5.69Y-4.13
X5.78Y-3.44
X5.82Y-4.54
X5.83Y-4.71
X5.8487Y-4.1287
X5.85Y-4.32
X5.89Y-3.58
X5.9439Y-3.3848
X6.063Y-3.3071
X6.0631Y-4.068
X6.08Y-3.69
X6.1417Y-3.7402
X6.1417Y-4.0551
X6.1539Y-3.8068
X6.21Y-3.39
X6.22Y-3.5
X6.28Y-3.7
X6.4Y-3.4
X6.44Y-3.64
X6.45Y-3.35
X6.4567Y-3.7402
X6.55Y-2.88
X6.6Y-3.475
X6.62Y-3.13
X6.62Y-3.33
X6.625Y-3.5738
X6.6535Y-3.7402
X6.74Y-3.54
X6.9Y-3.7
X7.03Y-3.19
X7.09Y-3.64
X7.33Y-3.66
X7.56Y-3.18
X7.74Y-3.57
X7.84Y-3.17
T4
X5.0236Y-2.8543
X5.0236Y-5.0197
X5.0513Y-2.7875
X5.0513Y-2.9211
X5.0513Y-4.9529
X5.0513Y-5.0865
X5.1181Y-2.7598
X5.1181Y-2.9488
X5.1181Y-4.9252
X5.1181Y-5.1142
X5.1849Y-2.7875
X5.1849Y-2.9211
X5.1849Y-4.9529
X5.1849Y-5.0865
X5.2126Y-2.8543
X5.2126Y-5.0197
X5.811Y-2.8543
X5.811Y-5.0197
X5.8387Y-2.7875
X5.8387Y-2.9211
X5.8387Y-4.9529
X5.8387Y-5.0865
X5.9055Y-2.7598
X5.9055Y-2.9488
X5.9055Y-4.9252
X5.9055Y-5.1142
X5.9723Y-2.7875
X5.9723Y-2.9211
X5.9723Y-4.9529
X5.9723Y-5.0865
X6.0Y-2.8543
X6.0Y-5.0197
T6
X5.46Y-2.8242
X5.51Y-2.8242
X5.56Y-2.8242
T7
X4.81Y-6.7429
X4.8106Y-1.1311
X4.8106Y-1.2311
X4.91Y-6.7429
X4.9106Y-1.1311
X4.9106Y-1.2311
X5.01Y-6.6429
X5.01Y-6.7429
X5.0106Y-1.1311
X5.11Y-6.6429
X5.11Y-6.7429
X5.1106Y-1.1311
X5.1331Y-2.0622
X5.1331Y-2.3622
X5.2331Y-2.0622
X5.2331Y-2.3622
X5.3331Y-2.0622
X5.3331Y-2.3622
X5.4331Y-2.0622
X5.4331Y-2.3622
T8
X5.4528Y-5.02
X5.4528Y-5.3543
X5.5512Y-5.02
X5.5512Y-5.3543
X7.7559Y-3.937
X7.7559Y-4.1339
X7.7559Y-4.3701
X7.7559Y-4.5669
T9
X3.55Y-2.58
X3.5731Y-5.36
X3.6484Y-2.58
X3.6716Y-5.36
X3.7469Y-2.58
X3.77Y-5.36
X6.38Y-2.7331
X6.38Y-2.8316
X6.38Y-2.93
X6.38Y-4.9531
X6.38Y-5.0516
X6.38Y-5.15
T10
X3.65Y-4.6563
X3.65Y-4.7547
X3.65Y-4.8531
X3.65Y-4.9516
X3.65Y-5.05
X4.11Y-3.4247
X4.11Y-3.5231
X4.11Y-3.6216
X4.11Y-3.72
X4.11Y-4.0497
X4.11Y-4.1481
X4.11Y-4.2466
X4.11Y-4.345
T11
X5.1732Y-5.8661
X5.4724Y-5.8661
T12
X7.6575Y-3.8976
X7.6575Y-4.1732
X7.6575Y-4.3307
X7.6575Y-4.6063
T13
X5.1181Y-2.8543
X5.1181Y-5.0197
X5.9055Y-2.8543
X5.9055Y-5.0197
T5
G00X7.6371Y-3.3299
M15
G01X7.5938Y-3.3299
M16
G05
G00X7.6371Y-3.6701
M15
G01X7.5938Y-3.6701
M16
G05
G00X7.7957Y-3.3299
M15
G01X7.7643Y-3.3299
M16
G05
G00X7.7957Y-3.6701
M15
G01X7.7643Y-3.6701
M16
G05
T0
M30
