%TF.GenerationSoftware,KiCad,Pcbnew,7.0.9*%
%TF.CreationDate,2025-01-19T18:06:07+09:00*%
%TF.ProjectId,06-UI,30362d55-492e-46b6-9963-61645f706362,rev?*%
%TF.SameCoordinates,Original*%
%TF.FileFunction,Soldermask,Top*%
%TF.FilePolarity,Negative*%
%FSLAX46Y46*%
G04 Gerber Fmt 4.6, Leading zero omitted, Abs format (unit mm)*
G04 Created by KiCad (PCBNEW 7.0.9) date 2025-01-19 18:06:07*
%MOMM*%
%LPD*%
G01*
G04 APERTURE LIST*
G04 Aperture macros list*
%AMRoundRect*
0 Rectangle with rounded corners*
0 $1 Rounding radius*
0 $2 $3 $4 $5 $6 $7 $8 $9 X,Y pos of 4 corners*
0 Add a 4 corners polygon primitive as box body*
4,1,4,$2,$3,$4,$5,$6,$7,$8,$9,$2,$3,0*
0 Add four circle primitives for the rounded corners*
1,1,$1+$1,$2,$3*
1,1,$1+$1,$4,$5*
1,1,$1+$1,$6,$7*
1,1,$1+$1,$8,$9*
0 Add four rect primitives between the rounded corners*
20,1,$1+$1,$2,$3,$4,$5,0*
20,1,$1+$1,$4,$5,$6,$7,0*
20,1,$1+$1,$6,$7,$8,$9,0*
20,1,$1+$1,$8,$9,$2,$3,0*%
G04 Aperture macros list end*
%ADD10O,1.950000X1.700000*%
%ADD11RoundRect,0.250000X0.725000X-0.600000X0.725000X0.600000X-0.725000X0.600000X-0.725000X-0.600000X0*%
%ADD12C,1.700000*%
%ADD13O,1.850000X3.048000*%
%ADD14O,1.600000X1.600000*%
%ADD15C,1.600000*%
%ADD16C,3.200000*%
%ADD17R,1.500000X0.900000*%
G04 APERTURE END LIST*
D10*
%TO.C,J1*%
X143000000Y-55500000D03*
X143000000Y-58000000D03*
X143000000Y-60500000D03*
D11*
X143000000Y-63000000D03*
%TD*%
D12*
%TO.C,U2*%
X133000000Y-81810000D03*
X133000000Y-79270000D03*
X133000000Y-76730000D03*
X133000000Y-74190000D03*
X52000000Y-61490000D03*
X52000000Y-64030000D03*
X52000000Y-66570000D03*
X52000000Y-69110000D03*
X52000000Y-71650000D03*
X52000000Y-74190000D03*
X52000000Y-76730000D03*
X52000000Y-79270000D03*
X52000000Y-81810000D03*
X52000000Y-84350000D03*
X52000000Y-86890000D03*
X52000000Y-89430000D03*
X52000000Y-91970000D03*
X52000000Y-94510000D03*
%TD*%
D13*
%TO.C,SW1*%
X140500000Y-80240000D03*
X140500000Y-67740000D03*
X145500000Y-80240000D03*
X145500000Y-67740000D03*
%TD*%
D14*
%TO.C,R1*%
X138000000Y-53840000D03*
D15*
X138000000Y-64000000D03*
%TD*%
D16*
%TO.C,H2*%
X145000000Y-107000000D03*
%TD*%
%TO.C,H1*%
X55000000Y-107000000D03*
%TD*%
D17*
%TO.C,D8*%
X132550000Y-105350000D03*
X132550000Y-108650000D03*
X137450000Y-108650000D03*
X137450000Y-105350000D03*
%TD*%
%TO.C,D7*%
X122550000Y-105350000D03*
X122550000Y-108650000D03*
X127450000Y-108650000D03*
X127450000Y-105350000D03*
%TD*%
%TO.C,D6*%
X112550000Y-105350000D03*
X112550000Y-108650000D03*
X117450000Y-108650000D03*
X117450000Y-105350000D03*
%TD*%
%TO.C,D5*%
X102550000Y-105350000D03*
X102550000Y-108650000D03*
X107450000Y-108650000D03*
X107450000Y-105350000D03*
%TD*%
%TO.C,D4*%
X92550000Y-105350000D03*
X92550000Y-108650000D03*
X97450000Y-108650000D03*
X97450000Y-105350000D03*
%TD*%
%TO.C,D3*%
X82550000Y-105350000D03*
X82550000Y-108650000D03*
X87450000Y-108650000D03*
X87450000Y-105350000D03*
%TD*%
%TO.C,D2*%
X72550000Y-105350000D03*
X72550000Y-108650000D03*
X77450000Y-108650000D03*
X77450000Y-105350000D03*
%TD*%
%TO.C,D1*%
X62550000Y-105350000D03*
X62550000Y-108650000D03*
X67450000Y-108650000D03*
X67450000Y-105350000D03*
%TD*%
M02*
