M48
; DRILL file {KiCad 7.0.9} date Sun Jan 19 18:06:07 2025
; FORMAT={-:-/ absolute / inch / decimal}
; #@! TF.CreationDate,2025-01-19T18:06:07+09:00
; #@! TF.GenerationSoftware,Kicad,Pcbnew,7.0.9
; #@! TF.FileFunction,Plated,1,2,PTH
FMAT,2
INCH
; #@! TA.AperFunction,Plated,PTH,ViaDrill
T1C0.0157
; #@! TA.AperFunction,Plated,PTH,ComponentDrill
T2C0.0315
; #@! TA.AperFunction,Plated,PTH,ComponentDrill
T3C0.0374
; #@! TA.AperFunction,Plated,PTH,ComponentDrill
T4C0.0394
; #@! TA.AperFunction,Plated,PTH,ComponentDrill
T5C0.0512
%
G90
G05
T1
X2.0Y-2.35
X2.0Y-3.9
X2.025Y-4.35
X2.0472Y-3.8583
X2.0861Y-3.9375
X2.125Y-2.275
X2.126Y-3.3465
X2.126Y-3.7008
X2.15Y-2.925
X2.1649Y-3.78
X2.2Y-2.0
X2.225Y-3.35
X2.3Y-2.075
X2.325Y-3.8
X2.475Y-4.075
X2.7559Y-4.1339
X5.1Y-4.025
X5.15Y-2.45
X5.1964Y-2.5192
X5.1969Y-3.7008
X5.225Y-3.9
X5.2362Y-3.7402
X5.315Y-2.4409
X5.315Y-3.7402
X5.325Y-2.125
X5.35Y-3.9
X5.4Y-2.0
X5.4Y-2.6
X5.425Y-2.225
X5.425Y-2.425
X5.425Y-2.775
X5.45Y-3.9
X5.475Y-3.65
X5.5118Y-3.7402
X5.55Y-2.225
X5.575Y-3.525
X5.6Y-2.925
X5.65Y-2.575
X5.65Y-3.25
X5.725Y-2.8
X5.8Y-2.525
X5.8Y-3.525
X5.8Y-3.9
X5.85Y-2.0
X5.85Y-3.15
X5.8571Y-4.0964
X5.875Y-4.375
T2
X5.4331Y-2.1197
X5.4331Y-2.5197
T3
X5.6299Y-2.185
X5.6299Y-2.2835
X5.6299Y-2.3819
X5.6299Y-2.4803
T4
X2.0472Y-2.4209
X2.0472Y-2.5209
X2.0472Y-2.6209
X2.0472Y-2.7209
X2.0472Y-2.8209
X2.0472Y-2.9209
X2.0472Y-3.0209
X2.0472Y-3.1209
X2.0472Y-3.2209
X2.0472Y-3.3209
X2.0472Y-3.4209
X2.0472Y-3.5209
X2.0472Y-3.6209
X2.0472Y-3.7209
X5.2362Y-2.9209
X5.2362Y-3.0209
X5.2362Y-3.1209
X5.2362Y-3.2209
T5
X5.5315Y-2.6669
X5.5315Y-3.1591
X5.7283Y-2.6669
X5.7283Y-3.1591
T0
M30
