%TF.GenerationSoftware,KiCad,Pcbnew,7.0.9*%
%TF.CreationDate,2025-01-19T18:06:07+09:00*%
%TF.ProjectId,06-UI,30362d55-492e-46b6-9963-61645f706362,rev?*%
%TF.SameCoordinates,Original*%
%TF.FileFunction,Copper,L2,Bot*%
%TF.FilePolarity,Positive*%
%FSLAX46Y46*%
G04 Gerber Fmt 4.6, Leading zero omitted, Abs format (unit mm)*
G04 Created by KiCad (PCBNEW 7.0.9) date 2025-01-19 18:06:07*
%MOMM*%
%LPD*%
G01*
G04 APERTURE LIST*
G04 Aperture macros list*
%AMRoundRect*
0 Rectangle with rounded corners*
0 $1 Rounding radius*
0 $2 $3 $4 $5 $6 $7 $8 $9 X,Y pos of 4 corners*
0 Add a 4 corners polygon primitive as box body*
4,1,4,$2,$3,$4,$5,$6,$7,$8,$9,$2,$3,0*
0 Add four circle primitives for the rounded corners*
1,1,$1+$1,$2,$3*
1,1,$1+$1,$4,$5*
1,1,$1+$1,$6,$7*
1,1,$1+$1,$8,$9*
0 Add four rect primitives between the rounded corners*
20,1,$1+$1,$2,$3,$4,$5,0*
20,1,$1+$1,$4,$5,$6,$7,0*
20,1,$1+$1,$6,$7,$8,$9,0*
20,1,$1+$1,$8,$9,$2,$3,0*%
G04 Aperture macros list end*
%TA.AperFunction,ComponentPad*%
%ADD10O,1.950000X1.700000*%
%TD*%
%TA.AperFunction,ComponentPad*%
%ADD11RoundRect,0.250000X0.725000X-0.600000X0.725000X0.600000X-0.725000X0.600000X-0.725000X-0.600000X0*%
%TD*%
%TA.AperFunction,SMDPad,CuDef*%
%ADD12RoundRect,0.500000X0.500000X-1.500000X0.500000X1.500000X-0.500000X1.500000X-0.500000X-1.500000X0*%
%TD*%
%TA.AperFunction,ComponentPad*%
%ADD13C,1.700000*%
%TD*%
%TA.AperFunction,ComponentPad*%
%ADD14O,1.850000X3.048000*%
%TD*%
%TA.AperFunction,ComponentPad*%
%ADD15O,1.600000X1.600000*%
%TD*%
%TA.AperFunction,ComponentPad*%
%ADD16C,1.600000*%
%TD*%
%TA.AperFunction,ViaPad*%
%ADD17C,0.800000*%
%TD*%
%TA.AperFunction,Conductor*%
%ADD18C,0.500000*%
%TD*%
%TA.AperFunction,Conductor*%
%ADD19C,0.250000*%
%TD*%
G04 APERTURE END LIST*
D10*
%TO.P,J1,4,Pin_4*%
%TO.N,GND*%
X143000000Y-55500000D03*
%TO.P,J1,3,Pin_3*%
%TO.N,TX*%
X143000000Y-58000000D03*
%TO.P,J1,2,Pin_2*%
%TO.N,RX*%
X143000000Y-60500000D03*
D11*
%TO.P,J1,1,Pin_1*%
%TO.N,+5V*%
X143000000Y-63000000D03*
%TD*%
D12*
%TO.P,U1,1,D0/A0*%
%TO.N,Display_CS*%
X147240000Y-102165000D03*
%TO.P,U1,2,D1/A1*%
%TO.N,Display_DC*%
X144700000Y-102165000D03*
%TO.P,U1,3,D2/A2*%
%TO.N,Touch_CS*%
X142160000Y-102165000D03*
%TO.P,U1,4,D3/A3*%
%TO.N,Touch_IRQ*%
X139620000Y-102165000D03*
%TO.P,U1,5,D4/SDA*%
%TO.N,SW*%
X137080000Y-102165000D03*
%TO.P,U1,6,D5/SCL*%
%TO.N,WS2812B*%
X134540000Y-102165000D03*
%TO.P,U1,7,D6/TX*%
%TO.N,TX*%
X132000000Y-102165000D03*
%TO.P,U1,8,RX/D7*%
%TO.N,RX*%
X132000000Y-86000000D03*
%TO.P,U1,9,D8*%
%TO.N,SCK*%
X134540000Y-86000000D03*
%TO.P,U1,10,D9*%
%TO.N,MISO*%
X137080000Y-86000000D03*
%TO.P,U1,11,D10*%
%TO.N,MOSI*%
X139620000Y-86000000D03*
%TO.P,U1,12,3V3*%
%TO.N,+3V3*%
X142160000Y-86000000D03*
%TO.P,U1,13,GND*%
%TO.N,GND*%
X144700000Y-86000000D03*
%TO.P,U1,14,5V*%
%TO.N,+5V*%
X147240000Y-86000000D03*
%TD*%
D13*
%TO.P,U2,*%
%TO.N,*%
X133000000Y-81810000D03*
X133000000Y-79270000D03*
X133000000Y-76730000D03*
X133000000Y-74190000D03*
%TO.P,U2,1,VCC*%
%TO.N,+3V3*%
X52000000Y-61490000D03*
%TO.P,U2,2,GND*%
%TO.N,GND*%
X52000000Y-64030000D03*
%TO.P,U2,3,CS*%
%TO.N,Display_CS*%
X52000000Y-66570000D03*
%TO.P,U2,4,RESET*%
%TO.N,+3V3*%
X52000000Y-69110000D03*
%TO.P,U2,5,DC/RS*%
%TO.N,Display_DC*%
X52000000Y-71650000D03*
%TO.P,U2,6,MOSI*%
%TO.N,MOSI*%
X52000000Y-74190000D03*
%TO.P,U2,7,SCK*%
%TO.N,SCK*%
X52000000Y-76730000D03*
%TO.P,U2,8,LED*%
%TO.N,+3V3*%
X52000000Y-79270000D03*
%TO.P,U2,9,MISO*%
%TO.N,unconnected-(U2-MISO-Pad9)*%
X52000000Y-81810000D03*
%TO.P,U2,10,T_CLK*%
%TO.N,SCK*%
X52000000Y-84350000D03*
%TO.P,U2,11,T_CS*%
%TO.N,Touch_CS*%
X52000000Y-86890000D03*
%TO.P,U2,12,T_DIN*%
%TO.N,MOSI*%
X52000000Y-89430000D03*
%TO.P,U2,13,T_DOUT*%
%TO.N,MISO*%
X52000000Y-91970000D03*
%TO.P,U2,14,T_IRQ*%
%TO.N,Touch_IRQ*%
X52000000Y-94510000D03*
%TD*%
D14*
%TO.P,SW1,1,1*%
%TO.N,SW*%
X140500000Y-80240000D03*
X140500000Y-67740000D03*
%TO.P,SW1,2,2*%
%TO.N,GND*%
X145500000Y-80240000D03*
X145500000Y-67740000D03*
%TD*%
D15*
%TO.P,R1,2*%
%TO.N,+3V3*%
X138000000Y-53840000D03*
D16*
%TO.P,R1,1*%
%TO.N,SW*%
X138000000Y-64000000D03*
%TD*%
D17*
%TO.N,GND*%
X129540000Y-102235000D03*
X148590000Y-80010000D03*
X137795000Y-70485000D03*
X143510000Y-82550000D03*
X145415000Y-71120000D03*
X142240000Y-74295000D03*
X137160000Y-66040000D03*
X140970000Y-56515000D03*
X137795000Y-56515000D03*
X137795000Y-61595000D03*
X143510000Y-65405000D03*
X147320000Y-64135000D03*
X148590000Y-50800000D03*
X137160000Y-50800000D03*
X135255000Y-53975000D03*
X130810000Y-62230000D03*
X53975000Y-57785000D03*
X58420000Y-52705000D03*
X50800000Y-59690000D03*
X55880000Y-50800000D03*
X54610000Y-74295000D03*
X56515000Y-85090000D03*
X62865000Y-103505000D03*
X59055000Y-96520000D03*
X50800000Y-99060000D03*
X51435000Y-110490000D03*
X149225000Y-111125000D03*
X147320000Y-99060000D03*
X141605000Y-89535000D03*
X147320000Y-89535000D03*
X138430000Y-99060000D03*
X135890000Y-99060000D03*
X139065000Y-92710000D03*
X132715000Y-99060000D03*
%TO.N,SW*%
X140000000Y-95000000D03*
%TO.N,MOSI*%
X54987701Y-96012299D03*
X135000000Y-95000000D03*
%TO.N,MISO*%
X54000000Y-94000000D03*
X133000000Y-95000000D03*
%TO.N,SCK*%
X54000000Y-85000000D03*
X132000000Y-94000000D03*
%TO.N,Display_CS*%
X52987701Y-100012299D03*
%TO.N,Display_DC*%
X52000000Y-98000000D03*
%TO.N,WS2812B*%
X70000000Y-105000000D03*
%TO.N,+5V*%
X148770710Y-104047808D03*
%TO.N,TX*%
X131987701Y-63987701D03*
%TO.N,RX*%
X135000000Y-62000000D03*
%TD*%
D18*
%TO.N,+3V3*%
X136000000Y-55840000D02*
X138000000Y-53840000D01*
X142160000Y-76755000D02*
X136000000Y-70595000D01*
X142160000Y-86000000D02*
X142160000Y-76755000D01*
X136000000Y-70595000D02*
X136000000Y-55840000D01*
D19*
%TO.N,SW*%
X137080000Y-97920000D02*
X140000000Y-95000000D01*
X137080000Y-102165000D02*
X137080000Y-97920000D01*
%TO.N,SCK*%
X53175000Y-77905000D02*
X52000000Y-76730000D01*
X53175000Y-83175000D02*
X53175000Y-77905000D01*
X52000000Y-84350000D02*
X53175000Y-83175000D01*
D18*
%TO.N,+3V3*%
X50700000Y-70410000D02*
X50700000Y-77970000D01*
X52000000Y-69110000D02*
X50700000Y-70410000D01*
X50700000Y-77970000D02*
X52000000Y-79270000D01*
D19*
%TO.N,MOSI*%
X54725000Y-86705000D02*
X52000000Y-89430000D01*
X54725000Y-76915000D02*
X54725000Y-86705000D01*
X52000000Y-74190000D02*
X54725000Y-76915000D01*
X54987701Y-92417701D02*
X52000000Y-89430000D01*
X54987701Y-96012299D02*
X54987701Y-92417701D01*
X139620000Y-90380000D02*
X135000000Y-95000000D01*
X139620000Y-86000000D02*
X139620000Y-90380000D01*
%TO.N,MISO*%
X54000000Y-93970000D02*
X52000000Y-91970000D01*
X54000000Y-94000000D02*
X54000000Y-93970000D01*
X137080000Y-90920000D02*
X133000000Y-95000000D01*
X137080000Y-86000000D02*
X137080000Y-90920000D01*
%TO.N,SCK*%
X52650000Y-85000000D02*
X52000000Y-84350000D01*
X54000000Y-85000000D02*
X52650000Y-85000000D01*
X134540000Y-91460000D02*
X132000000Y-94000000D01*
X134540000Y-86000000D02*
X134540000Y-91460000D01*
%TO.N,Display_CS*%
X61950402Y-108975000D02*
X52987701Y-100012299D01*
X145818072Y-108975000D02*
X61950402Y-108975000D01*
X147240000Y-107553072D02*
X145818072Y-108975000D01*
X147240000Y-102165000D02*
X147240000Y-107553072D01*
%TO.N,Display_DC*%
X60625000Y-106625000D02*
X52000000Y-98000000D01*
X144700000Y-104165000D02*
X142240000Y-106625000D01*
X142240000Y-106625000D02*
X60625000Y-106625000D01*
X144700000Y-102165000D02*
X144700000Y-104165000D01*
%TO.N,Touch_CS*%
X62003299Y-106175000D02*
X50125000Y-94296701D01*
X50125000Y-94296701D02*
X50125000Y-88765000D01*
X140150000Y-106175000D02*
X62003299Y-106175000D01*
X50125000Y-88765000D02*
X52000000Y-86890000D01*
X142160000Y-104165000D02*
X140150000Y-106175000D01*
X142160000Y-102165000D02*
X142160000Y-104165000D01*
D18*
%TO.N,+5V*%
X148770710Y-104047808D02*
X148690000Y-103967098D01*
X148690000Y-103967098D02*
X148690000Y-87450000D01*
X148690000Y-87450000D02*
X147240000Y-86000000D01*
D19*
%TO.N,Touch_IRQ*%
X63215000Y-105725000D02*
X52000000Y-94510000D01*
X138650195Y-105725000D02*
X63215000Y-105725000D01*
X139620000Y-104755195D02*
X138650195Y-105725000D01*
X139620000Y-102165000D02*
X139620000Y-104755195D01*
%TO.N,WS2812B*%
X133705000Y-105000000D02*
X70000000Y-105000000D01*
X134540000Y-104165000D02*
X133705000Y-105000000D01*
X134540000Y-102165000D02*
X134540000Y-104165000D01*
%TO.N,TX*%
X130125000Y-65850402D02*
X130125000Y-100290000D01*
X131987701Y-63987701D02*
X130125000Y-65850402D01*
X130125000Y-100290000D02*
X132000000Y-102165000D01*
%TO.N,RX*%
X131000000Y-66000000D02*
X135000000Y-62000000D01*
X131000000Y-85000000D02*
X131000000Y-66000000D01*
X132000000Y-86000000D02*
X131000000Y-85000000D01*
D18*
%TO.N,+5V*%
X147240000Y-66265000D02*
X143975000Y-63000000D01*
X143975000Y-63000000D02*
X143000000Y-63000000D01*
X147240000Y-86000000D02*
X147240000Y-66265000D01*
%TD*%
%TA.AperFunction,Conductor*%
%TO.N,GND*%
G36*
X149942539Y-50020185D02*
G01*
X149988294Y-50072989D01*
X149999500Y-50124500D01*
X149999500Y-111875500D01*
X149979815Y-111942539D01*
X149927011Y-111988294D01*
X149875500Y-111999500D01*
X50124500Y-111999500D01*
X50057461Y-111979815D01*
X50011706Y-111927011D01*
X50000500Y-111875500D01*
X50000500Y-107067763D01*
X53145787Y-107067763D01*
X53175413Y-107337013D01*
X53175415Y-107337024D01*
X53243926Y-107599082D01*
X53243928Y-107599088D01*
X53349870Y-107848390D01*
X53469285Y-108044058D01*
X53490979Y-108079605D01*
X53490986Y-108079615D01*
X53664253Y-108287819D01*
X53664259Y-108287824D01*
X53711124Y-108329815D01*
X53865998Y-108468582D01*
X54091910Y-108618044D01*
X54337176Y-108733020D01*
X54337183Y-108733022D01*
X54337185Y-108733023D01*
X54596557Y-108811057D01*
X54596564Y-108811058D01*
X54596569Y-108811060D01*
X54864561Y-108850500D01*
X54864566Y-108850500D01*
X55067636Y-108850500D01*
X55119133Y-108846730D01*
X55270156Y-108835677D01*
X55382758Y-108810593D01*
X55534546Y-108776782D01*
X55534548Y-108776781D01*
X55534553Y-108776780D01*
X55787558Y-108680014D01*
X56023777Y-108547441D01*
X56238177Y-108381888D01*
X56426186Y-108186881D01*
X56583799Y-107966579D01*
X56687040Y-107765774D01*
X56707649Y-107725690D01*
X56707651Y-107725684D01*
X56707656Y-107725675D01*
X56795118Y-107469305D01*
X56844319Y-107202933D01*
X56854212Y-106932235D01*
X56824586Y-106662982D01*
X56756072Y-106400912D01*
X56650130Y-106151610D01*
X56509018Y-105920390D01*
X56456975Y-105857853D01*
X56335746Y-105712180D01*
X56335740Y-105712175D01*
X56134002Y-105531418D01*
X55908092Y-105381957D01*
X55908090Y-105381956D01*
X55662824Y-105266980D01*
X55662819Y-105266978D01*
X55662814Y-105266976D01*
X55403442Y-105188942D01*
X55403428Y-105188939D01*
X55287791Y-105171921D01*
X55135439Y-105149500D01*
X54932369Y-105149500D01*
X54932364Y-105149500D01*
X54729844Y-105164323D01*
X54729831Y-105164325D01*
X54465453Y-105223217D01*
X54465446Y-105223220D01*
X54212439Y-105319987D01*
X53976226Y-105452557D01*
X53761822Y-105618112D01*
X53573822Y-105813109D01*
X53573816Y-105813116D01*
X53416202Y-106033419D01*
X53416199Y-106033424D01*
X53292350Y-106274309D01*
X53292343Y-106274327D01*
X53204884Y-106530685D01*
X53204882Y-106530695D01*
X53158682Y-106780823D01*
X53155681Y-106797068D01*
X53155680Y-106797075D01*
X53145787Y-107067763D01*
X50000500Y-107067763D01*
X50000500Y-95356153D01*
X50020185Y-95289114D01*
X50072989Y-95243359D01*
X50142147Y-95233415D01*
X50205703Y-95262440D01*
X50212181Y-95268472D01*
X51857555Y-96913846D01*
X51891040Y-96975169D01*
X51886056Y-97044861D01*
X51844184Y-97100794D01*
X51795655Y-97122817D01*
X51720197Y-97138855D01*
X51720192Y-97138857D01*
X51547270Y-97215848D01*
X51547265Y-97215851D01*
X51394129Y-97327111D01*
X51267466Y-97467785D01*
X51172821Y-97631715D01*
X51172818Y-97631722D01*
X51114327Y-97811740D01*
X51114326Y-97811744D01*
X51094540Y-98000000D01*
X51114326Y-98188256D01*
X51114327Y-98188259D01*
X51172818Y-98368277D01*
X51172821Y-98368284D01*
X51267467Y-98532216D01*
X51368568Y-98644500D01*
X51394129Y-98672888D01*
X51547265Y-98784148D01*
X51547270Y-98784151D01*
X51720192Y-98861142D01*
X51720197Y-98861144D01*
X51905354Y-98900500D01*
X51964548Y-98900500D01*
X52031587Y-98920185D01*
X52052229Y-98936819D01*
X52333206Y-99217796D01*
X52366691Y-99279119D01*
X52361707Y-99348811D01*
X52337675Y-99388449D01*
X52255167Y-99480083D01*
X52160522Y-99644014D01*
X52160519Y-99644021D01*
X52117277Y-99777108D01*
X52102027Y-99824043D01*
X52082241Y-100012299D01*
X52102027Y-100200555D01*
X52102028Y-100200558D01*
X52160519Y-100380576D01*
X52160522Y-100380583D01*
X52255168Y-100544515D01*
X52333421Y-100631423D01*
X52381830Y-100685187D01*
X52534966Y-100796447D01*
X52534971Y-100796450D01*
X52707893Y-100873441D01*
X52707898Y-100873443D01*
X52893055Y-100912799D01*
X52952249Y-100912799D01*
X53019288Y-100932484D01*
X53039929Y-100949117D01*
X57252686Y-105161875D01*
X61449599Y-109358788D01*
X61459424Y-109371051D01*
X61459645Y-109370869D01*
X61464616Y-109376878D01*
X61485445Y-109396437D01*
X61515037Y-109424226D01*
X61535931Y-109445120D01*
X61541413Y-109449373D01*
X61545845Y-109453157D01*
X61579820Y-109485062D01*
X61597378Y-109494714D01*
X61613637Y-109505395D01*
X61629466Y-109517673D01*
X61672240Y-109536182D01*
X61677458Y-109538738D01*
X61718310Y-109561197D01*
X61737718Y-109566180D01*
X61756119Y-109572480D01*
X61774506Y-109580437D01*
X61817890Y-109587308D01*
X61820521Y-109587725D01*
X61826241Y-109588909D01*
X61871383Y-109600500D01*
X61891418Y-109600500D01*
X61910816Y-109602026D01*
X61930596Y-109605159D01*
X61930597Y-109605160D01*
X61930597Y-109605159D01*
X61930598Y-109605160D01*
X61976986Y-109600775D01*
X61982824Y-109600500D01*
X145735329Y-109600500D01*
X145750949Y-109602224D01*
X145750976Y-109601939D01*
X145758732Y-109602671D01*
X145758739Y-109602673D01*
X145827886Y-109600500D01*
X145857422Y-109600500D01*
X145864300Y-109599630D01*
X145870113Y-109599172D01*
X145916699Y-109597709D01*
X145935941Y-109592117D01*
X145954984Y-109588174D01*
X145974864Y-109585664D01*
X146018194Y-109568507D01*
X146023718Y-109566617D01*
X146027468Y-109565527D01*
X146068462Y-109553618D01*
X146085701Y-109543422D01*
X146103175Y-109534862D01*
X146121799Y-109527488D01*
X146121799Y-109527487D01*
X146121804Y-109527486D01*
X146159521Y-109500082D01*
X146164377Y-109496892D01*
X146204492Y-109473170D01*
X146218661Y-109458999D01*
X146233451Y-109446368D01*
X146249659Y-109434594D01*
X146279371Y-109398676D01*
X146283284Y-109394376D01*
X147623787Y-108053874D01*
X147636042Y-108044058D01*
X147635859Y-108043836D01*
X147641866Y-108038864D01*
X147641877Y-108038858D01*
X147672775Y-108005954D01*
X147689227Y-107988436D01*
X147699671Y-107977990D01*
X147710120Y-107967543D01*
X147714379Y-107962050D01*
X147718152Y-107957633D01*
X147750062Y-107923654D01*
X147759715Y-107906092D01*
X147770389Y-107889842D01*
X147782673Y-107874008D01*
X147801180Y-107831239D01*
X147803749Y-107825996D01*
X147826196Y-107785165D01*
X147826197Y-107785164D01*
X147831177Y-107765763D01*
X147837478Y-107747360D01*
X147845438Y-107728968D01*
X147852730Y-107682921D01*
X147853911Y-107677224D01*
X147865500Y-107632091D01*
X147865500Y-107612055D01*
X147867027Y-107592654D01*
X147870160Y-107572876D01*
X147865775Y-107526487D01*
X147865500Y-107520649D01*
X147865500Y-104763236D01*
X147885185Y-104696197D01*
X147937989Y-104650442D01*
X147955373Y-104644025D01*
X147992589Y-104633376D01*
X148062452Y-104633857D01*
X148118849Y-104669619D01*
X148164839Y-104720696D01*
X148317975Y-104831956D01*
X148317980Y-104831959D01*
X148490902Y-104908950D01*
X148490907Y-104908952D01*
X148676064Y-104948308D01*
X148676065Y-104948308D01*
X148865354Y-104948308D01*
X148865356Y-104948308D01*
X149050513Y-104908952D01*
X149223440Y-104831959D01*
X149376581Y-104720696D01*
X149503243Y-104580024D01*
X149597889Y-104416092D01*
X149656384Y-104236064D01*
X149676170Y-104047808D01*
X149656384Y-103859552D01*
X149597889Y-103679524D01*
X149503243Y-103515592D01*
X149486233Y-103496700D01*
X149472349Y-103481280D01*
X149442120Y-103418288D01*
X149440500Y-103398309D01*
X149440500Y-87513705D01*
X149441809Y-87495735D01*
X149442129Y-87493547D01*
X149445289Y-87471977D01*
X149440735Y-87419931D01*
X149440500Y-87414528D01*
X149440500Y-87406297D01*
X149440500Y-87406291D01*
X149436693Y-87373724D01*
X149429999Y-87297203D01*
X149429999Y-87297201D01*
X149428539Y-87290129D01*
X149428597Y-87290116D01*
X149426965Y-87282757D01*
X149426906Y-87282772D01*
X149425242Y-87275753D01*
X149425241Y-87275745D01*
X149398974Y-87203576D01*
X149374814Y-87130666D01*
X149374809Y-87130659D01*
X149371760Y-87124118D01*
X149371815Y-87124091D01*
X149368533Y-87117313D01*
X149368480Y-87117340D01*
X149365235Y-87110880D01*
X149323028Y-87046708D01*
X149282710Y-86981342D01*
X149278234Y-86975682D01*
X149278281Y-86975644D01*
X149273519Y-86969799D01*
X149273474Y-86969838D01*
X149268834Y-86964309D01*
X149268832Y-86964307D01*
X149268830Y-86964304D01*
X149238061Y-86935275D01*
X149212965Y-86911597D01*
X148776818Y-86475450D01*
X148743333Y-86414127D01*
X148740499Y-86387769D01*
X148740499Y-84441967D01*
X148729886Y-84322584D01*
X148729886Y-84322582D01*
X148677316Y-84138857D01*
X148673910Y-84126954D01*
X148673909Y-84126953D01*
X148673909Y-84126951D01*
X148579698Y-83946593D01*
X148460532Y-83800447D01*
X148451109Y-83788890D01*
X148307963Y-83672171D01*
X148293407Y-83660302D01*
X148113049Y-83566091D01*
X148113048Y-83566090D01*
X148113043Y-83566088D01*
X148080387Y-83556744D01*
X148021349Y-83519376D01*
X147991887Y-83456022D01*
X147990500Y-83437529D01*
X147990500Y-66328705D01*
X147991809Y-66310735D01*
X147995289Y-66286974D01*
X147992820Y-66258762D01*
X147990735Y-66234933D01*
X147990500Y-66229532D01*
X147990500Y-66221296D01*
X147990500Y-66221291D01*
X147986691Y-66188705D01*
X147979998Y-66112203D01*
X147979995Y-66112194D01*
X147978538Y-66105135D01*
X147978598Y-66105122D01*
X147976965Y-66097757D01*
X147976906Y-66097772D01*
X147975241Y-66090749D01*
X147975241Y-66090745D01*
X147948971Y-66018568D01*
X147924816Y-65945670D01*
X147921761Y-65939118D01*
X147921815Y-65939092D01*
X147918533Y-65932312D01*
X147918480Y-65932340D01*
X147915238Y-65925886D01*
X147915237Y-65925883D01*
X147873038Y-65861723D01*
X147832712Y-65796344D01*
X147832711Y-65796343D01*
X147832710Y-65796341D01*
X147828234Y-65790681D01*
X147828280Y-65790643D01*
X147823519Y-65784799D01*
X147823474Y-65784838D01*
X147818834Y-65779308D01*
X147812208Y-65773057D01*
X147779775Y-65742457D01*
X147762982Y-65726613D01*
X144550729Y-62514361D01*
X144538949Y-62500730D01*
X144524610Y-62481470D01*
X144519790Y-62477426D01*
X144481091Y-62419256D01*
X144475499Y-62382439D01*
X144475499Y-62349998D01*
X144475498Y-62349981D01*
X144464999Y-62247203D01*
X144464998Y-62247200D01*
X144409814Y-62080666D01*
X144317712Y-61931344D01*
X144193656Y-61807288D01*
X144060907Y-61725408D01*
X144038879Y-61711821D01*
X143992155Y-61659873D01*
X143980932Y-61590910D01*
X144008776Y-61526828D01*
X144016295Y-61518601D01*
X144067112Y-61467784D01*
X144163495Y-61371401D01*
X144299035Y-61177830D01*
X144398903Y-60963663D01*
X144460063Y-60735408D01*
X144480659Y-60500000D01*
X144460063Y-60264592D01*
X144398903Y-60036337D01*
X144299035Y-59822171D01*
X144299034Y-59822169D01*
X144163494Y-59628597D01*
X143996403Y-59461506D01*
X143940187Y-59422144D01*
X143839401Y-59351573D01*
X143795778Y-59296999D01*
X143788584Y-59227500D01*
X143820106Y-59165145D01*
X143839398Y-59148428D01*
X143996401Y-59038495D01*
X144163495Y-58871401D01*
X144299035Y-58677830D01*
X144398903Y-58463663D01*
X144460063Y-58235408D01*
X144480659Y-58000000D01*
X144460063Y-57764592D01*
X144398903Y-57536337D01*
X144299035Y-57322171D01*
X144299034Y-57322169D01*
X144163494Y-57128597D01*
X143996403Y-56961506D01*
X143838967Y-56851269D01*
X143795342Y-56796692D01*
X143788148Y-56727194D01*
X143819671Y-56664839D01*
X143838967Y-56648119D01*
X143996073Y-56538113D01*
X143996079Y-56538108D01*
X144163105Y-56371082D01*
X144298600Y-56177578D01*
X144398429Y-55963492D01*
X144398432Y-55963486D01*
X144455636Y-55750000D01*
X143403969Y-55750000D01*
X143436519Y-55699351D01*
X143475000Y-55568295D01*
X143475000Y-55431705D01*
X143436519Y-55300649D01*
X143403969Y-55250000D01*
X144455636Y-55250000D01*
X144455635Y-55249999D01*
X144398432Y-55036513D01*
X144398429Y-55036507D01*
X144298600Y-54822422D01*
X144298599Y-54822420D01*
X144163113Y-54628926D01*
X144163108Y-54628920D01*
X143996079Y-54461891D01*
X143996073Y-54461886D01*
X143802579Y-54326400D01*
X143802577Y-54326399D01*
X143588492Y-54226570D01*
X143588483Y-54226566D01*
X143360326Y-54165432D01*
X143360316Y-54165430D01*
X143250000Y-54155778D01*
X143250000Y-55091981D01*
X143135199Y-55039554D01*
X143033975Y-55025000D01*
X142966025Y-55025000D01*
X142864801Y-55039554D01*
X142750000Y-55091981D01*
X142750000Y-54155778D01*
X142639683Y-54165430D01*
X142639673Y-54165432D01*
X142411516Y-54226566D01*
X142411507Y-54226570D01*
X142197422Y-54326399D01*
X142197420Y-54326400D01*
X142003926Y-54461886D01*
X142003920Y-54461891D01*
X141836894Y-54628917D01*
X141701399Y-54822421D01*
X141601570Y-55036507D01*
X141601567Y-55036513D01*
X141544364Y-55249999D01*
X141544364Y-55250000D01*
X142596031Y-55250000D01*
X142563481Y-55300649D01*
X142525000Y-55431705D01*
X142525000Y-55568295D01*
X142563481Y-55699351D01*
X142596031Y-55750000D01*
X141544364Y-55750000D01*
X141601567Y-55963486D01*
X141601570Y-55963492D01*
X141701399Y-56177577D01*
X141701400Y-56177579D01*
X141836886Y-56371073D01*
X141836891Y-56371079D01*
X142003920Y-56538108D01*
X142003926Y-56538113D01*
X142161031Y-56648119D01*
X142204656Y-56702696D01*
X142211850Y-56772194D01*
X142180327Y-56834549D01*
X142161032Y-56851269D01*
X142003594Y-56961508D01*
X141836506Y-57128597D01*
X141836501Y-57128604D01*
X141700967Y-57322165D01*
X141700965Y-57322169D01*
X141601098Y-57536335D01*
X141601094Y-57536344D01*
X141539938Y-57764586D01*
X141539936Y-57764596D01*
X141519341Y-57999999D01*
X141519341Y-58000000D01*
X141539936Y-58235403D01*
X141539938Y-58235413D01*
X141601094Y-58463655D01*
X141601096Y-58463659D01*
X141601097Y-58463663D01*
X141651031Y-58570746D01*
X141700964Y-58677828D01*
X141700965Y-58677830D01*
X141836505Y-58871402D01*
X142003597Y-59038494D01*
X142160595Y-59148425D01*
X142204220Y-59203002D01*
X142211414Y-59272500D01*
X142179891Y-59334855D01*
X142160595Y-59351575D01*
X142003597Y-59461505D01*
X141836506Y-59628597D01*
X141836501Y-59628604D01*
X141700967Y-59822165D01*
X141700965Y-59822169D01*
X141601098Y-60036335D01*
X141601094Y-60036344D01*
X141539938Y-60264586D01*
X141539936Y-60264596D01*
X141519341Y-60499999D01*
X141519341Y-60500000D01*
X141539936Y-60735403D01*
X141539938Y-60735413D01*
X141601094Y-60963655D01*
X141601096Y-60963659D01*
X141601097Y-60963663D01*
X141608383Y-60979287D01*
X141700964Y-61177828D01*
X141700965Y-61177830D01*
X141836505Y-61371402D01*
X141983704Y-61518601D01*
X142017189Y-61579924D01*
X142012205Y-61649616D01*
X141970333Y-61705549D01*
X141961120Y-61711820D01*
X141806347Y-61807285D01*
X141806343Y-61807288D01*
X141682289Y-61931342D01*
X141590187Y-62080663D01*
X141590186Y-62080666D01*
X141535001Y-62247203D01*
X141535001Y-62247204D01*
X141535000Y-62247204D01*
X141524500Y-62349983D01*
X141524500Y-63650001D01*
X141524501Y-63650018D01*
X141535000Y-63752796D01*
X141535001Y-63752799D01*
X141590185Y-63919331D01*
X141590186Y-63919334D01*
X141682288Y-64068656D01*
X141806344Y-64192712D01*
X141955666Y-64284814D01*
X142122203Y-64339999D01*
X142224991Y-64350500D01*
X143775008Y-64350499D01*
X143877797Y-64339999D01*
X144044334Y-64284814D01*
X144056199Y-64277495D01*
X144123588Y-64259051D01*
X144190253Y-64279969D01*
X144208982Y-64295349D01*
X145423528Y-65509895D01*
X145457013Y-65571218D01*
X145452029Y-65640910D01*
X145410157Y-65696843D01*
X145344693Y-65721260D01*
X145341112Y-65721464D01*
X145318348Y-65722431D01*
X145318344Y-65722431D01*
X145081218Y-65773536D01*
X145081217Y-65773536D01*
X144856143Y-65863978D01*
X144649584Y-65991161D01*
X144467492Y-66151422D01*
X144467488Y-66151426D01*
X144315109Y-66340144D01*
X144315105Y-66340150D01*
X144196805Y-66551917D01*
X144115996Y-66780629D01*
X144115994Y-66780637D01*
X144075000Y-67019706D01*
X144075000Y-67490000D01*
X144899272Y-67490000D01*
X144876900Y-67537543D01*
X144846127Y-67698862D01*
X144856439Y-67862766D01*
X144897780Y-67990000D01*
X144075000Y-67990000D01*
X144075000Y-68399539D01*
X144090417Y-68580692D01*
X144151541Y-68815440D01*
X144251453Y-69036472D01*
X144251458Y-69036480D01*
X144387291Y-69237450D01*
X144387293Y-69237453D01*
X144555135Y-69412575D01*
X144555136Y-69412576D01*
X144750156Y-69556813D01*
X144966757Y-69666021D01*
X145198701Y-69737053D01*
X145198699Y-69737053D01*
X145249999Y-69743622D01*
X145250000Y-69743622D01*
X145250000Y-68344310D01*
X145258817Y-68349158D01*
X145417886Y-68390000D01*
X145540894Y-68390000D01*
X145662933Y-68374583D01*
X145750000Y-68340110D01*
X145750000Y-69742837D01*
X145918781Y-69706463D01*
X145918782Y-69706463D01*
X146143856Y-69616021D01*
X146300486Y-69519581D01*
X146367893Y-69501194D01*
X146434540Y-69522169D01*
X146479267Y-69575846D01*
X146489500Y-69625171D01*
X146489500Y-78354496D01*
X146469815Y-78421535D01*
X146417011Y-78467290D01*
X146347853Y-78477234D01*
X146291766Y-78454192D01*
X146249842Y-78423186D01*
X146033242Y-78313978D01*
X145801304Y-78242947D01*
X145801297Y-78242946D01*
X145750000Y-78236376D01*
X145750000Y-79635689D01*
X145741183Y-79630842D01*
X145582114Y-79590000D01*
X145459106Y-79590000D01*
X145337067Y-79605417D01*
X145250000Y-79639889D01*
X145250000Y-78237161D01*
X145081217Y-78273536D01*
X145081214Y-78273537D01*
X144856143Y-78363978D01*
X144649584Y-78491161D01*
X144467492Y-78651422D01*
X144467488Y-78651426D01*
X144315109Y-78840144D01*
X144315105Y-78840150D01*
X144196805Y-79051917D01*
X144115996Y-79280629D01*
X144115994Y-79280637D01*
X144075000Y-79519706D01*
X144075000Y-79990000D01*
X144899272Y-79990000D01*
X144876900Y-80037543D01*
X144846127Y-80198862D01*
X144856439Y-80362766D01*
X144897780Y-80490000D01*
X144075000Y-80490000D01*
X144075000Y-80899539D01*
X144090417Y-81080692D01*
X144151541Y-81315440D01*
X144251453Y-81536472D01*
X144251458Y-81536480D01*
X144387291Y-81737450D01*
X144387293Y-81737453D01*
X144555135Y-81912575D01*
X144555136Y-81912576D01*
X144750156Y-82056813D01*
X144966757Y-82166021D01*
X145198701Y-82237053D01*
X145198699Y-82237053D01*
X145249999Y-82243622D01*
X145250000Y-82243622D01*
X145250000Y-80844310D01*
X145258817Y-80849158D01*
X145417886Y-80890000D01*
X145540894Y-80890000D01*
X145662933Y-80874583D01*
X145750000Y-80840110D01*
X145750000Y-82242837D01*
X145918781Y-82206463D01*
X145918782Y-82206463D01*
X146143856Y-82116021D01*
X146300486Y-82019581D01*
X146367893Y-82001194D01*
X146434540Y-82022169D01*
X146479267Y-82075846D01*
X146489500Y-82125171D01*
X146489500Y-83437529D01*
X146469815Y-83504568D01*
X146417011Y-83550323D01*
X146399613Y-83556744D01*
X146366956Y-83566088D01*
X146186587Y-83660305D01*
X146047963Y-83773338D01*
X145983567Y-83800447D01*
X145914737Y-83788437D01*
X145891242Y-83773338D01*
X145753129Y-83660721D01*
X145572861Y-83566557D01*
X145377328Y-83510609D01*
X145377325Y-83510608D01*
X145258002Y-83500000D01*
X144950000Y-83500000D01*
X144950000Y-88500000D01*
X145258002Y-88500000D01*
X145377325Y-88489391D01*
X145377328Y-88489390D01*
X145572861Y-88433442D01*
X145753130Y-88339278D01*
X145891241Y-88226662D01*
X145955637Y-88199552D01*
X146024467Y-88211561D01*
X146047964Y-88226661D01*
X146186593Y-88339698D01*
X146366951Y-88433909D01*
X146562582Y-88489886D01*
X146681963Y-88500500D01*
X146681964Y-88500499D01*
X146681965Y-88500500D01*
X146681966Y-88500500D01*
X147160280Y-88500499D01*
X147798036Y-88500499D01*
X147804520Y-88499922D01*
X147873037Y-88513592D01*
X147923289Y-88562136D01*
X147939500Y-88623435D01*
X147939500Y-99541563D01*
X147919815Y-99608602D01*
X147867011Y-99654357D01*
X147804528Y-99665077D01*
X147798039Y-99664500D01*
X147798034Y-99664500D01*
X147319720Y-99664500D01*
X146681964Y-99664501D01*
X146652727Y-99667100D01*
X146562584Y-99675113D01*
X146366954Y-99731089D01*
X146278856Y-99777108D01*
X146186593Y-99825302D01*
X146186591Y-99825303D01*
X146186590Y-99825304D01*
X146048361Y-99938015D01*
X145983964Y-99965124D01*
X145915135Y-99953115D01*
X145891639Y-99938015D01*
X145828385Y-99886438D01*
X145753407Y-99825302D01*
X145573049Y-99731091D01*
X145573048Y-99731090D01*
X145573045Y-99731089D01*
X145455829Y-99697550D01*
X145377418Y-99675114D01*
X145377415Y-99675113D01*
X145377413Y-99675113D01*
X145286983Y-99667073D01*
X145258037Y-99664500D01*
X145258035Y-99664500D01*
X145258034Y-99664500D01*
X144779720Y-99664500D01*
X144141964Y-99664501D01*
X144112727Y-99667100D01*
X144022584Y-99675113D01*
X143826954Y-99731089D01*
X143738856Y-99777108D01*
X143646593Y-99825302D01*
X143646591Y-99825303D01*
X143646590Y-99825304D01*
X143508361Y-99938015D01*
X143443964Y-99965124D01*
X143375135Y-99953115D01*
X143351639Y-99938015D01*
X143288385Y-99886438D01*
X143213407Y-99825302D01*
X143033049Y-99731091D01*
X143033048Y-99731090D01*
X143033045Y-99731089D01*
X142915829Y-99697550D01*
X142837418Y-99675114D01*
X142837415Y-99675113D01*
X142837413Y-99675113D01*
X142746983Y-99667073D01*
X142718037Y-99664500D01*
X142718035Y-99664500D01*
X142718034Y-99664500D01*
X142239720Y-99664500D01*
X141601964Y-99664501D01*
X141572727Y-99667100D01*
X141482584Y-99675113D01*
X141286954Y-99731089D01*
X141198856Y-99777108D01*
X141106593Y-99825302D01*
X141106591Y-99825303D01*
X141106590Y-99825304D01*
X140968361Y-99938015D01*
X140903964Y-99965124D01*
X140835135Y-99953115D01*
X140811639Y-99938015D01*
X140748385Y-99886438D01*
X140673407Y-99825302D01*
X140493049Y-99731091D01*
X140493048Y-99731090D01*
X140493045Y-99731089D01*
X140375829Y-99697550D01*
X140297418Y-99675114D01*
X140297415Y-99675113D01*
X140297413Y-99675113D01*
X140206983Y-99667073D01*
X140178037Y-99664500D01*
X140178035Y-99664500D01*
X140178034Y-99664500D01*
X139699720Y-99664500D01*
X139061964Y-99664501D01*
X139032727Y-99667100D01*
X138942584Y-99675113D01*
X138746954Y-99731089D01*
X138658856Y-99777108D01*
X138566593Y-99825302D01*
X138566591Y-99825303D01*
X138566590Y-99825304D01*
X138428361Y-99938015D01*
X138363964Y-99965124D01*
X138295135Y-99953115D01*
X138271639Y-99938015D01*
X138208385Y-99886438D01*
X138133407Y-99825302D01*
X137953049Y-99731091D01*
X137953042Y-99731089D01*
X137913992Y-99719915D01*
X137795386Y-99685978D01*
X137736351Y-99648612D01*
X137706887Y-99585258D01*
X137705500Y-99566763D01*
X137705500Y-98230452D01*
X137725185Y-98163413D01*
X137741819Y-98142771D01*
X139947771Y-95936819D01*
X140009094Y-95903334D01*
X140035452Y-95900500D01*
X140094644Y-95900500D01*
X140094646Y-95900500D01*
X140279803Y-95861144D01*
X140452730Y-95784151D01*
X140605871Y-95672888D01*
X140732533Y-95532216D01*
X140827179Y-95368284D01*
X140885674Y-95188256D01*
X140905460Y-95000000D01*
X140885674Y-94811744D01*
X140827179Y-94631716D01*
X140732533Y-94467784D01*
X140605871Y-94327112D01*
X140577522Y-94306515D01*
X140452734Y-94215851D01*
X140452729Y-94215848D01*
X140279807Y-94138857D01*
X140279802Y-94138855D01*
X140134001Y-94107865D01*
X140094646Y-94099500D01*
X139905354Y-94099500D01*
X139872897Y-94106398D01*
X139720197Y-94138855D01*
X139720192Y-94138857D01*
X139547270Y-94215848D01*
X139547265Y-94215851D01*
X139394129Y-94327111D01*
X139267466Y-94467785D01*
X139172821Y-94631715D01*
X139172818Y-94631722D01*
X139114327Y-94811740D01*
X139114326Y-94811744D01*
X139100255Y-94945627D01*
X139096679Y-94979649D01*
X139070094Y-95044263D01*
X139061039Y-95054368D01*
X136696208Y-97419199D01*
X136683951Y-97429020D01*
X136684134Y-97429241D01*
X136678123Y-97434213D01*
X136630772Y-97484636D01*
X136609889Y-97505519D01*
X136609877Y-97505532D01*
X136605621Y-97511017D01*
X136601837Y-97515447D01*
X136569937Y-97549418D01*
X136569936Y-97549420D01*
X136560284Y-97566976D01*
X136549610Y-97583226D01*
X136537329Y-97599061D01*
X136537324Y-97599068D01*
X136518815Y-97641838D01*
X136516245Y-97647084D01*
X136493803Y-97687906D01*
X136488822Y-97707307D01*
X136482521Y-97725710D01*
X136474562Y-97744102D01*
X136474561Y-97744105D01*
X136467271Y-97790127D01*
X136466087Y-97795846D01*
X136454501Y-97840972D01*
X136454500Y-97840982D01*
X136454500Y-97861016D01*
X136452973Y-97880415D01*
X136449840Y-97900194D01*
X136449840Y-97900195D01*
X136454225Y-97946583D01*
X136454500Y-97952421D01*
X136454500Y-99566763D01*
X136434815Y-99633802D01*
X136382011Y-99679557D01*
X136364617Y-99685977D01*
X136285572Y-99708594D01*
X136206953Y-99731090D01*
X136206951Y-99731090D01*
X136206951Y-99731091D01*
X136026593Y-99825302D01*
X136026591Y-99825303D01*
X136026590Y-99825304D01*
X135888361Y-99938015D01*
X135823964Y-99965124D01*
X135755135Y-99953115D01*
X135731639Y-99938015D01*
X135668385Y-99886438D01*
X135593407Y-99825302D01*
X135413049Y-99731091D01*
X135413048Y-99731090D01*
X135413045Y-99731089D01*
X135295829Y-99697550D01*
X135217418Y-99675114D01*
X135217415Y-99675113D01*
X135217413Y-99675113D01*
X135126983Y-99667073D01*
X135098037Y-99664500D01*
X135098035Y-99664500D01*
X135098034Y-99664500D01*
X134619720Y-99664500D01*
X133981964Y-99664501D01*
X133952727Y-99667100D01*
X133862584Y-99675113D01*
X133666954Y-99731089D01*
X133578856Y-99777108D01*
X133486593Y-99825302D01*
X133486591Y-99825303D01*
X133486590Y-99825304D01*
X133348361Y-99938015D01*
X133283964Y-99965124D01*
X133215135Y-99953115D01*
X133191639Y-99938015D01*
X133128385Y-99886438D01*
X133053407Y-99825302D01*
X132873049Y-99731091D01*
X132873048Y-99731090D01*
X132873045Y-99731089D01*
X132755829Y-99697550D01*
X132677418Y-99675114D01*
X132677415Y-99675113D01*
X132677413Y-99675113D01*
X132586983Y-99667073D01*
X132558037Y-99664500D01*
X132558035Y-99664500D01*
X132558034Y-99664500D01*
X132079720Y-99664500D01*
X131441964Y-99664501D01*
X131412727Y-99667100D01*
X131322584Y-99675113D01*
X131126954Y-99731089D01*
X131038856Y-99777108D01*
X130946593Y-99825302D01*
X130946591Y-99825302D01*
X130946586Y-99825306D01*
X130942731Y-99827847D01*
X130875922Y-99848299D01*
X130808661Y-99829384D01*
X130762304Y-99777108D01*
X130750500Y-99724307D01*
X130750500Y-88440692D01*
X130770185Y-88373653D01*
X130822989Y-88327898D01*
X130892147Y-88317954D01*
X130942739Y-88337157D01*
X130946584Y-88339691D01*
X130946593Y-88339698D01*
X131126951Y-88433909D01*
X131322582Y-88489886D01*
X131441963Y-88500500D01*
X131441964Y-88500499D01*
X131441965Y-88500500D01*
X131441966Y-88500500D01*
X131920280Y-88500499D01*
X132558036Y-88500499D01*
X132677418Y-88489886D01*
X132873049Y-88433909D01*
X133053407Y-88339698D01*
X133191640Y-88226983D01*
X133256035Y-88199875D01*
X133324865Y-88211884D01*
X133348357Y-88226981D01*
X133486593Y-88339698D01*
X133666951Y-88433909D01*
X133824614Y-88479022D01*
X133883649Y-88516387D01*
X133913113Y-88579740D01*
X133914500Y-88598236D01*
X133914500Y-91149547D01*
X133894815Y-91216586D01*
X133878181Y-91237228D01*
X132052228Y-93063181D01*
X131990905Y-93096666D01*
X131964547Y-93099500D01*
X131905354Y-93099500D01*
X131872897Y-93106398D01*
X131720197Y-93138855D01*
X131720192Y-93138857D01*
X131547270Y-93215848D01*
X131547265Y-93215851D01*
X131394129Y-93327111D01*
X131267466Y-93467785D01*
X131172821Y-93631715D01*
X131172818Y-93631722D01*
X131114327Y-93811740D01*
X131114326Y-93811744D01*
X131094540Y-94000000D01*
X131114326Y-94188256D01*
X131114327Y-94188259D01*
X131172818Y-94368277D01*
X131172821Y-94368284D01*
X131267467Y-94532216D01*
X131357063Y-94631722D01*
X131394129Y-94672888D01*
X131547265Y-94784148D01*
X131547270Y-94784151D01*
X131720192Y-94861142D01*
X131720197Y-94861144D01*
X131905354Y-94900500D01*
X131905355Y-94900500D01*
X131972432Y-94900500D01*
X132039471Y-94920185D01*
X132085226Y-94972989D01*
X132095752Y-95011535D01*
X132114326Y-95188256D01*
X132114327Y-95188259D01*
X132172818Y-95368277D01*
X132172821Y-95368284D01*
X132267467Y-95532216D01*
X132355068Y-95629506D01*
X132394129Y-95672888D01*
X132547265Y-95784148D01*
X132547270Y-95784151D01*
X132720192Y-95861142D01*
X132720197Y-95861144D01*
X132905354Y-95900500D01*
X132905355Y-95900500D01*
X133094644Y-95900500D01*
X133094646Y-95900500D01*
X133279803Y-95861144D01*
X133452730Y-95784151D01*
X133605871Y-95672888D01*
X133732533Y-95532216D01*
X133827179Y-95368284D01*
X133882069Y-95199351D01*
X133921506Y-95141675D01*
X133985865Y-95114477D01*
X134054711Y-95126392D01*
X134106187Y-95173636D01*
X134117931Y-95199351D01*
X134172818Y-95368277D01*
X134172821Y-95368284D01*
X134267467Y-95532216D01*
X134355068Y-95629506D01*
X134394129Y-95672888D01*
X134547265Y-95784148D01*
X134547270Y-95784151D01*
X134720192Y-95861142D01*
X134720197Y-95861144D01*
X134905354Y-95900500D01*
X134905355Y-95900500D01*
X135094644Y-95900500D01*
X135094646Y-95900500D01*
X135279803Y-95861144D01*
X135452730Y-95784151D01*
X135605871Y-95672888D01*
X135732533Y-95532216D01*
X135827179Y-95368284D01*
X135885674Y-95188256D01*
X135903321Y-95020345D01*
X135929905Y-94955732D01*
X135938952Y-94945636D01*
X140003786Y-90880802D01*
X140016048Y-90870980D01*
X140015865Y-90870759D01*
X140021867Y-90865792D01*
X140021877Y-90865786D01*
X140069241Y-90815348D01*
X140090120Y-90794470D01*
X140094373Y-90788986D01*
X140098150Y-90784563D01*
X140130062Y-90750582D01*
X140139714Y-90733023D01*
X140150389Y-90716772D01*
X140162674Y-90700936D01*
X140181186Y-90658152D01*
X140183742Y-90652935D01*
X140206197Y-90612092D01*
X140211180Y-90592680D01*
X140217477Y-90574291D01*
X140225438Y-90555895D01*
X140232729Y-90509853D01*
X140233908Y-90504162D01*
X140245500Y-90459019D01*
X140245500Y-90438983D01*
X140247027Y-90419582D01*
X140250160Y-90399804D01*
X140245775Y-90353415D01*
X140245500Y-90347577D01*
X140245500Y-88598236D01*
X140265185Y-88531197D01*
X140317989Y-88485442D01*
X140335375Y-88479025D01*
X140493049Y-88433909D01*
X140673407Y-88339698D01*
X140811640Y-88226983D01*
X140876035Y-88199875D01*
X140944865Y-88211884D01*
X140968357Y-88226981D01*
X141106593Y-88339698D01*
X141286951Y-88433909D01*
X141482582Y-88489886D01*
X141601963Y-88500500D01*
X141601964Y-88500499D01*
X141601965Y-88500500D01*
X141601966Y-88500500D01*
X142080280Y-88500499D01*
X142718036Y-88500499D01*
X142837418Y-88489886D01*
X143033049Y-88433909D01*
X143213407Y-88339698D01*
X143352037Y-88226660D01*
X143416431Y-88199552D01*
X143485261Y-88211561D01*
X143508757Y-88226661D01*
X143646870Y-88339278D01*
X143827138Y-88433442D01*
X144022671Y-88489390D01*
X144022674Y-88489391D01*
X144141998Y-88500000D01*
X144450000Y-88500000D01*
X144450000Y-83500000D01*
X144141998Y-83500000D01*
X144022674Y-83510608D01*
X144022671Y-83510609D01*
X143827138Y-83566557D01*
X143646870Y-83660721D01*
X143508757Y-83773338D01*
X143444361Y-83800447D01*
X143375531Y-83788438D01*
X143352035Y-83773338D01*
X143227963Y-83672171D01*
X143213407Y-83660302D01*
X143033049Y-83566091D01*
X143033048Y-83566090D01*
X143033043Y-83566088D01*
X143000387Y-83556744D01*
X142941349Y-83519376D01*
X142911887Y-83456022D01*
X142910500Y-83437529D01*
X142910500Y-76818705D01*
X142911809Y-76800736D01*
X142912451Y-76796351D01*
X142915289Y-76776977D01*
X142910735Y-76724931D01*
X142910500Y-76719528D01*
X142910500Y-76711297D01*
X142910500Y-76711291D01*
X142906693Y-76678724D01*
X142902421Y-76629894D01*
X142899999Y-76602201D01*
X142898539Y-76595129D01*
X142898597Y-76595116D01*
X142896965Y-76587757D01*
X142896906Y-76587772D01*
X142895242Y-76580753D01*
X142895241Y-76580745D01*
X142868974Y-76508576D01*
X142844814Y-76435666D01*
X142844809Y-76435659D01*
X142841760Y-76429118D01*
X142841815Y-76429091D01*
X142838533Y-76422313D01*
X142838480Y-76422340D01*
X142835235Y-76415880D01*
X142793028Y-76351708D01*
X142752710Y-76286342D01*
X142748234Y-76280682D01*
X142748281Y-76280644D01*
X142743519Y-76274799D01*
X142743474Y-76274838D01*
X142738834Y-76269308D01*
X142735692Y-76266344D01*
X142728528Y-76259584D01*
X142682964Y-76216596D01*
X136786819Y-70320451D01*
X136753334Y-70259128D01*
X136750500Y-70232770D01*
X136750500Y-68399559D01*
X139074500Y-68399559D01*
X139089923Y-68580775D01*
X139089924Y-68580777D01*
X139151068Y-68815608D01*
X139151069Y-68815611D01*
X139251013Y-69036713D01*
X139251020Y-69036725D01*
X139386900Y-69237765D01*
X139386902Y-69237767D01*
X139554803Y-69412952D01*
X139554804Y-69412953D01*
X139749893Y-69557241D01*
X139749895Y-69557242D01*
X139749898Y-69557244D01*
X139966571Y-69666488D01*
X140198591Y-69737543D01*
X140439281Y-69768365D01*
X140681719Y-69758066D01*
X140918928Y-69706944D01*
X141144086Y-69616468D01*
X141350714Y-69489242D01*
X141532869Y-69328925D01*
X141685311Y-69140130D01*
X141803653Y-68928288D01*
X141884491Y-68699493D01*
X141904847Y-68580775D01*
X141925499Y-68460337D01*
X141925500Y-68460326D01*
X141925500Y-67080441D01*
X141910076Y-66899224D01*
X141910075Y-66899222D01*
X141910075Y-66899218D01*
X141848931Y-66664392D01*
X141848931Y-66664391D01*
X141848930Y-66664388D01*
X141748986Y-66443286D01*
X141748979Y-66443274D01*
X141675525Y-66334596D01*
X141613100Y-66242235D01*
X141445197Y-66067048D01*
X141445196Y-66067047D01*
X141445195Y-66067046D01*
X141250106Y-65922758D01*
X141165090Y-65879894D01*
X141033429Y-65813512D01*
X140801409Y-65742457D01*
X140801407Y-65742456D01*
X140801405Y-65742456D01*
X140560713Y-65711634D01*
X140318284Y-65721933D01*
X140318280Y-65721933D01*
X140081070Y-65773056D01*
X140081067Y-65773057D01*
X139855917Y-65863530D01*
X139649286Y-65990757D01*
X139467130Y-66151075D01*
X139467126Y-66151079D01*
X139314688Y-66339870D01*
X139196347Y-66551709D01*
X139115511Y-66780499D01*
X139115507Y-66780513D01*
X139074500Y-67019662D01*
X139074500Y-68399559D01*
X136750500Y-68399559D01*
X136750500Y-64876160D01*
X136770185Y-64809121D01*
X136822989Y-64763366D01*
X136892147Y-64753422D01*
X136955703Y-64782447D01*
X136976073Y-64805035D01*
X136996319Y-64833950D01*
X136999955Y-64839142D01*
X137160858Y-65000045D01*
X137160861Y-65000047D01*
X137347266Y-65130568D01*
X137553504Y-65226739D01*
X137553509Y-65226740D01*
X137553511Y-65226741D01*
X137606415Y-65240916D01*
X137773308Y-65285635D01*
X137935230Y-65299801D01*
X137999998Y-65305468D01*
X138000000Y-65305468D01*
X138000002Y-65305468D01*
X138056673Y-65300509D01*
X138226692Y-65285635D01*
X138446496Y-65226739D01*
X138652734Y-65130568D01*
X138839139Y-65000047D01*
X139000047Y-64839139D01*
X139130568Y-64652734D01*
X139226739Y-64446496D01*
X139285635Y-64226692D01*
X139305468Y-64000000D01*
X139302611Y-63967350D01*
X139298410Y-63919331D01*
X139285635Y-63773308D01*
X139226739Y-63553504D01*
X139130568Y-63347266D01*
X139000047Y-63160861D01*
X139000045Y-63160858D01*
X138839141Y-62999954D01*
X138652734Y-62869432D01*
X138652732Y-62869431D01*
X138446497Y-62773261D01*
X138446488Y-62773258D01*
X138226697Y-62714366D01*
X138226693Y-62714365D01*
X138226692Y-62714365D01*
X138226691Y-62714364D01*
X138226686Y-62714364D01*
X138000002Y-62694532D01*
X137999998Y-62694532D01*
X137773313Y-62714364D01*
X137773302Y-62714366D01*
X137553511Y-62773258D01*
X137553502Y-62773261D01*
X137347267Y-62869431D01*
X137347265Y-62869432D01*
X137160858Y-62999954D01*
X136999954Y-63160858D01*
X136976075Y-63194962D01*
X136921498Y-63238587D01*
X136852000Y-63245781D01*
X136789645Y-63214258D01*
X136754231Y-63154029D01*
X136750500Y-63123839D01*
X136750500Y-56202229D01*
X136770185Y-56135190D01*
X136786819Y-56114548D01*
X137223802Y-55677565D01*
X137734652Y-55166714D01*
X137795973Y-55133231D01*
X137833135Y-55130869D01*
X137976366Y-55143400D01*
X137999999Y-55145468D01*
X138000000Y-55145468D01*
X138000002Y-55145468D01*
X138056673Y-55140509D01*
X138226692Y-55125635D01*
X138446496Y-55066739D01*
X138652734Y-54970568D01*
X138839139Y-54840047D01*
X139000047Y-54679139D01*
X139130568Y-54492734D01*
X139226739Y-54286496D01*
X139285635Y-54066692D01*
X139305468Y-53840000D01*
X139285635Y-53613308D01*
X139226739Y-53393504D01*
X139130568Y-53187266D01*
X139000047Y-53000861D01*
X139000045Y-53000858D01*
X138839141Y-52839954D01*
X138652734Y-52709432D01*
X138652732Y-52709431D01*
X138446497Y-52613261D01*
X138446488Y-52613258D01*
X138226697Y-52554366D01*
X138226693Y-52554365D01*
X138226692Y-52554365D01*
X138226691Y-52554364D01*
X138226686Y-52554364D01*
X138000002Y-52534532D01*
X137999998Y-52534532D01*
X137773313Y-52554364D01*
X137773302Y-52554366D01*
X137553511Y-52613258D01*
X137553502Y-52613261D01*
X137347267Y-52709431D01*
X137347265Y-52709432D01*
X137160858Y-52839954D01*
X136999954Y-53000858D01*
X136869432Y-53187265D01*
X136869431Y-53187267D01*
X136773261Y-53393502D01*
X136773258Y-53393511D01*
X136714366Y-53613302D01*
X136714364Y-53613313D01*
X136694532Y-53839998D01*
X136694532Y-53840003D01*
X136709129Y-54006861D01*
X136695362Y-54075360D01*
X136673282Y-54105348D01*
X135514358Y-55264272D01*
X135500729Y-55276051D01*
X135481468Y-55290390D01*
X135447898Y-55330397D01*
X135444253Y-55334376D01*
X135438409Y-55340222D01*
X135418059Y-55365959D01*
X135368695Y-55424789D01*
X135364729Y-55430819D01*
X135364682Y-55430788D01*
X135360630Y-55437147D01*
X135360679Y-55437177D01*
X135356889Y-55443321D01*
X135324424Y-55512941D01*
X135289960Y-55581566D01*
X135287488Y-55588357D01*
X135287432Y-55588336D01*
X135284960Y-55595450D01*
X135285015Y-55595469D01*
X135282742Y-55602327D01*
X135274975Y-55639946D01*
X135267207Y-55677565D01*
X135262044Y-55699351D01*
X135249498Y-55752286D01*
X135248661Y-55759454D01*
X135248601Y-55759447D01*
X135247835Y-55766945D01*
X135247895Y-55766951D01*
X135247265Y-55774140D01*
X135249500Y-55850916D01*
X135249500Y-60979287D01*
X135229815Y-61046326D01*
X135177011Y-61092081D01*
X135107853Y-61102025D01*
X135099724Y-61100578D01*
X135094651Y-61099500D01*
X135094646Y-61099500D01*
X134905354Y-61099500D01*
X134893475Y-61102025D01*
X134720197Y-61138855D01*
X134720192Y-61138857D01*
X134547270Y-61215848D01*
X134547265Y-61215851D01*
X134394129Y-61327111D01*
X134267466Y-61467785D01*
X134172821Y-61631715D01*
X134172818Y-61631722D01*
X134114327Y-61811740D01*
X134114326Y-61811744D01*
X134101756Y-61931342D01*
X134096679Y-61979649D01*
X134070094Y-62044263D01*
X134061039Y-62054368D01*
X132784055Y-63331352D01*
X132722732Y-63364837D01*
X132653040Y-63359853D01*
X132604225Y-63326644D01*
X132593572Y-63314813D01*
X132593565Y-63314807D01*
X132440435Y-63203552D01*
X132440430Y-63203549D01*
X132267508Y-63126558D01*
X132267503Y-63126556D01*
X132121702Y-63095566D01*
X132082347Y-63087201D01*
X131893055Y-63087201D01*
X131860598Y-63094099D01*
X131707898Y-63126556D01*
X131707893Y-63126558D01*
X131534971Y-63203549D01*
X131534966Y-63203552D01*
X131381830Y-63314812D01*
X131255167Y-63455486D01*
X131160522Y-63619416D01*
X131160519Y-63619423D01*
X131103574Y-63794684D01*
X131102027Y-63799445D01*
X131089426Y-63919336D01*
X131084380Y-63967350D01*
X131057795Y-64031964D01*
X131048740Y-64042069D01*
X130212181Y-64878629D01*
X130150858Y-64912114D01*
X130081167Y-64907130D01*
X130025233Y-64865258D01*
X130000816Y-64799794D01*
X130000500Y-64790948D01*
X130000500Y-52424759D01*
X130000528Y-52424616D01*
X130000524Y-52424616D01*
X130000539Y-52400002D01*
X130000541Y-52400000D01*
X130000462Y-52399808D01*
X130000384Y-52399618D01*
X130000382Y-52399616D01*
X130000099Y-52399500D01*
X130000000Y-52399459D01*
X129975446Y-52399459D01*
X129975240Y-52399500D01*
X60024760Y-52399500D01*
X60024554Y-52399459D01*
X60000000Y-52399459D01*
X59999901Y-52399500D01*
X59999617Y-52399616D01*
X59999615Y-52399618D01*
X59999459Y-52399999D01*
X59999476Y-52424616D01*
X59999471Y-52424616D01*
X59999500Y-52424759D01*
X59999500Y-98495467D01*
X59999416Y-98495889D01*
X59999459Y-98520001D01*
X59999500Y-98520099D01*
X59999616Y-98520382D01*
X59999618Y-98520384D01*
X59999808Y-98520462D01*
X60000000Y-98520541D01*
X60000002Y-98520539D01*
X60024616Y-98520524D01*
X60024616Y-98520528D01*
X60024760Y-98520500D01*
X129375500Y-98520500D01*
X129442539Y-98540185D01*
X129488294Y-98592989D01*
X129499500Y-98644500D01*
X129499500Y-100207255D01*
X129497775Y-100222872D01*
X129498061Y-100222899D01*
X129497326Y-100230665D01*
X129499500Y-100299814D01*
X129499500Y-100329343D01*
X129499501Y-100329360D01*
X129500368Y-100336231D01*
X129500826Y-100342050D01*
X129502290Y-100388624D01*
X129502291Y-100388627D01*
X129507880Y-100407867D01*
X129511824Y-100426911D01*
X129514336Y-100446791D01*
X129531490Y-100490119D01*
X129533382Y-100495647D01*
X129546382Y-100540390D01*
X129548821Y-100544515D01*
X129556580Y-100557634D01*
X129565138Y-100575103D01*
X129572514Y-100593732D01*
X129599898Y-100631423D01*
X129603106Y-100636307D01*
X129626827Y-100676416D01*
X129626833Y-100676424D01*
X129640990Y-100690580D01*
X129653628Y-100705376D01*
X129665405Y-100721586D01*
X129665406Y-100721587D01*
X129701309Y-100751288D01*
X129705620Y-100755210D01*
X130463181Y-101512771D01*
X130496666Y-101574094D01*
X130499500Y-101600452D01*
X130499501Y-103723032D01*
X130499501Y-103723033D01*
X130510113Y-103842415D01*
X130566090Y-104038047D01*
X130647077Y-104193089D01*
X130660668Y-104261624D01*
X130635049Y-104326627D01*
X130578353Y-104367461D01*
X130537168Y-104374500D01*
X70703748Y-104374500D01*
X70636709Y-104354815D01*
X70611600Y-104333474D01*
X70605873Y-104327114D01*
X70605869Y-104327110D01*
X70452734Y-104215851D01*
X70452729Y-104215848D01*
X70279807Y-104138857D01*
X70279802Y-104138855D01*
X70134001Y-104107865D01*
X70094646Y-104099500D01*
X69905354Y-104099500D01*
X69872897Y-104106398D01*
X69720197Y-104138855D01*
X69720192Y-104138857D01*
X69547270Y-104215848D01*
X69547265Y-104215851D01*
X69394129Y-104327111D01*
X69267466Y-104467785D01*
X69172821Y-104631715D01*
X69172818Y-104631722D01*
X69114327Y-104811740D01*
X69114326Y-104811744D01*
X69098970Y-104957853D01*
X69095753Y-104988462D01*
X69069168Y-105053076D01*
X69011871Y-105093061D01*
X68972432Y-105099500D01*
X63525452Y-105099500D01*
X63458413Y-105079815D01*
X63437771Y-105063181D01*
X55381607Y-97007017D01*
X55348122Y-96945694D01*
X55353106Y-96876002D01*
X55394978Y-96820069D01*
X55418848Y-96806059D01*
X55440431Y-96796450D01*
X55593572Y-96685187D01*
X55720234Y-96544515D01*
X55814880Y-96380583D01*
X55873375Y-96200555D01*
X55893161Y-96012299D01*
X55873375Y-95824043D01*
X55814880Y-95644015D01*
X55720234Y-95480083D01*
X55720233Y-95480082D01*
X55645051Y-95396583D01*
X55614821Y-95333591D01*
X55613201Y-95313611D01*
X55613201Y-92500438D01*
X55614925Y-92484824D01*
X55614639Y-92484797D01*
X55615373Y-92477034D01*
X55613201Y-92407904D01*
X55613201Y-92378352D01*
X55613201Y-92378351D01*
X55612330Y-92371460D01*
X55611873Y-92365646D01*
X55611831Y-92364323D01*
X55610410Y-92319074D01*
X55604823Y-92299845D01*
X55600875Y-92280785D01*
X55598365Y-92260909D01*
X55581208Y-92217576D01*
X55579320Y-92212060D01*
X55566320Y-92167313D01*
X55556119Y-92150064D01*
X55547561Y-92132595D01*
X55540187Y-92113969D01*
X55540184Y-92113965D01*
X55540184Y-92113964D01*
X55512799Y-92076272D01*
X55509591Y-92071388D01*
X55485873Y-92031283D01*
X55485864Y-92031272D01*
X55471706Y-92017114D01*
X55459071Y-92002321D01*
X55447294Y-91986113D01*
X55411394Y-91956414D01*
X55407082Y-91952491D01*
X53340237Y-89885646D01*
X53306752Y-89824323D01*
X53308142Y-89765876D01*
X53335063Y-89665408D01*
X53355659Y-89430000D01*
X53335063Y-89194592D01*
X53308143Y-89094125D01*
X53309806Y-89024276D01*
X53340235Y-88974353D01*
X55108787Y-87205801D01*
X55121042Y-87195986D01*
X55120859Y-87195764D01*
X55126866Y-87190792D01*
X55126877Y-87190786D01*
X55157775Y-87157882D01*
X55174227Y-87140364D01*
X55184671Y-87129918D01*
X55195120Y-87119471D01*
X55199379Y-87113978D01*
X55203152Y-87109561D01*
X55235062Y-87075582D01*
X55244715Y-87058020D01*
X55255389Y-87041770D01*
X55267673Y-87025936D01*
X55286180Y-86983167D01*
X55288749Y-86977924D01*
X55311196Y-86937093D01*
X55311197Y-86937092D01*
X55316177Y-86917691D01*
X55322478Y-86899288D01*
X55330438Y-86880896D01*
X55337730Y-86834849D01*
X55338911Y-86829152D01*
X55350500Y-86784019D01*
X55350500Y-86763983D01*
X55352027Y-86744582D01*
X55355160Y-86724804D01*
X55350775Y-86678415D01*
X55350500Y-86672577D01*
X55350500Y-76997742D01*
X55352224Y-76982122D01*
X55351939Y-76982096D01*
X55352671Y-76974340D01*
X55352673Y-76974333D01*
X55350500Y-76905185D01*
X55350500Y-76875650D01*
X55349631Y-76868772D01*
X55349172Y-76862943D01*
X55347709Y-76816372D01*
X55342122Y-76797144D01*
X55338174Y-76778084D01*
X55335663Y-76758204D01*
X55318512Y-76714887D01*
X55316619Y-76709358D01*
X55303618Y-76664609D01*
X55303616Y-76664606D01*
X55293423Y-76647371D01*
X55284861Y-76629894D01*
X55277487Y-76611270D01*
X55277486Y-76611268D01*
X55250079Y-76573545D01*
X55246888Y-76568686D01*
X55223172Y-76528583D01*
X55223165Y-76528574D01*
X55209006Y-76514415D01*
X55196368Y-76499619D01*
X55192716Y-76494592D01*
X55184594Y-76483413D01*
X55148688Y-76453709D01*
X55144376Y-76449786D01*
X53340237Y-74645647D01*
X53306752Y-74584324D01*
X53308143Y-74525872D01*
X53335063Y-74425408D01*
X53355659Y-74190000D01*
X53335063Y-73954592D01*
X53273903Y-73726337D01*
X53174035Y-73512171D01*
X53162436Y-73495605D01*
X53038494Y-73318597D01*
X52871402Y-73151506D01*
X52871396Y-73151501D01*
X52685842Y-73021575D01*
X52642217Y-72966998D01*
X52635023Y-72897500D01*
X52666546Y-72835145D01*
X52685842Y-72818425D01*
X52708026Y-72802891D01*
X52871401Y-72688495D01*
X53038495Y-72521401D01*
X53174035Y-72327830D01*
X53273903Y-72113663D01*
X53335063Y-71885408D01*
X53355659Y-71650000D01*
X53335063Y-71414592D01*
X53273903Y-71186337D01*
X53174035Y-70972171D01*
X53147390Y-70934117D01*
X53038494Y-70778597D01*
X52871402Y-70611506D01*
X52871396Y-70611501D01*
X52685842Y-70481575D01*
X52642217Y-70426998D01*
X52635023Y-70357500D01*
X52666546Y-70295145D01*
X52685842Y-70278425D01*
X52713401Y-70259128D01*
X52871401Y-70148495D01*
X53038495Y-69981401D01*
X53174035Y-69787830D01*
X53273903Y-69573663D01*
X53335063Y-69345408D01*
X53355659Y-69110000D01*
X53335063Y-68874592D01*
X53273903Y-68646337D01*
X53174035Y-68432171D01*
X53151197Y-68399554D01*
X53038494Y-68238597D01*
X52871402Y-68071506D01*
X52871396Y-68071501D01*
X52685842Y-67941575D01*
X52642217Y-67886998D01*
X52635023Y-67817500D01*
X52666546Y-67755145D01*
X52685842Y-67738425D01*
X52858920Y-67617234D01*
X52871401Y-67608495D01*
X53038495Y-67441401D01*
X53174035Y-67247830D01*
X53273903Y-67033663D01*
X53335063Y-66805408D01*
X53355659Y-66570000D01*
X53335063Y-66334592D01*
X53273903Y-66106337D01*
X53174035Y-65892171D01*
X53154295Y-65863978D01*
X53038494Y-65698597D01*
X52871402Y-65531506D01*
X52871401Y-65531505D01*
X52685405Y-65401269D01*
X52641781Y-65346692D01*
X52634588Y-65277193D01*
X52666110Y-65214839D01*
X52685405Y-65198119D01*
X52761373Y-65144925D01*
X52132533Y-64516086D01*
X52142315Y-64514680D01*
X52273100Y-64454952D01*
X52381761Y-64360798D01*
X52459493Y-64239844D01*
X52483076Y-64159524D01*
X53114925Y-64791373D01*
X53114926Y-64791373D01*
X53173598Y-64707582D01*
X53173600Y-64707578D01*
X53273429Y-64493492D01*
X53273433Y-64493483D01*
X53334567Y-64265326D01*
X53334569Y-64265315D01*
X53355157Y-64030001D01*
X53355157Y-64029998D01*
X53334569Y-63794684D01*
X53334567Y-63794673D01*
X53273433Y-63566516D01*
X53273429Y-63566507D01*
X53173600Y-63352423D01*
X53173599Y-63352421D01*
X53114925Y-63268626D01*
X53114925Y-63268625D01*
X52483076Y-63900475D01*
X52459493Y-63820156D01*
X52381761Y-63699202D01*
X52273100Y-63605048D01*
X52142315Y-63545320D01*
X52132533Y-63543913D01*
X52761373Y-62915073D01*
X52761373Y-62915072D01*
X52685405Y-62861880D01*
X52641780Y-62807304D01*
X52634586Y-62737805D01*
X52666108Y-62675451D01*
X52685399Y-62658734D01*
X52871401Y-62528495D01*
X53038495Y-62361401D01*
X53174035Y-62167830D01*
X53273903Y-61953663D01*
X53335063Y-61725408D01*
X53355659Y-61490000D01*
X53335063Y-61254592D01*
X53273903Y-61026337D01*
X53174035Y-60812171D01*
X53120286Y-60735408D01*
X53038494Y-60618597D01*
X52871402Y-60451506D01*
X52871395Y-60451501D01*
X52677834Y-60315967D01*
X52677830Y-60315965D01*
X52567669Y-60264596D01*
X52463663Y-60216097D01*
X52463659Y-60216096D01*
X52463655Y-60216094D01*
X52235413Y-60154938D01*
X52235403Y-60154936D01*
X52000001Y-60134341D01*
X51999999Y-60134341D01*
X51764596Y-60154936D01*
X51764586Y-60154938D01*
X51536344Y-60216094D01*
X51536335Y-60216098D01*
X51322171Y-60315964D01*
X51322169Y-60315965D01*
X51128597Y-60451505D01*
X50961505Y-60618597D01*
X50825965Y-60812169D01*
X50825964Y-60812171D01*
X50726098Y-61026335D01*
X50726094Y-61026344D01*
X50664938Y-61254586D01*
X50664936Y-61254596D01*
X50644341Y-61489999D01*
X50644341Y-61490000D01*
X50664936Y-61725403D01*
X50664938Y-61725413D01*
X50726094Y-61953655D01*
X50726096Y-61953659D01*
X50726097Y-61953663D01*
X50768345Y-62044263D01*
X50825965Y-62167830D01*
X50825967Y-62167834D01*
X50881543Y-62247204D01*
X50961505Y-62361401D01*
X51128599Y-62528495D01*
X51314594Y-62658730D01*
X51358218Y-62713307D01*
X51365411Y-62782806D01*
X51333889Y-62845160D01*
X51314593Y-62861880D01*
X51238626Y-62915072D01*
X51238625Y-62915072D01*
X51867466Y-63543913D01*
X51857685Y-63545320D01*
X51726900Y-63605048D01*
X51618239Y-63699202D01*
X51540507Y-63820156D01*
X51516923Y-63900476D01*
X50885072Y-63268625D01*
X50826401Y-63352419D01*
X50726570Y-63566507D01*
X50726566Y-63566516D01*
X50665432Y-63794673D01*
X50665430Y-63794684D01*
X50644843Y-64029998D01*
X50644843Y-64030001D01*
X50665430Y-64265315D01*
X50665432Y-64265326D01*
X50726566Y-64493483D01*
X50726570Y-64493492D01*
X50826400Y-64707579D01*
X50826402Y-64707583D01*
X50885072Y-64791373D01*
X50885073Y-64791373D01*
X51516923Y-64159523D01*
X51540507Y-64239844D01*
X51618239Y-64360798D01*
X51726900Y-64454952D01*
X51857685Y-64514680D01*
X51867466Y-64516086D01*
X51238625Y-65144925D01*
X51314594Y-65198119D01*
X51358219Y-65252696D01*
X51365413Y-65322194D01*
X51333890Y-65384549D01*
X51314595Y-65401269D01*
X51128594Y-65531508D01*
X50961505Y-65698597D01*
X50825965Y-65892169D01*
X50825964Y-65892171D01*
X50726098Y-66106335D01*
X50726094Y-66106344D01*
X50664938Y-66334586D01*
X50664936Y-66334596D01*
X50644341Y-66569999D01*
X50644341Y-66570000D01*
X50664936Y-66805403D01*
X50664938Y-66805413D01*
X50726094Y-67033655D01*
X50726096Y-67033659D01*
X50726097Y-67033663D01*
X50787748Y-67165874D01*
X50825965Y-67247830D01*
X50825967Y-67247834D01*
X50961501Y-67441395D01*
X50961506Y-67441402D01*
X51128597Y-67608493D01*
X51128603Y-67608498D01*
X51314158Y-67738425D01*
X51357783Y-67793002D01*
X51364977Y-67862500D01*
X51333454Y-67924855D01*
X51314158Y-67941575D01*
X51128597Y-68071505D01*
X50961505Y-68238597D01*
X50825965Y-68432169D01*
X50825964Y-68432171D01*
X50726098Y-68646335D01*
X50726094Y-68646344D01*
X50664938Y-68874586D01*
X50664936Y-68874596D01*
X50644341Y-69109999D01*
X50644341Y-69110001D01*
X50662977Y-69323012D01*
X50649210Y-69391512D01*
X50627130Y-69421500D01*
X50214358Y-69834272D01*
X50200733Y-69846048D01*
X50198556Y-69847669D01*
X50133029Y-69871918D01*
X50064795Y-69856892D01*
X50015516Y-69807360D01*
X50000500Y-69748212D01*
X50000500Y-50124500D01*
X50020185Y-50057461D01*
X50072989Y-50011706D01*
X50124500Y-50000500D01*
X149875500Y-50000500D01*
X149942539Y-50020185D01*
G37*
%TD.AperFunction*%
%TD*%
M02*
