%TF.GenerationSoftware,KiCad,Pcbnew,7.0.9*%
%TF.CreationDate,2025-01-19T19:17:31+09:00*%
%TF.ProjectId,07-OpenMV,30372d4f-7065-46e4-9d56-2e6b69636164,rev?*%
%TF.SameCoordinates,Original*%
%TF.FileFunction,Legend,Top*%
%TF.FilePolarity,Positive*%
%FSLAX46Y46*%
G04 Gerber Fmt 4.6, Leading zero omitted, Abs format (unit mm)*
G04 Created by KiCad (PCBNEW 7.0.9) date 2025-01-19 19:17:31*
%MOMM*%
%LPD*%
G01*
G04 APERTURE LIST*
G04 Aperture macros list*
%AMRoundRect*
0 Rectangle with rounded corners*
0 $1 Rounding radius*
0 $2 $3 $4 $5 $6 $7 $8 $9 X,Y pos of 4 corners*
0 Add a 4 corners polygon primitive as box body*
4,1,4,$2,$3,$4,$5,$6,$7,$8,$9,$2,$3,0*
0 Add four circle primitives for the rounded corners*
1,1,$1+$1,$2,$3*
1,1,$1+$1,$4,$5*
1,1,$1+$1,$6,$7*
1,1,$1+$1,$8,$9*
0 Add four rect primitives between the rounded corners*
20,1,$1+$1,$2,$3,$4,$5,0*
20,1,$1+$1,$4,$5,$6,$7,0*
20,1,$1+$1,$6,$7,$8,$9,0*
20,1,$1+$1,$8,$9,$2,$3,0*%
G04 Aperture macros list end*
%ADD10C,0.150000*%
%ADD11C,0.120000*%
%ADD12O,1.700000X1.950000*%
%ADD13RoundRect,0.250000X-0.600000X-0.725000X0.600000X-0.725000X0.600000X0.725000X-0.600000X0.725000X0*%
%ADD14C,1.524000*%
%ADD15C,1.800000*%
%ADD16O,1.700000X1.700000*%
%ADD17R,1.700000X1.700000*%
%ADD18R,1.800000X1.800000*%
G04 APERTURE END LIST*
D10*
X106045048Y-98040866D02*
X106806953Y-98040866D01*
X106426000Y-98421819D02*
X106426000Y-97659914D01*
X106045048Y-92452866D02*
X106806953Y-92452866D01*
X106426000Y-92833819D02*
X106426000Y-92071914D01*
X111093047Y-81394180D02*
X111569237Y-81394180D01*
X111569237Y-81394180D02*
X111616856Y-80917990D01*
X111616856Y-80917990D02*
X111569237Y-80965609D01*
X111569237Y-80965609D02*
X111473999Y-81013228D01*
X111473999Y-81013228D02*
X111235904Y-81013228D01*
X111235904Y-81013228D02*
X111140666Y-80965609D01*
X111140666Y-80965609D02*
X111093047Y-80917990D01*
X111093047Y-80917990D02*
X111045428Y-80822752D01*
X111045428Y-80822752D02*
X111045428Y-80584657D01*
X111045428Y-80584657D02*
X111093047Y-80489419D01*
X111093047Y-80489419D02*
X111140666Y-80441800D01*
X111140666Y-80441800D02*
X111235904Y-80394180D01*
X111235904Y-80394180D02*
X111473999Y-80394180D01*
X111473999Y-80394180D02*
X111569237Y-80441800D01*
X111569237Y-80441800D02*
X111616856Y-80489419D01*
X110759713Y-81394180D02*
X110426380Y-80394180D01*
X110426380Y-80394180D02*
X110093047Y-81394180D01*
X109045427Y-80441800D02*
X108902570Y-80394180D01*
X108902570Y-80394180D02*
X108664475Y-80394180D01*
X108664475Y-80394180D02*
X108569237Y-80441800D01*
X108569237Y-80441800D02*
X108521618Y-80489419D01*
X108521618Y-80489419D02*
X108473999Y-80584657D01*
X108473999Y-80584657D02*
X108473999Y-80679895D01*
X108473999Y-80679895D02*
X108521618Y-80775133D01*
X108521618Y-80775133D02*
X108569237Y-80822752D01*
X108569237Y-80822752D02*
X108664475Y-80870371D01*
X108664475Y-80870371D02*
X108854951Y-80917990D01*
X108854951Y-80917990D02*
X108950189Y-80965609D01*
X108950189Y-80965609D02*
X108997808Y-81013228D01*
X108997808Y-81013228D02*
X109045427Y-81108466D01*
X109045427Y-81108466D02*
X109045427Y-81203704D01*
X109045427Y-81203704D02*
X108997808Y-81298942D01*
X108997808Y-81298942D02*
X108950189Y-81346561D01*
X108950189Y-81346561D02*
X108854951Y-81394180D01*
X108854951Y-81394180D02*
X108616856Y-81394180D01*
X108616856Y-81394180D02*
X108473999Y-81346561D01*
X108140665Y-81394180D02*
X107902570Y-80394180D01*
X107902570Y-80394180D02*
X107712094Y-81108466D01*
X107712094Y-81108466D02*
X107521618Y-80394180D01*
X107521618Y-80394180D02*
X107283523Y-81394180D01*
X125348666Y-81394180D02*
X124729619Y-81394180D01*
X124729619Y-81394180D02*
X125062952Y-81013228D01*
X125062952Y-81013228D02*
X124920095Y-81013228D01*
X124920095Y-81013228D02*
X124824857Y-80965609D01*
X124824857Y-80965609D02*
X124777238Y-80917990D01*
X124777238Y-80917990D02*
X124729619Y-80822752D01*
X124729619Y-80822752D02*
X124729619Y-80584657D01*
X124729619Y-80584657D02*
X124777238Y-80489419D01*
X124777238Y-80489419D02*
X124824857Y-80441800D01*
X124824857Y-80441800D02*
X124920095Y-80394180D01*
X124920095Y-80394180D02*
X125205809Y-80394180D01*
X125205809Y-80394180D02*
X125301047Y-80441800D01*
X125301047Y-80441800D02*
X125348666Y-80489419D01*
X124443904Y-81394180D02*
X124110571Y-80394180D01*
X124110571Y-80394180D02*
X123777238Y-81394180D01*
X123539142Y-81394180D02*
X122920095Y-81394180D01*
X122920095Y-81394180D02*
X123253428Y-81013228D01*
X123253428Y-81013228D02*
X123110571Y-81013228D01*
X123110571Y-81013228D02*
X123015333Y-80965609D01*
X123015333Y-80965609D02*
X122967714Y-80917990D01*
X122967714Y-80917990D02*
X122920095Y-80822752D01*
X122920095Y-80822752D02*
X122920095Y-80584657D01*
X122920095Y-80584657D02*
X122967714Y-80489419D01*
X122967714Y-80489419D02*
X123015333Y-80441800D01*
X123015333Y-80441800D02*
X123110571Y-80394180D01*
X123110571Y-80394180D02*
X123396285Y-80394180D01*
X123396285Y-80394180D02*
X123491523Y-80441800D01*
X123491523Y-80441800D02*
X123539142Y-80489419D01*
X121777237Y-80441800D02*
X121634380Y-80394180D01*
X121634380Y-80394180D02*
X121396285Y-80394180D01*
X121396285Y-80394180D02*
X121301047Y-80441800D01*
X121301047Y-80441800D02*
X121253428Y-80489419D01*
X121253428Y-80489419D02*
X121205809Y-80584657D01*
X121205809Y-80584657D02*
X121205809Y-80679895D01*
X121205809Y-80679895D02*
X121253428Y-80775133D01*
X121253428Y-80775133D02*
X121301047Y-80822752D01*
X121301047Y-80822752D02*
X121396285Y-80870371D01*
X121396285Y-80870371D02*
X121586761Y-80917990D01*
X121586761Y-80917990D02*
X121681999Y-80965609D01*
X121681999Y-80965609D02*
X121729618Y-81013228D01*
X121729618Y-81013228D02*
X121777237Y-81108466D01*
X121777237Y-81108466D02*
X121777237Y-81203704D01*
X121777237Y-81203704D02*
X121729618Y-81298942D01*
X121729618Y-81298942D02*
X121681999Y-81346561D01*
X121681999Y-81346561D02*
X121586761Y-81394180D01*
X121586761Y-81394180D02*
X121348666Y-81394180D01*
X121348666Y-81394180D02*
X121205809Y-81346561D01*
X120872475Y-81394180D02*
X120634380Y-80394180D01*
X120634380Y-80394180D02*
X120443904Y-81108466D01*
X120443904Y-81108466D02*
X120253428Y-80394180D01*
X120253428Y-80394180D02*
X120015333Y-81394180D01*
X116157524Y-81927819D02*
X116728952Y-81927819D01*
X116443238Y-82927819D02*
X116443238Y-81927819D01*
X117205143Y-82927819D02*
X117109905Y-82880200D01*
X117109905Y-82880200D02*
X117062286Y-82832580D01*
X117062286Y-82832580D02*
X117014667Y-82737342D01*
X117014667Y-82737342D02*
X117014667Y-82451628D01*
X117014667Y-82451628D02*
X117062286Y-82356390D01*
X117062286Y-82356390D02*
X117109905Y-82308771D01*
X117109905Y-82308771D02*
X117205143Y-82261152D01*
X117205143Y-82261152D02*
X117348000Y-82261152D01*
X117348000Y-82261152D02*
X117443238Y-82308771D01*
X117443238Y-82308771D02*
X117490857Y-82356390D01*
X117490857Y-82356390D02*
X117538476Y-82451628D01*
X117538476Y-82451628D02*
X117538476Y-82737342D01*
X117538476Y-82737342D02*
X117490857Y-82832580D01*
X117490857Y-82832580D02*
X117443238Y-82880200D01*
X117443238Y-82880200D02*
X117348000Y-82927819D01*
X117348000Y-82927819D02*
X117205143Y-82927819D01*
X117967048Y-82261152D02*
X117967048Y-83261152D01*
X117967048Y-82308771D02*
X118062286Y-82261152D01*
X118062286Y-82261152D02*
X118252762Y-82261152D01*
X118252762Y-82261152D02*
X118348000Y-82308771D01*
X118348000Y-82308771D02*
X118395619Y-82356390D01*
X118395619Y-82356390D02*
X118443238Y-82451628D01*
X118443238Y-82451628D02*
X118443238Y-82737342D01*
X118443238Y-82737342D02*
X118395619Y-82832580D01*
X118395619Y-82832580D02*
X118348000Y-82880200D01*
X118348000Y-82880200D02*
X118252762Y-82927819D01*
X118252762Y-82927819D02*
X118062286Y-82927819D01*
X118062286Y-82927819D02*
X117967048Y-82880200D01*
X116586000Y-81280000D02*
X115824000Y-80264000D01*
X115062000Y-81280000D02*
X116586000Y-81280000D01*
X115824000Y-80264000D02*
X115062000Y-81280000D01*
X115824000Y-84328000D02*
X115824000Y-80264000D01*
X117281438Y-91693904D02*
X117233819Y-91789142D01*
X117233819Y-91789142D02*
X117233819Y-91931999D01*
X117233819Y-91931999D02*
X117281438Y-92074856D01*
X117281438Y-92074856D02*
X117376676Y-92170094D01*
X117376676Y-92170094D02*
X117471914Y-92217713D01*
X117471914Y-92217713D02*
X117662390Y-92265332D01*
X117662390Y-92265332D02*
X117805247Y-92265332D01*
X117805247Y-92265332D02*
X117995723Y-92217713D01*
X117995723Y-92217713D02*
X118090961Y-92170094D01*
X118090961Y-92170094D02*
X118186200Y-92074856D01*
X118186200Y-92074856D02*
X118233819Y-91931999D01*
X118233819Y-91931999D02*
X118233819Y-91836761D01*
X118233819Y-91836761D02*
X118186200Y-91693904D01*
X118186200Y-91693904D02*
X118138580Y-91646285D01*
X118138580Y-91646285D02*
X117805247Y-91646285D01*
X117805247Y-91646285D02*
X117805247Y-91836761D01*
X118233819Y-91217713D02*
X117233819Y-91217713D01*
X117233819Y-91217713D02*
X118233819Y-90646285D01*
X118233819Y-90646285D02*
X117233819Y-90646285D01*
X118233819Y-90170094D02*
X117233819Y-90170094D01*
X117233819Y-90170094D02*
X117233819Y-89931999D01*
X117233819Y-89931999D02*
X117281438Y-89789142D01*
X117281438Y-89789142D02*
X117376676Y-89693904D01*
X117376676Y-89693904D02*
X117471914Y-89646285D01*
X117471914Y-89646285D02*
X117662390Y-89598666D01*
X117662390Y-89598666D02*
X117805247Y-89598666D01*
X117805247Y-89598666D02*
X117995723Y-89646285D01*
X117995723Y-89646285D02*
X118090961Y-89693904D01*
X118090961Y-89693904D02*
X118186200Y-89789142D01*
X118186200Y-89789142D02*
X118233819Y-89931999D01*
X118233819Y-89931999D02*
X118233819Y-90170094D01*
X112153819Y-92201904D02*
X112153819Y-91630476D01*
X113153819Y-91916190D02*
X112153819Y-91916190D01*
X112153819Y-91392380D02*
X113153819Y-90725714D01*
X112153819Y-90725714D02*
X113153819Y-91392380D01*
X115693819Y-91606666D02*
X115217628Y-91939999D01*
X115693819Y-92178094D02*
X114693819Y-92178094D01*
X114693819Y-92178094D02*
X114693819Y-91797142D01*
X114693819Y-91797142D02*
X114741438Y-91701904D01*
X114741438Y-91701904D02*
X114789057Y-91654285D01*
X114789057Y-91654285D02*
X114884295Y-91606666D01*
X114884295Y-91606666D02*
X115027152Y-91606666D01*
X115027152Y-91606666D02*
X115122390Y-91654285D01*
X115122390Y-91654285D02*
X115170009Y-91701904D01*
X115170009Y-91701904D02*
X115217628Y-91797142D01*
X115217628Y-91797142D02*
X115217628Y-92178094D01*
X114693819Y-91273332D02*
X115693819Y-90606666D01*
X114693819Y-90606666D02*
X115693819Y-91273332D01*
X109613819Y-91630476D02*
X109613819Y-92106666D01*
X109613819Y-92106666D02*
X110090009Y-92154285D01*
X110090009Y-92154285D02*
X110042390Y-92106666D01*
X110042390Y-92106666D02*
X109994771Y-92011428D01*
X109994771Y-92011428D02*
X109994771Y-91773333D01*
X109994771Y-91773333D02*
X110042390Y-91678095D01*
X110042390Y-91678095D02*
X110090009Y-91630476D01*
X110090009Y-91630476D02*
X110185247Y-91582857D01*
X110185247Y-91582857D02*
X110423342Y-91582857D01*
X110423342Y-91582857D02*
X110518580Y-91630476D01*
X110518580Y-91630476D02*
X110566200Y-91678095D01*
X110566200Y-91678095D02*
X110613819Y-91773333D01*
X110613819Y-91773333D02*
X110613819Y-92011428D01*
X110613819Y-92011428D02*
X110566200Y-92106666D01*
X110566200Y-92106666D02*
X110518580Y-92154285D01*
X109613819Y-91297142D02*
X110613819Y-90963809D01*
X110613819Y-90963809D02*
X109613819Y-90630476D01*
X129857523Y-84467819D02*
X129381333Y-84467819D01*
X129381333Y-84467819D02*
X129333714Y-84944009D01*
X129333714Y-84944009D02*
X129381333Y-84896390D01*
X129381333Y-84896390D02*
X129476571Y-84848771D01*
X129476571Y-84848771D02*
X129714666Y-84848771D01*
X129714666Y-84848771D02*
X129809904Y-84896390D01*
X129809904Y-84896390D02*
X129857523Y-84944009D01*
X129857523Y-84944009D02*
X129905142Y-85039247D01*
X129905142Y-85039247D02*
X129905142Y-85277342D01*
X129905142Y-85277342D02*
X129857523Y-85372580D01*
X129857523Y-85372580D02*
X129809904Y-85420200D01*
X129809904Y-85420200D02*
X129714666Y-85467819D01*
X129714666Y-85467819D02*
X129476571Y-85467819D01*
X129476571Y-85467819D02*
X129381333Y-85420200D01*
X129381333Y-85420200D02*
X129333714Y-85372580D01*
X130190857Y-84467819D02*
X130524190Y-85467819D01*
X130524190Y-85467819D02*
X130857523Y-84467819D01*
X128778095Y-81721438D02*
X128682857Y-81673819D01*
X128682857Y-81673819D02*
X128540000Y-81673819D01*
X128540000Y-81673819D02*
X128397143Y-81721438D01*
X128397143Y-81721438D02*
X128301905Y-81816676D01*
X128301905Y-81816676D02*
X128254286Y-81911914D01*
X128254286Y-81911914D02*
X128206667Y-82102390D01*
X128206667Y-82102390D02*
X128206667Y-82245247D01*
X128206667Y-82245247D02*
X128254286Y-82435723D01*
X128254286Y-82435723D02*
X128301905Y-82530961D01*
X128301905Y-82530961D02*
X128397143Y-82626200D01*
X128397143Y-82626200D02*
X128540000Y-82673819D01*
X128540000Y-82673819D02*
X128635238Y-82673819D01*
X128635238Y-82673819D02*
X128778095Y-82626200D01*
X128778095Y-82626200D02*
X128825714Y-82578580D01*
X128825714Y-82578580D02*
X128825714Y-82245247D01*
X128825714Y-82245247D02*
X128635238Y-82245247D01*
X129254286Y-82673819D02*
X129254286Y-81673819D01*
X129254286Y-81673819D02*
X129825714Y-82673819D01*
X129825714Y-82673819D02*
X129825714Y-81673819D01*
X130301905Y-82673819D02*
X130301905Y-81673819D01*
X130301905Y-81673819D02*
X130540000Y-81673819D01*
X130540000Y-81673819D02*
X130682857Y-81721438D01*
X130682857Y-81721438D02*
X130778095Y-81816676D01*
X130778095Y-81816676D02*
X130825714Y-81911914D01*
X130825714Y-81911914D02*
X130873333Y-82102390D01*
X130873333Y-82102390D02*
X130873333Y-82245247D01*
X130873333Y-82245247D02*
X130825714Y-82435723D01*
X130825714Y-82435723D02*
X130778095Y-82530961D01*
X130778095Y-82530961D02*
X130682857Y-82626200D01*
X130682857Y-82626200D02*
X130540000Y-82673819D01*
X130540000Y-82673819D02*
X130301905Y-82673819D01*
X101346095Y-89547819D02*
X101917523Y-89547819D01*
X101631809Y-90547819D02*
X101631809Y-89547819D01*
X102155619Y-89547819D02*
X102822285Y-90547819D01*
X102822285Y-89547819D02*
X102155619Y-90547819D01*
X101941333Y-87753819D02*
X101608000Y-87277628D01*
X101369905Y-87753819D02*
X101369905Y-86753819D01*
X101369905Y-86753819D02*
X101750857Y-86753819D01*
X101750857Y-86753819D02*
X101846095Y-86801438D01*
X101846095Y-86801438D02*
X101893714Y-86849057D01*
X101893714Y-86849057D02*
X101941333Y-86944295D01*
X101941333Y-86944295D02*
X101941333Y-87087152D01*
X101941333Y-87087152D02*
X101893714Y-87182390D01*
X101893714Y-87182390D02*
X101846095Y-87230009D01*
X101846095Y-87230009D02*
X101750857Y-87277628D01*
X101750857Y-87277628D02*
X101369905Y-87277628D01*
X102274667Y-86753819D02*
X102941333Y-87753819D01*
X102941333Y-86753819D02*
X102274667Y-87753819D01*
X101377905Y-81927819D02*
X101996952Y-81927819D01*
X101996952Y-81927819D02*
X101663619Y-82308771D01*
X101663619Y-82308771D02*
X101806476Y-82308771D01*
X101806476Y-82308771D02*
X101901714Y-82356390D01*
X101901714Y-82356390D02*
X101949333Y-82404009D01*
X101949333Y-82404009D02*
X101996952Y-82499247D01*
X101996952Y-82499247D02*
X101996952Y-82737342D01*
X101996952Y-82737342D02*
X101949333Y-82832580D01*
X101949333Y-82832580D02*
X101901714Y-82880200D01*
X101901714Y-82880200D02*
X101806476Y-82927819D01*
X101806476Y-82927819D02*
X101520762Y-82927819D01*
X101520762Y-82927819D02*
X101425524Y-82880200D01*
X101425524Y-82880200D02*
X101377905Y-82832580D01*
X102282667Y-81927819D02*
X102616000Y-82927819D01*
X102616000Y-82927819D02*
X102949333Y-81927819D01*
X103187429Y-81927819D02*
X103806476Y-81927819D01*
X103806476Y-81927819D02*
X103473143Y-82308771D01*
X103473143Y-82308771D02*
X103616000Y-82308771D01*
X103616000Y-82308771D02*
X103711238Y-82356390D01*
X103711238Y-82356390D02*
X103758857Y-82404009D01*
X103758857Y-82404009D02*
X103806476Y-82499247D01*
X103806476Y-82499247D02*
X103806476Y-82737342D01*
X103806476Y-82737342D02*
X103758857Y-82832580D01*
X103758857Y-82832580D02*
X103711238Y-82880200D01*
X103711238Y-82880200D02*
X103616000Y-82927819D01*
X103616000Y-82927819D02*
X103330286Y-82927819D01*
X103330286Y-82927819D02*
X103235048Y-82880200D01*
X103235048Y-82880200D02*
X103187429Y-82832580D01*
X125094666Y-90030180D02*
X124475619Y-90030180D01*
X124475619Y-90030180D02*
X124808952Y-89649228D01*
X124808952Y-89649228D02*
X124666095Y-89649228D01*
X124666095Y-89649228D02*
X124570857Y-89601609D01*
X124570857Y-89601609D02*
X124523238Y-89553990D01*
X124523238Y-89553990D02*
X124475619Y-89458752D01*
X124475619Y-89458752D02*
X124475619Y-89220657D01*
X124475619Y-89220657D02*
X124523238Y-89125419D01*
X124523238Y-89125419D02*
X124570857Y-89077800D01*
X124570857Y-89077800D02*
X124666095Y-89030180D01*
X124666095Y-89030180D02*
X124951809Y-89030180D01*
X124951809Y-89030180D02*
X125047047Y-89077800D01*
X125047047Y-89077800D02*
X125094666Y-89125419D01*
X124189904Y-90030180D02*
X123856571Y-89030180D01*
X123856571Y-89030180D02*
X123523238Y-90030180D01*
X123285142Y-90030180D02*
X122666095Y-90030180D01*
X122666095Y-90030180D02*
X122999428Y-89649228D01*
X122999428Y-89649228D02*
X122856571Y-89649228D01*
X122856571Y-89649228D02*
X122761333Y-89601609D01*
X122761333Y-89601609D02*
X122713714Y-89553990D01*
X122713714Y-89553990D02*
X122666095Y-89458752D01*
X122666095Y-89458752D02*
X122666095Y-89220657D01*
X122666095Y-89220657D02*
X122713714Y-89125419D01*
X122713714Y-89125419D02*
X122761333Y-89077800D01*
X122761333Y-89077800D02*
X122856571Y-89030180D01*
X122856571Y-89030180D02*
X123142285Y-89030180D01*
X123142285Y-89030180D02*
X123237523Y-89077800D01*
X123237523Y-89077800D02*
X123285142Y-89125419D01*
X121523237Y-89077800D02*
X121380380Y-89030180D01*
X121380380Y-89030180D02*
X121142285Y-89030180D01*
X121142285Y-89030180D02*
X121047047Y-89077800D01*
X121047047Y-89077800D02*
X120999428Y-89125419D01*
X120999428Y-89125419D02*
X120951809Y-89220657D01*
X120951809Y-89220657D02*
X120951809Y-89315895D01*
X120951809Y-89315895D02*
X120999428Y-89411133D01*
X120999428Y-89411133D02*
X121047047Y-89458752D01*
X121047047Y-89458752D02*
X121142285Y-89506371D01*
X121142285Y-89506371D02*
X121332761Y-89553990D01*
X121332761Y-89553990D02*
X121427999Y-89601609D01*
X121427999Y-89601609D02*
X121475618Y-89649228D01*
X121475618Y-89649228D02*
X121523237Y-89744466D01*
X121523237Y-89744466D02*
X121523237Y-89839704D01*
X121523237Y-89839704D02*
X121475618Y-89934942D01*
X121475618Y-89934942D02*
X121427999Y-89982561D01*
X121427999Y-89982561D02*
X121332761Y-90030180D01*
X121332761Y-90030180D02*
X121094666Y-90030180D01*
X121094666Y-90030180D02*
X120951809Y-89982561D01*
X120618475Y-90030180D02*
X120380380Y-89030180D01*
X120380380Y-89030180D02*
X120189904Y-89744466D01*
X120189904Y-89744466D02*
X119999428Y-89030180D01*
X119999428Y-89030180D02*
X119761333Y-90030180D01*
X111093047Y-89776180D02*
X111569237Y-89776180D01*
X111569237Y-89776180D02*
X111616856Y-89299990D01*
X111616856Y-89299990D02*
X111569237Y-89347609D01*
X111569237Y-89347609D02*
X111473999Y-89395228D01*
X111473999Y-89395228D02*
X111235904Y-89395228D01*
X111235904Y-89395228D02*
X111140666Y-89347609D01*
X111140666Y-89347609D02*
X111093047Y-89299990D01*
X111093047Y-89299990D02*
X111045428Y-89204752D01*
X111045428Y-89204752D02*
X111045428Y-88966657D01*
X111045428Y-88966657D02*
X111093047Y-88871419D01*
X111093047Y-88871419D02*
X111140666Y-88823800D01*
X111140666Y-88823800D02*
X111235904Y-88776180D01*
X111235904Y-88776180D02*
X111473999Y-88776180D01*
X111473999Y-88776180D02*
X111569237Y-88823800D01*
X111569237Y-88823800D02*
X111616856Y-88871419D01*
X110759713Y-89776180D02*
X110426380Y-88776180D01*
X110426380Y-88776180D02*
X110093047Y-89776180D01*
X109045427Y-88823800D02*
X108902570Y-88776180D01*
X108902570Y-88776180D02*
X108664475Y-88776180D01*
X108664475Y-88776180D02*
X108569237Y-88823800D01*
X108569237Y-88823800D02*
X108521618Y-88871419D01*
X108521618Y-88871419D02*
X108473999Y-88966657D01*
X108473999Y-88966657D02*
X108473999Y-89061895D01*
X108473999Y-89061895D02*
X108521618Y-89157133D01*
X108521618Y-89157133D02*
X108569237Y-89204752D01*
X108569237Y-89204752D02*
X108664475Y-89252371D01*
X108664475Y-89252371D02*
X108854951Y-89299990D01*
X108854951Y-89299990D02*
X108950189Y-89347609D01*
X108950189Y-89347609D02*
X108997808Y-89395228D01*
X108997808Y-89395228D02*
X109045427Y-89490466D01*
X109045427Y-89490466D02*
X109045427Y-89585704D01*
X109045427Y-89585704D02*
X108997808Y-89680942D01*
X108997808Y-89680942D02*
X108950189Y-89728561D01*
X108950189Y-89728561D02*
X108854951Y-89776180D01*
X108854951Y-89776180D02*
X108616856Y-89776180D01*
X108616856Y-89776180D02*
X108473999Y-89728561D01*
X108140665Y-89776180D02*
X107902570Y-88776180D01*
X107902570Y-88776180D02*
X107712094Y-89490466D01*
X107712094Y-89490466D02*
X107521618Y-88776180D01*
X107521618Y-88776180D02*
X107283523Y-89776180D01*
X128174762Y-97294819D02*
X128365238Y-97294819D01*
X128365238Y-97294819D02*
X128460476Y-97342438D01*
X128460476Y-97342438D02*
X128555714Y-97437676D01*
X128555714Y-97437676D02*
X128603333Y-97628152D01*
X128603333Y-97628152D02*
X128603333Y-97961485D01*
X128603333Y-97961485D02*
X128555714Y-98151961D01*
X128555714Y-98151961D02*
X128460476Y-98247200D01*
X128460476Y-98247200D02*
X128365238Y-98294819D01*
X128365238Y-98294819D02*
X128174762Y-98294819D01*
X128174762Y-98294819D02*
X128079524Y-98247200D01*
X128079524Y-98247200D02*
X127984286Y-98151961D01*
X127984286Y-98151961D02*
X127936667Y-97961485D01*
X127936667Y-97961485D02*
X127936667Y-97628152D01*
X127936667Y-97628152D02*
X127984286Y-97437676D01*
X127984286Y-97437676D02*
X128079524Y-97342438D01*
X128079524Y-97342438D02*
X128174762Y-97294819D01*
X125991904Y-97342438D02*
X125896666Y-97294819D01*
X125896666Y-97294819D02*
X125753809Y-97294819D01*
X125753809Y-97294819D02*
X125610952Y-97342438D01*
X125610952Y-97342438D02*
X125515714Y-97437676D01*
X125515714Y-97437676D02*
X125468095Y-97532914D01*
X125468095Y-97532914D02*
X125420476Y-97723390D01*
X125420476Y-97723390D02*
X125420476Y-97866247D01*
X125420476Y-97866247D02*
X125468095Y-98056723D01*
X125468095Y-98056723D02*
X125515714Y-98151961D01*
X125515714Y-98151961D02*
X125610952Y-98247200D01*
X125610952Y-98247200D02*
X125753809Y-98294819D01*
X125753809Y-98294819D02*
X125849047Y-98294819D01*
X125849047Y-98294819D02*
X125991904Y-98247200D01*
X125991904Y-98247200D02*
X126039523Y-98199580D01*
X126039523Y-98199580D02*
X126039523Y-97866247D01*
X126039523Y-97866247D02*
X125849047Y-97866247D01*
X123190000Y-98294819D02*
X123190000Y-97294819D01*
X122991905Y-93779819D02*
X123658571Y-94779819D01*
X123658571Y-93779819D02*
X122991905Y-94779819D01*
X124610952Y-94684580D02*
X124563333Y-94732200D01*
X124563333Y-94732200D02*
X124420476Y-94779819D01*
X124420476Y-94779819D02*
X124325238Y-94779819D01*
X124325238Y-94779819D02*
X124182381Y-94732200D01*
X124182381Y-94732200D02*
X124087143Y-94636961D01*
X124087143Y-94636961D02*
X124039524Y-94541723D01*
X124039524Y-94541723D02*
X123991905Y-94351247D01*
X123991905Y-94351247D02*
X123991905Y-94208390D01*
X123991905Y-94208390D02*
X124039524Y-94017914D01*
X124039524Y-94017914D02*
X124087143Y-93922676D01*
X124087143Y-93922676D02*
X124182381Y-93827438D01*
X124182381Y-93827438D02*
X124325238Y-93779819D01*
X124325238Y-93779819D02*
X124420476Y-93779819D01*
X124420476Y-93779819D02*
X124563333Y-93827438D01*
X124563333Y-93827438D02*
X124610952Y-93875057D01*
X125087143Y-94779819D02*
X125277619Y-94779819D01*
X125277619Y-94779819D02*
X125372857Y-94732200D01*
X125372857Y-94732200D02*
X125420476Y-94684580D01*
X125420476Y-94684580D02*
X125515714Y-94541723D01*
X125515714Y-94541723D02*
X125563333Y-94351247D01*
X125563333Y-94351247D02*
X125563333Y-93970295D01*
X125563333Y-93970295D02*
X125515714Y-93875057D01*
X125515714Y-93875057D02*
X125468095Y-93827438D01*
X125468095Y-93827438D02*
X125372857Y-93779819D01*
X125372857Y-93779819D02*
X125182381Y-93779819D01*
X125182381Y-93779819D02*
X125087143Y-93827438D01*
X125087143Y-93827438D02*
X125039524Y-93875057D01*
X125039524Y-93875057D02*
X124991905Y-93970295D01*
X124991905Y-93970295D02*
X124991905Y-94208390D01*
X124991905Y-94208390D02*
X125039524Y-94303628D01*
X125039524Y-94303628D02*
X125087143Y-94351247D01*
X125087143Y-94351247D02*
X125182381Y-94398866D01*
X125182381Y-94398866D02*
X125372857Y-94398866D01*
X125372857Y-94398866D02*
X125468095Y-94351247D01*
X125468095Y-94351247D02*
X125515714Y-94303628D01*
X125515714Y-94303628D02*
X125563333Y-94208390D01*
X125896667Y-93779819D02*
X126515714Y-93779819D01*
X126515714Y-93779819D02*
X126182381Y-94160771D01*
X126182381Y-94160771D02*
X126325238Y-94160771D01*
X126325238Y-94160771D02*
X126420476Y-94208390D01*
X126420476Y-94208390D02*
X126468095Y-94256009D01*
X126468095Y-94256009D02*
X126515714Y-94351247D01*
X126515714Y-94351247D02*
X126515714Y-94589342D01*
X126515714Y-94589342D02*
X126468095Y-94684580D01*
X126468095Y-94684580D02*
X126420476Y-94732200D01*
X126420476Y-94732200D02*
X126325238Y-94779819D01*
X126325238Y-94779819D02*
X126039524Y-94779819D01*
X126039524Y-94779819D02*
X125944286Y-94732200D01*
X125944286Y-94732200D02*
X125896667Y-94684580D01*
X127134762Y-93779819D02*
X127230000Y-93779819D01*
X127230000Y-93779819D02*
X127325238Y-93827438D01*
X127325238Y-93827438D02*
X127372857Y-93875057D01*
X127372857Y-93875057D02*
X127420476Y-93970295D01*
X127420476Y-93970295D02*
X127468095Y-94160771D01*
X127468095Y-94160771D02*
X127468095Y-94398866D01*
X127468095Y-94398866D02*
X127420476Y-94589342D01*
X127420476Y-94589342D02*
X127372857Y-94684580D01*
X127372857Y-94684580D02*
X127325238Y-94732200D01*
X127325238Y-94732200D02*
X127230000Y-94779819D01*
X127230000Y-94779819D02*
X127134762Y-94779819D01*
X127134762Y-94779819D02*
X127039524Y-94732200D01*
X127039524Y-94732200D02*
X126991905Y-94684580D01*
X126991905Y-94684580D02*
X126944286Y-94589342D01*
X126944286Y-94589342D02*
X126896667Y-94398866D01*
X126896667Y-94398866D02*
X126896667Y-94160771D01*
X126896667Y-94160771D02*
X126944286Y-93970295D01*
X126944286Y-93970295D02*
X126991905Y-93875057D01*
X126991905Y-93875057D02*
X127039524Y-93827438D01*
X127039524Y-93827438D02*
X127134762Y-93779819D01*
X128325238Y-93779819D02*
X128134762Y-93779819D01*
X128134762Y-93779819D02*
X128039524Y-93827438D01*
X128039524Y-93827438D02*
X127991905Y-93875057D01*
X127991905Y-93875057D02*
X127896667Y-94017914D01*
X127896667Y-94017914D02*
X127849048Y-94208390D01*
X127849048Y-94208390D02*
X127849048Y-94589342D01*
X127849048Y-94589342D02*
X127896667Y-94684580D01*
X127896667Y-94684580D02*
X127944286Y-94732200D01*
X127944286Y-94732200D02*
X128039524Y-94779819D01*
X128039524Y-94779819D02*
X128230000Y-94779819D01*
X128230000Y-94779819D02*
X128325238Y-94732200D01*
X128325238Y-94732200D02*
X128372857Y-94684580D01*
X128372857Y-94684580D02*
X128420476Y-94589342D01*
X128420476Y-94589342D02*
X128420476Y-94351247D01*
X128420476Y-94351247D02*
X128372857Y-94256009D01*
X128372857Y-94256009D02*
X128325238Y-94208390D01*
X128325238Y-94208390D02*
X128230000Y-94160771D01*
X128230000Y-94160771D02*
X128039524Y-94160771D01*
X128039524Y-94160771D02*
X127944286Y-94208390D01*
X127944286Y-94208390D02*
X127896667Y-94256009D01*
X127896667Y-94256009D02*
X127849048Y-94351247D01*
X122658571Y-95389819D02*
X123277618Y-95389819D01*
X123277618Y-95389819D02*
X122944285Y-95770771D01*
X122944285Y-95770771D02*
X123087142Y-95770771D01*
X123087142Y-95770771D02*
X123182380Y-95818390D01*
X123182380Y-95818390D02*
X123229999Y-95866009D01*
X123229999Y-95866009D02*
X123277618Y-95961247D01*
X123277618Y-95961247D02*
X123277618Y-96199342D01*
X123277618Y-96199342D02*
X123229999Y-96294580D01*
X123229999Y-96294580D02*
X123182380Y-96342200D01*
X123182380Y-96342200D02*
X123087142Y-96389819D01*
X123087142Y-96389819D02*
X122801428Y-96389819D01*
X122801428Y-96389819D02*
X122706190Y-96342200D01*
X122706190Y-96342200D02*
X122658571Y-96294580D01*
X123563333Y-95389819D02*
X123896666Y-96389819D01*
X123896666Y-96389819D02*
X124229999Y-95389819D01*
X124468095Y-95389819D02*
X125087142Y-95389819D01*
X125087142Y-95389819D02*
X124753809Y-95770771D01*
X124753809Y-95770771D02*
X124896666Y-95770771D01*
X124896666Y-95770771D02*
X124991904Y-95818390D01*
X124991904Y-95818390D02*
X125039523Y-95866009D01*
X125039523Y-95866009D02*
X125087142Y-95961247D01*
X125087142Y-95961247D02*
X125087142Y-96199342D01*
X125087142Y-96199342D02*
X125039523Y-96294580D01*
X125039523Y-96294580D02*
X124991904Y-96342200D01*
X124991904Y-96342200D02*
X124896666Y-96389819D01*
X124896666Y-96389819D02*
X124610952Y-96389819D01*
X124610952Y-96389819D02*
X124515714Y-96342200D01*
X124515714Y-96342200D02*
X124468095Y-96294580D01*
X126849047Y-96389819D02*
X126515714Y-95913628D01*
X126277619Y-96389819D02*
X126277619Y-95389819D01*
X126277619Y-95389819D02*
X126658571Y-95389819D01*
X126658571Y-95389819D02*
X126753809Y-95437438D01*
X126753809Y-95437438D02*
X126801428Y-95485057D01*
X126801428Y-95485057D02*
X126849047Y-95580295D01*
X126849047Y-95580295D02*
X126849047Y-95723152D01*
X126849047Y-95723152D02*
X126801428Y-95818390D01*
X126801428Y-95818390D02*
X126753809Y-95866009D01*
X126753809Y-95866009D02*
X126658571Y-95913628D01*
X126658571Y-95913628D02*
X126277619Y-95913628D01*
X127277619Y-95866009D02*
X127610952Y-95866009D01*
X127753809Y-96389819D02*
X127277619Y-96389819D01*
X127277619Y-96389819D02*
X127277619Y-95389819D01*
X127277619Y-95389819D02*
X127753809Y-95389819D01*
X128706190Y-95437438D02*
X128610952Y-95389819D01*
X128610952Y-95389819D02*
X128468095Y-95389819D01*
X128468095Y-95389819D02*
X128325238Y-95437438D01*
X128325238Y-95437438D02*
X128230000Y-95532676D01*
X128230000Y-95532676D02*
X128182381Y-95627914D01*
X128182381Y-95627914D02*
X128134762Y-95818390D01*
X128134762Y-95818390D02*
X128134762Y-95961247D01*
X128134762Y-95961247D02*
X128182381Y-96151723D01*
X128182381Y-96151723D02*
X128230000Y-96246961D01*
X128230000Y-96246961D02*
X128325238Y-96342200D01*
X128325238Y-96342200D02*
X128468095Y-96389819D01*
X128468095Y-96389819D02*
X128563333Y-96389819D01*
X128563333Y-96389819D02*
X128706190Y-96342200D01*
X128706190Y-96342200D02*
X128753809Y-96294580D01*
X128753809Y-96294580D02*
X128753809Y-95961247D01*
X128753809Y-95961247D02*
X128563333Y-95961247D01*
X121480000Y-91460000D02*
X129980000Y-91460000D01*
X129980000Y-99060000D01*
X121480000Y-99060000D01*
X121480000Y-91460000D01*
D11*
%TO.C,J3*%
X115292000Y-103548000D02*
X115292000Y-98048000D01*
X114792000Y-103548000D02*
X115292000Y-103548000D01*
X117292000Y-98048000D02*
X117292000Y-103548000D01*
X108902000Y-96938000D02*
X113792000Y-96938000D01*
X107482000Y-104158000D02*
X107482000Y-92438000D01*
X117792000Y-103548000D02*
X117792000Y-98048000D01*
X112292000Y-98048000D02*
X112292000Y-103548000D01*
X120102000Y-104158000D02*
X120102000Y-92438000D01*
X107482000Y-92438000D02*
X108902000Y-92438000D01*
X110292000Y-103548000D02*
X110292000Y-98048000D01*
X109792000Y-98048000D02*
X109792000Y-103548000D01*
X113792000Y-104158000D02*
X120102000Y-104158000D01*
X112292000Y-103548000D02*
X112792000Y-103548000D01*
X117292000Y-103548000D02*
X117792000Y-103548000D01*
X110042000Y-93348000D02*
X109742000Y-92748000D01*
X112792000Y-103548000D02*
X112792000Y-98048000D01*
X118682000Y-92438000D02*
X118682000Y-96938000D01*
X109792000Y-103548000D02*
X110292000Y-103548000D01*
X120102000Y-92438000D02*
X118682000Y-92438000D01*
X118682000Y-96938000D02*
X113792000Y-96938000D01*
X112792000Y-98048000D02*
X112292000Y-98048000D01*
X108902000Y-92438000D02*
X108902000Y-96938000D01*
X110342000Y-92748000D02*
X110042000Y-93348000D01*
X117792000Y-98048000D02*
X117292000Y-98048000D01*
X113792000Y-104158000D02*
X107482000Y-104158000D01*
X109742000Y-92748000D02*
X110342000Y-92748000D01*
X114792000Y-98048000D02*
X114792000Y-103548000D01*
X110292000Y-98048000D02*
X109792000Y-98048000D01*
X115292000Y-98048000D02*
X114792000Y-98048000D01*
%TO.C,J4*%
X124460000Y-101660000D02*
X124460000Y-99000000D01*
X121860000Y-101660000D02*
X121860000Y-100330000D01*
X124460000Y-99000000D02*
X129600000Y-99000000D01*
X123190000Y-101660000D02*
X121860000Y-101660000D01*
X124460000Y-101660000D02*
X129600000Y-101660000D01*
X129600000Y-101660000D02*
X129600000Y-99000000D01*
%TO.C,D2*%
X103060164Y-98531871D02*
G75*
G03*
X103060001Y-100613960I1079836J-1041129D01*
G01*
X105375515Y-101132999D02*
G75*
G03*
X105218608Y-97900666I-1235515J1559999D01*
G01*
X103061392Y-97900666D02*
G75*
G03*
X102904485Y-101132999I1078608J-1672334D01*
G01*
X105219999Y-100613960D02*
G75*
G03*
X105219836Y-98531871I-1079999J1040960D01*
G01*
X102904000Y-101133000D02*
X103060000Y-101133000D01*
X105220000Y-101133000D02*
X105376000Y-101133000D01*
%TO.C,D1*%
X103060164Y-92684871D02*
G75*
G03*
X103060001Y-94766960I1079836J-1041129D01*
G01*
X105375515Y-95285999D02*
G75*
G03*
X105218608Y-92053666I-1235515J1559999D01*
G01*
X103061392Y-92053666D02*
G75*
G03*
X102904485Y-95285999I1078608J-1672334D01*
G01*
X105219999Y-94766960D02*
G75*
G03*
X105219836Y-92684871I-1079999J1040960D01*
G01*
X102904000Y-95286000D02*
X103060000Y-95286000D01*
X105220000Y-95286000D02*
X105376000Y-95286000D01*
%TD*%
%LPC*%
D12*
%TO.C,J3*%
X117542000Y-94848000D03*
X115042000Y-94848000D03*
X112542000Y-94848000D03*
D13*
X110042000Y-94848000D03*
%TD*%
D14*
%TO.C,SW2*%
X120310000Y-86360000D03*
X122310000Y-86360000D03*
X124310000Y-86360000D03*
D15*
X118110000Y-86360000D03*
X126510000Y-86360000D03*
%TD*%
D14*
%TO.C,SW1*%
X107728000Y-86360000D03*
X109728000Y-86360000D03*
X111728000Y-86360000D03*
D15*
X105528000Y-86360000D03*
X113928000Y-86360000D03*
%TD*%
D16*
%TO.C,J4*%
X128270000Y-100330000D03*
X125730000Y-100330000D03*
D17*
X123190000Y-100330000D03*
%TD*%
%TO.C,J2*%
X132258000Y-100000000D03*
D16*
X132258000Y-97460000D03*
X132258000Y-94920000D03*
X132258000Y-92380000D03*
X132258000Y-89840000D03*
X132258000Y-87300000D03*
X132258000Y-84760000D03*
X132258000Y-82220000D03*
%TD*%
%TO.C,J1*%
X100000000Y-82220000D03*
X100000000Y-84760000D03*
X100000000Y-87300000D03*
X100000000Y-89840000D03*
X100000000Y-92380000D03*
X100000000Y-94920000D03*
X100000000Y-97460000D03*
D17*
X100000000Y-100000000D03*
%TD*%
D15*
%TO.C,D2*%
X104140000Y-98303000D03*
D18*
X104140000Y-100843000D03*
%TD*%
D15*
%TO.C,D1*%
X104140000Y-92456000D03*
D18*
X104140000Y-94996000D03*
%TD*%
%LPD*%
M02*
