M48
; DRILL file {KiCad 7.0.9} date Sun Jan 19 19:17:31 2025
; FORMAT={-:-/ absolute / inch / decimal}
; #@! TF.CreationDate,2025-01-19T19:17:31+09:00
; #@! TF.GenerationSoftware,Kicad,Pcbnew,7.0.9
; #@! TF.FileFunction,Plated,1,2,PTH
FMAT,2
INCH
; #@! TA.AperFunction,Plated,PTH,ViaDrill
T1C0.0157
; #@! TA.AperFunction,Plated,PTH,ComponentDrill
T2C0.0300
; #@! TA.AperFunction,Plated,PTH,ComponentDrill
T3C0.0354
; #@! TA.AperFunction,Plated,PTH,ComponentDrill
T4C0.0374
; #@! TA.AperFunction,Plated,PTH,ComponentDrill
T5C0.0394
; #@! TA.AperFunction,Plated,PTH,ComponentDrill
T6C0.0472
%
G90
G05
T1
X3.925Y-4.05
X4.01Y-3.63
X4.02Y-3.18
X4.02Y-3.47
X4.02Y-3.81
X4.025Y-3.325
X4.225Y-3.85
X4.39Y-3.58
X4.4Y-3.81
X4.43Y-3.51
X4.56Y-3.4
X4.6Y-3.6
X4.75Y-3.29
X4.75Y-3.475
X4.75Y-3.69
X4.9Y-3.25
X4.99Y-3.88
X5.1Y-3.425
X5.1Y-3.85
X5.2Y-4.05
T2
X4.2413Y-3.4
X4.32Y-3.4
X4.3987Y-3.4
X4.7366Y-3.4
X4.8154Y-3.4
X4.8941Y-3.4
T3
X4.1Y-3.64
X4.1Y-3.74
X4.1Y-3.8702
X4.1Y-3.9702
T4
X4.3324Y-3.7342
X4.4308Y-3.7342
X4.5292Y-3.7342
X4.6276Y-3.7342
T5
X3.937Y-3.237
X3.937Y-3.337
X3.937Y-3.437
X3.937Y-3.537
X3.937Y-3.637
X3.937Y-3.737
X3.937Y-3.837
X3.937Y-3.937
X4.85Y-3.95
X4.95Y-3.95
X5.05Y-3.95
X5.207Y-3.237
X5.207Y-3.337
X5.207Y-3.437
X5.207Y-3.537
X5.207Y-3.637
X5.207Y-3.737
X5.207Y-3.837
X5.207Y-3.937
T6
X4.1546Y-3.4
X4.4854Y-3.4
X4.65Y-3.4
X4.9807Y-3.4
T0
M30
