%TF.GenerationSoftware,KiCad,Pcbnew,7.0.9*%
%TF.CreationDate,2024-06-25T19:44:48+09:00*%
%TF.ProjectId,05-PWR,30352d50-5752-42e6-9b69-6361645f7063,rev?*%
%TF.SameCoordinates,Original*%
%TF.FileFunction,Profile,NP*%
%FSLAX46Y46*%
G04 Gerber Fmt 4.6, Leading zero omitted, Abs format (unit mm)*
G04 Created by KiCad (PCBNEW 7.0.9) date 2024-06-25 19:44:48*
%MOMM*%
%LPD*%
G01*
G04 APERTURE LIST*
%TA.AperFunction,Profile*%
%ADD10C,0.200000*%
%TD*%
%TA.AperFunction,Profile*%
%ADD11C,0.050000*%
%TD*%
G04 APERTURE END LIST*
D10*
X256335000Y-28704998D02*
X256335000Y-23704999D01*
X196335000Y-23704999D02*
X196335000Y-28704998D01*
X171335000Y-98704999D02*
X181335000Y-98704999D01*
X201335000Y-53704999D02*
X206335000Y-58704999D01*
X216335000Y-36704999D02*
X216335000Y-23704999D01*
X236335000Y-23704999D02*
X236335000Y-36704999D01*
X266335000Y-53704999D02*
X266335000Y-33704999D01*
X246335000Y-68704999D02*
X246335000Y-58704999D01*
X201335000Y-73704999D02*
X171335000Y-73704999D01*
X196335000Y-28704998D02*
X191334999Y-33704998D01*
X206335000Y-68704999D02*
X201335000Y-73704999D01*
X266335000Y-128704999D02*
X266335000Y-103704999D01*
X206335000Y-133704999D02*
X206335000Y-148704999D01*
X236335000Y-36704999D02*
X216335000Y-36704999D01*
X266335000Y-103704999D02*
X271335000Y-98704999D01*
X186335000Y-128705000D02*
X201335000Y-128705000D01*
X212335000Y-51704999D02*
X203335000Y-51704999D01*
X206335000Y-148704999D02*
X246335000Y-148704999D01*
X171335000Y-73704999D02*
X171335000Y-98704999D01*
X216335000Y-23704999D02*
X196335000Y-23704999D01*
X281335000Y-98704999D02*
X281335000Y-73704999D01*
X246335000Y-148704999D02*
X246335000Y-133704999D01*
X186334999Y-53704999D02*
X201335000Y-53704999D01*
X266335000Y-33704999D02*
X261335000Y-33704999D01*
X256335000Y-23704999D02*
X236335000Y-23704999D01*
X186335000Y-103704999D02*
X186335000Y-128705000D01*
X246335000Y-133704999D02*
X251335000Y-128704999D01*
X201335000Y-128705000D02*
X206335000Y-133704999D01*
X203335000Y-51704999D02*
X203335000Y-37704998D01*
X251335000Y-53704999D02*
X266335000Y-53704999D01*
X261335000Y-33704999D02*
X256335000Y-28704998D01*
X212335000Y-37704998D02*
X212335000Y-51704999D01*
X281335000Y-73704999D02*
X251335000Y-73704999D01*
X203335000Y-37704998D02*
X212335000Y-37704998D01*
X246335000Y-58704999D02*
X251335000Y-53704999D01*
X251335000Y-128704999D02*
X266335000Y-128704999D01*
X271335000Y-98704999D02*
X281335000Y-98704999D01*
X181335000Y-98704999D02*
X186335000Y-103704999D01*
X191334999Y-33704998D02*
X186335000Y-33704999D01*
X251335000Y-73704999D02*
X246335000Y-68704999D01*
X206335000Y-58704999D02*
X206335000Y-68704999D01*
X186335000Y-33704999D02*
X186334999Y-53704999D01*
D11*
%TO.C,REF\u002A\u002A*%
X256025000Y-118410000D02*
X256025000Y-117160000D01*
X251425000Y-117160000D02*
X251425000Y-93660000D01*
X256025000Y-117160000D02*
X251425000Y-117160000D01*
X258325000Y-117160000D02*
X258325000Y-118410000D01*
X262925000Y-117160000D02*
X258325000Y-117160000D01*
X251425000Y-93660000D02*
X256025000Y-93660000D01*
X256025000Y-93660000D02*
X256025000Y-92410000D01*
X258325000Y-93660000D02*
X262925000Y-93660000D01*
X262925000Y-93660000D02*
X262925000Y-117160000D01*
X258325000Y-92410000D02*
X258325000Y-93660000D01*
X256025000Y-118410000D02*
G75*
G03*
X258325000Y-118410000I1150000J0D01*
G01*
X258325000Y-92410000D02*
G75*
G03*
X256025000Y-92410000I-1150000J0D01*
G01*
%TD*%
M02*
