%TF.GenerationSoftware,KiCad,Pcbnew,7.0.9*%
%TF.CreationDate,2025-02-06T15:14:37+09:00*%
%TF.ProjectId,01-MAIN,30312d4d-4149-44e2-9e6b-696361645f70,rev?*%
%TF.SameCoordinates,Original*%
%TF.FileFunction,Legend,Top*%
%TF.FilePolarity,Positive*%
%FSLAX46Y46*%
G04 Gerber Fmt 4.6, Leading zero omitted, Abs format (unit mm)*
G04 Created by KiCad (PCBNEW 7.0.9) date 2025-02-06 15:14:37*
%MOMM*%
%LPD*%
G01*
G04 APERTURE LIST*
G04 Aperture macros list*
%AMRoundRect*
0 Rectangle with rounded corners*
0 $1 Rounding radius*
0 $2 $3 $4 $5 $6 $7 $8 $9 X,Y pos of 4 corners*
0 Add a 4 corners polygon primitive as box body*
4,1,4,$2,$3,$4,$5,$6,$7,$8,$9,$2,$3,0*
0 Add four circle primitives for the rounded corners*
1,1,$1+$1,$2,$3*
1,1,$1+$1,$4,$5*
1,1,$1+$1,$6,$7*
1,1,$1+$1,$8,$9*
0 Add four rect primitives between the rounded corners*
20,1,$1+$1,$2,$3,$4,$5,0*
20,1,$1+$1,$4,$5,$6,$7,0*
20,1,$1+$1,$6,$7,$8,$9,0*
20,1,$1+$1,$8,$9,$2,$3,0*%
G04 Aperture macros list end*
%ADD10C,0.150000*%
%ADD11C,0.300000*%
%ADD12C,0.400000*%
%ADD13C,0.100000*%
%ADD14C,0.120000*%
%ADD15RoundRect,0.250000X0.725000X-0.600000X0.725000X0.600000X-0.725000X0.600000X-0.725000X-0.600000X0*%
%ADD16O,1.950000X1.700000*%
%ADD17C,0.800000*%
%ADD18C,6.400000*%
%ADD19RoundRect,0.250000X-0.725000X0.600000X-0.725000X-0.600000X0.725000X-0.600000X0.725000X0.600000X0*%
%ADD20RoundRect,0.250000X-0.675000X0.600000X-0.675000X-0.600000X0.675000X-0.600000X0.675000X0.600000X0*%
%ADD21O,1.850000X1.700000*%
%ADD22R,1.050000X1.500000*%
%ADD23O,1.050000X1.500000*%
%ADD24C,3.200000*%
%ADD25RoundRect,0.250000X-0.600000X-0.675000X0.600000X-0.675000X0.600000X0.675000X-0.600000X0.675000X0*%
%ADD26O,1.700000X1.850000*%
%ADD27C,2.400000*%
%ADD28R,1.600000X1.600000*%
%ADD29C,1.600000*%
%ADD30C,1.524000*%
%ADD31R,2.000000X2.000000*%
%ADD32C,2.000000*%
%ADD33R,1.700000X1.700000*%
%ADD34O,1.700000X1.700000*%
G04 APERTURE END LIST*
D10*
X97110000Y-93709000D02*
X102188000Y-93709000D01*
X102188000Y-106319000D01*
X97110000Y-106319000D01*
X97110000Y-93709000D01*
X97029000Y-79465000D02*
X102107000Y-79465000D01*
X102107000Y-92075000D01*
X97029000Y-92075000D01*
X97029000Y-79465000D01*
X95160000Y-115700000D02*
X98650000Y-115700000D01*
X98650000Y-130820000D01*
X95160000Y-130820000D01*
X95160000Y-115700000D01*
D11*
X147701333Y-131751638D02*
X148367999Y-133751638D01*
X148367999Y-133751638D02*
X149034666Y-131751638D01*
X149701333Y-133751638D02*
X149701333Y-131751638D01*
X149701333Y-131751638D02*
X150177523Y-131751638D01*
X150177523Y-131751638D02*
X150463238Y-131846876D01*
X150463238Y-131846876D02*
X150653714Y-132037352D01*
X150653714Y-132037352D02*
X150748952Y-132227828D01*
X150748952Y-132227828D02*
X150844190Y-132608780D01*
X150844190Y-132608780D02*
X150844190Y-132894495D01*
X150844190Y-132894495D02*
X150748952Y-133275447D01*
X150748952Y-133275447D02*
X150653714Y-133465923D01*
X150653714Y-133465923D02*
X150463238Y-133656400D01*
X150463238Y-133656400D02*
X150177523Y-133751638D01*
X150177523Y-133751638D02*
X149701333Y-133751638D01*
X151701333Y-133751638D02*
X151701333Y-131751638D01*
X151701333Y-131751638D02*
X152177523Y-131751638D01*
X152177523Y-131751638D02*
X152463238Y-131846876D01*
X152463238Y-131846876D02*
X152653714Y-132037352D01*
X152653714Y-132037352D02*
X152748952Y-132227828D01*
X152748952Y-132227828D02*
X152844190Y-132608780D01*
X152844190Y-132608780D02*
X152844190Y-132894495D01*
X152844190Y-132894495D02*
X152748952Y-133275447D01*
X152748952Y-133275447D02*
X152653714Y-133465923D01*
X152653714Y-133465923D02*
X152463238Y-133656400D01*
X152463238Y-133656400D02*
X152177523Y-133751638D01*
X152177523Y-133751638D02*
X151701333Y-133751638D01*
D10*
X123841541Y-163854819D02*
X124508207Y-164854819D01*
X124508207Y-163854819D02*
X123841541Y-164854819D01*
X124841541Y-164807200D02*
X124984398Y-164854819D01*
X124984398Y-164854819D02*
X125222493Y-164854819D01*
X125222493Y-164854819D02*
X125317731Y-164807200D01*
X125317731Y-164807200D02*
X125365350Y-164759580D01*
X125365350Y-164759580D02*
X125412969Y-164664342D01*
X125412969Y-164664342D02*
X125412969Y-164569104D01*
X125412969Y-164569104D02*
X125365350Y-164473866D01*
X125365350Y-164473866D02*
X125317731Y-164426247D01*
X125317731Y-164426247D02*
X125222493Y-164378628D01*
X125222493Y-164378628D02*
X125032017Y-164331009D01*
X125032017Y-164331009D02*
X124936779Y-164283390D01*
X124936779Y-164283390D02*
X124889160Y-164235771D01*
X124889160Y-164235771D02*
X124841541Y-164140533D01*
X124841541Y-164140533D02*
X124841541Y-164045295D01*
X124841541Y-164045295D02*
X124889160Y-163950057D01*
X124889160Y-163950057D02*
X124936779Y-163902438D01*
X124936779Y-163902438D02*
X125032017Y-163854819D01*
X125032017Y-163854819D02*
X125270112Y-163854819D01*
X125270112Y-163854819D02*
X125412969Y-163902438D01*
X125841541Y-164854819D02*
X125841541Y-163854819D01*
X125841541Y-164331009D02*
X126412969Y-164331009D01*
X126412969Y-164854819D02*
X126412969Y-163854819D01*
X126889160Y-163854819D02*
X126889160Y-164664342D01*
X126889160Y-164664342D02*
X126936779Y-164759580D01*
X126936779Y-164759580D02*
X126984398Y-164807200D01*
X126984398Y-164807200D02*
X127079636Y-164854819D01*
X127079636Y-164854819D02*
X127270112Y-164854819D01*
X127270112Y-164854819D02*
X127365350Y-164807200D01*
X127365350Y-164807200D02*
X127412969Y-164759580D01*
X127412969Y-164759580D02*
X127460588Y-164664342D01*
X127460588Y-164664342D02*
X127460588Y-163854819D01*
X127793922Y-163854819D02*
X128365350Y-163854819D01*
X128079636Y-164854819D02*
X128079636Y-163854819D01*
X128651065Y-163950057D02*
X128698684Y-163902438D01*
X128698684Y-163902438D02*
X128793922Y-163854819D01*
X128793922Y-163854819D02*
X129032017Y-163854819D01*
X129032017Y-163854819D02*
X129127255Y-163902438D01*
X129127255Y-163902438D02*
X129174874Y-163950057D01*
X129174874Y-163950057D02*
X129222493Y-164045295D01*
X129222493Y-164045295D02*
X129222493Y-164140533D01*
X129222493Y-164140533D02*
X129174874Y-164283390D01*
X129174874Y-164283390D02*
X128603446Y-164854819D01*
X128603446Y-164854819D02*
X129222493Y-164854819D01*
X96162969Y-117544819D02*
X95686779Y-117544819D01*
X95686779Y-117544819D02*
X95639160Y-118021009D01*
X95639160Y-118021009D02*
X95686779Y-117973390D01*
X95686779Y-117973390D02*
X95782017Y-117925771D01*
X95782017Y-117925771D02*
X96020112Y-117925771D01*
X96020112Y-117925771D02*
X96115350Y-117973390D01*
X96115350Y-117973390D02*
X96162969Y-118021009D01*
X96162969Y-118021009D02*
X96210588Y-118116247D01*
X96210588Y-118116247D02*
X96210588Y-118354342D01*
X96210588Y-118354342D02*
X96162969Y-118449580D01*
X96162969Y-118449580D02*
X96115350Y-118497200D01*
X96115350Y-118497200D02*
X96020112Y-118544819D01*
X96020112Y-118544819D02*
X95782017Y-118544819D01*
X95782017Y-118544819D02*
X95686779Y-118497200D01*
X95686779Y-118497200D02*
X95639160Y-118449580D01*
X96496303Y-117544819D02*
X96829636Y-118544819D01*
X96829636Y-118544819D02*
X97162969Y-117544819D01*
X159372180Y-127936667D02*
X158372180Y-128270000D01*
X158372180Y-128270000D02*
X159372180Y-128603333D01*
X158419800Y-74136286D02*
X158372180Y-74279143D01*
X158372180Y-74279143D02*
X158372180Y-74517238D01*
X158372180Y-74517238D02*
X158419800Y-74612476D01*
X158419800Y-74612476D02*
X158467419Y-74660095D01*
X158467419Y-74660095D02*
X158562657Y-74707714D01*
X158562657Y-74707714D02*
X158657895Y-74707714D01*
X158657895Y-74707714D02*
X158753133Y-74660095D01*
X158753133Y-74660095D02*
X158800752Y-74612476D01*
X158800752Y-74612476D02*
X158848371Y-74517238D01*
X158848371Y-74517238D02*
X158895990Y-74326762D01*
X158895990Y-74326762D02*
X158943609Y-74231524D01*
X158943609Y-74231524D02*
X158991228Y-74183905D01*
X158991228Y-74183905D02*
X159086466Y-74136286D01*
X159086466Y-74136286D02*
X159181704Y-74136286D01*
X159181704Y-74136286D02*
X159276942Y-74183905D01*
X159276942Y-74183905D02*
X159324561Y-74231524D01*
X159324561Y-74231524D02*
X159372180Y-74326762D01*
X159372180Y-74326762D02*
X159372180Y-74564857D01*
X159372180Y-74564857D02*
X159324561Y-74707714D01*
X99819077Y-88979819D02*
X99342887Y-88979819D01*
X99342887Y-88979819D02*
X99295268Y-89456009D01*
X99295268Y-89456009D02*
X99342887Y-89408390D01*
X99342887Y-89408390D02*
X99438125Y-89360771D01*
X99438125Y-89360771D02*
X99676220Y-89360771D01*
X99676220Y-89360771D02*
X99771458Y-89408390D01*
X99771458Y-89408390D02*
X99819077Y-89456009D01*
X99819077Y-89456009D02*
X99866696Y-89551247D01*
X99866696Y-89551247D02*
X99866696Y-89789342D01*
X99866696Y-89789342D02*
X99819077Y-89884580D01*
X99819077Y-89884580D02*
X99771458Y-89932200D01*
X99771458Y-89932200D02*
X99676220Y-89979819D01*
X99676220Y-89979819D02*
X99438125Y-89979819D01*
X99438125Y-89979819D02*
X99342887Y-89932200D01*
X99342887Y-89932200D02*
X99295268Y-89884580D01*
X100152411Y-88979819D02*
X100485744Y-89979819D01*
X100485744Y-89979819D02*
X100819077Y-88979819D01*
X90939904Y-131505438D02*
X90844666Y-131457819D01*
X90844666Y-131457819D02*
X90701809Y-131457819D01*
X90701809Y-131457819D02*
X90558952Y-131505438D01*
X90558952Y-131505438D02*
X90463714Y-131600676D01*
X90463714Y-131600676D02*
X90416095Y-131695914D01*
X90416095Y-131695914D02*
X90368476Y-131886390D01*
X90368476Y-131886390D02*
X90368476Y-132029247D01*
X90368476Y-132029247D02*
X90416095Y-132219723D01*
X90416095Y-132219723D02*
X90463714Y-132314961D01*
X90463714Y-132314961D02*
X90558952Y-132410200D01*
X90558952Y-132410200D02*
X90701809Y-132457819D01*
X90701809Y-132457819D02*
X90797047Y-132457819D01*
X90797047Y-132457819D02*
X90939904Y-132410200D01*
X90939904Y-132410200D02*
X90987523Y-132362580D01*
X90987523Y-132362580D02*
X90987523Y-132029247D01*
X90987523Y-132029247D02*
X90797047Y-132029247D01*
X95472286Y-132410200D02*
X95615143Y-132457819D01*
X95615143Y-132457819D02*
X95853238Y-132457819D01*
X95853238Y-132457819D02*
X95948476Y-132410200D01*
X95948476Y-132410200D02*
X95996095Y-132362580D01*
X95996095Y-132362580D02*
X96043714Y-132267342D01*
X96043714Y-132267342D02*
X96043714Y-132172104D01*
X96043714Y-132172104D02*
X95996095Y-132076866D01*
X95996095Y-132076866D02*
X95948476Y-132029247D01*
X95948476Y-132029247D02*
X95853238Y-131981628D01*
X95853238Y-131981628D02*
X95662762Y-131934009D01*
X95662762Y-131934009D02*
X95567524Y-131886390D01*
X95567524Y-131886390D02*
X95519905Y-131838771D01*
X95519905Y-131838771D02*
X95472286Y-131743533D01*
X95472286Y-131743533D02*
X95472286Y-131648295D01*
X95472286Y-131648295D02*
X95519905Y-131553057D01*
X95519905Y-131553057D02*
X95567524Y-131505438D01*
X95567524Y-131505438D02*
X95662762Y-131457819D01*
X95662762Y-131457819D02*
X95900857Y-131457819D01*
X95900857Y-131457819D02*
X96043714Y-131505438D01*
D11*
G36*
X96305235Y-99837002D02*
G01*
X96449122Y-99980888D01*
X96517638Y-100117920D01*
X96517638Y-100428053D01*
X96449122Y-100565084D01*
X96305235Y-100708970D01*
X95982507Y-100789653D01*
X95352768Y-100789653D01*
X95030040Y-100708971D01*
X94886154Y-100565085D01*
X94817638Y-100428053D01*
X94817638Y-100117920D01*
X94886154Y-99980888D01*
X95030040Y-99837002D01*
X95352768Y-99756320D01*
X95982507Y-99756320D01*
X96305235Y-99837002D01*
G37*
G36*
X95435926Y-97824836D02*
G01*
X95496741Y-97885650D01*
X95565257Y-98022682D01*
X95565257Y-98599177D01*
X94817638Y-98599177D01*
X94817638Y-98022682D01*
X94886154Y-97885650D01*
X94946968Y-97824836D01*
X95084000Y-97756320D01*
X95298894Y-97756320D01*
X95435926Y-97824836D01*
G37*
G36*
X97103352Y-103089653D02*
G01*
X94231924Y-103089653D01*
X94231924Y-102653939D01*
X94517638Y-102653939D01*
X94537734Y-102728939D01*
X94592638Y-102783843D01*
X94667638Y-102803939D01*
X94742638Y-102783843D01*
X94797542Y-102728939D01*
X94817638Y-102653939D01*
X94817638Y-102232511D01*
X96667638Y-102232511D01*
X96742638Y-102212415D01*
X96797542Y-102157511D01*
X96817638Y-102082511D01*
X96797542Y-102007511D01*
X96742638Y-101952607D01*
X96667638Y-101932511D01*
X94817638Y-101932511D01*
X94817638Y-101511082D01*
X94797542Y-101436082D01*
X94742638Y-101381178D01*
X94667638Y-101361082D01*
X94592638Y-101381178D01*
X94537734Y-101436082D01*
X94517638Y-101511082D01*
X94517638Y-102653939D01*
X94231924Y-102653939D01*
X94231924Y-100463463D01*
X94517638Y-100463463D01*
X94526561Y-100496764D01*
X94533474Y-100530545D01*
X94628712Y-100721021D01*
X94644734Y-100739089D01*
X94656810Y-100760005D01*
X94847286Y-100950481D01*
X94848414Y-100951132D01*
X94849085Y-100952250D01*
X94881945Y-100970491D01*
X94914529Y-100989304D01*
X94915834Y-100989304D01*
X94916972Y-100989936D01*
X95297923Y-101085174D01*
X95316426Y-101084862D01*
X95334304Y-101089653D01*
X96000971Y-101089653D01*
X96018847Y-101084862D01*
X96037351Y-101085174D01*
X96418303Y-100989936D01*
X96419441Y-100989304D01*
X96420746Y-100989304D01*
X96453329Y-100970491D01*
X96486190Y-100952250D01*
X96486860Y-100951132D01*
X96487989Y-100950481D01*
X96678465Y-100760006D01*
X96690540Y-100739090D01*
X96706564Y-100721021D01*
X96801802Y-100530545D01*
X96808714Y-100496766D01*
X96817638Y-100463463D01*
X96817638Y-100082510D01*
X96808714Y-100049206D01*
X96801802Y-100015428D01*
X96706564Y-99824952D01*
X96690540Y-99806882D01*
X96678465Y-99785967D01*
X96487989Y-99595492D01*
X96486860Y-99594840D01*
X96486190Y-99593723D01*
X96453329Y-99575481D01*
X96420746Y-99556669D01*
X96419441Y-99556669D01*
X96418303Y-99556037D01*
X96037351Y-99460799D01*
X96018847Y-99461110D01*
X96000971Y-99456320D01*
X95334304Y-99456320D01*
X95316426Y-99461110D01*
X95297923Y-99460799D01*
X94916972Y-99556037D01*
X94915834Y-99556669D01*
X94914529Y-99556669D01*
X94881945Y-99575481D01*
X94849085Y-99593723D01*
X94848414Y-99594840D01*
X94847286Y-99595492D01*
X94656810Y-99785968D01*
X94644734Y-99806883D01*
X94628712Y-99824952D01*
X94533474Y-100015428D01*
X94526561Y-100049208D01*
X94517638Y-100082510D01*
X94517638Y-100463463D01*
X94231924Y-100463463D01*
X94231924Y-98749177D01*
X94517638Y-98749177D01*
X94537734Y-98824177D01*
X94592638Y-98879081D01*
X94667638Y-98899177D01*
X95715257Y-98899177D01*
X96667638Y-98899177D01*
X96742638Y-98879081D01*
X96797542Y-98824177D01*
X96817638Y-98749177D01*
X96797542Y-98674177D01*
X96742638Y-98619273D01*
X96667638Y-98599177D01*
X95865257Y-98599177D01*
X95865257Y-97987272D01*
X95856333Y-97953968D01*
X95849421Y-97920190D01*
X95754183Y-97729714D01*
X95738159Y-97711644D01*
X95726085Y-97690730D01*
X95630845Y-97595491D01*
X95609930Y-97583416D01*
X95591862Y-97567394D01*
X95401386Y-97472156D01*
X95367605Y-97465243D01*
X95334304Y-97456320D01*
X95048590Y-97456320D01*
X95015286Y-97465243D01*
X94981508Y-97472156D01*
X94791032Y-97567394D01*
X94772962Y-97583417D01*
X94752048Y-97595492D01*
X94656810Y-97690730D01*
X94644734Y-97711645D01*
X94628712Y-97729714D01*
X94533474Y-97920190D01*
X94526561Y-97953970D01*
X94517638Y-97987272D01*
X94517638Y-98749177D01*
X94231924Y-98749177D01*
X94231924Y-97170606D01*
X97103352Y-97170606D01*
X97103352Y-103089653D01*
G37*
D10*
X99771458Y-85026819D02*
X99438125Y-84550628D01*
X99200030Y-85026819D02*
X99200030Y-84026819D01*
X99200030Y-84026819D02*
X99580982Y-84026819D01*
X99580982Y-84026819D02*
X99676220Y-84074438D01*
X99676220Y-84074438D02*
X99723839Y-84122057D01*
X99723839Y-84122057D02*
X99771458Y-84217295D01*
X99771458Y-84217295D02*
X99771458Y-84360152D01*
X99771458Y-84360152D02*
X99723839Y-84455390D01*
X99723839Y-84455390D02*
X99676220Y-84503009D01*
X99676220Y-84503009D02*
X99580982Y-84550628D01*
X99580982Y-84550628D02*
X99200030Y-84550628D01*
X100104792Y-84026819D02*
X100771458Y-85026819D01*
X100771458Y-84026819D02*
X100104792Y-85026819D01*
D11*
X127571809Y-66219638D02*
X128809904Y-66219638D01*
X128809904Y-66219638D02*
X128143237Y-66981542D01*
X128143237Y-66981542D02*
X128428952Y-66981542D01*
X128428952Y-66981542D02*
X128619428Y-67076780D01*
X128619428Y-67076780D02*
X128714666Y-67172019D01*
X128714666Y-67172019D02*
X128809904Y-67362495D01*
X128809904Y-67362495D02*
X128809904Y-67838685D01*
X128809904Y-67838685D02*
X128714666Y-68029161D01*
X128714666Y-68029161D02*
X128619428Y-68124400D01*
X128619428Y-68124400D02*
X128428952Y-68219638D01*
X128428952Y-68219638D02*
X127857523Y-68219638D01*
X127857523Y-68219638D02*
X127667047Y-68124400D01*
X127667047Y-68124400D02*
X127571809Y-68029161D01*
X129381333Y-66219638D02*
X130047999Y-68219638D01*
X130047999Y-68219638D02*
X130714666Y-66219638D01*
X131190857Y-66219638D02*
X132428952Y-66219638D01*
X132428952Y-66219638D02*
X131762285Y-66981542D01*
X131762285Y-66981542D02*
X132048000Y-66981542D01*
X132048000Y-66981542D02*
X132238476Y-67076780D01*
X132238476Y-67076780D02*
X132333714Y-67172019D01*
X132333714Y-67172019D02*
X132428952Y-67362495D01*
X132428952Y-67362495D02*
X132428952Y-67838685D01*
X132428952Y-67838685D02*
X132333714Y-68029161D01*
X132333714Y-68029161D02*
X132238476Y-68124400D01*
X132238476Y-68124400D02*
X132048000Y-68219638D01*
X132048000Y-68219638D02*
X131476571Y-68219638D01*
X131476571Y-68219638D02*
X131286095Y-68124400D01*
X131286095Y-68124400D02*
X131190857Y-68029161D01*
G36*
X185960307Y-100528039D02*
G01*
X186021122Y-100588853D01*
X186089638Y-100725885D01*
X186089638Y-101036018D01*
X186051695Y-101111904D01*
X185094247Y-101111904D01*
X185056304Y-101036018D01*
X185056304Y-100725885D01*
X185124820Y-100588853D01*
X185185633Y-100528039D01*
X185322667Y-100459523D01*
X185823275Y-100459523D01*
X185960307Y-100528039D01*
G37*
G36*
X185390000Y-99397618D02*
G01*
X185227429Y-99397618D01*
X185113345Y-99340576D01*
X185056304Y-99226494D01*
X185056304Y-98916361D01*
X185113345Y-98802278D01*
X185227429Y-98745237D01*
X185259525Y-98745237D01*
X185390000Y-99397618D01*
G37*
G36*
X184912688Y-96908991D02*
G01*
X184973501Y-96969804D01*
X185042019Y-97106838D01*
X185042019Y-97588094D01*
X184389638Y-97588094D01*
X184389638Y-97106837D01*
X184458154Y-96969805D01*
X184518968Y-96908991D01*
X184656000Y-96840475D01*
X184775656Y-96840475D01*
X184912688Y-96908991D01*
G37*
G36*
X185960307Y-96813753D02*
G01*
X186021122Y-96874567D01*
X186089638Y-97011599D01*
X186089638Y-97588094D01*
X185342019Y-97588094D01*
X185342019Y-97095767D01*
X185418361Y-96866741D01*
X185471349Y-96813753D01*
X185608381Y-96745237D01*
X185823275Y-96745237D01*
X185960307Y-96813753D01*
G37*
G36*
X187342018Y-105030952D02*
G01*
X183803924Y-105030952D01*
X183803924Y-104595238D01*
X184089638Y-104595238D01*
X184109734Y-104670238D01*
X184164638Y-104725142D01*
X184239638Y-104745238D01*
X184314638Y-104725142D01*
X184369542Y-104670238D01*
X184389638Y-104595238D01*
X184389638Y-104173810D01*
X186239638Y-104173810D01*
X186314638Y-104153714D01*
X186369542Y-104098810D01*
X186389638Y-104023810D01*
X186369542Y-103948810D01*
X186314638Y-103893906D01*
X186239638Y-103873810D01*
X184389638Y-103873810D01*
X184389638Y-103452381D01*
X184369542Y-103377381D01*
X184314638Y-103322477D01*
X184239638Y-103302381D01*
X184164638Y-103322477D01*
X184109734Y-103377381D01*
X184089638Y-103452381D01*
X184089638Y-104595238D01*
X183803924Y-104595238D01*
X183803924Y-102949251D01*
X184758743Y-102949251D01*
X184765043Y-103026640D01*
X184809193Y-103090512D01*
X184879365Y-103123751D01*
X184956754Y-103117451D01*
X186236631Y-102660352D01*
X186631532Y-102818312D01*
X186687788Y-102874568D01*
X186772140Y-103043272D01*
X186823656Y-103101367D01*
X186897317Y-103125921D01*
X186973386Y-103110354D01*
X187031481Y-103058839D01*
X187056035Y-102985178D01*
X187040468Y-102909108D01*
X186945230Y-102718632D01*
X186929206Y-102700562D01*
X186917132Y-102679648D01*
X186821894Y-102584410D01*
X186795730Y-102569304D01*
X186771536Y-102551204D01*
X186295347Y-102360728D01*
X186292470Y-102360384D01*
X186290089Y-102358739D01*
X184956754Y-101882548D01*
X184879365Y-101876248D01*
X184809193Y-101909487D01*
X184765043Y-101973359D01*
X184758743Y-102050748D01*
X184791982Y-102120920D01*
X184855854Y-102165070D01*
X185793657Y-102499999D01*
X184855854Y-102834929D01*
X184791982Y-102879079D01*
X184758743Y-102949251D01*
X183803924Y-102949251D01*
X183803924Y-101261904D01*
X184756304Y-101261904D01*
X184776400Y-101336904D01*
X184831304Y-101391808D01*
X184906304Y-101411904D01*
X186906304Y-101411904D01*
X186981304Y-101391808D01*
X187036208Y-101336904D01*
X187056304Y-101261904D01*
X187036208Y-101186904D01*
X186981304Y-101132000D01*
X186906304Y-101111904D01*
X186379247Y-101111904D01*
X186380714Y-101104731D01*
X186389638Y-101071428D01*
X186389638Y-100690475D01*
X186380714Y-100657171D01*
X186373802Y-100623393D01*
X186278564Y-100432917D01*
X186262540Y-100414847D01*
X186250466Y-100393933D01*
X186155226Y-100298694D01*
X186134311Y-100286619D01*
X186116243Y-100270597D01*
X185925767Y-100175359D01*
X185891986Y-100168446D01*
X185858685Y-100159523D01*
X185287257Y-100159523D01*
X185253951Y-100168447D01*
X185220176Y-100175359D01*
X185029698Y-100270597D01*
X185011628Y-100286620D01*
X184990714Y-100298695D01*
X184895476Y-100393933D01*
X184883400Y-100414848D01*
X184867378Y-100432917D01*
X184772140Y-100623393D01*
X184765227Y-100657173D01*
X184756304Y-100690475D01*
X184756304Y-101071428D01*
X184765227Y-101104729D01*
X184772140Y-101138510D01*
X184789691Y-101173612D01*
X184776400Y-101186904D01*
X184756304Y-101261904D01*
X183803924Y-101261904D01*
X183803924Y-99261904D01*
X184756304Y-99261904D01*
X184765227Y-99295205D01*
X184772140Y-99328986D01*
X184867378Y-99519462D01*
X184873463Y-99526324D01*
X184876365Y-99535029D01*
X184898908Y-99555019D01*
X184918894Y-99577557D01*
X184927596Y-99580457D01*
X184934460Y-99586544D01*
X185124938Y-99681782D01*
X185158713Y-99688693D01*
X185192019Y-99697618D01*
X185953923Y-99697618D01*
X185987226Y-99688694D01*
X186021005Y-99681782D01*
X186211482Y-99586544D01*
X186218344Y-99580458D01*
X186227049Y-99577557D01*
X186247036Y-99555016D01*
X186269577Y-99535029D01*
X186272478Y-99526324D01*
X186278564Y-99519462D01*
X186373802Y-99328986D01*
X186380714Y-99295207D01*
X186389638Y-99261904D01*
X186389638Y-98880951D01*
X186380714Y-98847647D01*
X186373802Y-98813869D01*
X186278564Y-98623393D01*
X186227049Y-98565298D01*
X186153387Y-98540744D01*
X186077318Y-98556311D01*
X186019223Y-98607826D01*
X185994669Y-98681488D01*
X186010236Y-98757557D01*
X186089638Y-98916361D01*
X186089638Y-99226494D01*
X186032596Y-99340577D01*
X185918513Y-99397618D01*
X185695941Y-99397618D01*
X185529582Y-98565820D01*
X185518733Y-98543879D01*
X185512399Y-98520237D01*
X185501807Y-98509645D01*
X185495168Y-98496217D01*
X185474801Y-98482639D01*
X185457495Y-98465333D01*
X185443025Y-98461455D01*
X185430562Y-98453147D01*
X185406137Y-98451571D01*
X185382495Y-98445237D01*
X185192019Y-98445237D01*
X185158713Y-98454161D01*
X185124938Y-98461073D01*
X184934460Y-98556311D01*
X184927596Y-98562397D01*
X184918894Y-98565298D01*
X184898908Y-98587835D01*
X184876365Y-98607826D01*
X184873463Y-98616530D01*
X184867378Y-98623393D01*
X184772140Y-98813869D01*
X184765227Y-98847649D01*
X184756304Y-98880951D01*
X184756304Y-99261904D01*
X183803924Y-99261904D01*
X183803924Y-97738094D01*
X184089638Y-97738094D01*
X184109734Y-97813094D01*
X184164638Y-97867998D01*
X184239638Y-97888094D01*
X185192019Y-97888094D01*
X186239638Y-97888094D01*
X186314638Y-97867998D01*
X186369542Y-97813094D01*
X186389638Y-97738094D01*
X186389638Y-96976189D01*
X186380714Y-96942885D01*
X186373802Y-96909107D01*
X186278564Y-96718631D01*
X186262540Y-96700561D01*
X186250466Y-96679647D01*
X186155226Y-96584408D01*
X186134311Y-96572333D01*
X186116243Y-96556311D01*
X185925767Y-96461073D01*
X185891986Y-96454160D01*
X185858685Y-96445237D01*
X185572971Y-96445237D01*
X185539667Y-96454160D01*
X185505889Y-96461073D01*
X185315413Y-96556311D01*
X185297343Y-96572334D01*
X185276429Y-96584409D01*
X185181191Y-96679647D01*
X185163949Y-96709509D01*
X185153419Y-96725458D01*
X185107608Y-96679647D01*
X185086692Y-96667571D01*
X185068624Y-96651549D01*
X184878148Y-96556311D01*
X184844367Y-96549398D01*
X184811066Y-96540475D01*
X184620590Y-96540475D01*
X184587286Y-96549398D01*
X184553508Y-96556311D01*
X184363032Y-96651549D01*
X184344962Y-96667572D01*
X184324048Y-96679647D01*
X184228810Y-96774885D01*
X184216734Y-96795800D01*
X184200712Y-96813869D01*
X184105474Y-97004345D01*
X184098561Y-97038125D01*
X184089638Y-97071427D01*
X184089638Y-97738094D01*
X183803924Y-97738094D01*
X183803924Y-96159523D01*
X187342018Y-96159523D01*
X187342018Y-105030952D01*
G37*
G36*
X132595413Y-49438361D02*
G01*
X132648401Y-49491349D01*
X132716917Y-49628381D01*
X132716917Y-49843275D01*
X132648400Y-49980307D01*
X132587586Y-50041122D01*
X132450555Y-50109638D01*
X131874060Y-50109638D01*
X131874060Y-49362019D01*
X132366387Y-49362019D01*
X132595413Y-49438361D01*
G37*
G36*
X132492349Y-48478154D02*
G01*
X132553163Y-48538968D01*
X132621679Y-48676000D01*
X132621679Y-48795656D01*
X132553163Y-48932688D01*
X132492349Y-48993501D01*
X132355316Y-49062019D01*
X131874060Y-49062019D01*
X131874060Y-48409638D01*
X132355317Y-48409638D01*
X132492349Y-48478154D01*
G37*
G36*
X136682825Y-48478154D02*
G01*
X136826711Y-48622040D01*
X136907393Y-48944768D01*
X136907393Y-49574507D01*
X136826710Y-49897235D01*
X136682824Y-50041122D01*
X136545793Y-50109638D01*
X136235660Y-50109638D01*
X136098628Y-50041122D01*
X135954742Y-49897235D01*
X135874060Y-49574506D01*
X135874060Y-48944768D01*
X135954742Y-48622039D01*
X136098628Y-48478154D01*
X136235660Y-48409638D01*
X136545793Y-48409638D01*
X136682825Y-48478154D01*
G37*
G36*
X138587587Y-48478154D02*
G01*
X138648401Y-48538968D01*
X138725390Y-48692946D01*
X138812155Y-49040006D01*
X138812155Y-49479269D01*
X138725390Y-49826329D01*
X138648400Y-49980307D01*
X138587586Y-50041122D01*
X138450555Y-50109638D01*
X138330898Y-50109638D01*
X138193866Y-50041122D01*
X138133052Y-49980307D01*
X138056063Y-49826329D01*
X137969298Y-49479268D01*
X137969298Y-49040006D01*
X138056063Y-48692945D01*
X138133052Y-48538968D01*
X138193866Y-48478154D01*
X138330898Y-48409638D01*
X138450555Y-48409638D01*
X138587587Y-48478154D01*
G37*
G36*
X143207393Y-50695352D02*
G01*
X131288346Y-50695352D01*
X131288346Y-50259638D01*
X131574060Y-50259638D01*
X131594156Y-50334638D01*
X131649060Y-50389542D01*
X131724060Y-50409638D01*
X132485965Y-50409638D01*
X132519266Y-50400714D01*
X132553047Y-50393802D01*
X132743523Y-50298564D01*
X132761591Y-50282541D01*
X132782508Y-50270465D01*
X132793335Y-50259638D01*
X133574060Y-50259638D01*
X133594156Y-50334638D01*
X133649060Y-50389542D01*
X133724060Y-50409638D01*
X133799060Y-50389542D01*
X133853964Y-50334638D01*
X133874060Y-50259638D01*
X133874060Y-48824472D01*
X134736680Y-50334059D01*
X134736923Y-50334304D01*
X134737013Y-50334638D01*
X134764177Y-50361802D01*
X134791339Y-50389207D01*
X134791673Y-50389298D01*
X134791917Y-50389542D01*
X134829017Y-50399482D01*
X134866249Y-50409637D01*
X134866584Y-50409548D01*
X134866917Y-50409638D01*
X134904122Y-50399668D01*
X134941338Y-50389874D01*
X134941582Y-50389631D01*
X134941917Y-50389542D01*
X134969137Y-50362321D01*
X134996486Y-50335216D01*
X134996577Y-50334881D01*
X134996821Y-50334638D01*
X135006761Y-50297537D01*
X135016916Y-50260306D01*
X135016827Y-50259970D01*
X135016917Y-50259638D01*
X135016917Y-49592971D01*
X135574060Y-49592971D01*
X135578850Y-49610847D01*
X135578539Y-49629351D01*
X135673777Y-50010303D01*
X135674409Y-50011441D01*
X135674409Y-50012746D01*
X135693221Y-50045329D01*
X135711463Y-50078190D01*
X135712580Y-50078860D01*
X135713232Y-50079989D01*
X135903707Y-50270465D01*
X135924622Y-50282540D01*
X135942692Y-50298564D01*
X136133168Y-50393802D01*
X136166946Y-50400714D01*
X136200250Y-50409638D01*
X136581203Y-50409638D01*
X136614504Y-50400714D01*
X136648285Y-50393802D01*
X136838761Y-50298564D01*
X136856829Y-50282541D01*
X136877745Y-50270466D01*
X137068221Y-50079989D01*
X137068872Y-50078860D01*
X137069990Y-50078190D01*
X137088231Y-50045329D01*
X137107044Y-50012746D01*
X137107044Y-50011441D01*
X137107676Y-50010303D01*
X137202914Y-49629352D01*
X137202602Y-49610848D01*
X137207393Y-49592971D01*
X137207393Y-49497733D01*
X137669298Y-49497733D01*
X137674088Y-49515609D01*
X137673777Y-49534113D01*
X137769015Y-49915065D01*
X137777051Y-49929542D01*
X137780372Y-49945767D01*
X137875610Y-50136243D01*
X137891632Y-50154311D01*
X137903707Y-50175226D01*
X137998946Y-50270466D01*
X138019860Y-50282540D01*
X138037930Y-50298564D01*
X138228406Y-50393802D01*
X138262184Y-50400714D01*
X138295488Y-50409638D01*
X138485965Y-50409638D01*
X138519266Y-50400714D01*
X138553047Y-50393802D01*
X138743523Y-50298564D01*
X138761591Y-50282541D01*
X138782508Y-50270465D01*
X138877746Y-50175226D01*
X138889821Y-50154311D01*
X138905843Y-50136243D01*
X139001081Y-49945767D01*
X139004401Y-49929542D01*
X139012438Y-49915065D01*
X139107676Y-49534114D01*
X139107364Y-49515610D01*
X139112155Y-49497733D01*
X139112155Y-49197093D01*
X139574804Y-49197093D01*
X139579171Y-49223791D01*
X139579171Y-49250843D01*
X139585344Y-49261536D01*
X139587338Y-49273721D01*
X139604469Y-49294659D01*
X139617995Y-49318086D01*
X139628686Y-49324258D01*
X139636506Y-49333816D01*
X139661813Y-49343384D01*
X139685238Y-49356908D01*
X139697583Y-49356908D01*
X139709134Y-49361275D01*
X139735832Y-49356908D01*
X139762884Y-49356908D01*
X139773577Y-49350734D01*
X139785762Y-49348741D01*
X139806700Y-49331609D01*
X139830127Y-49318084D01*
X139908152Y-49240057D01*
X140045184Y-49171542D01*
X140450555Y-49171542D01*
X140587586Y-49240057D01*
X140648400Y-49300872D01*
X140716917Y-49437905D01*
X140716917Y-49843275D01*
X140648400Y-49980307D01*
X140587586Y-50041122D01*
X140450555Y-50109638D01*
X140045184Y-50109638D01*
X139908152Y-50041122D01*
X139830127Y-49963096D01*
X139762884Y-49924272D01*
X139685238Y-49924272D01*
X139617995Y-49963094D01*
X139579171Y-50030337D01*
X139579171Y-50107983D01*
X139617993Y-50175226D01*
X139713232Y-50270466D01*
X139734146Y-50282540D01*
X139752216Y-50298564D01*
X139942692Y-50393802D01*
X139976470Y-50400714D01*
X140009774Y-50409638D01*
X140485965Y-50409638D01*
X140519266Y-50400714D01*
X140553047Y-50393802D01*
X140743523Y-50298564D01*
X140761591Y-50282541D01*
X140782508Y-50270465D01*
X140877746Y-50175226D01*
X140889821Y-50154311D01*
X140905843Y-50136243D01*
X141001081Y-49945767D01*
X141007993Y-49911988D01*
X141016917Y-49878685D01*
X141016917Y-49402495D01*
X141007993Y-49369191D01*
X141001081Y-49335413D01*
X140931921Y-49197093D01*
X141479566Y-49197093D01*
X141483933Y-49223791D01*
X141483933Y-49250843D01*
X141490106Y-49261536D01*
X141492100Y-49273721D01*
X141509231Y-49294659D01*
X141522757Y-49318086D01*
X141533448Y-49324258D01*
X141541268Y-49333816D01*
X141566575Y-49343384D01*
X141590000Y-49356908D01*
X141602345Y-49356908D01*
X141613896Y-49361275D01*
X141640594Y-49356908D01*
X141667646Y-49356908D01*
X141678339Y-49350734D01*
X141690524Y-49348741D01*
X141711462Y-49331609D01*
X141734889Y-49318084D01*
X141812914Y-49240057D01*
X141949946Y-49171542D01*
X142355317Y-49171542D01*
X142492348Y-49240057D01*
X142553162Y-49300872D01*
X142621679Y-49437905D01*
X142621679Y-49843275D01*
X142553162Y-49980307D01*
X142492348Y-50041122D01*
X142355317Y-50109638D01*
X141949946Y-50109638D01*
X141812914Y-50041122D01*
X141734889Y-49963096D01*
X141667646Y-49924272D01*
X141590000Y-49924272D01*
X141522757Y-49963094D01*
X141483933Y-50030337D01*
X141483933Y-50107983D01*
X141522755Y-50175226D01*
X141617994Y-50270466D01*
X141638908Y-50282540D01*
X141656978Y-50298564D01*
X141847454Y-50393802D01*
X141881232Y-50400714D01*
X141914536Y-50409638D01*
X142390727Y-50409638D01*
X142424028Y-50400714D01*
X142457809Y-50393802D01*
X142648285Y-50298564D01*
X142666353Y-50282541D01*
X142687270Y-50270465D01*
X142782508Y-50175226D01*
X142794583Y-50154311D01*
X142810605Y-50136243D01*
X142905843Y-49945767D01*
X142912755Y-49911988D01*
X142921679Y-49878685D01*
X142921679Y-49402495D01*
X142912755Y-49369191D01*
X142905843Y-49335413D01*
X142810605Y-49144937D01*
X142794583Y-49126868D01*
X142782508Y-49105954D01*
X142687270Y-49010715D01*
X142666353Y-48998638D01*
X142648285Y-48982616D01*
X142457809Y-48887378D01*
X142424028Y-48880465D01*
X142390727Y-48871542D01*
X141914536Y-48871542D01*
X141881232Y-48880465D01*
X141847454Y-48887378D01*
X141810170Y-48906019D01*
X141859809Y-48409638D01*
X142676441Y-48409638D01*
X142751441Y-48389542D01*
X142806345Y-48334638D01*
X142826441Y-48259638D01*
X142806345Y-48184638D01*
X142751441Y-48129734D01*
X142676441Y-48109638D01*
X141724060Y-48109638D01*
X141693541Y-48117815D01*
X141662358Y-48122916D01*
X141656442Y-48127755D01*
X141649060Y-48129734D01*
X141626720Y-48152073D01*
X141602263Y-48172084D01*
X141599559Y-48179234D01*
X141594156Y-48184638D01*
X141585979Y-48215154D01*
X141574804Y-48244713D01*
X141479566Y-49197093D01*
X140931921Y-49197093D01*
X140905843Y-49144937D01*
X140889821Y-49126868D01*
X140877746Y-49105954D01*
X140782508Y-49010715D01*
X140761591Y-48998638D01*
X140743523Y-48982616D01*
X140553047Y-48887378D01*
X140519266Y-48880465D01*
X140485965Y-48871542D01*
X140009774Y-48871542D01*
X139976470Y-48880465D01*
X139942692Y-48887378D01*
X139905408Y-48906019D01*
X139955047Y-48409638D01*
X140771679Y-48409638D01*
X140846679Y-48389542D01*
X140901583Y-48334638D01*
X140921679Y-48259638D01*
X140901583Y-48184638D01*
X140846679Y-48129734D01*
X140771679Y-48109638D01*
X139819298Y-48109638D01*
X139788779Y-48117815D01*
X139757596Y-48122916D01*
X139751680Y-48127755D01*
X139744298Y-48129734D01*
X139721958Y-48152073D01*
X139697501Y-48172084D01*
X139694797Y-48179234D01*
X139689394Y-48184638D01*
X139681217Y-48215154D01*
X139670042Y-48244713D01*
X139574804Y-49197093D01*
X139112155Y-49197093D01*
X139112155Y-49021542D01*
X139107364Y-49003664D01*
X139107676Y-48985161D01*
X139012438Y-48604210D01*
X139004401Y-48589732D01*
X139001081Y-48573508D01*
X138905843Y-48383032D01*
X138889819Y-48364962D01*
X138877745Y-48344048D01*
X138782507Y-48248810D01*
X138761591Y-48236734D01*
X138743523Y-48220712D01*
X138553047Y-48125474D01*
X138519266Y-48118561D01*
X138485965Y-48109638D01*
X138295488Y-48109638D01*
X138262184Y-48118561D01*
X138228406Y-48125474D01*
X138037930Y-48220712D01*
X138019860Y-48236735D01*
X137998946Y-48248810D01*
X137903708Y-48344048D01*
X137891632Y-48364963D01*
X137875610Y-48383032D01*
X137780372Y-48573508D01*
X137777051Y-48589732D01*
X137769015Y-48604210D01*
X137673777Y-48985162D01*
X137674088Y-49003665D01*
X137669298Y-49021542D01*
X137669298Y-49497733D01*
X137207393Y-49497733D01*
X137207393Y-48926304D01*
X137202602Y-48908426D01*
X137202914Y-48889923D01*
X137107676Y-48508972D01*
X137107044Y-48507833D01*
X137107044Y-48506529D01*
X137088231Y-48473945D01*
X137069990Y-48441085D01*
X137068872Y-48440414D01*
X137068221Y-48439286D01*
X136877745Y-48248810D01*
X136856829Y-48236734D01*
X136838761Y-48220712D01*
X136648285Y-48125474D01*
X136614504Y-48118561D01*
X136581203Y-48109638D01*
X136200250Y-48109638D01*
X136166946Y-48118561D01*
X136133168Y-48125474D01*
X135942692Y-48220712D01*
X135924622Y-48236735D01*
X135903708Y-48248810D01*
X135713232Y-48439286D01*
X135712580Y-48440414D01*
X135711463Y-48441085D01*
X135693221Y-48473945D01*
X135674409Y-48506529D01*
X135674409Y-48507833D01*
X135673777Y-48508972D01*
X135578539Y-48889924D01*
X135578850Y-48908427D01*
X135574060Y-48926304D01*
X135574060Y-49592971D01*
X135016917Y-49592971D01*
X135016917Y-48259638D01*
X134996821Y-48184638D01*
X134941917Y-48129734D01*
X134866917Y-48109638D01*
X134791917Y-48129734D01*
X134737013Y-48184638D01*
X134716917Y-48259638D01*
X134716917Y-49694803D01*
X133854296Y-48185217D01*
X133854053Y-48184972D01*
X133853964Y-48184638D01*
X133826743Y-48157417D01*
X133799638Y-48130069D01*
X133799303Y-48129977D01*
X133799060Y-48129734D01*
X133761959Y-48119793D01*
X133724728Y-48109639D01*
X133724392Y-48109727D01*
X133724060Y-48109638D01*
X133686854Y-48119607D01*
X133649639Y-48129402D01*
X133649394Y-48129644D01*
X133649060Y-48129734D01*
X133621839Y-48156954D01*
X133594491Y-48184060D01*
X133594399Y-48184394D01*
X133594156Y-48184638D01*
X133584215Y-48221738D01*
X133574061Y-48258970D01*
X133574149Y-48259305D01*
X133574060Y-48259638D01*
X133574060Y-50259638D01*
X132793335Y-50259638D01*
X132877746Y-50175226D01*
X132889821Y-50154311D01*
X132905843Y-50136243D01*
X133001081Y-49945767D01*
X133007993Y-49911988D01*
X133016917Y-49878685D01*
X133016917Y-49592971D01*
X133007993Y-49559667D01*
X133001081Y-49525889D01*
X132905843Y-49335413D01*
X132889819Y-49317343D01*
X132877745Y-49296429D01*
X132782507Y-49201191D01*
X132752644Y-49183949D01*
X132736695Y-49173419D01*
X132782507Y-49127608D01*
X132794581Y-49106693D01*
X132810605Y-49088624D01*
X132905843Y-48898148D01*
X132912755Y-48864369D01*
X132921679Y-48831066D01*
X132921679Y-48640590D01*
X132912755Y-48607286D01*
X132905843Y-48573508D01*
X132810605Y-48383032D01*
X132794581Y-48364962D01*
X132782507Y-48344048D01*
X132687269Y-48248810D01*
X132666353Y-48236734D01*
X132648285Y-48220712D01*
X132457809Y-48125474D01*
X132424028Y-48118561D01*
X132390727Y-48109638D01*
X131724060Y-48109638D01*
X131649060Y-48129734D01*
X131594156Y-48184638D01*
X131574060Y-48259638D01*
X131574060Y-50259638D01*
X131288346Y-50259638D01*
X131288346Y-47823924D01*
X143207393Y-47823924D01*
X143207393Y-50695352D01*
G37*
D10*
X92376667Y-68211819D02*
X92710000Y-69211819D01*
X92710000Y-69211819D02*
X93043333Y-68211819D01*
X99342458Y-99387819D02*
X99009125Y-98911628D01*
X98771030Y-99387819D02*
X98771030Y-98387819D01*
X98771030Y-98387819D02*
X99151982Y-98387819D01*
X99151982Y-98387819D02*
X99247220Y-98435438D01*
X99247220Y-98435438D02*
X99294839Y-98483057D01*
X99294839Y-98483057D02*
X99342458Y-98578295D01*
X99342458Y-98578295D02*
X99342458Y-98721152D01*
X99342458Y-98721152D02*
X99294839Y-98816390D01*
X99294839Y-98816390D02*
X99247220Y-98864009D01*
X99247220Y-98864009D02*
X99151982Y-98911628D01*
X99151982Y-98911628D02*
X98771030Y-98911628D01*
X99675792Y-98387819D02*
X100342458Y-99387819D01*
X100342458Y-98387819D02*
X99675792Y-99387819D01*
D11*
X148844190Y-66060876D02*
X148653714Y-65965638D01*
X148653714Y-65965638D02*
X148368000Y-65965638D01*
X148368000Y-65965638D02*
X148082285Y-66060876D01*
X148082285Y-66060876D02*
X147891809Y-66251352D01*
X147891809Y-66251352D02*
X147796571Y-66441828D01*
X147796571Y-66441828D02*
X147701333Y-66822780D01*
X147701333Y-66822780D02*
X147701333Y-67108495D01*
X147701333Y-67108495D02*
X147796571Y-67489447D01*
X147796571Y-67489447D02*
X147891809Y-67679923D01*
X147891809Y-67679923D02*
X148082285Y-67870400D01*
X148082285Y-67870400D02*
X148368000Y-67965638D01*
X148368000Y-67965638D02*
X148558476Y-67965638D01*
X148558476Y-67965638D02*
X148844190Y-67870400D01*
X148844190Y-67870400D02*
X148939428Y-67775161D01*
X148939428Y-67775161D02*
X148939428Y-67108495D01*
X148939428Y-67108495D02*
X148558476Y-67108495D01*
X149796571Y-67965638D02*
X149796571Y-65965638D01*
X149796571Y-65965638D02*
X150939428Y-67965638D01*
X150939428Y-67965638D02*
X150939428Y-65965638D01*
X151891809Y-67965638D02*
X151891809Y-65965638D01*
X151891809Y-65965638D02*
X152367999Y-65965638D01*
X152367999Y-65965638D02*
X152653714Y-66060876D01*
X152653714Y-66060876D02*
X152844190Y-66251352D01*
X152844190Y-66251352D02*
X152939428Y-66441828D01*
X152939428Y-66441828D02*
X153034666Y-66822780D01*
X153034666Y-66822780D02*
X153034666Y-67108495D01*
X153034666Y-67108495D02*
X152939428Y-67489447D01*
X152939428Y-67489447D02*
X152844190Y-67679923D01*
X152844190Y-67679923D02*
X152653714Y-67870400D01*
X152653714Y-67870400D02*
X152367999Y-67965638D01*
X152367999Y-67965638D02*
X151891809Y-67965638D01*
D10*
X98199601Y-95895438D02*
X98104363Y-95847819D01*
X98104363Y-95847819D02*
X97961506Y-95847819D01*
X97961506Y-95847819D02*
X97818649Y-95895438D01*
X97818649Y-95895438D02*
X97723411Y-95990676D01*
X97723411Y-95990676D02*
X97675792Y-96085914D01*
X97675792Y-96085914D02*
X97628173Y-96276390D01*
X97628173Y-96276390D02*
X97628173Y-96419247D01*
X97628173Y-96419247D02*
X97675792Y-96609723D01*
X97675792Y-96609723D02*
X97723411Y-96704961D01*
X97723411Y-96704961D02*
X97818649Y-96800200D01*
X97818649Y-96800200D02*
X97961506Y-96847819D01*
X97961506Y-96847819D02*
X98056744Y-96847819D01*
X98056744Y-96847819D02*
X98199601Y-96800200D01*
X98199601Y-96800200D02*
X98247220Y-96752580D01*
X98247220Y-96752580D02*
X98247220Y-96419247D01*
X98247220Y-96419247D02*
X98056744Y-96419247D01*
X98675792Y-96847819D02*
X98675792Y-95847819D01*
X98675792Y-95847819D02*
X99247220Y-96847819D01*
X99247220Y-96847819D02*
X99247220Y-95847819D01*
X99723411Y-96847819D02*
X99723411Y-95847819D01*
X99723411Y-95847819D02*
X99961506Y-95847819D01*
X99961506Y-95847819D02*
X100104363Y-95895438D01*
X100104363Y-95895438D02*
X100199601Y-95990676D01*
X100199601Y-95990676D02*
X100247220Y-96085914D01*
X100247220Y-96085914D02*
X100294839Y-96276390D01*
X100294839Y-96276390D02*
X100294839Y-96419247D01*
X100294839Y-96419247D02*
X100247220Y-96609723D01*
X100247220Y-96609723D02*
X100199601Y-96704961D01*
X100199601Y-96704961D02*
X100104363Y-96800200D01*
X100104363Y-96800200D02*
X99961506Y-96847819D01*
X99961506Y-96847819D02*
X99723411Y-96847819D01*
D11*
G36*
X95615393Y-115645352D02*
G01*
X89124917Y-115645352D01*
X89124917Y-115209638D01*
X89410631Y-115209638D01*
X89430727Y-115284638D01*
X89485631Y-115339542D01*
X89560631Y-115359638D01*
X90513012Y-115359638D01*
X90588012Y-115339542D01*
X90642916Y-115284638D01*
X90663012Y-115209638D01*
X91029679Y-115209638D01*
X91049775Y-115284638D01*
X91104679Y-115339542D01*
X91179679Y-115359638D01*
X91254679Y-115339542D01*
X91309583Y-115284638D01*
X91329679Y-115209638D01*
X91982060Y-115209638D01*
X92002156Y-115284638D01*
X92057060Y-115339542D01*
X92132060Y-115359638D01*
X92207060Y-115339542D01*
X92261964Y-115284638D01*
X92282060Y-115209638D01*
X92282060Y-113774472D01*
X93144680Y-115284059D01*
X93144923Y-115284304D01*
X93145013Y-115284638D01*
X93172177Y-115311802D01*
X93199339Y-115339207D01*
X93199673Y-115339298D01*
X93199917Y-115339542D01*
X93237017Y-115349482D01*
X93274249Y-115359637D01*
X93274584Y-115359548D01*
X93274917Y-115359638D01*
X93312122Y-115349668D01*
X93349338Y-115339874D01*
X93349582Y-115339631D01*
X93349917Y-115339542D01*
X93377137Y-115312321D01*
X93404486Y-115285216D01*
X93404577Y-115284881D01*
X93404821Y-115284638D01*
X93414761Y-115247537D01*
X93424916Y-115210306D01*
X93424827Y-115209970D01*
X93424917Y-115209638D01*
X94077298Y-115209638D01*
X94097394Y-115284638D01*
X94152298Y-115339542D01*
X94227298Y-115359638D01*
X95179679Y-115359638D01*
X95254679Y-115339542D01*
X95309583Y-115284638D01*
X95329679Y-115209638D01*
X95309583Y-115134638D01*
X95254679Y-115079734D01*
X95179679Y-115059638D01*
X94377298Y-115059638D01*
X94377298Y-114312019D01*
X94893965Y-114312019D01*
X94968965Y-114291923D01*
X95023869Y-114237019D01*
X95043965Y-114162019D01*
X95023869Y-114087019D01*
X94968965Y-114032115D01*
X94893965Y-114012019D01*
X94377298Y-114012019D01*
X94377298Y-113359638D01*
X95179679Y-113359638D01*
X95254679Y-113339542D01*
X95309583Y-113284638D01*
X95329679Y-113209638D01*
X95309583Y-113134638D01*
X95254679Y-113079734D01*
X95179679Y-113059638D01*
X94227298Y-113059638D01*
X94152298Y-113079734D01*
X94097394Y-113134638D01*
X94077298Y-113209638D01*
X94077298Y-115209638D01*
X93424917Y-115209638D01*
X93424917Y-113209638D01*
X93404821Y-113134638D01*
X93349917Y-113079734D01*
X93274917Y-113059638D01*
X93199917Y-113079734D01*
X93145013Y-113134638D01*
X93124917Y-113209638D01*
X93124917Y-114644803D01*
X92262296Y-113135217D01*
X92262053Y-113134972D01*
X92261964Y-113134638D01*
X92234743Y-113107417D01*
X92207638Y-113080069D01*
X92207303Y-113079977D01*
X92207060Y-113079734D01*
X92169959Y-113069793D01*
X92132728Y-113059639D01*
X92132392Y-113059727D01*
X92132060Y-113059638D01*
X92094854Y-113069607D01*
X92057639Y-113079402D01*
X92057394Y-113079644D01*
X92057060Y-113079734D01*
X92029839Y-113106954D01*
X92002491Y-113134060D01*
X92002399Y-113134394D01*
X92002156Y-113134638D01*
X91992215Y-113171738D01*
X91982061Y-113208970D01*
X91982149Y-113209305D01*
X91982060Y-113209638D01*
X91982060Y-115209638D01*
X91329679Y-115209638D01*
X91329679Y-113209638D01*
X91309583Y-113134638D01*
X91254679Y-113079734D01*
X91179679Y-113059638D01*
X91104679Y-113079734D01*
X91049775Y-113134638D01*
X91029679Y-113209638D01*
X91029679Y-115209638D01*
X90663012Y-115209638D01*
X90642916Y-115134638D01*
X90588012Y-115079734D01*
X90513012Y-115059638D01*
X89710631Y-115059638D01*
X89710631Y-113209638D01*
X89690535Y-113134638D01*
X89635631Y-113079734D01*
X89560631Y-113059638D01*
X89485631Y-113079734D01*
X89430727Y-113134638D01*
X89410631Y-113209638D01*
X89410631Y-115209638D01*
X89124917Y-115209638D01*
X89124917Y-112773924D01*
X95615393Y-112773924D01*
X95615393Y-115645352D01*
G37*
D10*
X120181952Y-123248057D02*
X120229571Y-123200438D01*
X120229571Y-123200438D02*
X120324809Y-123152819D01*
X120324809Y-123152819D02*
X120562904Y-123152819D01*
X120562904Y-123152819D02*
X120658142Y-123200438D01*
X120658142Y-123200438D02*
X120705761Y-123248057D01*
X120705761Y-123248057D02*
X120753380Y-123343295D01*
X120753380Y-123343295D02*
X120753380Y-123438533D01*
X120753380Y-123438533D02*
X120705761Y-123581390D01*
X120705761Y-123581390D02*
X120134333Y-124152819D01*
X120134333Y-124152819D02*
X120753380Y-124152819D01*
X121134333Y-123248057D02*
X121181952Y-123200438D01*
X121181952Y-123200438D02*
X121277190Y-123152819D01*
X121277190Y-123152819D02*
X121515285Y-123152819D01*
X121515285Y-123152819D02*
X121610523Y-123200438D01*
X121610523Y-123200438D02*
X121658142Y-123248057D01*
X121658142Y-123248057D02*
X121705761Y-123343295D01*
X121705761Y-123343295D02*
X121705761Y-123438533D01*
X121705761Y-123438533D02*
X121658142Y-123581390D01*
X121658142Y-123581390D02*
X121086714Y-124152819D01*
X121086714Y-124152819D02*
X121705761Y-124152819D01*
X122324809Y-123152819D02*
X122420047Y-123152819D01*
X122420047Y-123152819D02*
X122515285Y-123200438D01*
X122515285Y-123200438D02*
X122562904Y-123248057D01*
X122562904Y-123248057D02*
X122610523Y-123343295D01*
X122610523Y-123343295D02*
X122658142Y-123533771D01*
X122658142Y-123533771D02*
X122658142Y-123771866D01*
X122658142Y-123771866D02*
X122610523Y-123962342D01*
X122610523Y-123962342D02*
X122562904Y-124057580D01*
X122562904Y-124057580D02*
X122515285Y-124105200D01*
X122515285Y-124105200D02*
X122420047Y-124152819D01*
X122420047Y-124152819D02*
X122324809Y-124152819D01*
X122324809Y-124152819D02*
X122229571Y-124105200D01*
X122229571Y-124105200D02*
X122181952Y-124057580D01*
X122181952Y-124057580D02*
X122134333Y-123962342D01*
X122134333Y-123962342D02*
X122086714Y-123771866D01*
X122086714Y-123771866D02*
X122086714Y-123533771D01*
X122086714Y-123533771D02*
X122134333Y-123343295D01*
X122134333Y-123343295D02*
X122181952Y-123248057D01*
X122181952Y-123248057D02*
X122229571Y-123200438D01*
X122229571Y-123200438D02*
X122324809Y-123152819D01*
X123515285Y-123486152D02*
X123515285Y-124152819D01*
X123086714Y-123486152D02*
X123086714Y-124009961D01*
X123086714Y-124009961D02*
X123134333Y-124105200D01*
X123134333Y-124105200D02*
X123229571Y-124152819D01*
X123229571Y-124152819D02*
X123372428Y-124152819D01*
X123372428Y-124152819D02*
X123467666Y-124105200D01*
X123467666Y-124105200D02*
X123515285Y-124057580D01*
X124324809Y-123629009D02*
X123991476Y-123629009D01*
X123991476Y-124152819D02*
X123991476Y-123152819D01*
X123991476Y-123152819D02*
X124467666Y-123152819D01*
X99390077Y-103340819D02*
X98913887Y-103340819D01*
X98913887Y-103340819D02*
X98866268Y-103817009D01*
X98866268Y-103817009D02*
X98913887Y-103769390D01*
X98913887Y-103769390D02*
X99009125Y-103721771D01*
X99009125Y-103721771D02*
X99247220Y-103721771D01*
X99247220Y-103721771D02*
X99342458Y-103769390D01*
X99342458Y-103769390D02*
X99390077Y-103817009D01*
X99390077Y-103817009D02*
X99437696Y-103912247D01*
X99437696Y-103912247D02*
X99437696Y-104150342D01*
X99437696Y-104150342D02*
X99390077Y-104245580D01*
X99390077Y-104245580D02*
X99342458Y-104293200D01*
X99342458Y-104293200D02*
X99247220Y-104340819D01*
X99247220Y-104340819D02*
X99009125Y-104340819D01*
X99009125Y-104340819D02*
X98913887Y-104293200D01*
X98913887Y-104293200D02*
X98866268Y-104245580D01*
X99723411Y-103340819D02*
X100056744Y-104340819D01*
X100056744Y-104340819D02*
X100390077Y-103340819D01*
X159372180Y-71548667D02*
X158372180Y-71882000D01*
X158372180Y-71882000D02*
X159372180Y-72215333D01*
D11*
X129895939Y-131751638D02*
X128943558Y-131751638D01*
X128943558Y-131751638D02*
X128848320Y-132704019D01*
X128848320Y-132704019D02*
X128943558Y-132608780D01*
X128943558Y-132608780D02*
X129134034Y-132513542D01*
X129134034Y-132513542D02*
X129610225Y-132513542D01*
X129610225Y-132513542D02*
X129800701Y-132608780D01*
X129800701Y-132608780D02*
X129895939Y-132704019D01*
X129895939Y-132704019D02*
X129991177Y-132894495D01*
X129991177Y-132894495D02*
X129991177Y-133370685D01*
X129991177Y-133370685D02*
X129895939Y-133561161D01*
X129895939Y-133561161D02*
X129800701Y-133656400D01*
X129800701Y-133656400D02*
X129610225Y-133751638D01*
X129610225Y-133751638D02*
X129134034Y-133751638D01*
X129134034Y-133751638D02*
X128943558Y-133656400D01*
X128943558Y-133656400D02*
X128848320Y-133561161D01*
X130562606Y-131751638D02*
X131229272Y-133751638D01*
X131229272Y-133751638D02*
X131895939Y-131751638D01*
D10*
X94964286Y-69164200D02*
X95107143Y-69211819D01*
X95107143Y-69211819D02*
X95345238Y-69211819D01*
X95345238Y-69211819D02*
X95440476Y-69164200D01*
X95440476Y-69164200D02*
X95488095Y-69116580D01*
X95488095Y-69116580D02*
X95535714Y-69021342D01*
X95535714Y-69021342D02*
X95535714Y-68926104D01*
X95535714Y-68926104D02*
X95488095Y-68830866D01*
X95488095Y-68830866D02*
X95440476Y-68783247D01*
X95440476Y-68783247D02*
X95345238Y-68735628D01*
X95345238Y-68735628D02*
X95154762Y-68688009D01*
X95154762Y-68688009D02*
X95059524Y-68640390D01*
X95059524Y-68640390D02*
X95011905Y-68592771D01*
X95011905Y-68592771D02*
X94964286Y-68497533D01*
X94964286Y-68497533D02*
X94964286Y-68402295D01*
X94964286Y-68402295D02*
X95011905Y-68307057D01*
X95011905Y-68307057D02*
X95059524Y-68259438D01*
X95059524Y-68259438D02*
X95154762Y-68211819D01*
X95154762Y-68211819D02*
X95392857Y-68211819D01*
X95392857Y-68211819D02*
X95535714Y-68259438D01*
X96210588Y-127752438D02*
X96115350Y-127704819D01*
X96115350Y-127704819D02*
X95972493Y-127704819D01*
X95972493Y-127704819D02*
X95829636Y-127752438D01*
X95829636Y-127752438D02*
X95734398Y-127847676D01*
X95734398Y-127847676D02*
X95686779Y-127942914D01*
X95686779Y-127942914D02*
X95639160Y-128133390D01*
X95639160Y-128133390D02*
X95639160Y-128276247D01*
X95639160Y-128276247D02*
X95686779Y-128466723D01*
X95686779Y-128466723D02*
X95734398Y-128561961D01*
X95734398Y-128561961D02*
X95829636Y-128657200D01*
X95829636Y-128657200D02*
X95972493Y-128704819D01*
X95972493Y-128704819D02*
X96067731Y-128704819D01*
X96067731Y-128704819D02*
X96210588Y-128657200D01*
X96210588Y-128657200D02*
X96258207Y-128609580D01*
X96258207Y-128609580D02*
X96258207Y-128276247D01*
X96258207Y-128276247D02*
X96067731Y-128276247D01*
X96686779Y-128704819D02*
X96686779Y-127704819D01*
X96686779Y-127704819D02*
X97258207Y-128704819D01*
X97258207Y-128704819D02*
X97258207Y-127704819D01*
X97734398Y-128704819D02*
X97734398Y-127704819D01*
X97734398Y-127704819D02*
X97972493Y-127704819D01*
X97972493Y-127704819D02*
X98115350Y-127752438D01*
X98115350Y-127752438D02*
X98210588Y-127847676D01*
X98210588Y-127847676D02*
X98258207Y-127942914D01*
X98258207Y-127942914D02*
X98305826Y-128133390D01*
X98305826Y-128133390D02*
X98305826Y-128276247D01*
X98305826Y-128276247D02*
X98258207Y-128466723D01*
X98258207Y-128466723D02*
X98210588Y-128561961D01*
X98210588Y-128561961D02*
X98115350Y-128657200D01*
X98115350Y-128657200D02*
X97972493Y-128704819D01*
X97972493Y-128704819D02*
X97734398Y-128704819D01*
X125234458Y-33565180D02*
X124567792Y-32565180D01*
X124567792Y-33565180D02*
X125234458Y-32565180D01*
X92884667Y-131457819D02*
X93218000Y-132457819D01*
X93218000Y-132457819D02*
X93551333Y-131457819D01*
X138723952Y-124264057D02*
X138771571Y-124216438D01*
X138771571Y-124216438D02*
X138866809Y-124168819D01*
X138866809Y-124168819D02*
X139104904Y-124168819D01*
X139104904Y-124168819D02*
X139200142Y-124216438D01*
X139200142Y-124216438D02*
X139247761Y-124264057D01*
X139247761Y-124264057D02*
X139295380Y-124359295D01*
X139295380Y-124359295D02*
X139295380Y-124454533D01*
X139295380Y-124454533D02*
X139247761Y-124597390D01*
X139247761Y-124597390D02*
X138676333Y-125168819D01*
X138676333Y-125168819D02*
X139295380Y-125168819D01*
X139676333Y-124264057D02*
X139723952Y-124216438D01*
X139723952Y-124216438D02*
X139819190Y-124168819D01*
X139819190Y-124168819D02*
X140057285Y-124168819D01*
X140057285Y-124168819D02*
X140152523Y-124216438D01*
X140152523Y-124216438D02*
X140200142Y-124264057D01*
X140200142Y-124264057D02*
X140247761Y-124359295D01*
X140247761Y-124359295D02*
X140247761Y-124454533D01*
X140247761Y-124454533D02*
X140200142Y-124597390D01*
X140200142Y-124597390D02*
X139628714Y-125168819D01*
X139628714Y-125168819D02*
X140247761Y-125168819D01*
X140866809Y-124168819D02*
X140962047Y-124168819D01*
X140962047Y-124168819D02*
X141057285Y-124216438D01*
X141057285Y-124216438D02*
X141104904Y-124264057D01*
X141104904Y-124264057D02*
X141152523Y-124359295D01*
X141152523Y-124359295D02*
X141200142Y-124549771D01*
X141200142Y-124549771D02*
X141200142Y-124787866D01*
X141200142Y-124787866D02*
X141152523Y-124978342D01*
X141152523Y-124978342D02*
X141104904Y-125073580D01*
X141104904Y-125073580D02*
X141057285Y-125121200D01*
X141057285Y-125121200D02*
X140962047Y-125168819D01*
X140962047Y-125168819D02*
X140866809Y-125168819D01*
X140866809Y-125168819D02*
X140771571Y-125121200D01*
X140771571Y-125121200D02*
X140723952Y-125073580D01*
X140723952Y-125073580D02*
X140676333Y-124978342D01*
X140676333Y-124978342D02*
X140628714Y-124787866D01*
X140628714Y-124787866D02*
X140628714Y-124549771D01*
X140628714Y-124549771D02*
X140676333Y-124359295D01*
X140676333Y-124359295D02*
X140723952Y-124264057D01*
X140723952Y-124264057D02*
X140771571Y-124216438D01*
X140771571Y-124216438D02*
X140866809Y-124168819D01*
X142057285Y-124502152D02*
X142057285Y-125168819D01*
X141628714Y-124502152D02*
X141628714Y-125025961D01*
X141628714Y-125025961D02*
X141676333Y-125121200D01*
X141676333Y-125121200D02*
X141771571Y-125168819D01*
X141771571Y-125168819D02*
X141914428Y-125168819D01*
X141914428Y-125168819D02*
X142009666Y-125121200D01*
X142009666Y-125121200D02*
X142057285Y-125073580D01*
X142866809Y-124645009D02*
X142533476Y-124645009D01*
X142533476Y-125168819D02*
X142533476Y-124168819D01*
X142533476Y-124168819D02*
X143009666Y-124168819D01*
D11*
G36*
X95356926Y-87463360D02*
G01*
X95417741Y-87524174D01*
X95486257Y-87661206D01*
X95486257Y-88237701D01*
X94738638Y-88237701D01*
X94738638Y-87661206D01*
X94807154Y-87524174D01*
X94867968Y-87463360D01*
X95005000Y-87394844D01*
X95219894Y-87394844D01*
X95356926Y-87463360D01*
G37*
G36*
X96226235Y-85380288D02*
G01*
X96370122Y-85524174D01*
X96438638Y-85661206D01*
X96438638Y-85971339D01*
X96370122Y-86108370D01*
X96226235Y-86252256D01*
X95903507Y-86332939D01*
X95273768Y-86332939D01*
X94951040Y-86252257D01*
X94807154Y-86108371D01*
X94738638Y-85971339D01*
X94738638Y-85661206D01*
X94807154Y-85524174D01*
X94951040Y-85380288D01*
X95273768Y-85299606D01*
X95903507Y-85299606D01*
X96226235Y-85380288D01*
G37*
G36*
X97024352Y-90537701D02*
G01*
X94152924Y-90537701D01*
X94152924Y-90101987D01*
X94438638Y-90101987D01*
X94458734Y-90176987D01*
X94513638Y-90231891D01*
X94588638Y-90251987D01*
X95541019Y-90251987D01*
X96588638Y-90251987D01*
X96663638Y-90231891D01*
X96718542Y-90176987D01*
X96738638Y-90101987D01*
X96718542Y-90026987D01*
X96663638Y-89972083D01*
X96588638Y-89951987D01*
X95691019Y-89951987D01*
X95691019Y-89435320D01*
X95670923Y-89360320D01*
X95616019Y-89305416D01*
X95541019Y-89285320D01*
X95466019Y-89305416D01*
X95411115Y-89360320D01*
X95391019Y-89435320D01*
X95391019Y-89951987D01*
X94738638Y-89951987D01*
X94738638Y-89149606D01*
X94718542Y-89074606D01*
X94663638Y-89019702D01*
X94588638Y-88999606D01*
X94513638Y-89019702D01*
X94458734Y-89074606D01*
X94438638Y-89149606D01*
X94438638Y-90101987D01*
X94152924Y-90101987D01*
X94152924Y-88387701D01*
X94438638Y-88387701D01*
X94458734Y-88462701D01*
X94513638Y-88517605D01*
X94588638Y-88537701D01*
X95636257Y-88537701D01*
X96588638Y-88537701D01*
X96663638Y-88517605D01*
X96718542Y-88462701D01*
X96738638Y-88387701D01*
X96718542Y-88312701D01*
X96663638Y-88257797D01*
X96588638Y-88237701D01*
X95786257Y-88237701D01*
X95786257Y-87989609D01*
X96674657Y-87367729D01*
X96724575Y-87308256D01*
X96738069Y-87231792D01*
X96711522Y-87158825D01*
X96652050Y-87108907D01*
X96575585Y-87095413D01*
X96502618Y-87121959D01*
X95785719Y-87623788D01*
X95777333Y-87592492D01*
X95770421Y-87558714D01*
X95675183Y-87368238D01*
X95659159Y-87350168D01*
X95647085Y-87329254D01*
X95551845Y-87234015D01*
X95530930Y-87221940D01*
X95512862Y-87205918D01*
X95322386Y-87110680D01*
X95288605Y-87103767D01*
X95255304Y-87094844D01*
X94969590Y-87094844D01*
X94936286Y-87103767D01*
X94902508Y-87110680D01*
X94712032Y-87205918D01*
X94693962Y-87221941D01*
X94673048Y-87234016D01*
X94577810Y-87329254D01*
X94565734Y-87350169D01*
X94549712Y-87368238D01*
X94454474Y-87558714D01*
X94447561Y-87592494D01*
X94438638Y-87625796D01*
X94438638Y-88387701D01*
X94152924Y-88387701D01*
X94152924Y-86006749D01*
X94438638Y-86006749D01*
X94447561Y-86040050D01*
X94454474Y-86073831D01*
X94549712Y-86264307D01*
X94565734Y-86282375D01*
X94577810Y-86303291D01*
X94768286Y-86493767D01*
X94769414Y-86494418D01*
X94770085Y-86495536D01*
X94802945Y-86513777D01*
X94835529Y-86532590D01*
X94836834Y-86532590D01*
X94837972Y-86533222D01*
X95218923Y-86628460D01*
X95237426Y-86628148D01*
X95255304Y-86632939D01*
X95921971Y-86632939D01*
X95939847Y-86628148D01*
X95958351Y-86628460D01*
X96339303Y-86533222D01*
X96340441Y-86532590D01*
X96341746Y-86532590D01*
X96374329Y-86513777D01*
X96407190Y-86495536D01*
X96407860Y-86494418D01*
X96408989Y-86493767D01*
X96599465Y-86303292D01*
X96611540Y-86282376D01*
X96627564Y-86264307D01*
X96722802Y-86073831D01*
X96729714Y-86040052D01*
X96738638Y-86006749D01*
X96738638Y-85625796D01*
X96729714Y-85592492D01*
X96722802Y-85558714D01*
X96627564Y-85368238D01*
X96611540Y-85350168D01*
X96599465Y-85329253D01*
X96408989Y-85138778D01*
X96407860Y-85138126D01*
X96407190Y-85137009D01*
X96374329Y-85118767D01*
X96341746Y-85099955D01*
X96340441Y-85099955D01*
X96339303Y-85099323D01*
X95958351Y-85004085D01*
X95939847Y-85004396D01*
X95921971Y-84999606D01*
X95255304Y-84999606D01*
X95237426Y-85004396D01*
X95218923Y-85004085D01*
X94837972Y-85099323D01*
X94836834Y-85099955D01*
X94835529Y-85099955D01*
X94802945Y-85118767D01*
X94770085Y-85137009D01*
X94769414Y-85138126D01*
X94768286Y-85138778D01*
X94577810Y-85329254D01*
X94565734Y-85350169D01*
X94549712Y-85368238D01*
X94454474Y-85558714D01*
X94447561Y-85592494D01*
X94438638Y-85625796D01*
X94438638Y-86006749D01*
X94152924Y-86006749D01*
X94152924Y-84292463D01*
X94438638Y-84292463D01*
X94448607Y-84329668D01*
X94458402Y-84366884D01*
X94458644Y-84367128D01*
X94458734Y-84367463D01*
X94485954Y-84394683D01*
X94513060Y-84422032D01*
X94513394Y-84422123D01*
X94513638Y-84422367D01*
X94550738Y-84432307D01*
X94587970Y-84442462D01*
X94588305Y-84442373D01*
X94588638Y-84442463D01*
X96588638Y-84442463D01*
X96663638Y-84422367D01*
X96718542Y-84367463D01*
X96738638Y-84292463D01*
X96718542Y-84217463D01*
X96663638Y-84162559D01*
X96588638Y-84142463D01*
X95153472Y-84142463D01*
X96663059Y-83279843D01*
X96663304Y-83279599D01*
X96663638Y-83279510D01*
X96690802Y-83252345D01*
X96718207Y-83225184D01*
X96718298Y-83224849D01*
X96718542Y-83224606D01*
X96728482Y-83187505D01*
X96738637Y-83150274D01*
X96738548Y-83149938D01*
X96738638Y-83149606D01*
X96728668Y-83112400D01*
X96718874Y-83075185D01*
X96718631Y-83074940D01*
X96718542Y-83074606D01*
X96691321Y-83047385D01*
X96664216Y-83020037D01*
X96663881Y-83019945D01*
X96663638Y-83019702D01*
X96626537Y-83009761D01*
X96589306Y-82999607D01*
X96588970Y-82999695D01*
X96588638Y-82999606D01*
X94588638Y-82999606D01*
X94513638Y-83019702D01*
X94458734Y-83074606D01*
X94438638Y-83149606D01*
X94458734Y-83224606D01*
X94513638Y-83279510D01*
X94588638Y-83299606D01*
X96023804Y-83299606D01*
X94514217Y-84162227D01*
X94513972Y-84162469D01*
X94513638Y-84162559D01*
X94486417Y-84189779D01*
X94459069Y-84216885D01*
X94458977Y-84217219D01*
X94458734Y-84217463D01*
X94448793Y-84254563D01*
X94438639Y-84291795D01*
X94438727Y-84292130D01*
X94438638Y-84292463D01*
X94152924Y-84292463D01*
X94152924Y-82482939D01*
X94438638Y-82482939D01*
X94458734Y-82557939D01*
X94513638Y-82612843D01*
X94588638Y-82632939D01*
X94663638Y-82612843D01*
X94718542Y-82557939D01*
X94738638Y-82482939D01*
X94738638Y-82061511D01*
X96588638Y-82061511D01*
X96663638Y-82041415D01*
X96718542Y-81986511D01*
X96738638Y-81911511D01*
X96718542Y-81836511D01*
X96663638Y-81781607D01*
X96588638Y-81761511D01*
X94738638Y-81761511D01*
X94738638Y-81340082D01*
X94718542Y-81265082D01*
X94663638Y-81210178D01*
X94588638Y-81190082D01*
X94513638Y-81210178D01*
X94458734Y-81265082D01*
X94438638Y-81340082D01*
X94438638Y-82482939D01*
X94152924Y-82482939D01*
X94152924Y-80904368D01*
X97024352Y-80904368D01*
X97024352Y-90537701D01*
G37*
D10*
X95591541Y-120084819D02*
X96210588Y-120084819D01*
X96210588Y-120084819D02*
X95877255Y-120465771D01*
X95877255Y-120465771D02*
X96020112Y-120465771D01*
X96020112Y-120465771D02*
X96115350Y-120513390D01*
X96115350Y-120513390D02*
X96162969Y-120561009D01*
X96162969Y-120561009D02*
X96210588Y-120656247D01*
X96210588Y-120656247D02*
X96210588Y-120894342D01*
X96210588Y-120894342D02*
X96162969Y-120989580D01*
X96162969Y-120989580D02*
X96115350Y-121037200D01*
X96115350Y-121037200D02*
X96020112Y-121084819D01*
X96020112Y-121084819D02*
X95734398Y-121084819D01*
X95734398Y-121084819D02*
X95639160Y-121037200D01*
X95639160Y-121037200D02*
X95591541Y-120989580D01*
X96496303Y-120084819D02*
X96829636Y-121084819D01*
X96829636Y-121084819D02*
X97162969Y-120084819D01*
X97401065Y-120084819D02*
X98020112Y-120084819D01*
X98020112Y-120084819D02*
X97686779Y-120465771D01*
X97686779Y-120465771D02*
X97829636Y-120465771D01*
X97829636Y-120465771D02*
X97924874Y-120513390D01*
X97924874Y-120513390D02*
X97972493Y-120561009D01*
X97972493Y-120561009D02*
X98020112Y-120656247D01*
X98020112Y-120656247D02*
X98020112Y-120894342D01*
X98020112Y-120894342D02*
X97972493Y-120989580D01*
X97972493Y-120989580D02*
X97924874Y-121037200D01*
X97924874Y-121037200D02*
X97829636Y-121084819D01*
X97829636Y-121084819D02*
X97543922Y-121084819D01*
X97543922Y-121084819D02*
X97448684Y-121037200D01*
X97448684Y-121037200D02*
X97401065Y-120989580D01*
X159324561Y-125991904D02*
X159372180Y-125896666D01*
X159372180Y-125896666D02*
X159372180Y-125753809D01*
X159372180Y-125753809D02*
X159324561Y-125610952D01*
X159324561Y-125610952D02*
X159229323Y-125515714D01*
X159229323Y-125515714D02*
X159134085Y-125468095D01*
X159134085Y-125468095D02*
X158943609Y-125420476D01*
X158943609Y-125420476D02*
X158800752Y-125420476D01*
X158800752Y-125420476D02*
X158610276Y-125468095D01*
X158610276Y-125468095D02*
X158515038Y-125515714D01*
X158515038Y-125515714D02*
X158419800Y-125610952D01*
X158419800Y-125610952D02*
X158372180Y-125753809D01*
X158372180Y-125753809D02*
X158372180Y-125849047D01*
X158372180Y-125849047D02*
X158419800Y-125991904D01*
X158419800Y-125991904D02*
X158467419Y-126039523D01*
X158467419Y-126039523D02*
X158800752Y-126039523D01*
X158800752Y-126039523D02*
X158800752Y-125849047D01*
X90431904Y-68259438D02*
X90336666Y-68211819D01*
X90336666Y-68211819D02*
X90193809Y-68211819D01*
X90193809Y-68211819D02*
X90050952Y-68259438D01*
X90050952Y-68259438D02*
X89955714Y-68354676D01*
X89955714Y-68354676D02*
X89908095Y-68449914D01*
X89908095Y-68449914D02*
X89860476Y-68640390D01*
X89860476Y-68640390D02*
X89860476Y-68783247D01*
X89860476Y-68783247D02*
X89908095Y-68973723D01*
X89908095Y-68973723D02*
X89955714Y-69068961D01*
X89955714Y-69068961D02*
X90050952Y-69164200D01*
X90050952Y-69164200D02*
X90193809Y-69211819D01*
X90193809Y-69211819D02*
X90289047Y-69211819D01*
X90289047Y-69211819D02*
X90431904Y-69164200D01*
X90431904Y-69164200D02*
X90479523Y-69116580D01*
X90479523Y-69116580D02*
X90479523Y-68783247D01*
X90479523Y-68783247D02*
X90289047Y-68783247D01*
X128708458Y-36395180D02*
X128041792Y-35395180D01*
X128041792Y-36395180D02*
X128708458Y-35395180D01*
X127708458Y-35442800D02*
X127565601Y-35395180D01*
X127565601Y-35395180D02*
X127327506Y-35395180D01*
X127327506Y-35395180D02*
X127232268Y-35442800D01*
X127232268Y-35442800D02*
X127184649Y-35490419D01*
X127184649Y-35490419D02*
X127137030Y-35585657D01*
X127137030Y-35585657D02*
X127137030Y-35680895D01*
X127137030Y-35680895D02*
X127184649Y-35776133D01*
X127184649Y-35776133D02*
X127232268Y-35823752D01*
X127232268Y-35823752D02*
X127327506Y-35871371D01*
X127327506Y-35871371D02*
X127517982Y-35918990D01*
X127517982Y-35918990D02*
X127613220Y-35966609D01*
X127613220Y-35966609D02*
X127660839Y-36014228D01*
X127660839Y-36014228D02*
X127708458Y-36109466D01*
X127708458Y-36109466D02*
X127708458Y-36204704D01*
X127708458Y-36204704D02*
X127660839Y-36299942D01*
X127660839Y-36299942D02*
X127613220Y-36347561D01*
X127613220Y-36347561D02*
X127517982Y-36395180D01*
X127517982Y-36395180D02*
X127279887Y-36395180D01*
X127279887Y-36395180D02*
X127137030Y-36347561D01*
X126708458Y-35395180D02*
X126708458Y-36395180D01*
X126708458Y-35918990D02*
X126137030Y-35918990D01*
X126137030Y-35395180D02*
X126137030Y-36395180D01*
X125660839Y-36395180D02*
X125660839Y-35585657D01*
X125660839Y-35585657D02*
X125613220Y-35490419D01*
X125613220Y-35490419D02*
X125565601Y-35442800D01*
X125565601Y-35442800D02*
X125470363Y-35395180D01*
X125470363Y-35395180D02*
X125279887Y-35395180D01*
X125279887Y-35395180D02*
X125184649Y-35442800D01*
X125184649Y-35442800D02*
X125137030Y-35490419D01*
X125137030Y-35490419D02*
X125089411Y-35585657D01*
X125089411Y-35585657D02*
X125089411Y-36395180D01*
X124756077Y-36395180D02*
X124184649Y-36395180D01*
X124470363Y-35395180D02*
X124470363Y-36395180D01*
X123327506Y-35395180D02*
X123898934Y-35395180D01*
X123613220Y-35395180D02*
X123613220Y-36395180D01*
X123613220Y-36395180D02*
X123708458Y-36252323D01*
X123708458Y-36252323D02*
X123803696Y-36157085D01*
X123803696Y-36157085D02*
X123898934Y-36109466D01*
X95543922Y-122624819D02*
X96115350Y-122624819D01*
X95829636Y-123624819D02*
X95829636Y-122624819D01*
X96353446Y-122624819D02*
X97020112Y-123624819D01*
X97020112Y-122624819D02*
X96353446Y-123624819D01*
X126987541Y-166586819D02*
X127654207Y-167586819D01*
X127654207Y-166586819D02*
X126987541Y-167586819D01*
X158419800Y-130524286D02*
X158372180Y-130667143D01*
X158372180Y-130667143D02*
X158372180Y-130905238D01*
X158372180Y-130905238D02*
X158419800Y-131000476D01*
X158419800Y-131000476D02*
X158467419Y-131048095D01*
X158467419Y-131048095D02*
X158562657Y-131095714D01*
X158562657Y-131095714D02*
X158657895Y-131095714D01*
X158657895Y-131095714D02*
X158753133Y-131048095D01*
X158753133Y-131048095D02*
X158800752Y-131000476D01*
X158800752Y-131000476D02*
X158848371Y-130905238D01*
X158848371Y-130905238D02*
X158895990Y-130714762D01*
X158895990Y-130714762D02*
X158943609Y-130619524D01*
X158943609Y-130619524D02*
X158991228Y-130571905D01*
X158991228Y-130571905D02*
X159086466Y-130524286D01*
X159086466Y-130524286D02*
X159181704Y-130524286D01*
X159181704Y-130524286D02*
X159276942Y-130571905D01*
X159276942Y-130571905D02*
X159324561Y-130619524D01*
X159324561Y-130619524D02*
X159372180Y-130714762D01*
X159372180Y-130714762D02*
X159372180Y-130952857D01*
X159372180Y-130952857D02*
X159324561Y-131095714D01*
X96258207Y-126164819D02*
X95924874Y-125688628D01*
X95686779Y-126164819D02*
X95686779Y-125164819D01*
X95686779Y-125164819D02*
X96067731Y-125164819D01*
X96067731Y-125164819D02*
X96162969Y-125212438D01*
X96162969Y-125212438D02*
X96210588Y-125260057D01*
X96210588Y-125260057D02*
X96258207Y-125355295D01*
X96258207Y-125355295D02*
X96258207Y-125498152D01*
X96258207Y-125498152D02*
X96210588Y-125593390D01*
X96210588Y-125593390D02*
X96162969Y-125641009D01*
X96162969Y-125641009D02*
X96067731Y-125688628D01*
X96067731Y-125688628D02*
X95686779Y-125688628D01*
X96591541Y-125164819D02*
X97258207Y-126164819D01*
X97258207Y-125164819D02*
X96591541Y-126164819D01*
X98866268Y-100927819D02*
X99437696Y-100927819D01*
X99151982Y-101927819D02*
X99151982Y-100927819D01*
X99675792Y-100927819D02*
X100342458Y-101927819D01*
X100342458Y-100927819D02*
X99675792Y-101927819D01*
X104261905Y-120550057D02*
X104309524Y-120502438D01*
X104309524Y-120502438D02*
X104404762Y-120454819D01*
X104404762Y-120454819D02*
X104642857Y-120454819D01*
X104642857Y-120454819D02*
X104738095Y-120502438D01*
X104738095Y-120502438D02*
X104785714Y-120550057D01*
X104785714Y-120550057D02*
X104833333Y-120645295D01*
X104833333Y-120645295D02*
X104833333Y-120740533D01*
X104833333Y-120740533D02*
X104785714Y-120883390D01*
X104785714Y-120883390D02*
X104214286Y-121454819D01*
X104214286Y-121454819D02*
X104833333Y-121454819D01*
X105214286Y-120550057D02*
X105261905Y-120502438D01*
X105261905Y-120502438D02*
X105357143Y-120454819D01*
X105357143Y-120454819D02*
X105595238Y-120454819D01*
X105595238Y-120454819D02*
X105690476Y-120502438D01*
X105690476Y-120502438D02*
X105738095Y-120550057D01*
X105738095Y-120550057D02*
X105785714Y-120645295D01*
X105785714Y-120645295D02*
X105785714Y-120740533D01*
X105785714Y-120740533D02*
X105738095Y-120883390D01*
X105738095Y-120883390D02*
X105166667Y-121454819D01*
X105166667Y-121454819D02*
X105785714Y-121454819D01*
X106642857Y-120788152D02*
X106642857Y-121454819D01*
X106214286Y-120788152D02*
X106214286Y-121311961D01*
X106214286Y-121311961D02*
X106261905Y-121407200D01*
X106261905Y-121407200D02*
X106357143Y-121454819D01*
X106357143Y-121454819D02*
X106500000Y-121454819D01*
X106500000Y-121454819D02*
X106595238Y-121407200D01*
X106595238Y-121407200D02*
X106642857Y-121359580D01*
X107119048Y-121454819D02*
X107119048Y-120454819D01*
X107119048Y-120931009D02*
X107690476Y-120931009D01*
X107690476Y-121454819D02*
X107690476Y-120454819D01*
X131761905Y-135550057D02*
X131809524Y-135502438D01*
X131809524Y-135502438D02*
X131904762Y-135454819D01*
X131904762Y-135454819D02*
X132142857Y-135454819D01*
X132142857Y-135454819D02*
X132238095Y-135502438D01*
X132238095Y-135502438D02*
X132285714Y-135550057D01*
X132285714Y-135550057D02*
X132333333Y-135645295D01*
X132333333Y-135645295D02*
X132333333Y-135740533D01*
X132333333Y-135740533D02*
X132285714Y-135883390D01*
X132285714Y-135883390D02*
X131714286Y-136454819D01*
X131714286Y-136454819D02*
X132333333Y-136454819D01*
X132714286Y-135550057D02*
X132761905Y-135502438D01*
X132761905Y-135502438D02*
X132857143Y-135454819D01*
X132857143Y-135454819D02*
X133095238Y-135454819D01*
X133095238Y-135454819D02*
X133190476Y-135502438D01*
X133190476Y-135502438D02*
X133238095Y-135550057D01*
X133238095Y-135550057D02*
X133285714Y-135645295D01*
X133285714Y-135645295D02*
X133285714Y-135740533D01*
X133285714Y-135740533D02*
X133238095Y-135883390D01*
X133238095Y-135883390D02*
X132666667Y-136454819D01*
X132666667Y-136454819D02*
X133285714Y-136454819D01*
X134142857Y-135788152D02*
X134142857Y-136454819D01*
X133714286Y-135788152D02*
X133714286Y-136311961D01*
X133714286Y-136311961D02*
X133761905Y-136407200D01*
X133761905Y-136407200D02*
X133857143Y-136454819D01*
X133857143Y-136454819D02*
X134000000Y-136454819D01*
X134000000Y-136454819D02*
X134095238Y-136407200D01*
X134095238Y-136407200D02*
X134142857Y-136359580D01*
X134619048Y-136454819D02*
X134619048Y-135454819D01*
X134619048Y-135931009D02*
X135190476Y-135931009D01*
X135190476Y-136454819D02*
X135190476Y-135454819D01*
X99295268Y-86566819D02*
X99866696Y-86566819D01*
X99580982Y-87566819D02*
X99580982Y-86566819D01*
X100104792Y-86566819D02*
X100771458Y-87566819D01*
X100771458Y-86566819D02*
X100104792Y-87566819D01*
D12*
X174548247Y-111135713D02*
X174548247Y-109707142D01*
X177048247Y-110421428D02*
X174548247Y-110421428D01*
X175381580Y-107802380D02*
X177048247Y-107802380D01*
X175381580Y-108873808D02*
X176691104Y-108873808D01*
X176691104Y-108873808D02*
X176929200Y-108754761D01*
X176929200Y-108754761D02*
X177048247Y-108516666D01*
X177048247Y-108516666D02*
X177048247Y-108159523D01*
X177048247Y-108159523D02*
X176929200Y-107921427D01*
X176929200Y-107921427D02*
X176810152Y-107802380D01*
X175381580Y-106969046D02*
X175381580Y-106016665D01*
X174548247Y-106611903D02*
X176691104Y-106611903D01*
X176691104Y-106611903D02*
X176929200Y-106492856D01*
X176929200Y-106492856D02*
X177048247Y-106254761D01*
X177048247Y-106254761D02*
X177048247Y-106016665D01*
X177048247Y-104826190D02*
X176929200Y-105064285D01*
X176929200Y-105064285D02*
X176810152Y-105183332D01*
X176810152Y-105183332D02*
X176572057Y-105302380D01*
X176572057Y-105302380D02*
X175857771Y-105302380D01*
X175857771Y-105302380D02*
X175619676Y-105183332D01*
X175619676Y-105183332D02*
X175500628Y-105064285D01*
X175500628Y-105064285D02*
X175381580Y-104826190D01*
X175381580Y-104826190D02*
X175381580Y-104469047D01*
X175381580Y-104469047D02*
X175500628Y-104230951D01*
X175500628Y-104230951D02*
X175619676Y-104111904D01*
X175619676Y-104111904D02*
X175857771Y-103992856D01*
X175857771Y-103992856D02*
X176572057Y-103992856D01*
X176572057Y-103992856D02*
X176810152Y-104111904D01*
X176810152Y-104111904D02*
X176929200Y-104230951D01*
X176929200Y-104230951D02*
X177048247Y-104469047D01*
X177048247Y-104469047D02*
X177048247Y-104826190D01*
X175381580Y-102921427D02*
X177048247Y-102921427D01*
X175619676Y-102921427D02*
X175500628Y-102802380D01*
X175500628Y-102802380D02*
X175381580Y-102564285D01*
X175381580Y-102564285D02*
X175381580Y-102207142D01*
X175381580Y-102207142D02*
X175500628Y-101969046D01*
X175500628Y-101969046D02*
X175738723Y-101849999D01*
X175738723Y-101849999D02*
X177048247Y-101849999D01*
X174786342Y-98873808D02*
X174667295Y-98754760D01*
X174667295Y-98754760D02*
X174548247Y-98516665D01*
X174548247Y-98516665D02*
X174548247Y-97921427D01*
X174548247Y-97921427D02*
X174667295Y-97683332D01*
X174667295Y-97683332D02*
X174786342Y-97564284D01*
X174786342Y-97564284D02*
X175024438Y-97445237D01*
X175024438Y-97445237D02*
X175262533Y-97445237D01*
X175262533Y-97445237D02*
X175619676Y-97564284D01*
X175619676Y-97564284D02*
X177048247Y-98992856D01*
X177048247Y-98992856D02*
X177048247Y-97445237D01*
X174548247Y-95897618D02*
X174548247Y-95659523D01*
X174548247Y-95659523D02*
X174667295Y-95421427D01*
X174667295Y-95421427D02*
X174786342Y-95302380D01*
X174786342Y-95302380D02*
X175024438Y-95183332D01*
X175024438Y-95183332D02*
X175500628Y-95064285D01*
X175500628Y-95064285D02*
X176095866Y-95064285D01*
X176095866Y-95064285D02*
X176572057Y-95183332D01*
X176572057Y-95183332D02*
X176810152Y-95302380D01*
X176810152Y-95302380D02*
X176929200Y-95421427D01*
X176929200Y-95421427D02*
X177048247Y-95659523D01*
X177048247Y-95659523D02*
X177048247Y-95897618D01*
X177048247Y-95897618D02*
X176929200Y-96135713D01*
X176929200Y-96135713D02*
X176810152Y-96254761D01*
X176810152Y-96254761D02*
X176572057Y-96373808D01*
X176572057Y-96373808D02*
X176095866Y-96492856D01*
X176095866Y-96492856D02*
X175500628Y-96492856D01*
X175500628Y-96492856D02*
X175024438Y-96373808D01*
X175024438Y-96373808D02*
X174786342Y-96254761D01*
X174786342Y-96254761D02*
X174667295Y-96135713D01*
X174667295Y-96135713D02*
X174548247Y-95897618D01*
X174786342Y-94111904D02*
X174667295Y-93992856D01*
X174667295Y-93992856D02*
X174548247Y-93754761D01*
X174548247Y-93754761D02*
X174548247Y-93159523D01*
X174548247Y-93159523D02*
X174667295Y-92921428D01*
X174667295Y-92921428D02*
X174786342Y-92802380D01*
X174786342Y-92802380D02*
X175024438Y-92683333D01*
X175024438Y-92683333D02*
X175262533Y-92683333D01*
X175262533Y-92683333D02*
X175619676Y-92802380D01*
X175619676Y-92802380D02*
X177048247Y-94230952D01*
X177048247Y-94230952D02*
X177048247Y-92683333D01*
X174548247Y-90421428D02*
X174548247Y-91611904D01*
X174548247Y-91611904D02*
X175738723Y-91730952D01*
X175738723Y-91730952D02*
X175619676Y-91611904D01*
X175619676Y-91611904D02*
X175500628Y-91373809D01*
X175500628Y-91373809D02*
X175500628Y-90778571D01*
X175500628Y-90778571D02*
X175619676Y-90540476D01*
X175619676Y-90540476D02*
X175738723Y-90421428D01*
X175738723Y-90421428D02*
X175976819Y-90302381D01*
X175976819Y-90302381D02*
X176572057Y-90302381D01*
X176572057Y-90302381D02*
X176810152Y-90421428D01*
X176810152Y-90421428D02*
X176929200Y-90540476D01*
X176929200Y-90540476D02*
X177048247Y-90778571D01*
X177048247Y-90778571D02*
X177048247Y-91373809D01*
X177048247Y-91373809D02*
X176929200Y-91611904D01*
X176929200Y-91611904D02*
X176810152Y-91730952D01*
X181073247Y-116373808D02*
X178573247Y-116373808D01*
X178573247Y-116373808D02*
X181073247Y-114945237D01*
X181073247Y-114945237D02*
X178573247Y-114945237D01*
X180358961Y-113873808D02*
X180358961Y-112683332D01*
X181073247Y-114111903D02*
X178573247Y-113278570D01*
X178573247Y-113278570D02*
X181073247Y-112445237D01*
X178692295Y-110302380D02*
X178573247Y-110540475D01*
X178573247Y-110540475D02*
X178573247Y-110897618D01*
X178573247Y-110897618D02*
X178692295Y-111254761D01*
X178692295Y-111254761D02*
X178930390Y-111492856D01*
X178930390Y-111492856D02*
X179168485Y-111611903D01*
X179168485Y-111611903D02*
X179644676Y-111730951D01*
X179644676Y-111730951D02*
X180001819Y-111730951D01*
X180001819Y-111730951D02*
X180478009Y-111611903D01*
X180478009Y-111611903D02*
X180716104Y-111492856D01*
X180716104Y-111492856D02*
X180954200Y-111254761D01*
X180954200Y-111254761D02*
X181073247Y-110897618D01*
X181073247Y-110897618D02*
X181073247Y-110659522D01*
X181073247Y-110659522D02*
X180954200Y-110302380D01*
X180954200Y-110302380D02*
X180835152Y-110183332D01*
X180835152Y-110183332D02*
X180001819Y-110183332D01*
X180001819Y-110183332D02*
X180001819Y-110659522D01*
X178573247Y-108635713D02*
X178573247Y-108159522D01*
X178573247Y-108159522D02*
X178692295Y-107921427D01*
X178692295Y-107921427D02*
X178930390Y-107683332D01*
X178930390Y-107683332D02*
X179406580Y-107564284D01*
X179406580Y-107564284D02*
X180239914Y-107564284D01*
X180239914Y-107564284D02*
X180716104Y-107683332D01*
X180716104Y-107683332D02*
X180954200Y-107921427D01*
X180954200Y-107921427D02*
X181073247Y-108159522D01*
X181073247Y-108159522D02*
X181073247Y-108635713D01*
X181073247Y-108635713D02*
X180954200Y-108873808D01*
X180954200Y-108873808D02*
X180716104Y-109111903D01*
X180716104Y-109111903D02*
X180239914Y-109230951D01*
X180239914Y-109230951D02*
X179406580Y-109230951D01*
X179406580Y-109230951D02*
X178930390Y-109111903D01*
X178930390Y-109111903D02*
X178692295Y-108873808D01*
X178692295Y-108873808D02*
X178573247Y-108635713D01*
X179882771Y-106016665D02*
X181073247Y-106016665D01*
X178573247Y-106849998D02*
X179882771Y-106016665D01*
X179882771Y-106016665D02*
X178573247Y-105183332D01*
X180358961Y-104469046D02*
X180358961Y-103278570D01*
X181073247Y-104707141D02*
X178573247Y-103873808D01*
X178573247Y-103873808D02*
X181073247Y-103040475D01*
X178573247Y-99826189D02*
X178573247Y-99588094D01*
X178573247Y-99588094D02*
X178692295Y-99349998D01*
X178692295Y-99349998D02*
X178811342Y-99230951D01*
X178811342Y-99230951D02*
X179049438Y-99111903D01*
X179049438Y-99111903D02*
X179525628Y-98992856D01*
X179525628Y-98992856D02*
X180120866Y-98992856D01*
X180120866Y-98992856D02*
X180597057Y-99111903D01*
X180597057Y-99111903D02*
X180835152Y-99230951D01*
X180835152Y-99230951D02*
X180954200Y-99349998D01*
X180954200Y-99349998D02*
X181073247Y-99588094D01*
X181073247Y-99588094D02*
X181073247Y-99826189D01*
X181073247Y-99826189D02*
X180954200Y-100064284D01*
X180954200Y-100064284D02*
X180835152Y-100183332D01*
X180835152Y-100183332D02*
X180597057Y-100302379D01*
X180597057Y-100302379D02*
X180120866Y-100421427D01*
X180120866Y-100421427D02*
X179525628Y-100421427D01*
X179525628Y-100421427D02*
X179049438Y-100302379D01*
X179049438Y-100302379D02*
X178811342Y-100183332D01*
X178811342Y-100183332D02*
X178692295Y-100064284D01*
X178692295Y-100064284D02*
X178573247Y-99826189D01*
X181073247Y-96611904D02*
X181073247Y-98040475D01*
X181073247Y-97326189D02*
X178573247Y-97326189D01*
X178573247Y-97326189D02*
X178930390Y-97564285D01*
X178930390Y-97564285D02*
X179168485Y-97802380D01*
X179168485Y-97802380D02*
X179287533Y-98040475D01*
X180120866Y-95540475D02*
X180120866Y-93635714D01*
X181073247Y-92445237D02*
X178573247Y-92445237D01*
X178573247Y-92445237D02*
X180358961Y-91611904D01*
X180358961Y-91611904D02*
X178573247Y-90778571D01*
X178573247Y-90778571D02*
X181073247Y-90778571D01*
X180358961Y-89707142D02*
X180358961Y-88516666D01*
X181073247Y-89945237D02*
X178573247Y-89111904D01*
X178573247Y-89111904D02*
X181073247Y-88278571D01*
X181073247Y-87445237D02*
X178573247Y-87445237D01*
X181073247Y-86254761D02*
X178573247Y-86254761D01*
X178573247Y-86254761D02*
X181073247Y-84826190D01*
X181073247Y-84826190D02*
X178573247Y-84826190D01*
D10*
X98628601Y-81534438D02*
X98533363Y-81486819D01*
X98533363Y-81486819D02*
X98390506Y-81486819D01*
X98390506Y-81486819D02*
X98247649Y-81534438D01*
X98247649Y-81534438D02*
X98152411Y-81629676D01*
X98152411Y-81629676D02*
X98104792Y-81724914D01*
X98104792Y-81724914D02*
X98057173Y-81915390D01*
X98057173Y-81915390D02*
X98057173Y-82058247D01*
X98057173Y-82058247D02*
X98104792Y-82248723D01*
X98104792Y-82248723D02*
X98152411Y-82343961D01*
X98152411Y-82343961D02*
X98247649Y-82439200D01*
X98247649Y-82439200D02*
X98390506Y-82486819D01*
X98390506Y-82486819D02*
X98485744Y-82486819D01*
X98485744Y-82486819D02*
X98628601Y-82439200D01*
X98628601Y-82439200D02*
X98676220Y-82391580D01*
X98676220Y-82391580D02*
X98676220Y-82058247D01*
X98676220Y-82058247D02*
X98485744Y-82058247D01*
X99104792Y-82486819D02*
X99104792Y-81486819D01*
X99104792Y-81486819D02*
X99676220Y-82486819D01*
X99676220Y-82486819D02*
X99676220Y-81486819D01*
X100152411Y-82486819D02*
X100152411Y-81486819D01*
X100152411Y-81486819D02*
X100390506Y-81486819D01*
X100390506Y-81486819D02*
X100533363Y-81534438D01*
X100533363Y-81534438D02*
X100628601Y-81629676D01*
X100628601Y-81629676D02*
X100676220Y-81724914D01*
X100676220Y-81724914D02*
X100723839Y-81915390D01*
X100723839Y-81915390D02*
X100723839Y-82058247D01*
X100723839Y-82058247D02*
X100676220Y-82248723D01*
X100676220Y-82248723D02*
X100628601Y-82343961D01*
X100628601Y-82343961D02*
X100533363Y-82439200D01*
X100533363Y-82439200D02*
X100390506Y-82486819D01*
X100390506Y-82486819D02*
X100152411Y-82486819D01*
X159324561Y-69603904D02*
X159372180Y-69508666D01*
X159372180Y-69508666D02*
X159372180Y-69365809D01*
X159372180Y-69365809D02*
X159324561Y-69222952D01*
X159324561Y-69222952D02*
X159229323Y-69127714D01*
X159229323Y-69127714D02*
X159134085Y-69080095D01*
X159134085Y-69080095D02*
X158943609Y-69032476D01*
X158943609Y-69032476D02*
X158800752Y-69032476D01*
X158800752Y-69032476D02*
X158610276Y-69080095D01*
X158610276Y-69080095D02*
X158515038Y-69127714D01*
X158515038Y-69127714D02*
X158419800Y-69222952D01*
X158419800Y-69222952D02*
X158372180Y-69365809D01*
X158372180Y-69365809D02*
X158372180Y-69461047D01*
X158372180Y-69461047D02*
X158419800Y-69603904D01*
X158419800Y-69603904D02*
X158467419Y-69651523D01*
X158467419Y-69651523D02*
X158800752Y-69651523D01*
X158800752Y-69651523D02*
X158800752Y-69461047D01*
D13*
X135919800Y-58473734D02*
X135967419Y-58330877D01*
X135967419Y-58330877D02*
X135967419Y-58092782D01*
X135967419Y-58092782D02*
X135919800Y-57997544D01*
X135919800Y-57997544D02*
X135872180Y-57949925D01*
X135872180Y-57949925D02*
X135776942Y-57902306D01*
X135776942Y-57902306D02*
X135681704Y-57902306D01*
X135681704Y-57902306D02*
X135586466Y-57949925D01*
X135586466Y-57949925D02*
X135538847Y-57997544D01*
X135538847Y-57997544D02*
X135491228Y-58092782D01*
X135491228Y-58092782D02*
X135443609Y-58283258D01*
X135443609Y-58283258D02*
X135395990Y-58378496D01*
X135395990Y-58378496D02*
X135348371Y-58426115D01*
X135348371Y-58426115D02*
X135253133Y-58473734D01*
X135253133Y-58473734D02*
X135157895Y-58473734D01*
X135157895Y-58473734D02*
X135062657Y-58426115D01*
X135062657Y-58426115D02*
X135015038Y-58378496D01*
X135015038Y-58378496D02*
X134967419Y-58283258D01*
X134967419Y-58283258D02*
X134967419Y-58045163D01*
X134967419Y-58045163D02*
X135015038Y-57902306D01*
X135967419Y-57473734D02*
X134967419Y-57473734D01*
X134967419Y-57473734D02*
X134967419Y-57235639D01*
X134967419Y-57235639D02*
X135015038Y-57092782D01*
X135015038Y-57092782D02*
X135110276Y-56997544D01*
X135110276Y-56997544D02*
X135205514Y-56949925D01*
X135205514Y-56949925D02*
X135395990Y-56902306D01*
X135395990Y-56902306D02*
X135538847Y-56902306D01*
X135538847Y-56902306D02*
X135729323Y-56949925D01*
X135729323Y-56949925D02*
X135824561Y-56997544D01*
X135824561Y-56997544D02*
X135919800Y-57092782D01*
X135919800Y-57092782D02*
X135967419Y-57235639D01*
X135967419Y-57235639D02*
X135967419Y-57473734D01*
X135681704Y-56521353D02*
X135681704Y-56045163D01*
X135967419Y-56616591D02*
X134967419Y-56283258D01*
X134967419Y-56283258D02*
X135967419Y-55949925D01*
X129887419Y-58568972D02*
X130887419Y-58235639D01*
X130887419Y-58235639D02*
X129887419Y-57902306D01*
X130887419Y-57568972D02*
X129887419Y-57568972D01*
X130887419Y-57092782D02*
X129887419Y-57092782D01*
X129887419Y-57092782D02*
X130887419Y-56521354D01*
X130887419Y-56521354D02*
X129887419Y-56521354D01*
X132475038Y-57902306D02*
X132427419Y-57997544D01*
X132427419Y-57997544D02*
X132427419Y-58140401D01*
X132427419Y-58140401D02*
X132475038Y-58283258D01*
X132475038Y-58283258D02*
X132570276Y-58378496D01*
X132570276Y-58378496D02*
X132665514Y-58426115D01*
X132665514Y-58426115D02*
X132855990Y-58473734D01*
X132855990Y-58473734D02*
X132998847Y-58473734D01*
X132998847Y-58473734D02*
X133189323Y-58426115D01*
X133189323Y-58426115D02*
X133284561Y-58378496D01*
X133284561Y-58378496D02*
X133379800Y-58283258D01*
X133379800Y-58283258D02*
X133427419Y-58140401D01*
X133427419Y-58140401D02*
X133427419Y-58045163D01*
X133427419Y-58045163D02*
X133379800Y-57902306D01*
X133379800Y-57902306D02*
X133332180Y-57854687D01*
X133332180Y-57854687D02*
X132998847Y-57854687D01*
X132998847Y-57854687D02*
X132998847Y-58045163D01*
X133427419Y-57426115D02*
X132427419Y-57426115D01*
X132427419Y-57426115D02*
X133427419Y-56854687D01*
X133427419Y-56854687D02*
X132427419Y-56854687D01*
X133427419Y-56378496D02*
X132427419Y-56378496D01*
X132427419Y-56378496D02*
X132427419Y-56140401D01*
X132427419Y-56140401D02*
X132475038Y-55997544D01*
X132475038Y-55997544D02*
X132570276Y-55902306D01*
X132570276Y-55902306D02*
X132665514Y-55854687D01*
X132665514Y-55854687D02*
X132855990Y-55807068D01*
X132855990Y-55807068D02*
X132998847Y-55807068D01*
X132998847Y-55807068D02*
X133189323Y-55854687D01*
X133189323Y-55854687D02*
X133284561Y-55902306D01*
X133284561Y-55902306D02*
X133379800Y-55997544D01*
X133379800Y-55997544D02*
X133427419Y-56140401D01*
X133427419Y-56140401D02*
X133427419Y-56378496D01*
X138459800Y-58473734D02*
X138507419Y-58330877D01*
X138507419Y-58330877D02*
X138507419Y-58092782D01*
X138507419Y-58092782D02*
X138459800Y-57997544D01*
X138459800Y-57997544D02*
X138412180Y-57949925D01*
X138412180Y-57949925D02*
X138316942Y-57902306D01*
X138316942Y-57902306D02*
X138221704Y-57902306D01*
X138221704Y-57902306D02*
X138126466Y-57949925D01*
X138126466Y-57949925D02*
X138078847Y-57997544D01*
X138078847Y-57997544D02*
X138031228Y-58092782D01*
X138031228Y-58092782D02*
X137983609Y-58283258D01*
X137983609Y-58283258D02*
X137935990Y-58378496D01*
X137935990Y-58378496D02*
X137888371Y-58426115D01*
X137888371Y-58426115D02*
X137793133Y-58473734D01*
X137793133Y-58473734D02*
X137697895Y-58473734D01*
X137697895Y-58473734D02*
X137602657Y-58426115D01*
X137602657Y-58426115D02*
X137555038Y-58378496D01*
X137555038Y-58378496D02*
X137507419Y-58283258D01*
X137507419Y-58283258D02*
X137507419Y-58045163D01*
X137507419Y-58045163D02*
X137555038Y-57902306D01*
X138412180Y-56902306D02*
X138459800Y-56949925D01*
X138459800Y-56949925D02*
X138507419Y-57092782D01*
X138507419Y-57092782D02*
X138507419Y-57188020D01*
X138507419Y-57188020D02*
X138459800Y-57330877D01*
X138459800Y-57330877D02*
X138364561Y-57426115D01*
X138364561Y-57426115D02*
X138269323Y-57473734D01*
X138269323Y-57473734D02*
X138078847Y-57521353D01*
X138078847Y-57521353D02*
X137935990Y-57521353D01*
X137935990Y-57521353D02*
X137745514Y-57473734D01*
X137745514Y-57473734D02*
X137650276Y-57426115D01*
X137650276Y-57426115D02*
X137555038Y-57330877D01*
X137555038Y-57330877D02*
X137507419Y-57188020D01*
X137507419Y-57188020D02*
X137507419Y-57092782D01*
X137507419Y-57092782D02*
X137555038Y-56949925D01*
X137555038Y-56949925D02*
X137602657Y-56902306D01*
X138507419Y-55997544D02*
X138507419Y-56473734D01*
X138507419Y-56473734D02*
X137507419Y-56473734D01*
D10*
X128609048Y-147774866D02*
X129370953Y-147774866D01*
X128990000Y-148155819D02*
X128990000Y-147393914D01*
D14*
%TO.C,J1*%
X101860214Y-92375000D02*
X103110214Y-92375000D01*
X102150214Y-92085000D02*
X108120214Y-92085000D01*
X108120214Y-92085000D02*
X108120214Y-79465000D01*
X102160214Y-92075000D02*
X102910214Y-92075000D01*
X102910214Y-92075000D02*
X102910214Y-90275000D01*
X104410214Y-92075000D02*
X104410214Y-91325000D01*
X104410214Y-91325000D02*
X107360214Y-91325000D01*
X107360214Y-91325000D02*
X107360214Y-85775000D01*
X101860214Y-91125000D02*
X101860214Y-92375000D01*
X102160214Y-90275000D02*
X102160214Y-92075000D01*
X102910214Y-90275000D02*
X102160214Y-90275000D01*
X102160214Y-88775000D02*
X102910214Y-88775000D01*
X102910214Y-88775000D02*
X102910214Y-82775000D01*
X102160214Y-82775000D02*
X102160214Y-88775000D01*
X102910214Y-82775000D02*
X102160214Y-82775000D01*
X102160214Y-81275000D02*
X102910214Y-81275000D01*
X102910214Y-81275000D02*
X102910214Y-79475000D01*
X104410214Y-80225000D02*
X107360214Y-80225000D01*
X107360214Y-80225000D02*
X107360214Y-85775000D01*
X102160214Y-79475000D02*
X102160214Y-81275000D01*
X102910214Y-79475000D02*
X102160214Y-79475000D01*
X104410214Y-79475000D02*
X104410214Y-80225000D01*
X102150214Y-79465000D02*
X102150214Y-92085000D01*
X108120214Y-79465000D02*
X102150214Y-79465000D01*
%TO.C,G\u002A\u002A\u002A*%
G36*
X166143006Y-110833320D02*
G01*
X166167375Y-110878572D01*
X166121859Y-110976999D01*
X165995753Y-111001159D01*
X165840209Y-110955971D01*
X165824132Y-110878572D01*
X165944584Y-110764689D01*
X165995753Y-110755985D01*
X166143006Y-110833320D01*
G37*
G36*
X167900504Y-106620578D02*
G01*
X168023595Y-106755595D01*
X168053897Y-106961570D01*
X167989833Y-107111068D01*
X167807782Y-107177552D01*
X167610741Y-107118244D01*
X167522719Y-107011932D01*
X167532503Y-106815514D01*
X167665171Y-106657924D01*
X167853823Y-106608465D01*
X167900504Y-106620578D01*
G37*
G36*
X167982421Y-110448283D02*
G01*
X168043036Y-110628444D01*
X168055213Y-110805020D01*
X168030922Y-111077782D01*
X167950400Y-111190178D01*
X167908108Y-111197298D01*
X167778091Y-111118796D01*
X167761004Y-111050193D01*
X167712580Y-110961481D01*
X167542661Y-110915808D01*
X167221622Y-110903089D01*
X166900533Y-110915099D01*
X166734293Y-110958855D01*
X166682652Y-111045943D01*
X166682240Y-111058366D01*
X166636252Y-111173554D01*
X166536226Y-111155485D01*
X166439064Y-111032649D01*
X166405728Y-110919925D01*
X166402476Y-110808385D01*
X166460893Y-110744587D01*
X166621511Y-110715279D01*
X166924864Y-110707210D01*
X167057205Y-110706950D01*
X167447316Y-110695372D01*
X167678257Y-110655880D01*
X167785896Y-110581338D01*
X167796469Y-110559846D01*
X167892218Y-110417823D01*
X167982421Y-110448283D01*
G37*
G36*
X168034995Y-103188671D02*
G01*
X168030013Y-103539718D01*
X167969295Y-103759068D01*
X167876712Y-103875158D01*
X167708459Y-103952362D01*
X167433897Y-104007951D01*
X167109283Y-104039470D01*
X166790872Y-104044463D01*
X166534921Y-104020472D01*
X166397686Y-103965042D01*
X166388031Y-103940155D01*
X166476603Y-103885976D01*
X166704662Y-103850360D01*
X166916549Y-103842085D01*
X167359357Y-103797225D01*
X167666996Y-103670992D01*
X167819940Y-103475907D01*
X167814105Y-103266480D01*
X167640392Y-103037037D01*
X167295163Y-102902024D01*
X166822960Y-102861390D01*
X166561994Y-102841643D01*
X166406789Y-102791757D01*
X166388031Y-102763321D01*
X166480042Y-102715220D01*
X166732334Y-102681267D01*
X167109299Y-102665761D01*
X167200562Y-102665251D01*
X168013093Y-102665251D01*
X168034995Y-103188671D01*
G37*
G36*
X167805967Y-94542152D02*
G01*
X168007608Y-94584077D01*
X168020673Y-94639132D01*
X167843148Y-94695190D01*
X167473022Y-94740128D01*
X167453617Y-94741563D01*
X167060491Y-94790501D01*
X166820372Y-94875931D01*
X166718096Y-94968233D01*
X166602765Y-95167604D01*
X166625853Y-95324849D01*
X166780309Y-95506178D01*
X166969296Y-95633012D01*
X167245444Y-95692209D01*
X167515830Y-95702317D01*
X167811215Y-95718439D01*
X168007131Y-95760026D01*
X168055213Y-95800386D01*
X167963204Y-95848492D01*
X167710928Y-95882446D01*
X167334009Y-95897947D01*
X167242949Y-95898456D01*
X166430685Y-95898456D01*
X166409350Y-95408116D01*
X166428159Y-95011318D01*
X166543317Y-94748542D01*
X166781369Y-94596557D01*
X167168856Y-94532130D01*
X167417761Y-94525483D01*
X167805967Y-94542152D01*
G37*
G36*
X167975633Y-111474253D02*
G01*
X168039693Y-111655265D01*
X168055213Y-111840537D01*
X168022171Y-112092105D01*
X167917321Y-112177704D01*
X167908108Y-112177992D01*
X167778091Y-112099491D01*
X167761004Y-112030888D01*
X167725415Y-111957344D01*
X167595869Y-111912332D01*
X167338193Y-111889823D01*
X166927413Y-111883784D01*
X166510662Y-111890064D01*
X166255596Y-111912926D01*
X166128043Y-111958398D01*
X166093823Y-112030888D01*
X166040868Y-112161396D01*
X165995753Y-112177992D01*
X165922032Y-112094067D01*
X165897684Y-111932819D01*
X165904268Y-111818722D01*
X165948652Y-111746995D01*
X166067784Y-111707803D01*
X166298612Y-111691314D01*
X166678083Y-111687692D01*
X166818852Y-111687645D01*
X167267641Y-111681567D01*
X167556066Y-111659628D01*
X167719630Y-111616276D01*
X167793836Y-111545954D01*
X167798854Y-111534325D01*
X167886418Y-111423267D01*
X167975633Y-111474253D01*
G37*
G36*
X166654936Y-93430409D02*
G01*
X166682240Y-93544788D01*
X166700761Y-93647865D01*
X166784282Y-93706916D01*
X166974743Y-93733925D01*
X167314082Y-93740872D01*
X167368726Y-93740927D01*
X167720877Y-93753885D01*
X167964210Y-93788615D01*
X168055212Y-93838901D01*
X168055213Y-93838996D01*
X167964648Y-93889519D01*
X167722535Y-93924356D01*
X167380164Y-93937066D01*
X167019391Y-93943315D01*
X166808469Y-93970750D01*
X166701280Y-94032407D01*
X166651705Y-94141319D01*
X166651244Y-94143072D01*
X166560154Y-94275397D01*
X166448213Y-94253404D01*
X166388383Y-94095026D01*
X166388031Y-94078382D01*
X166302601Y-93966295D01*
X166142857Y-93937066D01*
X165958554Y-93903495D01*
X165897684Y-93838996D01*
X165981610Y-93765275D01*
X166142857Y-93740927D01*
X166335114Y-93694957D01*
X166388031Y-93544788D01*
X166449351Y-93385053D01*
X166535135Y-93348649D01*
X166654936Y-93430409D01*
G37*
G36*
X166148651Y-109584422D02*
G01*
X166280302Y-109702532D01*
X166353330Y-109652703D01*
X166461124Y-109552093D01*
X166602659Y-109537389D01*
X166681511Y-109615781D01*
X166682240Y-109628186D01*
X166770910Y-109681892D01*
X166999643Y-109717513D01*
X167221622Y-109726255D01*
X167517006Y-109710133D01*
X167712923Y-109668545D01*
X167761004Y-109628186D01*
X167840436Y-109541180D01*
X167908108Y-109530116D01*
X168016909Y-109604548D01*
X168054947Y-109842098D01*
X168055213Y-109873359D01*
X168023313Y-110127228D01*
X167921506Y-110215982D01*
X167908108Y-110216603D01*
X167777601Y-110163648D01*
X167761004Y-110118533D01*
X167672334Y-110064827D01*
X167443601Y-110029206D01*
X167221622Y-110020464D01*
X166926238Y-110036585D01*
X166730321Y-110078173D01*
X166682240Y-110118533D01*
X166616442Y-110209275D01*
X166455480Y-110177197D01*
X166327828Y-110094016D01*
X166037048Y-109845821D01*
X165884188Y-109681481D01*
X165847222Y-109571330D01*
X165887509Y-109501063D01*
X166009889Y-109463081D01*
X166148651Y-109584422D01*
G37*
G36*
X156817559Y-96527329D02*
G01*
X157093533Y-96632082D01*
X157510468Y-96796350D01*
X158048352Y-97012088D01*
X158687173Y-97271254D01*
X159406922Y-97565804D01*
X160187585Y-97887692D01*
X160454827Y-97998406D01*
X164083398Y-99503416D01*
X164110369Y-101151469D01*
X164137339Y-102799522D01*
X163847382Y-102399248D01*
X163334156Y-101834016D01*
X162742383Y-101448262D01*
X162069605Y-101240685D01*
X161582626Y-101200667D01*
X161251613Y-101213186D01*
X160954512Y-101264249D01*
X160667212Y-101369857D01*
X160365598Y-101546011D01*
X160025559Y-101808709D01*
X159622983Y-102173954D01*
X159133755Y-102657746D01*
X158672741Y-103131585D01*
X157184864Y-104675676D01*
X156907490Y-104524836D01*
X156630116Y-104373997D01*
X156604486Y-100430435D01*
X156599027Y-99409910D01*
X156597407Y-98570472D01*
X156599998Y-97897097D01*
X156607176Y-97374763D01*
X156619314Y-96988449D01*
X156636786Y-96723130D01*
X156659965Y-96563787D01*
X156689227Y-96495394D01*
X156702556Y-96490134D01*
X156817559Y-96527329D01*
G37*
G36*
X167368726Y-108244581D02*
G01*
X167383426Y-108653027D01*
X167431737Y-108875049D01*
X167519978Y-108918452D01*
X167654466Y-108791044D01*
X167727038Y-108687292D01*
X167828369Y-108507014D01*
X167833808Y-108358540D01*
X167741251Y-108150139D01*
X167713540Y-108098289D01*
X167599814Y-107839397D01*
X167598407Y-107714715D01*
X167700296Y-107739096D01*
X167849213Y-107874943D01*
X168026544Y-108195866D01*
X168041484Y-108559094D01*
X167896036Y-108899952D01*
X167814497Y-108995192D01*
X167491648Y-109203086D01*
X167143828Y-109221799D01*
X166987832Y-109146381D01*
X166793547Y-109052451D01*
X166663223Y-108937770D01*
X166472091Y-108715493D01*
X166407899Y-108523223D01*
X166426954Y-108335270D01*
X166706581Y-108335270D01*
X166735662Y-108623394D01*
X166765760Y-108703757D01*
X166890106Y-108904167D01*
X166987832Y-108916382D01*
X167051711Y-108747386D01*
X167074518Y-108405395D01*
X167065029Y-108096095D01*
X167029005Y-107945596D01*
X166955106Y-107917149D01*
X166926567Y-107925864D01*
X166775552Y-108076945D01*
X166706581Y-108335270D01*
X166426954Y-108335270D01*
X166427977Y-108325176D01*
X166591188Y-107937803D01*
X166894464Y-107686221D01*
X167099035Y-107613313D01*
X167368726Y-107547463D01*
X167368726Y-108244581D01*
G37*
G36*
X167647047Y-104450264D02*
G01*
X167929377Y-104505258D01*
X168052409Y-104589051D01*
X167999938Y-104695207D01*
X167959237Y-104723416D01*
X167894017Y-104813607D01*
X167946673Y-104865344D01*
X168016820Y-104998766D01*
X168053608Y-105244492D01*
X168055213Y-105310198D01*
X168016355Y-105610245D01*
X167867106Y-105837893D01*
X167753480Y-105941862D01*
X167406817Y-106150925D01*
X167181624Y-106162099D01*
X167081731Y-106167056D01*
X166761860Y-105989757D01*
X166674696Y-105909088D01*
X166452387Y-105582084D01*
X166412995Y-105370507D01*
X166646377Y-105370507D01*
X166749002Y-105654134D01*
X166917577Y-105826491D01*
X167181624Y-105898918D01*
X167467489Y-105830019D01*
X167711032Y-105654767D01*
X167848113Y-105408135D01*
X167859074Y-105313128D01*
X167792514Y-105099637D01*
X167662935Y-104920850D01*
X167371503Y-104739974D01*
X167073795Y-104742700D01*
X166809621Y-104921981D01*
X166693471Y-105092471D01*
X166646377Y-105370507D01*
X166412995Y-105370507D01*
X166387172Y-105231809D01*
X166482426Y-104923438D01*
X166514229Y-104763798D01*
X166468360Y-104713746D01*
X166381492Y-104608393D01*
X166471640Y-104521561D01*
X166720014Y-104460316D01*
X167107824Y-104431722D01*
X167221622Y-104430502D01*
X167647047Y-104450264D01*
G37*
G36*
X167257559Y-96204326D02*
G01*
X167326901Y-96267580D01*
X167359101Y-96424831D01*
X167368310Y-96718485D01*
X167368726Y-96887323D01*
X167386118Y-97292272D01*
X167440698Y-97507280D01*
X167536074Y-97535647D01*
X167675856Y-97380676D01*
X167758672Y-97244110D01*
X167842342Y-97059883D01*
X167825098Y-96909406D01*
X167694369Y-96704633D01*
X167678575Y-96683192D01*
X167526317Y-96432536D01*
X167492295Y-96278352D01*
X167566065Y-96245479D01*
X167737178Y-96358760D01*
X167792765Y-96411649D01*
X168010287Y-96748669D01*
X168056769Y-97120101D01*
X167931289Y-97474701D01*
X167814497Y-97619130D01*
X167497766Y-97819383D01*
X167151268Y-97860770D01*
X166988456Y-97812069D01*
X166822380Y-97762391D01*
X166558483Y-97543346D01*
X166406956Y-97222734D01*
X166388031Y-97044086D01*
X166392291Y-97026255D01*
X166657722Y-97026255D01*
X166710061Y-97279320D01*
X166836685Y-97483880D01*
X166988456Y-97565637D01*
X167035590Y-97476951D01*
X167066850Y-97248182D01*
X167074518Y-97026255D01*
X167060367Y-96730847D01*
X167023866Y-96534930D01*
X166988456Y-96486873D01*
X166833284Y-96572230D01*
X166707854Y-96778736D01*
X166657722Y-97026255D01*
X166392291Y-97026255D01*
X166465301Y-96720683D01*
X166662883Y-96433320D01*
X166929436Y-96240366D01*
X167136926Y-96192664D01*
X167257559Y-96204326D01*
G37*
G36*
X167434725Y-89632604D02*
G01*
X167797301Y-89663102D01*
X167990016Y-89711573D01*
X168012954Y-89731042D01*
X168011130Y-89870440D01*
X167974884Y-89905252D01*
X167923902Y-90031525D01*
X167960818Y-90114944D01*
X168063185Y-90445017D01*
X168000911Y-90795647D01*
X167786816Y-91103858D01*
X167753480Y-91133367D01*
X167406817Y-91342431D01*
X167319387Y-91346769D01*
X167081731Y-91358561D01*
X166761860Y-91181263D01*
X166674696Y-91100594D01*
X166441123Y-90755242D01*
X166405433Y-90462670D01*
X166652413Y-90462670D01*
X166677061Y-90727673D01*
X166821723Y-90940673D01*
X167048474Y-91070537D01*
X167319387Y-91086130D01*
X167596533Y-90956318D01*
X167662935Y-90896911D01*
X167809866Y-90683420D01*
X167859074Y-90504633D01*
X167792514Y-90291142D01*
X167662935Y-90112355D01*
X167376959Y-89939822D01*
X167078543Y-89953578D01*
X166807030Y-90150733D01*
X166785709Y-90176800D01*
X166652413Y-90462670D01*
X166405433Y-90462670D01*
X166396151Y-90386580D01*
X166489551Y-90105908D01*
X166536007Y-89979972D01*
X166464435Y-89926905D01*
X166244377Y-89916216D01*
X165989146Y-89884969D01*
X165898555Y-89784918D01*
X165897684Y-89769112D01*
X165929347Y-89701773D01*
X166045492Y-89658033D01*
X166277851Y-89633333D01*
X166658156Y-89623113D01*
X166921626Y-89622008D01*
X167434725Y-89632604D01*
G37*
G36*
X167249241Y-91592907D02*
G01*
X167323857Y-91649870D01*
X167358374Y-91796941D01*
X167368227Y-92076773D01*
X167368726Y-92273335D01*
X167372316Y-92630458D01*
X167390752Y-92827179D01*
X167435530Y-92899208D01*
X167518150Y-92882252D01*
X167558224Y-92861856D01*
X167773757Y-92656836D01*
X167815067Y-92384160D01*
X167678138Y-92073634D01*
X167666553Y-92057665D01*
X167519079Y-91811538D01*
X167492941Y-91664136D01*
X167575729Y-91640559D01*
X167755031Y-91765911D01*
X167792765Y-91802383D01*
X167990193Y-92109423D01*
X168055966Y-92461653D01*
X167980713Y-92786128D01*
X167929507Y-92866800D01*
X167656943Y-93098545D01*
X167313391Y-93235107D01*
X167171491Y-93250579D01*
X167009612Y-93197032D01*
X166915571Y-93165925D01*
X166663585Y-92952521D01*
X166469726Y-92671208D01*
X166388191Y-92382828D01*
X166388152Y-92379963D01*
X166645297Y-92379963D01*
X166692737Y-92655281D01*
X166854315Y-92857202D01*
X166919901Y-92890883D01*
X167009612Y-92894809D01*
X167056712Y-92792916D01*
X167073515Y-92547225D01*
X167074518Y-92413911D01*
X167058681Y-92119483D01*
X167017852Y-91924686D01*
X166978709Y-91877606D01*
X166860352Y-91951476D01*
X166730930Y-92109543D01*
X166645297Y-92379963D01*
X166388152Y-92379963D01*
X166388031Y-92371040D01*
X166469614Y-92053647D01*
X166677548Y-91780436D01*
X166956615Y-91610899D01*
X167119095Y-91583398D01*
X167249241Y-91592907D01*
G37*
G36*
X156797249Y-91227322D02*
G01*
X157068853Y-91330076D01*
X157477549Y-91490602D01*
X158001336Y-91700120D01*
X158618212Y-91949850D01*
X159306174Y-92231013D01*
X159798445Y-92433645D01*
X160622141Y-92774459D01*
X161285629Y-93051953D01*
X161810348Y-93276802D01*
X162217737Y-93459678D01*
X162529236Y-93611257D01*
X162766283Y-93742213D01*
X162950316Y-93863219D01*
X163102776Y-93984949D01*
X163245100Y-94118077D01*
X163308043Y-94181000D01*
X163683533Y-94622853D01*
X163933397Y-95084091D01*
X164076201Y-95615795D01*
X164130506Y-96269048D01*
X164132433Y-96449520D01*
X164124126Y-96827575D01*
X164102019Y-97123439D01*
X164070335Y-97288004D01*
X164058881Y-97304903D01*
X163959094Y-97276747D01*
X163701859Y-97182464D01*
X163310661Y-97031651D01*
X162808984Y-96833907D01*
X162220311Y-96598827D01*
X161568128Y-96336010D01*
X160875918Y-96055053D01*
X160167165Y-95765554D01*
X159465354Y-95477108D01*
X158793969Y-95199315D01*
X158176495Y-94941770D01*
X157636414Y-94714072D01*
X157197212Y-94525818D01*
X156882373Y-94386605D01*
X156715381Y-94306031D01*
X156703668Y-94299039D01*
X156658463Y-94178926D01*
X156622698Y-93909847D01*
X156596618Y-93531912D01*
X156580467Y-93085230D01*
X156574491Y-92609909D01*
X156578932Y-92146061D01*
X156594035Y-91733793D01*
X156620045Y-91413216D01*
X156657206Y-91224439D01*
X156684739Y-91191120D01*
X156797249Y-91227322D01*
G37*
G36*
X167453267Y-98076167D02*
G01*
X167827137Y-98120189D01*
X168021035Y-98189353D01*
X168032893Y-98263903D01*
X167860642Y-98324084D01*
X167502210Y-98350140D01*
X167481973Y-98350193D01*
X167053734Y-98377297D01*
X166792901Y-98461579D01*
X166738279Y-98504302D01*
X166611300Y-98650613D01*
X166604564Y-98775743D01*
X166685690Y-98945057D01*
X166775917Y-99051297D01*
X166935920Y-99109445D01*
X167215775Y-99132418D01*
X167421211Y-99134749D01*
X167777665Y-99144663D01*
X167975340Y-99180068D01*
X168050857Y-99249462D01*
X168055213Y-99281854D01*
X168012487Y-99364560D01*
X167859895Y-99410425D01*
X167560815Y-99427947D01*
X167421211Y-99428958D01*
X167060788Y-99438942D01*
X166845802Y-99477503D01*
X166726179Y-99557557D01*
X166685690Y-99618650D01*
X166598753Y-99807937D01*
X166621493Y-99929852D01*
X166738279Y-100059405D01*
X166951267Y-100165495D01*
X167327601Y-100211051D01*
X167473801Y-100213514D01*
X167784358Y-100228562D01*
X167994599Y-100267785D01*
X168055213Y-100311583D01*
X167963200Y-100359681D01*
X167710894Y-100393632D01*
X167333893Y-100409141D01*
X167242461Y-100409653D01*
X166429709Y-100409653D01*
X166413467Y-100002339D01*
X166427262Y-99694697D01*
X166481852Y-99443837D01*
X166499782Y-99403393D01*
X166549535Y-99200026D01*
X166495186Y-99104607D01*
X166388217Y-98873797D01*
X166419303Y-98590210D01*
X166575162Y-98325840D01*
X166651942Y-98254907D01*
X166867196Y-98126382D01*
X167127084Y-98073707D01*
X167453267Y-98076167D01*
G37*
G36*
X167671882Y-100717505D02*
G01*
X167997167Y-100770728D01*
X168140718Y-100812246D01*
X168452177Y-101009003D01*
X168623492Y-101303299D01*
X168646055Y-101647180D01*
X168511261Y-101992692D01*
X168381182Y-102152058D01*
X168180544Y-102297742D01*
X168068946Y-102288203D01*
X168079269Y-102156145D01*
X168204512Y-101976340D01*
X168343908Y-101712068D01*
X168358466Y-101418932D01*
X168249002Y-101176538D01*
X168195832Y-101128305D01*
X167993901Y-101012045D01*
X167907554Y-101032642D01*
X167952835Y-101186155D01*
X167953693Y-101187761D01*
X168055534Y-101541224D01*
X168000987Y-101866614D01*
X167826179Y-102138130D01*
X167567234Y-102329967D01*
X167314079Y-102401187D01*
X167260277Y-102416323D01*
X166941434Y-102371395D01*
X166646830Y-102169380D01*
X166620496Y-102140014D01*
X166437801Y-101814174D01*
X166417204Y-101643876D01*
X166616669Y-101643876D01*
X166722021Y-101831302D01*
X166722032Y-101831318D01*
X166885427Y-102031424D01*
X167031417Y-102141716D01*
X167314079Y-102157913D01*
X167587490Y-102035590D01*
X167738429Y-101858309D01*
X167838850Y-101579666D01*
X167804902Y-101372963D01*
X167656994Y-101188268D01*
X167382252Y-101031436D01*
X167083607Y-101051478D01*
X166807343Y-101242118D01*
X166750534Y-101311182D01*
X166624353Y-101503714D01*
X166616669Y-101643876D01*
X166417204Y-101643876D01*
X166395559Y-101464915D01*
X166482426Y-101196797D01*
X166514229Y-101037157D01*
X166468360Y-100987105D01*
X166395047Y-100891386D01*
X166480582Y-100810827D01*
X166687999Y-100749295D01*
X166980332Y-100710654D01*
X167320615Y-100698769D01*
X167671882Y-100717505D01*
G37*
G36*
X153049349Y-89699475D02*
G01*
X153293525Y-89772510D01*
X153605215Y-89884802D01*
X153929115Y-90014922D01*
X154209918Y-90141444D01*
X154392321Y-90242938D01*
X154419148Y-90264862D01*
X154439529Y-90383156D01*
X154458490Y-90692564D01*
X154475946Y-91188065D01*
X154491810Y-91864638D01*
X154505999Y-92717263D01*
X154518427Y-93740919D01*
X154529009Y-94930585D01*
X154537660Y-96281241D01*
X154543676Y-97617112D01*
X154548818Y-98982320D01*
X154553672Y-100165286D01*
X154558675Y-101179905D01*
X154564267Y-102040071D01*
X154570886Y-102759680D01*
X154578972Y-103352626D01*
X154588964Y-103832806D01*
X154601300Y-104214114D01*
X154616420Y-104510445D01*
X154634762Y-104735694D01*
X154656765Y-104903757D01*
X154682869Y-105028528D01*
X154713512Y-105123903D01*
X154749133Y-105203776D01*
X154785535Y-105273378D01*
X155116312Y-105736499D01*
X155562261Y-106152680D01*
X156047646Y-106452216D01*
X156083602Y-106468067D01*
X156535107Y-106587106D01*
X157079620Y-106622343D01*
X157632985Y-106574141D01*
X158069666Y-106459474D01*
X158258385Y-106369032D01*
X158470259Y-106226787D01*
X158726717Y-106013651D01*
X159049186Y-105710534D01*
X159459095Y-105298347D01*
X159968088Y-104768298D01*
X160489827Y-104225201D01*
X160899551Y-103815900D01*
X161215517Y-103527561D01*
X161455980Y-103347351D01*
X161639196Y-103262437D01*
X161783422Y-103259986D01*
X161906913Y-103327163D01*
X161955290Y-103371352D01*
X161987788Y-103458870D01*
X162014376Y-103658993D01*
X162035456Y-103984836D01*
X162051431Y-104449514D01*
X162062702Y-105066142D01*
X162069672Y-105847834D01*
X162072744Y-106807706D01*
X162072973Y-107207500D01*
X162072524Y-108160041D01*
X162070615Y-108934442D01*
X162066404Y-109548700D01*
X162059050Y-110020814D01*
X162047710Y-110368780D01*
X162031542Y-110610598D01*
X162009705Y-110764264D01*
X161981356Y-110847776D01*
X161945655Y-110879132D01*
X161901758Y-110876331D01*
X161901352Y-110876213D01*
X161713473Y-110809522D01*
X161374234Y-110676644D01*
X160907468Y-110487705D01*
X160337008Y-110252829D01*
X159686684Y-109982141D01*
X158980331Y-109685767D01*
X158241780Y-109373833D01*
X157494864Y-109056462D01*
X156763414Y-108743781D01*
X156071264Y-108445914D01*
X155442246Y-108172987D01*
X154900192Y-107935125D01*
X154468935Y-107742453D01*
X154172307Y-107605096D01*
X154036689Y-107534915D01*
X153654373Y-107198102D01*
X153302539Y-106738310D01*
X153034307Y-106227390D01*
X152996046Y-106127302D01*
X152971238Y-106025343D01*
X152949508Y-105859693D01*
X152930661Y-105618560D01*
X152914505Y-105290152D01*
X152900848Y-104862676D01*
X152889495Y-104324338D01*
X152880255Y-103663347D01*
X152872932Y-102867910D01*
X152867336Y-101926235D01*
X152863271Y-100826528D01*
X152860546Y-99556998D01*
X152858967Y-98105851D01*
X152858745Y-97743047D01*
X152858961Y-96507238D01*
X152860877Y-95328613D01*
X152864368Y-94221805D01*
X152869308Y-93201449D01*
X152875571Y-92282179D01*
X152883031Y-91478630D01*
X152891564Y-90805437D01*
X152901042Y-90277233D01*
X152911340Y-89908653D01*
X152922332Y-89714331D01*
X152927993Y-89687123D01*
X153049349Y-89699475D01*
G37*
%TO.C,J3*%
X95460000Y-115420000D02*
X94210000Y-115420000D01*
X95170000Y-115710000D02*
X89200000Y-115710000D01*
X89200000Y-115710000D02*
X89200000Y-130830000D01*
X95160000Y-115720000D02*
X94410000Y-115720000D01*
X94410000Y-115720000D02*
X94410000Y-117520000D01*
X92910000Y-115720000D02*
X92910000Y-116470000D01*
X92910000Y-116470000D02*
X89960000Y-116470000D01*
X89960000Y-116470000D02*
X89960000Y-123270000D01*
X95460000Y-116670000D02*
X95460000Y-115420000D01*
X95160000Y-117520000D02*
X95160000Y-115720000D01*
X94410000Y-117520000D02*
X95160000Y-117520000D01*
X95160000Y-119020000D02*
X94410000Y-119020000D01*
X94410000Y-119020000D02*
X94410000Y-127520000D01*
X95160000Y-127520000D02*
X95160000Y-119020000D01*
X94410000Y-127520000D02*
X95160000Y-127520000D01*
X95160000Y-129020000D02*
X94410000Y-129020000D01*
X94410000Y-129020000D02*
X94410000Y-130820000D01*
X92910000Y-130070000D02*
X89960000Y-130070000D01*
X89960000Y-130070000D02*
X89960000Y-123270000D01*
X95160000Y-130820000D02*
X95160000Y-129020000D01*
X94410000Y-130820000D02*
X95160000Y-130820000D01*
X92910000Y-130820000D02*
X92910000Y-130070000D01*
X95170000Y-130830000D02*
X95170000Y-115710000D01*
X89200000Y-130830000D02*
X95170000Y-130830000D01*
%TO.C,J5*%
X162252000Y-66562000D02*
X159842000Y-66562000D01*
X159842000Y-66562000D02*
X159842000Y-68972000D01*
X165262000Y-66862000D02*
X160142000Y-66862000D01*
X160142000Y-66862000D02*
X160142000Y-75982000D01*
X160142000Y-75982000D02*
X161142000Y-76982000D01*
X165262000Y-76982000D02*
X165262000Y-66862000D01*
X161142000Y-76982000D02*
X165262000Y-76982000D01*
%TO.C,Q1*%
X138154000Y-73584000D02*
X141754000Y-73584000D01*
X139954000Y-69134000D02*
G75*
G03*
X138115522Y-73572478I0J-2600000D01*
G01*
X141792478Y-73572478D02*
G75*
G03*
X139954000Y-69134000I-1838478J1838478D01*
G01*
%TO.C,J8*%
X87310000Y-65332000D02*
X87310000Y-67742000D01*
X87310000Y-67742000D02*
X89720000Y-67742000D01*
X87610000Y-62322000D02*
X87610000Y-67442000D01*
X87610000Y-67442000D02*
X96730000Y-67442000D01*
X96730000Y-67442000D02*
X97730000Y-66442000D01*
X97730000Y-62322000D02*
X87610000Y-62322000D01*
X97730000Y-66442000D02*
X97730000Y-62322000D01*
%TO.C,L2*%
X109875000Y-113792000D02*
G75*
G03*
X109875000Y-113792000I-6370000J0D01*
G01*
%TO.C,J7*%
X87898000Y-135944000D02*
X87898000Y-138354000D01*
X87898000Y-138354000D02*
X90308000Y-138354000D01*
X88198000Y-132934000D02*
X88198000Y-138054000D01*
X88198000Y-138054000D02*
X97318000Y-138054000D01*
X97318000Y-138054000D02*
X98318000Y-137054000D01*
X98318000Y-132934000D02*
X88198000Y-132934000D01*
X98318000Y-137054000D02*
X98318000Y-132934000D01*
%TO.C,C18*%
X142428000Y-125249759D02*
X142428000Y-125879759D01*
X142743000Y-125564759D02*
X142113000Y-125564759D01*
X143819000Y-128750000D02*
X137359000Y-128750000D01*
X143819000Y-128790000D02*
X137359000Y-128790000D01*
X143819000Y-128830000D02*
X137359000Y-128830000D01*
X143817000Y-128870000D02*
X137361000Y-128870000D01*
X143816000Y-128910000D02*
X137362000Y-128910000D01*
X143813000Y-128950000D02*
X137365000Y-128950000D01*
X143811000Y-128990000D02*
X141629000Y-128990000D01*
X139549000Y-128990000D02*
X137367000Y-128990000D01*
X143807000Y-129030000D02*
X141629000Y-129030000D01*
X139549000Y-129030000D02*
X137371000Y-129030000D01*
X143804000Y-129070000D02*
X141629000Y-129070000D01*
X139549000Y-129070000D02*
X137374000Y-129070000D01*
X143800000Y-129110000D02*
X141629000Y-129110000D01*
X139549000Y-129110000D02*
X137378000Y-129110000D01*
X143795000Y-129150000D02*
X141629000Y-129150000D01*
X139549000Y-129150000D02*
X137383000Y-129150000D01*
X143790000Y-129190000D02*
X141629000Y-129190000D01*
X139549000Y-129190000D02*
X137388000Y-129190000D01*
X143784000Y-129230000D02*
X141629000Y-129230000D01*
X139549000Y-129230000D02*
X137394000Y-129230000D01*
X143778000Y-129270000D02*
X141629000Y-129270000D01*
X139549000Y-129270000D02*
X137400000Y-129270000D01*
X143771000Y-129310000D02*
X141629000Y-129310000D01*
X139549000Y-129310000D02*
X137407000Y-129310000D01*
X143764000Y-129350000D02*
X141629000Y-129350000D01*
X139549000Y-129350000D02*
X137414000Y-129350000D01*
X143756000Y-129390000D02*
X141629000Y-129390000D01*
X139549000Y-129390000D02*
X137422000Y-129390000D01*
X143748000Y-129430000D02*
X141629000Y-129430000D01*
X139549000Y-129430000D02*
X137430000Y-129430000D01*
X143739000Y-129471000D02*
X141629000Y-129471000D01*
X139549000Y-129471000D02*
X137439000Y-129471000D01*
X143730000Y-129511000D02*
X141629000Y-129511000D01*
X139549000Y-129511000D02*
X137448000Y-129511000D01*
X143720000Y-129551000D02*
X141629000Y-129551000D01*
X139549000Y-129551000D02*
X137458000Y-129551000D01*
X143710000Y-129591000D02*
X141629000Y-129591000D01*
X139549000Y-129591000D02*
X137468000Y-129591000D01*
X143699000Y-129631000D02*
X141629000Y-129631000D01*
X139549000Y-129631000D02*
X137479000Y-129631000D01*
X143687000Y-129671000D02*
X141629000Y-129671000D01*
X139549000Y-129671000D02*
X137491000Y-129671000D01*
X143675000Y-129711000D02*
X141629000Y-129711000D01*
X139549000Y-129711000D02*
X137503000Y-129711000D01*
X143663000Y-129751000D02*
X141629000Y-129751000D01*
X139549000Y-129751000D02*
X137515000Y-129751000D01*
X143650000Y-129791000D02*
X141629000Y-129791000D01*
X139549000Y-129791000D02*
X137528000Y-129791000D01*
X143636000Y-129831000D02*
X141629000Y-129831000D01*
X139549000Y-129831000D02*
X137542000Y-129831000D01*
X143622000Y-129871000D02*
X141629000Y-129871000D01*
X139549000Y-129871000D02*
X137556000Y-129871000D01*
X143607000Y-129911000D02*
X141629000Y-129911000D01*
X139549000Y-129911000D02*
X137571000Y-129911000D01*
X143591000Y-129951000D02*
X141629000Y-129951000D01*
X139549000Y-129951000D02*
X137587000Y-129951000D01*
X143575000Y-129991000D02*
X141629000Y-129991000D01*
X139549000Y-129991000D02*
X137603000Y-129991000D01*
X143559000Y-130031000D02*
X141629000Y-130031000D01*
X139549000Y-130031000D02*
X137619000Y-130031000D01*
X143541000Y-130071000D02*
X141629000Y-130071000D01*
X139549000Y-130071000D02*
X137637000Y-130071000D01*
X143523000Y-130111000D02*
X141629000Y-130111000D01*
X139549000Y-130111000D02*
X137655000Y-130111000D01*
X143505000Y-130151000D02*
X141629000Y-130151000D01*
X139549000Y-130151000D02*
X137673000Y-130151000D01*
X143485000Y-130191000D02*
X141629000Y-130191000D01*
X139549000Y-130191000D02*
X137693000Y-130191000D01*
X143465000Y-130231000D02*
X141629000Y-130231000D01*
X139549000Y-130231000D02*
X137713000Y-130231000D01*
X143445000Y-130271000D02*
X141629000Y-130271000D01*
X139549000Y-130271000D02*
X137733000Y-130271000D01*
X143423000Y-130311000D02*
X141629000Y-130311000D01*
X139549000Y-130311000D02*
X137755000Y-130311000D01*
X143401000Y-130351000D02*
X141629000Y-130351000D01*
X139549000Y-130351000D02*
X137777000Y-130351000D01*
X143379000Y-130391000D02*
X141629000Y-130391000D01*
X139549000Y-130391000D02*
X137799000Y-130391000D01*
X143355000Y-130431000D02*
X141629000Y-130431000D01*
X139549000Y-130431000D02*
X137823000Y-130431000D01*
X143331000Y-130471000D02*
X141629000Y-130471000D01*
X139549000Y-130471000D02*
X137847000Y-130471000D01*
X143305000Y-130511000D02*
X141629000Y-130511000D01*
X139549000Y-130511000D02*
X137873000Y-130511000D01*
X143279000Y-130551000D02*
X141629000Y-130551000D01*
X139549000Y-130551000D02*
X137899000Y-130551000D01*
X143253000Y-130591000D02*
X141629000Y-130591000D01*
X139549000Y-130591000D02*
X137925000Y-130591000D01*
X143225000Y-130631000D02*
X141629000Y-130631000D01*
X139549000Y-130631000D02*
X137953000Y-130631000D01*
X143196000Y-130671000D02*
X141629000Y-130671000D01*
X139549000Y-130671000D02*
X137982000Y-130671000D01*
X143167000Y-130711000D02*
X141629000Y-130711000D01*
X139549000Y-130711000D02*
X138011000Y-130711000D01*
X143137000Y-130751000D02*
X141629000Y-130751000D01*
X139549000Y-130751000D02*
X138041000Y-130751000D01*
X143105000Y-130791000D02*
X141629000Y-130791000D01*
X139549000Y-130791000D02*
X138073000Y-130791000D01*
X143073000Y-130831000D02*
X141629000Y-130831000D01*
X139549000Y-130831000D02*
X138105000Y-130831000D01*
X143039000Y-130871000D02*
X141629000Y-130871000D01*
X139549000Y-130871000D02*
X138139000Y-130871000D01*
X143005000Y-130911000D02*
X141629000Y-130911000D01*
X139549000Y-130911000D02*
X138173000Y-130911000D01*
X142969000Y-130951000D02*
X141629000Y-130951000D01*
X139549000Y-130951000D02*
X138209000Y-130951000D01*
X142932000Y-130991000D02*
X141629000Y-130991000D01*
X139549000Y-130991000D02*
X138246000Y-130991000D01*
X142894000Y-131031000D02*
X141629000Y-131031000D01*
X139549000Y-131031000D02*
X138284000Y-131031000D01*
X142854000Y-131071000D02*
X138324000Y-131071000D01*
X142813000Y-131111000D02*
X138365000Y-131111000D01*
X142771000Y-131151000D02*
X138407000Y-131151000D01*
X142726000Y-131191000D02*
X138452000Y-131191000D01*
X142681000Y-131231000D02*
X138497000Y-131231000D01*
X142633000Y-131271000D02*
X138545000Y-131271000D01*
X142584000Y-131311000D02*
X138594000Y-131311000D01*
X142533000Y-131351000D02*
X138645000Y-131351000D01*
X142479000Y-131391000D02*
X138699000Y-131391000D01*
X142423000Y-131431000D02*
X138755000Y-131431000D01*
X142365000Y-131471000D02*
X138813000Y-131471000D01*
X142303000Y-131511000D02*
X138875000Y-131511000D01*
X142239000Y-131551000D02*
X138939000Y-131551000D01*
X142170000Y-131591000D02*
X139008000Y-131591000D01*
X142098000Y-131631000D02*
X139080000Y-131631000D01*
X142021000Y-131671000D02*
X139157000Y-131671000D01*
X141939000Y-131711000D02*
X139239000Y-131711000D01*
X141851000Y-131751000D02*
X139327000Y-131751000D01*
X141754000Y-131791000D02*
X139424000Y-131791000D01*
X141648000Y-131831000D02*
X139530000Y-131831000D01*
X141529000Y-131871000D02*
X139649000Y-131871000D01*
X141391000Y-131911000D02*
X139787000Y-131911000D01*
X141222000Y-131951000D02*
X139956000Y-131951000D01*
X140991000Y-131991000D02*
X140187000Y-131991000D01*
X143859000Y-128750000D02*
G75*
G03*
X143859000Y-128750000I-3270000J0D01*
G01*
%TO.C,J6*%
X162252000Y-122950000D02*
X159842000Y-122950000D01*
X159842000Y-122950000D02*
X159842000Y-125360000D01*
X165262000Y-123250000D02*
X160142000Y-123250000D01*
X160142000Y-123250000D02*
X160142000Y-132370000D01*
X160142000Y-132370000D02*
X161142000Y-133370000D01*
X165262000Y-133370000D02*
X165262000Y-123250000D01*
X161142000Y-133370000D02*
X165262000Y-133370000D01*
%TO.C,G\u002A\u002A\u002A*%
G36*
X134581315Y-88440545D02*
G01*
X134720853Y-88457896D01*
X134843690Y-88493831D01*
X134950279Y-88539649D01*
X135236260Y-88713712D01*
X135464766Y-88937628D01*
X135631093Y-89204487D01*
X135730536Y-89507380D01*
X135757303Y-89724916D01*
X135755742Y-89930035D01*
X135733562Y-90108501D01*
X135716569Y-90174481D01*
X135577966Y-90485681D01*
X135382407Y-90742873D01*
X135128087Y-90948103D01*
X134947354Y-91046767D01*
X134816663Y-91101053D01*
X134692626Y-91132389D01*
X134544612Y-91146438D01*
X134394269Y-91149040D01*
X134216403Y-91145571D01*
X134085206Y-91130596D01*
X133968849Y-91097263D01*
X133835502Y-91038720D01*
X133798887Y-91020873D01*
X133524103Y-90847313D01*
X133306364Y-90622600D01*
X133142206Y-90347722D01*
X133087239Y-90215830D01*
X133055521Y-90091783D01*
X133041280Y-89944662D01*
X133038594Y-89792539D01*
X133043140Y-89605543D01*
X133060626Y-89465940D01*
X133096821Y-89342813D01*
X133142206Y-89237356D01*
X133311675Y-88955521D01*
X133530887Y-88732323D01*
X133798887Y-88564204D01*
X133940693Y-88498858D01*
X134058149Y-88460306D01*
X134183086Y-88441696D01*
X134347334Y-88436176D01*
X134394269Y-88436037D01*
X134581315Y-88440545D01*
G37*
G36*
X137737201Y-100327738D02*
G01*
X137737201Y-112789562D01*
X137113649Y-112428125D01*
X136636272Y-112151411D01*
X135643088Y-111575706D01*
X134239078Y-110761824D01*
X132900122Y-109985604D01*
X131624720Y-109246173D01*
X130411374Y-108542656D01*
X129258587Y-107874182D01*
X128164859Y-107239875D01*
X127128691Y-106638863D01*
X126148587Y-106070272D01*
X125223047Y-105533228D01*
X124350572Y-105026858D01*
X123529665Y-104550288D01*
X122758827Y-104102644D01*
X122036560Y-103683053D01*
X121361365Y-103290642D01*
X120731743Y-102924536D01*
X120146197Y-102583863D01*
X119603228Y-102267748D01*
X119101338Y-101975318D01*
X118639028Y-101705700D01*
X118214799Y-101458019D01*
X117827154Y-101231403D01*
X117474594Y-101024978D01*
X117155620Y-100837869D01*
X116868735Y-100669204D01*
X116612439Y-100518109D01*
X116385234Y-100383711D01*
X116185623Y-100265135D01*
X116012106Y-100161509D01*
X115863185Y-100071958D01*
X115737361Y-99995609D01*
X115633137Y-99931588D01*
X115549014Y-99879022D01*
X115483493Y-99837038D01*
X115435077Y-99804762D01*
X115402266Y-99781319D01*
X115395987Y-99776122D01*
X117515677Y-99776122D01*
X117546589Y-99798157D01*
X117642839Y-99857992D01*
X117801705Y-99954032D01*
X118020464Y-100084687D01*
X118296394Y-100248362D01*
X118626774Y-100443464D01*
X119008881Y-100668402D01*
X119439993Y-100921583D01*
X119917387Y-101201413D01*
X120438341Y-101506300D01*
X121000134Y-101834652D01*
X121600042Y-102184874D01*
X122235344Y-102555376D01*
X122903318Y-102944563D01*
X123601241Y-103350844D01*
X124326391Y-103772625D01*
X125076046Y-104208314D01*
X125847484Y-104656317D01*
X126637982Y-105115043D01*
X126932550Y-105285893D01*
X127731216Y-105749060D01*
X128512860Y-106202359D01*
X129274701Y-106644178D01*
X130013956Y-107072904D01*
X130727845Y-107486922D01*
X131413586Y-107884621D01*
X132068396Y-108264385D01*
X132689494Y-108624603D01*
X133274099Y-108963660D01*
X133819428Y-109279943D01*
X134322700Y-109571839D01*
X134781133Y-109837734D01*
X135191945Y-110076016D01*
X135552355Y-110285070D01*
X135859581Y-110463283D01*
X136110840Y-110609042D01*
X136303353Y-110720734D01*
X136434336Y-110796745D01*
X136501007Y-110835462D01*
X136508486Y-110839817D01*
X136636272Y-110914548D01*
X136633168Y-109917862D01*
X136631590Y-109650457D01*
X136628754Y-109413952D01*
X136624898Y-109218126D01*
X136620258Y-109072757D01*
X136615071Y-108987624D01*
X136610232Y-108970325D01*
X136558331Y-109015447D01*
X136534678Y-109019474D01*
X136496210Y-109000001D01*
X136392610Y-108942685D01*
X136226745Y-108849178D01*
X136001482Y-108721133D01*
X135719690Y-108560202D01*
X135384236Y-108368038D01*
X134997987Y-108146294D01*
X134563810Y-107896621D01*
X134084574Y-107620674D01*
X133563146Y-107320103D01*
X133002393Y-106996562D01*
X132405182Y-106651704D01*
X131774382Y-106287180D01*
X131112859Y-105904645D01*
X130423481Y-105505749D01*
X129709116Y-105092146D01*
X128972632Y-104665488D01*
X128216895Y-104227428D01*
X127764249Y-103964937D01*
X126998710Y-103521092D01*
X126250806Y-103087801D01*
X125523399Y-102666712D01*
X124819353Y-102259470D01*
X124141529Y-101867721D01*
X123492790Y-101493111D01*
X122875999Y-101137285D01*
X122294017Y-100801891D01*
X121749707Y-100488572D01*
X121245931Y-100198977D01*
X120785552Y-99934750D01*
X120371433Y-99697537D01*
X120006435Y-99488985D01*
X119693422Y-99310739D01*
X119435254Y-99164446D01*
X119234796Y-99051750D01*
X119094909Y-98974299D01*
X119018455Y-98933738D01*
X119004252Y-98927780D01*
X118952496Y-98953802D01*
X118846637Y-99011364D01*
X118699133Y-99093364D01*
X118522443Y-99192702D01*
X118329028Y-99302278D01*
X118131348Y-99414989D01*
X117941862Y-99523736D01*
X117773029Y-99621417D01*
X117637309Y-99700933D01*
X117547163Y-99755181D01*
X117515677Y-99776122D01*
X115395987Y-99776122D01*
X115383562Y-99765837D01*
X115377467Y-99757442D01*
X115377974Y-99756071D01*
X115415962Y-99733003D01*
X115519391Y-99672970D01*
X115685237Y-99577688D01*
X115910476Y-99448875D01*
X116192082Y-99288246D01*
X116527033Y-99097520D01*
X116912303Y-98878411D01*
X117344867Y-98632638D01*
X117821702Y-98361917D01*
X118339782Y-98067964D01*
X118896084Y-97752497D01*
X119487583Y-97417231D01*
X120111253Y-97063885D01*
X120764072Y-96694174D01*
X121443013Y-96309815D01*
X122145054Y-95912525D01*
X122867169Y-95504021D01*
X123405467Y-95199595D01*
X124141951Y-94783134D01*
X124861473Y-94376246D01*
X125560951Y-93980676D01*
X126237303Y-93598167D01*
X126887444Y-93230463D01*
X127508293Y-92879309D01*
X128096766Y-92546448D01*
X128649781Y-92233624D01*
X129164255Y-91942583D01*
X129637105Y-91675066D01*
X130065248Y-91432820D01*
X130445601Y-91217587D01*
X130775082Y-91031112D01*
X131050607Y-90875138D01*
X131269094Y-90751410D01*
X131427460Y-90661672D01*
X131522623Y-90607668D01*
X131550024Y-90592034D01*
X131712847Y-90497825D01*
X131962872Y-90939393D01*
X132057565Y-91107075D01*
X132137621Y-91249680D01*
X132195352Y-91353453D01*
X132223073Y-91404641D01*
X132224160Y-91406915D01*
X132191702Y-91428698D01*
X132094214Y-91487183D01*
X131935140Y-91580404D01*
X131717923Y-91706395D01*
X131446007Y-91863186D01*
X131122834Y-92048812D01*
X130751847Y-92261306D01*
X130336491Y-92498700D01*
X129880208Y-92759026D01*
X129386442Y-93040318D01*
X128858635Y-93340609D01*
X128300231Y-93657932D01*
X127714674Y-93990319D01*
X127105406Y-94335803D01*
X126475870Y-94692417D01*
X126198699Y-94849314D01*
X125561348Y-95210129D01*
X124942659Y-95560592D01*
X124346085Y-95898740D01*
X123775075Y-96222609D01*
X123233082Y-96530234D01*
X122723555Y-96819651D01*
X122249946Y-97088897D01*
X121815705Y-97336006D01*
X121424283Y-97559014D01*
X121079131Y-97755958D01*
X120783700Y-97924874D01*
X120541441Y-98063796D01*
X120355804Y-98170761D01*
X120230241Y-98243804D01*
X120168202Y-98280962D01*
X120161915Y-98285418D01*
X120195331Y-98306189D01*
X120293206Y-98364325D01*
X120451966Y-98457749D01*
X120668039Y-98584388D01*
X120937850Y-98742164D01*
X121257827Y-98929003D01*
X121624395Y-99142829D01*
X122033982Y-99381567D01*
X122483014Y-99643142D01*
X122967917Y-99925477D01*
X123485119Y-100226498D01*
X124031045Y-100544128D01*
X124602123Y-100876293D01*
X125194779Y-101220917D01*
X125805440Y-101575925D01*
X126430532Y-101939240D01*
X127066482Y-102308789D01*
X127709716Y-102682494D01*
X128356661Y-103058281D01*
X129003744Y-103434074D01*
X129647391Y-103807799D01*
X130284029Y-104177378D01*
X130910085Y-104540737D01*
X131521984Y-104895801D01*
X132116154Y-105240494D01*
X132689022Y-105572740D01*
X133237013Y-105890464D01*
X133756554Y-106191591D01*
X134244073Y-106474045D01*
X134695995Y-106735750D01*
X135108748Y-106974632D01*
X135478757Y-107188614D01*
X135802450Y-107375622D01*
X136076253Y-107533579D01*
X136296593Y-107660411D01*
X136459895Y-107754042D01*
X136562588Y-107812396D01*
X136600969Y-107833354D01*
X136604433Y-107795762D01*
X136607767Y-107682042D01*
X136610962Y-107494702D01*
X136614011Y-107236252D01*
X136616903Y-106909201D01*
X136619630Y-106516058D01*
X136622184Y-106059332D01*
X136624555Y-105541533D01*
X136626734Y-104965169D01*
X136628712Y-104332751D01*
X136630482Y-103646786D01*
X136632033Y-102909784D01*
X136633357Y-102124254D01*
X136634445Y-101292706D01*
X136635288Y-100417649D01*
X136635878Y-99501591D01*
X136636204Y-98547042D01*
X136636272Y-97856187D01*
X136636272Y-87865913D01*
X137186737Y-87865913D01*
X137737201Y-87865913D01*
X137737201Y-100327738D01*
G37*
%TO.C,J2*%
X101860214Y-106609000D02*
X103110214Y-106609000D01*
X102150214Y-106319000D02*
X108120214Y-106319000D01*
X108120214Y-106319000D02*
X108120214Y-93699000D01*
X102160214Y-106309000D02*
X102910214Y-106309000D01*
X102910214Y-106309000D02*
X102910214Y-104509000D01*
X104410214Y-106309000D02*
X104410214Y-105559000D01*
X104410214Y-105559000D02*
X107360214Y-105559000D01*
X107360214Y-105559000D02*
X107360214Y-100009000D01*
X101860214Y-105359000D02*
X101860214Y-106609000D01*
X102160214Y-104509000D02*
X102160214Y-106309000D01*
X102910214Y-104509000D02*
X102160214Y-104509000D01*
X102160214Y-103009000D02*
X102910214Y-103009000D01*
X102910214Y-103009000D02*
X102910214Y-97009000D01*
X102160214Y-97009000D02*
X102160214Y-103009000D01*
X102910214Y-97009000D02*
X102160214Y-97009000D01*
X102160214Y-95509000D02*
X102910214Y-95509000D01*
X102910214Y-95509000D02*
X102910214Y-93709000D01*
X104410214Y-94459000D02*
X107360214Y-94459000D01*
X107360214Y-94459000D02*
X107360214Y-100009000D01*
X102160214Y-93709000D02*
X102160214Y-95509000D01*
X102910214Y-93709000D02*
X102160214Y-93709000D01*
X104410214Y-93709000D02*
X104410214Y-94459000D01*
X102150214Y-93699000D02*
X102150214Y-106319000D01*
X108120214Y-93699000D02*
X102150214Y-93699000D01*
D13*
%TO.C,U4*%
X125190000Y-61690000D02*
X143190000Y-61690000D01*
X143190000Y-61690000D02*
X143190000Y-50690000D01*
X143190000Y-50690000D02*
X125190000Y-50690000D01*
X125190000Y-50690000D02*
X125190000Y-61690000D01*
D14*
%TO.C,C19*%
X120161000Y-131750241D02*
X120161000Y-131120241D01*
X119846000Y-131435241D02*
X120476000Y-131435241D01*
X118770000Y-128250000D02*
X125230000Y-128250000D01*
X118770000Y-128210000D02*
X125230000Y-128210000D01*
X118770000Y-128170000D02*
X125230000Y-128170000D01*
X118772000Y-128130000D02*
X125228000Y-128130000D01*
X118773000Y-128090000D02*
X125227000Y-128090000D01*
X118776000Y-128050000D02*
X125224000Y-128050000D01*
X118778000Y-128010000D02*
X120960000Y-128010000D01*
X123040000Y-128010000D02*
X125222000Y-128010000D01*
X118782000Y-127970000D02*
X120960000Y-127970000D01*
X123040000Y-127970000D02*
X125218000Y-127970000D01*
X118785000Y-127930000D02*
X120960000Y-127930000D01*
X123040000Y-127930000D02*
X125215000Y-127930000D01*
X118789000Y-127890000D02*
X120960000Y-127890000D01*
X123040000Y-127890000D02*
X125211000Y-127890000D01*
X118794000Y-127850000D02*
X120960000Y-127850000D01*
X123040000Y-127850000D02*
X125206000Y-127850000D01*
X118799000Y-127810000D02*
X120960000Y-127810000D01*
X123040000Y-127810000D02*
X125201000Y-127810000D01*
X118805000Y-127770000D02*
X120960000Y-127770000D01*
X123040000Y-127770000D02*
X125195000Y-127770000D01*
X118811000Y-127730000D02*
X120960000Y-127730000D01*
X123040000Y-127730000D02*
X125189000Y-127730000D01*
X118818000Y-127690000D02*
X120960000Y-127690000D01*
X123040000Y-127690000D02*
X125182000Y-127690000D01*
X118825000Y-127650000D02*
X120960000Y-127650000D01*
X123040000Y-127650000D02*
X125175000Y-127650000D01*
X118833000Y-127610000D02*
X120960000Y-127610000D01*
X123040000Y-127610000D02*
X125167000Y-127610000D01*
X118841000Y-127570000D02*
X120960000Y-127570000D01*
X123040000Y-127570000D02*
X125159000Y-127570000D01*
X118850000Y-127529000D02*
X120960000Y-127529000D01*
X123040000Y-127529000D02*
X125150000Y-127529000D01*
X118859000Y-127489000D02*
X120960000Y-127489000D01*
X123040000Y-127489000D02*
X125141000Y-127489000D01*
X118869000Y-127449000D02*
X120960000Y-127449000D01*
X123040000Y-127449000D02*
X125131000Y-127449000D01*
X118879000Y-127409000D02*
X120960000Y-127409000D01*
X123040000Y-127409000D02*
X125121000Y-127409000D01*
X118890000Y-127369000D02*
X120960000Y-127369000D01*
X123040000Y-127369000D02*
X125110000Y-127369000D01*
X118902000Y-127329000D02*
X120960000Y-127329000D01*
X123040000Y-127329000D02*
X125098000Y-127329000D01*
X118914000Y-127289000D02*
X120960000Y-127289000D01*
X123040000Y-127289000D02*
X125086000Y-127289000D01*
X118926000Y-127249000D02*
X120960000Y-127249000D01*
X123040000Y-127249000D02*
X125074000Y-127249000D01*
X118939000Y-127209000D02*
X120960000Y-127209000D01*
X123040000Y-127209000D02*
X125061000Y-127209000D01*
X118953000Y-127169000D02*
X120960000Y-127169000D01*
X123040000Y-127169000D02*
X125047000Y-127169000D01*
X118967000Y-127129000D02*
X120960000Y-127129000D01*
X123040000Y-127129000D02*
X125033000Y-127129000D01*
X118982000Y-127089000D02*
X120960000Y-127089000D01*
X123040000Y-127089000D02*
X125018000Y-127089000D01*
X118998000Y-127049000D02*
X120960000Y-127049000D01*
X123040000Y-127049000D02*
X125002000Y-127049000D01*
X119014000Y-127009000D02*
X120960000Y-127009000D01*
X123040000Y-127009000D02*
X124986000Y-127009000D01*
X119030000Y-126969000D02*
X120960000Y-126969000D01*
X123040000Y-126969000D02*
X124970000Y-126969000D01*
X119048000Y-126929000D02*
X120960000Y-126929000D01*
X123040000Y-126929000D02*
X124952000Y-126929000D01*
X119066000Y-126889000D02*
X120960000Y-126889000D01*
X123040000Y-126889000D02*
X124934000Y-126889000D01*
X119084000Y-126849000D02*
X120960000Y-126849000D01*
X123040000Y-126849000D02*
X124916000Y-126849000D01*
X119104000Y-126809000D02*
X120960000Y-126809000D01*
X123040000Y-126809000D02*
X124896000Y-126809000D01*
X119124000Y-126769000D02*
X120960000Y-126769000D01*
X123040000Y-126769000D02*
X124876000Y-126769000D01*
X119144000Y-126729000D02*
X120960000Y-126729000D01*
X123040000Y-126729000D02*
X124856000Y-126729000D01*
X119166000Y-126689000D02*
X120960000Y-126689000D01*
X123040000Y-126689000D02*
X124834000Y-126689000D01*
X119188000Y-126649000D02*
X120960000Y-126649000D01*
X123040000Y-126649000D02*
X124812000Y-126649000D01*
X119210000Y-126609000D02*
X120960000Y-126609000D01*
X123040000Y-126609000D02*
X124790000Y-126609000D01*
X119234000Y-126569000D02*
X120960000Y-126569000D01*
X123040000Y-126569000D02*
X124766000Y-126569000D01*
X119258000Y-126529000D02*
X120960000Y-126529000D01*
X123040000Y-126529000D02*
X124742000Y-126529000D01*
X119284000Y-126489000D02*
X120960000Y-126489000D01*
X123040000Y-126489000D02*
X124716000Y-126489000D01*
X119310000Y-126449000D02*
X120960000Y-126449000D01*
X123040000Y-126449000D02*
X124690000Y-126449000D01*
X119336000Y-126409000D02*
X120960000Y-126409000D01*
X123040000Y-126409000D02*
X124664000Y-126409000D01*
X119364000Y-126369000D02*
X120960000Y-126369000D01*
X123040000Y-126369000D02*
X124636000Y-126369000D01*
X119393000Y-126329000D02*
X120960000Y-126329000D01*
X123040000Y-126329000D02*
X124607000Y-126329000D01*
X119422000Y-126289000D02*
X120960000Y-126289000D01*
X123040000Y-126289000D02*
X124578000Y-126289000D01*
X119452000Y-126249000D02*
X120960000Y-126249000D01*
X123040000Y-126249000D02*
X124548000Y-126249000D01*
X119484000Y-126209000D02*
X120960000Y-126209000D01*
X123040000Y-126209000D02*
X124516000Y-126209000D01*
X119516000Y-126169000D02*
X120960000Y-126169000D01*
X123040000Y-126169000D02*
X124484000Y-126169000D01*
X119550000Y-126129000D02*
X120960000Y-126129000D01*
X123040000Y-126129000D02*
X124450000Y-126129000D01*
X119584000Y-126089000D02*
X120960000Y-126089000D01*
X123040000Y-126089000D02*
X124416000Y-126089000D01*
X119620000Y-126049000D02*
X120960000Y-126049000D01*
X123040000Y-126049000D02*
X124380000Y-126049000D01*
X119657000Y-126009000D02*
X120960000Y-126009000D01*
X123040000Y-126009000D02*
X124343000Y-126009000D01*
X119695000Y-125969000D02*
X120960000Y-125969000D01*
X123040000Y-125969000D02*
X124305000Y-125969000D01*
X119735000Y-125929000D02*
X124265000Y-125929000D01*
X119776000Y-125889000D02*
X124224000Y-125889000D01*
X119818000Y-125849000D02*
X124182000Y-125849000D01*
X119863000Y-125809000D02*
X124137000Y-125809000D01*
X119908000Y-125769000D02*
X124092000Y-125769000D01*
X119956000Y-125729000D02*
X124044000Y-125729000D01*
X120005000Y-125689000D02*
X123995000Y-125689000D01*
X120056000Y-125649000D02*
X123944000Y-125649000D01*
X120110000Y-125609000D02*
X123890000Y-125609000D01*
X120166000Y-125569000D02*
X123834000Y-125569000D01*
X120224000Y-125529000D02*
X123776000Y-125529000D01*
X120286000Y-125489000D02*
X123714000Y-125489000D01*
X120350000Y-125449000D02*
X123650000Y-125449000D01*
X120419000Y-125409000D02*
X123581000Y-125409000D01*
X120491000Y-125369000D02*
X123509000Y-125369000D01*
X120568000Y-125329000D02*
X123432000Y-125329000D01*
X120650000Y-125289000D02*
X123350000Y-125289000D01*
X120738000Y-125249000D02*
X123262000Y-125249000D01*
X120835000Y-125209000D02*
X123165000Y-125209000D01*
X120941000Y-125169000D02*
X123059000Y-125169000D01*
X121060000Y-125129000D02*
X122940000Y-125129000D01*
X121198000Y-125089000D02*
X122802000Y-125089000D01*
X121367000Y-125049000D02*
X122633000Y-125049000D01*
X121598000Y-125009000D02*
X122402000Y-125009000D01*
X125270000Y-128250000D02*
G75*
G03*
X125270000Y-128250000I-3270000J0D01*
G01*
%TO.C,BZ1*%
X140400000Y-150241000D02*
G75*
G03*
X140400000Y-150241000I-7600000J0D01*
G01*
%TO.C,G\u002A\u002A\u002A*%
G36*
X144222863Y-107285990D02*
G01*
X144245212Y-107367101D01*
X144259242Y-107520537D01*
X144266404Y-107761234D01*
X144268181Y-108058230D01*
X144268181Y-108854187D01*
X144013095Y-109067413D01*
X143767738Y-109318753D01*
X143592508Y-109612575D01*
X143479509Y-109968390D01*
X143420848Y-110405708D01*
X143412863Y-110550801D01*
X143414067Y-111080671D01*
X143467916Y-111579598D01*
X143581131Y-112096572D01*
X143664440Y-112384726D01*
X143729976Y-112611429D01*
X143754396Y-112731688D01*
X143738821Y-112746509D01*
X143684374Y-112656899D01*
X143592179Y-112463864D01*
X143488220Y-112226818D01*
X143277214Y-111696555D01*
X143126463Y-111223399D01*
X143027247Y-110771875D01*
X142970849Y-110306502D01*
X142956175Y-110062045D01*
X142951421Y-109578636D01*
X142987480Y-109170131D01*
X143070634Y-108801266D01*
X143207166Y-108436775D01*
X143269858Y-108301363D01*
X143369679Y-108131147D01*
X143512799Y-107932300D01*
X143680020Y-107726484D01*
X143852142Y-107535364D01*
X144009965Y-107380604D01*
X144134292Y-107283866D01*
X144190741Y-107262272D01*
X144222863Y-107285990D01*
G37*
G36*
X144655573Y-112760295D02*
G01*
X144868978Y-112797690D01*
X145132033Y-112851949D01*
X145416542Y-112916474D01*
X145694306Y-112984665D01*
X145937129Y-113049924D01*
X146116813Y-113105652D01*
X146195290Y-113138428D01*
X146404482Y-113323672D01*
X146542624Y-113578463D01*
X146598392Y-113873544D01*
X146575598Y-114121157D01*
X146518251Y-114268501D01*
X146423821Y-114420496D01*
X146319090Y-114540890D01*
X146230843Y-114593432D01*
X146226515Y-114593636D01*
X146171336Y-114549561D01*
X146088184Y-114440601D01*
X146068779Y-114410836D01*
X145953038Y-114228036D01*
X146069092Y-114071065D01*
X146147267Y-113895126D01*
X146125743Y-113734720D01*
X146008114Y-113616615D01*
X146008113Y-113616614D01*
X145912814Y-113584453D01*
X145731706Y-113538546D01*
X145492622Y-113485530D01*
X145276000Y-113442016D01*
X144952932Y-113380154D01*
X144725957Y-113333161D01*
X144578186Y-113292137D01*
X144492729Y-113248183D01*
X144452697Y-113192402D01*
X144441201Y-113115892D01*
X144441353Y-113009757D01*
X144441363Y-113002246D01*
X144455525Y-112825350D01*
X144500096Y-112750461D01*
X144520016Y-112746363D01*
X144655573Y-112760295D01*
G37*
G36*
X146322336Y-108668968D02*
G01*
X146422999Y-108701669D01*
X146577272Y-108760324D01*
X146577272Y-109451073D01*
X146573233Y-109721839D01*
X146562235Y-109948307D01*
X146545959Y-110106753D01*
X146526107Y-110173444D01*
X146455446Y-110172774D01*
X146291068Y-110151349D01*
X146052213Y-110112283D01*
X145758124Y-110058691D01*
X145477242Y-110003669D01*
X145153753Y-109938577D01*
X144871842Y-109882247D01*
X144650011Y-109838343D01*
X144506758Y-109810529D01*
X144460453Y-109802272D01*
X144449063Y-109750624D01*
X144442235Y-109619961D01*
X144441363Y-109542500D01*
X144443457Y-109428112D01*
X144460337Y-109348840D01*
X144507903Y-109302750D01*
X144602053Y-109287911D01*
X144758687Y-109302391D01*
X144993703Y-109344256D01*
X145323000Y-109411575D01*
X145395148Y-109426587D01*
X145661369Y-109481781D01*
X145882495Y-109527255D01*
X146036293Y-109558463D01*
X146100530Y-109570860D01*
X146101022Y-109570905D01*
X146107908Y-109518103D01*
X146113007Y-109377971D01*
X146115387Y-109178630D01*
X146115454Y-109136597D01*
X146123029Y-108885247D01*
X146152894Y-108733624D01*
X146215760Y-108666579D01*
X146322336Y-108668968D01*
G37*
G36*
X144852419Y-106547354D02*
G01*
X144955539Y-106655607D01*
X144982792Y-106731005D01*
X144945789Y-106816043D01*
X144931776Y-106837830D01*
X144851705Y-107055618D01*
X144871458Y-107285750D01*
X144981849Y-107502536D01*
X145173695Y-107680282D01*
X145248435Y-107723524D01*
X145530852Y-107824019D01*
X145783188Y-107827539D01*
X145990145Y-107734584D01*
X146031487Y-107697851D01*
X146148887Y-107519992D01*
X146158953Y-107319942D01*
X146086235Y-107125787D01*
X146015474Y-106966043D01*
X146013389Y-106863315D01*
X146081493Y-106780710D01*
X146101022Y-106765359D01*
X146225162Y-106696404D01*
X146320462Y-106720878D01*
X146417266Y-106847212D01*
X146421548Y-106854418D01*
X146526006Y-107109578D01*
X146582807Y-107411486D01*
X146580751Y-107697344D01*
X146576628Y-107724090D01*
X146476071Y-108015292D01*
X146294840Y-108231440D01*
X146045035Y-108366202D01*
X145738753Y-108413246D01*
X145388096Y-108366242D01*
X145362613Y-108359381D01*
X145063901Y-108227389D01*
X144809577Y-108021768D01*
X144608646Y-107763100D01*
X144470114Y-107471967D01*
X144402986Y-107168952D01*
X144416267Y-106874637D01*
X144518962Y-106609604D01*
X144566979Y-106540874D01*
X144686740Y-106388624D01*
X144852419Y-106547354D01*
G37*
G36*
X146928743Y-107475486D02*
G01*
X147151630Y-107632259D01*
X147409983Y-107854921D01*
X147673657Y-108114358D01*
X147912512Y-108381458D01*
X148048560Y-108557061D01*
X148381918Y-109096892D01*
X148658438Y-109692436D01*
X148872317Y-110320595D01*
X149017753Y-110958272D01*
X149088946Y-111582369D01*
X149080092Y-112169789D01*
X149035604Y-112486590D01*
X148876489Y-113087282D01*
X148651757Y-113593219D01*
X148361024Y-114004903D01*
X148003908Y-114322841D01*
X147580023Y-114547534D01*
X147425683Y-114601227D01*
X147228977Y-114656990D01*
X147079113Y-114690439D01*
X147006225Y-114694950D01*
X147004552Y-114693795D01*
X147033095Y-114651681D01*
X147137008Y-114574446D01*
X147230611Y-114516265D01*
X147555526Y-114269962D01*
X147831281Y-113936315D01*
X148043393Y-113557279D01*
X148112393Y-113407649D01*
X148160886Y-113281605D01*
X148192447Y-113154125D01*
X148210651Y-113000190D01*
X148219074Y-112794781D01*
X148221293Y-112512876D01*
X148221159Y-112313409D01*
X148212846Y-111851114D01*
X148185237Y-111472195D01*
X148131941Y-111145294D01*
X148046566Y-110839056D01*
X147922721Y-110522124D01*
X147803429Y-110264090D01*
X147632236Y-109958079D01*
X147417911Y-109673738D01*
X147172275Y-109411478D01*
X146750454Y-108991821D01*
X146750454Y-108181510D01*
X146750454Y-107371200D01*
X146928743Y-107475486D01*
G37*
G36*
X147099181Y-99664216D02*
G01*
X147246090Y-99696062D01*
X147558636Y-99766007D01*
X147558636Y-101091406D01*
X147557489Y-101528944D01*
X147553537Y-101863905D01*
X147546013Y-102109149D01*
X147534149Y-102277538D01*
X147517178Y-102381930D01*
X147494333Y-102435186D01*
X147477714Y-102447858D01*
X147408606Y-102440408D01*
X147245088Y-102408504D01*
X147004596Y-102356340D01*
X146704563Y-102288111D01*
X146362423Y-102208010D01*
X145995612Y-102120232D01*
X145621563Y-102028970D01*
X145257710Y-101938419D01*
X144921489Y-101852773D01*
X144630334Y-101776225D01*
X144401678Y-101712971D01*
X144311477Y-101686173D01*
X144262462Y-101655486D01*
X144232133Y-101585219D01*
X144216293Y-101452646D01*
X144210743Y-101235042D01*
X144210454Y-101139291D01*
X144212334Y-100893716D01*
X144221338Y-100741476D01*
X144242515Y-100660472D01*
X144280913Y-100628604D01*
X144328237Y-100623636D01*
X144410256Y-100636898D01*
X144582981Y-100673298D01*
X144825166Y-100727758D01*
X145115565Y-100795200D01*
X145432929Y-100870546D01*
X145756013Y-100948718D01*
X146063570Y-101024637D01*
X146334352Y-101093226D01*
X146547113Y-101149406D01*
X146649431Y-101178415D01*
X146690600Y-101182001D01*
X146718819Y-101152172D01*
X146736497Y-101071601D01*
X146746048Y-100922965D01*
X146749881Y-100688938D01*
X146750454Y-100452532D01*
X146751946Y-100120067D01*
X146762977Y-99888046D01*
X146793382Y-99741460D01*
X146852994Y-99665299D01*
X146951649Y-99644555D01*
X147099181Y-99664216D01*
G37*
G36*
X144486308Y-102542768D02*
G01*
X144720903Y-102591020D01*
X145008415Y-102657500D01*
X145329631Y-102737196D01*
X145665338Y-102825093D01*
X145996323Y-102916178D01*
X146303371Y-103005438D01*
X146567269Y-103087860D01*
X146768805Y-103158430D01*
X146877943Y-103206004D01*
X147175415Y-103430625D01*
X147400075Y-103740731D01*
X147538591Y-104101249D01*
X147575887Y-104309876D01*
X147599998Y-104575530D01*
X147610481Y-104863728D01*
X147606891Y-105139988D01*
X147588782Y-105369829D01*
X147556837Y-105516022D01*
X147516101Y-105597348D01*
X147458639Y-105635262D01*
X147355664Y-105633906D01*
X147178387Y-105597424D01*
X147107949Y-105580619D01*
X146882901Y-105513640D01*
X146758642Y-105438088D01*
X146720664Y-105339389D01*
X146748082Y-105219194D01*
X146795382Y-105012898D01*
X146805459Y-104775010D01*
X146780009Y-104552487D01*
X146720727Y-104392287D01*
X146718086Y-104388424D01*
X146626811Y-104286195D01*
X146497519Y-104198568D01*
X146310808Y-104116908D01*
X146047277Y-104032581D01*
X145724774Y-103946354D01*
X145419763Y-103870063D01*
X145209149Y-103823537D01*
X145075453Y-103808017D01*
X145001198Y-103824746D01*
X144968905Y-103874969D01*
X144961093Y-103959928D01*
X144960909Y-104000681D01*
X144954697Y-104118014D01*
X144920785Y-104179862D01*
X144836256Y-104192844D01*
X144678196Y-104163583D01*
X144527954Y-104125767D01*
X144239318Y-104051034D01*
X144223088Y-103308951D01*
X144220371Y-103026358D01*
X144224574Y-102785878D01*
X144234821Y-102610853D01*
X144250232Y-102524631D01*
X144252724Y-102521002D01*
X144323844Y-102517758D01*
X144486308Y-102542768D01*
G37*
G36*
X144578109Y-95526114D02*
G01*
X144774786Y-95554686D01*
X144982671Y-95607329D01*
X145170894Y-95673168D01*
X145308586Y-95741327D01*
X145364875Y-95800931D01*
X145365000Y-95803334D01*
X145333498Y-95894381D01*
X145252514Y-96039513D01*
X145180064Y-96148994D01*
X145021754Y-96465890D01*
X144960696Y-96811665D01*
X144999028Y-97156667D01*
X145090523Y-97390098D01*
X145294687Y-97654402D01*
X145574496Y-97841565D01*
X145912604Y-97942872D01*
X146217197Y-97956020D01*
X146477125Y-97923271D01*
X146646380Y-97852414D01*
X146747746Y-97726725D01*
X146804006Y-97529483D01*
X146804824Y-97524715D01*
X146811626Y-97153224D01*
X146709945Y-96752359D01*
X146499070Y-96319536D01*
X146451965Y-96242039D01*
X146408166Y-96132124D01*
X146446179Y-96055729D01*
X146511988Y-96026000D01*
X146632160Y-96030498D01*
X146829391Y-96071173D01*
X146933321Y-96097584D01*
X147352401Y-96207500D01*
X147481473Y-96611590D01*
X147561121Y-96952295D01*
X147603897Y-97335728D01*
X147608951Y-97722433D01*
X147575434Y-98072953D01*
X147517999Y-98307329D01*
X147348236Y-98629049D01*
X147100424Y-98873706D01*
X146786549Y-99036510D01*
X146418600Y-99112668D01*
X146008565Y-99097389D01*
X145707409Y-99031041D01*
X145248510Y-98840620D01*
X144861055Y-98560074D01*
X144548487Y-98192585D01*
X144316126Y-97746078D01*
X144238667Y-97464507D01*
X144192164Y-97113369D01*
X144176866Y-96730169D01*
X144193023Y-96352416D01*
X144240886Y-96017616D01*
X144303173Y-95803409D01*
X144378357Y-95634577D01*
X144444106Y-95550257D01*
X144525780Y-95524873D01*
X144578109Y-95526114D01*
G37*
G36*
X145368302Y-91937415D02*
G01*
X145496464Y-91968016D01*
X145796604Y-92109363D01*
X146054160Y-92347424D01*
X146261989Y-92669032D01*
X146412950Y-93061022D01*
X146499902Y-93510227D01*
X146518860Y-93852888D01*
X146519545Y-94269186D01*
X146764886Y-94332563D01*
X146986066Y-94390517D01*
X147223067Y-94453764D01*
X147270000Y-94466459D01*
X147529772Y-94536978D01*
X147546465Y-95041251D01*
X147550626Y-95298569D01*
X147540885Y-95460893D01*
X147514837Y-95548113D01*
X147481690Y-95576786D01*
X147433534Y-95577676D01*
X147329309Y-95562033D01*
X147162109Y-95528200D01*
X146925026Y-95474522D01*
X146611154Y-95399344D01*
X146213586Y-95301011D01*
X145725413Y-95177867D01*
X145666424Y-95162798D01*
X145139730Y-95028256D01*
X144449629Y-94850524D01*
X144426931Y-94844660D01*
X144210454Y-94788731D01*
X144210454Y-93848934D01*
X144212288Y-93713501D01*
X144969113Y-93713501D01*
X144970626Y-93727103D01*
X144996314Y-93829176D01*
X145063789Y-93894209D01*
X145203547Y-93945876D01*
X145278409Y-93966016D01*
X145518311Y-94024264D01*
X145666424Y-94042464D01*
X145742043Y-94012035D01*
X145764460Y-93924395D01*
X145752971Y-93770964D01*
X145751183Y-93755743D01*
X145718592Y-93561921D01*
X145675090Y-93400612D01*
X145654520Y-93351652D01*
X145559091Y-93232365D01*
X145447195Y-93139765D01*
X145280135Y-93079689D01*
X145137747Y-93120642D01*
X145031081Y-93249007D01*
X144971187Y-93451166D01*
X144969113Y-93713501D01*
X144212288Y-93713501D01*
X144216831Y-93378034D01*
X144238072Y-93006046D01*
X144277339Y-92717020D01*
X144337797Y-92495007D01*
X144422609Y-92324060D01*
X144534938Y-92188229D01*
X144541029Y-92182363D01*
X144791041Y-91999021D01*
X145059535Y-91919002D01*
X145368302Y-91937415D01*
G37*
G36*
X144698294Y-88208969D02*
G01*
X144928695Y-88267172D01*
X145034812Y-88297658D01*
X145235811Y-88366723D01*
X145337652Y-88441785D01*
X145346402Y-88544938D01*
X145268126Y-88698281D01*
X145179936Y-88826322D01*
X145066702Y-89007689D01*
X145004164Y-89185666D01*
X144973944Y-89415583D01*
X144971287Y-89454419D01*
X144989835Y-89812145D01*
X145099391Y-90102088D01*
X145305396Y-90333977D01*
X145548679Y-90486919D01*
X145846428Y-90598365D01*
X146142128Y-90644029D01*
X146407982Y-90623708D01*
X146616194Y-90537198D01*
X146666487Y-90495124D01*
X146746600Y-90397512D01*
X146789677Y-90283338D01*
X146806377Y-90114036D01*
X146808181Y-89982528D01*
X146797471Y-89752135D01*
X146756235Y-89556474D01*
X146670818Y-89342677D01*
X146611359Y-89220561D01*
X146494273Y-88959354D01*
X146450076Y-88784350D01*
X146478376Y-88692536D01*
X146540153Y-88676119D01*
X146626431Y-88691871D01*
X146787945Y-88731109D01*
X146980807Y-88782887D01*
X147355478Y-88887628D01*
X147483011Y-89285973D01*
X147561048Y-89619877D01*
X147603389Y-89998023D01*
X147609190Y-90380898D01*
X147577607Y-90728986D01*
X147519057Y-90972793D01*
X147368619Y-91261492D01*
X147149245Y-91507401D01*
X146890069Y-91681667D01*
X146750454Y-91734066D01*
X146546603Y-91768050D01*
X146292389Y-91782150D01*
X146110021Y-91777279D01*
X145641019Y-91688649D01*
X145214834Y-91496533D01*
X144841648Y-91208190D01*
X144531642Y-90830880D01*
X144364840Y-90532950D01*
X144286649Y-90361520D01*
X144234682Y-90219248D01*
X144203720Y-90074957D01*
X144188544Y-89897468D01*
X144183935Y-89655605D01*
X144184117Y-89453409D01*
X144189502Y-89122264D01*
X144205223Y-88877049D01*
X144234833Y-88688437D01*
X144281882Y-88527104D01*
X144302970Y-88472045D01*
X144371247Y-88320363D01*
X144443764Y-88229799D01*
X144544715Y-88194590D01*
X144698294Y-88208969D01*
G37*
G36*
X145234264Y-84702214D02*
G01*
X145354691Y-84750424D01*
X145483781Y-84856983D01*
X145565561Y-84939819D01*
X145804058Y-85188728D01*
X145907319Y-85051833D01*
X146094633Y-84886585D01*
X146321345Y-84815472D01*
X146569744Y-84832292D01*
X146822117Y-84930839D01*
X147060752Y-85104911D01*
X147267936Y-85348303D01*
X147391638Y-85571732D01*
X147438192Y-85683483D01*
X147473264Y-85794787D01*
X147498884Y-85924751D01*
X147517083Y-86092482D01*
X147529890Y-86317088D01*
X147539336Y-86617676D01*
X147547451Y-87013352D01*
X147547987Y-87043139D01*
X147553920Y-87453620D01*
X147554634Y-87762036D01*
X147549504Y-87981686D01*
X147537903Y-88125868D01*
X147519206Y-88207880D01*
X147492788Y-88241022D01*
X147491606Y-88241502D01*
X147417536Y-88235319D01*
X147246777Y-88203175D01*
X146994299Y-88148456D01*
X146808181Y-88105364D01*
X146675077Y-88074546D01*
X146304081Y-87984831D01*
X145896286Y-87882695D01*
X145832551Y-87866431D01*
X145445200Y-87767552D01*
X145423466Y-87762004D01*
X145051928Y-87667575D01*
X144732307Y-87586763D01*
X144478974Y-87523188D01*
X144306299Y-87480469D01*
X144228653Y-87462225D01*
X144225944Y-87461818D01*
X144218977Y-87407163D01*
X144214886Y-87255424D01*
X144213774Y-87024936D01*
X144215745Y-86734036D01*
X144220211Y-86437159D01*
X144222805Y-86318991D01*
X144961697Y-86318991D01*
X144971579Y-86461402D01*
X145024629Y-86536518D01*
X145153852Y-86586249D01*
X145177386Y-86592873D01*
X145329653Y-86631832D01*
X145433318Y-86652384D01*
X145445200Y-86653314D01*
X145469216Y-86603349D01*
X145469825Y-86554042D01*
X146178936Y-86554042D01*
X146183284Y-86714078D01*
X146219764Y-86816862D01*
X146311262Y-86883867D01*
X146480668Y-86936565D01*
X146620568Y-86968368D01*
X146808181Y-87009173D01*
X146808092Y-86701518D01*
X146785837Y-86458652D01*
X146728362Y-86240542D01*
X146707069Y-86191818D01*
X146618138Y-86052725D01*
X146514838Y-85996342D01*
X146435557Y-85989772D01*
X146319139Y-86011730D01*
X146243382Y-86089733D01*
X146200009Y-86241978D01*
X146180746Y-86486660D01*
X146178936Y-86554042D01*
X145469825Y-86554042D01*
X145470778Y-86476924D01*
X145454007Y-86309933D01*
X145423025Y-86138272D01*
X145381953Y-85997833D01*
X145365884Y-85962561D01*
X145259082Y-85866842D01*
X145167656Y-85845454D01*
X145060509Y-85878406D01*
X144995220Y-85987132D01*
X144965348Y-86186442D01*
X144961697Y-86318991D01*
X144222805Y-86318991D01*
X144228481Y-86060462D01*
X144238780Y-85778831D01*
X144253450Y-85571875D01*
X144274836Y-85419204D01*
X144305279Y-85300431D01*
X144347125Y-85195164D01*
X144367978Y-85151466D01*
X144542657Y-84897739D01*
X144769507Y-84745783D01*
X145055333Y-84691200D01*
X145080734Y-84690909D01*
X145234264Y-84702214D01*
G37*
G36*
X145629931Y-110359962D02*
G01*
X145862006Y-110457607D01*
X146064211Y-110589577D01*
X146127684Y-110649720D01*
X146240564Y-110814190D01*
X146329131Y-111015847D01*
X146385958Y-111223646D01*
X146403617Y-111406540D01*
X146374681Y-111533486D01*
X146346207Y-111563051D01*
X146319726Y-111639719D01*
X146346207Y-111706981D01*
X146399431Y-111892795D01*
X146385659Y-112086284D01*
X146309424Y-112236113D01*
X146298522Y-112246734D01*
X146120058Y-112338858D01*
X145957720Y-112341097D01*
X145911643Y-112341732D01*
X145694914Y-112269395D01*
X145491509Y-112135884D01*
X145323064Y-111955238D01*
X145211216Y-111741495D01*
X145177139Y-111519170D01*
X145178474Y-111467996D01*
X145376046Y-111467996D01*
X145381385Y-111594320D01*
X145456397Y-111731006D01*
X145584371Y-111857254D01*
X145748593Y-111952262D01*
X145932350Y-111995229D01*
X145957720Y-111995909D01*
X146110763Y-111960517D01*
X146175746Y-111865897D01*
X146151026Y-111729387D01*
X146034957Y-111568321D01*
X146001382Y-111535381D01*
X145799124Y-111392849D01*
X145604098Y-111339719D01*
X145457094Y-111372834D01*
X145376046Y-111467996D01*
X145178474Y-111467996D01*
X145183161Y-111288393D01*
X145186402Y-111051556D01*
X145186501Y-111029541D01*
X145186604Y-110916720D01*
X145198270Y-110847573D01*
X145239799Y-110822316D01*
X145329493Y-110841165D01*
X145485653Y-110904335D01*
X145726579Y-111012042D01*
X145781200Y-111036553D01*
X145956993Y-111105505D01*
X146088514Y-111138871D01*
X146143266Y-111131701D01*
X146132425Y-111050417D01*
X146048823Y-110933128D01*
X145917996Y-110804384D01*
X145765482Y-110688737D01*
X145616817Y-110610741D01*
X145593171Y-110602814D01*
X145365017Y-110579431D01*
X145175076Y-110661287D01*
X145016189Y-110851998D01*
X144983931Y-110910386D01*
X144922156Y-111129851D01*
X144917685Y-111407642D01*
X144967228Y-111703811D01*
X145067500Y-111978405D01*
X145072653Y-111988635D01*
X145253091Y-112233942D01*
X145501916Y-112427196D01*
X145784288Y-112546108D01*
X145986233Y-112573181D01*
X146247700Y-112541913D01*
X146438768Y-112441640D01*
X146566510Y-112262660D01*
X146637999Y-111995270D01*
X146660259Y-111648533D01*
X146653520Y-111391850D01*
X146622797Y-111197401D01*
X146556733Y-111012658D01*
X146494853Y-110883526D01*
X146413907Y-110708254D01*
X146366879Y-110575382D01*
X146363237Y-110516611D01*
X146445257Y-110498793D01*
X146542803Y-110573512D01*
X146645283Y-110720841D01*
X146742105Y-110920854D01*
X146822677Y-111153626D01*
X146876408Y-111399231D01*
X146888737Y-111505227D01*
X146895304Y-111746559D01*
X146881567Y-111987019D01*
X146864210Y-112104421D01*
X146753251Y-112427819D01*
X146577067Y-112662887D01*
X146342669Y-112803732D01*
X146057067Y-112844464D01*
X145989516Y-112839562D01*
X145603335Y-112744380D01*
X145271372Y-112547588D01*
X144993054Y-112248765D01*
X144838711Y-111995909D01*
X144750370Y-111745781D01*
X144704160Y-111443371D01*
X144701183Y-111130718D01*
X144742543Y-110849862D01*
X144804282Y-110683590D01*
X144975582Y-110480733D01*
X145213206Y-110354336D01*
X145422160Y-110321818D01*
X145629931Y-110359962D01*
G37*
%TO.C,L1*%
X150870000Y-139000000D02*
G75*
G03*
X150870000Y-139000000I-6370000J0D01*
G01*
%TD*%
%LPC*%
D15*
%TO.C,J1*%
X104610214Y-89525000D03*
D16*
X104610214Y-87025000D03*
X104610214Y-84525000D03*
X104610214Y-82025000D03*
%TD*%
D17*
%TO.C,H4*%
X127600000Y-127500000D03*
X128302944Y-125802944D03*
X128302944Y-129197056D03*
X130000000Y-125100000D03*
D18*
X130000000Y-127500000D03*
D17*
X130000000Y-129900000D03*
X131697056Y-125802944D03*
X131697056Y-129197056D03*
X132400000Y-127500000D03*
%TD*%
D19*
%TO.C,J3*%
X92710000Y-118270000D03*
D16*
X92710000Y-120770000D03*
X92710000Y-123270000D03*
X92710000Y-125770000D03*
X92710000Y-128270000D03*
%TD*%
D20*
%TO.C,J5*%
X162052000Y-69422000D03*
D21*
X162052000Y-71922000D03*
X162052000Y-74422000D03*
%TD*%
D22*
%TO.C,Q1*%
X138684000Y-71734000D03*
D23*
X139954000Y-71734000D03*
X141224000Y-71734000D03*
%TD*%
D24*
%TO.C,REF\u002A\u002A*%
X74000000Y-134000000D03*
%TD*%
%TO.C,REF\u002A\u002A*%
X187900000Y-115000000D03*
%TD*%
%TO.C,REF\u002A\u002A*%
X187900000Y-85000000D03*
%TD*%
D25*
%TO.C,J8*%
X90170000Y-65532000D03*
D26*
X92670000Y-65532000D03*
X95170000Y-65532000D03*
%TD*%
D27*
%TO.C,L2*%
X106005000Y-113792000D03*
X101005000Y-113792000D03*
%TD*%
D25*
%TO.C,J7*%
X90758000Y-136144000D03*
D26*
X93258000Y-136144000D03*
X95758000Y-136144000D03*
%TD*%
D28*
%TO.C,C18*%
X140589000Y-127500000D03*
D29*
X140589000Y-130000000D03*
%TD*%
D17*
%TO.C,H2*%
X147600000Y-72500000D03*
X148302944Y-70802944D03*
X148302944Y-74197056D03*
X150000000Y-70100000D03*
D18*
X150000000Y-72500000D03*
D17*
X150000000Y-74900000D03*
X151697056Y-70802944D03*
X151697056Y-74197056D03*
X152400000Y-72500000D03*
%TD*%
D30*
%TO.C,U5*%
X122174000Y-171270000D03*
X124714000Y-171270000D03*
X127254000Y-171270000D03*
X129794000Y-171270000D03*
X127254000Y-168730000D03*
X129794000Y-168730000D03*
%TD*%
D20*
%TO.C,J6*%
X162052000Y-125810000D03*
D21*
X162052000Y-128310000D03*
X162052000Y-130810000D03*
%TD*%
D17*
%TO.C,H3*%
X127600000Y-72500000D03*
X128302944Y-70802944D03*
X128302944Y-74197056D03*
X130000000Y-70100000D03*
D18*
X130000000Y-72500000D03*
D17*
X130000000Y-74900000D03*
X131697056Y-70802944D03*
X131697056Y-74197056D03*
X132400000Y-72500000D03*
%TD*%
D30*
%TO.C,U3*%
X129810000Y-28730000D03*
X127270000Y-28730000D03*
X124730000Y-28730000D03*
X122190000Y-28730000D03*
X124730000Y-31270000D03*
X122190000Y-31270000D03*
%TD*%
D15*
%TO.C,J2*%
X104610214Y-103759000D03*
D16*
X104610214Y-101259000D03*
X104610214Y-98759000D03*
X104610214Y-96259000D03*
%TD*%
D30*
%TO.C,U4*%
X130380000Y-60000000D03*
X132920000Y-60000000D03*
X135460000Y-60000000D03*
X138000000Y-60000000D03*
X138000000Y-52380000D03*
X135460000Y-52380000D03*
X132920000Y-52380000D03*
X130380000Y-52380000D03*
%TD*%
D28*
%TO.C,C19*%
X122000000Y-129500000D03*
D29*
X122000000Y-127000000D03*
%TD*%
D31*
%TO.C,BZ1*%
X129000000Y-150241000D03*
D32*
X136600000Y-150241000D03*
%TD*%
D24*
%TO.C,REF\u002A\u002A*%
X74000000Y-66000000D03*
%TD*%
D27*
%TO.C,L1*%
X144500000Y-136500000D03*
X144500000Y-141500000D03*
%TD*%
D17*
%TO.C,H1*%
X147600000Y-127500000D03*
X148302944Y-125802944D03*
X148302944Y-129197056D03*
X150000000Y-125100000D03*
D18*
X150000000Y-127500000D03*
D17*
X150000000Y-129900000D03*
X151697056Y-125802944D03*
X151697056Y-129197056D03*
X152400000Y-127500000D03*
%TD*%
D33*
%TO.C,J9*%
X190460000Y-96150000D03*
D34*
X193000000Y-96150000D03*
X190460000Y-98690000D03*
X193000000Y-98690000D03*
X190460000Y-101230000D03*
X193000000Y-101230000D03*
X190460000Y-103770000D03*
X193000000Y-103770000D03*
%TD*%
%LPD*%
M02*
