M48
; DRILL file {KiCad 7.0.9} date Thu Feb  6 15:14:37 2025
; FORMAT={-:-/ absolute / inch / decimal}
; #@! TF.CreationDate,2025-02-06T15:14:37+09:00
; #@! TF.GenerationSoftware,Kicad,Pcbnew,7.0.9
; #@! TF.FileFunction,Plated,1,2,PTH
FMAT,2
INCH
; #@! TA.AperFunction,Plated,PTH,ViaDrill
T1C0.0118
; #@! TA.AperFunction,Plated,PTH,ComponentDrill
T2C0.0118
; #@! TA.AperFunction,Plated,PTH,ViaDrill
T3C0.0157
; #@! TA.AperFunction,Plated,PTH,ComponentDrill
T4C0.0197
; #@! TA.AperFunction,Plated,PTH,ComponentDrill
T5C0.0295
; #@! TA.AperFunction,Plated,PTH,ComponentDrill
T6C0.0300
; #@! TA.AperFunction,Plated,PTH,ComponentDrill
T7C0.0315
; #@! TA.AperFunction,Plated,PTH,ComponentDrill
T8C0.0335
; #@! TA.AperFunction,Plated,PTH,ComponentDrill
T9C0.0374
; #@! TA.AperFunction,Plated,PTH,ComponentDrill
T10C0.0394
; #@! TA.AperFunction,Plated,PTH,ComponentDrill
T11C0.0472
; #@! TA.AperFunction,Plated,PTH,ComponentDrill
T12C0.1260
%
G90
G05
T1
X4.4882Y-4.0945
X4.5371Y-4.0394
X4.575Y-3.7273
X4.9794Y-2.775
X5.3543Y-3.35
X5.4724Y-3.0709
X5.5118Y-3.1496
X5.575Y-4.225
X5.575Y-4.575
X5.625Y-4.175
X5.7Y-3.425
X5.8Y-3.225
X6.025Y-3.85
X6.0253Y-3.7997
X6.1974Y-3.925
X6.2Y-3.2473
X6.425Y-3.175
X6.45Y-3.7
X6.475Y-4.15
T2
X4.83Y-4.4107
X4.83Y-4.458
X4.83Y-4.5092
X4.83Y-4.5525
X4.8772Y-4.4107
X4.8772Y-4.458
X4.8772Y-4.5092
X4.8772Y-4.5525
X5.9943Y-4.3813
X5.9943Y-4.4285
X5.9943Y-4.4797
X5.9943Y-4.523
X6.0415Y-4.3813
X6.0415Y-4.4285
X6.0415Y-4.4797
X6.0415Y-4.523
T3
X2.7953Y-2.4803
X2.7953Y-2.7165
X2.7953Y-2.874
X2.7953Y-2.9921
X2.7953Y-4.9213
X2.7953Y-5.1575
X2.7953Y-5.4331
X2.9134Y-3.1102
X2.9134Y-4.8031
X2.9528Y-5.4331
X2.9921Y-3.2283
X2.9921Y-3.4252
X2.9921Y-3.622
X2.9921Y-3.8189
X2.9921Y-4.0551
X2.9921Y-4.252
X2.9921Y-4.4488
X2.9921Y-4.6457
X3.0315Y-2.874
X3.0709Y-2.4409
X3.1102Y-5.4331
X3.1496Y-4.5669
X3.2283Y-2.6772
X3.2283Y-2.874
X3.2283Y-3.0709
X3.2283Y-3.2677
X3.2283Y-3.4646
X3.2283Y-3.7008
X3.2283Y-3.8976
X3.2283Y-4.0945
X3.2283Y-4.3307
X3.3071Y-2.4409
X3.3071Y-5.4331
X3.3858Y-4.4882
X3.3858Y-4.5669
X3.4055Y-2.7559
X3.4055Y-2.9724
X3.4055Y-3.189
X3.4055Y-3.3858
X3.4055Y-3.6024
X3.4055Y-3.7992
X3.4055Y-4.0157
X3.4252Y-4.2126
X3.4646Y-4.8031
X3.4646Y-5.2756
X3.5039Y-5.4331
X3.5433Y-4.3701
X3.6024Y-2.9921
X3.6024Y-3.2087
X3.6024Y-3.4646
X3.6024Y-3.6811
X3.6024Y-3.878
X3.6024Y-4.0748
X3.622Y-4.2913
X3.7795Y-3.1299
X3.7795Y-3.3858
X3.7795Y-3.7992
X3.7795Y-4.1535
X3.85Y-4.65
X3.8583Y-5.1772
X3.8583Y-5.4331
X3.9173Y-3.6024
X3.9173Y-4.0157
X3.9764Y-4.3898
X4.0354Y-3.4843
X4.0551Y-4.7835
X4.1339Y-4.2323
X4.1339Y-4.7047
X4.1732Y-4.3701
X4.1929Y-3.4843
X4.252Y-4.2913
X4.311Y-3.6614
X4.311Y-4.6063
X4.3307Y-4.5079
X4.3504Y-4.7047
X4.3898Y-4.4291
X4.4094Y-4.1339
X4.4291Y-4.7638
X4.4685Y-4.5079
X4.4685Y-4.6457
X4.5079Y-3.3268
X4.5079Y-3.6614
X4.5276Y-3.8976
X4.5472Y-4.2913
X4.6063Y-3.0118
X4.64Y-4.26
X4.6654Y-1.8307
X4.6654Y-2.0866
X4.6654Y-2.4016
X4.685Y-4.3504
X4.7244Y-3.7008
X4.7244Y-5.0591
X4.725Y-5.22
X4.73Y-5.475
X4.73Y-5.885
X4.7835Y-1.4764
X4.8031Y-1.6929
X4.8228Y-1.9488
X4.8228Y-2.2441
X4.8228Y-2.5
X4.8228Y-2.6378
X4.8228Y-2.815
X4.8228Y-3.0118
X4.8228Y-5.2756
X4.8228Y-5.9646
X4.84Y-4.32
X4.8425Y-1.2992
X4.8425Y-3.3268
X4.905Y-5.17
X4.905Y-5.595
X4.91Y-5.825
X4.9213Y-2.5787
X4.9213Y-2.7362
X4.9213Y-3.5236
X4.9213Y-6.1417
X4.9409Y-1.7323
X4.9409Y-2.2638
X4.9409Y-3.937
X4.9409Y-4.1142
X4.95Y-4.995
X4.955Y-5.115
X4.9606Y-2.4213
X4.975Y-3.125
X4.98Y-4.33
X5.0Y-1.2
X5.0Y-2.6772
X5.0Y-3.45
X5.0591Y-2.4016
X5.06Y-4.63
X5.075Y-3.025
X5.0787Y-1.7126
X5.095Y-5.42
X5.0984Y-4.2126
X5.0984Y-4.4488
X5.1Y-4.53
X5.1Y-6.3
X5.11Y-4.8528
X5.1181Y-1.2205
X5.1181Y-1.378
X5.1181Y-1.5551
X5.1181Y-2.5787
X5.12Y-6.55
X5.1378Y-6.1811
X5.1575Y-3.7795
X5.16Y-4.6728
X5.1772Y-1.9685
X5.1772Y-2.5197
X5.1969Y-4.8622
X5.2Y-4.63
X5.2165Y-2.1457
X5.2165Y-2.2835
X5.2362Y-2.7165
X5.2559Y-1.7126
X5.2559Y-2.5787
X5.265Y-5.125
X5.27Y-5.27
X5.2756Y-4.5276
X5.2756Y-4.9803
X5.2756Y-5.5512
X5.28Y-5.795
X5.28Y-6.035
X5.2953Y-4.4094
X5.315Y-1.9291
X5.315Y-3.4449
X5.3346Y-2.2638
X5.3346Y-2.7165
X5.3543Y-3.1299
X5.3543Y-3.9567
X5.374Y-4.4882
X5.374Y-4.6654
X5.374Y-6.1811
X5.3937Y-2.8346
X5.405Y-4.875
X5.4331Y-3.563
X5.4331Y-5.0984
X5.4331Y-5.4331
X5.435Y-4.985
X5.4528Y-1.7126
X5.4528Y-1.9488
X5.4528Y-2.4409
X5.4724Y-2.2441
X5.4921Y-4.5669
X5.5118Y-4.1142
X5.5118Y-4.1929
X5.5315Y-5.2362
X5.5402Y-4.6298
X5.55Y-3.5
X5.55Y-3.975
X5.5512Y-3.7795
X5.56Y-4.29
X5.565Y-5.55
X5.595Y-5.33
X5.62Y-4.67
X5.625Y-3.475
X5.625Y-5.74
X5.6299Y-2.4213
X5.6299Y-6.0039
X5.6299Y-6.1811
X5.6496Y-1.7126
X5.65Y-3.05
X5.65Y-5.475
X5.6525Y-3.55
X5.6693Y-2.7165
X5.6693Y-4.9409
X5.67Y-3.86
X5.675Y-3.35
X5.689Y-1.9685
X5.689Y-2.2441
X5.69Y-4.13
X5.748Y-2.8346
X5.7677Y-2.5591
X5.7677Y-5.1378
X5.78Y-3.44
X5.795Y-5.59
X5.82Y-4.54
X5.8268Y-2.3622
X5.8268Y-6.1811
X5.83Y-4.71
X5.83Y-4.795
X5.8465Y-1.7126
X5.8487Y-4.1287
X5.85Y-4.32
X5.89Y-3.58
X5.9252Y-5.4528
X5.9252Y-5.6496
X5.9252Y-5.8661
X5.9252Y-6.0827
X5.9439Y-3.3848
X5.9449Y-1.7913
X5.9449Y-1.9882
X5.9449Y-2.1654
X5.9449Y-2.3425
X5.9449Y-2.5
X5.9449Y-2.6969
X5.9449Y-3.1102
X6.0433Y-3.1102
X6.063Y-2.5984
X6.063Y-3.3071
X6.0631Y-4.068
X6.065Y-4.95
X6.08Y-3.69
X6.0827Y-5.2756
X6.1417Y-3.7402
X6.1417Y-4.0551
X6.1539Y-3.8068
X6.2008Y-3.3071
X6.205Y-4.455
X6.21Y-3.39
X6.22Y-3.5
X6.2402Y-5.2756
X6.255Y-4.33
X6.2598Y-3.1299
X6.26Y-4.77
X6.2795Y-2.5984
X6.28Y-3.7
X6.378Y-3.0118
X6.3976Y-3.3071
X6.4Y-3.4
X6.44Y-3.64
X6.45Y-3.35
X6.4567Y-3.7402
X6.4764Y-3.1496
X6.5354Y-2.5984
X6.5354Y-4.9213
X6.5354Y-5.1181
X6.5354Y-5.2756
X6.55Y-2.88
X6.5945Y-4.7638
X6.6142Y-3.7992
X6.6142Y-4.1142
X6.62Y-3.13
X6.62Y-3.33
X6.625Y-3.5738
X6.6535Y-3.7402
X6.6535Y-4.5472
X6.7126Y-3.6811
X6.7323Y-3.189
X6.74Y-3.54
X6.752Y-4.685
X6.7717Y-4.0157
X6.7913Y-3.7992
X6.811Y-3.6417
X6.8701Y-3.878
X6.8898Y-4.3701
X6.9291Y-3.5433
X6.9685Y-4.0157
X6.9882Y-3.189
X6.9882Y-3.7795
X7.0472Y-4.685
X7.126Y-3.5433
X7.185Y-4.3504
X7.2441Y-4.0157
X7.2638Y-3.189
X7.2638Y-3.6417
X7.3425Y-3.5433
X7.4016Y-3.7795
X7.4803Y-3.6811
X7.5Y-4.685
X7.5984Y-3.189
X7.8346Y-3.189
X7.8346Y-3.3661
X7.8346Y-3.6614
X7.8346Y-3.9961
X7.8346Y-4.1929
X7.8346Y-4.4094
X7.8346Y-4.685
T4
X5.0236Y-2.8543
X5.0236Y-5.0197
X5.0513Y-2.7875
X5.0513Y-2.9211
X5.0513Y-4.9529
X5.0513Y-5.0865
X5.1181Y-2.7598
X5.1181Y-2.9488
X5.1181Y-4.9252
X5.1181Y-5.1142
X5.1849Y-2.7875
X5.1849Y-2.9211
X5.1849Y-4.9529
X5.1849Y-5.0865
X5.2126Y-2.8543
X5.2126Y-5.0197
X5.811Y-2.8543
X5.811Y-5.0197
X5.8387Y-2.7875
X5.8387Y-2.9211
X5.8387Y-4.9529
X5.8387Y-5.0865
X5.9055Y-2.7598
X5.9055Y-2.9488
X5.9055Y-4.9252
X5.9055Y-5.1142
X5.9723Y-2.7875
X5.9723Y-2.9211
X5.9723Y-4.9529
X5.9723Y-5.0865
X6.0Y-2.8543
X6.0Y-5.0197
T5
X5.46Y-2.8242
X5.51Y-2.8242
X5.56Y-2.8242
T6
X4.81Y-6.7429
X4.8106Y-1.1311
X4.8106Y-1.2311
X4.91Y-6.7429
X4.9106Y-1.1311
X4.9106Y-1.2311
X5.01Y-6.6429
X5.01Y-6.7429
X5.0106Y-1.1311
X5.11Y-6.6429
X5.11Y-6.7429
X5.1106Y-1.1311
X5.1331Y-2.0622
X5.1331Y-2.3622
X5.2331Y-2.0622
X5.2331Y-2.3622
X5.3331Y-2.0622
X5.3331Y-2.3622
X5.4331Y-2.0622
X5.4331Y-2.3622
T7
X4.8031Y-5.0
X4.8031Y-5.0984
X5.535Y-5.0197
X5.535Y-5.1181
T8
X3.55Y-2.58
X3.5731Y-5.36
X3.6484Y-2.58
X3.6716Y-5.36
X3.7469Y-2.58
X3.77Y-5.36
X6.38Y-2.7331
X6.38Y-2.8316
X6.38Y-2.93
X6.38Y-4.9531
X6.38Y-5.0516
X6.38Y-5.15
T9
X3.65Y-4.6563
X3.65Y-4.7547
X3.65Y-4.8531
X3.65Y-4.9516
X3.65Y-5.05
X4.1185Y-3.2293
X4.1185Y-3.3278
X4.1185Y-3.4262
X4.1185Y-3.5246
X4.1185Y-3.7897
X4.1185Y-3.8881
X4.1185Y-3.9866
X4.1185Y-4.085
T10
X5.0787Y-5.915
X5.378Y-5.915
X7.4984Y-3.7854
X7.4984Y-3.8854
X7.4984Y-3.9854
X7.4984Y-4.0854
X7.5984Y-3.7854
X7.5984Y-3.8854
X7.5984Y-3.9854
X7.5984Y-4.0854
T11
X3.9766Y-4.48
X4.1734Y-4.48
X5.689Y-5.374
X5.689Y-5.5709
T12
X5.1181Y-2.8543
X5.1181Y-5.0197
X5.9055Y-2.8543
X5.9055Y-5.0197
T0
M30
