%TF.GenerationSoftware,KiCad,Pcbnew,7.0.9*%
%TF.CreationDate,2024-05-07T12:38:31+09:00*%
%TF.ProjectId,04-line,30342d6c-696e-4652-9e6b-696361645f70,rev?*%
%TF.SameCoordinates,Original*%
%TF.FileFunction,Soldermask,Top*%
%TF.FilePolarity,Negative*%
%FSLAX46Y46*%
G04 Gerber Fmt 4.6, Leading zero omitted, Abs format (unit mm)*
G04 Created by KiCad (PCBNEW 7.0.9) date 2024-05-07 12:38:31*
%MOMM*%
%LPD*%
G01*
G04 APERTURE LIST*
G04 Aperture macros list*
%AMRoundRect*
0 Rectangle with rounded corners*
0 $1 Rounding radius*
0 $2 $3 $4 $5 $6 $7 $8 $9 X,Y pos of 4 corners*
0 Add a 4 corners polygon primitive as box body*
4,1,4,$2,$3,$4,$5,$6,$7,$8,$9,$2,$3,0*
0 Add four circle primitives for the rounded corners*
1,1,$1+$1,$2,$3*
1,1,$1+$1,$4,$5*
1,1,$1+$1,$6,$7*
1,1,$1+$1,$8,$9*
0 Add four rect primitives between the rounded corners*
20,1,$1+$1,$2,$3,$4,$5,0*
20,1,$1+$1,$4,$5,$6,$7,0*
20,1,$1+$1,$6,$7,$8,$9,0*
20,1,$1+$1,$8,$9,$2,$3,0*%
G04 Aperture macros list end*
%ADD10R,1.700000X1.700000*%
%ADD11O,1.700000X1.700000*%
%ADD12RoundRect,0.250000X-0.600000X-0.725000X0.600000X-0.725000X0.600000X0.725000X-0.600000X0.725000X0*%
%ADD13O,1.700000X1.950000*%
%ADD14C,1.524000*%
G04 APERTURE END LIST*
D10*
%TO.C,J4*%
X60960000Y-125730000D03*
D11*
X60960000Y-123190000D03*
X63500000Y-125730000D03*
X63500000Y-123190000D03*
X66040000Y-125730000D03*
X66040000Y-123190000D03*
X68580000Y-125730000D03*
X68580000Y-123190000D03*
%TD*%
D10*
%TO.C,J1*%
X52070000Y-132080000D03*
D11*
X52070000Y-129540000D03*
X52070000Y-127000000D03*
X52070000Y-124460000D03*
%TD*%
D12*
%TO.C,J3*%
X61080000Y-132080000D03*
D13*
X63580000Y-132080000D03*
X66080000Y-132080000D03*
X68580000Y-132080000D03*
%TD*%
D10*
%TO.C,J5*%
X97800000Y-76200000D03*
D11*
X100340000Y-76200000D03*
X102880000Y-76200000D03*
X105420000Y-76200000D03*
%TD*%
D14*
%TO.C,U2*%
X81590500Y-107950000D03*
X79050500Y-107950000D03*
X81590500Y-112050000D03*
X79050500Y-112050000D03*
%TD*%
%TO.C,U15*%
X106990500Y-107950000D03*
X104450500Y-107950000D03*
X106990500Y-112050000D03*
X104450500Y-112050000D03*
%TD*%
%TO.C,U14*%
X101910500Y-107950000D03*
X99370500Y-107950000D03*
X101910500Y-112050000D03*
X99370500Y-112050000D03*
%TD*%
%TO.C,U7*%
X56190500Y-107950000D03*
X53650500Y-107950000D03*
X56190500Y-112050000D03*
X53650500Y-112050000D03*
%TD*%
D10*
%TO.C,J2*%
X87630000Y-76200000D03*
D11*
X85090000Y-76200000D03*
X82550000Y-76200000D03*
X80010000Y-76200000D03*
%TD*%
D14*
%TO.C,U4*%
X71430500Y-107950000D03*
X68890500Y-107950000D03*
X71430500Y-112050000D03*
X68890500Y-112050000D03*
%TD*%
%TO.C,U5*%
X66350500Y-107950000D03*
X63810500Y-107950000D03*
X66350500Y-112050000D03*
X63810500Y-112050000D03*
%TD*%
%TO.C,U16*%
X112070500Y-107950000D03*
X109530500Y-107950000D03*
X112070500Y-112050000D03*
X109530500Y-112050000D03*
%TD*%
%TO.C,U17*%
X117150500Y-107950000D03*
X114610500Y-107950000D03*
X117150500Y-112050000D03*
X114610500Y-112050000D03*
%TD*%
%TO.C,U8*%
X51110500Y-107950000D03*
X48570500Y-107950000D03*
X51110500Y-112050000D03*
X48570500Y-112050000D03*
%TD*%
%TO.C,U12*%
X91750500Y-107950000D03*
X89210500Y-107950000D03*
X91750500Y-112050000D03*
X89210500Y-112050000D03*
%TD*%
%TO.C,U3*%
X76510500Y-107950000D03*
X73970500Y-107950000D03*
X76510500Y-112050000D03*
X73970500Y-112050000D03*
%TD*%
%TO.C,U9*%
X86670500Y-107950000D03*
X84130500Y-107950000D03*
X86670500Y-112050000D03*
X84130500Y-112050000D03*
%TD*%
%TO.C,U18*%
X122230500Y-107950000D03*
X119690500Y-107950000D03*
X122230500Y-112050000D03*
X119690500Y-112050000D03*
%TD*%
%TO.C,U6*%
X61270500Y-107950000D03*
X58730500Y-107950000D03*
X61270500Y-112050000D03*
X58730500Y-112050000D03*
%TD*%
%TO.C,U10*%
X86670500Y-87950000D03*
X84130500Y-87950000D03*
X86670500Y-92050000D03*
X84130500Y-92050000D03*
%TD*%
%TO.C,U13*%
X96830500Y-107950000D03*
X94290500Y-107950000D03*
X96830500Y-112050000D03*
X94290500Y-112050000D03*
%TD*%
M02*
