M48
; DRILL file {KiCad 7.0.9} date Tue Jun 25 21:06:51 2024
; FORMAT={-:-/ absolute / inch / decimal}
; #@! TF.CreationDate,2024-06-25T21:06:51+09:00
; #@! TF.GenerationSoftware,Kicad,Pcbnew,7.0.9
; #@! TF.FileFunction,Plated,1,2,PTH
FMAT,2
INCH
; #@! TA.AperFunction,Plated,PTH,ViaDrill
T1C0.0157
; #@! TA.AperFunction,Plated,PTH,ComponentDrill
T2C0.0300
; #@! TA.AperFunction,Plated,PTH,ComponentDrill
T3C0.0394
%
G90
G05
T1
X2.54Y-3.78
X2.58Y-3.34
X2.76Y-3.34
X2.89Y-3.07
X2.95Y-3.125
X2.96Y-3.78
X3.04Y-3.2
X3.275Y-3.1
X3.36Y-3.78
X3.38Y-3.16
X3.41Y-3.53
X3.44Y-3.33
X3.75Y-3.2
X3.76Y-3.78
X3.99Y-2.98
X4.07Y-3.41
X4.16Y-3.77
X4.28Y-3.2
X4.45Y-3.09
X4.525Y-3.075
X4.56Y-3.77
X4.57Y-3.17
X4.61Y-3.31
X4.61Y-3.56
X4.625Y-3.225
X4.725Y-3.3215
X4.76Y-3.28
X4.85Y-3.56
X4.96Y-3.78
X4.99Y-3.2
X5.05Y-3.125
X5.1Y-3.27
X5.12Y-3.07
X5.29Y-3.33
X5.36Y-3.77
T2
X2.55Y-3.9193
X2.55Y-4.0807
X2.65Y-3.9193
X2.65Y-4.0807
X2.75Y-3.9193
X2.75Y-4.0807
X2.85Y-3.9193
X2.85Y-4.0807
X2.95Y-3.9193
X2.95Y-4.0807
X3.05Y-3.9193
X3.05Y-4.0807
X3.15Y-3.9193
X3.15Y-4.0807
X3.25Y-3.9193
X3.25Y-4.0807
X3.35Y-3.9193
X3.35Y-4.0807
X3.45Y-3.9193
X3.45Y-4.0807
X3.55Y-3.9193
X3.55Y-4.0807
X3.65Y-3.9193
X3.65Y-4.0807
X3.75Y-3.9193
X3.75Y-4.0807
X3.85Y-3.9193
X3.85Y-4.0807
X3.95Y-3.1228
X3.95Y-3.2843
X3.95Y-3.9193
X3.95Y-4.0807
X4.05Y-3.1228
X4.05Y-3.2843
X4.05Y-3.9193
X4.05Y-4.0807
X4.15Y-3.9193
X4.15Y-4.0807
X4.25Y-3.9193
X4.25Y-4.0807
X4.35Y-3.9193
X4.35Y-4.0807
X4.45Y-3.9193
X4.45Y-4.0807
X4.55Y-3.9193
X4.55Y-4.0807
X4.65Y-3.9193
X4.65Y-4.0807
X4.75Y-3.9193
X4.75Y-4.0807
X4.85Y-3.9193
X4.85Y-4.0807
X4.95Y-3.9193
X4.95Y-4.0807
X5.05Y-3.9193
X5.05Y-4.0807
X5.15Y-3.9193
X5.15Y-4.0807
X5.25Y-3.9193
X5.25Y-4.0807
X5.35Y-3.9193
X5.35Y-4.0807
X5.45Y-3.9193
X5.45Y-4.0807
T3
X2.7Y-3.45
X2.7Y-3.55
X2.8Y-3.45
X2.8Y-3.55
X2.9Y-3.45
X2.9Y-3.55
X3.15Y-4.3
X3.25Y-4.3
X3.35Y-4.3
X3.45Y-4.3
X3.55Y-4.3
X3.65Y-4.3
X3.75Y-4.3
X3.85Y-4.3
X3.95Y-4.3
X4.05Y-4.3
X4.15Y-4.3
X4.25Y-4.3
X4.35Y-4.3
X4.45Y-4.3
X4.55Y-4.3
X4.65Y-4.3
X4.75Y-4.3
X4.85Y-4.3
X5.1Y-3.45
X5.1Y-3.55
X5.2Y-3.45
X5.2Y-3.55
X5.3Y-3.45
X5.3Y-3.55
T0
M30
