%TF.GenerationSoftware,KiCad,Pcbnew,7.0.9*%
%TF.CreationDate,2024-06-25T21:06:51+09:00*%
%TF.ProjectId,04-line,30342d6c-696e-4652-9e6b-696361645f70,rev?*%
%TF.SameCoordinates,Original*%
%TF.FileFunction,Paste,Top*%
%TF.FilePolarity,Positive*%
%FSLAX46Y46*%
G04 Gerber Fmt 4.6, Leading zero omitted, Abs format (unit mm)*
G04 Created by KiCad (PCBNEW 7.0.9) date 2024-06-25 21:06:51*
%MOMM*%
%LPD*%
G01*
G04 APERTURE LIST*
G04 Aperture macros list*
%AMRoundRect*
0 Rectangle with rounded corners*
0 $1 Rounding radius*
0 $2 $3 $4 $5 $6 $7 $8 $9 X,Y pos of 4 corners*
0 Add a 4 corners polygon primitive as box body*
4,1,4,$2,$3,$4,$5,$6,$7,$8,$9,$2,$3,0*
0 Add four circle primitives for the rounded corners*
1,1,$1+$1,$2,$3*
1,1,$1+$1,$4,$5*
1,1,$1+$1,$6,$7*
1,1,$1+$1,$8,$9*
0 Add four rect primitives between the rounded corners*
20,1,$1+$1,$2,$3,$4,$5,0*
20,1,$1+$1,$4,$5,$6,$7,0*
20,1,$1+$1,$6,$7,$8,$9,0*
20,1,$1+$1,$8,$9,$2,$3,0*%
G04 Aperture macros list end*
%ADD10RoundRect,0.200000X0.275000X-0.200000X0.275000X0.200000X-0.275000X0.200000X-0.275000X-0.200000X0*%
%ADD11RoundRect,0.125000X-0.575000X-0.125000X0.575000X-0.125000X0.575000X0.125000X-0.575000X0.125000X0*%
%ADD12R,0.900000X1.500000*%
%ADD13R,1.500000X0.900000*%
%ADD14RoundRect,0.140000X-0.170000X0.140000X-0.170000X-0.140000X0.170000X-0.140000X0.170000X0.140000X0*%
%ADD15RoundRect,0.200000X-0.275000X0.200000X-0.275000X-0.200000X0.275000X-0.200000X0.275000X0.200000X0*%
G04 APERTURE END LIST*
D10*
%TO.C,R7*%
X67310000Y-95250000D03*
X67310000Y-93600000D03*
%TD*%
D11*
%TO.C,U26*%
X84160000Y-79770000D03*
X84160000Y-80570000D03*
X84160000Y-81370000D03*
X84160000Y-82170000D03*
X84160000Y-82970000D03*
X88560000Y-82970000D03*
X88560000Y-82170000D03*
X88560000Y-81370000D03*
X88560000Y-80570000D03*
X88560000Y-79770000D03*
%TD*%
D12*
%TO.C,D8*%
X80135000Y-78920000D03*
X76835000Y-78920000D03*
X76835000Y-83820000D03*
X80135000Y-83820000D03*
%TD*%
D10*
%TO.C,R22*%
X123190000Y-95250000D03*
X123190000Y-93600000D03*
%TD*%
D13*
%TO.C,D1*%
X114390000Y-87250000D03*
X114390000Y-90550000D03*
X119290000Y-90550000D03*
X119290000Y-87250000D03*
%TD*%
D10*
%TO.C,R19*%
X107950000Y-95250000D03*
X107950000Y-93600000D03*
%TD*%
D14*
%TO.C,C3*%
X128270000Y-80800000D03*
X128270000Y-81760000D03*
%TD*%
D10*
%TO.C,R30*%
X110580000Y-113855000D03*
X110580000Y-112205000D03*
%TD*%
%TO.C,R4*%
X82550000Y-95250000D03*
X82550000Y-93600000D03*
%TD*%
D12*
%TO.C,D4*%
X110870000Y-78920000D03*
X107570000Y-78920000D03*
X107570000Y-83820000D03*
X110870000Y-83820000D03*
%TD*%
D10*
%TO.C,R12*%
X92710000Y-113855000D03*
X92710000Y-112205000D03*
%TD*%
%TO.C,R15*%
X85090000Y-113855000D03*
X85090000Y-112205000D03*
%TD*%
%TO.C,R17*%
X100330000Y-113855000D03*
X100330000Y-112205000D03*
%TD*%
D14*
%TO.C,C6*%
X74930000Y-80320000D03*
X74930000Y-81280000D03*
%TD*%
D10*
%TO.C,R20*%
X113030000Y-95250000D03*
X113030000Y-93600000D03*
%TD*%
%TO.C,R29*%
X107920000Y-113855000D03*
X107920000Y-112205000D03*
%TD*%
%TO.C,R31*%
X113090000Y-113855000D03*
X113090000Y-112205000D03*
%TD*%
%TO.C,R33*%
X118110000Y-113855000D03*
X118110000Y-112205000D03*
%TD*%
%TO.C,R28*%
X105410000Y-113855000D03*
X105410000Y-112205000D03*
%TD*%
D12*
%TO.C,D6*%
X92330000Y-83820000D03*
X95630000Y-83820000D03*
X95630000Y-78920000D03*
X92330000Y-78920000D03*
%TD*%
D13*
%TO.C,D5*%
X83910000Y-87250000D03*
X83910000Y-90550000D03*
X88810000Y-90550000D03*
X88810000Y-87250000D03*
%TD*%
D10*
%TO.C,R34*%
X120620000Y-113855000D03*
X120620000Y-112205000D03*
%TD*%
%TO.C,R18*%
X102870000Y-113855000D03*
X102870000Y-112205000D03*
%TD*%
%TO.C,R5*%
X77470000Y-95250000D03*
X77470000Y-93600000D03*
%TD*%
D11*
%TO.C,U25*%
X114640000Y-79770000D03*
X114640000Y-80570000D03*
X114640000Y-81370000D03*
X114640000Y-82170000D03*
X114640000Y-82970000D03*
X119040000Y-82970000D03*
X119040000Y-82170000D03*
X119040000Y-81370000D03*
X119040000Y-80570000D03*
X119040000Y-79770000D03*
%TD*%
D10*
%TO.C,R14*%
X87630000Y-113855000D03*
X87630000Y-112205000D03*
%TD*%
%TO.C,R25*%
X138430000Y-95250000D03*
X138430000Y-93600000D03*
%TD*%
%TO.C,R10*%
X97790000Y-113855000D03*
X97790000Y-112205000D03*
%TD*%
%TO.C,R24*%
X133350000Y-95250000D03*
X133350000Y-93600000D03*
%TD*%
%TO.C,R23*%
X128270000Y-95250000D03*
X128270000Y-93600000D03*
%TD*%
%TO.C,R21*%
X118110000Y-95250000D03*
X118110000Y-93600000D03*
%TD*%
%TO.C,R8*%
X102870000Y-95250000D03*
X102870000Y-93600000D03*
%TD*%
D15*
%TO.C,R9*%
X105410000Y-88075000D03*
X105410000Y-89725000D03*
%TD*%
D12*
%TO.C,D2*%
X122810000Y-83820000D03*
X126110000Y-83820000D03*
X126110000Y-78920000D03*
X122810000Y-78920000D03*
%TD*%
D10*
%TO.C,R32*%
X115600000Y-113855000D03*
X115600000Y-112205000D03*
%TD*%
%TO.C,R1*%
X97790000Y-95250000D03*
X97790000Y-93600000D03*
%TD*%
%TO.C,R6*%
X72390000Y-95250000D03*
X72390000Y-93600000D03*
%TD*%
%TO.C,R11*%
X95250000Y-113855000D03*
X95250000Y-112205000D03*
%TD*%
%TO.C,R3*%
X87630000Y-95250000D03*
X87630000Y-93600000D03*
%TD*%
%TO.C,R2*%
X92710000Y-95250000D03*
X92710000Y-93600000D03*
%TD*%
%TO.C,R13*%
X90170000Y-113855000D03*
X90170000Y-112205000D03*
%TD*%
%TO.C,R16*%
X82550000Y-113855000D03*
X82550000Y-112205000D03*
%TD*%
M02*
