%TF.GenerationSoftware,KiCad,Pcbnew,7.0.9*%
%TF.CreationDate,2024-06-25T21:03:02+09:00*%
%TF.ProjectId,04-line_sub,30342d6c-696e-4655-9f73-75622e6b6963,rev?*%
%TF.SameCoordinates,Original*%
%TF.FileFunction,Legend,Bot*%
%TF.FilePolarity,Positive*%
%FSLAX46Y46*%
G04 Gerber Fmt 4.6, Leading zero omitted, Abs format (unit mm)*
G04 Created by KiCad (PCBNEW 7.0.9) date 2024-06-25 21:03:02*
%MOMM*%
%LPD*%
G01*
G04 APERTURE LIST*
G04 Aperture macros list*
%AMRoundRect*
0 Rectangle with rounded corners*
0 $1 Rounding radius*
0 $2 $3 $4 $5 $6 $7 $8 $9 X,Y pos of 4 corners*
0 Add a 4 corners polygon primitive as box body*
4,1,4,$2,$3,$4,$5,$6,$7,$8,$9,$2,$3,0*
0 Add four circle primitives for the rounded corners*
1,1,$1+$1,$2,$3*
1,1,$1+$1,$4,$5*
1,1,$1+$1,$6,$7*
1,1,$1+$1,$8,$9*
0 Add four rect primitives between the rounded corners*
20,1,$1+$1,$2,$3,$4,$5,0*
20,1,$1+$1,$4,$5,$6,$7,0*
20,1,$1+$1,$6,$7,$8,$9,0*
20,1,$1+$1,$8,$9,$2,$3,0*%
G04 Aperture macros list end*
%ADD10C,0.150000*%
%ADD11C,0.586339*%
%ADD12C,0.535066*%
%ADD13C,0.300000*%
%ADD14R,1.700000X1.700000*%
%ADD15O,1.700000X1.700000*%
%ADD16O,1.700000X1.950000*%
%ADD17RoundRect,0.250000X0.600000X0.725000X-0.600000X0.725000X-0.600000X-0.725000X0.600000X-0.725000X0*%
G04 APERTURE END LIST*
D10*
X124556369Y-90932000D02*
G75*
G03*
X124556369Y-90932000I-5763185J0D01*
G01*
X117541650Y-88998381D02*
G75*
G03*
X117541650Y-88998381I-1679619J0D01*
G01*
D11*
X115451537Y-88178044D02*
G75*
G03*
X115451537Y-88178044I-293169J0D01*
G01*
D10*
X121155987Y-89055619D02*
G75*
G03*
X121155987Y-89055619I-1679619J0D01*
G01*
D12*
X118981901Y-88235282D02*
G75*
G03*
X118981901Y-88235282I-267533J0D01*
G01*
D13*
G36*
X94499595Y-107134371D02*
G01*
X94212365Y-107134371D01*
X94212365Y-106441577D01*
X94026252Y-106441577D01*
X94018874Y-106441630D01*
X93997504Y-106442430D01*
X93977280Y-106444189D01*
X93958203Y-106446907D01*
X93940272Y-106450586D01*
X93923487Y-106455224D01*
X93907848Y-106460821D01*
X93893356Y-106467378D01*
X93880011Y-106474895D01*
X93867811Y-106483371D01*
X93853328Y-106496165D01*
X93846611Y-106503339D01*
X93837103Y-106515415D01*
X93828278Y-106529069D01*
X93820136Y-106544301D01*
X93812676Y-106561110D01*
X93805899Y-106579497D01*
X93799805Y-106599462D01*
X93796121Y-106613649D01*
X93792741Y-106628537D01*
X93789664Y-106644126D01*
X93786890Y-106660416D01*
X93784420Y-106677408D01*
X93782254Y-106695101D01*
X93781245Y-106701722D01*
X93779218Y-106717877D01*
X93777691Y-106732540D01*
X93776157Y-106749386D01*
X93774617Y-106768415D01*
X93773070Y-106789627D01*
X93772035Y-106804981D01*
X93770998Y-106821306D01*
X93769957Y-106838601D01*
X93768914Y-106856866D01*
X93767868Y-106876102D01*
X93766819Y-106896308D01*
X93765767Y-106917484D01*
X93764734Y-106926258D01*
X93762653Y-106943420D01*
X93760553Y-106960066D01*
X93758432Y-106976198D01*
X93756291Y-106991814D01*
X93754130Y-107006915D01*
X93750851Y-107028601D01*
X93747527Y-107049127D01*
X93744157Y-107068495D01*
X93740743Y-107086703D01*
X93737284Y-107103751D01*
X93733779Y-107119641D01*
X93730230Y-107134371D01*
X93415889Y-107134371D01*
X93423508Y-107113048D01*
X93430704Y-107091850D01*
X93437476Y-107070779D01*
X93443825Y-107049833D01*
X93449749Y-107029013D01*
X93455251Y-107008319D01*
X93460328Y-106987751D01*
X93464982Y-106967309D01*
X93469212Y-106946993D01*
X93473019Y-106926803D01*
X93476402Y-106906739D01*
X93479362Y-106886801D01*
X93481898Y-106866988D01*
X93484010Y-106847302D01*
X93485699Y-106827742D01*
X93486964Y-106808307D01*
X93503450Y-106618531D01*
X93505154Y-106602762D01*
X93507105Y-106587423D01*
X93509304Y-106572511D01*
X93511751Y-106558029D01*
X93517386Y-106530350D01*
X93524012Y-106504385D01*
X93531629Y-106480135D01*
X93540236Y-106457599D01*
X93549833Y-106436778D01*
X93560420Y-106417671D01*
X93571998Y-106400279D01*
X93584566Y-106384601D01*
X93598124Y-106370638D01*
X93612673Y-106358389D01*
X93628212Y-106347855D01*
X93644741Y-106339035D01*
X93662261Y-106331929D01*
X93680771Y-106326538D01*
X93668469Y-106319394D01*
X93656110Y-106311517D01*
X93643693Y-106302908D01*
X93631220Y-106293565D01*
X93618689Y-106283490D01*
X93606101Y-106272683D01*
X93593456Y-106261142D01*
X93580753Y-106248869D01*
X93564383Y-106231565D01*
X93549068Y-106213543D01*
X93534810Y-106194803D01*
X93521608Y-106175344D01*
X93509462Y-106155167D01*
X93498373Y-106134271D01*
X93488339Y-106112657D01*
X93479362Y-106090325D01*
X93471441Y-106067274D01*
X93464576Y-106043505D01*
X93458767Y-106019017D01*
X93454014Y-105993811D01*
X93450317Y-105967886D01*
X93447677Y-105941243D01*
X93447331Y-105935261D01*
X93724734Y-105935261D01*
X93724979Y-105947927D01*
X93726264Y-105966334D01*
X93728650Y-105984033D01*
X93732137Y-106001024D01*
X93736726Y-106017307D01*
X93742415Y-106032881D01*
X93749206Y-106047746D01*
X93757099Y-106061904D01*
X93766092Y-106075353D01*
X93776187Y-106088093D01*
X93787383Y-106100125D01*
X93795195Y-106107711D01*
X93807016Y-106118173D01*
X93818959Y-106127534D01*
X93835073Y-106138301D01*
X93851405Y-106147111D01*
X93867954Y-106153963D01*
X93884721Y-106158858D01*
X93901705Y-106161795D01*
X93918907Y-106162773D01*
X94212365Y-106162773D01*
X94212365Y-105691629D01*
X93943820Y-105691629D01*
X93932175Y-105691874D01*
X93915175Y-105693158D01*
X93898734Y-105695544D01*
X93882854Y-105699032D01*
X93867535Y-105703620D01*
X93852775Y-105709310D01*
X93838576Y-105716101D01*
X93824937Y-105723993D01*
X93811859Y-105732987D01*
X93799341Y-105743081D01*
X93787383Y-105754277D01*
X93779796Y-105762283D01*
X93769335Y-105775118D01*
X93759974Y-105788944D01*
X93751715Y-105803763D01*
X93744557Y-105819573D01*
X93738500Y-105836375D01*
X93733544Y-105854169D01*
X93729690Y-105872954D01*
X93726937Y-105892731D01*
X93725285Y-105913500D01*
X93724734Y-105935261D01*
X93447331Y-105935261D01*
X93446093Y-105913882D01*
X93445565Y-105885802D01*
X93446061Y-105859794D01*
X93447551Y-105834437D01*
X93450034Y-105809728D01*
X93453510Y-105785670D01*
X93457980Y-105762261D01*
X93463442Y-105739502D01*
X93469898Y-105717393D01*
X93477347Y-105695934D01*
X93485789Y-105675124D01*
X93495224Y-105654964D01*
X93505653Y-105635454D01*
X93517074Y-105616593D01*
X93529489Y-105598382D01*
X93542897Y-105580821D01*
X93557299Y-105563909D01*
X93572693Y-105547648D01*
X93589899Y-105531277D01*
X93607629Y-105515963D01*
X93625883Y-105501705D01*
X93644661Y-105488503D01*
X93663962Y-105476357D01*
X93683787Y-105465267D01*
X93704136Y-105455234D01*
X93725009Y-105446256D01*
X93746406Y-105438335D01*
X93768326Y-105431470D01*
X93790770Y-105425661D01*
X93813738Y-105420909D01*
X93837230Y-105417212D01*
X93861245Y-105414572D01*
X93885784Y-105412987D01*
X93910847Y-105412459D01*
X94499595Y-105412459D01*
X94499595Y-107134371D01*
G37*
G36*
X92226304Y-105598206D02*
G01*
X92212955Y-105615411D01*
X92200109Y-105633503D01*
X92187768Y-105652482D01*
X92175929Y-105672349D01*
X92164595Y-105693103D01*
X92153764Y-105714744D01*
X92143437Y-105737273D01*
X92133614Y-105760689D01*
X92124295Y-105784992D01*
X92115479Y-105810182D01*
X92107167Y-105836260D01*
X92099359Y-105863225D01*
X92092055Y-105891077D01*
X92088592Y-105905336D01*
X92085254Y-105919817D01*
X92082043Y-105934519D01*
X92078957Y-105949443D01*
X92075998Y-105964590D01*
X92073164Y-105979958D01*
X92369187Y-105979958D01*
X92372903Y-105961083D01*
X92376862Y-105942746D01*
X92381063Y-105924945D01*
X92385507Y-105907681D01*
X92390193Y-105890953D01*
X92395123Y-105874762D01*
X92400294Y-105859108D01*
X92405708Y-105843991D01*
X92411365Y-105829410D01*
X92417265Y-105815366D01*
X92423407Y-105801858D01*
X92436418Y-105776453D01*
X92450400Y-105753195D01*
X92465352Y-105732083D01*
X92481275Y-105713118D01*
X92498168Y-105696299D01*
X92516031Y-105681628D01*
X92534864Y-105669103D01*
X92554668Y-105658724D01*
X92575442Y-105650492D01*
X92597186Y-105644407D01*
X92608422Y-105642170D01*
X92632695Y-105640126D01*
X92656239Y-105639949D01*
X92679052Y-105641637D01*
X92701135Y-105645192D01*
X92722489Y-105650613D01*
X92743113Y-105657901D01*
X92763007Y-105667054D01*
X92782171Y-105678073D01*
X92800605Y-105690959D01*
X92818309Y-105705711D01*
X92835283Y-105722329D01*
X92851528Y-105740813D01*
X92867043Y-105761164D01*
X92881827Y-105783380D01*
X92895882Y-105807463D01*
X92909207Y-105833412D01*
X92918036Y-105854021D01*
X92926295Y-105875275D01*
X92933984Y-105897172D01*
X92941104Y-105919714D01*
X92947654Y-105942899D01*
X92953635Y-105966728D01*
X92959046Y-105991202D01*
X92963887Y-106016319D01*
X92968159Y-106042081D01*
X92971861Y-106068486D01*
X92974994Y-106095536D01*
X92977557Y-106123229D01*
X92979551Y-106151566D01*
X92980975Y-106180548D01*
X92981473Y-106195280D01*
X92981829Y-106210173D01*
X92982043Y-106225227D01*
X92982114Y-106240443D01*
X92982051Y-106257662D01*
X92981861Y-106274608D01*
X92981544Y-106291279D01*
X92981101Y-106307676D01*
X92980531Y-106323799D01*
X92979834Y-106339649D01*
X92979011Y-106355224D01*
X92978061Y-106370525D01*
X92976984Y-106385552D01*
X92975781Y-106400305D01*
X92972995Y-106428989D01*
X92969702Y-106456576D01*
X92965902Y-106483067D01*
X92961596Y-106508462D01*
X92956783Y-106532761D01*
X92951464Y-106555964D01*
X92945638Y-106578070D01*
X92939305Y-106599080D01*
X92932466Y-106618994D01*
X92925120Y-106637812D01*
X92917267Y-106655533D01*
X92904917Y-106680614D01*
X92891771Y-106704014D01*
X92877829Y-106725734D01*
X92863091Y-106745773D01*
X92847558Y-106764133D01*
X92831229Y-106780813D01*
X92814104Y-106795812D01*
X92796184Y-106809132D01*
X92777468Y-106820771D01*
X92757956Y-106830730D01*
X92737649Y-106839009D01*
X92716546Y-106845608D01*
X92694647Y-106850526D01*
X92671952Y-106853765D01*
X92648462Y-106855324D01*
X92624176Y-106855202D01*
X92601014Y-106851283D01*
X92578879Y-106845482D01*
X92557771Y-106837797D01*
X92537691Y-106828228D01*
X92518639Y-106816777D01*
X92500614Y-106803441D01*
X92483617Y-106788223D01*
X92467647Y-106771121D01*
X92452705Y-106752136D01*
X92438790Y-106731268D01*
X92425903Y-106708516D01*
X92414043Y-106683881D01*
X92403211Y-106657362D01*
X92398180Y-106643397D01*
X92393407Y-106628960D01*
X92388890Y-106614053D01*
X92384630Y-106598675D01*
X92380626Y-106582826D01*
X92376880Y-106566507D01*
X92065471Y-106566507D01*
X92068931Y-106588623D01*
X92072765Y-106610320D01*
X92076971Y-106631599D01*
X92081550Y-106652459D01*
X92086502Y-106672901D01*
X92091827Y-106692924D01*
X92097525Y-106712528D01*
X92103595Y-106731714D01*
X92110039Y-106750481D01*
X92116855Y-106768830D01*
X92124043Y-106786760D01*
X92131605Y-106804272D01*
X92139539Y-106821364D01*
X92147847Y-106838039D01*
X92156527Y-106854294D01*
X92165580Y-106870131D01*
X92175005Y-106885550D01*
X92184804Y-106900549D01*
X92194975Y-106915131D01*
X92205519Y-106929293D01*
X92216436Y-106943037D01*
X92227726Y-106956363D01*
X92239388Y-106969270D01*
X92251423Y-106981758D01*
X92263831Y-106993827D01*
X92276612Y-107005478D01*
X92289766Y-107016711D01*
X92303292Y-107027525D01*
X92317192Y-107037920D01*
X92331464Y-107047897D01*
X92346109Y-107057455D01*
X92361127Y-107066594D01*
X92384604Y-107080660D01*
X92408599Y-107093276D01*
X92433113Y-107104440D01*
X92458144Y-107114153D01*
X92483694Y-107122415D01*
X92509762Y-107129225D01*
X92536347Y-107134585D01*
X92563451Y-107138493D01*
X92591073Y-107140950D01*
X92619213Y-107141956D01*
X92647871Y-107141511D01*
X92677047Y-107139615D01*
X92691829Y-107138123D01*
X92706741Y-107136268D01*
X92721782Y-107134050D01*
X92736953Y-107131469D01*
X92752254Y-107128526D01*
X92767684Y-107125219D01*
X92783243Y-107121550D01*
X92798932Y-107117519D01*
X92824977Y-107109512D01*
X92850354Y-107100328D01*
X92875065Y-107089968D01*
X92899110Y-107078432D01*
X92922487Y-107065720D01*
X92945197Y-107051831D01*
X92967240Y-107036765D01*
X92988617Y-107020524D01*
X93009327Y-107003106D01*
X93029369Y-106984511D01*
X93048745Y-106964740D01*
X93067454Y-106943793D01*
X93085496Y-106921670D01*
X93102871Y-106898370D01*
X93111309Y-106886279D01*
X93119579Y-106873894D01*
X93127683Y-106861214D01*
X93135621Y-106848241D01*
X93147907Y-106827925D01*
X93159669Y-106806636D01*
X93170907Y-106784373D01*
X93181622Y-106761138D01*
X93191813Y-106736929D01*
X93201480Y-106711747D01*
X93210624Y-106685592D01*
X93219243Y-106658464D01*
X93227339Y-106630363D01*
X93231190Y-106615947D01*
X93234911Y-106601289D01*
X93238501Y-106586386D01*
X93241959Y-106571241D01*
X93245287Y-106555852D01*
X93248484Y-106540220D01*
X93251549Y-106524345D01*
X93254484Y-106508226D01*
X93257288Y-106491864D01*
X93259961Y-106475259D01*
X93262503Y-106458411D01*
X93264914Y-106441319D01*
X93267194Y-106423984D01*
X93269344Y-106406406D01*
X93271289Y-106385671D01*
X93272959Y-106365049D01*
X93274352Y-106344541D01*
X93275469Y-106324145D01*
X93276309Y-106303863D01*
X93276874Y-106283694D01*
X93277162Y-106263637D01*
X93277175Y-106243694D01*
X93276911Y-106223864D01*
X93276370Y-106204147D01*
X93275554Y-106184543D01*
X93274461Y-106165052D01*
X93273092Y-106145674D01*
X93271447Y-106126409D01*
X93269526Y-106107257D01*
X93267329Y-106088218D01*
X93264855Y-106069293D01*
X93262105Y-106050480D01*
X93259079Y-106031780D01*
X93255777Y-106013194D01*
X93252198Y-105994720D01*
X93248343Y-105976360D01*
X93244213Y-105958112D01*
X93239805Y-105939978D01*
X93235122Y-105921957D01*
X93230163Y-105904049D01*
X93224927Y-105886254D01*
X93219415Y-105868571D01*
X93213627Y-105851002D01*
X93207562Y-105833546D01*
X93201222Y-105816204D01*
X93194605Y-105798974D01*
X93187148Y-105780859D01*
X93179476Y-105763153D01*
X93171589Y-105745854D01*
X93163487Y-105728964D01*
X93155171Y-105712481D01*
X93146640Y-105696406D01*
X93137895Y-105680739D01*
X93128934Y-105665480D01*
X93119760Y-105650628D01*
X93110370Y-105636185D01*
X93100766Y-105622149D01*
X93090947Y-105608522D01*
X93080914Y-105595302D01*
X93070665Y-105582490D01*
X93060202Y-105570085D01*
X93049525Y-105558089D01*
X93038633Y-105546501D01*
X93027526Y-105535320D01*
X93016204Y-105524548D01*
X93004668Y-105514183D01*
X92992917Y-105504226D01*
X92980952Y-105494677D01*
X92968772Y-105485535D01*
X92956377Y-105476802D01*
X92943767Y-105468477D01*
X92930943Y-105460559D01*
X92917904Y-105453049D01*
X92904651Y-105445947D01*
X92891183Y-105439253D01*
X92877500Y-105432967D01*
X92863602Y-105427089D01*
X92849490Y-105421618D01*
X92825945Y-105414138D01*
X92802663Y-105407496D01*
X92779643Y-105401693D01*
X92756886Y-105396729D01*
X92734391Y-105392603D01*
X92712159Y-105389315D01*
X92690190Y-105386867D01*
X92668483Y-105385257D01*
X92647039Y-105384485D01*
X92625858Y-105384553D01*
X92604939Y-105385459D01*
X92584282Y-105387203D01*
X92563889Y-105389786D01*
X92543758Y-105393208D01*
X92523889Y-105397468D01*
X92504283Y-105402568D01*
X92484940Y-105408505D01*
X92465859Y-105415282D01*
X92447041Y-105422896D01*
X92428486Y-105431350D01*
X92410193Y-105440642D01*
X92392163Y-105450773D01*
X92374395Y-105461743D01*
X92356890Y-105473551D01*
X92339648Y-105486197D01*
X92322668Y-105499683D01*
X92305951Y-105514007D01*
X92289497Y-105529169D01*
X92273305Y-105545171D01*
X92257375Y-105562010D01*
X92241709Y-105579689D01*
X92226304Y-105598206D01*
G37*
G36*
X91942006Y-106476015D02*
G01*
X91671263Y-106476015D01*
X91671263Y-106603143D01*
X91671049Y-106622741D01*
X91670410Y-106641508D01*
X91669343Y-106659446D01*
X91667851Y-106676553D01*
X91665932Y-106692831D01*
X91663586Y-106708278D01*
X91660814Y-106722896D01*
X91655856Y-106743265D01*
X91649939Y-106761768D01*
X91643062Y-106778402D01*
X91635226Y-106793169D01*
X91626430Y-106806068D01*
X91616674Y-106817100D01*
X91604985Y-106827919D01*
X91592815Y-106837296D01*
X91580164Y-106845230D01*
X91563674Y-106853119D01*
X91546433Y-106858754D01*
X91528440Y-106862135D01*
X91513505Y-106863217D01*
X91509696Y-106863262D01*
X91493576Y-106862341D01*
X91478190Y-106859577D01*
X91463537Y-106854970D01*
X91449618Y-106848521D01*
X91436432Y-106840230D01*
X91423980Y-106830096D01*
X91419204Y-106825526D01*
X91408008Y-106812770D01*
X91397913Y-106797856D01*
X91388920Y-106780784D01*
X91381028Y-106761556D01*
X91376378Y-106747538D01*
X91372218Y-106732561D01*
X91368547Y-106716626D01*
X91365366Y-106699732D01*
X91362674Y-106681879D01*
X91360471Y-106663067D01*
X91358758Y-106643296D01*
X91357535Y-106622566D01*
X91356800Y-106600878D01*
X91356556Y-106578230D01*
X91356556Y-105412459D01*
X91069326Y-105412459D01*
X91069326Y-106603143D01*
X91069458Y-106621308D01*
X91069854Y-106639164D01*
X91070514Y-106656713D01*
X91071438Y-106673955D01*
X91072627Y-106690888D01*
X91074079Y-106707514D01*
X91075795Y-106723832D01*
X91077775Y-106739843D01*
X91080020Y-106755546D01*
X91082528Y-106770941D01*
X91085301Y-106786028D01*
X91088337Y-106800808D01*
X91091637Y-106815280D01*
X91099031Y-106843301D01*
X91107480Y-106870092D01*
X91116985Y-106895651D01*
X91127547Y-106919980D01*
X91139165Y-106943078D01*
X91151839Y-106964946D01*
X91165569Y-106985582D01*
X91180355Y-107004988D01*
X91196197Y-107023163D01*
X91204515Y-107031789D01*
X91219628Y-107046208D01*
X91235203Y-107059696D01*
X91251239Y-107072254D01*
X91267735Y-107083882D01*
X91284692Y-107094579D01*
X91302111Y-107104347D01*
X91319989Y-107113184D01*
X91338329Y-107121091D01*
X91357130Y-107128067D01*
X91376391Y-107134114D01*
X91396113Y-107139230D01*
X91416296Y-107143416D01*
X91436940Y-107146672D01*
X91458044Y-107148997D01*
X91479610Y-107150393D01*
X91501636Y-107150858D01*
X91523651Y-107150361D01*
X91545273Y-107148871D01*
X91566504Y-107146388D01*
X91587342Y-107142912D01*
X91607789Y-107138443D01*
X91627843Y-107132980D01*
X91647505Y-107126525D01*
X91666775Y-107119076D01*
X91685652Y-107110634D01*
X91704138Y-107101198D01*
X91722232Y-107090770D01*
X91739933Y-107079348D01*
X91757242Y-107066933D01*
X91774159Y-107053525D01*
X91790684Y-107039124D01*
X91806817Y-107023729D01*
X91823188Y-107006072D01*
X91838502Y-106986990D01*
X91852760Y-106966482D01*
X91865962Y-106944549D01*
X91878108Y-106921190D01*
X91889198Y-106896406D01*
X91899231Y-106870197D01*
X91908209Y-106842562D01*
X91912301Y-106828210D01*
X91916130Y-106813502D01*
X91919694Y-106798438D01*
X91922995Y-106783017D01*
X91926031Y-106767239D01*
X91928804Y-106751106D01*
X91931312Y-106734616D01*
X91933557Y-106717769D01*
X91935537Y-106700567D01*
X91937253Y-106683008D01*
X91938705Y-106665092D01*
X91939893Y-106646821D01*
X91940818Y-106628193D01*
X91941478Y-106609208D01*
X91941874Y-106589868D01*
X91942006Y-106570170D01*
X91942006Y-106476015D01*
G37*
G36*
X90105422Y-106029417D02*
G01*
X90105274Y-106011010D01*
X90104831Y-105992838D01*
X90104092Y-105974900D01*
X90103057Y-105957197D01*
X90101728Y-105939729D01*
X90100102Y-105922496D01*
X90098181Y-105905497D01*
X90095965Y-105888733D01*
X90093453Y-105872204D01*
X90090645Y-105855909D01*
X90087542Y-105839849D01*
X90084144Y-105824024D01*
X90080450Y-105808433D01*
X90076460Y-105793078D01*
X90072175Y-105777956D01*
X90067595Y-105763070D01*
X90062718Y-105748418D01*
X90057547Y-105734001D01*
X90052080Y-105719819D01*
X90046317Y-105705871D01*
X90040259Y-105692158D01*
X90033905Y-105678680D01*
X90027256Y-105665437D01*
X90020311Y-105652428D01*
X90013070Y-105639654D01*
X89997703Y-105614810D01*
X89981154Y-105590905D01*
X89963422Y-105567938D01*
X89954113Y-105556807D01*
X89934878Y-105537331D01*
X89915181Y-105519111D01*
X89895024Y-105502148D01*
X89874406Y-105486442D01*
X89853327Y-105471992D01*
X89831788Y-105458799D01*
X89809787Y-105446862D01*
X89787326Y-105436181D01*
X89764404Y-105426758D01*
X89741021Y-105418590D01*
X89717177Y-105411679D01*
X89692873Y-105406025D01*
X89668107Y-105401627D01*
X89642881Y-105398486D01*
X89617194Y-105396601D01*
X89591046Y-105395973D01*
X89568565Y-105396352D01*
X89546597Y-105397489D01*
X89525143Y-105399383D01*
X89504201Y-105402035D01*
X89483772Y-105405445D01*
X89463856Y-105409613D01*
X89444454Y-105414538D01*
X89425564Y-105420222D01*
X89407188Y-105426663D01*
X89389324Y-105433862D01*
X89371974Y-105441818D01*
X89355136Y-105450533D01*
X89338812Y-105460005D01*
X89323001Y-105470235D01*
X89307702Y-105481222D01*
X89292917Y-105492968D01*
X89278645Y-105505471D01*
X89264886Y-105518732D01*
X89251640Y-105532751D01*
X89238907Y-105547528D01*
X89226687Y-105563062D01*
X89214980Y-105579354D01*
X89203787Y-105596404D01*
X89193106Y-105614212D01*
X89182938Y-105632777D01*
X89173284Y-105652100D01*
X89164142Y-105672181D01*
X89155514Y-105693020D01*
X89147398Y-105714617D01*
X89139796Y-105736971D01*
X89132706Y-105760083D01*
X89126130Y-105783953D01*
X89119779Y-105809543D01*
X89114328Y-105834886D01*
X89109776Y-105859981D01*
X89106123Y-105884829D01*
X89103370Y-105909429D01*
X89101516Y-105933781D01*
X89100562Y-105957886D01*
X89100507Y-105981744D01*
X89101352Y-106005353D01*
X89103096Y-106028716D01*
X89105740Y-106051830D01*
X89109283Y-106074697D01*
X89113725Y-106097317D01*
X89119067Y-106119688D01*
X89125309Y-106141813D01*
X89132450Y-106163689D01*
X89140490Y-106185318D01*
X89149430Y-106206700D01*
X89159269Y-106227834D01*
X89170008Y-106248720D01*
X89181646Y-106269359D01*
X89194184Y-106289750D01*
X89207621Y-106309894D01*
X89221957Y-106329790D01*
X89237193Y-106349438D01*
X89253329Y-106368839D01*
X89270363Y-106387992D01*
X89288298Y-106406898D01*
X89307131Y-106425556D01*
X89326865Y-106443967D01*
X89347497Y-106462130D01*
X89369030Y-106480045D01*
X89566866Y-106652969D01*
X89584842Y-106669022D01*
X89601951Y-106684482D01*
X89618193Y-106699350D01*
X89633567Y-106713625D01*
X89648075Y-106727308D01*
X89661714Y-106740398D01*
X89674487Y-106752896D01*
X89686393Y-106764801D01*
X89697431Y-106776114D01*
X89707602Y-106786835D01*
X89721232Y-106801805D01*
X89732911Y-106815441D01*
X89742638Y-106827745D01*
X89750415Y-106838715D01*
X89092791Y-106838715D01*
X89092791Y-107134371D01*
X90105055Y-107134371D01*
X90105286Y-107109714D01*
X90104881Y-107085293D01*
X90103838Y-107061108D01*
X90102159Y-107037159D01*
X90099843Y-107013446D01*
X90096889Y-106989970D01*
X90093299Y-106966729D01*
X90089073Y-106943725D01*
X90084209Y-106920956D01*
X90078709Y-106898424D01*
X90072571Y-106876128D01*
X90065797Y-106854068D01*
X90058386Y-106832245D01*
X90050338Y-106810657D01*
X90041654Y-106789306D01*
X90032332Y-106768190D01*
X90022374Y-106747311D01*
X90011778Y-106726668D01*
X90000546Y-106706261D01*
X89988677Y-106686090D01*
X89976172Y-106666156D01*
X89963029Y-106646457D01*
X89949250Y-106626995D01*
X89934833Y-106607769D01*
X89919780Y-106588778D01*
X89904090Y-106570024D01*
X89887763Y-106551507D01*
X89870800Y-106533225D01*
X89853199Y-106515179D01*
X89834962Y-106497370D01*
X89816088Y-106479797D01*
X89796577Y-106462459D01*
X89565767Y-106264623D01*
X89553950Y-106254013D01*
X89542586Y-106243296D01*
X89531676Y-106232472D01*
X89521220Y-106221541D01*
X89511217Y-106210502D01*
X89501668Y-106199355D01*
X89483931Y-106176741D01*
X89468008Y-106153697D01*
X89453900Y-106130224D01*
X89441607Y-106106322D01*
X89431128Y-106081990D01*
X89422464Y-106057229D01*
X89415615Y-106032039D01*
X89410580Y-106006419D01*
X89407360Y-105980370D01*
X89405955Y-105953891D01*
X89406364Y-105926984D01*
X89408588Y-105899647D01*
X89412627Y-105871880D01*
X89416781Y-105857410D01*
X89423824Y-105836741D01*
X89431838Y-105817315D01*
X89440825Y-105799131D01*
X89450785Y-105782191D01*
X89461716Y-105766494D01*
X89473621Y-105752039D01*
X89486498Y-105738827D01*
X89500347Y-105726859D01*
X89515168Y-105716133D01*
X89530963Y-105706650D01*
X89545464Y-105698877D01*
X89560256Y-105692868D01*
X89575337Y-105688624D01*
X89590709Y-105686145D01*
X89606370Y-105685430D01*
X89622320Y-105686480D01*
X89638561Y-105689294D01*
X89655091Y-105693873D01*
X89671912Y-105700216D01*
X89689022Y-105708324D01*
X89700589Y-105714710D01*
X89714940Y-105724268D01*
X89728502Y-105735175D01*
X89741273Y-105747429D01*
X89753254Y-105761032D01*
X89764445Y-105775983D01*
X89774847Y-105792282D01*
X89784458Y-105809929D01*
X89793279Y-105828924D01*
X89801311Y-105849267D01*
X89808552Y-105870959D01*
X89815004Y-105893998D01*
X89820665Y-105918386D01*
X89825537Y-105944121D01*
X89829618Y-105971205D01*
X89832910Y-105999637D01*
X89834259Y-106014358D01*
X89835411Y-106029417D01*
X90105422Y-106029417D01*
G37*
G36*
X88286942Y-105396228D02*
G01*
X88303015Y-105396993D01*
X88318890Y-105398269D01*
X88334566Y-105400055D01*
X88350042Y-105402350D01*
X88365320Y-105405156D01*
X88380399Y-105408473D01*
X88395279Y-105412299D01*
X88409960Y-105416636D01*
X88424442Y-105421483D01*
X88438725Y-105426840D01*
X88452810Y-105432707D01*
X88466695Y-105439084D01*
X88480381Y-105445972D01*
X88493869Y-105453369D01*
X88507158Y-105461277D01*
X88520247Y-105469696D01*
X88533138Y-105478624D01*
X88545830Y-105488062D01*
X88558323Y-105498011D01*
X88570617Y-105508470D01*
X88582712Y-105519439D01*
X88594608Y-105530918D01*
X88606305Y-105542908D01*
X88617803Y-105555408D01*
X88629102Y-105568417D01*
X88640203Y-105581938D01*
X88651104Y-105595968D01*
X88661807Y-105610508D01*
X88672311Y-105625559D01*
X88682615Y-105641120D01*
X88692721Y-105657191D01*
X88703465Y-105674510D01*
X88713851Y-105692121D01*
X88723881Y-105710024D01*
X88733554Y-105728220D01*
X88742869Y-105746707D01*
X88751827Y-105765486D01*
X88760429Y-105784557D01*
X88768673Y-105803920D01*
X88776560Y-105823574D01*
X88784090Y-105843521D01*
X88791263Y-105863760D01*
X88798079Y-105884291D01*
X88804538Y-105905113D01*
X88810640Y-105926228D01*
X88816385Y-105947635D01*
X88821773Y-105969333D01*
X88826804Y-105991324D01*
X88831477Y-106013606D01*
X88835794Y-106036180D01*
X88839753Y-106059047D01*
X88843356Y-106082205D01*
X88846601Y-106105655D01*
X88849490Y-106129397D01*
X88852021Y-106153431D01*
X88854195Y-106177757D01*
X88856012Y-106202375D01*
X88857472Y-106227285D01*
X88858575Y-106252487D01*
X88859321Y-106277981D01*
X88859710Y-106303766D01*
X88859742Y-106329844D01*
X88859417Y-106356214D01*
X88858239Y-106378988D01*
X88856766Y-106401470D01*
X88854999Y-106423659D01*
X88852937Y-106445555D01*
X88850580Y-106467159D01*
X88847928Y-106488470D01*
X88844981Y-106509488D01*
X88841740Y-106530214D01*
X88838203Y-106550647D01*
X88834372Y-106570787D01*
X88830246Y-106590635D01*
X88825826Y-106610190D01*
X88821110Y-106629452D01*
X88816100Y-106648422D01*
X88810795Y-106667099D01*
X88805195Y-106685484D01*
X88799300Y-106703575D01*
X88793111Y-106721374D01*
X88786626Y-106738881D01*
X88779847Y-106756095D01*
X88772773Y-106773016D01*
X88765404Y-106789644D01*
X88757741Y-106805980D01*
X88749782Y-106822023D01*
X88741529Y-106837773D01*
X88732981Y-106853231D01*
X88724138Y-106868396D01*
X88715001Y-106883269D01*
X88705568Y-106897849D01*
X88695841Y-106912136D01*
X88685819Y-106926130D01*
X88675502Y-106939832D01*
X88665413Y-106952815D01*
X88655159Y-106965386D01*
X88644739Y-106977545D01*
X88634154Y-106989291D01*
X88623404Y-107000626D01*
X88612489Y-107011548D01*
X88601408Y-107022058D01*
X88590162Y-107032156D01*
X88578751Y-107041842D01*
X88567174Y-107051115D01*
X88555432Y-107059977D01*
X88531452Y-107076463D01*
X88506812Y-107091301D01*
X88481510Y-107104490D01*
X88455546Y-107116030D01*
X88428922Y-107125922D01*
X88401636Y-107134165D01*
X88373690Y-107140760D01*
X88345082Y-107145706D01*
X88330530Y-107147561D01*
X88315813Y-107149003D01*
X88300930Y-107150034D01*
X88285882Y-107150652D01*
X88270669Y-107150858D01*
X88254893Y-107150603D01*
X88239299Y-107149837D01*
X88223889Y-107148562D01*
X88208662Y-107146776D01*
X88193618Y-107144480D01*
X88178758Y-107141674D01*
X88164080Y-107138358D01*
X88149586Y-107134532D01*
X88135275Y-107130195D01*
X88121147Y-107125348D01*
X88107202Y-107119991D01*
X88093441Y-107114124D01*
X88079862Y-107107747D01*
X88066467Y-107100859D01*
X88053255Y-107093461D01*
X88040226Y-107085553D01*
X88027381Y-107077135D01*
X88014718Y-107068207D01*
X88002239Y-107058768D01*
X87989943Y-107048820D01*
X87977830Y-107038361D01*
X87965900Y-107027392D01*
X87954154Y-107015912D01*
X87942590Y-107003923D01*
X87931210Y-106991423D01*
X87920013Y-106978413D01*
X87908999Y-106964893D01*
X87898169Y-106950863D01*
X87887521Y-106936323D01*
X87877057Y-106921272D01*
X87866776Y-106905711D01*
X87856678Y-106889640D01*
X87846424Y-106872795D01*
X87836546Y-106855643D01*
X87827044Y-106838185D01*
X87817918Y-106820420D01*
X87809167Y-106802350D01*
X87800792Y-106783973D01*
X87792792Y-106765289D01*
X87785168Y-106746300D01*
X87777920Y-106727004D01*
X87771047Y-106707403D01*
X87764550Y-106687494D01*
X87758429Y-106667280D01*
X87752684Y-106646759D01*
X87747314Y-106625932D01*
X87742320Y-106604799D01*
X87737701Y-106583360D01*
X87733458Y-106561614D01*
X87729591Y-106539562D01*
X87726099Y-106517204D01*
X87722983Y-106494539D01*
X87720243Y-106471568D01*
X87717879Y-106448291D01*
X87715890Y-106424708D01*
X87714277Y-106400819D01*
X87713039Y-106376623D01*
X87712177Y-106352121D01*
X87711691Y-106327312D01*
X87711580Y-106302198D01*
X87711845Y-106276777D01*
X87711940Y-106272962D01*
X87990388Y-106272962D01*
X87990541Y-106289038D01*
X87990853Y-106305260D01*
X87991325Y-106321628D01*
X87991956Y-106338140D01*
X87992747Y-106354798D01*
X87993698Y-106371601D01*
X87995903Y-106399747D01*
X87998489Y-106427122D01*
X88001456Y-106453728D01*
X88004803Y-106479564D01*
X88008531Y-106504630D01*
X88012640Y-106528926D01*
X88017130Y-106552452D01*
X88022000Y-106575208D01*
X88027250Y-106597194D01*
X88032882Y-106618410D01*
X88038894Y-106638857D01*
X88045287Y-106658533D01*
X88052060Y-106677439D01*
X88059214Y-106695576D01*
X88066749Y-106712942D01*
X88074665Y-106729539D01*
X88085727Y-106748523D01*
X88097207Y-106766089D01*
X88109106Y-106782240D01*
X88121422Y-106796973D01*
X88134156Y-106810289D01*
X88147308Y-106822189D01*
X88160877Y-106832672D01*
X88174865Y-106841738D01*
X88189271Y-106849387D01*
X88204094Y-106855620D01*
X88219335Y-106860435D01*
X88234995Y-106863834D01*
X88251072Y-106865816D01*
X88267567Y-106866382D01*
X88284480Y-106865530D01*
X88301810Y-106863262D01*
X88318197Y-106859718D01*
X88334108Y-106854858D01*
X88349544Y-106848682D01*
X88364504Y-106841188D01*
X88378990Y-106832379D01*
X88393001Y-106822252D01*
X88406536Y-106810809D01*
X88419596Y-106798049D01*
X88432182Y-106783973D01*
X88444292Y-106768580D01*
X88455927Y-106751870D01*
X88467086Y-106733844D01*
X88477771Y-106714501D01*
X88487981Y-106693841D01*
X88497715Y-106671865D01*
X88506974Y-106648572D01*
X88515783Y-106623797D01*
X88523890Y-106598381D01*
X88531296Y-106572323D01*
X88538001Y-106545624D01*
X88544004Y-106518284D01*
X88549307Y-106490303D01*
X88553908Y-106461681D01*
X88555945Y-106447129D01*
X88557807Y-106432418D01*
X88559494Y-106417545D01*
X88561006Y-106402513D01*
X88562342Y-106387320D01*
X88563503Y-106371967D01*
X88564489Y-106356454D01*
X88565299Y-106340781D01*
X88565934Y-106324947D01*
X88566394Y-106308953D01*
X88566679Y-106292798D01*
X88566788Y-106276484D01*
X88566721Y-106260009D01*
X88566480Y-106243374D01*
X88566063Y-106226578D01*
X88565471Y-106209622D01*
X88564704Y-106192506D01*
X88563761Y-106175230D01*
X88561491Y-106146001D01*
X88558712Y-106117482D01*
X88555423Y-106089672D01*
X88551625Y-106062573D01*
X88547317Y-106036183D01*
X88542500Y-106010503D01*
X88537174Y-105985533D01*
X88531338Y-105961273D01*
X88524992Y-105937723D01*
X88518137Y-105914882D01*
X88510773Y-105892751D01*
X88502899Y-105871331D01*
X88494515Y-105850620D01*
X88485622Y-105830618D01*
X88476220Y-105811327D01*
X88466308Y-105792745D01*
X88456233Y-105776733D01*
X88445608Y-105761942D01*
X88434434Y-105748374D01*
X88422711Y-105736028D01*
X88410437Y-105724904D01*
X88397615Y-105715002D01*
X88384242Y-105706322D01*
X88370321Y-105698865D01*
X88355849Y-105692629D01*
X88340828Y-105687616D01*
X88325258Y-105683825D01*
X88309138Y-105681256D01*
X88292468Y-105679910D01*
X88275249Y-105679785D01*
X88257480Y-105680883D01*
X88239162Y-105683203D01*
X88223796Y-105685876D01*
X88208840Y-105690049D01*
X88194292Y-105695722D01*
X88180155Y-105702895D01*
X88166426Y-105711567D01*
X88153107Y-105721740D01*
X88140197Y-105733412D01*
X88127696Y-105746584D01*
X88115604Y-105761255D01*
X88103922Y-105777427D01*
X88092649Y-105795098D01*
X88081786Y-105814269D01*
X88071331Y-105834940D01*
X88061287Y-105857111D01*
X88051651Y-105880782D01*
X88042424Y-105905952D01*
X88034592Y-105930697D01*
X88027398Y-105956024D01*
X88020842Y-105981931D01*
X88014924Y-106008420D01*
X88009645Y-106035489D01*
X88005004Y-106063139D01*
X88001001Y-106091371D01*
X87997636Y-106120184D01*
X87996194Y-106134808D01*
X87994910Y-106149577D01*
X87993786Y-106164492D01*
X87992822Y-106179552D01*
X87992018Y-106194757D01*
X87991372Y-106210107D01*
X87990887Y-106225603D01*
X87990561Y-106241244D01*
X87990395Y-106257030D01*
X87990388Y-106272962D01*
X87711940Y-106272962D01*
X87712486Y-106251050D01*
X87713503Y-106225017D01*
X87714895Y-106198677D01*
X87715546Y-106175925D01*
X87716492Y-106153465D01*
X87717733Y-106131298D01*
X87719268Y-106109422D01*
X87721099Y-106087838D01*
X87723224Y-106066546D01*
X87725644Y-106045545D01*
X87728359Y-106024837D01*
X87731368Y-106004421D01*
X87734673Y-105984297D01*
X87738272Y-105964464D01*
X87742166Y-105944924D01*
X87746355Y-105925676D01*
X87750839Y-105906719D01*
X87755617Y-105888055D01*
X87760690Y-105869682D01*
X87766058Y-105851601D01*
X87771721Y-105833813D01*
X87777679Y-105816316D01*
X87783932Y-105799111D01*
X87790479Y-105782198D01*
X87797321Y-105765577D01*
X87804458Y-105749248D01*
X87811890Y-105733211D01*
X87819616Y-105717466D01*
X87827638Y-105702013D01*
X87835954Y-105686852D01*
X87844565Y-105671983D01*
X87853471Y-105657405D01*
X87862671Y-105643120D01*
X87872167Y-105629127D01*
X87881957Y-105615425D01*
X87891010Y-105601924D01*
X87900262Y-105588851D01*
X87909714Y-105576207D01*
X87919366Y-105563991D01*
X87929218Y-105552204D01*
X87939269Y-105540846D01*
X87949519Y-105529916D01*
X87959970Y-105519415D01*
X87981469Y-105499698D01*
X88003767Y-105481696D01*
X88026864Y-105465409D01*
X88050759Y-105450836D01*
X88075453Y-105437978D01*
X88100945Y-105426833D01*
X88127236Y-105417404D01*
X88154326Y-105409689D01*
X88182214Y-105403688D01*
X88210901Y-105399402D01*
X88225543Y-105397902D01*
X88240386Y-105396830D01*
X88255428Y-105396187D01*
X88270669Y-105395973D01*
X88286942Y-105396228D01*
G37*
G36*
X87464668Y-106029417D02*
G01*
X87464520Y-106011010D01*
X87464077Y-105992838D01*
X87463338Y-105974900D01*
X87462304Y-105957197D01*
X87460974Y-105939729D01*
X87459349Y-105922496D01*
X87457428Y-105905497D01*
X87455211Y-105888733D01*
X87452699Y-105872204D01*
X87449892Y-105855909D01*
X87446789Y-105839849D01*
X87443390Y-105824024D01*
X87439696Y-105808433D01*
X87435707Y-105793078D01*
X87431422Y-105777956D01*
X87426841Y-105763070D01*
X87421965Y-105748418D01*
X87416793Y-105734001D01*
X87411326Y-105719819D01*
X87405563Y-105705871D01*
X87399505Y-105692158D01*
X87393151Y-105678680D01*
X87386502Y-105665437D01*
X87379557Y-105652428D01*
X87372317Y-105639654D01*
X87356949Y-105614810D01*
X87340400Y-105590905D01*
X87322669Y-105567938D01*
X87313360Y-105556807D01*
X87294124Y-105537331D01*
X87274428Y-105519111D01*
X87254270Y-105502148D01*
X87233652Y-105486442D01*
X87212574Y-105471992D01*
X87191034Y-105458799D01*
X87169034Y-105446862D01*
X87146572Y-105436181D01*
X87123650Y-105426758D01*
X87100267Y-105418590D01*
X87076424Y-105411679D01*
X87052119Y-105406025D01*
X87027354Y-105401627D01*
X87002127Y-105398486D01*
X86976440Y-105396601D01*
X86950293Y-105395973D01*
X86927812Y-105396352D01*
X86905844Y-105397489D01*
X86884389Y-105399383D01*
X86863447Y-105402035D01*
X86843018Y-105405445D01*
X86823103Y-105409613D01*
X86803700Y-105414538D01*
X86784810Y-105420222D01*
X86766434Y-105426663D01*
X86748570Y-105433862D01*
X86731220Y-105441818D01*
X86714383Y-105450533D01*
X86698058Y-105460005D01*
X86682247Y-105470235D01*
X86666949Y-105481222D01*
X86652164Y-105492968D01*
X86637892Y-105505471D01*
X86624133Y-105518732D01*
X86610887Y-105532751D01*
X86598154Y-105547528D01*
X86585934Y-105563062D01*
X86574227Y-105579354D01*
X86563033Y-105596404D01*
X86552352Y-105614212D01*
X86542185Y-105632777D01*
X86532530Y-105652100D01*
X86523388Y-105672181D01*
X86514760Y-105693020D01*
X86506644Y-105714617D01*
X86499042Y-105736971D01*
X86491953Y-105760083D01*
X86485376Y-105783953D01*
X86479025Y-105809543D01*
X86473574Y-105834886D01*
X86469022Y-105859981D01*
X86465369Y-105884829D01*
X86462616Y-105909429D01*
X86460763Y-105933781D01*
X86459808Y-105957886D01*
X86459754Y-105981744D01*
X86460598Y-106005353D01*
X86462343Y-106028716D01*
X86464986Y-106051830D01*
X86468529Y-106074697D01*
X86472972Y-106097317D01*
X86478314Y-106119688D01*
X86484555Y-106141813D01*
X86491696Y-106163689D01*
X86499736Y-106185318D01*
X86508676Y-106206700D01*
X86518515Y-106227834D01*
X86529254Y-106248720D01*
X86540892Y-106269359D01*
X86553430Y-106289750D01*
X86566867Y-106309894D01*
X86581203Y-106329790D01*
X86596439Y-106349438D01*
X86612575Y-106368839D01*
X86629610Y-106387992D01*
X86647544Y-106406898D01*
X86666378Y-106425556D01*
X86686111Y-106443967D01*
X86706744Y-106462130D01*
X86728276Y-106480045D01*
X86926113Y-106652969D01*
X86944089Y-106669022D01*
X86961198Y-106684482D01*
X86977439Y-106699350D01*
X86992814Y-106713625D01*
X87007321Y-106727308D01*
X87020961Y-106740398D01*
X87033733Y-106752896D01*
X87045639Y-106764801D01*
X87056677Y-106776114D01*
X87066848Y-106786835D01*
X87080478Y-106801805D01*
X87092157Y-106815441D01*
X87101885Y-106827745D01*
X87109661Y-106838715D01*
X86452037Y-106838715D01*
X86452037Y-107134371D01*
X87464302Y-107134371D01*
X87464533Y-107109714D01*
X87464127Y-107085293D01*
X87463085Y-107061108D01*
X87461405Y-107037159D01*
X87459089Y-107013446D01*
X87456136Y-106989970D01*
X87452546Y-106966729D01*
X87448319Y-106943725D01*
X87443455Y-106920956D01*
X87437955Y-106898424D01*
X87431818Y-106876128D01*
X87425043Y-106854068D01*
X87417632Y-106832245D01*
X87409585Y-106810657D01*
X87400900Y-106789306D01*
X87391578Y-106768190D01*
X87381620Y-106747311D01*
X87371025Y-106726668D01*
X87359793Y-106706261D01*
X87347924Y-106686090D01*
X87335418Y-106666156D01*
X87322275Y-106646457D01*
X87308496Y-106626995D01*
X87294080Y-106607769D01*
X87279027Y-106588778D01*
X87263337Y-106570024D01*
X87247010Y-106551507D01*
X87230046Y-106533225D01*
X87212446Y-106515179D01*
X87194208Y-106497370D01*
X87175334Y-106479797D01*
X87155823Y-106462459D01*
X86925013Y-106264623D01*
X86913196Y-106254013D01*
X86901832Y-106243296D01*
X86890922Y-106232472D01*
X86880466Y-106221541D01*
X86870463Y-106210502D01*
X86860914Y-106199355D01*
X86843177Y-106176741D01*
X86827254Y-106153697D01*
X86813146Y-106130224D01*
X86800853Y-106106322D01*
X86790375Y-106081990D01*
X86781711Y-106057229D01*
X86774861Y-106032039D01*
X86769827Y-106006419D01*
X86766607Y-105980370D01*
X86765201Y-105953891D01*
X86765611Y-105926984D01*
X86767835Y-105899647D01*
X86771873Y-105871880D01*
X86776028Y-105857410D01*
X86783070Y-105836741D01*
X86791084Y-105817315D01*
X86800071Y-105799131D01*
X86810031Y-105782191D01*
X86820963Y-105766494D01*
X86832867Y-105752039D01*
X86845744Y-105738827D01*
X86859593Y-105726859D01*
X86874415Y-105716133D01*
X86890209Y-105706650D01*
X86904711Y-105698877D01*
X86919502Y-105692868D01*
X86934584Y-105688624D01*
X86949955Y-105686145D01*
X86965616Y-105685430D01*
X86981567Y-105686480D01*
X86997807Y-105689294D01*
X87014338Y-105693873D01*
X87031158Y-105700216D01*
X87048268Y-105708324D01*
X87059836Y-105714710D01*
X87074187Y-105724268D01*
X87087748Y-105735175D01*
X87100519Y-105747429D01*
X87112500Y-105761032D01*
X87123692Y-105775983D01*
X87134093Y-105792282D01*
X87143704Y-105809929D01*
X87152526Y-105828924D01*
X87160557Y-105849267D01*
X87167798Y-105870959D01*
X87174250Y-105893998D01*
X87179911Y-105918386D01*
X87184783Y-105944121D01*
X87188864Y-105971205D01*
X87192156Y-105999637D01*
X87193506Y-106014358D01*
X87194658Y-106029417D01*
X87464668Y-106029417D01*
G37*
G36*
X86025956Y-106973538D02*
G01*
X86041339Y-106955289D01*
X86055797Y-106936357D01*
X86069331Y-106916741D01*
X86081941Y-106896441D01*
X86093626Y-106875456D01*
X86104386Y-106853788D01*
X86114222Y-106831435D01*
X86123134Y-106808399D01*
X86131121Y-106784678D01*
X86138183Y-106760273D01*
X86144321Y-106735185D01*
X86149535Y-106709412D01*
X86153824Y-106682955D01*
X86157188Y-106655814D01*
X86159628Y-106627989D01*
X86161144Y-106599480D01*
X85900293Y-106599480D01*
X85896846Y-106616395D01*
X85892920Y-106632796D01*
X85888512Y-106648681D01*
X85883623Y-106664051D01*
X85878253Y-106678906D01*
X85872403Y-106693246D01*
X85866072Y-106707070D01*
X85859260Y-106720380D01*
X85851967Y-106733174D01*
X85840126Y-106751399D01*
X85827203Y-106768465D01*
X85813198Y-106784372D01*
X85798111Y-106799120D01*
X85787452Y-106808307D01*
X85769870Y-106820539D01*
X85752294Y-106830993D01*
X85734725Y-106839670D01*
X85717162Y-106846569D01*
X85699605Y-106851691D01*
X85682055Y-106855036D01*
X85664512Y-106856603D01*
X85646975Y-106856393D01*
X85629444Y-106854405D01*
X85611920Y-106850639D01*
X85600240Y-106847142D01*
X85580052Y-106840645D01*
X85560976Y-106832968D01*
X85543014Y-106824112D01*
X85526166Y-106814077D01*
X85510431Y-106802863D01*
X85495809Y-106790470D01*
X85482301Y-106776897D01*
X85469906Y-106762145D01*
X85458625Y-106746214D01*
X85448457Y-106729104D01*
X85439402Y-106710814D01*
X85431461Y-106691345D01*
X85424633Y-106670697D01*
X85418919Y-106648870D01*
X85414318Y-106625864D01*
X85410830Y-106601678D01*
X85407485Y-106576088D01*
X85405512Y-106551251D01*
X85404909Y-106527167D01*
X85405678Y-106503836D01*
X85407817Y-106481257D01*
X85411328Y-106459431D01*
X85416209Y-106438358D01*
X85422462Y-106418038D01*
X85430086Y-106398470D01*
X85439080Y-106379655D01*
X85449446Y-106361593D01*
X85461182Y-106344284D01*
X85474290Y-106327727D01*
X85488768Y-106311924D01*
X85504618Y-106296873D01*
X85521838Y-106282575D01*
X85535168Y-106272957D01*
X85548916Y-106264577D01*
X85563083Y-106257433D01*
X85577669Y-106251525D01*
X85592673Y-106246854D01*
X85608096Y-106243419D01*
X85623937Y-106241221D01*
X85640197Y-106240259D01*
X85656875Y-106240534D01*
X85673972Y-106242045D01*
X85685603Y-106243740D01*
X85703081Y-106247286D01*
X85720070Y-106252017D01*
X85736569Y-106257934D01*
X85752579Y-106265035D01*
X85768099Y-106273321D01*
X85783130Y-106282792D01*
X85797672Y-106293448D01*
X85811724Y-106305289D01*
X85825287Y-106318315D01*
X85838360Y-106332526D01*
X85846803Y-106342658D01*
X86121577Y-106342658D01*
X85986388Y-105412459D01*
X85197606Y-105412459D01*
X85197606Y-105716175D01*
X85768401Y-105716175D01*
X85820059Y-106019159D01*
X85805080Y-106010247D01*
X85790139Y-106001921D01*
X85775235Y-105994181D01*
X85760370Y-105987027D01*
X85745543Y-105980460D01*
X85730753Y-105974478D01*
X85716002Y-105969082D01*
X85701288Y-105964273D01*
X85686612Y-105960049D01*
X85671975Y-105956412D01*
X85657375Y-105953360D01*
X85642813Y-105950895D01*
X85613803Y-105947722D01*
X85584945Y-105946893D01*
X85556238Y-105948409D01*
X85527683Y-105952269D01*
X85499280Y-105958472D01*
X85485135Y-105962453D01*
X85471028Y-105967020D01*
X85456959Y-105972173D01*
X85442928Y-105977913D01*
X85428935Y-105984238D01*
X85414980Y-105991149D01*
X85401063Y-105998646D01*
X85387184Y-106006729D01*
X85373342Y-106015399D01*
X85359539Y-106024654D01*
X85338891Y-106039893D01*
X85319170Y-106056116D01*
X85300377Y-106073323D01*
X85282511Y-106091516D01*
X85265572Y-106110692D01*
X85249561Y-106130854D01*
X85234477Y-106152000D01*
X85220321Y-106174131D01*
X85207091Y-106197246D01*
X85194789Y-106221346D01*
X85183415Y-106246430D01*
X85172968Y-106272500D01*
X85163448Y-106299553D01*
X85154856Y-106327592D01*
X85150907Y-106341980D01*
X85147191Y-106356614D01*
X85143706Y-106371495D01*
X85140453Y-106386622D01*
X85137441Y-106401748D01*
X85134724Y-106416810D01*
X85132303Y-106431807D01*
X85130178Y-106446740D01*
X85128348Y-106461609D01*
X85126813Y-106476413D01*
X85125574Y-106491152D01*
X85124631Y-106505828D01*
X85123630Y-106534985D01*
X85123812Y-106563885D01*
X85125176Y-106592527D01*
X85127722Y-106620912D01*
X85131450Y-106649039D01*
X85136360Y-106676908D01*
X85142452Y-106704520D01*
X85149727Y-106731875D01*
X85158183Y-106758971D01*
X85167822Y-106785810D01*
X85178642Y-106812392D01*
X85190645Y-106838715D01*
X85200411Y-106860430D01*
X85210841Y-106881426D01*
X85221935Y-106901703D01*
X85233693Y-106921262D01*
X85246115Y-106940102D01*
X85259201Y-106958225D01*
X85272951Y-106975628D01*
X85287365Y-106992314D01*
X85302443Y-107008281D01*
X85318186Y-107023529D01*
X85334592Y-107038059D01*
X85351662Y-107051871D01*
X85369396Y-107064964D01*
X85387795Y-107077339D01*
X85406857Y-107088995D01*
X85426584Y-107099933D01*
X85445665Y-107109028D01*
X85464806Y-107117261D01*
X85484007Y-107124633D01*
X85503268Y-107131143D01*
X85522590Y-107136791D01*
X85541971Y-107141579D01*
X85561413Y-107145504D01*
X85580915Y-107148568D01*
X85600476Y-107150771D01*
X85620098Y-107152111D01*
X85639780Y-107152591D01*
X85659523Y-107152209D01*
X85679325Y-107150965D01*
X85699187Y-107148860D01*
X85719110Y-107145893D01*
X85739092Y-107142065D01*
X85760993Y-107137457D01*
X85782363Y-107132059D01*
X85803205Y-107125871D01*
X85823516Y-107118893D01*
X85843299Y-107111124D01*
X85862551Y-107102566D01*
X85881275Y-107093218D01*
X85899468Y-107083080D01*
X85917132Y-107072152D01*
X85934267Y-107060435D01*
X85950872Y-107047927D01*
X85966948Y-107034629D01*
X85982494Y-107020541D01*
X85997511Y-107005663D01*
X86011998Y-106989995D01*
X86025956Y-106973538D01*
G37*
G36*
X84251653Y-105866018D02*
G01*
X84127822Y-105866018D01*
X84127822Y-105470345D01*
X83865505Y-105470345D01*
X83865505Y-105866018D01*
X83700642Y-105866018D01*
X83700642Y-106128335D01*
X83865505Y-106128335D01*
X83865505Y-106817466D01*
X83864182Y-106833087D01*
X83859098Y-106848337D01*
X83848349Y-106861310D01*
X83835006Y-106868299D01*
X83817849Y-106871476D01*
X83811284Y-106871688D01*
X83692215Y-106871688D01*
X83692215Y-107134371D01*
X83860743Y-107134371D01*
X83877563Y-107134101D01*
X83893859Y-107133290D01*
X83909631Y-107131937D01*
X83924879Y-107130044D01*
X83939604Y-107127609D01*
X83960709Y-107122944D01*
X83980635Y-107117061D01*
X83999383Y-107109961D01*
X84016953Y-107101643D01*
X84033344Y-107092109D01*
X84048556Y-107081357D01*
X84062590Y-107069389D01*
X84067006Y-107065129D01*
X84077874Y-107052928D01*
X84087674Y-107039407D01*
X84096404Y-107024566D01*
X84104066Y-107008405D01*
X84110658Y-106990924D01*
X84116182Y-106972122D01*
X84120636Y-106952000D01*
X84124021Y-106930558D01*
X84125684Y-106915530D01*
X84126872Y-106899915D01*
X84127585Y-106883714D01*
X84127822Y-106866926D01*
X84127822Y-106128335D01*
X84251653Y-106128335D01*
X84251653Y-105866018D01*
G37*
G36*
X83513063Y-105833046D02*
G01*
X83250380Y-105833046D01*
X83250380Y-106644176D01*
X83250195Y-106658929D01*
X83249226Y-106680228D01*
X83247426Y-106700527D01*
X83244795Y-106719829D01*
X83241334Y-106738133D01*
X83237042Y-106755438D01*
X83231918Y-106771745D01*
X83225965Y-106787054D01*
X83219180Y-106801365D01*
X83211565Y-106814677D01*
X83203119Y-106826992D01*
X83193290Y-106839357D01*
X83182488Y-106850073D01*
X83170713Y-106859140D01*
X83157964Y-106866559D01*
X83144243Y-106872329D01*
X83129548Y-106876451D01*
X83113881Y-106878924D01*
X83097240Y-106879748D01*
X83080547Y-106878792D01*
X83064542Y-106875924D01*
X83049223Y-106871144D01*
X83034591Y-106864453D01*
X83020647Y-106855849D01*
X83007389Y-106845333D01*
X82994818Y-106832905D01*
X82982934Y-106818565D01*
X82973047Y-106804956D01*
X82964133Y-106790779D01*
X82956192Y-106776036D01*
X82949223Y-106760726D01*
X82943226Y-106744849D01*
X82938202Y-106728405D01*
X82934150Y-106711395D01*
X82931070Y-106693818D01*
X82928964Y-106675675D01*
X82927829Y-106656964D01*
X82927613Y-106644176D01*
X82927613Y-105833046D01*
X82656870Y-105833046D01*
X82656870Y-107134371D01*
X82927613Y-107134371D01*
X82927613Y-107026660D01*
X82939085Y-107041700D01*
X82951060Y-107055769D01*
X82963539Y-107068868D01*
X82976523Y-107080997D01*
X82990009Y-107092155D01*
X83004000Y-107102343D01*
X83018494Y-107111561D01*
X83033492Y-107119808D01*
X83048994Y-107127086D01*
X83065000Y-107133393D01*
X83081509Y-107138729D01*
X83098522Y-107143095D01*
X83116039Y-107146492D01*
X83134059Y-107148917D01*
X83152583Y-107150373D01*
X83171612Y-107150858D01*
X83187508Y-107150490D01*
X83203142Y-107149387D01*
X83218512Y-107147548D01*
X83233619Y-107144973D01*
X83248462Y-107141663D01*
X83263042Y-107137617D01*
X83277359Y-107132836D01*
X83291413Y-107127319D01*
X83305203Y-107121066D01*
X83318730Y-107114078D01*
X83331993Y-107106355D01*
X83344993Y-107097895D01*
X83357730Y-107088700D01*
X83370204Y-107078770D01*
X83382414Y-107068104D01*
X83394361Y-107056702D01*
X83408735Y-107041459D01*
X83422182Y-107025498D01*
X83434701Y-107008819D01*
X83446293Y-106991421D01*
X83456958Y-106973304D01*
X83466695Y-106954469D01*
X83475505Y-106934916D01*
X83483387Y-106914644D01*
X83490343Y-106893654D01*
X83496371Y-106871946D01*
X83501471Y-106849519D01*
X83505644Y-106826374D01*
X83508890Y-106802510D01*
X83511208Y-106777928D01*
X83512599Y-106752627D01*
X83513063Y-106726608D01*
X83513063Y-105833046D01*
G37*
G36*
X82513621Y-105866018D02*
G01*
X82389790Y-105866018D01*
X82389790Y-105470345D01*
X82127473Y-105470345D01*
X82127473Y-105866018D01*
X81962609Y-105866018D01*
X81962609Y-106128335D01*
X82127473Y-106128335D01*
X82127473Y-106817466D01*
X82126150Y-106833087D01*
X82121066Y-106848337D01*
X82110317Y-106861310D01*
X82096974Y-106868299D01*
X82079817Y-106871476D01*
X82073251Y-106871688D01*
X81954183Y-106871688D01*
X81954183Y-107134371D01*
X82122711Y-107134371D01*
X82139530Y-107134101D01*
X82155826Y-107133290D01*
X82171599Y-107131937D01*
X82186847Y-107130044D01*
X82201572Y-107127609D01*
X82222677Y-107122944D01*
X82242603Y-107117061D01*
X82261351Y-107109961D01*
X82278921Y-107101643D01*
X82295311Y-107092109D01*
X82310524Y-107081357D01*
X82324558Y-107069389D01*
X82328974Y-107065129D01*
X82339842Y-107052928D01*
X82349642Y-107039407D01*
X82358372Y-107024566D01*
X82366034Y-107008405D01*
X82372626Y-106990924D01*
X82378149Y-106972122D01*
X82382604Y-106952000D01*
X82385989Y-106930558D01*
X82387652Y-106915530D01*
X82388840Y-106899915D01*
X82389553Y-106883714D01*
X82389790Y-106866926D01*
X82389790Y-106128335D01*
X82513621Y-106128335D01*
X82513621Y-105866018D01*
G37*
G36*
X81319654Y-105823141D02*
G01*
X81343820Y-105824619D01*
X81372010Y-105828549D01*
X81399336Y-105833927D01*
X81425797Y-105840754D01*
X81451394Y-105849028D01*
X81476126Y-105858751D01*
X81499994Y-105869922D01*
X81522998Y-105882542D01*
X81545137Y-105896610D01*
X81566412Y-105912126D01*
X81586823Y-105929090D01*
X81606369Y-105947503D01*
X81625051Y-105967364D01*
X81642868Y-105988673D01*
X81659821Y-106011431D01*
X81675909Y-106035636D01*
X81683629Y-106048282D01*
X81691133Y-106061290D01*
X81704265Y-106085539D01*
X81716550Y-106110109D01*
X81727987Y-106134998D01*
X81738578Y-106160209D01*
X81748321Y-106185740D01*
X81757216Y-106211591D01*
X81765265Y-106237764D01*
X81772466Y-106264256D01*
X81778820Y-106291070D01*
X81784327Y-106318203D01*
X81788987Y-106345658D01*
X81792800Y-106373433D01*
X81795765Y-106401528D01*
X81797883Y-106429945D01*
X81799154Y-106458681D01*
X81799577Y-106487739D01*
X81799405Y-106509504D01*
X81798889Y-106530929D01*
X81798028Y-106552014D01*
X81796824Y-106572758D01*
X81795275Y-106593161D01*
X81793382Y-106613224D01*
X81791145Y-106632946D01*
X81788563Y-106652328D01*
X81785638Y-106671369D01*
X81782368Y-106690069D01*
X81778754Y-106708429D01*
X81774796Y-106726448D01*
X81770494Y-106744126D01*
X81765847Y-106761464D01*
X81760857Y-106778461D01*
X81755522Y-106795118D01*
X81749843Y-106811434D01*
X81743820Y-106827410D01*
X81737452Y-106843045D01*
X81730741Y-106858339D01*
X81723685Y-106873293D01*
X81716285Y-106887906D01*
X81708541Y-106902178D01*
X81700453Y-106916110D01*
X81692020Y-106929701D01*
X81683244Y-106942952D01*
X81674123Y-106955862D01*
X81664658Y-106968431D01*
X81654849Y-106980660D01*
X81644695Y-106992548D01*
X81634198Y-107004096D01*
X81623356Y-107015303D01*
X81606246Y-107031718D01*
X81588803Y-107047074D01*
X81571029Y-107061371D01*
X81552923Y-107074608D01*
X81534484Y-107086787D01*
X81515714Y-107097907D01*
X81496611Y-107107967D01*
X81477177Y-107116969D01*
X81457410Y-107124912D01*
X81437312Y-107131795D01*
X81416881Y-107137620D01*
X81396119Y-107142386D01*
X81375024Y-107146092D01*
X81353598Y-107148740D01*
X81331839Y-107150328D01*
X81309748Y-107150858D01*
X81287702Y-107150328D01*
X81265985Y-107148740D01*
X81244597Y-107146092D01*
X81223538Y-107142386D01*
X81202809Y-107137620D01*
X81182408Y-107131795D01*
X81162337Y-107124912D01*
X81142595Y-107116969D01*
X81123182Y-107107967D01*
X81104098Y-107097907D01*
X81085343Y-107086787D01*
X81066917Y-107074608D01*
X81048821Y-107061371D01*
X81031054Y-107047074D01*
X81013616Y-107031718D01*
X80996507Y-107015303D01*
X80986161Y-107004560D01*
X80976144Y-106993396D01*
X80966455Y-106981811D01*
X80957094Y-106969805D01*
X80948062Y-106957379D01*
X80939358Y-106944532D01*
X80930983Y-106931264D01*
X80922936Y-106917575D01*
X80915218Y-106903466D01*
X80907828Y-106888936D01*
X80900767Y-106873985D01*
X80894034Y-106858614D01*
X80887629Y-106842821D01*
X80881553Y-106826608D01*
X80875805Y-106809974D01*
X80870386Y-106792920D01*
X80865295Y-106775445D01*
X80860533Y-106757549D01*
X80856099Y-106739232D01*
X80851993Y-106720494D01*
X80848216Y-106701336D01*
X80844768Y-106681757D01*
X80841647Y-106661757D01*
X80838856Y-106641337D01*
X80836392Y-106620495D01*
X80834258Y-106599233D01*
X80832451Y-106577551D01*
X80830973Y-106555447D01*
X80829824Y-106532923D01*
X80829003Y-106509978D01*
X80828538Y-106487917D01*
X81097655Y-106487917D01*
X81097749Y-106511581D01*
X81098227Y-106535945D01*
X81099089Y-106561011D01*
X81101197Y-106578982D01*
X81103491Y-106596440D01*
X81105971Y-106613386D01*
X81108637Y-106629819D01*
X81111489Y-106645740D01*
X81114528Y-106661149D01*
X81117752Y-106676045D01*
X81122937Y-106697429D01*
X81128541Y-106717661D01*
X81134564Y-106736739D01*
X81141005Y-106754665D01*
X81147864Y-106771438D01*
X81155143Y-106787058D01*
X81163164Y-106801150D01*
X81171658Y-106814209D01*
X81180623Y-106826235D01*
X81194958Y-106842336D01*
X81210355Y-106856112D01*
X81226814Y-106867563D01*
X81244337Y-106876690D01*
X81262921Y-106883492D01*
X81282569Y-106887969D01*
X81303279Y-106890121D01*
X81325051Y-106889948D01*
X81340157Y-106888541D01*
X81352543Y-106884243D01*
X81370344Y-106876278D01*
X81387211Y-106866490D01*
X81403145Y-106854880D01*
X81418145Y-106841447D01*
X81432211Y-106826192D01*
X81445343Y-106809114D01*
X81453579Y-106796717D01*
X81461400Y-106783509D01*
X81468806Y-106769491D01*
X81475797Y-106754664D01*
X81482373Y-106739026D01*
X81488534Y-106722578D01*
X81491006Y-106715964D01*
X81497853Y-106695347D01*
X81501946Y-106680954D01*
X81505662Y-106666043D01*
X81508999Y-106650615D01*
X81511958Y-106634668D01*
X81514540Y-106618203D01*
X81516744Y-106601220D01*
X81518570Y-106583719D01*
X81520018Y-106565700D01*
X81521089Y-106547163D01*
X81521782Y-106528107D01*
X81522096Y-106508534D01*
X81522033Y-106488443D01*
X81521593Y-106467833D01*
X81520774Y-106446706D01*
X81519472Y-106424781D01*
X81517671Y-106403429D01*
X81515373Y-106382649D01*
X81512577Y-106362442D01*
X81509282Y-106342807D01*
X81505490Y-106323745D01*
X81501199Y-106305255D01*
X81496411Y-106287337D01*
X81491124Y-106269992D01*
X81485340Y-106253220D01*
X81479057Y-106237019D01*
X81472277Y-106221392D01*
X81464998Y-106206336D01*
X81457221Y-106191854D01*
X81448947Y-106177943D01*
X81440174Y-106164605D01*
X81433236Y-106154224D01*
X81422400Y-106139908D01*
X81411048Y-106127099D01*
X81399181Y-106115796D01*
X81386799Y-106106001D01*
X81373902Y-106097713D01*
X81360490Y-106090932D01*
X81346562Y-106085657D01*
X81332119Y-106081890D01*
X81317161Y-106079629D01*
X81301688Y-106078876D01*
X81294535Y-106079037D01*
X81273782Y-106081458D01*
X81254091Y-106086783D01*
X81235464Y-106095012D01*
X81217899Y-106106145D01*
X81201396Y-106120184D01*
X81190985Y-106131156D01*
X81181046Y-106143419D01*
X81171579Y-106156973D01*
X81162584Y-106171818D01*
X81154062Y-106187954D01*
X81146012Y-106205380D01*
X81138434Y-106224098D01*
X81131329Y-106244106D01*
X81126437Y-106258654D01*
X81121929Y-106273902D01*
X81117805Y-106289852D01*
X81114064Y-106306503D01*
X81110707Y-106323855D01*
X81107733Y-106341908D01*
X81105142Y-106360663D01*
X81102936Y-106380119D01*
X81101112Y-106400276D01*
X81099673Y-106421135D01*
X81098617Y-106442694D01*
X81097944Y-106464955D01*
X81097655Y-106487917D01*
X80828538Y-106487917D01*
X80828510Y-106486612D01*
X80828346Y-106462826D01*
X80828518Y-106442074D01*
X80829034Y-106421631D01*
X80829894Y-106401497D01*
X80831099Y-106381670D01*
X80832648Y-106362152D01*
X80834541Y-106342943D01*
X80836778Y-106324042D01*
X80839359Y-106305449D01*
X80842285Y-106287165D01*
X80845555Y-106269189D01*
X80849169Y-106251522D01*
X80853127Y-106234163D01*
X80857429Y-106217112D01*
X80862075Y-106200370D01*
X80867066Y-106183936D01*
X80872401Y-106167811D01*
X80878080Y-106151994D01*
X80884103Y-106136485D01*
X80890470Y-106121285D01*
X80897182Y-106106393D01*
X80904238Y-106091810D01*
X80911638Y-106077535D01*
X80919382Y-106063568D01*
X80927470Y-106049910D01*
X80935903Y-106036561D01*
X80944679Y-106023519D01*
X80953800Y-106010786D01*
X80963265Y-105998362D01*
X80973074Y-105986246D01*
X80983228Y-105974438D01*
X80993725Y-105962939D01*
X81004567Y-105951748D01*
X81022808Y-105934378D01*
X81041444Y-105918265D01*
X81060475Y-105903409D01*
X81079900Y-105889809D01*
X81099721Y-105877466D01*
X81119937Y-105866379D01*
X81140548Y-105856549D01*
X81161554Y-105847975D01*
X81182955Y-105840658D01*
X81204751Y-105834597D01*
X81226941Y-105829793D01*
X81249527Y-105826245D01*
X81272508Y-105823954D01*
X81295884Y-105822919D01*
X81319654Y-105823141D01*
G37*
G36*
X80668244Y-105833046D02*
G01*
X80405928Y-105833046D01*
X80405928Y-105993513D01*
X80392481Y-105973061D01*
X80378519Y-105953929D01*
X80364042Y-105936116D01*
X80349050Y-105919622D01*
X80333542Y-105904448D01*
X80317519Y-105890593D01*
X80300981Y-105878058D01*
X80283928Y-105866843D01*
X80266360Y-105856947D01*
X80248276Y-105848370D01*
X80229678Y-105841113D01*
X80210564Y-105835175D01*
X80190935Y-105830557D01*
X80170790Y-105827258D01*
X80150131Y-105825279D01*
X80128956Y-105824619D01*
X80112041Y-105824987D01*
X80095457Y-105826090D01*
X80079205Y-105827929D01*
X80063285Y-105830504D01*
X80047698Y-105833814D01*
X80032442Y-105837860D01*
X80017519Y-105842641D01*
X80002927Y-105848158D01*
X79988667Y-105854411D01*
X79974740Y-105861399D01*
X79961144Y-105869122D01*
X79947881Y-105877582D01*
X79934949Y-105886777D01*
X79922350Y-105896707D01*
X79910082Y-105907373D01*
X79898147Y-105918775D01*
X79882752Y-105935283D01*
X79868351Y-105953024D01*
X79854943Y-105971999D01*
X79842528Y-105992208D01*
X79831106Y-106013650D01*
X79820678Y-106036326D01*
X79811243Y-106060236D01*
X79802800Y-106085379D01*
X79795352Y-106111756D01*
X79788896Y-106139366D01*
X79783433Y-106168210D01*
X79781074Y-106183095D01*
X79778964Y-106198288D01*
X79777102Y-106213789D01*
X79775488Y-106229599D01*
X79774122Y-106245717D01*
X79773005Y-106262144D01*
X79772136Y-106278879D01*
X79771515Y-106295922D01*
X79771142Y-106313274D01*
X79771018Y-106330935D01*
X79771018Y-107134371D01*
X80041762Y-107134371D01*
X80041762Y-106372334D01*
X80042006Y-106352703D01*
X80042740Y-106333837D01*
X80043964Y-106315735D01*
X80045677Y-106298397D01*
X80047880Y-106281823D01*
X80050571Y-106266014D01*
X80053753Y-106250968D01*
X80057424Y-106236687D01*
X80063848Y-106216699D01*
X80071373Y-106198430D01*
X80079999Y-106181880D01*
X80089727Y-106167050D01*
X80100555Y-106153939D01*
X80104410Y-106149951D01*
X80115973Y-106139131D01*
X80127766Y-106129755D01*
X80142828Y-106120063D01*
X80158248Y-106112624D01*
X80174026Y-106107440D01*
X80190162Y-106104510D01*
X80203328Y-106103789D01*
X80221996Y-106105500D01*
X80240262Y-106110635D01*
X80253699Y-106116733D01*
X80266911Y-106124756D01*
X80279897Y-106134705D01*
X80292658Y-106146579D01*
X80305194Y-106160379D01*
X80317504Y-106176104D01*
X80329588Y-106193755D01*
X80337519Y-106206592D01*
X80341448Y-106213332D01*
X80348311Y-106226330D01*
X80357898Y-106245458D01*
X80366635Y-106264142D01*
X80374522Y-106282381D01*
X80381559Y-106300176D01*
X80387745Y-106317526D01*
X80393082Y-106334432D01*
X80397569Y-106350894D01*
X80401205Y-106366911D01*
X80403991Y-106382484D01*
X80405928Y-106397613D01*
X80405928Y-107134371D01*
X80668244Y-107134371D01*
X80668244Y-105833046D01*
G37*
%TO.C,G\u002A\u002A\u002A*%
G36*
X100146277Y-100611757D02*
G01*
X100166871Y-100613751D01*
X100184235Y-100618191D01*
X100202697Y-100625885D01*
X100241174Y-100648863D01*
X100272629Y-100679342D01*
X100296924Y-100717806D01*
X100299422Y-100722931D01*
X100307617Y-100741597D01*
X100312282Y-100757884D01*
X100314379Y-100776249D01*
X100314864Y-100801146D01*
X100314500Y-100822191D01*
X100312533Y-100842910D01*
X100308147Y-100860272D01*
X100300548Y-100878566D01*
X100286737Y-100903865D01*
X100258010Y-100939464D01*
X100222008Y-100966838D01*
X100178447Y-100986240D01*
X100169211Y-100988618D01*
X100144230Y-100991723D01*
X100115518Y-100991942D01*
X100085067Y-100988195D01*
X100042669Y-100974275D01*
X100005314Y-100950993D01*
X99973971Y-100919007D01*
X99949606Y-100878976D01*
X99943192Y-100864056D01*
X99938162Y-100846861D01*
X99935734Y-100827329D01*
X99935103Y-100801146D01*
X99935122Y-100794577D01*
X99935895Y-100771585D01*
X99938500Y-100754097D01*
X99943896Y-100737656D01*
X99953043Y-100717806D01*
X99976576Y-100680292D01*
X100007819Y-100649607D01*
X100047270Y-100625885D01*
X100062032Y-100619532D01*
X100079267Y-100614465D01*
X100098808Y-100612018D01*
X100124983Y-100611381D01*
X100146277Y-100611757D01*
G37*
G36*
X103293475Y-101181801D02*
G01*
X103344068Y-101269085D01*
X101599683Y-101269085D01*
X99855298Y-101269085D01*
X99855298Y-101192031D01*
X99855298Y-101114978D01*
X101253719Y-101114978D01*
X101350424Y-101114969D01*
X101484040Y-101114923D01*
X101612269Y-101114841D01*
X101734758Y-101114723D01*
X101851156Y-101114570D01*
X101961114Y-101114385D01*
X102064278Y-101114168D01*
X102160298Y-101113920D01*
X102248823Y-101113643D01*
X102329501Y-101113338D01*
X102401982Y-101113006D01*
X102465914Y-101112649D01*
X102520945Y-101112267D01*
X102566725Y-101111862D01*
X102602903Y-101111435D01*
X102629126Y-101110988D01*
X102645045Y-101110522D01*
X102650307Y-101110037D01*
X102647373Y-101104664D01*
X102639205Y-101090289D01*
X102626098Y-101067431D01*
X102608345Y-101036588D01*
X102586234Y-100998261D01*
X102560057Y-100952951D01*
X102530104Y-100901158D01*
X102496666Y-100843382D01*
X102460033Y-100780122D01*
X102420495Y-100711880D01*
X102378344Y-100639156D01*
X102333870Y-100562449D01*
X102287362Y-100482260D01*
X102239113Y-100399089D01*
X102189412Y-100313436D01*
X102138549Y-100225802D01*
X102086816Y-100136686D01*
X102034503Y-100046590D01*
X101981900Y-99956012D01*
X101929298Y-99865454D01*
X101876987Y-99775415D01*
X101825258Y-99686396D01*
X101774402Y-99598897D01*
X101724709Y-99513417D01*
X101676469Y-99430458D01*
X101629973Y-99350520D01*
X101585512Y-99274102D01*
X101543375Y-99201705D01*
X101503854Y-99133829D01*
X101467240Y-99070974D01*
X101433821Y-99013641D01*
X101403890Y-98962329D01*
X101377737Y-98917539D01*
X101355652Y-98879772D01*
X101337925Y-98849526D01*
X101324848Y-98827303D01*
X101316710Y-98813603D01*
X101313802Y-98808925D01*
X101313179Y-98809805D01*
X101307977Y-98818489D01*
X101297753Y-98836066D01*
X101282780Y-98862051D01*
X101263334Y-98895962D01*
X101239690Y-98937316D01*
X101212122Y-98985629D01*
X101180905Y-99040420D01*
X101146315Y-99101204D01*
X101108627Y-99167499D01*
X101068115Y-99238822D01*
X101025054Y-99314689D01*
X100979719Y-99394618D01*
X100932386Y-99478126D01*
X100883329Y-99564729D01*
X100832822Y-99653944D01*
X100810860Y-99692742D01*
X100760942Y-99780864D01*
X100712582Y-99866148D01*
X100666055Y-99948113D01*
X100621636Y-100026278D01*
X100579602Y-100100159D01*
X100540227Y-100169276D01*
X100503787Y-100233145D01*
X100470557Y-100291286D01*
X100440813Y-100343216D01*
X100414829Y-100388454D01*
X100392882Y-100426516D01*
X100375246Y-100456922D01*
X100362197Y-100479189D01*
X100354010Y-100492835D01*
X100350961Y-100497378D01*
X100350643Y-100497226D01*
X100343478Y-100493346D01*
X100328952Y-100485265D01*
X100308990Y-100474059D01*
X100285518Y-100460804D01*
X100223708Y-100425805D01*
X100236895Y-100403014D01*
X100239084Y-100399178D01*
X100246643Y-100385858D01*
X100259205Y-100363690D01*
X100276524Y-100333106D01*
X100298357Y-100294539D01*
X100324459Y-100248419D01*
X100354587Y-100195177D01*
X100388497Y-100135247D01*
X100425943Y-100069058D01*
X100466683Y-99997043D01*
X100510471Y-99919633D01*
X100557064Y-99837259D01*
X100606218Y-99750354D01*
X100657689Y-99659348D01*
X100711232Y-99564673D01*
X100766603Y-99466762D01*
X100823559Y-99366044D01*
X100881854Y-99262952D01*
X100924467Y-99187602D01*
X100981649Y-99086522D01*
X101037261Y-98988251D01*
X101091063Y-98893214D01*
X101142814Y-98801834D01*
X101192275Y-98714533D01*
X101230622Y-98646878D01*
X101403719Y-98646878D01*
X101404553Y-98648866D01*
X101410231Y-98659568D01*
X101421072Y-98679149D01*
X101436847Y-98707209D01*
X101457325Y-98743346D01*
X101482276Y-98787162D01*
X101511469Y-98838253D01*
X101544673Y-98896221D01*
X101581659Y-98960664D01*
X101622196Y-99031182D01*
X101666054Y-99107373D01*
X101713002Y-99188838D01*
X101762810Y-99275176D01*
X101815247Y-99365985D01*
X101870084Y-99460866D01*
X101927089Y-99559417D01*
X101986032Y-99661238D01*
X102046683Y-99765928D01*
X102108812Y-99873087D01*
X102145555Y-99936448D01*
X102206874Y-100042235D01*
X102266597Y-100145327D01*
X102324492Y-100245322D01*
X102380329Y-100341820D01*
X102433876Y-100434419D01*
X102484901Y-100522717D01*
X102533174Y-100606314D01*
X102578463Y-100684807D01*
X102620536Y-100757796D01*
X102659163Y-100824879D01*
X102694111Y-100885654D01*
X102725151Y-100939720D01*
X102752050Y-100986677D01*
X102774576Y-101026122D01*
X102792500Y-101057653D01*
X102805589Y-101080871D01*
X102813612Y-101095373D01*
X102816338Y-101100757D01*
X102815774Y-101104068D01*
X102809458Y-101111333D01*
X102811879Y-101112011D01*
X102823796Y-101112737D01*
X102844145Y-101113386D01*
X102871556Y-101113926D01*
X102904662Y-101114323D01*
X102942093Y-101114544D01*
X103081607Y-101114978D01*
X103071146Y-101097091D01*
X103070537Y-101096044D01*
X103065117Y-101086712D01*
X103054477Y-101068377D01*
X103038843Y-101041429D01*
X103018440Y-101006258D01*
X102993494Y-100963253D01*
X102964231Y-100912804D01*
X102930876Y-100855299D01*
X102893657Y-100791128D01*
X102852798Y-100720681D01*
X102808525Y-100644347D01*
X102761064Y-100562515D01*
X102710642Y-100475575D01*
X102657483Y-100383915D01*
X102601814Y-100287927D01*
X102543860Y-100187998D01*
X102483848Y-100084518D01*
X102422003Y-99977877D01*
X102358551Y-99868463D01*
X102293717Y-99756668D01*
X102269802Y-99715434D01*
X102205590Y-99604782D01*
X102142880Y-99496797D01*
X102081893Y-99391862D01*
X102022852Y-99290356D01*
X101965982Y-99192662D01*
X101911504Y-99099160D01*
X101859642Y-99010232D01*
X101810618Y-98926258D01*
X101764656Y-98847619D01*
X101721979Y-98774697D01*
X101682808Y-98707872D01*
X101647369Y-98647526D01*
X101615882Y-98594039D01*
X101588572Y-98547793D01*
X101565661Y-98509169D01*
X101547372Y-98478547D01*
X101533929Y-98456309D01*
X101525553Y-98442836D01*
X101522469Y-98438509D01*
X101519537Y-98442917D01*
X101511944Y-98455535D01*
X101500813Y-98474533D01*
X101487140Y-98498166D01*
X101471918Y-98524690D01*
X101456141Y-98552361D01*
X101440803Y-98579435D01*
X101426897Y-98604167D01*
X101415419Y-98624815D01*
X101407362Y-98639633D01*
X101403719Y-98646878D01*
X101230622Y-98646878D01*
X101239205Y-98631736D01*
X101283364Y-98553866D01*
X101324511Y-98481346D01*
X101362406Y-98414600D01*
X101396809Y-98354050D01*
X101427479Y-98300121D01*
X101454177Y-98253235D01*
X101476661Y-98213816D01*
X101494692Y-98182287D01*
X101508030Y-98159072D01*
X101516433Y-98144595D01*
X101519662Y-98139277D01*
X101519854Y-98139206D01*
X101521029Y-98140059D01*
X101523196Y-98142678D01*
X101526478Y-98147270D01*
X101530996Y-98154048D01*
X101536873Y-98163219D01*
X101544231Y-98174995D01*
X101553192Y-98189584D01*
X101563879Y-98207196D01*
X101576415Y-98228042D01*
X101590920Y-98252331D01*
X101607518Y-98280272D01*
X101626331Y-98312076D01*
X101647481Y-98347951D01*
X101671090Y-98388109D01*
X101697281Y-98432759D01*
X101726177Y-98482109D01*
X101757898Y-98536371D01*
X101792568Y-98595754D01*
X101830309Y-98660467D01*
X101871242Y-98730721D01*
X101915492Y-98806725D01*
X101963179Y-98888689D01*
X102014425Y-98976822D01*
X102069354Y-99071335D01*
X102128088Y-99172437D01*
X102190748Y-99280337D01*
X102257458Y-99395247D01*
X102328339Y-99517374D01*
X102403513Y-99646930D01*
X102483104Y-99784123D01*
X102567232Y-99929164D01*
X102656022Y-100082262D01*
X102749594Y-100243628D01*
X102848071Y-100413470D01*
X102951575Y-100591998D01*
X103060229Y-100779423D01*
X103174155Y-100975954D01*
X103254741Y-101114978D01*
X103293475Y-101181801D01*
G37*
G36*
X91764877Y-102104823D02*
G01*
X91774898Y-102139315D01*
X91769540Y-102167278D01*
X91747714Y-102177371D01*
X91737680Y-102171967D01*
X91720531Y-102139315D01*
X91722461Y-102127968D01*
X91747714Y-102101258D01*
X91764877Y-102104823D01*
G37*
G36*
X90913875Y-102497433D02*
G01*
X90927026Y-102541126D01*
X90912283Y-102581495D01*
X90879133Y-102595701D01*
X90833458Y-102588981D01*
X90803519Y-102561687D01*
X90800833Y-102551335D01*
X90811800Y-102509502D01*
X90846745Y-102480084D01*
X90890300Y-102477914D01*
X90913875Y-102497433D01*
G37*
G36*
X91756884Y-102230225D02*
G01*
X91781880Y-102237617D01*
X91809119Y-102259162D01*
X91813126Y-102281343D01*
X91787583Y-102291541D01*
X91784828Y-102291632D01*
X91765517Y-102303083D01*
X91755814Y-102339946D01*
X91753151Y-102411147D01*
X91755971Y-102482336D01*
X91766099Y-102520015D01*
X91785771Y-102530753D01*
X91800983Y-102534542D01*
X91818391Y-102563373D01*
X91816812Y-102572751D01*
X91791889Y-102590606D01*
X91731404Y-102595993D01*
X91692249Y-102593292D01*
X91652299Y-102579851D01*
X91645545Y-102559849D01*
X91677038Y-102538617D01*
X91681804Y-102536273D01*
X91698333Y-102512404D01*
X91707091Y-102461194D01*
X91709658Y-102374688D01*
X91709716Y-102345342D01*
X91711505Y-102278074D01*
X91718004Y-102242458D01*
X91732151Y-102229504D01*
X91756884Y-102230225D01*
G37*
G36*
X90214663Y-102228442D02*
G01*
X90226954Y-102258873D01*
X90232274Y-102315630D01*
X90231167Y-102386236D01*
X90224178Y-102458218D01*
X90211851Y-102519101D01*
X90194731Y-102556411D01*
X90168989Y-102576941D01*
X90120349Y-102590405D01*
X90042505Y-102591510D01*
X89926439Y-102586653D01*
X89926439Y-102406477D01*
X89926552Y-102386239D01*
X89929990Y-102302649D01*
X89937519Y-102246704D01*
X89948185Y-102226301D01*
X89954491Y-102230460D01*
X89965553Y-102264877D01*
X89969932Y-102322745D01*
X89978942Y-102427454D01*
X90008881Y-102504008D01*
X90059759Y-102542528D01*
X90106199Y-102543822D01*
X90149458Y-102509907D01*
X90177450Y-102441689D01*
X90187398Y-102343498D01*
X90189232Y-102296513D01*
X90197130Y-102245941D01*
X90209144Y-102226301D01*
X90214663Y-102228442D01*
G37*
G36*
X88425925Y-102235759D02*
G01*
X88425925Y-102415876D01*
X88425812Y-102436068D01*
X88422375Y-102519649D01*
X88414846Y-102575590D01*
X88404178Y-102595993D01*
X88395229Y-102585331D01*
X88386007Y-102541887D01*
X88382432Y-102476387D01*
X88380191Y-102416429D01*
X88367064Y-102355194D01*
X88338939Y-102313287D01*
X88298730Y-102279037D01*
X88263861Y-102273917D01*
X88219651Y-102299492D01*
X88199184Y-102322171D01*
X88180240Y-102375417D01*
X88169388Y-102462591D01*
X88169070Y-102466894D01*
X88159105Y-102548968D01*
X88146674Y-102588334D01*
X88134466Y-102585437D01*
X88125169Y-102540723D01*
X88121473Y-102454640D01*
X88122947Y-102399446D01*
X88137233Y-102313522D01*
X88170936Y-102260735D01*
X88229205Y-102235199D01*
X88317194Y-102231028D01*
X88425925Y-102235759D01*
G37*
G36*
X92017246Y-102122967D02*
G01*
X92035856Y-102139315D01*
X92032176Y-102149319D01*
X92003237Y-102161061D01*
X91987162Y-102168649D01*
X91977079Y-102196934D01*
X91972009Y-102253494D01*
X91970617Y-102345907D01*
X91971956Y-102436996D01*
X91976947Y-102494135D01*
X91986928Y-102522861D01*
X92003237Y-102530753D01*
X92018449Y-102534542D01*
X92035856Y-102563373D01*
X92035792Y-102565416D01*
X92016811Y-102588666D01*
X91961027Y-102595993D01*
X91919943Y-102592551D01*
X91879805Y-102578346D01*
X91868499Y-102558563D01*
X91893125Y-102539146D01*
X91895704Y-102538033D01*
X91911298Y-102521578D01*
X91920911Y-102485309D01*
X91925776Y-102421351D01*
X91927124Y-102321834D01*
X91927134Y-102290619D01*
X91927937Y-102206472D01*
X91931594Y-102155287D01*
X91940284Y-102128870D01*
X91956190Y-102119028D01*
X91981490Y-102117568D01*
X92017246Y-102122967D01*
G37*
G36*
X87983549Y-102131066D02*
G01*
X87990993Y-102171934D01*
X87997475Y-102207357D01*
X88022330Y-102226301D01*
X88026021Y-102226379D01*
X88061140Y-102239646D01*
X88066017Y-102264468D01*
X88036675Y-102284667D01*
X88036286Y-102284770D01*
X88012135Y-102295763D01*
X87998463Y-102319532D01*
X87992379Y-102366303D01*
X87990993Y-102446303D01*
X87988175Y-102522223D01*
X87980450Y-102575910D01*
X87969247Y-102595993D01*
X87969226Y-102595993D01*
X87958075Y-102575813D01*
X87950374Y-102521855D01*
X87947500Y-102443767D01*
X87947488Y-102431650D01*
X87945948Y-102356402D01*
X87939959Y-102314168D01*
X87926864Y-102295648D01*
X87904007Y-102291541D01*
X87878644Y-102285486D01*
X87860514Y-102258921D01*
X87868587Y-102239898D01*
X87904007Y-102226301D01*
X87937307Y-102214567D01*
X87947500Y-102171934D01*
X87952899Y-102136178D01*
X87969247Y-102117568D01*
X87983549Y-102131066D01*
G37*
G36*
X91482264Y-102114575D02*
G01*
X91518706Y-102148471D01*
X91573742Y-102212951D01*
X91592187Y-102241257D01*
X91599300Y-102276950D01*
X91579178Y-102291541D01*
X91570229Y-102302203D01*
X91561007Y-102345646D01*
X91557432Y-102411147D01*
X91559370Y-102460370D01*
X91567269Y-102511091D01*
X91579178Y-102530753D01*
X91589182Y-102534433D01*
X91600925Y-102563373D01*
X91600787Y-102566344D01*
X91581106Y-102588919D01*
X91524812Y-102595993D01*
X91517880Y-102595934D01*
X91465204Y-102587499D01*
X91448699Y-102563373D01*
X91451152Y-102548367D01*
X91470446Y-102530753D01*
X91479395Y-102520091D01*
X91488617Y-102476647D01*
X91492192Y-102411147D01*
X91490254Y-102361924D01*
X91482355Y-102311203D01*
X91470446Y-102291541D01*
X91467695Y-102291379D01*
X91450312Y-102273894D01*
X91453572Y-102242509D01*
X91475882Y-102218606D01*
X91486932Y-102202412D01*
X91460741Y-102173219D01*
X91433834Y-102142449D01*
X91442256Y-102115312D01*
X91457838Y-102106378D01*
X91482264Y-102114575D01*
G37*
G36*
X89204578Y-100055623D02*
G01*
X89430876Y-100056833D01*
X90305347Y-100062517D01*
X90338795Y-100124023D01*
X90372243Y-100185530D01*
X90029847Y-100515462D01*
X89924774Y-100617690D01*
X89817495Y-100726175D01*
X89736503Y-100815445D01*
X89678251Y-100890847D01*
X89639190Y-100957729D01*
X89615771Y-101021437D01*
X89604448Y-101087318D01*
X89601672Y-101160719D01*
X89610546Y-101268705D01*
X89656576Y-101417891D01*
X89742115Y-101549114D01*
X89867453Y-101662921D01*
X89956213Y-101727218D01*
X89590763Y-101721237D01*
X89225313Y-101715256D01*
X88891582Y-100910633D01*
X88867031Y-100851373D01*
X88795654Y-100678264D01*
X88730338Y-100518662D01*
X88672869Y-100377006D01*
X88625030Y-100257732D01*
X88588604Y-100165278D01*
X88565375Y-100104081D01*
X88557128Y-100078580D01*
X88558294Y-100075624D01*
X88573460Y-100069136D01*
X88608794Y-100063996D01*
X88667627Y-100060121D01*
X88753291Y-100057430D01*
X88869117Y-100055838D01*
X89018435Y-100055263D01*
X89204578Y-100055623D01*
G37*
G36*
X91380331Y-102393896D02*
G01*
X91376181Y-102471024D01*
X91330081Y-102542615D01*
X91308962Y-102560696D01*
X91233378Y-102592948D01*
X91152834Y-102589635D01*
X91081670Y-102550313D01*
X91051546Y-102517291D01*
X91046140Y-102494698D01*
X91073788Y-102495010D01*
X91131196Y-102520228D01*
X91142694Y-102526373D01*
X91188906Y-102546897D01*
X91221830Y-102545691D01*
X91261806Y-102523221D01*
X91284812Y-102507129D01*
X91313065Y-102477306D01*
X91303440Y-102457739D01*
X91254208Y-102447026D01*
X91163636Y-102443767D01*
X91009052Y-102443767D01*
X91023654Y-102383964D01*
X91035029Y-102352048D01*
X91091029Y-102352048D01*
X91097337Y-102368435D01*
X91130710Y-102376423D01*
X91199296Y-102378527D01*
X91275131Y-102373470D01*
X91312606Y-102359305D01*
X91309897Y-102337634D01*
X91265457Y-102310061D01*
X91247636Y-102303387D01*
X91183746Y-102296938D01*
X91126463Y-102312232D01*
X91092962Y-102345719D01*
X91091029Y-102352048D01*
X91035029Y-102352048D01*
X91039822Y-102338601D01*
X91095609Y-102271350D01*
X91181508Y-102235159D01*
X91225424Y-102230707D01*
X91268059Y-102244941D01*
X91317348Y-102287324D01*
X91342778Y-102316223D01*
X91363607Y-102359305D01*
X91380331Y-102393896D01*
G37*
G36*
X90699375Y-102452213D02*
G01*
X90653016Y-102529084D01*
X90629961Y-102554281D01*
X90579481Y-102587376D01*
X90512947Y-102595993D01*
X90498377Y-102595637D01*
X90443888Y-102587479D01*
X90414302Y-102571924D01*
X90402829Y-102560248D01*
X90382830Y-102574710D01*
X90376574Y-102583736D01*
X90353035Y-102595371D01*
X90334454Y-102568089D01*
X90322259Y-102505483D01*
X90319421Y-102444382D01*
X90386501Y-102444382D01*
X90426610Y-102509006D01*
X90466255Y-102537740D01*
X90513596Y-102552500D01*
X90534664Y-102550069D01*
X90589354Y-102519672D01*
X90628215Y-102465667D01*
X90643493Y-102402277D01*
X90627433Y-102343726D01*
X90589213Y-102306345D01*
X90526320Y-102283588D01*
X90464666Y-102294031D01*
X90426861Y-102319787D01*
X90387106Y-102378367D01*
X90386501Y-102444382D01*
X90319421Y-102444382D01*
X90317877Y-102411147D01*
X90318147Y-102385913D01*
X90324488Y-102299917D01*
X90338069Y-102244841D01*
X90357324Y-102224851D01*
X90380685Y-102244113D01*
X90391784Y-102254285D01*
X90427184Y-102247233D01*
X90495564Y-102226110D01*
X90573236Y-102240572D01*
X90645748Y-102289868D01*
X90663637Y-102309196D01*
X90702952Y-102380126D01*
X90701853Y-102402277D01*
X90699375Y-102452213D01*
G37*
G36*
X88861061Y-102395546D02*
G01*
X88851884Y-102472381D01*
X88807479Y-102542615D01*
X88775452Y-102568513D01*
X88696821Y-102596338D01*
X88614457Y-102586031D01*
X88539724Y-102537796D01*
X88527996Y-102525470D01*
X88502876Y-102487526D01*
X88510166Y-102471168D01*
X88544355Y-102478712D01*
X88599938Y-102512474D01*
X88604692Y-102515977D01*
X88650100Y-102544966D01*
X88683467Y-102548789D01*
X88724319Y-102530236D01*
X88754602Y-102511872D01*
X88788967Y-102480875D01*
X88782676Y-102459726D01*
X88734999Y-102447623D01*
X88645203Y-102443767D01*
X88607764Y-102443674D01*
X88542647Y-102441632D01*
X88507777Y-102434492D01*
X88493751Y-102419116D01*
X88491165Y-102392366D01*
X88498733Y-102359443D01*
X88556404Y-102359443D01*
X88567061Y-102367295D01*
X88610505Y-102375389D01*
X88676011Y-102378527D01*
X88725222Y-102376827D01*
X88775951Y-102369895D01*
X88795617Y-102359443D01*
X88777487Y-102325788D01*
X88732127Y-102297710D01*
X88676011Y-102286104D01*
X88621124Y-102297220D01*
X88575332Y-102325034D01*
X88556404Y-102359443D01*
X88498733Y-102359443D01*
X88501742Y-102346356D01*
X88544529Y-102287248D01*
X88608251Y-102243435D01*
X88679965Y-102226301D01*
X88719579Y-102230497D01*
X88790674Y-102264098D01*
X88839246Y-102322616D01*
X88850262Y-102359443D01*
X88861061Y-102395546D01*
G37*
G36*
X87415642Y-102452213D02*
G01*
X87369283Y-102529084D01*
X87362739Y-102536477D01*
X87294395Y-102583951D01*
X87216644Y-102597761D01*
X87143451Y-102575061D01*
X87124953Y-102566875D01*
X87096953Y-102578180D01*
X87089233Y-102586217D01*
X87058322Y-102586622D01*
X87054005Y-102581536D01*
X87043257Y-102538802D01*
X87036494Y-102458402D01*
X87036229Y-102445592D01*
X87104618Y-102445592D01*
X87142877Y-102509006D01*
X87182522Y-102537740D01*
X87229863Y-102552500D01*
X87269509Y-102541588D01*
X87316850Y-102509006D01*
X87330023Y-102494282D01*
X87358808Y-102432826D01*
X87355351Y-102372752D01*
X87326554Y-102322471D01*
X87279322Y-102290392D01*
X87220558Y-102284927D01*
X87157167Y-102314485D01*
X87151387Y-102319212D01*
X87107669Y-102379419D01*
X87104618Y-102445592D01*
X87036229Y-102445592D01*
X87034144Y-102344624D01*
X87034389Y-102286200D01*
X87036655Y-102201869D01*
X87042133Y-102150344D01*
X87051832Y-102124589D01*
X87066764Y-102117568D01*
X87070269Y-102117761D01*
X87092455Y-102137849D01*
X87099384Y-102194446D01*
X87101754Y-102243243D01*
X87113521Y-102259114D01*
X87141447Y-102248813D01*
X87203685Y-102228101D01*
X87285435Y-102238074D01*
X87362016Y-102289868D01*
X87379904Y-102309196D01*
X87419219Y-102380126D01*
X87416604Y-102432826D01*
X87415642Y-102452213D01*
G37*
G36*
X87838767Y-102400030D02*
G01*
X87835337Y-102431496D01*
X87805054Y-102507678D01*
X87753666Y-102568118D01*
X87735777Y-102579473D01*
X87663826Y-102596160D01*
X87585720Y-102581575D01*
X87517635Y-102537796D01*
X87509547Y-102529428D01*
X87481751Y-102489669D01*
X87486979Y-102471311D01*
X87519665Y-102477107D01*
X87574243Y-102509809D01*
X87577784Y-102512378D01*
X87646642Y-102542741D01*
X87707107Y-102533581D01*
X87752569Y-102485787D01*
X87757092Y-102476901D01*
X87760852Y-102458580D01*
X87744880Y-102448651D01*
X87701258Y-102444563D01*
X87622067Y-102443767D01*
X87578480Y-102443656D01*
X87516428Y-102441471D01*
X87483816Y-102433817D01*
X87471184Y-102417271D01*
X87469076Y-102388412D01*
X87474345Y-102357282D01*
X87534315Y-102357282D01*
X87544755Y-102365961D01*
X87587951Y-102375015D01*
X87653239Y-102378527D01*
X87682801Y-102378305D01*
X87737282Y-102374579D01*
X87759877Y-102364134D01*
X87759006Y-102344241D01*
X87751537Y-102329698D01*
X87706762Y-102293868D01*
X87645711Y-102283349D01*
X87585747Y-102302337D01*
X87550696Y-102331036D01*
X87534315Y-102357282D01*
X87474345Y-102357282D01*
X87475174Y-102352382D01*
X87512768Y-102290500D01*
X87573352Y-102244392D01*
X87643733Y-102226301D01*
X87646347Y-102226336D01*
X87710294Y-102244417D01*
X87772674Y-102287404D01*
X87819996Y-102343281D01*
X87826894Y-102364134D01*
X87838767Y-102400030D01*
G37*
G36*
X87802102Y-100051507D02*
G01*
X87901152Y-100055089D01*
X87984958Y-100060872D01*
X88044625Y-100068802D01*
X88071260Y-100078827D01*
X88072810Y-100081424D01*
X88090677Y-100118454D01*
X88121547Y-100188268D01*
X88163292Y-100285660D01*
X88213783Y-100405421D01*
X88270893Y-100542344D01*
X88332493Y-100691221D01*
X88396454Y-100846845D01*
X88460650Y-101004009D01*
X88522951Y-101157504D01*
X88581230Y-101302123D01*
X88633358Y-101432659D01*
X88677207Y-101543905D01*
X88710649Y-101630651D01*
X88731556Y-101687692D01*
X88737800Y-101709820D01*
X88734052Y-101712360D01*
X88697561Y-101719385D01*
X88631954Y-101724288D01*
X88548122Y-101726130D01*
X88508102Y-101725702D01*
X88363246Y-101713660D01*
X88245342Y-101681994D01*
X88143064Y-101626588D01*
X88045085Y-101543324D01*
X88031132Y-101529367D01*
X88001611Y-101497807D01*
X87974618Y-101463999D01*
X87947786Y-101423191D01*
X87918747Y-101370626D01*
X87885134Y-101301553D01*
X87844582Y-101211215D01*
X87794723Y-101094861D01*
X87733189Y-100947734D01*
X87657615Y-100765083D01*
X87612682Y-100655923D01*
X87550335Y-100503370D01*
X87494958Y-100366580D01*
X87448499Y-100250432D01*
X87412902Y-100159805D01*
X87390117Y-100099578D01*
X87382089Y-100074629D01*
X87389478Y-100068524D01*
X87431338Y-100060283D01*
X87502425Y-100054516D01*
X87593844Y-100051167D01*
X87696701Y-100050182D01*
X87802102Y-100051507D01*
G37*
G36*
X89136878Y-102250062D02*
G01*
X89158037Y-102262114D01*
X89203133Y-102251081D01*
X89212101Y-102247105D01*
X89267728Y-102235000D01*
X89335947Y-102231941D01*
X89426267Y-102235543D01*
X89426267Y-102415768D01*
X89426154Y-102436042D01*
X89422715Y-102519641D01*
X89415186Y-102575589D01*
X89404521Y-102595993D01*
X89394809Y-102582552D01*
X89386111Y-102535932D01*
X89382774Y-102467067D01*
X89382228Y-102434647D01*
X89372126Y-102351197D01*
X89348601Y-102303967D01*
X89319873Y-102278070D01*
X89292839Y-102273028D01*
X89250865Y-102292306D01*
X89237318Y-102301284D01*
X89219567Y-102327810D01*
X89211016Y-102375482D01*
X89208802Y-102455405D01*
X89208578Y-102486362D01*
X89204692Y-102552682D01*
X89194522Y-102586518D01*
X89176182Y-102595993D01*
X89168999Y-102595027D01*
X89153611Y-102578281D01*
X89145760Y-102534447D01*
X89143562Y-102455405D01*
X89143045Y-102409850D01*
X89137951Y-102347793D01*
X89125057Y-102312313D01*
X89101498Y-102292306D01*
X89063954Y-102274316D01*
X89036206Y-102275810D01*
X89003763Y-102303967D01*
X88994289Y-102316079D01*
X88975599Y-102373918D01*
X88969589Y-102468879D01*
X88969578Y-102473366D01*
X88963800Y-102552847D01*
X88950455Y-102591043D01*
X88933924Y-102588414D01*
X88918587Y-102545418D01*
X88908825Y-102462513D01*
X88908279Y-102390183D01*
X88919960Y-102332554D01*
X88948460Y-102284822D01*
X88964189Y-102267797D01*
X89022812Y-102233235D01*
X89085697Y-102226342D01*
X89136878Y-102250062D01*
G37*
G36*
X89852090Y-102487785D02*
G01*
X89809551Y-102545205D01*
X89749344Y-102583968D01*
X89677190Y-102596064D01*
X89598810Y-102573481D01*
X89598454Y-102573291D01*
X89564413Y-102563250D01*
X89559846Y-102582397D01*
X89585626Y-102627174D01*
X89596322Y-102638965D01*
X89650072Y-102663238D01*
X89715074Y-102660010D01*
X89773675Y-102629099D01*
X89813546Y-102601327D01*
X89842829Y-102599038D01*
X89844945Y-102623785D01*
X89812640Y-102668275D01*
X89777301Y-102697120D01*
X89700685Y-102727010D01*
X89624430Y-102722007D01*
X89559171Y-102684018D01*
X89515541Y-102614953D01*
X89506335Y-102583121D01*
X89494533Y-102510990D01*
X89491107Y-102446766D01*
X89564146Y-102446766D01*
X89598923Y-102507689D01*
X89639878Y-102540487D01*
X89685714Y-102548015D01*
X89747502Y-102525747D01*
X89786813Y-102492277D01*
X89813938Y-102431649D01*
X89810347Y-102368969D01*
X89785890Y-102336597D01*
X89741517Y-102300364D01*
X89741513Y-102300362D01*
X89699952Y-102277001D01*
X89668872Y-102278705D01*
X89626179Y-102306685D01*
X89610864Y-102319282D01*
X89568590Y-102380542D01*
X89564146Y-102446766D01*
X89491107Y-102446766D01*
X89490378Y-102433098D01*
X89493013Y-102357642D01*
X89501582Y-102292818D01*
X89515227Y-102246824D01*
X89533090Y-102227857D01*
X89554316Y-102244113D01*
X89565414Y-102254285D01*
X89600814Y-102247233D01*
X89660268Y-102227970D01*
X89737715Y-102237337D01*
X89809969Y-102277849D01*
X89816481Y-102283689D01*
X89861277Y-102349016D01*
X89871240Y-102419718D01*
X89867883Y-102431649D01*
X89852090Y-102487785D01*
G37*
G36*
X88915407Y-99226277D02*
G01*
X89237194Y-99226627D01*
X89518708Y-99227232D01*
X89762564Y-99228133D01*
X89971378Y-99229374D01*
X90147763Y-99230998D01*
X90294336Y-99233047D01*
X90413710Y-99235564D01*
X90508501Y-99238593D01*
X90581325Y-99242175D01*
X90634795Y-99246354D01*
X90671527Y-99251173D01*
X90694137Y-99256674D01*
X90716331Y-99265158D01*
X90829626Y-99324638D01*
X90931583Y-99402656D01*
X91006270Y-99487433D01*
X91021832Y-99517506D01*
X91052291Y-99583282D01*
X91095015Y-99678912D01*
X91147760Y-99799111D01*
X91208281Y-99938593D01*
X91274332Y-100092075D01*
X91343668Y-100254271D01*
X91414044Y-100419898D01*
X91483214Y-100583669D01*
X91548934Y-100740300D01*
X91608958Y-100884507D01*
X91661041Y-101011005D01*
X91702938Y-101114509D01*
X91732403Y-101189734D01*
X91747191Y-101231395D01*
X91747217Y-101231485D01*
X91747839Y-101241219D01*
X91740886Y-101249136D01*
X91722367Y-101255422D01*
X91688292Y-101260264D01*
X91634670Y-101263849D01*
X91557509Y-101266364D01*
X91452820Y-101267995D01*
X91316610Y-101268929D01*
X91144890Y-101269352D01*
X90933667Y-101269452D01*
X90845014Y-101269401D01*
X90632166Y-101268720D01*
X90458828Y-101267174D01*
X90322093Y-101264675D01*
X90219052Y-101261132D01*
X90146798Y-101256458D01*
X90102421Y-101250562D01*
X90083014Y-101243356D01*
X90073215Y-101232628D01*
X90058319Y-101205245D01*
X90058863Y-101173263D01*
X90077692Y-101132635D01*
X90117653Y-101079313D01*
X90181591Y-101009249D01*
X90272352Y-100918394D01*
X90392782Y-100802701D01*
X90510319Y-100689833D01*
X90601720Y-100598937D01*
X90668935Y-100527431D01*
X90716197Y-100470562D01*
X90747739Y-100423580D01*
X90767795Y-100381732D01*
X90793222Y-100284899D01*
X90803910Y-100162193D01*
X90796097Y-100041449D01*
X90769700Y-99941329D01*
X90766185Y-99933356D01*
X90699764Y-99825723D01*
X90607477Y-99726836D01*
X90504782Y-99653487D01*
X90489348Y-99645415D01*
X90471636Y-99637516D01*
X90450487Y-99630721D01*
X90422820Y-99624933D01*
X90385552Y-99620054D01*
X90335604Y-99615986D01*
X90269894Y-99612634D01*
X90185340Y-99609898D01*
X90078862Y-99607683D01*
X89947378Y-99605889D01*
X89787807Y-99604422D01*
X89597068Y-99603182D01*
X89372080Y-99602072D01*
X89109761Y-99600996D01*
X88807031Y-99599856D01*
X88510806Y-99598522D01*
X88211303Y-99596603D01*
X87947499Y-99594257D01*
X87720506Y-99591501D01*
X87531440Y-99588355D01*
X87381412Y-99584837D01*
X87271536Y-99580966D01*
X87202926Y-99576762D01*
X87176695Y-99572242D01*
X87171833Y-99566293D01*
X87149327Y-99525846D01*
X87121272Y-99463579D01*
X87092418Y-99391755D01*
X87067518Y-99322639D01*
X87051322Y-99268494D01*
X87048583Y-99241583D01*
X87054617Y-99240328D01*
X87097707Y-99237891D01*
X87179438Y-99235607D01*
X87296565Y-99233505D01*
X87445844Y-99231613D01*
X87624028Y-99229959D01*
X87827873Y-99228570D01*
X88054133Y-99227475D01*
X88299564Y-99226701D01*
X88560920Y-99226276D01*
X88834957Y-99226228D01*
X88915407Y-99226277D01*
G37*
G36*
X120751023Y-98808088D02*
G01*
X120873251Y-98815425D01*
X121105938Y-98843624D01*
X121331700Y-98893232D01*
X121568278Y-98968607D01*
X121833409Y-99074110D01*
X121951932Y-99126090D01*
X122048450Y-99172187D01*
X122093255Y-99199411D01*
X122085844Y-99207198D01*
X122025715Y-99194988D01*
X121912363Y-99162220D01*
X121768286Y-99120566D01*
X121509799Y-99063958D01*
X121260336Y-99037034D01*
X120995401Y-99036432D01*
X120922854Y-99040424D01*
X120704195Y-99069755D01*
X120526288Y-99126254D01*
X120379377Y-99213869D01*
X120253707Y-99336548D01*
X120147094Y-99464091D01*
X119749115Y-99464091D01*
X119600617Y-99463202D01*
X119480269Y-99459621D01*
X119403551Y-99452606D01*
X119362995Y-99441432D01*
X119351136Y-99425371D01*
X119361933Y-99397146D01*
X119410302Y-99334983D01*
X119487682Y-99256071D01*
X119583242Y-99170010D01*
X119686150Y-99086400D01*
X119785574Y-99014840D01*
X119870682Y-98964929D01*
X119938388Y-98933583D01*
X120120633Y-98865317D01*
X120305066Y-98823740D01*
X120509318Y-98805711D01*
X120751023Y-98808088D01*
G37*
G36*
X122316201Y-99556349D02*
G01*
X122344092Y-99576365D01*
X122366069Y-99619093D01*
X122386581Y-99692979D01*
X122410077Y-99806466D01*
X122441008Y-99968000D01*
X122462765Y-100076311D01*
X122489273Y-100195853D01*
X122512227Y-100286407D01*
X122528307Y-100334057D01*
X122528308Y-100334057D01*
X122587360Y-100392872D01*
X122667563Y-100403634D01*
X122755533Y-100364546D01*
X122834018Y-100306519D01*
X122925418Y-100364390D01*
X122940301Y-100374092D01*
X122994781Y-100415668D01*
X123016818Y-100443258D01*
X123016716Y-100445422D01*
X122990445Y-100489545D01*
X122930248Y-100541911D01*
X122854251Y-100589126D01*
X122780579Y-100617799D01*
X122656772Y-100629196D01*
X122509232Y-100601312D01*
X122381836Y-100532241D01*
X122289214Y-100427645D01*
X122272826Y-100388407D01*
X122244962Y-100298565D01*
X122212333Y-100177153D01*
X122178237Y-100038271D01*
X122145975Y-99896017D01*
X122118845Y-99764489D01*
X122100148Y-99657787D01*
X122093182Y-99590008D01*
X122095231Y-99580048D01*
X122132675Y-99557763D01*
X122221123Y-99550682D01*
X122224879Y-99550677D01*
X122277946Y-99550601D01*
X122316201Y-99556349D01*
G37*
G36*
X120529981Y-99551118D02*
G01*
X120595312Y-99554532D01*
X120621136Y-99560227D01*
X120625265Y-99583379D01*
X120639172Y-99655006D01*
X120661124Y-99765921D01*
X120689289Y-99906877D01*
X120721835Y-100068621D01*
X120749346Y-100209062D01*
X120776142Y-100356107D01*
X120795675Y-100475534D01*
X120806387Y-100557723D01*
X120806722Y-100593054D01*
X120773377Y-100602980D01*
X120694154Y-100611118D01*
X120580920Y-100616617D01*
X120445537Y-100618636D01*
X120100162Y-100618636D01*
X120070835Y-100541500D01*
X120054484Y-100491168D01*
X120053290Y-100437880D01*
X120086812Y-100406447D01*
X120162624Y-100391515D01*
X120288299Y-100387727D01*
X120309315Y-100387694D01*
X120408986Y-100386504D01*
X120479052Y-100383954D01*
X120505453Y-100380511D01*
X120505430Y-100380265D01*
X120499232Y-100348147D01*
X120483628Y-100271248D01*
X120460891Y-100160685D01*
X120433294Y-100027574D01*
X120425788Y-99991500D01*
X120392128Y-99826852D01*
X120371196Y-99709344D01*
X120363956Y-99631027D01*
X120371375Y-99583952D01*
X120394420Y-99560169D01*
X120434056Y-99551729D01*
X120491250Y-99550682D01*
X120529981Y-99551118D01*
G37*
G36*
X119455984Y-99565057D02*
G01*
X119601550Y-99634323D01*
X119730884Y-99734789D01*
X119833695Y-99861951D01*
X119899691Y-100011307D01*
X119903121Y-100024048D01*
X119926623Y-100199377D01*
X119903101Y-100352518D01*
X119835720Y-100477420D01*
X119727646Y-100568036D01*
X119582045Y-100618314D01*
X119568672Y-100620376D01*
X119425743Y-100621404D01*
X119274789Y-100593003D01*
X119147209Y-100540774D01*
X119143606Y-100538633D01*
X119080439Y-100490231D01*
X119068202Y-100442581D01*
X119102680Y-100380511D01*
X119110355Y-100370747D01*
X119151658Y-100336695D01*
X119203022Y-100337737D01*
X119282894Y-100373118D01*
X119379971Y-100409477D01*
X119479996Y-100404444D01*
X119568926Y-100345744D01*
X119587292Y-100325073D01*
X119633770Y-100221594D01*
X119632010Y-100095426D01*
X119581762Y-99954218D01*
X119560141Y-99916848D01*
X119471268Y-99820925D01*
X119362875Y-99765729D01*
X119247809Y-99755853D01*
X119138915Y-99795888D01*
X119128022Y-99802895D01*
X119085503Y-99821396D01*
X119047804Y-99807770D01*
X118993677Y-99756210D01*
X118914312Y-99673370D01*
X118990437Y-99613490D01*
X119024802Y-99589481D01*
X119157319Y-99538134D01*
X119304476Y-99531493D01*
X119455984Y-99565057D01*
G37*
G36*
X120425739Y-100916138D02*
G01*
X120556869Y-101038956D01*
X120699040Y-101146118D01*
X120852045Y-101231715D01*
X120981062Y-101291361D01*
X121139528Y-101353283D01*
X121292647Y-101395971D01*
X121456098Y-101422619D01*
X121645557Y-101436423D01*
X121876705Y-101440580D01*
X121976438Y-101440647D01*
X122117391Y-101439537D01*
X122220095Y-101435326D01*
X122297063Y-101426224D01*
X122360803Y-101410443D01*
X122423825Y-101386197D01*
X122498640Y-101351697D01*
X122688158Y-101245641D01*
X122854981Y-101107763D01*
X122978133Y-100945306D01*
X123007223Y-100898504D01*
X123045841Y-100846548D01*
X123066898Y-100832276D01*
X123067475Y-100833113D01*
X123065220Y-100869557D01*
X123048495Y-100944489D01*
X123020614Y-101042842D01*
X122993767Y-101120012D01*
X122881421Y-101331954D01*
X122722452Y-101510512D01*
X122516610Y-101655879D01*
X122263641Y-101768245D01*
X121963295Y-101847802D01*
X121804895Y-101870046D01*
X121511185Y-101874473D01*
X121199136Y-101838877D01*
X120880298Y-101766159D01*
X120566218Y-101659219D01*
X120268446Y-101520959D01*
X119998531Y-101354280D01*
X119910729Y-101286256D01*
X119777179Y-101166829D01*
X119647461Y-101034992D01*
X119536130Y-100905815D01*
X119457743Y-100794372D01*
X119405600Y-100705227D01*
X119810755Y-100705227D01*
X120215911Y-100705227D01*
X120425739Y-100916138D01*
G37*
G36*
X116337521Y-99435372D02*
G01*
X116446323Y-99438147D01*
X116512610Y-99446067D01*
X116547743Y-99461231D01*
X116563087Y-99485739D01*
X116576486Y-99530839D01*
X116608113Y-99645167D01*
X116646387Y-99790745D01*
X116689210Y-99958855D01*
X116734485Y-100140782D01*
X116780116Y-100327806D01*
X116824005Y-100511212D01*
X116864056Y-100682282D01*
X116898170Y-100832298D01*
X116924252Y-100952544D01*
X116940204Y-101034303D01*
X116943929Y-101068857D01*
X116937593Y-101077167D01*
X116910965Y-101088589D01*
X116858769Y-101097075D01*
X116774575Y-101103007D01*
X116651953Y-101106769D01*
X116484472Y-101108745D01*
X116265703Y-101109318D01*
X115603004Y-101109318D01*
X115568031Y-100953045D01*
X115552108Y-100879591D01*
X115542278Y-100805825D01*
X115552650Y-100756497D01*
X115590730Y-100726691D01*
X115664023Y-100711489D01*
X115780034Y-100705973D01*
X115946266Y-100705227D01*
X116064469Y-100704941D01*
X116181483Y-100703024D01*
X116255801Y-100698249D01*
X116296086Y-100689410D01*
X116311001Y-100675300D01*
X116309208Y-100654716D01*
X116294703Y-100603557D01*
X116266613Y-100497176D01*
X116232319Y-100361785D01*
X116194359Y-100208007D01*
X116155273Y-100046465D01*
X116117600Y-99887783D01*
X116083879Y-99742583D01*
X116056649Y-99621491D01*
X116038449Y-99535128D01*
X116031818Y-99494119D01*
X116034302Y-99470457D01*
X116050236Y-99451258D01*
X116090738Y-99440669D01*
X116166858Y-99436167D01*
X116289646Y-99435227D01*
X116337521Y-99435372D01*
G37*
G36*
X117374476Y-99441544D02*
G01*
X117745517Y-99449659D01*
X117782884Y-99593977D01*
X117801792Y-99669098D01*
X117816422Y-99748128D01*
X117809931Y-99790393D01*
X117779007Y-99807349D01*
X117720341Y-99810455D01*
X117699964Y-99810547D01*
X117657485Y-99814453D01*
X117632373Y-99830599D01*
X117624009Y-99867727D01*
X117631769Y-99934575D01*
X117655032Y-100039882D01*
X117693177Y-100192387D01*
X117736291Y-100353639D01*
X117778454Y-100485404D01*
X117819284Y-100578760D01*
X117863098Y-100643406D01*
X117914212Y-100689043D01*
X117916144Y-100690364D01*
X117996244Y-100720005D01*
X118107505Y-100732730D01*
X118226449Y-100727691D01*
X118329597Y-100704041D01*
X118389695Y-100690332D01*
X118439044Y-100709321D01*
X118476820Y-100771451D01*
X118510310Y-100883975D01*
X118518712Y-100919194D01*
X118536953Y-101007832D01*
X118537631Y-101059320D01*
X118518674Y-101088051D01*
X118478011Y-101108419D01*
X118404915Y-101124391D01*
X118289994Y-101133446D01*
X118151864Y-101135241D01*
X118007765Y-101129999D01*
X117874938Y-101117944D01*
X117770625Y-101099296D01*
X117590366Y-101030038D01*
X117435313Y-100917708D01*
X117323002Y-100768972D01*
X117299215Y-100714403D01*
X117263930Y-100613635D01*
X117222719Y-100481686D01*
X117178089Y-100328162D01*
X117132547Y-100162669D01*
X117088598Y-99994816D01*
X117048750Y-99834208D01*
X117015510Y-99690452D01*
X116991384Y-99573154D01*
X116978879Y-99491922D01*
X116980501Y-99456362D01*
X116982316Y-99455116D01*
X117025427Y-99447411D01*
X117112939Y-99442287D01*
X117233179Y-99440186D01*
X117374476Y-99441544D01*
G37*
G36*
X114276685Y-99426082D02*
G01*
X114452254Y-99449334D01*
X114593039Y-99488063D01*
X114816293Y-99604244D01*
X115000037Y-99760528D01*
X115140310Y-99954255D01*
X115235521Y-100183705D01*
X115268695Y-100334283D01*
X115276334Y-100539300D01*
X115238255Y-100723275D01*
X115156853Y-100880212D01*
X115034525Y-101004118D01*
X114873665Y-101089000D01*
X114756477Y-101117717D01*
X114581217Y-101134476D01*
X114387864Y-101131949D01*
X114196148Y-101110561D01*
X114025795Y-101070737D01*
X113823750Y-101006201D01*
X113768792Y-100796661D01*
X113755587Y-100744696D01*
X113735249Y-100646080D01*
X113733000Y-100585994D01*
X113747865Y-100553090D01*
X113786062Y-100534083D01*
X113841020Y-100555983D01*
X113879768Y-100579535D01*
X114096180Y-100684973D01*
X114296612Y-100735813D01*
X114482358Y-100732412D01*
X114484742Y-100732003D01*
X114583363Y-100703873D01*
X114646207Y-100653190D01*
X114681636Y-100568563D01*
X114698010Y-100438599D01*
X114691436Y-100286302D01*
X114640783Y-100117248D01*
X114547201Y-99977344D01*
X114415049Y-99875262D01*
X114298334Y-99829514D01*
X114125833Y-99810348D01*
X113952945Y-99840877D01*
X113794497Y-99920032D01*
X113739757Y-99956257D01*
X113667191Y-99996749D01*
X113621667Y-100012500D01*
X113620466Y-100012438D01*
X113590664Y-99984293D01*
X113556584Y-99915447D01*
X113523665Y-99821336D01*
X113497343Y-99717393D01*
X113483057Y-99619055D01*
X113482437Y-99592890D01*
X113495129Y-99552053D01*
X113537289Y-99519179D01*
X113621705Y-99481587D01*
X113728808Y-99450443D01*
X113896208Y-99426512D01*
X114085085Y-99418433D01*
X114276685Y-99426082D01*
G37*
G36*
X113308934Y-100192707D02*
G01*
X113370506Y-100436793D01*
X113419672Y-100635577D01*
X113457261Y-100792513D01*
X113484100Y-100911055D01*
X113501017Y-100994655D01*
X113508838Y-101046767D01*
X113508393Y-101070845D01*
X113494057Y-101087419D01*
X113450447Y-101100443D01*
X113369285Y-101105313D01*
X113240626Y-101103233D01*
X112988489Y-101094886D01*
X112953230Y-100965000D01*
X112946882Y-100941534D01*
X112915259Y-100823033D01*
X112886282Y-100712443D01*
X112854593Y-100589773D01*
X112646444Y-100589430D01*
X112475114Y-100579951D01*
X112250511Y-100536475D01*
X112054516Y-100460995D01*
X111893712Y-100357080D01*
X111774682Y-100228302D01*
X111704008Y-100078232D01*
X111688708Y-100014151D01*
X111686079Y-99970068D01*
X112259845Y-99970068D01*
X112289883Y-100053598D01*
X112336183Y-100109546D01*
X112395826Y-100157260D01*
X112420306Y-100167545D01*
X112500961Y-100189296D01*
X112597872Y-100205592D01*
X112605482Y-100206486D01*
X112682198Y-100212230D01*
X112726018Y-100201022D01*
X112741232Y-100163212D01*
X112732132Y-100089156D01*
X112703008Y-99969205D01*
X112692938Y-99931774D01*
X112667105Y-99861895D01*
X112634588Y-99828157D01*
X112583552Y-99815313D01*
X112576751Y-99814557D01*
X112445583Y-99815594D01*
X112344504Y-99845541D01*
X112280321Y-99898874D01*
X112259845Y-99970068D01*
X111686079Y-99970068D01*
X111679501Y-99859768D01*
X111719511Y-99725521D01*
X111811182Y-99600515D01*
X111814115Y-99597469D01*
X111882030Y-99541305D01*
X111967504Y-99498899D01*
X112078510Y-99468670D01*
X112223023Y-99449036D01*
X112409017Y-99438416D01*
X112644467Y-99435227D01*
X113114366Y-99435227D01*
X113142330Y-99543466D01*
X113145262Y-99554815D01*
X113234128Y-99899865D01*
X113301400Y-100163212D01*
X113308934Y-100192707D01*
G37*
G36*
X110668734Y-99424272D02*
G01*
X110757479Y-99431860D01*
X110829624Y-99447341D01*
X110900760Y-99473325D01*
X110986475Y-99512420D01*
X111135440Y-99595821D01*
X111324095Y-99750824D01*
X111468267Y-99937417D01*
X111564325Y-100150510D01*
X111608640Y-100385011D01*
X111611075Y-100476195D01*
X111604025Y-100603302D01*
X111587033Y-100705227D01*
X111560834Y-100775035D01*
X111473701Y-100904623D01*
X111350746Y-101014310D01*
X111206397Y-101089529D01*
X111084493Y-101118804D01*
X110910449Y-101134595D01*
X110719012Y-101131695D01*
X110529939Y-101110524D01*
X110362987Y-101071506D01*
X110163814Y-101007739D01*
X110111444Y-100820404D01*
X110085555Y-100723973D01*
X110065936Y-100643216D01*
X110058060Y-100600077D01*
X110066268Y-100569188D01*
X110112175Y-100555038D01*
X110199677Y-100577137D01*
X110330281Y-100635680D01*
X110391339Y-100665409D01*
X110498237Y-100708118D01*
X110596068Y-100728736D01*
X110711264Y-100734091D01*
X110777018Y-100733189D01*
X110861669Y-100724839D01*
X110918756Y-100703300D01*
X110967562Y-100663244D01*
X110988599Y-100638097D01*
X111031854Y-100533991D01*
X111042015Y-100401064D01*
X111019183Y-100253214D01*
X110963460Y-100104340D01*
X110886989Y-99982698D01*
X110771044Y-99879696D01*
X110626073Y-99824918D01*
X110447210Y-99815644D01*
X110427792Y-99816972D01*
X110312833Y-99832082D01*
X110223845Y-99863351D01*
X110133161Y-99919968D01*
X110069141Y-99964063D01*
X109992469Y-100003201D01*
X109940893Y-99998826D01*
X109903362Y-99947906D01*
X109868829Y-99847406D01*
X109853586Y-99794348D01*
X109824485Y-99679147D01*
X109817295Y-99602358D01*
X109834900Y-99551882D01*
X109880182Y-99515624D01*
X109956023Y-99481485D01*
X109983552Y-99470941D01*
X110064219Y-99447417D01*
X110158525Y-99432612D01*
X110281132Y-99424751D01*
X110446705Y-99422059D01*
X110547803Y-99421968D01*
X110668734Y-99424272D01*
G37*
G36*
X109653216Y-100246276D02*
G01*
X109661348Y-100278143D01*
X109712416Y-100482041D01*
X109757273Y-100667539D01*
X109772682Y-100734091D01*
X109794228Y-100827150D01*
X109821588Y-100953389D01*
X109837660Y-101038768D01*
X109840751Y-101075803D01*
X109840511Y-101076394D01*
X109823940Y-101089603D01*
X109782934Y-101098952D01*
X109710843Y-101104752D01*
X109601018Y-101107317D01*
X109446810Y-101106960D01*
X109241570Y-101103994D01*
X109226676Y-101103726D01*
X109028838Y-101099668D01*
X108878544Y-101094945D01*
X108766241Y-101088542D01*
X108682376Y-101079442D01*
X108617394Y-101066632D01*
X108561742Y-101049096D01*
X108505866Y-101025819D01*
X108394152Y-100963968D01*
X108272456Y-100860376D01*
X108185420Y-100741059D01*
X108136146Y-100614872D01*
X108131603Y-100547779D01*
X108714886Y-100547779D01*
X108718171Y-100587419D01*
X108746363Y-100639069D01*
X108815909Y-100683535D01*
X108840271Y-100694181D01*
X108949326Y-100722919D01*
X109070759Y-100734046D01*
X109224587Y-100734091D01*
X109204184Y-100640284D01*
X109188283Y-100570334D01*
X109161934Y-100485631D01*
X109128431Y-100439882D01*
X109077039Y-100421642D01*
X108997021Y-100419468D01*
X108963330Y-100420373D01*
X108840989Y-100430005D01*
X108764867Y-100451691D01*
X108725865Y-100489570D01*
X108714886Y-100547779D01*
X108131603Y-100547779D01*
X108127736Y-100490673D01*
X108163293Y-100377317D01*
X108245917Y-100283660D01*
X108314364Y-100232029D01*
X108189910Y-100112781D01*
X108148492Y-100071891D01*
X108095212Y-100007346D01*
X108071107Y-99947132D01*
X108068655Y-99913828D01*
X108642727Y-99913828D01*
X108653421Y-99959541D01*
X108701281Y-100012942D01*
X108718917Y-100020977D01*
X108789136Y-100041513D01*
X108874967Y-100057004D01*
X108958462Y-100065389D01*
X109021675Y-100064608D01*
X109046657Y-100052600D01*
X109046192Y-100046659D01*
X109035916Y-99994827D01*
X109016437Y-99918693D01*
X109013125Y-99906926D01*
X108988259Y-99842315D01*
X108950701Y-99815790D01*
X108879496Y-99810849D01*
X108813221Y-99812674D01*
X108713566Y-99827610D01*
X108659203Y-99860255D01*
X108642727Y-99913828D01*
X108068655Y-99913828D01*
X108065455Y-99870367D01*
X108065600Y-99857667D01*
X108092892Y-99714754D01*
X108168870Y-99601329D01*
X108295733Y-99513989D01*
X108317582Y-99503563D01*
X108370216Y-99482640D01*
X108429602Y-99467418D01*
X108505938Y-99456725D01*
X108609416Y-99449390D01*
X108750231Y-99444241D01*
X108938580Y-99440106D01*
X109087018Y-99437873D01*
X109232468Y-99436887D01*
X109347712Y-99437443D01*
X109423582Y-99439489D01*
X109450909Y-99442972D01*
X109451113Y-99444327D01*
X109460235Y-99483150D01*
X109481594Y-99569487D01*
X109513382Y-99696154D01*
X109553788Y-99855964D01*
X109601002Y-100041733D01*
X109603776Y-100052600D01*
X109653216Y-100246276D01*
G37*
G36*
X121889429Y-100390029D02*
G01*
X121843367Y-100479261D01*
X121838057Y-100484712D01*
X121763142Y-100522830D01*
X121666398Y-100529716D01*
X121573491Y-100503104D01*
X121539860Y-100489863D01*
X121501526Y-100503104D01*
X121486743Y-100517341D01*
X121423270Y-100531809D01*
X121331823Y-100522979D01*
X121227924Y-100494566D01*
X121127095Y-100450282D01*
X121044860Y-100393842D01*
X121014789Y-100362106D01*
X120948804Y-100261003D01*
X120899981Y-100144966D01*
X120880909Y-100041080D01*
X120897168Y-99936603D01*
X120960367Y-99817791D01*
X121061795Y-99732141D01*
X121144931Y-99701272D01*
X121285359Y-99680592D01*
X121441686Y-99682080D01*
X121592891Y-99705185D01*
X121717955Y-99749356D01*
X121844383Y-99826527D01*
X121993794Y-99965686D01*
X122092190Y-100131668D01*
X122139781Y-100324758D01*
X122142232Y-100358534D01*
X122121866Y-100501335D01*
X122051444Y-100618534D01*
X121933910Y-100706626D01*
X121772211Y-100762105D01*
X121713510Y-100770784D01*
X121593280Y-100777652D01*
X121472614Y-100774369D01*
X121419616Y-100768204D01*
X121296813Y-100741339D01*
X121180427Y-100701053D01*
X121080421Y-100652642D01*
X121006756Y-100601402D01*
X120969397Y-100552629D01*
X120978306Y-100511619D01*
X121007691Y-100513440D01*
X121074127Y-100536954D01*
X121161763Y-100577427D01*
X121226329Y-100608367D01*
X121318701Y-100641399D01*
X121415925Y-100656760D01*
X121544267Y-100660130D01*
X121717635Y-100649000D01*
X121851330Y-100613255D01*
X121940820Y-100549384D01*
X121990957Y-100453850D01*
X122006591Y-100323117D01*
X121993054Y-100222144D01*
X121933598Y-100080958D01*
X121836971Y-99956546D01*
X121714318Y-99866327D01*
X121709203Y-99863750D01*
X121571906Y-99813614D01*
X121423821Y-99788843D01*
X121284926Y-99791078D01*
X121175193Y-99821966D01*
X121145999Y-99838095D01*
X121050644Y-99917538D01*
X121009716Y-100012509D01*
X121021407Y-100126586D01*
X121025371Y-100138409D01*
X121064369Y-100212741D01*
X121122192Y-100288998D01*
X121186564Y-100354412D01*
X121245209Y-100396213D01*
X121285851Y-100401633D01*
X121289436Y-100374257D01*
X121272753Y-100308497D01*
X121238277Y-100220600D01*
X121226021Y-100193290D01*
X121198643Y-100132049D01*
X121389860Y-100132049D01*
X121416425Y-100229562D01*
X121487691Y-100330691D01*
X121504161Y-100347479D01*
X121584694Y-100405513D01*
X121652949Y-100417873D01*
X121700259Y-100385382D01*
X121717955Y-100308860D01*
X121717615Y-100296175D01*
X121696131Y-100204297D01*
X121648627Y-100122186D01*
X121585503Y-100058199D01*
X121517160Y-100020693D01*
X121453998Y-100018023D01*
X121406417Y-100058547D01*
X121389860Y-100132049D01*
X121198643Y-100132049D01*
X121172168Y-100072827D01*
X121140583Y-99994747D01*
X121131158Y-99949900D01*
X121143787Y-99929135D01*
X121178360Y-99923302D01*
X121234771Y-99923251D01*
X121245778Y-99923201D01*
X121364197Y-99921581D01*
X121479585Y-99918570D01*
X121590748Y-99935608D01*
X121697619Y-99991532D01*
X121787942Y-100075755D01*
X121854698Y-100177457D01*
X121890866Y-100285822D01*
X121890548Y-100308860D01*
X121889429Y-100390029D01*
G37*
%TD*%
%LPC*%
D14*
%TO.C,J4*%
X80010000Y-109220000D03*
D15*
X82550000Y-109220000D03*
X85090000Y-109220000D03*
X87630000Y-109220000D03*
X90170000Y-109220000D03*
X92710000Y-109220000D03*
X95250000Y-109220000D03*
X97790000Y-109220000D03*
X100330000Y-109220000D03*
X102870000Y-109220000D03*
X105410000Y-109220000D03*
X107950000Y-109220000D03*
X110490000Y-109220000D03*
X113030000Y-109220000D03*
X115570000Y-109220000D03*
X118110000Y-109220000D03*
X120650000Y-109220000D03*
X123190000Y-109220000D03*
%TD*%
D14*
%TO.C,J3*%
X134620000Y-87630000D03*
D15*
X134620000Y-90170000D03*
X132080000Y-87630000D03*
X132080000Y-90170000D03*
X129540000Y-87630000D03*
X129540000Y-90170000D03*
%TD*%
D16*
%TO.C,J1*%
X95450000Y-82677000D03*
X97950000Y-82677000D03*
X100450000Y-82677000D03*
X102950000Y-82677000D03*
X105450000Y-82677000D03*
D17*
X107950000Y-82677000D03*
%TD*%
D14*
%TO.C,J2*%
X81915000Y-90805000D03*
D15*
X84455000Y-90805000D03*
X81915000Y-93345000D03*
X84455000Y-93345000D03*
X81915000Y-95885000D03*
X84455000Y-95885000D03*
X81915000Y-98425000D03*
X84455000Y-98425000D03*
%TD*%
D14*
%TO.C,J5*%
X73660000Y-87630000D03*
D15*
X73660000Y-90170000D03*
X71120000Y-87630000D03*
X71120000Y-90170000D03*
X68580000Y-87630000D03*
X68580000Y-90170000D03*
%TD*%
%LPD*%
M02*
