M48
; DRILL file {KiCad 7.0.9} date Tue Jun 25 21:03:02 2024
; FORMAT={-:-/ absolute / inch / decimal}
; #@! TF.CreationDate,2024-06-25T21:03:02+09:00
; #@! TF.GenerationSoftware,Kicad,Pcbnew,7.0.9
; #@! TF.FileFunction,Plated,1,2,PTH
FMAT,2
INCH
; #@! TA.AperFunction,Plated,PTH,ViaDrill
T1C0.0118
; #@! TA.AperFunction,Plated,PTH,ViaDrill
T2C0.0157
; #@! TA.AperFunction,Plated,PTH,ComponentDrill
T3C0.0374
; #@! TA.AperFunction,Plated,PTH,ComponentDrill
T4C0.0394
%
G90
G05
T1
X3.491Y-3.819
X5.15Y-3.81
X5.29Y-3.82
X5.36Y-3.33
T2
X3.15Y-3.74
X3.37Y-3.43
X3.44Y-4.1
X3.55Y-3.78
X3.57Y-3.43
X3.66Y-4.02
X3.68Y-4.07
X3.69Y-3.99
X3.69Y-4.13
X3.72Y-3.74
X3.74Y-3.65
X3.7947Y-4.1947
X3.81Y-3.46
X3.82Y-3.85
X3.8285Y-3.6026
X3.8344Y-3.6415
X3.85Y-3.45
X3.88Y-3.85
X3.8895Y-3.4395
X3.99Y-4.06
X3.99Y-4.2
X4.0Y-3.67
X4.05Y-3.46
X4.13Y-4.18
X4.15Y-3.6
X4.26Y-3.3615
X4.34Y-3.89
X4.3453Y-4.1147
X4.371Y-4.0183
X4.38Y-3.6
X4.42Y-3.99
X4.56Y-3.69
X4.57Y-3.85
X4.71Y-4.18
X4.99Y-3.44
X5.26Y-3.75
T3
X3.7579Y-3.255
X3.8563Y-3.255
X3.9547Y-3.255
X4.0531Y-3.255
X4.1516Y-3.255
X4.25Y-3.255
T4
X2.7Y-3.45
X2.7Y-3.55
X2.8Y-3.45
X2.8Y-3.55
X2.9Y-3.45
X2.9Y-3.55
X3.15Y-4.3
X3.225Y-3.575
X3.225Y-3.675
X3.225Y-3.775
X3.225Y-3.875
X3.25Y-4.3
X3.325Y-3.575
X3.325Y-3.675
X3.325Y-3.775
X3.325Y-3.875
X3.35Y-4.3
X3.45Y-4.3
X3.55Y-4.3
X3.65Y-4.3
X3.75Y-4.3
X3.85Y-4.3
X3.95Y-4.3
X4.05Y-4.3
X4.15Y-4.3
X4.25Y-4.3
X4.35Y-4.3
X4.45Y-4.3
X4.55Y-4.3
X4.65Y-4.3
X4.75Y-4.3
X4.85Y-4.3
X5.1Y-3.45
X5.1Y-3.55
X5.2Y-3.45
X5.2Y-3.55
X5.3Y-3.45
X5.3Y-3.55
T0
M30
