%TF.GenerationSoftware,KiCad,Pcbnew,7.0.9*%
%TF.CreationDate,2025-01-29T10:13:39+09:00*%
%TF.ProjectId,05-PWR,30352d50-5752-42e6-9b69-6361645f7063,rev?*%
%TF.SameCoordinates,Original*%
%TF.FileFunction,Soldermask,Top*%
%TF.FilePolarity,Negative*%
%FSLAX46Y46*%
G04 Gerber Fmt 4.6, Leading zero omitted, Abs format (unit mm)*
G04 Created by KiCad (PCBNEW 7.0.9) date 2025-01-29 10:13:39*
%MOMM*%
%LPD*%
G01*
G04 APERTURE LIST*
G04 Aperture macros list*
%AMRoundRect*
0 Rectangle with rounded corners*
0 $1 Rounding radius*
0 $2 $3 $4 $5 $6 $7 $8 $9 X,Y pos of 4 corners*
0 Add a 4 corners polygon primitive as box body*
4,1,4,$2,$3,$4,$5,$6,$7,$8,$9,$2,$3,0*
0 Add four circle primitives for the rounded corners*
1,1,$1+$1,$2,$3*
1,1,$1+$1,$4,$5*
1,1,$1+$1,$6,$7*
1,1,$1+$1,$8,$9*
0 Add four rect primitives between the rounded corners*
20,1,$1+$1,$2,$3,$4,$5,0*
20,1,$1+$1,$4,$5,$6,$7,0*
20,1,$1+$1,$6,$7,$8,$9,0*
20,1,$1+$1,$8,$9,$2,$3,0*%
G04 Aperture macros list end*
%ADD10RoundRect,0.250000X0.475000X-0.250000X0.475000X0.250000X-0.475000X0.250000X-0.475000X-0.250000X0*%
%ADD11C,2.604000*%
%ADD12RoundRect,0.200000X-0.200000X-0.275000X0.200000X-0.275000X0.200000X0.275000X-0.200000X0.275000X0*%
%ADD13C,0.800000*%
%ADD14C,6.400000*%
%ADD15RoundRect,0.200000X-0.275000X0.200000X-0.275000X-0.200000X0.275000X-0.200000X0.275000X0.200000X0*%
%ADD16RoundRect,0.200000X0.275000X-0.200000X0.275000X0.200000X-0.275000X0.200000X-0.275000X-0.200000X0*%
%ADD17R,1.200000X3.000000*%
%ADD18R,2.000000X4.000000*%
%ADD19R,3.000000X1.200000*%
%ADD20R,1.770000X4.112100*%
%ADD21R,4.170000X1.862000*%
%ADD22R,1.200000X1.500000*%
%ADD23R,1.800000X1.717500*%
%ADD24O,1.800000X1.717500*%
%ADD25C,1.800000*%
%ADD26RoundRect,0.250000X-0.475000X0.250000X-0.475000X-0.250000X0.475000X-0.250000X0.475000X0.250000X0*%
%ADD27RoundRect,0.250002X-1.699998X-1.699998X1.699998X-1.699998X1.699998X1.699998X-1.699998X1.699998X0*%
%ADD28C,3.900000*%
%ADD29RoundRect,0.250001X-0.799999X-0.799999X0.799999X-0.799999X0.799999X0.799999X-0.799999X0.799999X0*%
%ADD30C,2.100000*%
G04 APERTURE END LIST*
D10*
%TO.C,C1*%
X60298000Y-87950000D03*
X60298000Y-86050000D03*
%TD*%
%TO.C,C2*%
X81526000Y-88330000D03*
X81526000Y-86430000D03*
%TD*%
D11*
%TO.C,F1*%
X37338000Y-88384000D03*
X33938000Y-88384000D03*
X37338000Y-101854000D03*
X33938000Y-101854000D03*
%TD*%
D12*
%TO.C,R8*%
X37402000Y-83185000D03*
X39052000Y-83185000D03*
%TD*%
D13*
%TO.C,H2*%
X102600000Y-100000000D03*
X103302944Y-98302944D03*
X103302944Y-101697056D03*
X105000000Y-97600000D03*
D14*
X105000000Y-100000000D03*
D13*
X105000000Y-102400000D03*
X106697056Y-98302944D03*
X106697056Y-101697056D03*
X107400000Y-100000000D03*
%TD*%
D15*
%TO.C,R6*%
X79621000Y-81795000D03*
X79621000Y-83445000D03*
%TD*%
D16*
%TO.C,R3*%
X77216000Y-76009000D03*
X77216000Y-74359000D03*
%TD*%
D15*
%TO.C,R7*%
X58266000Y-81476000D03*
X58266000Y-83126000D03*
%TD*%
D12*
%TO.C,R4*%
X96675000Y-78500000D03*
X98325000Y-78500000D03*
%TD*%
D17*
%TO.C,U2*%
X69342000Y-91706000D03*
X64762000Y-91706000D03*
D18*
X64762000Y-89763600D03*
D19*
X63742000Y-88396000D03*
X63742000Y-86106000D03*
D20*
X64762000Y-84958650D03*
D19*
X63742000Y-83816000D03*
D21*
X65862200Y-81381600D03*
D17*
X64762000Y-80506000D03*
X69342000Y-80506000D03*
X73922000Y-80506000D03*
D19*
X74942000Y-86106000D03*
X74942000Y-88396000D03*
D17*
X73922000Y-91706000D03*
X71632000Y-91706000D03*
D22*
X71632000Y-79756000D03*
D19*
X74942000Y-83816000D03*
%TD*%
D23*
%TO.C,Q1*%
X42418000Y-83812000D03*
D24*
X42418000Y-86102000D03*
X42418000Y-88392000D03*
%TD*%
D13*
%TO.C,H4*%
X47600000Y-80000000D03*
X48302944Y-78302944D03*
X48302944Y-81697056D03*
X50000000Y-77600000D03*
D14*
X50000000Y-80000000D03*
D13*
X50000000Y-82400000D03*
X51697056Y-78302944D03*
X51697056Y-81697056D03*
X52400000Y-80000000D03*
%TD*%
D25*
%TO.C,SW1*%
X117059859Y-144000000D03*
X117059859Y-138920000D03*
X111979859Y-138920000D03*
X111979859Y-141460000D03*
X111979859Y-144000000D03*
%TD*%
D26*
%TO.C,C4*%
X60298000Y-81351000D03*
X60298000Y-83251000D03*
%TD*%
D13*
%TO.C,H1*%
X47600000Y-100000000D03*
X48302944Y-98302944D03*
X48302944Y-101697056D03*
X50000000Y-97600000D03*
D14*
X50000000Y-100000000D03*
D13*
X50000000Y-102400000D03*
X51697056Y-98302944D03*
X51697056Y-101697056D03*
X52400000Y-100000000D03*
%TD*%
D27*
%TO.C,J2*%
X36994000Y-109474000D03*
D28*
X44794000Y-109474000D03*
%TD*%
D15*
%TO.C,R5*%
X98262000Y-80469000D03*
X98262000Y-82119000D03*
%TD*%
D26*
%TO.C,C3*%
X81526000Y-81670000D03*
X81526000Y-83570000D03*
%TD*%
D13*
%TO.C,H3*%
X102600000Y-80000000D03*
X103302944Y-78302944D03*
X103302944Y-81697056D03*
X105000000Y-77600000D03*
D14*
X105000000Y-80000000D03*
D13*
X105000000Y-82400000D03*
X106697056Y-78302944D03*
X106697056Y-81697056D03*
X107400000Y-80000000D03*
%TD*%
D15*
%TO.C,R2*%
X75565000Y-74359000D03*
X75565000Y-76009000D03*
%TD*%
D16*
%TO.C,R1*%
X73914000Y-76009000D03*
X73914000Y-74359000D03*
%TD*%
D29*
%TO.C,J1*%
X43406000Y-132080000D03*
D30*
X48006000Y-132080000D03*
%TD*%
D17*
%TO.C,U1*%
X90170000Y-91706000D03*
X85590000Y-91706000D03*
D18*
X85590000Y-89763600D03*
D19*
X84570000Y-88396000D03*
X84570000Y-86106000D03*
D20*
X85590000Y-84958650D03*
D19*
X84570000Y-83816000D03*
D21*
X86690200Y-81381600D03*
D17*
X85590000Y-80506000D03*
X90170000Y-80506000D03*
X94750000Y-80506000D03*
D19*
X95770000Y-86106000D03*
X95770000Y-88396000D03*
D17*
X94750000Y-91706000D03*
X92460000Y-91706000D03*
D22*
X92460000Y-79756000D03*
D19*
X95770000Y-83816000D03*
%TD*%
M02*
