%TF.GenerationSoftware,KiCad,Pcbnew,7.0.9*%
%TF.CreationDate,2025-01-29T10:13:39+09:00*%
%TF.ProjectId,05-PWR,30352d50-5752-42e6-9b69-6361645f7063,rev?*%
%TF.SameCoordinates,Original*%
%TF.FileFunction,Legend,Bot*%
%TF.FilePolarity,Positive*%
%FSLAX46Y46*%
G04 Gerber Fmt 4.6, Leading zero omitted, Abs format (unit mm)*
G04 Created by KiCad (PCBNEW 7.0.9) date 2025-01-29 10:13:39*
%MOMM*%
%LPD*%
G01*
G04 APERTURE LIST*
G04 Aperture macros list*
%AMRoundRect*
0 Rectangle with rounded corners*
0 $1 Rounding radius*
0 $2 $3 $4 $5 $6 $7 $8 $9 X,Y pos of 4 corners*
0 Add a 4 corners polygon primitive as box body*
4,1,4,$2,$3,$4,$5,$6,$7,$8,$9,$2,$3,0*
0 Add four circle primitives for the rounded corners*
1,1,$1+$1,$2,$3*
1,1,$1+$1,$4,$5*
1,1,$1+$1,$6,$7*
1,1,$1+$1,$8,$9*
0 Add four rect primitives between the rounded corners*
20,1,$1+$1,$2,$3,$4,$5,0*
20,1,$1+$1,$4,$5,$6,$7,0*
20,1,$1+$1,$6,$7,$8,$9,0*
20,1,$1+$1,$8,$9,$2,$3,0*%
G04 Aperture macros list end*
%ADD10C,2.604000*%
%ADD11C,0.800000*%
%ADD12C,6.400000*%
%ADD13R,1.800000X1.717500*%
%ADD14O,1.800000X1.717500*%
%ADD15C,1.800000*%
%ADD16RoundRect,0.250002X-1.699998X-1.699998X1.699998X-1.699998X1.699998X1.699998X-1.699998X1.699998X0*%
%ADD17C,3.900000*%
%ADD18RoundRect,0.250001X-0.799999X-0.799999X0.799999X-0.799999X0.799999X0.799999X-0.799999X0.799999X0*%
%ADD19C,2.100000*%
G04 APERTURE END LIST*
%LPC*%
D10*
%TO.C,F1*%
X37338000Y-88384000D03*
X33938000Y-88384000D03*
X37338000Y-101854000D03*
X33938000Y-101854000D03*
%TD*%
D11*
%TO.C,H2*%
X102600000Y-100000000D03*
X103302944Y-98302944D03*
X103302944Y-101697056D03*
X105000000Y-97600000D03*
D12*
X105000000Y-100000000D03*
D11*
X105000000Y-102400000D03*
X106697056Y-98302944D03*
X106697056Y-101697056D03*
X107400000Y-100000000D03*
%TD*%
D13*
%TO.C,Q1*%
X42418000Y-83812000D03*
D14*
X42418000Y-86102000D03*
X42418000Y-88392000D03*
%TD*%
D11*
%TO.C,H4*%
X47600000Y-80000000D03*
X48302944Y-78302944D03*
X48302944Y-81697056D03*
X50000000Y-77600000D03*
D12*
X50000000Y-80000000D03*
D11*
X50000000Y-82400000D03*
X51697056Y-78302944D03*
X51697056Y-81697056D03*
X52400000Y-80000000D03*
%TD*%
D15*
%TO.C,SW1*%
X117059859Y-144000000D03*
X117059859Y-138920000D03*
X111979859Y-138920000D03*
X111979859Y-141460000D03*
X111979859Y-144000000D03*
%TD*%
D11*
%TO.C,H1*%
X47600000Y-100000000D03*
X48302944Y-98302944D03*
X48302944Y-101697056D03*
X50000000Y-97600000D03*
D12*
X50000000Y-100000000D03*
D11*
X50000000Y-102400000D03*
X51697056Y-98302944D03*
X51697056Y-101697056D03*
X52400000Y-100000000D03*
%TD*%
D16*
%TO.C,J2*%
X36994000Y-109474000D03*
D17*
X44794000Y-109474000D03*
%TD*%
D11*
%TO.C,H3*%
X102600000Y-80000000D03*
X103302944Y-78302944D03*
X103302944Y-81697056D03*
X105000000Y-77600000D03*
D12*
X105000000Y-80000000D03*
D11*
X105000000Y-82400000D03*
X106697056Y-78302944D03*
X106697056Y-81697056D03*
X107400000Y-80000000D03*
%TD*%
D18*
%TO.C,J1*%
X43406000Y-132080000D03*
D19*
X48006000Y-132080000D03*
%TD*%
%LPD*%
M02*
