%TF.GenerationSoftware,KiCad,Pcbnew,7.0.9*%
%TF.CreationDate,2025-01-29T10:13:39+09:00*%
%TF.ProjectId,05-PWR,30352d50-5752-42e6-9b69-6361645f7063,rev?*%
%TF.SameCoordinates,Original*%
%TF.FileFunction,Paste,Top*%
%TF.FilePolarity,Positive*%
%FSLAX46Y46*%
G04 Gerber Fmt 4.6, Leading zero omitted, Abs format (unit mm)*
G04 Created by KiCad (PCBNEW 7.0.9) date 2025-01-29 10:13:39*
%MOMM*%
%LPD*%
G01*
G04 APERTURE LIST*
G04 Aperture macros list*
%AMRoundRect*
0 Rectangle with rounded corners*
0 $1 Rounding radius*
0 $2 $3 $4 $5 $6 $7 $8 $9 X,Y pos of 4 corners*
0 Add a 4 corners polygon primitive as box body*
4,1,4,$2,$3,$4,$5,$6,$7,$8,$9,$2,$3,0*
0 Add four circle primitives for the rounded corners*
1,1,$1+$1,$2,$3*
1,1,$1+$1,$4,$5*
1,1,$1+$1,$6,$7*
1,1,$1+$1,$8,$9*
0 Add four rect primitives between the rounded corners*
20,1,$1+$1,$2,$3,$4,$5,0*
20,1,$1+$1,$4,$5,$6,$7,0*
20,1,$1+$1,$6,$7,$8,$9,0*
20,1,$1+$1,$8,$9,$2,$3,0*%
G04 Aperture macros list end*
%ADD10RoundRect,0.250000X0.475000X-0.250000X0.475000X0.250000X-0.475000X0.250000X-0.475000X-0.250000X0*%
%ADD11RoundRect,0.200000X-0.200000X-0.275000X0.200000X-0.275000X0.200000X0.275000X-0.200000X0.275000X0*%
%ADD12RoundRect,0.200000X-0.275000X0.200000X-0.275000X-0.200000X0.275000X-0.200000X0.275000X0.200000X0*%
%ADD13RoundRect,0.200000X0.275000X-0.200000X0.275000X0.200000X-0.275000X0.200000X-0.275000X-0.200000X0*%
%ADD14R,1.200000X3.000000*%
%ADD15R,2.000000X4.000000*%
%ADD16R,3.000000X1.200000*%
%ADD17R,1.770000X4.112100*%
%ADD18R,4.170000X1.862000*%
%ADD19R,1.200000X1.500000*%
%ADD20RoundRect,0.250000X-0.475000X0.250000X-0.475000X-0.250000X0.475000X-0.250000X0.475000X0.250000X0*%
G04 APERTURE END LIST*
D10*
%TO.C,C1*%
X60298000Y-87950000D03*
X60298000Y-86050000D03*
%TD*%
%TO.C,C2*%
X81526000Y-88330000D03*
X81526000Y-86430000D03*
%TD*%
D11*
%TO.C,R8*%
X37402000Y-83185000D03*
X39052000Y-83185000D03*
%TD*%
D12*
%TO.C,R6*%
X79621000Y-81795000D03*
X79621000Y-83445000D03*
%TD*%
D13*
%TO.C,R3*%
X77216000Y-76009000D03*
X77216000Y-74359000D03*
%TD*%
D12*
%TO.C,R7*%
X58266000Y-81476000D03*
X58266000Y-83126000D03*
%TD*%
D11*
%TO.C,R4*%
X96675000Y-78500000D03*
X98325000Y-78500000D03*
%TD*%
D14*
%TO.C,U2*%
X69342000Y-91706000D03*
X64762000Y-91706000D03*
D15*
X64762000Y-89763600D03*
D16*
X63742000Y-88396000D03*
X63742000Y-86106000D03*
D17*
X64762000Y-84958650D03*
D16*
X63742000Y-83816000D03*
D18*
X65862200Y-81381600D03*
D14*
X64762000Y-80506000D03*
X69342000Y-80506000D03*
X73922000Y-80506000D03*
D16*
X74942000Y-86106000D03*
X74942000Y-88396000D03*
D14*
X73922000Y-91706000D03*
X71632000Y-91706000D03*
D19*
X71632000Y-79756000D03*
D16*
X74942000Y-83816000D03*
%TD*%
D20*
%TO.C,C4*%
X60298000Y-81351000D03*
X60298000Y-83251000D03*
%TD*%
D12*
%TO.C,R5*%
X98262000Y-80469000D03*
X98262000Y-82119000D03*
%TD*%
D20*
%TO.C,C3*%
X81526000Y-81670000D03*
X81526000Y-83570000D03*
%TD*%
D12*
%TO.C,R2*%
X75565000Y-74359000D03*
X75565000Y-76009000D03*
%TD*%
D13*
%TO.C,R1*%
X73914000Y-76009000D03*
X73914000Y-74359000D03*
%TD*%
D14*
%TO.C,U1*%
X90170000Y-91706000D03*
X85590000Y-91706000D03*
D15*
X85590000Y-89763600D03*
D16*
X84570000Y-88396000D03*
X84570000Y-86106000D03*
D17*
X85590000Y-84958650D03*
D16*
X84570000Y-83816000D03*
D18*
X86690200Y-81381600D03*
D14*
X85590000Y-80506000D03*
X90170000Y-80506000D03*
X94750000Y-80506000D03*
D16*
X95770000Y-86106000D03*
X95770000Y-88396000D03*
D14*
X94750000Y-91706000D03*
X92460000Y-91706000D03*
D19*
X92460000Y-79756000D03*
D16*
X95770000Y-83816000D03*
%TD*%
M02*
