M48
; DRILL file {KiCad 7.0.9} date Wed Jan 29 10:13:39 2025
; FORMAT={-:-/ absolute / inch / decimal}
; #@! TF.CreationDate,2025-01-29T10:13:39+09:00
; #@! TF.GenerationSoftware,Kicad,Pcbnew,7.0.9
; #@! TF.FileFunction,Plated,1,2,PTH
FMAT,2
INCH
; #@! TA.AperFunction,Plated,PTH,ViaDrill
T1C0.0157
; #@! TA.AperFunction,Plated,PTH,ComponentDrill
T2C0.0197
; #@! TA.AperFunction,Plated,PTH,ComponentDrill
T3C0.0429
; #@! TA.AperFunction,Plated,PTH,ComponentDrill
T4C0.0433
; #@! TA.AperFunction,Plated,PTH,ComponentDrill
T5C0.0630
; #@! TA.AperFunction,Plated,PTH,ComponentDrill
T6C0.0984
; #@! TA.AperFunction,Plated,PTH,ComponentDrill
T7C0.1260
%
G90
G05
T1
X0.84Y-5.16
X0.84Y-5.85
X1.5157Y-3.3268
X1.585Y-3.135
X1.5945Y-3.3268
X1.665Y-4.49
X1.725Y-3.135
X1.7933Y-3.3563
X1.825Y-3.325
X1.855Y-2.825
X2.095Y-5.83
X2.225Y-3.265
X2.265Y-3.375
X2.265Y-5.7
X2.615Y-4.965
X2.6831Y-3.4114
X2.685Y-3.275
X2.69Y-3.69
X2.815Y-3.22
X2.83Y-3.065
X2.865Y-3.525
X2.98Y-3.675
X3.03Y-3.04
X3.095Y-2.815
X3.24Y-3.345
X3.47Y-4.135
X3.475Y-4.96
X3.4902Y-3.5039
X3.64Y-3.22
X3.685Y-3.525
X3.78Y-3.535
X3.785Y-3.24
X3.815Y-3.145
X3.91Y-3.13
X4.005Y-5.82
X4.1Y-5.04
X4.35Y-2.815
X4.3957Y-3.3543
X4.58Y-4.405
X4.66Y-2.825
X4.76Y-2.78
X4.8Y-4.195
X4.805Y-2.975
X4.86Y-4.47
X4.89Y-4.265
X5.22Y-5.83
X5.235Y-5.18
T2
X1.874Y-3.1496
X1.874Y-3.937
X1.9017Y-3.0828
X1.9017Y-3.2164
X1.9017Y-3.8702
X1.9017Y-4.0038
X1.9685Y-3.0551
X1.9685Y-3.2441
X1.9685Y-3.8425
X1.9685Y-4.0315
X2.0353Y-3.0828
X2.0353Y-3.2164
X2.0353Y-3.8702
X2.0353Y-4.0038
X2.063Y-3.1496
X2.063Y-3.937
X4.0394Y-3.1496
X4.0394Y-3.937
X4.067Y-3.0828
X4.067Y-3.2164
X4.067Y-3.8702
X4.067Y-4.0038
X4.1339Y-3.0551
X4.1339Y-3.2441
X4.1339Y-3.8425
X4.1339Y-4.0315
X4.2007Y-3.0828
X4.2007Y-3.2164
X4.2007Y-3.8702
X4.2007Y-4.0038
X4.2283Y-3.1496
X4.2283Y-3.937
T3
X4.4087Y-5.4693
X4.4087Y-5.5693
X4.4087Y-5.6693
X4.6087Y-5.4693
X4.6087Y-5.6693
T4
X1.67Y-3.2997
X1.67Y-3.3898
X1.67Y-3.48
X1.7089Y-5.2
X1.89Y-5.2
T5
X1.3361Y-3.4797
X1.3361Y-4.01
X1.47Y-3.4797
X1.47Y-4.01
T6
X1.4565Y-4.31
X1.7635Y-4.31
T7
X1.9685Y-3.1496
X1.9685Y-3.937
X4.1339Y-3.1496
X4.1339Y-3.937
T0
M30
