%TF.GenerationSoftware,KiCad,Pcbnew,7.0.9*%
%TF.CreationDate,2024-06-25T19:37:56+09:00*%
%TF.ProjectId,08-REG_mod,30382d52-4547-45f6-9d6f-642e6b696361,rev?*%
%TF.SameCoordinates,Original*%
%TF.FileFunction,Copper,L1,Top*%
%TF.FilePolarity,Positive*%
%FSLAX46Y46*%
G04 Gerber Fmt 4.6, Leading zero omitted, Abs format (unit mm)*
G04 Created by KiCad (PCBNEW 7.0.9) date 2024-06-25 19:37:56*
%MOMM*%
%LPD*%
G01*
G04 APERTURE LIST*
G04 Aperture macros list*
%AMRoundRect*
0 Rectangle with rounded corners*
0 $1 Rounding radius*
0 $2 $3 $4 $5 $6 $7 $8 $9 X,Y pos of 4 corners*
0 Add a 4 corners polygon primitive as box body*
4,1,4,$2,$3,$4,$5,$6,$7,$8,$9,$2,$3,0*
0 Add four circle primitives for the rounded corners*
1,1,$1+$1,$2,$3*
1,1,$1+$1,$4,$5*
1,1,$1+$1,$6,$7*
1,1,$1+$1,$8,$9*
0 Add four rect primitives between the rounded corners*
20,1,$1+$1,$2,$3,$4,$5,0*
20,1,$1+$1,$4,$5,$6,$7,0*
20,1,$1+$1,$6,$7,$8,$9,0*
20,1,$1+$1,$8,$9,$2,$3,0*%
G04 Aperture macros list end*
%TA.AperFunction,SMDPad,CuDef*%
%ADD10RoundRect,0.250000X0.650000X-1.000000X0.650000X1.000000X-0.650000X1.000000X-0.650000X-1.000000X0*%
%TD*%
%TA.AperFunction,SMDPad,CuDef*%
%ADD11R,1.550000X0.600000*%
%TD*%
%TA.AperFunction,ComponentPad*%
%ADD12C,0.600000*%
%TD*%
%TA.AperFunction,SMDPad,CuDef*%
%ADD13R,2.600000X3.100000*%
%TD*%
%TA.AperFunction,SMDPad,CuDef*%
%ADD14R,2.950000X4.500000*%
%TD*%
%TA.AperFunction,SMDPad,CuDef*%
%ADD15RoundRect,0.250000X-0.250000X-0.475000X0.250000X-0.475000X0.250000X0.475000X-0.250000X0.475000X0*%
%TD*%
%TA.AperFunction,SMDPad,CuDef*%
%ADD16RoundRect,0.200000X-0.275000X0.200000X-0.275000X-0.200000X0.275000X-0.200000X0.275000X0.200000X0*%
%TD*%
%TA.AperFunction,SMDPad,CuDef*%
%ADD17RoundRect,0.225000X-0.225000X-0.250000X0.225000X-0.250000X0.225000X0.250000X-0.225000X0.250000X0*%
%TD*%
%TA.AperFunction,SMDPad,CuDef*%
%ADD18RoundRect,0.243750X-0.456250X0.243750X-0.456250X-0.243750X0.456250X-0.243750X0.456250X0.243750X0*%
%TD*%
%TA.AperFunction,SMDPad,CuDef*%
%ADD19RoundRect,0.200000X0.200000X0.275000X-0.200000X0.275000X-0.200000X-0.275000X0.200000X-0.275000X0*%
%TD*%
%TA.AperFunction,SMDPad,CuDef*%
%ADD20RoundRect,1.025000X1.025000X-1.025000X1.025000X1.025000X-1.025000X1.025000X-1.025000X-1.025000X0*%
%TD*%
%TA.AperFunction,ComponentPad*%
%ADD21R,1.600000X1.600000*%
%TD*%
%TA.AperFunction,ComponentPad*%
%ADD22C,1.600000*%
%TD*%
%TA.AperFunction,ComponentPad*%
%ADD23R,1.700000X1.700000*%
%TD*%
%TA.AperFunction,ComponentPad*%
%ADD24O,1.700000X1.700000*%
%TD*%
%TA.AperFunction,ViaPad*%
%ADD25C,0.800000*%
%TD*%
%TA.AperFunction,Conductor*%
%ADD26C,1.500000*%
%TD*%
%TA.AperFunction,Conductor*%
%ADD27C,2.000000*%
%TD*%
%TA.AperFunction,Conductor*%
%ADD28C,2.500000*%
%TD*%
%TA.AperFunction,Conductor*%
%ADD29C,0.800000*%
%TD*%
%TA.AperFunction,Conductor*%
%ADD30C,0.600000*%
%TD*%
%TA.AperFunction,Conductor*%
%ADD31C,0.400000*%
%TD*%
%TA.AperFunction,Conductor*%
%ADD32C,1.200000*%
%TD*%
G04 APERTURE END LIST*
D10*
%TO.P,D1,1,K*%
%TO.N,Net-(D1-K)*%
X119380000Y-71215000D03*
%TO.P,D1,2,A*%
%TO.N,GND*%
X119380000Y-67215000D03*
%TD*%
D11*
%TO.P,U1,1,BOOT*%
%TO.N,Net-(U1-BOOT)*%
X109660000Y-71015000D03*
%TO.P,U1,2,NC*%
%TO.N,unconnected-(U1-NC-Pad2)*%
X109660000Y-72285000D03*
%TO.P,U1,3,NC*%
%TO.N,unconnected-(U1-NC-Pad3)*%
X109660000Y-73555000D03*
%TO.P,U1,4,VSENSE*%
%TO.N,Trim*%
X109660000Y-74825000D03*
%TO.P,U1,5,EN*%
%TO.N,EN*%
X115060000Y-74825000D03*
%TO.P,U1,6,GND*%
%TO.N,GND*%
X115060000Y-73555000D03*
%TO.P,U1,7,VIN*%
%TO.N,VDD*%
X115060000Y-72285000D03*
%TO.P,U1,8,PH*%
%TO.N,Net-(D1-K)*%
X115060000Y-71015000D03*
D12*
%TO.P,U1,9,GNDPAD*%
%TO.N,GND*%
X111760000Y-71120000D03*
X111760000Y-72320000D03*
X111760000Y-73620000D03*
X111760000Y-74720000D03*
D13*
X112360000Y-72920000D03*
D14*
X112360000Y-72920000D03*
D12*
X112960000Y-71120000D03*
X112960000Y-72320000D03*
X112960000Y-73620000D03*
X112960000Y-74720000D03*
%TD*%
D15*
%TO.P,C1,1*%
%TO.N,VDD*%
X118430000Y-74295000D03*
%TO.P,C1,2*%
%TO.N,GND*%
X120330000Y-74295000D03*
%TD*%
D16*
%TO.P,R1,1*%
%TO.N,VOUT*%
X107315000Y-73470000D03*
%TO.P,R1,2*%
%TO.N,Trim*%
X107315000Y-75120000D03*
%TD*%
D17*
%TO.P,C2,1*%
%TO.N,Net-(U1-BOOT)*%
X113525000Y-69215000D03*
%TO.P,C2,2*%
%TO.N,Net-(D1-K)*%
X115075000Y-69215000D03*
%TD*%
D18*
%TO.P,D2,1,K*%
%TO.N,Net-(D2-K)*%
X105410000Y-71120000D03*
%TO.P,D2,2,A*%
%TO.N,VOUT*%
X105410000Y-72995000D03*
%TD*%
D19*
%TO.P,R2,1*%
%TO.N,Net-(D2-K)*%
X105600000Y-69517500D03*
%TO.P,R2,2*%
%TO.N,GND*%
X103950000Y-69517500D03*
%TD*%
D20*
%TO.P,L1,1*%
%TO.N,Net-(D1-K)*%
X108585000Y-57810000D03*
%TO.P,L1,2*%
%TO.N,VOUT*%
X108585000Y-67310000D03*
%TD*%
D21*
%TO.P,C3,1*%
%TO.N,VOUT*%
X118705000Y-61595000D03*
D22*
%TO.P,C3,2*%
%TO.N,GND*%
X116205000Y-61595000D03*
%TD*%
D23*
%TO.P,J1,1,Pin_1*%
%TO.N,VDD*%
X118105000Y-78175000D03*
D24*
%TO.P,J1,2,Pin_2*%
%TO.N,VOUT*%
X115565000Y-78175000D03*
%TO.P,J1,3,Pin_3*%
%TO.N,GND*%
X113025000Y-78175000D03*
%TO.P,J1,4,Pin_4*%
%TO.N,EN*%
X110485000Y-78175000D03*
%TO.P,J1,5,Pin_5*%
%TO.N,Trim*%
X107945000Y-78175000D03*
%TD*%
D25*
%TO.N,GND*%
X116205000Y-65405000D03*
X121920000Y-81280000D03*
X114300000Y-66675000D03*
X114300000Y-62865000D03*
X120650000Y-76835000D03*
X103505000Y-70485000D03*
X121920000Y-75565000D03*
X116205000Y-67310000D03*
X121920000Y-72390000D03*
X114300000Y-64770000D03*
X120650000Y-81280000D03*
X104140000Y-71755000D03*
%TD*%
D26*
%TO.N,VDD*%
X117855000Y-77850000D02*
X116840000Y-76835000D01*
X118430000Y-77850000D02*
X118105000Y-78175000D01*
X115060000Y-72285000D02*
X116420000Y-72285000D01*
X116840000Y-76835000D02*
X116840000Y-72705000D01*
X116420000Y-72285000D02*
X118430000Y-74295000D01*
X118430000Y-77850000D02*
X117855000Y-77850000D01*
X116840000Y-72705000D02*
X116420000Y-72285000D01*
D27*
X118430000Y-74295000D02*
X118430000Y-77850000D01*
D28*
%TO.N,GND*%
X114935000Y-64770000D02*
X114300000Y-65405000D01*
X114935000Y-62865000D02*
X114300000Y-62865000D01*
X116060000Y-67165000D02*
X116205000Y-67310000D01*
D29*
X103950000Y-69517500D02*
X103950000Y-70040000D01*
D28*
X114300000Y-66040000D02*
X114300000Y-66675000D01*
X114300000Y-66040000D02*
X117855000Y-66040000D01*
X114935000Y-64770000D02*
X114935000Y-64770000D01*
X116350000Y-67165000D02*
X119030000Y-67165000D01*
X119030000Y-67215000D02*
X117855000Y-66040000D01*
D30*
X115060000Y-73555000D02*
X113025000Y-73555000D01*
D28*
X114300000Y-64135000D02*
X114300000Y-64135000D01*
X117855000Y-66040000D02*
X116205000Y-64390000D01*
X114790000Y-67165000D02*
X116060000Y-67165000D01*
X114300000Y-64135000D02*
X114300000Y-64770000D01*
X116205000Y-67310000D02*
X116350000Y-67165000D01*
X116205000Y-64390000D02*
X116205000Y-61595000D01*
X114300000Y-66675000D02*
X114790000Y-67165000D01*
D31*
X113025000Y-73555000D02*
X112960000Y-73620000D01*
D28*
X114300000Y-64770000D02*
X114935000Y-64770000D01*
D29*
X103950000Y-70040000D02*
X103505000Y-70485000D01*
D28*
X119030000Y-67165000D02*
X119030000Y-67215000D01*
X114300000Y-62865000D02*
X114300000Y-64135000D01*
X114300000Y-65405000D02*
X114300000Y-66040000D01*
D29*
%TO.N,Net-(U1-BOOT)*%
X110715000Y-69960000D02*
X109660000Y-71015000D01*
X112780000Y-69960000D02*
X110715000Y-69960000D01*
X113525000Y-69215000D02*
X112780000Y-69960000D01*
D32*
%TO.N,Net-(D1-K)*%
X115075000Y-70720000D02*
X115060000Y-70735000D01*
X119380000Y-71215000D02*
X118900000Y-70735000D01*
D27*
X109855000Y-57785000D02*
X111395000Y-56245000D01*
X118110000Y-56245000D02*
X121480000Y-59615000D01*
X111395000Y-56245000D02*
X118110000Y-56245000D01*
X121480000Y-69115000D02*
X119380000Y-71215000D01*
D32*
X118900000Y-70735000D02*
X115060000Y-70735000D01*
X115075000Y-69215000D02*
X115075000Y-70720000D01*
D27*
X109855000Y-57810000D02*
X109855000Y-57785000D01*
X121480000Y-59615000D02*
X121480000Y-69115000D01*
D31*
%TO.N,VOUT*%
X109855000Y-67310000D02*
X111125000Y-66040000D01*
D26*
X115565000Y-80650000D02*
X115050000Y-81165000D01*
X105410000Y-77832032D02*
X105765000Y-78187032D01*
D27*
X117198730Y-58445000D02*
X118705000Y-59951270D01*
D26*
X105765000Y-78187032D02*
X105765000Y-78540585D01*
X105765000Y-78540585D02*
X107199415Y-79975000D01*
D27*
X109220000Y-61060000D02*
X110652500Y-61060000D01*
D26*
X107315000Y-73470000D02*
X107315000Y-71120000D01*
X113770585Y-79975000D02*
X114335293Y-79410292D01*
D31*
X108585000Y-67310000D02*
X105410000Y-67310000D01*
D26*
X115565000Y-78175000D02*
X115565000Y-80650000D01*
D27*
X110652500Y-61060000D02*
X113267500Y-58445000D01*
D26*
X107315000Y-71120000D02*
X107315000Y-69850000D01*
X104140000Y-78625000D02*
X104140000Y-74265000D01*
X107315000Y-69850000D02*
X109855000Y-67310000D01*
X114935001Y-80010000D02*
X115565000Y-80010000D01*
D27*
X113267500Y-58445000D02*
X117198730Y-58445000D01*
X108585000Y-67310000D02*
X108585000Y-61695000D01*
D31*
X108585000Y-67310000D02*
X109855000Y-67310000D01*
X108585000Y-67310000D02*
X111760000Y-67310000D01*
D26*
X106840000Y-72995000D02*
X107315000Y-73470000D01*
X106109999Y-72995000D02*
X107315000Y-71789999D01*
X115050000Y-81165000D02*
X106680000Y-81165000D01*
X107315000Y-71789999D02*
X107315000Y-71120000D01*
X105410000Y-72995000D02*
X105410000Y-77832032D01*
X107199415Y-79975000D02*
X113770585Y-79975000D01*
X114335293Y-79410292D02*
X114935001Y-80010000D01*
D27*
X108585000Y-64770000D02*
X111125000Y-62230000D01*
D31*
X107315000Y-67310000D02*
X106045000Y-66040000D01*
D27*
X118705000Y-59951270D02*
X118705000Y-61595000D01*
D26*
X106680000Y-81165000D02*
X104140000Y-78625000D01*
D27*
X108585000Y-61695000D02*
X109220000Y-61060000D01*
D26*
X105410000Y-72995000D02*
X106109999Y-72995000D01*
X105410000Y-72995000D02*
X106840000Y-72995000D01*
D27*
X108585000Y-67310000D02*
X108585000Y-64770000D01*
D26*
X104140000Y-74265000D02*
X105410000Y-72995000D01*
D32*
%TO.N,Net-(D2-K)*%
X105410000Y-69707500D02*
X105600000Y-69517500D01*
X105410000Y-71120000D02*
X105410000Y-69707500D01*
%TO.N,EN*%
X115060000Y-76075000D02*
X115060000Y-74825000D01*
X110485000Y-78175000D02*
X112335000Y-76325000D01*
X112335000Y-76325000D02*
X114810000Y-76325000D01*
X114810000Y-76325000D02*
X115060000Y-76075000D01*
%TO.N,Trim*%
X107315000Y-75120000D02*
X107315000Y-77545000D01*
X109660000Y-74825000D02*
X109365000Y-75120000D01*
X107315000Y-77545000D02*
X107945000Y-78175000D01*
X109365000Y-75120000D02*
X107315000Y-75120000D01*
%TD*%
%TA.AperFunction,Conductor*%
%TO.N,GND*%
G36*
X122497539Y-71139685D02*
G01*
X122543294Y-71192489D01*
X122554500Y-71244000D01*
X122554500Y-81790500D01*
X122534815Y-81857539D01*
X122482011Y-81903294D01*
X122430500Y-81914500D01*
X120139000Y-81914500D01*
X120071961Y-81894815D01*
X120026206Y-81842011D01*
X120015000Y-81790500D01*
X120015000Y-75636361D01*
X120034685Y-75569322D01*
X120051319Y-75548680D01*
X120080000Y-75519999D01*
X120080000Y-74545000D01*
X120580000Y-74545000D01*
X120580000Y-75519999D01*
X120629972Y-75519999D01*
X120629986Y-75519998D01*
X120732697Y-75509505D01*
X120899119Y-75454358D01*
X120899124Y-75454356D01*
X121048345Y-75362315D01*
X121172315Y-75238345D01*
X121264356Y-75089124D01*
X121264358Y-75089119D01*
X121319505Y-74922697D01*
X121319506Y-74922690D01*
X121329999Y-74819986D01*
X121330000Y-74819973D01*
X121330000Y-74545000D01*
X120580000Y-74545000D01*
X120080000Y-74545000D01*
X120080000Y-74169000D01*
X120099685Y-74101961D01*
X120152489Y-74056206D01*
X120204000Y-74045000D01*
X121329999Y-74045000D01*
X121329999Y-73770028D01*
X121329998Y-73770013D01*
X121319505Y-73667302D01*
X121264358Y-73500880D01*
X121264356Y-73500875D01*
X121172315Y-73351654D01*
X121048345Y-73227684D01*
X120899124Y-73135643D01*
X120899119Y-73135641D01*
X120732697Y-73080494D01*
X120732690Y-73080493D01*
X120629986Y-73070000D01*
X120510656Y-73070000D01*
X120443617Y-73050315D01*
X120397862Y-72997511D01*
X120387918Y-72928353D01*
X120416943Y-72864797D01*
X120445561Y-72840461D01*
X120498651Y-72807715D01*
X120498650Y-72807715D01*
X120498656Y-72807712D01*
X120622712Y-72683656D01*
X120714814Y-72534334D01*
X120769999Y-72367797D01*
X120776643Y-72302756D01*
X120803038Y-72238066D01*
X120812303Y-72227696D01*
X121883681Y-71156319D01*
X121945004Y-71122834D01*
X121971362Y-71120000D01*
X122430500Y-71120000D01*
X122497539Y-71139685D01*
G37*
%TD.AperFunction*%
%TD*%
%TA.AperFunction,Conductor*%
%TO.N,VOUT*%
G36*
X105603039Y-72764685D02*
G01*
X105648794Y-72817489D01*
X105660000Y-72869000D01*
X105660000Y-73982500D01*
X105918965Y-73982500D01*
X105918965Y-73983583D01*
X105982628Y-73998795D01*
X106031018Y-74049195D01*
X106045000Y-74106396D01*
X106045000Y-78105000D01*
X106295120Y-78105000D01*
X106362159Y-78124685D01*
X106392590Y-78152347D01*
X106424289Y-78192656D01*
X106426901Y-78196232D01*
X106462520Y-78248861D01*
X106462526Y-78248868D01*
X106487859Y-78274201D01*
X106492758Y-78279721D01*
X106514905Y-78307883D01*
X106514909Y-78307887D01*
X106562951Y-78349516D01*
X106566191Y-78352533D01*
X106581270Y-78367612D01*
X106613364Y-78423200D01*
X106671094Y-78638655D01*
X106671096Y-78638659D01*
X106671097Y-78638663D01*
X106751004Y-78810023D01*
X106770965Y-78852830D01*
X106770967Y-78852834D01*
X106840044Y-78951485D01*
X106906505Y-79046401D01*
X107073599Y-79213495D01*
X107150479Y-79267327D01*
X107267165Y-79349032D01*
X107267167Y-79349033D01*
X107267170Y-79349035D01*
X107481337Y-79448903D01*
X107709592Y-79510063D01*
X107886034Y-79525500D01*
X107944999Y-79530659D01*
X107945000Y-79530659D01*
X107945001Y-79530659D01*
X108003966Y-79525500D01*
X108180408Y-79510063D01*
X108408663Y-79448903D01*
X108622830Y-79349035D01*
X108816401Y-79213495D01*
X108983495Y-79046401D01*
X109113425Y-78860842D01*
X109168002Y-78817217D01*
X109237500Y-78810023D01*
X109299855Y-78841546D01*
X109316575Y-78860842D01*
X109446500Y-79046395D01*
X109446505Y-79046401D01*
X109613599Y-79213495D01*
X109690479Y-79267327D01*
X109807165Y-79349032D01*
X109807167Y-79349033D01*
X109807170Y-79349035D01*
X110021337Y-79448903D01*
X110249592Y-79510063D01*
X110426034Y-79525500D01*
X110484999Y-79530659D01*
X110485000Y-79530659D01*
X110485001Y-79530659D01*
X110543966Y-79525500D01*
X110720408Y-79510063D01*
X110948663Y-79448903D01*
X111162830Y-79349035D01*
X111356401Y-79213495D01*
X111523495Y-79046401D01*
X111653425Y-78860842D01*
X111708002Y-78817217D01*
X111777500Y-78810023D01*
X111839855Y-78841546D01*
X111856575Y-78860842D01*
X111986500Y-79046395D01*
X111986505Y-79046401D01*
X112153599Y-79213495D01*
X112230479Y-79267327D01*
X112347165Y-79349032D01*
X112347167Y-79349033D01*
X112347170Y-79349035D01*
X112561337Y-79448903D01*
X112789592Y-79510063D01*
X112966034Y-79525500D01*
X113024999Y-79530659D01*
X113025000Y-79530659D01*
X113025001Y-79530659D01*
X113083966Y-79525500D01*
X113260408Y-79510063D01*
X113488663Y-79448903D01*
X113702830Y-79349035D01*
X113896401Y-79213495D01*
X114063495Y-79046401D01*
X114193730Y-78860405D01*
X114248307Y-78816781D01*
X114317805Y-78809587D01*
X114380160Y-78841110D01*
X114396879Y-78860405D01*
X114526890Y-79046078D01*
X114693917Y-79213105D01*
X114887421Y-79348600D01*
X115101507Y-79448429D01*
X115101516Y-79448433D01*
X115315000Y-79505634D01*
X115315000Y-78610501D01*
X115422685Y-78659680D01*
X115529237Y-78675000D01*
X115600763Y-78675000D01*
X115707315Y-78659680D01*
X115815000Y-78610501D01*
X115815000Y-79505633D01*
X116028483Y-79448433D01*
X116028492Y-79448429D01*
X116242578Y-79348600D01*
X116436078Y-79213108D01*
X116558133Y-79091053D01*
X116619456Y-79057568D01*
X116689148Y-79062552D01*
X116745082Y-79104423D01*
X116761997Y-79135401D01*
X116811202Y-79267327D01*
X116811203Y-79267328D01*
X116811204Y-79267331D01*
X116815265Y-79272755D01*
X116839684Y-79338216D01*
X116840000Y-79347068D01*
X116840000Y-81790500D01*
X116820315Y-81857539D01*
X116767511Y-81903294D01*
X116716000Y-81914500D01*
X102994500Y-81914500D01*
X102927461Y-81894815D01*
X102881706Y-81842011D01*
X102870500Y-81790500D01*
X102870500Y-73245000D01*
X104210000Y-73245000D01*
X104210000Y-73288315D01*
X104220407Y-73390173D01*
X104275094Y-73555209D01*
X104275096Y-73555214D01*
X104366370Y-73703191D01*
X104489308Y-73826129D01*
X104637285Y-73917403D01*
X104637290Y-73917405D01*
X104802326Y-73972092D01*
X104904184Y-73982499D01*
X104904197Y-73982500D01*
X105160000Y-73982500D01*
X105160000Y-73245000D01*
X104210000Y-73245000D01*
X102870500Y-73245000D01*
X102870500Y-73019500D01*
X102890185Y-72952461D01*
X102942989Y-72906706D01*
X102994500Y-72895500D01*
X104208698Y-72895500D01*
X104208702Y-72895500D01*
X104235741Y-72894051D01*
X104235748Y-72894050D01*
X104235752Y-72894050D01*
X104235753Y-72894050D01*
X104275561Y-72889769D01*
X104328973Y-72881114D01*
X104463782Y-72830832D01*
X104525105Y-72797347D01*
X104561994Y-72769732D01*
X104627456Y-72745316D01*
X104636303Y-72745000D01*
X105536000Y-72745000D01*
X105603039Y-72764685D01*
G37*
%TD.AperFunction*%
%TA.AperFunction,Conductor*%
G36*
X106849530Y-69688109D02*
G01*
X106859500Y-69693530D01*
X106876413Y-69703754D01*
X107104827Y-69795684D01*
X107104834Y-69795686D01*
X107345031Y-69849782D01*
X107345041Y-69849784D01*
X107489734Y-69860000D01*
X107826000Y-69860000D01*
X107893039Y-69879685D01*
X107938794Y-69932489D01*
X107950000Y-69984000D01*
X107950000Y-72480461D01*
X107930315Y-72547500D01*
X107877511Y-72593255D01*
X107808353Y-72603199D01*
X107789110Y-72598847D01*
X107717101Y-72576408D01*
X107646572Y-72570000D01*
X107565000Y-72570000D01*
X107565000Y-73596000D01*
X107546207Y-73660000D01*
X107087028Y-73660000D01*
X107076206Y-73647511D01*
X107065000Y-73596000D01*
X107065000Y-72570000D01*
X107064999Y-72569999D01*
X106983417Y-72570000D01*
X106912897Y-72576408D01*
X106912892Y-72576409D01*
X106743441Y-72629213D01*
X106742905Y-72627493D01*
X106683153Y-72635743D01*
X106619761Y-72606363D01*
X106583781Y-72552110D01*
X106544905Y-72434790D01*
X106544903Y-72434785D01*
X106453629Y-72286808D01*
X106330690Y-72163869D01*
X106330685Y-72163865D01*
X106329822Y-72163333D01*
X106329353Y-72162812D01*
X106325023Y-72159388D01*
X106325608Y-72158648D01*
X106283096Y-72111386D01*
X106271873Y-72042424D01*
X106299716Y-71978341D01*
X106325398Y-71956086D01*
X106325336Y-71956007D01*
X106327106Y-71954607D01*
X106329820Y-71952255D01*
X106331003Y-71951526D01*
X106454026Y-71828503D01*
X106545362Y-71680425D01*
X106600087Y-71515275D01*
X106610500Y-71413348D01*
X106610500Y-70826652D01*
X106600087Y-70724725D01*
X106545362Y-70559575D01*
X106545358Y-70559568D01*
X106528961Y-70532984D01*
X106510500Y-70467888D01*
X106510500Y-70177993D01*
X106525668Y-70118566D01*
X106616248Y-69952682D01*
X106677238Y-69761887D01*
X106716399Y-69704027D01*
X106780628Y-69676523D01*
X106849530Y-69688109D01*
G37*
%TD.AperFunction*%
%TA.AperFunction,Conductor*%
G36*
X117504149Y-57765185D02*
G01*
X117524791Y-57781819D01*
X119903472Y-60160500D01*
X119936957Y-60221823D01*
X119931973Y-60291515D01*
X119890101Y-60347448D01*
X119824637Y-60371865D01*
X119756364Y-60357013D01*
X119753243Y-60355007D01*
X119747086Y-60351645D01*
X119612379Y-60301403D01*
X119612372Y-60301401D01*
X119552844Y-60295000D01*
X118955000Y-60295000D01*
X118955000Y-61279314D01*
X118943045Y-61267359D01*
X118830148Y-61209835D01*
X118736481Y-61195000D01*
X118673519Y-61195000D01*
X118579852Y-61209835D01*
X118466955Y-61267359D01*
X118455000Y-61279314D01*
X118455000Y-60295000D01*
X117857155Y-60295000D01*
X117797627Y-60301401D01*
X117797620Y-60301403D01*
X117662913Y-60351645D01*
X117662908Y-60351648D01*
X117655683Y-60357057D01*
X117590218Y-60381471D01*
X117521945Y-60366617D01*
X117495106Y-60339775D01*
X117492441Y-60342441D01*
X116840000Y-59690000D01*
X113665000Y-59690000D01*
X113665000Y-61149186D01*
X113645315Y-61216225D01*
X113592511Y-61261980D01*
X113586303Y-61264614D01*
X113538360Y-61283430D01*
X113483484Y-61315111D01*
X113479386Y-61317277D01*
X113422295Y-61344772D01*
X113422290Y-61344774D01*
X113369945Y-61380463D01*
X113366019Y-61382930D01*
X113311149Y-61414609D01*
X113261600Y-61454122D01*
X113257870Y-61456874D01*
X113205522Y-61492566D01*
X113205514Y-61492572D01*
X113159071Y-61535664D01*
X113155558Y-61538688D01*
X113106020Y-61578193D01*
X113062920Y-61624642D01*
X113059642Y-61627920D01*
X113013193Y-61671020D01*
X112973688Y-61720558D01*
X112970664Y-61724071D01*
X112927572Y-61770514D01*
X112927566Y-61770522D01*
X112891874Y-61822870D01*
X112889122Y-61826600D01*
X112849609Y-61876149D01*
X112817930Y-61931019D01*
X112815463Y-61934945D01*
X112779774Y-61987290D01*
X112779772Y-61987295D01*
X112752277Y-62044386D01*
X112750111Y-62048484D01*
X112718431Y-62103358D01*
X112695285Y-62162332D01*
X112693431Y-62166581D01*
X112665943Y-62223660D01*
X112665934Y-62223683D01*
X112647262Y-62284217D01*
X112645731Y-62288593D01*
X112622581Y-62347579D01*
X112622577Y-62347593D01*
X112608478Y-62409364D01*
X112607278Y-62413843D01*
X112588606Y-62474376D01*
X112588605Y-62474380D01*
X112588604Y-62474385D01*
X112585266Y-62496527D01*
X112579159Y-62537038D01*
X112578297Y-62541592D01*
X112564198Y-62603372D01*
X112564198Y-62603373D01*
X112559462Y-62666556D01*
X112558943Y-62671163D01*
X112549500Y-62733808D01*
X112549500Y-64901191D01*
X112558943Y-64963838D01*
X112559462Y-64968445D01*
X112564198Y-65031632D01*
X112570419Y-65058888D01*
X112572749Y-65100347D01*
X112572297Y-65104358D01*
X112571905Y-65107843D01*
X112570741Y-65114697D01*
X112564198Y-65143367D01*
X112564196Y-65143375D01*
X112556841Y-65241539D01*
X112545818Y-65339364D01*
X112549500Y-65437731D01*
X112549500Y-66642268D01*
X112545818Y-66740635D01*
X112556841Y-66838460D01*
X112564196Y-66936624D01*
X112564197Y-66936629D01*
X112570738Y-66965285D01*
X112571904Y-66972144D01*
X112575194Y-67001349D01*
X112600671Y-67096430D01*
X112622581Y-67192420D01*
X112633317Y-67219777D01*
X112635491Y-67226382D01*
X112643098Y-67254768D01*
X112643100Y-67254776D01*
X112682464Y-67344999D01*
X112718431Y-67436641D01*
X112718432Y-67436645D01*
X112733126Y-67462094D01*
X112736261Y-67468304D01*
X112748014Y-67495241D01*
X112748019Y-67495251D01*
X112800392Y-67578602D01*
X112849613Y-67663856D01*
X112867936Y-67686832D01*
X112871961Y-67692506D01*
X112887602Y-67717397D01*
X112907153Y-67740116D01*
X112935962Y-67803770D01*
X112925784Y-67872894D01*
X112879850Y-67925543D01*
X112813165Y-67945000D01*
X111259000Y-67945000D01*
X111191961Y-67925315D01*
X111146206Y-67872511D01*
X111135000Y-67821000D01*
X111135000Y-66214734D01*
X111124784Y-66070041D01*
X111124782Y-66070031D01*
X111070686Y-65829834D01*
X111070684Y-65829827D01*
X110978755Y-65601414D01*
X110853814Y-65394738D01*
X108672681Y-67575872D01*
X108611358Y-67609357D01*
X108541666Y-67604373D01*
X108497319Y-67575872D01*
X106316184Y-65394737D01*
X106316183Y-65394738D01*
X106191247Y-65601410D01*
X106191242Y-65601419D01*
X106099315Y-65829827D01*
X106099313Y-65829834D01*
X106045217Y-66070031D01*
X106045215Y-66070041D01*
X106035000Y-66214734D01*
X106035000Y-68328104D01*
X106015315Y-68395143D01*
X105962511Y-68440898D01*
X105893353Y-68450842D01*
X105890437Y-68450387D01*
X105678876Y-68414812D01*
X105678868Y-68414811D01*
X105678867Y-68414811D01*
X105573811Y-68417312D01*
X105468755Y-68419813D01*
X105468745Y-68419814D01*
X105263399Y-68464483D01*
X105263386Y-68464487D01*
X105070190Y-68547219D01*
X105053241Y-68558691D01*
X104986688Y-68579965D01*
X104983739Y-68580000D01*
X104397434Y-68580000D01*
X104360545Y-68574386D01*
X104350625Y-68571295D01*
X104277196Y-68548414D01*
X104206616Y-68542000D01*
X104206613Y-68542000D01*
X103817843Y-68542000D01*
X103750804Y-68522315D01*
X103705049Y-68469511D01*
X103698869Y-68452946D01*
X103695801Y-68442496D01*
X103618013Y-68321457D01*
X103618008Y-68321451D01*
X103572264Y-68268659D01*
X103572260Y-68268656D01*
X103572258Y-68268653D01*
X103463524Y-68174433D01*
X103463521Y-68174431D01*
X103463519Y-68174430D01*
X103332653Y-68114664D01*
X103332648Y-68114662D01*
X103332647Y-68114662D01*
X103310046Y-68108025D01*
X103265613Y-68094978D01*
X103265607Y-68094976D01*
X103180154Y-68082690D01*
X103123188Y-68074500D01*
X102994500Y-68074500D01*
X102927461Y-68054815D01*
X102881706Y-68002011D01*
X102870500Y-67950500D01*
X102870500Y-65041184D01*
X106669737Y-65041184D01*
X108585000Y-66956446D01*
X108585001Y-66956446D01*
X110500260Y-65041184D01*
X110293583Y-64916244D01*
X110293580Y-64916242D01*
X110065172Y-64824315D01*
X110065165Y-64824313D01*
X109824968Y-64770217D01*
X109824958Y-64770215D01*
X109680266Y-64760000D01*
X107489734Y-64760000D01*
X107345041Y-64770215D01*
X107345031Y-64770217D01*
X107104834Y-64824313D01*
X107104827Y-64824315D01*
X106876419Y-64916242D01*
X106876410Y-64916247D01*
X106669738Y-65041183D01*
X106669737Y-65041184D01*
X102870500Y-65041184D01*
X102870500Y-59814000D01*
X102890185Y-59746961D01*
X102942989Y-59701206D01*
X102994500Y-59690000D01*
X106227225Y-59690000D01*
X106294264Y-59709685D01*
X106321678Y-59733659D01*
X106477798Y-59917201D01*
X106587990Y-60010930D01*
X106665411Y-60076784D01*
X106876191Y-60204205D01*
X107104683Y-60296165D01*
X107344966Y-60350281D01*
X107489705Y-60360500D01*
X109680294Y-60360499D01*
X109825034Y-60350281D01*
X110065317Y-60296165D01*
X110293809Y-60204205D01*
X110504589Y-60076784D01*
X110692201Y-59917201D01*
X110851784Y-59729589D01*
X110979205Y-59518809D01*
X111071165Y-59290317D01*
X111116028Y-59091116D01*
X111149313Y-59030686D01*
X112398181Y-57781819D01*
X112459504Y-57748334D01*
X112485862Y-57745500D01*
X117437110Y-57745500D01*
X117504149Y-57765185D01*
G37*
%TD.AperFunction*%
%TD*%
%TA.AperFunction,Conductor*%
%TO.N,GND*%
G36*
X104143039Y-69287185D02*
G01*
X104188794Y-69339989D01*
X104200000Y-69391500D01*
X104200000Y-70492499D01*
X104218673Y-70511172D01*
X104252158Y-70572495D01*
X104248698Y-70637857D01*
X104219913Y-70724723D01*
X104209500Y-70826644D01*
X104209500Y-71413355D01*
X104219913Y-71515276D01*
X104274637Y-71680422D01*
X104274642Y-71680433D01*
X104365971Y-71828499D01*
X104365974Y-71828503D01*
X104494104Y-71956633D01*
X104493139Y-71957597D01*
X104529016Y-72008260D01*
X104532158Y-72078059D01*
X104505111Y-72130095D01*
X104497360Y-72138965D01*
X104494510Y-72142014D01*
X104282844Y-72353681D01*
X104221521Y-72387166D01*
X104195163Y-72390000D01*
X102994500Y-72390000D01*
X102927461Y-72370315D01*
X102881706Y-72317511D01*
X102870500Y-72266000D01*
X102870500Y-70134108D01*
X102890185Y-70067069D01*
X102942989Y-70021314D01*
X103012147Y-70011370D01*
X103075703Y-70040395D01*
X103102215Y-70076015D01*
X103103102Y-70075480D01*
X103194927Y-70227377D01*
X103315122Y-70347572D01*
X103460604Y-70435519D01*
X103460603Y-70435519D01*
X103622894Y-70486090D01*
X103622893Y-70486090D01*
X103693408Y-70492498D01*
X103693426Y-70492499D01*
X103699999Y-70492498D01*
X103700000Y-70492498D01*
X103700000Y-69391500D01*
X103719685Y-69324461D01*
X103772489Y-69278706D01*
X103824000Y-69267500D01*
X104076000Y-69267500D01*
X104143039Y-69287185D01*
G37*
%TD.AperFunction*%
%TD*%
M02*
