M48
; DRILL file {KiCad 7.0.9} date Fri Jun 21 09:26:43 2024
; FORMAT={-:-/ absolute / inch / decimal}
; #@! TF.CreationDate,2024-06-21T09:26:43+09:00
; #@! TF.GenerationSoftware,Kicad,Pcbnew,7.0.9
; #@! TF.FileFunction,Plated,1,2,PTH
FMAT,2
INCH
; #@! TA.AperFunction,Plated,PTH,ComponentDrill
T1C0.0118
; #@! TA.AperFunction,Plated,PTH,ViaDrill
T2C0.0157
; #@! TA.AperFunction,Plated,PTH,ComponentDrill
T3C0.0315
; #@! TA.AperFunction,Plated,PTH,ComponentDrill
T4C0.0394
%
G90
G05
T1
X4.4Y-2.8
X4.4Y-2.8472
X4.4Y-2.8984
X4.4Y-2.9417
X4.4472Y-2.8
X4.4472Y-2.8472
X4.4472Y-2.8984
X4.4472Y-2.9417
T2
X4.075Y-2.775
X4.1Y-2.825
X4.5Y-2.475
X4.5Y-2.55
X4.5Y-2.625
X4.575Y-2.575
X4.575Y-2.65
X4.75Y-3.025
X4.75Y-3.2
X4.8Y-2.85
X4.8Y-2.975
X4.8Y-3.2
T3
X4.575Y-2.425
X4.6734Y-2.425
T4
X4.2498Y-3.0778
X4.3498Y-3.0778
X4.4498Y-3.0778
X4.5498Y-3.0778
X4.6498Y-3.0778
T0
M30
