%TF.GenerationSoftware,KiCad,Pcbnew,7.0.9*%
%TF.CreationDate,2024-06-25T21:06:51+09:00*%
%TF.ProjectId,04-line,30342d6c-696e-4652-9e6b-696361645f70,rev?*%
%TF.SameCoordinates,Original*%
%TF.FileFunction,Legend,Top*%
%TF.FilePolarity,Positive*%
%FSLAX46Y46*%
G04 Gerber Fmt 4.6, Leading zero omitted, Abs format (unit mm)*
G04 Created by KiCad (PCBNEW 7.0.9) date 2024-06-25 21:06:51*
%MOMM*%
%LPD*%
G01*
G04 APERTURE LIST*
G04 Aperture macros list*
%AMRoundRect*
0 Rectangle with rounded corners*
0 $1 Rounding radius*
0 $2 $3 $4 $5 $6 $7 $8 $9 X,Y pos of 4 corners*
0 Add a 4 corners polygon primitive as box body*
4,1,4,$2,$3,$4,$5,$6,$7,$8,$9,$2,$3,0*
0 Add four circle primitives for the rounded corners*
1,1,$1+$1,$2,$3*
1,1,$1+$1,$4,$5*
1,1,$1+$1,$6,$7*
1,1,$1+$1,$8,$9*
0 Add four rect primitives between the rounded corners*
20,1,$1+$1,$2,$3,$4,$5,0*
20,1,$1+$1,$4,$5,$6,$7,0*
20,1,$1+$1,$6,$7,$8,$9,0*
20,1,$1+$1,$8,$9,$2,$3,0*%
G04 Aperture macros list end*
%ADD10C,0.793420*%
%ADD11C,0.150000*%
%ADD12C,0.300000*%
%ADD13C,0.100000*%
%ADD14C,0.120000*%
%ADD15C,1.524000*%
%ADD16RoundRect,0.200000X0.275000X-0.200000X0.275000X0.200000X-0.275000X0.200000X-0.275000X-0.200000X0*%
%ADD17RoundRect,0.125000X-0.575000X-0.125000X0.575000X-0.125000X0.575000X0.125000X-0.575000X0.125000X0*%
%ADD18R,0.900000X1.500000*%
%ADD19R,1.500000X0.900000*%
%ADD20RoundRect,0.140000X-0.170000X0.140000X-0.170000X-0.140000X0.170000X-0.140000X0.170000X0.140000X0*%
%ADD21C,3.200000*%
%ADD22RoundRect,0.200000X-0.275000X0.200000X-0.275000X-0.200000X0.275000X-0.200000X0.275000X0.200000X0*%
%ADD23R,1.700000X1.700000*%
%ADD24O,1.700000X1.700000*%
G04 APERTURE END LIST*
D10*
X108600710Y-88000000D02*
G75*
G03*
X108600710Y-88000000I-396710J0D01*
G01*
D11*
X96266001Y-87630000D02*
G75*
G03*
X96266001Y-87630000I-1605122J0D01*
G01*
D10*
X95396710Y-88000000D02*
G75*
G03*
X95396710Y-88000000I-396710J0D01*
G01*
D11*
X110236001Y-87630000D02*
G75*
G03*
X110236001Y-87630000I-1605122J0D01*
G01*
X94742001Y-90169999D02*
G75*
G03*
X108353181Y-90296231I6857999J5587999D01*
G01*
D12*
G36*
X89646594Y-120034260D02*
G01*
X89675917Y-120035515D01*
X89733399Y-120040539D01*
X89789330Y-120048911D01*
X89843709Y-120060631D01*
X89896537Y-120075701D01*
X89947814Y-120094119D01*
X89997539Y-120115887D01*
X90045713Y-120141003D01*
X90092336Y-120169467D01*
X90137407Y-120201281D01*
X90180927Y-120236443D01*
X90222896Y-120274955D01*
X90263313Y-120316815D01*
X90282940Y-120339000D01*
X90302179Y-120362023D01*
X90321031Y-120385884D01*
X90339494Y-120410581D01*
X90357570Y-120436116D01*
X90375258Y-120462487D01*
X90394568Y-120489567D01*
X90413297Y-120517227D01*
X90431445Y-120545467D01*
X90449011Y-120574286D01*
X90465997Y-120603684D01*
X90482402Y-120633662D01*
X90498226Y-120664220D01*
X90513469Y-120695358D01*
X90528130Y-120727075D01*
X90542211Y-120759371D01*
X90555711Y-120792247D01*
X90568629Y-120825703D01*
X90580967Y-120859738D01*
X90592724Y-120894353D01*
X90603899Y-120929548D01*
X90614494Y-120965322D01*
X90624507Y-121001676D01*
X90633939Y-121038609D01*
X90642791Y-121076122D01*
X90651061Y-121114215D01*
X90658751Y-121152887D01*
X90665859Y-121192139D01*
X90672386Y-121231970D01*
X90678333Y-121272381D01*
X90683698Y-121313372D01*
X90688482Y-121354942D01*
X90692685Y-121397092D01*
X90696307Y-121439821D01*
X90699348Y-121483130D01*
X90701808Y-121527019D01*
X90703688Y-121571487D01*
X90704986Y-121616535D01*
X90707729Y-121668802D01*
X90709731Y-121720456D01*
X90710992Y-121771498D01*
X90711511Y-121821928D01*
X90711290Y-121871745D01*
X90710326Y-121920949D01*
X90708622Y-121969541D01*
X90706176Y-122017520D01*
X90702989Y-122064887D01*
X90699061Y-122111642D01*
X90694391Y-122157784D01*
X90688980Y-122203313D01*
X90682828Y-122248230D01*
X90675934Y-122292534D01*
X90668299Y-122336226D01*
X90659923Y-122379305D01*
X90650805Y-122421772D01*
X90640946Y-122463626D01*
X90630346Y-122504868D01*
X90619004Y-122545497D01*
X90606922Y-122585514D01*
X90594097Y-122624918D01*
X90580532Y-122663710D01*
X90566225Y-122701889D01*
X90551177Y-122739456D01*
X90535388Y-122776410D01*
X90518857Y-122812751D01*
X90501585Y-122848480D01*
X90483571Y-122883597D01*
X90464817Y-122918101D01*
X90445321Y-122951993D01*
X90425083Y-122985272D01*
X90405306Y-123016737D01*
X90385175Y-123047204D01*
X90364691Y-123076672D01*
X90343853Y-123105141D01*
X90322662Y-123132612D01*
X90301118Y-123159083D01*
X90279219Y-123184555D01*
X90256968Y-123209029D01*
X90234363Y-123232503D01*
X90211404Y-123254979D01*
X90188092Y-123276455D01*
X90164427Y-123296933D01*
X90140407Y-123316412D01*
X90116035Y-123334892D01*
X90091309Y-123352373D01*
X90066229Y-123368855D01*
X90040796Y-123384338D01*
X90015010Y-123398823D01*
X89988870Y-123412308D01*
X89935530Y-123436282D01*
X89880775Y-123456260D01*
X89824607Y-123472243D01*
X89795993Y-123478736D01*
X89767025Y-123484230D01*
X89737704Y-123488725D01*
X89708029Y-123492221D01*
X89678001Y-123494718D01*
X89647619Y-123496217D01*
X89616884Y-123496716D01*
X89587185Y-123496313D01*
X89557807Y-123495105D01*
X89500013Y-123490270D01*
X89443502Y-123482213D01*
X89388272Y-123470933D01*
X89334325Y-123456430D01*
X89281660Y-123438705D01*
X89230278Y-123417756D01*
X89180177Y-123393585D01*
X89131359Y-123366190D01*
X89083824Y-123335573D01*
X89037570Y-123301733D01*
X88992599Y-123264670D01*
X88970594Y-123244930D01*
X88948910Y-123224384D01*
X88927546Y-123203033D01*
X88906503Y-123180876D01*
X88885781Y-123157913D01*
X88865379Y-123134144D01*
X88845298Y-123109570D01*
X88825537Y-123084190D01*
X88805219Y-123057110D01*
X88785480Y-123029450D01*
X88766321Y-123001211D01*
X88747742Y-122972392D01*
X88729742Y-122942993D01*
X88712322Y-122913015D01*
X88695481Y-122882457D01*
X88679220Y-122851320D01*
X88663539Y-122819603D01*
X88648437Y-122787306D01*
X88633915Y-122754430D01*
X88619972Y-122720974D01*
X88606609Y-122686939D01*
X88593826Y-122652324D01*
X88581622Y-122617129D01*
X88569998Y-122581355D01*
X88558953Y-122545001D01*
X88548488Y-122508068D01*
X88538603Y-122470555D01*
X88529297Y-122432462D01*
X88520571Y-122393790D01*
X88512424Y-122354538D01*
X88504857Y-122314707D01*
X88497870Y-122274296D01*
X88491462Y-122233305D01*
X88485634Y-122191735D01*
X88480385Y-122149585D01*
X88475716Y-122106856D01*
X88471627Y-122063547D01*
X88468117Y-122019659D01*
X88465187Y-121975190D01*
X88462836Y-121930143D01*
X88462182Y-121877860D01*
X88462235Y-121826158D01*
X88462995Y-121775037D01*
X88463088Y-121771847D01*
X89001251Y-121771847D01*
X89001488Y-121804788D01*
X89002079Y-121837407D01*
X89003022Y-121869703D01*
X89004320Y-121901678D01*
X89005971Y-121933330D01*
X89007975Y-121964661D01*
X89010333Y-121995670D01*
X89013044Y-122026356D01*
X89016109Y-122056721D01*
X89019527Y-122086763D01*
X89023298Y-122116484D01*
X89027424Y-122145882D01*
X89031902Y-122174959D01*
X89041920Y-122232146D01*
X89053352Y-122288045D01*
X89066197Y-122342657D01*
X89080457Y-122395980D01*
X89096130Y-122448015D01*
X89113218Y-122498762D01*
X89122292Y-122523653D01*
X89141397Y-122571758D01*
X89161527Y-122617156D01*
X89182682Y-122659846D01*
X89204861Y-122699828D01*
X89228065Y-122737103D01*
X89252294Y-122771670D01*
X89277547Y-122803529D01*
X89303825Y-122832681D01*
X89331128Y-122859125D01*
X89359456Y-122882861D01*
X89388808Y-122903890D01*
X89419184Y-122922211D01*
X89450586Y-122937825D01*
X89483012Y-122950730D01*
X89516463Y-122960928D01*
X89550938Y-122968419D01*
X89587583Y-122973164D01*
X89623329Y-122974945D01*
X89658177Y-122973760D01*
X89692126Y-122969610D01*
X89725176Y-122962494D01*
X89757327Y-122952413D01*
X89788580Y-122939367D01*
X89818934Y-122923356D01*
X89848389Y-122904380D01*
X89876945Y-122882438D01*
X89904603Y-122857531D01*
X89931362Y-122829658D01*
X89957222Y-122798821D01*
X89982183Y-122765018D01*
X90006246Y-122728250D01*
X90029410Y-122688517D01*
X90045510Y-122654771D01*
X90060837Y-122619480D01*
X90075391Y-122582643D01*
X90089173Y-122544261D01*
X90102182Y-122504333D01*
X90114418Y-122462859D01*
X90125881Y-122419840D01*
X90136571Y-122375275D01*
X90146489Y-122329165D01*
X90155634Y-122281509D01*
X90164006Y-122232307D01*
X90171605Y-122181560D01*
X90178431Y-122129267D01*
X90184485Y-122075429D01*
X90189766Y-122020045D01*
X90194274Y-121963115D01*
X90196174Y-121929235D01*
X90197751Y-121895644D01*
X90199007Y-121862344D01*
X90199941Y-121829335D01*
X90200553Y-121796616D01*
X90200843Y-121764188D01*
X90200810Y-121732050D01*
X90200456Y-121700203D01*
X90199780Y-121668646D01*
X90198782Y-121637380D01*
X90197462Y-121606405D01*
X90195819Y-121575719D01*
X90193855Y-121545325D01*
X90191569Y-121515221D01*
X90188961Y-121485407D01*
X90186031Y-121455884D01*
X90182778Y-121426651D01*
X90175308Y-121369058D01*
X90166550Y-121312626D01*
X90156503Y-121257357D01*
X90145169Y-121203249D01*
X90132546Y-121150304D01*
X90118636Y-121098521D01*
X90103438Y-121047899D01*
X90095355Y-121023025D01*
X90076313Y-120970989D01*
X90056372Y-120922045D01*
X90035532Y-120876193D01*
X90013794Y-120833431D01*
X89991156Y-120793761D01*
X89967620Y-120757182D01*
X89943185Y-120723694D01*
X89917852Y-120693297D01*
X89891620Y-120665991D01*
X89864489Y-120641777D01*
X89836459Y-120620654D01*
X89807530Y-120602622D01*
X89777703Y-120587681D01*
X89746977Y-120575831D01*
X89715353Y-120567073D01*
X89682829Y-120561406D01*
X89644298Y-120556554D01*
X89606923Y-120554273D01*
X89570705Y-120554562D01*
X89535642Y-120557421D01*
X89501737Y-120562851D01*
X89468987Y-120570851D01*
X89437394Y-120581421D01*
X89406957Y-120594562D01*
X89377676Y-120610272D01*
X89349552Y-120628553D01*
X89322584Y-120649405D01*
X89296773Y-120672826D01*
X89272118Y-120698818D01*
X89248619Y-120727380D01*
X89226276Y-120758512D01*
X89205090Y-120792215D01*
X89184997Y-120830019D01*
X89165935Y-120869243D01*
X89147903Y-120909887D01*
X89130901Y-120951950D01*
X89114930Y-120995433D01*
X89099989Y-121040335D01*
X89086079Y-121086658D01*
X89073199Y-121134399D01*
X89061349Y-121183561D01*
X89050530Y-121234142D01*
X89040741Y-121286143D01*
X89031983Y-121339563D01*
X89024255Y-121394404D01*
X89017558Y-121450663D01*
X89011890Y-121508343D01*
X89009443Y-121537715D01*
X89007254Y-121567442D01*
X89005369Y-121602315D01*
X89003839Y-121636865D01*
X89002662Y-121671094D01*
X89001838Y-121705000D01*
X89001368Y-121738585D01*
X89001251Y-121771847D01*
X88463088Y-121771847D01*
X88464462Y-121724498D01*
X88466636Y-121674539D01*
X88469517Y-121625161D01*
X88473104Y-121576365D01*
X88477399Y-121528149D01*
X88482401Y-121480515D01*
X88488110Y-121433461D01*
X88494525Y-121386989D01*
X88501648Y-121341098D01*
X88509478Y-121295787D01*
X88518014Y-121251058D01*
X88527258Y-121206909D01*
X88537208Y-121163342D01*
X88547866Y-121120356D01*
X88559230Y-121077951D01*
X88571301Y-121036126D01*
X88584080Y-120994883D01*
X88597565Y-120954221D01*
X88611758Y-120914140D01*
X88626657Y-120874640D01*
X88642263Y-120835721D01*
X88658576Y-120797383D01*
X88675597Y-120759626D01*
X88693324Y-120722450D01*
X88711758Y-120685855D01*
X88730899Y-120649841D01*
X88750747Y-120614408D01*
X88771302Y-120579556D01*
X88792564Y-120545286D01*
X88812357Y-120513820D01*
X88832535Y-120483353D01*
X88853098Y-120453885D01*
X88874046Y-120425416D01*
X88895379Y-120397946D01*
X88917096Y-120371474D01*
X88939199Y-120346002D01*
X88961687Y-120321529D01*
X88984560Y-120298054D01*
X89007817Y-120275579D01*
X89031460Y-120254102D01*
X89055488Y-120233624D01*
X89079900Y-120214145D01*
X89104698Y-120195665D01*
X89129880Y-120178184D01*
X89155448Y-120161702D01*
X89181400Y-120146219D01*
X89207738Y-120131735D01*
X89234460Y-120118249D01*
X89261568Y-120105763D01*
X89289060Y-120094275D01*
X89316937Y-120083787D01*
X89345200Y-120074297D01*
X89373847Y-120065806D01*
X89402879Y-120058315D01*
X89432296Y-120051822D01*
X89462098Y-120046328D01*
X89492285Y-120041832D01*
X89522858Y-120038336D01*
X89553815Y-120035839D01*
X89585157Y-120034341D01*
X89616884Y-120033841D01*
X89646594Y-120034260D01*
G37*
G36*
X92983039Y-122193925D02*
G01*
X93362592Y-122193925D01*
X93362592Y-122721489D01*
X92983039Y-122721489D01*
X92983039Y-123463743D01*
X92455474Y-123463743D01*
X92455474Y-122721489D01*
X91186388Y-122721489D01*
X91186388Y-122177072D01*
X91598182Y-122177072D01*
X92455474Y-122177072D01*
X92455474Y-120825188D01*
X91598182Y-122177072D01*
X91186388Y-122177072D01*
X91186388Y-122012208D01*
X92422501Y-120066814D01*
X92983039Y-120066814D01*
X92983039Y-122193925D01*
G37*
G36*
X93926060Y-121567442D02*
G01*
X95788656Y-121567442D01*
X95788656Y-122029061D01*
X93926060Y-122029061D01*
X93926060Y-121567442D01*
G37*
G36*
X96418070Y-123463743D02*
G01*
X96418070Y-120066814D01*
X96929515Y-120066814D01*
X96929515Y-122919326D01*
X98297519Y-122919326D01*
X98297519Y-123463743D01*
X96418070Y-123463743D01*
G37*
G36*
X98648496Y-123479863D02*
G01*
X98648496Y-120050694D01*
X99192913Y-120050694D01*
X99192913Y-123479863D01*
X98648496Y-123479863D01*
G37*
G36*
X99665523Y-123463743D02*
G01*
X99665523Y-120066814D01*
X100259033Y-120066814D01*
X101331015Y-122374909D01*
X101331015Y-120066814D01*
X101858579Y-120066814D01*
X101858579Y-123463743D01*
X101314162Y-123463743D01*
X100193087Y-121105823D01*
X100193087Y-123463743D01*
X99665523Y-123463743D01*
G37*
G36*
X102320931Y-123463743D02*
G01*
X102320931Y-120066814D01*
X104167407Y-120066814D01*
X104167407Y-120578258D01*
X102848496Y-120578258D01*
X102848496Y-121418698D01*
X104019396Y-121418698D01*
X104019396Y-121946263D01*
X102848496Y-121946263D01*
X102848496Y-122952299D01*
X104200380Y-122952299D01*
X104200380Y-123463743D01*
X102320931Y-123463743D01*
G37*
G36*
X105794797Y-120907986D02*
G01*
X106305509Y-120907986D01*
X106718035Y-122622571D01*
X107113709Y-120907986D01*
X107641273Y-120907986D01*
X107014790Y-123463743D01*
X106404427Y-123463743D01*
X105794797Y-120907986D01*
G37*
G36*
X108861584Y-120892293D02*
G01*
X108905951Y-120895770D01*
X108949671Y-120901566D01*
X108992745Y-120909681D01*
X109035172Y-120920113D01*
X109076952Y-120932865D01*
X109118085Y-120947934D01*
X109158571Y-120965322D01*
X109198410Y-120985029D01*
X109237602Y-121007053D01*
X109276148Y-121031397D01*
X109314047Y-121058058D01*
X109351298Y-121087038D01*
X109387903Y-121118337D01*
X109423861Y-121151953D01*
X109459173Y-121187889D01*
X109480495Y-121211884D01*
X109501141Y-121236426D01*
X109521110Y-121261515D01*
X109540402Y-121287150D01*
X109559018Y-121313333D01*
X109576956Y-121340061D01*
X109594217Y-121367337D01*
X109610802Y-121395159D01*
X109626709Y-121423528D01*
X109641940Y-121452444D01*
X109656493Y-121481906D01*
X109670370Y-121511915D01*
X109683570Y-121542470D01*
X109696093Y-121573573D01*
X109707939Y-121605222D01*
X109719108Y-121637418D01*
X109729600Y-121670160D01*
X109739415Y-121703449D01*
X109748554Y-121737285D01*
X109757015Y-121771667D01*
X109764800Y-121806596D01*
X109771907Y-121842072D01*
X109778338Y-121878095D01*
X109784092Y-121914664D01*
X109789169Y-121951780D01*
X109793569Y-121989442D01*
X109797292Y-122027651D01*
X109800338Y-122066407D01*
X109802707Y-122105710D01*
X109804399Y-122145559D01*
X109805415Y-122185955D01*
X109805753Y-122226898D01*
X109805753Y-122374909D01*
X108420896Y-122374909D01*
X108423166Y-122404475D01*
X108428959Y-122461576D01*
X108436424Y-122515970D01*
X108445560Y-122567656D01*
X108456368Y-122616634D01*
X108468847Y-122662905D01*
X108482998Y-122706468D01*
X108498820Y-122747323D01*
X108516314Y-122785471D01*
X108535480Y-122820911D01*
X108556316Y-122853643D01*
X108578825Y-122883668D01*
X108603005Y-122910985D01*
X108628857Y-122935594D01*
X108656380Y-122957496D01*
X108685574Y-122976690D01*
X108700799Y-122985272D01*
X108737172Y-122999358D01*
X108772102Y-123010843D01*
X108805590Y-123019726D01*
X108837636Y-123026007D01*
X108868238Y-123029686D01*
X108906798Y-123030545D01*
X108942794Y-123026778D01*
X108976224Y-123018386D01*
X109007091Y-123005369D01*
X109014406Y-123001392D01*
X109047188Y-122981975D01*
X109077664Y-122960820D01*
X109105835Y-122937926D01*
X109131700Y-122913293D01*
X109155260Y-122886921D01*
X109176514Y-122858810D01*
X109195463Y-122828961D01*
X109212106Y-122797373D01*
X109226443Y-122764046D01*
X109238475Y-122728980D01*
X109245216Y-122704637D01*
X109755928Y-122704637D01*
X109739071Y-122753368D01*
X109721475Y-122800553D01*
X109703139Y-122846190D01*
X109684063Y-122890280D01*
X109664247Y-122932824D01*
X109643691Y-122973820D01*
X109622396Y-123013269D01*
X109600360Y-123051171D01*
X109577585Y-123087527D01*
X109554069Y-123122335D01*
X109529814Y-123155596D01*
X109504819Y-123187310D01*
X109479084Y-123217477D01*
X109452609Y-123246097D01*
X109425395Y-123273170D01*
X109397440Y-123298696D01*
X109368746Y-123322675D01*
X109339311Y-123345107D01*
X109309137Y-123365992D01*
X109278223Y-123385330D01*
X109246569Y-123403121D01*
X109214175Y-123419365D01*
X109181041Y-123434061D01*
X109147168Y-123447211D01*
X109112554Y-123458814D01*
X109077201Y-123468870D01*
X109041107Y-123477378D01*
X109004274Y-123484340D01*
X108966701Y-123489755D01*
X108928388Y-123493622D01*
X108889335Y-123495943D01*
X108849542Y-123496716D01*
X108802550Y-123495554D01*
X108756463Y-123492068D01*
X108711280Y-123486258D01*
X108667001Y-123478123D01*
X108623627Y-123467665D01*
X108581158Y-123454882D01*
X108539593Y-123439775D01*
X108498932Y-123422344D01*
X108459176Y-123402589D01*
X108420324Y-123380510D01*
X108382376Y-123356107D01*
X108345334Y-123329379D01*
X108309195Y-123300328D01*
X108273961Y-123268952D01*
X108239632Y-123235252D01*
X108206207Y-123199228D01*
X108174136Y-123161169D01*
X108143868Y-123121181D01*
X108115403Y-123079264D01*
X108088741Y-123035418D01*
X108063883Y-122989642D01*
X108040828Y-122941938D01*
X108019576Y-122892304D01*
X108000127Y-122840741D01*
X107982481Y-122787249D01*
X107966639Y-122731828D01*
X107959394Y-122703394D01*
X107952600Y-122674477D01*
X107946256Y-122645079D01*
X107940364Y-122615198D01*
X107934922Y-122584835D01*
X107929931Y-122553989D01*
X107925391Y-122522662D01*
X107921301Y-122490852D01*
X107917663Y-122458559D01*
X107914475Y-122425785D01*
X107911738Y-122392528D01*
X107909452Y-122358789D01*
X107907665Y-122323868D01*
X107906426Y-122289171D01*
X107905736Y-122254699D01*
X107905593Y-122220452D01*
X107905999Y-122186429D01*
X107906953Y-122152632D01*
X107908455Y-122119058D01*
X107910505Y-122085710D01*
X107913103Y-122052586D01*
X107916249Y-122019687D01*
X107919944Y-121987013D01*
X107924186Y-121954563D01*
X107927817Y-121930143D01*
X108420896Y-121930143D01*
X109278189Y-121930143D01*
X109274818Y-121898612D01*
X109270933Y-121867952D01*
X109266534Y-121838162D01*
X109261622Y-121809242D01*
X109250256Y-121754013D01*
X109236835Y-121702264D01*
X109221359Y-121653995D01*
X109203828Y-121609207D01*
X109184242Y-121567900D01*
X109162601Y-121530073D01*
X109138904Y-121495726D01*
X109113153Y-121464860D01*
X109085346Y-121437474D01*
X109055485Y-121413569D01*
X109023568Y-121393144D01*
X108989597Y-121376200D01*
X108953570Y-121362736D01*
X108915488Y-121352752D01*
X108878825Y-121348599D01*
X108843025Y-121348502D01*
X108808088Y-121352463D01*
X108774014Y-121360480D01*
X108740803Y-121372555D01*
X108708455Y-121388688D01*
X108676970Y-121408877D01*
X108646348Y-121433124D01*
X108616588Y-121461427D01*
X108587692Y-121493788D01*
X108568907Y-121517616D01*
X108548059Y-121549256D01*
X108528653Y-121582351D01*
X108510690Y-121616902D01*
X108494169Y-121652908D01*
X108479091Y-121690369D01*
X108465455Y-121729286D01*
X108453262Y-121769659D01*
X108442512Y-121811486D01*
X108436146Y-121840180D01*
X108430422Y-121869521D01*
X108425338Y-121899508D01*
X108420896Y-121930143D01*
X107927817Y-121930143D01*
X107928977Y-121922338D01*
X107934316Y-121890338D01*
X107940203Y-121858562D01*
X107946638Y-121827011D01*
X107953621Y-121795685D01*
X107961152Y-121764583D01*
X107969231Y-121733706D01*
X107977859Y-121703054D01*
X107987034Y-121672626D01*
X107996758Y-121642424D01*
X108007030Y-121612445D01*
X108017850Y-121582692D01*
X108029218Y-121553163D01*
X108041134Y-121523859D01*
X108053598Y-121494779D01*
X108066611Y-121465925D01*
X108080171Y-121437295D01*
X108094280Y-121408889D01*
X108108936Y-121380708D01*
X108124141Y-121352752D01*
X108140789Y-121324352D01*
X108157758Y-121296853D01*
X108175049Y-121270256D01*
X108192663Y-121244561D01*
X108210598Y-121219767D01*
X108228856Y-121195874D01*
X108247435Y-121172883D01*
X108285560Y-121129607D01*
X108324972Y-121089936D01*
X108365673Y-121053872D01*
X108407662Y-121021415D01*
X108450939Y-120992563D01*
X108495504Y-120967319D01*
X108541356Y-120945680D01*
X108588497Y-120927648D01*
X108636926Y-120913223D01*
X108686643Y-120902403D01*
X108737647Y-120895191D01*
X108789940Y-120891584D01*
X108816570Y-120891133D01*
X108861584Y-120892293D01*
G37*
G36*
X110205090Y-120907986D02*
G01*
X110699682Y-120907986D01*
X110699682Y-121237714D01*
X110718401Y-121209507D01*
X110737372Y-121182588D01*
X110756594Y-121156957D01*
X110776069Y-121132613D01*
X110795795Y-121109558D01*
X110815774Y-121087791D01*
X110846213Y-121057555D01*
X110877220Y-121030217D01*
X110908793Y-121005778D01*
X110940933Y-120984236D01*
X110973639Y-120965592D01*
X111006913Y-120949846D01*
X111029410Y-120940959D01*
X111062646Y-120929544D01*
X111096409Y-120920214D01*
X111130698Y-120912967D01*
X111165514Y-120907803D01*
X111200857Y-120904723D01*
X111236726Y-120903727D01*
X111273122Y-120904815D01*
X111310045Y-120907986D01*
X111310045Y-121418698D01*
X111227247Y-121418698D01*
X111184697Y-121420147D01*
X111143604Y-121424494D01*
X111103966Y-121431739D01*
X111065783Y-121441882D01*
X111029056Y-121454923D01*
X110993784Y-121470862D01*
X110959967Y-121489699D01*
X110927606Y-121511434D01*
X110896701Y-121536067D01*
X110867251Y-121563598D01*
X110848426Y-121583562D01*
X110830414Y-121606726D01*
X110813564Y-121630789D01*
X110797876Y-121655750D01*
X110783350Y-121681610D01*
X110769987Y-121708369D01*
X110757785Y-121736027D01*
X110746745Y-121764583D01*
X110736868Y-121794038D01*
X110728152Y-121824392D01*
X110720599Y-121855645D01*
X110714208Y-121887796D01*
X110708978Y-121920846D01*
X110704911Y-121954795D01*
X110702006Y-121989642D01*
X110700263Y-122025389D01*
X110699682Y-122062034D01*
X110699682Y-123463743D01*
X110205090Y-123463743D01*
X110205090Y-120907986D01*
G37*
G36*
X111880108Y-122994797D02*
G01*
X111915664Y-122997212D01*
X111950432Y-123004457D01*
X111984414Y-123016532D01*
X112011033Y-123029670D01*
X112037148Y-123045899D01*
X112062759Y-123065218D01*
X112087866Y-123087630D01*
X112094064Y-123093715D01*
X112117917Y-123120184D01*
X112137728Y-123148298D01*
X112153495Y-123178058D01*
X112165219Y-123209464D01*
X112172901Y-123242515D01*
X112176539Y-123277212D01*
X112176863Y-123291552D01*
X112174841Y-123326908D01*
X112168777Y-123360618D01*
X112158670Y-123392682D01*
X112144520Y-123423100D01*
X112126327Y-123451872D01*
X112104091Y-123478999D01*
X112094064Y-123489389D01*
X112069083Y-123512573D01*
X112043598Y-123532666D01*
X112017609Y-123549667D01*
X111991116Y-123563578D01*
X111957292Y-123576619D01*
X111922680Y-123584830D01*
X111887282Y-123588211D01*
X111880108Y-123588307D01*
X111844341Y-123585892D01*
X111809396Y-123578647D01*
X111775275Y-123566572D01*
X111748571Y-123553435D01*
X111722393Y-123537206D01*
X111696742Y-123517886D01*
X111671617Y-123495475D01*
X111665418Y-123489389D01*
X111641776Y-123462921D01*
X111622141Y-123434806D01*
X111606514Y-123405046D01*
X111594893Y-123373641D01*
X111587280Y-123340589D01*
X111583673Y-123305892D01*
X111583353Y-123291552D01*
X111585356Y-123256197D01*
X111591367Y-123222487D01*
X111601385Y-123190423D01*
X111615409Y-123160005D01*
X111633441Y-123131232D01*
X111655481Y-123104105D01*
X111665418Y-123093715D01*
X111690411Y-123070531D01*
X111715931Y-123050439D01*
X111741977Y-123033437D01*
X111768550Y-123019527D01*
X111802506Y-123006486D01*
X111837286Y-122998275D01*
X111872888Y-122994894D01*
X111880108Y-122994797D01*
G37*
G36*
X112715418Y-121253834D02*
G01*
X112715708Y-121219010D01*
X112716577Y-121184606D01*
X112718026Y-121150620D01*
X112720055Y-121117054D01*
X112722663Y-121083908D01*
X112725851Y-121051180D01*
X112729618Y-121018872D01*
X112733965Y-120986984D01*
X112738892Y-120955514D01*
X112744398Y-120924464D01*
X112750484Y-120893833D01*
X112757149Y-120863622D01*
X112764394Y-120833830D01*
X112772219Y-120804457D01*
X112780623Y-120775503D01*
X112789607Y-120746969D01*
X112799170Y-120718854D01*
X112809313Y-120691159D01*
X112831338Y-120637026D01*
X112855681Y-120584570D01*
X112882343Y-120533791D01*
X112911323Y-120484690D01*
X112942621Y-120437265D01*
X112976238Y-120391519D01*
X113012173Y-120347449D01*
X113049717Y-120309473D01*
X113088160Y-120273947D01*
X113127501Y-120240871D01*
X113167741Y-120210245D01*
X113208879Y-120182070D01*
X113250917Y-120156344D01*
X113293853Y-120133069D01*
X113337688Y-120112243D01*
X113382422Y-120093868D01*
X113428054Y-120077942D01*
X113474585Y-120064467D01*
X113522015Y-120053442D01*
X113570344Y-120044866D01*
X113619571Y-120038741D01*
X113669697Y-120035066D01*
X113720722Y-120033841D01*
X113764552Y-120034582D01*
X113807384Y-120036803D01*
X113849217Y-120040506D01*
X113890051Y-120045691D01*
X113929886Y-120052356D01*
X113968722Y-120060503D01*
X114006559Y-120070130D01*
X114043397Y-120081239D01*
X114079236Y-120093830D01*
X114114077Y-120107901D01*
X114147918Y-120123454D01*
X114180761Y-120140487D01*
X114212604Y-120159002D01*
X114243449Y-120178999D01*
X114273295Y-120200476D01*
X114302142Y-120223435D01*
X114329990Y-120247874D01*
X114356839Y-120273795D01*
X114382689Y-120301198D01*
X114407540Y-120330081D01*
X114431393Y-120360446D01*
X114454246Y-120392291D01*
X114476100Y-120425618D01*
X114496956Y-120460426D01*
X114516813Y-120496716D01*
X114535670Y-120534486D01*
X114553529Y-120573738D01*
X114570389Y-120614471D01*
X114586250Y-120656685D01*
X114601112Y-120700381D01*
X114614975Y-120745557D01*
X114627840Y-120792215D01*
X114640327Y-120842486D01*
X114651044Y-120892273D01*
X114659990Y-120941576D01*
X114667167Y-120990395D01*
X114672573Y-121038731D01*
X114676208Y-121086583D01*
X114678074Y-121133951D01*
X114678169Y-121180836D01*
X114676494Y-121227237D01*
X114673048Y-121273154D01*
X114667833Y-121318588D01*
X114660847Y-121363537D01*
X114652091Y-121408003D01*
X114641564Y-121451986D01*
X114629267Y-121495484D01*
X114615200Y-121538499D01*
X114599363Y-121581030D01*
X114581755Y-121623078D01*
X114562377Y-121664642D01*
X114541229Y-121705722D01*
X114518310Y-121746318D01*
X114493622Y-121786430D01*
X114467162Y-121826059D01*
X114438933Y-121865204D01*
X114408933Y-121903866D01*
X114377164Y-121942044D01*
X114343623Y-121979738D01*
X114308313Y-122016948D01*
X114271232Y-122053675D01*
X114232381Y-122089917D01*
X114191760Y-122125677D01*
X114149368Y-122160952D01*
X113753695Y-122506800D01*
X113717373Y-122539323D01*
X113682597Y-122570948D01*
X113649367Y-122601674D01*
X113617682Y-122631501D01*
X113587543Y-122660430D01*
X113558949Y-122688459D01*
X113531901Y-122715590D01*
X113506399Y-122741823D01*
X113482442Y-122767156D01*
X113460031Y-122791591D01*
X113439165Y-122815127D01*
X113419845Y-122837764D01*
X113393763Y-122870035D01*
X113371159Y-122900284D01*
X113358021Y-122919326D01*
X114693785Y-122919326D01*
X114693785Y-123463743D01*
X112715418Y-123463743D01*
X112714993Y-123416510D01*
X112715825Y-123369697D01*
X112717913Y-123323304D01*
X112721257Y-123277333D01*
X112725858Y-123231782D01*
X112731716Y-123186652D01*
X112738830Y-123141942D01*
X112747200Y-123097654D01*
X112756827Y-123053786D01*
X112767711Y-123010339D01*
X112779851Y-122967313D01*
X112793248Y-122924707D01*
X112807901Y-122882522D01*
X112823811Y-122840758D01*
X112840977Y-122799415D01*
X112859399Y-122758492D01*
X112879079Y-122717990D01*
X112900014Y-122677909D01*
X112922207Y-122638249D01*
X112945655Y-122599009D01*
X112970361Y-122560190D01*
X112996322Y-122521792D01*
X113023541Y-122483815D01*
X113052015Y-122446258D01*
X113081747Y-122409122D01*
X113112735Y-122372407D01*
X113144979Y-122336113D01*
X113178480Y-122300239D01*
X113213237Y-122264786D01*
X113249251Y-122229754D01*
X113286521Y-122195143D01*
X113325048Y-122160952D01*
X113786667Y-121765279D01*
X113810930Y-121743505D01*
X113834260Y-121721507D01*
X113856657Y-121699284D01*
X113878121Y-121676836D01*
X113898652Y-121654164D01*
X113918249Y-121631267D01*
X113936914Y-121608145D01*
X113954645Y-121584798D01*
X113987309Y-121537432D01*
X114016240Y-121489166D01*
X114041439Y-121440002D01*
X114062906Y-121389938D01*
X114080640Y-121338977D01*
X114094642Y-121287116D01*
X114104912Y-121234357D01*
X114111449Y-121180699D01*
X114114254Y-121126142D01*
X114113327Y-121070686D01*
X114108667Y-121014332D01*
X114100275Y-120957079D01*
X114091580Y-120926791D01*
X114081980Y-120897659D01*
X114071475Y-120869684D01*
X114054023Y-120829889D01*
X114034536Y-120792696D01*
X114013013Y-120758105D01*
X113989456Y-120726115D01*
X113963863Y-120696727D01*
X113936236Y-120669941D01*
X113906573Y-120645757D01*
X113874875Y-120624174D01*
X113852613Y-120611231D01*
X113821411Y-120594564D01*
X113789630Y-120581659D01*
X113757269Y-120572514D01*
X113724328Y-120567130D01*
X113690808Y-120565507D01*
X113656708Y-120567645D01*
X113622029Y-120573544D01*
X113586770Y-120583204D01*
X113550931Y-120596625D01*
X113514513Y-120613807D01*
X113489912Y-120627351D01*
X113459882Y-120647229D01*
X113431523Y-120669678D01*
X113404836Y-120694696D01*
X113379820Y-120722285D01*
X113356476Y-120752445D01*
X113334803Y-120785174D01*
X113314802Y-120820474D01*
X113296472Y-120858344D01*
X113279814Y-120898784D01*
X113264827Y-120941795D01*
X113251512Y-120987376D01*
X113239869Y-121035527D01*
X113229897Y-121086248D01*
X113221596Y-121139540D01*
X113214967Y-121195402D01*
X113210010Y-121253834D01*
X112715418Y-121253834D01*
G37*
D13*
%TO.C,U18*%
X134910000Y-97750000D02*
X135410000Y-97250000D01*
X134910000Y-105950000D02*
X139410000Y-105950000D01*
X139410000Y-105950000D02*
X139410000Y-97250000D01*
X139410000Y-97250000D02*
X134910000Y-97250000D01*
X134910000Y-97250000D02*
X134910000Y-105950000D01*
D14*
%TO.C,R7*%
X66787500Y-94662258D02*
X66787500Y-94187742D01*
X67832500Y-94662258D02*
X67832500Y-94187742D01*
D13*
%TO.C,U26*%
X84860000Y-79270000D02*
X87860000Y-79270000D01*
X87860000Y-79270000D02*
X87860000Y-83470000D01*
X87860000Y-83470000D02*
X84860000Y-83470000D01*
X84860000Y-83470000D02*
X84860000Y-79270000D01*
%TO.C,U12*%
X104430000Y-97750000D02*
X104930000Y-97250000D01*
X104430000Y-105950000D02*
X108930000Y-105950000D01*
X108930000Y-105950000D02*
X108930000Y-97250000D01*
X108930000Y-97250000D02*
X104430000Y-97250000D01*
X104430000Y-97250000D02*
X104430000Y-105950000D01*
D14*
%TO.C,D8*%
X81235000Y-77720000D02*
X81235000Y-85020000D01*
X75735000Y-77720000D02*
X75735000Y-85020000D01*
X75735000Y-85020000D02*
X76885000Y-85020000D01*
D13*
%TO.C,U13*%
X109510000Y-97750000D02*
X110010000Y-97250000D01*
X109510000Y-105950000D02*
X114010000Y-105950000D01*
X114010000Y-105950000D02*
X114010000Y-97250000D01*
X114010000Y-97250000D02*
X109510000Y-97250000D01*
X109510000Y-97250000D02*
X109510000Y-105950000D01*
%TO.C,U9*%
X99350000Y-97750000D02*
X99850000Y-97250000D01*
X99350000Y-105950000D02*
X103850000Y-105950000D01*
X103850000Y-105950000D02*
X103850000Y-97250000D01*
X103850000Y-97250000D02*
X99350000Y-97250000D01*
X99350000Y-97250000D02*
X99350000Y-105950000D01*
%TO.C,G\u002A\u002A\u002A*%
G36*
X127457892Y-120904953D02*
G01*
X127462530Y-120932223D01*
X127421317Y-121010697D01*
X127397201Y-121023684D01*
X127344747Y-120999427D01*
X127331872Y-120932223D01*
X127355953Y-120849330D01*
X127397201Y-120840762D01*
X127457892Y-120904953D01*
G37*
G36*
X129562493Y-121751190D02*
G01*
X129646476Y-121821892D01*
X129672834Y-121922429D01*
X129666379Y-121947306D01*
X129594425Y-122012904D01*
X129484657Y-122029052D01*
X129404986Y-121994911D01*
X129369555Y-121897892D01*
X129401162Y-121792885D01*
X129457818Y-121745976D01*
X129562493Y-121751190D01*
G37*
G36*
X127468605Y-121180106D02*
G01*
X127484224Y-121265703D01*
X127488523Y-121427366D01*
X127488662Y-121497893D01*
X127494832Y-121705792D01*
X127515878Y-121828866D01*
X127555603Y-121886229D01*
X127567057Y-121891863D01*
X127642744Y-121942890D01*
X127626511Y-121990961D01*
X127530500Y-122023264D01*
X127436399Y-122029754D01*
X127291037Y-122016808D01*
X127231139Y-121973896D01*
X127227345Y-121951358D01*
X127269180Y-121882069D01*
X127305740Y-121872963D01*
X127353017Y-121847157D01*
X127377357Y-121756603D01*
X127384135Y-121585515D01*
X127377735Y-121414399D01*
X127354417Y-121325807D01*
X127308006Y-121298286D01*
X127301385Y-121298066D01*
X127239999Y-121273559D01*
X127249628Y-121220252D01*
X127315090Y-121168473D01*
X127375163Y-121150707D01*
X127434605Y-121148974D01*
X127468605Y-121180106D01*
G37*
G36*
X131747630Y-121190311D02*
G01*
X131765724Y-121324763D01*
X131773987Y-121525655D01*
X131774259Y-121574292D01*
X131774259Y-122007307D01*
X131495317Y-122018979D01*
X131308237Y-122016324D01*
X131191340Y-121983966D01*
X131129473Y-121934627D01*
X131088330Y-121844961D01*
X131058705Y-121698641D01*
X131041908Y-121525647D01*
X131039247Y-121355959D01*
X131052032Y-121219557D01*
X131081572Y-121146421D01*
X131094835Y-121141276D01*
X131123708Y-121188478D01*
X131142689Y-121310016D01*
X131147098Y-121422935D01*
X131171005Y-121658917D01*
X131238278Y-121822864D01*
X131342243Y-121904372D01*
X131453851Y-121901262D01*
X131576126Y-121808686D01*
X131648078Y-121624706D01*
X131669732Y-121373059D01*
X131680256Y-121233985D01*
X131706841Y-121151273D01*
X131721995Y-121141276D01*
X131747630Y-121190311D01*
G37*
G36*
X135853207Y-121162661D02*
G01*
X135993246Y-121224032D01*
X136074242Y-121350894D01*
X136108577Y-121557395D01*
X136112119Y-121690042D01*
X136103235Y-121896925D01*
X136080893Y-122004384D01*
X136051553Y-122011346D01*
X136021678Y-121916740D01*
X135997730Y-121719491D01*
X135996965Y-121709150D01*
X135970885Y-121499645D01*
X135925358Y-121371680D01*
X135876168Y-121317175D01*
X135769919Y-121255712D01*
X135686119Y-121268016D01*
X135589485Y-121350330D01*
X135521892Y-121451045D01*
X135490345Y-121598210D01*
X135484958Y-121742305D01*
X135476367Y-121899722D01*
X135454204Y-122004130D01*
X135432695Y-122029754D01*
X135407059Y-121980720D01*
X135388964Y-121846277D01*
X135380703Y-121645408D01*
X135380432Y-121596880D01*
X135380432Y-121164007D01*
X135641744Y-121152637D01*
X135853207Y-121162661D01*
G37*
G36*
X126896175Y-120883468D02*
G01*
X126934400Y-120907121D01*
X126955285Y-120970610D01*
X126964073Y-121093623D01*
X126966003Y-121295851D01*
X126966028Y-121370870D01*
X126969268Y-121610040D01*
X126980959Y-121763748D01*
X127004063Y-121850914D01*
X127041538Y-121890460D01*
X127047736Y-121893134D01*
X127106921Y-121939799D01*
X127079750Y-121987344D01*
X126983285Y-122021483D01*
X126884549Y-122029754D01*
X126750483Y-122012145D01*
X126704865Y-121956268D01*
X126704712Y-121951358D01*
X126746547Y-121882069D01*
X126783107Y-121872963D01*
X126822300Y-121853997D01*
X126846288Y-121784959D01*
X126858283Y-121647638D01*
X126861502Y-121428725D01*
X126858155Y-121206629D01*
X126845971Y-121070698D01*
X126821738Y-121002723D01*
X126783107Y-120984486D01*
X126713556Y-120956265D01*
X126704712Y-120932223D01*
X126749437Y-120892935D01*
X126835370Y-120879959D01*
X126896175Y-120883468D01*
G37*
G36*
X136517250Y-120924685D02*
G01*
X136530226Y-121010618D01*
X136554724Y-121113075D01*
X136634753Y-121141276D01*
X136719879Y-121173955D01*
X136739279Y-121219671D01*
X136695708Y-121283516D01*
X136634753Y-121298066D01*
X136579821Y-121307936D01*
X136548351Y-121352447D01*
X136533958Y-121453948D01*
X136530255Y-121634789D01*
X136530226Y-121663910D01*
X136523320Y-121851579D01*
X136504812Y-121981256D01*
X136478013Y-122029753D01*
X136477963Y-122029754D01*
X136451038Y-121981489D01*
X136432473Y-121852462D01*
X136425699Y-121670005D01*
X136422369Y-121477742D01*
X136407748Y-121365337D01*
X136374890Y-121308213D01*
X136316848Y-121281793D01*
X136315914Y-121281548D01*
X136245395Y-121233004D01*
X136257115Y-121173348D01*
X136341519Y-121141464D01*
X136350389Y-121141276D01*
X136410122Y-121095748D01*
X136425699Y-121010618D01*
X136443590Y-120912399D01*
X136477963Y-120879959D01*
X136517250Y-120924685D01*
G37*
G36*
X128131306Y-120874537D02*
G01*
X128151547Y-120939756D01*
X128086882Y-121013705D01*
X128023938Y-121083865D01*
X128050493Y-121122783D01*
X128104111Y-121180229D01*
X128111947Y-121255656D01*
X128070170Y-121297678D01*
X128063559Y-121298066D01*
X128034938Y-121345321D01*
X128015955Y-121467217D01*
X128011296Y-121585515D01*
X128019888Y-121742932D01*
X128042051Y-121847340D01*
X128063559Y-121872963D01*
X128109926Y-121915295D01*
X128115823Y-121951358D01*
X128076156Y-122009341D01*
X127949561Y-122029612D01*
X127932901Y-122029754D01*
X127797609Y-122012754D01*
X127750310Y-121958498D01*
X127749979Y-121951358D01*
X127778200Y-121881808D01*
X127802242Y-121872963D01*
X127830864Y-121825709D01*
X127849847Y-121703813D01*
X127854506Y-121585515D01*
X127845914Y-121428098D01*
X127823751Y-121323690D01*
X127802242Y-121298066D01*
X127753884Y-121263001D01*
X127770979Y-121177221D01*
X127815308Y-121109193D01*
X127947576Y-120954229D01*
X128035157Y-120872767D01*
X128093859Y-120853067D01*
X128131306Y-120874537D01*
G37*
G36*
X134315312Y-115925020D02*
G01*
X134593675Y-115928845D01*
X134799551Y-115935314D01*
X134940945Y-115944625D01*
X135025862Y-115956978D01*
X135062310Y-115972572D01*
X135065113Y-115979675D01*
X135045292Y-116040963D01*
X134989466Y-116188035D01*
X134901924Y-116410229D01*
X134786953Y-116696879D01*
X134648837Y-117037321D01*
X134491866Y-117420891D01*
X134320324Y-117836923D01*
X134261323Y-117979342D01*
X133459270Y-119913087D01*
X132580986Y-119927460D01*
X131702703Y-119941833D01*
X131916017Y-119787309D01*
X132217242Y-119513799D01*
X132422819Y-119198431D01*
X132533441Y-118839892D01*
X132554768Y-118580371D01*
X132548096Y-118403967D01*
X132520883Y-118245635D01*
X132464602Y-118092527D01*
X132370727Y-117931790D01*
X132230729Y-117750576D01*
X132036082Y-117536034D01*
X131778259Y-117275314D01*
X131525739Y-117029630D01*
X130702860Y-116236707D01*
X130783245Y-116088889D01*
X130863631Y-115941070D01*
X132965241Y-115927412D01*
X133509101Y-115924502D01*
X133956456Y-115923639D01*
X134315312Y-115925020D01*
G37*
G36*
X128757961Y-121162564D02*
G01*
X128964401Y-121249543D01*
X129098474Y-121411165D01*
X129137329Y-121520186D01*
X129172422Y-121663910D01*
X128800912Y-121663910D01*
X128583242Y-121671744D01*
X128464922Y-121697490D01*
X128441792Y-121744515D01*
X128509690Y-121816187D01*
X128564982Y-121854862D01*
X128661056Y-121908864D01*
X128740181Y-121911762D01*
X128851242Y-121862437D01*
X128878875Y-121847669D01*
X129016843Y-121787062D01*
X129083290Y-121786312D01*
X129070296Y-121840611D01*
X128997901Y-121919972D01*
X128826873Y-122014475D01*
X128633301Y-122022437D01*
X128451651Y-121944925D01*
X128400896Y-121901471D01*
X128290104Y-121729417D01*
X128280132Y-121544057D01*
X128320324Y-121460923D01*
X128442895Y-121460923D01*
X128532957Y-121494966D01*
X128715211Y-121507120D01*
X128880044Y-121502063D01*
X128960248Y-121482865D01*
X128975408Y-121443483D01*
X128970763Y-121428274D01*
X128890249Y-121347795D01*
X128752582Y-121311038D01*
X128599035Y-121326536D01*
X128556207Y-121342576D01*
X128449405Y-121408843D01*
X128442895Y-121460923D01*
X128320324Y-121460923D01*
X128370381Y-121357384D01*
X128431497Y-121287932D01*
X128549953Y-121186073D01*
X128652418Y-121151864D01*
X128757961Y-121162564D01*
G37*
G36*
X130784991Y-121185833D02*
G01*
X130817630Y-121318197D01*
X130832868Y-121524870D01*
X130833518Y-121585515D01*
X130822987Y-121812233D01*
X130793679Y-121962693D01*
X130749024Y-122028259D01*
X130692451Y-122000297D01*
X130677418Y-121978606D01*
X130629353Y-121943849D01*
X130601781Y-121971910D01*
X130530678Y-122009293D01*
X130399725Y-122028898D01*
X130364709Y-122029754D01*
X130204808Y-122009046D01*
X130083489Y-121929508D01*
X130028082Y-121868953D01*
X129916667Y-121684209D01*
X129910712Y-121564199D01*
X130050967Y-121564199D01*
X130087685Y-121716543D01*
X130181081Y-121846332D01*
X130312516Y-121919386D01*
X130363148Y-121925227D01*
X130476922Y-121889756D01*
X130572201Y-121820700D01*
X130668594Y-121665390D01*
X130667141Y-121506735D01*
X130571598Y-121365950D01*
X130480740Y-121304052D01*
X130332569Y-121278954D01*
X130181418Y-121333646D01*
X130089565Y-121423483D01*
X130050967Y-121564199D01*
X129910712Y-121564199D01*
X129908071Y-121510964D01*
X130002557Y-121340498D01*
X130045547Y-121294046D01*
X130219815Y-121175573D01*
X130406484Y-121140818D01*
X130570822Y-121191581D01*
X130655898Y-121208530D01*
X130682571Y-121184085D01*
X130738716Y-121137791D01*
X130784991Y-121185833D01*
G37*
G36*
X134942249Y-121182455D02*
G01*
X135095391Y-121287751D01*
X135198220Y-121429803D01*
X135223642Y-121540378D01*
X135217427Y-121604667D01*
X135183717Y-121641620D01*
X135099915Y-121658781D01*
X134943420Y-121663688D01*
X134853443Y-121663910D01*
X134637636Y-121673178D01*
X134523054Y-121702265D01*
X134507937Y-121753093D01*
X134590524Y-121827586D01*
X134663303Y-121871721D01*
X134761482Y-121916310D01*
X134841674Y-121907121D01*
X134950802Y-121837452D01*
X134962229Y-121829035D01*
X135095809Y-121747893D01*
X135177977Y-121729763D01*
X135195495Y-121769076D01*
X135135126Y-121860266D01*
X135106940Y-121889890D01*
X134927334Y-122005812D01*
X134729390Y-122030583D01*
X134540416Y-121963712D01*
X134463447Y-121901471D01*
X134356728Y-121732678D01*
X134334672Y-121548022D01*
X134360626Y-121461256D01*
X134491954Y-121461256D01*
X134539217Y-121486375D01*
X134661133Y-121503033D01*
X134779403Y-121507120D01*
X134936832Y-121499579D01*
X135041241Y-121480126D01*
X135066851Y-121461256D01*
X135021363Y-121378561D01*
X134911311Y-121311717D01*
X134779403Y-121285000D01*
X134644539Y-121312893D01*
X134535525Y-121380373D01*
X134491954Y-121461256D01*
X134360626Y-121461256D01*
X134387100Y-121372750D01*
X134503834Y-121232114D01*
X134674695Y-121151362D01*
X134769900Y-121141276D01*
X134942249Y-121182455D01*
G37*
G36*
X138682779Y-120896833D02*
G01*
X138706089Y-120958730D01*
X138719252Y-121082559D01*
X138724699Y-121285231D01*
X138725288Y-121425640D01*
X138719641Y-121699082D01*
X138703387Y-121892307D01*
X138677557Y-121995009D01*
X138667181Y-122007233D01*
X138592893Y-122006261D01*
X138574341Y-121986945D01*
X138507047Y-121959775D01*
X138462591Y-121979449D01*
X138286688Y-122034002D01*
X138099830Y-122000815D01*
X137935577Y-121886719D01*
X137919851Y-121868953D01*
X137808437Y-121684209D01*
X137806125Y-121637616D01*
X137945025Y-121637616D01*
X138014205Y-121785313D01*
X138045864Y-121820700D01*
X138159638Y-121899003D01*
X138254917Y-121925227D01*
X138368691Y-121889756D01*
X138463971Y-121820700D01*
X138555918Y-121668297D01*
X138548587Y-121509265D01*
X138443518Y-121364570D01*
X138429627Y-121353207D01*
X138277280Y-121282171D01*
X138136055Y-121295306D01*
X138022542Y-121372400D01*
X137953335Y-121493241D01*
X137945025Y-121637616D01*
X137806125Y-121637616D01*
X137799840Y-121510964D01*
X137894327Y-121340498D01*
X137937317Y-121294046D01*
X138121362Y-121169570D01*
X138317831Y-121145603D01*
X138467407Y-121195378D01*
X138534521Y-121220136D01*
X138562801Y-121181994D01*
X138568498Y-121064720D01*
X138585150Y-120928702D01*
X138638470Y-120880424D01*
X138646893Y-120879959D01*
X138682779Y-120896833D01*
G37*
G36*
X137429414Y-121184753D02*
G01*
X137575014Y-121295566D01*
X137665364Y-121444287D01*
X137680020Y-121530876D01*
X137674953Y-121600234D01*
X137644596Y-121639998D01*
X137566218Y-121658393D01*
X137417090Y-121663644D01*
X137312338Y-121663910D01*
X137122019Y-121665823D01*
X137017182Y-121675648D01*
X136978796Y-121699511D01*
X136987832Y-121743541D01*
X136998702Y-121764897D01*
X137107961Y-121879760D01*
X137253277Y-121901775D01*
X137418763Y-121828802D01*
X137427273Y-121822628D01*
X137558439Y-121744036D01*
X137636993Y-121730107D01*
X137649558Y-121774226D01*
X137582755Y-121869780D01*
X137563318Y-121889890D01*
X137399690Y-121995103D01*
X137211979Y-122030155D01*
X137039059Y-121990051D01*
X136996067Y-121962762D01*
X136872565Y-121817507D01*
X136799788Y-121634420D01*
X136791543Y-121558799D01*
X136820079Y-121472530D01*
X136981140Y-121472530D01*
X137035441Y-121497631D01*
X137166376Y-121506585D01*
X137237422Y-121507120D01*
X137394329Y-121498680D01*
X137498140Y-121476921D01*
X137523230Y-121456061D01*
X137483863Y-121392986D01*
X137399626Y-121324014D01*
X137255513Y-121278379D01*
X137108790Y-121303661D01*
X137001182Y-121389769D01*
X136983233Y-121424721D01*
X136981140Y-121472530D01*
X136820079Y-121472530D01*
X136836657Y-121422414D01*
X136950385Y-121288125D01*
X137100302Y-121184813D01*
X137253987Y-121141361D01*
X137260268Y-121141276D01*
X137429414Y-121184753D01*
G37*
G36*
X137380165Y-115913793D02*
G01*
X137599871Y-115921842D01*
X137770714Y-115935703D01*
X137871317Y-115955507D01*
X137889074Y-115970180D01*
X137869781Y-116030139D01*
X137815021Y-116174883D01*
X137729473Y-116392686D01*
X137617816Y-116671824D01*
X137484730Y-117000570D01*
X137334892Y-117367200D01*
X137226905Y-117629542D01*
X137045278Y-118068507D01*
X136897395Y-118422095D01*
X136777568Y-118701729D01*
X136680109Y-118918836D01*
X136599330Y-119084840D01*
X136529541Y-119211167D01*
X136465054Y-119309243D01*
X136400181Y-119390492D01*
X136329234Y-119466340D01*
X136295701Y-119499883D01*
X136060228Y-119699990D01*
X135814424Y-119833148D01*
X135531068Y-119909251D01*
X135182935Y-119938192D01*
X135086757Y-119939219D01*
X134885284Y-119934791D01*
X134727611Y-119923010D01*
X134639911Y-119906126D01*
X134630905Y-119900021D01*
X134645910Y-119846842D01*
X134696156Y-119709757D01*
X134776527Y-119501279D01*
X134881910Y-119233924D01*
X135007188Y-118920207D01*
X135147249Y-118572644D01*
X135296977Y-118203751D01*
X135451258Y-117826041D01*
X135604977Y-117452031D01*
X135753019Y-117094235D01*
X135890270Y-116765169D01*
X136011615Y-116477349D01*
X136111940Y-116243288D01*
X136186130Y-116075504D01*
X136229070Y-115986510D01*
X136232796Y-115980268D01*
X136296807Y-115956177D01*
X136440205Y-115937117D01*
X136641615Y-115923218D01*
X136879661Y-115914612D01*
X137132970Y-115911426D01*
X137380165Y-115913793D01*
G37*
G36*
X133945937Y-121157942D02*
G01*
X134086826Y-121241002D01*
X134124628Y-121281920D01*
X134193121Y-121396633D01*
X134221193Y-121535133D01*
X134219882Y-121708964D01*
X134196421Y-121908207D01*
X134159563Y-122011540D01*
X134119833Y-122017859D01*
X134087762Y-121926062D01*
X134073876Y-121735046D01*
X134073847Y-121724262D01*
X134059403Y-121496044D01*
X134014487Y-121357040D01*
X133991719Y-121327931D01*
X133913747Y-121260261D01*
X133847062Y-121256671D01*
X133756831Y-121299905D01*
X133700214Y-121347989D01*
X133669225Y-121433258D01*
X133656983Y-121582399D01*
X133655740Y-121691880D01*
X133650457Y-121881842D01*
X133631589Y-121987187D01*
X133594607Y-122027432D01*
X133577345Y-122029754D01*
X133533269Y-122006984D01*
X133508827Y-121925664D01*
X133499489Y-121766278D01*
X133498950Y-121691880D01*
X133493629Y-121499803D01*
X133473079Y-121385232D01*
X133430417Y-121321483D01*
X133397859Y-121299905D01*
X133296984Y-121253575D01*
X133232013Y-121265693D01*
X133162971Y-121327931D01*
X133106434Y-121441437D01*
X133082156Y-121641993D01*
X133080843Y-121719906D01*
X133072824Y-121885409D01*
X133051921Y-121997451D01*
X133028580Y-122029754D01*
X133002948Y-121980718D01*
X132984854Y-121846259D01*
X132976589Y-121645346D01*
X132976316Y-121596620D01*
X132976316Y-121163487D01*
X133193383Y-121154831D01*
X133357332Y-121162183D01*
X133491020Y-121191275D01*
X133512574Y-121200831D01*
X133620953Y-121227345D01*
X133671804Y-121198381D01*
X133794808Y-121141375D01*
X133945937Y-121157942D01*
G37*
G36*
X132762522Y-121190599D02*
G01*
X132795314Y-121301136D01*
X132815906Y-121456926D01*
X132822240Y-121638270D01*
X132812255Y-121825468D01*
X132783891Y-121998820D01*
X132761766Y-122075321D01*
X132656910Y-122241305D01*
X132500073Y-122332602D01*
X132316811Y-122344627D01*
X132132680Y-122272792D01*
X132047751Y-122203470D01*
X131970113Y-122096546D01*
X131975196Y-122037072D01*
X132045573Y-122042574D01*
X132141395Y-122109318D01*
X132282231Y-122183605D01*
X132438450Y-122191364D01*
X132567627Y-122133028D01*
X132593331Y-122104692D01*
X132655289Y-121997079D01*
X132644312Y-121951063D01*
X132562501Y-121975194D01*
X132561645Y-121975651D01*
X132373277Y-122029925D01*
X132199870Y-122000856D01*
X132055173Y-121907696D01*
X131952939Y-121769699D01*
X131914984Y-121634787D01*
X132044631Y-121634787D01*
X132109819Y-121780494D01*
X132204296Y-121860933D01*
X132352791Y-121914449D01*
X132462947Y-121896358D01*
X132561375Y-121817534D01*
X132644955Y-121671118D01*
X132634274Y-121511964D01*
X132532678Y-121364736D01*
X132495872Y-121334462D01*
X132393267Y-121267217D01*
X132318572Y-121263122D01*
X132218689Y-121319267D01*
X132218680Y-121319272D01*
X132112039Y-121406349D01*
X132053262Y-121484150D01*
X132044631Y-121634787D01*
X131914984Y-121634787D01*
X131906918Y-121606115D01*
X131930861Y-121436196D01*
X132038519Y-121279195D01*
X132054169Y-121265162D01*
X132227816Y-121167799D01*
X132413944Y-121145288D01*
X132556830Y-121191581D01*
X132641906Y-121208530D01*
X132668579Y-121184085D01*
X132719590Y-121145015D01*
X132762522Y-121190599D01*
G37*
G36*
X135055998Y-113931339D02*
G01*
X135684114Y-113932360D01*
X136273956Y-113934221D01*
X136817726Y-113936853D01*
X137307624Y-113940191D01*
X137735853Y-113944167D01*
X138094613Y-113948714D01*
X138376104Y-113953765D01*
X138572528Y-113959253D01*
X138676087Y-113965111D01*
X138690587Y-113968128D01*
X138684004Y-114032802D01*
X138645082Y-114162928D01*
X138585239Y-114329035D01*
X138515895Y-114501648D01*
X138448469Y-114651294D01*
X138394380Y-114748501D01*
X138382697Y-114762797D01*
X138319655Y-114773659D01*
X138154765Y-114783764D01*
X137890702Y-114793066D01*
X137530141Y-114801520D01*
X137075759Y-114809082D01*
X136530230Y-114815705D01*
X135896231Y-114821344D01*
X135176437Y-114825955D01*
X134464522Y-114829161D01*
X133736973Y-114831901D01*
X133106545Y-114834488D01*
X132565832Y-114837154D01*
X132107431Y-114840134D01*
X131723936Y-114843662D01*
X131407942Y-114847971D01*
X131152043Y-114853296D01*
X130948836Y-114859870D01*
X130790915Y-114867928D01*
X130670875Y-114877703D01*
X130581310Y-114889429D01*
X130514817Y-114903340D01*
X130463990Y-114919670D01*
X130421423Y-114938653D01*
X130384331Y-114958053D01*
X130137524Y-115134331D01*
X129915732Y-115371987D01*
X129756103Y-115630659D01*
X129747656Y-115649821D01*
X129684217Y-115890438D01*
X129665438Y-116180621D01*
X129691126Y-116475521D01*
X129752234Y-116708238D01*
X129800433Y-116808810D01*
X129876238Y-116921723D01*
X129989823Y-117058395D01*
X130151361Y-117230245D01*
X130371025Y-117448695D01*
X130653499Y-117719949D01*
X130942928Y-117997994D01*
X131161053Y-118216345D01*
X131314715Y-118384730D01*
X131410753Y-118512878D01*
X131456005Y-118610518D01*
X131457312Y-118687380D01*
X131421512Y-118753191D01*
X131397963Y-118778972D01*
X131351322Y-118796291D01*
X131244672Y-118810460D01*
X131071023Y-118821694D01*
X130823386Y-118830207D01*
X130494772Y-118836214D01*
X130078191Y-118839929D01*
X129566654Y-118841566D01*
X129353595Y-118841688D01*
X128845965Y-118841448D01*
X128433270Y-118840431D01*
X128105919Y-118838187D01*
X127854319Y-118834268D01*
X127668880Y-118828224D01*
X127540010Y-118819608D01*
X127458119Y-118807971D01*
X127413613Y-118792863D01*
X127396902Y-118773837D01*
X127398395Y-118750443D01*
X127398458Y-118750227D01*
X127433999Y-118650102D01*
X127504813Y-118469314D01*
X127605503Y-118220565D01*
X127730673Y-117916554D01*
X127874929Y-117569982D01*
X128032873Y-117193551D01*
X128199109Y-116799961D01*
X128368243Y-116401913D01*
X128534878Y-116012108D01*
X128693617Y-115643246D01*
X128839066Y-115308029D01*
X128965828Y-115019156D01*
X129068507Y-114789330D01*
X129141708Y-114631250D01*
X129179109Y-114558977D01*
X129358604Y-114355232D01*
X129603637Y-114167732D01*
X129875917Y-114024785D01*
X129929257Y-114004395D01*
X129983593Y-113991175D01*
X130071871Y-113979594D01*
X130200376Y-113969550D01*
X130375392Y-113960940D01*
X130603203Y-113953662D01*
X130890095Y-113947612D01*
X131242352Y-113942687D01*
X131666257Y-113938785D01*
X132168097Y-113935803D01*
X132754154Y-113933637D01*
X133430715Y-113932184D01*
X134204063Y-113931343D01*
X134397409Y-113931224D01*
X135055998Y-113931339D01*
G37*
%TO.C,U10*%
X99350000Y-77520000D02*
X99850000Y-77020000D01*
X99350000Y-85720000D02*
X103850000Y-85720000D01*
X103850000Y-85720000D02*
X103850000Y-77020000D01*
X103850000Y-77020000D02*
X99350000Y-77020000D01*
X99350000Y-77020000D02*
X99350000Y-85720000D01*
D14*
%TO.C,R22*%
X122667500Y-94662258D02*
X122667500Y-94187742D01*
X123712500Y-94662258D02*
X123712500Y-94187742D01*
%TO.C,D1*%
X113190000Y-86150000D02*
X120490000Y-86150000D01*
X113190000Y-91650000D02*
X120490000Y-91650000D01*
X120490000Y-91650000D02*
X120490000Y-90500000D01*
%TO.C,R19*%
X107427500Y-94662258D02*
X107427500Y-94187742D01*
X108472500Y-94662258D02*
X108472500Y-94187742D01*
%TO.C,C3*%
X128630000Y-81172164D02*
X128630000Y-81387836D01*
X127910000Y-81172164D02*
X127910000Y-81387836D01*
%TO.C,R30*%
X110057500Y-113267258D02*
X110057500Y-112792742D01*
X111102500Y-113267258D02*
X111102500Y-112792742D01*
%TO.C,R4*%
X82027500Y-94662258D02*
X82027500Y-94187742D01*
X83072500Y-94662258D02*
X83072500Y-94187742D01*
%TO.C,D4*%
X111970000Y-77720000D02*
X111970000Y-85020000D01*
X106470000Y-77720000D02*
X106470000Y-85020000D01*
X106470000Y-85020000D02*
X107620000Y-85020000D01*
%TO.C,R12*%
X92187500Y-113267258D02*
X92187500Y-112792742D01*
X93232500Y-113267258D02*
X93232500Y-112792742D01*
D13*
%TO.C,U17*%
X129830000Y-97750000D02*
X130330000Y-97250000D01*
X129830000Y-105950000D02*
X134330000Y-105950000D01*
X134330000Y-105950000D02*
X134330000Y-97250000D01*
X134330000Y-97250000D02*
X129830000Y-97250000D01*
X129830000Y-97250000D02*
X129830000Y-105950000D01*
D14*
%TO.C,R15*%
X84567500Y-113267258D02*
X84567500Y-112792742D01*
X85612500Y-113267258D02*
X85612500Y-112792742D01*
%TO.C,R17*%
X99807500Y-113267258D02*
X99807500Y-112792742D01*
X100852500Y-113267258D02*
X100852500Y-112792742D01*
%TO.C,C6*%
X75290000Y-80692164D02*
X75290000Y-80907836D01*
X74570000Y-80692164D02*
X74570000Y-80907836D01*
%TO.C,R20*%
X112507500Y-94662258D02*
X112507500Y-94187742D01*
X113552500Y-94662258D02*
X113552500Y-94187742D01*
%TO.C,R29*%
X107397500Y-113267258D02*
X107397500Y-112792742D01*
X108442500Y-113267258D02*
X108442500Y-112792742D01*
%TO.C,R31*%
X112567500Y-113267258D02*
X112567500Y-112792742D01*
X113612500Y-113267258D02*
X113612500Y-112792742D01*
D13*
%TO.C,U8*%
X63790000Y-97750000D02*
X64290000Y-97250000D01*
X63790000Y-105950000D02*
X68290000Y-105950000D01*
X68290000Y-105950000D02*
X68290000Y-97250000D01*
X68290000Y-97250000D02*
X63790000Y-97250000D01*
X63790000Y-97250000D02*
X63790000Y-105950000D01*
%TO.C,U4*%
X84110000Y-97750000D02*
X84610000Y-97250000D01*
X84110000Y-105950000D02*
X88610000Y-105950000D01*
X88610000Y-105950000D02*
X88610000Y-97250000D01*
X88610000Y-97250000D02*
X84110000Y-97250000D01*
X84110000Y-97250000D02*
X84110000Y-105950000D01*
D14*
%TO.C,R33*%
X117587500Y-113267258D02*
X117587500Y-112792742D01*
X118632500Y-113267258D02*
X118632500Y-112792742D01*
%TO.C,R28*%
X104887500Y-113267258D02*
X104887500Y-112792742D01*
X105932500Y-113267258D02*
X105932500Y-112792742D01*
D13*
%TO.C,U15*%
X119670000Y-97750000D02*
X120170000Y-97250000D01*
X119670000Y-105950000D02*
X124170000Y-105950000D01*
X124170000Y-105950000D02*
X124170000Y-97250000D01*
X124170000Y-97250000D02*
X119670000Y-97250000D01*
X119670000Y-97250000D02*
X119670000Y-105950000D01*
D14*
%TO.C,D6*%
X91230000Y-85020000D02*
X91230000Y-77720000D01*
X96730000Y-85020000D02*
X96730000Y-77720000D01*
X96730000Y-77720000D02*
X95580000Y-77720000D01*
%TO.C,D5*%
X82710000Y-86150000D02*
X90010000Y-86150000D01*
X82710000Y-91650000D02*
X90010000Y-91650000D01*
X90010000Y-91650000D02*
X90010000Y-90500000D01*
%TO.C,R34*%
X120097500Y-113267258D02*
X120097500Y-112792742D01*
X121142500Y-113267258D02*
X121142500Y-112792742D01*
D13*
%TO.C,U3*%
X89190000Y-97750000D02*
X89690000Y-97250000D01*
X89190000Y-105950000D02*
X93690000Y-105950000D01*
X93690000Y-105950000D02*
X93690000Y-97250000D01*
X93690000Y-97250000D02*
X89190000Y-97250000D01*
X89190000Y-97250000D02*
X89190000Y-105950000D01*
D14*
%TO.C,R18*%
X102347500Y-113267258D02*
X102347500Y-112792742D01*
X103392500Y-113267258D02*
X103392500Y-112792742D01*
%TO.C,R5*%
X76947500Y-94662258D02*
X76947500Y-94187742D01*
X77992500Y-94662258D02*
X77992500Y-94187742D01*
D13*
%TO.C,U25*%
X115340000Y-79270000D02*
X118340000Y-79270000D01*
X118340000Y-79270000D02*
X118340000Y-83470000D01*
X118340000Y-83470000D02*
X115340000Y-83470000D01*
X115340000Y-83470000D02*
X115340000Y-79270000D01*
D14*
%TO.C,R14*%
X87107500Y-113267258D02*
X87107500Y-112792742D01*
X88152500Y-113267258D02*
X88152500Y-112792742D01*
%TO.C,R25*%
X137907500Y-94662258D02*
X137907500Y-94187742D01*
X138952500Y-94662258D02*
X138952500Y-94187742D01*
%TO.C,R10*%
X97267500Y-113267258D02*
X97267500Y-112792742D01*
X98312500Y-113267258D02*
X98312500Y-112792742D01*
D13*
%TO.C,U5*%
X79030000Y-97750000D02*
X79530000Y-97250000D01*
X79030000Y-105950000D02*
X83530000Y-105950000D01*
X83530000Y-105950000D02*
X83530000Y-97250000D01*
X83530000Y-97250000D02*
X79030000Y-97250000D01*
X79030000Y-97250000D02*
X79030000Y-105950000D01*
%TO.C,U7*%
X68870000Y-97750000D02*
X69370000Y-97250000D01*
X68870000Y-105950000D02*
X73370000Y-105950000D01*
X73370000Y-105950000D02*
X73370000Y-97250000D01*
X73370000Y-97250000D02*
X68870000Y-97250000D01*
X68870000Y-97250000D02*
X68870000Y-105950000D01*
D14*
%TO.C,R24*%
X132827500Y-94662258D02*
X132827500Y-94187742D01*
X133872500Y-94662258D02*
X133872500Y-94187742D01*
%TO.C,R23*%
X127747500Y-94662258D02*
X127747500Y-94187742D01*
X128792500Y-94662258D02*
X128792500Y-94187742D01*
D13*
%TO.C,U16*%
X124750000Y-97750000D02*
X125250000Y-97250000D01*
X124750000Y-105950000D02*
X129250000Y-105950000D01*
X129250000Y-105950000D02*
X129250000Y-97250000D01*
X129250000Y-97250000D02*
X124750000Y-97250000D01*
X124750000Y-97250000D02*
X124750000Y-105950000D01*
D14*
%TO.C,R21*%
X117587500Y-94662258D02*
X117587500Y-94187742D01*
X118632500Y-94662258D02*
X118632500Y-94187742D01*
%TO.C,R8*%
X102347500Y-94662258D02*
X102347500Y-94187742D01*
X103392500Y-94662258D02*
X103392500Y-94187742D01*
D13*
%TO.C,U2*%
X94270000Y-97750000D02*
X94770000Y-97250000D01*
X94270000Y-105950000D02*
X98770000Y-105950000D01*
X98770000Y-105950000D02*
X98770000Y-97250000D01*
X98770000Y-97250000D02*
X94270000Y-97250000D01*
X94270000Y-97250000D02*
X94270000Y-105950000D01*
D14*
%TO.C,R9*%
X105932500Y-88662742D02*
X105932500Y-89137258D01*
X104887500Y-88662742D02*
X104887500Y-89137258D01*
%TO.C,D2*%
X121710000Y-85020000D02*
X121710000Y-77720000D01*
X127210000Y-85020000D02*
X127210000Y-77720000D01*
X127210000Y-77720000D02*
X126060000Y-77720000D01*
%TO.C,R32*%
X115077500Y-113267258D02*
X115077500Y-112792742D01*
X116122500Y-113267258D02*
X116122500Y-112792742D01*
D13*
%TO.C,U6*%
X73950000Y-97750000D02*
X74450000Y-97250000D01*
X73950000Y-105950000D02*
X78450000Y-105950000D01*
X78450000Y-105950000D02*
X78450000Y-97250000D01*
X78450000Y-97250000D02*
X73950000Y-97250000D01*
X73950000Y-97250000D02*
X73950000Y-105950000D01*
D14*
%TO.C,R1*%
X97267500Y-94662258D02*
X97267500Y-94187742D01*
X98312500Y-94662258D02*
X98312500Y-94187742D01*
D13*
%TO.C,U14*%
X114590000Y-97750000D02*
X115090000Y-97250000D01*
X114590000Y-105950000D02*
X119090000Y-105950000D01*
X119090000Y-105950000D02*
X119090000Y-97250000D01*
X119090000Y-97250000D02*
X114590000Y-97250000D01*
X114590000Y-97250000D02*
X114590000Y-105950000D01*
D14*
%TO.C,R6*%
X71867500Y-94662258D02*
X71867500Y-94187742D01*
X72912500Y-94662258D02*
X72912500Y-94187742D01*
%TO.C,R11*%
X94727500Y-113267258D02*
X94727500Y-112792742D01*
X95772500Y-113267258D02*
X95772500Y-112792742D01*
%TO.C,R3*%
X87107500Y-94662258D02*
X87107500Y-94187742D01*
X88152500Y-94662258D02*
X88152500Y-94187742D01*
%TO.C,R2*%
X92187500Y-94662258D02*
X92187500Y-94187742D01*
X93232500Y-94662258D02*
X93232500Y-94187742D01*
%TO.C,R13*%
X89647500Y-113267258D02*
X89647500Y-112792742D01*
X90692500Y-113267258D02*
X90692500Y-112792742D01*
%TO.C,G\u002A\u002A\u002A*%
G36*
X66384934Y-115968740D02*
G01*
X66569367Y-116010317D01*
X66751612Y-116078583D01*
X66819318Y-116109929D01*
X66904426Y-116159840D01*
X67003850Y-116231400D01*
X67106758Y-116315010D01*
X67202318Y-116401071D01*
X67279698Y-116479983D01*
X67328067Y-116542146D01*
X67338864Y-116570371D01*
X67327005Y-116586432D01*
X67286449Y-116597606D01*
X67209731Y-116604621D01*
X67089383Y-116608202D01*
X66940885Y-116609091D01*
X66542906Y-116609091D01*
X66436293Y-116481548D01*
X66310623Y-116358869D01*
X66163712Y-116271254D01*
X65985805Y-116214755D01*
X65767146Y-116185424D01*
X65694599Y-116181432D01*
X65429664Y-116182034D01*
X65180201Y-116208958D01*
X64921714Y-116265566D01*
X64777637Y-116307220D01*
X64664285Y-116339988D01*
X64604156Y-116352198D01*
X64596745Y-116344411D01*
X64641550Y-116317187D01*
X64738068Y-116271090D01*
X64856591Y-116219110D01*
X65121722Y-116113607D01*
X65358300Y-116038232D01*
X65584062Y-115988624D01*
X65816749Y-115960425D01*
X65938977Y-115953088D01*
X66180682Y-115950711D01*
X66384934Y-115968740D01*
G37*
G36*
X64465121Y-116695677D02*
G01*
X64468877Y-116695682D01*
X64557325Y-116702763D01*
X64594769Y-116725048D01*
X64596818Y-116735008D01*
X64589852Y-116802787D01*
X64571155Y-116909489D01*
X64544025Y-117041017D01*
X64511763Y-117183271D01*
X64477667Y-117322153D01*
X64445038Y-117443565D01*
X64417174Y-117533407D01*
X64400786Y-117572645D01*
X64308164Y-117677241D01*
X64180768Y-117746312D01*
X64033228Y-117774196D01*
X63909421Y-117762799D01*
X63835749Y-117734126D01*
X63759752Y-117686911D01*
X63699555Y-117634545D01*
X63673284Y-117590422D01*
X63673182Y-117588258D01*
X63695219Y-117560668D01*
X63749699Y-117519092D01*
X63764582Y-117509390D01*
X63855982Y-117451519D01*
X63934467Y-117509546D01*
X64022437Y-117548634D01*
X64102640Y-117537872D01*
X64161692Y-117479057D01*
X64161693Y-117479057D01*
X64177773Y-117431407D01*
X64200727Y-117340853D01*
X64227235Y-117221311D01*
X64248992Y-117113000D01*
X64279923Y-116951466D01*
X64303419Y-116837979D01*
X64323931Y-116764093D01*
X64345908Y-116721365D01*
X64373799Y-116701349D01*
X64412054Y-116695601D01*
X64465121Y-116695677D01*
G37*
G36*
X66255944Y-116696729D02*
G01*
X66295580Y-116705169D01*
X66318625Y-116728952D01*
X66326044Y-116776027D01*
X66318804Y-116854344D01*
X66297872Y-116971852D01*
X66264212Y-117136500D01*
X66256706Y-117172574D01*
X66229109Y-117305685D01*
X66206372Y-117416248D01*
X66190768Y-117493147D01*
X66184570Y-117525265D01*
X66184547Y-117525511D01*
X66210948Y-117528954D01*
X66281014Y-117531504D01*
X66380685Y-117532694D01*
X66401701Y-117532727D01*
X66527376Y-117536515D01*
X66603188Y-117551447D01*
X66636710Y-117582880D01*
X66635516Y-117636168D01*
X66619165Y-117686500D01*
X66589838Y-117763636D01*
X66244463Y-117763636D01*
X66109080Y-117761617D01*
X65995846Y-117756118D01*
X65916623Y-117747980D01*
X65883278Y-117738054D01*
X65883613Y-117702723D01*
X65894325Y-117620534D01*
X65913858Y-117501107D01*
X65940654Y-117354062D01*
X65968165Y-117213621D01*
X66000711Y-117051877D01*
X66028876Y-116910921D01*
X66050828Y-116800006D01*
X66064735Y-116728379D01*
X66068864Y-116705227D01*
X66094688Y-116699532D01*
X66160019Y-116696118D01*
X66198750Y-116695682D01*
X66255944Y-116696729D01*
G37*
G36*
X67532681Y-116683134D02*
G01*
X67665198Y-116734481D01*
X67699563Y-116758490D01*
X67775688Y-116818370D01*
X67696323Y-116901210D01*
X67642196Y-116952770D01*
X67604497Y-116966396D01*
X67561978Y-116947895D01*
X67551085Y-116940888D01*
X67442191Y-116900853D01*
X67327125Y-116910729D01*
X67218732Y-116965925D01*
X67129859Y-117061848D01*
X67108238Y-117099218D01*
X67057990Y-117240426D01*
X67056230Y-117366594D01*
X67102708Y-117470073D01*
X67121074Y-117490744D01*
X67210004Y-117549444D01*
X67310029Y-117554477D01*
X67407106Y-117518118D01*
X67486978Y-117482737D01*
X67538342Y-117481695D01*
X67579645Y-117515747D01*
X67587320Y-117525511D01*
X67621798Y-117587581D01*
X67609561Y-117635231D01*
X67546394Y-117683633D01*
X67542791Y-117685774D01*
X67415211Y-117738003D01*
X67264257Y-117766404D01*
X67121328Y-117765376D01*
X67107955Y-117763314D01*
X66962354Y-117713036D01*
X66854280Y-117622420D01*
X66786899Y-117497518D01*
X66763377Y-117344377D01*
X66786879Y-117169048D01*
X66790309Y-117156307D01*
X66856305Y-117006951D01*
X66959116Y-116879789D01*
X67088450Y-116779323D01*
X67234016Y-116710057D01*
X67385524Y-116676493D01*
X67532681Y-116683134D01*
G37*
G36*
X67232257Y-117939372D02*
G01*
X67153870Y-118050815D01*
X67042539Y-118179992D01*
X66912821Y-118311829D01*
X66779271Y-118431256D01*
X66691469Y-118499280D01*
X66421554Y-118665959D01*
X66123782Y-118804219D01*
X65809702Y-118911159D01*
X65490864Y-118983877D01*
X65178815Y-119019473D01*
X64885105Y-119015046D01*
X64726705Y-118992802D01*
X64426359Y-118913245D01*
X64173390Y-118800879D01*
X63967548Y-118655512D01*
X63808579Y-118476954D01*
X63696233Y-118265012D01*
X63669386Y-118187842D01*
X63641505Y-118089489D01*
X63624780Y-118014557D01*
X63622525Y-117978113D01*
X63623102Y-117977276D01*
X63644159Y-117991548D01*
X63682777Y-118043504D01*
X63711867Y-118090306D01*
X63835019Y-118252763D01*
X64001842Y-118390641D01*
X64191360Y-118496697D01*
X64266175Y-118531197D01*
X64329197Y-118555443D01*
X64392937Y-118571224D01*
X64469905Y-118580326D01*
X64572609Y-118584537D01*
X64713562Y-118585647D01*
X64813295Y-118585580D01*
X65044443Y-118581423D01*
X65233902Y-118567619D01*
X65397353Y-118540971D01*
X65550472Y-118498283D01*
X65708938Y-118436361D01*
X65837955Y-118376715D01*
X65990960Y-118291118D01*
X66133131Y-118183956D01*
X66264261Y-118061138D01*
X66474089Y-117850227D01*
X66879245Y-117850227D01*
X67284400Y-117850227D01*
X67232257Y-117939372D01*
G37*
G36*
X70523142Y-116581167D02*
G01*
X70599262Y-116585669D01*
X70639764Y-116596258D01*
X70655698Y-116615457D01*
X70658182Y-116639119D01*
X70651551Y-116680128D01*
X70633351Y-116766491D01*
X70606121Y-116887583D01*
X70572400Y-117032783D01*
X70534727Y-117191465D01*
X70495641Y-117353007D01*
X70457681Y-117506785D01*
X70423387Y-117642176D01*
X70395297Y-117748557D01*
X70380792Y-117799716D01*
X70378999Y-117820300D01*
X70393914Y-117834410D01*
X70434199Y-117843249D01*
X70508517Y-117848024D01*
X70625531Y-117849941D01*
X70743734Y-117850227D01*
X70909966Y-117850973D01*
X71025977Y-117856489D01*
X71099270Y-117871691D01*
X71137350Y-117901497D01*
X71147722Y-117950825D01*
X71137892Y-118024591D01*
X71121969Y-118098045D01*
X71086996Y-118254318D01*
X70424297Y-118254318D01*
X70205528Y-118253745D01*
X70038047Y-118251769D01*
X69915425Y-118248007D01*
X69831231Y-118242075D01*
X69779035Y-118233589D01*
X69752407Y-118222167D01*
X69746071Y-118213857D01*
X69749796Y-118179303D01*
X69765748Y-118097544D01*
X69791830Y-117977298D01*
X69825944Y-117827282D01*
X69865995Y-117656212D01*
X69909884Y-117472806D01*
X69955515Y-117285782D01*
X70000790Y-117103855D01*
X70043613Y-116935745D01*
X70081887Y-116790167D01*
X70113514Y-116675839D01*
X70126913Y-116630739D01*
X70142257Y-116606231D01*
X70177390Y-116591067D01*
X70243677Y-116583147D01*
X70352479Y-116580372D01*
X70400354Y-116580227D01*
X70523142Y-116581167D01*
G37*
G36*
X69577061Y-116587287D02*
G01*
X69664573Y-116592411D01*
X69707684Y-116600116D01*
X69709499Y-116601362D01*
X69711121Y-116636922D01*
X69698616Y-116718154D01*
X69674490Y-116835452D01*
X69641250Y-116979208D01*
X69601402Y-117139816D01*
X69557453Y-117307669D01*
X69511911Y-117473162D01*
X69467281Y-117626686D01*
X69426070Y-117758635D01*
X69390785Y-117859403D01*
X69366998Y-117913972D01*
X69254687Y-118062708D01*
X69099634Y-118175038D01*
X68919375Y-118244296D01*
X68815062Y-118262944D01*
X68682235Y-118274999D01*
X68538136Y-118280241D01*
X68400006Y-118278446D01*
X68285085Y-118269391D01*
X68211989Y-118253419D01*
X68171326Y-118233051D01*
X68152369Y-118204320D01*
X68153047Y-118152832D01*
X68171288Y-118064194D01*
X68179690Y-118028975D01*
X68213180Y-117916451D01*
X68250956Y-117854321D01*
X68300305Y-117835332D01*
X68360403Y-117849041D01*
X68463551Y-117872691D01*
X68582495Y-117877730D01*
X68693756Y-117865005D01*
X68773856Y-117835364D01*
X68775788Y-117834043D01*
X68826902Y-117788406D01*
X68870716Y-117723760D01*
X68911546Y-117630404D01*
X68953709Y-117498639D01*
X68996823Y-117337387D01*
X69034968Y-117184882D01*
X69058231Y-117079575D01*
X69065991Y-117012727D01*
X69057627Y-116975599D01*
X69032515Y-116959453D01*
X68990036Y-116955547D01*
X68969659Y-116955455D01*
X68910993Y-116952349D01*
X68880069Y-116935393D01*
X68873578Y-116893128D01*
X68888208Y-116814098D01*
X68907116Y-116738977D01*
X68944483Y-116594659D01*
X69315524Y-116586544D01*
X69456821Y-116585186D01*
X69577061Y-116587287D01*
G37*
G36*
X72793792Y-116571512D02*
G01*
X72961192Y-116595443D01*
X73068295Y-116626587D01*
X73152711Y-116664179D01*
X73194871Y-116697053D01*
X73207563Y-116737890D01*
X73206943Y-116764055D01*
X73192657Y-116862393D01*
X73166335Y-116966336D01*
X73133416Y-117060447D01*
X73099336Y-117129293D01*
X73069534Y-117157438D01*
X73068333Y-117157500D01*
X73022809Y-117141749D01*
X72950243Y-117101257D01*
X72895503Y-117065032D01*
X72737055Y-116985877D01*
X72564167Y-116955348D01*
X72391666Y-116974514D01*
X72274951Y-117020262D01*
X72142799Y-117122344D01*
X72049217Y-117262248D01*
X71998564Y-117431302D01*
X71991990Y-117583599D01*
X72008364Y-117713563D01*
X72043793Y-117798190D01*
X72106637Y-117848873D01*
X72205258Y-117877003D01*
X72207642Y-117877412D01*
X72393388Y-117880813D01*
X72593820Y-117829973D01*
X72810232Y-117724535D01*
X72848980Y-117700983D01*
X72903938Y-117679083D01*
X72942135Y-117698090D01*
X72957000Y-117730994D01*
X72954751Y-117791080D01*
X72934413Y-117889696D01*
X72921208Y-117941661D01*
X72866250Y-118151201D01*
X72664205Y-118215737D01*
X72493852Y-118255561D01*
X72302136Y-118276949D01*
X72108783Y-118279476D01*
X71933523Y-118262717D01*
X71816335Y-118234000D01*
X71655475Y-118149118D01*
X71533147Y-118025212D01*
X71451745Y-117868275D01*
X71413666Y-117684300D01*
X71421305Y-117479283D01*
X71454479Y-117328705D01*
X71549690Y-117099255D01*
X71689963Y-116905528D01*
X71873707Y-116749244D01*
X72096961Y-116633063D01*
X72237746Y-116594334D01*
X72413315Y-116571082D01*
X72604915Y-116563433D01*
X72793792Y-116571512D01*
G37*
G36*
X74280983Y-116583416D02*
G01*
X74466977Y-116594036D01*
X74611490Y-116613670D01*
X74722496Y-116643899D01*
X74807970Y-116686305D01*
X74875885Y-116742469D01*
X74878818Y-116745515D01*
X74970489Y-116870521D01*
X75010499Y-117004768D01*
X75001292Y-117159151D01*
X74985992Y-117223232D01*
X74915318Y-117373302D01*
X74796288Y-117502080D01*
X74635484Y-117605995D01*
X74439489Y-117681475D01*
X74214886Y-117724951D01*
X74043556Y-117734430D01*
X73835407Y-117734773D01*
X73803718Y-117857443D01*
X73774741Y-117968033D01*
X73743118Y-118086534D01*
X73736770Y-118110000D01*
X73701511Y-118239886D01*
X73449374Y-118248233D01*
X73320715Y-118250313D01*
X73239553Y-118245443D01*
X73195943Y-118232419D01*
X73181607Y-118215845D01*
X73181162Y-118191767D01*
X73188983Y-118139655D01*
X73205900Y-118056055D01*
X73232739Y-117937513D01*
X73270328Y-117780577D01*
X73319494Y-117581793D01*
X73381066Y-117337707D01*
X73388600Y-117308212D01*
X73948768Y-117308212D01*
X73963982Y-117346022D01*
X74007802Y-117357230D01*
X74084518Y-117351486D01*
X74092128Y-117350592D01*
X74189039Y-117334296D01*
X74269694Y-117312545D01*
X74294174Y-117302260D01*
X74353817Y-117254546D01*
X74400117Y-117198598D01*
X74430155Y-117115068D01*
X74409679Y-117043874D01*
X74345496Y-116990541D01*
X74244417Y-116960594D01*
X74113249Y-116959557D01*
X74106448Y-116960313D01*
X74055412Y-116973157D01*
X74022895Y-117006895D01*
X73997062Y-117076774D01*
X73986992Y-117114205D01*
X73957868Y-117234156D01*
X73948768Y-117308212D01*
X73388600Y-117308212D01*
X73455872Y-117044865D01*
X73544738Y-116699815D01*
X73547670Y-116688466D01*
X73575634Y-116580227D01*
X74045533Y-116580227D01*
X74280983Y-116583416D01*
G37*
G36*
X76243295Y-116567059D02*
G01*
X76408868Y-116569751D01*
X76531475Y-116577612D01*
X76625781Y-116592417D01*
X76706448Y-116615941D01*
X76733977Y-116626485D01*
X76809818Y-116660624D01*
X76855100Y-116696882D01*
X76872705Y-116747358D01*
X76865515Y-116824147D01*
X76836414Y-116939348D01*
X76821171Y-116992406D01*
X76786638Y-117092906D01*
X76749107Y-117143826D01*
X76697531Y-117148201D01*
X76620859Y-117109063D01*
X76556839Y-117064968D01*
X76466155Y-117008351D01*
X76377167Y-116977082D01*
X76262208Y-116961972D01*
X76242790Y-116960644D01*
X76063927Y-116969918D01*
X75918956Y-117024696D01*
X75803011Y-117127698D01*
X75726540Y-117249340D01*
X75670817Y-117398214D01*
X75647985Y-117546064D01*
X75658146Y-117678991D01*
X75701401Y-117783097D01*
X75722438Y-117808244D01*
X75771244Y-117848300D01*
X75828331Y-117869839D01*
X75912982Y-117878189D01*
X75978736Y-117879091D01*
X76093932Y-117873736D01*
X76191763Y-117853118D01*
X76298661Y-117810409D01*
X76359719Y-117780680D01*
X76490323Y-117722137D01*
X76577825Y-117700038D01*
X76623732Y-117714188D01*
X76631940Y-117745077D01*
X76624064Y-117788216D01*
X76604445Y-117868973D01*
X76578556Y-117965404D01*
X76526186Y-118152739D01*
X76327013Y-118216506D01*
X76160061Y-118255524D01*
X75970988Y-118276695D01*
X75779551Y-118279595D01*
X75605507Y-118263804D01*
X75483603Y-118234529D01*
X75339254Y-118159310D01*
X75216299Y-118049623D01*
X75129166Y-117920035D01*
X75102967Y-117850227D01*
X75085975Y-117748302D01*
X75078925Y-117621195D01*
X75081360Y-117530011D01*
X75125675Y-117295510D01*
X75221733Y-117082417D01*
X75365905Y-116895824D01*
X75554560Y-116740821D01*
X75703525Y-116657420D01*
X75789240Y-116618325D01*
X75860376Y-116592341D01*
X75932521Y-116576860D01*
X76021266Y-116569272D01*
X76142197Y-116566968D01*
X76243295Y-116567059D01*
G37*
G36*
X77602982Y-116582873D02*
G01*
X77751420Y-116585106D01*
X77939769Y-116589241D01*
X78080584Y-116594390D01*
X78184062Y-116601725D01*
X78260398Y-116612418D01*
X78319784Y-116627640D01*
X78372418Y-116648563D01*
X78394267Y-116658989D01*
X78521130Y-116746329D01*
X78597108Y-116859754D01*
X78624400Y-117002667D01*
X78624545Y-117015367D01*
X78618893Y-117092132D01*
X78594788Y-117152346D01*
X78541508Y-117216891D01*
X78500090Y-117257781D01*
X78375636Y-117377029D01*
X78444083Y-117428660D01*
X78526707Y-117522317D01*
X78562264Y-117635673D01*
X78553854Y-117759872D01*
X78504580Y-117886059D01*
X78417544Y-118005376D01*
X78295848Y-118108968D01*
X78184134Y-118170819D01*
X78128258Y-118194096D01*
X78072606Y-118211632D01*
X78007624Y-118224442D01*
X77923759Y-118233542D01*
X77811456Y-118239945D01*
X77661162Y-118244668D01*
X77463324Y-118248726D01*
X77448430Y-118248994D01*
X77243190Y-118251960D01*
X77088982Y-118252317D01*
X76979157Y-118249752D01*
X76907066Y-118243952D01*
X76866060Y-118234603D01*
X76849489Y-118221394D01*
X76849249Y-118220803D01*
X76852340Y-118183768D01*
X76868412Y-118098389D01*
X76895772Y-117972150D01*
X76917318Y-117879091D01*
X77465413Y-117879091D01*
X77619241Y-117879046D01*
X77740674Y-117867919D01*
X77849729Y-117839181D01*
X77874091Y-117828535D01*
X77943637Y-117784069D01*
X77971829Y-117732419D01*
X77975114Y-117692779D01*
X77964135Y-117634570D01*
X77925133Y-117596691D01*
X77849011Y-117575005D01*
X77726670Y-117565373D01*
X77692979Y-117564468D01*
X77612961Y-117566642D01*
X77561569Y-117584882D01*
X77528066Y-117630631D01*
X77501717Y-117715334D01*
X77485816Y-117785284D01*
X77465413Y-117879091D01*
X76917318Y-117879091D01*
X76932727Y-117812539D01*
X76977584Y-117627041D01*
X77028652Y-117423143D01*
X77036784Y-117391276D01*
X77086224Y-117197600D01*
X77643343Y-117197600D01*
X77668325Y-117209608D01*
X77731538Y-117210389D01*
X77815033Y-117202004D01*
X77900864Y-117186513D01*
X77971083Y-117165977D01*
X77988719Y-117157942D01*
X78036579Y-117104541D01*
X78047273Y-117058828D01*
X78030797Y-117005255D01*
X77976434Y-116972610D01*
X77876779Y-116957674D01*
X77810504Y-116955849D01*
X77739299Y-116960790D01*
X77701741Y-116987315D01*
X77676875Y-117051926D01*
X77673563Y-117063693D01*
X77654084Y-117139827D01*
X77643808Y-117191659D01*
X77643343Y-117197600D01*
X77086224Y-117197600D01*
X77088998Y-117186733D01*
X77136212Y-117000964D01*
X77176618Y-116841154D01*
X77208406Y-116714487D01*
X77229765Y-116628150D01*
X77238887Y-116589327D01*
X77239091Y-116587972D01*
X77266418Y-116584489D01*
X77342288Y-116582443D01*
X77457532Y-116581887D01*
X77602982Y-116582873D01*
G37*
G36*
X65545069Y-116846272D02*
G01*
X65628205Y-116877141D01*
X65729633Y-116962791D01*
X65792832Y-117081603D01*
X65809091Y-117186080D01*
X65790019Y-117289966D01*
X65741196Y-117406003D01*
X65675211Y-117507106D01*
X65645140Y-117538842D01*
X65562905Y-117595282D01*
X65462076Y-117639566D01*
X65358177Y-117667979D01*
X65266730Y-117676809D01*
X65203257Y-117662341D01*
X65188474Y-117648104D01*
X65150140Y-117634863D01*
X65116509Y-117648104D01*
X65023602Y-117674716D01*
X64926858Y-117667830D01*
X64851943Y-117629712D01*
X64846633Y-117624261D01*
X64800571Y-117535029D01*
X64799452Y-117453860D01*
X64972045Y-117453860D01*
X64989741Y-117530382D01*
X65037051Y-117562873D01*
X65105306Y-117550513D01*
X65185839Y-117492479D01*
X65202309Y-117475691D01*
X65273575Y-117374562D01*
X65300140Y-117277049D01*
X65283583Y-117203547D01*
X65236002Y-117163023D01*
X65172840Y-117165693D01*
X65104497Y-117203199D01*
X65041373Y-117267186D01*
X64993869Y-117349297D01*
X64972385Y-117441175D01*
X64972045Y-117453860D01*
X64799452Y-117453860D01*
X64799134Y-117430822D01*
X64835302Y-117322457D01*
X64902058Y-117220755D01*
X64992381Y-117136532D01*
X65099252Y-117080608D01*
X65210415Y-117063570D01*
X65325803Y-117066581D01*
X65444222Y-117068201D01*
X65455229Y-117068251D01*
X65511640Y-117068302D01*
X65546213Y-117074135D01*
X65558842Y-117094900D01*
X65549417Y-117139747D01*
X65517832Y-117217827D01*
X65463979Y-117338290D01*
X65451723Y-117365600D01*
X65417247Y-117453497D01*
X65400564Y-117519257D01*
X65404149Y-117546633D01*
X65444791Y-117541213D01*
X65503436Y-117499412D01*
X65567808Y-117433998D01*
X65625631Y-117357741D01*
X65664629Y-117283409D01*
X65668593Y-117271586D01*
X65680284Y-117157509D01*
X65639356Y-117062538D01*
X65544001Y-116983095D01*
X65514807Y-116966966D01*
X65405074Y-116936078D01*
X65266179Y-116933843D01*
X65118094Y-116958614D01*
X64980797Y-117008750D01*
X64975682Y-117011327D01*
X64853029Y-117101546D01*
X64756402Y-117225958D01*
X64696946Y-117367144D01*
X64683409Y-117468117D01*
X64699043Y-117598850D01*
X64749180Y-117694384D01*
X64838670Y-117758255D01*
X64972365Y-117794000D01*
X65145733Y-117805130D01*
X65274075Y-117801760D01*
X65371299Y-117786399D01*
X65463671Y-117753367D01*
X65528237Y-117722427D01*
X65615873Y-117681954D01*
X65682309Y-117658440D01*
X65711694Y-117656619D01*
X65720603Y-117697629D01*
X65683244Y-117746402D01*
X65609579Y-117797642D01*
X65509573Y-117846053D01*
X65393187Y-117886339D01*
X65270384Y-117913204D01*
X65217386Y-117919369D01*
X65096720Y-117922652D01*
X64976490Y-117915784D01*
X64917789Y-117907105D01*
X64756090Y-117851626D01*
X64638556Y-117763534D01*
X64568134Y-117646335D01*
X64547768Y-117503534D01*
X64550219Y-117469758D01*
X64597810Y-117276668D01*
X64696206Y-117110686D01*
X64845617Y-116971527D01*
X64972045Y-116894356D01*
X65097109Y-116850185D01*
X65248314Y-116827080D01*
X65404641Y-116825592D01*
X65545069Y-116846272D01*
G37*
%TO.C,R16*%
X82027500Y-113267258D02*
X82027500Y-112792742D01*
X83072500Y-113267258D02*
X83072500Y-112792742D01*
%TD*%
%LPC*%
D15*
%TO.C,U18*%
X135890000Y-99550000D03*
X138430000Y-99550000D03*
X135890000Y-103650000D03*
X138430000Y-103650000D03*
%TD*%
D16*
%TO.C,R7*%
X67310000Y-95250000D03*
X67310000Y-93600000D03*
%TD*%
D17*
%TO.C,U26*%
X84160000Y-79770000D03*
X84160000Y-80570000D03*
X84160000Y-81370000D03*
X84160000Y-82170000D03*
X84160000Y-82970000D03*
X88560000Y-82970000D03*
X88560000Y-82170000D03*
X88560000Y-81370000D03*
X88560000Y-80570000D03*
X88560000Y-79770000D03*
%TD*%
D15*
%TO.C,U12*%
X105410000Y-99550000D03*
X107950000Y-99550000D03*
X105410000Y-103650000D03*
X107950000Y-103650000D03*
%TD*%
D18*
%TO.C,D8*%
X80135000Y-78920000D03*
X76835000Y-78920000D03*
X76835000Y-83820000D03*
X80135000Y-83820000D03*
%TD*%
D15*
%TO.C,U13*%
X110490000Y-99550000D03*
X113030000Y-99550000D03*
X110490000Y-103650000D03*
X113030000Y-103650000D03*
%TD*%
%TO.C,U9*%
X100330000Y-99550000D03*
X102870000Y-99550000D03*
X100330000Y-103650000D03*
X102870000Y-103650000D03*
%TD*%
%TO.C,U10*%
X100330000Y-79320000D03*
X102870000Y-79320000D03*
X100330000Y-83420000D03*
X102870000Y-83420000D03*
%TD*%
D16*
%TO.C,R22*%
X123190000Y-95250000D03*
X123190000Y-93600000D03*
%TD*%
D19*
%TO.C,D1*%
X114390000Y-87250000D03*
X114390000Y-90550000D03*
X119290000Y-90550000D03*
X119290000Y-87250000D03*
%TD*%
D16*
%TO.C,R19*%
X107950000Y-95250000D03*
X107950000Y-93600000D03*
%TD*%
D20*
%TO.C,C3*%
X128270000Y-80800000D03*
X128270000Y-81760000D03*
%TD*%
D16*
%TO.C,R30*%
X110580000Y-113855000D03*
X110580000Y-112205000D03*
%TD*%
%TO.C,R4*%
X82550000Y-95250000D03*
X82550000Y-93600000D03*
%TD*%
D18*
%TO.C,D4*%
X110870000Y-78920000D03*
X107570000Y-78920000D03*
X107570000Y-83820000D03*
X110870000Y-83820000D03*
%TD*%
D16*
%TO.C,R12*%
X92710000Y-113855000D03*
X92710000Y-112205000D03*
%TD*%
D15*
%TO.C,U17*%
X130810000Y-99550000D03*
X133350000Y-99550000D03*
X130810000Y-103650000D03*
X133350000Y-103650000D03*
%TD*%
D16*
%TO.C,R15*%
X85090000Y-113855000D03*
X85090000Y-112205000D03*
%TD*%
%TO.C,R17*%
X100330000Y-113855000D03*
X100330000Y-112205000D03*
%TD*%
D20*
%TO.C,C6*%
X74930000Y-80320000D03*
X74930000Y-81280000D03*
%TD*%
D16*
%TO.C,R20*%
X113030000Y-95250000D03*
X113030000Y-93600000D03*
%TD*%
D21*
%TO.C,REF\u002A\u002A*%
X67600000Y-78600000D03*
%TD*%
D16*
%TO.C,R29*%
X107920000Y-113855000D03*
X107920000Y-112205000D03*
%TD*%
%TO.C,R31*%
X113090000Y-113855000D03*
X113090000Y-112205000D03*
%TD*%
D15*
%TO.C,U8*%
X64770000Y-99550000D03*
X67310000Y-99550000D03*
X64770000Y-103650000D03*
X67310000Y-103650000D03*
%TD*%
%TO.C,U4*%
X85090000Y-99550000D03*
X87630000Y-99550000D03*
X85090000Y-103650000D03*
X87630000Y-103650000D03*
%TD*%
D16*
%TO.C,R33*%
X118110000Y-113855000D03*
X118110000Y-112205000D03*
%TD*%
D21*
%TO.C,REF\u002A\u002A*%
X135600000Y-78600000D03*
%TD*%
D16*
%TO.C,R28*%
X105410000Y-113855000D03*
X105410000Y-112205000D03*
%TD*%
D15*
%TO.C,U15*%
X120650000Y-99550000D03*
X123190000Y-99550000D03*
X120650000Y-103650000D03*
X123190000Y-103650000D03*
%TD*%
D18*
%TO.C,D6*%
X92330000Y-83820000D03*
X95630000Y-83820000D03*
X95630000Y-78920000D03*
X92330000Y-78920000D03*
%TD*%
D19*
%TO.C,D5*%
X83910000Y-87250000D03*
X83910000Y-90550000D03*
X88810000Y-90550000D03*
X88810000Y-87250000D03*
%TD*%
D16*
%TO.C,R34*%
X120620000Y-113855000D03*
X120620000Y-112205000D03*
%TD*%
D21*
%TO.C,REF\u002A\u002A*%
X119600000Y-121600000D03*
%TD*%
D15*
%TO.C,U3*%
X90170000Y-99550000D03*
X92710000Y-99550000D03*
X90170000Y-103650000D03*
X92710000Y-103650000D03*
%TD*%
D16*
%TO.C,R18*%
X102870000Y-113855000D03*
X102870000Y-112205000D03*
%TD*%
%TO.C,R5*%
X77470000Y-95250000D03*
X77470000Y-93600000D03*
%TD*%
D17*
%TO.C,U25*%
X114640000Y-79770000D03*
X114640000Y-80570000D03*
X114640000Y-81370000D03*
X114640000Y-82170000D03*
X114640000Y-82970000D03*
X119040000Y-82970000D03*
X119040000Y-82170000D03*
X119040000Y-81370000D03*
X119040000Y-80570000D03*
X119040000Y-79770000D03*
%TD*%
D16*
%TO.C,R14*%
X87630000Y-113855000D03*
X87630000Y-112205000D03*
%TD*%
%TO.C,R25*%
X138430000Y-95250000D03*
X138430000Y-93600000D03*
%TD*%
%TO.C,R10*%
X97790000Y-113855000D03*
X97790000Y-112205000D03*
%TD*%
D15*
%TO.C,U5*%
X80010000Y-99550000D03*
X82550000Y-99550000D03*
X80010000Y-103650000D03*
X82550000Y-103650000D03*
%TD*%
%TO.C,U7*%
X69850000Y-99550000D03*
X72390000Y-99550000D03*
X69850000Y-103650000D03*
X72390000Y-103650000D03*
%TD*%
D16*
%TO.C,R24*%
X133350000Y-95250000D03*
X133350000Y-93600000D03*
%TD*%
D21*
%TO.C,REF\u002A\u002A*%
X83600000Y-121600000D03*
%TD*%
D16*
%TO.C,R23*%
X128270000Y-95250000D03*
X128270000Y-93600000D03*
%TD*%
D15*
%TO.C,U16*%
X125730000Y-99550000D03*
X128270000Y-99550000D03*
X125730000Y-103650000D03*
X128270000Y-103650000D03*
%TD*%
D16*
%TO.C,R21*%
X118110000Y-95250000D03*
X118110000Y-93600000D03*
%TD*%
%TO.C,R8*%
X102870000Y-95250000D03*
X102870000Y-93600000D03*
%TD*%
D15*
%TO.C,U2*%
X95250000Y-99550000D03*
X97790000Y-99550000D03*
X95250000Y-103650000D03*
X97790000Y-103650000D03*
%TD*%
D22*
%TO.C,R9*%
X105410000Y-88075000D03*
X105410000Y-89725000D03*
%TD*%
D18*
%TO.C,D2*%
X122810000Y-83820000D03*
X126110000Y-83820000D03*
X126110000Y-78920000D03*
X122810000Y-78920000D03*
%TD*%
D16*
%TO.C,R32*%
X115600000Y-113855000D03*
X115600000Y-112205000D03*
%TD*%
D15*
%TO.C,U6*%
X74930000Y-99550000D03*
X77470000Y-99550000D03*
X74930000Y-103650000D03*
X77470000Y-103650000D03*
%TD*%
D16*
%TO.C,R1*%
X97790000Y-95250000D03*
X97790000Y-93600000D03*
%TD*%
D15*
%TO.C,U14*%
X115570000Y-99550000D03*
X118110000Y-99550000D03*
X115570000Y-103650000D03*
X118110000Y-103650000D03*
%TD*%
D16*
%TO.C,R6*%
X72390000Y-95250000D03*
X72390000Y-93600000D03*
%TD*%
%TO.C,R11*%
X95250000Y-113855000D03*
X95250000Y-112205000D03*
%TD*%
%TO.C,R3*%
X87630000Y-95250000D03*
X87630000Y-93600000D03*
%TD*%
%TO.C,R2*%
X92710000Y-95250000D03*
X92710000Y-93600000D03*
%TD*%
%TO.C,R13*%
X90170000Y-113855000D03*
X90170000Y-112205000D03*
%TD*%
%TO.C,R16*%
X82550000Y-113855000D03*
X82550000Y-112205000D03*
%TD*%
D23*
%TO.C,J1*%
X80010000Y-109220000D03*
D24*
X82550000Y-109220000D03*
X85090000Y-109220000D03*
X87630000Y-109220000D03*
X90170000Y-109220000D03*
X92710000Y-109220000D03*
X95250000Y-109220000D03*
X97790000Y-109220000D03*
X100330000Y-109220000D03*
X102870000Y-109220000D03*
X105410000Y-109220000D03*
X107950000Y-109220000D03*
X110490000Y-109220000D03*
X113030000Y-109220000D03*
X115570000Y-109220000D03*
X118110000Y-109220000D03*
X120650000Y-109220000D03*
X123190000Y-109220000D03*
%TD*%
D23*
%TO.C,J2*%
X68580000Y-87630000D03*
D24*
X68580000Y-90170000D03*
X71120000Y-87630000D03*
X71120000Y-90170000D03*
X73660000Y-87630000D03*
X73660000Y-90170000D03*
%TD*%
D23*
%TO.C,J3*%
X129540000Y-87630000D03*
D24*
X129540000Y-90170000D03*
X132080000Y-87630000D03*
X132080000Y-90170000D03*
X134620000Y-87630000D03*
X134620000Y-90170000D03*
%TD*%
%LPD*%
M02*
