%TF.GenerationSoftware,KiCad,Pcbnew,7.0.9*%
%TF.CreationDate,2024-06-25T21:06:51+09:00*%
%TF.ProjectId,04-line,30342d6c-696e-4652-9e6b-696361645f70,rev?*%
%TF.SameCoordinates,Original*%
%TF.FileFunction,Soldermask,Bot*%
%TF.FilePolarity,Negative*%
%FSLAX46Y46*%
G04 Gerber Fmt 4.6, Leading zero omitted, Abs format (unit mm)*
G04 Created by KiCad (PCBNEW 7.0.9) date 2024-06-25 21:06:51*
%MOMM*%
%LPD*%
G01*
G04 APERTURE LIST*
%ADD10C,1.524000*%
%ADD11C,3.200000*%
%ADD12R,1.700000X1.700000*%
%ADD13O,1.700000X1.700000*%
G04 APERTURE END LIST*
D10*
%TO.C,U18*%
X135890000Y-99550000D03*
X138430000Y-99550000D03*
X135890000Y-103650000D03*
X138430000Y-103650000D03*
%TD*%
%TO.C,U12*%
X105410000Y-99550000D03*
X107950000Y-99550000D03*
X105410000Y-103650000D03*
X107950000Y-103650000D03*
%TD*%
%TO.C,U13*%
X110490000Y-99550000D03*
X113030000Y-99550000D03*
X110490000Y-103650000D03*
X113030000Y-103650000D03*
%TD*%
%TO.C,U9*%
X100330000Y-99550000D03*
X102870000Y-99550000D03*
X100330000Y-103650000D03*
X102870000Y-103650000D03*
%TD*%
%TO.C,U10*%
X100330000Y-79320000D03*
X102870000Y-79320000D03*
X100330000Y-83420000D03*
X102870000Y-83420000D03*
%TD*%
%TO.C,U17*%
X130810000Y-99550000D03*
X133350000Y-99550000D03*
X130810000Y-103650000D03*
X133350000Y-103650000D03*
%TD*%
D11*
%TO.C,REF\u002A\u002A*%
X67600000Y-78600000D03*
%TD*%
D10*
%TO.C,U8*%
X64770000Y-99550000D03*
X67310000Y-99550000D03*
X64770000Y-103650000D03*
X67310000Y-103650000D03*
%TD*%
%TO.C,U4*%
X85090000Y-99550000D03*
X87630000Y-99550000D03*
X85090000Y-103650000D03*
X87630000Y-103650000D03*
%TD*%
D11*
%TO.C,REF\u002A\u002A*%
X135600000Y-78600000D03*
%TD*%
D10*
%TO.C,U15*%
X120650000Y-99550000D03*
X123190000Y-99550000D03*
X120650000Y-103650000D03*
X123190000Y-103650000D03*
%TD*%
D11*
%TO.C,REF\u002A\u002A*%
X119600000Y-121600000D03*
%TD*%
D10*
%TO.C,U3*%
X90170000Y-99550000D03*
X92710000Y-99550000D03*
X90170000Y-103650000D03*
X92710000Y-103650000D03*
%TD*%
%TO.C,U5*%
X80010000Y-99550000D03*
X82550000Y-99550000D03*
X80010000Y-103650000D03*
X82550000Y-103650000D03*
%TD*%
%TO.C,U7*%
X69850000Y-99550000D03*
X72390000Y-99550000D03*
X69850000Y-103650000D03*
X72390000Y-103650000D03*
%TD*%
D11*
%TO.C,REF\u002A\u002A*%
X83600000Y-121600000D03*
%TD*%
D10*
%TO.C,U16*%
X125730000Y-99550000D03*
X128270000Y-99550000D03*
X125730000Y-103650000D03*
X128270000Y-103650000D03*
%TD*%
%TO.C,U2*%
X95250000Y-99550000D03*
X97790000Y-99550000D03*
X95250000Y-103650000D03*
X97790000Y-103650000D03*
%TD*%
%TO.C,U6*%
X74930000Y-99550000D03*
X77470000Y-99550000D03*
X74930000Y-103650000D03*
X77470000Y-103650000D03*
%TD*%
%TO.C,U14*%
X115570000Y-99550000D03*
X118110000Y-99550000D03*
X115570000Y-103650000D03*
X118110000Y-103650000D03*
%TD*%
D12*
%TO.C,J1*%
X80010000Y-109220000D03*
D13*
X82550000Y-109220000D03*
X85090000Y-109220000D03*
X87630000Y-109220000D03*
X90170000Y-109220000D03*
X92710000Y-109220000D03*
X95250000Y-109220000D03*
X97790000Y-109220000D03*
X100330000Y-109220000D03*
X102870000Y-109220000D03*
X105410000Y-109220000D03*
X107950000Y-109220000D03*
X110490000Y-109220000D03*
X113030000Y-109220000D03*
X115570000Y-109220000D03*
X118110000Y-109220000D03*
X120650000Y-109220000D03*
X123190000Y-109220000D03*
%TD*%
D12*
%TO.C,J2*%
X68580000Y-87630000D03*
D13*
X68580000Y-90170000D03*
X71120000Y-87630000D03*
X71120000Y-90170000D03*
X73660000Y-87630000D03*
X73660000Y-90170000D03*
%TD*%
D12*
%TO.C,J3*%
X129540000Y-87630000D03*
D13*
X129540000Y-90170000D03*
X132080000Y-87630000D03*
X132080000Y-90170000D03*
X134620000Y-87630000D03*
X134620000Y-90170000D03*
%TD*%
M02*
