%TF.GenerationSoftware,KiCad,Pcbnew,7.0.9*%
%TF.CreationDate,2024-03-23T08:09:54+09:00*%
%TF.ProjectId,03-front,30332d66-726f-46e7-942e-6b696361645f,rev?*%
%TF.SameCoordinates,Original*%
%TF.FileFunction,Legend,Bot*%
%TF.FilePolarity,Positive*%
%FSLAX46Y46*%
G04 Gerber Fmt 4.6, Leading zero omitted, Abs format (unit mm)*
G04 Created by KiCad (PCBNEW 7.0.9) date 2024-03-23 08:09:54*
%MOMM*%
%LPD*%
G01*
G04 APERTURE LIST*
%ADD10C,0.150000*%
%ADD11C,0.120000*%
%ADD12R,1.800000X1.800000*%
%ADD13C,1.800000*%
%ADD14C,1.524000*%
%ADD15R,1.700000X1.700000*%
%ADD16O,1.700000X1.700000*%
G04 APERTURE END LIST*
D10*
X55334819Y-93856666D02*
X54858628Y-93523333D01*
X55334819Y-93285238D02*
X54334819Y-93285238D01*
X54334819Y-93285238D02*
X54334819Y-93666190D01*
X54334819Y-93666190D02*
X54382438Y-93761428D01*
X54382438Y-93761428D02*
X54430057Y-93809047D01*
X54430057Y-93809047D02*
X54525295Y-93856666D01*
X54525295Y-93856666D02*
X54668152Y-93856666D01*
X54668152Y-93856666D02*
X54763390Y-93809047D01*
X54763390Y-93809047D02*
X54811009Y-93761428D01*
X54811009Y-93761428D02*
X54858628Y-93666190D01*
X54858628Y-93666190D02*
X54858628Y-93285238D01*
X54811009Y-94285238D02*
X54811009Y-94618571D01*
X55334819Y-94761428D02*
X55334819Y-94285238D01*
X55334819Y-94285238D02*
X54334819Y-94285238D01*
X54334819Y-94285238D02*
X54334819Y-94761428D01*
X54811009Y-95523333D02*
X54811009Y-95190000D01*
X55334819Y-95190000D02*
X54334819Y-95190000D01*
X54334819Y-95190000D02*
X54334819Y-95666190D01*
X54334819Y-96190000D02*
X54572914Y-96190000D01*
X54477676Y-95951905D02*
X54572914Y-96190000D01*
X54572914Y-96190000D02*
X54477676Y-96428095D01*
X54763390Y-96047143D02*
X54572914Y-96190000D01*
X54572914Y-96190000D02*
X54763390Y-96332857D01*
X54334819Y-96951905D02*
X54572914Y-96951905D01*
X54477676Y-96713810D02*
X54572914Y-96951905D01*
X54572914Y-96951905D02*
X54477676Y-97190000D01*
X54763390Y-96809048D02*
X54572914Y-96951905D01*
X54572914Y-96951905D02*
X54763390Y-97094762D01*
X96244819Y-94926666D02*
X96959104Y-94926666D01*
X96959104Y-94926666D02*
X97101961Y-94879047D01*
X97101961Y-94879047D02*
X97197200Y-94783809D01*
X97197200Y-94783809D02*
X97244819Y-94640952D01*
X97244819Y-94640952D02*
X97244819Y-94545714D01*
X97244819Y-95926666D02*
X97244819Y-95355238D01*
X97244819Y-95640952D02*
X96244819Y-95640952D01*
X96244819Y-95640952D02*
X96387676Y-95545714D01*
X96387676Y-95545714D02*
X96482914Y-95450476D01*
X96482914Y-95450476D02*
X96530533Y-95355238D01*
D11*
%TO.C,REF\u002A\u002A*%
X57150000Y-89535000D02*
X55880000Y-89535000D01*
X55880000Y-89535000D02*
X55880000Y-90805000D01*
X80390000Y-91847929D02*
X80390000Y-92245000D01*
X79630000Y-91847929D02*
X79630000Y-92245000D01*
X77850000Y-91847929D02*
X77850000Y-92245000D01*
X77090000Y-91847929D02*
X77090000Y-92245000D01*
X75310000Y-91847929D02*
X75310000Y-92245000D01*
X74550000Y-91847929D02*
X74550000Y-92245000D01*
X72770000Y-91847929D02*
X72770000Y-92245000D01*
X72010000Y-91847929D02*
X72010000Y-92245000D01*
X70230000Y-91847929D02*
X70230000Y-92245000D01*
X69470000Y-91847929D02*
X69470000Y-92245000D01*
X67690000Y-91847929D02*
X67690000Y-92245000D01*
X66930000Y-91847929D02*
X66930000Y-92245000D01*
X65150000Y-91847929D02*
X65150000Y-92245000D01*
X64390000Y-91847929D02*
X64390000Y-92245000D01*
X62610000Y-91847929D02*
X62610000Y-92245000D01*
X61850000Y-91847929D02*
X61850000Y-92245000D01*
X60070000Y-91847929D02*
X60070000Y-92245000D01*
X59310000Y-91847929D02*
X59310000Y-92245000D01*
X57530000Y-91915000D02*
X57530000Y-92245000D01*
X56770000Y-91915000D02*
X56770000Y-92245000D01*
X81340000Y-92245000D02*
X81340000Y-94905000D01*
X78740000Y-92245000D02*
X78740000Y-94905000D01*
X76200000Y-92245000D02*
X76200000Y-94905000D01*
X73660000Y-92245000D02*
X73660000Y-94905000D01*
X71120000Y-92245000D02*
X71120000Y-94905000D01*
X68580000Y-92245000D02*
X68580000Y-94905000D01*
X66040000Y-92245000D02*
X66040000Y-94905000D01*
X63500000Y-92245000D02*
X63500000Y-94905000D01*
X60960000Y-92245000D02*
X60960000Y-94905000D01*
X58420000Y-92245000D02*
X58420000Y-94905000D01*
X55820000Y-92245000D02*
X81340000Y-92245000D01*
X81340000Y-94905000D02*
X55820000Y-94905000D01*
X79630000Y-94905000D02*
X79630000Y-100905000D01*
X77090000Y-94905000D02*
X77090000Y-100905000D01*
X74550000Y-94905000D02*
X74550000Y-100905000D01*
X72010000Y-94905000D02*
X72010000Y-100905000D01*
X69470000Y-94905000D02*
X69470000Y-100905000D01*
X66930000Y-94905000D02*
X66930000Y-100905000D01*
X64390000Y-94905000D02*
X64390000Y-100905000D01*
X61850000Y-94905000D02*
X61850000Y-100905000D01*
X59310000Y-94905000D02*
X59310000Y-100905000D01*
X57430000Y-94905000D02*
X57430000Y-100905000D01*
X57310000Y-94905000D02*
X57310000Y-100905000D01*
X57190000Y-94905000D02*
X57190000Y-100905000D01*
X57070000Y-94905000D02*
X57070000Y-100905000D01*
X56950000Y-94905000D02*
X56950000Y-100905000D01*
X56830000Y-94905000D02*
X56830000Y-100905000D01*
X56770000Y-94905000D02*
X56770000Y-100905000D01*
X55820000Y-94905000D02*
X55820000Y-92245000D01*
X80390000Y-100905000D02*
X80390000Y-94905000D01*
X79630000Y-100905000D02*
X80390000Y-100905000D01*
X77850000Y-100905000D02*
X77850000Y-94905000D01*
X77090000Y-100905000D02*
X77850000Y-100905000D01*
X75310000Y-100905000D02*
X75310000Y-94905000D01*
X74550000Y-100905000D02*
X75310000Y-100905000D01*
X72770000Y-100905000D02*
X72770000Y-94905000D01*
X72010000Y-100905000D02*
X72770000Y-100905000D01*
X70230000Y-100905000D02*
X70230000Y-94905000D01*
X69470000Y-100905000D02*
X70230000Y-100905000D01*
X67690000Y-100905000D02*
X67690000Y-94905000D01*
X66930000Y-100905000D02*
X67690000Y-100905000D01*
X65150000Y-100905000D02*
X65150000Y-94905000D01*
X64390000Y-100905000D02*
X65150000Y-100905000D01*
X62610000Y-100905000D02*
X62610000Y-94905000D01*
X61850000Y-100905000D02*
X62610000Y-100905000D01*
X60070000Y-100905000D02*
X60070000Y-94905000D01*
X59310000Y-100905000D02*
X60070000Y-100905000D01*
X57530000Y-100905000D02*
X57530000Y-94905000D01*
X56770000Y-100905000D02*
X57530000Y-100905000D01*
%TO.C,J1*%
X99060000Y-89605000D02*
X97790000Y-89605000D01*
X97790000Y-89605000D02*
X97790000Y-90875000D01*
X122300000Y-91917929D02*
X122300000Y-92315000D01*
X121540000Y-91917929D02*
X121540000Y-92315000D01*
X119760000Y-91917929D02*
X119760000Y-92315000D01*
X119000000Y-91917929D02*
X119000000Y-92315000D01*
X117220000Y-91917929D02*
X117220000Y-92315000D01*
X116460000Y-91917929D02*
X116460000Y-92315000D01*
X114680000Y-91917929D02*
X114680000Y-92315000D01*
X113920000Y-91917929D02*
X113920000Y-92315000D01*
X112140000Y-91917929D02*
X112140000Y-92315000D01*
X111380000Y-91917929D02*
X111380000Y-92315000D01*
X109600000Y-91917929D02*
X109600000Y-92315000D01*
X108840000Y-91917929D02*
X108840000Y-92315000D01*
X107060000Y-91917929D02*
X107060000Y-92315000D01*
X106300000Y-91917929D02*
X106300000Y-92315000D01*
X104520000Y-91917929D02*
X104520000Y-92315000D01*
X103760000Y-91917929D02*
X103760000Y-92315000D01*
X101980000Y-91917929D02*
X101980000Y-92315000D01*
X101220000Y-91917929D02*
X101220000Y-92315000D01*
X99440000Y-91985000D02*
X99440000Y-92315000D01*
X98680000Y-91985000D02*
X98680000Y-92315000D01*
X123250000Y-92315000D02*
X123250000Y-94975000D01*
X120650000Y-92315000D02*
X120650000Y-94975000D01*
X118110000Y-92315000D02*
X118110000Y-94975000D01*
X115570000Y-92315000D02*
X115570000Y-94975000D01*
X113030000Y-92315000D02*
X113030000Y-94975000D01*
X110490000Y-92315000D02*
X110490000Y-94975000D01*
X107950000Y-92315000D02*
X107950000Y-94975000D01*
X105410000Y-92315000D02*
X105410000Y-94975000D01*
X102870000Y-92315000D02*
X102870000Y-94975000D01*
X100330000Y-92315000D02*
X100330000Y-94975000D01*
X97730000Y-92315000D02*
X123250000Y-92315000D01*
X123250000Y-94975000D02*
X97730000Y-94975000D01*
X121540000Y-94975000D02*
X121540000Y-100975000D01*
X119000000Y-94975000D02*
X119000000Y-100975000D01*
X116460000Y-94975000D02*
X116460000Y-100975000D01*
X113920000Y-94975000D02*
X113920000Y-100975000D01*
X111380000Y-94975000D02*
X111380000Y-100975000D01*
X108840000Y-94975000D02*
X108840000Y-100975000D01*
X106300000Y-94975000D02*
X106300000Y-100975000D01*
X103760000Y-94975000D02*
X103760000Y-100975000D01*
X101220000Y-94975000D02*
X101220000Y-100975000D01*
X99340000Y-94975000D02*
X99340000Y-100975000D01*
X99220000Y-94975000D02*
X99220000Y-100975000D01*
X99100000Y-94975000D02*
X99100000Y-100975000D01*
X98980000Y-94975000D02*
X98980000Y-100975000D01*
X98860000Y-94975000D02*
X98860000Y-100975000D01*
X98740000Y-94975000D02*
X98740000Y-100975000D01*
X98680000Y-94975000D02*
X98680000Y-100975000D01*
X97730000Y-94975000D02*
X97730000Y-92315000D01*
X122300000Y-100975000D02*
X122300000Y-94975000D01*
X121540000Y-100975000D02*
X122300000Y-100975000D01*
X119760000Y-100975000D02*
X119760000Y-94975000D01*
X119000000Y-100975000D02*
X119760000Y-100975000D01*
X117220000Y-100975000D02*
X117220000Y-94975000D01*
X116460000Y-100975000D02*
X117220000Y-100975000D01*
X114680000Y-100975000D02*
X114680000Y-94975000D01*
X113920000Y-100975000D02*
X114680000Y-100975000D01*
X112140000Y-100975000D02*
X112140000Y-94975000D01*
X111380000Y-100975000D02*
X112140000Y-100975000D01*
X109600000Y-100975000D02*
X109600000Y-94975000D01*
X108840000Y-100975000D02*
X109600000Y-100975000D01*
X107060000Y-100975000D02*
X107060000Y-94975000D01*
X106300000Y-100975000D02*
X107060000Y-100975000D01*
X104520000Y-100975000D02*
X104520000Y-94975000D01*
X103760000Y-100975000D02*
X104520000Y-100975000D01*
X101980000Y-100975000D02*
X101980000Y-94975000D01*
X101220000Y-100975000D02*
X101980000Y-100975000D01*
X99440000Y-100975000D02*
X99440000Y-94975000D01*
X98680000Y-100975000D02*
X99440000Y-100975000D01*
%TD*%
%LPC*%
D12*
%TO.C,D1*%
X88900000Y-93980000D03*
D13*
X88900000Y-91440000D03*
%TD*%
D14*
%TO.C,U4*%
X123730000Y-97950000D03*
X126270000Y-97950000D03*
X123730000Y-102050000D03*
X126270000Y-102050000D03*
%TD*%
%TO.C,U3*%
X98730000Y-97950000D03*
X101270000Y-97950000D03*
X98730000Y-102050000D03*
X101270000Y-102050000D03*
%TD*%
%TO.C,U6*%
X85090000Y-102870000D03*
X87630000Y-102870000D03*
X90170000Y-102870000D03*
X92710000Y-102870000D03*
%TD*%
%TO.C,U2*%
X73730000Y-97950000D03*
X76270000Y-97950000D03*
X73730000Y-102050000D03*
X76270000Y-102050000D03*
%TD*%
%TO.C,U5*%
X148730000Y-97950000D03*
X151270000Y-97950000D03*
X148730000Y-102050000D03*
X151270000Y-102050000D03*
%TD*%
%TO.C,U1*%
X48730000Y-97950000D03*
X51270000Y-97950000D03*
X48730000Y-102050000D03*
X51270000Y-102050000D03*
%TD*%
D15*
%TO.C,REF\u002A\u002A*%
X57150000Y-90805000D03*
D16*
X59690000Y-90805000D03*
X62230000Y-90805000D03*
X64770000Y-90805000D03*
X67310000Y-90805000D03*
X69850000Y-90805000D03*
X72390000Y-90805000D03*
X74930000Y-90805000D03*
X77470000Y-90805000D03*
X80010000Y-90805000D03*
%TD*%
D15*
%TO.C,J1*%
X99060000Y-90875000D03*
D16*
X101600000Y-90875000D03*
X104140000Y-90875000D03*
X106680000Y-90875000D03*
X109220000Y-90875000D03*
X111760000Y-90875000D03*
X114300000Y-90875000D03*
X116840000Y-90875000D03*
X119380000Y-90875000D03*
X121920000Y-90875000D03*
%TD*%
%LPD*%
M02*
