M48
; DRILL file {KiCad 7.0.9} date Thu Dec 19 20:14:40 2024
; FORMAT={-:-/ absolute / inch / decimal}
; #@! TF.CreationDate,2024-12-19T20:14:40+09:00
; #@! TF.GenerationSoftware,Kicad,Pcbnew,7.0.9
; #@! TF.FileFunction,Plated,1,2,PTH
FMAT,2
INCH
; #@! TA.AperFunction,Plated,PTH,ViaDrill
T1C0.0157
; #@! TA.AperFunction,Plated,PTH,ComponentDrill
T2C0.0197
; #@! TA.AperFunction,Plated,PTH,ComponentDrill
T3C0.0300
; #@! TA.AperFunction,Plated,PTH,ComponentDrill
T4C0.0374
; #@! TA.AperFunction,Plated,PTH,ComponentDrill
T5C0.0394
; #@! TA.AperFunction,Plated,PTH,ComponentDrill
T6C0.0429
; #@! TA.AperFunction,Plated,PTH,ComponentDrill
T7C0.0433
; #@! TA.AperFunction,Plated,PTH,ComponentDrill
T8C0.0472
; #@! TA.AperFunction,Plated,PTH,ComponentDrill
T9C0.0630
; #@! TA.AperFunction,Plated,PTH,ComponentDrill
T10C0.0984
; #@! TA.AperFunction,Plated,PTH,ComponentDrill
T11C0.1260
%
G90
G05
T1
X2.99Y-1.84
X3.01Y-1.97
X3.24Y-2.02
X3.24Y-2.3
X3.24Y-6.06
X3.31Y-2.22
X3.31Y-5.74
X3.35Y-6.05
X3.3779Y-2.225
X3.4052Y-2.0948
X3.42Y-5.73
X3.43Y-2.23
X3.47Y-2.0
X3.49Y-5.98
X3.53Y-2.06
X3.57Y-2.19
X3.57Y-6.08
X3.81Y-2.25
X3.88Y-4.91
X3.88Y-5.0
X3.9Y-2.67
X3.925Y-3.075
X3.925Y-3.6
X3.94Y-2.94
X3.9474Y-4.475
X3.9475Y-3.8583
X3.96Y-2.06
X3.97Y-1.82
X3.975Y-4.4
X4.0Y-2.62
X4.0Y-3.0
X4.0332Y-5.225
X4.04Y-2.96
X4.04Y-3.09
X4.05Y-2.72
X4.05Y-2.84
X4.06Y-2.57
X4.07Y-4.35
X4.07Y-4.49
X4.075Y-4.05
X4.08Y-4.95
X4.09Y-3.03
X4.12Y-2.64
X4.17Y-2.45
X4.19Y-2.57
X4.19Y-2.7
X4.19Y-2.97
X4.25Y-3.62
X4.29Y-2.9748
X4.29Y-3.3
X4.32Y-4.89
X4.34Y-3.02
X4.35Y-3.55
X4.35Y-3.82
X4.3827Y-3.3173
X4.39Y-2.49
X4.4Y-3.575
X4.42Y-2.89
X4.42Y-5.4
X4.45Y-2.58
X4.46Y-3.03
X4.48Y-3.42
X4.48Y-4.5
X4.49Y-4.83
X4.5Y-3.0
X4.5Y-4.99
X4.54Y-2.82
X4.55Y-2.93
X4.56Y-2.58
X4.72Y-4.55
X4.73Y-5.4
X4.74Y-2.43
X4.7465Y-2.7
X4.75Y-4.93
X4.76Y-3.15
X4.77Y-2.75
X4.8Y-2.45
X4.8002Y-2.8302
X4.8535Y-2.7997
X4.86Y-4.93
X4.8707Y-2.84
X4.88Y-3.11
X4.96Y-3.04
X4.98Y-4.85
X5.075Y-2.875
X5.075Y-2.925
X5.1173Y-2.9673
X5.1321Y-2.875
X5.15Y-2.5
X5.16Y-2.65
X5.2Y-2.45
X5.225Y-2.6
X5.26Y-4.96
X5.3Y-2.625
X5.32Y-5.51
X5.34Y-2.73
X5.37Y-2.45
X5.375Y-2.675
X5.39Y-4.83
X5.39Y-5.11
X5.44Y-2.82
X5.5Y-2.08
X5.52Y-2.73
X5.55Y-2.45
X5.63Y-2.37
X5.66Y-2.99
X5.825Y-3.15
X5.85Y-2.32
X5.875Y-3.25
X5.89Y-4.58
X5.95Y-3.15
X5.95Y-3.25
X6.01Y-3.15
X6.02Y-2.99
X6.13Y-3.03
X6.22Y-3.15
X6.33Y-2.84
X6.33Y-3.24
X6.345Y-2.965
X6.3524Y-3.04
X6.36Y-5.67
X6.51Y-1.85
X6.6Y-3.11
X6.63Y-2.33
X6.73Y-4.58
X6.83Y-2.53
X6.83Y-3.08
X6.85Y-4.87
T2
X3.685Y-1.9685
X3.685Y-5.9055
X3.7127Y-1.9017
X3.7127Y-2.0353
X3.7127Y-5.8387
X3.7127Y-5.9723
X3.7795Y-1.874
X3.7795Y-2.063
X3.7795Y-5.811
X3.7795Y-6.0
X3.8463Y-1.9017
X3.8463Y-2.0353
X3.8463Y-5.8387
X3.8463Y-5.9723
X3.874Y-1.9685
X3.874Y-5.9055
T3
X3.1Y-1.8685
X3.1Y-1.9685
X3.1Y-6.0
X3.2Y-1.8685
X3.2Y-1.9685
X3.2Y-6.0
X3.3Y-1.8685
X3.3Y-5.9
X3.3Y-6.0
X3.4Y-1.8685
X3.4Y-5.9
X3.4Y-6.0
X6.725Y-2.3713
X6.725Y-2.45
X6.725Y-2.5287
T4
X3.6458Y-4.3024
X3.6458Y-4.4008
X3.6458Y-4.4992
X3.6458Y-4.5976
X3.65Y-3.361
X3.65Y-3.4594
X3.65Y-3.5579
X3.65Y-3.6563
X3.65Y-3.7547
X3.65Y-3.8531
X3.65Y-3.9516
X3.65Y-4.05
T5
X3.44Y-5.63
X3.46Y-2.36
X3.54Y-5.63
X3.56Y-2.36
X3.64Y-5.63
X3.66Y-2.36
X3.6622Y-2.5494
X3.6622Y-2.6494
X3.6622Y-2.7494
X3.6622Y-2.9494
X3.6622Y-3.0494
X3.6622Y-3.1494
X3.6622Y-4.8294
X3.6622Y-4.9294
X3.6622Y-5.0294
X3.6622Y-5.2294
X3.6622Y-5.3294
X3.6622Y-5.4294
X4.0Y-2.3
X4.0Y-3.2
X4.1Y-2.3
X4.1Y-3.2
X4.1508Y-4.2358
X4.2Y-2.3
X4.2Y-3.2
X4.2492Y-4.2358
X4.3Y-2.3
X4.3Y-2.5
X4.3Y-2.6
X4.3Y-2.7
X4.3Y-2.8
X4.3Y-2.9
X4.3Y-3.2
X4.4Y-2.3
X4.4Y-3.2
X4.5Y-2.3
X4.5Y-3.2
X4.6Y-2.3
X4.6Y-3.2
X4.7Y-2.3
X4.7Y-3.2
X4.8Y-2.3
X4.8Y-3.2
X4.9Y-2.3
X4.9Y-3.2
X5.0Y-2.3
X5.0Y-3.2
X5.1Y-2.3
X5.1Y-3.2
X5.2Y-2.3
X5.2Y-3.2
X5.3Y-2.3
X5.3Y-3.2
X5.4Y-2.3
X5.4Y-3.2
X5.5Y-2.3
X5.5Y-3.2
X6.4285Y-2.9516
X6.4285Y-3.0516
X6.4285Y-3.1516
X6.4285Y-3.2516
X6.5285Y-2.9516
X6.5285Y-3.0516
X6.5285Y-3.1516
X6.5285Y-3.2516
T6
X6.075Y-4.65
X6.075Y-4.75
X6.075Y-4.85
X6.275Y-4.65
X6.275Y-4.85
T7
X6.1947Y-5.8
X6.2848Y-5.8
X6.375Y-5.8
T8
X6.725Y-2.2846
X6.725Y-2.6154
T9
X6.5831Y-5.3197
X6.5831Y-5.85
X6.7169Y-5.3197
X6.7169Y-5.85
T10
X5.6715Y-5.45
X5.9785Y-5.45
T11
X3.7795Y-1.9685
X3.7795Y-5.9055
T0
M30
