%TF.GenerationSoftware,KiCad,Pcbnew,7.0.9*%
%TF.CreationDate,2024-12-19T20:14:40+09:00*%
%TF.ProjectId,04-PWR,30342d50-5752-42e6-9b69-6361645f7063,rev?*%
%TF.SameCoordinates,Original*%
%TF.FileFunction,Profile,NP*%
%FSLAX46Y46*%
G04 Gerber Fmt 4.6, Leading zero omitted, Abs format (unit mm)*
G04 Created by KiCad (PCBNEW 7.0.9) date 2024-12-19 20:14:40*
%MOMM*%
%LPD*%
G01*
G04 APERTURE LIST*
%TA.AperFunction,Profile*%
%ADD10C,0.200000*%
%TD*%
G04 APERTURE END LIST*
D10*
X155000000Y-130050000D02*
G75*
G03*
X155000000Y-130050000I-5000000J0D01*
G01*
X165000000Y-155000000D02*
G75*
G03*
X175000000Y-145000000I0J10000000D01*
G01*
X115000000Y-85000000D02*
X142000001Y-85000000D01*
X142000001Y-115000000D02*
X115000000Y-115000000D01*
X161600000Y-60000000D02*
G75*
G03*
X161600000Y-60000000I-1600000J0D01*
G01*
X165000000Y-45000000D02*
X75000000Y-45000000D01*
X85000000Y-60000000D02*
X85000000Y-140000000D01*
X170000000Y-85000000D02*
X170000000Y-115000000D01*
X175000000Y-55000000D02*
G75*
G03*
X165000000Y-45000000I-10000000J0D01*
G01*
X115000000Y-115000000D02*
X115000000Y-85000000D01*
X75000000Y-155000000D02*
X165000000Y-155000000D01*
X75000000Y-140000000D02*
X75000000Y-155000000D01*
X81600000Y-55000000D02*
G75*
G03*
X81600000Y-55000000I-1600000J0D01*
G01*
X155000000Y-70000000D02*
G75*
G03*
X155000000Y-70000000I-5000000J0D01*
G01*
X75000000Y-60000000D02*
X85000000Y-60000000D01*
X150000000Y-85000000D02*
X170000000Y-85000000D01*
X85000000Y-140000000D02*
X75000000Y-140000000D01*
X150000000Y-115000000D02*
X150000000Y-85000000D01*
X161600000Y-140000000D02*
G75*
G03*
X161600000Y-140000000I-1600000J0D01*
G01*
X75000000Y-45000000D02*
X75000000Y-60000000D01*
X142000001Y-85000000D02*
X142000001Y-115000000D01*
X170000000Y-115000000D02*
X150000000Y-115000000D01*
X175000000Y-145000000D02*
X175000000Y-55000000D01*
X81600000Y-145000000D02*
G75*
G03*
X81600000Y-145000000I-1600000J0D01*
G01*
M02*
