%TF.GenerationSoftware,KiCad,Pcbnew,7.0.9*%
%TF.CreationDate,2024-12-19T20:14:40+09:00*%
%TF.ProjectId,04-PWR,30342d50-5752-42e6-9b69-6361645f7063,rev?*%
%TF.SameCoordinates,Original*%
%TF.FileFunction,Paste,Top*%
%TF.FilePolarity,Positive*%
%FSLAX46Y46*%
G04 Gerber Fmt 4.6, Leading zero omitted, Abs format (unit mm)*
G04 Created by KiCad (PCBNEW 7.0.9) date 2024-12-19 20:14:40*
%MOMM*%
%LPD*%
G01*
G04 APERTURE LIST*
G04 Aperture macros list*
%AMRoundRect*
0 Rectangle with rounded corners*
0 $1 Rounding radius*
0 $2 $3 $4 $5 $6 $7 $8 $9 X,Y pos of 4 corners*
0 Add a 4 corners polygon primitive as box body*
4,1,4,$2,$3,$4,$5,$6,$7,$8,$9,$2,$3,0*
0 Add four circle primitives for the rounded corners*
1,1,$1+$1,$2,$3*
1,1,$1+$1,$4,$5*
1,1,$1+$1,$6,$7*
1,1,$1+$1,$8,$9*
0 Add four rect primitives between the rounded corners*
20,1,$1+$1,$2,$3,$4,$5,0*
20,1,$1+$1,$4,$5,$6,$7,0*
20,1,$1+$1,$6,$7,$8,$9,0*
20,1,$1+$1,$8,$9,$2,$3,0*%
G04 Aperture macros list end*
%ADD10R,1.200000X3.000000*%
%ADD11R,2.000000X4.000000*%
%ADD12R,3.000000X1.200000*%
%ADD13R,1.770000X4.112100*%
%ADD14R,4.170000X1.862000*%
%ADD15R,1.200000X1.500000*%
%ADD16RoundRect,0.075000X-0.662500X-0.075000X0.662500X-0.075000X0.662500X0.075000X-0.662500X0.075000X0*%
%ADD17RoundRect,0.075000X-0.075000X-0.662500X0.075000X-0.662500X0.075000X0.662500X-0.075000X0.662500X0*%
%ADD18RoundRect,0.140000X0.140000X0.170000X-0.140000X0.170000X-0.140000X-0.170000X0.140000X-0.170000X0*%
%ADD19RoundRect,0.250000X0.475000X-0.250000X0.475000X0.250000X-0.475000X0.250000X-0.475000X-0.250000X0*%
%ADD20RoundRect,0.250000X-0.475000X0.250000X-0.475000X-0.250000X0.475000X-0.250000X0.475000X0.250000X0*%
%ADD21RoundRect,0.200000X-0.200000X-0.275000X0.200000X-0.275000X0.200000X0.275000X-0.200000X0.275000X0*%
%ADD22RoundRect,0.200000X0.200000X0.275000X-0.200000X0.275000X-0.200000X-0.275000X0.200000X-0.275000X0*%
%ADD23RoundRect,0.200000X0.275000X-0.200000X0.275000X0.200000X-0.275000X0.200000X-0.275000X-0.200000X0*%
%ADD24RoundRect,0.140000X-0.170000X0.140000X-0.170000X-0.140000X0.170000X-0.140000X0.170000X0.140000X0*%
%ADD25RoundRect,0.140000X0.170000X-0.140000X0.170000X0.140000X-0.170000X0.140000X-0.170000X-0.140000X0*%
%ADD26RoundRect,0.200000X-0.275000X0.200000X-0.275000X-0.200000X0.275000X-0.200000X0.275000X0.200000X0*%
%ADD27RoundRect,0.243750X-0.243750X-0.456250X0.243750X-0.456250X0.243750X0.456250X-0.243750X0.456250X0*%
%ADD28RoundRect,0.135000X0.135000X0.185000X-0.135000X0.185000X-0.135000X-0.185000X0.135000X-0.185000X0*%
G04 APERTURE END LIST*
D10*
%TO.C,U5*%
X111760000Y-132350000D03*
X107180000Y-132350000D03*
D11*
X107180000Y-130407600D03*
D12*
X106160000Y-129040000D03*
X106160000Y-126750000D03*
D13*
X107180000Y-125602650D03*
D12*
X106160000Y-124460000D03*
D14*
X108280200Y-122025600D03*
D10*
X107180000Y-121150000D03*
X111760000Y-121150000D03*
X116340000Y-121150000D03*
D12*
X117360000Y-126750000D03*
X117360000Y-129040000D03*
D10*
X116340000Y-132350000D03*
X114050000Y-132350000D03*
D15*
X114050000Y-120400000D03*
D12*
X117360000Y-124460000D03*
%TD*%
D16*
%TO.C,U1*%
X119027500Y-67100000D03*
X119027500Y-67600000D03*
X119027500Y-68100000D03*
X119027500Y-68600000D03*
X119027500Y-69100000D03*
X119027500Y-69600000D03*
X119027500Y-70100000D03*
X119027500Y-70600000D03*
X119027500Y-71100000D03*
X119027500Y-71600000D03*
X119027500Y-72100000D03*
X119027500Y-72600000D03*
D17*
X120440000Y-74012500D03*
X120940000Y-74012500D03*
X121440000Y-74012500D03*
X121940000Y-74012500D03*
X122440000Y-74012500D03*
X122940000Y-74012500D03*
X123440000Y-74012500D03*
X123940000Y-74012500D03*
X124440000Y-74012500D03*
X124940000Y-74012500D03*
X125440000Y-74012500D03*
X125940000Y-74012500D03*
D16*
X127352500Y-72600000D03*
X127352500Y-72100000D03*
X127352500Y-71600000D03*
X127352500Y-71100000D03*
X127352500Y-70600000D03*
X127352500Y-70100000D03*
X127352500Y-69600000D03*
X127352500Y-69100000D03*
X127352500Y-68600000D03*
X127352500Y-68100000D03*
X127352500Y-67600000D03*
X127352500Y-67100000D03*
D17*
X125940000Y-65687500D03*
X125440000Y-65687500D03*
X124940000Y-65687500D03*
X124440000Y-65687500D03*
X123940000Y-65687500D03*
X123440000Y-65687500D03*
X122940000Y-65687500D03*
X122440000Y-65687500D03*
X121940000Y-65687500D03*
X121440000Y-65687500D03*
X120940000Y-65687500D03*
X120440000Y-65687500D03*
%TD*%
D18*
%TO.C,C3*%
X126464000Y-75565000D03*
X125504000Y-75565000D03*
%TD*%
D19*
%TO.C,C8*%
X124015000Y-129410000D03*
X124015000Y-127510000D03*
%TD*%
D10*
%TO.C,U4*%
X134810000Y-132600000D03*
X130230000Y-132600000D03*
D11*
X130230000Y-130657600D03*
D12*
X129210000Y-129290000D03*
X129210000Y-127000000D03*
D13*
X130230000Y-125852650D03*
D12*
X129210000Y-124710000D03*
D14*
X131330200Y-122275600D03*
D10*
X130230000Y-121400000D03*
X134810000Y-121400000D03*
X139390000Y-121400000D03*
D12*
X140410000Y-127000000D03*
X140410000Y-129290000D03*
D10*
X139390000Y-132600000D03*
X137100000Y-132600000D03*
D15*
X137100000Y-120650000D03*
D12*
X140410000Y-124710000D03*
%TD*%
D20*
%TO.C,C11*%
X102235000Y-122240000D03*
X102235000Y-124140000D03*
%TD*%
D18*
%TO.C,C1*%
X118308000Y-66040000D03*
X117348000Y-66040000D03*
%TD*%
D21*
%TO.C,R9*%
X119190000Y-122555000D03*
X120840000Y-122555000D03*
%TD*%
D19*
%TO.C,C9*%
X101600000Y-128970000D03*
X101600000Y-127070000D03*
%TD*%
D22*
%TO.C,R5*%
X171450000Y-52070000D03*
X169800000Y-52070000D03*
%TD*%
D23*
%TO.C,R1*%
X123952000Y-77533000D03*
X123952000Y-75883000D03*
%TD*%
D21*
%TO.C,R4*%
X78677000Y-149860000D03*
X80327000Y-149860000D03*
%TD*%
D24*
%TO.C,C4*%
X129032000Y-66548000D03*
X129032000Y-67508000D03*
%TD*%
D21*
%TO.C,R7*%
X119190000Y-119507000D03*
X120840000Y-119507000D03*
%TD*%
D25*
%TO.C,C2*%
X115824000Y-70231000D03*
X115824000Y-69271000D03*
%TD*%
D26*
%TO.C,R12*%
X122555000Y-121285000D03*
X122555000Y-122935000D03*
%TD*%
D25*
%TO.C,C5*%
X119380000Y-65504000D03*
X119380000Y-64544000D03*
%TD*%
D27*
%TO.C,D1*%
X169877500Y-53975000D03*
X171752500Y-53975000D03*
%TD*%
D21*
%TO.C,R10*%
X142050000Y-120015000D03*
X143700000Y-120015000D03*
%TD*%
D26*
%TO.C,R13*%
X100330000Y-122302000D03*
X100330000Y-123952000D03*
%TD*%
D22*
%TO.C,R8*%
X120840000Y-121031000D03*
X119190000Y-121031000D03*
%TD*%
D25*
%TO.C,C6*%
X116840000Y-71247000D03*
X116840000Y-70287000D03*
%TD*%
D20*
%TO.C,C10*%
X124460000Y-120970000D03*
X124460000Y-122870000D03*
%TD*%
D21*
%TO.C,R3*%
X84265000Y-50292000D03*
X85915000Y-50292000D03*
%TD*%
D28*
%TO.C,C7*%
X118366000Y-64770000D03*
X117346000Y-64770000D03*
%TD*%
D26*
%TO.C,R2*%
X160655000Y-78995000D03*
X160655000Y-80645000D03*
%TD*%
D23*
%TO.C,R6*%
X163830000Y-144335000D03*
X163830000Y-142685000D03*
%TD*%
D26*
%TO.C,R11*%
X143510000Y-121920000D03*
X143510000Y-123570000D03*
%TD*%
M02*
