%TF.GenerationSoftware,KiCad,Pcbnew,7.0.9*%
%TF.CreationDate,2024-10-29T13:49:45+09:00*%
%TF.ProjectId,02-top,30322d74-6f70-42e6-9b69-6361645f7063,rev?*%
%TF.SameCoordinates,Original*%
%TF.FileFunction,Copper,L1,Top*%
%TF.FilePolarity,Positive*%
%FSLAX46Y46*%
G04 Gerber Fmt 4.6, Leading zero omitted, Abs format (unit mm)*
G04 Created by KiCad (PCBNEW 7.0.9) date 2024-10-29 13:49:45*
%MOMM*%
%LPD*%
G01*
G04 APERTURE LIST*
G04 Aperture macros list*
%AMRoundRect*
0 Rectangle with rounded corners*
0 $1 Rounding radius*
0 $2 $3 $4 $5 $6 $7 $8 $9 X,Y pos of 4 corners*
0 Add a 4 corners polygon primitive as box body*
4,1,4,$2,$3,$4,$5,$6,$7,$8,$9,$2,$3,0*
0 Add four circle primitives for the rounded corners*
1,1,$1+$1,$2,$3*
1,1,$1+$1,$4,$5*
1,1,$1+$1,$6,$7*
1,1,$1+$1,$8,$9*
0 Add four rect primitives between the rounded corners*
20,1,$1+$1,$2,$3,$4,$5,0*
20,1,$1+$1,$4,$5,$6,$7,0*
20,1,$1+$1,$6,$7,$8,$9,0*
20,1,$1+$1,$8,$9,$2,$3,0*%
G04 Aperture macros list end*
%TA.AperFunction,ComponentPad*%
%ADD10RoundRect,0.250000X0.600000X0.725000X-0.600000X0.725000X-0.600000X-0.725000X0.600000X-0.725000X0*%
%TD*%
%TA.AperFunction,ComponentPad*%
%ADD11O,1.700000X1.950000*%
%TD*%
%TA.AperFunction,ComponentPad*%
%ADD12C,2.000000*%
%TD*%
%TA.AperFunction,SMDPad,CuDef*%
%ADD13R,0.900000X1.500000*%
%TD*%
%TA.AperFunction,ComponentPad*%
%ADD14R,1.700000X1.700000*%
%TD*%
%TA.AperFunction,ComponentPad*%
%ADD15O,1.700000X1.700000*%
%TD*%
%TA.AperFunction,ComponentPad*%
%ADD16C,1.524000*%
%TD*%
%TA.AperFunction,ComponentPad*%
%ADD17C,1.600000*%
%TD*%
%TA.AperFunction,ComponentPad*%
%ADD18O,1.600000X1.600000*%
%TD*%
%TA.AperFunction,ViaPad*%
%ADD19C,0.800000*%
%TD*%
%TA.AperFunction,Conductor*%
%ADD20C,0.400000*%
%TD*%
%TA.AperFunction,Conductor*%
%ADD21C,0.250000*%
%TD*%
G04 APERTURE END LIST*
D10*
%TO.P,J1,1,Pin_1*%
%TO.N,+5V*%
X35560000Y-64770000D03*
D11*
%TO.P,J1,2,Pin_2*%
%TO.N,UART5_RX*%
X33060000Y-64770000D03*
%TO.P,J1,3,Pin_3*%
%TO.N,UART5_TX*%
X30560000Y-64770000D03*
%TO.P,J1,4,Pin_4*%
%TO.N,GND*%
X28060000Y-64770000D03*
%TD*%
D12*
%TO.P,SW3,1,1*%
%TO.N,SW3*%
X101190000Y-57440000D03*
X94690000Y-57440000D03*
%TO.P,SW3,2,2*%
%TO.N,GND*%
X101190000Y-61940000D03*
X94690000Y-61940000D03*
%TD*%
%TO.P,SW2,1,1*%
%TO.N,SW2*%
X91590000Y-57440000D03*
X85090000Y-57440000D03*
%TO.P,SW2,2,2*%
%TO.N,GND*%
X91590000Y-61940000D03*
X85090000Y-61940000D03*
%TD*%
%TO.P,SW1,1,1*%
%TO.N,SW1*%
X81430000Y-57440000D03*
X74930000Y-57440000D03*
%TO.P,SW1,2,2*%
%TO.N,GND*%
X81430000Y-61940000D03*
X74930000Y-61940000D03*
%TD*%
D13*
%TO.P,D3,1,VDD*%
%TO.N,+5V*%
X76710000Y-73750000D03*
%TO.P,D3,2,DOUT*%
%TO.N,Net-(D3-DOUT)*%
X80010000Y-73750000D03*
%TO.P,D3,3,VSS*%
%TO.N,GND*%
X80010000Y-68850000D03*
%TO.P,D3,4,DIN*%
%TO.N,Net-(D2-DOUT)*%
X76710000Y-68850000D03*
%TD*%
%TO.P,D4,1,VDD*%
%TO.N,+5V*%
X84330000Y-73660000D03*
%TO.P,D4,2,DOUT*%
%TO.N,Net-(D4-DOUT)*%
X87630000Y-73660000D03*
%TO.P,D4,3,VSS*%
%TO.N,GND*%
X87630000Y-68760000D03*
%TO.P,D4,4,DIN*%
%TO.N,Net-(D3-DOUT)*%
X84330000Y-68760000D03*
%TD*%
%TO.P,D6,1,VDD*%
%TO.N,+5V*%
X98680000Y-73660000D03*
%TO.P,D6,2,DOUT*%
%TO.N,unconnected-(D6-DOUT-Pad2)*%
X101980000Y-73660000D03*
%TO.P,D6,3,VSS*%
%TO.N,GND*%
X101980000Y-68760000D03*
%TO.P,D6,4,DIN*%
%TO.N,Net-(D5-DOUT)*%
X98680000Y-68760000D03*
%TD*%
D14*
%TO.P,J2,1,Pin_1*%
%TO.N,GND*%
X113040000Y-53340000D03*
D15*
%TO.P,J2,2,Pin_2*%
%TO.N,+3V3*%
X115580000Y-53340000D03*
%TO.P,J2,3,Pin_3*%
%TO.N,I2C_SCL*%
X118120000Y-53340000D03*
%TO.P,J2,4,Pin_4*%
%TO.N,I2C_SDA*%
X120660000Y-53340000D03*
%TD*%
D13*
%TO.P,D2,1,VDD*%
%TO.N,+5V*%
X69090000Y-73660000D03*
%TO.P,D2,2,DOUT*%
%TO.N,Net-(D2-DOUT)*%
X72390000Y-73660000D03*
%TO.P,D2,3,VSS*%
%TO.N,GND*%
X72390000Y-68760000D03*
%TO.P,D2,4,DIN*%
%TO.N,Net-(D1-DOUT)*%
X69090000Y-68760000D03*
%TD*%
D15*
%TO.P,SW4,3,C*%
%TO.N,unconnected-(SW4-C-Pad3)*%
X80660000Y-53975000D03*
%TO.P,SW4,2,B*%
%TO.N,SW*%
X78120000Y-53975000D03*
D14*
%TO.P,SW4,1,A*%
%TO.N,GND*%
X75580000Y-53975000D03*
%TD*%
D13*
%TO.P,D1,1,VDD*%
%TO.N,+5V*%
X61850000Y-73660000D03*
%TO.P,D1,2,DOUT*%
%TO.N,Net-(D1-DOUT)*%
X65150000Y-73660000D03*
%TO.P,D1,3,VSS*%
%TO.N,GND*%
X65150000Y-68760000D03*
%TO.P,D1,4,DIN*%
%TO.N,WS2812B*%
X61850000Y-68760000D03*
%TD*%
%TO.P,D5,1,VDD*%
%TO.N,+5V*%
X91950000Y-73660000D03*
%TO.P,D5,2,DOUT*%
%TO.N,Net-(D5-DOUT)*%
X95250000Y-73660000D03*
%TO.P,D5,3,VSS*%
%TO.N,GND*%
X95250000Y-68760000D03*
%TO.P,D5,4,DIN*%
%TO.N,Net-(D4-DOUT)*%
X91950000Y-68760000D03*
%TD*%
D16*
%TO.P,U1,1,D0*%
%TO.N,unconnected-(U1-D0-Pad1)*%
X57150000Y-69850000D03*
%TO.P,U1,2,D1*%
%TO.N,unconnected-(U1-D1-Pad2)*%
X57150000Y-67310000D03*
%TO.P,U1,3,D2*%
%TO.N,SW*%
X57150000Y-64770000D03*
%TO.P,U1,4,D3*%
%TO.N,WS2812B*%
X57150000Y-62230000D03*
%TO.P,U1,5,D4*%
%TO.N,I2C_SDA*%
X57150000Y-59690000D03*
%TO.P,U1,6,D5*%
%TO.N,I2C_SCL*%
X57150000Y-57150000D03*
%TO.P,U1,7,D6*%
%TO.N,UART5_RX*%
X57150000Y-54610000D03*
%TO.P,U1,8,D7*%
%TO.N,UART5_TX*%
X41910000Y-54610000D03*
%TO.P,U1,9,D8*%
%TO.N,SW3*%
X41910000Y-57150000D03*
%TO.P,U1,10,D9*%
%TO.N,SW2*%
X41910000Y-59690000D03*
%TO.P,U1,11,D10*%
%TO.N,SW1*%
X41910000Y-62230000D03*
%TO.P,U1,12,3V3*%
%TO.N,+3V3*%
X41910000Y-64770000D03*
%TO.P,U1,13,GND*%
%TO.N,GND*%
X41910000Y-67310000D03*
%TO.P,U1,14,5V*%
%TO.N,+5V*%
X41910000Y-69850000D03*
%TD*%
D17*
%TO.P,R1,1*%
%TO.N,+3V3*%
X54610000Y-64135000D03*
D18*
%TO.P,R1,2*%
%TO.N,SW1*%
X44450000Y-64135000D03*
%TD*%
D17*
%TO.P,R3,1*%
%TO.N,+3V3*%
X54610000Y-57785000D03*
D18*
%TO.P,R3,2*%
%TO.N,SW3*%
X44450000Y-57785000D03*
%TD*%
D17*
%TO.P,R2,1*%
%TO.N,+3V3*%
X54610000Y-60960000D03*
D18*
%TO.P,R2,2*%
%TO.N,SW2*%
X44450000Y-60960000D03*
%TD*%
D17*
%TO.P,R4,1*%
%TO.N,+3V3*%
X44450000Y-54610000D03*
D18*
%TO.P,R4,2*%
%TO.N,SW*%
X54610000Y-54610000D03*
%TD*%
D19*
%TO.N,GND*%
X84455000Y-52070000D03*
X82550000Y-53975000D03*
X75565000Y-52070000D03*
%TO.N,WS2812B*%
X59055000Y-67310000D03*
%TO.N,GND*%
X37465000Y-63500000D03*
X38735000Y-58420000D03*
X141605000Y-53340000D03*
X141605000Y-71120000D03*
X24765000Y-74930000D03*
X71755000Y-53975000D03*
X39370000Y-65405000D03*
X43180000Y-71755000D03*
X102235000Y-71120000D03*
X100330000Y-68580000D03*
X100330000Y-73660000D03*
X93980000Y-68580000D03*
X86360000Y-68580000D03*
X82550000Y-68580000D03*
X78105000Y-68580000D03*
X70485000Y-68580000D03*
X74930000Y-68580000D03*
X67310000Y-68580000D03*
X63500000Y-68580000D03*
X63500000Y-73660000D03*
X67310000Y-73025000D03*
X74295000Y-73025000D03*
X82550000Y-73025000D03*
X90170000Y-72390000D03*
X97155000Y-72390000D03*
X93345000Y-71120000D03*
X85725000Y-71120000D03*
X78105000Y-71120000D03*
X70485000Y-71120000D03*
X63500000Y-71120000D03*
X24765000Y-52705000D03*
X52070000Y-57785000D03*
X114935000Y-60960000D03*
X107315000Y-53340000D03*
%TD*%
D20*
%TO.N,WS2812B*%
X60505000Y-68760000D02*
X59055000Y-67310000D01*
X61850000Y-68760000D02*
X60505000Y-68760000D01*
%TO.N,+3V3*%
X58311999Y-55988000D02*
X56407000Y-55988000D01*
X83185000Y-55245000D02*
X59054999Y-55245000D01*
X114330000Y-52090000D02*
X86340000Y-52090000D01*
X59054999Y-55245000D02*
X58311999Y-55988000D01*
X56407000Y-55988000D02*
X54610000Y-57785000D01*
X115580000Y-53340000D02*
X114330000Y-52090000D01*
X86340000Y-52090000D02*
X83185000Y-55245000D01*
D21*
%TO.N,SW*%
X76945000Y-52800000D02*
X78120000Y-53975000D01*
X56420000Y-52800000D02*
X76945000Y-52800000D01*
X54610000Y-54610000D02*
X56420000Y-52800000D01*
%TO.N,SW3*%
X40005000Y-64770000D02*
X40005000Y-59055000D01*
X41275000Y-66040000D02*
X40005000Y-64770000D01*
X60959125Y-66040000D02*
X41275000Y-66040000D01*
X84346167Y-67310000D02*
X62229125Y-67310000D01*
X40005000Y-59055000D02*
X41910000Y-57150000D01*
X94216167Y-57440000D02*
X84346167Y-67310000D01*
X62229125Y-67310000D02*
X60959125Y-66040000D01*
X94690000Y-57440000D02*
X94216167Y-57440000D01*
%TO.N,SW2*%
X43325000Y-61105000D02*
X41910000Y-59690000D01*
X43325000Y-64600991D02*
X43325000Y-61105000D01*
X43984009Y-65260000D02*
X43325000Y-64600991D01*
X55075991Y-65260000D02*
X43984009Y-65260000D01*
X56835991Y-63500000D02*
X55075991Y-65260000D01*
X69850000Y-63500000D02*
X56835991Y-63500000D01*
X72735000Y-60615000D02*
X69850000Y-63500000D01*
X81915000Y-60615000D02*
X72735000Y-60615000D01*
X85090000Y-57440000D02*
X81915000Y-60615000D01*
%TO.N,SW1*%
X56017991Y-61143000D02*
X54295991Y-62865000D01*
X45720000Y-62865000D02*
X44450000Y-64135000D01*
X64092556Y-61143000D02*
X56017991Y-61143000D01*
X65307059Y-62357503D02*
X64092556Y-61143000D01*
X70012497Y-62357503D02*
X65307059Y-62357503D01*
X74930000Y-57440000D02*
X70012497Y-62357503D01*
X54295991Y-62865000D02*
X45720000Y-62865000D01*
D20*
%TO.N,+5V*%
X42545000Y-73660000D02*
X35560000Y-66675000D01*
X35560000Y-66675000D02*
X35560000Y-64770000D01*
X61850000Y-73660000D02*
X42545000Y-73660000D01*
X97530000Y-74810000D02*
X98680000Y-73660000D01*
X93100000Y-74810000D02*
X97530000Y-74810000D01*
X91950000Y-73660000D02*
X93100000Y-74810000D01*
X90800000Y-74810000D02*
X91950000Y-73660000D01*
X85480000Y-74810000D02*
X90800000Y-74810000D01*
X84330000Y-73660000D02*
X85480000Y-74810000D01*
X83090000Y-74900000D02*
X84330000Y-73660000D01*
X77860000Y-74900000D02*
X83090000Y-74900000D01*
X76710000Y-73750000D02*
X77860000Y-74900000D01*
X75650000Y-74810000D02*
X76710000Y-73750000D01*
X69090000Y-73660000D02*
X70240000Y-74810000D01*
X70240000Y-74810000D02*
X75650000Y-74810000D01*
X67940000Y-74810000D02*
X69090000Y-73660000D01*
X62700000Y-74810000D02*
X67940000Y-74810000D01*
X61850000Y-73960000D02*
X62700000Y-74810000D01*
X61850000Y-73660000D02*
X61850000Y-73960000D01*
D21*
%TO.N,Net-(D5-DOUT)*%
X95250000Y-73660000D02*
X95250000Y-72190000D01*
X95250000Y-72190000D02*
X98680000Y-68760000D01*
%TO.N,Net-(D4-DOUT)*%
X87630000Y-73660000D02*
X91950000Y-69340000D01*
X91950000Y-69340000D02*
X91950000Y-68760000D01*
%TO.N,Net-(D3-DOUT)*%
X84330000Y-69430000D02*
X84330000Y-68760000D01*
X80010000Y-73750000D02*
X84330000Y-69430000D01*
%TO.N,Net-(D2-DOUT)*%
X72390000Y-73170000D02*
X76710000Y-68850000D01*
X72390000Y-73660000D02*
X72390000Y-73170000D01*
%TO.N,Net-(D1-DOUT)*%
X65150000Y-72700000D02*
X69090000Y-68760000D01*
X65150000Y-73660000D02*
X65150000Y-72700000D01*
%TD*%
%TA.AperFunction,Conductor*%
%TO.N,GND*%
G36*
X86098955Y-51220185D02*
G01*
X86144710Y-51272989D01*
X86154654Y-51342147D01*
X86125629Y-51405703D01*
X86082801Y-51437578D01*
X86073515Y-51441757D01*
X86070058Y-51443189D01*
X86012071Y-51465181D01*
X86012066Y-51465184D01*
X86003722Y-51470943D01*
X85984187Y-51481961D01*
X85974947Y-51486120D01*
X85974945Y-51486121D01*
X85926136Y-51524359D01*
X85923122Y-51526576D01*
X85872070Y-51561817D01*
X85872068Y-51561818D01*
X85830942Y-51608240D01*
X85828375Y-51610966D01*
X82931162Y-54508181D01*
X82869839Y-54541666D01*
X82843481Y-54544500D01*
X82067144Y-54544500D01*
X82000105Y-54524815D01*
X81954350Y-54472011D01*
X81944406Y-54402853D01*
X81947369Y-54388407D01*
X81954124Y-54363195D01*
X81995063Y-54210408D01*
X82015659Y-53975000D01*
X81995063Y-53739592D01*
X81933903Y-53511337D01*
X81834035Y-53297171D01*
X81828425Y-53289158D01*
X81698494Y-53103597D01*
X81531402Y-52936506D01*
X81531395Y-52936501D01*
X81337834Y-52800967D01*
X81337830Y-52800965D01*
X81315388Y-52790500D01*
X81123663Y-52701097D01*
X81123659Y-52701096D01*
X81123655Y-52701094D01*
X80895413Y-52639938D01*
X80895403Y-52639936D01*
X80660001Y-52619341D01*
X80659999Y-52619341D01*
X80424596Y-52639936D01*
X80424586Y-52639938D01*
X80196344Y-52701094D01*
X80196335Y-52701098D01*
X79982171Y-52800964D01*
X79982169Y-52800965D01*
X79788597Y-52936505D01*
X79621505Y-53103597D01*
X79491575Y-53289158D01*
X79436998Y-53332783D01*
X79367500Y-53339977D01*
X79305145Y-53308454D01*
X79288425Y-53289158D01*
X79158494Y-53103597D01*
X78991402Y-52936506D01*
X78991395Y-52936501D01*
X78797834Y-52800967D01*
X78797830Y-52800965D01*
X78775388Y-52790500D01*
X78583663Y-52701097D01*
X78583659Y-52701096D01*
X78583655Y-52701094D01*
X78355413Y-52639938D01*
X78355403Y-52639936D01*
X78120001Y-52619341D01*
X78119999Y-52619341D01*
X77884590Y-52639937D01*
X77884589Y-52639937D01*
X77784124Y-52666855D01*
X77714274Y-52665191D01*
X77664352Y-52634761D01*
X77445803Y-52416212D01*
X77435980Y-52403950D01*
X77435759Y-52404134D01*
X77430786Y-52398123D01*
X77412159Y-52380631D01*
X77380364Y-52350773D01*
X77369919Y-52340328D01*
X77359475Y-52329883D01*
X77353986Y-52325625D01*
X77349561Y-52321847D01*
X77315582Y-52289938D01*
X77315580Y-52289936D01*
X77315577Y-52289935D01*
X77298029Y-52280288D01*
X77281763Y-52269604D01*
X77265933Y-52257325D01*
X77223168Y-52238818D01*
X77217922Y-52236248D01*
X77177093Y-52213803D01*
X77177092Y-52213802D01*
X77157693Y-52208822D01*
X77139281Y-52202518D01*
X77120898Y-52194562D01*
X77120892Y-52194560D01*
X77074874Y-52187272D01*
X77069152Y-52186087D01*
X77024021Y-52174500D01*
X77024019Y-52174500D01*
X77003984Y-52174500D01*
X76984586Y-52172973D01*
X76977162Y-52171797D01*
X76964805Y-52169840D01*
X76964804Y-52169840D01*
X76918416Y-52174225D01*
X76912578Y-52174500D01*
X56502743Y-52174500D01*
X56487122Y-52172775D01*
X56487095Y-52173061D01*
X56479333Y-52172326D01*
X56410172Y-52174500D01*
X56380649Y-52174500D01*
X56373778Y-52175367D01*
X56367959Y-52175825D01*
X56321374Y-52177289D01*
X56321368Y-52177290D01*
X56302126Y-52182880D01*
X56283087Y-52186823D01*
X56263217Y-52189334D01*
X56263203Y-52189337D01*
X56219883Y-52206488D01*
X56214358Y-52208380D01*
X56169613Y-52221380D01*
X56169610Y-52221381D01*
X56152366Y-52231579D01*
X56134905Y-52240133D01*
X56116274Y-52247510D01*
X56116262Y-52247517D01*
X56078570Y-52274902D01*
X56073687Y-52278109D01*
X56033580Y-52301829D01*
X56019414Y-52315995D01*
X56004624Y-52328627D01*
X55988414Y-52340404D01*
X55988411Y-52340407D01*
X55958710Y-52376309D01*
X55954777Y-52380631D01*
X55024821Y-53310586D01*
X54963498Y-53344071D01*
X54905048Y-53342680D01*
X54836697Y-53324366D01*
X54836693Y-53324365D01*
X54836692Y-53324365D01*
X54723346Y-53314448D01*
X54610001Y-53304532D01*
X54609998Y-53304532D01*
X54383313Y-53324364D01*
X54383302Y-53324366D01*
X54163511Y-53383258D01*
X54163502Y-53383261D01*
X53957267Y-53479431D01*
X53957265Y-53479432D01*
X53770858Y-53609954D01*
X53609954Y-53770858D01*
X53479432Y-53957265D01*
X53479431Y-53957267D01*
X53383261Y-54163502D01*
X53383258Y-54163511D01*
X53324366Y-54383302D01*
X53324364Y-54383313D01*
X53304532Y-54609998D01*
X53304532Y-54610001D01*
X53324364Y-54836686D01*
X53324366Y-54836697D01*
X53383258Y-55056488D01*
X53383261Y-55056497D01*
X53479431Y-55262732D01*
X53479432Y-55262734D01*
X53609954Y-55449141D01*
X53770858Y-55610045D01*
X53770861Y-55610047D01*
X53957266Y-55740568D01*
X54163504Y-55836739D01*
X54383308Y-55895635D01*
X54545230Y-55909801D01*
X54609998Y-55915468D01*
X54610000Y-55915468D01*
X54610002Y-55915468D01*
X54666673Y-55910509D01*
X54836692Y-55895635D01*
X55056496Y-55836739D01*
X55262734Y-55740568D01*
X55439452Y-55616829D01*
X55505657Y-55594503D01*
X55573424Y-55611513D01*
X55621237Y-55662461D01*
X55633915Y-55731171D01*
X55607433Y-55795828D01*
X55598255Y-55806086D01*
X54940369Y-56463972D01*
X54879046Y-56497457D01*
X54841881Y-56499819D01*
X54836680Y-56499364D01*
X54817171Y-56497657D01*
X54610002Y-56479532D01*
X54609998Y-56479532D01*
X54383313Y-56499364D01*
X54383302Y-56499366D01*
X54163511Y-56558258D01*
X54163502Y-56558261D01*
X53957267Y-56654431D01*
X53957265Y-56654432D01*
X53770858Y-56784954D01*
X53609954Y-56945858D01*
X53479432Y-57132265D01*
X53479431Y-57132267D01*
X53383261Y-57338502D01*
X53383258Y-57338511D01*
X53324366Y-57558302D01*
X53324364Y-57558313D01*
X53304532Y-57784998D01*
X53304532Y-57785001D01*
X53324364Y-58011686D01*
X53324366Y-58011697D01*
X53383258Y-58231488D01*
X53383261Y-58231497D01*
X53479431Y-58437732D01*
X53479432Y-58437734D01*
X53609954Y-58624141D01*
X53770858Y-58785045D01*
X53770861Y-58785047D01*
X53957266Y-58915568D01*
X54163504Y-59011739D01*
X54383308Y-59070635D01*
X54541694Y-59084492D01*
X54609998Y-59090468D01*
X54610000Y-59090468D01*
X54610002Y-59090468D01*
X54678306Y-59084492D01*
X54836692Y-59070635D01*
X55056496Y-59011739D01*
X55262734Y-58915568D01*
X55449139Y-58785047D01*
X55610047Y-58624139D01*
X55740568Y-58437734D01*
X55836739Y-58231496D01*
X55895635Y-58011692D01*
X55901095Y-57949277D01*
X55926547Y-57884210D01*
X55983138Y-57843232D01*
X56052900Y-57839353D01*
X56113684Y-57873806D01*
X56126198Y-57888963D01*
X56179170Y-57964615D01*
X56179175Y-57964621D01*
X56335378Y-58120824D01*
X56335384Y-58120829D01*
X56516333Y-58247531D01*
X56516335Y-58247532D01*
X56516338Y-58247534D01*
X56635748Y-58303215D01*
X56645189Y-58307618D01*
X56697628Y-58353790D01*
X56716780Y-58420984D01*
X56696564Y-58487865D01*
X56645189Y-58532382D01*
X56516340Y-58592465D01*
X56516338Y-58592466D01*
X56335377Y-58719175D01*
X56179175Y-58875377D01*
X56052466Y-59056338D01*
X56052465Y-59056340D01*
X55959107Y-59256548D01*
X55959104Y-59256554D01*
X55901930Y-59469929D01*
X55901929Y-59469937D01*
X55882677Y-59689997D01*
X55882677Y-59690002D01*
X55901929Y-59910062D01*
X55901930Y-59910070D01*
X55959104Y-60123445D01*
X55959105Y-60123447D01*
X55959106Y-60123450D01*
X56043639Y-60304733D01*
X56052466Y-60323662D01*
X56052466Y-60323663D01*
X56052777Y-60324106D01*
X56052853Y-60324332D01*
X56055175Y-60328354D01*
X56054366Y-60328820D01*
X56075103Y-60390313D01*
X56058090Y-60458080D01*
X56007141Y-60505892D01*
X55955096Y-60519166D01*
X55922774Y-60520182D01*
X55855149Y-60502613D01*
X55807758Y-60451273D01*
X55806496Y-60448648D01*
X55772551Y-60375853D01*
X55740568Y-60307266D01*
X55610049Y-60120864D01*
X55610045Y-60120858D01*
X55449141Y-59959954D01*
X55262734Y-59829432D01*
X55262732Y-59829431D01*
X55056497Y-59733261D01*
X55056488Y-59733258D01*
X54836697Y-59674366D01*
X54836693Y-59674365D01*
X54836692Y-59674365D01*
X54836691Y-59674364D01*
X54836686Y-59674364D01*
X54610002Y-59654532D01*
X54609998Y-59654532D01*
X54383313Y-59674364D01*
X54383302Y-59674366D01*
X54163511Y-59733258D01*
X54163502Y-59733261D01*
X53957267Y-59829431D01*
X53957265Y-59829432D01*
X53770858Y-59959954D01*
X53609954Y-60120858D01*
X53479432Y-60307265D01*
X53479431Y-60307267D01*
X53383261Y-60513502D01*
X53383258Y-60513511D01*
X53324366Y-60733302D01*
X53324364Y-60733313D01*
X53304532Y-60959998D01*
X53304532Y-60960001D01*
X53324364Y-61186686D01*
X53324366Y-61186697D01*
X53383258Y-61406488D01*
X53383261Y-61406497D01*
X53479431Y-61612732D01*
X53479432Y-61612734D01*
X53609954Y-61799141D01*
X53770858Y-61960045D01*
X53847807Y-62013925D01*
X53891432Y-62068501D01*
X53898626Y-62138000D01*
X53867103Y-62200355D01*
X53806874Y-62235769D01*
X53776684Y-62239500D01*
X45802737Y-62239500D01*
X45787120Y-62237776D01*
X45787093Y-62238062D01*
X45779331Y-62237327D01*
X45710203Y-62239500D01*
X45680650Y-62239500D01*
X45679929Y-62239590D01*
X45673757Y-62240369D01*
X45667945Y-62240826D01*
X45621373Y-62242290D01*
X45621372Y-62242290D01*
X45602129Y-62247881D01*
X45583079Y-62251825D01*
X45563211Y-62254334D01*
X45563209Y-62254335D01*
X45519884Y-62271488D01*
X45514357Y-62273380D01*
X45469610Y-62286381D01*
X45469609Y-62286382D01*
X45452367Y-62296579D01*
X45434899Y-62305137D01*
X45416269Y-62312513D01*
X45416267Y-62312514D01*
X45378576Y-62339898D01*
X45373694Y-62343105D01*
X45333579Y-62366830D01*
X45319408Y-62381000D01*
X45304623Y-62393628D01*
X45288412Y-62405407D01*
X45258709Y-62441310D01*
X45254777Y-62445631D01*
X44864821Y-62835586D01*
X44803498Y-62869071D01*
X44745048Y-62867680D01*
X44676697Y-62849366D01*
X44676693Y-62849365D01*
X44676692Y-62849365D01*
X44563346Y-62839448D01*
X44450001Y-62829532D01*
X44449998Y-62829532D01*
X44223313Y-62849364D01*
X44223302Y-62849366D01*
X44106593Y-62880638D01*
X44036743Y-62878975D01*
X43978881Y-62839812D01*
X43951377Y-62775583D01*
X43950500Y-62760863D01*
X43950500Y-62334136D01*
X43970185Y-62267097D01*
X44022989Y-62221342D01*
X44092147Y-62211398D01*
X44106582Y-62214358D01*
X44223308Y-62245635D01*
X44385230Y-62259801D01*
X44449998Y-62265468D01*
X44450000Y-62265468D01*
X44450002Y-62265468D01*
X44510716Y-62260156D01*
X44676692Y-62245635D01*
X44896496Y-62186739D01*
X45102734Y-62090568D01*
X45289139Y-61960047D01*
X45450047Y-61799139D01*
X45580568Y-61612734D01*
X45676739Y-61406496D01*
X45735635Y-61186692D01*
X45755468Y-60960000D01*
X45735635Y-60733308D01*
X45681109Y-60529814D01*
X45676741Y-60513511D01*
X45676738Y-60513502D01*
X45642463Y-60440000D01*
X45580568Y-60307266D01*
X45450049Y-60120864D01*
X45450045Y-60120858D01*
X45289141Y-59959954D01*
X45102734Y-59829432D01*
X45102732Y-59829431D01*
X44896497Y-59733261D01*
X44896488Y-59733258D01*
X44676697Y-59674366D01*
X44676693Y-59674365D01*
X44676692Y-59674365D01*
X44676691Y-59674364D01*
X44676686Y-59674364D01*
X44450002Y-59654532D01*
X44449998Y-59654532D01*
X44223313Y-59674364D01*
X44223302Y-59674366D01*
X44003511Y-59733258D01*
X44003502Y-59733261D01*
X43797267Y-59829431D01*
X43797265Y-59829432D01*
X43610862Y-59959951D01*
X43449951Y-60120863D01*
X43449950Y-60120864D01*
X43442251Y-60131859D01*
X43387671Y-60175480D01*
X43318172Y-60182668D01*
X43255820Y-60151141D01*
X43253000Y-60148409D01*
X43178386Y-60073795D01*
X43144901Y-60012472D01*
X43146293Y-59954018D01*
X43146518Y-59953181D01*
X43158070Y-59910068D01*
X43177323Y-59690000D01*
X43158070Y-59469932D01*
X43100894Y-59256550D01*
X43007534Y-59056339D01*
X42926423Y-58940500D01*
X42880827Y-58875381D01*
X42824269Y-58818823D01*
X42724620Y-58719174D01*
X42724616Y-58719171D01*
X42724615Y-58719170D01*
X42543666Y-58592468D01*
X42543658Y-58592464D01*
X42414811Y-58532382D01*
X42362371Y-58486210D01*
X42343219Y-58419017D01*
X42363435Y-58352135D01*
X42414811Y-58307618D01*
X42420802Y-58304824D01*
X42543662Y-58247534D01*
X42724620Y-58120826D01*
X42880826Y-57964620D01*
X42933802Y-57888962D01*
X42988377Y-57845338D01*
X43057875Y-57838144D01*
X43120230Y-57869666D01*
X43155645Y-57929896D01*
X43158904Y-57949278D01*
X43164364Y-58011687D01*
X43164366Y-58011697D01*
X43223258Y-58231488D01*
X43223261Y-58231497D01*
X43319431Y-58437732D01*
X43319432Y-58437734D01*
X43449954Y-58624141D01*
X43610858Y-58785045D01*
X43610861Y-58785047D01*
X43797266Y-58915568D01*
X44003504Y-59011739D01*
X44223308Y-59070635D01*
X44381694Y-59084492D01*
X44449998Y-59090468D01*
X44450000Y-59090468D01*
X44450002Y-59090468D01*
X44518306Y-59084492D01*
X44676692Y-59070635D01*
X44896496Y-59011739D01*
X45102734Y-58915568D01*
X45289139Y-58785047D01*
X45450047Y-58624139D01*
X45580568Y-58437734D01*
X45676739Y-58231496D01*
X45735635Y-58011692D01*
X45755468Y-57785000D01*
X45751519Y-57739868D01*
X45747264Y-57691225D01*
X45735635Y-57558308D01*
X45676739Y-57338504D01*
X45580568Y-57132266D01*
X45462900Y-56964217D01*
X45450045Y-56945858D01*
X45289141Y-56784954D01*
X45102734Y-56654432D01*
X45102732Y-56654431D01*
X44896497Y-56558261D01*
X44896488Y-56558258D01*
X44676697Y-56499366D01*
X44676693Y-56499365D01*
X44676692Y-56499365D01*
X44676691Y-56499364D01*
X44676686Y-56499364D01*
X44450002Y-56479532D01*
X44449998Y-56479532D01*
X44223313Y-56499364D01*
X44223302Y-56499366D01*
X44003511Y-56558258D01*
X44003502Y-56558261D01*
X43797267Y-56654431D01*
X43797265Y-56654432D01*
X43610858Y-56784954D01*
X43449953Y-56945859D01*
X43387138Y-57035570D01*
X43332561Y-57079195D01*
X43263063Y-57086389D01*
X43200708Y-57054866D01*
X43165294Y-56994636D01*
X43162035Y-56975254D01*
X43159924Y-56951122D01*
X43158070Y-56929932D01*
X43100894Y-56716550D01*
X43007534Y-56516339D01*
X42903018Y-56367074D01*
X42880827Y-56335381D01*
X42803093Y-56257647D01*
X42724620Y-56179174D01*
X42724616Y-56179171D01*
X42724615Y-56179170D01*
X42543666Y-56052468D01*
X42543658Y-56052464D01*
X42414811Y-55992382D01*
X42362371Y-55946210D01*
X42343219Y-55879017D01*
X42363435Y-55812135D01*
X42414811Y-55767618D01*
X42420802Y-55764824D01*
X42543662Y-55707534D01*
X42724620Y-55580826D01*
X42880826Y-55424620D01*
X43007534Y-55243662D01*
X43046654Y-55159767D01*
X43092826Y-55107328D01*
X43160019Y-55088176D01*
X43226900Y-55108391D01*
X43271416Y-55159765D01*
X43310537Y-55243658D01*
X43319431Y-55262732D01*
X43319432Y-55262734D01*
X43449954Y-55449141D01*
X43610858Y-55610045D01*
X43610861Y-55610047D01*
X43797266Y-55740568D01*
X44003504Y-55836739D01*
X44223308Y-55895635D01*
X44385230Y-55909801D01*
X44449998Y-55915468D01*
X44450000Y-55915468D01*
X44450002Y-55915468D01*
X44506673Y-55910509D01*
X44676692Y-55895635D01*
X44896496Y-55836739D01*
X45102734Y-55740568D01*
X45289139Y-55610047D01*
X45450047Y-55449139D01*
X45580568Y-55262734D01*
X45676739Y-55056496D01*
X45735635Y-54836692D01*
X45755468Y-54610000D01*
X45755373Y-54608919D01*
X45743657Y-54475000D01*
X45735635Y-54383308D01*
X45676739Y-54163504D01*
X45580568Y-53957266D01*
X45450047Y-53770861D01*
X45450045Y-53770858D01*
X45289141Y-53609954D01*
X45102734Y-53479432D01*
X45102732Y-53479431D01*
X44896497Y-53383261D01*
X44896488Y-53383258D01*
X44676697Y-53324366D01*
X44676693Y-53324365D01*
X44676692Y-53324365D01*
X44676691Y-53324364D01*
X44676686Y-53324364D01*
X44450002Y-53304532D01*
X44449998Y-53304532D01*
X44223313Y-53324364D01*
X44223302Y-53324366D01*
X44003511Y-53383258D01*
X44003502Y-53383261D01*
X43797267Y-53479431D01*
X43797265Y-53479432D01*
X43610858Y-53609954D01*
X43449954Y-53770858D01*
X43319433Y-53957264D01*
X43271417Y-54060233D01*
X43225244Y-54112672D01*
X43158050Y-54131823D01*
X43091169Y-54111607D01*
X43046654Y-54060232D01*
X43007534Y-53976339D01*
X42892486Y-53812032D01*
X42880827Y-53795381D01*
X42810446Y-53725000D01*
X42724620Y-53639174D01*
X42724616Y-53639171D01*
X42724615Y-53639170D01*
X42543666Y-53512468D01*
X42543662Y-53512466D01*
X42512616Y-53497989D01*
X42343450Y-53419106D01*
X42343447Y-53419105D01*
X42343445Y-53419104D01*
X42130070Y-53361930D01*
X42130062Y-53361929D01*
X41910002Y-53342677D01*
X41909998Y-53342677D01*
X41689937Y-53361929D01*
X41689929Y-53361930D01*
X41476554Y-53419104D01*
X41476548Y-53419107D01*
X41276340Y-53512465D01*
X41276338Y-53512466D01*
X41095377Y-53639175D01*
X40939175Y-53795377D01*
X40812466Y-53976338D01*
X40812465Y-53976340D01*
X40719107Y-54176548D01*
X40719104Y-54176554D01*
X40661930Y-54389929D01*
X40661929Y-54389937D01*
X40642677Y-54609997D01*
X40642677Y-54610002D01*
X40661929Y-54830062D01*
X40661930Y-54830070D01*
X40719104Y-55043445D01*
X40719105Y-55043447D01*
X40719106Y-55043450D01*
X40773346Y-55159768D01*
X40812466Y-55243662D01*
X40812468Y-55243666D01*
X40939170Y-55424615D01*
X40939175Y-55424621D01*
X41095378Y-55580824D01*
X41095384Y-55580829D01*
X41276333Y-55707531D01*
X41276335Y-55707532D01*
X41276338Y-55707534D01*
X41347178Y-55740567D01*
X41405189Y-55767618D01*
X41457628Y-55813790D01*
X41476780Y-55880984D01*
X41456564Y-55947865D01*
X41405189Y-55992382D01*
X41276340Y-56052465D01*
X41276338Y-56052466D01*
X41095377Y-56179175D01*
X40939175Y-56335377D01*
X40812466Y-56516338D01*
X40812465Y-56516340D01*
X40719107Y-56716548D01*
X40719104Y-56716554D01*
X40661930Y-56929929D01*
X40661929Y-56929937D01*
X40642677Y-57149997D01*
X40642677Y-57150002D01*
X40648475Y-57216271D01*
X40661930Y-57370068D01*
X40670644Y-57402591D01*
X40673707Y-57414019D01*
X40672044Y-57483869D01*
X40641613Y-57533794D01*
X39621208Y-58554199D01*
X39608951Y-58564020D01*
X39609134Y-58564241D01*
X39603123Y-58569213D01*
X39555772Y-58619636D01*
X39534889Y-58640519D01*
X39534877Y-58640532D01*
X39530621Y-58646017D01*
X39526837Y-58650447D01*
X39494937Y-58684418D01*
X39494936Y-58684420D01*
X39485284Y-58701976D01*
X39474610Y-58718226D01*
X39462329Y-58734061D01*
X39462324Y-58734068D01*
X39443815Y-58776838D01*
X39441245Y-58782084D01*
X39418803Y-58822906D01*
X39413822Y-58842307D01*
X39407521Y-58860710D01*
X39399562Y-58879102D01*
X39399561Y-58879105D01*
X39392271Y-58925127D01*
X39391087Y-58930846D01*
X39379501Y-58975972D01*
X39379500Y-58975982D01*
X39379500Y-58996016D01*
X39377973Y-59015415D01*
X39374840Y-59035194D01*
X39374840Y-59035195D01*
X39379225Y-59081583D01*
X39379500Y-59087421D01*
X39379500Y-64687255D01*
X39377775Y-64702872D01*
X39378061Y-64702899D01*
X39377326Y-64710665D01*
X39379500Y-64779814D01*
X39379500Y-64809343D01*
X39379501Y-64809360D01*
X39380368Y-64816231D01*
X39380826Y-64822050D01*
X39382290Y-64868624D01*
X39382291Y-64868627D01*
X39387880Y-64887867D01*
X39391824Y-64906911D01*
X39394336Y-64926792D01*
X39398152Y-64936430D01*
X39411490Y-64970119D01*
X39413382Y-64975647D01*
X39426381Y-65020388D01*
X39436580Y-65037634D01*
X39445138Y-65055103D01*
X39452514Y-65073732D01*
X39479898Y-65111423D01*
X39483106Y-65116307D01*
X39506827Y-65156416D01*
X39506833Y-65156424D01*
X39520990Y-65170580D01*
X39533628Y-65185376D01*
X39545405Y-65201586D01*
X39545406Y-65201587D01*
X39581309Y-65231288D01*
X39585620Y-65235210D01*
X40504435Y-66154026D01*
X40774197Y-66423788D01*
X40784022Y-66436051D01*
X40784243Y-66435869D01*
X40789211Y-66441874D01*
X40824355Y-66474877D01*
X40859749Y-66535118D01*
X40856957Y-66604932D01*
X40841047Y-66636390D01*
X40812904Y-66676582D01*
X40812903Y-66676585D01*
X40719579Y-66876720D01*
X40719575Y-66876729D01*
X40662426Y-67090013D01*
X40662424Y-67090023D01*
X40643179Y-67309999D01*
X40643179Y-67310000D01*
X40662424Y-67529976D01*
X40662426Y-67529986D01*
X40719575Y-67743270D01*
X40719580Y-67743284D01*
X40812899Y-67943407D01*
X40812900Y-67943409D01*
X40858258Y-68008187D01*
X41525096Y-67341349D01*
X41525051Y-67341898D01*
X41556266Y-67465162D01*
X41625813Y-67571612D01*
X41726157Y-67649713D01*
X41846422Y-67691000D01*
X41882553Y-67691000D01*
X41211811Y-68361741D01*
X41276582Y-68407094D01*
X41276588Y-68407098D01*
X41405781Y-68467342D01*
X41458220Y-68513514D01*
X41477372Y-68580708D01*
X41457156Y-68647589D01*
X41405781Y-68692106D01*
X41276340Y-68752465D01*
X41276338Y-68752466D01*
X41095377Y-68879175D01*
X40939175Y-69035377D01*
X40812466Y-69216338D01*
X40812465Y-69216340D01*
X40762535Y-69323416D01*
X40722982Y-69408239D01*
X40719107Y-69416548D01*
X40719104Y-69416554D01*
X40661930Y-69629929D01*
X40661929Y-69629937D01*
X40642677Y-69849997D01*
X40642677Y-69850002D01*
X40661929Y-70070062D01*
X40661930Y-70070070D01*
X40719104Y-70283445D01*
X40719105Y-70283447D01*
X40719106Y-70283450D01*
X40808105Y-70474309D01*
X40812466Y-70483662D01*
X40812468Y-70483666D01*
X40939170Y-70664615D01*
X40939175Y-70664621D01*
X41095378Y-70820824D01*
X41095384Y-70820829D01*
X41276333Y-70947531D01*
X41276335Y-70947532D01*
X41276338Y-70947534D01*
X41476550Y-71040894D01*
X41689932Y-71098070D01*
X41847123Y-71111822D01*
X41909998Y-71117323D01*
X41910000Y-71117323D01*
X41910002Y-71117323D01*
X41965017Y-71112509D01*
X42130068Y-71098070D01*
X42343450Y-71040894D01*
X42543662Y-70947534D01*
X42724620Y-70820826D01*
X42880826Y-70664620D01*
X43007534Y-70483662D01*
X43100894Y-70283450D01*
X43158070Y-70070068D01*
X43177323Y-69850000D01*
X43176652Y-69842335D01*
X43166949Y-69731418D01*
X43158070Y-69629932D01*
X43100894Y-69416550D01*
X43007534Y-69216339D01*
X42880826Y-69035380D01*
X42724620Y-68879174D01*
X42724616Y-68879171D01*
X42724615Y-68879170D01*
X42543666Y-68752468D01*
X42543658Y-68752464D01*
X42414219Y-68692106D01*
X42361779Y-68645934D01*
X42342627Y-68578741D01*
X42362843Y-68511859D01*
X42414219Y-68467342D01*
X42543408Y-68407100D01*
X42543420Y-68407093D01*
X42608186Y-68361742D01*
X42608187Y-68361740D01*
X41937448Y-67691000D01*
X41941569Y-67691000D01*
X42035421Y-67675339D01*
X42147251Y-67614820D01*
X42233371Y-67521269D01*
X42284448Y-67404823D01*
X42290105Y-67336551D01*
X42961741Y-68008187D01*
X42961742Y-68008186D01*
X43007093Y-67943420D01*
X43007100Y-67943408D01*
X43100419Y-67743284D01*
X43100424Y-67743270D01*
X43157573Y-67529986D01*
X43157575Y-67529976D01*
X43176821Y-67310000D01*
X43176821Y-67309999D01*
X43157575Y-67090023D01*
X43157573Y-67090013D01*
X43100424Y-66876729D01*
X43100422Y-66876725D01*
X43084186Y-66841906D01*
X43073694Y-66772828D01*
X43102213Y-66709044D01*
X43160689Y-66670804D01*
X43196568Y-66665500D01*
X55862879Y-66665500D01*
X55929918Y-66685185D01*
X55975673Y-66737989D01*
X55985617Y-66807147D01*
X55975262Y-66841904D01*
X55959105Y-66876552D01*
X55959104Y-66876554D01*
X55901930Y-67089929D01*
X55901929Y-67089937D01*
X55882677Y-67309997D01*
X55882677Y-67310002D01*
X55901929Y-67530062D01*
X55901930Y-67530070D01*
X55959104Y-67743445D01*
X55959105Y-67743447D01*
X55959106Y-67743450D01*
X55992817Y-67815743D01*
X56052466Y-67943662D01*
X56052468Y-67943666D01*
X56179170Y-68124615D01*
X56179175Y-68124621D01*
X56335378Y-68280824D01*
X56335384Y-68280829D01*
X56516333Y-68407531D01*
X56516335Y-68407532D01*
X56516338Y-68407534D01*
X56635748Y-68463215D01*
X56645189Y-68467618D01*
X56697628Y-68513790D01*
X56716780Y-68580984D01*
X56696564Y-68647865D01*
X56645189Y-68692382D01*
X56516340Y-68752465D01*
X56516338Y-68752466D01*
X56335377Y-68879175D01*
X56179175Y-69035377D01*
X56052466Y-69216338D01*
X56052465Y-69216340D01*
X56002535Y-69323416D01*
X55962982Y-69408239D01*
X55959107Y-69416548D01*
X55959104Y-69416554D01*
X55901930Y-69629929D01*
X55901929Y-69629937D01*
X55882677Y-69849997D01*
X55882677Y-69850002D01*
X55901929Y-70070062D01*
X55901930Y-70070070D01*
X55959104Y-70283445D01*
X55959105Y-70283447D01*
X55959106Y-70283450D01*
X56048105Y-70474309D01*
X56052466Y-70483662D01*
X56052468Y-70483666D01*
X56179170Y-70664615D01*
X56179175Y-70664621D01*
X56335378Y-70820824D01*
X56335384Y-70820829D01*
X56516333Y-70947531D01*
X56516335Y-70947532D01*
X56516338Y-70947534D01*
X56716550Y-71040894D01*
X56929932Y-71098070D01*
X57087123Y-71111822D01*
X57149998Y-71117323D01*
X57150000Y-71117323D01*
X57150002Y-71117323D01*
X57205017Y-71112509D01*
X57370068Y-71098070D01*
X57583450Y-71040894D01*
X57783662Y-70947534D01*
X57964620Y-70820826D01*
X58120826Y-70664620D01*
X58247534Y-70483662D01*
X58340894Y-70283450D01*
X58398070Y-70070068D01*
X58417323Y-69850000D01*
X58416652Y-69842335D01*
X58406949Y-69731418D01*
X58398070Y-69629932D01*
X58340894Y-69416550D01*
X58247534Y-69216339D01*
X58120826Y-69035380D01*
X57964620Y-68879174D01*
X57964616Y-68879171D01*
X57964615Y-68879170D01*
X57783666Y-68752468D01*
X57783658Y-68752464D01*
X57654811Y-68692382D01*
X57602371Y-68646210D01*
X57583219Y-68579017D01*
X57603435Y-68512135D01*
X57654811Y-68467618D01*
X57660802Y-68464824D01*
X57783662Y-68407534D01*
X57964620Y-68280826D01*
X58120826Y-68124620D01*
X58230860Y-67967473D01*
X58285434Y-67923851D01*
X58354933Y-67916657D01*
X58417287Y-67948179D01*
X58424583Y-67955627D01*
X58449129Y-67982888D01*
X58602265Y-68094148D01*
X58602270Y-68094151D01*
X58775191Y-68171142D01*
X58775193Y-68171142D01*
X58775197Y-68171144D01*
X58930130Y-68204075D01*
X58991607Y-68237266D01*
X58992026Y-68237683D01*
X59993399Y-69239056D01*
X59995935Y-69241750D01*
X60037071Y-69288183D01*
X60088130Y-69323427D01*
X60091112Y-69325621D01*
X60139944Y-69363878D01*
X60139947Y-69363880D01*
X60139946Y-69363880D01*
X60149177Y-69368034D01*
X60168731Y-69379062D01*
X60177066Y-69384816D01*
X60177068Y-69384816D01*
X60177070Y-69384818D01*
X60235079Y-69406817D01*
X60238476Y-69408224D01*
X60285770Y-69429509D01*
X60295064Y-69433693D01*
X60295065Y-69433693D01*
X60295069Y-69433695D01*
X60305034Y-69435521D01*
X60326656Y-69441548D01*
X60328447Y-69442227D01*
X60336128Y-69445140D01*
X60381251Y-69450618D01*
X60397674Y-69452613D01*
X60401371Y-69453175D01*
X60462394Y-69464358D01*
X60517752Y-69461009D01*
X60524303Y-69460613D01*
X60528048Y-69460500D01*
X60777649Y-69460500D01*
X60844688Y-69480185D01*
X60890443Y-69532989D01*
X60900939Y-69571248D01*
X60905908Y-69617483D01*
X60956202Y-69752328D01*
X60956206Y-69752335D01*
X61042452Y-69867544D01*
X61042455Y-69867547D01*
X61157664Y-69953793D01*
X61157671Y-69953797D01*
X61292517Y-70004091D01*
X61292516Y-70004091D01*
X61299444Y-70004835D01*
X61352127Y-70010500D01*
X62347872Y-70010499D01*
X62407483Y-70004091D01*
X62542331Y-69953796D01*
X62657546Y-69867546D01*
X62743796Y-69752331D01*
X62794091Y-69617483D01*
X62800500Y-69557873D01*
X62800500Y-69010000D01*
X64200000Y-69010000D01*
X64200000Y-69557844D01*
X64206401Y-69617372D01*
X64206403Y-69617379D01*
X64256645Y-69752086D01*
X64256649Y-69752093D01*
X64342809Y-69867187D01*
X64342812Y-69867190D01*
X64457906Y-69953350D01*
X64457913Y-69953354D01*
X64592620Y-70003596D01*
X64592627Y-70003598D01*
X64652155Y-70009999D01*
X64652172Y-70010000D01*
X64900000Y-70010000D01*
X64900000Y-69010000D01*
X65400000Y-69010000D01*
X65400000Y-70010000D01*
X65647828Y-70010000D01*
X65647844Y-70009999D01*
X65707372Y-70003598D01*
X65707379Y-70003596D01*
X65842086Y-69953354D01*
X65842093Y-69953350D01*
X65957187Y-69867190D01*
X65957190Y-69867187D01*
X66043350Y-69752093D01*
X66043354Y-69752086D01*
X66093596Y-69617379D01*
X66093598Y-69617372D01*
X66099999Y-69557844D01*
X66100000Y-69557827D01*
X66100000Y-69010000D01*
X65400000Y-69010000D01*
X64900000Y-69010000D01*
X64200000Y-69010000D01*
X62800500Y-69010000D01*
X62800499Y-68059499D01*
X62820184Y-67992461D01*
X62872987Y-67946706D01*
X62924499Y-67935500D01*
X64076000Y-67935500D01*
X64143039Y-67955185D01*
X64188794Y-68007989D01*
X64200000Y-68059500D01*
X64200000Y-68510000D01*
X66100000Y-68510000D01*
X66100000Y-68059500D01*
X66119685Y-67992461D01*
X66172489Y-67946706D01*
X66224000Y-67935500D01*
X68015500Y-67935500D01*
X68082539Y-67955185D01*
X68128294Y-68007989D01*
X68139500Y-68059500D01*
X68139500Y-68774546D01*
X68119815Y-68841585D01*
X68103181Y-68862227D01*
X64766208Y-72199199D01*
X64753951Y-72209020D01*
X64754134Y-72209241D01*
X64748123Y-72214213D01*
X64700772Y-72264636D01*
X64679889Y-72285519D01*
X64679877Y-72285532D01*
X64675621Y-72291017D01*
X64671837Y-72295447D01*
X64639937Y-72329418D01*
X64639936Y-72329420D01*
X64630284Y-72346976D01*
X64619610Y-72363226D01*
X64607325Y-72379066D01*
X64605873Y-72381521D01*
X64604236Y-72383048D01*
X64602551Y-72385222D01*
X64602199Y-72384949D01*
X64554798Y-72429199D01*
X64542483Y-72434569D01*
X64457667Y-72466204D01*
X64457665Y-72466205D01*
X64342455Y-72552452D01*
X64342452Y-72552455D01*
X64256206Y-72667664D01*
X64256202Y-72667671D01*
X64205908Y-72802517D01*
X64199501Y-72862116D01*
X64199501Y-72862123D01*
X64199500Y-72862135D01*
X64199501Y-73985500D01*
X64179816Y-74052539D01*
X64127013Y-74098294D01*
X64075501Y-74109500D01*
X63041518Y-74109500D01*
X62974479Y-74089815D01*
X62953837Y-74073181D01*
X62836818Y-73956162D01*
X62803333Y-73894839D01*
X62800499Y-73868481D01*
X62800499Y-72862129D01*
X62800498Y-72862123D01*
X62800497Y-72862116D01*
X62794091Y-72802517D01*
X62773549Y-72747442D01*
X62743797Y-72667671D01*
X62743793Y-72667664D01*
X62657547Y-72552455D01*
X62657544Y-72552452D01*
X62542335Y-72466206D01*
X62542328Y-72466202D01*
X62407482Y-72415908D01*
X62407483Y-72415908D01*
X62347883Y-72409501D01*
X62347881Y-72409500D01*
X62347873Y-72409500D01*
X62347864Y-72409500D01*
X61352129Y-72409500D01*
X61352123Y-72409501D01*
X61292516Y-72415908D01*
X61157671Y-72466202D01*
X61157664Y-72466206D01*
X61042455Y-72552452D01*
X61042452Y-72552455D01*
X60956206Y-72667664D01*
X60956202Y-72667671D01*
X60905910Y-72802513D01*
X60905909Y-72802517D01*
X60900937Y-72848757D01*
X60874201Y-72913306D01*
X60816809Y-72953154D01*
X60777649Y-72959500D01*
X42886519Y-72959500D01*
X42819480Y-72939815D01*
X42798838Y-72923181D01*
X36303119Y-66427462D01*
X36269634Y-66366139D01*
X36274618Y-66296447D01*
X36316490Y-66240514D01*
X36351790Y-66222077D01*
X36479334Y-66179814D01*
X36628656Y-66087712D01*
X36752712Y-65963656D01*
X36844814Y-65814334D01*
X36899999Y-65647797D01*
X36910500Y-65545009D01*
X36910499Y-63994992D01*
X36909377Y-63984013D01*
X36899999Y-63892203D01*
X36899998Y-63892200D01*
X36882685Y-63839953D01*
X36844814Y-63725666D01*
X36752712Y-63576344D01*
X36628656Y-63452288D01*
X36497786Y-63371567D01*
X36479336Y-63360187D01*
X36479331Y-63360185D01*
X36477862Y-63359698D01*
X36312797Y-63305001D01*
X36312795Y-63305000D01*
X36210010Y-63294500D01*
X34909998Y-63294500D01*
X34909981Y-63294501D01*
X34807203Y-63305000D01*
X34807200Y-63305001D01*
X34640668Y-63360185D01*
X34640663Y-63360187D01*
X34491342Y-63452289D01*
X34367289Y-63576342D01*
X34271821Y-63731121D01*
X34219873Y-63777845D01*
X34150910Y-63789068D01*
X34086828Y-63761224D01*
X34078601Y-63753705D01*
X33931402Y-63606506D01*
X33931395Y-63606501D01*
X33737834Y-63470967D01*
X33737830Y-63470965D01*
X33697777Y-63452288D01*
X33523663Y-63371097D01*
X33523659Y-63371096D01*
X33523655Y-63371094D01*
X33295413Y-63309938D01*
X33295403Y-63309936D01*
X33060001Y-63289341D01*
X33059999Y-63289341D01*
X32824596Y-63309936D01*
X32824586Y-63309938D01*
X32596344Y-63371094D01*
X32596335Y-63371098D01*
X32382171Y-63470964D01*
X32382169Y-63470965D01*
X32188597Y-63606505D01*
X32021505Y-63773597D01*
X31911575Y-63930595D01*
X31856998Y-63974220D01*
X31787500Y-63981414D01*
X31725145Y-63949891D01*
X31708425Y-63930595D01*
X31598494Y-63773597D01*
X31431402Y-63606506D01*
X31431395Y-63606501D01*
X31237834Y-63470967D01*
X31237830Y-63470965D01*
X31197777Y-63452288D01*
X31023663Y-63371097D01*
X31023659Y-63371096D01*
X31023655Y-63371094D01*
X30795413Y-63309938D01*
X30795403Y-63309936D01*
X30560001Y-63289341D01*
X30559999Y-63289341D01*
X30324596Y-63309936D01*
X30324586Y-63309938D01*
X30096344Y-63371094D01*
X30096335Y-63371098D01*
X29882171Y-63470964D01*
X29882169Y-63470965D01*
X29688597Y-63606505D01*
X29521508Y-63773594D01*
X29411269Y-63931032D01*
X29356692Y-63974656D01*
X29287193Y-63981849D01*
X29224839Y-63950327D01*
X29208119Y-63931031D01*
X29098113Y-63773926D01*
X29098108Y-63773920D01*
X28931082Y-63606894D01*
X28737578Y-63471399D01*
X28523492Y-63371570D01*
X28523486Y-63371567D01*
X28310000Y-63314364D01*
X28310000Y-64361981D01*
X28195199Y-64309554D01*
X28093975Y-64295000D01*
X28026025Y-64295000D01*
X27924801Y-64309554D01*
X27810000Y-64361981D01*
X27810000Y-63314364D01*
X27809999Y-63314364D01*
X27596513Y-63371567D01*
X27596507Y-63371570D01*
X27382422Y-63471399D01*
X27382420Y-63471400D01*
X27188926Y-63606886D01*
X27188920Y-63606891D01*
X27021891Y-63773920D01*
X27021886Y-63773926D01*
X26886400Y-63967420D01*
X26886399Y-63967422D01*
X26786570Y-64181507D01*
X26786566Y-64181516D01*
X26725432Y-64409673D01*
X26725430Y-64409683D01*
X26715779Y-64520000D01*
X27656031Y-64520000D01*
X27623481Y-64570649D01*
X27585000Y-64701705D01*
X27585000Y-64838295D01*
X27623481Y-64969351D01*
X27656031Y-65020000D01*
X26715779Y-65020000D01*
X26725430Y-65130316D01*
X26725432Y-65130326D01*
X26786566Y-65358483D01*
X26786570Y-65358492D01*
X26886399Y-65572577D01*
X26886400Y-65572579D01*
X27021886Y-65766073D01*
X27021891Y-65766079D01*
X27188917Y-65933105D01*
X27382421Y-66068600D01*
X27596507Y-66168429D01*
X27596516Y-66168433D01*
X27810000Y-66225634D01*
X27810000Y-65178018D01*
X27924801Y-65230446D01*
X28026025Y-65245000D01*
X28093975Y-65245000D01*
X28195199Y-65230446D01*
X28310000Y-65178018D01*
X28310000Y-66225633D01*
X28523483Y-66168433D01*
X28523492Y-66168429D01*
X28737577Y-66068600D01*
X28737579Y-66068599D01*
X28931073Y-65933113D01*
X28931079Y-65933108D01*
X29098108Y-65766079D01*
X29098113Y-65766073D01*
X29208119Y-65608967D01*
X29262695Y-65565342D01*
X29332194Y-65558148D01*
X29394549Y-65589670D01*
X29411269Y-65608967D01*
X29521505Y-65766402D01*
X29607599Y-65852495D01*
X29688599Y-65933495D01*
X29731675Y-65963657D01*
X29882165Y-66069032D01*
X29882167Y-66069033D01*
X29882170Y-66069035D01*
X30096337Y-66168903D01*
X30096343Y-66168904D01*
X30096344Y-66168905D01*
X30128590Y-66177545D01*
X30324592Y-66230063D01*
X30512918Y-66246539D01*
X30559999Y-66250659D01*
X30560000Y-66250659D01*
X30560001Y-66250659D01*
X30599234Y-66247226D01*
X30795408Y-66230063D01*
X31023663Y-66168903D01*
X31237829Y-66069035D01*
X31431401Y-65933495D01*
X31598495Y-65766401D01*
X31708426Y-65609401D01*
X31763001Y-65565778D01*
X31832500Y-65558584D01*
X31894855Y-65590106D01*
X31911571Y-65609398D01*
X31977108Y-65702995D01*
X32021506Y-65766403D01*
X32107599Y-65852495D01*
X32188599Y-65933495D01*
X32231675Y-65963657D01*
X32382165Y-66069032D01*
X32382167Y-66069033D01*
X32382170Y-66069035D01*
X32596337Y-66168903D01*
X32596343Y-66168904D01*
X32596344Y-66168905D01*
X32628590Y-66177545D01*
X32824592Y-66230063D01*
X33012918Y-66246539D01*
X33059999Y-66250659D01*
X33060000Y-66250659D01*
X33060001Y-66250659D01*
X33099234Y-66247226D01*
X33295408Y-66230063D01*
X33523663Y-66168903D01*
X33737829Y-66069035D01*
X33931401Y-65933495D01*
X34078602Y-65786293D01*
X34139924Y-65752810D01*
X34209615Y-65757794D01*
X34265549Y-65799665D01*
X34271821Y-65808879D01*
X34275186Y-65814334D01*
X34367288Y-65963656D01*
X34491344Y-66087712D01*
X34640666Y-66179814D01*
X34774505Y-66224164D01*
X34831949Y-66263936D01*
X34858772Y-66328451D01*
X34859500Y-66341869D01*
X34859500Y-66651951D01*
X34859387Y-66655696D01*
X34855642Y-66717603D01*
X34855642Y-66717605D01*
X34866821Y-66778612D01*
X34867384Y-66782313D01*
X34874859Y-66843870D01*
X34874860Y-66843874D01*
X34878451Y-66853343D01*
X34884474Y-66874946D01*
X34886304Y-66884930D01*
X34911759Y-66941490D01*
X34913189Y-66944941D01*
X34935182Y-67002930D01*
X34935183Y-67002931D01*
X34940936Y-67011266D01*
X34951961Y-67030813D01*
X34956120Y-67040055D01*
X34956124Y-67040060D01*
X34994371Y-67088878D01*
X34996591Y-67091896D01*
X35031812Y-67142924D01*
X35031816Y-67142928D01*
X35031817Y-67142929D01*
X35078250Y-67184064D01*
X35080941Y-67186598D01*
X42033399Y-74139056D01*
X42035935Y-74141750D01*
X42077071Y-74188183D01*
X42128130Y-74223427D01*
X42131112Y-74225621D01*
X42179944Y-74263878D01*
X42179947Y-74263880D01*
X42179946Y-74263880D01*
X42189177Y-74268034D01*
X42208731Y-74279062D01*
X42217066Y-74284816D01*
X42217068Y-74284816D01*
X42217070Y-74284818D01*
X42275079Y-74306817D01*
X42278476Y-74308224D01*
X42325770Y-74329509D01*
X42335064Y-74333693D01*
X42335065Y-74333693D01*
X42335069Y-74333695D01*
X42345034Y-74335521D01*
X42366656Y-74341548D01*
X42369777Y-74342731D01*
X42376128Y-74345140D01*
X42421251Y-74350618D01*
X42437674Y-74352613D01*
X42441371Y-74353175D01*
X42502394Y-74364358D01*
X42557752Y-74361009D01*
X42564303Y-74360613D01*
X42568048Y-74360500D01*
X60777649Y-74360500D01*
X60844688Y-74380185D01*
X60890443Y-74432989D01*
X60900939Y-74471248D01*
X60905908Y-74517483D01*
X60956202Y-74652328D01*
X60956206Y-74652335D01*
X61042452Y-74767544D01*
X61042455Y-74767547D01*
X61157664Y-74853793D01*
X61157671Y-74853797D01*
X61202618Y-74870561D01*
X61292517Y-74904091D01*
X61352127Y-74910500D01*
X61758481Y-74910499D01*
X61825520Y-74930183D01*
X61846162Y-74946818D01*
X62188392Y-75289048D01*
X62190928Y-75291742D01*
X62232071Y-75338183D01*
X62279631Y-75371011D01*
X62283115Y-75373416D01*
X62286120Y-75375626D01*
X62334944Y-75413878D01*
X62334946Y-75413879D01*
X62334949Y-75413881D01*
X62344177Y-75418034D01*
X62363731Y-75429062D01*
X62372066Y-75434816D01*
X62372068Y-75434816D01*
X62372070Y-75434818D01*
X62430079Y-75456817D01*
X62433476Y-75458224D01*
X62480770Y-75479509D01*
X62490064Y-75483693D01*
X62490065Y-75483693D01*
X62490069Y-75483695D01*
X62500034Y-75485521D01*
X62521656Y-75491548D01*
X62521667Y-75491552D01*
X62531128Y-75495140D01*
X62576251Y-75500618D01*
X62592674Y-75502613D01*
X62596371Y-75503175D01*
X62657394Y-75514358D01*
X62712752Y-75511009D01*
X62719303Y-75510613D01*
X62723048Y-75510500D01*
X67916952Y-75510500D01*
X67920697Y-75510613D01*
X67928042Y-75511057D01*
X67982606Y-75514358D01*
X68020314Y-75507447D01*
X68043621Y-75503177D01*
X68047325Y-75502613D01*
X68065170Y-75500446D01*
X68108872Y-75495140D01*
X68118335Y-75491550D01*
X68139961Y-75485522D01*
X68140893Y-75485351D01*
X68149932Y-75483695D01*
X68206512Y-75458229D01*
X68209942Y-75456809D01*
X68267930Y-75434818D01*
X68276266Y-75429062D01*
X68295821Y-75418034D01*
X68305057Y-75413878D01*
X68353896Y-75375613D01*
X68356876Y-75373421D01*
X68407929Y-75338183D01*
X68449065Y-75291748D01*
X68451599Y-75289055D01*
X68793837Y-74946817D01*
X68855160Y-74913333D01*
X68881518Y-74910499D01*
X69298480Y-74910499D01*
X69365519Y-74930184D01*
X69386161Y-74946818D01*
X69728392Y-75289048D01*
X69730928Y-75291742D01*
X69772071Y-75338183D01*
X69819631Y-75371011D01*
X69823115Y-75373416D01*
X69826120Y-75375626D01*
X69874944Y-75413878D01*
X69874946Y-75413879D01*
X69874949Y-75413881D01*
X69884177Y-75418034D01*
X69903731Y-75429062D01*
X69912066Y-75434816D01*
X69912068Y-75434816D01*
X69912070Y-75434818D01*
X69970079Y-75456817D01*
X69973476Y-75458224D01*
X70020770Y-75479509D01*
X70030064Y-75483693D01*
X70030065Y-75483693D01*
X70030069Y-75483695D01*
X70040034Y-75485521D01*
X70061656Y-75491548D01*
X70061667Y-75491552D01*
X70071128Y-75495140D01*
X70116251Y-75500618D01*
X70132674Y-75502613D01*
X70136371Y-75503175D01*
X70197394Y-75514358D01*
X70252752Y-75511009D01*
X70259303Y-75510613D01*
X70263048Y-75510500D01*
X75626952Y-75510500D01*
X75630697Y-75510613D01*
X75638042Y-75511057D01*
X75692606Y-75514358D01*
X75730314Y-75507447D01*
X75753621Y-75503177D01*
X75757325Y-75502613D01*
X75775170Y-75500446D01*
X75818872Y-75495140D01*
X75828335Y-75491550D01*
X75849961Y-75485522D01*
X75850893Y-75485351D01*
X75859932Y-75483695D01*
X75916512Y-75458229D01*
X75919942Y-75456809D01*
X75977930Y-75434818D01*
X75986266Y-75429062D01*
X76005821Y-75418034D01*
X76015057Y-75413878D01*
X76063896Y-75375613D01*
X76066876Y-75373421D01*
X76117929Y-75338183D01*
X76159065Y-75291748D01*
X76161599Y-75289056D01*
X76413838Y-75036818D01*
X76475161Y-75003333D01*
X76501519Y-75000499D01*
X76918480Y-75000499D01*
X76985519Y-75020184D01*
X77006161Y-75036818D01*
X77348392Y-75379048D01*
X77350928Y-75381742D01*
X77392071Y-75428183D01*
X77401681Y-75434816D01*
X77443115Y-75463416D01*
X77446120Y-75465626D01*
X77494944Y-75503878D01*
X77494946Y-75503879D01*
X77494949Y-75503881D01*
X77504177Y-75508034D01*
X77523731Y-75519062D01*
X77532066Y-75524816D01*
X77532068Y-75524816D01*
X77532070Y-75524818D01*
X77590079Y-75546817D01*
X77593476Y-75548224D01*
X77640770Y-75569509D01*
X77650064Y-75573693D01*
X77650065Y-75573693D01*
X77650069Y-75573695D01*
X77660034Y-75575521D01*
X77681656Y-75581548D01*
X77681667Y-75581552D01*
X77691128Y-75585140D01*
X77736251Y-75590618D01*
X77752674Y-75592613D01*
X77756371Y-75593175D01*
X77817394Y-75604358D01*
X77872752Y-75601009D01*
X77879303Y-75600613D01*
X77883048Y-75600500D01*
X83066952Y-75600500D01*
X83070697Y-75600613D01*
X83078042Y-75601057D01*
X83132606Y-75604358D01*
X83170314Y-75597447D01*
X83193621Y-75593177D01*
X83197325Y-75592613D01*
X83215170Y-75590446D01*
X83258872Y-75585140D01*
X83268335Y-75581550D01*
X83289961Y-75575522D01*
X83290893Y-75575351D01*
X83299932Y-75573695D01*
X83356512Y-75548229D01*
X83359942Y-75546809D01*
X83417930Y-75524818D01*
X83426266Y-75519062D01*
X83445821Y-75508034D01*
X83455057Y-75503878D01*
X83503896Y-75465613D01*
X83506876Y-75463421D01*
X83557929Y-75428183D01*
X83599065Y-75381748D01*
X83601599Y-75379056D01*
X84033838Y-74946818D01*
X84095161Y-74913333D01*
X84121519Y-74910499D01*
X84538480Y-74910499D01*
X84605519Y-74930184D01*
X84626161Y-74946818D01*
X84968392Y-75289048D01*
X84970928Y-75291742D01*
X85012071Y-75338183D01*
X85059631Y-75371011D01*
X85063115Y-75373416D01*
X85066120Y-75375626D01*
X85114944Y-75413878D01*
X85114946Y-75413879D01*
X85114949Y-75413881D01*
X85124177Y-75418034D01*
X85143731Y-75429062D01*
X85152066Y-75434816D01*
X85152068Y-75434816D01*
X85152070Y-75434818D01*
X85210079Y-75456817D01*
X85213476Y-75458224D01*
X85260770Y-75479509D01*
X85270064Y-75483693D01*
X85270065Y-75483693D01*
X85270069Y-75483695D01*
X85280034Y-75485521D01*
X85301656Y-75491548D01*
X85301667Y-75491552D01*
X85311128Y-75495140D01*
X85356251Y-75500618D01*
X85372674Y-75502613D01*
X85376371Y-75503175D01*
X85437394Y-75514358D01*
X85492752Y-75511009D01*
X85499303Y-75510613D01*
X85503048Y-75510500D01*
X90776952Y-75510500D01*
X90780697Y-75510613D01*
X90788042Y-75511057D01*
X90842606Y-75514358D01*
X90880314Y-75507447D01*
X90903621Y-75503177D01*
X90907325Y-75502613D01*
X90925170Y-75500446D01*
X90968872Y-75495140D01*
X90978335Y-75491550D01*
X90999961Y-75485522D01*
X91000893Y-75485351D01*
X91009932Y-75483695D01*
X91066512Y-75458229D01*
X91069942Y-75456809D01*
X91127930Y-75434818D01*
X91136266Y-75429062D01*
X91155821Y-75418034D01*
X91165057Y-75413878D01*
X91213896Y-75375613D01*
X91216876Y-75373421D01*
X91267929Y-75338183D01*
X91309065Y-75291748D01*
X91311599Y-75289055D01*
X91653837Y-74946817D01*
X91715160Y-74913333D01*
X91741518Y-74910499D01*
X92158480Y-74910499D01*
X92225519Y-74930184D01*
X92246161Y-74946818D01*
X92588392Y-75289048D01*
X92590928Y-75291742D01*
X92632071Y-75338183D01*
X92679631Y-75371011D01*
X92683115Y-75373416D01*
X92686120Y-75375626D01*
X92734944Y-75413878D01*
X92734946Y-75413879D01*
X92734949Y-75413881D01*
X92744177Y-75418034D01*
X92763731Y-75429062D01*
X92772066Y-75434816D01*
X92772068Y-75434816D01*
X92772070Y-75434818D01*
X92830079Y-75456817D01*
X92833476Y-75458224D01*
X92880770Y-75479509D01*
X92890064Y-75483693D01*
X92890065Y-75483693D01*
X92890069Y-75483695D01*
X92900034Y-75485521D01*
X92921656Y-75491548D01*
X92921667Y-75491552D01*
X92931128Y-75495140D01*
X92976251Y-75500618D01*
X92992674Y-75502613D01*
X92996371Y-75503175D01*
X93057394Y-75514358D01*
X93112752Y-75511009D01*
X93119303Y-75510613D01*
X93123048Y-75510500D01*
X97506952Y-75510500D01*
X97510697Y-75510613D01*
X97518042Y-75511057D01*
X97572606Y-75514358D01*
X97610314Y-75507447D01*
X97633621Y-75503177D01*
X97637325Y-75502613D01*
X97655170Y-75500446D01*
X97698872Y-75495140D01*
X97708335Y-75491550D01*
X97729961Y-75485522D01*
X97730893Y-75485351D01*
X97739932Y-75483695D01*
X97796512Y-75458229D01*
X97799942Y-75456809D01*
X97857930Y-75434818D01*
X97866266Y-75429062D01*
X97885821Y-75418034D01*
X97895057Y-75413878D01*
X97943896Y-75375613D01*
X97946876Y-75373421D01*
X97997929Y-75338183D01*
X98039065Y-75291748D01*
X98041599Y-75289055D01*
X98383837Y-74946817D01*
X98445160Y-74913333D01*
X98471518Y-74910499D01*
X99177871Y-74910499D01*
X99177872Y-74910499D01*
X99237483Y-74904091D01*
X99372331Y-74853796D01*
X99487546Y-74767546D01*
X99573796Y-74652331D01*
X99624091Y-74517483D01*
X99630500Y-74457873D01*
X99630500Y-74457870D01*
X101029500Y-74457870D01*
X101029501Y-74457876D01*
X101035908Y-74517483D01*
X101086202Y-74652328D01*
X101086206Y-74652335D01*
X101172452Y-74767544D01*
X101172455Y-74767547D01*
X101287664Y-74853793D01*
X101287671Y-74853797D01*
X101422517Y-74904091D01*
X101422516Y-74904091D01*
X101429444Y-74904835D01*
X101482127Y-74910500D01*
X102477872Y-74910499D01*
X102537483Y-74904091D01*
X102672331Y-74853796D01*
X102787546Y-74767546D01*
X102873796Y-74652331D01*
X102924091Y-74517483D01*
X102930500Y-74457873D01*
X102930499Y-72862128D01*
X102924091Y-72802517D01*
X102903549Y-72747442D01*
X102873797Y-72667671D01*
X102873793Y-72667664D01*
X102787547Y-72552455D01*
X102787544Y-72552452D01*
X102672335Y-72466206D01*
X102672328Y-72466202D01*
X102537482Y-72415908D01*
X102537483Y-72415908D01*
X102477883Y-72409501D01*
X102477881Y-72409500D01*
X102477873Y-72409500D01*
X102477864Y-72409500D01*
X101482129Y-72409500D01*
X101482123Y-72409501D01*
X101422516Y-72415908D01*
X101287671Y-72466202D01*
X101287664Y-72466206D01*
X101172455Y-72552452D01*
X101172452Y-72552455D01*
X101086206Y-72667664D01*
X101086202Y-72667671D01*
X101035908Y-72802517D01*
X101029501Y-72862116D01*
X101029501Y-72862123D01*
X101029500Y-72862135D01*
X101029500Y-74457870D01*
X99630500Y-74457870D01*
X99630499Y-72862128D01*
X99624091Y-72802517D01*
X99603549Y-72747442D01*
X99573797Y-72667671D01*
X99573793Y-72667664D01*
X99487547Y-72552455D01*
X99487544Y-72552452D01*
X99372335Y-72466206D01*
X99372328Y-72466202D01*
X99237482Y-72415908D01*
X99237483Y-72415908D01*
X99177883Y-72409501D01*
X99177881Y-72409500D01*
X99177873Y-72409500D01*
X99177864Y-72409500D01*
X98182129Y-72409500D01*
X98182123Y-72409501D01*
X98122516Y-72415908D01*
X97987671Y-72466202D01*
X97987664Y-72466206D01*
X97872455Y-72552452D01*
X97872452Y-72552455D01*
X97786206Y-72667664D01*
X97786202Y-72667671D01*
X97735908Y-72802517D01*
X97729501Y-72862116D01*
X97729501Y-72862123D01*
X97729500Y-72862135D01*
X97729500Y-73568481D01*
X97709815Y-73635520D01*
X97693181Y-73656162D01*
X97276162Y-74073181D01*
X97214839Y-74106666D01*
X97188481Y-74109500D01*
X96324500Y-74109500D01*
X96257461Y-74089815D01*
X96211706Y-74037011D01*
X96200500Y-73985500D01*
X96200499Y-72862129D01*
X96200498Y-72862123D01*
X96200497Y-72862116D01*
X96194091Y-72802517D01*
X96173549Y-72747442D01*
X96143797Y-72667671D01*
X96143793Y-72667664D01*
X96057547Y-72552455D01*
X96008881Y-72516023D01*
X95967011Y-72460089D01*
X95962027Y-72390397D01*
X95995510Y-72329078D01*
X97056825Y-71267763D01*
X132465787Y-71267763D01*
X132495413Y-71537013D01*
X132495415Y-71537024D01*
X132563926Y-71799082D01*
X132563928Y-71799088D01*
X132669870Y-72048390D01*
X132810979Y-72279605D01*
X132810986Y-72279615D01*
X132984253Y-72487819D01*
X132984259Y-72487824D01*
X133089240Y-72581887D01*
X133185998Y-72668582D01*
X133411910Y-72818044D01*
X133657176Y-72933020D01*
X133657183Y-72933022D01*
X133657185Y-72933023D01*
X133916557Y-73011057D01*
X133916564Y-73011058D01*
X133916569Y-73011060D01*
X134184561Y-73050500D01*
X134184566Y-73050500D01*
X134387636Y-73050500D01*
X134439133Y-73046730D01*
X134590156Y-73035677D01*
X134702758Y-73010593D01*
X134854546Y-72976782D01*
X134854548Y-72976781D01*
X134854553Y-72976780D01*
X135107558Y-72880014D01*
X135343777Y-72747441D01*
X135558177Y-72581888D01*
X135746186Y-72386881D01*
X135903799Y-72166579D01*
X135996251Y-71986759D01*
X136027649Y-71925690D01*
X136027651Y-71925684D01*
X136027656Y-71925675D01*
X136115118Y-71669305D01*
X136164319Y-71402933D01*
X136174212Y-71132235D01*
X136144586Y-70862982D01*
X136076072Y-70600912D01*
X135970130Y-70351610D01*
X135829018Y-70120390D01*
X135787135Y-70070062D01*
X135655746Y-69912180D01*
X135655740Y-69912175D01*
X135454002Y-69731418D01*
X135228092Y-69581957D01*
X135205248Y-69571248D01*
X134982824Y-69466980D01*
X134982819Y-69466978D01*
X134982814Y-69466976D01*
X134723442Y-69388942D01*
X134723428Y-69388939D01*
X134607791Y-69371921D01*
X134455439Y-69349500D01*
X134252369Y-69349500D01*
X134252364Y-69349500D01*
X134049844Y-69364323D01*
X134049831Y-69364325D01*
X133785453Y-69423217D01*
X133785446Y-69423220D01*
X133532439Y-69519987D01*
X133296226Y-69652557D01*
X133081822Y-69818112D01*
X132893822Y-70013109D01*
X132893816Y-70013116D01*
X132736202Y-70233419D01*
X132736199Y-70233424D01*
X132612350Y-70474309D01*
X132612343Y-70474327D01*
X132524884Y-70730685D01*
X132524881Y-70730699D01*
X132475681Y-70997068D01*
X132475680Y-70997075D01*
X132465787Y-71267763D01*
X97056825Y-71267763D01*
X98277771Y-70046818D01*
X98339094Y-70013333D01*
X98365452Y-70010499D01*
X99177871Y-70010499D01*
X99177872Y-70010499D01*
X99237483Y-70004091D01*
X99372331Y-69953796D01*
X99487546Y-69867546D01*
X99573796Y-69752331D01*
X99624091Y-69617483D01*
X99630500Y-69557873D01*
X99630499Y-69010000D01*
X101030000Y-69010000D01*
X101030000Y-69557844D01*
X101036401Y-69617372D01*
X101036403Y-69617379D01*
X101086645Y-69752086D01*
X101086649Y-69752093D01*
X101172809Y-69867187D01*
X101172812Y-69867190D01*
X101287906Y-69953350D01*
X101287913Y-69953354D01*
X101422620Y-70003596D01*
X101422627Y-70003598D01*
X101482155Y-70009999D01*
X101482172Y-70010000D01*
X101730000Y-70010000D01*
X101730000Y-69010000D01*
X102230000Y-69010000D01*
X102230000Y-70010000D01*
X102477828Y-70010000D01*
X102477844Y-70009999D01*
X102537372Y-70003598D01*
X102537379Y-70003596D01*
X102672086Y-69953354D01*
X102672093Y-69953350D01*
X102787187Y-69867190D01*
X102787190Y-69867187D01*
X102873350Y-69752093D01*
X102873354Y-69752086D01*
X102923596Y-69617379D01*
X102923598Y-69617372D01*
X102929999Y-69557844D01*
X102930000Y-69557827D01*
X102930000Y-69010000D01*
X102230000Y-69010000D01*
X101730000Y-69010000D01*
X101030000Y-69010000D01*
X99630499Y-69010000D01*
X99630499Y-68510000D01*
X101030000Y-68510000D01*
X101730000Y-68510000D01*
X101730000Y-67510000D01*
X102230000Y-67510000D01*
X102230000Y-68510000D01*
X102930000Y-68510000D01*
X102930000Y-67962172D01*
X102929999Y-67962155D01*
X102923598Y-67902627D01*
X102923596Y-67902620D01*
X102873354Y-67767913D01*
X102873350Y-67767906D01*
X102787190Y-67652812D01*
X102787187Y-67652809D01*
X102672093Y-67566649D01*
X102672086Y-67566645D01*
X102537379Y-67516403D01*
X102537372Y-67516401D01*
X102477844Y-67510000D01*
X102230000Y-67510000D01*
X101730000Y-67510000D01*
X101482155Y-67510000D01*
X101422627Y-67516401D01*
X101422620Y-67516403D01*
X101287913Y-67566645D01*
X101287906Y-67566649D01*
X101172812Y-67652809D01*
X101172809Y-67652812D01*
X101086649Y-67767906D01*
X101086645Y-67767913D01*
X101036403Y-67902620D01*
X101036401Y-67902627D01*
X101030000Y-67962155D01*
X101030000Y-68510000D01*
X99630499Y-68510000D01*
X99630499Y-67962128D01*
X99624091Y-67902517D01*
X99601600Y-67842216D01*
X99573797Y-67767671D01*
X99573793Y-67767664D01*
X99487547Y-67652455D01*
X99487544Y-67652452D01*
X99372335Y-67566206D01*
X99372328Y-67566202D01*
X99237482Y-67515908D01*
X99237483Y-67515908D01*
X99177883Y-67509501D01*
X99177881Y-67509500D01*
X99177873Y-67509500D01*
X99177864Y-67509500D01*
X98182129Y-67509500D01*
X98182123Y-67509501D01*
X98122516Y-67515908D01*
X97987671Y-67566202D01*
X97987664Y-67566206D01*
X97872455Y-67652452D01*
X97872452Y-67652455D01*
X97786206Y-67767664D01*
X97786202Y-67767671D01*
X97735908Y-67902517D01*
X97730246Y-67955185D01*
X97729501Y-67962123D01*
X97729500Y-67962135D01*
X97729500Y-68774546D01*
X97709815Y-68841585D01*
X97693181Y-68862227D01*
X94866208Y-71689199D01*
X94853951Y-71699020D01*
X94854134Y-71699241D01*
X94848123Y-71704213D01*
X94800772Y-71754636D01*
X94779889Y-71775519D01*
X94779877Y-71775532D01*
X94775621Y-71781017D01*
X94771837Y-71785447D01*
X94739937Y-71819418D01*
X94739936Y-71819420D01*
X94730284Y-71836976D01*
X94719610Y-71853226D01*
X94707329Y-71869061D01*
X94707324Y-71869068D01*
X94688815Y-71911838D01*
X94686245Y-71917084D01*
X94663803Y-71957906D01*
X94658822Y-71977307D01*
X94652521Y-71995710D01*
X94644562Y-72014102D01*
X94644561Y-72014105D01*
X94637271Y-72060127D01*
X94636087Y-72065846D01*
X94624501Y-72110972D01*
X94624500Y-72110982D01*
X94624500Y-72131016D01*
X94622973Y-72150415D01*
X94619840Y-72170194D01*
X94619840Y-72170195D01*
X94624225Y-72216583D01*
X94624500Y-72222421D01*
X94624500Y-72356138D01*
X94604815Y-72423177D01*
X94564581Y-72460637D01*
X94564769Y-72460888D01*
X94562441Y-72462630D01*
X94559932Y-72464967D01*
X94557670Y-72466202D01*
X94442455Y-72552452D01*
X94442452Y-72552455D01*
X94356206Y-72667664D01*
X94356202Y-72667671D01*
X94305908Y-72802517D01*
X94299501Y-72862116D01*
X94299501Y-72862123D01*
X94299500Y-72862135D01*
X94299501Y-73985500D01*
X94279816Y-74052539D01*
X94227013Y-74098294D01*
X94175501Y-74109500D01*
X93441518Y-74109500D01*
X93374479Y-74089815D01*
X93353837Y-74073181D01*
X92936818Y-73656161D01*
X92903333Y-73594838D01*
X92900499Y-73568480D01*
X92900499Y-72862129D01*
X92900498Y-72862123D01*
X92900497Y-72862116D01*
X92894091Y-72802517D01*
X92873549Y-72747442D01*
X92843797Y-72667671D01*
X92843793Y-72667664D01*
X92757547Y-72552455D01*
X92757544Y-72552452D01*
X92642335Y-72466206D01*
X92642328Y-72466202D01*
X92507482Y-72415908D01*
X92507483Y-72415908D01*
X92447883Y-72409501D01*
X92447881Y-72409500D01*
X92447873Y-72409500D01*
X92447864Y-72409500D01*
X91452129Y-72409500D01*
X91452123Y-72409501D01*
X91392516Y-72415908D01*
X91257671Y-72466202D01*
X91257664Y-72466206D01*
X91142455Y-72552452D01*
X91142452Y-72552455D01*
X91056206Y-72667664D01*
X91056202Y-72667671D01*
X91005908Y-72802517D01*
X90999501Y-72862116D01*
X90999501Y-72862123D01*
X90999500Y-72862135D01*
X90999500Y-73568481D01*
X90979815Y-73635520D01*
X90963181Y-73656162D01*
X90546162Y-74073181D01*
X90484839Y-74106666D01*
X90458481Y-74109500D01*
X88704500Y-74109500D01*
X88637461Y-74089815D01*
X88591706Y-74037011D01*
X88580500Y-73985500D01*
X88580499Y-73645451D01*
X88600183Y-73578412D01*
X88616813Y-73557775D01*
X92127771Y-70046818D01*
X92189094Y-70013333D01*
X92215452Y-70010499D01*
X92447871Y-70010499D01*
X92447872Y-70010499D01*
X92507483Y-70004091D01*
X92642331Y-69953796D01*
X92757546Y-69867546D01*
X92843796Y-69752331D01*
X92894091Y-69617483D01*
X92900500Y-69557873D01*
X92900499Y-69010000D01*
X94300000Y-69010000D01*
X94300000Y-69557844D01*
X94306401Y-69617372D01*
X94306403Y-69617379D01*
X94356645Y-69752086D01*
X94356649Y-69752093D01*
X94442809Y-69867187D01*
X94442812Y-69867190D01*
X94557906Y-69953350D01*
X94557913Y-69953354D01*
X94692620Y-70003596D01*
X94692627Y-70003598D01*
X94752155Y-70009999D01*
X94752172Y-70010000D01*
X95000000Y-70010000D01*
X95000000Y-69010000D01*
X95500000Y-69010000D01*
X95500000Y-70010000D01*
X95747828Y-70010000D01*
X95747844Y-70009999D01*
X95807372Y-70003598D01*
X95807379Y-70003596D01*
X95942086Y-69953354D01*
X95942093Y-69953350D01*
X96057187Y-69867190D01*
X96057190Y-69867187D01*
X96143350Y-69752093D01*
X96143354Y-69752086D01*
X96193596Y-69617379D01*
X96193598Y-69617372D01*
X96199999Y-69557844D01*
X96200000Y-69557827D01*
X96200000Y-69010000D01*
X95500000Y-69010000D01*
X95000000Y-69010000D01*
X94300000Y-69010000D01*
X92900499Y-69010000D01*
X92900499Y-68510000D01*
X94300000Y-68510000D01*
X95000000Y-68510000D01*
X95000000Y-67510000D01*
X95500000Y-67510000D01*
X95500000Y-68510000D01*
X96200000Y-68510000D01*
X96200000Y-67962172D01*
X96199999Y-67962155D01*
X96193598Y-67902627D01*
X96193596Y-67902620D01*
X96143354Y-67767913D01*
X96143350Y-67767906D01*
X96057190Y-67652812D01*
X96057187Y-67652809D01*
X95942093Y-67566649D01*
X95942086Y-67566645D01*
X95807379Y-67516403D01*
X95807372Y-67516401D01*
X95747844Y-67510000D01*
X95500000Y-67510000D01*
X95000000Y-67510000D01*
X94752155Y-67510000D01*
X94692627Y-67516401D01*
X94692620Y-67516403D01*
X94557913Y-67566645D01*
X94557906Y-67566649D01*
X94442812Y-67652809D01*
X94442809Y-67652812D01*
X94356649Y-67767906D01*
X94356645Y-67767913D01*
X94306403Y-67902620D01*
X94306401Y-67902627D01*
X94300000Y-67962155D01*
X94300000Y-68510000D01*
X92900499Y-68510000D01*
X92900499Y-67962128D01*
X92894091Y-67902517D01*
X92871600Y-67842216D01*
X92843797Y-67767671D01*
X92843793Y-67767664D01*
X92757547Y-67652455D01*
X92757544Y-67652452D01*
X92642335Y-67566206D01*
X92642328Y-67566202D01*
X92507482Y-67515908D01*
X92507483Y-67515908D01*
X92447883Y-67509501D01*
X92447881Y-67509500D01*
X92447873Y-67509500D01*
X92447864Y-67509500D01*
X91452129Y-67509500D01*
X91452123Y-67509501D01*
X91392516Y-67515908D01*
X91257671Y-67566202D01*
X91257664Y-67566206D01*
X91142455Y-67652452D01*
X91142452Y-67652455D01*
X91056206Y-67767664D01*
X91056202Y-67767671D01*
X91005908Y-67902517D01*
X91000246Y-67955185D01*
X90999501Y-67962123D01*
X90999500Y-67962135D01*
X90999500Y-69354546D01*
X90979815Y-69421585D01*
X90963181Y-69442227D01*
X88032227Y-72373181D01*
X87970904Y-72406666D01*
X87944546Y-72409500D01*
X87132129Y-72409500D01*
X87132123Y-72409501D01*
X87072516Y-72415908D01*
X86937671Y-72466202D01*
X86937664Y-72466206D01*
X86822455Y-72552452D01*
X86822452Y-72552455D01*
X86736206Y-72667664D01*
X86736202Y-72667671D01*
X86685908Y-72802517D01*
X86679501Y-72862116D01*
X86679501Y-72862123D01*
X86679500Y-72862135D01*
X86679501Y-73985500D01*
X86659816Y-74052539D01*
X86607013Y-74098294D01*
X86555501Y-74109500D01*
X85821518Y-74109500D01*
X85754479Y-74089815D01*
X85733837Y-74073181D01*
X85316818Y-73656161D01*
X85283333Y-73594838D01*
X85280499Y-73568480D01*
X85280499Y-72862129D01*
X85280498Y-72862123D01*
X85280497Y-72862116D01*
X85274091Y-72802517D01*
X85253549Y-72747442D01*
X85223797Y-72667671D01*
X85223793Y-72667664D01*
X85137547Y-72552455D01*
X85137544Y-72552452D01*
X85022335Y-72466206D01*
X85022328Y-72466202D01*
X84887482Y-72415908D01*
X84887483Y-72415908D01*
X84827883Y-72409501D01*
X84827881Y-72409500D01*
X84827873Y-72409500D01*
X84827864Y-72409500D01*
X83832129Y-72409500D01*
X83832123Y-72409501D01*
X83772516Y-72415908D01*
X83637671Y-72466202D01*
X83637664Y-72466206D01*
X83522455Y-72552452D01*
X83522452Y-72552455D01*
X83436206Y-72667664D01*
X83436202Y-72667671D01*
X83385908Y-72802517D01*
X83379501Y-72862116D01*
X83379501Y-72862123D01*
X83379500Y-72862135D01*
X83379500Y-73568480D01*
X83359815Y-73635519D01*
X83343181Y-73656161D01*
X82836162Y-74163181D01*
X82774839Y-74196666D01*
X82748481Y-74199500D01*
X81084500Y-74199500D01*
X81017461Y-74179815D01*
X80971706Y-74127011D01*
X80960500Y-74075500D01*
X80960499Y-73735451D01*
X80980183Y-73668412D01*
X80996813Y-73647775D01*
X84597771Y-70046818D01*
X84659094Y-70013333D01*
X84685452Y-70010499D01*
X84827871Y-70010499D01*
X84827872Y-70010499D01*
X84887483Y-70004091D01*
X85022331Y-69953796D01*
X85137546Y-69867546D01*
X85223796Y-69752331D01*
X85274091Y-69617483D01*
X85280500Y-69557873D01*
X85280499Y-69010000D01*
X86680000Y-69010000D01*
X86680000Y-69557844D01*
X86686401Y-69617372D01*
X86686403Y-69617379D01*
X86736645Y-69752086D01*
X86736649Y-69752093D01*
X86822809Y-69867187D01*
X86822812Y-69867190D01*
X86937906Y-69953350D01*
X86937913Y-69953354D01*
X87072620Y-70003596D01*
X87072627Y-70003598D01*
X87132155Y-70009999D01*
X87132172Y-70010000D01*
X87380000Y-70010000D01*
X87380000Y-69010000D01*
X87880000Y-69010000D01*
X87880000Y-70010000D01*
X88127828Y-70010000D01*
X88127844Y-70009999D01*
X88187372Y-70003598D01*
X88187379Y-70003596D01*
X88322086Y-69953354D01*
X88322093Y-69953350D01*
X88437187Y-69867190D01*
X88437190Y-69867187D01*
X88523350Y-69752093D01*
X88523354Y-69752086D01*
X88573596Y-69617379D01*
X88573598Y-69617372D01*
X88579999Y-69557844D01*
X88580000Y-69557827D01*
X88580000Y-69010000D01*
X87880000Y-69010000D01*
X87380000Y-69010000D01*
X86680000Y-69010000D01*
X85280499Y-69010000D01*
X85280499Y-68510000D01*
X86680000Y-68510000D01*
X87380000Y-68510000D01*
X87380000Y-67510000D01*
X87880000Y-67510000D01*
X87880000Y-68510000D01*
X88580000Y-68510000D01*
X88580000Y-67962172D01*
X88579999Y-67962155D01*
X88573598Y-67902627D01*
X88573596Y-67902620D01*
X88523354Y-67767913D01*
X88523350Y-67767906D01*
X88437190Y-67652812D01*
X88437187Y-67652809D01*
X88322093Y-67566649D01*
X88322086Y-67566645D01*
X88187379Y-67516403D01*
X88187372Y-67516401D01*
X88127844Y-67510000D01*
X87880000Y-67510000D01*
X87380000Y-67510000D01*
X87132155Y-67510000D01*
X87072627Y-67516401D01*
X87072620Y-67516403D01*
X86937913Y-67566645D01*
X86937906Y-67566649D01*
X86822812Y-67652809D01*
X86822809Y-67652812D01*
X86736649Y-67767906D01*
X86736645Y-67767913D01*
X86686403Y-67902620D01*
X86686401Y-67902627D01*
X86680000Y-67962155D01*
X86680000Y-68510000D01*
X85280499Y-68510000D01*
X85280499Y-67962128D01*
X85274091Y-67902517D01*
X85251600Y-67842216D01*
X85223797Y-67767671D01*
X85223793Y-67767664D01*
X85172123Y-67698643D01*
X85137546Y-67652454D01*
X85109563Y-67631506D01*
X85067694Y-67575574D01*
X85062710Y-67505882D01*
X85096193Y-67444562D01*
X90021504Y-62519251D01*
X90082822Y-62485770D01*
X90152514Y-62490754D01*
X90208447Y-62532626D01*
X90222736Y-62557126D01*
X90266266Y-62656364D01*
X90366564Y-62809882D01*
X91064070Y-62112375D01*
X91066884Y-62125915D01*
X91136442Y-62260156D01*
X91239638Y-62370652D01*
X91368819Y-62449209D01*
X91420002Y-62463549D01*
X90719942Y-63163609D01*
X90766768Y-63200055D01*
X90766770Y-63200056D01*
X90985385Y-63318364D01*
X90985396Y-63318369D01*
X91220506Y-63399083D01*
X91465707Y-63440000D01*
X91714293Y-63440000D01*
X91959493Y-63399083D01*
X92194603Y-63318369D01*
X92194614Y-63318364D01*
X92413228Y-63200057D01*
X92413231Y-63200055D01*
X92460056Y-63163609D01*
X91761568Y-62465121D01*
X91878458Y-62414349D01*
X91995739Y-62318934D01*
X92082928Y-62195415D01*
X92113354Y-62109802D01*
X92813434Y-62809882D01*
X92913731Y-62656369D01*
X93013588Y-62428716D01*
X93019794Y-62404211D01*
X93055334Y-62344055D01*
X93117754Y-62312663D01*
X93187237Y-62320001D01*
X93241723Y-62363739D01*
X93260206Y-62404211D01*
X93266411Y-62428716D01*
X93366266Y-62656364D01*
X93466564Y-62809882D01*
X94164070Y-62112376D01*
X94166884Y-62125915D01*
X94236442Y-62260156D01*
X94339638Y-62370652D01*
X94468819Y-62449209D01*
X94520002Y-62463549D01*
X93819942Y-63163609D01*
X93866768Y-63200055D01*
X93866770Y-63200056D01*
X94085385Y-63318364D01*
X94085396Y-63318369D01*
X94320506Y-63399083D01*
X94565707Y-63440000D01*
X94814293Y-63440000D01*
X95059493Y-63399083D01*
X95294603Y-63318369D01*
X95294614Y-63318364D01*
X95513228Y-63200057D01*
X95513231Y-63200055D01*
X95560056Y-63163609D01*
X94861568Y-62465121D01*
X94978458Y-62414349D01*
X95095739Y-62318934D01*
X95182928Y-62195415D01*
X95213354Y-62109802D01*
X95913434Y-62809882D01*
X96013731Y-62656369D01*
X96113587Y-62428717D01*
X96174612Y-62187738D01*
X96174614Y-62187729D01*
X96195141Y-61940005D01*
X99684859Y-61940005D01*
X99705385Y-62187729D01*
X99705387Y-62187738D01*
X99766412Y-62428717D01*
X99866266Y-62656364D01*
X99966564Y-62809882D01*
X100664070Y-62112376D01*
X100666884Y-62125915D01*
X100736442Y-62260156D01*
X100839638Y-62370652D01*
X100968819Y-62449209D01*
X101020002Y-62463549D01*
X100319942Y-63163609D01*
X100366768Y-63200055D01*
X100366770Y-63200056D01*
X100585385Y-63318364D01*
X100585396Y-63318369D01*
X100820506Y-63399083D01*
X101065707Y-63440000D01*
X101314293Y-63440000D01*
X101559493Y-63399083D01*
X101794603Y-63318369D01*
X101794614Y-63318364D01*
X102013228Y-63200057D01*
X102013231Y-63200055D01*
X102060056Y-63163609D01*
X101361568Y-62465121D01*
X101478458Y-62414349D01*
X101595739Y-62318934D01*
X101682928Y-62195415D01*
X101713354Y-62109802D01*
X102413434Y-62809882D01*
X102513731Y-62656369D01*
X102613587Y-62428717D01*
X102674612Y-62187738D01*
X102674614Y-62187729D01*
X102695141Y-61940005D01*
X102695141Y-61939994D01*
X102674614Y-61692270D01*
X102674612Y-61692261D01*
X102613587Y-61451282D01*
X102513731Y-61223630D01*
X102413434Y-61070116D01*
X101715929Y-61767622D01*
X101713116Y-61754085D01*
X101643558Y-61619844D01*
X101540362Y-61509348D01*
X101411181Y-61430791D01*
X101359997Y-61416450D01*
X102060057Y-60716390D01*
X102060056Y-60716389D01*
X102013229Y-60679943D01*
X101794614Y-60561635D01*
X101794603Y-60561630D01*
X101559493Y-60480916D01*
X101314293Y-60440000D01*
X101065707Y-60440000D01*
X100820506Y-60480916D01*
X100585396Y-60561630D01*
X100585390Y-60561632D01*
X100366761Y-60679949D01*
X100319942Y-60716388D01*
X100319942Y-60716390D01*
X101018431Y-61414878D01*
X100901542Y-61465651D01*
X100784261Y-61561066D01*
X100697072Y-61684585D01*
X100666645Y-61770197D01*
X99966564Y-61070116D01*
X99866267Y-61223632D01*
X99766412Y-61451282D01*
X99705387Y-61692261D01*
X99705385Y-61692270D01*
X99684859Y-61939994D01*
X99684859Y-61940005D01*
X96195141Y-61940005D01*
X96195141Y-61939994D01*
X96174614Y-61692270D01*
X96174612Y-61692261D01*
X96113587Y-61451282D01*
X96013731Y-61223630D01*
X95913434Y-61070116D01*
X95215929Y-61767622D01*
X95213116Y-61754085D01*
X95143558Y-61619844D01*
X95040362Y-61509348D01*
X94911181Y-61430791D01*
X94859997Y-61416450D01*
X95560057Y-60716390D01*
X95560056Y-60716389D01*
X95513229Y-60679943D01*
X95294614Y-60561635D01*
X95294603Y-60561630D01*
X95059493Y-60480916D01*
X94814293Y-60440000D01*
X94565707Y-60440000D01*
X94320506Y-60480916D01*
X94085396Y-60561630D01*
X94085390Y-60561632D01*
X93866761Y-60679949D01*
X93819942Y-60716388D01*
X93819942Y-60716390D01*
X94518431Y-61414878D01*
X94401542Y-61465651D01*
X94284261Y-61561066D01*
X94197072Y-61684585D01*
X94166645Y-61770197D01*
X93466564Y-61070116D01*
X93366267Y-61223632D01*
X93266411Y-61451284D01*
X93266408Y-61451292D01*
X93260205Y-61475789D01*
X93224666Y-61535944D01*
X93162245Y-61567336D01*
X93092762Y-61559998D01*
X93038277Y-61516259D01*
X93019795Y-61475789D01*
X93013591Y-61451292D01*
X93013588Y-61451284D01*
X92913731Y-61223630D01*
X92813434Y-61070116D01*
X92115929Y-61767622D01*
X92113116Y-61754085D01*
X92043558Y-61619844D01*
X91940362Y-61509348D01*
X91811181Y-61430791D01*
X91759996Y-61416449D01*
X92460057Y-60716389D01*
X92413231Y-60679945D01*
X92201041Y-60565113D01*
X92151451Y-60515893D01*
X92136343Y-60447677D01*
X92160513Y-60382121D01*
X92172366Y-60368390D01*
X93784107Y-58756649D01*
X93845428Y-58723166D01*
X93915120Y-58728150D01*
X93930798Y-58735275D01*
X93970297Y-58756651D01*
X94085179Y-58818823D01*
X94085185Y-58818825D01*
X94085190Y-58818828D01*
X94320386Y-58899571D01*
X94565665Y-58940500D01*
X94814335Y-58940500D01*
X95059614Y-58899571D01*
X95294810Y-58818828D01*
X95513509Y-58700474D01*
X95709744Y-58547738D01*
X95878164Y-58364785D01*
X96014173Y-58156607D01*
X96114063Y-57928881D01*
X96175108Y-57687821D01*
X96175952Y-57677636D01*
X96195643Y-57440005D01*
X99684357Y-57440005D01*
X99704890Y-57687812D01*
X99704892Y-57687824D01*
X99765936Y-57928881D01*
X99865826Y-58156606D01*
X100001833Y-58364782D01*
X100001836Y-58364785D01*
X100170256Y-58547738D01*
X100366491Y-58700474D01*
X100585190Y-58818828D01*
X100820386Y-58899571D01*
X101065665Y-58940500D01*
X101314335Y-58940500D01*
X101559614Y-58899571D01*
X101794810Y-58818828D01*
X102013509Y-58700474D01*
X102209744Y-58547738D01*
X102378164Y-58364785D01*
X102514173Y-58156607D01*
X102614063Y-57928881D01*
X102675108Y-57687821D01*
X102675952Y-57677636D01*
X102695643Y-57440005D01*
X102695643Y-57439994D01*
X102675109Y-57192187D01*
X102675107Y-57192175D01*
X102614063Y-56951118D01*
X102514173Y-56723393D01*
X102378166Y-56515217D01*
X102350096Y-56484725D01*
X102209744Y-56332262D01*
X102039814Y-56200000D01*
X132764706Y-56200000D01*
X132783853Y-56443297D01*
X132783853Y-56443300D01*
X132783854Y-56443302D01*
X132840827Y-56680609D01*
X132840830Y-56680619D01*
X132934222Y-56906089D01*
X133061737Y-57114173D01*
X133061738Y-57114176D01*
X133115449Y-57177063D01*
X133220241Y-57299759D01*
X133353710Y-57413752D01*
X133405823Y-57458261D01*
X133405825Y-57458261D01*
X133456376Y-57489239D01*
X133613911Y-57585777D01*
X133613910Y-57585777D01*
X133627542Y-57591423D01*
X133652044Y-57601572D01*
X133654258Y-57602555D01*
X133656127Y-57603263D01*
X133839388Y-57679172D01*
X133839389Y-57679172D01*
X133839391Y-57679173D01*
X133853134Y-57682472D01*
X133879260Y-57688744D01*
X133882017Y-57689474D01*
X133888057Y-57691223D01*
X133888061Y-57691225D01*
X133898290Y-57693313D01*
X134076698Y-57736146D01*
X134123995Y-57739868D01*
X134131542Y-57740932D01*
X134132864Y-57741202D01*
X134149414Y-57741868D01*
X134320000Y-57755294D01*
X134371386Y-57751249D01*
X134378730Y-57751109D01*
X134382514Y-57751262D01*
X134403293Y-57748738D01*
X134563302Y-57736146D01*
X134617465Y-57723142D01*
X134624439Y-57721887D01*
X134630544Y-57721146D01*
X134652268Y-57714853D01*
X134654972Y-57714137D01*
X134800612Y-57679172D01*
X134855940Y-57656254D01*
X134862404Y-57653987D01*
X134870532Y-57651633D01*
X134892788Y-57641072D01*
X134895497Y-57639869D01*
X135026089Y-57585777D01*
X135080830Y-57552231D01*
X135086604Y-57549104D01*
X135096261Y-57544523D01*
X135117464Y-57529886D01*
X135120241Y-57528080D01*
X135234179Y-57458259D01*
X135286309Y-57413735D01*
X135291306Y-57409892D01*
X135301885Y-57402591D01*
X135320901Y-57384324D01*
X135323493Y-57381976D01*
X135419759Y-57299759D01*
X135467157Y-57244262D01*
X135471349Y-57239817D01*
X135482079Y-57229512D01*
X135497953Y-57208386D01*
X135500325Y-57205427D01*
X135578259Y-57114179D01*
X135618786Y-57048044D01*
X135622044Y-57043252D01*
X135632176Y-57029770D01*
X135644315Y-57006639D01*
X135646306Y-57003136D01*
X135705777Y-56906089D01*
X135737238Y-56830133D01*
X135739601Y-56825088D01*
X135748288Y-56808537D01*
X135756346Y-56784399D01*
X135757846Y-56780381D01*
X135799172Y-56680612D01*
X135819488Y-56595990D01*
X135820947Y-56590894D01*
X135827408Y-56571543D01*
X135831343Y-56547326D01*
X135832229Y-56542918D01*
X135856146Y-56443302D01*
X135863361Y-56351623D01*
X135863973Y-56346547D01*
X135867487Y-56324926D01*
X135868146Y-56292153D01*
X135868324Y-56288560D01*
X135875294Y-56200000D01*
X135868323Y-56111433D01*
X135868146Y-56107842D01*
X135867487Y-56075074D01*
X135863972Y-56053446D01*
X135863360Y-56048367D01*
X135856146Y-55956698D01*
X135832239Y-55857123D01*
X135831335Y-55852620D01*
X135827408Y-55828457D01*
X135820955Y-55809129D01*
X135819482Y-55803987D01*
X135799172Y-55719388D01*
X135757858Y-55619648D01*
X135756335Y-55615568D01*
X135748288Y-55591463D01*
X135739609Y-55574927D01*
X135737238Y-55569867D01*
X135705777Y-55493911D01*
X135646308Y-55396867D01*
X135644308Y-55393346D01*
X135632176Y-55370230D01*
X135622066Y-55356776D01*
X135618766Y-55351923D01*
X135615182Y-55346075D01*
X135578259Y-55285821D01*
X135500341Y-55194591D01*
X135497944Y-55191601D01*
X135482079Y-55170488D01*
X135471354Y-55160186D01*
X135467156Y-55155735D01*
X135419759Y-55100241D01*
X135323513Y-55018039D01*
X135320885Y-55015659D01*
X135301885Y-54997409D01*
X135297219Y-54994188D01*
X135291333Y-54990125D01*
X135286287Y-54986245D01*
X135234179Y-54941741D01*
X135234170Y-54941734D01*
X135120273Y-54871938D01*
X135117450Y-54870101D01*
X135096264Y-54855478D01*
X135096260Y-54855476D01*
X135086608Y-54850895D01*
X135080796Y-54847746D01*
X135048206Y-54827776D01*
X135026089Y-54814223D01*
X135026083Y-54814220D01*
X135026077Y-54814217D01*
X134895569Y-54760160D01*
X134892716Y-54758893D01*
X134870533Y-54748367D01*
X134870519Y-54748362D01*
X134862406Y-54746011D01*
X134855933Y-54743741D01*
X134800622Y-54720831D01*
X134800606Y-54720826D01*
X134655002Y-54685868D01*
X134652231Y-54685134D01*
X134630547Y-54678855D01*
X134630548Y-54678855D01*
X134630544Y-54678854D01*
X134630536Y-54678853D01*
X134630525Y-54678851D01*
X134624427Y-54678109D01*
X134617437Y-54676850D01*
X134563302Y-54663854D01*
X134403297Y-54651261D01*
X134382525Y-54648739D01*
X134382520Y-54648738D01*
X134382514Y-54648738D01*
X134382508Y-54648738D01*
X134382504Y-54648738D01*
X134378731Y-54648890D01*
X134371376Y-54648748D01*
X134320000Y-54644706D01*
X134149417Y-54658130D01*
X134132869Y-54658797D01*
X134132833Y-54658801D01*
X134131503Y-54659073D01*
X134123988Y-54660131D01*
X134076706Y-54663853D01*
X134076701Y-54663853D01*
X134076698Y-54663854D01*
X134076695Y-54663854D01*
X134076693Y-54663855D01*
X133898287Y-54706687D01*
X133888059Y-54708775D01*
X133882015Y-54710525D01*
X133879247Y-54711258D01*
X133839390Y-54720827D01*
X133839385Y-54720828D01*
X133656127Y-54796736D01*
X133654250Y-54797448D01*
X133652041Y-54798428D01*
X133613910Y-54814223D01*
X133613904Y-54814226D01*
X133405826Y-54941737D01*
X133405823Y-54941738D01*
X133220241Y-55100241D01*
X133061738Y-55285823D01*
X133061737Y-55285826D01*
X132934222Y-55493910D01*
X132840830Y-55719380D01*
X132783853Y-55956702D01*
X132764706Y-56200000D01*
X102039814Y-56200000D01*
X102013509Y-56179526D01*
X102013507Y-56179525D01*
X102013506Y-56179524D01*
X101794811Y-56061172D01*
X101794802Y-56061169D01*
X101559616Y-55980429D01*
X101314335Y-55939500D01*
X101065665Y-55939500D01*
X100820383Y-55980429D01*
X100585197Y-56061169D01*
X100585188Y-56061172D01*
X100366493Y-56179524D01*
X100219669Y-56293802D01*
X100170256Y-56332262D01*
X100167386Y-56335380D01*
X100001833Y-56515217D01*
X99865826Y-56723393D01*
X99765936Y-56951118D01*
X99704892Y-57192175D01*
X99704890Y-57192187D01*
X99684357Y-57439994D01*
X99684357Y-57440005D01*
X96195643Y-57440005D01*
X96195643Y-57439994D01*
X96175109Y-57192187D01*
X96175107Y-57192175D01*
X96114063Y-56951118D01*
X96014173Y-56723393D01*
X95878166Y-56515217D01*
X95850096Y-56484725D01*
X95709744Y-56332262D01*
X95513509Y-56179526D01*
X95513507Y-56179525D01*
X95513506Y-56179524D01*
X95294811Y-56061172D01*
X95294802Y-56061169D01*
X95059616Y-55980429D01*
X94814335Y-55939500D01*
X94565665Y-55939500D01*
X94320383Y-55980429D01*
X94085197Y-56061169D01*
X94085188Y-56061172D01*
X93866493Y-56179524D01*
X93719669Y-56293802D01*
X93670256Y-56332262D01*
X93667386Y-56335380D01*
X93501833Y-56515217D01*
X93365826Y-56723393D01*
X93265935Y-56951122D01*
X93265935Y-56951123D01*
X93260205Y-56973750D01*
X93224666Y-57033906D01*
X93162245Y-57065297D01*
X93092762Y-57057959D01*
X93038276Y-57014219D01*
X93019795Y-56973750D01*
X93014064Y-56951123D01*
X93014064Y-56951122D01*
X93014062Y-56951118D01*
X92914173Y-56723393D01*
X92886371Y-56680839D01*
X92778166Y-56515217D01*
X92750096Y-56484725D01*
X92609744Y-56332262D01*
X92413509Y-56179526D01*
X92413507Y-56179525D01*
X92413506Y-56179524D01*
X92194811Y-56061172D01*
X92194802Y-56061169D01*
X91959616Y-55980429D01*
X91714335Y-55939500D01*
X91465665Y-55939500D01*
X91220383Y-55980429D01*
X90985197Y-56061169D01*
X90985188Y-56061172D01*
X90766493Y-56179524D01*
X90619669Y-56293802D01*
X90570256Y-56332262D01*
X90567386Y-56335380D01*
X90401833Y-56515217D01*
X90265826Y-56723393D01*
X90165936Y-56951118D01*
X90104892Y-57192175D01*
X90104890Y-57192187D01*
X90084357Y-57439994D01*
X90084357Y-57440005D01*
X90104890Y-57687812D01*
X90104892Y-57687824D01*
X90165936Y-57928881D01*
X90265826Y-58156606D01*
X90401833Y-58364782D01*
X90401836Y-58364785D01*
X90570256Y-58547738D01*
X90766491Y-58700474D01*
X90985190Y-58818828D01*
X91220386Y-58899571D01*
X91465665Y-58940500D01*
X91531713Y-58940500D01*
X91598752Y-58960185D01*
X91644507Y-59012989D01*
X91654451Y-59082147D01*
X91625426Y-59145703D01*
X91619394Y-59152181D01*
X84123395Y-66648181D01*
X84062072Y-66681666D01*
X84035714Y-66684500D01*
X62539578Y-66684500D01*
X62472539Y-66664815D01*
X62451897Y-66648181D01*
X61459928Y-65656212D01*
X61450105Y-65643950D01*
X61449884Y-65644134D01*
X61444911Y-65638123D01*
X61394489Y-65590773D01*
X61384044Y-65580328D01*
X61373600Y-65569883D01*
X61368111Y-65565625D01*
X61363686Y-65561847D01*
X61329707Y-65529938D01*
X61329705Y-65529936D01*
X61329702Y-65529935D01*
X61312154Y-65520288D01*
X61295888Y-65509604D01*
X61289718Y-65504818D01*
X61280061Y-65497327D01*
X61280060Y-65497326D01*
X61280058Y-65497325D01*
X61237293Y-65478818D01*
X61232047Y-65476248D01*
X61191218Y-65453803D01*
X61191217Y-65453802D01*
X61171818Y-65448822D01*
X61153406Y-65442518D01*
X61135023Y-65434562D01*
X61135017Y-65434560D01*
X61088999Y-65427272D01*
X61083277Y-65426087D01*
X61038146Y-65414500D01*
X61038144Y-65414500D01*
X61018109Y-65414500D01*
X60998711Y-65412973D01*
X60991287Y-65411797D01*
X60978930Y-65409840D01*
X60978929Y-65409840D01*
X60932541Y-65414225D01*
X60926703Y-65414500D01*
X58437121Y-65414500D01*
X58370082Y-65394815D01*
X58324327Y-65342011D01*
X58314383Y-65272853D01*
X58324738Y-65238096D01*
X58326079Y-65235221D01*
X58340894Y-65203450D01*
X58398070Y-64990068D01*
X58414246Y-64805174D01*
X58417323Y-64770002D01*
X58417323Y-64769997D01*
X58406079Y-64641475D01*
X58398070Y-64549932D01*
X58340894Y-64336550D01*
X58324737Y-64301903D01*
X58314247Y-64232826D01*
X58342767Y-64169042D01*
X58401244Y-64130803D01*
X58437121Y-64125500D01*
X65717108Y-64125500D01*
X65784147Y-64145185D01*
X65829902Y-64197989D01*
X65839846Y-64267147D01*
X65810821Y-64330703D01*
X65800646Y-64341137D01*
X65791441Y-64349527D01*
X65791441Y-64349528D01*
X65740016Y-64417624D01*
X65736359Y-64422028D01*
X65723333Y-64436318D01*
X65723327Y-64436326D01*
X65713142Y-64452773D01*
X65709907Y-64457495D01*
X65658481Y-64525595D01*
X65620440Y-64601991D01*
X65617653Y-64606995D01*
X65607473Y-64623435D01*
X65607471Y-64623438D01*
X65600484Y-64641475D01*
X65598171Y-64646714D01*
X65560137Y-64723095D01*
X65536782Y-64805174D01*
X65534963Y-64810602D01*
X65527976Y-64828641D01*
X65524422Y-64847651D01*
X65523110Y-64853225D01*
X65499757Y-64935309D01*
X65491882Y-65020277D01*
X65491091Y-65025946D01*
X65487538Y-65044961D01*
X65487538Y-65064307D01*
X65487273Y-65070030D01*
X65479400Y-65154998D01*
X65479400Y-65155001D01*
X65487273Y-65239967D01*
X65487538Y-65245691D01*
X65487538Y-65265035D01*
X65491092Y-65284051D01*
X65491883Y-65289723D01*
X65499756Y-65374688D01*
X65523112Y-65456777D01*
X65524423Y-65462354D01*
X65527974Y-65481352D01*
X65527975Y-65481357D01*
X65534962Y-65499394D01*
X65536781Y-65504822D01*
X65560136Y-65586900D01*
X65560140Y-65586911D01*
X65598175Y-65663294D01*
X65600486Y-65668529D01*
X65607474Y-65686565D01*
X65617647Y-65702995D01*
X65617656Y-65703009D01*
X65620443Y-65708014D01*
X65658476Y-65784395D01*
X65658478Y-65784398D01*
X65658480Y-65784402D01*
X65659910Y-65786295D01*
X65709905Y-65852502D01*
X65713141Y-65857225D01*
X65719112Y-65866868D01*
X65723325Y-65873671D01*
X65723327Y-65873673D01*
X65723328Y-65873675D01*
X65736354Y-65887963D01*
X65740005Y-65892359D01*
X65791441Y-65960471D01*
X65854517Y-66017972D01*
X65858556Y-66022012D01*
X65871585Y-66036304D01*
X65887021Y-66047961D01*
X65891411Y-66051605D01*
X65954490Y-66109109D01*
X66027061Y-66154043D01*
X66031761Y-66157264D01*
X66047201Y-66168924D01*
X66047206Y-66168927D01*
X66064513Y-66177545D01*
X66069520Y-66180333D01*
X66142075Y-66225257D01*
X66221675Y-66256094D01*
X66226868Y-66258387D01*
X66244202Y-66267019D01*
X66262811Y-66272313D01*
X66268220Y-66274126D01*
X66347809Y-66304959D01*
X66431717Y-66320644D01*
X66437234Y-66321941D01*
X66455870Y-66327244D01*
X66475138Y-66329029D01*
X66480798Y-66329819D01*
X66564684Y-66345500D01*
X66564686Y-66345500D01*
X66650020Y-66345500D01*
X66655744Y-66345765D01*
X66674999Y-66347549D01*
X66675000Y-66347549D01*
X66675001Y-66347549D01*
X66694256Y-66345765D01*
X66699980Y-66345500D01*
X66785313Y-66345500D01*
X66785316Y-66345500D01*
X66869207Y-66329817D01*
X66874858Y-66329029D01*
X66894130Y-66327244D01*
X66912751Y-66321945D01*
X66918292Y-66320642D01*
X67002191Y-66304959D01*
X67081780Y-66274125D01*
X67087187Y-66272314D01*
X67092400Y-66270830D01*
X67105789Y-66267022D01*
X67105793Y-66267020D01*
X67105798Y-66267019D01*
X67123129Y-66258388D01*
X67128316Y-66256097D01*
X67207925Y-66225257D01*
X67280484Y-66180329D01*
X67285458Y-66177559D01*
X67302796Y-66168926D01*
X67318270Y-66157240D01*
X67322926Y-66154051D01*
X67395510Y-66109109D01*
X67458589Y-66051605D01*
X67462963Y-66047972D01*
X67478415Y-66036304D01*
X67491463Y-66021990D01*
X67495459Y-66017993D01*
X67558559Y-65960471D01*
X67610010Y-65892337D01*
X67613624Y-65887986D01*
X67626675Y-65873671D01*
X67636860Y-65857220D01*
X67640093Y-65852502D01*
X67691520Y-65784402D01*
X67729570Y-65707985D01*
X67732323Y-65703042D01*
X67742526Y-65686565D01*
X67749517Y-65668518D01*
X67751816Y-65663311D01*
X67789864Y-65586901D01*
X67813227Y-65504785D01*
X67815023Y-65499428D01*
X67822024Y-65481357D01*
X67825582Y-65462323D01*
X67826885Y-65456784D01*
X67850243Y-65374691D01*
X67858118Y-65289701D01*
X67858907Y-65284051D01*
X67862462Y-65265035D01*
X67863095Y-65237573D01*
X67863340Y-65233338D01*
X67870600Y-65155000D01*
X67863341Y-65076662D01*
X67863095Y-65072424D01*
X67862462Y-65044965D01*
X67858904Y-65025934D01*
X67858118Y-65020295D01*
X67850243Y-64935309D01*
X67826885Y-64853215D01*
X67825582Y-64847676D01*
X67822024Y-64828643D01*
X67815035Y-64810602D01*
X67813218Y-64805181D01*
X67813216Y-64805174D01*
X67789864Y-64723099D01*
X67751816Y-64646689D01*
X67749520Y-64641489D01*
X67742526Y-64623435D01*
X67732336Y-64606978D01*
X67729559Y-64601991D01*
X67691520Y-64525598D01*
X67640090Y-64457494D01*
X67636862Y-64452781D01*
X67626675Y-64436329D01*
X67613638Y-64422028D01*
X67609984Y-64417627D01*
X67603985Y-64409683D01*
X67558559Y-64349529D01*
X67549352Y-64341136D01*
X67513071Y-64281426D01*
X67514832Y-64211578D01*
X67554075Y-64153771D01*
X67618342Y-64126356D01*
X67632891Y-64125500D01*
X69767257Y-64125500D01*
X69782877Y-64127224D01*
X69782904Y-64126939D01*
X69790660Y-64127671D01*
X69790667Y-64127673D01*
X69859814Y-64125500D01*
X69889350Y-64125500D01*
X69896228Y-64124630D01*
X69902041Y-64124172D01*
X69948627Y-64122709D01*
X69967869Y-64117117D01*
X69986912Y-64113174D01*
X70006792Y-64110664D01*
X70050122Y-64093507D01*
X70055646Y-64091617D01*
X70059396Y-64090527D01*
X70100390Y-64078618D01*
X70117629Y-64068422D01*
X70135103Y-64059862D01*
X70153727Y-64052488D01*
X70153727Y-64052487D01*
X70153732Y-64052486D01*
X70191449Y-64025082D01*
X70196305Y-64021892D01*
X70236420Y-63998170D01*
X70250589Y-63983999D01*
X70265379Y-63971368D01*
X70281587Y-63959594D01*
X70311299Y-63923676D01*
X70315212Y-63919376D01*
X72957772Y-61276819D01*
X73019095Y-61243334D01*
X73045453Y-61240500D01*
X73409074Y-61240500D01*
X73476113Y-61260185D01*
X73521868Y-61312989D01*
X73531812Y-61382147D01*
X73522630Y-61414311D01*
X73506411Y-61451285D01*
X73445387Y-61692261D01*
X73445385Y-61692270D01*
X73424859Y-61939994D01*
X73424859Y-61940005D01*
X73445385Y-62187729D01*
X73445387Y-62187738D01*
X73506412Y-62428717D01*
X73606266Y-62656364D01*
X73706564Y-62809882D01*
X74404070Y-62112375D01*
X74406884Y-62125915D01*
X74476442Y-62260156D01*
X74579638Y-62370652D01*
X74708819Y-62449209D01*
X74760002Y-62463549D01*
X74059942Y-63163609D01*
X74106768Y-63200055D01*
X74106770Y-63200056D01*
X74325385Y-63318364D01*
X74325396Y-63318369D01*
X74560506Y-63399083D01*
X74805707Y-63440000D01*
X75054293Y-63440000D01*
X75299493Y-63399083D01*
X75534603Y-63318369D01*
X75534614Y-63318364D01*
X75753228Y-63200057D01*
X75753231Y-63200055D01*
X75800056Y-63163609D01*
X75101568Y-62465121D01*
X75218458Y-62414349D01*
X75335739Y-62318934D01*
X75422928Y-62195415D01*
X75453354Y-62109802D01*
X76153434Y-62809882D01*
X76253731Y-62656369D01*
X76353587Y-62428717D01*
X76414612Y-62187738D01*
X76414614Y-62187729D01*
X76435141Y-61940005D01*
X76435141Y-61939994D01*
X76414614Y-61692270D01*
X76414612Y-61692261D01*
X76353588Y-61451285D01*
X76337370Y-61414311D01*
X76328467Y-61345011D01*
X76358444Y-61281898D01*
X76417783Y-61245011D01*
X76450926Y-61240500D01*
X79909074Y-61240500D01*
X79976113Y-61260185D01*
X80021868Y-61312989D01*
X80031812Y-61382147D01*
X80022630Y-61414311D01*
X80006411Y-61451285D01*
X79945387Y-61692261D01*
X79945385Y-61692270D01*
X79924859Y-61939994D01*
X79924859Y-61940005D01*
X79945385Y-62187729D01*
X79945387Y-62187738D01*
X80006412Y-62428717D01*
X80106266Y-62656364D01*
X80206564Y-62809882D01*
X80904070Y-62112375D01*
X80906884Y-62125915D01*
X80976442Y-62260156D01*
X81079638Y-62370652D01*
X81208819Y-62449209D01*
X81260002Y-62463549D01*
X80559942Y-63163609D01*
X80606768Y-63200055D01*
X80606770Y-63200056D01*
X80825385Y-63318364D01*
X80825396Y-63318369D01*
X81060506Y-63399083D01*
X81305707Y-63440000D01*
X81554293Y-63440000D01*
X81799493Y-63399083D01*
X82034603Y-63318369D01*
X82034614Y-63318364D01*
X82253228Y-63200057D01*
X82253231Y-63200055D01*
X82300056Y-63163609D01*
X81601568Y-62465121D01*
X81718458Y-62414349D01*
X81835739Y-62318934D01*
X81922928Y-62195415D01*
X81953354Y-62109802D01*
X82653434Y-62809882D01*
X82753731Y-62656369D01*
X82853587Y-62428717D01*
X82914612Y-62187738D01*
X82914614Y-62187729D01*
X82935141Y-61940005D01*
X83584859Y-61940005D01*
X83605385Y-62187729D01*
X83605387Y-62187738D01*
X83666412Y-62428717D01*
X83766266Y-62656364D01*
X83866564Y-62809882D01*
X84564070Y-62112376D01*
X84566884Y-62125915D01*
X84636442Y-62260156D01*
X84739638Y-62370652D01*
X84868819Y-62449209D01*
X84920002Y-62463549D01*
X84219942Y-63163609D01*
X84266768Y-63200055D01*
X84266770Y-63200056D01*
X84485385Y-63318364D01*
X84485396Y-63318369D01*
X84720506Y-63399083D01*
X84965707Y-63440000D01*
X85214293Y-63440000D01*
X85459493Y-63399083D01*
X85694603Y-63318369D01*
X85694614Y-63318364D01*
X85913228Y-63200057D01*
X85913231Y-63200055D01*
X85960056Y-63163609D01*
X85261568Y-62465121D01*
X85378458Y-62414349D01*
X85495739Y-62318934D01*
X85582928Y-62195415D01*
X85613354Y-62109802D01*
X86313434Y-62809882D01*
X86413731Y-62656369D01*
X86513587Y-62428717D01*
X86574612Y-62187738D01*
X86574614Y-62187729D01*
X86595141Y-61940005D01*
X86595141Y-61939994D01*
X86574614Y-61692270D01*
X86574612Y-61692261D01*
X86513587Y-61451282D01*
X86413731Y-61223630D01*
X86313434Y-61070116D01*
X85615929Y-61767622D01*
X85613116Y-61754085D01*
X85543558Y-61619844D01*
X85440362Y-61509348D01*
X85311181Y-61430791D01*
X85259997Y-61416450D01*
X85960057Y-60716390D01*
X85960056Y-60716389D01*
X85913229Y-60679943D01*
X85694614Y-60561635D01*
X85694603Y-60561630D01*
X85459493Y-60480916D01*
X85214293Y-60440000D01*
X84965707Y-60440000D01*
X84720506Y-60480916D01*
X84485396Y-60561630D01*
X84485390Y-60561632D01*
X84266761Y-60679949D01*
X84219942Y-60716388D01*
X84219942Y-60716390D01*
X84918431Y-61414878D01*
X84801542Y-61465651D01*
X84684261Y-61561066D01*
X84597072Y-61684585D01*
X84566645Y-61770197D01*
X83866564Y-61070116D01*
X83766267Y-61223632D01*
X83666412Y-61451282D01*
X83605387Y-61692261D01*
X83605385Y-61692270D01*
X83584859Y-61939994D01*
X83584859Y-61940005D01*
X82935141Y-61940005D01*
X82935141Y-61939994D01*
X82914614Y-61692270D01*
X82914612Y-61692261D01*
X82853587Y-61451282D01*
X82753732Y-61223632D01*
X82617770Y-61015525D01*
X82593520Y-60989183D01*
X82562598Y-60926528D01*
X82570458Y-60857102D01*
X82597066Y-60817522D01*
X84512772Y-58901817D01*
X84574093Y-58868334D01*
X84640712Y-58872218D01*
X84692229Y-58889904D01*
X84720385Y-58899571D01*
X84965665Y-58940500D01*
X85214335Y-58940500D01*
X85459614Y-58899571D01*
X85694810Y-58818828D01*
X85913509Y-58700474D01*
X86109744Y-58547738D01*
X86278164Y-58364785D01*
X86414173Y-58156607D01*
X86514063Y-57928881D01*
X86575108Y-57687821D01*
X86575952Y-57677636D01*
X86595643Y-57440005D01*
X86595643Y-57439994D01*
X86575109Y-57192187D01*
X86575107Y-57192175D01*
X86514063Y-56951118D01*
X86414173Y-56723393D01*
X86278166Y-56515217D01*
X86250096Y-56484725D01*
X86109744Y-56332262D01*
X85913509Y-56179526D01*
X85913507Y-56179525D01*
X85913506Y-56179524D01*
X85694811Y-56061172D01*
X85694802Y-56061169D01*
X85459616Y-55980429D01*
X85214335Y-55939500D01*
X84965665Y-55939500D01*
X84720383Y-55980429D01*
X84485197Y-56061169D01*
X84485188Y-56061172D01*
X84266493Y-56179524D01*
X84119669Y-56293802D01*
X84070256Y-56332262D01*
X84067386Y-56335380D01*
X83901833Y-56515217D01*
X83765826Y-56723393D01*
X83665936Y-56951118D01*
X83604892Y-57192175D01*
X83604890Y-57192187D01*
X83584357Y-57439994D01*
X83584357Y-57440005D01*
X83604890Y-57687812D01*
X83604892Y-57687824D01*
X83658863Y-57900949D01*
X83656238Y-57970769D01*
X83626338Y-58019070D01*
X81692228Y-59953181D01*
X81630905Y-59986666D01*
X81604547Y-59989500D01*
X73564453Y-59989500D01*
X73497414Y-59969815D01*
X73451659Y-59917011D01*
X73441715Y-59847853D01*
X73470740Y-59784297D01*
X73476772Y-59777819D01*
X73667340Y-59587251D01*
X74352772Y-58901817D01*
X74414093Y-58868334D01*
X74480712Y-58872218D01*
X74532229Y-58889904D01*
X74560385Y-58899571D01*
X74805665Y-58940500D01*
X75054335Y-58940500D01*
X75299614Y-58899571D01*
X75534810Y-58818828D01*
X75753509Y-58700474D01*
X75949744Y-58547738D01*
X76118164Y-58364785D01*
X76254173Y-58156607D01*
X76354063Y-57928881D01*
X76415108Y-57687821D01*
X76415952Y-57677636D01*
X76435643Y-57440005D01*
X76435643Y-57439994D01*
X76415109Y-57192187D01*
X76415107Y-57192175D01*
X76354063Y-56951118D01*
X76254173Y-56723393D01*
X76118166Y-56515217D01*
X76090096Y-56484725D01*
X75949744Y-56332262D01*
X75753509Y-56179526D01*
X75753508Y-56179525D01*
X75753505Y-56179523D01*
X75753499Y-56179519D01*
X75751716Y-56178555D01*
X75751125Y-56177968D01*
X75749208Y-56176716D01*
X75749465Y-56176321D01*
X75702125Y-56129337D01*
X75687015Y-56061120D01*
X75711185Y-55995564D01*
X75766961Y-55953482D01*
X75810732Y-55945500D01*
X80549268Y-55945500D01*
X80616307Y-55965185D01*
X80662062Y-56017989D01*
X80672006Y-56087147D01*
X80642981Y-56150703D01*
X80610717Y-56176601D01*
X80610792Y-56176716D01*
X80609624Y-56177478D01*
X80608284Y-56178555D01*
X80606500Y-56179519D01*
X80606494Y-56179523D01*
X80459669Y-56293802D01*
X80410256Y-56332262D01*
X80407386Y-56335380D01*
X80241833Y-56515217D01*
X80105826Y-56723393D01*
X80005936Y-56951118D01*
X79944892Y-57192175D01*
X79944890Y-57192187D01*
X79924357Y-57439994D01*
X79924357Y-57440005D01*
X79944890Y-57687812D01*
X79944892Y-57687824D01*
X80005936Y-57928881D01*
X80105826Y-58156606D01*
X80241833Y-58364782D01*
X80241836Y-58364785D01*
X80410256Y-58547738D01*
X80606491Y-58700474D01*
X80825190Y-58818828D01*
X81060386Y-58899571D01*
X81305665Y-58940500D01*
X81554335Y-58940500D01*
X81799614Y-58899571D01*
X82034810Y-58818828D01*
X82253509Y-58700474D01*
X82449744Y-58547738D01*
X82618164Y-58364785D01*
X82754173Y-58156607D01*
X82854063Y-57928881D01*
X82915108Y-57687821D01*
X82915952Y-57677636D01*
X82935643Y-57440005D01*
X82935643Y-57439994D01*
X82915109Y-57192187D01*
X82915107Y-57192175D01*
X82854063Y-56951118D01*
X82754173Y-56723393D01*
X82618166Y-56515217D01*
X82590096Y-56484725D01*
X82449744Y-56332262D01*
X82253509Y-56179526D01*
X82253508Y-56179525D01*
X82253505Y-56179523D01*
X82253499Y-56179519D01*
X82251716Y-56178555D01*
X82251125Y-56177968D01*
X82249208Y-56176716D01*
X82249465Y-56176321D01*
X82202125Y-56129337D01*
X82187015Y-56061120D01*
X82211185Y-55995564D01*
X82266961Y-55953482D01*
X82310732Y-55945500D01*
X83161952Y-55945500D01*
X83165697Y-55945613D01*
X83173042Y-55946057D01*
X83227606Y-55949358D01*
X83265314Y-55942447D01*
X83288621Y-55938177D01*
X83292325Y-55937613D01*
X83310170Y-55935446D01*
X83353872Y-55930140D01*
X83363335Y-55926550D01*
X83384961Y-55920522D01*
X83385893Y-55920351D01*
X83394932Y-55918695D01*
X83451512Y-55893229D01*
X83454942Y-55891809D01*
X83512930Y-55869818D01*
X83521266Y-55864062D01*
X83540821Y-55853034D01*
X83550057Y-55848878D01*
X83598896Y-55810613D01*
X83601876Y-55808421D01*
X83652929Y-55773183D01*
X83694065Y-55726748D01*
X83696599Y-55724056D01*
X86593838Y-52826819D01*
X86655161Y-52793334D01*
X86681519Y-52790500D01*
X111566000Y-52790500D01*
X111633039Y-52810185D01*
X111678794Y-52862989D01*
X111690000Y-52914500D01*
X111690000Y-53090000D01*
X112606314Y-53090000D01*
X112580507Y-53130156D01*
X112540000Y-53268111D01*
X112540000Y-53411889D01*
X112580507Y-53549844D01*
X112606314Y-53590000D01*
X111690000Y-53590000D01*
X111690000Y-54237844D01*
X111696401Y-54297372D01*
X111696403Y-54297379D01*
X111746645Y-54432086D01*
X111746649Y-54432093D01*
X111832809Y-54547187D01*
X111832812Y-54547190D01*
X111947906Y-54633350D01*
X111947913Y-54633354D01*
X112082620Y-54683596D01*
X112082627Y-54683598D01*
X112142155Y-54689999D01*
X112142172Y-54690000D01*
X112790000Y-54690000D01*
X112790000Y-53775501D01*
X112897685Y-53824680D01*
X113004237Y-53840000D01*
X113075763Y-53840000D01*
X113182315Y-53824680D01*
X113290000Y-53775501D01*
X113290000Y-54690000D01*
X113937828Y-54690000D01*
X113937844Y-54689999D01*
X113997372Y-54683598D01*
X113997379Y-54683596D01*
X114132086Y-54633354D01*
X114132093Y-54633350D01*
X114247187Y-54547190D01*
X114247190Y-54547187D01*
X114333350Y-54432093D01*
X114333354Y-54432086D01*
X114382422Y-54300529D01*
X114424293Y-54244595D01*
X114489757Y-54220178D01*
X114558030Y-54235030D01*
X114586285Y-54256181D01*
X114708599Y-54378495D01*
X114771582Y-54422596D01*
X114902165Y-54514032D01*
X114902167Y-54514033D01*
X114902170Y-54514035D01*
X115116337Y-54613903D01*
X115344592Y-54675063D01*
X115515319Y-54690000D01*
X115579999Y-54695659D01*
X115580000Y-54695659D01*
X115580001Y-54695659D01*
X115644681Y-54690000D01*
X115815408Y-54675063D01*
X116043663Y-54613903D01*
X116257830Y-54514035D01*
X116451401Y-54378495D01*
X116618495Y-54211401D01*
X116748425Y-54025842D01*
X116803002Y-53982217D01*
X116872500Y-53975023D01*
X116934855Y-54006546D01*
X116951575Y-54025842D01*
X117081500Y-54211395D01*
X117081505Y-54211401D01*
X117248599Y-54378495D01*
X117311582Y-54422596D01*
X117442165Y-54514032D01*
X117442167Y-54514033D01*
X117442170Y-54514035D01*
X117656337Y-54613903D01*
X117884592Y-54675063D01*
X118055319Y-54690000D01*
X118119999Y-54695659D01*
X118120000Y-54695659D01*
X118120001Y-54695659D01*
X118184681Y-54690000D01*
X118355408Y-54675063D01*
X118583663Y-54613903D01*
X118797830Y-54514035D01*
X118991401Y-54378495D01*
X119158495Y-54211401D01*
X119288425Y-54025842D01*
X119343002Y-53982217D01*
X119412500Y-53975023D01*
X119474855Y-54006546D01*
X119491575Y-54025842D01*
X119621500Y-54211395D01*
X119621505Y-54211401D01*
X119788599Y-54378495D01*
X119851582Y-54422596D01*
X119982165Y-54514032D01*
X119982167Y-54514033D01*
X119982170Y-54514035D01*
X120196337Y-54613903D01*
X120424592Y-54675063D01*
X120595319Y-54690000D01*
X120659999Y-54695659D01*
X120660000Y-54695659D01*
X120660001Y-54695659D01*
X120724681Y-54690000D01*
X120895408Y-54675063D01*
X121123663Y-54613903D01*
X121337830Y-54514035D01*
X121531401Y-54378495D01*
X121698495Y-54211401D01*
X121834035Y-54017830D01*
X121933903Y-53803663D01*
X121995063Y-53575408D01*
X122015659Y-53340000D01*
X121995063Y-53104592D01*
X121933903Y-52876337D01*
X121834035Y-52662171D01*
X121828425Y-52654158D01*
X121698494Y-52468597D01*
X121531402Y-52301506D01*
X121531395Y-52301501D01*
X121514881Y-52289938D01*
X121485842Y-52269604D01*
X121337834Y-52165967D01*
X121337830Y-52165965D01*
X121337828Y-52165964D01*
X121123663Y-52066097D01*
X121123659Y-52066096D01*
X121123655Y-52066094D01*
X120895413Y-52004938D01*
X120895403Y-52004936D01*
X120660001Y-51984341D01*
X120659999Y-51984341D01*
X120424596Y-52004936D01*
X120424586Y-52004938D01*
X120196344Y-52066094D01*
X120196335Y-52066098D01*
X119982171Y-52165964D01*
X119982169Y-52165965D01*
X119788597Y-52301505D01*
X119621505Y-52468597D01*
X119491575Y-52654158D01*
X119436998Y-52697783D01*
X119367500Y-52704977D01*
X119305145Y-52673454D01*
X119288425Y-52654158D01*
X119158494Y-52468597D01*
X118991402Y-52301506D01*
X118991395Y-52301501D01*
X118974881Y-52289938D01*
X118945842Y-52269604D01*
X118797834Y-52165967D01*
X118797830Y-52165965D01*
X118797828Y-52165964D01*
X118583663Y-52066097D01*
X118583659Y-52066096D01*
X118583655Y-52066094D01*
X118355413Y-52004938D01*
X118355403Y-52004936D01*
X118120001Y-51984341D01*
X118119999Y-51984341D01*
X117884596Y-52004936D01*
X117884586Y-52004938D01*
X117656344Y-52066094D01*
X117656335Y-52066098D01*
X117442171Y-52165964D01*
X117442169Y-52165965D01*
X117248597Y-52301505D01*
X117081505Y-52468597D01*
X116951575Y-52654158D01*
X116896998Y-52697783D01*
X116827500Y-52704977D01*
X116765145Y-52673454D01*
X116748425Y-52654158D01*
X116618494Y-52468597D01*
X116451402Y-52301506D01*
X116451395Y-52301501D01*
X116434881Y-52289938D01*
X116405842Y-52269604D01*
X116257834Y-52165967D01*
X116257830Y-52165965D01*
X116257828Y-52165964D01*
X116043663Y-52066097D01*
X116043659Y-52066096D01*
X116043655Y-52066094D01*
X115815413Y-52004938D01*
X115815403Y-52004936D01*
X115580001Y-51984341D01*
X115579999Y-51984341D01*
X115344597Y-52004936D01*
X115344593Y-52004936D01*
X115344592Y-52004937D01*
X115344587Y-52004938D01*
X115344584Y-52004939D01*
X115327778Y-52009442D01*
X115257928Y-52007778D01*
X115208005Y-51977348D01*
X114841598Y-51610941D01*
X114839064Y-51608250D01*
X114797929Y-51561817D01*
X114797928Y-51561816D01*
X114797924Y-51561812D01*
X114746896Y-51526591D01*
X114743887Y-51524377D01*
X114695060Y-51486124D01*
X114695055Y-51486120D01*
X114685813Y-51481961D01*
X114666266Y-51470936D01*
X114664657Y-51469826D01*
X114657930Y-51465182D01*
X114657929Y-51465181D01*
X114599949Y-51443192D01*
X114596497Y-51441762D01*
X114587189Y-51437573D01*
X114534138Y-51392107D01*
X114514088Y-51325176D01*
X114533407Y-51258030D01*
X114585960Y-51211988D01*
X114638086Y-51200500D01*
X144195500Y-51200500D01*
X144262539Y-51220185D01*
X144308294Y-51272989D01*
X144319500Y-51324500D01*
X144319500Y-76075500D01*
X144299815Y-76142539D01*
X144247011Y-76188294D01*
X144195500Y-76199500D01*
X23444500Y-76199500D01*
X23377461Y-76179815D01*
X23331706Y-76127011D01*
X23320500Y-76075500D01*
X23320500Y-71267763D01*
X31465787Y-71267763D01*
X31495413Y-71537013D01*
X31495415Y-71537024D01*
X31563926Y-71799082D01*
X31563928Y-71799088D01*
X31669870Y-72048390D01*
X31810979Y-72279605D01*
X31810986Y-72279615D01*
X31984253Y-72487819D01*
X31984259Y-72487824D01*
X32089240Y-72581887D01*
X32185998Y-72668582D01*
X32411910Y-72818044D01*
X32657176Y-72933020D01*
X32657183Y-72933022D01*
X32657185Y-72933023D01*
X32916557Y-73011057D01*
X32916564Y-73011058D01*
X32916569Y-73011060D01*
X33184561Y-73050500D01*
X33184566Y-73050500D01*
X33387636Y-73050500D01*
X33439133Y-73046730D01*
X33590156Y-73035677D01*
X33702758Y-73010593D01*
X33854546Y-72976782D01*
X33854548Y-72976781D01*
X33854553Y-72976780D01*
X34107558Y-72880014D01*
X34343777Y-72747441D01*
X34558177Y-72581888D01*
X34746186Y-72386881D01*
X34903799Y-72166579D01*
X34996251Y-71986759D01*
X35027649Y-71925690D01*
X35027651Y-71925684D01*
X35027656Y-71925675D01*
X35115118Y-71669305D01*
X35164319Y-71402933D01*
X35174212Y-71132235D01*
X35144586Y-70862982D01*
X35076072Y-70600912D01*
X34970130Y-70351610D01*
X34829018Y-70120390D01*
X34787135Y-70070062D01*
X34655746Y-69912180D01*
X34655740Y-69912175D01*
X34454002Y-69731418D01*
X34228092Y-69581957D01*
X34205248Y-69571248D01*
X33982824Y-69466980D01*
X33982819Y-69466978D01*
X33982814Y-69466976D01*
X33723442Y-69388942D01*
X33723428Y-69388939D01*
X33607791Y-69371921D01*
X33455439Y-69349500D01*
X33252369Y-69349500D01*
X33252364Y-69349500D01*
X33049844Y-69364323D01*
X33049831Y-69364325D01*
X32785453Y-69423217D01*
X32785446Y-69423220D01*
X32532439Y-69519987D01*
X32296226Y-69652557D01*
X32081822Y-69818112D01*
X31893822Y-70013109D01*
X31893816Y-70013116D01*
X31736202Y-70233419D01*
X31736199Y-70233424D01*
X31612350Y-70474309D01*
X31612343Y-70474327D01*
X31524884Y-70730685D01*
X31524881Y-70730699D01*
X31475681Y-70997068D01*
X31475680Y-70997075D01*
X31465787Y-71267763D01*
X23320500Y-71267763D01*
X23320500Y-56200000D01*
X31764706Y-56200000D01*
X31783853Y-56443297D01*
X31783853Y-56443300D01*
X31783854Y-56443302D01*
X31840827Y-56680609D01*
X31840830Y-56680619D01*
X31934222Y-56906089D01*
X32061737Y-57114173D01*
X32061738Y-57114176D01*
X32115449Y-57177063D01*
X32220241Y-57299759D01*
X32353710Y-57413752D01*
X32405823Y-57458261D01*
X32405825Y-57458261D01*
X32456376Y-57489239D01*
X32613911Y-57585777D01*
X32613910Y-57585777D01*
X32627542Y-57591423D01*
X32652044Y-57601572D01*
X32654258Y-57602555D01*
X32656127Y-57603263D01*
X32839388Y-57679172D01*
X32839389Y-57679172D01*
X32839391Y-57679173D01*
X32853134Y-57682472D01*
X32879260Y-57688744D01*
X32882017Y-57689474D01*
X32888057Y-57691223D01*
X32888061Y-57691225D01*
X32898290Y-57693313D01*
X33076698Y-57736146D01*
X33123995Y-57739868D01*
X33131542Y-57740932D01*
X33132864Y-57741202D01*
X33149414Y-57741868D01*
X33320000Y-57755294D01*
X33371386Y-57751249D01*
X33378730Y-57751109D01*
X33382514Y-57751262D01*
X33403293Y-57748738D01*
X33563302Y-57736146D01*
X33617465Y-57723142D01*
X33624439Y-57721887D01*
X33630544Y-57721146D01*
X33652268Y-57714853D01*
X33654972Y-57714137D01*
X33800612Y-57679172D01*
X33855940Y-57656254D01*
X33862404Y-57653987D01*
X33870532Y-57651633D01*
X33892788Y-57641072D01*
X33895497Y-57639869D01*
X34026089Y-57585777D01*
X34080830Y-57552231D01*
X34086604Y-57549104D01*
X34096261Y-57544523D01*
X34117464Y-57529886D01*
X34120241Y-57528080D01*
X34234179Y-57458259D01*
X34286309Y-57413735D01*
X34291306Y-57409892D01*
X34301885Y-57402591D01*
X34320901Y-57384324D01*
X34323493Y-57381976D01*
X34419759Y-57299759D01*
X34467157Y-57244262D01*
X34471349Y-57239817D01*
X34482079Y-57229512D01*
X34497953Y-57208386D01*
X34500325Y-57205427D01*
X34578259Y-57114179D01*
X34618786Y-57048044D01*
X34622044Y-57043252D01*
X34632176Y-57029770D01*
X34644315Y-57006639D01*
X34646306Y-57003136D01*
X34705777Y-56906089D01*
X34737238Y-56830133D01*
X34739601Y-56825088D01*
X34748288Y-56808537D01*
X34756346Y-56784399D01*
X34757846Y-56780381D01*
X34799172Y-56680612D01*
X34819488Y-56595990D01*
X34820947Y-56590894D01*
X34827408Y-56571543D01*
X34831343Y-56547326D01*
X34832229Y-56542918D01*
X34856146Y-56443302D01*
X34863361Y-56351623D01*
X34863973Y-56346547D01*
X34867487Y-56324926D01*
X34868146Y-56292153D01*
X34868324Y-56288560D01*
X34875294Y-56200000D01*
X34868323Y-56111433D01*
X34868146Y-56107842D01*
X34867487Y-56075074D01*
X34863972Y-56053446D01*
X34863360Y-56048367D01*
X34856146Y-55956698D01*
X34832239Y-55857123D01*
X34831335Y-55852620D01*
X34827408Y-55828457D01*
X34820955Y-55809129D01*
X34819482Y-55803987D01*
X34799172Y-55719388D01*
X34757858Y-55619648D01*
X34756335Y-55615568D01*
X34748288Y-55591463D01*
X34739609Y-55574927D01*
X34737238Y-55569867D01*
X34705777Y-55493911D01*
X34646308Y-55396867D01*
X34644308Y-55393346D01*
X34632176Y-55370230D01*
X34622066Y-55356776D01*
X34618766Y-55351923D01*
X34615182Y-55346075D01*
X34578259Y-55285821D01*
X34500341Y-55194591D01*
X34497944Y-55191601D01*
X34482079Y-55170488D01*
X34471354Y-55160186D01*
X34467156Y-55155735D01*
X34419759Y-55100241D01*
X34323513Y-55018039D01*
X34320885Y-55015659D01*
X34301885Y-54997409D01*
X34297219Y-54994188D01*
X34291333Y-54990125D01*
X34286287Y-54986245D01*
X34234179Y-54941741D01*
X34234170Y-54941734D01*
X34120273Y-54871938D01*
X34117450Y-54870101D01*
X34096264Y-54855478D01*
X34096260Y-54855476D01*
X34086608Y-54850895D01*
X34080796Y-54847746D01*
X34048206Y-54827776D01*
X34026089Y-54814223D01*
X34026083Y-54814220D01*
X34026077Y-54814217D01*
X33895569Y-54760160D01*
X33892716Y-54758893D01*
X33870533Y-54748367D01*
X33870519Y-54748362D01*
X33862406Y-54746011D01*
X33855933Y-54743741D01*
X33800622Y-54720831D01*
X33800606Y-54720826D01*
X33655002Y-54685868D01*
X33652231Y-54685134D01*
X33630547Y-54678855D01*
X33630548Y-54678855D01*
X33630544Y-54678854D01*
X33630536Y-54678853D01*
X33630525Y-54678851D01*
X33624427Y-54678109D01*
X33617437Y-54676850D01*
X33563302Y-54663854D01*
X33403297Y-54651261D01*
X33382525Y-54648739D01*
X33382520Y-54648738D01*
X33382514Y-54648738D01*
X33382508Y-54648738D01*
X33382504Y-54648738D01*
X33378731Y-54648890D01*
X33371376Y-54648748D01*
X33320000Y-54644706D01*
X33149417Y-54658130D01*
X33132869Y-54658797D01*
X33132833Y-54658801D01*
X33131503Y-54659073D01*
X33123988Y-54660131D01*
X33076706Y-54663853D01*
X33076701Y-54663853D01*
X33076698Y-54663854D01*
X33076695Y-54663854D01*
X33076693Y-54663855D01*
X32898287Y-54706687D01*
X32888059Y-54708775D01*
X32882015Y-54710525D01*
X32879247Y-54711258D01*
X32839390Y-54720827D01*
X32839385Y-54720828D01*
X32656127Y-54796736D01*
X32654250Y-54797448D01*
X32652041Y-54798428D01*
X32613910Y-54814223D01*
X32613904Y-54814226D01*
X32405826Y-54941737D01*
X32405823Y-54941738D01*
X32220241Y-55100241D01*
X32061738Y-55285823D01*
X32061737Y-55285826D01*
X31934222Y-55493910D01*
X31840830Y-55719380D01*
X31783853Y-55956702D01*
X31764706Y-56200000D01*
X23320500Y-56200000D01*
X23320500Y-51324500D01*
X23340185Y-51257461D01*
X23392989Y-51211706D01*
X23444500Y-51200500D01*
X86031916Y-51200500D01*
X86098955Y-51220185D01*
G37*
%TD.AperFunction*%
%TA.AperFunction,Conductor*%
G36*
X79003039Y-67955185D02*
G01*
X79048794Y-68007989D01*
X79060000Y-68059500D01*
X79060000Y-68600000D01*
X80960000Y-68600000D01*
X80960000Y-68059500D01*
X80979685Y-67992461D01*
X81032489Y-67946706D01*
X81084000Y-67935500D01*
X83255500Y-67935500D01*
X83322539Y-67955185D01*
X83368294Y-68007989D01*
X83379500Y-68059500D01*
X83379500Y-69444546D01*
X83359815Y-69511585D01*
X83343181Y-69532227D01*
X80412227Y-72463181D01*
X80350904Y-72496666D01*
X80324546Y-72499500D01*
X79512129Y-72499500D01*
X79512123Y-72499501D01*
X79452516Y-72505908D01*
X79317671Y-72556202D01*
X79317664Y-72556206D01*
X79202455Y-72642452D01*
X79202452Y-72642455D01*
X79116206Y-72757664D01*
X79116202Y-72757671D01*
X79065908Y-72892517D01*
X79059501Y-72952116D01*
X79059500Y-72952127D01*
X79059500Y-73568481D01*
X79059501Y-74075500D01*
X79039816Y-74142539D01*
X78987013Y-74188294D01*
X78935501Y-74199500D01*
X78201518Y-74199500D01*
X78134479Y-74179815D01*
X78113837Y-74163181D01*
X77696818Y-73746161D01*
X77663333Y-73684838D01*
X77660499Y-73658480D01*
X77660499Y-72952129D01*
X77660498Y-72952123D01*
X77660497Y-72952116D01*
X77654091Y-72892517D01*
X77642759Y-72862135D01*
X77603797Y-72757671D01*
X77603793Y-72757664D01*
X77517547Y-72642455D01*
X77517544Y-72642452D01*
X77402335Y-72556206D01*
X77402328Y-72556202D01*
X77267482Y-72505908D01*
X77267483Y-72505908D01*
X77207883Y-72499501D01*
X77207881Y-72499500D01*
X77207873Y-72499500D01*
X77207864Y-72499500D01*
X76212129Y-72499500D01*
X76212123Y-72499501D01*
X76152516Y-72505908D01*
X76017671Y-72556202D01*
X76017664Y-72556206D01*
X75902455Y-72642452D01*
X75902452Y-72642455D01*
X75816206Y-72757664D01*
X75816202Y-72757671D01*
X75765908Y-72892517D01*
X75759501Y-72952116D01*
X75759501Y-72952123D01*
X75759500Y-72952135D01*
X75759500Y-73658480D01*
X75739815Y-73725519D01*
X75723181Y-73746161D01*
X75396162Y-74073181D01*
X75334839Y-74106666D01*
X75308481Y-74109500D01*
X73464500Y-74109500D01*
X73397461Y-74089815D01*
X73351706Y-74037011D01*
X73340500Y-73985500D01*
X73340499Y-73155451D01*
X73360183Y-73088412D01*
X73376813Y-73067775D01*
X76307771Y-70136818D01*
X76369094Y-70103333D01*
X76395452Y-70100499D01*
X77207871Y-70100499D01*
X77207872Y-70100499D01*
X77267483Y-70094091D01*
X77402331Y-70043796D01*
X77517546Y-69957546D01*
X77603796Y-69842331D01*
X77654091Y-69707483D01*
X77660500Y-69647873D01*
X77660500Y-69100000D01*
X79060000Y-69100000D01*
X79060000Y-69647844D01*
X79066401Y-69707372D01*
X79066403Y-69707379D01*
X79116645Y-69842086D01*
X79116649Y-69842093D01*
X79202809Y-69957187D01*
X79202812Y-69957190D01*
X79317906Y-70043350D01*
X79317913Y-70043354D01*
X79452620Y-70093596D01*
X79452627Y-70093598D01*
X79512155Y-70099999D01*
X79512172Y-70100000D01*
X79760000Y-70100000D01*
X79760000Y-69100000D01*
X80260000Y-69100000D01*
X80260000Y-70100000D01*
X80507828Y-70100000D01*
X80507844Y-70099999D01*
X80567372Y-70093598D01*
X80567379Y-70093596D01*
X80702086Y-70043354D01*
X80702093Y-70043350D01*
X80817187Y-69957190D01*
X80817190Y-69957187D01*
X80903350Y-69842093D01*
X80903354Y-69842086D01*
X80953596Y-69707379D01*
X80953598Y-69707372D01*
X80959999Y-69647844D01*
X80960000Y-69647827D01*
X80960000Y-69100000D01*
X80260000Y-69100000D01*
X79760000Y-69100000D01*
X79060000Y-69100000D01*
X77660500Y-69100000D01*
X77660499Y-68059499D01*
X77680184Y-67992461D01*
X77732987Y-67946706D01*
X77784499Y-67935500D01*
X78936000Y-67935500D01*
X79003039Y-67955185D01*
G37*
%TD.AperFunction*%
%TA.AperFunction,Conductor*%
G36*
X71383039Y-67955185D02*
G01*
X71428794Y-68007989D01*
X71440000Y-68059500D01*
X71440000Y-68510000D01*
X73340000Y-68510000D01*
X73340000Y-68059500D01*
X73359685Y-67992461D01*
X73412489Y-67946706D01*
X73464000Y-67935500D01*
X75635500Y-67935500D01*
X75702539Y-67955185D01*
X75748294Y-68007989D01*
X75759500Y-68059500D01*
X75759500Y-68864546D01*
X75739815Y-68931585D01*
X75723181Y-68952227D01*
X72302226Y-72373181D01*
X72240903Y-72406666D01*
X72214545Y-72409500D01*
X71892130Y-72409500D01*
X71892123Y-72409501D01*
X71832516Y-72415908D01*
X71697671Y-72466202D01*
X71697664Y-72466206D01*
X71582455Y-72552452D01*
X71582452Y-72552455D01*
X71496206Y-72667664D01*
X71496202Y-72667671D01*
X71445908Y-72802517D01*
X71439501Y-72862116D01*
X71439501Y-72862123D01*
X71439500Y-72862135D01*
X71439501Y-73985500D01*
X71419816Y-74052539D01*
X71367013Y-74098294D01*
X71315501Y-74109500D01*
X70581518Y-74109500D01*
X70514479Y-74089815D01*
X70493837Y-74073181D01*
X70076818Y-73656161D01*
X70043333Y-73594838D01*
X70040499Y-73568480D01*
X70040499Y-72862129D01*
X70040498Y-72862123D01*
X70040497Y-72862116D01*
X70034091Y-72802517D01*
X70013549Y-72747442D01*
X69983797Y-72667671D01*
X69983793Y-72667664D01*
X69897547Y-72552455D01*
X69897544Y-72552452D01*
X69782335Y-72466206D01*
X69782328Y-72466202D01*
X69647482Y-72415908D01*
X69647483Y-72415908D01*
X69587883Y-72409501D01*
X69587881Y-72409500D01*
X69587873Y-72409500D01*
X69587864Y-72409500D01*
X68592129Y-72409500D01*
X68592123Y-72409501D01*
X68532516Y-72415908D01*
X68397671Y-72466202D01*
X68397664Y-72466206D01*
X68282455Y-72552452D01*
X68282452Y-72552455D01*
X68196206Y-72667664D01*
X68196202Y-72667671D01*
X68145908Y-72802517D01*
X68139501Y-72862116D01*
X68139501Y-72862123D01*
X68139500Y-72862135D01*
X68139500Y-73568481D01*
X68119815Y-73635520D01*
X68103181Y-73656162D01*
X67686162Y-74073181D01*
X67624839Y-74106666D01*
X67598481Y-74109500D01*
X66224500Y-74109500D01*
X66157461Y-74089815D01*
X66111706Y-74037011D01*
X66100500Y-73985500D01*
X66100499Y-72862129D01*
X66100498Y-72862123D01*
X66100497Y-72862116D01*
X66094091Y-72802517D01*
X66077926Y-72759176D01*
X66072942Y-72689485D01*
X66106425Y-72628164D01*
X68687771Y-70046817D01*
X68749094Y-70013333D01*
X68775452Y-70010499D01*
X69587871Y-70010499D01*
X69587872Y-70010499D01*
X69647483Y-70004091D01*
X69782331Y-69953796D01*
X69897546Y-69867546D01*
X69983796Y-69752331D01*
X70034091Y-69617483D01*
X70040500Y-69557873D01*
X70040500Y-69010000D01*
X71440000Y-69010000D01*
X71440000Y-69557844D01*
X71446401Y-69617372D01*
X71446403Y-69617379D01*
X71496645Y-69752086D01*
X71496649Y-69752093D01*
X71582809Y-69867187D01*
X71582812Y-69867190D01*
X71697906Y-69953350D01*
X71697913Y-69953354D01*
X71832620Y-70003596D01*
X71832627Y-70003598D01*
X71892155Y-70009999D01*
X71892172Y-70010000D01*
X72140000Y-70010000D01*
X72140000Y-69010000D01*
X72640000Y-69010000D01*
X72640000Y-70010000D01*
X72887828Y-70010000D01*
X72887844Y-70009999D01*
X72947372Y-70003598D01*
X72947379Y-70003596D01*
X73082086Y-69953354D01*
X73082093Y-69953350D01*
X73197187Y-69867190D01*
X73197190Y-69867187D01*
X73283350Y-69752093D01*
X73283354Y-69752086D01*
X73333596Y-69617379D01*
X73333598Y-69617372D01*
X73339999Y-69557844D01*
X73340000Y-69557827D01*
X73340000Y-69010000D01*
X72640000Y-69010000D01*
X72140000Y-69010000D01*
X71440000Y-69010000D01*
X70040500Y-69010000D01*
X70040499Y-68059499D01*
X70060184Y-67992461D01*
X70112987Y-67946706D01*
X70164499Y-67935500D01*
X71316000Y-67935500D01*
X71383039Y-67955185D01*
G37*
%TD.AperFunction*%
%TA.AperFunction,Conductor*%
G36*
X74173039Y-53445185D02*
G01*
X74218794Y-53497989D01*
X74230000Y-53549500D01*
X74230000Y-53725000D01*
X75146314Y-53725000D01*
X75120507Y-53765156D01*
X75080000Y-53903111D01*
X75080000Y-54046889D01*
X75120507Y-54184844D01*
X75146314Y-54225000D01*
X74230000Y-54225000D01*
X74230000Y-54420500D01*
X74210315Y-54487539D01*
X74157511Y-54533294D01*
X74106000Y-54544500D01*
X59078047Y-54544500D01*
X59074302Y-54544387D01*
X59012395Y-54540642D01*
X59012388Y-54540642D01*
X58951385Y-54551821D01*
X58947684Y-54552384D01*
X58886127Y-54559859D01*
X58886120Y-54559861D01*
X58876646Y-54563454D01*
X58855048Y-54569475D01*
X58845068Y-54571304D01*
X58788518Y-54596755D01*
X58785059Y-54598188D01*
X58727070Y-54620181D01*
X58727065Y-54620184D01*
X58718721Y-54625943D01*
X58699186Y-54636961D01*
X58689946Y-54641120D01*
X58689943Y-54641121D01*
X58641134Y-54679359D01*
X58638119Y-54681577D01*
X58611198Y-54700161D01*
X58544844Y-54722045D01*
X58477192Y-54704581D01*
X58429721Y-54653314D01*
X58417228Y-54608919D01*
X58398070Y-54389932D01*
X58340894Y-54176550D01*
X58247534Y-53976339D01*
X58132486Y-53812032D01*
X58120827Y-53795381D01*
X58050446Y-53725000D01*
X57964620Y-53639174D01*
X57964616Y-53639171D01*
X57962627Y-53637182D01*
X57929142Y-53575858D01*
X57934126Y-53506167D01*
X57975997Y-53450233D01*
X58041462Y-53425816D01*
X58050308Y-53425500D01*
X74106000Y-53425500D01*
X74173039Y-53445185D01*
G37*
%TD.AperFunction*%
%TD*%
M02*
