%TF.GenerationSoftware,KiCad,Pcbnew,7.0.9*%
%TF.CreationDate,2024-10-29T13:49:45+09:00*%
%TF.ProjectId,02-top,30322d74-6f70-42e6-9b69-6361645f7063,rev?*%
%TF.SameCoordinates,Original*%
%TF.FileFunction,Legend,Bot*%
%TF.FilePolarity,Positive*%
%FSLAX46Y46*%
G04 Gerber Fmt 4.6, Leading zero omitted, Abs format (unit mm)*
G04 Created by KiCad (PCBNEW 7.0.9) date 2024-10-29 13:49:45*
%MOMM*%
%LPD*%
G01*
G04 APERTURE LIST*
G04 Aperture macros list*
%AMRoundRect*
0 Rectangle with rounded corners*
0 $1 Rounding radius*
0 $2 $3 $4 $5 $6 $7 $8 $9 X,Y pos of 4 corners*
0 Add a 4 corners polygon primitive as box body*
4,1,4,$2,$3,$4,$5,$6,$7,$8,$9,$2,$3,0*
0 Add four circle primitives for the rounded corners*
1,1,$1+$1,$2,$3*
1,1,$1+$1,$4,$5*
1,1,$1+$1,$6,$7*
1,1,$1+$1,$8,$9*
0 Add four rect primitives between the rounded corners*
20,1,$1+$1,$2,$3,$4,$5,0*
20,1,$1+$1,$4,$5,$6,$7,0*
20,1,$1+$1,$6,$7,$8,$9,0*
20,1,$1+$1,$8,$9,$2,$3,0*%
G04 Aperture macros list end*
%ADD10C,0.120000*%
%ADD11C,3.200000*%
%ADD12RoundRect,0.250000X0.600000X0.725000X-0.600000X0.725000X-0.600000X-0.725000X0.600000X-0.725000X0*%
%ADD13O,1.700000X1.950000*%
%ADD14C,2.000000*%
%ADD15R,1.700000X1.700000*%
%ADD16O,1.700000X1.700000*%
%ADD17C,1.524000*%
%ADD18C,1.600000*%
%ADD19O,1.600000X1.600000*%
G04 APERTURE END LIST*
D10*
%TO.C,J1*%
X25500000Y-62310000D02*
X38120000Y-62310000D01*
X25510000Y-64570000D02*
X26260000Y-64570000D01*
X26260000Y-67520000D02*
X31810000Y-67520000D01*
X38110000Y-64570000D02*
X37360000Y-64570000D01*
X38120000Y-68280000D02*
X25500000Y-68280000D01*
X38120000Y-62310000D02*
X38120000Y-68280000D01*
X25500000Y-68280000D02*
X25500000Y-62310000D01*
X27310000Y-63070000D02*
X25510000Y-63070000D01*
X28810000Y-63070000D02*
X28810000Y-62320000D01*
X37160000Y-62020000D02*
X38410000Y-62020000D01*
X26260000Y-64570000D02*
X26260000Y-67520000D01*
X36310000Y-63070000D02*
X36310000Y-62320000D01*
X38410000Y-62020000D02*
X38410000Y-63270000D01*
X38110000Y-62320000D02*
X38110000Y-63070000D01*
X25510000Y-62320000D02*
X27310000Y-62320000D01*
X38110000Y-63070000D02*
X36310000Y-63070000D01*
X27310000Y-62320000D02*
X27310000Y-63070000D01*
X37360000Y-64570000D02*
X37360000Y-67520000D01*
X28810000Y-62320000D02*
X34810000Y-62320000D01*
X36310000Y-62320000D02*
X38110000Y-62320000D01*
X25510000Y-63070000D02*
X25510000Y-62320000D01*
X37360000Y-67520000D02*
X31810000Y-67520000D01*
X34810000Y-63070000D02*
X28810000Y-63070000D01*
X34810000Y-62320000D02*
X34810000Y-63070000D01*
%TO.C,R1*%
X53570000Y-64135000D02*
X52800000Y-64135000D01*
X52800000Y-65505000D02*
X46260000Y-65505000D01*
X52800000Y-62765000D02*
X52800000Y-65505000D01*
X46260000Y-65505000D02*
X46260000Y-62765000D01*
X46260000Y-62765000D02*
X52800000Y-62765000D01*
X45490000Y-64135000D02*
X46260000Y-64135000D01*
%TO.C,R3*%
X53570000Y-57785000D02*
X52800000Y-57785000D01*
X52800000Y-59155000D02*
X46260000Y-59155000D01*
X52800000Y-56415000D02*
X52800000Y-59155000D01*
X46260000Y-59155000D02*
X46260000Y-56415000D01*
X46260000Y-56415000D02*
X52800000Y-56415000D01*
X45490000Y-57785000D02*
X46260000Y-57785000D01*
%TO.C,R2*%
X53570000Y-60960000D02*
X52800000Y-60960000D01*
X52800000Y-62330000D02*
X46260000Y-62330000D01*
X52800000Y-59590000D02*
X52800000Y-62330000D01*
X46260000Y-62330000D02*
X46260000Y-59590000D01*
X46260000Y-59590000D02*
X52800000Y-59590000D01*
X45490000Y-60960000D02*
X46260000Y-60960000D01*
%TO.C,R4*%
X45490000Y-54610000D02*
X46260000Y-54610000D01*
X46260000Y-53240000D02*
X52800000Y-53240000D01*
X46260000Y-55980000D02*
X46260000Y-53240000D01*
X52800000Y-53240000D02*
X52800000Y-55980000D01*
X52800000Y-55980000D02*
X46260000Y-55980000D01*
X53570000Y-54610000D02*
X52800000Y-54610000D01*
%TD*%
%LPC*%
D11*
%TO.C,REF\u002A\u002A*%
X33320000Y-71200000D03*
%TD*%
%TO.C,REF\u002A\u002A*%
X134320000Y-71200000D03*
%TD*%
D12*
%TO.C,J1*%
X35560000Y-64770000D03*
D13*
X33060000Y-64770000D03*
X30560000Y-64770000D03*
X28060000Y-64770000D03*
%TD*%
D14*
%TO.C,SW3*%
X101190000Y-57440000D03*
X94690000Y-57440000D03*
X101190000Y-61940000D03*
X94690000Y-61940000D03*
%TD*%
%TO.C,SW2*%
X91590000Y-57440000D03*
X85090000Y-57440000D03*
X91590000Y-61940000D03*
X85090000Y-61940000D03*
%TD*%
%TO.C,SW1*%
X81430000Y-57440000D03*
X74930000Y-57440000D03*
X81430000Y-61940000D03*
X74930000Y-61940000D03*
%TD*%
D15*
%TO.C,J2*%
X113040000Y-53340000D03*
D16*
X115580000Y-53340000D03*
X118120000Y-53340000D03*
X120660000Y-53340000D03*
%TD*%
%TO.C,SW4*%
X80660000Y-53975000D03*
X78120000Y-53975000D03*
D15*
X75580000Y-53975000D03*
%TD*%
D17*
%TO.C,U1*%
X57150000Y-69850000D03*
X57150000Y-67310000D03*
X57150000Y-64770000D03*
X57150000Y-62230000D03*
X57150000Y-59690000D03*
X57150000Y-57150000D03*
X57150000Y-54610000D03*
X41910000Y-54610000D03*
X41910000Y-57150000D03*
X41910000Y-59690000D03*
X41910000Y-62230000D03*
X41910000Y-64770000D03*
X41910000Y-67310000D03*
X41910000Y-69850000D03*
%TD*%
D18*
%TO.C,R1*%
X54610000Y-64135000D03*
D19*
X44450000Y-64135000D03*
%TD*%
D18*
%TO.C,R3*%
X54610000Y-57785000D03*
D19*
X44450000Y-57785000D03*
%TD*%
D18*
%TO.C,R2*%
X54610000Y-60960000D03*
D19*
X44450000Y-60960000D03*
%TD*%
D18*
%TO.C,R4*%
X44450000Y-54610000D03*
D19*
X54610000Y-54610000D03*
%TD*%
%LPD*%
M02*
