M48
; DRILL file {KiCad 7.0.9} date Tue Oct 29 13:49:45 2024
; FORMAT={-:-/ absolute / inch / decimal}
; #@! TF.CreationDate,2024-10-29T13:49:45+09:00
; #@! TF.GenerationSoftware,Kicad,Pcbnew,7.0.9
; #@! TF.FileFunction,Plated,1,2,PTH
FMAT,2
INCH
; #@! TA.AperFunction,Plated,PTH,ViaDrill
T1C0.0157
; #@! TA.AperFunction,Plated,PTH,ComponentDrill
T2C0.0300
; #@! TA.AperFunction,Plated,PTH,ComponentDrill
T3C0.0315
; #@! TA.AperFunction,Plated,PTH,ComponentDrill
T4C0.0374
; #@! TA.AperFunction,Plated,PTH,ComponentDrill
T5C0.0394
; #@! TA.AperFunction,Plated,PTH,ComponentDrill
T6C0.0433
%
G90
G05
T1
X0.975Y-2.075
X0.975Y-2.95
X1.475Y-2.5
X1.525Y-2.3
X1.55Y-2.575
X1.7Y-2.825
X2.05Y-2.275
X2.325Y-2.65
X2.5Y-2.7
X2.5Y-2.8
X2.5Y-2.9
X2.65Y-2.7
X2.65Y-2.875
X2.775Y-2.7
X2.775Y-2.8
X2.825Y-2.125
X2.925Y-2.875
X2.95Y-2.7
X2.975Y-2.05
X3.075Y-2.7
X3.075Y-2.8
X3.25Y-2.125
X3.25Y-2.7
X3.25Y-2.875
X3.325Y-2.05
X3.375Y-2.8
X3.4Y-2.7
X3.55Y-2.85
X3.675Y-2.8
X3.7Y-2.7
X3.825Y-2.85
X3.95Y-2.7
X3.95Y-2.9
X4.025Y-2.8
X4.225Y-2.1
X4.525Y-2.4
X5.575Y-2.1
X5.575Y-2.8
T2
X1.65Y-2.15
X1.65Y-2.25
X1.65Y-2.35
X1.65Y-2.45
X1.65Y-2.55
X1.65Y-2.65
X1.65Y-2.75
X2.25Y-2.15
X2.25Y-2.25
X2.25Y-2.35
X2.25Y-2.45
X2.25Y-2.55
X2.25Y-2.65
X2.25Y-2.75
T3
X1.75Y-2.15
X1.75Y-2.275
X1.75Y-2.4
X1.75Y-2.525
X2.15Y-2.15
X2.15Y-2.275
X2.15Y-2.4
X2.15Y-2.525
T4
X1.1047Y-2.55
X1.2031Y-2.55
X1.3016Y-2.55
X1.4Y-2.55
T5
X2.9756Y-2.125
X3.0756Y-2.125
X3.1756Y-2.125
X4.4504Y-2.1
X4.5504Y-2.1
X4.6504Y-2.1
X4.7504Y-2.1
T6
X2.95Y-2.2614
X2.95Y-2.4386
X3.2059Y-2.2614
X3.2059Y-2.4386
X3.35Y-2.2614
X3.35Y-2.4386
X3.6059Y-2.2614
X3.6059Y-2.4386
X3.728Y-2.2614
X3.728Y-2.4386
X3.9839Y-2.2614
X3.9839Y-2.4386
T0
M30
