%TF.GenerationSoftware,KiCad,Pcbnew,7.0.9*%
%TF.CreationDate,2024-10-29T13:49:45+09:00*%
%TF.ProjectId,02-top,30322d74-6f70-42e6-9b69-6361645f7063,rev?*%
%TF.SameCoordinates,Original*%
%TF.FileFunction,Legend,Top*%
%TF.FilePolarity,Positive*%
%FSLAX46Y46*%
G04 Gerber Fmt 4.6, Leading zero omitted, Abs format (unit mm)*
G04 Created by KiCad (PCBNEW 7.0.9) date 2024-10-29 13:49:45*
%MOMM*%
%LPD*%
G01*
G04 APERTURE LIST*
G04 Aperture macros list*
%AMRoundRect*
0 Rectangle with rounded corners*
0 $1 Rounding radius*
0 $2 $3 $4 $5 $6 $7 $8 $9 X,Y pos of 4 corners*
0 Add a 4 corners polygon primitive as box body*
4,1,4,$2,$3,$4,$5,$6,$7,$8,$9,$2,$3,0*
0 Add four circle primitives for the rounded corners*
1,1,$1+$1,$2,$3*
1,1,$1+$1,$4,$5*
1,1,$1+$1,$6,$7*
1,1,$1+$1,$8,$9*
0 Add four rect primitives between the rounded corners*
20,1,$1+$1,$2,$3,$4,$5,0*
20,1,$1+$1,$4,$5,$6,$7,0*
20,1,$1+$1,$6,$7,$8,$9,0*
20,1,$1+$1,$8,$9,$2,$3,0*%
G04 Aperture macros list end*
%ADD10C,0.150000*%
%ADD11C,0.120000*%
%ADD12C,0.100000*%
%ADD13C,3.200000*%
%ADD14RoundRect,0.250000X0.600000X0.725000X-0.600000X0.725000X-0.600000X-0.725000X0.600000X-0.725000X0*%
%ADD15O,1.700000X1.950000*%
%ADD16C,2.000000*%
%ADD17R,0.900000X1.500000*%
%ADD18R,1.700000X1.700000*%
%ADD19O,1.700000X1.700000*%
%ADD20C,1.524000*%
%ADD21C,1.600000*%
%ADD22O,1.600000X1.600000*%
G04 APERTURE END LIST*
D10*
X45384411Y-71259819D02*
X46051077Y-72259819D01*
X46051077Y-71259819D02*
X45384411Y-72259819D01*
X46432030Y-72259819D02*
X46432030Y-71259819D01*
X46860601Y-71974104D02*
X47336791Y-71974104D01*
X46765363Y-72259819D02*
X47098696Y-71259819D01*
X47098696Y-71259819D02*
X47432029Y-72259819D01*
X47955839Y-71259819D02*
X48146315Y-71259819D01*
X48146315Y-71259819D02*
X48241553Y-71307438D01*
X48241553Y-71307438D02*
X48336791Y-71402676D01*
X48336791Y-71402676D02*
X48384410Y-71593152D01*
X48384410Y-71593152D02*
X48384410Y-71926485D01*
X48384410Y-71926485D02*
X48336791Y-72116961D01*
X48336791Y-72116961D02*
X48241553Y-72212200D01*
X48241553Y-72212200D02*
X48146315Y-72259819D01*
X48146315Y-72259819D02*
X47955839Y-72259819D01*
X47955839Y-72259819D02*
X47860601Y-72212200D01*
X47860601Y-72212200D02*
X47765363Y-72116961D01*
X47765363Y-72116961D02*
X47717744Y-71926485D01*
X47717744Y-71926485D02*
X47717744Y-71593152D01*
X47717744Y-71593152D02*
X47765363Y-71402676D01*
X47765363Y-71402676D02*
X47860601Y-71307438D01*
X47860601Y-71307438D02*
X47955839Y-71259819D01*
X50146315Y-72259819D02*
X49812982Y-71783628D01*
X49574887Y-72259819D02*
X49574887Y-71259819D01*
X49574887Y-71259819D02*
X49955839Y-71259819D01*
X49955839Y-71259819D02*
X50051077Y-71307438D01*
X50051077Y-71307438D02*
X50098696Y-71355057D01*
X50098696Y-71355057D02*
X50146315Y-71450295D01*
X50146315Y-71450295D02*
X50146315Y-71593152D01*
X50146315Y-71593152D02*
X50098696Y-71688390D01*
X50098696Y-71688390D02*
X50051077Y-71736009D01*
X50051077Y-71736009D02*
X49955839Y-71783628D01*
X49955839Y-71783628D02*
X49574887Y-71783628D01*
X50574887Y-72259819D02*
X50574887Y-71259819D01*
X50574887Y-71259819D02*
X50955839Y-71259819D01*
X50955839Y-71259819D02*
X51051077Y-71307438D01*
X51051077Y-71307438D02*
X51098696Y-71355057D01*
X51098696Y-71355057D02*
X51146315Y-71450295D01*
X51146315Y-71450295D02*
X51146315Y-71593152D01*
X51146315Y-71593152D02*
X51098696Y-71688390D01*
X51098696Y-71688390D02*
X51051077Y-71736009D01*
X51051077Y-71736009D02*
X50955839Y-71783628D01*
X50955839Y-71783628D02*
X50574887Y-71783628D01*
X51527268Y-71355057D02*
X51574887Y-71307438D01*
X51574887Y-71307438D02*
X51670125Y-71259819D01*
X51670125Y-71259819D02*
X51908220Y-71259819D01*
X51908220Y-71259819D02*
X52003458Y-71307438D01*
X52003458Y-71307438D02*
X52051077Y-71355057D01*
X52051077Y-71355057D02*
X52098696Y-71450295D01*
X52098696Y-71450295D02*
X52098696Y-71545533D01*
X52098696Y-71545533D02*
X52051077Y-71688390D01*
X52051077Y-71688390D02*
X51479649Y-72259819D01*
X51479649Y-72259819D02*
X52098696Y-72259819D01*
X52717744Y-71259819D02*
X52812982Y-71259819D01*
X52812982Y-71259819D02*
X52908220Y-71307438D01*
X52908220Y-71307438D02*
X52955839Y-71355057D01*
X52955839Y-71355057D02*
X53003458Y-71450295D01*
X53003458Y-71450295D02*
X53051077Y-71640771D01*
X53051077Y-71640771D02*
X53051077Y-71878866D01*
X53051077Y-71878866D02*
X53003458Y-72069342D01*
X53003458Y-72069342D02*
X52955839Y-72164580D01*
X52955839Y-72164580D02*
X52908220Y-72212200D01*
X52908220Y-72212200D02*
X52812982Y-72259819D01*
X52812982Y-72259819D02*
X52717744Y-72259819D01*
X52717744Y-72259819D02*
X52622506Y-72212200D01*
X52622506Y-72212200D02*
X52574887Y-72164580D01*
X52574887Y-72164580D02*
X52527268Y-72069342D01*
X52527268Y-72069342D02*
X52479649Y-71878866D01*
X52479649Y-71878866D02*
X52479649Y-71640771D01*
X52479649Y-71640771D02*
X52527268Y-71450295D01*
X52527268Y-71450295D02*
X52574887Y-71355057D01*
X52574887Y-71355057D02*
X52622506Y-71307438D01*
X52622506Y-71307438D02*
X52717744Y-71259819D01*
X53908220Y-71593152D02*
X53908220Y-72259819D01*
X53670125Y-71212200D02*
X53432030Y-71926485D01*
X53432030Y-71926485D02*
X54051077Y-71926485D01*
X54622506Y-71259819D02*
X54717744Y-71259819D01*
X54717744Y-71259819D02*
X54812982Y-71307438D01*
X54812982Y-71307438D02*
X54860601Y-71355057D01*
X54860601Y-71355057D02*
X54908220Y-71450295D01*
X54908220Y-71450295D02*
X54955839Y-71640771D01*
X54955839Y-71640771D02*
X54955839Y-71878866D01*
X54955839Y-71878866D02*
X54908220Y-72069342D01*
X54908220Y-72069342D02*
X54860601Y-72164580D01*
X54860601Y-72164580D02*
X54812982Y-72212200D01*
X54812982Y-72212200D02*
X54717744Y-72259819D01*
X54717744Y-72259819D02*
X54622506Y-72259819D01*
X54622506Y-72259819D02*
X54527268Y-72212200D01*
X54527268Y-72212200D02*
X54479649Y-72164580D01*
X54479649Y-72164580D02*
X54432030Y-72069342D01*
X54432030Y-72069342D02*
X54384411Y-71878866D01*
X54384411Y-71878866D02*
X54384411Y-71640771D01*
X54384411Y-71640771D02*
X54432030Y-71450295D01*
X54432030Y-71450295D02*
X54479649Y-71355057D01*
X54479649Y-71355057D02*
X54527268Y-71307438D01*
X54527268Y-71307438D02*
X54622506Y-71259819D01*
X43970601Y-66862438D02*
X43875363Y-66814819D01*
X43875363Y-66814819D02*
X43732506Y-66814819D01*
X43732506Y-66814819D02*
X43589649Y-66862438D01*
X43589649Y-66862438D02*
X43494411Y-66957676D01*
X43494411Y-66957676D02*
X43446792Y-67052914D01*
X43446792Y-67052914D02*
X43399173Y-67243390D01*
X43399173Y-67243390D02*
X43399173Y-67386247D01*
X43399173Y-67386247D02*
X43446792Y-67576723D01*
X43446792Y-67576723D02*
X43494411Y-67671961D01*
X43494411Y-67671961D02*
X43589649Y-67767200D01*
X43589649Y-67767200D02*
X43732506Y-67814819D01*
X43732506Y-67814819D02*
X43827744Y-67814819D01*
X43827744Y-67814819D02*
X43970601Y-67767200D01*
X43970601Y-67767200D02*
X44018220Y-67719580D01*
X44018220Y-67719580D02*
X44018220Y-67386247D01*
X44018220Y-67386247D02*
X43827744Y-67386247D01*
X44446792Y-67814819D02*
X44446792Y-66814819D01*
X44446792Y-66814819D02*
X45018220Y-67814819D01*
X45018220Y-67814819D02*
X45018220Y-66814819D01*
X45494411Y-67814819D02*
X45494411Y-66814819D01*
X45494411Y-66814819D02*
X45732506Y-66814819D01*
X45732506Y-66814819D02*
X45875363Y-66862438D01*
X45875363Y-66862438D02*
X45970601Y-66957676D01*
X45970601Y-66957676D02*
X46018220Y-67052914D01*
X46018220Y-67052914D02*
X46065839Y-67243390D01*
X46065839Y-67243390D02*
X46065839Y-67386247D01*
X46065839Y-67386247D02*
X46018220Y-67576723D01*
X46018220Y-67576723D02*
X45970601Y-67671961D01*
X45970601Y-67671961D02*
X45875363Y-67767200D01*
X45875363Y-67767200D02*
X45732506Y-67814819D01*
X45732506Y-67814819D02*
X45494411Y-67814819D01*
X43891077Y-69354819D02*
X43414887Y-69354819D01*
X43414887Y-69354819D02*
X43367268Y-69831009D01*
X43367268Y-69831009D02*
X43414887Y-69783390D01*
X43414887Y-69783390D02*
X43510125Y-69735771D01*
X43510125Y-69735771D02*
X43748220Y-69735771D01*
X43748220Y-69735771D02*
X43843458Y-69783390D01*
X43843458Y-69783390D02*
X43891077Y-69831009D01*
X43891077Y-69831009D02*
X43938696Y-69926247D01*
X43938696Y-69926247D02*
X43938696Y-70164342D01*
X43938696Y-70164342D02*
X43891077Y-70259580D01*
X43891077Y-70259580D02*
X43843458Y-70307200D01*
X43843458Y-70307200D02*
X43748220Y-70354819D01*
X43748220Y-70354819D02*
X43510125Y-70354819D01*
X43510125Y-70354819D02*
X43414887Y-70307200D01*
X43414887Y-70307200D02*
X43367268Y-70259580D01*
X44224411Y-69354819D02*
X44557744Y-70354819D01*
X44557744Y-70354819D02*
X44891077Y-69354819D01*
X27492438Y-62709398D02*
X27444819Y-62804636D01*
X27444819Y-62804636D02*
X27444819Y-62947493D01*
X27444819Y-62947493D02*
X27492438Y-63090350D01*
X27492438Y-63090350D02*
X27587676Y-63185588D01*
X27587676Y-63185588D02*
X27682914Y-63233207D01*
X27682914Y-63233207D02*
X27873390Y-63280826D01*
X27873390Y-63280826D02*
X28016247Y-63280826D01*
X28016247Y-63280826D02*
X28206723Y-63233207D01*
X28206723Y-63233207D02*
X28301961Y-63185588D01*
X28301961Y-63185588D02*
X28397200Y-63090350D01*
X28397200Y-63090350D02*
X28444819Y-62947493D01*
X28444819Y-62947493D02*
X28444819Y-62852255D01*
X28444819Y-62852255D02*
X28397200Y-62709398D01*
X28397200Y-62709398D02*
X28349580Y-62661779D01*
X28349580Y-62661779D02*
X28016247Y-62661779D01*
X28016247Y-62661779D02*
X28016247Y-62852255D01*
X28444819Y-62233207D02*
X27444819Y-62233207D01*
X27444819Y-62233207D02*
X28444819Y-61661779D01*
X28444819Y-61661779D02*
X27444819Y-61661779D01*
X28444819Y-61185588D02*
X27444819Y-61185588D01*
X27444819Y-61185588D02*
X27444819Y-60947493D01*
X27444819Y-60947493D02*
X27492438Y-60804636D01*
X27492438Y-60804636D02*
X27587676Y-60709398D01*
X27587676Y-60709398D02*
X27682914Y-60661779D01*
X27682914Y-60661779D02*
X27873390Y-60614160D01*
X27873390Y-60614160D02*
X28016247Y-60614160D01*
X28016247Y-60614160D02*
X28206723Y-60661779D01*
X28206723Y-60661779D02*
X28301961Y-60709398D01*
X28301961Y-60709398D02*
X28397200Y-60804636D01*
X28397200Y-60804636D02*
X28444819Y-60947493D01*
X28444819Y-60947493D02*
X28444819Y-61185588D01*
X35064819Y-62788922D02*
X35064819Y-63265112D01*
X35064819Y-63265112D02*
X35541009Y-63312731D01*
X35541009Y-63312731D02*
X35493390Y-63265112D01*
X35493390Y-63265112D02*
X35445771Y-63169874D01*
X35445771Y-63169874D02*
X35445771Y-62931779D01*
X35445771Y-62931779D02*
X35493390Y-62836541D01*
X35493390Y-62836541D02*
X35541009Y-62788922D01*
X35541009Y-62788922D02*
X35636247Y-62741303D01*
X35636247Y-62741303D02*
X35874342Y-62741303D01*
X35874342Y-62741303D02*
X35969580Y-62788922D01*
X35969580Y-62788922D02*
X36017200Y-62836541D01*
X36017200Y-62836541D02*
X36064819Y-62931779D01*
X36064819Y-62931779D02*
X36064819Y-63169874D01*
X36064819Y-63169874D02*
X36017200Y-63265112D01*
X36017200Y-63265112D02*
X35969580Y-63312731D01*
X35064819Y-62455588D02*
X36064819Y-62122255D01*
X36064819Y-62122255D02*
X35064819Y-61788922D01*
X30318152Y-63470826D02*
X30318152Y-63089874D01*
X30984819Y-63327969D02*
X30127676Y-63327969D01*
X30127676Y-63327969D02*
X30032438Y-63280350D01*
X30032438Y-63280350D02*
X29984819Y-63185112D01*
X29984819Y-63185112D02*
X29984819Y-63089874D01*
X30984819Y-62756540D02*
X30318152Y-62756540D01*
X30508628Y-62756540D02*
X30413390Y-62708921D01*
X30413390Y-62708921D02*
X30365771Y-62661302D01*
X30365771Y-62661302D02*
X30318152Y-62566064D01*
X30318152Y-62566064D02*
X30318152Y-62470826D01*
X30984819Y-61994635D02*
X30937200Y-62089873D01*
X30937200Y-62089873D02*
X30889580Y-62137492D01*
X30889580Y-62137492D02*
X30794342Y-62185111D01*
X30794342Y-62185111D02*
X30508628Y-62185111D01*
X30508628Y-62185111D02*
X30413390Y-62137492D01*
X30413390Y-62137492D02*
X30365771Y-62089873D01*
X30365771Y-62089873D02*
X30318152Y-61994635D01*
X30318152Y-61994635D02*
X30318152Y-61851778D01*
X30318152Y-61851778D02*
X30365771Y-61756540D01*
X30365771Y-61756540D02*
X30413390Y-61708921D01*
X30413390Y-61708921D02*
X30508628Y-61661302D01*
X30508628Y-61661302D02*
X30794342Y-61661302D01*
X30794342Y-61661302D02*
X30889580Y-61708921D01*
X30889580Y-61708921D02*
X30937200Y-61756540D01*
X30937200Y-61756540D02*
X30984819Y-61851778D01*
X30984819Y-61851778D02*
X30984819Y-61994635D01*
X30984819Y-61232730D02*
X30318152Y-61232730D01*
X30413390Y-61232730D02*
X30365771Y-61185111D01*
X30365771Y-61185111D02*
X30318152Y-61089873D01*
X30318152Y-61089873D02*
X30318152Y-60947016D01*
X30318152Y-60947016D02*
X30365771Y-60851778D01*
X30365771Y-60851778D02*
X30461009Y-60804159D01*
X30461009Y-60804159D02*
X30984819Y-60804159D01*
X30461009Y-60804159D02*
X30365771Y-60756540D01*
X30365771Y-60756540D02*
X30318152Y-60661302D01*
X30318152Y-60661302D02*
X30318152Y-60518445D01*
X30318152Y-60518445D02*
X30365771Y-60423206D01*
X30365771Y-60423206D02*
X30461009Y-60375587D01*
X30461009Y-60375587D02*
X30984819Y-60375587D01*
X30984819Y-59899397D02*
X29984819Y-59899397D01*
X29984819Y-59899397D02*
X30699104Y-59566064D01*
X30699104Y-59566064D02*
X29984819Y-59232731D01*
X29984819Y-59232731D02*
X30984819Y-59232731D01*
X30699104Y-58804159D02*
X30699104Y-58327969D01*
X30984819Y-58899397D02*
X29984819Y-58566064D01*
X29984819Y-58566064D02*
X30984819Y-58232731D01*
X30984819Y-57899397D02*
X29984819Y-57899397D01*
X30984819Y-57423207D02*
X29984819Y-57423207D01*
X29984819Y-57423207D02*
X30984819Y-56851779D01*
X30984819Y-56851779D02*
X29984819Y-56851779D01*
X32858152Y-63423445D02*
X32858152Y-63042493D01*
X32524819Y-63280588D02*
X33381961Y-63280588D01*
X33381961Y-63280588D02*
X33477200Y-63232969D01*
X33477200Y-63232969D02*
X33524819Y-63137731D01*
X33524819Y-63137731D02*
X33524819Y-63042493D01*
X33524819Y-62566302D02*
X33477200Y-62661540D01*
X33477200Y-62661540D02*
X33429580Y-62709159D01*
X33429580Y-62709159D02*
X33334342Y-62756778D01*
X33334342Y-62756778D02*
X33048628Y-62756778D01*
X33048628Y-62756778D02*
X32953390Y-62709159D01*
X32953390Y-62709159D02*
X32905771Y-62661540D01*
X32905771Y-62661540D02*
X32858152Y-62566302D01*
X32858152Y-62566302D02*
X32858152Y-62423445D01*
X32858152Y-62423445D02*
X32905771Y-62328207D01*
X32905771Y-62328207D02*
X32953390Y-62280588D01*
X32953390Y-62280588D02*
X33048628Y-62232969D01*
X33048628Y-62232969D02*
X33334342Y-62232969D01*
X33334342Y-62232969D02*
X33429580Y-62280588D01*
X33429580Y-62280588D02*
X33477200Y-62328207D01*
X33477200Y-62328207D02*
X33524819Y-62423445D01*
X33524819Y-62423445D02*
X33524819Y-62566302D01*
X33524819Y-61804397D02*
X32524819Y-61804397D01*
X32524819Y-61804397D02*
X33239104Y-61471064D01*
X33239104Y-61471064D02*
X32524819Y-61137731D01*
X32524819Y-61137731D02*
X33524819Y-61137731D01*
X33239104Y-60709159D02*
X33239104Y-60232969D01*
X33524819Y-60804397D02*
X32524819Y-60471064D01*
X32524819Y-60471064D02*
X33524819Y-60137731D01*
X33524819Y-59804397D02*
X32524819Y-59804397D01*
X33524819Y-59328207D02*
X32524819Y-59328207D01*
X32524819Y-59328207D02*
X33524819Y-58756779D01*
X33524819Y-58756779D02*
X32524819Y-58756779D01*
X112582438Y-57629398D02*
X112534819Y-57724636D01*
X112534819Y-57724636D02*
X112534819Y-57867493D01*
X112534819Y-57867493D02*
X112582438Y-58010350D01*
X112582438Y-58010350D02*
X112677676Y-58105588D01*
X112677676Y-58105588D02*
X112772914Y-58153207D01*
X112772914Y-58153207D02*
X112963390Y-58200826D01*
X112963390Y-58200826D02*
X113106247Y-58200826D01*
X113106247Y-58200826D02*
X113296723Y-58153207D01*
X113296723Y-58153207D02*
X113391961Y-58105588D01*
X113391961Y-58105588D02*
X113487200Y-58010350D01*
X113487200Y-58010350D02*
X113534819Y-57867493D01*
X113534819Y-57867493D02*
X113534819Y-57772255D01*
X113534819Y-57772255D02*
X113487200Y-57629398D01*
X113487200Y-57629398D02*
X113439580Y-57581779D01*
X113439580Y-57581779D02*
X113106247Y-57581779D01*
X113106247Y-57581779D02*
X113106247Y-57772255D01*
X113534819Y-57153207D02*
X112534819Y-57153207D01*
X112534819Y-57153207D02*
X113534819Y-56581779D01*
X113534819Y-56581779D02*
X112534819Y-56581779D01*
X113534819Y-56105588D02*
X112534819Y-56105588D01*
X112534819Y-56105588D02*
X112534819Y-55867493D01*
X112534819Y-55867493D02*
X112582438Y-55724636D01*
X112582438Y-55724636D02*
X112677676Y-55629398D01*
X112677676Y-55629398D02*
X112772914Y-55581779D01*
X112772914Y-55581779D02*
X112963390Y-55534160D01*
X112963390Y-55534160D02*
X113106247Y-55534160D01*
X113106247Y-55534160D02*
X113296723Y-55581779D01*
X113296723Y-55581779D02*
X113391961Y-55629398D01*
X113391961Y-55629398D02*
X113487200Y-55724636D01*
X113487200Y-55724636D02*
X113534819Y-55867493D01*
X113534819Y-55867493D02*
X113534819Y-56105588D01*
X115074819Y-57962731D02*
X115074819Y-57343684D01*
X115074819Y-57343684D02*
X115455771Y-57677017D01*
X115455771Y-57677017D02*
X115455771Y-57534160D01*
X115455771Y-57534160D02*
X115503390Y-57438922D01*
X115503390Y-57438922D02*
X115551009Y-57391303D01*
X115551009Y-57391303D02*
X115646247Y-57343684D01*
X115646247Y-57343684D02*
X115884342Y-57343684D01*
X115884342Y-57343684D02*
X115979580Y-57391303D01*
X115979580Y-57391303D02*
X116027200Y-57438922D01*
X116027200Y-57438922D02*
X116074819Y-57534160D01*
X116074819Y-57534160D02*
X116074819Y-57819874D01*
X116074819Y-57819874D02*
X116027200Y-57915112D01*
X116027200Y-57915112D02*
X115979580Y-57962731D01*
X115074819Y-57057969D02*
X116074819Y-56724636D01*
X116074819Y-56724636D02*
X115074819Y-56391303D01*
X115074819Y-56153207D02*
X115074819Y-55534160D01*
X115074819Y-55534160D02*
X115455771Y-55867493D01*
X115455771Y-55867493D02*
X115455771Y-55724636D01*
X115455771Y-55724636D02*
X115503390Y-55629398D01*
X115503390Y-55629398D02*
X115551009Y-55581779D01*
X115551009Y-55581779D02*
X115646247Y-55534160D01*
X115646247Y-55534160D02*
X115884342Y-55534160D01*
X115884342Y-55534160D02*
X115979580Y-55581779D01*
X115979580Y-55581779D02*
X116027200Y-55629398D01*
X116027200Y-55629398D02*
X116074819Y-55724636D01*
X116074819Y-55724636D02*
X116074819Y-56010350D01*
X116074819Y-56010350D02*
X116027200Y-56105588D01*
X116027200Y-56105588D02*
X115979580Y-56153207D01*
X118567200Y-57915112D02*
X118614819Y-57772255D01*
X118614819Y-57772255D02*
X118614819Y-57534160D01*
X118614819Y-57534160D02*
X118567200Y-57438922D01*
X118567200Y-57438922D02*
X118519580Y-57391303D01*
X118519580Y-57391303D02*
X118424342Y-57343684D01*
X118424342Y-57343684D02*
X118329104Y-57343684D01*
X118329104Y-57343684D02*
X118233866Y-57391303D01*
X118233866Y-57391303D02*
X118186247Y-57438922D01*
X118186247Y-57438922D02*
X118138628Y-57534160D01*
X118138628Y-57534160D02*
X118091009Y-57724636D01*
X118091009Y-57724636D02*
X118043390Y-57819874D01*
X118043390Y-57819874D02*
X117995771Y-57867493D01*
X117995771Y-57867493D02*
X117900533Y-57915112D01*
X117900533Y-57915112D02*
X117805295Y-57915112D01*
X117805295Y-57915112D02*
X117710057Y-57867493D01*
X117710057Y-57867493D02*
X117662438Y-57819874D01*
X117662438Y-57819874D02*
X117614819Y-57724636D01*
X117614819Y-57724636D02*
X117614819Y-57486541D01*
X117614819Y-57486541D02*
X117662438Y-57343684D01*
X118519580Y-56343684D02*
X118567200Y-56391303D01*
X118567200Y-56391303D02*
X118614819Y-56534160D01*
X118614819Y-56534160D02*
X118614819Y-56629398D01*
X118614819Y-56629398D02*
X118567200Y-56772255D01*
X118567200Y-56772255D02*
X118471961Y-56867493D01*
X118471961Y-56867493D02*
X118376723Y-56915112D01*
X118376723Y-56915112D02*
X118186247Y-56962731D01*
X118186247Y-56962731D02*
X118043390Y-56962731D01*
X118043390Y-56962731D02*
X117852914Y-56915112D01*
X117852914Y-56915112D02*
X117757676Y-56867493D01*
X117757676Y-56867493D02*
X117662438Y-56772255D01*
X117662438Y-56772255D02*
X117614819Y-56629398D01*
X117614819Y-56629398D02*
X117614819Y-56534160D01*
X117614819Y-56534160D02*
X117662438Y-56391303D01*
X117662438Y-56391303D02*
X117710057Y-56343684D01*
X118614819Y-55438922D02*
X118614819Y-55915112D01*
X118614819Y-55915112D02*
X117614819Y-55915112D01*
X121107200Y-57962731D02*
X121154819Y-57819874D01*
X121154819Y-57819874D02*
X121154819Y-57581779D01*
X121154819Y-57581779D02*
X121107200Y-57486541D01*
X121107200Y-57486541D02*
X121059580Y-57438922D01*
X121059580Y-57438922D02*
X120964342Y-57391303D01*
X120964342Y-57391303D02*
X120869104Y-57391303D01*
X120869104Y-57391303D02*
X120773866Y-57438922D01*
X120773866Y-57438922D02*
X120726247Y-57486541D01*
X120726247Y-57486541D02*
X120678628Y-57581779D01*
X120678628Y-57581779D02*
X120631009Y-57772255D01*
X120631009Y-57772255D02*
X120583390Y-57867493D01*
X120583390Y-57867493D02*
X120535771Y-57915112D01*
X120535771Y-57915112D02*
X120440533Y-57962731D01*
X120440533Y-57962731D02*
X120345295Y-57962731D01*
X120345295Y-57962731D02*
X120250057Y-57915112D01*
X120250057Y-57915112D02*
X120202438Y-57867493D01*
X120202438Y-57867493D02*
X120154819Y-57772255D01*
X120154819Y-57772255D02*
X120154819Y-57534160D01*
X120154819Y-57534160D02*
X120202438Y-57391303D01*
X121154819Y-56962731D02*
X120154819Y-56962731D01*
X120154819Y-56962731D02*
X120154819Y-56724636D01*
X120154819Y-56724636D02*
X120202438Y-56581779D01*
X120202438Y-56581779D02*
X120297676Y-56486541D01*
X120297676Y-56486541D02*
X120392914Y-56438922D01*
X120392914Y-56438922D02*
X120583390Y-56391303D01*
X120583390Y-56391303D02*
X120726247Y-56391303D01*
X120726247Y-56391303D02*
X120916723Y-56438922D01*
X120916723Y-56438922D02*
X121011961Y-56486541D01*
X121011961Y-56486541D02*
X121107200Y-56581779D01*
X121107200Y-56581779D02*
X121154819Y-56724636D01*
X121154819Y-56724636D02*
X121154819Y-56962731D01*
X120869104Y-56010350D02*
X120869104Y-55534160D01*
X121154819Y-56105588D02*
X120154819Y-55772255D01*
X120154819Y-55772255D02*
X121154819Y-55438922D01*
X110779160Y-65862200D02*
X110922017Y-65909819D01*
X110922017Y-65909819D02*
X111160112Y-65909819D01*
X111160112Y-65909819D02*
X111255350Y-65862200D01*
X111255350Y-65862200D02*
X111302969Y-65814580D01*
X111302969Y-65814580D02*
X111350588Y-65719342D01*
X111350588Y-65719342D02*
X111350588Y-65624104D01*
X111350588Y-65624104D02*
X111302969Y-65528866D01*
X111302969Y-65528866D02*
X111255350Y-65481247D01*
X111255350Y-65481247D02*
X111160112Y-65433628D01*
X111160112Y-65433628D02*
X110969636Y-65386009D01*
X110969636Y-65386009D02*
X110874398Y-65338390D01*
X110874398Y-65338390D02*
X110826779Y-65290771D01*
X110826779Y-65290771D02*
X110779160Y-65195533D01*
X110779160Y-65195533D02*
X110779160Y-65100295D01*
X110779160Y-65100295D02*
X110826779Y-65005057D01*
X110826779Y-65005057D02*
X110874398Y-64957438D01*
X110874398Y-64957438D02*
X110969636Y-64909819D01*
X110969636Y-64909819D02*
X111207731Y-64909819D01*
X111207731Y-64909819D02*
X111350588Y-64957438D01*
X111731541Y-65862200D02*
X111874398Y-65909819D01*
X111874398Y-65909819D02*
X112112493Y-65909819D01*
X112112493Y-65909819D02*
X112207731Y-65862200D01*
X112207731Y-65862200D02*
X112255350Y-65814580D01*
X112255350Y-65814580D02*
X112302969Y-65719342D01*
X112302969Y-65719342D02*
X112302969Y-65624104D01*
X112302969Y-65624104D02*
X112255350Y-65528866D01*
X112255350Y-65528866D02*
X112207731Y-65481247D01*
X112207731Y-65481247D02*
X112112493Y-65433628D01*
X112112493Y-65433628D02*
X111922017Y-65386009D01*
X111922017Y-65386009D02*
X111826779Y-65338390D01*
X111826779Y-65338390D02*
X111779160Y-65290771D01*
X111779160Y-65290771D02*
X111731541Y-65195533D01*
X111731541Y-65195533D02*
X111731541Y-65100295D01*
X111731541Y-65100295D02*
X111779160Y-65005057D01*
X111779160Y-65005057D02*
X111826779Y-64957438D01*
X111826779Y-64957438D02*
X111922017Y-64909819D01*
X111922017Y-64909819D02*
X112160112Y-64909819D01*
X112160112Y-64909819D02*
X112302969Y-64957438D01*
X112731541Y-65909819D02*
X112731541Y-64909819D01*
X112731541Y-64909819D02*
X112969636Y-64909819D01*
X112969636Y-64909819D02*
X113112493Y-64957438D01*
X113112493Y-64957438D02*
X113207731Y-65052676D01*
X113207731Y-65052676D02*
X113255350Y-65147914D01*
X113255350Y-65147914D02*
X113302969Y-65338390D01*
X113302969Y-65338390D02*
X113302969Y-65481247D01*
X113302969Y-65481247D02*
X113255350Y-65671723D01*
X113255350Y-65671723D02*
X113207731Y-65766961D01*
X113207731Y-65766961D02*
X113112493Y-65862200D01*
X113112493Y-65862200D02*
X112969636Y-65909819D01*
X112969636Y-65909819D02*
X112731541Y-65909819D01*
X114255350Y-65909819D02*
X113683922Y-65909819D01*
X113969636Y-65909819D02*
X113969636Y-64909819D01*
X113969636Y-64909819D02*
X113874398Y-65052676D01*
X113874398Y-65052676D02*
X113779160Y-65147914D01*
X113779160Y-65147914D02*
X113683922Y-65195533D01*
X114588684Y-64909819D02*
X115207731Y-64909819D01*
X115207731Y-64909819D02*
X114874398Y-65290771D01*
X114874398Y-65290771D02*
X115017255Y-65290771D01*
X115017255Y-65290771D02*
X115112493Y-65338390D01*
X115112493Y-65338390D02*
X115160112Y-65386009D01*
X115160112Y-65386009D02*
X115207731Y-65481247D01*
X115207731Y-65481247D02*
X115207731Y-65719342D01*
X115207731Y-65719342D02*
X115160112Y-65814580D01*
X115160112Y-65814580D02*
X115112493Y-65862200D01*
X115112493Y-65862200D02*
X115017255Y-65909819D01*
X115017255Y-65909819D02*
X114731541Y-65909819D01*
X114731541Y-65909819D02*
X114636303Y-65862200D01*
X114636303Y-65862200D02*
X114588684Y-65814580D01*
X115826779Y-64909819D02*
X115922017Y-64909819D01*
X115922017Y-64909819D02*
X116017255Y-64957438D01*
X116017255Y-64957438D02*
X116064874Y-65005057D01*
X116064874Y-65005057D02*
X116112493Y-65100295D01*
X116112493Y-65100295D02*
X116160112Y-65290771D01*
X116160112Y-65290771D02*
X116160112Y-65528866D01*
X116160112Y-65528866D02*
X116112493Y-65719342D01*
X116112493Y-65719342D02*
X116064874Y-65814580D01*
X116064874Y-65814580D02*
X116017255Y-65862200D01*
X116017255Y-65862200D02*
X115922017Y-65909819D01*
X115922017Y-65909819D02*
X115826779Y-65909819D01*
X115826779Y-65909819D02*
X115731541Y-65862200D01*
X115731541Y-65862200D02*
X115683922Y-65814580D01*
X115683922Y-65814580D02*
X115636303Y-65719342D01*
X115636303Y-65719342D02*
X115588684Y-65528866D01*
X115588684Y-65528866D02*
X115588684Y-65290771D01*
X115588684Y-65290771D02*
X115636303Y-65100295D01*
X115636303Y-65100295D02*
X115683922Y-65005057D01*
X115683922Y-65005057D02*
X115731541Y-64957438D01*
X115731541Y-64957438D02*
X115826779Y-64909819D01*
X117017255Y-64909819D02*
X116826779Y-64909819D01*
X116826779Y-64909819D02*
X116731541Y-64957438D01*
X116731541Y-64957438D02*
X116683922Y-65005057D01*
X116683922Y-65005057D02*
X116588684Y-65147914D01*
X116588684Y-65147914D02*
X116541065Y-65338390D01*
X116541065Y-65338390D02*
X116541065Y-65719342D01*
X116541065Y-65719342D02*
X116588684Y-65814580D01*
X116588684Y-65814580D02*
X116636303Y-65862200D01*
X116636303Y-65862200D02*
X116731541Y-65909819D01*
X116731541Y-65909819D02*
X116922017Y-65909819D01*
X116922017Y-65909819D02*
X117017255Y-65862200D01*
X117017255Y-65862200D02*
X117064874Y-65814580D01*
X117064874Y-65814580D02*
X117112493Y-65719342D01*
X117112493Y-65719342D02*
X117112493Y-65481247D01*
X117112493Y-65481247D02*
X117064874Y-65386009D01*
X117064874Y-65386009D02*
X117017255Y-65338390D01*
X117017255Y-65338390D02*
X116922017Y-65290771D01*
X116922017Y-65290771D02*
X116731541Y-65290771D01*
X116731541Y-65290771D02*
X116636303Y-65338390D01*
X116636303Y-65338390D02*
X116588684Y-65386009D01*
X116588684Y-65386009D02*
X116541065Y-65481247D01*
X118302970Y-65909819D02*
X118302970Y-64909819D01*
X118302970Y-64909819D02*
X118541065Y-64909819D01*
X118541065Y-64909819D02*
X118683922Y-64957438D01*
X118683922Y-64957438D02*
X118779160Y-65052676D01*
X118779160Y-65052676D02*
X118826779Y-65147914D01*
X118826779Y-65147914D02*
X118874398Y-65338390D01*
X118874398Y-65338390D02*
X118874398Y-65481247D01*
X118874398Y-65481247D02*
X118826779Y-65671723D01*
X118826779Y-65671723D02*
X118779160Y-65766961D01*
X118779160Y-65766961D02*
X118683922Y-65862200D01*
X118683922Y-65862200D02*
X118541065Y-65909819D01*
X118541065Y-65909819D02*
X118302970Y-65909819D01*
X119302970Y-65909819D02*
X119302970Y-65243152D01*
X119302970Y-64909819D02*
X119255351Y-64957438D01*
X119255351Y-64957438D02*
X119302970Y-65005057D01*
X119302970Y-65005057D02*
X119350589Y-64957438D01*
X119350589Y-64957438D02*
X119302970Y-64909819D01*
X119302970Y-64909819D02*
X119302970Y-65005057D01*
X119731541Y-65862200D02*
X119826779Y-65909819D01*
X119826779Y-65909819D02*
X120017255Y-65909819D01*
X120017255Y-65909819D02*
X120112493Y-65862200D01*
X120112493Y-65862200D02*
X120160112Y-65766961D01*
X120160112Y-65766961D02*
X120160112Y-65719342D01*
X120160112Y-65719342D02*
X120112493Y-65624104D01*
X120112493Y-65624104D02*
X120017255Y-65576485D01*
X120017255Y-65576485D02*
X119874398Y-65576485D01*
X119874398Y-65576485D02*
X119779160Y-65528866D01*
X119779160Y-65528866D02*
X119731541Y-65433628D01*
X119731541Y-65433628D02*
X119731541Y-65386009D01*
X119731541Y-65386009D02*
X119779160Y-65290771D01*
X119779160Y-65290771D02*
X119874398Y-65243152D01*
X119874398Y-65243152D02*
X120017255Y-65243152D01*
X120017255Y-65243152D02*
X120112493Y-65290771D01*
X120588684Y-65243152D02*
X120588684Y-66243152D01*
X120588684Y-65290771D02*
X120683922Y-65243152D01*
X120683922Y-65243152D02*
X120874398Y-65243152D01*
X120874398Y-65243152D02*
X120969636Y-65290771D01*
X120969636Y-65290771D02*
X121017255Y-65338390D01*
X121017255Y-65338390D02*
X121064874Y-65433628D01*
X121064874Y-65433628D02*
X121064874Y-65719342D01*
X121064874Y-65719342D02*
X121017255Y-65814580D01*
X121017255Y-65814580D02*
X120969636Y-65862200D01*
X120969636Y-65862200D02*
X120874398Y-65909819D01*
X120874398Y-65909819D02*
X120683922Y-65909819D01*
X120683922Y-65909819D02*
X120588684Y-65862200D01*
X121636303Y-65909819D02*
X121541065Y-65862200D01*
X121541065Y-65862200D02*
X121493446Y-65766961D01*
X121493446Y-65766961D02*
X121493446Y-64909819D01*
X122445827Y-65909819D02*
X122445827Y-65386009D01*
X122445827Y-65386009D02*
X122398208Y-65290771D01*
X122398208Y-65290771D02*
X122302970Y-65243152D01*
X122302970Y-65243152D02*
X122112494Y-65243152D01*
X122112494Y-65243152D02*
X122017256Y-65290771D01*
X122445827Y-65862200D02*
X122350589Y-65909819D01*
X122350589Y-65909819D02*
X122112494Y-65909819D01*
X122112494Y-65909819D02*
X122017256Y-65862200D01*
X122017256Y-65862200D02*
X121969637Y-65766961D01*
X121969637Y-65766961D02*
X121969637Y-65671723D01*
X121969637Y-65671723D02*
X122017256Y-65576485D01*
X122017256Y-65576485D02*
X122112494Y-65528866D01*
X122112494Y-65528866D02*
X122350589Y-65528866D01*
X122350589Y-65528866D02*
X122445827Y-65481247D01*
X122826780Y-65243152D02*
X123064875Y-65909819D01*
X123302970Y-65243152D02*
X123064875Y-65909819D01*
X123064875Y-65909819D02*
X122969637Y-66147914D01*
X122969637Y-66147914D02*
X122922018Y-66195533D01*
X122922018Y-66195533D02*
X122826780Y-66243152D01*
X27197255Y-74434819D02*
X27292493Y-74434819D01*
X27292493Y-74434819D02*
X27387731Y-74482438D01*
X27387731Y-74482438D02*
X27435350Y-74530057D01*
X27435350Y-74530057D02*
X27482969Y-74625295D01*
X27482969Y-74625295D02*
X27530588Y-74815771D01*
X27530588Y-74815771D02*
X27530588Y-75053866D01*
X27530588Y-75053866D02*
X27482969Y-75244342D01*
X27482969Y-75244342D02*
X27435350Y-75339580D01*
X27435350Y-75339580D02*
X27387731Y-75387200D01*
X27387731Y-75387200D02*
X27292493Y-75434819D01*
X27292493Y-75434819D02*
X27197255Y-75434819D01*
X27197255Y-75434819D02*
X27102017Y-75387200D01*
X27102017Y-75387200D02*
X27054398Y-75339580D01*
X27054398Y-75339580D02*
X27006779Y-75244342D01*
X27006779Y-75244342D02*
X26959160Y-75053866D01*
X26959160Y-75053866D02*
X26959160Y-74815771D01*
X26959160Y-74815771D02*
X27006779Y-74625295D01*
X27006779Y-74625295D02*
X27054398Y-74530057D01*
X27054398Y-74530057D02*
X27102017Y-74482438D01*
X27102017Y-74482438D02*
X27197255Y-74434819D01*
X27911541Y-74530057D02*
X27959160Y-74482438D01*
X27959160Y-74482438D02*
X28054398Y-74434819D01*
X28054398Y-74434819D02*
X28292493Y-74434819D01*
X28292493Y-74434819D02*
X28387731Y-74482438D01*
X28387731Y-74482438D02*
X28435350Y-74530057D01*
X28435350Y-74530057D02*
X28482969Y-74625295D01*
X28482969Y-74625295D02*
X28482969Y-74720533D01*
X28482969Y-74720533D02*
X28435350Y-74863390D01*
X28435350Y-74863390D02*
X27863922Y-75434819D01*
X27863922Y-75434819D02*
X28482969Y-75434819D01*
X28911541Y-75053866D02*
X29673446Y-75053866D01*
X30006779Y-74434819D02*
X30578207Y-74434819D01*
X30292493Y-75434819D02*
X30292493Y-74434819D01*
X31054398Y-75434819D02*
X30959160Y-75387200D01*
X30959160Y-75387200D02*
X30911541Y-75339580D01*
X30911541Y-75339580D02*
X30863922Y-75244342D01*
X30863922Y-75244342D02*
X30863922Y-74958628D01*
X30863922Y-74958628D02*
X30911541Y-74863390D01*
X30911541Y-74863390D02*
X30959160Y-74815771D01*
X30959160Y-74815771D02*
X31054398Y-74768152D01*
X31054398Y-74768152D02*
X31197255Y-74768152D01*
X31197255Y-74768152D02*
X31292493Y-74815771D01*
X31292493Y-74815771D02*
X31340112Y-74863390D01*
X31340112Y-74863390D02*
X31387731Y-74958628D01*
X31387731Y-74958628D02*
X31387731Y-75244342D01*
X31387731Y-75244342D02*
X31340112Y-75339580D01*
X31340112Y-75339580D02*
X31292493Y-75387200D01*
X31292493Y-75387200D02*
X31197255Y-75434819D01*
X31197255Y-75434819D02*
X31054398Y-75434819D01*
X31816303Y-74768152D02*
X31816303Y-75768152D01*
X31816303Y-74815771D02*
X31911541Y-74768152D01*
X31911541Y-74768152D02*
X32102017Y-74768152D01*
X32102017Y-74768152D02*
X32197255Y-74815771D01*
X32197255Y-74815771D02*
X32244874Y-74863390D01*
X32244874Y-74863390D02*
X32292493Y-74958628D01*
X32292493Y-74958628D02*
X32292493Y-75244342D01*
X32292493Y-75244342D02*
X32244874Y-75339580D01*
X32244874Y-75339580D02*
X32197255Y-75387200D01*
X32197255Y-75387200D02*
X32102017Y-75434819D01*
X32102017Y-75434819D02*
X31911541Y-75434819D01*
X31911541Y-75434819D02*
X31816303Y-75387200D01*
X33387732Y-74768152D02*
X33625827Y-75434819D01*
X33625827Y-75434819D02*
X33863922Y-74768152D01*
X34625827Y-75387200D02*
X34530589Y-75434819D01*
X34530589Y-75434819D02*
X34340113Y-75434819D01*
X34340113Y-75434819D02*
X34244875Y-75387200D01*
X34244875Y-75387200D02*
X34197256Y-75291961D01*
X34197256Y-75291961D02*
X34197256Y-74911009D01*
X34197256Y-74911009D02*
X34244875Y-74815771D01*
X34244875Y-74815771D02*
X34340113Y-74768152D01*
X34340113Y-74768152D02*
X34530589Y-74768152D01*
X34530589Y-74768152D02*
X34625827Y-74815771D01*
X34625827Y-74815771D02*
X34673446Y-74911009D01*
X34673446Y-74911009D02*
X34673446Y-75006247D01*
X34673446Y-75006247D02*
X34197256Y-75101485D01*
X35102018Y-75434819D02*
X35102018Y-74768152D01*
X35102018Y-74958628D02*
X35149637Y-74863390D01*
X35149637Y-74863390D02*
X35197256Y-74815771D01*
X35197256Y-74815771D02*
X35292494Y-74768152D01*
X35292494Y-74768152D02*
X35387732Y-74768152D01*
X35721066Y-75339580D02*
X35768685Y-75387200D01*
X35768685Y-75387200D02*
X35721066Y-75434819D01*
X35721066Y-75434819D02*
X35673447Y-75387200D01*
X35673447Y-75387200D02*
X35721066Y-75339580D01*
X35721066Y-75339580D02*
X35721066Y-75434819D01*
X36721065Y-75434819D02*
X36149637Y-75434819D01*
X36435351Y-75434819D02*
X36435351Y-74434819D01*
X36435351Y-74434819D02*
X36340113Y-74577676D01*
X36340113Y-74577676D02*
X36244875Y-74672914D01*
X36244875Y-74672914D02*
X36149637Y-74720533D01*
X131083207Y-75434819D02*
X130749874Y-74958628D01*
X130511779Y-75434819D02*
X130511779Y-74434819D01*
X130511779Y-74434819D02*
X130892731Y-74434819D01*
X130892731Y-74434819D02*
X130987969Y-74482438D01*
X130987969Y-74482438D02*
X131035588Y-74530057D01*
X131035588Y-74530057D02*
X131083207Y-74625295D01*
X131083207Y-74625295D02*
X131083207Y-74768152D01*
X131083207Y-74768152D02*
X131035588Y-74863390D01*
X131035588Y-74863390D02*
X130987969Y-74911009D01*
X130987969Y-74911009D02*
X130892731Y-74958628D01*
X130892731Y-74958628D02*
X130511779Y-74958628D01*
X132083207Y-75339580D02*
X132035588Y-75387200D01*
X132035588Y-75387200D02*
X131892731Y-75434819D01*
X131892731Y-75434819D02*
X131797493Y-75434819D01*
X131797493Y-75434819D02*
X131654636Y-75387200D01*
X131654636Y-75387200D02*
X131559398Y-75291961D01*
X131559398Y-75291961D02*
X131511779Y-75196723D01*
X131511779Y-75196723D02*
X131464160Y-75006247D01*
X131464160Y-75006247D02*
X131464160Y-74863390D01*
X131464160Y-74863390D02*
X131511779Y-74672914D01*
X131511779Y-74672914D02*
X131559398Y-74577676D01*
X131559398Y-74577676D02*
X131654636Y-74482438D01*
X131654636Y-74482438D02*
X131797493Y-74434819D01*
X131797493Y-74434819D02*
X131892731Y-74434819D01*
X131892731Y-74434819D02*
X132035588Y-74482438D01*
X132035588Y-74482438D02*
X132083207Y-74530057D01*
X132797493Y-74434819D02*
X132797493Y-75149104D01*
X132797493Y-75149104D02*
X132749874Y-75291961D01*
X132749874Y-75291961D02*
X132654636Y-75387200D01*
X132654636Y-75387200D02*
X132511779Y-75434819D01*
X132511779Y-75434819D02*
X132416541Y-75434819D01*
X133987970Y-74530057D02*
X134035589Y-74482438D01*
X134035589Y-74482438D02*
X134130827Y-74434819D01*
X134130827Y-74434819D02*
X134368922Y-74434819D01*
X134368922Y-74434819D02*
X134464160Y-74482438D01*
X134464160Y-74482438D02*
X134511779Y-74530057D01*
X134511779Y-74530057D02*
X134559398Y-74625295D01*
X134559398Y-74625295D02*
X134559398Y-74720533D01*
X134559398Y-74720533D02*
X134511779Y-74863390D01*
X134511779Y-74863390D02*
X133940351Y-75434819D01*
X133940351Y-75434819D02*
X134559398Y-75434819D01*
X135178446Y-74434819D02*
X135273684Y-74434819D01*
X135273684Y-74434819D02*
X135368922Y-74482438D01*
X135368922Y-74482438D02*
X135416541Y-74530057D01*
X135416541Y-74530057D02*
X135464160Y-74625295D01*
X135464160Y-74625295D02*
X135511779Y-74815771D01*
X135511779Y-74815771D02*
X135511779Y-75053866D01*
X135511779Y-75053866D02*
X135464160Y-75244342D01*
X135464160Y-75244342D02*
X135416541Y-75339580D01*
X135416541Y-75339580D02*
X135368922Y-75387200D01*
X135368922Y-75387200D02*
X135273684Y-75434819D01*
X135273684Y-75434819D02*
X135178446Y-75434819D01*
X135178446Y-75434819D02*
X135083208Y-75387200D01*
X135083208Y-75387200D02*
X135035589Y-75339580D01*
X135035589Y-75339580D02*
X134987970Y-75244342D01*
X134987970Y-75244342D02*
X134940351Y-75053866D01*
X134940351Y-75053866D02*
X134940351Y-74815771D01*
X134940351Y-74815771D02*
X134987970Y-74625295D01*
X134987970Y-74625295D02*
X135035589Y-74530057D01*
X135035589Y-74530057D02*
X135083208Y-74482438D01*
X135083208Y-74482438D02*
X135178446Y-74434819D01*
X135892732Y-74530057D02*
X135940351Y-74482438D01*
X135940351Y-74482438D02*
X136035589Y-74434819D01*
X136035589Y-74434819D02*
X136273684Y-74434819D01*
X136273684Y-74434819D02*
X136368922Y-74482438D01*
X136368922Y-74482438D02*
X136416541Y-74530057D01*
X136416541Y-74530057D02*
X136464160Y-74625295D01*
X136464160Y-74625295D02*
X136464160Y-74720533D01*
X136464160Y-74720533D02*
X136416541Y-74863390D01*
X136416541Y-74863390D02*
X135845113Y-75434819D01*
X135845113Y-75434819D02*
X136464160Y-75434819D01*
X137368922Y-74434819D02*
X136892732Y-74434819D01*
X136892732Y-74434819D02*
X136845113Y-74911009D01*
X136845113Y-74911009D02*
X136892732Y-74863390D01*
X136892732Y-74863390D02*
X136987970Y-74815771D01*
X136987970Y-74815771D02*
X137226065Y-74815771D01*
X137226065Y-74815771D02*
X137321303Y-74863390D01*
X137321303Y-74863390D02*
X137368922Y-74911009D01*
X137368922Y-74911009D02*
X137416541Y-75006247D01*
X137416541Y-75006247D02*
X137416541Y-75244342D01*
X137416541Y-75244342D02*
X137368922Y-75339580D01*
X137368922Y-75339580D02*
X137321303Y-75387200D01*
X137321303Y-75387200D02*
X137226065Y-75434819D01*
X137226065Y-75434819D02*
X136987970Y-75434819D01*
X136987970Y-75434819D02*
X136892732Y-75387200D01*
X136892732Y-75387200D02*
X136845113Y-75339580D01*
X138464161Y-74434819D02*
X139035589Y-74434819D01*
X138749875Y-75434819D02*
X138749875Y-74434819D01*
X139797494Y-74768152D02*
X139797494Y-75434819D01*
X139368923Y-74768152D02*
X139368923Y-75291961D01*
X139368923Y-75291961D02*
X139416542Y-75387200D01*
X139416542Y-75387200D02*
X139511780Y-75434819D01*
X139511780Y-75434819D02*
X139654637Y-75434819D01*
X139654637Y-75434819D02*
X139749875Y-75387200D01*
X139749875Y-75387200D02*
X139797494Y-75339580D01*
X140130828Y-74768152D02*
X140511780Y-74768152D01*
X140273685Y-74434819D02*
X140273685Y-75291961D01*
X140273685Y-75291961D02*
X140321304Y-75387200D01*
X140321304Y-75387200D02*
X140416542Y-75434819D01*
X140416542Y-75434819D02*
X140511780Y-75434819D01*
X140987971Y-75434819D02*
X140892733Y-75387200D01*
X140892733Y-75387200D02*
X140845114Y-75339580D01*
X140845114Y-75339580D02*
X140797495Y-75244342D01*
X140797495Y-75244342D02*
X140797495Y-74958628D01*
X140797495Y-74958628D02*
X140845114Y-74863390D01*
X140845114Y-74863390D02*
X140892733Y-74815771D01*
X140892733Y-74815771D02*
X140987971Y-74768152D01*
X140987971Y-74768152D02*
X141130828Y-74768152D01*
X141130828Y-74768152D02*
X141226066Y-74815771D01*
X141226066Y-74815771D02*
X141273685Y-74863390D01*
X141273685Y-74863390D02*
X141321304Y-74958628D01*
X141321304Y-74958628D02*
X141321304Y-75244342D01*
X141321304Y-75244342D02*
X141273685Y-75339580D01*
X141273685Y-75339580D02*
X141226066Y-75387200D01*
X141226066Y-75387200D02*
X141130828Y-75434819D01*
X141130828Y-75434819D02*
X140987971Y-75434819D01*
X141749876Y-74768152D02*
X141749876Y-75434819D01*
X141749876Y-74863390D02*
X141797495Y-74815771D01*
X141797495Y-74815771D02*
X141892733Y-74768152D01*
X141892733Y-74768152D02*
X142035590Y-74768152D01*
X142035590Y-74768152D02*
X142130828Y-74815771D01*
X142130828Y-74815771D02*
X142178447Y-74911009D01*
X142178447Y-74911009D02*
X142178447Y-75434819D01*
X104140000Y-52070000D02*
X129540000Y-52070000D01*
X129540000Y-77470000D01*
X104140000Y-77470000D01*
X104140000Y-52070000D01*
X77214819Y-75164285D02*
X77214819Y-75735713D01*
X77214819Y-75449999D02*
X76214819Y-75449999D01*
X76214819Y-75449999D02*
X76357676Y-75545237D01*
X76357676Y-75545237D02*
X76452914Y-75640475D01*
X76452914Y-75640475D02*
X76500533Y-75735713D01*
X84834819Y-75074285D02*
X84834819Y-75645713D01*
X84834819Y-75359999D02*
X83834819Y-75359999D01*
X83834819Y-75359999D02*
X83977676Y-75455237D01*
X83977676Y-75455237D02*
X84072914Y-75550475D01*
X84072914Y-75550475D02*
X84120533Y-75645713D01*
X99184819Y-75074285D02*
X99184819Y-75645713D01*
X99184819Y-75359999D02*
X98184819Y-75359999D01*
X98184819Y-75359999D02*
X98327676Y-75455237D01*
X98327676Y-75455237D02*
X98422914Y-75550475D01*
X98422914Y-75550475D02*
X98470533Y-75645713D01*
X69594819Y-75074285D02*
X69594819Y-75645713D01*
X69594819Y-75359999D02*
X68594819Y-75359999D01*
X68594819Y-75359999D02*
X68737676Y-75455237D01*
X68737676Y-75455237D02*
X68832914Y-75550475D01*
X68832914Y-75550475D02*
X68880533Y-75645713D01*
X62354819Y-75074285D02*
X62354819Y-75645713D01*
X62354819Y-75359999D02*
X61354819Y-75359999D01*
X61354819Y-75359999D02*
X61497676Y-75455237D01*
X61497676Y-75455237D02*
X61592914Y-75550475D01*
X61592914Y-75550475D02*
X61640533Y-75645713D01*
X92454819Y-75074285D02*
X92454819Y-75645713D01*
X92454819Y-75359999D02*
X91454819Y-75359999D01*
X91454819Y-75359999D02*
X91597676Y-75455237D01*
X91597676Y-75455237D02*
X91692914Y-75550475D01*
X91692914Y-75550475D02*
X91740533Y-75645713D01*
%TO.C,G\u002A\u002A\u002A*%
G36*
X138445819Y-65160460D02*
G01*
X138456735Y-65197255D01*
X138463590Y-65249114D01*
X138465698Y-65309479D01*
X138462375Y-65371793D01*
X138452933Y-65429498D01*
X138445568Y-65454963D01*
X138410664Y-65510215D01*
X138358456Y-65540606D01*
X138297453Y-65544609D01*
X138236160Y-65520697D01*
X138207889Y-65497621D01*
X138182045Y-65462028D01*
X138183737Y-65442231D01*
X138207164Y-65444062D01*
X138239061Y-65466280D01*
X138285942Y-65491009D01*
X138337943Y-65493591D01*
X138380943Y-65474172D01*
X138389500Y-65464740D01*
X138410124Y-65428918D01*
X138406470Y-65413601D01*
X138379237Y-65421633D01*
X138378952Y-65421785D01*
X138316249Y-65439852D01*
X138258526Y-65430175D01*
X138210360Y-65399165D01*
X138176328Y-65353229D01*
X138163694Y-65308320D01*
X138206850Y-65308320D01*
X138228550Y-65356822D01*
X138259999Y-65383598D01*
X138309430Y-65401413D01*
X138346098Y-65395390D01*
X138378863Y-65369152D01*
X138406684Y-65320414D01*
X138403129Y-65267435D01*
X138369310Y-65218426D01*
X138357058Y-65208348D01*
X138322903Y-65185964D01*
X138298039Y-65184601D01*
X138264790Y-65203290D01*
X138264787Y-65203292D01*
X138229289Y-65232278D01*
X138209723Y-65258176D01*
X138206850Y-65308320D01*
X138163694Y-65308320D01*
X138161009Y-65298775D01*
X138168979Y-65242213D01*
X138204816Y-65189952D01*
X138210025Y-65185280D01*
X138267828Y-65152870D01*
X138329786Y-65145377D01*
X138377349Y-65160787D01*
X138405669Y-65166429D01*
X138414548Y-65158291D01*
X138431529Y-65145286D01*
X138445819Y-65160460D01*
G37*
G36*
X136493049Y-65058223D02*
G01*
X136505773Y-65066097D01*
X136512726Y-65087230D01*
X136515651Y-65128179D01*
X136516293Y-65195496D01*
X136516302Y-65220468D01*
X136517380Y-65300082D01*
X136521272Y-65351248D01*
X136528963Y-65380263D01*
X136541437Y-65393427D01*
X136543500Y-65394318D01*
X136563202Y-65409851D01*
X136554157Y-65425678D01*
X136522046Y-65437042D01*
X136489179Y-65439795D01*
X136444552Y-65433933D01*
X136429367Y-65415333D01*
X136429316Y-65413699D01*
X136443241Y-65390634D01*
X136455411Y-65387603D01*
X136468458Y-65381290D01*
X136476443Y-65358308D01*
X136480436Y-65312598D01*
X136481507Y-65239726D01*
X136480393Y-65165796D01*
X136476338Y-65120548D01*
X136468271Y-65097920D01*
X136455411Y-65091850D01*
X136432260Y-65082456D01*
X136429316Y-65074452D01*
X136444204Y-65061374D01*
X136472809Y-65057055D01*
X136493049Y-65058223D01*
G37*
G36*
X136683598Y-65156967D02*
G01*
X136688797Y-65185460D01*
X136690228Y-65239274D01*
X136690274Y-65262751D01*
X136692328Y-65331956D01*
X136699334Y-65372924D01*
X136712558Y-65392019D01*
X136716370Y-65393894D01*
X136741565Y-65410880D01*
X136736161Y-65426882D01*
X136704201Y-65437635D01*
X136672877Y-65439795D01*
X136624490Y-65435486D01*
X136604551Y-65421201D01*
X136603288Y-65413699D01*
X136617214Y-65390634D01*
X136629384Y-65387603D01*
X136645121Y-65379013D01*
X136653224Y-65348870D01*
X136655480Y-65291918D01*
X136653349Y-65234958D01*
X136645587Y-65205467D01*
X136630138Y-65196306D01*
X136627934Y-65196233D01*
X136607500Y-65188075D01*
X136610706Y-65170331D01*
X136632496Y-65153094D01*
X136652493Y-65147181D01*
X136672280Y-65146604D01*
X136683598Y-65156967D01*
G37*
G36*
X136904196Y-65055250D02*
G01*
X136910933Y-65076960D01*
X136889408Y-65101576D01*
X136868455Y-65124930D01*
X136877295Y-65137885D01*
X136895143Y-65157008D01*
X136897751Y-65182116D01*
X136883845Y-65196104D01*
X136881644Y-65196233D01*
X136872117Y-65211963D01*
X136865798Y-65252540D01*
X136864247Y-65291918D01*
X136867107Y-65344318D01*
X136874485Y-65379074D01*
X136881644Y-65387603D01*
X136897079Y-65401694D01*
X136899042Y-65413699D01*
X136885838Y-65433000D01*
X136843697Y-65439748D01*
X136838151Y-65439795D01*
X136793116Y-65434136D01*
X136777371Y-65416076D01*
X136777261Y-65413699D01*
X136786655Y-65390547D01*
X136794658Y-65387603D01*
X136804185Y-65371873D01*
X136810504Y-65331297D01*
X136812055Y-65291918D01*
X136809195Y-65239518D01*
X136801818Y-65204763D01*
X136794658Y-65196233D01*
X136778561Y-65184561D01*
X136784251Y-65156007D01*
X136799007Y-65133362D01*
X136843036Y-65081778D01*
X136872190Y-65054661D01*
X136891730Y-65048103D01*
X136904196Y-65055250D01*
G37*
G36*
X137112795Y-65151128D02*
G01*
X137181514Y-65180081D01*
X137226143Y-65233881D01*
X137239077Y-65270172D01*
X137250759Y-65318014D01*
X137127092Y-65318014D01*
X137054635Y-65320622D01*
X137015249Y-65329192D01*
X137007549Y-65344846D01*
X137030151Y-65368704D01*
X137048556Y-65381577D01*
X137080537Y-65399553D01*
X137106876Y-65400518D01*
X137143846Y-65384099D01*
X137153044Y-65379183D01*
X137198970Y-65359008D01*
X137221089Y-65358759D01*
X137216764Y-65376834D01*
X137192665Y-65403251D01*
X137135734Y-65434709D01*
X137071298Y-65437359D01*
X137010831Y-65411557D01*
X136993936Y-65397092D01*
X136957056Y-65339820D01*
X136953736Y-65278118D01*
X136967115Y-65250444D01*
X137007916Y-65250444D01*
X137037896Y-65261776D01*
X137098564Y-65265822D01*
X137153433Y-65264139D01*
X137180131Y-65257748D01*
X137185177Y-65244639D01*
X137183631Y-65239576D01*
X137156830Y-65212787D01*
X137111004Y-65200551D01*
X137059892Y-65205710D01*
X137045635Y-65211049D01*
X137010083Y-65233108D01*
X137007916Y-65250444D01*
X136967115Y-65250444D01*
X136983778Y-65215979D01*
X137004122Y-65192860D01*
X137043553Y-65158953D01*
X137077662Y-65147566D01*
X137112795Y-65151128D01*
G37*
G36*
X137380605Y-65347068D02*
G01*
X137408561Y-65370603D01*
X137417334Y-65404069D01*
X137415186Y-65412350D01*
X137391234Y-65434186D01*
X137354695Y-65439561D01*
X137328174Y-65428197D01*
X137316380Y-65395901D01*
X137326901Y-65360947D01*
X137345760Y-65345332D01*
X137380605Y-65347068D01*
G37*
G36*
X137787545Y-65158873D02*
G01*
X137798410Y-65202934D01*
X137803483Y-65271731D01*
X137803699Y-65291918D01*
X137800193Y-65367387D01*
X137790438Y-65417472D01*
X137775573Y-65439297D01*
X137756741Y-65429989D01*
X137751737Y-65422769D01*
X137735737Y-65411199D01*
X137726559Y-65420540D01*
X137702891Y-65432984D01*
X137659299Y-65439510D01*
X137647643Y-65439795D01*
X137594416Y-65432902D01*
X137554032Y-65406425D01*
X137535588Y-65386268D01*
X137498501Y-65324771D01*
X137496518Y-65284823D01*
X137543206Y-65284823D01*
X137555429Y-65335534D01*
X137586518Y-65378738D01*
X137630270Y-65403056D01*
X137647124Y-65405000D01*
X137684996Y-65393193D01*
X137716713Y-65370206D01*
X137748800Y-65318507D01*
X137748316Y-65265694D01*
X137716512Y-65218830D01*
X137686268Y-65198226D01*
X137636945Y-65189871D01*
X137586630Y-65208077D01*
X137556055Y-65237981D01*
X137543206Y-65284823D01*
X137496518Y-65284823D01*
X137495639Y-65267102D01*
X137527091Y-65210358D01*
X137541402Y-65194895D01*
X137599412Y-65155458D01*
X137661549Y-65143889D01*
X137716254Y-65160787D01*
X137744573Y-65166429D01*
X137753452Y-65158291D01*
X137772142Y-65142881D01*
X137787545Y-65158873D01*
G37*
G36*
X138107986Y-65160364D02*
G01*
X138114009Y-65205120D01*
X138116759Y-65271992D01*
X138116850Y-65288182D01*
X138116850Y-65432323D01*
X138023996Y-65436208D01*
X137961722Y-65435324D01*
X137922810Y-65424553D01*
X137902216Y-65408129D01*
X137888520Y-65378282D01*
X137878658Y-65329575D01*
X137873067Y-65271990D01*
X137872181Y-65215504D01*
X137876437Y-65170099D01*
X137886270Y-65145754D01*
X137890685Y-65144041D01*
X137900296Y-65159754D01*
X137906615Y-65200211D01*
X137908083Y-65237799D01*
X137916041Y-65316352D01*
X137938434Y-65370926D01*
X137973042Y-65398058D01*
X138010193Y-65397023D01*
X138050896Y-65366207D01*
X138074847Y-65304964D01*
X138082055Y-65221197D01*
X138085558Y-65174902D01*
X138094408Y-65147369D01*
X138099452Y-65144041D01*
X138107986Y-65160364D01*
G37*
G36*
X138839751Y-65149589D02*
G01*
X138886649Y-65177238D01*
X138899233Y-65190858D01*
X138922033Y-65229044D01*
X138931377Y-65275147D01*
X138930941Y-65333011D01*
X138923131Y-65399335D01*
X138910862Y-65433732D01*
X138897637Y-65435835D01*
X138886961Y-65405278D01*
X138882339Y-65341694D01*
X138882329Y-65338104D01*
X138877521Y-65262135D01*
X138862570Y-65215864D01*
X138854991Y-65206174D01*
X138829036Y-65183649D01*
X138806838Y-65182454D01*
X138776802Y-65196845D01*
X138757955Y-65212851D01*
X138747640Y-65241235D01*
X138743565Y-65290881D01*
X138743151Y-65327325D01*
X138741392Y-65390559D01*
X138735112Y-65425626D01*
X138722801Y-65439022D01*
X138717055Y-65439795D01*
X138702383Y-65432215D01*
X138694247Y-65405146D01*
X138691139Y-65352090D01*
X138690959Y-65327325D01*
X138689188Y-65263387D01*
X138682347Y-65225249D01*
X138668146Y-65204028D01*
X138657309Y-65196845D01*
X138623730Y-65181423D01*
X138602102Y-65185457D01*
X138579120Y-65206174D01*
X138560300Y-65243958D01*
X138552218Y-65310719D01*
X138551781Y-65336654D01*
X138549112Y-65391746D01*
X138542154Y-65429042D01*
X138534384Y-65439795D01*
X138525852Y-65423472D01*
X138519829Y-65378714D01*
X138517078Y-65311835D01*
X138516987Y-65295615D01*
X138516987Y-65151435D01*
X138589243Y-65148554D01*
X138643818Y-65151001D01*
X138688320Y-65160685D01*
X138695494Y-65163866D01*
X138731571Y-65172692D01*
X138748498Y-65163050D01*
X138789443Y-65144074D01*
X138839751Y-65149589D01*
G37*
G36*
X139171400Y-65157749D02*
G01*
X139222377Y-65192799D01*
X139256607Y-65240085D01*
X139265069Y-65276893D01*
X139263000Y-65298293D01*
X139251779Y-65310594D01*
X139223883Y-65316307D01*
X139171790Y-65317940D01*
X139141838Y-65318014D01*
X139070001Y-65321099D01*
X139031860Y-65330782D01*
X139026827Y-65347701D01*
X139054319Y-65372498D01*
X139078545Y-65387189D01*
X139111227Y-65402032D01*
X139137921Y-65398973D01*
X139174247Y-65375782D01*
X139178051Y-65372980D01*
X139222516Y-65345970D01*
X139249868Y-65339935D01*
X139255700Y-65353021D01*
X139235604Y-65383376D01*
X139226222Y-65393237D01*
X139166435Y-65431825D01*
X139100544Y-65440071D01*
X139037639Y-65417811D01*
X139012018Y-65397092D01*
X138976494Y-65340905D01*
X138969152Y-65279437D01*
X138977791Y-65250555D01*
X139021507Y-65250555D01*
X139037240Y-65258917D01*
X139077823Y-65264462D01*
X139117192Y-65265822D01*
X139169597Y-65263312D01*
X139204352Y-65256837D01*
X139212877Y-65250555D01*
X139197735Y-65223028D01*
X139161101Y-65200777D01*
X139117192Y-65191884D01*
X139072299Y-65201169D01*
X139036011Y-65223631D01*
X139021507Y-65250555D01*
X138977791Y-65250555D01*
X138986604Y-65221094D01*
X139025462Y-65174279D01*
X139082337Y-65147399D01*
X139114029Y-65144041D01*
X139171400Y-65157749D01*
G37*
G36*
X139474637Y-65151160D02*
G01*
X139521252Y-65171589D01*
X139548214Y-65213818D01*
X139559643Y-65282558D01*
X139560822Y-65326713D01*
X139557865Y-65395579D01*
X139550428Y-65431350D01*
X139540661Y-65433668D01*
X139530717Y-65402175D01*
X139522745Y-65336516D01*
X139522490Y-65333073D01*
X139513809Y-65263334D01*
X139498654Y-65220738D01*
X139482280Y-65202594D01*
X139446912Y-65182135D01*
X139419017Y-65186230D01*
X139386850Y-65213630D01*
X139364350Y-65247156D01*
X139353848Y-65296144D01*
X139352055Y-65344110D01*
X139349195Y-65396510D01*
X139341818Y-65431265D01*
X139334658Y-65439795D01*
X139326124Y-65423473D01*
X139320101Y-65378720D01*
X139317351Y-65311855D01*
X139317261Y-65295701D01*
X139317261Y-65151608D01*
X139404246Y-65147823D01*
X139474637Y-65151160D01*
G37*
G36*
X139695681Y-65071943D02*
G01*
X139700000Y-65100548D01*
X139708155Y-65134654D01*
X139734795Y-65144041D01*
X139763131Y-65154919D01*
X139769589Y-65170137D01*
X139755085Y-65191390D01*
X139734795Y-65196233D01*
X139716509Y-65199519D01*
X139706034Y-65214335D01*
X139701243Y-65248123D01*
X139700010Y-65308320D01*
X139700000Y-65318014D01*
X139697702Y-65380485D01*
X139691541Y-65423651D01*
X139682620Y-65439795D01*
X139682603Y-65439795D01*
X139673641Y-65423729D01*
X139667461Y-65380779D01*
X139665206Y-65320043D01*
X139664097Y-65256043D01*
X139659230Y-65218626D01*
X139648293Y-65199611D01*
X139628972Y-65190816D01*
X139628661Y-65190735D01*
X139605187Y-65174575D01*
X139609088Y-65154717D01*
X139637184Y-65144104D01*
X139640137Y-65144041D01*
X139660021Y-65128886D01*
X139665206Y-65100548D01*
X139671161Y-65067853D01*
X139682603Y-65057055D01*
X139695681Y-65071943D01*
G37*
G36*
X139999319Y-65158514D02*
G01*
X140047786Y-65195401D01*
X140077862Y-65244907D01*
X140082740Y-65273730D01*
X140081053Y-65296818D01*
X140070948Y-65310054D01*
X140044858Y-65316178D01*
X139995217Y-65317925D01*
X139960347Y-65318014D01*
X139896995Y-65318651D01*
X139862097Y-65321921D01*
X139849319Y-65329865D01*
X139852327Y-65344521D01*
X139855945Y-65351630D01*
X139892315Y-65389865D01*
X139940687Y-65397194D01*
X139995774Y-65372903D01*
X139998607Y-65370848D01*
X140042269Y-65344686D01*
X140068417Y-65340049D01*
X140072600Y-65354736D01*
X140050363Y-65386543D01*
X140043893Y-65393237D01*
X139989425Y-65428260D01*
X139926940Y-65439928D01*
X139869379Y-65426579D01*
X139855068Y-65417495D01*
X139813957Y-65369143D01*
X139789731Y-65308198D01*
X139786987Y-65283025D01*
X139796486Y-65254308D01*
X139850099Y-65254308D01*
X139868175Y-65262664D01*
X139911760Y-65265644D01*
X139935409Y-65265822D01*
X139987640Y-65263013D01*
X140022197Y-65255770D01*
X140030548Y-65248826D01*
X140017444Y-65227830D01*
X139989403Y-65204871D01*
X139941432Y-65189680D01*
X139892591Y-65198095D01*
X139856771Y-65226759D01*
X139850796Y-65238394D01*
X139850099Y-65254308D01*
X139796486Y-65254308D01*
X139802004Y-65237626D01*
X139839862Y-65192924D01*
X139889766Y-65158534D01*
X139940923Y-65144070D01*
X139943015Y-65144041D01*
X139999319Y-65158514D01*
G37*
G36*
X140416535Y-65062672D02*
G01*
X140424295Y-65083276D01*
X140428676Y-65124496D01*
X140430489Y-65191961D01*
X140430685Y-65238700D01*
X140428806Y-65329722D01*
X140423395Y-65394042D01*
X140414797Y-65428229D01*
X140411343Y-65432298D01*
X140386614Y-65431975D01*
X140380439Y-65425545D01*
X140358038Y-65416501D01*
X140343240Y-65423050D01*
X140284686Y-65441209D01*
X140222485Y-65430162D01*
X140167809Y-65392182D01*
X140162574Y-65386268D01*
X140125487Y-65324771D01*
X140124718Y-65309261D01*
X140170954Y-65309261D01*
X140193982Y-65358426D01*
X140204521Y-65370206D01*
X140242394Y-65396271D01*
X140274110Y-65405000D01*
X140311983Y-65393193D01*
X140343699Y-65370206D01*
X140374306Y-65319474D01*
X140371866Y-65266536D01*
X140336891Y-65218371D01*
X140332267Y-65214588D01*
X140281554Y-65190942D01*
X140234543Y-65195314D01*
X140196758Y-65220977D01*
X140173720Y-65261202D01*
X140170954Y-65309261D01*
X140124718Y-65309261D01*
X140122626Y-65267102D01*
X140154078Y-65210358D01*
X140168388Y-65194895D01*
X140229653Y-65153460D01*
X140295052Y-65145482D01*
X140344843Y-65162051D01*
X140367184Y-65170292D01*
X140376597Y-65157595D01*
X140378494Y-65118558D01*
X140384037Y-65073280D01*
X140401786Y-65057210D01*
X140404589Y-65057055D01*
X140416535Y-65062672D01*
G37*
G36*
X136680032Y-65065375D02*
G01*
X136681576Y-65074452D01*
X136667857Y-65100575D01*
X136659829Y-65104898D01*
X136642368Y-65096823D01*
X136638083Y-65074452D01*
X136646099Y-65046859D01*
X136659829Y-65044007D01*
X136680032Y-65065375D01*
G37*
G36*
X138962707Y-63407671D02*
G01*
X139055368Y-63408945D01*
X139123899Y-63411098D01*
X139170966Y-63414197D01*
X139199233Y-63418309D01*
X139211365Y-63423500D01*
X139212299Y-63425865D01*
X139205700Y-63446266D01*
X139187117Y-63495223D01*
X139157977Y-63569186D01*
X139119705Y-63664605D01*
X139073730Y-63777930D01*
X139021478Y-63905612D01*
X138964376Y-64044099D01*
X138944735Y-64091507D01*
X138677751Y-64735206D01*
X138385391Y-64739990D01*
X138093030Y-64744775D01*
X138164038Y-64693337D01*
X138264309Y-64602292D01*
X138332740Y-64497313D01*
X138369564Y-64377964D01*
X138376663Y-64291576D01*
X138374442Y-64232855D01*
X138365384Y-64180150D01*
X138346649Y-64129184D01*
X138315400Y-64075678D01*
X138268798Y-64015356D01*
X138204004Y-63943940D01*
X138118181Y-63857153D01*
X138034123Y-63775370D01*
X137760206Y-63511425D01*
X137786964Y-63462219D01*
X137813723Y-63413014D01*
X138513300Y-63408467D01*
X138694338Y-63407499D01*
X138843252Y-63407211D01*
X138962707Y-63407671D01*
G37*
G36*
X139982925Y-63403934D02*
G01*
X140056060Y-63406613D01*
X140112930Y-63411227D01*
X140146419Y-63417820D01*
X140152329Y-63422704D01*
X140145907Y-63442663D01*
X140127679Y-63490845D01*
X140099202Y-63563346D01*
X140062034Y-63656265D01*
X140017733Y-63765697D01*
X139967855Y-63887739D01*
X139931909Y-63975067D01*
X139871449Y-64121188D01*
X139822222Y-64238889D01*
X139782335Y-64331973D01*
X139749893Y-64404243D01*
X139723003Y-64459502D01*
X139699772Y-64501553D01*
X139678306Y-64534200D01*
X139656712Y-64561246D01*
X139633095Y-64586494D01*
X139621933Y-64597660D01*
X139543549Y-64664271D01*
X139461727Y-64708596D01*
X139367404Y-64733929D01*
X139251519Y-64743563D01*
X139219503Y-64743904D01*
X139152437Y-64742431D01*
X139099952Y-64738509D01*
X139070759Y-64732889D01*
X139067761Y-64730856D01*
X139072756Y-64713155D01*
X139089481Y-64667522D01*
X139116235Y-64598124D01*
X139151314Y-64509128D01*
X139193017Y-64404699D01*
X139239640Y-64289004D01*
X139289481Y-64166208D01*
X139340837Y-64040477D01*
X139392007Y-63915977D01*
X139441286Y-63796876D01*
X139486974Y-63687337D01*
X139527367Y-63591529D01*
X139560763Y-63513615D01*
X139585459Y-63457764D01*
X139599753Y-63428140D01*
X139600993Y-63426062D01*
X139622301Y-63418043D01*
X139670034Y-63411698D01*
X139737079Y-63407072D01*
X139816319Y-63404206D01*
X139900640Y-63403146D01*
X139982925Y-63403934D01*
G37*
G36*
X139209264Y-62744021D02*
G01*
X139418349Y-62744361D01*
X139614694Y-62744981D01*
X139795702Y-62745857D01*
X139958778Y-62746968D01*
X140101326Y-62748291D01*
X140220748Y-62749805D01*
X140314450Y-62751486D01*
X140379835Y-62753313D01*
X140414307Y-62755263D01*
X140419134Y-62756267D01*
X140416943Y-62777796D01*
X140403987Y-62821112D01*
X140384066Y-62876405D01*
X140360983Y-62933864D01*
X140338539Y-62983678D01*
X140320534Y-63016035D01*
X140316645Y-63020794D01*
X140295660Y-63024410D01*
X140240772Y-63027774D01*
X140152871Y-63030870D01*
X140032849Y-63033684D01*
X139881596Y-63036201D01*
X139700002Y-63038406D01*
X139488958Y-63040283D01*
X139249356Y-63041818D01*
X139012376Y-63042885D01*
X138770192Y-63043797D01*
X138560337Y-63044658D01*
X138380346Y-63045546D01*
X138227755Y-63046538D01*
X138100098Y-63047712D01*
X137994911Y-63049147D01*
X137909729Y-63050919D01*
X137842086Y-63053108D01*
X137789517Y-63055790D01*
X137749559Y-63059044D01*
X137719745Y-63062947D01*
X137697611Y-63067578D01*
X137680692Y-63073014D01*
X137666522Y-63079333D01*
X137654175Y-63085790D01*
X137572019Y-63144469D01*
X137498189Y-63223579D01*
X137445053Y-63309685D01*
X137442241Y-63316064D01*
X137421123Y-63396160D01*
X137414872Y-63492755D01*
X137423423Y-63590920D01*
X137443765Y-63668386D01*
X137459809Y-63701864D01*
X137485043Y-63739450D01*
X137522853Y-63784945D01*
X137576625Y-63842150D01*
X137649746Y-63914867D01*
X137743775Y-64005161D01*
X137840119Y-64097716D01*
X137912728Y-64170400D01*
X137963878Y-64226451D01*
X137995847Y-64269109D01*
X138010911Y-64301611D01*
X138011345Y-64327196D01*
X137999428Y-64349103D01*
X137991589Y-64357685D01*
X137976064Y-64363450D01*
X137940563Y-64368167D01*
X137882759Y-64371907D01*
X137800326Y-64374740D01*
X137690938Y-64376740D01*
X137552268Y-64377976D01*
X137381990Y-64378521D01*
X137311067Y-64378562D01*
X137142089Y-64378482D01*
X137004713Y-64378144D01*
X136895745Y-64377397D01*
X136811993Y-64376092D01*
X136750265Y-64374080D01*
X136707367Y-64371212D01*
X136680107Y-64367338D01*
X136665292Y-64362309D01*
X136659730Y-64355976D01*
X136660227Y-64348189D01*
X136660248Y-64348117D01*
X136672078Y-64314788D01*
X136695651Y-64254608D01*
X136729168Y-64171805D01*
X136770834Y-64070606D01*
X136818854Y-63955241D01*
X136871429Y-63829936D01*
X136926766Y-63698919D01*
X136983066Y-63566418D01*
X137038535Y-63436661D01*
X137091376Y-63313875D01*
X137139792Y-63202289D01*
X137181989Y-63106130D01*
X137216168Y-63029626D01*
X137240535Y-62977005D01*
X137252985Y-62952947D01*
X137312734Y-62885125D01*
X137394300Y-62822711D01*
X137484936Y-62775127D01*
X137502691Y-62768340D01*
X137520779Y-62763939D01*
X137550165Y-62760084D01*
X137592941Y-62756741D01*
X137651200Y-62753875D01*
X137727033Y-62751452D01*
X137822532Y-62749438D01*
X137939790Y-62747799D01*
X138080899Y-62746500D01*
X138247949Y-62745507D01*
X138443034Y-62744786D01*
X138668245Y-62744303D01*
X138925675Y-62744023D01*
X138990035Y-62743983D01*
X139209264Y-62744021D01*
G37*
G36*
X134452792Y-61207665D02*
G01*
X134411012Y-61267102D01*
X134351671Y-61335996D01*
X134282530Y-61406309D01*
X134211346Y-61470004D01*
X134164547Y-61506283D01*
X134020679Y-61595179D01*
X133861964Y-61668917D01*
X133694556Y-61725951D01*
X133524612Y-61764735D01*
X133358287Y-61783719D01*
X133201736Y-61781358D01*
X133117307Y-61769495D01*
X132957220Y-61727064D01*
X132822385Y-61667135D01*
X132712669Y-61589607D01*
X132627937Y-61494376D01*
X132568055Y-61381340D01*
X132553746Y-61340182D01*
X132538885Y-61287728D01*
X132529970Y-61247764D01*
X132528768Y-61228327D01*
X132529076Y-61227881D01*
X132540299Y-61235492D01*
X132560883Y-61263203D01*
X132576388Y-61288163D01*
X132642030Y-61374807D01*
X132730948Y-61448342D01*
X132831963Y-61504905D01*
X132871840Y-61523305D01*
X132905432Y-61536237D01*
X132939406Y-61544653D01*
X132980430Y-61549507D01*
X133035173Y-61551754D01*
X133110302Y-61552345D01*
X133163461Y-61552310D01*
X133286665Y-61550093D01*
X133387649Y-61542730D01*
X133474770Y-61528518D01*
X133556384Y-61505751D01*
X133640848Y-61472726D01*
X133709615Y-61440915D01*
X133791168Y-61395263D01*
X133866947Y-61338110D01*
X133936840Y-61272607D01*
X134048681Y-61160121D01*
X134264633Y-61160121D01*
X134480585Y-61160121D01*
X134452792Y-61207665D01*
G37*
G36*
X135702597Y-60486554D02*
G01*
X135749242Y-60489286D01*
X135772221Y-60493396D01*
X135773188Y-60494060D01*
X135774052Y-60513025D01*
X135767387Y-60556349D01*
X135754528Y-60618908D01*
X135736810Y-60695578D01*
X135715571Y-60781235D01*
X135692146Y-60870757D01*
X135667871Y-60959020D01*
X135644083Y-61040899D01*
X135622117Y-61111272D01*
X135603310Y-61165015D01*
X135590631Y-61194119D01*
X135530768Y-61273444D01*
X135448124Y-61333354D01*
X135352044Y-61370291D01*
X135296444Y-61380237D01*
X135225646Y-61386667D01*
X135148839Y-61389462D01*
X135075215Y-61388505D01*
X135013961Y-61383675D01*
X134975000Y-61375157D01*
X134953326Y-61364294D01*
X134943222Y-61348971D01*
X134943583Y-61321511D01*
X134953306Y-61274237D01*
X134957784Y-61255453D01*
X134975634Y-61195441D01*
X134995769Y-61162305D01*
X135022073Y-61152177D01*
X135054106Y-61159489D01*
X135109085Y-61172102D01*
X135172483Y-61174789D01*
X135231787Y-61168003D01*
X135274481Y-61152194D01*
X135275510Y-61151490D01*
X135302755Y-61127150D01*
X135326108Y-61092672D01*
X135347871Y-61042882D01*
X135370344Y-60972608D01*
X135393324Y-60886607D01*
X135413656Y-60805270D01*
X135426056Y-60749107D01*
X135430192Y-60713455D01*
X135425733Y-60693653D01*
X135412349Y-60685042D01*
X135389707Y-60682959D01*
X135378846Y-60682909D01*
X135347576Y-60681253D01*
X135331093Y-60672210D01*
X135327633Y-60649669D01*
X135335432Y-60607519D01*
X135345510Y-60567455D01*
X135365426Y-60490485D01*
X135563195Y-60486157D01*
X135638508Y-60485433D01*
X135702597Y-60486554D01*
G37*
G36*
X137417148Y-60478140D02*
G01*
X137506374Y-60490903D01*
X137563461Y-60507513D01*
X137608456Y-60527562D01*
X137630927Y-60545095D01*
X137637692Y-60566875D01*
X137637361Y-60580830D01*
X137629747Y-60633277D01*
X137615717Y-60688713D01*
X137598171Y-60738906D01*
X137580006Y-60775623D01*
X137564121Y-60790634D01*
X137563481Y-60790667D01*
X137539216Y-60782266D01*
X137500538Y-60760671D01*
X137471361Y-60741351D01*
X137386906Y-60699135D01*
X137294755Y-60682853D01*
X137202811Y-60693075D01*
X137140600Y-60717473D01*
X137070162Y-60771917D01*
X137020282Y-60846533D01*
X136993283Y-60936695D01*
X136989779Y-61017920D01*
X136998507Y-61087234D01*
X137017391Y-61132368D01*
X137050887Y-61159399D01*
X137103453Y-61174402D01*
X137104724Y-61174620D01*
X137203728Y-61176434D01*
X137310561Y-61149319D01*
X137425911Y-61093086D01*
X137446564Y-61080524D01*
X137475857Y-61068845D01*
X137496216Y-61078982D01*
X137504139Y-61096530D01*
X137502941Y-61128576D01*
X137492100Y-61181171D01*
X137485062Y-61208886D01*
X137455769Y-61320641D01*
X137348076Y-61355060D01*
X137257277Y-61376299D01*
X137155090Y-61387706D01*
X137052031Y-61389054D01*
X136958616Y-61380116D01*
X136896153Y-61364800D01*
X136810413Y-61319530D01*
X136745211Y-61253447D01*
X136701823Y-61169747D01*
X136681526Y-61071627D01*
X136685598Y-60962284D01*
X136703280Y-60881976D01*
X136754029Y-60759603D01*
X136828795Y-60656282D01*
X136926733Y-60572930D01*
X137045730Y-60510967D01*
X137120770Y-60490312D01*
X137214350Y-60477911D01*
X137316475Y-60473831D01*
X137417148Y-60478140D01*
G37*
G36*
X139255769Y-60475765D02*
G01*
X139344021Y-60477201D01*
X139409372Y-60481393D01*
X139459638Y-60489289D01*
X139502634Y-60501836D01*
X139517307Y-60507459D01*
X139557731Y-60525666D01*
X139581867Y-60545004D01*
X139591250Y-60571924D01*
X139587418Y-60612879D01*
X139571907Y-60674319D01*
X139563782Y-60702617D01*
X139545376Y-60756217D01*
X139525372Y-60783374D01*
X139497881Y-60785708D01*
X139457014Y-60764834D01*
X139422891Y-60741317D01*
X139374555Y-60711121D01*
X139327123Y-60694444D01*
X139265849Y-60686385D01*
X139255499Y-60685677D01*
X139160164Y-60690623D01*
X139082892Y-60719838D01*
X139021093Y-60774773D01*
X138980333Y-60839648D01*
X138950632Y-60919048D01*
X138938462Y-60997901D01*
X138943878Y-61068796D01*
X138966933Y-61124319D01*
X138978146Y-61137730D01*
X139004160Y-61159094D01*
X139034588Y-61170581D01*
X139079708Y-61175034D01*
X139114756Y-61175515D01*
X139176157Y-61172659D01*
X139228301Y-61161663D01*
X139285279Y-61138885D01*
X139317824Y-61123029D01*
X139387437Y-61091806D01*
X139434076Y-61080021D01*
X139458545Y-61087567D01*
X139462921Y-61104041D01*
X139458722Y-61127049D01*
X139448265Y-61170119D01*
X139434466Y-61221549D01*
X139406552Y-61321461D01*
X139300391Y-61355470D01*
X139211404Y-61376280D01*
X139110626Y-61387571D01*
X139008588Y-61389118D01*
X138915821Y-61380696D01*
X138850845Y-61365082D01*
X138773905Y-61324965D01*
X138708369Y-61266466D01*
X138661926Y-61197352D01*
X138647962Y-61160121D01*
X138638905Y-61105761D01*
X138635147Y-61037971D01*
X138636445Y-60989339D01*
X138660066Y-60864272D01*
X138711266Y-60750623D01*
X138788110Y-60651106D01*
X138888666Y-60568438D01*
X138968065Y-60523958D01*
X139013752Y-60503107D01*
X139051669Y-60489249D01*
X139090123Y-60480992D01*
X139137425Y-60476946D01*
X139201882Y-60475716D01*
X139255769Y-60475765D01*
G37*
G36*
X136206868Y-60483289D02*
G01*
X136247441Y-60485691D01*
X136269029Y-60491338D01*
X136277522Y-60501577D01*
X136278846Y-60514197D01*
X136275311Y-60536069D01*
X136265611Y-60582129D01*
X136251097Y-60646711D01*
X136233123Y-60724151D01*
X136213043Y-60808781D01*
X136192210Y-60894937D01*
X136171977Y-60976952D01*
X136153698Y-61049161D01*
X136138725Y-61105897D01*
X136130994Y-61133182D01*
X136130038Y-61144160D01*
X136137988Y-61151685D01*
X136159461Y-61156400D01*
X136199073Y-61158946D01*
X136261442Y-61159969D01*
X136324446Y-61160121D01*
X136413049Y-61160519D01*
X136474884Y-61163461D01*
X136513950Y-61171569D01*
X136534247Y-61187466D01*
X136539776Y-61213774D01*
X136534536Y-61253115D01*
X136526049Y-61292291D01*
X136507408Y-61375637D01*
X136154183Y-61375637D01*
X136037577Y-61375331D01*
X135948308Y-61374277D01*
X135882949Y-61372270D01*
X135838072Y-61369107D01*
X135810251Y-61364581D01*
X135796058Y-61358489D01*
X135792681Y-61354057D01*
X135794667Y-61335629D01*
X135803169Y-61292024D01*
X135817071Y-61227893D01*
X135835255Y-61147884D01*
X135856602Y-61056647D01*
X135879995Y-60958830D01*
X135904317Y-60859084D01*
X135928449Y-60762056D01*
X135951274Y-60672398D01*
X135971675Y-60594756D01*
X135988532Y-60533781D01*
X135995674Y-60509728D01*
X136003852Y-60496657D01*
X136022579Y-60488569D01*
X136057910Y-60484345D01*
X136115903Y-60482865D01*
X136141421Y-60482788D01*
X136206868Y-60483289D01*
G37*
G36*
X138209836Y-60484489D02*
G01*
X138308973Y-60490153D01*
X138386000Y-60500624D01*
X138445167Y-60516746D01*
X138490725Y-60539363D01*
X138526925Y-60569317D01*
X138528488Y-60570941D01*
X138577350Y-60637611D01*
X138598676Y-60709210D01*
X138593768Y-60791548D01*
X138585613Y-60825724D01*
X138547943Y-60905762D01*
X138484499Y-60974443D01*
X138398789Y-61029864D01*
X138294321Y-61070120D01*
X138174606Y-61093307D01*
X138083285Y-61098363D01*
X137972339Y-61098546D01*
X137955449Y-61163970D01*
X137940004Y-61222951D01*
X137923148Y-61286152D01*
X137919765Y-61298667D01*
X137900971Y-61367940D01*
X137766580Y-61372391D01*
X137698004Y-61373501D01*
X137654743Y-61370903D01*
X137631499Y-61363957D01*
X137623857Y-61355118D01*
X137623620Y-61342276D01*
X137627789Y-61314483D01*
X137636806Y-61269896D01*
X137651111Y-61206674D01*
X137671146Y-61122975D01*
X137697353Y-61016957D01*
X137730171Y-60886777D01*
X137734187Y-60871047D01*
X138032762Y-60871047D01*
X138040871Y-60891212D01*
X138064228Y-60897190D01*
X138105118Y-60894126D01*
X138109174Y-60893649D01*
X138160829Y-60884958D01*
X138203819Y-60873358D01*
X138216867Y-60867872D01*
X138248657Y-60842425D01*
X138273336Y-60812586D01*
X138289346Y-60768036D01*
X138278432Y-60730066D01*
X138244222Y-60701622D01*
X138190346Y-60685650D01*
X138120432Y-60685097D01*
X138116807Y-60685501D01*
X138089604Y-60692351D01*
X138072273Y-60710344D01*
X138058503Y-60747613D01*
X138053136Y-60767576D01*
X138037612Y-60831550D01*
X138032762Y-60871047D01*
X137734187Y-60871047D01*
X137770043Y-60730595D01*
X137817410Y-60546568D01*
X137818973Y-60540515D01*
X137833878Y-60482788D01*
X138084339Y-60482788D01*
X138209836Y-60484489D01*
G37*
G36*
X139980496Y-60484199D02*
G01*
X140059615Y-60485390D01*
X140160006Y-60487595D01*
X140235063Y-60490342D01*
X140290218Y-60494254D01*
X140330905Y-60499957D01*
X140362559Y-60508075D01*
X140390613Y-60519234D01*
X140402259Y-60524794D01*
X140469878Y-60571376D01*
X140510375Y-60631869D01*
X140524922Y-60708089D01*
X140525000Y-60714863D01*
X140521987Y-60755804D01*
X140509138Y-60787918D01*
X140480740Y-60822342D01*
X140458664Y-60844150D01*
X140392328Y-60907749D01*
X140428811Y-60935285D01*
X140472851Y-60985236D01*
X140491803Y-61045692D01*
X140487320Y-61111932D01*
X140461057Y-61179232D01*
X140414666Y-61242867D01*
X140349801Y-61298117D01*
X140290256Y-61331104D01*
X140260473Y-61343518D01*
X140230810Y-61352871D01*
X140196174Y-61359703D01*
X140151473Y-61364556D01*
X140091614Y-61367971D01*
X140011506Y-61370490D01*
X139906056Y-61372654D01*
X139898118Y-61372797D01*
X139788723Y-61374379D01*
X139706528Y-61374570D01*
X139647990Y-61373201D01*
X139609565Y-61370108D01*
X139587708Y-61365122D01*
X139578876Y-61358077D01*
X139578748Y-61357762D01*
X139580396Y-61338010D01*
X139588962Y-61292474D01*
X139603545Y-61225147D01*
X139615030Y-61175515D01*
X139907170Y-61175515D01*
X139989162Y-61175491D01*
X140053887Y-61169557D01*
X140112014Y-61154230D01*
X140125000Y-61148552D01*
X140162068Y-61124837D01*
X140177095Y-61097291D01*
X140178846Y-61076149D01*
X140172994Y-61045104D01*
X140152206Y-61024902D01*
X140111632Y-61013336D01*
X140046422Y-61008199D01*
X140028465Y-61007717D01*
X139985814Y-61008876D01*
X139958422Y-61018604D01*
X139940565Y-61043004D01*
X139926521Y-61088178D01*
X139918045Y-61125485D01*
X139907170Y-61175515D01*
X139615030Y-61175515D01*
X139623243Y-61140021D01*
X139647152Y-61041089D01*
X139674372Y-60932343D01*
X139678706Y-60915347D01*
X139705058Y-60812054D01*
X140002008Y-60812054D01*
X140015324Y-60818458D01*
X140049017Y-60818875D01*
X140093521Y-60814402D01*
X140139270Y-60806140D01*
X140176698Y-60795188D01*
X140186098Y-60790903D01*
X140211607Y-60762422D01*
X140217307Y-60738042D01*
X140208525Y-60709470D01*
X140179549Y-60692059D01*
X140126432Y-60684093D01*
X140091107Y-60683120D01*
X140053154Y-60685755D01*
X140033135Y-60699901D01*
X140019882Y-60734361D01*
X140018116Y-60740637D01*
X140007733Y-60781241D01*
X140002256Y-60808885D01*
X140002008Y-60812054D01*
X139705058Y-60812054D01*
X139706537Y-60806258D01*
X139731703Y-60707181D01*
X139753239Y-60621949D01*
X139770182Y-60554393D01*
X139781567Y-60508347D01*
X139786429Y-60487641D01*
X139786538Y-60486919D01*
X139801104Y-60485061D01*
X139841543Y-60483970D01*
X139902969Y-60483674D01*
X139980496Y-60484199D01*
G37*
G36*
X133553504Y-60624679D02*
G01*
X133597816Y-60641142D01*
X133651879Y-60686822D01*
X133685564Y-60750189D01*
X133694230Y-60805910D01*
X133684065Y-60861315D01*
X133658042Y-60923202D01*
X133622871Y-60977123D01*
X133606843Y-60994050D01*
X133563011Y-61024151D01*
X133509268Y-61047769D01*
X133453888Y-61062923D01*
X133405146Y-61067632D01*
X133371314Y-61059915D01*
X133363435Y-61052322D01*
X133343003Y-61045261D01*
X133325077Y-61052322D01*
X133275557Y-61066515D01*
X133223991Y-61062843D01*
X133184061Y-61042514D01*
X133181230Y-61039606D01*
X133156679Y-60992016D01*
X133156082Y-60948726D01*
X133248076Y-60948726D01*
X133257509Y-60989537D01*
X133282725Y-61006866D01*
X133319106Y-61000274D01*
X133362031Y-60969322D01*
X133370809Y-60960369D01*
X133408795Y-60906433D01*
X133422954Y-60854427D01*
X133414129Y-60815225D01*
X133388768Y-60793613D01*
X133355102Y-60795036D01*
X133318674Y-60815040D01*
X133285029Y-60849166D01*
X133259709Y-60892958D01*
X133248258Y-60941960D01*
X133248076Y-60948726D01*
X133156082Y-60948726D01*
X133155913Y-60936439D01*
X133175191Y-60878644D01*
X133210772Y-60824403D01*
X133258915Y-60779484D01*
X133315879Y-60749658D01*
X133375130Y-60740571D01*
X133436633Y-60742177D01*
X133499751Y-60743041D01*
X133505618Y-60743067D01*
X133535686Y-60743095D01*
X133554114Y-60746206D01*
X133560845Y-60757280D01*
X133555822Y-60781199D01*
X133538986Y-60822841D01*
X133510282Y-60887088D01*
X133503750Y-60901654D01*
X133485373Y-60948532D01*
X133476481Y-60983604D01*
X133478392Y-60998205D01*
X133500055Y-60995314D01*
X133531313Y-60973020D01*
X133565624Y-60938133D01*
X133596444Y-60897462D01*
X133617231Y-60857818D01*
X133619343Y-60851513D01*
X133625575Y-60790671D01*
X133603760Y-60740021D01*
X133552935Y-60697651D01*
X133537374Y-60689049D01*
X133478885Y-60672575D01*
X133404852Y-60671383D01*
X133325922Y-60684595D01*
X133252741Y-60711334D01*
X133250015Y-60712708D01*
X133184639Y-60760825D01*
X133133136Y-60827178D01*
X133101446Y-60902477D01*
X133094230Y-60956329D01*
X133102563Y-61026054D01*
X133129287Y-61077005D01*
X133176986Y-61111070D01*
X133248247Y-61130133D01*
X133340654Y-61136070D01*
X133409061Y-61134272D01*
X133460883Y-61126080D01*
X133510118Y-61108463D01*
X133544532Y-61091961D01*
X133591243Y-61070375D01*
X133626654Y-61057835D01*
X133642317Y-61056863D01*
X133647065Y-61078736D01*
X133627152Y-61104748D01*
X133587889Y-61132076D01*
X133534584Y-61157895D01*
X133472549Y-61179381D01*
X133407094Y-61193709D01*
X133378846Y-61196997D01*
X133314529Y-61198748D01*
X133250446Y-61195085D01*
X133219157Y-61190456D01*
X133132970Y-61160867D01*
X133070323Y-61113885D01*
X133032787Y-61051379D01*
X133021932Y-60975218D01*
X133023238Y-60957205D01*
X133048605Y-60854223D01*
X133101051Y-60765700D01*
X133180689Y-60691481D01*
X133248076Y-60650323D01*
X133314737Y-60626766D01*
X133395331Y-60614443D01*
X133478654Y-60613649D01*
X133553504Y-60624679D01*
G37*
G36*
X132977881Y-60544361D02*
G01*
X132979882Y-60544364D01*
X133027026Y-60548140D01*
X133046984Y-60560026D01*
X133048076Y-60565338D01*
X133044364Y-60601486D01*
X133034398Y-60658394D01*
X133019937Y-60728543D01*
X133002741Y-60804411D01*
X132984568Y-60878482D01*
X132967176Y-60943235D01*
X132952324Y-60991151D01*
X132943589Y-61012078D01*
X132894221Y-61067862D01*
X132826318Y-61104700D01*
X132747677Y-61119572D01*
X132681687Y-61113493D01*
X132642419Y-61098201D01*
X132601911Y-61073019D01*
X132569826Y-61045091D01*
X132555823Y-61021558D01*
X132555769Y-61020404D01*
X132567515Y-61005690D01*
X132596553Y-60983516D01*
X132604486Y-60978341D01*
X132653203Y-60947477D01*
X132695037Y-60978425D01*
X132741925Y-60999271D01*
X132784674Y-60993532D01*
X132816150Y-60962164D01*
X132824721Y-60936751D01*
X132836956Y-60888455D01*
X132851085Y-60824700D01*
X132862681Y-60766934D01*
X132879168Y-60680782D01*
X132891692Y-60620256D01*
X132902625Y-60580850D01*
X132914339Y-60558061D01*
X132929205Y-60547386D01*
X132949595Y-60544321D01*
X132977881Y-60544361D01*
G37*
G36*
X134612922Y-60537672D02*
G01*
X134683554Y-60565057D01*
X134701871Y-60577862D01*
X134742447Y-60609798D01*
X134700144Y-60653979D01*
X134671294Y-60681477D01*
X134651200Y-60688745D01*
X134628537Y-60678877D01*
X134622731Y-60675141D01*
X134564689Y-60653788D01*
X134503358Y-60659056D01*
X134445583Y-60688494D01*
X134398213Y-60739652D01*
X134386689Y-60759583D01*
X134359906Y-60834894D01*
X134358968Y-60902184D01*
X134383741Y-60957372D01*
X134393531Y-60968397D01*
X134440931Y-60999704D01*
X134494246Y-61002388D01*
X134545989Y-60982996D01*
X134588562Y-60964127D01*
X134615939Y-60963571D01*
X134637954Y-60981732D01*
X134642045Y-60986940D01*
X134660422Y-61020044D01*
X134653899Y-61045457D01*
X134620231Y-61071271D01*
X134618310Y-61072413D01*
X134550309Y-61100269D01*
X134469849Y-61115415D01*
X134393666Y-61114867D01*
X134386538Y-61113768D01*
X134308931Y-61086953D01*
X134251327Y-61038624D01*
X134215412Y-60972010D01*
X134202874Y-60890335D01*
X134215401Y-60796826D01*
X134217230Y-60790031D01*
X134252406Y-60710374D01*
X134307205Y-60642554D01*
X134376142Y-60588973D01*
X134453730Y-60552031D01*
X134534485Y-60534130D01*
X134612922Y-60537672D01*
G37*
G36*
X133932407Y-60544922D02*
G01*
X133953534Y-60549424D01*
X133965817Y-60562108D01*
X133969772Y-60587215D01*
X133965913Y-60628984D01*
X133954756Y-60691654D01*
X133936815Y-60779467D01*
X133932814Y-60798707D01*
X133918104Y-60869699D01*
X133905985Y-60928666D01*
X133897668Y-60969679D01*
X133894364Y-60986808D01*
X133894352Y-60986940D01*
X133908424Y-60988776D01*
X133945770Y-60990136D01*
X133998896Y-60990770D01*
X134010098Y-60990788D01*
X134077084Y-60992808D01*
X134117492Y-61000772D01*
X134135360Y-61017536D01*
X134134723Y-61045957D01*
X134126008Y-61072800D01*
X134110376Y-61113940D01*
X133926288Y-61113940D01*
X133854128Y-61112862D01*
X133793773Y-61109930D01*
X133751546Y-61105589D01*
X133733773Y-61100295D01*
X133733951Y-61081453D01*
X133739661Y-61037618D01*
X133750072Y-60973924D01*
X133764355Y-60895500D01*
X133779018Y-60820598D01*
X133796366Y-60734334D01*
X133811378Y-60659158D01*
X133823079Y-60600003D01*
X133830491Y-60561802D01*
X133832692Y-60549454D01*
X133846456Y-60546417D01*
X133881279Y-60544596D01*
X133901923Y-60544364D01*
X133932407Y-60544922D01*
G37*
G36*
X134001161Y-60156662D02*
G01*
X134099465Y-60178836D01*
X134196604Y-60215245D01*
X134232692Y-60231963D01*
X134278055Y-60258581D01*
X134331049Y-60296747D01*
X134385900Y-60341339D01*
X134436834Y-60387238D01*
X134478079Y-60429324D01*
X134503860Y-60462478D01*
X134509615Y-60477531D01*
X134503294Y-60486097D01*
X134481678Y-60492057D01*
X134440786Y-60495798D01*
X134376639Y-60497708D01*
X134297488Y-60498182D01*
X134085361Y-60498182D01*
X134028536Y-60430159D01*
X133961552Y-60364731D01*
X133883247Y-60318002D01*
X133788421Y-60287870D01*
X133671873Y-60272227D01*
X133633205Y-60270097D01*
X133491992Y-60270418D01*
X133359025Y-60284778D01*
X133221249Y-60314969D01*
X133144454Y-60337184D01*
X133084037Y-60354661D01*
X133051987Y-60361173D01*
X133048038Y-60357019D01*
X133071919Y-60342500D01*
X133123364Y-60317915D01*
X133186538Y-60290192D01*
X133327856Y-60233924D01*
X133453954Y-60193724D01*
X133574288Y-60167266D01*
X133698312Y-60152227D01*
X133763461Y-60148314D01*
X133892292Y-60147046D01*
X134001161Y-60156662D01*
G37*
G36*
X133430338Y-62579277D02*
G01*
X133433567Y-62584595D01*
X133441970Y-62599072D01*
X133455308Y-62622287D01*
X133473339Y-62653816D01*
X133495823Y-62693235D01*
X133522521Y-62740121D01*
X133553191Y-62794050D01*
X133587594Y-62854600D01*
X133625489Y-62921346D01*
X133666636Y-62993866D01*
X133710795Y-63071736D01*
X133757725Y-63154533D01*
X133807186Y-63241834D01*
X133858937Y-63333214D01*
X133912739Y-63428251D01*
X133968351Y-63526522D01*
X134025533Y-63627602D01*
X134068146Y-63702952D01*
X134126441Y-63806044D01*
X134183397Y-63906762D01*
X134238768Y-64004673D01*
X134292311Y-64099348D01*
X134343782Y-64190354D01*
X134392936Y-64277259D01*
X134439529Y-64359633D01*
X134483317Y-64437043D01*
X134524057Y-64509058D01*
X134561503Y-64575247D01*
X134595413Y-64635177D01*
X134625541Y-64688419D01*
X134651643Y-64734539D01*
X134673476Y-64773106D01*
X134690795Y-64803690D01*
X134703357Y-64825858D01*
X134710916Y-64839178D01*
X134713105Y-64843014D01*
X134726292Y-64865805D01*
X134664482Y-64900804D01*
X134641010Y-64914059D01*
X134621048Y-64925265D01*
X134606522Y-64933346D01*
X134599357Y-64937226D01*
X134599039Y-64937378D01*
X134595990Y-64932835D01*
X134587803Y-64919189D01*
X134574754Y-64896922D01*
X134557118Y-64866516D01*
X134535171Y-64828454D01*
X134509187Y-64783216D01*
X134479443Y-64731286D01*
X134446213Y-64673145D01*
X134409773Y-64609276D01*
X134370398Y-64540159D01*
X134328364Y-64466278D01*
X134283945Y-64388113D01*
X134237418Y-64306148D01*
X134189058Y-64220864D01*
X134139140Y-64132742D01*
X134117178Y-64093944D01*
X134066671Y-64004729D01*
X134017614Y-63918126D01*
X133970281Y-63834618D01*
X133924946Y-63754689D01*
X133881885Y-63678822D01*
X133841373Y-63607499D01*
X133803685Y-63541204D01*
X133769095Y-63480420D01*
X133737878Y-63425629D01*
X133710310Y-63377316D01*
X133686666Y-63335962D01*
X133667220Y-63302051D01*
X133652247Y-63276066D01*
X133642023Y-63258489D01*
X133636821Y-63249805D01*
X133636198Y-63248925D01*
X133633290Y-63253603D01*
X133625152Y-63267303D01*
X133612075Y-63289526D01*
X133594348Y-63319772D01*
X133572263Y-63357539D01*
X133546110Y-63402329D01*
X133516179Y-63453641D01*
X133482760Y-63510974D01*
X133446146Y-63573829D01*
X133406625Y-63641705D01*
X133364488Y-63714102D01*
X133320027Y-63790520D01*
X133273531Y-63870458D01*
X133225291Y-63953417D01*
X133175598Y-64038897D01*
X133124742Y-64126396D01*
X133073013Y-64215415D01*
X133020702Y-64305454D01*
X132968100Y-64396012D01*
X132915497Y-64486590D01*
X132863184Y-64576686D01*
X132811451Y-64665802D01*
X132760588Y-64753436D01*
X132710887Y-64839089D01*
X132662638Y-64922260D01*
X132616130Y-65002449D01*
X132571656Y-65079156D01*
X132529505Y-65151880D01*
X132489967Y-65220122D01*
X132453334Y-65283382D01*
X132419896Y-65341158D01*
X132389943Y-65392951D01*
X132363766Y-65438261D01*
X132341655Y-65476588D01*
X132323902Y-65507431D01*
X132310795Y-65530289D01*
X132302627Y-65544664D01*
X132299693Y-65550037D01*
X132304955Y-65550522D01*
X132320874Y-65550988D01*
X132347097Y-65551435D01*
X132383275Y-65551862D01*
X132429055Y-65552267D01*
X132484086Y-65552649D01*
X132548018Y-65553006D01*
X132620499Y-65553338D01*
X132701177Y-65553643D01*
X132789702Y-65553920D01*
X132885722Y-65554168D01*
X132988886Y-65554385D01*
X133098844Y-65554570D01*
X133215242Y-65554723D01*
X133337731Y-65554841D01*
X133465960Y-65554923D01*
X133599576Y-65554969D01*
X133696281Y-65554978D01*
X135094702Y-65554978D01*
X135094702Y-65632031D01*
X135094702Y-65709085D01*
X133350317Y-65709085D01*
X131605932Y-65709085D01*
X131656525Y-65621801D01*
X131695259Y-65554978D01*
X131868393Y-65554978D01*
X132007907Y-65554544D01*
X132045338Y-65554323D01*
X132078444Y-65553926D01*
X132105855Y-65553386D01*
X132126204Y-65552737D01*
X132138121Y-65552011D01*
X132140542Y-65551333D01*
X132134226Y-65544068D01*
X132133662Y-65540757D01*
X132136388Y-65535373D01*
X132144411Y-65520871D01*
X132157500Y-65497653D01*
X132175424Y-65466122D01*
X132197950Y-65426677D01*
X132224849Y-65379720D01*
X132255889Y-65325654D01*
X132290837Y-65264879D01*
X132329464Y-65197796D01*
X132371537Y-65124807D01*
X132416826Y-65046314D01*
X132465099Y-64962717D01*
X132516124Y-64874419D01*
X132569671Y-64781820D01*
X132625508Y-64685322D01*
X132683403Y-64585327D01*
X132743126Y-64482235D01*
X132804445Y-64376448D01*
X132841188Y-64313087D01*
X132903317Y-64205928D01*
X132963968Y-64101238D01*
X133022911Y-63999417D01*
X133079916Y-63900866D01*
X133134753Y-63805985D01*
X133187190Y-63715176D01*
X133236998Y-63628838D01*
X133283946Y-63547373D01*
X133327804Y-63471182D01*
X133368341Y-63400664D01*
X133405327Y-63336221D01*
X133438531Y-63278253D01*
X133467724Y-63227162D01*
X133492675Y-63183346D01*
X133513153Y-63147209D01*
X133528928Y-63119149D01*
X133539769Y-63099568D01*
X133545447Y-63088866D01*
X133546281Y-63086878D01*
X133542638Y-63079633D01*
X133534581Y-63064815D01*
X133523103Y-63044167D01*
X133509197Y-63019435D01*
X133493859Y-62992361D01*
X133478082Y-62964690D01*
X133462860Y-62938166D01*
X133449187Y-62914533D01*
X133438056Y-62895535D01*
X133430463Y-62882917D01*
X133427531Y-62878509D01*
X133424447Y-62882836D01*
X133416071Y-62896309D01*
X133402628Y-62918547D01*
X133384339Y-62949169D01*
X133361428Y-62987793D01*
X133334118Y-63034039D01*
X133302631Y-63087526D01*
X133267192Y-63147872D01*
X133228021Y-63214697D01*
X133185344Y-63287619D01*
X133139382Y-63366258D01*
X133090358Y-63450232D01*
X133038496Y-63539160D01*
X132984018Y-63632662D01*
X132927148Y-63730356D01*
X132868107Y-63831862D01*
X132807120Y-63936797D01*
X132744410Y-64044782D01*
X132680198Y-64155434D01*
X132656283Y-64196668D01*
X132591449Y-64308463D01*
X132527997Y-64417877D01*
X132466152Y-64524518D01*
X132406140Y-64627998D01*
X132348186Y-64727927D01*
X132292517Y-64823915D01*
X132239358Y-64915575D01*
X132188936Y-65002515D01*
X132141475Y-65084347D01*
X132097202Y-65160681D01*
X132056343Y-65231128D01*
X132019124Y-65295299D01*
X131985769Y-65352804D01*
X131956506Y-65403253D01*
X131931560Y-65446258D01*
X131911157Y-65481429D01*
X131895523Y-65508377D01*
X131884883Y-65526712D01*
X131879463Y-65536044D01*
X131878854Y-65537091D01*
X131868393Y-65554978D01*
X131695259Y-65554978D01*
X131775845Y-65415954D01*
X131889771Y-65219423D01*
X131998425Y-65031998D01*
X132101929Y-64853470D01*
X132200406Y-64683628D01*
X132293978Y-64522262D01*
X132382768Y-64369164D01*
X132466896Y-64224123D01*
X132546487Y-64086930D01*
X132621661Y-63957374D01*
X132692542Y-63835247D01*
X132759252Y-63720337D01*
X132821912Y-63612437D01*
X132880646Y-63511335D01*
X132935575Y-63416822D01*
X132986821Y-63328689D01*
X133034508Y-63246725D01*
X133078758Y-63170721D01*
X133119691Y-63100467D01*
X133157432Y-63035754D01*
X133192102Y-62976371D01*
X133223823Y-62922109D01*
X133252719Y-62872759D01*
X133278910Y-62828109D01*
X133302519Y-62787951D01*
X133323669Y-62752076D01*
X133342482Y-62720272D01*
X133359080Y-62692331D01*
X133373585Y-62668042D01*
X133386121Y-62647196D01*
X133396808Y-62629584D01*
X133405769Y-62614995D01*
X133413127Y-62603219D01*
X133419004Y-62594048D01*
X133423522Y-62587270D01*
X133426804Y-62582678D01*
X133428971Y-62580059D01*
X133430146Y-62579206D01*
X133430338Y-62579277D01*
G37*
G36*
X134851192Y-65052018D02*
G01*
X134870733Y-65054465D01*
X134887968Y-65059532D01*
X134902730Y-65065885D01*
X134942181Y-65089607D01*
X134973424Y-65120292D01*
X134996957Y-65157806D01*
X135006104Y-65177656D01*
X135011500Y-65194097D01*
X135014105Y-65211585D01*
X135014878Y-65234577D01*
X135014897Y-65241146D01*
X135014266Y-65267329D01*
X135011838Y-65286861D01*
X135006808Y-65304056D01*
X135000394Y-65318976D01*
X134976029Y-65359007D01*
X134944686Y-65390993D01*
X134907331Y-65414275D01*
X134864933Y-65428195D01*
X134834482Y-65431942D01*
X134805770Y-65431723D01*
X134780789Y-65428618D01*
X134771553Y-65426240D01*
X134727992Y-65406838D01*
X134691990Y-65379464D01*
X134663263Y-65343865D01*
X134649452Y-65318566D01*
X134641853Y-65300272D01*
X134637467Y-65282910D01*
X134635500Y-65262191D01*
X134635136Y-65241146D01*
X134635621Y-65216249D01*
X134637718Y-65197884D01*
X134642383Y-65181597D01*
X134650578Y-65162931D01*
X134653076Y-65157806D01*
X134677371Y-65119342D01*
X134708826Y-65088863D01*
X134747303Y-65065885D01*
X134765765Y-65058191D01*
X134783129Y-65053751D01*
X134803723Y-65051757D01*
X134825017Y-65051381D01*
X134851192Y-65052018D01*
G37*
D11*
%TO.C,SW3*%
X101440000Y-60440000D02*
X101440000Y-58940000D01*
X100190000Y-56440000D02*
X95690000Y-56440000D01*
X94440000Y-58940000D02*
X94440000Y-60440000D01*
X95690000Y-62940000D02*
X100190000Y-62940000D01*
%TO.C,SW2*%
X91840000Y-60440000D02*
X91840000Y-58940000D01*
X90590000Y-56440000D02*
X86090000Y-56440000D01*
X84840000Y-58940000D02*
X84840000Y-60440000D01*
X86090000Y-62940000D02*
X90590000Y-62940000D01*
%TO.C,SW1*%
X81680000Y-60440000D02*
X81680000Y-58940000D01*
X80430000Y-56440000D02*
X75930000Y-56440000D01*
X74680000Y-58940000D02*
X74680000Y-60440000D01*
X75930000Y-62940000D02*
X80430000Y-62940000D01*
%TO.C,D3*%
X75610000Y-74950000D02*
X75610000Y-67650000D01*
X81110000Y-74950000D02*
X81110000Y-67650000D01*
X81110000Y-67650000D02*
X79960000Y-67650000D01*
%TO.C,D4*%
X83230000Y-74860000D02*
X83230000Y-67560000D01*
X88730000Y-74860000D02*
X88730000Y-67560000D01*
X88730000Y-67560000D02*
X87580000Y-67560000D01*
%TO.C,D6*%
X97580000Y-74860000D02*
X97580000Y-67560000D01*
X103080000Y-74860000D02*
X103080000Y-67560000D01*
X103080000Y-67560000D02*
X101930000Y-67560000D01*
%TO.C,J2*%
X111710000Y-54670000D02*
X111710000Y-53340000D01*
X113040000Y-54670000D02*
X111710000Y-54670000D01*
X114310000Y-54670000D02*
X121990000Y-54670000D01*
X114310000Y-54670000D02*
X114310000Y-52010000D01*
X121990000Y-54670000D02*
X121990000Y-52010000D01*
X114310000Y-52010000D02*
X121990000Y-52010000D01*
%TO.C,D2*%
X67990000Y-74860000D02*
X67990000Y-67560000D01*
X73490000Y-74860000D02*
X73490000Y-67560000D01*
X73490000Y-67560000D02*
X72340000Y-67560000D01*
%TO.C,SW4*%
X76850000Y-52645000D02*
X81990000Y-52645000D01*
X81990000Y-55305000D02*
X81990000Y-52645000D01*
X76850000Y-55305000D02*
X76850000Y-52645000D01*
X76850000Y-55305000D02*
X81990000Y-55305000D01*
X75580000Y-55305000D02*
X74250000Y-55305000D01*
X74250000Y-55305000D02*
X74250000Y-53975000D01*
%TO.C,D1*%
X60750000Y-74860000D02*
X60750000Y-67560000D01*
X66250000Y-74860000D02*
X66250000Y-67560000D01*
X66250000Y-67560000D02*
X65100000Y-67560000D01*
%TO.C,D5*%
X90850000Y-74860000D02*
X90850000Y-67560000D01*
X96350000Y-74860000D02*
X96350000Y-67560000D01*
X96350000Y-67560000D02*
X95200000Y-67560000D01*
D12*
%TO.C,U1*%
X59690000Y-74930000D02*
X39370000Y-74930000D01*
X39370000Y-74930000D02*
X39370000Y-52070000D01*
X39370000Y-52070000D02*
X59690000Y-52070000D01*
X59690000Y-52070000D02*
X59690000Y-74930000D01*
%TD*%
%LPC*%
D13*
%TO.C,REF\u002A\u002A*%
X33320000Y-71200000D03*
%TD*%
%TO.C,REF\u002A\u002A*%
X134320000Y-71200000D03*
%TD*%
D14*
%TO.C,J1*%
X35560000Y-64770000D03*
D15*
X33060000Y-64770000D03*
X30560000Y-64770000D03*
X28060000Y-64770000D03*
%TD*%
D16*
%TO.C,SW3*%
X101190000Y-57440000D03*
X94690000Y-57440000D03*
X101190000Y-61940000D03*
X94690000Y-61940000D03*
%TD*%
%TO.C,SW2*%
X91590000Y-57440000D03*
X85090000Y-57440000D03*
X91590000Y-61940000D03*
X85090000Y-61940000D03*
%TD*%
%TO.C,SW1*%
X81430000Y-57440000D03*
X74930000Y-57440000D03*
X81430000Y-61940000D03*
X74930000Y-61940000D03*
%TD*%
D17*
%TO.C,D3*%
X76710000Y-73750000D03*
X80010000Y-73750000D03*
X80010000Y-68850000D03*
X76710000Y-68850000D03*
%TD*%
%TO.C,D4*%
X84330000Y-73660000D03*
X87630000Y-73660000D03*
X87630000Y-68760000D03*
X84330000Y-68760000D03*
%TD*%
%TO.C,D6*%
X98680000Y-73660000D03*
X101980000Y-73660000D03*
X101980000Y-68760000D03*
X98680000Y-68760000D03*
%TD*%
D18*
%TO.C,J2*%
X113040000Y-53340000D03*
D19*
X115580000Y-53340000D03*
X118120000Y-53340000D03*
X120660000Y-53340000D03*
%TD*%
D17*
%TO.C,D2*%
X69090000Y-73660000D03*
X72390000Y-73660000D03*
X72390000Y-68760000D03*
X69090000Y-68760000D03*
%TD*%
D19*
%TO.C,SW4*%
X80660000Y-53975000D03*
X78120000Y-53975000D03*
D18*
X75580000Y-53975000D03*
%TD*%
D17*
%TO.C,D1*%
X61850000Y-73660000D03*
X65150000Y-73660000D03*
X65150000Y-68760000D03*
X61850000Y-68760000D03*
%TD*%
%TO.C,D5*%
X91950000Y-73660000D03*
X95250000Y-73660000D03*
X95250000Y-68760000D03*
X91950000Y-68760000D03*
%TD*%
D20*
%TO.C,U1*%
X57150000Y-69850000D03*
X57150000Y-67310000D03*
X57150000Y-64770000D03*
X57150000Y-62230000D03*
X57150000Y-59690000D03*
X57150000Y-57150000D03*
X57150000Y-54610000D03*
X41910000Y-54610000D03*
X41910000Y-57150000D03*
X41910000Y-59690000D03*
X41910000Y-62230000D03*
X41910000Y-64770000D03*
X41910000Y-67310000D03*
X41910000Y-69850000D03*
%TD*%
D21*
%TO.C,R1*%
X54610000Y-64135000D03*
D22*
X44450000Y-64135000D03*
%TD*%
D21*
%TO.C,R3*%
X54610000Y-57785000D03*
D22*
X44450000Y-57785000D03*
%TD*%
D21*
%TO.C,R2*%
X54610000Y-60960000D03*
D22*
X44450000Y-60960000D03*
%TD*%
D21*
%TO.C,R4*%
X44450000Y-54610000D03*
D22*
X54610000Y-54610000D03*
%TD*%
%LPD*%
M02*
