%TF.GenerationSoftware,KiCad,Pcbnew,7.0.9*%
%TF.CreationDate,2024-05-14T19:27:58+09:00*%
%TF.ProjectId,06_WRITER,30365f57-5249-4544-9552-2e6b69636164,rev?*%
%TF.SameCoordinates,Original*%
%TF.FileFunction,Copper,L2,Bot*%
%TF.FilePolarity,Positive*%
%FSLAX46Y46*%
G04 Gerber Fmt 4.6, Leading zero omitted, Abs format (unit mm)*
G04 Created by KiCad (PCBNEW 7.0.9) date 2024-05-14 19:27:58*
%MOMM*%
%LPD*%
G01*
G04 APERTURE LIST*
%TA.AperFunction,ComponentPad*%
%ADD10R,1.700000X1.700000*%
%TD*%
%TA.AperFunction,ComponentPad*%
%ADD11O,1.700000X1.700000*%
%TD*%
%TA.AperFunction,ComponentPad*%
%ADD12O,1.000000X2.100000*%
%TD*%
%TA.AperFunction,ComponentPad*%
%ADD13O,1.000000X1.800000*%
%TD*%
%TA.AperFunction,ComponentPad*%
%ADD14C,2.000000*%
%TD*%
%TA.AperFunction,ViaPad*%
%ADD15C,0.800000*%
%TD*%
%TA.AperFunction,Conductor*%
%ADD16C,0.600000*%
%TD*%
%TA.AperFunction,Conductor*%
%ADD17C,1.000000*%
%TD*%
%TA.AperFunction,Conductor*%
%ADD18C,0.200000*%
%TD*%
%TA.AperFunction,Conductor*%
%ADD19C,0.250000*%
%TD*%
G04 APERTURE END LIST*
D10*
%TO.P,J2,1,Pin_1*%
%TO.N,unconnected-(J2-Pin_1-Pad1)*%
X175260000Y-97155000D03*
D11*
%TO.P,J2,2,Pin_2*%
%TO.N,RX*%
X175260000Y-99695000D03*
%TO.P,J2,3,Pin_3*%
%TO.N,NRST*%
X172720000Y-97155000D03*
%TO.P,J2,4,Pin_4*%
%TO.N,TX*%
X172720000Y-99695000D03*
%TO.P,J2,5,Pin_5*%
%TO.N,BOOT0*%
X170180000Y-97155000D03*
%TO.P,J2,6,Pin_6*%
%TO.N,GND*%
X170180000Y-99695000D03*
%TO.P,J2,7,Pin_7*%
%TO.N,unconnected-(J2-Pin_7-Pad7)*%
X167640000Y-97155000D03*
%TO.P,J2,8,Pin_8*%
%TO.N,+3V3*%
X167640000Y-99695000D03*
%TD*%
D12*
%TO.P,J1,S1,SHIELD*%
%TO.N,unconnected-(J1-SHIELD-PadS1)*%
X175770000Y-71490000D03*
D13*
X175770000Y-67310000D03*
D12*
X167130000Y-71490000D03*
D13*
X167130000Y-67310000D03*
%TD*%
D14*
%TO.P,SW2,1,1*%
%TO.N,+3V3*%
X173010000Y-81990000D03*
X173010000Y-75490000D03*
%TO.P,SW2,2,2*%
%TO.N,BOOT0*%
X177510000Y-81990000D03*
X177510000Y-75490000D03*
%TD*%
%TO.P,SW1,1,1*%
%TO.N,GND*%
X173030000Y-92150000D03*
X173030000Y-85650000D03*
%TO.P,SW1,2,2*%
%TO.N,NRST*%
X177530000Y-92150000D03*
X177530000Y-85650000D03*
%TD*%
D15*
%TO.N,GND*%
X170345000Y-78740000D03*
X170815000Y-84455000D03*
X167640000Y-78740000D03*
X170180000Y-93980000D03*
X167015326Y-82344219D03*
X165100000Y-98425000D03*
%TO.N,D-*%
X171255201Y-74100201D03*
X170180000Y-81915000D03*
%TO.N,RX*%
X174625000Y-83820000D03*
%TO.N,+3V3*%
X175019655Y-93194351D03*
%TD*%
D16*
%TO.N,GND*%
X168910000Y-81917793D02*
X168910000Y-78740000D01*
X168321321Y-93980000D02*
X165100000Y-97201321D01*
X167015326Y-82344219D02*
X168483574Y-82344219D01*
X170815000Y-83822793D02*
X168910000Y-81917793D01*
X170815000Y-84455000D02*
X170815000Y-83822793D01*
D17*
X168910000Y-78740000D02*
X167640000Y-78740000D01*
X170345000Y-78740000D02*
X168910000Y-78740000D01*
D16*
X170180000Y-93980000D02*
X168321321Y-93980000D01*
X168483574Y-82344219D02*
X168910000Y-81917793D01*
X165100000Y-97201321D02*
X165100000Y-98425000D01*
D18*
%TO.N,D-*%
X171255201Y-74100201D02*
X171255201Y-80839799D01*
X171255201Y-80839799D02*
X170180000Y-81915000D01*
D19*
%TO.N,RX*%
X179070000Y-83820000D02*
X180340000Y-85090000D01*
X174625000Y-83820000D02*
X179070000Y-83820000D01*
X180340000Y-85090000D02*
X180340000Y-94615000D01*
X180340000Y-94615000D02*
X175260000Y-99695000D01*
%TO.N,+3V3*%
X171450000Y-96764006D02*
X171450000Y-97546701D01*
X171450000Y-97546701D02*
X170571701Y-98425000D01*
X175019655Y-93194351D02*
X171450000Y-96764006D01*
X168910000Y-98425000D02*
X167640000Y-99695000D01*
X170571701Y-98425000D02*
X168910000Y-98425000D01*
%TD*%
M02*
