M48
; DRILL file {KiCad 7.0.9} date Tue May 14 19:27:59 2024
; FORMAT={-:-/ absolute / inch / decimal}
; #@! TF.CreationDate,2024-05-14T19:27:59+09:00
; #@! TF.GenerationSoftware,Kicad,Pcbnew,7.0.9
; #@! TF.FileFunction,Plated,1,2,PTH
FMAT,2
INCH
; #@! TA.AperFunction,Plated,PTH,ViaDrill
T1C0.0157
; #@! TA.AperFunction,Plated,PTH,ComponentDrill
T2C0.0236
; #@! TA.AperFunction,Plated,PTH,ComponentDrill
T3C0.0394
; #@! TA.AperFunction,Plated,PTH,ComponentDrill
T4C0.0433
%
G90
G05
T1
X6.5Y-3.875
X6.5754Y-3.2419
X6.6Y-3.1
X6.7Y-3.225
X6.7Y-3.7
X6.7065Y-3.1
X6.725Y-3.325
X6.7423Y-2.9173
X6.875Y-3.3
X6.8905Y-3.6691
T3
X6.6Y-3.825
X6.6Y-3.925
X6.7Y-3.825
X6.7Y-3.925
X6.8Y-3.825
X6.8Y-3.925
X6.9Y-3.825
X6.9Y-3.925
T4
X6.8114Y-2.972
X6.8114Y-3.228
X6.8122Y-3.372
X6.8122Y-3.628
X6.9886Y-2.972
X6.9886Y-3.228
X6.9894Y-3.372
X6.9894Y-3.628
T2
G00X6.5799Y-2.6657
M15
G01X6.5799Y-2.6343
M16
G05
G00X6.5799Y-2.8362
M15
G01X6.5799Y-2.7929
M16
G05
G00X6.9201Y-2.6657
M15
G01X6.9201Y-2.6343
M16
G05
G00X6.9201Y-2.8362
M15
G01X6.9201Y-2.7929
M16
G05
T0
M30
