%TF.GenerationSoftware,KiCad,Pcbnew,7.0.9*%
%TF.CreationDate,2024-05-14T19:27:58+09:00*%
%TF.ProjectId,06_WRITER,30365f57-5249-4544-9552-2e6b69636164,rev?*%
%TF.SameCoordinates,Original*%
%TF.FileFunction,Soldermask,Top*%
%TF.FilePolarity,Negative*%
%FSLAX46Y46*%
G04 Gerber Fmt 4.6, Leading zero omitted, Abs format (unit mm)*
G04 Created by KiCad (PCBNEW 7.0.9) date 2024-05-14 19:27:58*
%MOMM*%
%LPD*%
G01*
G04 APERTURE LIST*
G04 Aperture macros list*
%AMRoundRect*
0 Rectangle with rounded corners*
0 $1 Rounding radius*
0 $2 $3 $4 $5 $6 $7 $8 $9 X,Y pos of 4 corners*
0 Add a 4 corners polygon primitive as box body*
4,1,4,$2,$3,$4,$5,$6,$7,$8,$9,$2,$3,0*
0 Add four circle primitives for the rounded corners*
1,1,$1+$1,$2,$3*
1,1,$1+$1,$4,$5*
1,1,$1+$1,$6,$7*
1,1,$1+$1,$8,$9*
0 Add four rect primitives between the rounded corners*
20,1,$1+$1,$2,$3,$4,$5,0*
20,1,$1+$1,$4,$5,$6,$7,0*
20,1,$1+$1,$6,$7,$8,$9,0*
20,1,$1+$1,$8,$9,$2,$3,0*%
G04 Aperture macros list end*
%ADD10R,1.700000X1.700000*%
%ADD11O,1.700000X1.700000*%
%ADD12RoundRect,0.250000X0.625000X-0.375000X0.625000X0.375000X-0.625000X0.375000X-0.625000X-0.375000X0*%
%ADD13R,0.300000X1.400000*%
%ADD14RoundRect,0.250000X-0.475000X0.250000X-0.475000X-0.250000X0.475000X-0.250000X0.475000X0.250000X0*%
%ADD15RoundRect,0.250000X0.450000X-0.262500X0.450000X0.262500X-0.450000X0.262500X-0.450000X-0.262500X0*%
%ADD16RoundRect,0.250000X-0.450000X0.262500X-0.450000X-0.262500X0.450000X-0.262500X0.450000X0.262500X0*%
%ADD17C,0.650000*%
%ADD18RoundRect,0.150000X0.150000X0.425000X-0.150000X0.425000X-0.150000X-0.425000X0.150000X-0.425000X0*%
%ADD19RoundRect,0.075000X0.075000X0.500000X-0.075000X0.500000X-0.075000X-0.500000X0.075000X-0.500000X0*%
%ADD20O,1.000000X2.100000*%
%ADD21O,1.000000X1.800000*%
%ADD22RoundRect,0.250000X-0.262500X-0.450000X0.262500X-0.450000X0.262500X0.450000X-0.262500X0.450000X0*%
%ADD23C,2.000000*%
%ADD24RoundRect,0.250000X0.475000X-0.250000X0.475000X0.250000X-0.475000X0.250000X-0.475000X-0.250000X0*%
G04 APERTURE END LIST*
D10*
%TO.C,J2*%
X175260000Y-97155000D03*
D11*
X175260000Y-99695000D03*
X172720000Y-97155000D03*
X172720000Y-99695000D03*
X170180000Y-97155000D03*
X170180000Y-99695000D03*
X167640000Y-97155000D03*
X167640000Y-99695000D03*
%TD*%
D12*
%TO.C,D2*%
X165100000Y-85855000D03*
X165100000Y-83055000D03*
%TD*%
D13*
%TO.C,U1*%
X169545000Y-80350000D03*
X169045000Y-80350000D03*
X168545000Y-80350000D03*
X168045000Y-80350000D03*
X167545000Y-80350000D03*
X167545000Y-84750000D03*
X168045000Y-84750000D03*
X168545000Y-84750000D03*
X169045000Y-84750000D03*
X169545000Y-84750000D03*
%TD*%
D14*
%TO.C,C1*%
X167005000Y-87950000D03*
X167005000Y-89850000D03*
%TD*%
D15*
%TO.C,R2*%
X167640000Y-77112500D03*
X167640000Y-75287500D03*
%TD*%
%TO.C,R1*%
X170180000Y-77112500D03*
X170180000Y-75287500D03*
%TD*%
D16*
%TO.C,R3*%
X165100000Y-79097500D03*
X165100000Y-80922500D03*
%TD*%
D17*
%TO.C,J1*%
X174340000Y-70990000D03*
X168560000Y-70990000D03*
D18*
X174650000Y-72065000D03*
X173850000Y-72065000D03*
D19*
X172700000Y-72065000D03*
X171700000Y-72065000D03*
X171200000Y-72065000D03*
X170200000Y-72065000D03*
D18*
X169050000Y-72065000D03*
X168250000Y-72065000D03*
X168250000Y-72065000D03*
X169050000Y-72065000D03*
D19*
X169700000Y-72065000D03*
X170700000Y-72065000D03*
X172200000Y-72065000D03*
X173200000Y-72065000D03*
D18*
X173850000Y-72065000D03*
X174650000Y-72065000D03*
D20*
X175770000Y-71490000D03*
D21*
X175770000Y-67310000D03*
D20*
X167130000Y-71490000D03*
D21*
X167130000Y-67310000D03*
%TD*%
D22*
%TO.C,R4*%
X166092500Y-93345000D03*
X167917500Y-93345000D03*
%TD*%
D23*
%TO.C,SW2*%
X173010000Y-81990000D03*
X173010000Y-75490000D03*
X177510000Y-81990000D03*
X177510000Y-75490000D03*
%TD*%
D12*
%TO.C,D1*%
X165100000Y-76965000D03*
X165100000Y-74165000D03*
%TD*%
D24*
%TO.C,C2*%
X169545000Y-89850000D03*
X169545000Y-87950000D03*
%TD*%
D23*
%TO.C,SW1*%
X173030000Y-92150000D03*
X173030000Y-85650000D03*
X177530000Y-92150000D03*
X177530000Y-85650000D03*
%TD*%
M02*
