M48
; DRILL file {KiCad 7.0.9} date Tue May 14 12:43:38 2024
; FORMAT={-:-/ absolute / inch / decimal}
; #@! TF.CreationDate,2024-05-14T12:43:38+09:00
; #@! TF.GenerationSoftware,Kicad,Pcbnew,7.0.9
; #@! TF.FileFunction,Plated,1,2,PTH
FMAT,2
INCH
; #@! TA.AperFunction,Plated,PTH,ViaDrill
T1C0.0157
; #@! TA.AperFunction,Plated,PTH,ComponentDrill
T2C0.0300
; #@! TA.AperFunction,Plated,PTH,ComponentDrill
T3C0.0374
; #@! TA.AperFunction,Plated,PTH,ComponentDrill
T4C0.0394
%
G90
G05
T1
X2.075Y-4.125
X2.125Y-4.6
X2.2Y-4.525
X2.275Y-4.125
X2.35Y-4.6
X2.4Y-3.325
X2.4Y-4.525
X2.475Y-4.125
X2.55Y-4.6
X2.575Y-3.5
X2.575Y-3.575
X2.6Y-4.525
X2.675Y-4.125
X2.7284Y-3.5919
X2.75Y-4.6
X2.775Y-4.875
X2.8Y-3.4
X2.8Y-4.525
X2.83Y-5.6
X2.875Y-3.525
X2.875Y-4.325
X2.88Y-5.6392
X2.9Y-3.35
X2.925Y-3.45
X2.925Y-4.125
X2.95Y-4.6
X2.95Y-4.7215
X2.975Y-4.875
X2.975Y-5.025
X2.99Y-5.7
X3.025Y-3.55
X3.025Y-5.075
X3.05Y-3.4
X3.075Y-4.125
X3.1Y-3.5
X3.125Y-5.125
X3.15Y-4.6
X3.15Y-4.7
X3.2Y-4.525
X3.2Y-4.7
X3.2Y-4.9
X3.2Y-4.9394
X3.2153Y-4.8622
X3.2208Y-5.075
X3.225Y-3.475
X3.225Y-3.625
X3.2398Y-4.8314
X3.24Y-5.6392
X3.25Y-3.35
X3.25Y-4.125
X3.25Y-5.4
X3.275Y-5.1
X3.2933Y-4.8352
X3.3Y-4.7285
X3.3Y-5.6215
X3.35Y-3.725
X3.35Y-4.3
X3.35Y-4.6
X3.35Y-4.7
X3.35Y-5.2
X3.35Y-5.4
X3.375Y-5.475
X3.4Y-3.3
X3.4Y-3.9
X3.4Y-3.95
X3.4Y-4.7
X3.4Y-4.9
X3.4Y-4.975
X3.411Y-4.15
X3.45Y-4.35
X3.4704Y-4.8741
X3.5Y-4.7033
X3.5Y-4.9
X3.5Y-4.95
X3.5Y-5.4969
X3.525Y-3.5
X3.525Y-3.625
X3.525Y-4.125
X3.525Y-5.425
X3.53Y-5.66
X3.55Y-4.6
X3.55Y-5.0
X3.56Y-5.63
X3.575Y-5.0759
X3.5841Y-4.7585
X3.6Y-4.525
X3.6Y-5.45
X3.6117Y-4.8117
X3.625Y-4.7
X3.625Y-5.0571
X3.65Y-5.45
X3.675Y-4.125
X3.7Y-4.8
X3.7068Y-4.7568
X3.75Y-4.6
X3.75Y-5.225
X3.775Y-4.975
X3.8Y-4.525
X3.8Y-4.75
X3.825Y-3.55
X3.8466Y-4.7466
X3.85Y-4.6
X3.9Y-4.125
X3.91Y-3.43
X3.925Y-4.825
X3.975Y-3.5
X4.0Y-4.525
X4.025Y-3.55
X4.025Y-3.6
X4.05Y-4.6
X4.05Y-4.8
X4.075Y-5.425
X4.1Y-4.125
X4.15Y-3.45
X4.15Y-3.55
X4.15Y-4.9
X4.2Y-4.525
X4.225Y-3.85
X4.25Y-3.95
X4.25Y-4.6
X4.3Y-3.625
X4.3Y-4.9
X4.325Y-3.975
X4.325Y-4.125
X4.35Y-3.35
X4.375Y-4.9
X4.4Y-4.525
X4.425Y-3.95
X4.45Y-4.6
X4.5Y-3.975
X4.525Y-4.15
X4.6Y-4.525
X4.65Y-4.6
X4.675Y-4.3
X4.675Y-4.75
X4.7Y-4.125
X4.725Y-4.35
X4.7835Y-4.475
X4.8Y-4.35
X4.825Y-4.575
X4.86Y-3.91
T2
X1.9122Y-4.25
X1.9122Y-4.4114
X2.0122Y-4.25
X2.0122Y-4.4114
X2.1122Y-4.25
X2.1122Y-4.4114
X2.2122Y-4.25
X2.2122Y-4.4114
X2.3122Y-4.25
X2.3122Y-4.4114
X2.4122Y-4.25
X2.4122Y-4.4114
X2.5122Y-4.25
X2.5122Y-4.4114
X2.6122Y-4.25
X2.6122Y-4.4114
X2.7122Y-4.25
X2.7122Y-4.4114
X2.8122Y-4.25
X2.8122Y-4.4114
X2.9122Y-4.25
X2.9122Y-4.4114
X3.0122Y-4.25
X3.0122Y-4.4114
X3.1122Y-4.25
X3.1122Y-4.4114
X3.2122Y-4.25
X3.2122Y-4.4114
X3.3122Y-3.4626
X3.3122Y-3.624
X3.3122Y-4.25
X3.3122Y-4.4114
X3.4122Y-3.4626
X3.4122Y-3.624
X3.4122Y-4.25
X3.4122Y-4.4114
X3.5122Y-4.25
X3.5122Y-4.4114
X3.6122Y-4.25
X3.6122Y-4.4114
X3.7122Y-4.25
X3.7122Y-4.4114
X3.8122Y-4.25
X3.8122Y-4.4114
X3.9122Y-4.25
X3.9122Y-4.4114
X4.0122Y-4.25
X4.0122Y-4.4114
X4.1122Y-4.25
X4.1122Y-4.4114
X4.2122Y-4.25
X4.2122Y-4.4114
X4.3122Y-4.25
X4.3122Y-4.4114
X4.4122Y-4.25
X4.4122Y-4.4114
X4.5122Y-4.25
X4.5122Y-4.4114
X4.6122Y-4.25
X4.6122Y-4.4114
X4.7122Y-4.25
X4.7122Y-4.4114
X4.8122Y-4.25
X4.8122Y-4.4114
T3
X3.56Y-5.9
X3.6584Y-5.9
X3.7569Y-5.9
X3.8553Y-5.9
T4
X2.57Y-5.7896
X2.57Y-5.8896
X2.57Y-5.9896
X2.57Y-6.0896
X2.97Y-5.87
X2.97Y-5.97
X3.07Y-5.87
X3.07Y-5.97
X3.17Y-5.87
X3.17Y-5.97
X3.27Y-5.87
X3.27Y-5.97
T0
M30
