%TF.GenerationSoftware,KiCad,Pcbnew,7.0.9*%
%TF.CreationDate,2024-12-10T16:14:57+09:00*%
%TF.ProjectId,02-LINE,30322d4c-494e-4452-9e6b-696361645f70,rev?*%
%TF.SameCoordinates,Original*%
%TF.FileFunction,Soldermask,Top*%
%TF.FilePolarity,Negative*%
%FSLAX46Y46*%
G04 Gerber Fmt 4.6, Leading zero omitted, Abs format (unit mm)*
G04 Created by KiCad (PCBNEW 7.0.9) date 2024-12-10 16:14:57*
%MOMM*%
%LPD*%
G01*
G04 APERTURE LIST*
G04 Aperture macros list*
%AMRoundRect*
0 Rectangle with rounded corners*
0 $1 Rounding radius*
0 $2 $3 $4 $5 $6 $7 $8 $9 X,Y pos of 4 corners*
0 Add a 4 corners polygon primitive as box body*
4,1,4,$2,$3,$4,$5,$6,$7,$8,$9,$2,$3,0*
0 Add four circle primitives for the rounded corners*
1,1,$1+$1,$2,$3*
1,1,$1+$1,$4,$5*
1,1,$1+$1,$6,$7*
1,1,$1+$1,$8,$9*
0 Add four rect primitives between the rounded corners*
20,1,$1+$1,$2,$3,$4,$5,0*
20,1,$1+$1,$4,$5,$6,$7,0*
20,1,$1+$1,$6,$7,$8,$9,0*
20,1,$1+$1,$8,$9,$2,$3,0*%
G04 Aperture macros list end*
%ADD10RoundRect,0.200000X0.275000X-0.200000X0.275000X0.200000X-0.275000X0.200000X-0.275000X-0.200000X0*%
%ADD11RoundRect,0.140000X0.021213X-0.219203X0.219203X-0.021213X-0.021213X0.219203X-0.219203X0.021213X0*%
%ADD12RoundRect,0.250000X-0.132583X0.503814X-0.503814X0.132583X0.132583X-0.503814X0.503814X-0.132583X0*%
%ADD13RoundRect,0.140000X-0.219203X-0.021213X-0.021213X-0.219203X0.219203X0.021213X0.021213X0.219203X0*%
%ADD14RoundRect,0.200000X0.200000X0.275000X-0.200000X0.275000X-0.200000X-0.275000X0.200000X-0.275000X0*%
%ADD15RoundRect,0.200000X-0.275000X0.200000X-0.275000X-0.200000X0.275000X-0.200000X0.275000X0.200000X0*%
%ADD16RoundRect,0.075000X0.441942X0.548008X-0.548008X-0.441942X-0.441942X-0.548008X0.548008X0.441942X0*%
%ADD17RoundRect,0.075000X-0.441942X0.548008X-0.548008X0.441942X0.441942X-0.548008X0.548008X-0.441942X0*%
%ADD18RoundRect,0.140000X0.219203X0.021213X0.021213X0.219203X-0.219203X-0.021213X-0.021213X-0.219203X0*%
%ADD19C,3.200000*%
%ADD20RoundRect,0.200000X0.053033X-0.335876X0.335876X-0.053033X-0.053033X0.335876X-0.335876X0.053033X0*%
%ADD21RoundRect,0.243750X-0.456250X0.243750X-0.456250X-0.243750X0.456250X-0.243750X0.456250X0.243750X0*%
%ADD22RoundRect,0.250000X0.600000X0.725000X-0.600000X0.725000X-0.600000X-0.725000X0.600000X-0.725000X0*%
%ADD23O,1.700000X1.950000*%
%ADD24RoundRect,0.200000X0.335876X0.053033X0.053033X0.335876X-0.335876X-0.053033X-0.053033X-0.335876X0*%
%ADD25RoundRect,0.140000X-0.021213X0.219203X-0.219203X0.021213X0.021213X-0.219203X0.219203X-0.021213X0*%
%ADD26C,1.524000*%
%ADD27R,1.700000X1.700000*%
%ADD28O,1.700000X1.700000*%
G04 APERTURE END LIST*
D10*
%TO.C,R15*%
X148590000Y-107505000D03*
X148590000Y-105855000D03*
%TD*%
D11*
%TO.C,C8*%
X155755214Y-132655730D03*
X156434036Y-131976908D03*
%TD*%
D12*
%TO.C,FB1*%
X154645235Y-119354765D03*
X153354765Y-120645235D03*
%TD*%
D13*
%TO.C,C3*%
X155755214Y-126896908D03*
X156434036Y-127575730D03*
%TD*%
D14*
%TO.C,R21*%
X181102000Y-113538000D03*
X179452000Y-113538000D03*
%TD*%
%TO.C,R17*%
X160845000Y-113538000D03*
X159195000Y-113538000D03*
%TD*%
D10*
%TO.C,R25*%
X138430000Y-107505000D03*
X138430000Y-105855000D03*
%TD*%
D15*
%TO.C,R31*%
X146304000Y-91885000D03*
X146304000Y-93535000D03*
%TD*%
D16*
%TO.C,U1*%
X154885106Y-128396532D03*
X154531553Y-128042979D03*
X154178000Y-127689426D03*
X153824446Y-127335872D03*
X153470893Y-126982319D03*
X153117339Y-126628765D03*
X152763786Y-126275212D03*
X152410233Y-125921659D03*
X152056679Y-125568105D03*
X151703126Y-125214552D03*
X151349573Y-124860999D03*
X150996019Y-124507445D03*
X150642466Y-124153892D03*
X150288912Y-123800338D03*
X149935359Y-123446785D03*
X149581806Y-123093232D03*
D17*
X146859444Y-123093232D03*
X146505891Y-123446785D03*
X146152338Y-123800338D03*
X145798784Y-124153892D03*
X145445231Y-124507445D03*
X145091677Y-124860999D03*
X144738124Y-125214552D03*
X144384571Y-125568105D03*
X144031017Y-125921659D03*
X143677464Y-126275212D03*
X143323911Y-126628765D03*
X142970357Y-126982319D03*
X142616804Y-127335872D03*
X142263250Y-127689426D03*
X141909697Y-128042979D03*
X141556144Y-128396532D03*
D16*
X141556144Y-131118894D03*
X141909697Y-131472447D03*
X142263250Y-131826000D03*
X142616804Y-132179554D03*
X142970357Y-132533107D03*
X143323911Y-132886661D03*
X143677464Y-133240214D03*
X144031017Y-133593767D03*
X144384571Y-133947321D03*
X144738124Y-134300874D03*
X145091677Y-134654427D03*
X145445231Y-135007981D03*
X145798784Y-135361534D03*
X146152338Y-135715088D03*
X146505891Y-136068641D03*
X146859444Y-136422194D03*
D17*
X149581806Y-136422194D03*
X149935359Y-136068641D03*
X150288912Y-135715088D03*
X150642466Y-135361534D03*
X150996019Y-135007981D03*
X151349573Y-134654427D03*
X151703126Y-134300874D03*
X152056679Y-133947321D03*
X152410233Y-133593767D03*
X152763786Y-133240214D03*
X153117339Y-132886661D03*
X153470893Y-132533107D03*
X153824446Y-132179554D03*
X154178000Y-131826000D03*
X154531553Y-131472447D03*
X154885106Y-131118894D03*
%TD*%
D14*
%TO.C,R36*%
X125285000Y-113538000D03*
X123635000Y-113538000D03*
%TD*%
D18*
%TO.C,C10*%
X153132036Y-122749730D03*
X152453214Y-122070908D03*
%TD*%
D14*
%TO.C,R37*%
X120205000Y-113538000D03*
X118555000Y-113538000D03*
%TD*%
%TO.C,R20*%
X176276000Y-113538000D03*
X174626000Y-113538000D03*
%TD*%
D10*
%TO.C,R11*%
X168910000Y-107505000D03*
X168910000Y-105855000D03*
%TD*%
D18*
%TO.C,C1*%
X155025411Y-126069411D03*
X154346589Y-125390589D03*
%TD*%
D14*
%TO.C,R19*%
X171005000Y-113538000D03*
X169355000Y-113538000D03*
%TD*%
D10*
%TO.C,R10*%
X163830000Y-107505000D03*
X163830000Y-105855000D03*
%TD*%
D14*
%TO.C,R32*%
X145605000Y-113538000D03*
X143955000Y-113538000D03*
%TD*%
D10*
%TO.C,R14*%
X183896000Y-107505000D03*
X183896000Y-105855000D03*
%TD*%
D19*
%TO.C,REF\u002A\u002A*%
X184000000Y-92000000D03*
%TD*%
D18*
%TO.C,C9*%
X152370036Y-123511730D03*
X151691214Y-122832908D03*
%TD*%
D10*
%TO.C,R29*%
X118110000Y-107505000D03*
X118110000Y-105855000D03*
%TD*%
D18*
%TO.C,C7*%
X139670036Y-129861730D03*
X138991214Y-129182908D03*
%TD*%
D10*
%TO.C,R12*%
X173990000Y-107505000D03*
X173990000Y-105855000D03*
%TD*%
D13*
%TO.C,C5*%
X139838625Y-128252319D03*
X140517447Y-128931141D03*
%TD*%
D15*
%TO.C,R3*%
X141000000Y-98175000D03*
X141000000Y-99825000D03*
%TD*%
D14*
%TO.C,R33*%
X140525000Y-113538000D03*
X138875000Y-113538000D03*
%TD*%
%TO.C,R38*%
X115125000Y-113538000D03*
X113475000Y-113538000D03*
%TD*%
D20*
%TO.C,R1*%
X155416637Y-135185682D03*
X156583363Y-134018956D03*
%TD*%
D14*
%TO.C,R22*%
X186245000Y-113538000D03*
X184595000Y-113538000D03*
%TD*%
D13*
%TO.C,C6*%
X145087214Y-137056908D03*
X145766036Y-137735730D03*
%TD*%
D19*
%TO.C,REF\u002A\u002A*%
X132000000Y-135000000D03*
%TD*%
D14*
%TO.C,R16*%
X155765000Y-113538000D03*
X154115000Y-113538000D03*
%TD*%
D10*
%TO.C,R8*%
X153670000Y-107505000D03*
X153670000Y-105855000D03*
%TD*%
D14*
%TO.C,R39*%
X150685000Y-92710000D03*
X149035000Y-92710000D03*
%TD*%
D21*
%TO.C,D1*%
X141000000Y-102062500D03*
X141000000Y-103937500D03*
%TD*%
D10*
%TO.C,R26*%
X133350000Y-107505000D03*
X133350000Y-105855000D03*
%TD*%
D14*
%TO.C,R23*%
X150685000Y-113538000D03*
X149035000Y-113538000D03*
%TD*%
D10*
%TO.C,R9*%
X158750000Y-107505000D03*
X158750000Y-105855000D03*
%TD*%
D19*
%TO.C,REF\u002A\u002A*%
X116000000Y-92000000D03*
%TD*%
D10*
%TO.C,R30*%
X113030000Y-107505000D03*
X113030000Y-105855000D03*
%TD*%
D22*
%TO.C,J3*%
X129000000Y-101000000D03*
D23*
X126500000Y-101000000D03*
X124000000Y-101000000D03*
X121500000Y-101000000D03*
X119000000Y-101000000D03*
%TD*%
D24*
%TO.C,R2*%
X139000000Y-131000000D03*
X137833274Y-129833274D03*
%TD*%
D14*
%TO.C,R34*%
X135445000Y-113538000D03*
X133795000Y-113538000D03*
%TD*%
D19*
%TO.C,REF\u002A\u002A*%
X168000000Y-135000000D03*
%TD*%
D10*
%TO.C,R27*%
X128270000Y-107505000D03*
X128270000Y-105855000D03*
%TD*%
D14*
%TO.C,R18*%
X165925000Y-113538000D03*
X164275000Y-113538000D03*
%TD*%
D10*
%TO.C,R28*%
X123190000Y-107505000D03*
X123190000Y-105855000D03*
%TD*%
D14*
%TO.C,R35*%
X130365000Y-113538000D03*
X128715000Y-113538000D03*
%TD*%
D25*
%TO.C,C4*%
X145512036Y-122070908D03*
X144833214Y-122749730D03*
%TD*%
D10*
%TO.C,R13*%
X179070000Y-107505000D03*
X179070000Y-105855000D03*
%TD*%
%TO.C,R24*%
X143510000Y-107505000D03*
X143510000Y-105855000D03*
%TD*%
D25*
%TO.C,C2*%
X140940036Y-126388908D03*
X140261214Y-127067730D03*
%TD*%
D26*
%TO.C,U16*%
X115570000Y-111470000D03*
X113030000Y-111470000D03*
X115570000Y-115570000D03*
X113030000Y-115570000D03*
%TD*%
%TO.C,U17*%
X151130000Y-90660000D03*
X148590000Y-90660000D03*
X151130000Y-94760000D03*
X148590000Y-94760000D03*
%TD*%
%TO.C,U7*%
X181610000Y-111470000D03*
X179070000Y-111470000D03*
X181610000Y-115570000D03*
X179070000Y-115570000D03*
%TD*%
%TO.C,U6*%
X176530000Y-111470000D03*
X173990000Y-111470000D03*
X176530000Y-115570000D03*
X173990000Y-115570000D03*
%TD*%
%TO.C,U3*%
X161290000Y-111470000D03*
X158750000Y-111470000D03*
X161290000Y-115570000D03*
X158750000Y-115570000D03*
%TD*%
%TO.C,U9*%
X151130000Y-111470000D03*
X148590000Y-111470000D03*
X151130000Y-115570000D03*
X148590000Y-115570000D03*
%TD*%
%TO.C,U12*%
X135890000Y-111470000D03*
X133350000Y-111470000D03*
X135890000Y-115570000D03*
X133350000Y-115570000D03*
%TD*%
%TO.C,U8*%
X186690000Y-111470000D03*
X184150000Y-111470000D03*
X186690000Y-115570000D03*
X184150000Y-115570000D03*
%TD*%
%TO.C,U10*%
X146050000Y-111470000D03*
X143510000Y-111470000D03*
X146050000Y-115570000D03*
X143510000Y-115570000D03*
%TD*%
%TO.C,U5*%
X171450000Y-111470000D03*
X168910000Y-111470000D03*
X171450000Y-115570000D03*
X168910000Y-115570000D03*
%TD*%
%TO.C,U14*%
X125730000Y-111470000D03*
X123190000Y-111470000D03*
X125730000Y-115570000D03*
X123190000Y-115570000D03*
%TD*%
%TO.C,U2*%
X156210000Y-111470000D03*
X153670000Y-111470000D03*
X156210000Y-115570000D03*
X153670000Y-115570000D03*
%TD*%
%TO.C,U13*%
X130810000Y-111470000D03*
X128270000Y-111470000D03*
X130810000Y-115570000D03*
X128270000Y-115570000D03*
%TD*%
%TO.C,U11*%
X140970000Y-111470000D03*
X138430000Y-111470000D03*
X140970000Y-115570000D03*
X138430000Y-115570000D03*
%TD*%
%TO.C,U4*%
X166370000Y-111470000D03*
X163830000Y-111470000D03*
X166370000Y-115570000D03*
X163830000Y-115570000D03*
%TD*%
D27*
%TO.C,J2*%
X146050000Y-102616000D03*
D28*
X146050000Y-100076000D03*
X148590000Y-102616000D03*
X148590000Y-100076000D03*
X151130000Y-102616000D03*
X151130000Y-100076000D03*
X153670000Y-102616000D03*
X153670000Y-100076000D03*
%TD*%
D26*
%TO.C,U15*%
X120650000Y-111470000D03*
X118110000Y-111470000D03*
X120650000Y-115570000D03*
X118110000Y-115570000D03*
%TD*%
M02*
