%TF.GenerationSoftware,KiCad,Pcbnew,7.0.9*%
%TF.CreationDate,2024-12-10T16:14:57+09:00*%
%TF.ProjectId,02-LINE,30322d4c-494e-4452-9e6b-696361645f70,rev?*%
%TF.SameCoordinates,Original*%
%TF.FileFunction,Legend,Bot*%
%TF.FilePolarity,Positive*%
%FSLAX46Y46*%
G04 Gerber Fmt 4.6, Leading zero omitted, Abs format (unit mm)*
G04 Created by KiCad (PCBNEW 7.0.9) date 2024-12-10 16:14:57*
%MOMM*%
%LPD*%
G01*
G04 APERTURE LIST*
G04 Aperture macros list*
%AMRoundRect*
0 Rectangle with rounded corners*
0 $1 Rounding radius*
0 $2 $3 $4 $5 $6 $7 $8 $9 X,Y pos of 4 corners*
0 Add a 4 corners polygon primitive as box body*
4,1,4,$2,$3,$4,$5,$6,$7,$8,$9,$2,$3,0*
0 Add four circle primitives for the rounded corners*
1,1,$1+$1,$2,$3*
1,1,$1+$1,$4,$5*
1,1,$1+$1,$6,$7*
1,1,$1+$1,$8,$9*
0 Add four rect primitives between the rounded corners*
20,1,$1+$1,$2,$3,$4,$5,0*
20,1,$1+$1,$4,$5,$6,$7,0*
20,1,$1+$1,$6,$7,$8,$9,0*
20,1,$1+$1,$8,$9,$2,$3,0*%
G04 Aperture macros list end*
%ADD10C,0.150000*%
%ADD11C,0.100000*%
%ADD12C,0.120000*%
%ADD13C,3.200000*%
%ADD14RoundRect,0.250000X0.600000X0.725000X-0.600000X0.725000X-0.600000X-0.725000X0.600000X-0.725000X0*%
%ADD15O,1.700000X1.950000*%
%ADD16C,1.524000*%
%ADD17R,0.900000X1.500000*%
%ADD18R,1.500000X0.900000*%
%ADD19R,1.700000X1.700000*%
%ADD20O,1.700000X1.700000*%
%ADD21RoundRect,0.150000X1.120000X0.150000X-1.120000X0.150000X-1.120000X-0.150000X1.120000X-0.150000X0*%
G04 APERTURE END LIST*
D10*
X176424819Y-97145714D02*
X176424819Y-96574286D01*
X176424819Y-96860000D02*
X175424819Y-96860000D01*
X175424819Y-96860000D02*
X175567676Y-96764762D01*
X175567676Y-96764762D02*
X175662914Y-96669524D01*
X175662914Y-96669524D02*
X175710533Y-96574286D01*
X160664285Y-101114819D02*
X161235713Y-101114819D01*
X160949999Y-101114819D02*
X160949999Y-100114819D01*
X160949999Y-100114819D02*
X161045237Y-100257676D01*
X161045237Y-100257676D02*
X161140475Y-100352914D01*
X161140475Y-100352914D02*
X161235713Y-100400533D01*
X142364819Y-88935714D02*
X142364819Y-88364286D01*
X142364819Y-88650000D02*
X141364819Y-88650000D01*
X141364819Y-88650000D02*
X141507676Y-88554762D01*
X141507676Y-88554762D02*
X141602914Y-88459524D01*
X141602914Y-88459524D02*
X141650533Y-88364286D01*
X138484285Y-98294819D02*
X139055713Y-98294819D01*
X138769999Y-98294819D02*
X138769999Y-97294819D01*
X138769999Y-97294819D02*
X138865237Y-97437676D01*
X138865237Y-97437676D02*
X138960475Y-97532914D01*
X138960475Y-97532914D02*
X139055713Y-97580533D01*
X127784819Y-97145714D02*
X127784819Y-96574286D01*
X127784819Y-96860000D02*
X126784819Y-96860000D01*
X126784819Y-96860000D02*
X126927676Y-96764762D01*
X126927676Y-96764762D02*
X127022914Y-96669524D01*
X127022914Y-96669524D02*
X127070533Y-96574286D01*
X155444819Y-88755714D02*
X155444819Y-88184286D01*
X155444819Y-88470000D02*
X154444819Y-88470000D01*
X154444819Y-88470000D02*
X154587676Y-88374762D01*
X154587676Y-88374762D02*
X154682914Y-88279524D01*
X154682914Y-88279524D02*
X154730533Y-88184286D01*
D11*
X167637782Y-90708014D02*
X168066353Y-90708014D01*
X167852068Y-90708014D02*
X167852068Y-89958014D01*
X167852068Y-89958014D02*
X167923496Y-90065157D01*
X167923496Y-90065157D02*
X167994925Y-90136585D01*
X167994925Y-90136585D02*
X168066353Y-90172300D01*
X137157782Y-90708014D02*
X137586353Y-90708014D01*
X137372068Y-90708014D02*
X137372068Y-89958014D01*
X137372068Y-89958014D02*
X137443496Y-90065157D01*
X137443496Y-90065157D02*
X137514925Y-90136585D01*
X137514925Y-90136585D02*
X137586353Y-90172300D01*
%TO.C,U16*%
X116550000Y-109670000D02*
X116050000Y-109170000D01*
X116550000Y-117870000D02*
X112050000Y-117870000D01*
X112050000Y-117870000D02*
X112050000Y-109170000D01*
X112050000Y-109170000D02*
X116550000Y-109170000D01*
X116550000Y-109170000D02*
X116550000Y-117870000D01*
D12*
%TO.C,D5*%
X171620000Y-96360000D02*
X171620000Y-89060000D01*
X177120000Y-96360000D02*
X177120000Y-89060000D01*
X171620000Y-89060000D02*
X172770000Y-89060000D01*
%TO.C,D6*%
X161450000Y-96310000D02*
X168750000Y-96310000D01*
X161450000Y-101810000D02*
X168750000Y-101810000D01*
X168750000Y-96310000D02*
X168750000Y-97460000D01*
%TO.C,D4*%
X146260000Y-89150000D02*
X146260000Y-96450000D01*
X140760000Y-89150000D02*
X140760000Y-96450000D01*
X146260000Y-96450000D02*
X145110000Y-96450000D01*
D11*
%TO.C,U17*%
X152110000Y-88860000D02*
X151610000Y-88360000D01*
X152110000Y-97060000D02*
X147610000Y-97060000D01*
X147610000Y-97060000D02*
X147610000Y-88360000D01*
X147610000Y-88360000D02*
X152110000Y-88360000D01*
X152110000Y-88360000D02*
X152110000Y-97060000D01*
%TO.C,U7*%
X182590000Y-109670000D02*
X182090000Y-109170000D01*
X182590000Y-117870000D02*
X178090000Y-117870000D01*
X178090000Y-117870000D02*
X178090000Y-109170000D01*
X178090000Y-109170000D02*
X182590000Y-109170000D01*
X182590000Y-109170000D02*
X182590000Y-117870000D01*
%TO.C,U6*%
X177510000Y-109670000D02*
X177010000Y-109170000D01*
X177510000Y-117870000D02*
X173010000Y-117870000D01*
X173010000Y-117870000D02*
X173010000Y-109170000D01*
X173010000Y-109170000D02*
X177510000Y-109170000D01*
X177510000Y-109170000D02*
X177510000Y-117870000D01*
%TO.C,U3*%
X162270000Y-109670000D02*
X161770000Y-109170000D01*
X162270000Y-117870000D02*
X157770000Y-117870000D01*
X157770000Y-117870000D02*
X157770000Y-109170000D01*
X157770000Y-109170000D02*
X162270000Y-109170000D01*
X162270000Y-109170000D02*
X162270000Y-117870000D01*
%TO.C,U9*%
X152110000Y-109670000D02*
X151610000Y-109170000D01*
X152110000Y-117870000D02*
X147610000Y-117870000D01*
X147610000Y-117870000D02*
X147610000Y-109170000D01*
X147610000Y-109170000D02*
X152110000Y-109170000D01*
X152110000Y-109170000D02*
X152110000Y-117870000D01*
%TO.C,U12*%
X136870000Y-109670000D02*
X136370000Y-109170000D01*
X136870000Y-117870000D02*
X132370000Y-117870000D01*
X132370000Y-117870000D02*
X132370000Y-109170000D01*
X132370000Y-109170000D02*
X136870000Y-109170000D01*
X136870000Y-109170000D02*
X136870000Y-117870000D01*
%TO.C,U8*%
X187670000Y-109670000D02*
X187170000Y-109170000D01*
X187670000Y-117870000D02*
X183170000Y-117870000D01*
X183170000Y-117870000D02*
X183170000Y-109170000D01*
X183170000Y-109170000D02*
X187670000Y-109170000D01*
X187670000Y-109170000D02*
X187670000Y-117870000D01*
%TO.C,U10*%
X147030000Y-109670000D02*
X146530000Y-109170000D01*
X147030000Y-117870000D02*
X142530000Y-117870000D01*
X142530000Y-117870000D02*
X142530000Y-109170000D01*
X142530000Y-109170000D02*
X147030000Y-109170000D01*
X147030000Y-109170000D02*
X147030000Y-117870000D01*
%TO.C,U5*%
X172430000Y-109670000D02*
X171930000Y-109170000D01*
X172430000Y-117870000D02*
X167930000Y-117870000D01*
X167930000Y-117870000D02*
X167930000Y-109170000D01*
X167930000Y-109170000D02*
X172430000Y-109170000D01*
X172430000Y-109170000D02*
X172430000Y-117870000D01*
%TO.C,U14*%
X126710000Y-109670000D02*
X126210000Y-109170000D01*
X126710000Y-117870000D02*
X122210000Y-117870000D01*
X122210000Y-117870000D02*
X122210000Y-109170000D01*
X122210000Y-109170000D02*
X126710000Y-109170000D01*
X126710000Y-109170000D02*
X126710000Y-117870000D01*
D12*
%TO.C,D3*%
X138270000Y-102190000D02*
X130970000Y-102190000D01*
X138270000Y-96690000D02*
X130970000Y-96690000D01*
X130970000Y-102190000D02*
X130970000Y-101040000D01*
D11*
%TO.C,U2*%
X157190000Y-109670000D02*
X156690000Y-109170000D01*
X157190000Y-117870000D02*
X152690000Y-117870000D01*
X152690000Y-117870000D02*
X152690000Y-109170000D01*
X152690000Y-109170000D02*
X157190000Y-109170000D01*
X157190000Y-109170000D02*
X157190000Y-117870000D01*
%TO.C,U13*%
X131790000Y-109670000D02*
X131290000Y-109170000D01*
X131790000Y-117870000D02*
X127290000Y-117870000D01*
X127290000Y-117870000D02*
X127290000Y-109170000D01*
X127290000Y-109170000D02*
X131790000Y-109170000D01*
X131790000Y-109170000D02*
X131790000Y-117870000D01*
D12*
%TO.C,D2*%
X122980000Y-96360000D02*
X122980000Y-89060000D01*
X128480000Y-96360000D02*
X128480000Y-89060000D01*
X122980000Y-89060000D02*
X124130000Y-89060000D01*
%TO.C,D7*%
X159340000Y-88970000D02*
X159340000Y-96270000D01*
X153840000Y-88970000D02*
X153840000Y-96270000D01*
X159340000Y-96270000D02*
X158190000Y-96270000D01*
D11*
%TO.C,U11*%
X141950000Y-109670000D02*
X141450000Y-109170000D01*
X141950000Y-117870000D02*
X137450000Y-117870000D01*
X137450000Y-117870000D02*
X137450000Y-109170000D01*
X137450000Y-109170000D02*
X141950000Y-109170000D01*
X141950000Y-109170000D02*
X141950000Y-117870000D01*
%TO.C,U4*%
X167350000Y-109670000D02*
X166850000Y-109170000D01*
X167350000Y-117870000D02*
X162850000Y-117870000D01*
X162850000Y-117870000D02*
X162850000Y-109170000D01*
X162850000Y-109170000D02*
X167350000Y-109170000D01*
X167350000Y-109170000D02*
X167350000Y-117870000D01*
D12*
%TO.C,J2*%
X155000000Y-98746000D02*
X155000000Y-103946000D01*
X144720000Y-98746000D02*
X155000000Y-98746000D01*
X144720000Y-98746000D02*
X144720000Y-101346000D01*
X147320000Y-101346000D02*
X147320000Y-103946000D01*
X144720000Y-101346000D02*
X147320000Y-101346000D01*
X144720000Y-102616000D02*
X144720000Y-103946000D01*
X147320000Y-103946000D02*
X155000000Y-103946000D01*
X144720000Y-103946000D02*
X146050000Y-103946000D01*
D11*
%TO.C,U15*%
X121630000Y-109670000D02*
X121130000Y-109170000D01*
X121630000Y-117870000D02*
X117130000Y-117870000D01*
X117130000Y-117870000D02*
X117130000Y-109170000D01*
X117130000Y-109170000D02*
X121630000Y-109170000D01*
X121630000Y-109170000D02*
X121630000Y-117870000D01*
%TO.C,U19*%
X167100000Y-90170000D02*
X163100000Y-90170000D01*
X163100000Y-90170000D02*
X163100000Y-95250000D01*
X163100000Y-95250000D02*
X167100000Y-95250000D01*
X167100000Y-95250000D02*
X167100000Y-90170000D01*
%TO.C,U18*%
X136620000Y-90170000D02*
X132620000Y-90170000D01*
X132620000Y-90170000D02*
X132620000Y-95250000D01*
X132620000Y-95250000D02*
X136620000Y-95250000D01*
X136620000Y-95250000D02*
X136620000Y-90170000D01*
%TD*%
%LPC*%
D13*
%TO.C,REF\u002A\u002A*%
X184000000Y-92000000D03*
%TD*%
%TO.C,REF\u002A\u002A*%
X132000000Y-135000000D03*
%TD*%
%TO.C,REF\u002A\u002A*%
X116000000Y-92000000D03*
%TD*%
D14*
%TO.C,J3*%
X129000000Y-101000000D03*
D15*
X126500000Y-101000000D03*
X124000000Y-101000000D03*
X121500000Y-101000000D03*
X119000000Y-101000000D03*
%TD*%
D13*
%TO.C,REF\u002A\u002A*%
X168000000Y-135000000D03*
%TD*%
D16*
%TO.C,U16*%
X115570000Y-111470000D03*
X113030000Y-111470000D03*
X115570000Y-115570000D03*
X113030000Y-115570000D03*
%TD*%
D17*
%TO.C,D5*%
X176020000Y-95160000D03*
X172720000Y-95160000D03*
X172720000Y-90260000D03*
X176020000Y-90260000D03*
%TD*%
D18*
%TO.C,D6*%
X162650000Y-100710000D03*
X162650000Y-97410000D03*
X167550000Y-97410000D03*
X167550000Y-100710000D03*
%TD*%
D17*
%TO.C,D4*%
X141860000Y-90350000D03*
X145160000Y-90350000D03*
X145160000Y-95250000D03*
X141860000Y-95250000D03*
%TD*%
D16*
%TO.C,U17*%
X151130000Y-90660000D03*
X148590000Y-90660000D03*
X151130000Y-94760000D03*
X148590000Y-94760000D03*
%TD*%
%TO.C,U7*%
X181610000Y-111470000D03*
X179070000Y-111470000D03*
X181610000Y-115570000D03*
X179070000Y-115570000D03*
%TD*%
%TO.C,U6*%
X176530000Y-111470000D03*
X173990000Y-111470000D03*
X176530000Y-115570000D03*
X173990000Y-115570000D03*
%TD*%
%TO.C,U3*%
X161290000Y-111470000D03*
X158750000Y-111470000D03*
X161290000Y-115570000D03*
X158750000Y-115570000D03*
%TD*%
%TO.C,U9*%
X151130000Y-111470000D03*
X148590000Y-111470000D03*
X151130000Y-115570000D03*
X148590000Y-115570000D03*
%TD*%
%TO.C,U12*%
X135890000Y-111470000D03*
X133350000Y-111470000D03*
X135890000Y-115570000D03*
X133350000Y-115570000D03*
%TD*%
%TO.C,U8*%
X186690000Y-111470000D03*
X184150000Y-111470000D03*
X186690000Y-115570000D03*
X184150000Y-115570000D03*
%TD*%
%TO.C,U10*%
X146050000Y-111470000D03*
X143510000Y-111470000D03*
X146050000Y-115570000D03*
X143510000Y-115570000D03*
%TD*%
%TO.C,U5*%
X171450000Y-111470000D03*
X168910000Y-111470000D03*
X171450000Y-115570000D03*
X168910000Y-115570000D03*
%TD*%
%TO.C,U14*%
X125730000Y-111470000D03*
X123190000Y-111470000D03*
X125730000Y-115570000D03*
X123190000Y-115570000D03*
%TD*%
D18*
%TO.C,D3*%
X137070000Y-97790000D03*
X137070000Y-101090000D03*
X132170000Y-101090000D03*
X132170000Y-97790000D03*
%TD*%
D16*
%TO.C,U2*%
X156210000Y-111470000D03*
X153670000Y-111470000D03*
X156210000Y-115570000D03*
X153670000Y-115570000D03*
%TD*%
%TO.C,U13*%
X130810000Y-111470000D03*
X128270000Y-111470000D03*
X130810000Y-115570000D03*
X128270000Y-115570000D03*
%TD*%
D17*
%TO.C,D2*%
X127380000Y-95160000D03*
X124080000Y-95160000D03*
X124080000Y-90260000D03*
X127380000Y-90260000D03*
%TD*%
%TO.C,D7*%
X154940000Y-90170000D03*
X158240000Y-90170000D03*
X158240000Y-95070000D03*
X154940000Y-95070000D03*
%TD*%
D16*
%TO.C,U11*%
X140970000Y-111470000D03*
X138430000Y-111470000D03*
X140970000Y-115570000D03*
X138430000Y-115570000D03*
%TD*%
%TO.C,U4*%
X166370000Y-111470000D03*
X163830000Y-111470000D03*
X166370000Y-115570000D03*
X163830000Y-115570000D03*
%TD*%
D19*
%TO.C,J2*%
X146050000Y-102616000D03*
D20*
X146050000Y-100076000D03*
X148590000Y-102616000D03*
X148590000Y-100076000D03*
X151130000Y-102616000D03*
X151130000Y-100076000D03*
X153670000Y-102616000D03*
X153670000Y-100076000D03*
%TD*%
D16*
%TO.C,U15*%
X120650000Y-111470000D03*
X118110000Y-111470000D03*
X120650000Y-115570000D03*
X118110000Y-115570000D03*
%TD*%
D21*
%TO.C,U19*%
X168910000Y-91440000D03*
X168910000Y-92710000D03*
X168910000Y-93980000D03*
X161290000Y-93980000D03*
X161290000Y-92710000D03*
X161290000Y-91440000D03*
%TD*%
%TO.C,U18*%
X138430000Y-91440000D03*
X138430000Y-92710000D03*
X138430000Y-93980000D03*
X130810000Y-93980000D03*
X130810000Y-92710000D03*
X130810000Y-91440000D03*
%TD*%
%LPD*%
M02*
