%TF.GenerationSoftware,KiCad,Pcbnew,7.0.9*%
%TF.CreationDate,2025-01-29T17:13:48+09:00*%
%TF.ProjectId,04-RESCUE,30342d52-4553-4435-9545-2e6b69636164,rev?*%
%TF.SameCoordinates,Original*%
%TF.FileFunction,Copper,L1,Top*%
%TF.FilePolarity,Positive*%
%FSLAX46Y46*%
G04 Gerber Fmt 4.6, Leading zero omitted, Abs format (unit mm)*
G04 Created by KiCad (PCBNEW 7.0.9) date 2025-01-29 17:13:48*
%MOMM*%
%LPD*%
G01*
G04 APERTURE LIST*
G04 Aperture macros list*
%AMRoundRect*
0 Rectangle with rounded corners*
0 $1 Rounding radius*
0 $2 $3 $4 $5 $6 $7 $8 $9 X,Y pos of 4 corners*
0 Add a 4 corners polygon primitive as box body*
4,1,4,$2,$3,$4,$5,$6,$7,$8,$9,$2,$3,0*
0 Add four circle primitives for the rounded corners*
1,1,$1+$1,$2,$3*
1,1,$1+$1,$4,$5*
1,1,$1+$1,$6,$7*
1,1,$1+$1,$8,$9*
0 Add four rect primitives between the rounded corners*
20,1,$1+$1,$2,$3,$4,$5,0*
20,1,$1+$1,$4,$5,$6,$7,0*
20,1,$1+$1,$6,$7,$8,$9,0*
20,1,$1+$1,$8,$9,$2,$3,0*%
G04 Aperture macros list end*
%TA.AperFunction,ComponentPad*%
%ADD10R,1.700000X1.700000*%
%TD*%
%TA.AperFunction,ComponentPad*%
%ADD11O,1.700000X1.700000*%
%TD*%
%TA.AperFunction,ComponentPad*%
%ADD12RoundRect,0.250000X-0.600000X-0.725000X0.600000X-0.725000X0.600000X0.725000X-0.600000X0.725000X0*%
%TD*%
%TA.AperFunction,ComponentPad*%
%ADD13O,1.700000X1.950000*%
%TD*%
%TA.AperFunction,ComponentPad*%
%ADD14RoundRect,0.250000X-0.725000X0.600000X-0.725000X-0.600000X0.725000X-0.600000X0.725000X0.600000X0*%
%TD*%
%TA.AperFunction,ComponentPad*%
%ADD15O,1.950000X1.700000*%
%TD*%
%TA.AperFunction,ComponentPad*%
%ADD16RoundRect,0.250000X0.600000X0.725000X-0.600000X0.725000X-0.600000X-0.725000X0.600000X-0.725000X0*%
%TD*%
%TA.AperFunction,ComponentPad*%
%ADD17C,1.524000*%
%TD*%
%TA.AperFunction,ViaPad*%
%ADD18C,0.800000*%
%TD*%
%TA.AperFunction,Conductor*%
%ADD19C,0.250000*%
%TD*%
%TA.AperFunction,Conductor*%
%ADD20C,2.000000*%
%TD*%
%TA.AperFunction,Conductor*%
%ADD21C,0.400000*%
%TD*%
G04 APERTURE END LIST*
D10*
%TO.P,M4,1,PWM*%
%TO.N,ServoArmRight*%
X155505000Y-97140000D03*
D11*
%TO.P,M4,2,+*%
%TO.N,+5V*%
X155505000Y-94600000D03*
%TO.P,M4,3,-*%
%TO.N,GND*%
X155505000Y-92060000D03*
%TD*%
D12*
%TO.P,J2,1,Pin_1*%
%TO.N,+5V*%
X87630000Y-73660000D03*
D13*
%TO.P,J2,2,Pin_2*%
%TO.N,UART2_RX*%
X90130000Y-73660000D03*
%TO.P,J2,3,Pin_3*%
%TO.N,UART2_TX*%
X92630000Y-73660000D03*
%TO.P,J2,4,Pin_4*%
%TO.N,GND*%
X95130000Y-73660000D03*
%TD*%
D12*
%TO.P,J6,1,Pin_1*%
%TO.N,+5V*%
X105410000Y-73660000D03*
D13*
%TO.P,J6,2,Pin_2*%
%TO.N,UART3_RX*%
X107910000Y-73660000D03*
%TO.P,J6,3,Pin_3*%
%TO.N,UART3_TX*%
X110410000Y-73660000D03*
%TO.P,J6,4,Pin_4*%
%TO.N,GND*%
X112910000Y-73660000D03*
%TD*%
D10*
%TO.P,M5,1,PWM*%
%TO.N,ServoHandLeft*%
X45155000Y-81930000D03*
D11*
%TO.P,M5,2,+*%
%TO.N,+5V*%
X45155000Y-84470000D03*
%TO.P,M5,3,-*%
%TO.N,GND*%
X45155000Y-87010000D03*
%TD*%
D10*
%TO.P,M3,1,PWM*%
%TO.N,ServoArmLeft*%
X45085000Y-92075000D03*
D11*
%TO.P,M3,2,+*%
%TO.N,+5V*%
X45085000Y-94615000D03*
%TO.P,M3,3,-*%
%TO.N,GND*%
X45085000Y-97155000D03*
%TD*%
D14*
%TO.P,J1,1,Pin_1*%
%TO.N,+5V*%
X38354000Y-72958000D03*
D15*
%TO.P,J1,2,Pin_2*%
%TO.N,UART4_TX*%
X38354000Y-75458000D03*
%TO.P,J1,3,Pin_3*%
%TO.N,UART4_RX*%
X38354000Y-77958000D03*
%TO.P,J1,4,Pin_4*%
%TO.N,GND*%
X38354000Y-80458000D03*
%TD*%
D10*
%TO.P,M6,1,PWM*%
%TO.N,ServoHandRight*%
X155575000Y-86995000D03*
D11*
%TO.P,M6,2,+*%
%TO.N,+5V*%
X155575000Y-84455000D03*
%TO.P,M6,3,-*%
%TO.N,GND*%
X155575000Y-81915000D03*
%TD*%
D16*
%TO.P,J5,1,Pin_1*%
%TO.N,GND*%
X79950000Y-90530000D03*
D13*
%TO.P,J5,2,Pin_2*%
%TO.N,Net-(J5-Pin_2)*%
X77450000Y-90530000D03*
%TO.P,J5,3,Pin_3*%
%TO.N,Net-(J5-Pin_3)*%
X74950000Y-90530000D03*
%TO.P,J5,4,Pin_4*%
%TO.N,+3V3*%
X72450000Y-90530000D03*
%TD*%
D17*
%TO.P,U2,1,3V3*%
%TO.N,+3V3*%
X163000000Y-87380000D03*
%TO.P,U2,2,GND*%
%TO.N,GND*%
X163000000Y-89920000D03*
%TO.P,U2,3,SCL*%
%TO.N,SCL*%
X163000000Y-92460000D03*
%TO.P,U2,4,SDA*%
%TO.N,SDA*%
X163000000Y-95000000D03*
%TO.P,U2,5,XSHUT*%
%TO.N,XSHUT1*%
X160460000Y-92460000D03*
%TO.P,U2,6,GPIO*%
%TO.N,unconnected-(U2-GPIO-Pad6)*%
X160460000Y-95000000D03*
%TD*%
D16*
%TO.P,J3,1,Pin_1*%
%TO.N,GND*%
X127500000Y-90530000D03*
D13*
%TO.P,J3,2,Pin_2*%
%TO.N,Net-(J3-Pin_2)*%
X125000000Y-90530000D03*
%TO.P,J3,3,Pin_3*%
%TO.N,Net-(J3-Pin_3)*%
X122500000Y-90530000D03*
%TO.P,J3,4,Pin_4*%
%TO.N,+3V3*%
X120000000Y-90530000D03*
%TD*%
D10*
%TO.P,M1,1,PWM*%
%TO.N,ServoBasket*%
X113030000Y-84440000D03*
D11*
%TO.P,M1,2,+*%
%TO.N,+5V*%
X113030000Y-81900000D03*
%TO.P,M1,3,-*%
%TO.N,GND*%
X113030000Y-79360000D03*
%TD*%
D17*
%TO.P,U3,1,3V3*%
%TO.N,+3V3*%
X36730000Y-95000000D03*
%TO.P,U3,2,GND*%
%TO.N,GND*%
X36730000Y-92460000D03*
%TO.P,U3,3,SCL*%
%TO.N,SCL*%
X36730000Y-89920000D03*
%TO.P,U3,4,SDA*%
%TO.N,SDA*%
X36730000Y-87380000D03*
%TO.P,U3,5,XSHUT*%
%TO.N,XSHUT2*%
X39270000Y-89920000D03*
%TO.P,U3,6,GPIO*%
%TO.N,unconnected-(U3-GPIO-Pad6)*%
X39270000Y-87380000D03*
%TD*%
D10*
%TO.P,J4,1,Pin_1*%
%TO.N,unconnected-(J4-Pin_1-Pad1)*%
X66040000Y-74930000D03*
D11*
%TO.P,J4,2,Pin_2*%
%TO.N,UART1_RX*%
X66040000Y-77470000D03*
%TO.P,J4,3,Pin_3*%
%TO.N,NRST*%
X63500000Y-74930000D03*
%TO.P,J4,4,Pin_4*%
%TO.N,UART1_TX*%
X63500000Y-77470000D03*
%TO.P,J4,5,Pin_5*%
%TO.N,BOOT0*%
X60960000Y-74930000D03*
%TO.P,J4,6,Pin_6*%
%TO.N,GND*%
X60960000Y-77470000D03*
%TO.P,J4,7,Pin_7*%
%TO.N,unconnected-(J4-Pin_7-Pad7)*%
X58420000Y-74930000D03*
%TO.P,J4,8,Pin_8*%
%TO.N,+3V3*%
X58420000Y-77470000D03*
%TD*%
D18*
%TO.N,GND*%
X153200000Y-79600000D03*
X158900000Y-83800000D03*
X160900000Y-89400000D03*
X146000000Y-79600000D03*
X157300000Y-97200000D03*
X161700000Y-96500000D03*
X153200000Y-95700000D03*
X153500000Y-85900000D03*
X151500000Y-84400000D03*
X153600000Y-71000000D03*
X164100000Y-82100000D03*
X163600000Y-71300000D03*
X85090000Y-71374000D03*
X121158000Y-88646000D03*
X59436000Y-81788000D03*
X50292000Y-70866000D03*
X91440000Y-84074000D03*
X91440000Y-75184000D03*
X100330000Y-83312000D03*
X114046000Y-95758000D03*
X49276000Y-89408000D03*
X56642000Y-74930000D03*
X35814000Y-85090000D03*
X124460000Y-93218000D03*
X59436000Y-79756000D03*
X78232000Y-98552000D03*
X89916000Y-82804000D03*
X70612000Y-91948000D03*
X79502000Y-71120000D03*
X109474000Y-76454000D03*
X76962000Y-87630000D03*
X107696000Y-81026000D03*
X51054000Y-80772000D03*
X54610000Y-77470000D03*
X121158000Y-93472000D03*
X87884000Y-75946000D03*
X62738000Y-89408000D03*
X123444000Y-96012000D03*
X84582000Y-85598000D03*
X49276000Y-91948000D03*
X82296000Y-84836000D03*
X113538000Y-86360000D03*
X102616000Y-73914000D03*
X67818000Y-75184000D03*
X42164000Y-93472000D03*
X45212000Y-89408000D03*
X49276000Y-86614000D03*
X43434000Y-85852000D03*
X48514000Y-95250000D03*
X164338000Y-99314000D03*
X100584000Y-88900000D03*
X43180000Y-78740000D03*
X39878000Y-93726000D03*
X40132000Y-76708000D03*
X40132000Y-79248000D03*
X101854000Y-86360000D03*
X62230000Y-79502000D03*
X47244000Y-74422000D03*
X43300000Y-72900000D03*
X42250000Y-89300000D03*
X48514000Y-98044000D03*
X40894000Y-99314000D03*
X108712000Y-86614000D03*
X158800000Y-99400000D03*
X85852000Y-79756000D03*
X87630000Y-90170000D03*
X97536000Y-86106000D03*
X73406000Y-88138000D03*
X66548000Y-82550000D03*
X63754000Y-86614000D03*
X90678000Y-78740000D03*
X101600000Y-80772000D03*
X85598000Y-77470000D03*
X91440000Y-87122000D03*
X70612000Y-89408000D03*
X95250000Y-83058000D03*
X36068000Y-70866000D03*
X35814000Y-99314000D03*
X110998000Y-83820000D03*
X116586000Y-73660000D03*
X160800000Y-83000000D03*
X99568000Y-80772000D03*
X155448000Y-89000000D03*
X93980000Y-78232000D03*
X38150000Y-91250000D03*
X43180000Y-95250000D03*
X125984000Y-98552000D03*
X59436000Y-86614000D03*
X114046000Y-91948000D03*
X95250000Y-94234000D03*
%TO.N,+3V3*%
X86360000Y-76200000D03*
X82738029Y-71683100D03*
X93980000Y-80010000D03*
X78105000Y-76379500D03*
X86995000Y-80010000D03*
X69215000Y-73749500D03*
%TO.N,UART4_TX*%
X73660000Y-74930000D03*
X48260000Y-73660000D03*
%TO.N,UART4_RX*%
X45118518Y-75531482D03*
X74930000Y-74930000D03*
%TO.N,UART2_RX*%
X79961004Y-82852996D03*
%TO.N,UART2_TX*%
X89711736Y-84365500D03*
X83185000Y-83820000D03*
%TO.N,BOOT0*%
X78255049Y-71359549D03*
%TO.N,Net-(J5-Pin_2)*%
X92710000Y-87630000D03*
%TO.N,Net-(J5-Pin_3)*%
X88900000Y-87630000D03*
%TO.N,UART3_RX*%
X79375000Y-80645000D03*
X100965000Y-74295000D03*
%TO.N,UART3_TX*%
X78739109Y-81416134D03*
X100965000Y-76200000D03*
%TO.N,ServoBasket*%
X78105000Y-86905500D03*
%TD*%
D19*
%TO.N,SDA*%
X162600000Y-95000000D02*
X163000000Y-95000000D01*
D20*
%TO.N,+5V*%
X157900000Y-93500000D02*
X156800000Y-94600000D01*
X157900000Y-85745000D02*
X157900000Y-93500000D01*
X156800000Y-94600000D02*
X155505000Y-94600000D01*
X156777081Y-84455000D02*
X156777081Y-84622081D01*
X155575000Y-84455000D02*
X156777081Y-84455000D01*
X156777081Y-84622081D02*
X157900000Y-85745000D01*
X103000000Y-71485000D02*
X142245862Y-71485000D01*
X38354000Y-72958000D02*
X40283000Y-72958000D01*
X87630000Y-73660000D02*
X87630000Y-72685000D01*
X51795000Y-84470000D02*
X56000000Y-84470000D01*
X87630000Y-73660000D02*
X83185000Y-73660000D01*
X87630000Y-72685000D02*
X88830000Y-71485000D01*
X56000000Y-84470000D02*
X45155000Y-84470000D01*
X105410000Y-75482081D02*
X105410000Y-73660000D01*
X155215862Y-84455000D02*
X155575000Y-84455000D01*
X83185000Y-73660000D02*
X72375000Y-84470000D01*
X40283000Y-72958000D02*
X51795000Y-84470000D01*
X142245862Y-71485000D02*
X155215862Y-84455000D01*
X105175000Y-73660000D02*
X103000000Y-71485000D01*
X72375000Y-84470000D02*
X56000000Y-84470000D01*
X111827919Y-81900000D02*
X105410000Y-75482081D01*
X88830000Y-71485000D02*
X103000000Y-71485000D01*
X113030000Y-81900000D02*
X111827919Y-81900000D01*
X105410000Y-73660000D02*
X105175000Y-73660000D01*
D19*
%TO.N,+3V3*%
X80772000Y-73649129D02*
X80274871Y-73649129D01*
X36730000Y-95000000D02*
X41200000Y-90530000D01*
X163000000Y-87380000D02*
X164087000Y-88467000D01*
X127785000Y-98315000D02*
X120000000Y-90530000D01*
X164087000Y-88467000D02*
X164087000Y-96263000D01*
X82738029Y-71683100D02*
X80772000Y-73649129D01*
X78105000Y-75819000D02*
X78105000Y-76379500D01*
X77404805Y-76379500D02*
X74774805Y-73749500D01*
X74774805Y-73749500D02*
X69215000Y-73749500D01*
X86995000Y-76835000D02*
X86995000Y-80010000D01*
X86360000Y-76200000D02*
X86995000Y-76835000D01*
X78105000Y-76379500D02*
X77404805Y-76379500D01*
X164087000Y-96263000D02*
X162035000Y-98315000D01*
X162035000Y-98315000D02*
X127785000Y-98315000D01*
D21*
X93980000Y-80010000D02*
X86995000Y-80010000D01*
D19*
X80274871Y-73649129D02*
X78105000Y-75819000D01*
X41200000Y-90530000D02*
X72450000Y-90530000D01*
%TO.N,UART4_TX*%
X50800000Y-76200000D02*
X72390000Y-76200000D01*
X48260000Y-73660000D02*
X50800000Y-76200000D01*
X72390000Y-76200000D02*
X73660000Y-74930000D01*
%TO.N,UART4_RX*%
X71215000Y-78645000D02*
X74930000Y-74930000D01*
X45118518Y-75531482D02*
X47591482Y-75531482D01*
X47591482Y-75531482D02*
X50705000Y-78645000D01*
X50705000Y-78645000D02*
X71215000Y-78645000D01*
%TO.N,UART2_RX*%
X84009695Y-74985000D02*
X88805000Y-74985000D01*
X77724000Y-82042000D02*
X77724000Y-81270695D01*
X78534996Y-82852996D02*
X77724000Y-82042000D01*
X88805000Y-74985000D02*
X90130000Y-73660000D01*
X77724000Y-81270695D02*
X84009695Y-74985000D01*
X79961004Y-82852996D02*
X78534996Y-82852996D01*
%TO.N,UART2_TX*%
X89622236Y-84455000D02*
X83820000Y-84455000D01*
X83820000Y-84455000D02*
X83185000Y-83820000D01*
X89711736Y-84365500D02*
X89622236Y-84455000D01*
%TO.N,BOOT0*%
X78255049Y-71359549D02*
X64530451Y-71359549D01*
X64530451Y-71359549D02*
X60960000Y-74930000D01*
%TO.N,Net-(J5-Pin_2)*%
X79080000Y-88900000D02*
X77450000Y-90530000D01*
X92710000Y-87630000D02*
X91440000Y-88900000D01*
X91440000Y-88900000D02*
X79080000Y-88900000D01*
%TO.N,Net-(J5-Pin_3)*%
X78105000Y-88900000D02*
X76580000Y-88900000D01*
X88900000Y-87630000D02*
X79375000Y-87630000D01*
X79375000Y-87630000D02*
X78105000Y-88900000D01*
X76580000Y-88900000D02*
X74950000Y-90530000D01*
%TO.N,UART3_RX*%
X79375000Y-80645000D02*
X80010000Y-81280000D01*
X80010000Y-81280000D02*
X93980000Y-81280000D01*
X93980000Y-81280000D02*
X100965000Y-74295000D01*
%TO.N,UART3_TX*%
X95250000Y-81915000D02*
X100965000Y-76200000D01*
X78739109Y-81416134D02*
X79237975Y-81915000D01*
X79237975Y-81915000D02*
X95250000Y-81915000D01*
%TO.N,ServoBasket*%
X86950250Y-85090000D02*
X85134750Y-86905500D01*
X112380000Y-85090000D02*
X86950250Y-85090000D01*
X85134750Y-86905500D02*
X78105000Y-86905500D01*
X113030000Y-84440000D02*
X112380000Y-85090000D01*
%TD*%
%TA.AperFunction,Conductor*%
%TO.N,GND*%
G36*
X88006687Y-70020185D02*
G01*
X88052442Y-70072989D01*
X88062386Y-70142147D01*
X88033361Y-70205703D01*
X88003123Y-70231022D01*
X87955103Y-70259635D01*
X87934250Y-70277297D01*
X87928087Y-70281892D01*
X87905216Y-70296834D01*
X87869578Y-70329641D01*
X87836564Y-70360033D01*
X87817376Y-70376284D01*
X87812869Y-70380102D01*
X87790922Y-70402049D01*
X87722262Y-70465256D01*
X87705471Y-70486827D01*
X87700382Y-70492588D01*
X86637588Y-71555382D01*
X86631827Y-71560471D01*
X86610256Y-71577262D01*
X86547049Y-71645922D01*
X86525102Y-71667869D01*
X86525098Y-71667874D01*
X86505033Y-71691564D01*
X86474641Y-71724578D01*
X86441834Y-71760216D01*
X86426892Y-71783087D01*
X86422297Y-71789250D01*
X86404635Y-71810104D01*
X86356860Y-71890278D01*
X86305828Y-71968390D01*
X86305824Y-71968397D01*
X86294853Y-71993409D01*
X86291335Y-72000244D01*
X86277348Y-72023717D01*
X86277341Y-72023730D01*
X86255161Y-72080575D01*
X86212454Y-72135873D01*
X86146630Y-72159303D01*
X86139644Y-72159500D01*
X83700751Y-72159500D01*
X83633712Y-72139815D01*
X83587957Y-72087011D01*
X83578013Y-72017853D01*
X83582820Y-71997182D01*
X83601966Y-71938256D01*
X83623703Y-71871356D01*
X83643489Y-71683100D01*
X83623703Y-71494844D01*
X83565208Y-71314816D01*
X83470562Y-71150884D01*
X83343900Y-71010212D01*
X83317822Y-70991265D01*
X83190763Y-70898951D01*
X83190758Y-70898948D01*
X83017836Y-70821957D01*
X83017831Y-70821955D01*
X82872030Y-70790965D01*
X82832675Y-70782600D01*
X82643383Y-70782600D01*
X82610926Y-70789498D01*
X82458226Y-70821955D01*
X82458221Y-70821957D01*
X82285299Y-70898948D01*
X82285294Y-70898951D01*
X82132158Y-71010211D01*
X82005495Y-71150885D01*
X81910850Y-71314815D01*
X81910847Y-71314822D01*
X81852356Y-71494840D01*
X81852355Y-71494844D01*
X81834708Y-71662749D01*
X81808123Y-71727363D01*
X81799068Y-71737468D01*
X80549228Y-72987310D01*
X80487905Y-73020795D01*
X80461547Y-73023629D01*
X80357614Y-73023629D01*
X80341993Y-73021904D01*
X80341967Y-73022190D01*
X80334205Y-73021456D01*
X80334204Y-73021456D01*
X80265057Y-73023629D01*
X80235520Y-73023629D01*
X80228637Y-73024498D01*
X80222820Y-73024955D01*
X80176244Y-73026419D01*
X80157000Y-73032010D01*
X80137950Y-73035954D01*
X80118082Y-73038463D01*
X80074755Y-73055617D01*
X80069229Y-73057508D01*
X80024485Y-73070508D01*
X80024481Y-73070510D01*
X80007237Y-73080708D01*
X79989776Y-73089262D01*
X79971145Y-73096639D01*
X79971133Y-73096646D01*
X79933441Y-73124031D01*
X79928558Y-73127238D01*
X79888451Y-73150958D01*
X79874285Y-73165124D01*
X79859495Y-73177756D01*
X79843285Y-73189533D01*
X79843282Y-73189536D01*
X79813581Y-73225438D01*
X79809648Y-73229760D01*
X77721208Y-75318199D01*
X77708951Y-75328020D01*
X77709134Y-75328241D01*
X77703123Y-75333213D01*
X77655772Y-75383636D01*
X77634889Y-75404519D01*
X77634877Y-75404532D01*
X77630621Y-75410017D01*
X77626837Y-75414447D01*
X77594938Y-75448418D01*
X77590559Y-75456383D01*
X77541011Y-75505645D01*
X77472695Y-75520299D01*
X77407302Y-75495693D01*
X77394218Y-75484322D01*
X75275608Y-73365712D01*
X75265785Y-73353450D01*
X75265564Y-73353634D01*
X75260591Y-73347623D01*
X75258588Y-73345742D01*
X75210169Y-73300273D01*
X75199724Y-73289828D01*
X75189280Y-73279383D01*
X75183791Y-73275125D01*
X75179366Y-73271347D01*
X75145387Y-73239438D01*
X75145385Y-73239436D01*
X75145382Y-73239435D01*
X75127834Y-73229788D01*
X75111568Y-73219104D01*
X75095738Y-73206825D01*
X75052973Y-73188318D01*
X75047727Y-73185748D01*
X75006898Y-73163303D01*
X75006897Y-73163302D01*
X74987498Y-73158322D01*
X74969086Y-73152018D01*
X74950703Y-73144062D01*
X74950697Y-73144060D01*
X74904679Y-73136772D01*
X74898957Y-73135587D01*
X74853826Y-73124000D01*
X74853824Y-73124000D01*
X74833789Y-73124000D01*
X74814391Y-73122473D01*
X74806967Y-73121297D01*
X74794610Y-73119340D01*
X74794609Y-73119340D01*
X74748221Y-73123725D01*
X74742383Y-73124000D01*
X69918748Y-73124000D01*
X69851709Y-73104315D01*
X69826600Y-73082974D01*
X69820873Y-73076614D01*
X69820869Y-73076610D01*
X69667734Y-72965351D01*
X69667729Y-72965348D01*
X69494807Y-72888357D01*
X69494802Y-72888355D01*
X69349001Y-72857365D01*
X69309646Y-72849000D01*
X69120354Y-72849000D01*
X69087897Y-72855898D01*
X68935197Y-72888355D01*
X68935192Y-72888357D01*
X68762270Y-72965348D01*
X68762265Y-72965351D01*
X68609129Y-73076611D01*
X68482466Y-73217285D01*
X68387821Y-73381215D01*
X68387818Y-73381222D01*
X68329327Y-73561240D01*
X68329326Y-73561244D01*
X68309540Y-73749500D01*
X68329326Y-73937756D01*
X68329327Y-73937759D01*
X68387818Y-74117777D01*
X68387821Y-74117784D01*
X68482467Y-74281716D01*
X68603401Y-74416026D01*
X68609129Y-74422388D01*
X68762265Y-74533648D01*
X68762270Y-74533651D01*
X68935192Y-74610642D01*
X68935197Y-74610644D01*
X69120354Y-74650000D01*
X69120355Y-74650000D01*
X69309644Y-74650000D01*
X69309646Y-74650000D01*
X69494803Y-74610644D01*
X69667730Y-74533651D01*
X69820871Y-74422388D01*
X69823788Y-74419147D01*
X69826600Y-74416026D01*
X69886087Y-74379379D01*
X69918748Y-74375000D01*
X72725848Y-74375000D01*
X72792887Y-74394685D01*
X72838642Y-74447489D01*
X72848586Y-74516647D01*
X72835095Y-74555622D01*
X72835462Y-74555786D01*
X72833563Y-74560050D01*
X72833234Y-74560999D01*
X72832911Y-74561558D01*
X72832819Y-74561719D01*
X72832818Y-74561722D01*
X72774327Y-74741740D01*
X72774326Y-74741744D01*
X72756679Y-74909649D01*
X72730094Y-74974263D01*
X72721039Y-74984368D01*
X72167228Y-75538181D01*
X72105905Y-75571666D01*
X72079547Y-75574500D01*
X67514500Y-75574500D01*
X67447461Y-75554815D01*
X67401706Y-75502011D01*
X67390500Y-75450500D01*
X67390499Y-74032129D01*
X67390498Y-74032123D01*
X67390085Y-74028284D01*
X67384091Y-73972517D01*
X67382810Y-73969083D01*
X67333797Y-73837671D01*
X67333793Y-73837664D01*
X67247547Y-73722455D01*
X67247544Y-73722452D01*
X67132335Y-73636206D01*
X67132328Y-73636202D01*
X66997482Y-73585908D01*
X66997483Y-73585908D01*
X66937883Y-73579501D01*
X66937881Y-73579500D01*
X66937873Y-73579500D01*
X66937864Y-73579500D01*
X65142129Y-73579500D01*
X65142123Y-73579501D01*
X65082516Y-73585908D01*
X64947671Y-73636202D01*
X64947664Y-73636206D01*
X64832455Y-73722452D01*
X64832452Y-73722455D01*
X64746206Y-73837664D01*
X64746203Y-73837669D01*
X64697189Y-73969083D01*
X64655317Y-74025016D01*
X64589853Y-74049433D01*
X64521580Y-74034581D01*
X64493326Y-74013430D01*
X64371402Y-73891506D01*
X64371395Y-73891501D01*
X64351165Y-73877336D01*
X64325480Y-73859351D01*
X64177834Y-73755967D01*
X64177830Y-73755965D01*
X64163966Y-73749500D01*
X63963663Y-73656097D01*
X63963659Y-73656096D01*
X63963655Y-73656094D01*
X63735413Y-73594938D01*
X63735403Y-73594936D01*
X63500001Y-73574341D01*
X63499611Y-73574341D01*
X63499445Y-73574292D01*
X63494606Y-73573869D01*
X63494691Y-73572896D01*
X63432572Y-73554656D01*
X63386817Y-73501852D01*
X63376873Y-73432694D01*
X63405898Y-73369138D01*
X63411930Y-73362660D01*
X63975734Y-72798857D01*
X64753223Y-72021368D01*
X64814546Y-71987883D01*
X64840904Y-71985049D01*
X77551301Y-71985049D01*
X77618340Y-72004734D01*
X77643449Y-72026075D01*
X77649175Y-72032434D01*
X77649179Y-72032438D01*
X77802314Y-72143697D01*
X77802319Y-72143700D01*
X77975241Y-72220691D01*
X77975246Y-72220693D01*
X78160403Y-72260049D01*
X78160404Y-72260049D01*
X78349693Y-72260049D01*
X78349695Y-72260049D01*
X78534852Y-72220693D01*
X78707779Y-72143700D01*
X78860920Y-72032437D01*
X78987582Y-71891765D01*
X79082228Y-71727833D01*
X79140723Y-71547805D01*
X79160509Y-71359549D01*
X79140723Y-71171293D01*
X79082228Y-70991265D01*
X78987582Y-70827333D01*
X78860920Y-70686661D01*
X78860919Y-70686660D01*
X78707783Y-70575400D01*
X78707778Y-70575397D01*
X78534856Y-70498406D01*
X78534851Y-70498404D01*
X78389050Y-70467414D01*
X78349695Y-70459049D01*
X78160403Y-70459049D01*
X78127946Y-70465947D01*
X77975246Y-70498404D01*
X77975241Y-70498406D01*
X77802319Y-70575397D01*
X77802314Y-70575400D01*
X77649179Y-70686659D01*
X77649175Y-70686663D01*
X77643449Y-70693023D01*
X77583962Y-70729670D01*
X77551301Y-70734049D01*
X64613188Y-70734049D01*
X64597571Y-70732325D01*
X64597544Y-70732611D01*
X64589782Y-70731876D01*
X64520654Y-70734049D01*
X64491101Y-70734049D01*
X64490380Y-70734139D01*
X64484208Y-70734918D01*
X64478396Y-70735375D01*
X64431824Y-70736839D01*
X64431823Y-70736839D01*
X64412580Y-70742430D01*
X64393530Y-70746374D01*
X64373662Y-70748883D01*
X64373660Y-70748884D01*
X64330335Y-70766037D01*
X64324808Y-70767929D01*
X64280061Y-70780930D01*
X64280060Y-70780931D01*
X64262818Y-70791128D01*
X64245350Y-70799686D01*
X64226720Y-70807062D01*
X64226718Y-70807063D01*
X64189027Y-70834447D01*
X64184145Y-70837654D01*
X64144030Y-70861379D01*
X64129859Y-70875549D01*
X64115074Y-70888177D01*
X64098863Y-70899956D01*
X64069160Y-70935859D01*
X64065228Y-70940180D01*
X61415646Y-73589761D01*
X61354323Y-73623246D01*
X61295873Y-73621855D01*
X61195408Y-73594937D01*
X60960001Y-73574341D01*
X60959999Y-73574341D01*
X60724596Y-73594936D01*
X60724586Y-73594938D01*
X60496344Y-73656094D01*
X60496335Y-73656098D01*
X60282171Y-73755964D01*
X60282169Y-73755965D01*
X60088597Y-73891505D01*
X59921505Y-74058597D01*
X59791575Y-74244158D01*
X59736998Y-74287783D01*
X59667500Y-74294977D01*
X59605145Y-74263454D01*
X59588425Y-74244158D01*
X59458494Y-74058597D01*
X59291402Y-73891506D01*
X59291395Y-73891501D01*
X59271165Y-73877336D01*
X59245480Y-73859351D01*
X59097834Y-73755967D01*
X59097830Y-73755965D01*
X59083966Y-73749500D01*
X58883663Y-73656097D01*
X58883659Y-73656096D01*
X58883655Y-73656094D01*
X58655413Y-73594938D01*
X58655403Y-73594936D01*
X58420001Y-73574341D01*
X58419999Y-73574341D01*
X58184596Y-73594936D01*
X58184586Y-73594938D01*
X57956344Y-73656094D01*
X57956335Y-73656098D01*
X57742171Y-73755964D01*
X57742169Y-73755965D01*
X57548597Y-73891505D01*
X57381505Y-74058597D01*
X57245965Y-74252169D01*
X57245964Y-74252171D01*
X57167935Y-74419505D01*
X57149752Y-74458500D01*
X57146098Y-74466335D01*
X57146094Y-74466344D01*
X57084938Y-74694586D01*
X57084936Y-74694596D01*
X57064341Y-74929999D01*
X57064341Y-74930000D01*
X57084936Y-75165403D01*
X57084938Y-75165413D01*
X57146094Y-75393655D01*
X57146099Y-75393669D01*
X57148163Y-75398094D01*
X57158656Y-75467171D01*
X57130137Y-75530955D01*
X57071661Y-75569196D01*
X57035782Y-75574500D01*
X51110453Y-75574500D01*
X51043414Y-75554815D01*
X51022772Y-75538181D01*
X49198960Y-73714369D01*
X49165475Y-73653046D01*
X49163323Y-73639668D01*
X49145674Y-73471744D01*
X49087179Y-73291716D01*
X48992533Y-73127784D01*
X48865871Y-72987112D01*
X48865870Y-72987111D01*
X48712734Y-72875851D01*
X48712729Y-72875848D01*
X48539807Y-72798857D01*
X48539802Y-72798855D01*
X48394001Y-72767865D01*
X48354646Y-72759500D01*
X48165354Y-72759500D01*
X48132897Y-72766398D01*
X47980197Y-72798855D01*
X47980192Y-72798857D01*
X47807270Y-72875848D01*
X47807265Y-72875851D01*
X47654129Y-72987111D01*
X47527466Y-73127785D01*
X47432821Y-73291715D01*
X47432818Y-73291722D01*
X47386636Y-73433857D01*
X47374326Y-73471744D01*
X47354540Y-73660000D01*
X47374326Y-73848256D01*
X47374327Y-73848259D01*
X47432818Y-74028277D01*
X47432821Y-74028284D01*
X47527467Y-74192216D01*
X47622715Y-74297999D01*
X47654129Y-74332888D01*
X47807265Y-74444148D01*
X47807270Y-74444151D01*
X47980192Y-74521142D01*
X47980197Y-74521144D01*
X48165354Y-74560500D01*
X48224548Y-74560500D01*
X48291587Y-74580185D01*
X48312228Y-74596818D01*
X49306095Y-75590686D01*
X50299197Y-76583788D01*
X50309022Y-76596051D01*
X50309243Y-76595869D01*
X50314214Y-76601878D01*
X50336862Y-76623145D01*
X50364635Y-76649226D01*
X50385529Y-76670120D01*
X50391011Y-76674373D01*
X50395443Y-76678157D01*
X50429418Y-76710062D01*
X50446976Y-76719714D01*
X50463235Y-76730395D01*
X50479064Y-76742673D01*
X50521838Y-76761182D01*
X50527056Y-76763738D01*
X50567908Y-76786197D01*
X50587316Y-76791180D01*
X50605717Y-76797480D01*
X50624104Y-76805437D01*
X50667488Y-76812308D01*
X50670119Y-76812725D01*
X50675839Y-76813909D01*
X50720981Y-76825500D01*
X50741016Y-76825500D01*
X50760414Y-76827026D01*
X50780194Y-76830159D01*
X50780195Y-76830160D01*
X50780195Y-76830159D01*
X50780196Y-76830160D01*
X50826584Y-76825775D01*
X50832422Y-76825500D01*
X57035782Y-76825500D01*
X57102821Y-76845185D01*
X57148576Y-76897989D01*
X57158520Y-76967147D01*
X57148163Y-77001906D01*
X57146099Y-77006330D01*
X57146094Y-77006344D01*
X57084938Y-77234586D01*
X57084936Y-77234596D01*
X57064341Y-77469999D01*
X57064341Y-77470000D01*
X57084936Y-77705403D01*
X57084938Y-77705413D01*
X57127272Y-77863407D01*
X57125609Y-77933257D01*
X57086446Y-77991119D01*
X57022218Y-78018623D01*
X57007497Y-78019500D01*
X51015453Y-78019500D01*
X50948414Y-77999815D01*
X50927772Y-77983181D01*
X48092285Y-75147694D01*
X48082462Y-75135432D01*
X48082241Y-75135616D01*
X48077268Y-75129605D01*
X48067105Y-75120061D01*
X48026846Y-75082255D01*
X48011319Y-75066728D01*
X48005957Y-75061365D01*
X48000468Y-75057107D01*
X47996043Y-75053329D01*
X47962064Y-75021420D01*
X47962062Y-75021418D01*
X47962059Y-75021417D01*
X47944511Y-75011770D01*
X47928245Y-75001086D01*
X47912418Y-74988809D01*
X47912417Y-74988808D01*
X47912415Y-74988807D01*
X47869650Y-74970300D01*
X47864404Y-74967730D01*
X47823575Y-74945285D01*
X47823574Y-74945284D01*
X47804175Y-74940304D01*
X47785763Y-74934000D01*
X47767380Y-74926044D01*
X47767374Y-74926042D01*
X47721356Y-74918754D01*
X47715634Y-74917569D01*
X47670503Y-74905982D01*
X47670501Y-74905982D01*
X47650466Y-74905982D01*
X47631068Y-74904455D01*
X47623644Y-74903279D01*
X47611287Y-74901322D01*
X47611286Y-74901322D01*
X47564898Y-74905707D01*
X47559060Y-74905982D01*
X45822266Y-74905982D01*
X45755227Y-74886297D01*
X45730118Y-74864956D01*
X45724391Y-74858596D01*
X45724387Y-74858592D01*
X45571252Y-74747333D01*
X45571247Y-74747330D01*
X45398325Y-74670339D01*
X45398320Y-74670337D01*
X45252519Y-74639347D01*
X45213164Y-74630982D01*
X45023872Y-74630982D01*
X44991415Y-74637880D01*
X44838715Y-74670337D01*
X44838710Y-74670339D01*
X44665788Y-74747330D01*
X44665783Y-74747333D01*
X44512653Y-74858588D01*
X44512643Y-74858597D01*
X44501989Y-74870429D01*
X44442501Y-74907075D01*
X44372644Y-74905742D01*
X44322162Y-74875134D01*
X41412615Y-71965587D01*
X41407524Y-71959822D01*
X41390739Y-71938257D01*
X41322078Y-71875049D01*
X41300129Y-71853100D01*
X41276435Y-71833033D01*
X41207786Y-71769837D01*
X41207785Y-71769836D01*
X41184904Y-71754887D01*
X41178747Y-71750296D01*
X41157894Y-71732634D01*
X41077720Y-71684860D01*
X40999607Y-71633827D01*
X40999604Y-71633825D01*
X40974588Y-71622852D01*
X40967750Y-71619332D01*
X40944275Y-71605344D01*
X40857335Y-71571420D01*
X40820771Y-71555382D01*
X40771881Y-71533937D01*
X40771877Y-71533936D01*
X40771875Y-71533935D01*
X40745387Y-71527227D01*
X40738067Y-71524882D01*
X40721593Y-71518454D01*
X40712614Y-71514951D01*
X40621288Y-71495801D01*
X40617493Y-71494840D01*
X40530819Y-71472891D01*
X40503590Y-71470635D01*
X40495983Y-71469526D01*
X40475986Y-71465334D01*
X40469237Y-71463919D01*
X40469235Y-71463918D01*
X40375990Y-71460062D01*
X40345067Y-71457500D01*
X40345064Y-71457500D01*
X40314035Y-71457500D01*
X40220780Y-71453643D01*
X40220779Y-71453643D01*
X40193652Y-71457024D01*
X40185981Y-71457500D01*
X38291933Y-71457500D01*
X38272521Y-71459108D01*
X38106186Y-71472890D01*
X38106175Y-71472892D01*
X37865120Y-71533936D01*
X37865116Y-71533938D01*
X37721218Y-71597056D01*
X37671410Y-71607500D01*
X37578999Y-71607500D01*
X37578980Y-71607501D01*
X37476203Y-71618000D01*
X37476200Y-71618001D01*
X37309668Y-71673185D01*
X37309663Y-71673187D01*
X37160342Y-71765289D01*
X37036289Y-71889342D01*
X36944187Y-72038663D01*
X36944185Y-72038668D01*
X36930299Y-72080575D01*
X36889001Y-72205203D01*
X36889001Y-72205204D01*
X36889000Y-72205204D01*
X36878500Y-72307983D01*
X36878500Y-72673568D01*
X36876809Y-72693976D01*
X36853500Y-72833665D01*
X36853500Y-73082335D01*
X36865774Y-73155895D01*
X36876809Y-73222025D01*
X36878500Y-73242434D01*
X36878500Y-73608001D01*
X36878501Y-73608019D01*
X36889000Y-73710796D01*
X36889001Y-73710799D01*
X36931042Y-73837669D01*
X36944186Y-73877334D01*
X37035276Y-74025016D01*
X37036289Y-74026657D01*
X37160344Y-74150712D01*
X37315120Y-74246178D01*
X37361845Y-74298126D01*
X37373068Y-74367088D01*
X37345224Y-74431171D01*
X37337706Y-74439398D01*
X37190501Y-74586603D01*
X37190501Y-74586604D01*
X37054967Y-74780165D01*
X37054965Y-74780169D01*
X36955098Y-74994335D01*
X36955094Y-74994344D01*
X36893938Y-75222586D01*
X36893936Y-75222596D01*
X36873341Y-75457999D01*
X36873341Y-75458000D01*
X36893936Y-75693403D01*
X36893938Y-75693413D01*
X36955094Y-75921655D01*
X36955096Y-75921659D01*
X36955097Y-75921663D01*
X36978083Y-75970956D01*
X37054964Y-76135828D01*
X37054965Y-76135830D01*
X37190505Y-76329402D01*
X37357597Y-76496494D01*
X37514595Y-76606425D01*
X37558220Y-76661002D01*
X37565414Y-76730500D01*
X37533891Y-76792855D01*
X37514595Y-76809575D01*
X37357597Y-76919505D01*
X37190506Y-77086597D01*
X37190501Y-77086604D01*
X37054967Y-77280165D01*
X37054965Y-77280169D01*
X36955098Y-77494335D01*
X36955094Y-77494344D01*
X36893938Y-77722586D01*
X36893936Y-77722596D01*
X36873341Y-77957999D01*
X36873341Y-77958000D01*
X36893936Y-78193403D01*
X36893938Y-78193413D01*
X36955094Y-78421655D01*
X36955096Y-78421659D01*
X36955097Y-78421663D01*
X37005031Y-78528746D01*
X37054964Y-78635828D01*
X37054965Y-78635830D01*
X37190505Y-78829402D01*
X37357597Y-78996494D01*
X37515031Y-79106730D01*
X37558656Y-79161307D01*
X37565850Y-79230805D01*
X37534327Y-79293160D01*
X37515032Y-79309880D01*
X37357922Y-79419890D01*
X37357920Y-79419891D01*
X37190894Y-79586917D01*
X37055399Y-79780421D01*
X36955570Y-79994507D01*
X36955567Y-79994513D01*
X36898364Y-80207999D01*
X36898364Y-80208000D01*
X37950031Y-80208000D01*
X37917481Y-80258649D01*
X37879000Y-80389705D01*
X37879000Y-80526295D01*
X37917481Y-80657351D01*
X37950031Y-80708000D01*
X36898364Y-80708000D01*
X36955567Y-80921486D01*
X36955570Y-80921492D01*
X37055399Y-81135577D01*
X37055400Y-81135579D01*
X37190886Y-81329073D01*
X37190891Y-81329079D01*
X37357920Y-81496108D01*
X37357926Y-81496113D01*
X37551420Y-81631599D01*
X37551422Y-81631600D01*
X37765507Y-81731429D01*
X37765516Y-81731433D01*
X37993678Y-81792568D01*
X38104000Y-81802219D01*
X38104000Y-80866018D01*
X38218801Y-80918446D01*
X38320025Y-80933000D01*
X38387975Y-80933000D01*
X38489199Y-80918446D01*
X38604000Y-80866018D01*
X38604000Y-81802219D01*
X38714320Y-81792568D01*
X38714323Y-81792568D01*
X38942483Y-81731433D01*
X38942492Y-81731429D01*
X39156577Y-81631600D01*
X39156579Y-81631599D01*
X39350073Y-81496113D01*
X39350079Y-81496108D01*
X39517105Y-81329082D01*
X39652600Y-81135578D01*
X39752429Y-80921492D01*
X39752432Y-80921486D01*
X39809636Y-80708000D01*
X38757969Y-80708000D01*
X38790519Y-80657351D01*
X38829000Y-80526295D01*
X38829000Y-80389705D01*
X38790519Y-80258649D01*
X38757969Y-80208000D01*
X39809636Y-80208000D01*
X39809635Y-80207999D01*
X39752432Y-79994513D01*
X39752429Y-79994507D01*
X39652600Y-79780422D01*
X39652599Y-79780420D01*
X39517113Y-79586926D01*
X39517108Y-79586920D01*
X39350079Y-79419891D01*
X39350073Y-79419886D01*
X39192967Y-79309880D01*
X39149342Y-79255303D01*
X39142148Y-79185805D01*
X39173671Y-79123450D01*
X39192960Y-79106735D01*
X39350401Y-78996495D01*
X39517495Y-78829401D01*
X39653035Y-78635830D01*
X39752903Y-78421663D01*
X39814063Y-78193408D01*
X39834659Y-77958000D01*
X39814063Y-77722592D01*
X39752903Y-77494337D01*
X39653035Y-77280171D01*
X39653034Y-77280169D01*
X39517494Y-77086597D01*
X39350403Y-76919506D01*
X39259219Y-76855659D01*
X39193401Y-76809573D01*
X39149778Y-76754999D01*
X39142584Y-76685500D01*
X39174106Y-76623145D01*
X39193398Y-76606428D01*
X39350401Y-76496495D01*
X39517495Y-76329401D01*
X39653035Y-76135830D01*
X39752903Y-75921663D01*
X39814063Y-75693408D01*
X39834659Y-75458000D01*
X39814063Y-75222592D01*
X39752903Y-74994337D01*
X39661807Y-74798984D01*
X39651316Y-74729908D01*
X39679836Y-74666124D01*
X39738312Y-74627884D01*
X39808180Y-74627329D01*
X39861871Y-74658899D01*
X45570791Y-80367819D01*
X45604276Y-80429142D01*
X45599292Y-80498834D01*
X45557420Y-80554767D01*
X45491956Y-80579184D01*
X45483110Y-80579500D01*
X44257129Y-80579500D01*
X44257123Y-80579501D01*
X44197516Y-80585908D01*
X44062671Y-80636202D01*
X44062664Y-80636206D01*
X43947455Y-80722452D01*
X43947452Y-80722455D01*
X43861206Y-80837664D01*
X43861202Y-80837671D01*
X43810908Y-80972517D01*
X43804501Y-81032116D01*
X43804500Y-81032135D01*
X43804500Y-82827870D01*
X43804501Y-82827876D01*
X43810908Y-82887483D01*
X43861202Y-83022328D01*
X43861206Y-83022335D01*
X43947452Y-83137544D01*
X43947455Y-83137547D01*
X44069769Y-83229112D01*
X44067620Y-83231982D01*
X44104944Y-83269250D01*
X44119848Y-83337512D01*
X44095480Y-83402995D01*
X44080142Y-83419987D01*
X44047262Y-83450256D01*
X43894524Y-83646493D01*
X43776172Y-83865188D01*
X43776169Y-83865197D01*
X43695429Y-84100383D01*
X43655362Y-84340500D01*
X43654500Y-84345665D01*
X43654500Y-84594335D01*
X43658862Y-84620475D01*
X43695429Y-84839616D01*
X43776169Y-85074802D01*
X43776172Y-85074811D01*
X43893807Y-85292181D01*
X43894526Y-85293509D01*
X44047262Y-85489744D01*
X44161564Y-85594966D01*
X44230217Y-85658166D01*
X44336333Y-85727494D01*
X44381690Y-85780640D01*
X44391114Y-85849871D01*
X44361612Y-85913207D01*
X44339637Y-85932877D01*
X44283924Y-85971888D01*
X44283920Y-85971891D01*
X44116891Y-86138920D01*
X44116886Y-86138926D01*
X43981400Y-86332420D01*
X43981399Y-86332422D01*
X43881570Y-86546507D01*
X43881567Y-86546513D01*
X43824364Y-86759999D01*
X43824364Y-86760000D01*
X44721314Y-86760000D01*
X44695507Y-86800156D01*
X44655000Y-86938111D01*
X44655000Y-87081889D01*
X44695507Y-87219844D01*
X44721314Y-87260000D01*
X43824364Y-87260000D01*
X43881567Y-87473486D01*
X43881570Y-87473492D01*
X43981399Y-87687578D01*
X44116894Y-87881082D01*
X44283917Y-88048105D01*
X44477421Y-88183600D01*
X44691507Y-88283429D01*
X44691516Y-88283433D01*
X44905000Y-88340634D01*
X44905000Y-87445501D01*
X45012685Y-87494680D01*
X45119237Y-87510000D01*
X45190763Y-87510000D01*
X45297315Y-87494680D01*
X45405000Y-87445501D01*
X45405000Y-88340633D01*
X45618483Y-88283433D01*
X45618492Y-88283429D01*
X45832578Y-88183600D01*
X46026082Y-88048105D01*
X46193105Y-87881082D01*
X46328600Y-87687578D01*
X46428429Y-87473492D01*
X46428432Y-87473486D01*
X46485636Y-87260000D01*
X45588686Y-87260000D01*
X45614493Y-87219844D01*
X45655000Y-87081889D01*
X45655000Y-86938111D01*
X45614493Y-86800156D01*
X45588686Y-86760000D01*
X46485636Y-86760000D01*
X46485635Y-86759999D01*
X46428432Y-86546513D01*
X46428429Y-86546507D01*
X46328600Y-86332422D01*
X46328599Y-86332420D01*
X46211807Y-86165623D01*
X46189480Y-86099417D01*
X46206490Y-86031650D01*
X46257438Y-85983837D01*
X46313382Y-85970500D01*
X51732933Y-85970500D01*
X51763965Y-85970500D01*
X51857221Y-85974357D01*
X51884347Y-85970975D01*
X51892019Y-85970500D01*
X55937933Y-85970500D01*
X72277981Y-85970500D01*
X72285652Y-85970975D01*
X72312779Y-85974357D01*
X72406035Y-85970500D01*
X72437067Y-85970500D01*
X72467990Y-85967937D01*
X72561237Y-85964081D01*
X72587982Y-85958472D01*
X72595582Y-85957364D01*
X72622821Y-85955108D01*
X72622824Y-85955107D01*
X72622826Y-85955107D01*
X72622829Y-85955106D01*
X72713288Y-85932198D01*
X72804614Y-85913049D01*
X72830077Y-85903112D01*
X72837374Y-85900774D01*
X72863881Y-85894063D01*
X72949335Y-85856579D01*
X73036274Y-85822656D01*
X73059761Y-85808659D01*
X73066581Y-85805149D01*
X73091607Y-85794173D01*
X73169720Y-85743139D01*
X73249894Y-85695366D01*
X73270754Y-85677697D01*
X73276894Y-85673117D01*
X73299785Y-85658164D01*
X73368435Y-85594966D01*
X73392126Y-85574902D01*
X73414078Y-85552949D01*
X73482738Y-85489744D01*
X73499530Y-85468167D01*
X73504604Y-85462422D01*
X76891623Y-82075403D01*
X76952944Y-82041920D01*
X77022636Y-82046904D01*
X77078569Y-82088776D01*
X77097512Y-82133598D01*
X77099114Y-82133133D01*
X77101290Y-82140625D01*
X77101291Y-82140627D01*
X77106880Y-82159867D01*
X77110824Y-82178911D01*
X77113336Y-82198791D01*
X77130490Y-82242119D01*
X77132382Y-82247647D01*
X77145381Y-82292388D01*
X77155580Y-82309634D01*
X77164138Y-82327103D01*
X77171514Y-82345732D01*
X77198898Y-82383423D01*
X77202106Y-82388307D01*
X77225827Y-82428416D01*
X77225833Y-82428424D01*
X77239990Y-82442580D01*
X77252627Y-82457375D01*
X77264406Y-82473587D01*
X77288618Y-82493617D01*
X77300309Y-82503288D01*
X77304620Y-82507210D01*
X77679421Y-82882011D01*
X78034190Y-83236780D01*
X78044015Y-83249044D01*
X78044236Y-83248862D01*
X78049206Y-83254869D01*
X78049209Y-83254872D01*
X78049210Y-83254873D01*
X78099647Y-83302237D01*
X78120526Y-83323116D01*
X78126000Y-83327362D01*
X78130438Y-83331152D01*
X78164414Y-83363058D01*
X78164418Y-83363060D01*
X78181969Y-83372709D01*
X78198227Y-83383388D01*
X78214060Y-83395670D01*
X78230988Y-83402995D01*
X78256833Y-83414179D01*
X78262077Y-83416748D01*
X78302904Y-83439193D01*
X78322308Y-83444175D01*
X78340706Y-83450474D01*
X78359101Y-83458434D01*
X78405125Y-83465722D01*
X78410828Y-83466903D01*
X78455977Y-83478496D01*
X78476012Y-83478496D01*
X78495409Y-83480022D01*
X78515192Y-83483156D01*
X78561580Y-83478771D01*
X78567418Y-83478496D01*
X79257256Y-83478496D01*
X79324295Y-83498181D01*
X79349404Y-83519522D01*
X79355130Y-83525881D01*
X79355134Y-83525885D01*
X79508269Y-83637144D01*
X79508274Y-83637147D01*
X79681196Y-83714138D01*
X79681201Y-83714140D01*
X79866358Y-83753496D01*
X79866359Y-83753496D01*
X80055648Y-83753496D01*
X80055650Y-83753496D01*
X80240807Y-83714140D01*
X80413734Y-83637147D01*
X80566875Y-83525884D01*
X80693537Y-83385212D01*
X80788183Y-83221280D01*
X80846678Y-83041252D01*
X80866464Y-82852996D01*
X80848014Y-82677458D01*
X80860583Y-82608732D01*
X80908315Y-82557708D01*
X80971335Y-82540500D01*
X95167257Y-82540500D01*
X95182877Y-82542224D01*
X95182904Y-82541939D01*
X95190660Y-82542671D01*
X95190667Y-82542673D01*
X95259814Y-82540500D01*
X95289350Y-82540500D01*
X95296228Y-82539630D01*
X95302041Y-82539172D01*
X95348627Y-82537709D01*
X95367869Y-82532117D01*
X95386912Y-82528174D01*
X95406792Y-82525664D01*
X95450122Y-82508507D01*
X95455646Y-82506617D01*
X95461893Y-82504802D01*
X95500390Y-82493618D01*
X95517629Y-82483422D01*
X95535103Y-82474862D01*
X95553727Y-82467488D01*
X95553727Y-82467487D01*
X95553732Y-82467486D01*
X95591449Y-82440082D01*
X95596305Y-82436892D01*
X95636420Y-82413170D01*
X95650589Y-82398999D01*
X95665379Y-82386368D01*
X95681587Y-82374594D01*
X95711299Y-82338676D01*
X95715212Y-82334376D01*
X100912771Y-77136819D01*
X100974094Y-77103334D01*
X101000452Y-77100500D01*
X101059644Y-77100500D01*
X101059646Y-77100500D01*
X101244803Y-77061144D01*
X101417730Y-76984151D01*
X101570871Y-76872888D01*
X101697533Y-76732216D01*
X101792179Y-76568284D01*
X101850674Y-76388256D01*
X101870460Y-76200000D01*
X101850674Y-76011744D01*
X101792179Y-75831716D01*
X101697533Y-75667784D01*
X101570871Y-75527112D01*
X101561494Y-75520299D01*
X101417734Y-75415851D01*
X101417729Y-75415848D01*
X101294043Y-75360779D01*
X101240806Y-75315529D01*
X101220485Y-75248680D01*
X101239531Y-75181456D01*
X101291897Y-75135201D01*
X101294043Y-75134221D01*
X101346498Y-75110865D01*
X101417730Y-75079151D01*
X101570871Y-74967888D01*
X101697533Y-74827216D01*
X101792179Y-74663284D01*
X101850674Y-74483256D01*
X101870460Y-74295000D01*
X101850674Y-74106744D01*
X101792179Y-73926716D01*
X101697533Y-73762784D01*
X101570871Y-73622112D01*
X101570870Y-73622111D01*
X101417734Y-73510851D01*
X101417729Y-73510848D01*
X101244807Y-73433857D01*
X101244802Y-73433855D01*
X101099001Y-73402865D01*
X101059646Y-73394500D01*
X100870354Y-73394500D01*
X100837897Y-73401398D01*
X100685197Y-73433855D01*
X100685192Y-73433857D01*
X100512270Y-73510848D01*
X100512265Y-73510851D01*
X100359129Y-73622111D01*
X100232466Y-73762785D01*
X100137821Y-73926715D01*
X100137818Y-73926722D01*
X100094970Y-74058597D01*
X100079326Y-74106744D01*
X100074705Y-74150712D01*
X100061678Y-74274651D01*
X100035093Y-74339266D01*
X100026038Y-74349370D01*
X94892625Y-79482782D01*
X94831302Y-79516267D01*
X94761610Y-79511283D01*
X94712794Y-79478074D01*
X94712533Y-79477784D01*
X94585871Y-79337112D01*
X94585867Y-79337109D01*
X94432734Y-79225851D01*
X94432729Y-79225848D01*
X94259807Y-79148857D01*
X94259802Y-79148855D01*
X94114001Y-79117865D01*
X94074646Y-79109500D01*
X93885354Y-79109500D01*
X93858937Y-79115115D01*
X93700197Y-79148855D01*
X93700192Y-79148857D01*
X93527270Y-79225848D01*
X93527265Y-79225851D01*
X93444729Y-79285818D01*
X93378923Y-79309298D01*
X93371844Y-79309500D01*
X87744500Y-79309500D01*
X87677461Y-79289815D01*
X87631706Y-79237011D01*
X87620500Y-79185500D01*
X87620500Y-76917742D01*
X87622224Y-76902122D01*
X87621939Y-76902095D01*
X87622673Y-76894333D01*
X87620500Y-76825172D01*
X87620500Y-76795656D01*
X87620500Y-76795650D01*
X87619631Y-76788779D01*
X87619173Y-76782952D01*
X87617710Y-76736373D01*
X87612119Y-76717130D01*
X87608173Y-76698078D01*
X87605664Y-76678208D01*
X87588504Y-76634867D01*
X87586624Y-76629379D01*
X87573618Y-76584610D01*
X87563422Y-76567370D01*
X87554861Y-76549894D01*
X87547487Y-76531270D01*
X87540141Y-76521159D01*
X87520079Y-76493545D01*
X87516888Y-76488686D01*
X87493172Y-76448583D01*
X87493165Y-76448574D01*
X87479006Y-76434415D01*
X87466368Y-76419619D01*
X87457103Y-76406867D01*
X87454594Y-76403413D01*
X87436272Y-76388256D01*
X87418694Y-76373714D01*
X87414371Y-76369780D01*
X87298959Y-76254368D01*
X87265475Y-76193045D01*
X87263322Y-76179665D01*
X87245674Y-76011744D01*
X87187179Y-75831716D01*
X87180628Y-75820369D01*
X87166847Y-75796499D01*
X87150374Y-75728599D01*
X87173227Y-75662572D01*
X87228148Y-75619382D01*
X87274234Y-75610500D01*
X88722257Y-75610500D01*
X88737877Y-75612224D01*
X88737904Y-75611939D01*
X88745660Y-75612671D01*
X88745667Y-75612673D01*
X88814814Y-75610500D01*
X88844350Y-75610500D01*
X88851228Y-75609630D01*
X88857041Y-75609172D01*
X88903627Y-75607709D01*
X88922869Y-75602117D01*
X88941912Y-75598174D01*
X88961792Y-75595664D01*
X89005122Y-75578507D01*
X89010646Y-75576617D01*
X89017933Y-75574500D01*
X89055390Y-75563618D01*
X89072629Y-75553422D01*
X89090103Y-75544862D01*
X89108727Y-75537488D01*
X89108727Y-75537487D01*
X89108732Y-75537486D01*
X89146449Y-75510082D01*
X89151305Y-75506892D01*
X89191420Y-75483170D01*
X89205589Y-75468999D01*
X89220379Y-75456368D01*
X89236587Y-75444594D01*
X89266299Y-75408676D01*
X89270212Y-75404376D01*
X89575768Y-75098820D01*
X89637089Y-75065337D01*
X89695540Y-75066728D01*
X89723912Y-75074330D01*
X89894592Y-75120063D01*
X90072360Y-75135616D01*
X90129999Y-75140659D01*
X90130000Y-75140659D01*
X90130001Y-75140659D01*
X90187640Y-75135616D01*
X90365408Y-75120063D01*
X90593663Y-75058903D01*
X90807829Y-74959035D01*
X91001401Y-74823495D01*
X91168495Y-74656401D01*
X91278426Y-74499401D01*
X91333001Y-74455778D01*
X91402500Y-74448584D01*
X91464855Y-74480106D01*
X91481571Y-74499398D01*
X91538138Y-74580185D01*
X91591506Y-74656403D01*
X91676844Y-74741740D01*
X91758599Y-74823495D01*
X91855384Y-74891265D01*
X91952165Y-74959032D01*
X91952167Y-74959033D01*
X91952170Y-74959035D01*
X92166337Y-75058903D01*
X92166343Y-75058904D01*
X92166344Y-75058905D01*
X92221285Y-75073626D01*
X92394592Y-75120063D01*
X92572360Y-75135616D01*
X92629999Y-75140659D01*
X92630000Y-75140659D01*
X92630001Y-75140659D01*
X92687640Y-75135616D01*
X92865408Y-75120063D01*
X93093663Y-75058903D01*
X93307829Y-74959035D01*
X93501401Y-74823495D01*
X93668495Y-74656401D01*
X93778732Y-74498965D01*
X93833306Y-74455342D01*
X93902805Y-74448148D01*
X93965159Y-74479670D01*
X93981880Y-74498967D01*
X94091886Y-74656073D01*
X94091891Y-74656079D01*
X94258917Y-74823105D01*
X94452421Y-74958600D01*
X94666507Y-75058429D01*
X94666516Y-75058433D01*
X94880000Y-75115634D01*
X94880000Y-74068018D01*
X94994801Y-74120446D01*
X95096025Y-74135000D01*
X95163975Y-74135000D01*
X95265199Y-74120446D01*
X95380000Y-74068018D01*
X95380000Y-75115633D01*
X95593483Y-75058433D01*
X95593492Y-75058429D01*
X95807577Y-74958600D01*
X95807579Y-74958599D01*
X96001073Y-74823113D01*
X96001079Y-74823108D01*
X96168108Y-74656079D01*
X96168113Y-74656073D01*
X96303599Y-74462579D01*
X96303600Y-74462577D01*
X96403429Y-74248492D01*
X96403433Y-74248483D01*
X96464567Y-74020326D01*
X96464569Y-74020316D01*
X96474221Y-73910000D01*
X95533969Y-73910000D01*
X95566519Y-73859351D01*
X95605000Y-73728295D01*
X95605000Y-73591705D01*
X95566519Y-73460649D01*
X95533969Y-73410000D01*
X96474221Y-73410000D01*
X96464569Y-73299683D01*
X96464567Y-73299674D01*
X96422210Y-73141593D01*
X96423873Y-73071744D01*
X96463035Y-73013881D01*
X96527264Y-72986377D01*
X96541985Y-72985500D01*
X102327110Y-72985500D01*
X102394149Y-73005185D01*
X102414791Y-73021819D01*
X103873181Y-74480208D01*
X103906666Y-74541531D01*
X103909500Y-74567889D01*
X103909500Y-75385062D01*
X103909024Y-75392732D01*
X103906870Y-75410017D01*
X103905643Y-75419860D01*
X103909500Y-75513116D01*
X103909500Y-75544145D01*
X103912062Y-75575071D01*
X103915918Y-75668314D01*
X103921526Y-75695064D01*
X103922635Y-75702671D01*
X103924891Y-75729899D01*
X103924891Y-75729900D01*
X103924892Y-75729902D01*
X103947801Y-75820369D01*
X103966951Y-75911695D01*
X103966952Y-75911697D01*
X103976882Y-75937148D01*
X103979227Y-75944468D01*
X103985937Y-75970962D01*
X104023420Y-76056416D01*
X104057344Y-76143356D01*
X104071332Y-76166831D01*
X104074852Y-76173669D01*
X104085825Y-76198685D01*
X104109606Y-76235085D01*
X104136860Y-76276801D01*
X104184634Y-76356975D01*
X104202296Y-76377828D01*
X104206887Y-76383985D01*
X104221836Y-76406866D01*
X104221837Y-76406867D01*
X104285033Y-76475516D01*
X104305100Y-76499210D01*
X104327049Y-76521159D01*
X104390257Y-76589820D01*
X104411822Y-76606605D01*
X104417587Y-76611696D01*
X110698303Y-82892412D01*
X110703392Y-82898174D01*
X110720181Y-82919744D01*
X110720183Y-82919746D01*
X110720184Y-82919747D01*
X110788840Y-82982950D01*
X110801320Y-82995429D01*
X110810793Y-83004902D01*
X110834483Y-83024966D01*
X110903134Y-83088164D01*
X110903136Y-83088165D01*
X110903137Y-83088166D01*
X110926005Y-83103106D01*
X110932169Y-83107702D01*
X110953025Y-83125366D01*
X110962190Y-83130827D01*
X111033197Y-83173139D01*
X111084231Y-83206480D01*
X111111312Y-83224173D01*
X111136331Y-83235147D01*
X111143162Y-83238663D01*
X111156250Y-83246462D01*
X111166639Y-83252653D01*
X111166649Y-83252658D01*
X111253582Y-83286579D01*
X111289277Y-83302236D01*
X111339038Y-83324063D01*
X111359147Y-83329155D01*
X111365528Y-83330771D01*
X111372851Y-83333116D01*
X111398305Y-83343049D01*
X111489630Y-83362198D01*
X111580098Y-83385108D01*
X111580099Y-83385108D01*
X111585071Y-83386367D01*
X111584729Y-83387717D01*
X111641830Y-83415364D01*
X111678271Y-83474978D01*
X111681827Y-83520476D01*
X111679500Y-83542127D01*
X111679500Y-83997222D01*
X111679501Y-84340500D01*
X111659817Y-84407539D01*
X111607013Y-84453294D01*
X111555501Y-84464500D01*
X90739251Y-84464500D01*
X90672212Y-84444815D01*
X90626457Y-84392011D01*
X90615931Y-84353465D01*
X90597410Y-84177244D01*
X90538915Y-83997216D01*
X90444269Y-83833284D01*
X90317607Y-83692612D01*
X90317606Y-83692611D01*
X90164470Y-83581351D01*
X90164465Y-83581348D01*
X89991543Y-83504357D01*
X89991538Y-83504355D01*
X89845737Y-83473365D01*
X89806382Y-83465000D01*
X89617090Y-83465000D01*
X89584633Y-83471898D01*
X89431933Y-83504355D01*
X89431928Y-83504357D01*
X89259006Y-83581348D01*
X89259001Y-83581351D01*
X89105865Y-83692611D01*
X89019552Y-83788472D01*
X88960065Y-83825121D01*
X88927402Y-83829500D01*
X84203109Y-83829500D01*
X84136070Y-83809815D01*
X84090315Y-83757011D01*
X84079788Y-83718462D01*
X84079334Y-83714140D01*
X84070674Y-83631744D01*
X84014362Y-83458434D01*
X84012181Y-83451722D01*
X84012180Y-83451721D01*
X84012179Y-83451716D01*
X83917533Y-83287784D01*
X83790871Y-83147112D01*
X83790870Y-83147111D01*
X83637734Y-83035851D01*
X83637729Y-83035848D01*
X83464807Y-82958857D01*
X83464802Y-82958855D01*
X83319001Y-82927865D01*
X83279646Y-82919500D01*
X83090354Y-82919500D01*
X83057897Y-82926398D01*
X82905197Y-82958855D01*
X82905192Y-82958857D01*
X82732270Y-83035848D01*
X82732265Y-83035851D01*
X82579129Y-83147111D01*
X82452466Y-83287785D01*
X82357821Y-83451715D01*
X82357818Y-83451722D01*
X82299327Y-83631740D01*
X82299326Y-83631744D01*
X82279540Y-83820000D01*
X82299326Y-84008256D01*
X82299327Y-84008259D01*
X82357818Y-84188277D01*
X82357821Y-84188284D01*
X82452467Y-84352216D01*
X82553568Y-84464500D01*
X82579129Y-84492888D01*
X82732265Y-84604148D01*
X82732270Y-84604151D01*
X82905192Y-84681142D01*
X82905197Y-84681144D01*
X83090354Y-84720500D01*
X83149548Y-84720500D01*
X83216587Y-84740185D01*
X83237229Y-84756819D01*
X83319194Y-84838784D01*
X83329019Y-84851048D01*
X83329240Y-84850866D01*
X83334210Y-84856873D01*
X83334213Y-84856876D01*
X83334214Y-84856877D01*
X83384651Y-84904241D01*
X83405530Y-84925120D01*
X83411004Y-84929366D01*
X83415442Y-84933156D01*
X83449418Y-84965062D01*
X83449422Y-84965064D01*
X83466973Y-84974713D01*
X83483231Y-84985392D01*
X83499064Y-84997674D01*
X83521015Y-85007172D01*
X83541837Y-85016183D01*
X83547081Y-85018752D01*
X83587908Y-85041197D01*
X83607312Y-85046179D01*
X83625710Y-85052478D01*
X83644105Y-85060438D01*
X83690129Y-85067726D01*
X83695832Y-85068907D01*
X83740981Y-85080500D01*
X83761016Y-85080500D01*
X83780413Y-85082026D01*
X83800196Y-85085160D01*
X83846584Y-85080775D01*
X83852422Y-85080500D01*
X85775798Y-85080500D01*
X85842837Y-85100185D01*
X85888592Y-85152989D01*
X85898536Y-85222147D01*
X85869511Y-85285703D01*
X85863481Y-85292178D01*
X85381516Y-85774143D01*
X84911978Y-86243681D01*
X84850655Y-86277166D01*
X84824297Y-86280000D01*
X78808748Y-86280000D01*
X78741709Y-86260315D01*
X78716600Y-86238974D01*
X78710873Y-86232614D01*
X78710869Y-86232610D01*
X78557734Y-86121351D01*
X78557729Y-86121348D01*
X78384807Y-86044357D01*
X78384802Y-86044355D01*
X78239001Y-86013365D01*
X78199646Y-86005000D01*
X78010354Y-86005000D01*
X77977897Y-86011898D01*
X77825197Y-86044355D01*
X77825192Y-86044357D01*
X77652270Y-86121348D01*
X77652265Y-86121351D01*
X77499129Y-86232611D01*
X77372466Y-86373285D01*
X77277821Y-86537215D01*
X77277818Y-86537222D01*
X77219327Y-86717240D01*
X77219326Y-86717244D01*
X77199540Y-86905500D01*
X77219326Y-87093756D01*
X77219327Y-87093759D01*
X77277818Y-87273777D01*
X77277821Y-87273784D01*
X77372467Y-87437716D01*
X77423758Y-87494680D01*
X77499129Y-87578388D01*
X77652265Y-87689648D01*
X77652270Y-87689651D01*
X77825192Y-87766642D01*
X77825197Y-87766644D01*
X78010354Y-87806000D01*
X78010355Y-87806000D01*
X78015046Y-87806000D01*
X78082085Y-87825685D01*
X78127840Y-87878489D01*
X78137784Y-87947647D01*
X78108759Y-88011203D01*
X78102727Y-88017681D01*
X77882228Y-88238181D01*
X77820905Y-88271666D01*
X77794547Y-88274500D01*
X76662738Y-88274500D01*
X76647121Y-88272776D01*
X76647094Y-88273062D01*
X76639332Y-88272327D01*
X76570204Y-88274500D01*
X76540650Y-88274500D01*
X76539929Y-88274590D01*
X76533757Y-88275369D01*
X76527945Y-88275826D01*
X76481373Y-88277290D01*
X76481372Y-88277290D01*
X76462129Y-88282881D01*
X76443079Y-88286825D01*
X76423211Y-88289334D01*
X76379884Y-88306488D01*
X76374358Y-88308379D01*
X76329614Y-88321379D01*
X76329610Y-88321381D01*
X76312366Y-88331579D01*
X76294905Y-88340133D01*
X76276274Y-88347510D01*
X76276262Y-88347517D01*
X76238570Y-88374902D01*
X76233687Y-88378109D01*
X76193580Y-88401829D01*
X76179414Y-88415995D01*
X76164624Y-88428627D01*
X76148414Y-88440404D01*
X76148411Y-88440407D01*
X76118710Y-88476309D01*
X76114777Y-88480631D01*
X75504231Y-89091177D01*
X75442908Y-89124662D01*
X75384457Y-89123271D01*
X75185413Y-89069938D01*
X75185403Y-89069936D01*
X74950001Y-89049341D01*
X74949999Y-89049341D01*
X74714596Y-89069936D01*
X74714586Y-89069938D01*
X74486344Y-89131094D01*
X74486335Y-89131098D01*
X74272171Y-89230964D01*
X74272169Y-89230965D01*
X74078597Y-89366505D01*
X73911505Y-89533597D01*
X73801575Y-89690595D01*
X73746998Y-89734220D01*
X73677500Y-89741414D01*
X73615145Y-89709891D01*
X73598425Y-89690595D01*
X73488494Y-89533597D01*
X73321402Y-89366506D01*
X73321395Y-89366501D01*
X73311532Y-89359595D01*
X73278769Y-89336654D01*
X73127834Y-89230967D01*
X73127830Y-89230965D01*
X72948204Y-89147204D01*
X72913663Y-89131097D01*
X72913659Y-89131096D01*
X72913655Y-89131094D01*
X72685413Y-89069938D01*
X72685403Y-89069936D01*
X72450001Y-89049341D01*
X72449999Y-89049341D01*
X72214596Y-89069936D01*
X72214586Y-89069938D01*
X71986344Y-89131094D01*
X71986335Y-89131098D01*
X71772171Y-89230964D01*
X71772169Y-89230965D01*
X71578597Y-89366505D01*
X71411506Y-89533596D01*
X71275965Y-89727170D01*
X71275964Y-89727172D01*
X71226660Y-89832905D01*
X71180487Y-89885344D01*
X71114278Y-89904500D01*
X41282743Y-89904500D01*
X41267122Y-89902775D01*
X41267095Y-89903061D01*
X41259333Y-89902326D01*
X41190172Y-89904500D01*
X41160649Y-89904500D01*
X41153778Y-89905367D01*
X41147959Y-89905825D01*
X41101374Y-89907289D01*
X41101368Y-89907290D01*
X41082126Y-89912880D01*
X41063087Y-89916823D01*
X41043217Y-89919334D01*
X41043203Y-89919337D01*
X40999883Y-89936488D01*
X40994358Y-89938380D01*
X40949613Y-89951380D01*
X40949610Y-89951381D01*
X40932366Y-89961579D01*
X40914905Y-89970133D01*
X40896274Y-89977510D01*
X40896262Y-89977517D01*
X40858570Y-90004902D01*
X40853687Y-90008109D01*
X40813580Y-90031829D01*
X40799414Y-90045995D01*
X40784624Y-90058627D01*
X40768414Y-90070404D01*
X40768408Y-90070410D01*
X40749048Y-90093813D01*
X40691148Y-90132920D01*
X40621297Y-90134516D01*
X40561671Y-90098094D01*
X40531202Y-90035218D01*
X40529977Y-90003964D01*
X40532292Y-89977510D01*
X40537323Y-89920000D01*
X40534532Y-89888102D01*
X40522889Y-89755013D01*
X40518070Y-89699932D01*
X40460894Y-89486550D01*
X40367534Y-89286339D01*
X40258831Y-89131094D01*
X40240827Y-89105381D01*
X40184787Y-89049341D01*
X40084620Y-88949174D01*
X40084616Y-88949171D01*
X40084615Y-88949170D01*
X39903666Y-88822468D01*
X39903658Y-88822464D01*
X39774811Y-88762382D01*
X39722371Y-88716210D01*
X39703219Y-88649017D01*
X39723435Y-88582135D01*
X39774811Y-88537618D01*
X39783998Y-88533334D01*
X39903662Y-88477534D01*
X40084620Y-88350826D01*
X40240826Y-88194620D01*
X40367534Y-88013662D01*
X40460894Y-87813450D01*
X40518070Y-87600068D01*
X40537323Y-87380000D01*
X40518070Y-87159932D01*
X40460894Y-86946550D01*
X40367534Y-86746339D01*
X40240826Y-86565380D01*
X40084620Y-86409174D01*
X40084616Y-86409171D01*
X40084615Y-86409170D01*
X39903666Y-86282468D01*
X39903662Y-86282466D01*
X39856159Y-86260315D01*
X39703450Y-86189106D01*
X39703447Y-86189105D01*
X39703445Y-86189104D01*
X39490070Y-86131930D01*
X39490062Y-86131929D01*
X39270002Y-86112677D01*
X39269998Y-86112677D01*
X39049937Y-86131929D01*
X39049929Y-86131930D01*
X38836554Y-86189104D01*
X38836548Y-86189107D01*
X38636340Y-86282465D01*
X38636338Y-86282466D01*
X38455377Y-86409175D01*
X38299175Y-86565377D01*
X38172466Y-86746338D01*
X38172465Y-86746340D01*
X38112382Y-86875189D01*
X38066209Y-86927628D01*
X37999016Y-86946780D01*
X37932135Y-86926564D01*
X37887618Y-86875189D01*
X37833904Y-86760000D01*
X37827534Y-86746339D01*
X37700826Y-86565380D01*
X37544620Y-86409174D01*
X37544616Y-86409171D01*
X37544615Y-86409170D01*
X37363666Y-86282468D01*
X37363662Y-86282466D01*
X37316159Y-86260315D01*
X37163450Y-86189106D01*
X37163447Y-86189105D01*
X37163445Y-86189104D01*
X36950070Y-86131930D01*
X36950062Y-86131929D01*
X36730002Y-86112677D01*
X36729998Y-86112677D01*
X36509937Y-86131929D01*
X36509929Y-86131930D01*
X36296554Y-86189104D01*
X36296548Y-86189107D01*
X36096340Y-86282465D01*
X36096338Y-86282466D01*
X35915377Y-86409175D01*
X35759175Y-86565377D01*
X35632466Y-86746338D01*
X35632465Y-86746340D01*
X35539107Y-86946548D01*
X35539104Y-86946554D01*
X35481930Y-87159929D01*
X35481929Y-87159937D01*
X35462677Y-87379997D01*
X35462677Y-87380002D01*
X35481929Y-87600062D01*
X35481930Y-87600070D01*
X35539104Y-87813445D01*
X35539105Y-87813447D01*
X35539106Y-87813450D01*
X35572382Y-87884811D01*
X35632466Y-88013662D01*
X35632468Y-88013666D01*
X35759170Y-88194615D01*
X35759175Y-88194621D01*
X35915378Y-88350824D01*
X35915384Y-88350829D01*
X36096333Y-88477531D01*
X36096335Y-88477532D01*
X36096338Y-88477534D01*
X36209924Y-88530500D01*
X36225189Y-88537618D01*
X36277628Y-88583790D01*
X36296780Y-88650984D01*
X36276564Y-88717865D01*
X36225189Y-88762382D01*
X36096340Y-88822465D01*
X36096338Y-88822466D01*
X35915377Y-88949175D01*
X35759175Y-89105377D01*
X35632466Y-89286338D01*
X35632465Y-89286340D01*
X35539107Y-89486548D01*
X35539104Y-89486554D01*
X35481930Y-89699929D01*
X35481929Y-89699937D01*
X35462677Y-89919997D01*
X35462677Y-89920002D01*
X35481929Y-90140062D01*
X35481930Y-90140070D01*
X35539104Y-90353445D01*
X35539105Y-90353447D01*
X35539106Y-90353450D01*
X35572382Y-90424811D01*
X35632466Y-90553662D01*
X35632468Y-90553666D01*
X35759170Y-90734615D01*
X35759175Y-90734621D01*
X35915378Y-90890824D01*
X35915384Y-90890829D01*
X36096333Y-91017531D01*
X36096335Y-91017532D01*
X36096338Y-91017534D01*
X36224597Y-91077342D01*
X36225781Y-91077894D01*
X36278220Y-91124066D01*
X36297372Y-91191260D01*
X36277156Y-91258141D01*
X36225781Y-91302658D01*
X36096586Y-91362903D01*
X36031812Y-91408257D01*
X36031811Y-91408258D01*
X36702554Y-92079000D01*
X36698431Y-92079000D01*
X36604579Y-92094661D01*
X36492749Y-92155180D01*
X36406629Y-92248731D01*
X36355552Y-92365177D01*
X36349894Y-92433447D01*
X35678258Y-91761811D01*
X35678257Y-91761812D01*
X35632903Y-91826586D01*
X35539579Y-92026720D01*
X35539575Y-92026729D01*
X35482426Y-92240013D01*
X35482424Y-92240023D01*
X35463179Y-92459999D01*
X35463179Y-92460000D01*
X35482424Y-92679976D01*
X35482426Y-92679986D01*
X35539575Y-92893270D01*
X35539580Y-92893284D01*
X35632899Y-93093407D01*
X35632900Y-93093409D01*
X35678258Y-93158187D01*
X36345096Y-92491349D01*
X36345051Y-92491898D01*
X36376266Y-92615162D01*
X36445813Y-92721612D01*
X36546157Y-92799713D01*
X36666422Y-92841000D01*
X36702553Y-92841000D01*
X36031811Y-93511741D01*
X36096582Y-93557094D01*
X36096588Y-93557098D01*
X36225781Y-93617342D01*
X36278220Y-93663514D01*
X36297372Y-93730708D01*
X36277156Y-93797589D01*
X36225781Y-93842106D01*
X36096340Y-93902465D01*
X36096338Y-93902466D01*
X35915377Y-94029175D01*
X35759175Y-94185377D01*
X35632466Y-94366338D01*
X35632465Y-94366340D01*
X35539107Y-94566548D01*
X35539104Y-94566554D01*
X35481930Y-94779929D01*
X35481929Y-94779937D01*
X35462677Y-94999997D01*
X35462677Y-95000002D01*
X35481929Y-95220062D01*
X35481930Y-95220070D01*
X35539104Y-95433445D01*
X35539105Y-95433447D01*
X35539106Y-95433450D01*
X35563798Y-95486402D01*
X35632466Y-95633662D01*
X35632468Y-95633666D01*
X35759170Y-95814615D01*
X35759175Y-95814621D01*
X35915378Y-95970824D01*
X35915384Y-95970829D01*
X36096333Y-96097531D01*
X36096335Y-96097532D01*
X36096338Y-96097534D01*
X36296550Y-96190894D01*
X36509932Y-96248070D01*
X36667123Y-96261822D01*
X36729998Y-96267323D01*
X36730000Y-96267323D01*
X36730002Y-96267323D01*
X36785017Y-96262509D01*
X36950068Y-96248070D01*
X37163450Y-96190894D01*
X37363662Y-96097534D01*
X37544620Y-95970826D01*
X37700826Y-95814620D01*
X37827534Y-95633662D01*
X37920894Y-95433450D01*
X37978070Y-95220068D01*
X37997323Y-95000000D01*
X37991394Y-94932235D01*
X37984236Y-94850413D01*
X37978070Y-94779932D01*
X37966292Y-94735976D01*
X37967955Y-94666126D01*
X37998384Y-94616204D01*
X41422771Y-91191819D01*
X41484094Y-91158334D01*
X41510452Y-91155500D01*
X43610500Y-91155500D01*
X43677539Y-91175185D01*
X43723294Y-91227989D01*
X43734500Y-91279500D01*
X43734500Y-92972870D01*
X43734501Y-92972876D01*
X43740908Y-93032483D01*
X43791202Y-93167328D01*
X43791206Y-93167335D01*
X43877452Y-93282544D01*
X43877455Y-93282547D01*
X43992664Y-93368793D01*
X43992671Y-93368797D01*
X44124081Y-93417810D01*
X44180015Y-93459681D01*
X44204432Y-93525145D01*
X44189580Y-93593418D01*
X44168430Y-93621673D01*
X44046503Y-93743600D01*
X43910965Y-93937169D01*
X43910964Y-93937171D01*
X43811098Y-94151335D01*
X43811094Y-94151344D01*
X43749938Y-94379586D01*
X43749936Y-94379596D01*
X43729341Y-94614999D01*
X43729341Y-94615000D01*
X43749936Y-94850403D01*
X43749938Y-94850413D01*
X43811094Y-95078655D01*
X43811096Y-95078659D01*
X43811097Y-95078663D01*
X43910965Y-95292830D01*
X43910967Y-95292834D01*
X44046501Y-95486395D01*
X44046506Y-95486402D01*
X44213597Y-95653493D01*
X44213603Y-95653498D01*
X44255665Y-95682950D01*
X44315671Y-95724967D01*
X44399594Y-95783730D01*
X44443219Y-95838307D01*
X44450413Y-95907805D01*
X44418890Y-95970160D01*
X44399595Y-95986880D01*
X44213922Y-96116890D01*
X44213920Y-96116891D01*
X44046891Y-96283920D01*
X44046886Y-96283926D01*
X43911400Y-96477420D01*
X43911399Y-96477422D01*
X43811570Y-96691507D01*
X43811567Y-96691513D01*
X43754364Y-96904999D01*
X43754364Y-96905000D01*
X44651314Y-96905000D01*
X44625507Y-96945156D01*
X44585000Y-97083111D01*
X44585000Y-97226889D01*
X44625507Y-97364844D01*
X44651314Y-97405000D01*
X43754364Y-97405000D01*
X43811567Y-97618486D01*
X43811570Y-97618492D01*
X43911399Y-97832578D01*
X44046894Y-98026082D01*
X44213917Y-98193105D01*
X44407421Y-98328600D01*
X44621507Y-98428429D01*
X44621516Y-98428433D01*
X44835000Y-98485634D01*
X44835000Y-97590501D01*
X44942685Y-97639680D01*
X45049237Y-97655000D01*
X45120763Y-97655000D01*
X45227315Y-97639680D01*
X45335000Y-97590501D01*
X45335000Y-98485633D01*
X45548483Y-98428433D01*
X45548492Y-98428429D01*
X45762578Y-98328600D01*
X45956082Y-98193105D01*
X46123105Y-98026082D01*
X46258600Y-97832578D01*
X46358429Y-97618492D01*
X46358432Y-97618486D01*
X46415636Y-97405000D01*
X45518686Y-97405000D01*
X45544493Y-97364844D01*
X45585000Y-97226889D01*
X45585000Y-97083111D01*
X45544493Y-96945156D01*
X45518686Y-96905000D01*
X46415636Y-96905000D01*
X46415635Y-96904999D01*
X46358432Y-96691513D01*
X46358429Y-96691507D01*
X46258600Y-96477422D01*
X46258599Y-96477420D01*
X46123113Y-96283926D01*
X46123108Y-96283920D01*
X45956078Y-96116890D01*
X45770405Y-95986879D01*
X45726780Y-95932302D01*
X45719588Y-95862804D01*
X45751110Y-95800449D01*
X45770406Y-95783730D01*
X45776110Y-95779736D01*
X45956401Y-95653495D01*
X46123495Y-95486401D01*
X46259035Y-95292830D01*
X46358903Y-95078663D01*
X46361824Y-95067763D01*
X88145787Y-95067763D01*
X88175413Y-95337013D01*
X88175415Y-95337024D01*
X88243926Y-95599082D01*
X88243928Y-95599088D01*
X88349870Y-95848390D01*
X88468669Y-96043049D01*
X88490979Y-96079605D01*
X88490986Y-96079615D01*
X88664253Y-96287819D01*
X88664259Y-96287824D01*
X88781513Y-96392883D01*
X88865998Y-96468582D01*
X89091910Y-96618044D01*
X89337176Y-96733020D01*
X89337183Y-96733022D01*
X89337185Y-96733023D01*
X89596557Y-96811057D01*
X89596564Y-96811058D01*
X89596569Y-96811060D01*
X89864561Y-96850500D01*
X89864566Y-96850500D01*
X90067636Y-96850500D01*
X90119133Y-96846730D01*
X90270156Y-96835677D01*
X90382758Y-96810593D01*
X90534546Y-96776782D01*
X90534548Y-96776781D01*
X90534553Y-96776780D01*
X90787558Y-96680014D01*
X91023777Y-96547441D01*
X91238177Y-96381888D01*
X91426186Y-96186881D01*
X91583799Y-95966579D01*
X91673661Y-95791796D01*
X91707649Y-95725690D01*
X91707651Y-95725684D01*
X91707656Y-95725675D01*
X91795118Y-95469305D01*
X91844319Y-95202933D01*
X91849259Y-95067763D01*
X108145787Y-95067763D01*
X108175413Y-95337013D01*
X108175415Y-95337024D01*
X108243926Y-95599082D01*
X108243928Y-95599088D01*
X108349870Y-95848390D01*
X108468669Y-96043049D01*
X108490979Y-96079605D01*
X108490986Y-96079615D01*
X108664253Y-96287819D01*
X108664259Y-96287824D01*
X108781513Y-96392883D01*
X108865998Y-96468582D01*
X109091910Y-96618044D01*
X109337176Y-96733020D01*
X109337183Y-96733022D01*
X109337185Y-96733023D01*
X109596557Y-96811057D01*
X109596564Y-96811058D01*
X109596569Y-96811060D01*
X109864561Y-96850500D01*
X109864566Y-96850500D01*
X110067636Y-96850500D01*
X110119133Y-96846730D01*
X110270156Y-96835677D01*
X110382758Y-96810593D01*
X110534546Y-96776782D01*
X110534548Y-96776781D01*
X110534553Y-96776780D01*
X110787558Y-96680014D01*
X111023777Y-96547441D01*
X111238177Y-96381888D01*
X111426186Y-96186881D01*
X111583799Y-95966579D01*
X111673661Y-95791796D01*
X111707649Y-95725690D01*
X111707651Y-95725684D01*
X111707656Y-95725675D01*
X111795118Y-95469305D01*
X111844319Y-95202933D01*
X111854212Y-94932235D01*
X111824586Y-94662982D01*
X111756072Y-94400912D01*
X111650130Y-94151610D01*
X111509018Y-93920390D01*
X111443870Y-93842106D01*
X111335746Y-93712180D01*
X111335740Y-93712175D01*
X111134002Y-93531418D01*
X110908092Y-93381957D01*
X110880017Y-93368796D01*
X110662824Y-93266980D01*
X110662819Y-93266978D01*
X110662814Y-93266976D01*
X110403442Y-93188942D01*
X110403428Y-93188939D01*
X110287791Y-93171921D01*
X110135439Y-93149500D01*
X109932369Y-93149500D01*
X109932364Y-93149500D01*
X109729844Y-93164323D01*
X109729831Y-93164325D01*
X109465453Y-93223217D01*
X109465446Y-93223220D01*
X109212439Y-93319987D01*
X108976226Y-93452557D01*
X108976224Y-93452558D01*
X108976223Y-93452559D01*
X108913893Y-93500688D01*
X108761822Y-93618112D01*
X108573822Y-93813109D01*
X108573816Y-93813116D01*
X108416202Y-94033419D01*
X108416199Y-94033424D01*
X108292350Y-94274309D01*
X108292343Y-94274327D01*
X108204884Y-94530685D01*
X108204881Y-94530699D01*
X108155681Y-94797068D01*
X108155680Y-94797075D01*
X108145787Y-95067763D01*
X91849259Y-95067763D01*
X91854212Y-94932235D01*
X91824586Y-94662982D01*
X91756072Y-94400912D01*
X91650130Y-94151610D01*
X91509018Y-93920390D01*
X91443870Y-93842106D01*
X91335746Y-93712180D01*
X91335740Y-93712175D01*
X91134002Y-93531418D01*
X90908092Y-93381957D01*
X90880017Y-93368796D01*
X90662824Y-93266980D01*
X90662819Y-93266978D01*
X90662814Y-93266976D01*
X90403442Y-93188942D01*
X90403428Y-93188939D01*
X90287791Y-93171921D01*
X90135439Y-93149500D01*
X89932369Y-93149500D01*
X89932364Y-93149500D01*
X89729844Y-93164323D01*
X89729831Y-93164325D01*
X89465453Y-93223217D01*
X89465446Y-93223220D01*
X89212439Y-93319987D01*
X88976226Y-93452557D01*
X88976224Y-93452558D01*
X88976223Y-93452559D01*
X88913893Y-93500688D01*
X88761822Y-93618112D01*
X88573822Y-93813109D01*
X88573816Y-93813116D01*
X88416202Y-94033419D01*
X88416199Y-94033424D01*
X88292350Y-94274309D01*
X88292343Y-94274327D01*
X88204884Y-94530685D01*
X88204881Y-94530699D01*
X88155681Y-94797068D01*
X88155680Y-94797075D01*
X88145787Y-95067763D01*
X46361824Y-95067763D01*
X46420063Y-94850408D01*
X46440659Y-94615000D01*
X46420063Y-94379592D01*
X46368024Y-94185377D01*
X46358905Y-94151344D01*
X46358904Y-94151343D01*
X46358903Y-94151337D01*
X46259035Y-93937171D01*
X46234734Y-93902466D01*
X46123496Y-93743600D01*
X46066127Y-93686231D01*
X46001567Y-93621671D01*
X45968084Y-93560351D01*
X45973068Y-93490659D01*
X46014939Y-93434725D01*
X46045915Y-93417810D01*
X46177331Y-93368796D01*
X46292546Y-93282546D01*
X46378796Y-93167331D01*
X46429091Y-93032483D01*
X46435500Y-92972873D01*
X46435499Y-91279499D01*
X46455184Y-91212461D01*
X46507987Y-91166706D01*
X46559499Y-91155500D01*
X71114278Y-91155500D01*
X71181317Y-91175185D01*
X71226660Y-91227095D01*
X71275964Y-91332827D01*
X71275965Y-91332829D01*
X71411505Y-91526402D01*
X71520152Y-91635048D01*
X71578599Y-91693495D01*
X71629594Y-91729202D01*
X71772165Y-91829032D01*
X71772167Y-91829033D01*
X71772170Y-91829035D01*
X71986337Y-91928903D01*
X71986343Y-91928904D01*
X71986344Y-91928905D01*
X72025356Y-91939358D01*
X72214592Y-91990063D01*
X72402918Y-92006539D01*
X72449999Y-92010659D01*
X72450000Y-92010659D01*
X72450001Y-92010659D01*
X72496805Y-92006564D01*
X72685408Y-91990063D01*
X72913663Y-91928903D01*
X73127829Y-91829035D01*
X73321401Y-91693495D01*
X73488495Y-91526401D01*
X73598426Y-91369401D01*
X73653001Y-91325778D01*
X73722500Y-91318584D01*
X73784855Y-91350106D01*
X73801571Y-91369398D01*
X73816708Y-91391016D01*
X73911506Y-91526403D01*
X74020152Y-91635048D01*
X74078599Y-91693495D01*
X74129594Y-91729202D01*
X74272165Y-91829032D01*
X74272167Y-91829033D01*
X74272170Y-91829035D01*
X74486337Y-91928903D01*
X74486343Y-91928904D01*
X74486344Y-91928905D01*
X74525356Y-91939358D01*
X74714592Y-91990063D01*
X74902918Y-92006539D01*
X74949999Y-92010659D01*
X74950000Y-92010659D01*
X74950001Y-92010659D01*
X74996805Y-92006564D01*
X75185408Y-91990063D01*
X75413663Y-91928903D01*
X75627829Y-91829035D01*
X75821401Y-91693495D01*
X75988495Y-91526401D01*
X76098426Y-91369401D01*
X76153001Y-91325778D01*
X76222500Y-91318584D01*
X76284855Y-91350106D01*
X76301571Y-91369398D01*
X76316708Y-91391016D01*
X76411506Y-91526403D01*
X76520152Y-91635048D01*
X76578599Y-91693495D01*
X76629594Y-91729202D01*
X76772165Y-91829032D01*
X76772167Y-91829033D01*
X76772170Y-91829035D01*
X76986337Y-91928903D01*
X76986343Y-91928904D01*
X76986344Y-91928905D01*
X77025356Y-91939358D01*
X77214592Y-91990063D01*
X77402918Y-92006539D01*
X77449999Y-92010659D01*
X77450000Y-92010659D01*
X77450001Y-92010659D01*
X77496805Y-92006564D01*
X77685408Y-91990063D01*
X77913663Y-91928903D01*
X78127829Y-91829035D01*
X78321401Y-91693495D01*
X78468965Y-91545930D01*
X78530287Y-91512447D01*
X78599978Y-91517431D01*
X78655912Y-91559302D01*
X78662183Y-91568516D01*
X78757680Y-91723340D01*
X78757683Y-91723344D01*
X78881654Y-91847315D01*
X79030875Y-91939356D01*
X79030880Y-91939358D01*
X79197302Y-91994505D01*
X79197309Y-91994506D01*
X79300019Y-92004999D01*
X79699999Y-92004999D01*
X79700000Y-92004998D01*
X79700000Y-90938018D01*
X79814801Y-90990446D01*
X79916025Y-91005000D01*
X79983975Y-91005000D01*
X80085199Y-90990446D01*
X80200000Y-90938018D01*
X80200000Y-92004999D01*
X80599972Y-92004999D01*
X80599986Y-92004998D01*
X80702697Y-91994505D01*
X80869119Y-91939358D01*
X80869124Y-91939356D01*
X81018345Y-91847315D01*
X81142315Y-91723345D01*
X81234356Y-91574124D01*
X81234358Y-91574119D01*
X81289505Y-91407697D01*
X81289506Y-91407690D01*
X81299999Y-91304986D01*
X81300000Y-91304973D01*
X81300000Y-90780000D01*
X80353969Y-90780000D01*
X80386519Y-90729351D01*
X80425000Y-90598295D01*
X80425000Y-90461705D01*
X80386519Y-90330649D01*
X80353969Y-90280000D01*
X81299999Y-90280000D01*
X81299999Y-89755028D01*
X81299998Y-89755011D01*
X81290507Y-89662101D01*
X81303277Y-89593409D01*
X81351158Y-89542524D01*
X81413865Y-89525500D01*
X91357257Y-89525500D01*
X91372877Y-89527224D01*
X91372904Y-89526939D01*
X91380660Y-89527671D01*
X91380667Y-89527673D01*
X91449814Y-89525500D01*
X91479350Y-89525500D01*
X91486228Y-89524630D01*
X91492041Y-89524172D01*
X91538627Y-89522709D01*
X91557869Y-89517117D01*
X91576912Y-89513174D01*
X91596792Y-89510664D01*
X91640122Y-89493507D01*
X91645646Y-89491617D01*
X91662295Y-89486780D01*
X91690390Y-89478618D01*
X91707629Y-89468422D01*
X91725103Y-89459862D01*
X91743727Y-89452488D01*
X91743727Y-89452487D01*
X91743732Y-89452486D01*
X91781449Y-89425082D01*
X91786305Y-89421892D01*
X91826420Y-89398170D01*
X91840589Y-89383999D01*
X91855379Y-89371368D01*
X91871587Y-89359594D01*
X91901299Y-89323676D01*
X91905212Y-89319376D01*
X92657772Y-88566819D01*
X92719095Y-88533334D01*
X92745453Y-88530500D01*
X92804644Y-88530500D01*
X92804646Y-88530500D01*
X92989803Y-88491144D01*
X93162730Y-88414151D01*
X93315871Y-88302888D01*
X93442533Y-88162216D01*
X93537179Y-87998284D01*
X93595674Y-87818256D01*
X93615460Y-87630000D01*
X93595674Y-87441744D01*
X93537179Y-87261716D01*
X93442533Y-87097784D01*
X93315871Y-86957112D01*
X93315870Y-86957111D01*
X93162734Y-86845851D01*
X93162729Y-86845848D01*
X92989807Y-86768857D01*
X92989802Y-86768855D01*
X92844001Y-86737865D01*
X92804646Y-86729500D01*
X92615354Y-86729500D01*
X92582897Y-86736398D01*
X92430197Y-86768855D01*
X92430192Y-86768857D01*
X92257270Y-86845848D01*
X92257265Y-86845851D01*
X92104129Y-86957111D01*
X91977466Y-87097785D01*
X91882821Y-87261715D01*
X91882818Y-87261722D01*
X91824327Y-87441740D01*
X91824326Y-87441744D01*
X91806679Y-87609649D01*
X91780094Y-87674263D01*
X91771039Y-87684368D01*
X91217228Y-88238181D01*
X91155905Y-88271666D01*
X91129547Y-88274500D01*
X89782480Y-88274500D01*
X89715441Y-88254815D01*
X89669686Y-88202011D01*
X89659742Y-88132853D01*
X89675093Y-88088500D01*
X89687845Y-88066413D01*
X89727179Y-87998284D01*
X89785674Y-87818256D01*
X89805460Y-87630000D01*
X89785674Y-87441744D01*
X89727179Y-87261716D01*
X89632533Y-87097784D01*
X89505871Y-86957112D01*
X89505870Y-86957111D01*
X89352734Y-86845851D01*
X89352729Y-86845848D01*
X89179807Y-86768857D01*
X89179802Y-86768855D01*
X89034001Y-86737865D01*
X88994646Y-86729500D01*
X88805354Y-86729500D01*
X88772897Y-86736398D01*
X88620197Y-86768855D01*
X88620192Y-86768857D01*
X88447270Y-86845848D01*
X88447265Y-86845851D01*
X88294130Y-86957110D01*
X88294126Y-86957114D01*
X88288400Y-86963474D01*
X88228913Y-87000121D01*
X88196252Y-87004500D01*
X86219702Y-87004500D01*
X86152663Y-86984815D01*
X86106908Y-86932011D01*
X86096964Y-86862853D01*
X86125989Y-86799297D01*
X86132021Y-86792819D01*
X87173021Y-85751819D01*
X87234344Y-85718334D01*
X87260702Y-85715500D01*
X111872513Y-85715500D01*
X111931942Y-85730669D01*
X111937669Y-85733796D01*
X112072517Y-85784091D01*
X112072516Y-85784091D01*
X112079444Y-85784835D01*
X112132127Y-85790500D01*
X113927872Y-85790499D01*
X113987483Y-85784091D01*
X114122331Y-85733796D01*
X114237546Y-85647546D01*
X114323796Y-85532331D01*
X114374091Y-85397483D01*
X114380500Y-85337873D01*
X114380499Y-83542128D01*
X114374497Y-83486294D01*
X114374091Y-83482516D01*
X114323797Y-83347671D01*
X114323793Y-83347664D01*
X114237547Y-83232455D01*
X114237544Y-83232452D01*
X114115231Y-83140888D01*
X114117374Y-83138024D01*
X114080025Y-83100694D01*
X114065156Y-83032425D01*
X114089556Y-82966955D01*
X114104860Y-82950010D01*
X114105072Y-82949815D01*
X114137738Y-82919744D01*
X114290474Y-82723509D01*
X114408828Y-82504810D01*
X114489571Y-82269614D01*
X114530500Y-82024335D01*
X114530500Y-81775665D01*
X114489571Y-81530386D01*
X114408828Y-81295190D01*
X114290474Y-81076491D01*
X114137738Y-80880256D01*
X113954785Y-80711836D01*
X113954782Y-80711834D01*
X113954780Y-80711832D01*
X113848665Y-80642503D01*
X113803308Y-80589357D01*
X113793885Y-80520126D01*
X113823387Y-80456790D01*
X113845364Y-80437120D01*
X113901080Y-80398107D01*
X114068105Y-80231082D01*
X114203600Y-80037578D01*
X114303429Y-79823492D01*
X114303432Y-79823486D01*
X114360636Y-79610000D01*
X113463686Y-79610000D01*
X113489493Y-79569844D01*
X113530000Y-79431889D01*
X113530000Y-79288111D01*
X113489493Y-79150156D01*
X113463686Y-79110000D01*
X114360636Y-79110000D01*
X114360635Y-79109999D01*
X114303432Y-78896513D01*
X114303429Y-78896507D01*
X114203600Y-78682422D01*
X114203599Y-78682420D01*
X114068113Y-78488926D01*
X114068108Y-78488920D01*
X113901082Y-78321894D01*
X113707578Y-78186399D01*
X113493492Y-78086570D01*
X113493486Y-78086567D01*
X113280000Y-78029364D01*
X113280000Y-78924498D01*
X113172315Y-78875320D01*
X113065763Y-78860000D01*
X112994237Y-78860000D01*
X112887685Y-78875320D01*
X112780000Y-78924498D01*
X112780000Y-78029364D01*
X112779999Y-78029364D01*
X112566513Y-78086567D01*
X112566507Y-78086570D01*
X112352422Y-78186399D01*
X112352420Y-78186400D01*
X112158926Y-78321886D01*
X112158920Y-78321891D01*
X111991891Y-78488920D01*
X111991886Y-78488926D01*
X111856400Y-78682420D01*
X111856399Y-78682422D01*
X111756570Y-78896507D01*
X111756567Y-78896513D01*
X111699364Y-79109999D01*
X111699364Y-79110000D01*
X112596314Y-79110000D01*
X112570507Y-79150156D01*
X112530000Y-79288111D01*
X112530000Y-79431889D01*
X112570507Y-79569844D01*
X112596314Y-79610000D01*
X111711309Y-79610000D01*
X111644270Y-79590315D01*
X111623628Y-79573681D01*
X107311225Y-75261278D01*
X107277740Y-75199955D01*
X107282724Y-75130263D01*
X107324596Y-75074330D01*
X107390060Y-75049913D01*
X107441327Y-75057079D01*
X107446340Y-75058904D01*
X107503912Y-75074330D01*
X107674592Y-75120063D01*
X107852360Y-75135616D01*
X107909999Y-75140659D01*
X107910000Y-75140659D01*
X107910001Y-75140659D01*
X107967640Y-75135616D01*
X108145408Y-75120063D01*
X108373663Y-75058903D01*
X108587829Y-74959035D01*
X108781401Y-74823495D01*
X108948495Y-74656401D01*
X109058426Y-74499401D01*
X109113001Y-74455778D01*
X109182500Y-74448584D01*
X109244855Y-74480106D01*
X109261571Y-74499398D01*
X109318138Y-74580185D01*
X109371506Y-74656403D01*
X109456844Y-74741740D01*
X109538599Y-74823495D01*
X109635384Y-74891265D01*
X109732165Y-74959032D01*
X109732167Y-74959033D01*
X109732170Y-74959035D01*
X109946337Y-75058903D01*
X109946343Y-75058904D01*
X109946344Y-75058905D01*
X110001285Y-75073626D01*
X110174592Y-75120063D01*
X110352360Y-75135616D01*
X110409999Y-75140659D01*
X110410000Y-75140659D01*
X110410001Y-75140659D01*
X110467640Y-75135616D01*
X110645408Y-75120063D01*
X110873663Y-75058903D01*
X111087829Y-74959035D01*
X111281401Y-74823495D01*
X111448495Y-74656401D01*
X111558732Y-74498965D01*
X111613306Y-74455342D01*
X111682805Y-74448148D01*
X111745159Y-74479670D01*
X111761880Y-74498967D01*
X111871886Y-74656073D01*
X111871891Y-74656079D01*
X112038917Y-74823105D01*
X112232421Y-74958600D01*
X112446507Y-75058429D01*
X112446516Y-75058433D01*
X112660000Y-75115634D01*
X112660000Y-74068018D01*
X112774801Y-74120446D01*
X112876025Y-74135000D01*
X112943975Y-74135000D01*
X113045199Y-74120446D01*
X113160000Y-74068018D01*
X113160000Y-75115633D01*
X113373483Y-75058433D01*
X113373492Y-75058429D01*
X113587577Y-74958600D01*
X113587579Y-74958599D01*
X113781073Y-74823113D01*
X113781079Y-74823108D01*
X113948108Y-74656079D01*
X113948113Y-74656073D01*
X114083599Y-74462579D01*
X114083600Y-74462577D01*
X114183429Y-74248492D01*
X114183433Y-74248483D01*
X114244567Y-74020326D01*
X114244569Y-74020316D01*
X114254221Y-73910000D01*
X113313969Y-73910000D01*
X113346519Y-73859351D01*
X113385000Y-73728295D01*
X113385000Y-73591705D01*
X113346519Y-73460649D01*
X113313969Y-73410000D01*
X114254221Y-73410000D01*
X114244569Y-73299683D01*
X114244567Y-73299674D01*
X114202210Y-73141593D01*
X114203873Y-73071744D01*
X114243035Y-73013881D01*
X114307264Y-72986377D01*
X114321985Y-72985500D01*
X141572972Y-72985500D01*
X141640011Y-73005185D01*
X141660653Y-73021819D01*
X154086246Y-85447412D01*
X154091335Y-85453174D01*
X154108124Y-85474744D01*
X154108126Y-85474746D01*
X154108127Y-85474747D01*
X154176783Y-85537950D01*
X154191783Y-85552949D01*
X154198736Y-85559902D01*
X154222426Y-85579966D01*
X154291077Y-85643164D01*
X154291079Y-85643165D01*
X154304243Y-85651766D01*
X154349600Y-85704912D01*
X154359024Y-85774143D01*
X154335689Y-85829886D01*
X154281204Y-85902668D01*
X154281202Y-85902671D01*
X154230908Y-86037517D01*
X154224501Y-86097116D01*
X154224500Y-86097135D01*
X154224500Y-87892870D01*
X154224501Y-87892876D01*
X154230908Y-87952483D01*
X154281202Y-88087328D01*
X154281206Y-88087335D01*
X154367452Y-88202544D01*
X154367455Y-88202547D01*
X154482664Y-88288793D01*
X154482671Y-88288797D01*
X154617517Y-88339091D01*
X154617516Y-88339091D01*
X154623795Y-88339766D01*
X154677127Y-88345500D01*
X156275500Y-88345499D01*
X156342539Y-88365184D01*
X156388294Y-88417987D01*
X156399500Y-88469499D01*
X156399500Y-90800088D01*
X156379815Y-90867127D01*
X156327011Y-90912882D01*
X156257853Y-90922826D01*
X156204376Y-90901663D01*
X156182578Y-90886399D01*
X155968492Y-90786570D01*
X155968486Y-90786567D01*
X155755000Y-90729364D01*
X155755000Y-91624498D01*
X155647315Y-91575320D01*
X155540763Y-91560000D01*
X155469237Y-91560000D01*
X155362685Y-91575320D01*
X155255000Y-91624498D01*
X155255000Y-90729364D01*
X155254999Y-90729364D01*
X155041513Y-90786567D01*
X155041507Y-90786570D01*
X154827422Y-90886399D01*
X154827420Y-90886400D01*
X154633926Y-91021886D01*
X154633920Y-91021891D01*
X154466891Y-91188920D01*
X154466886Y-91188926D01*
X154331400Y-91382420D01*
X154331399Y-91382422D01*
X154231570Y-91596507D01*
X154231567Y-91596513D01*
X154174364Y-91809999D01*
X154174364Y-91810000D01*
X155071314Y-91810000D01*
X155045507Y-91850156D01*
X155005000Y-91988111D01*
X155005000Y-92131889D01*
X155045507Y-92269844D01*
X155071314Y-92310000D01*
X154174364Y-92310000D01*
X154231567Y-92523486D01*
X154231570Y-92523492D01*
X154331399Y-92737578D01*
X154466894Y-92931082D01*
X154633918Y-93098106D01*
X154689637Y-93137122D01*
X154733261Y-93191699D01*
X154740453Y-93261198D01*
X154708930Y-93323552D01*
X154686334Y-93342505D01*
X154580215Y-93411836D01*
X154397261Y-93580257D01*
X154244524Y-93776493D01*
X154126172Y-93995188D01*
X154126169Y-93995197D01*
X154045429Y-94230383D01*
X154004500Y-94475665D01*
X154004500Y-94724334D01*
X154045429Y-94969616D01*
X154126169Y-95204802D01*
X154126172Y-95204811D01*
X154244524Y-95423506D01*
X154244526Y-95423509D01*
X154280178Y-95469314D01*
X154397262Y-95619744D01*
X154397265Y-95619747D01*
X154430140Y-95650011D01*
X154466131Y-95709898D01*
X154464030Y-95779736D01*
X154424506Y-95837352D01*
X154419594Y-95840654D01*
X154419769Y-95840888D01*
X154297455Y-95932452D01*
X154297452Y-95932455D01*
X154211206Y-96047664D01*
X154211202Y-96047671D01*
X154160908Y-96182517D01*
X154155114Y-96236415D01*
X154154500Y-96242127D01*
X154154500Y-96945156D01*
X154154501Y-97565500D01*
X154134816Y-97632539D01*
X154082013Y-97678294D01*
X154030501Y-97689500D01*
X128095452Y-97689500D01*
X128028413Y-97669815D01*
X128007771Y-97653181D01*
X122564123Y-92209532D01*
X122530638Y-92148209D01*
X122535622Y-92078517D01*
X122577494Y-92022584D01*
X122640995Y-91998323D01*
X122735408Y-91990063D01*
X122963663Y-91928903D01*
X123177829Y-91829035D01*
X123371401Y-91693495D01*
X123538495Y-91526401D01*
X123648426Y-91369401D01*
X123703001Y-91325778D01*
X123772500Y-91318584D01*
X123834855Y-91350106D01*
X123851571Y-91369398D01*
X123866708Y-91391016D01*
X123961506Y-91526403D01*
X124070152Y-91635048D01*
X124128599Y-91693495D01*
X124179594Y-91729202D01*
X124322165Y-91829032D01*
X124322167Y-91829033D01*
X124322170Y-91829035D01*
X124536337Y-91928903D01*
X124536343Y-91928904D01*
X124536344Y-91928905D01*
X124575356Y-91939358D01*
X124764592Y-91990063D01*
X124952918Y-92006539D01*
X124999999Y-92010659D01*
X125000000Y-92010659D01*
X125000001Y-92010659D01*
X125046805Y-92006564D01*
X125235408Y-91990063D01*
X125463663Y-91928903D01*
X125677829Y-91829035D01*
X125871401Y-91693495D01*
X126018965Y-91545930D01*
X126080287Y-91512447D01*
X126149978Y-91517431D01*
X126205912Y-91559302D01*
X126212183Y-91568516D01*
X126307680Y-91723340D01*
X126307683Y-91723344D01*
X126431654Y-91847315D01*
X126580875Y-91939356D01*
X126580880Y-91939358D01*
X126747302Y-91994505D01*
X126747309Y-91994506D01*
X126850019Y-92004999D01*
X127249999Y-92004999D01*
X127250000Y-92004998D01*
X127250000Y-90938018D01*
X127364801Y-90990446D01*
X127466025Y-91005000D01*
X127533975Y-91005000D01*
X127635199Y-90990446D01*
X127750000Y-90938018D01*
X127750000Y-92004999D01*
X128149972Y-92004999D01*
X128149986Y-92004998D01*
X128252697Y-91994505D01*
X128419119Y-91939358D01*
X128419124Y-91939356D01*
X128568345Y-91847315D01*
X128692315Y-91723345D01*
X128784356Y-91574124D01*
X128784358Y-91574119D01*
X128839505Y-91407697D01*
X128839506Y-91407690D01*
X128849999Y-91304986D01*
X128850000Y-91304973D01*
X128850000Y-90780000D01*
X127903969Y-90780000D01*
X127936519Y-90729351D01*
X127975000Y-90598295D01*
X127975000Y-90461705D01*
X127936519Y-90330649D01*
X127903969Y-90280000D01*
X128849999Y-90280000D01*
X128849999Y-89755028D01*
X128849998Y-89755013D01*
X128839505Y-89652302D01*
X128784358Y-89485880D01*
X128784356Y-89485875D01*
X128692315Y-89336654D01*
X128568345Y-89212684D01*
X128419124Y-89120643D01*
X128419119Y-89120641D01*
X128252697Y-89065494D01*
X128252690Y-89065493D01*
X128149986Y-89055000D01*
X127750000Y-89055000D01*
X127750000Y-90121981D01*
X127635199Y-90069554D01*
X127533975Y-90055000D01*
X127466025Y-90055000D01*
X127364801Y-90069554D01*
X127250000Y-90121981D01*
X127250000Y-89055000D01*
X126850028Y-89055000D01*
X126850012Y-89055001D01*
X126747302Y-89065494D01*
X126580880Y-89120641D01*
X126580875Y-89120643D01*
X126431654Y-89212684D01*
X126307683Y-89336655D01*
X126307680Y-89336659D01*
X126212183Y-89491483D01*
X126160235Y-89538208D01*
X126091272Y-89549429D01*
X126027190Y-89521586D01*
X126018964Y-89514068D01*
X125957382Y-89452486D01*
X125871401Y-89366505D01*
X125871397Y-89366502D01*
X125871396Y-89366501D01*
X125677834Y-89230967D01*
X125677830Y-89230965D01*
X125498204Y-89147204D01*
X125463663Y-89131097D01*
X125463659Y-89131096D01*
X125463655Y-89131094D01*
X125235413Y-89069938D01*
X125235403Y-89069936D01*
X125000001Y-89049341D01*
X124999999Y-89049341D01*
X124764596Y-89069936D01*
X124764586Y-89069938D01*
X124536344Y-89131094D01*
X124536335Y-89131098D01*
X124322171Y-89230964D01*
X124322169Y-89230965D01*
X124128597Y-89366505D01*
X123961505Y-89533597D01*
X123851575Y-89690595D01*
X123796998Y-89734220D01*
X123727500Y-89741414D01*
X123665145Y-89709891D01*
X123648425Y-89690595D01*
X123538494Y-89533597D01*
X123371402Y-89366506D01*
X123371395Y-89366501D01*
X123361532Y-89359595D01*
X123328769Y-89336654D01*
X123177834Y-89230967D01*
X123177830Y-89230965D01*
X122998204Y-89147204D01*
X122963663Y-89131097D01*
X122963659Y-89131096D01*
X122963655Y-89131094D01*
X122735413Y-89069938D01*
X122735403Y-89069936D01*
X122500001Y-89049341D01*
X122499999Y-89049341D01*
X122264596Y-89069936D01*
X122264586Y-89069938D01*
X122036344Y-89131094D01*
X122036335Y-89131098D01*
X121822171Y-89230964D01*
X121822169Y-89230965D01*
X121628597Y-89366505D01*
X121461505Y-89533597D01*
X121351575Y-89690595D01*
X121296998Y-89734220D01*
X121227500Y-89741414D01*
X121165145Y-89709891D01*
X121148425Y-89690595D01*
X121038494Y-89533597D01*
X120871402Y-89366506D01*
X120871395Y-89366501D01*
X120861532Y-89359595D01*
X120828769Y-89336654D01*
X120677834Y-89230967D01*
X120677830Y-89230965D01*
X120498204Y-89147204D01*
X120463663Y-89131097D01*
X120463659Y-89131096D01*
X120463655Y-89131094D01*
X120235413Y-89069938D01*
X120235403Y-89069936D01*
X120000001Y-89049341D01*
X119999999Y-89049341D01*
X119764596Y-89069936D01*
X119764586Y-89069938D01*
X119536344Y-89131094D01*
X119536335Y-89131098D01*
X119322171Y-89230964D01*
X119322169Y-89230965D01*
X119128597Y-89366505D01*
X118961505Y-89533597D01*
X118825965Y-89727169D01*
X118825964Y-89727171D01*
X118726098Y-89941335D01*
X118726094Y-89941344D01*
X118664938Y-90169586D01*
X118664936Y-90169596D01*
X118649500Y-90346034D01*
X118649500Y-90713966D01*
X118664936Y-90890403D01*
X118664938Y-90890413D01*
X118726094Y-91118655D01*
X118726096Y-91118659D01*
X118726097Y-91118663D01*
X118769836Y-91212461D01*
X118825964Y-91332828D01*
X118825965Y-91332830D01*
X118961505Y-91526402D01*
X119070152Y-91635048D01*
X119128599Y-91693495D01*
X119179594Y-91729202D01*
X119322165Y-91829032D01*
X119322167Y-91829033D01*
X119322170Y-91829035D01*
X119536337Y-91928903D01*
X119536343Y-91928904D01*
X119536344Y-91928905D01*
X119575356Y-91939358D01*
X119764592Y-91990063D01*
X119952918Y-92006539D01*
X119999999Y-92010659D01*
X120000000Y-92010659D01*
X120000001Y-92010659D01*
X120046805Y-92006564D01*
X120235408Y-91990063D01*
X120434459Y-91936728D01*
X120504308Y-91938391D01*
X120554232Y-91968822D01*
X127284194Y-98698784D01*
X127294019Y-98711048D01*
X127294240Y-98710866D01*
X127299210Y-98716873D01*
X127299213Y-98716876D01*
X127299214Y-98716877D01*
X127349651Y-98764241D01*
X127370530Y-98785120D01*
X127376004Y-98789366D01*
X127380442Y-98793156D01*
X127414418Y-98825062D01*
X127414422Y-98825064D01*
X127431973Y-98834713D01*
X127448231Y-98845392D01*
X127464064Y-98857674D01*
X127486015Y-98867172D01*
X127506837Y-98876183D01*
X127512081Y-98878752D01*
X127552908Y-98901197D01*
X127572312Y-98906179D01*
X127590710Y-98912478D01*
X127609105Y-98920438D01*
X127655129Y-98927726D01*
X127660832Y-98928907D01*
X127705981Y-98940500D01*
X127726016Y-98940500D01*
X127745413Y-98942026D01*
X127765196Y-98945160D01*
X127811584Y-98940775D01*
X127817422Y-98940500D01*
X161952257Y-98940500D01*
X161967877Y-98942224D01*
X161967904Y-98941939D01*
X161975660Y-98942671D01*
X161975667Y-98942673D01*
X162044814Y-98940500D01*
X162074350Y-98940500D01*
X162081228Y-98939630D01*
X162087041Y-98939172D01*
X162133627Y-98937709D01*
X162152869Y-98932117D01*
X162171912Y-98928174D01*
X162191792Y-98925664D01*
X162235122Y-98908507D01*
X162240646Y-98906617D01*
X162244396Y-98905527D01*
X162285390Y-98893618D01*
X162302629Y-98883422D01*
X162320103Y-98874862D01*
X162338727Y-98867488D01*
X162338727Y-98867487D01*
X162338732Y-98867486D01*
X162376449Y-98840082D01*
X162381305Y-98836892D01*
X162421420Y-98813170D01*
X162435589Y-98798999D01*
X162450379Y-98786368D01*
X162466587Y-98774594D01*
X162496299Y-98738676D01*
X162500212Y-98734376D01*
X164470788Y-96763801D01*
X164483042Y-96753986D01*
X164482859Y-96753764D01*
X164488866Y-96748792D01*
X164488877Y-96748786D01*
X164519775Y-96715882D01*
X164536227Y-96698364D01*
X164546671Y-96687918D01*
X164557120Y-96677471D01*
X164561379Y-96671978D01*
X164565152Y-96667561D01*
X164597062Y-96633582D01*
X164606713Y-96616024D01*
X164617396Y-96599761D01*
X164629673Y-96583936D01*
X164648185Y-96541153D01*
X164650738Y-96535941D01*
X164673197Y-96495092D01*
X164678180Y-96475680D01*
X164684481Y-96457280D01*
X164692437Y-96438896D01*
X164699729Y-96392852D01*
X164700906Y-96387171D01*
X164712500Y-96342019D01*
X164712500Y-96321983D01*
X164714027Y-96302582D01*
X164717160Y-96282804D01*
X164712775Y-96236415D01*
X164712500Y-96230577D01*
X164712500Y-88549738D01*
X164714224Y-88534124D01*
X164713938Y-88534097D01*
X164714672Y-88526334D01*
X164712500Y-88457203D01*
X164712500Y-88427651D01*
X164712500Y-88427650D01*
X164711629Y-88420759D01*
X164711172Y-88414945D01*
X164709709Y-88368372D01*
X164704122Y-88349144D01*
X164700174Y-88330084D01*
X164699075Y-88321381D01*
X164697664Y-88310208D01*
X164680507Y-88266875D01*
X164678619Y-88261359D01*
X164665619Y-88216612D01*
X164655418Y-88199363D01*
X164646860Y-88181894D01*
X164639486Y-88163268D01*
X164639483Y-88163264D01*
X164639483Y-88163263D01*
X164612098Y-88125571D01*
X164608890Y-88120687D01*
X164585172Y-88080582D01*
X164585163Y-88080571D01*
X164571005Y-88066413D01*
X164558370Y-88051620D01*
X164546593Y-88035412D01*
X164510693Y-88005713D01*
X164506381Y-88001790D01*
X164268386Y-87763795D01*
X164234901Y-87702472D01*
X164236293Y-87644018D01*
X164240050Y-87630000D01*
X164248070Y-87600068D01*
X164267323Y-87380000D01*
X164248070Y-87159932D01*
X164190894Y-86946550D01*
X164097534Y-86746339D01*
X163970826Y-86565380D01*
X163814620Y-86409174D01*
X163814616Y-86409171D01*
X163814615Y-86409170D01*
X163633666Y-86282468D01*
X163633662Y-86282466D01*
X163586159Y-86260315D01*
X163433450Y-86189106D01*
X163433447Y-86189105D01*
X163433445Y-86189104D01*
X163220070Y-86131930D01*
X163220062Y-86131929D01*
X163000002Y-86112677D01*
X162999998Y-86112677D01*
X162779937Y-86131929D01*
X162779929Y-86131930D01*
X162566554Y-86189104D01*
X162566548Y-86189107D01*
X162366340Y-86282465D01*
X162366338Y-86282466D01*
X162185377Y-86409175D01*
X162029175Y-86565377D01*
X161902466Y-86746338D01*
X161902465Y-86746340D01*
X161809107Y-86946548D01*
X161809104Y-86946554D01*
X161751930Y-87159929D01*
X161751929Y-87159937D01*
X161732677Y-87379997D01*
X161732677Y-87380002D01*
X161751929Y-87600062D01*
X161751930Y-87600070D01*
X161809104Y-87813445D01*
X161809105Y-87813447D01*
X161809106Y-87813450D01*
X161842382Y-87884811D01*
X161902466Y-88013662D01*
X161902468Y-88013666D01*
X162029170Y-88194615D01*
X162029175Y-88194621D01*
X162185378Y-88350824D01*
X162185384Y-88350829D01*
X162366333Y-88477531D01*
X162366335Y-88477532D01*
X162366338Y-88477534D01*
X162486002Y-88533334D01*
X162495781Y-88537894D01*
X162548220Y-88584066D01*
X162567372Y-88651260D01*
X162547156Y-88718141D01*
X162495781Y-88762658D01*
X162366586Y-88822903D01*
X162301812Y-88868257D01*
X162301811Y-88868258D01*
X162972553Y-89539000D01*
X162968431Y-89539000D01*
X162874579Y-89554661D01*
X162762749Y-89615180D01*
X162676629Y-89708731D01*
X162625552Y-89825177D01*
X162619894Y-89893447D01*
X161948258Y-89221811D01*
X161948257Y-89221812D01*
X161902903Y-89286586D01*
X161809579Y-89486720D01*
X161809575Y-89486729D01*
X161752426Y-89700013D01*
X161752424Y-89700023D01*
X161733179Y-89919999D01*
X161733179Y-89920000D01*
X161752424Y-90139976D01*
X161752426Y-90139986D01*
X161809575Y-90353270D01*
X161809580Y-90353284D01*
X161902899Y-90553407D01*
X161902900Y-90553409D01*
X161948258Y-90618187D01*
X162615096Y-89951349D01*
X162615051Y-89951898D01*
X162646266Y-90075162D01*
X162715813Y-90181612D01*
X162816157Y-90259713D01*
X162936422Y-90301000D01*
X162972553Y-90301000D01*
X162301811Y-90971741D01*
X162366582Y-91017094D01*
X162366588Y-91017098D01*
X162495781Y-91077342D01*
X162548220Y-91123514D01*
X162567372Y-91190708D01*
X162547156Y-91257589D01*
X162495781Y-91302106D01*
X162366340Y-91362465D01*
X162366338Y-91362466D01*
X162185377Y-91489175D01*
X162029175Y-91645377D01*
X161902466Y-91826338D01*
X161902465Y-91826340D01*
X161842382Y-91955189D01*
X161796209Y-92007628D01*
X161729016Y-92026780D01*
X161662135Y-92006564D01*
X161617618Y-91955189D01*
X161558791Y-91829035D01*
X161557534Y-91826339D01*
X161430826Y-91645380D01*
X161274620Y-91489174D01*
X161274616Y-91489171D01*
X161274615Y-91489170D01*
X161093666Y-91362468D01*
X161093662Y-91362466D01*
X161030105Y-91332829D01*
X160893450Y-91269106D01*
X160893447Y-91269105D01*
X160893445Y-91269104D01*
X160680070Y-91211930D01*
X160680062Y-91211929D01*
X160460002Y-91192677D01*
X160459998Y-91192677D01*
X160239937Y-91211929D01*
X160239929Y-91211930D01*
X160026554Y-91269104D01*
X160026548Y-91269107D01*
X159826340Y-91362465D01*
X159826338Y-91362466D01*
X159645377Y-91489175D01*
X159612181Y-91522372D01*
X159550858Y-91555857D01*
X159481166Y-91550873D01*
X159425233Y-91509001D01*
X159400816Y-91443537D01*
X159400500Y-91434691D01*
X159400500Y-85842018D01*
X159400977Y-85834342D01*
X159402433Y-85822656D01*
X159404357Y-85807221D01*
X159400500Y-85713973D01*
X159400500Y-85682933D01*
X159397936Y-85651994D01*
X159394080Y-85558763D01*
X159388471Y-85532018D01*
X159387364Y-85524415D01*
X159385108Y-85497179D01*
X159362196Y-85406702D01*
X159343049Y-85315386D01*
X159333116Y-85289932D01*
X159330771Y-85282609D01*
X159324064Y-85256123D01*
X159324063Y-85256119D01*
X159313973Y-85233116D01*
X159286574Y-85170651D01*
X159259077Y-85100185D01*
X159252655Y-85083726D01*
X159238664Y-85060245D01*
X159235147Y-85053411D01*
X159231973Y-85046176D01*
X159224173Y-85028393D01*
X159173134Y-84950272D01*
X159125366Y-84870106D01*
X159107702Y-84849250D01*
X159103106Y-84843086D01*
X159100295Y-84838784D01*
X159088164Y-84820215D01*
X159024966Y-84751564D01*
X159004902Y-84727874D01*
X158997528Y-84720500D01*
X158982950Y-84705921D01*
X158919747Y-84637265D01*
X158919746Y-84637264D01*
X158919744Y-84637262D01*
X158898174Y-84620473D01*
X158892412Y-84615384D01*
X158191193Y-83914165D01*
X158161593Y-83866747D01*
X158155910Y-83850192D01*
X158155906Y-83850185D01*
X158146759Y-83833284D01*
X158127481Y-83797660D01*
X158125236Y-83793069D01*
X158101254Y-83738393D01*
X158068591Y-83688399D01*
X158065972Y-83684002D01*
X158045673Y-83646493D01*
X158037555Y-83631491D01*
X158000878Y-83584368D01*
X157997899Y-83580196D01*
X157997651Y-83579817D01*
X157965245Y-83530215D01*
X157924805Y-83486286D01*
X157921498Y-83482381D01*
X157884819Y-83435256D01*
X157884812Y-83435248D01*
X157856691Y-83409362D01*
X157840877Y-83394804D01*
X157837286Y-83391214D01*
X157811368Y-83363060D01*
X157796832Y-83347268D01*
X157796828Y-83347265D01*
X157796827Y-83347264D01*
X157796825Y-83347262D01*
X157749704Y-83310586D01*
X157745793Y-83307273D01*
X157726014Y-83289066D01*
X157701866Y-83266836D01*
X157678592Y-83251630D01*
X157651879Y-83234177D01*
X157647708Y-83231199D01*
X157600591Y-83194526D01*
X157600583Y-83194521D01*
X157548066Y-83166100D01*
X157543662Y-83163476D01*
X157493685Y-83130825D01*
X157439020Y-83106847D01*
X157434414Y-83104596D01*
X157415039Y-83094111D01*
X157381891Y-83076172D01*
X157325411Y-83056782D01*
X157320651Y-83054926D01*
X157293566Y-83043045D01*
X157265963Y-83030937D01*
X157208077Y-83016278D01*
X157203170Y-83014816D01*
X157191256Y-83010726D01*
X157146698Y-82995429D01*
X157087793Y-82985598D01*
X157082778Y-82984547D01*
X157024904Y-82969892D01*
X157024896Y-82969891D01*
X156965399Y-82964961D01*
X156960313Y-82964327D01*
X156901417Y-82954500D01*
X156901416Y-82954500D01*
X156839148Y-82954500D01*
X156733381Y-82954500D01*
X156666342Y-82934815D01*
X156620587Y-82882011D01*
X156610643Y-82812853D01*
X156631806Y-82759376D01*
X156748600Y-82592578D01*
X156848429Y-82378492D01*
X156848432Y-82378486D01*
X156905636Y-82165000D01*
X156008686Y-82165000D01*
X156034493Y-82124844D01*
X156075000Y-81986889D01*
X156075000Y-81843111D01*
X156034493Y-81705156D01*
X156008686Y-81665000D01*
X156905636Y-81665000D01*
X156905635Y-81664999D01*
X156848432Y-81451513D01*
X156848429Y-81451507D01*
X156748600Y-81237422D01*
X156748599Y-81237420D01*
X156613113Y-81043926D01*
X156613108Y-81043920D01*
X156446082Y-80876894D01*
X156252578Y-80741399D01*
X156038492Y-80641570D01*
X156038486Y-80641567D01*
X155825000Y-80584364D01*
X155825000Y-81479498D01*
X155717315Y-81430320D01*
X155610763Y-81415000D01*
X155539237Y-81415000D01*
X155432685Y-81430320D01*
X155325000Y-81479498D01*
X155325000Y-80584364D01*
X155324999Y-80584364D01*
X155111513Y-80641567D01*
X155111507Y-80641570D01*
X154897422Y-80741399D01*
X154897420Y-80741400D01*
X154703926Y-80876886D01*
X154703920Y-80876891D01*
X154536891Y-81043920D01*
X154536886Y-81043926D01*
X154401400Y-81237420D01*
X154401395Y-81237429D01*
X154386848Y-81268624D01*
X154340674Y-81321062D01*
X154273480Y-81340212D01*
X154206600Y-81319994D01*
X154186787Y-81303897D01*
X143375477Y-70492587D01*
X143370386Y-70486822D01*
X143353601Y-70465257D01*
X143284940Y-70402049D01*
X143262991Y-70380100D01*
X143239297Y-70360033D01*
X143170648Y-70296837D01*
X143170647Y-70296836D01*
X143147766Y-70281887D01*
X143141609Y-70277296D01*
X143120756Y-70259634D01*
X143072740Y-70231022D01*
X143025226Y-70179795D01*
X143012951Y-70111012D01*
X143039811Y-70046511D01*
X143097278Y-70006772D01*
X143136215Y-70000500D01*
X164875500Y-70000500D01*
X164942539Y-70020185D01*
X164988294Y-70072989D01*
X164999500Y-70124500D01*
X164999500Y-99875500D01*
X164979815Y-99942539D01*
X164927011Y-99988294D01*
X164875500Y-99999500D01*
X35124500Y-99999500D01*
X35057461Y-99979815D01*
X35011706Y-99927011D01*
X35000500Y-99875500D01*
X35000500Y-70124500D01*
X35020185Y-70057461D01*
X35072989Y-70011706D01*
X35124500Y-70000500D01*
X87939648Y-70000500D01*
X88006687Y-70020185D01*
G37*
%TD.AperFunction*%
%TA.AperFunction,Conductor*%
G36*
X159185192Y-94426412D02*
G01*
X159242808Y-94465936D01*
X159269910Y-94530335D01*
X159266472Y-94576378D01*
X159211931Y-94779926D01*
X159211929Y-94779937D01*
X159192677Y-94999997D01*
X159192677Y-95000002D01*
X159211929Y-95220062D01*
X159211930Y-95220070D01*
X159269104Y-95433445D01*
X159269105Y-95433447D01*
X159269106Y-95433450D01*
X159293798Y-95486402D01*
X159362466Y-95633662D01*
X159362468Y-95633666D01*
X159489170Y-95814615D01*
X159489175Y-95814621D01*
X159645378Y-95970824D01*
X159645384Y-95970829D01*
X159826333Y-96097531D01*
X159826335Y-96097532D01*
X159826338Y-96097534D01*
X160026550Y-96190894D01*
X160239932Y-96248070D01*
X160397123Y-96261822D01*
X160459998Y-96267323D01*
X160460000Y-96267323D01*
X160460002Y-96267323D01*
X160515017Y-96262509D01*
X160680068Y-96248070D01*
X160893450Y-96190894D01*
X161093662Y-96097534D01*
X161274620Y-95970826D01*
X161430826Y-95814620D01*
X161557534Y-95633662D01*
X161617618Y-95504811D01*
X161663790Y-95452371D01*
X161730983Y-95433219D01*
X161797865Y-95453435D01*
X161842382Y-95504811D01*
X161902464Y-95633658D01*
X161902468Y-95633666D01*
X162029170Y-95814615D01*
X162029175Y-95814621D01*
X162185378Y-95970824D01*
X162185384Y-95970829D01*
X162366333Y-96097531D01*
X162366335Y-96097532D01*
X162366338Y-96097534D01*
X162566550Y-96190894D01*
X162779932Y-96248070D01*
X162917243Y-96260082D01*
X162982310Y-96285534D01*
X163023289Y-96342124D01*
X163027168Y-96411886D01*
X162994116Y-96471291D01*
X161812228Y-97653181D01*
X161750905Y-97686666D01*
X161724547Y-97689500D01*
X156979500Y-97689500D01*
X156912461Y-97669815D01*
X156866706Y-97617011D01*
X156855500Y-97565500D01*
X156855499Y-96242129D01*
X156855499Y-96242128D01*
X156854388Y-96231794D01*
X156866794Y-96163035D01*
X156914405Y-96111898D01*
X156972557Y-96094646D01*
X156986237Y-96094081D01*
X157012982Y-96088472D01*
X157020582Y-96087364D01*
X157047821Y-96085108D01*
X157047824Y-96085107D01*
X157047826Y-96085107D01*
X157047829Y-96085106D01*
X157138288Y-96062198D01*
X157229614Y-96043049D01*
X157255077Y-96033112D01*
X157262374Y-96030774D01*
X157288881Y-96024063D01*
X157374335Y-95986579D01*
X157461274Y-95952656D01*
X157484761Y-95938659D01*
X157491581Y-95935149D01*
X157516607Y-95924173D01*
X157594720Y-95873139D01*
X157674894Y-95825366D01*
X157695754Y-95807697D01*
X157701894Y-95803117D01*
X157724785Y-95788164D01*
X157793435Y-95724966D01*
X157817126Y-95704902D01*
X157839078Y-95682949D01*
X157907738Y-95619744D01*
X157924530Y-95598167D01*
X157929604Y-95592422D01*
X158892422Y-94629604D01*
X158898167Y-94624530D01*
X158919744Y-94607738D01*
X158982949Y-94539078D01*
X159004902Y-94517126D01*
X159024966Y-94493435D01*
X159055468Y-94460301D01*
X159115354Y-94424312D01*
X159185192Y-94426412D01*
G37*
%TD.AperFunction*%
%TA.AperFunction,Conductor*%
G36*
X38067865Y-90373435D02*
G01*
X38112382Y-90424811D01*
X38172464Y-90553658D01*
X38172468Y-90553666D01*
X38299170Y-90734615D01*
X38299175Y-90734621D01*
X38455378Y-90890824D01*
X38455384Y-90890829D01*
X38636333Y-91017531D01*
X38636335Y-91017532D01*
X38636338Y-91017534D01*
X38836550Y-91110894D01*
X39049932Y-91168070D01*
X39184090Y-91179807D01*
X39269998Y-91187323D01*
X39270000Y-91187323D01*
X39270001Y-91187323D01*
X39279233Y-91186515D01*
X39355904Y-91179807D01*
X39424402Y-91193573D01*
X39474585Y-91242188D01*
X39490519Y-91310217D01*
X39467144Y-91376060D01*
X39454391Y-91391016D01*
X38200466Y-92644940D01*
X38139143Y-92678425D01*
X38069451Y-92673441D01*
X38013518Y-92631569D01*
X37989101Y-92566105D01*
X37989257Y-92546451D01*
X37996821Y-92460000D01*
X37996821Y-92459999D01*
X37977575Y-92240023D01*
X37977573Y-92240013D01*
X37920424Y-92026729D01*
X37920420Y-92026720D01*
X37827098Y-91826590D01*
X37781740Y-91761811D01*
X37114903Y-92428648D01*
X37114949Y-92428102D01*
X37083734Y-92304838D01*
X37014187Y-92198388D01*
X36913843Y-92120287D01*
X36793578Y-92079000D01*
X36757447Y-92079000D01*
X37428187Y-91408258D01*
X37363409Y-91362900D01*
X37363407Y-91362899D01*
X37234219Y-91302658D01*
X37181779Y-91256486D01*
X37162627Y-91189293D01*
X37182843Y-91122411D01*
X37234219Y-91077894D01*
X37235403Y-91077342D01*
X37363662Y-91017534D01*
X37544620Y-90890826D01*
X37700826Y-90734620D01*
X37827534Y-90553662D01*
X37887618Y-90424811D01*
X37933790Y-90372371D01*
X38000983Y-90353219D01*
X38067865Y-90373435D01*
G37*
%TD.AperFunction*%
%TA.AperFunction,Conductor*%
G36*
X75676200Y-75555365D02*
G01*
X75726690Y-75585975D01*
X76903999Y-76763284D01*
X76913824Y-76775548D01*
X76914045Y-76775366D01*
X76919015Y-76781373D01*
X76919018Y-76781376D01*
X76919019Y-76781377D01*
X76969456Y-76828741D01*
X76990335Y-76849620D01*
X76995809Y-76853866D01*
X77000247Y-76857656D01*
X77034223Y-76889562D01*
X77051778Y-76899213D01*
X77068036Y-76909892D01*
X77083869Y-76922174D01*
X77105820Y-76931672D01*
X77126642Y-76940683D01*
X77131886Y-76943252D01*
X77172713Y-76965697D01*
X77192117Y-76970679D01*
X77210515Y-76976978D01*
X77228910Y-76984938D01*
X77274934Y-76992226D01*
X77280637Y-76993407D01*
X77325786Y-77005000D01*
X77345821Y-77005000D01*
X77365218Y-77006526D01*
X77385001Y-77009660D01*
X77385003Y-77009659D01*
X77385004Y-77009660D01*
X77392631Y-77008939D01*
X77461225Y-77022225D01*
X77496457Y-77049421D01*
X77499129Y-77052388D01*
X77501632Y-77055168D01*
X77531856Y-77118162D01*
X77523226Y-77187497D01*
X77497156Y-77225814D01*
X71789791Y-82933181D01*
X71728468Y-82966666D01*
X71702110Y-82969500D01*
X52467889Y-82969500D01*
X52400850Y-82949815D01*
X52380208Y-82933181D01*
X45815690Y-76368663D01*
X45782205Y-76307340D01*
X45787189Y-76237648D01*
X45829061Y-76181715D01*
X45894525Y-76157298D01*
X45903371Y-76156982D01*
X47281030Y-76156982D01*
X47348069Y-76176667D01*
X47368711Y-76193301D01*
X50204197Y-79028788D01*
X50214022Y-79041051D01*
X50214243Y-79040869D01*
X50219214Y-79046878D01*
X50240043Y-79066437D01*
X50269635Y-79094226D01*
X50290529Y-79115120D01*
X50296011Y-79119373D01*
X50300443Y-79123157D01*
X50334418Y-79155062D01*
X50351976Y-79164714D01*
X50368235Y-79175395D01*
X50384064Y-79187673D01*
X50426838Y-79206182D01*
X50432056Y-79208738D01*
X50472908Y-79231197D01*
X50492316Y-79236180D01*
X50510717Y-79242480D01*
X50529104Y-79250437D01*
X50572488Y-79257308D01*
X50575119Y-79257725D01*
X50580839Y-79258909D01*
X50625981Y-79270500D01*
X50646016Y-79270500D01*
X50665414Y-79272026D01*
X50685194Y-79275159D01*
X50685195Y-79275160D01*
X50685195Y-79275159D01*
X50685196Y-79275160D01*
X50731584Y-79270775D01*
X50737422Y-79270500D01*
X71132257Y-79270500D01*
X71147877Y-79272224D01*
X71147904Y-79271939D01*
X71155660Y-79272671D01*
X71155667Y-79272673D01*
X71224814Y-79270500D01*
X71254350Y-79270500D01*
X71261228Y-79269630D01*
X71267041Y-79269172D01*
X71313627Y-79267709D01*
X71332869Y-79262117D01*
X71351912Y-79258174D01*
X71371792Y-79255664D01*
X71415122Y-79238507D01*
X71420646Y-79236617D01*
X71424396Y-79235527D01*
X71465390Y-79223618D01*
X71482629Y-79213422D01*
X71500103Y-79204862D01*
X71518727Y-79197488D01*
X71518727Y-79197487D01*
X71518732Y-79197486D01*
X71556449Y-79170082D01*
X71561305Y-79166892D01*
X71601420Y-79143170D01*
X71615589Y-79128999D01*
X71630379Y-79116368D01*
X71646587Y-79104594D01*
X71676299Y-79068676D01*
X71680212Y-79064376D01*
X74877772Y-75866819D01*
X74939095Y-75833334D01*
X74965453Y-75830500D01*
X75024644Y-75830500D01*
X75024646Y-75830500D01*
X75209803Y-75791144D01*
X75382730Y-75714151D01*
X75535871Y-75602888D01*
X75546858Y-75590685D01*
X75606343Y-75554036D01*
X75676200Y-75555365D01*
G37*
%TD.AperFunction*%
%TA.AperFunction,Conductor*%
G36*
X85512805Y-75630185D02*
G01*
X85558560Y-75682989D01*
X85568504Y-75752147D01*
X85553153Y-75796499D01*
X85532823Y-75831710D01*
X85532818Y-75831722D01*
X85474327Y-76011740D01*
X85474326Y-76011744D01*
X85454540Y-76200000D01*
X85474326Y-76388256D01*
X85474327Y-76388259D01*
X85532818Y-76568277D01*
X85532821Y-76568284D01*
X85627467Y-76732216D01*
X85729185Y-76845185D01*
X85754129Y-76872888D01*
X85907265Y-76984148D01*
X85907270Y-76984151D01*
X86080192Y-77061142D01*
X86080193Y-77061142D01*
X86080197Y-77061144D01*
X86265354Y-77100500D01*
X86265357Y-77100500D01*
X86271280Y-77101759D01*
X86332762Y-77134951D01*
X86366539Y-77196114D01*
X86369500Y-77223049D01*
X86369500Y-79311312D01*
X86349815Y-79378351D01*
X86337650Y-79394284D01*
X86262466Y-79477784D01*
X86167821Y-79641715D01*
X86167818Y-79641722D01*
X86109327Y-79821740D01*
X86109326Y-79821744D01*
X86089540Y-80010000D01*
X86109326Y-80198256D01*
X86109327Y-80198259D01*
X86167818Y-80378277D01*
X86167821Y-80378284D01*
X86219907Y-80468500D01*
X86236380Y-80536401D01*
X86213527Y-80602427D01*
X86158606Y-80645618D01*
X86112520Y-80654500D01*
X80393109Y-80654500D01*
X80326070Y-80634815D01*
X80280315Y-80582011D01*
X80269788Y-80543462D01*
X80269046Y-80536401D01*
X80260674Y-80456744D01*
X80202179Y-80276716D01*
X80107533Y-80112784D01*
X80039817Y-80037578D01*
X80024690Y-80020777D01*
X79994460Y-79957785D01*
X80003086Y-79888450D01*
X80029156Y-79850127D01*
X84232467Y-75646819D01*
X84293790Y-75613334D01*
X84320148Y-75610500D01*
X85445766Y-75610500D01*
X85512805Y-75630185D01*
G37*
%TD.AperFunction*%
%TD*%
M02*
