M48
; DRILL file {KiCad 7.0.9} date Wed Jan 29 17:13:48 2025
; FORMAT={-:-/ absolute / inch / decimal}
; #@! TF.CreationDate,2025-01-29T17:13:48+09:00
; #@! TF.GenerationSoftware,Kicad,Pcbnew,7.0.9
; #@! TF.FileFunction,Plated,1,2,PTH
FMAT,2
INCH
; #@! TA.AperFunction,Plated,PTH,ViaDrill
T1C0.0157
; #@! TA.AperFunction,Plated,PTH,ComponentDrill
T2C0.0300
; #@! TA.AperFunction,Plated,PTH,ComponentDrill
T3C0.0374
; #@! TA.AperFunction,Plated,PTH,ComponentDrill
T4C0.0394
%
G90
G05
T1
X1.41Y-3.35
X1.41Y-3.91
X1.42Y-2.79
X1.502Y-3.5925
X1.57Y-3.69
X1.58Y-3.02
X1.58Y-3.12
X1.61Y-3.91
X1.66Y-3.68
X1.6634Y-3.5157
X1.7Y-3.1
X1.7Y-3.75
X1.7047Y-2.8701
X1.71Y-3.38
X1.7763Y-2.9737
X1.78Y-3.52
X1.86Y-2.93
X1.9Y-2.9
X1.91Y-3.75
X1.91Y-3.86
X1.94Y-3.41
X1.94Y-3.52
X1.94Y-3.62
X1.98Y-2.79
X2.01Y-3.18
X2.15Y-3.05
X2.23Y-2.95
X2.34Y-3.14
X2.34Y-3.22
X2.34Y-3.41
X2.45Y-3.13
X2.47Y-3.52
X2.51Y-3.41
X2.62Y-3.25
X2.67Y-2.96
X2.725Y-2.9035
X2.78Y-3.52
X2.78Y-3.62
X2.89Y-3.47
X2.9Y-2.95
X2.95Y-2.95
X3.03Y-3.45
X3.075Y-3.0071
X3.075Y-3.4215
X3.08Y-3.88
X3.0809Y-2.8094
X3.1Y-3.2054
X3.125Y-3.175
X3.13Y-2.8
X3.1481Y-3.2619
X3.24Y-3.34
X3.2574Y-2.8222
X3.275Y-3.3
X3.33Y-3.37
X3.35Y-2.81
X3.37Y-3.05
X3.38Y-3.14
X3.4Y-3.0
X3.425Y-3.15
X3.45Y-3.55
X3.46Y-2.99
X3.5Y-3.45
X3.532Y-3.3215
X3.54Y-3.26
X3.57Y-3.1
X3.6Y-2.96
X3.6Y-3.31
X3.6Y-3.43
X3.65Y-3.45
X3.7Y-3.08
X3.7Y-3.15
X3.75Y-3.27
X3.75Y-3.71
X3.84Y-3.39
X3.92Y-3.18
X3.95Y-3.28
X3.96Y-3.5
X3.975Y-2.925
X3.975Y-3.0
X4.0Y-3.18
X4.01Y-3.4
X4.04Y-2.91
X4.24Y-3.19
X4.28Y-3.41
X4.31Y-3.01
X4.37Y-3.3
X4.47Y-3.4
X4.49Y-3.62
X4.49Y-3.77
X4.59Y-2.9
X4.77Y-3.49
X4.77Y-3.68
X4.86Y-3.78
X4.9Y-3.67
X4.96Y-3.88
X5.748Y-3.1339
X5.9646Y-3.3228
X6.0315Y-3.1339
X6.0315Y-3.7677
X6.0433Y-3.3819
X6.0472Y-2.7953
X6.12Y-3.5039
X6.1929Y-3.8268
X6.252Y-3.9134
X6.2559Y-3.2992
X6.3307Y-3.2677
X6.3346Y-3.5197
X6.3661Y-3.7992
X6.4409Y-2.8071
X6.4606Y-3.2323
X6.47Y-3.91
T2
X1.4461Y-3.4402
X1.4461Y-3.5402
X1.4461Y-3.6402
X1.4461Y-3.7402
X1.5461Y-3.4402
X1.5461Y-3.5402
X6.3173Y-3.6402
X6.3173Y-3.7402
X6.4173Y-3.4402
X6.4173Y-3.5402
X6.4173Y-3.6402
X6.4173Y-3.7402
T3
X1.51Y-2.8724
X1.51Y-2.9708
X1.51Y-3.0692
X1.51Y-3.1676
X2.8524Y-3.5642
X2.9508Y-3.5642
X3.0492Y-3.5642
X3.1476Y-3.5642
X3.45Y-2.9
X3.5484Y-2.9
X3.6469Y-2.9
X3.7453Y-2.9
X4.15Y-2.9
X4.2484Y-2.9
X4.3469Y-2.9
X4.4453Y-2.9
X4.7244Y-3.5642
X4.8228Y-3.5642
X4.9213Y-3.5642
X5.0197Y-3.5642
T4
X1.775Y-3.625
X1.775Y-3.725
X1.775Y-3.825
X1.7778Y-3.2256
X1.7778Y-3.3256
X1.7778Y-3.4256
X2.3Y-2.95
X2.3Y-3.05
X2.4Y-2.95
X2.4Y-3.05
X2.5Y-2.95
X2.5Y-3.05
X2.6Y-2.95
X2.6Y-3.05
X4.45Y-3.1244
X4.45Y-3.2244
X4.45Y-3.3244
X6.1222Y-3.6244
X6.1222Y-3.7244
X6.1222Y-3.8244
X6.125Y-3.225
X6.125Y-3.325
X6.125Y-3.425
T0
M30
