%TF.GenerationSoftware,KiCad,Pcbnew,7.0.9*%
%TF.CreationDate,2024-08-17T20:13:38+09:00*%
%TF.ProjectId,09-ToF_mod,30392d54-6f46-45f6-9d6f-642e6b696361,rev?*%
%TF.SameCoordinates,Original*%
%TF.FileFunction,Legend,Top*%
%TF.FilePolarity,Positive*%
%FSLAX46Y46*%
G04 Gerber Fmt 4.6, Leading zero omitted, Abs format (unit mm)*
G04 Created by KiCad (PCBNEW 7.0.9) date 2024-08-17 20:13:38*
%MOMM*%
%LPD*%
G01*
G04 APERTURE LIST*
G04 Aperture macros list*
%AMRoundRect*
0 Rectangle with rounded corners*
0 $1 Rounding radius*
0 $2 $3 $4 $5 $6 $7 $8 $9 X,Y pos of 4 corners*
0 Add a 4 corners polygon primitive as box body*
4,1,4,$2,$3,$4,$5,$6,$7,$8,$9,$2,$3,0*
0 Add four circle primitives for the rounded corners*
1,1,$1+$1,$2,$3*
1,1,$1+$1,$4,$5*
1,1,$1+$1,$6,$7*
1,1,$1+$1,$8,$9*
0 Add four rect primitives between the rounded corners*
20,1,$1+$1,$2,$3,$4,$5,0*
20,1,$1+$1,$4,$5,$6,$7,0*
20,1,$1+$1,$6,$7,$8,$9,0*
20,1,$1+$1,$8,$9,$2,$3,0*%
G04 Aperture macros list end*
%ADD10C,0.100000*%
%ADD11C,0.150000*%
%ADD12C,0.120000*%
%ADD13R,0.500000X0.500000*%
%ADD14RoundRect,0.200000X-0.200000X-0.275000X0.200000X-0.275000X0.200000X0.275000X-0.200000X0.275000X0*%
%ADD15RoundRect,0.200000X0.275000X-0.200000X0.275000X0.200000X-0.275000X0.200000X-0.275000X-0.200000X0*%
%ADD16R,1.700000X1.700000*%
%ADD17O,1.700000X1.700000*%
%ADD18RoundRect,0.225000X-0.225000X-0.250000X0.225000X-0.250000X0.225000X0.250000X-0.225000X0.250000X0*%
G04 APERTURE END LIST*
D10*
X70920000Y-62059371D02*
X71320000Y-62659371D01*
X71320000Y-62059371D02*
X70920000Y-62659371D01*
X73817142Y-62087942D02*
X73760000Y-62059371D01*
X73760000Y-62059371D02*
X73674285Y-62059371D01*
X73674285Y-62059371D02*
X73588571Y-62087942D01*
X73588571Y-62087942D02*
X73531428Y-62145085D01*
X73531428Y-62145085D02*
X73502857Y-62202228D01*
X73502857Y-62202228D02*
X73474285Y-62316514D01*
X73474285Y-62316514D02*
X73474285Y-62402228D01*
X73474285Y-62402228D02*
X73502857Y-62516514D01*
X73502857Y-62516514D02*
X73531428Y-62573657D01*
X73531428Y-62573657D02*
X73588571Y-62630800D01*
X73588571Y-62630800D02*
X73674285Y-62659371D01*
X73674285Y-62659371D02*
X73731428Y-62659371D01*
X73731428Y-62659371D02*
X73817142Y-62630800D01*
X73817142Y-62630800D02*
X73845714Y-62602228D01*
X73845714Y-62602228D02*
X73845714Y-62402228D01*
X73845714Y-62402228D02*
X73731428Y-62402228D01*
X72931428Y-69742800D02*
X73017143Y-69771371D01*
X73017143Y-69771371D02*
X73160000Y-69771371D01*
X73160000Y-69771371D02*
X73217143Y-69742800D01*
X73217143Y-69742800D02*
X73245714Y-69714228D01*
X73245714Y-69714228D02*
X73274285Y-69657085D01*
X73274285Y-69657085D02*
X73274285Y-69599942D01*
X73274285Y-69599942D02*
X73245714Y-69542800D01*
X73245714Y-69542800D02*
X73217143Y-69514228D01*
X73217143Y-69514228D02*
X73160000Y-69485657D01*
X73160000Y-69485657D02*
X73045714Y-69457085D01*
X73045714Y-69457085D02*
X72988571Y-69428514D01*
X72988571Y-69428514D02*
X72960000Y-69399942D01*
X72960000Y-69399942D02*
X72931428Y-69342800D01*
X72931428Y-69342800D02*
X72931428Y-69285657D01*
X72931428Y-69285657D02*
X72960000Y-69228514D01*
X72960000Y-69228514D02*
X72988571Y-69199942D01*
X72988571Y-69199942D02*
X73045714Y-69171371D01*
X73045714Y-69171371D02*
X73188571Y-69171371D01*
X73188571Y-69171371D02*
X73274285Y-69199942D01*
X73531429Y-69771371D02*
X73531429Y-69171371D01*
X73531429Y-69171371D02*
X73674286Y-69171371D01*
X73674286Y-69171371D02*
X73760000Y-69199942D01*
X73760000Y-69199942D02*
X73817143Y-69257085D01*
X73817143Y-69257085D02*
X73845714Y-69314228D01*
X73845714Y-69314228D02*
X73874286Y-69428514D01*
X73874286Y-69428514D02*
X73874286Y-69514228D01*
X73874286Y-69514228D02*
X73845714Y-69628514D01*
X73845714Y-69628514D02*
X73817143Y-69685657D01*
X73817143Y-69685657D02*
X73760000Y-69742800D01*
X73760000Y-69742800D02*
X73674286Y-69771371D01*
X73674286Y-69771371D02*
X73531429Y-69771371D01*
X74102857Y-69599942D02*
X74388572Y-69599942D01*
X74045714Y-69771371D02*
X74245714Y-69171371D01*
X74245714Y-69171371D02*
X74445714Y-69771371D01*
X70405714Y-69742800D02*
X70491429Y-69771371D01*
X70491429Y-69771371D02*
X70634286Y-69771371D01*
X70634286Y-69771371D02*
X70691429Y-69742800D01*
X70691429Y-69742800D02*
X70720000Y-69714228D01*
X70720000Y-69714228D02*
X70748571Y-69657085D01*
X70748571Y-69657085D02*
X70748571Y-69599942D01*
X70748571Y-69599942D02*
X70720000Y-69542800D01*
X70720000Y-69542800D02*
X70691429Y-69514228D01*
X70691429Y-69514228D02*
X70634286Y-69485657D01*
X70634286Y-69485657D02*
X70520000Y-69457085D01*
X70520000Y-69457085D02*
X70462857Y-69428514D01*
X70462857Y-69428514D02*
X70434286Y-69399942D01*
X70434286Y-69399942D02*
X70405714Y-69342800D01*
X70405714Y-69342800D02*
X70405714Y-69285657D01*
X70405714Y-69285657D02*
X70434286Y-69228514D01*
X70434286Y-69228514D02*
X70462857Y-69199942D01*
X70462857Y-69199942D02*
X70520000Y-69171371D01*
X70520000Y-69171371D02*
X70662857Y-69171371D01*
X70662857Y-69171371D02*
X70748571Y-69199942D01*
X71348572Y-69714228D02*
X71320000Y-69742800D01*
X71320000Y-69742800D02*
X71234286Y-69771371D01*
X71234286Y-69771371D02*
X71177143Y-69771371D01*
X71177143Y-69771371D02*
X71091429Y-69742800D01*
X71091429Y-69742800D02*
X71034286Y-69685657D01*
X71034286Y-69685657D02*
X71005715Y-69628514D01*
X71005715Y-69628514D02*
X70977143Y-69514228D01*
X70977143Y-69514228D02*
X70977143Y-69428514D01*
X70977143Y-69428514D02*
X71005715Y-69314228D01*
X71005715Y-69314228D02*
X71034286Y-69257085D01*
X71034286Y-69257085D02*
X71091429Y-69199942D01*
X71091429Y-69199942D02*
X71177143Y-69171371D01*
X71177143Y-69171371D02*
X71234286Y-69171371D01*
X71234286Y-69171371D02*
X71320000Y-69199942D01*
X71320000Y-69199942D02*
X71348572Y-69228514D01*
X71891429Y-69771371D02*
X71605715Y-69771371D01*
X71605715Y-69771371D02*
X71605715Y-69171371D01*
X68122857Y-69199942D02*
X68065715Y-69171371D01*
X68065715Y-69171371D02*
X67980000Y-69171371D01*
X67980000Y-69171371D02*
X67894286Y-69199942D01*
X67894286Y-69199942D02*
X67837143Y-69257085D01*
X67837143Y-69257085D02*
X67808572Y-69314228D01*
X67808572Y-69314228D02*
X67780000Y-69428514D01*
X67780000Y-69428514D02*
X67780000Y-69514228D01*
X67780000Y-69514228D02*
X67808572Y-69628514D01*
X67808572Y-69628514D02*
X67837143Y-69685657D01*
X67837143Y-69685657D02*
X67894286Y-69742800D01*
X67894286Y-69742800D02*
X67980000Y-69771371D01*
X67980000Y-69771371D02*
X68037143Y-69771371D01*
X68037143Y-69771371D02*
X68122857Y-69742800D01*
X68122857Y-69742800D02*
X68151429Y-69714228D01*
X68151429Y-69714228D02*
X68151429Y-69514228D01*
X68151429Y-69514228D02*
X68037143Y-69514228D01*
X68408572Y-69771371D02*
X68408572Y-69171371D01*
X68408572Y-69171371D02*
X68751429Y-69771371D01*
X68751429Y-69771371D02*
X68751429Y-69171371D01*
X69037143Y-69771371D02*
X69037143Y-69171371D01*
X69037143Y-69171371D02*
X69180000Y-69171371D01*
X69180000Y-69171371D02*
X69265714Y-69199942D01*
X69265714Y-69199942D02*
X69322857Y-69257085D01*
X69322857Y-69257085D02*
X69351428Y-69314228D01*
X69351428Y-69314228D02*
X69380000Y-69428514D01*
X69380000Y-69428514D02*
X69380000Y-69514228D01*
X69380000Y-69514228D02*
X69351428Y-69628514D01*
X69351428Y-69628514D02*
X69322857Y-69685657D01*
X69322857Y-69685657D02*
X69265714Y-69742800D01*
X69265714Y-69742800D02*
X69180000Y-69771371D01*
X69180000Y-69771371D02*
X69037143Y-69771371D01*
X65297142Y-69171371D02*
X65668570Y-69171371D01*
X65668570Y-69171371D02*
X65468570Y-69399942D01*
X65468570Y-69399942D02*
X65554285Y-69399942D01*
X65554285Y-69399942D02*
X65611428Y-69428514D01*
X65611428Y-69428514D02*
X65639999Y-69457085D01*
X65639999Y-69457085D02*
X65668570Y-69514228D01*
X65668570Y-69514228D02*
X65668570Y-69657085D01*
X65668570Y-69657085D02*
X65639999Y-69714228D01*
X65639999Y-69714228D02*
X65611428Y-69742800D01*
X65611428Y-69742800D02*
X65554285Y-69771371D01*
X65554285Y-69771371D02*
X65382856Y-69771371D01*
X65382856Y-69771371D02*
X65325713Y-69742800D01*
X65325713Y-69742800D02*
X65297142Y-69714228D01*
X65839999Y-69171371D02*
X66039999Y-69771371D01*
X66039999Y-69771371D02*
X66239999Y-69171371D01*
X66382857Y-69171371D02*
X66754285Y-69171371D01*
X66754285Y-69171371D02*
X66554285Y-69399942D01*
X66554285Y-69399942D02*
X66640000Y-69399942D01*
X66640000Y-69399942D02*
X66697143Y-69428514D01*
X66697143Y-69428514D02*
X66725714Y-69457085D01*
X66725714Y-69457085D02*
X66754285Y-69514228D01*
X66754285Y-69514228D02*
X66754285Y-69657085D01*
X66754285Y-69657085D02*
X66725714Y-69714228D01*
X66725714Y-69714228D02*
X66697143Y-69742800D01*
X66697143Y-69742800D02*
X66640000Y-69771371D01*
X66640000Y-69771371D02*
X66468571Y-69771371D01*
X66468571Y-69771371D02*
X66411428Y-69742800D01*
X66411428Y-69742800D02*
X66382857Y-69714228D01*
D11*
X69153093Y-65029033D02*
G75*
G03*
X68110513Y-65690313I508000J-1953431D01*
G01*
X69181525Y-64227551D02*
G75*
G03*
X68268971Y-64821754I508000J-1777999D01*
G01*
X69241420Y-66777108D02*
G75*
G03*
X68076090Y-68086542I153014J-1309434D01*
G01*
X70076554Y-68086542D02*
G75*
G03*
X69241420Y-66777107I-1444120J0D01*
G01*
X69175572Y-66780666D02*
G75*
G03*
X68554848Y-61752535I-10143112J1300211D01*
G01*
X68834000Y-61304119D02*
G75*
G03*
X68085398Y-61304119I-374301J-374301D01*
G01*
X69626535Y-60680850D02*
G75*
G03*
X69626535Y-60680850I-1071685J0D01*
G01*
X69062850Y-60477150D02*
G75*
G03*
X69062850Y-60477150I-254000J0D01*
G01*
X68326000Y-60477150D02*
G75*
G03*
X68326000Y-60477150I-254000J0D01*
G01*
D12*
%TO.C,U1*%
X74740000Y-63138000D02*
X74740000Y-63738000D01*
X74140000Y-63138000D02*
X74740000Y-63138000D01*
X70040000Y-63138000D02*
X70040000Y-63738000D01*
X74740000Y-65238000D02*
X74740000Y-65838000D01*
X70040000Y-65838000D02*
X70040000Y-65238000D01*
X70040000Y-63138000D02*
X70240000Y-63138000D01*
X70640000Y-65838000D02*
X70040000Y-65838000D01*
X74740000Y-65838000D02*
X74140000Y-65838000D01*
%TO.C,R4*%
X66437742Y-64657500D02*
X66912258Y-64657500D01*
X66437742Y-63612500D02*
X66912258Y-63612500D01*
%TO.C,R3*%
X72150500Y-67801258D02*
X72150500Y-67326742D01*
X71105500Y-67801258D02*
X71105500Y-67326742D01*
%TO.C,R2*%
X73801500Y-67801258D02*
X73801500Y-67326742D01*
X72756500Y-67801258D02*
X72756500Y-67326742D01*
%TO.C,R1*%
X66437742Y-62752500D02*
X66912258Y-62752500D01*
X66437742Y-61707500D02*
X66912258Y-61707500D01*
%TO.C,C2*%
X66534420Y-66550000D02*
X66815580Y-66550000D01*
X66534420Y-65530000D02*
X66815580Y-65530000D01*
%TO.C,C1*%
X66534420Y-68455000D02*
X66815580Y-68455000D01*
X66534420Y-67435000D02*
X66815580Y-67435000D01*
%TD*%
%LPC*%
D13*
%TO.C,U1*%
X70790000Y-63678000D03*
X71590000Y-63688000D03*
X72390000Y-63678000D03*
X73190000Y-63678000D03*
X73990000Y-63678000D03*
X73990000Y-64478000D03*
X73990000Y-65278000D03*
X73190000Y-65278000D03*
X72390000Y-65278000D03*
X71590000Y-65278000D03*
X70790000Y-65278000D03*
X70790000Y-64478000D03*
%TD*%
D14*
%TO.C,R4*%
X65850000Y-64135000D03*
X67500000Y-64135000D03*
%TD*%
D15*
%TO.C,R3*%
X71628000Y-68389000D03*
X71628000Y-66739000D03*
%TD*%
%TO.C,R2*%
X73279000Y-68389000D03*
X73279000Y-66739000D03*
%TD*%
D14*
%TO.C,R1*%
X65850000Y-62230000D03*
X67500000Y-62230000D03*
%TD*%
D16*
%TO.C,J2*%
X73660000Y-60960000D03*
D17*
X71120000Y-60960000D03*
%TD*%
D16*
%TO.C,J1*%
X66040000Y-71120000D03*
D17*
X68580000Y-71120000D03*
X71120000Y-71120000D03*
X73660000Y-71120000D03*
%TD*%
D18*
%TO.C,C2*%
X65900000Y-66040000D03*
X67450000Y-66040000D03*
%TD*%
%TO.C,C1*%
X65900000Y-67945000D03*
X67450000Y-67945000D03*
%TD*%
%LPD*%
M02*
