%TF.GenerationSoftware,KiCad,Pcbnew,7.0.9*%
%TF.CreationDate,2024-08-17T20:13:38+09:00*%
%TF.ProjectId,09-ToF_mod,30392d54-6f46-45f6-9d6f-642e6b696361,rev?*%
%TF.SameCoordinates,Original*%
%TF.FileFunction,Copper,L1,Top*%
%TF.FilePolarity,Positive*%
%FSLAX46Y46*%
G04 Gerber Fmt 4.6, Leading zero omitted, Abs format (unit mm)*
G04 Created by KiCad (PCBNEW 7.0.9) date 2024-08-17 20:13:38*
%MOMM*%
%LPD*%
G01*
G04 APERTURE LIST*
G04 Aperture macros list*
%AMRoundRect*
0 Rectangle with rounded corners*
0 $1 Rounding radius*
0 $2 $3 $4 $5 $6 $7 $8 $9 X,Y pos of 4 corners*
0 Add a 4 corners polygon primitive as box body*
4,1,4,$2,$3,$4,$5,$6,$7,$8,$9,$2,$3,0*
0 Add four circle primitives for the rounded corners*
1,1,$1+$1,$2,$3*
1,1,$1+$1,$4,$5*
1,1,$1+$1,$6,$7*
1,1,$1+$1,$8,$9*
0 Add four rect primitives between the rounded corners*
20,1,$1+$1,$2,$3,$4,$5,0*
20,1,$1+$1,$4,$5,$6,$7,0*
20,1,$1+$1,$6,$7,$8,$9,0*
20,1,$1+$1,$8,$9,$2,$3,0*%
G04 Aperture macros list end*
%TA.AperFunction,SMDPad,CuDef*%
%ADD10R,0.500000X0.500000*%
%TD*%
%TA.AperFunction,SMDPad,CuDef*%
%ADD11RoundRect,0.200000X-0.200000X-0.275000X0.200000X-0.275000X0.200000X0.275000X-0.200000X0.275000X0*%
%TD*%
%TA.AperFunction,SMDPad,CuDef*%
%ADD12RoundRect,0.200000X0.275000X-0.200000X0.275000X0.200000X-0.275000X0.200000X-0.275000X-0.200000X0*%
%TD*%
%TA.AperFunction,ComponentPad*%
%ADD13R,1.700000X1.700000*%
%TD*%
%TA.AperFunction,ComponentPad*%
%ADD14O,1.700000X1.700000*%
%TD*%
%TA.AperFunction,SMDPad,CuDef*%
%ADD15RoundRect,0.225000X-0.225000X-0.250000X0.225000X-0.250000X0.225000X0.250000X-0.225000X0.250000X0*%
%TD*%
%TA.AperFunction,Conductor*%
%ADD16C,0.250000*%
%TD*%
%TA.AperFunction,Conductor*%
%ADD17C,0.600000*%
%TD*%
%TA.AperFunction,Conductor*%
%ADD18C,0.800000*%
%TD*%
G04 APERTURE END LIST*
D10*
%TO.P,U1,1,AVDDVCSEL*%
%TO.N,+3V3*%
X70790000Y-63678000D03*
%TO.P,U1,2,AVSSVCSEL*%
%TO.N,GND*%
X71590000Y-63688000D03*
%TO.P,U1,3,GND*%
X72390000Y-63678000D03*
%TO.P,U1,4,GND*%
X73190000Y-63678000D03*
%TO.P,U1,5,XSHUT*%
%TO.N,XSHUT*%
X73990000Y-63678000D03*
%TO.P,U1,6,GND*%
%TO.N,GND*%
X73990000Y-64478000D03*
%TO.P,U1,7,GPIO1*%
%TO.N,GPIO*%
X73990000Y-65278000D03*
%TO.P,U1,8,DNC*%
%TO.N,unconnected-(U1-DNC-Pad8)*%
X73190000Y-65278000D03*
%TO.P,U1,9,SDA*%
%TO.N,SDA*%
X72390000Y-65278000D03*
%TO.P,U1,10,SCL*%
%TO.N,SCL*%
X71590000Y-65278000D03*
%TO.P,U1,11,AVDD*%
%TO.N,+3V3*%
X70790000Y-65278000D03*
%TO.P,U1,12,GND*%
%TO.N,GND*%
X70790000Y-64478000D03*
%TD*%
D11*
%TO.P,R4,1*%
%TO.N,+3V3*%
X65850000Y-64135000D03*
%TO.P,R4,2*%
%TO.N,XSHUT*%
X67500000Y-64135000D03*
%TD*%
D12*
%TO.P,R3,1*%
%TO.N,+3V3*%
X71628000Y-68389000D03*
%TO.P,R3,2*%
%TO.N,SCL*%
X71628000Y-66739000D03*
%TD*%
%TO.P,R2,1*%
%TO.N,+3V3*%
X73279000Y-68389000D03*
%TO.P,R2,2*%
%TO.N,SDA*%
X73279000Y-66739000D03*
%TD*%
D11*
%TO.P,R1,1*%
%TO.N,+3V3*%
X65850000Y-62230000D03*
%TO.P,R1,2*%
%TO.N,GPIO*%
X67500000Y-62230000D03*
%TD*%
D13*
%TO.P,J2,1,Pin_1*%
%TO.N,GPIO*%
X73660000Y-60960000D03*
D14*
%TO.P,J2,2,Pin_2*%
%TO.N,XSHUT*%
X71120000Y-60960000D03*
%TD*%
D13*
%TO.P,J1,1,Pin_1*%
%TO.N,+3V3*%
X66040000Y-71120000D03*
D14*
%TO.P,J1,2,Pin_2*%
%TO.N,GND*%
X68580000Y-71120000D03*
%TO.P,J1,3,Pin_3*%
%TO.N,SCL*%
X71120000Y-71120000D03*
%TO.P,J1,4,Pin_4*%
%TO.N,SDA*%
X73660000Y-71120000D03*
%TD*%
D15*
%TO.P,C2,1*%
%TO.N,+3V3*%
X65900000Y-66040000D03*
%TO.P,C2,2*%
%TO.N,GND*%
X67450000Y-66040000D03*
%TD*%
%TO.P,C1,1*%
%TO.N,+3V3*%
X65900000Y-67945000D03*
%TO.P,C1,2*%
%TO.N,GND*%
X67450000Y-67945000D03*
%TD*%
D16*
%TO.N,XSHUT*%
X67945000Y-64135000D02*
X71120000Y-60960000D01*
X67500000Y-64135000D02*
X67945000Y-64135000D01*
%TO.N,GPIO*%
X74930000Y-64770000D02*
X74422000Y-65278000D01*
X74930000Y-62230000D02*
X74930000Y-64770000D01*
X74422000Y-65278000D02*
X73990000Y-65278000D01*
X73660000Y-60960000D02*
X74930000Y-62230000D01*
%TO.N,XSHUT*%
X74115000Y-63553000D02*
X73990000Y-63678000D01*
X74115000Y-62939000D02*
X74115000Y-63553000D01*
X73406000Y-62230000D02*
X74115000Y-62939000D01*
X72390000Y-62230000D02*
X73406000Y-62230000D01*
X71120000Y-60960000D02*
X72390000Y-62230000D01*
D17*
%TO.N,GND*%
X72390000Y-64478000D02*
X69634000Y-64478000D01*
X73990000Y-64478000D02*
X72390000Y-64478000D01*
D16*
X72390000Y-63678000D02*
X72390000Y-64478000D01*
D17*
X68072000Y-66040000D02*
X67450000Y-66040000D01*
X69634000Y-64478000D02*
X68072000Y-66040000D01*
D16*
X71300000Y-64478000D02*
X70790000Y-64478000D01*
X71590000Y-63688000D02*
X71590000Y-64188000D01*
X71590000Y-64188000D02*
X71300000Y-64478000D01*
X73490000Y-64478000D02*
X73990000Y-64478000D01*
X73190000Y-64178000D02*
X73490000Y-64478000D01*
X73190000Y-63678000D02*
X73190000Y-64178000D01*
X73190000Y-63678000D02*
X72390000Y-63678000D01*
X71590000Y-63678000D02*
X72390000Y-63678000D01*
%TO.N,+3V3*%
X70790000Y-63678000D02*
X69180004Y-63678000D01*
%TO.N,XSHUT*%
X73990000Y-63588140D02*
X73990000Y-63678000D01*
%TO.N,+3V3*%
X66916000Y-65024000D02*
X65900000Y-66040000D01*
X69180004Y-63678000D02*
X67834004Y-65024000D01*
X67834004Y-65024000D02*
X66916000Y-65024000D01*
X69945000Y-68396000D02*
X69945000Y-71416701D01*
X70790000Y-67551000D02*
X69945000Y-68396000D01*
X70790000Y-65278000D02*
X70790000Y-67551000D01*
D18*
%TO.N,GND*%
X67450000Y-67945000D02*
X67450000Y-66040000D01*
X67450000Y-69810000D02*
X67450000Y-67945000D01*
X67490000Y-69850000D02*
X67450000Y-69810000D01*
X67490000Y-70030000D02*
X67490000Y-69850000D01*
X68580000Y-71120000D02*
X67490000Y-70030000D01*
D16*
%TO.N,+3V3*%
X67310000Y-72390000D02*
X66040000Y-71120000D01*
X68971701Y-72390000D02*
X67310000Y-72390000D01*
X69945000Y-70072000D02*
X69945000Y-71416701D01*
X69945000Y-71416701D02*
X68971701Y-72390000D01*
X71628000Y-68389000D02*
X69945000Y-70072000D01*
X73279000Y-68389000D02*
X71628000Y-68389000D01*
%TO.N,GPIO*%
X72485000Y-59785000D02*
X73660000Y-60960000D01*
X69945000Y-59785000D02*
X72485000Y-59785000D01*
X67500000Y-62230000D02*
X69945000Y-59785000D01*
%TO.N,+3V3*%
X65850000Y-70930000D02*
X66040000Y-71120000D01*
X65850000Y-62230000D02*
X65850000Y-70930000D01*
%TO.N,SDA*%
X73754000Y-66739000D02*
X74676000Y-67661000D01*
X74676000Y-67661000D02*
X74676000Y-70104000D01*
X74676000Y-70104000D02*
X73660000Y-71120000D01*
X73279000Y-66739000D02*
X73754000Y-66739000D01*
%TO.N,SCL*%
X74079000Y-67965996D02*
X74079000Y-68923000D01*
X71882000Y-71120000D02*
X71120000Y-71120000D01*
X73677004Y-67564000D02*
X74079000Y-67965996D01*
X74079000Y-68923000D02*
X71882000Y-71120000D01*
X72453000Y-67564000D02*
X73677004Y-67564000D01*
X71628000Y-66739000D02*
X72453000Y-67564000D01*
%TO.N,SDA*%
X72390000Y-65850000D02*
X73279000Y-66739000D01*
X72390000Y-65278000D02*
X72390000Y-65850000D01*
%TO.N,SCL*%
X71590000Y-66701000D02*
X71628000Y-66739000D01*
X71590000Y-65278000D02*
X71590000Y-66701000D01*
%TO.N,XSHUT*%
X71120000Y-60960000D02*
X71361860Y-60960000D01*
%TD*%
M02*
