%TF.GenerationSoftware,KiCad,Pcbnew,7.0.9*%
%TF.CreationDate,2024-05-14T12:43:38+09:00*%
%TF.ProjectId,04-line,30342d6c-696e-4652-9e6b-696361645f70,rev?*%
%TF.SameCoordinates,Original*%
%TF.FileFunction,Paste,Bot*%
%TF.FilePolarity,Positive*%
%FSLAX46Y46*%
G04 Gerber Fmt 4.6, Leading zero omitted, Abs format (unit mm)*
G04 Created by KiCad (PCBNEW 7.0.9) date 2024-05-14 12:43:38*
%MOMM*%
%LPD*%
G01*
G04 APERTURE LIST*
G04 Aperture macros list*
%AMRoundRect*
0 Rectangle with rounded corners*
0 $1 Rounding radius*
0 $2 $3 $4 $5 $6 $7 $8 $9 X,Y pos of 4 corners*
0 Add a 4 corners polygon primitive as box body*
4,1,4,$2,$3,$4,$5,$6,$7,$8,$9,$2,$3,0*
0 Add four circle primitives for the rounded corners*
1,1,$1+$1,$2,$3*
1,1,$1+$1,$4,$5*
1,1,$1+$1,$6,$7*
1,1,$1+$1,$8,$9*
0 Add four rect primitives between the rounded corners*
20,1,$1+$1,$2,$3,$4,$5,0*
20,1,$1+$1,$4,$5,$6,$7,0*
20,1,$1+$1,$6,$7,$8,$9,0*
20,1,$1+$1,$8,$9,$2,$3,0*%
G04 Aperture macros list end*
%ADD10RoundRect,0.140000X-0.140000X-0.170000X0.140000X-0.170000X0.140000X0.170000X-0.140000X0.170000X0*%
%ADD11R,0.900000X1.500000*%
%ADD12RoundRect,0.200000X-0.200000X-0.275000X0.200000X-0.275000X0.200000X0.275000X-0.200000X0.275000X0*%
%ADD13RoundRect,0.200000X0.275000X-0.200000X0.275000X0.200000X-0.275000X0.200000X-0.275000X-0.200000X0*%
%ADD14RoundRect,0.125000X0.575000X0.125000X-0.575000X0.125000X-0.575000X-0.125000X0.575000X-0.125000X0*%
%ADD15RoundRect,0.250001X0.624999X-0.462499X0.624999X0.462499X-0.624999X0.462499X-0.624999X-0.462499X0*%
%ADD16RoundRect,0.250000X0.325000X0.650000X-0.325000X0.650000X-0.325000X-0.650000X0.325000X-0.650000X0*%
%ADD17RoundRect,0.250000X0.625000X-0.312500X0.625000X0.312500X-0.625000X0.312500X-0.625000X-0.312500X0*%
%ADD18RoundRect,0.250000X0.625000X-0.400000X0.625000X0.400000X-0.625000X0.400000X-0.625000X-0.400000X0*%
%ADD19RoundRect,0.250000X-0.250000X-0.475000X0.250000X-0.475000X0.250000X0.475000X-0.250000X0.475000X0*%
%ADD20R,1.500000X0.900000*%
%ADD21RoundRect,0.250000X-0.262500X-0.450000X0.262500X-0.450000X0.262500X0.450000X-0.262500X0.450000X0*%
%ADD22R,0.600000X2.200000*%
%ADD23R,3.450000X2.150000*%
%ADD24RoundRect,0.140000X0.021213X-0.219203X0.219203X-0.021213X-0.021213X0.219203X-0.219203X0.021213X0*%
%ADD25RoundRect,0.140000X0.219203X0.021213X0.021213X0.219203X-0.219203X-0.021213X-0.021213X-0.219203X0*%
%ADD26RoundRect,0.140000X-0.021213X0.219203X-0.219203X0.021213X0.021213X-0.219203X0.219203X-0.021213X0*%
%ADD27RoundRect,0.075000X-0.548008X0.441942X0.441942X-0.548008X0.548008X-0.441942X-0.441942X0.548008X0*%
%ADD28RoundRect,0.075000X-0.548008X-0.441942X-0.441942X-0.548008X0.548008X0.441942X0.441942X0.548008X0*%
%ADD29RoundRect,0.225000X0.225000X0.250000X-0.225000X0.250000X-0.225000X-0.250000X0.225000X-0.250000X0*%
%ADD30RoundRect,0.250000X-0.350000X0.850000X-0.350000X-0.850000X0.350000X-0.850000X0.350000X0.850000X0*%
%ADD31RoundRect,0.250000X-1.125000X1.275000X-1.125000X-1.275000X1.125000X-1.275000X1.125000X1.275000X0*%
%ADD32RoundRect,0.140000X0.140000X0.170000X-0.140000X0.170000X-0.140000X-0.170000X0.140000X-0.170000X0*%
%ADD33RoundRect,0.140000X-0.219203X-0.021213X-0.021213X-0.219203X0.219203X0.021213X0.021213X0.219203X0*%
%ADD34RoundRect,0.225000X-0.225000X-0.250000X0.225000X-0.250000X0.225000X0.250000X-0.225000X0.250000X0*%
%ADD35RoundRect,0.200000X-0.275000X0.200000X-0.275000X-0.200000X0.275000X-0.200000X0.275000X0.200000X0*%
G04 APERTURE END LIST*
D10*
%TO.C,C15*%
X80800000Y-121920000D03*
X81760000Y-121920000D03*
%TD*%
D11*
%TO.C,D6*%
X75750500Y-87550000D03*
X79050500Y-87550000D03*
X79050500Y-92450000D03*
X75750500Y-92450000D03*
%TD*%
D12*
%TO.C,R26*%
X100775000Y-120650000D03*
X102425000Y-120650000D03*
%TD*%
D10*
%TO.C,C16*%
X80800000Y-120650000D03*
X81760000Y-120650000D03*
%TD*%
D13*
%TO.C,R9*%
X83820000Y-84645000D03*
X83820000Y-82995000D03*
%TD*%
D14*
%TO.C,U25*%
X71600500Y-88400000D03*
X71600500Y-89200000D03*
X71600500Y-90000000D03*
X71600500Y-90800000D03*
X71600500Y-91600000D03*
X67200500Y-91600000D03*
X67200500Y-90800000D03*
X67200500Y-90000000D03*
X67200500Y-89200000D03*
X67200500Y-88400000D03*
%TD*%
D15*
%TO.C,D3*%
X53340000Y-125439500D03*
X53340000Y-122464500D03*
%TD*%
D16*
%TO.C,C10*%
X122380000Y-123190000D03*
X119430000Y-123190000D03*
%TD*%
D17*
%TO.C,R14*%
X58420000Y-118302500D03*
X58420000Y-115377500D03*
%TD*%
D10*
%TO.C,C6*%
X110010000Y-83820000D03*
X110970000Y-83820000D03*
%TD*%
D17*
%TO.C,R30*%
X99060000Y-118302500D03*
X99060000Y-115377500D03*
%TD*%
D13*
%TO.C,R25*%
X121475000Y-103695000D03*
X121475000Y-102045000D03*
%TD*%
%TO.C,R4*%
X65595000Y-103695000D03*
X65595000Y-102045000D03*
%TD*%
D17*
%TO.C,R10*%
X78740000Y-118302500D03*
X78740000Y-115377500D03*
%TD*%
%TO.C,R34*%
X119380000Y-118302500D03*
X119380000Y-115377500D03*
%TD*%
D13*
%TO.C,R24*%
X116395000Y-103695000D03*
X116395000Y-102045000D03*
%TD*%
D18*
%TO.C,R27*%
X53340000Y-131090000D03*
X53340000Y-127990000D03*
%TD*%
D17*
%TO.C,R12*%
X68580000Y-118302500D03*
X68580000Y-115377500D03*
%TD*%
D13*
%TO.C,R7*%
X50355000Y-103695000D03*
X50355000Y-102045000D03*
%TD*%
%TO.C,R21*%
X101155000Y-103695000D03*
X101155000Y-102045000D03*
%TD*%
D17*
%TO.C,R33*%
X114300000Y-118302500D03*
X114300000Y-115377500D03*
%TD*%
%TO.C,R17*%
X83820000Y-118302500D03*
X83820000Y-115377500D03*
%TD*%
D13*
%TO.C,R23*%
X111315000Y-103755000D03*
X111315000Y-102105000D03*
%TD*%
D17*
%TO.C,R11*%
X73660000Y-118302500D03*
X73660000Y-115377500D03*
%TD*%
%TO.C,R18*%
X83820000Y-99252500D03*
X83820000Y-96327500D03*
%TD*%
%TO.C,R16*%
X48260000Y-118302500D03*
X48260000Y-115377500D03*
%TD*%
%TO.C,R32*%
X109220000Y-118302500D03*
X109220000Y-115377500D03*
%TD*%
D13*
%TO.C,R3*%
X70675000Y-103695000D03*
X70675000Y-102045000D03*
%TD*%
D19*
%TO.C,C9*%
X114875000Y-123190000D03*
X116775000Y-123190000D03*
%TD*%
D20*
%TO.C,D5*%
X71850500Y-95350000D03*
X71850500Y-98650000D03*
X66950500Y-98650000D03*
X66950500Y-95350000D03*
%TD*%
D21*
%TO.C,FB1*%
X76557500Y-121920000D03*
X78382500Y-121920000D03*
%TD*%
D11*
%TO.C,D8*%
X63050500Y-92450000D03*
X59750500Y-92450000D03*
X59750500Y-87550000D03*
X63050500Y-87550000D03*
%TD*%
D22*
%TO.C,U27*%
X106935000Y-126402500D03*
X108205000Y-126402500D03*
X109475000Y-126402500D03*
X110745000Y-126402500D03*
X112015000Y-126402500D03*
D23*
X109475000Y-132702500D03*
%TD*%
D24*
%TO.C,C4*%
X77130589Y-132419411D03*
X77809411Y-131740589D03*
%TD*%
D25*
%TO.C,C5*%
X77809411Y-127339411D03*
X77130589Y-126660589D03*
%TD*%
D26*
%TO.C,C12*%
X93049411Y-120310589D03*
X92370589Y-120989411D03*
%TD*%
D17*
%TO.C,R31*%
X104140000Y-118110000D03*
X104140000Y-115185000D03*
%TD*%
%TO.C,R28*%
X88900000Y-118302500D03*
X88900000Y-115377500D03*
%TD*%
D13*
%TO.C,R22*%
X106235000Y-103695000D03*
X106235000Y-102045000D03*
%TD*%
D27*
%TO.C,U24*%
X81083678Y-127707106D03*
X81437231Y-127353553D03*
X81790784Y-127000000D03*
X82144338Y-126646446D03*
X82497891Y-126292893D03*
X82851445Y-125939339D03*
X83204998Y-125585786D03*
X83558551Y-125232233D03*
X83912105Y-124878679D03*
X84265658Y-124525126D03*
X84619211Y-124171573D03*
X84972765Y-123818019D03*
X85326318Y-123464466D03*
X85679872Y-123110912D03*
X86033425Y-122757359D03*
X86386978Y-122403806D03*
D28*
X89109340Y-122403806D03*
X89462893Y-122757359D03*
X89816446Y-123110912D03*
X90170000Y-123464466D03*
X90523553Y-123818019D03*
X90877107Y-124171573D03*
X91230660Y-124525126D03*
X91584213Y-124878679D03*
X91937767Y-125232233D03*
X92291320Y-125585786D03*
X92644873Y-125939339D03*
X92998427Y-126292893D03*
X93351980Y-126646446D03*
X93705534Y-127000000D03*
X94059087Y-127353553D03*
X94412640Y-127707106D03*
D27*
X94412640Y-130429468D03*
X94059087Y-130783021D03*
X93705534Y-131136574D03*
X93351980Y-131490128D03*
X92998427Y-131843681D03*
X92644873Y-132197235D03*
X92291320Y-132550788D03*
X91937767Y-132904341D03*
X91584213Y-133257895D03*
X91230660Y-133611448D03*
X90877107Y-133965001D03*
X90523553Y-134318555D03*
X90170000Y-134672108D03*
X89816446Y-135025662D03*
X89462893Y-135379215D03*
X89109340Y-135732768D03*
D28*
X86386978Y-135732768D03*
X86033425Y-135379215D03*
X85679872Y-135025662D03*
X85326318Y-134672108D03*
X84972765Y-134318555D03*
X84619211Y-133965001D03*
X84265658Y-133611448D03*
X83912105Y-133257895D03*
X83558551Y-132904341D03*
X83204998Y-132550788D03*
X82851445Y-132197235D03*
X82497891Y-131843681D03*
X82144338Y-131490128D03*
X81790784Y-131136574D03*
X81437231Y-130783021D03*
X81083678Y-130429468D03*
%TD*%
D29*
%TO.C,C8*%
X112790000Y-123190000D03*
X111240000Y-123190000D03*
%TD*%
D11*
%TO.C,D4*%
X95050500Y-92450000D03*
X91750500Y-92450000D03*
X91750500Y-87550000D03*
X95050500Y-87550000D03*
%TD*%
D26*
%TO.C,C14*%
X79079411Y-133010589D03*
X78400589Y-133689411D03*
%TD*%
D13*
%TO.C,R8*%
X85915000Y-103695000D03*
X85915000Y-102045000D03*
%TD*%
D24*
%TO.C,C2*%
X97450589Y-123529411D03*
X98129411Y-122850589D03*
%TD*%
D17*
%TO.C,R29*%
X93980000Y-118302500D03*
X93980000Y-115377500D03*
%TD*%
D13*
%TO.C,R20*%
X96075000Y-103695000D03*
X96075000Y-102045000D03*
%TD*%
D10*
%TO.C,C3*%
X76990000Y-84582000D03*
X77950000Y-84582000D03*
%TD*%
D13*
%TO.C,R5*%
X60515000Y-103695000D03*
X60515000Y-102045000D03*
%TD*%
D30*
%TO.C,U28*%
X115830000Y-126185000D03*
X118110000Y-126185000D03*
D31*
X119635000Y-130810000D03*
X116585000Y-130810000D03*
X119635000Y-134160000D03*
X116585000Y-134160000D03*
D30*
X120390000Y-126185000D03*
%TD*%
D32*
%TO.C,C1*%
X75410000Y-129540000D03*
X74450000Y-129540000D03*
%TD*%
D13*
%TO.C,R19*%
X90995000Y-103695000D03*
X90995000Y-102045000D03*
%TD*%
D24*
%TO.C,C13*%
X87290589Y-138769411D03*
X87969411Y-138090589D03*
%TD*%
D13*
%TO.C,R1*%
X80835000Y-103695000D03*
X80835000Y-102045000D03*
%TD*%
D17*
%TO.C,R13*%
X63500000Y-118302500D03*
X63500000Y-115377500D03*
%TD*%
D14*
%TO.C,U26*%
X103600500Y-88400000D03*
X103600500Y-89200000D03*
X103600500Y-90000000D03*
X103600500Y-90800000D03*
X103600500Y-91600000D03*
X99200500Y-91600000D03*
X99200500Y-90800000D03*
X99200500Y-90000000D03*
X99200500Y-89200000D03*
X99200500Y-88400000D03*
%TD*%
D11*
%TO.C,D2*%
X107750500Y-87550000D03*
X111050500Y-87550000D03*
X111050500Y-92450000D03*
X107750500Y-92450000D03*
%TD*%
D33*
%TO.C,C11*%
X98720589Y-125390589D03*
X99399411Y-126069411D03*
%TD*%
D34*
%TO.C,C7*%
X107430000Y-123190000D03*
X108980000Y-123190000D03*
%TD*%
D35*
%TO.C,R37*%
X78740000Y-136335000D03*
X78740000Y-137985000D03*
%TD*%
D13*
%TO.C,R6*%
X55435000Y-103695000D03*
X55435000Y-102045000D03*
%TD*%
D20*
%TO.C,D1*%
X103850500Y-95350000D03*
X103850500Y-98650000D03*
X98950500Y-98650000D03*
X98950500Y-95350000D03*
%TD*%
D17*
%TO.C,R15*%
X53340000Y-118302500D03*
X53340000Y-115377500D03*
%TD*%
D13*
%TO.C,R2*%
X75755000Y-103695000D03*
X75755000Y-102045000D03*
%TD*%
M02*
