%TF.GenerationSoftware,KiCad,Pcbnew,7.0.9*%
%TF.CreationDate,2024-05-14T12:43:38+09:00*%
%TF.ProjectId,04-line,30342d6c-696e-4652-9e6b-696361645f70,rev?*%
%TF.SameCoordinates,Original*%
%TF.FileFunction,Legend,Top*%
%TF.FilePolarity,Positive*%
%FSLAX46Y46*%
G04 Gerber Fmt 4.6, Leading zero omitted, Abs format (unit mm)*
G04 Created by KiCad (PCBNEW 7.0.9) date 2024-05-14 12:43:38*
%MOMM*%
%LPD*%
G01*
G04 APERTURE LIST*
G04 Aperture macros list*
%AMRoundRect*
0 Rectangle with rounded corners*
0 $1 Rounding radius*
0 $2 $3 $4 $5 $6 $7 $8 $9 X,Y pos of 4 corners*
0 Add a 4 corners polygon primitive as box body*
4,1,4,$2,$3,$4,$5,$6,$7,$8,$9,$2,$3,0*
0 Add four circle primitives for the rounded corners*
1,1,$1+$1,$2,$3*
1,1,$1+$1,$4,$5*
1,1,$1+$1,$6,$7*
1,1,$1+$1,$8,$9*
0 Add four rect primitives between the rounded corners*
20,1,$1+$1,$2,$3,$4,$5,0*
20,1,$1+$1,$4,$5,$6,$7,0*
20,1,$1+$1,$6,$7,$8,$9,0*
20,1,$1+$1,$8,$9,$2,$3,0*%
G04 Aperture macros list end*
%ADD10C,0.150000*%
%ADD11C,0.400000*%
%ADD12C,0.120000*%
%ADD13R,1.700000X1.700000*%
%ADD14O,1.700000X1.700000*%
%ADD15C,3.500000*%
%ADD16RoundRect,0.250000X-0.600000X-0.725000X0.600000X-0.725000X0.600000X0.725000X-0.600000X0.725000X0*%
%ADD17O,1.700000X1.950000*%
%ADD18C,1.524000*%
G04 APERTURE END LIST*
D10*
X67091160Y-149998295D02*
X67091160Y-149198295D01*
X67091160Y-149198295D02*
X67548303Y-149998295D01*
X67548303Y-149998295D02*
X67548303Y-149198295D01*
X68386398Y-149998295D02*
X68119731Y-149617342D01*
X67929255Y-149998295D02*
X67929255Y-149198295D01*
X67929255Y-149198295D02*
X68234017Y-149198295D01*
X68234017Y-149198295D02*
X68310207Y-149236390D01*
X68310207Y-149236390D02*
X68348302Y-149274485D01*
X68348302Y-149274485D02*
X68386398Y-149350676D01*
X68386398Y-149350676D02*
X68386398Y-149464961D01*
X68386398Y-149464961D02*
X68348302Y-149541152D01*
X68348302Y-149541152D02*
X68310207Y-149579247D01*
X68310207Y-149579247D02*
X68234017Y-149617342D01*
X68234017Y-149617342D02*
X67929255Y-149617342D01*
X68691159Y-149960200D02*
X68805445Y-149998295D01*
X68805445Y-149998295D02*
X68995921Y-149998295D01*
X68995921Y-149998295D02*
X69072112Y-149960200D01*
X69072112Y-149960200D02*
X69110207Y-149922104D01*
X69110207Y-149922104D02*
X69148302Y-149845914D01*
X69148302Y-149845914D02*
X69148302Y-149769723D01*
X69148302Y-149769723D02*
X69110207Y-149693533D01*
X69110207Y-149693533D02*
X69072112Y-149655438D01*
X69072112Y-149655438D02*
X68995921Y-149617342D01*
X68995921Y-149617342D02*
X68843540Y-149579247D01*
X68843540Y-149579247D02*
X68767350Y-149541152D01*
X68767350Y-149541152D02*
X68729255Y-149503057D01*
X68729255Y-149503057D02*
X68691159Y-149426866D01*
X68691159Y-149426866D02*
X68691159Y-149350676D01*
X68691159Y-149350676D02*
X68729255Y-149274485D01*
X68729255Y-149274485D02*
X68767350Y-149236390D01*
X68767350Y-149236390D02*
X68843540Y-149198295D01*
X68843540Y-149198295D02*
X69034017Y-149198295D01*
X69034017Y-149198295D02*
X69148302Y-149236390D01*
X69376874Y-149198295D02*
X69834017Y-149198295D01*
X69605445Y-149998295D02*
X69605445Y-149198295D01*
X90026295Y-156543125D02*
X90826295Y-156276458D01*
X90826295Y-156276458D02*
X90026295Y-156009792D01*
X90826295Y-155743125D02*
X90026295Y-155743125D01*
X90026295Y-155743125D02*
X90026295Y-155552649D01*
X90026295Y-155552649D02*
X90064390Y-155438363D01*
X90064390Y-155438363D02*
X90140580Y-155362173D01*
X90140580Y-155362173D02*
X90216771Y-155324078D01*
X90216771Y-155324078D02*
X90369152Y-155285982D01*
X90369152Y-155285982D02*
X90483438Y-155285982D01*
X90483438Y-155285982D02*
X90635819Y-155324078D01*
X90635819Y-155324078D02*
X90712009Y-155362173D01*
X90712009Y-155362173D02*
X90788200Y-155438363D01*
X90788200Y-155438363D02*
X90826295Y-155552649D01*
X90826295Y-155552649D02*
X90826295Y-155743125D01*
X90826295Y-154943125D02*
X90026295Y-154943125D01*
X90026295Y-154943125D02*
X90026295Y-154752649D01*
X90026295Y-154752649D02*
X90064390Y-154638363D01*
X90064390Y-154638363D02*
X90140580Y-154562173D01*
X90140580Y-154562173D02*
X90216771Y-154524078D01*
X90216771Y-154524078D02*
X90369152Y-154485982D01*
X90369152Y-154485982D02*
X90483438Y-154485982D01*
X90483438Y-154485982D02*
X90635819Y-154524078D01*
X90635819Y-154524078D02*
X90712009Y-154562173D01*
X90712009Y-154562173D02*
X90788200Y-154638363D01*
X90788200Y-154638363D02*
X90826295Y-154752649D01*
X90826295Y-154752649D02*
X90826295Y-154943125D01*
X95906295Y-155971696D02*
X95525342Y-156238363D01*
X95906295Y-156428839D02*
X95106295Y-156428839D01*
X95106295Y-156428839D02*
X95106295Y-156124077D01*
X95106295Y-156124077D02*
X95144390Y-156047887D01*
X95144390Y-156047887D02*
X95182485Y-156009792D01*
X95182485Y-156009792D02*
X95258676Y-155971696D01*
X95258676Y-155971696D02*
X95372961Y-155971696D01*
X95372961Y-155971696D02*
X95449152Y-156009792D01*
X95449152Y-156009792D02*
X95487247Y-156047887D01*
X95487247Y-156047887D02*
X95525342Y-156124077D01*
X95525342Y-156124077D02*
X95525342Y-156428839D01*
X95106295Y-155705030D02*
X95906295Y-155171696D01*
X95106295Y-155171696D02*
X95906295Y-155705030D01*
X95601533Y-154866934D02*
X95601533Y-154257411D01*
X95753914Y-154409791D02*
X95601533Y-154257411D01*
X95601533Y-154257411D02*
X95449152Y-154409791D01*
X83042303Y-146452295D02*
X82775636Y-146071342D01*
X82585160Y-146452295D02*
X82585160Y-145652295D01*
X82585160Y-145652295D02*
X82889922Y-145652295D01*
X82889922Y-145652295D02*
X82966112Y-145690390D01*
X82966112Y-145690390D02*
X83004207Y-145728485D01*
X83004207Y-145728485D02*
X83042303Y-145804676D01*
X83042303Y-145804676D02*
X83042303Y-145918961D01*
X83042303Y-145918961D02*
X83004207Y-145995152D01*
X83004207Y-145995152D02*
X82966112Y-146033247D01*
X82966112Y-146033247D02*
X82889922Y-146071342D01*
X82889922Y-146071342D02*
X82585160Y-146071342D01*
X83308969Y-145652295D02*
X83842303Y-146452295D01*
X83842303Y-145652295D02*
X83308969Y-146452295D01*
D11*
X99418299Y-131592438D02*
X99608776Y-131592438D01*
X99608776Y-131592438D02*
X99799252Y-131687676D01*
X99799252Y-131687676D02*
X99894490Y-131782914D01*
X99894490Y-131782914D02*
X99989728Y-131973390D01*
X99989728Y-131973390D02*
X100084966Y-132354342D01*
X100084966Y-132354342D02*
X100084966Y-132830533D01*
X100084966Y-132830533D02*
X99989728Y-133211485D01*
X99989728Y-133211485D02*
X99894490Y-133401961D01*
X99894490Y-133401961D02*
X99799252Y-133497200D01*
X99799252Y-133497200D02*
X99608776Y-133592438D01*
X99608776Y-133592438D02*
X99418299Y-133592438D01*
X99418299Y-133592438D02*
X99227823Y-133497200D01*
X99227823Y-133497200D02*
X99132585Y-133401961D01*
X99132585Y-133401961D02*
X99037347Y-133211485D01*
X99037347Y-133211485D02*
X98942109Y-132830533D01*
X98942109Y-132830533D02*
X98942109Y-132354342D01*
X98942109Y-132354342D02*
X99037347Y-131973390D01*
X99037347Y-131973390D02*
X99132585Y-131782914D01*
X99132585Y-131782914D02*
X99227823Y-131687676D01*
X99227823Y-131687676D02*
X99418299Y-131592438D01*
X101799252Y-132259104D02*
X101799252Y-133592438D01*
X101323061Y-131497200D02*
X100846871Y-132925771D01*
X100846871Y-132925771D02*
X102084966Y-132925771D01*
X102846871Y-132830533D02*
X104370681Y-132830533D01*
X106275442Y-133592438D02*
X105323061Y-133592438D01*
X105323061Y-133592438D02*
X105323061Y-131592438D01*
X106942109Y-133592438D02*
X106942109Y-131592438D01*
X107894490Y-133592438D02*
X107894490Y-131592438D01*
X107894490Y-131592438D02*
X109037347Y-133592438D01*
X109037347Y-133592438D02*
X109037347Y-131592438D01*
X109989728Y-132544819D02*
X110656395Y-132544819D01*
X110942109Y-133592438D02*
X109989728Y-133592438D01*
X109989728Y-133592438D02*
X109989728Y-131592438D01*
X109989728Y-131592438D02*
X110942109Y-131592438D01*
X113132586Y-132259104D02*
X113608776Y-133592438D01*
X113608776Y-133592438D02*
X114084967Y-132259104D01*
X115608777Y-133497200D02*
X115418301Y-133592438D01*
X115418301Y-133592438D02*
X115037348Y-133592438D01*
X115037348Y-133592438D02*
X114846872Y-133497200D01*
X114846872Y-133497200D02*
X114751634Y-133306723D01*
X114751634Y-133306723D02*
X114751634Y-132544819D01*
X114751634Y-132544819D02*
X114846872Y-132354342D01*
X114846872Y-132354342D02*
X115037348Y-132259104D01*
X115037348Y-132259104D02*
X115418301Y-132259104D01*
X115418301Y-132259104D02*
X115608777Y-132354342D01*
X115608777Y-132354342D02*
X115704015Y-132544819D01*
X115704015Y-132544819D02*
X115704015Y-132735295D01*
X115704015Y-132735295D02*
X114751634Y-132925771D01*
X116561158Y-133592438D02*
X116561158Y-132259104D01*
X116561158Y-132640057D02*
X116656396Y-132449580D01*
X116656396Y-132449580D02*
X116751634Y-132354342D01*
X116751634Y-132354342D02*
X116942110Y-132259104D01*
X116942110Y-132259104D02*
X117132587Y-132259104D01*
X117799253Y-133401961D02*
X117894491Y-133497200D01*
X117894491Y-133497200D02*
X117799253Y-133592438D01*
X117799253Y-133592438D02*
X117704015Y-133497200D01*
X117704015Y-133497200D02*
X117799253Y-133401961D01*
X117799253Y-133401961D02*
X117799253Y-133592438D01*
X119799253Y-133592438D02*
X118656396Y-133592438D01*
X119227824Y-133592438D02*
X119227824Y-131592438D01*
X119227824Y-131592438D02*
X119037348Y-131878152D01*
X119037348Y-131878152D02*
X118846872Y-132068628D01*
X118846872Y-132068628D02*
X118656396Y-132163866D01*
D10*
X102222493Y-157365819D02*
X102222493Y-158080104D01*
X102222493Y-158080104D02*
X102174874Y-158222961D01*
X102174874Y-158222961D02*
X102079636Y-158318200D01*
X102079636Y-158318200D02*
X101936779Y-158365819D01*
X101936779Y-158365819D02*
X101841541Y-158365819D01*
X103174874Y-158365819D02*
X102698684Y-158365819D01*
X102698684Y-158365819D02*
X102698684Y-157365819D01*
X104079636Y-158270580D02*
X104032017Y-158318200D01*
X104032017Y-158318200D02*
X103889160Y-158365819D01*
X103889160Y-158365819D02*
X103793922Y-158365819D01*
X103793922Y-158365819D02*
X103651065Y-158318200D01*
X103651065Y-158318200D02*
X103555827Y-158222961D01*
X103555827Y-158222961D02*
X103508208Y-158127723D01*
X103508208Y-158127723D02*
X103460589Y-157937247D01*
X103460589Y-157937247D02*
X103460589Y-157794390D01*
X103460589Y-157794390D02*
X103508208Y-157603914D01*
X103508208Y-157603914D02*
X103555827Y-157508676D01*
X103555827Y-157508676D02*
X103651065Y-157413438D01*
X103651065Y-157413438D02*
X103793922Y-157365819D01*
X103793922Y-157365819D02*
X103889160Y-157365819D01*
X103889160Y-157365819D02*
X104032017Y-157413438D01*
X104032017Y-157413438D02*
X104079636Y-157461057D01*
X104793922Y-157365819D02*
X104793922Y-158080104D01*
X104793922Y-158080104D02*
X104746303Y-158222961D01*
X104746303Y-158222961D02*
X104651065Y-158318200D01*
X104651065Y-158318200D02*
X104508208Y-158365819D01*
X104508208Y-158365819D02*
X104412970Y-158365819D01*
X105746303Y-158365819D02*
X105270113Y-158365819D01*
X105270113Y-158365819D02*
X105270113Y-157365819D01*
X106651065Y-158270580D02*
X106603446Y-158318200D01*
X106603446Y-158318200D02*
X106460589Y-158365819D01*
X106460589Y-158365819D02*
X106365351Y-158365819D01*
X106365351Y-158365819D02*
X106222494Y-158318200D01*
X106222494Y-158318200D02*
X106127256Y-158222961D01*
X106127256Y-158222961D02*
X106079637Y-158127723D01*
X106079637Y-158127723D02*
X106032018Y-157937247D01*
X106032018Y-157937247D02*
X106032018Y-157794390D01*
X106032018Y-157794390D02*
X106079637Y-157603914D01*
X106079637Y-157603914D02*
X106127256Y-157508676D01*
X106127256Y-157508676D02*
X106222494Y-157413438D01*
X106222494Y-157413438D02*
X106365351Y-157365819D01*
X106365351Y-157365819D02*
X106460589Y-157365819D01*
X106460589Y-157365819D02*
X106603446Y-157413438D01*
X106603446Y-157413438D02*
X106651065Y-157461057D01*
X107365351Y-157365819D02*
X107365351Y-158080104D01*
X107365351Y-158080104D02*
X107317732Y-158222961D01*
X107317732Y-158222961D02*
X107222494Y-158318200D01*
X107222494Y-158318200D02*
X107079637Y-158365819D01*
X107079637Y-158365819D02*
X106984399Y-158365819D01*
X108317732Y-158365819D02*
X107841542Y-158365819D01*
X107841542Y-158365819D02*
X107841542Y-157365819D01*
X109222494Y-158270580D02*
X109174875Y-158318200D01*
X109174875Y-158318200D02*
X109032018Y-158365819D01*
X109032018Y-158365819D02*
X108936780Y-158365819D01*
X108936780Y-158365819D02*
X108793923Y-158318200D01*
X108793923Y-158318200D02*
X108698685Y-158222961D01*
X108698685Y-158222961D02*
X108651066Y-158127723D01*
X108651066Y-158127723D02*
X108603447Y-157937247D01*
X108603447Y-157937247D02*
X108603447Y-157794390D01*
X108603447Y-157794390D02*
X108651066Y-157603914D01*
X108651066Y-157603914D02*
X108698685Y-157508676D01*
X108698685Y-157508676D02*
X108793923Y-157413438D01*
X108793923Y-157413438D02*
X108936780Y-157365819D01*
X108936780Y-157365819D02*
X109032018Y-157365819D01*
X109032018Y-157365819D02*
X109174875Y-157413438D01*
X109174875Y-157413438D02*
X109222494Y-157461057D01*
X109936780Y-157365819D02*
X109936780Y-158080104D01*
X109936780Y-158080104D02*
X109889161Y-158222961D01*
X109889161Y-158222961D02*
X109793923Y-158318200D01*
X109793923Y-158318200D02*
X109651066Y-158365819D01*
X109651066Y-158365819D02*
X109555828Y-158365819D01*
X110889161Y-158365819D02*
X110412971Y-158365819D01*
X110412971Y-158365819D02*
X110412971Y-157365819D01*
X111793923Y-158270580D02*
X111746304Y-158318200D01*
X111746304Y-158318200D02*
X111603447Y-158365819D01*
X111603447Y-158365819D02*
X111508209Y-158365819D01*
X111508209Y-158365819D02*
X111365352Y-158318200D01*
X111365352Y-158318200D02*
X111270114Y-158222961D01*
X111270114Y-158222961D02*
X111222495Y-158127723D01*
X111222495Y-158127723D02*
X111174876Y-157937247D01*
X111174876Y-157937247D02*
X111174876Y-157794390D01*
X111174876Y-157794390D02*
X111222495Y-157603914D01*
X111222495Y-157603914D02*
X111270114Y-157508676D01*
X111270114Y-157508676D02*
X111365352Y-157413438D01*
X111365352Y-157413438D02*
X111508209Y-157365819D01*
X111508209Y-157365819D02*
X111603447Y-157365819D01*
X111603447Y-157365819D02*
X111746304Y-157413438D01*
X111746304Y-157413438D02*
X111793923Y-157461057D01*
X67510207Y-146696390D02*
X67434017Y-146658295D01*
X67434017Y-146658295D02*
X67319731Y-146658295D01*
X67319731Y-146658295D02*
X67205445Y-146696390D01*
X67205445Y-146696390D02*
X67129255Y-146772580D01*
X67129255Y-146772580D02*
X67091160Y-146848771D01*
X67091160Y-146848771D02*
X67053064Y-147001152D01*
X67053064Y-147001152D02*
X67053064Y-147115438D01*
X67053064Y-147115438D02*
X67091160Y-147267819D01*
X67091160Y-147267819D02*
X67129255Y-147344009D01*
X67129255Y-147344009D02*
X67205445Y-147420200D01*
X67205445Y-147420200D02*
X67319731Y-147458295D01*
X67319731Y-147458295D02*
X67395922Y-147458295D01*
X67395922Y-147458295D02*
X67510207Y-147420200D01*
X67510207Y-147420200D02*
X67548303Y-147382104D01*
X67548303Y-147382104D02*
X67548303Y-147115438D01*
X67548303Y-147115438D02*
X67395922Y-147115438D01*
X67891160Y-147458295D02*
X67891160Y-146658295D01*
X67891160Y-146658295D02*
X68348303Y-147458295D01*
X68348303Y-147458295D02*
X68348303Y-146658295D01*
X68729255Y-147458295D02*
X68729255Y-146658295D01*
X68729255Y-146658295D02*
X68919731Y-146658295D01*
X68919731Y-146658295D02*
X69034017Y-146696390D01*
X69034017Y-146696390D02*
X69110207Y-146772580D01*
X69110207Y-146772580D02*
X69148302Y-146848771D01*
X69148302Y-146848771D02*
X69186398Y-147001152D01*
X69186398Y-147001152D02*
X69186398Y-147115438D01*
X69186398Y-147115438D02*
X69148302Y-147267819D01*
X69148302Y-147267819D02*
X69110207Y-147344009D01*
X69110207Y-147344009D02*
X69034017Y-147420200D01*
X69034017Y-147420200D02*
X68919731Y-147458295D01*
X68919731Y-147458295D02*
X68729255Y-147458295D01*
X74380969Y-146160295D02*
X74876207Y-146160295D01*
X74876207Y-146160295D02*
X74609541Y-146465057D01*
X74609541Y-146465057D02*
X74723826Y-146465057D01*
X74723826Y-146465057D02*
X74800017Y-146503152D01*
X74800017Y-146503152D02*
X74838112Y-146541247D01*
X74838112Y-146541247D02*
X74876207Y-146617438D01*
X74876207Y-146617438D02*
X74876207Y-146807914D01*
X74876207Y-146807914D02*
X74838112Y-146884104D01*
X74838112Y-146884104D02*
X74800017Y-146922200D01*
X74800017Y-146922200D02*
X74723826Y-146960295D01*
X74723826Y-146960295D02*
X74495255Y-146960295D01*
X74495255Y-146960295D02*
X74419064Y-146922200D01*
X74419064Y-146922200D02*
X74380969Y-146884104D01*
X75104779Y-146160295D02*
X75371446Y-146960295D01*
X75371446Y-146960295D02*
X75638112Y-146160295D01*
X75828588Y-146160295D02*
X76323826Y-146160295D01*
X76323826Y-146160295D02*
X76057160Y-146465057D01*
X76057160Y-146465057D02*
X76171445Y-146465057D01*
X76171445Y-146465057D02*
X76247636Y-146503152D01*
X76247636Y-146503152D02*
X76285731Y-146541247D01*
X76285731Y-146541247D02*
X76323826Y-146617438D01*
X76323826Y-146617438D02*
X76323826Y-146807914D01*
X76323826Y-146807914D02*
X76285731Y-146884104D01*
X76285731Y-146884104D02*
X76247636Y-146922200D01*
X76247636Y-146922200D02*
X76171445Y-146960295D01*
X76171445Y-146960295D02*
X75942874Y-146960295D01*
X75942874Y-146960295D02*
X75866683Y-146922200D01*
X75866683Y-146922200D02*
X75828588Y-146884104D01*
X97900295Y-156543125D02*
X97900295Y-156085982D01*
X98700295Y-156314554D02*
X97900295Y-156314554D01*
X97900295Y-155895506D02*
X98700295Y-155362172D01*
X97900295Y-155362172D02*
X98700295Y-155895506D01*
X98395533Y-154447887D02*
X98395533Y-155057410D01*
X98547914Y-154905029D02*
X98395533Y-155057410D01*
X98395533Y-155057410D02*
X98243152Y-154905029D01*
X67053064Y-155040200D02*
X67167350Y-155078295D01*
X67167350Y-155078295D02*
X67357826Y-155078295D01*
X67357826Y-155078295D02*
X67434017Y-155040200D01*
X67434017Y-155040200D02*
X67472112Y-155002104D01*
X67472112Y-155002104D02*
X67510207Y-154925914D01*
X67510207Y-154925914D02*
X67510207Y-154849723D01*
X67510207Y-154849723D02*
X67472112Y-154773533D01*
X67472112Y-154773533D02*
X67434017Y-154735438D01*
X67434017Y-154735438D02*
X67357826Y-154697342D01*
X67357826Y-154697342D02*
X67205445Y-154659247D01*
X67205445Y-154659247D02*
X67129255Y-154621152D01*
X67129255Y-154621152D02*
X67091160Y-154583057D01*
X67091160Y-154583057D02*
X67053064Y-154506866D01*
X67053064Y-154506866D02*
X67053064Y-154430676D01*
X67053064Y-154430676D02*
X67091160Y-154354485D01*
X67091160Y-154354485D02*
X67129255Y-154316390D01*
X67129255Y-154316390D02*
X67205445Y-154278295D01*
X67205445Y-154278295D02*
X67395922Y-154278295D01*
X67395922Y-154278295D02*
X67510207Y-154316390D01*
X67776874Y-154278295D02*
X67967350Y-155078295D01*
X67967350Y-155078295D02*
X68119731Y-154506866D01*
X68119731Y-154506866D02*
X68272112Y-155078295D01*
X68272112Y-155078295D02*
X68462589Y-154278295D01*
X69224494Y-155002104D02*
X69186398Y-155040200D01*
X69186398Y-155040200D02*
X69072113Y-155078295D01*
X69072113Y-155078295D02*
X68995922Y-155078295D01*
X68995922Y-155078295D02*
X68881636Y-155040200D01*
X68881636Y-155040200D02*
X68805446Y-154964009D01*
X68805446Y-154964009D02*
X68767351Y-154887819D01*
X68767351Y-154887819D02*
X68729255Y-154735438D01*
X68729255Y-154735438D02*
X68729255Y-154621152D01*
X68729255Y-154621152D02*
X68767351Y-154468771D01*
X68767351Y-154468771D02*
X68805446Y-154392580D01*
X68805446Y-154392580D02*
X68881636Y-154316390D01*
X68881636Y-154316390D02*
X68995922Y-154278295D01*
X68995922Y-154278295D02*
X69072113Y-154278295D01*
X69072113Y-154278295D02*
X69186398Y-154316390D01*
X69186398Y-154316390D02*
X69224494Y-154354485D01*
X69948303Y-155078295D02*
X69567351Y-155078295D01*
X69567351Y-155078295D02*
X69567351Y-154278295D01*
X70214970Y-155078295D02*
X70214970Y-154278295D01*
X70672113Y-155078295D02*
X70329255Y-154621152D01*
X70672113Y-154278295D02*
X70214970Y-154735438D01*
X92858390Y-156009792D02*
X92820295Y-156085982D01*
X92820295Y-156085982D02*
X92820295Y-156200268D01*
X92820295Y-156200268D02*
X92858390Y-156314554D01*
X92858390Y-156314554D02*
X92934580Y-156390744D01*
X92934580Y-156390744D02*
X93010771Y-156428839D01*
X93010771Y-156428839D02*
X93163152Y-156466935D01*
X93163152Y-156466935D02*
X93277438Y-156466935D01*
X93277438Y-156466935D02*
X93429819Y-156428839D01*
X93429819Y-156428839D02*
X93506009Y-156390744D01*
X93506009Y-156390744D02*
X93582200Y-156314554D01*
X93582200Y-156314554D02*
X93620295Y-156200268D01*
X93620295Y-156200268D02*
X93620295Y-156124077D01*
X93620295Y-156124077D02*
X93582200Y-156009792D01*
X93582200Y-156009792D02*
X93544104Y-155971696D01*
X93544104Y-155971696D02*
X93277438Y-155971696D01*
X93277438Y-155971696D02*
X93277438Y-156124077D01*
X93620295Y-155628839D02*
X92820295Y-155628839D01*
X92820295Y-155628839D02*
X93620295Y-155171696D01*
X93620295Y-155171696D02*
X92820295Y-155171696D01*
X93620295Y-154790744D02*
X92820295Y-154790744D01*
X92820295Y-154790744D02*
X92820295Y-154600268D01*
X92820295Y-154600268D02*
X92858390Y-154485982D01*
X92858390Y-154485982D02*
X92934580Y-154409792D01*
X92934580Y-154409792D02*
X93010771Y-154371697D01*
X93010771Y-154371697D02*
X93163152Y-154333601D01*
X93163152Y-154333601D02*
X93277438Y-154333601D01*
X93277438Y-154333601D02*
X93429819Y-154371697D01*
X93429819Y-154371697D02*
X93506009Y-154409792D01*
X93506009Y-154409792D02*
X93582200Y-154485982D01*
X93582200Y-154485982D02*
X93620295Y-154600268D01*
X93620295Y-154600268D02*
X93620295Y-154790744D01*
X80432077Y-147273228D02*
X80432077Y-146663704D01*
X80279696Y-146816085D02*
X80432077Y-146663704D01*
X80432077Y-146663704D02*
X80584458Y-146816085D01*
X83143922Y-146604771D02*
X83143922Y-147214295D01*
X83296303Y-147061914D02*
X83143922Y-147214295D01*
X83143922Y-147214295D02*
X82991541Y-147061914D01*
X67053064Y-152500200D02*
X67167350Y-152538295D01*
X67167350Y-152538295D02*
X67357826Y-152538295D01*
X67357826Y-152538295D02*
X67434017Y-152500200D01*
X67434017Y-152500200D02*
X67472112Y-152462104D01*
X67472112Y-152462104D02*
X67510207Y-152385914D01*
X67510207Y-152385914D02*
X67510207Y-152309723D01*
X67510207Y-152309723D02*
X67472112Y-152233533D01*
X67472112Y-152233533D02*
X67434017Y-152195438D01*
X67434017Y-152195438D02*
X67357826Y-152157342D01*
X67357826Y-152157342D02*
X67205445Y-152119247D01*
X67205445Y-152119247D02*
X67129255Y-152081152D01*
X67129255Y-152081152D02*
X67091160Y-152043057D01*
X67091160Y-152043057D02*
X67053064Y-151966866D01*
X67053064Y-151966866D02*
X67053064Y-151890676D01*
X67053064Y-151890676D02*
X67091160Y-151814485D01*
X67091160Y-151814485D02*
X67129255Y-151776390D01*
X67129255Y-151776390D02*
X67205445Y-151738295D01*
X67205445Y-151738295D02*
X67395922Y-151738295D01*
X67395922Y-151738295D02*
X67510207Y-151776390D01*
X67776874Y-151738295D02*
X67967350Y-152538295D01*
X67967350Y-152538295D02*
X68119731Y-151966866D01*
X68119731Y-151966866D02*
X68272112Y-152538295D01*
X68272112Y-152538295D02*
X68462589Y-151738295D01*
X68767351Y-152538295D02*
X68767351Y-151738295D01*
X68767351Y-151738295D02*
X68957827Y-151738295D01*
X68957827Y-151738295D02*
X69072113Y-151776390D01*
X69072113Y-151776390D02*
X69148303Y-151852580D01*
X69148303Y-151852580D02*
X69186398Y-151928771D01*
X69186398Y-151928771D02*
X69224494Y-152081152D01*
X69224494Y-152081152D02*
X69224494Y-152195438D01*
X69224494Y-152195438D02*
X69186398Y-152347819D01*
X69186398Y-152347819D02*
X69148303Y-152424009D01*
X69148303Y-152424009D02*
X69072113Y-152500200D01*
X69072113Y-152500200D02*
X68957827Y-152538295D01*
X68957827Y-152538295D02*
X68767351Y-152538295D01*
X69567351Y-152538295D02*
X69567351Y-151738295D01*
X70100684Y-151738295D02*
X70253065Y-151738295D01*
X70253065Y-151738295D02*
X70329255Y-151776390D01*
X70329255Y-151776390D02*
X70405446Y-151852580D01*
X70405446Y-151852580D02*
X70443541Y-152004961D01*
X70443541Y-152004961D02*
X70443541Y-152271628D01*
X70443541Y-152271628D02*
X70405446Y-152424009D01*
X70405446Y-152424009D02*
X70329255Y-152500200D01*
X70329255Y-152500200D02*
X70253065Y-152538295D01*
X70253065Y-152538295D02*
X70100684Y-152538295D01*
X70100684Y-152538295D02*
X70024493Y-152500200D01*
X70024493Y-152500200D02*
X69948303Y-152424009D01*
X69948303Y-152424009D02*
X69910207Y-152271628D01*
X69910207Y-152271628D02*
X69910207Y-152004961D01*
X69910207Y-152004961D02*
X69948303Y-151852580D01*
X69948303Y-151852580D02*
X70024493Y-151776390D01*
X70024493Y-151776390D02*
X70100684Y-151738295D01*
X77416207Y-146198390D02*
X77340017Y-146160295D01*
X77340017Y-146160295D02*
X77225731Y-146160295D01*
X77225731Y-146160295D02*
X77111445Y-146198390D01*
X77111445Y-146198390D02*
X77035255Y-146274580D01*
X77035255Y-146274580D02*
X76997160Y-146350771D01*
X76997160Y-146350771D02*
X76959064Y-146503152D01*
X76959064Y-146503152D02*
X76959064Y-146617438D01*
X76959064Y-146617438D02*
X76997160Y-146769819D01*
X76997160Y-146769819D02*
X77035255Y-146846009D01*
X77035255Y-146846009D02*
X77111445Y-146922200D01*
X77111445Y-146922200D02*
X77225731Y-146960295D01*
X77225731Y-146960295D02*
X77301922Y-146960295D01*
X77301922Y-146960295D02*
X77416207Y-146922200D01*
X77416207Y-146922200D02*
X77454303Y-146884104D01*
X77454303Y-146884104D02*
X77454303Y-146617438D01*
X77454303Y-146617438D02*
X77301922Y-146617438D01*
X77797160Y-146960295D02*
X77797160Y-146160295D01*
X77797160Y-146160295D02*
X78254303Y-146960295D01*
X78254303Y-146960295D02*
X78254303Y-146160295D01*
X78635255Y-146960295D02*
X78635255Y-146160295D01*
X78635255Y-146160295D02*
X78825731Y-146160295D01*
X78825731Y-146160295D02*
X78940017Y-146198390D01*
X78940017Y-146198390D02*
X79016207Y-146274580D01*
X79016207Y-146274580D02*
X79054302Y-146350771D01*
X79054302Y-146350771D02*
X79092398Y-146503152D01*
X79092398Y-146503152D02*
X79092398Y-146617438D01*
X79092398Y-146617438D02*
X79054302Y-146769819D01*
X79054302Y-146769819D02*
X79016207Y-146846009D01*
X79016207Y-146846009D02*
X78940017Y-146922200D01*
X78940017Y-146922200D02*
X78825731Y-146960295D01*
X78825731Y-146960295D02*
X78635255Y-146960295D01*
X79930874Y-145652295D02*
X80388017Y-145652295D01*
X80159445Y-146452295D02*
X80159445Y-145652295D01*
X80578493Y-145652295D02*
X81111827Y-146452295D01*
X81111827Y-145652295D02*
X80578493Y-146452295D01*
X79791160Y-154580295D02*
X79791160Y-153780295D01*
X79791160Y-153780295D02*
X80248303Y-154580295D01*
X80248303Y-154580295D02*
X80248303Y-153780295D01*
X81086398Y-154580295D02*
X80819731Y-154199342D01*
X80629255Y-154580295D02*
X80629255Y-153780295D01*
X80629255Y-153780295D02*
X80934017Y-153780295D01*
X80934017Y-153780295D02*
X81010207Y-153818390D01*
X81010207Y-153818390D02*
X81048302Y-153856485D01*
X81048302Y-153856485D02*
X81086398Y-153932676D01*
X81086398Y-153932676D02*
X81086398Y-154046961D01*
X81086398Y-154046961D02*
X81048302Y-154123152D01*
X81048302Y-154123152D02*
X81010207Y-154161247D01*
X81010207Y-154161247D02*
X80934017Y-154199342D01*
X80934017Y-154199342D02*
X80629255Y-154199342D01*
X81391159Y-154542200D02*
X81505445Y-154580295D01*
X81505445Y-154580295D02*
X81695921Y-154580295D01*
X81695921Y-154580295D02*
X81772112Y-154542200D01*
X81772112Y-154542200D02*
X81810207Y-154504104D01*
X81810207Y-154504104D02*
X81848302Y-154427914D01*
X81848302Y-154427914D02*
X81848302Y-154351723D01*
X81848302Y-154351723D02*
X81810207Y-154275533D01*
X81810207Y-154275533D02*
X81772112Y-154237438D01*
X81772112Y-154237438D02*
X81695921Y-154199342D01*
X81695921Y-154199342D02*
X81543540Y-154161247D01*
X81543540Y-154161247D02*
X81467350Y-154123152D01*
X81467350Y-154123152D02*
X81429255Y-154085057D01*
X81429255Y-154085057D02*
X81391159Y-154008866D01*
X81391159Y-154008866D02*
X81391159Y-153932676D01*
X81391159Y-153932676D02*
X81429255Y-153856485D01*
X81429255Y-153856485D02*
X81467350Y-153818390D01*
X81467350Y-153818390D02*
X81543540Y-153780295D01*
X81543540Y-153780295D02*
X81734017Y-153780295D01*
X81734017Y-153780295D02*
X81848302Y-153818390D01*
X82076874Y-153780295D02*
X82534017Y-153780295D01*
X82305445Y-154580295D02*
X82305445Y-153780295D01*
X75739826Y-154161247D02*
X75854112Y-154199342D01*
X75854112Y-154199342D02*
X75892207Y-154237438D01*
X75892207Y-154237438D02*
X75930303Y-154313628D01*
X75930303Y-154313628D02*
X75930303Y-154427914D01*
X75930303Y-154427914D02*
X75892207Y-154504104D01*
X75892207Y-154504104D02*
X75854112Y-154542200D01*
X75854112Y-154542200D02*
X75777922Y-154580295D01*
X75777922Y-154580295D02*
X75473160Y-154580295D01*
X75473160Y-154580295D02*
X75473160Y-153780295D01*
X75473160Y-153780295D02*
X75739826Y-153780295D01*
X75739826Y-153780295D02*
X75816017Y-153818390D01*
X75816017Y-153818390D02*
X75854112Y-153856485D01*
X75854112Y-153856485D02*
X75892207Y-153932676D01*
X75892207Y-153932676D02*
X75892207Y-154008866D01*
X75892207Y-154008866D02*
X75854112Y-154085057D01*
X75854112Y-154085057D02*
X75816017Y-154123152D01*
X75816017Y-154123152D02*
X75739826Y-154161247D01*
X75739826Y-154161247D02*
X75473160Y-154161247D01*
X76425541Y-153780295D02*
X76577922Y-153780295D01*
X76577922Y-153780295D02*
X76654112Y-153818390D01*
X76654112Y-153818390D02*
X76730303Y-153894580D01*
X76730303Y-153894580D02*
X76768398Y-154046961D01*
X76768398Y-154046961D02*
X76768398Y-154313628D01*
X76768398Y-154313628D02*
X76730303Y-154466009D01*
X76730303Y-154466009D02*
X76654112Y-154542200D01*
X76654112Y-154542200D02*
X76577922Y-154580295D01*
X76577922Y-154580295D02*
X76425541Y-154580295D01*
X76425541Y-154580295D02*
X76349350Y-154542200D01*
X76349350Y-154542200D02*
X76273160Y-154466009D01*
X76273160Y-154466009D02*
X76235064Y-154313628D01*
X76235064Y-154313628D02*
X76235064Y-154046961D01*
X76235064Y-154046961D02*
X76273160Y-153894580D01*
X76273160Y-153894580D02*
X76349350Y-153818390D01*
X76349350Y-153818390D02*
X76425541Y-153780295D01*
X77263636Y-153780295D02*
X77416017Y-153780295D01*
X77416017Y-153780295D02*
X77492207Y-153818390D01*
X77492207Y-153818390D02*
X77568398Y-153894580D01*
X77568398Y-153894580D02*
X77606493Y-154046961D01*
X77606493Y-154046961D02*
X77606493Y-154313628D01*
X77606493Y-154313628D02*
X77568398Y-154466009D01*
X77568398Y-154466009D02*
X77492207Y-154542200D01*
X77492207Y-154542200D02*
X77416017Y-154580295D01*
X77416017Y-154580295D02*
X77263636Y-154580295D01*
X77263636Y-154580295D02*
X77187445Y-154542200D01*
X77187445Y-154542200D02*
X77111255Y-154466009D01*
X77111255Y-154466009D02*
X77073159Y-154313628D01*
X77073159Y-154313628D02*
X77073159Y-154046961D01*
X77073159Y-154046961D02*
X77111255Y-153894580D01*
X77111255Y-153894580D02*
X77187445Y-153818390D01*
X77187445Y-153818390D02*
X77263636Y-153780295D01*
X77835064Y-153780295D02*
X78292207Y-153780295D01*
X78063635Y-154580295D02*
X78063635Y-153780295D01*
X78711255Y-153780295D02*
X78787445Y-153780295D01*
X78787445Y-153780295D02*
X78863636Y-153818390D01*
X78863636Y-153818390D02*
X78901731Y-153856485D01*
X78901731Y-153856485D02*
X78939826Y-153932676D01*
X78939826Y-153932676D02*
X78977921Y-154085057D01*
X78977921Y-154085057D02*
X78977921Y-154275533D01*
X78977921Y-154275533D02*
X78939826Y-154427914D01*
X78939826Y-154427914D02*
X78901731Y-154504104D01*
X78901731Y-154504104D02*
X78863636Y-154542200D01*
X78863636Y-154542200D02*
X78787445Y-154580295D01*
X78787445Y-154580295D02*
X78711255Y-154580295D01*
X78711255Y-154580295D02*
X78635064Y-154542200D01*
X78635064Y-154542200D02*
X78596969Y-154504104D01*
X78596969Y-154504104D02*
X78558874Y-154427914D01*
X78558874Y-154427914D02*
X78520778Y-154275533D01*
X78520778Y-154275533D02*
X78520778Y-154085057D01*
X78520778Y-154085057D02*
X78558874Y-153932676D01*
X78558874Y-153932676D02*
X78596969Y-153856485D01*
X78596969Y-153856485D02*
X78635064Y-153818390D01*
X78635064Y-153818390D02*
X78711255Y-153780295D01*
D12*
%TO.C,J4*%
X74108000Y-152968000D02*
X74108000Y-151638000D01*
X75438000Y-152968000D02*
X74108000Y-152968000D01*
X76708000Y-152968000D02*
X84388000Y-152968000D01*
X76708000Y-152968000D02*
X76708000Y-150368000D01*
X84388000Y-152968000D02*
X84388000Y-147768000D01*
X74108000Y-150368000D02*
X74108000Y-147768000D01*
X76708000Y-150368000D02*
X74108000Y-150368000D01*
X74108000Y-147768000D02*
X84388000Y-147768000D01*
%TO.C,J1*%
X66608000Y-156006000D02*
X65278000Y-156006000D01*
X66608000Y-154676000D02*
X66608000Y-156006000D01*
X66608000Y-153406000D02*
X66608000Y-145726000D01*
X66608000Y-153406000D02*
X63948000Y-153406000D01*
X66608000Y-145726000D02*
X63948000Y-145726000D01*
X63948000Y-153406000D02*
X63948000Y-145726000D01*
%TO.C,G\u002A\u002A\u002A*%
G36*
X60125869Y-95031480D02*
G01*
X60494734Y-95114634D01*
X60859225Y-95251166D01*
X60994637Y-95313858D01*
X61164853Y-95413679D01*
X61363700Y-95556799D01*
X61569516Y-95724020D01*
X61760636Y-95896142D01*
X61915396Y-96053965D01*
X62012134Y-96178292D01*
X62033728Y-96234741D01*
X62010010Y-96266863D01*
X61928899Y-96289212D01*
X61775463Y-96303242D01*
X61534766Y-96310404D01*
X61237770Y-96312181D01*
X60441813Y-96312181D01*
X60228587Y-96057095D01*
X59977247Y-95811738D01*
X59683425Y-95636508D01*
X59327610Y-95523509D01*
X58890292Y-95464848D01*
X58745199Y-95456863D01*
X58215329Y-95458067D01*
X57716402Y-95511916D01*
X57199428Y-95625131D01*
X56911274Y-95708440D01*
X56684571Y-95773976D01*
X56564312Y-95798396D01*
X56549491Y-95782821D01*
X56639101Y-95728374D01*
X56832136Y-95636179D01*
X57069182Y-95532220D01*
X57599445Y-95321214D01*
X58072601Y-95170463D01*
X58524125Y-95071247D01*
X58989498Y-95014849D01*
X59233955Y-95000175D01*
X59717364Y-94995421D01*
X60125869Y-95031480D01*
G37*
G36*
X56286243Y-96485353D02*
G01*
X56293754Y-96485363D01*
X56470650Y-96499525D01*
X56545539Y-96544096D01*
X56549637Y-96564016D01*
X56535705Y-96699573D01*
X56498310Y-96912978D01*
X56444051Y-97176033D01*
X56379526Y-97460542D01*
X56311335Y-97738306D01*
X56246076Y-97981129D01*
X56190348Y-98160813D01*
X56157572Y-98239290D01*
X55972328Y-98448482D01*
X55717537Y-98586624D01*
X55422456Y-98642392D01*
X55174843Y-98619598D01*
X55027499Y-98562251D01*
X54875504Y-98467821D01*
X54755110Y-98363090D01*
X54702568Y-98274843D01*
X54702364Y-98270515D01*
X54746439Y-98215336D01*
X54855399Y-98132184D01*
X54885164Y-98112779D01*
X55067964Y-97997038D01*
X55224935Y-98113092D01*
X55400874Y-98191267D01*
X55561280Y-98169743D01*
X55679385Y-98052114D01*
X55679386Y-98052113D01*
X55711547Y-97956814D01*
X55757454Y-97775706D01*
X55810470Y-97536622D01*
X55853984Y-97320000D01*
X55915846Y-96996932D01*
X55962839Y-96769957D01*
X56003863Y-96622186D01*
X56047817Y-96536729D01*
X56103598Y-96496697D01*
X56180108Y-96485201D01*
X56286243Y-96485353D01*
G37*
G36*
X59867888Y-96487457D02*
G01*
X59947160Y-96504337D01*
X59993250Y-96551903D01*
X60008089Y-96646053D01*
X59993609Y-96802687D01*
X59951744Y-97037703D01*
X59884425Y-97367000D01*
X59869413Y-97439148D01*
X59814219Y-97705369D01*
X59768745Y-97926495D01*
X59737537Y-98080293D01*
X59725140Y-98144530D01*
X59725095Y-98145022D01*
X59777897Y-98151908D01*
X59918029Y-98157007D01*
X60117370Y-98159387D01*
X60159403Y-98159454D01*
X60410753Y-98167029D01*
X60562376Y-98196894D01*
X60629421Y-98259760D01*
X60627032Y-98366336D01*
X60594331Y-98466999D01*
X60535676Y-98621272D01*
X59844927Y-98621272D01*
X59574161Y-98617233D01*
X59347693Y-98606235D01*
X59189247Y-98589959D01*
X59122556Y-98570107D01*
X59123226Y-98499446D01*
X59144651Y-98335068D01*
X59183717Y-98096213D01*
X59237309Y-97802124D01*
X59292331Y-97521242D01*
X59357423Y-97197753D01*
X59413753Y-96915842D01*
X59457657Y-96694011D01*
X59485471Y-96550758D01*
X59493728Y-96504453D01*
X59545376Y-96493063D01*
X59676039Y-96486235D01*
X59753500Y-96485363D01*
X59867888Y-96487457D01*
G37*
G36*
X62421363Y-96460267D02*
G01*
X62686396Y-96562962D01*
X62755126Y-96610979D01*
X62907376Y-96730740D01*
X62748646Y-96896419D01*
X62640393Y-96999539D01*
X62564995Y-97026792D01*
X62479957Y-96989789D01*
X62458170Y-96975776D01*
X62240382Y-96895705D01*
X62010250Y-96915458D01*
X61793464Y-97025849D01*
X61615718Y-97217695D01*
X61572476Y-97292435D01*
X61471981Y-97574852D01*
X61468461Y-97827188D01*
X61561416Y-98034145D01*
X61598149Y-98075487D01*
X61776008Y-98192887D01*
X61976058Y-98202953D01*
X62170213Y-98130235D01*
X62329957Y-98059474D01*
X62432685Y-98057389D01*
X62515290Y-98125493D01*
X62530641Y-98145022D01*
X62599596Y-98269162D01*
X62575122Y-98364462D01*
X62448788Y-98461266D01*
X62441582Y-98465548D01*
X62186422Y-98570006D01*
X61884514Y-98626807D01*
X61598656Y-98624751D01*
X61571910Y-98620628D01*
X61280708Y-98520071D01*
X61064560Y-98338840D01*
X60929798Y-98089035D01*
X60882754Y-97782753D01*
X60929758Y-97432096D01*
X60936619Y-97406613D01*
X61068611Y-97107901D01*
X61274232Y-96853577D01*
X61532900Y-96652646D01*
X61824033Y-96514114D01*
X62127048Y-96446986D01*
X62421363Y-96460267D01*
G37*
G36*
X61820514Y-98972743D02*
G01*
X61663741Y-99195630D01*
X61441079Y-99453983D01*
X61181642Y-99717657D01*
X60914542Y-99956512D01*
X60738939Y-100092560D01*
X60199108Y-100425918D01*
X59603564Y-100702438D01*
X58975405Y-100916317D01*
X58337728Y-101061753D01*
X57713631Y-101132946D01*
X57126211Y-101124092D01*
X56809410Y-101079604D01*
X56208718Y-100920489D01*
X55702781Y-100695757D01*
X55291097Y-100405024D01*
X54973159Y-100047908D01*
X54748466Y-99624023D01*
X54694773Y-99469683D01*
X54639010Y-99272977D01*
X54605561Y-99123113D01*
X54601050Y-99050225D01*
X54602205Y-99048552D01*
X54644319Y-99077095D01*
X54721554Y-99181008D01*
X54779735Y-99274611D01*
X55026038Y-99599526D01*
X55359685Y-99875281D01*
X55738721Y-100087393D01*
X55888351Y-100156393D01*
X56014395Y-100204886D01*
X56141875Y-100236447D01*
X56295810Y-100254651D01*
X56501219Y-100263074D01*
X56783124Y-100265293D01*
X56982591Y-100265159D01*
X57444886Y-100256846D01*
X57823805Y-100229237D01*
X58150706Y-100175941D01*
X58456944Y-100090566D01*
X58773876Y-99966721D01*
X59031910Y-99847429D01*
X59337921Y-99676236D01*
X59622262Y-99461911D01*
X59884522Y-99216275D01*
X60304179Y-98794454D01*
X61114490Y-98794454D01*
X61924800Y-98794454D01*
X61820514Y-98972743D01*
G37*
G36*
X68402284Y-96256334D02*
G01*
X68554524Y-96265338D01*
X68635528Y-96286515D01*
X68667396Y-96324913D01*
X68672364Y-96372237D01*
X68659102Y-96454256D01*
X68622702Y-96626981D01*
X68568242Y-96869166D01*
X68500800Y-97159565D01*
X68425454Y-97476929D01*
X68347282Y-97800013D01*
X68271363Y-98107570D01*
X68202774Y-98378352D01*
X68146594Y-98591113D01*
X68117585Y-98693431D01*
X68113999Y-98734600D01*
X68143828Y-98762819D01*
X68224399Y-98780497D01*
X68373035Y-98790048D01*
X68607062Y-98793881D01*
X68843468Y-98794454D01*
X69175933Y-98795946D01*
X69407954Y-98806977D01*
X69554540Y-98837382D01*
X69630701Y-98896994D01*
X69651445Y-98995649D01*
X69631784Y-99143181D01*
X69599938Y-99290090D01*
X69529993Y-99602636D01*
X68204594Y-99602636D01*
X67767056Y-99601489D01*
X67432095Y-99597537D01*
X67186851Y-99590013D01*
X67018462Y-99578149D01*
X66914070Y-99561178D01*
X66860814Y-99538333D01*
X66848142Y-99521714D01*
X66855592Y-99452606D01*
X66887496Y-99289088D01*
X66939660Y-99048596D01*
X67007889Y-98748563D01*
X67087990Y-98406423D01*
X67175768Y-98039612D01*
X67267030Y-97665563D01*
X67357581Y-97301710D01*
X67443227Y-96965489D01*
X67519775Y-96674334D01*
X67583029Y-96445678D01*
X67609827Y-96355477D01*
X67640514Y-96306462D01*
X67710781Y-96276133D01*
X67843354Y-96260293D01*
X68060958Y-96254743D01*
X68156709Y-96254454D01*
X68402284Y-96256334D01*
G37*
G36*
X66510122Y-96268574D02*
G01*
X66685147Y-96278821D01*
X66771369Y-96294232D01*
X66774998Y-96296724D01*
X66778242Y-96367844D01*
X66753232Y-96530308D01*
X66704980Y-96764903D01*
X66638500Y-97052415D01*
X66558804Y-97373631D01*
X66470907Y-97709338D01*
X66379822Y-98040323D01*
X66290562Y-98347371D01*
X66208140Y-98611269D01*
X66137570Y-98812805D01*
X66089996Y-98921943D01*
X65865375Y-99219415D01*
X65555269Y-99444075D01*
X65194751Y-99582591D01*
X64986124Y-99619887D01*
X64720470Y-99643998D01*
X64432272Y-99654481D01*
X64156012Y-99650891D01*
X63926171Y-99632782D01*
X63779978Y-99600837D01*
X63698652Y-99560101D01*
X63660738Y-99502639D01*
X63662094Y-99399664D01*
X63698576Y-99222387D01*
X63715381Y-99151949D01*
X63782360Y-98926901D01*
X63857912Y-98802642D01*
X63956611Y-98764664D01*
X64076806Y-98792082D01*
X64283102Y-98839382D01*
X64520990Y-98849459D01*
X64743513Y-98824009D01*
X64903713Y-98764727D01*
X64907576Y-98762086D01*
X65009805Y-98670811D01*
X65097432Y-98541519D01*
X65179092Y-98354808D01*
X65263419Y-98091277D01*
X65349646Y-97768774D01*
X65425937Y-97463763D01*
X65472463Y-97253149D01*
X65487983Y-97119453D01*
X65471254Y-97045198D01*
X65421031Y-97012905D01*
X65336072Y-97005093D01*
X65295319Y-97004909D01*
X65177986Y-96998697D01*
X65116138Y-96964785D01*
X65103156Y-96880256D01*
X65132417Y-96722196D01*
X65170233Y-96571954D01*
X65244966Y-96283318D01*
X65987049Y-96267088D01*
X66269642Y-96264371D01*
X66510122Y-96268574D01*
G37*
G36*
X72943584Y-96237023D02*
G01*
X73278384Y-96284886D01*
X73492591Y-96347173D01*
X73661423Y-96422357D01*
X73745743Y-96488106D01*
X73771127Y-96569780D01*
X73769886Y-96622109D01*
X73741314Y-96818786D01*
X73688671Y-97026671D01*
X73622832Y-97214894D01*
X73554673Y-97352586D01*
X73495069Y-97408875D01*
X73492666Y-97409000D01*
X73401619Y-97377498D01*
X73256487Y-97296514D01*
X73147006Y-97224064D01*
X72830110Y-97065754D01*
X72484335Y-97004696D01*
X72139333Y-97043028D01*
X71905902Y-97134523D01*
X71641598Y-97338687D01*
X71454435Y-97618496D01*
X71353128Y-97956604D01*
X71339980Y-98261197D01*
X71372729Y-98521125D01*
X71443586Y-98690380D01*
X71569275Y-98791746D01*
X71766517Y-98848006D01*
X71771285Y-98848824D01*
X72142776Y-98855626D01*
X72543641Y-98753945D01*
X72976464Y-98543070D01*
X73053961Y-98495965D01*
X73163876Y-98452166D01*
X73240271Y-98490179D01*
X73270000Y-98555988D01*
X73265502Y-98676160D01*
X73224827Y-98873391D01*
X73198416Y-98977321D01*
X73088500Y-99396401D01*
X72684410Y-99525473D01*
X72343705Y-99605121D01*
X71960272Y-99647897D01*
X71573567Y-99652951D01*
X71223047Y-99619434D01*
X70988671Y-99561999D01*
X70666951Y-99392236D01*
X70422294Y-99144424D01*
X70259490Y-98830549D01*
X70183332Y-98462600D01*
X70198611Y-98052565D01*
X70264959Y-97751409D01*
X70455380Y-97292510D01*
X70735926Y-96905055D01*
X71103415Y-96592487D01*
X71549922Y-96360126D01*
X71831493Y-96282667D01*
X72182631Y-96236164D01*
X72565831Y-96220866D01*
X72943584Y-96237023D01*
G37*
G36*
X75917966Y-96260831D02*
G01*
X76289954Y-96282072D01*
X76578980Y-96321339D01*
X76800993Y-96381797D01*
X76971940Y-96466609D01*
X77107771Y-96578938D01*
X77113637Y-96585029D01*
X77296979Y-96835041D01*
X77376998Y-97103535D01*
X77358585Y-97412302D01*
X77327984Y-97540464D01*
X77186637Y-97840604D01*
X76948576Y-98098160D01*
X76626968Y-98305989D01*
X76234978Y-98456950D01*
X75785773Y-98543902D01*
X75443112Y-98562860D01*
X75026814Y-98563545D01*
X74963437Y-98808886D01*
X74905483Y-99030066D01*
X74842236Y-99267067D01*
X74829541Y-99314000D01*
X74759022Y-99573772D01*
X74254749Y-99590465D01*
X73997431Y-99594626D01*
X73835107Y-99584885D01*
X73747887Y-99558837D01*
X73719214Y-99525690D01*
X73718324Y-99477534D01*
X73733967Y-99373309D01*
X73767800Y-99206109D01*
X73821478Y-98969026D01*
X73896656Y-98655154D01*
X73994989Y-98257586D01*
X74118133Y-97769413D01*
X74133202Y-97710424D01*
X75253536Y-97710424D01*
X75283965Y-97786043D01*
X75371605Y-97808460D01*
X75525036Y-97796971D01*
X75540257Y-97795183D01*
X75734079Y-97762592D01*
X75895388Y-97719090D01*
X75944348Y-97698520D01*
X76063635Y-97603091D01*
X76156235Y-97491195D01*
X76216311Y-97324135D01*
X76175358Y-97181747D01*
X76046993Y-97075081D01*
X75844834Y-97015187D01*
X75582499Y-97013113D01*
X75568897Y-97014626D01*
X75466824Y-97040314D01*
X75401791Y-97107789D01*
X75350124Y-97247547D01*
X75329984Y-97322409D01*
X75271736Y-97562311D01*
X75253536Y-97710424D01*
X74133202Y-97710424D01*
X74267744Y-97183730D01*
X74445476Y-96493629D01*
X74451340Y-96470931D01*
X74507269Y-96254454D01*
X75447066Y-96254454D01*
X75917966Y-96260831D01*
G37*
G36*
X79842591Y-96228117D02*
G01*
X80173736Y-96233502D01*
X80418951Y-96249223D01*
X80607563Y-96278833D01*
X80768896Y-96325882D01*
X80823955Y-96346970D01*
X80975637Y-96415247D01*
X81066201Y-96487764D01*
X81101410Y-96588715D01*
X81087031Y-96742294D01*
X81028828Y-96972695D01*
X80998342Y-97078812D01*
X80929277Y-97279811D01*
X80854215Y-97381652D01*
X80751062Y-97390402D01*
X80597719Y-97312126D01*
X80469678Y-97223936D01*
X80288311Y-97110702D01*
X80110334Y-97048164D01*
X79880417Y-97017944D01*
X79841581Y-97015287D01*
X79483855Y-97033835D01*
X79193912Y-97143391D01*
X78962023Y-97349396D01*
X78809081Y-97592679D01*
X78697635Y-97890428D01*
X78651971Y-98186128D01*
X78672292Y-98451982D01*
X78758802Y-98660194D01*
X78800876Y-98710487D01*
X78898488Y-98790600D01*
X79012662Y-98833677D01*
X79181964Y-98850377D01*
X79313472Y-98852181D01*
X79543865Y-98841471D01*
X79739526Y-98800235D01*
X79953323Y-98714818D01*
X80075439Y-98655359D01*
X80336646Y-98538273D01*
X80511650Y-98494076D01*
X80603464Y-98522376D01*
X80619881Y-98584153D01*
X80604129Y-98670431D01*
X80564891Y-98831945D01*
X80513113Y-99024807D01*
X80408372Y-99399478D01*
X80010027Y-99527011D01*
X79676123Y-99605048D01*
X79297977Y-99647389D01*
X78915102Y-99653190D01*
X78567014Y-99621607D01*
X78323207Y-99563057D01*
X78034508Y-99412619D01*
X77788599Y-99193245D01*
X77614333Y-98934069D01*
X77561934Y-98794454D01*
X77527950Y-98590603D01*
X77513850Y-98336389D01*
X77518721Y-98154021D01*
X77607351Y-97685019D01*
X77799467Y-97258834D01*
X78087810Y-96885648D01*
X78465120Y-96575642D01*
X78763050Y-96408840D01*
X78934480Y-96330649D01*
X79076752Y-96278682D01*
X79221043Y-96247720D01*
X79398532Y-96232544D01*
X79640395Y-96227935D01*
X79842591Y-96228117D01*
G37*
G36*
X82561964Y-96259745D02*
G01*
X82858841Y-96264211D01*
X83235538Y-96272481D01*
X83517169Y-96282780D01*
X83724125Y-96297450D01*
X83876796Y-96318836D01*
X83995569Y-96349279D01*
X84100836Y-96391125D01*
X84144534Y-96411978D01*
X84398261Y-96586657D01*
X84550217Y-96813507D01*
X84604800Y-97099333D01*
X84605091Y-97124734D01*
X84593786Y-97278264D01*
X84545576Y-97398691D01*
X84439017Y-97527781D01*
X84356181Y-97609561D01*
X84107272Y-97848058D01*
X84244167Y-97951319D01*
X84409415Y-98138633D01*
X84480528Y-98365345D01*
X84463708Y-98613744D01*
X84365161Y-98866117D01*
X84191089Y-99104752D01*
X83947697Y-99311936D01*
X83724268Y-99435638D01*
X83612517Y-99482192D01*
X83501213Y-99517264D01*
X83371249Y-99542884D01*
X83203518Y-99561083D01*
X82978912Y-99573890D01*
X82678324Y-99583336D01*
X82282648Y-99591451D01*
X82252861Y-99591987D01*
X81842380Y-99597920D01*
X81533964Y-99598634D01*
X81314314Y-99593504D01*
X81170132Y-99581903D01*
X81088120Y-99563206D01*
X81054978Y-99536788D01*
X81054498Y-99535606D01*
X81060681Y-99461536D01*
X81092825Y-99290777D01*
X81147544Y-99038299D01*
X81190636Y-98852181D01*
X82286827Y-98852181D01*
X82594482Y-98852092D01*
X82837348Y-98829837D01*
X83055458Y-98772362D01*
X83104182Y-98751069D01*
X83243275Y-98662138D01*
X83299658Y-98558838D01*
X83306228Y-98479557D01*
X83284270Y-98363139D01*
X83206267Y-98287382D01*
X83054022Y-98244009D01*
X82809340Y-98224746D01*
X82741958Y-98222936D01*
X82581922Y-98227284D01*
X82479138Y-98263764D01*
X82412133Y-98355262D01*
X82359435Y-98524668D01*
X82327632Y-98664568D01*
X82286827Y-98852181D01*
X81190636Y-98852181D01*
X81221454Y-98719077D01*
X81311169Y-98348081D01*
X81413305Y-97940286D01*
X81429569Y-97876551D01*
X81528448Y-97489200D01*
X82642686Y-97489200D01*
X82692651Y-97513216D01*
X82819076Y-97514778D01*
X82986067Y-97498007D01*
X83157728Y-97467025D01*
X83298167Y-97425953D01*
X83333439Y-97409884D01*
X83429158Y-97303082D01*
X83450546Y-97211656D01*
X83417594Y-97104509D01*
X83308868Y-97039220D01*
X83109558Y-97009348D01*
X82977009Y-97005697D01*
X82834598Y-97015579D01*
X82759482Y-97068629D01*
X82709751Y-97197852D01*
X82703127Y-97221386D01*
X82664168Y-97373653D01*
X82643616Y-97477318D01*
X82642686Y-97489200D01*
X81528448Y-97489200D01*
X81533996Y-97467466D01*
X81628425Y-97095928D01*
X81709237Y-96776307D01*
X81772812Y-96522974D01*
X81815531Y-96350299D01*
X81833775Y-96272653D01*
X81834182Y-96269944D01*
X81888837Y-96262977D01*
X82040576Y-96258886D01*
X82271064Y-96257774D01*
X82561964Y-96259745D01*
G37*
G36*
X58446138Y-96786543D02*
G01*
X58612410Y-96848282D01*
X58815267Y-97019582D01*
X58941664Y-97257206D01*
X58974182Y-97466160D01*
X58936038Y-97673931D01*
X58838393Y-97906006D01*
X58706423Y-98108211D01*
X58646280Y-98171684D01*
X58481810Y-98284564D01*
X58280153Y-98373131D01*
X58072354Y-98429958D01*
X57889460Y-98447617D01*
X57762514Y-98418681D01*
X57732949Y-98390207D01*
X57656281Y-98363726D01*
X57589019Y-98390207D01*
X57403205Y-98443431D01*
X57209716Y-98429659D01*
X57059887Y-98353424D01*
X57049266Y-98342522D01*
X56957142Y-98164058D01*
X56954903Y-98001720D01*
X57300091Y-98001720D01*
X57335483Y-98154763D01*
X57430103Y-98219746D01*
X57566613Y-98195026D01*
X57727679Y-98078957D01*
X57760619Y-98045382D01*
X57903151Y-97843124D01*
X57956281Y-97648098D01*
X57923166Y-97501094D01*
X57828004Y-97420046D01*
X57701680Y-97425385D01*
X57564994Y-97500397D01*
X57438746Y-97628371D01*
X57343738Y-97792593D01*
X57300771Y-97976350D01*
X57300091Y-98001720D01*
X56954903Y-98001720D01*
X56954268Y-97955643D01*
X57026605Y-97738914D01*
X57160116Y-97535509D01*
X57340762Y-97367064D01*
X57554505Y-97255216D01*
X57776830Y-97221139D01*
X58007607Y-97227161D01*
X58244444Y-97230402D01*
X58266459Y-97230501D01*
X58379280Y-97230604D01*
X58448427Y-97242270D01*
X58473684Y-97283799D01*
X58454835Y-97373493D01*
X58391665Y-97529653D01*
X58283958Y-97770579D01*
X58259447Y-97825200D01*
X58190495Y-98000993D01*
X58157129Y-98132514D01*
X58164299Y-98187266D01*
X58245583Y-98176425D01*
X58362872Y-98092823D01*
X58491616Y-97961996D01*
X58607263Y-97809482D01*
X58685259Y-97660817D01*
X58693186Y-97637171D01*
X58716569Y-97409017D01*
X58634713Y-97219076D01*
X58444002Y-97060189D01*
X58385614Y-97027931D01*
X58166149Y-96966156D01*
X57888358Y-96961685D01*
X57592189Y-97011228D01*
X57317595Y-97111500D01*
X57307365Y-97116653D01*
X57062058Y-97297091D01*
X56868804Y-97545916D01*
X56749892Y-97828288D01*
X56722819Y-98030233D01*
X56754087Y-98291700D01*
X56854360Y-98482768D01*
X57033340Y-98610510D01*
X57300730Y-98681999D01*
X57647467Y-98704259D01*
X57904150Y-98697520D01*
X58098599Y-98666797D01*
X58283342Y-98600733D01*
X58412474Y-98538853D01*
X58587746Y-98457907D01*
X58720618Y-98410879D01*
X58779389Y-98407237D01*
X58797207Y-98489257D01*
X58722488Y-98586803D01*
X58575159Y-98689283D01*
X58375146Y-98786105D01*
X58142374Y-98866677D01*
X57896769Y-98920408D01*
X57790773Y-98932737D01*
X57549441Y-98939304D01*
X57308981Y-98925567D01*
X57191579Y-98908210D01*
X56868181Y-98797251D01*
X56633113Y-98621067D01*
X56492268Y-98386669D01*
X56451536Y-98101067D01*
X56456438Y-98033516D01*
X56551620Y-97647335D01*
X56748412Y-97315372D01*
X57047235Y-97037054D01*
X57300091Y-96882711D01*
X57550219Y-96794370D01*
X57852629Y-96748160D01*
X58165282Y-96745183D01*
X58446138Y-96786543D01*
G37*
%TO.C,J3*%
X87574000Y-147110000D02*
X87574000Y-148360000D01*
X87864000Y-147400000D02*
X87864000Y-153370000D01*
X87864000Y-153370000D02*
X100484000Y-153370000D01*
X87874000Y-147410000D02*
X87874000Y-148160000D01*
X87874000Y-148160000D02*
X89674000Y-148160000D01*
X87874000Y-149660000D02*
X88624000Y-149660000D01*
X88624000Y-149660000D02*
X88624000Y-152610000D01*
X88624000Y-152610000D02*
X94174000Y-152610000D01*
X88824000Y-147110000D02*
X87574000Y-147110000D01*
X89674000Y-147410000D02*
X87874000Y-147410000D01*
X89674000Y-148160000D02*
X89674000Y-147410000D01*
X91174000Y-147410000D02*
X91174000Y-148160000D01*
X91174000Y-148160000D02*
X97174000Y-148160000D01*
X97174000Y-147410000D02*
X91174000Y-147410000D01*
X97174000Y-148160000D02*
X97174000Y-147410000D01*
X98674000Y-147410000D02*
X98674000Y-148160000D01*
X98674000Y-148160000D02*
X100474000Y-148160000D01*
X99724000Y-149660000D02*
X99724000Y-152610000D01*
X99724000Y-152610000D02*
X94174000Y-152610000D01*
X100474000Y-147410000D02*
X98674000Y-147410000D01*
X100474000Y-148160000D02*
X100474000Y-147410000D01*
X100474000Y-149660000D02*
X99724000Y-149660000D01*
X100484000Y-147400000D02*
X87864000Y-147400000D01*
X100484000Y-153370000D02*
X100484000Y-147400000D01*
%TO.C,G\u002A\u002A\u002A*%
G36*
X103349783Y-99648456D02*
G01*
X103405624Y-99655451D01*
X103454874Y-99669928D01*
X103497057Y-99688082D01*
X103609791Y-99755870D01*
X103699070Y-99843555D01*
X103766318Y-99950755D01*
X103792457Y-100007477D01*
X103807877Y-100054460D01*
X103815321Y-100104435D01*
X103817529Y-100170134D01*
X103817585Y-100188908D01*
X103815782Y-100263726D01*
X103808841Y-100319541D01*
X103794467Y-100368676D01*
X103776140Y-100411312D01*
X103706515Y-100525704D01*
X103616949Y-100617107D01*
X103510205Y-100683637D01*
X103389048Y-100723414D01*
X103302033Y-100734121D01*
X103219986Y-100733497D01*
X103148599Y-100724625D01*
X103122207Y-100717828D01*
X102997727Y-100662387D01*
X102894850Y-100584163D01*
X102812759Y-100482435D01*
X102773293Y-100410142D01*
X102751578Y-100357865D01*
X102739044Y-100308251D01*
X102733425Y-100249045D01*
X102732384Y-100188908D01*
X102733771Y-100117761D01*
X102739761Y-100065283D01*
X102753094Y-100018740D01*
X102776512Y-99965401D01*
X102783650Y-99950755D01*
X102853075Y-99840841D01*
X102942960Y-99753746D01*
X103052911Y-99688082D01*
X103105668Y-99666096D01*
X103155287Y-99653408D01*
X103214135Y-99647712D01*
X103274984Y-99646638D01*
X103349783Y-99648456D01*
G37*
G36*
X99298471Y-92596660D02*
G01*
X99321806Y-92637176D01*
X99359008Y-92702210D01*
X99409264Y-92790331D01*
X99471766Y-92900109D01*
X99545702Y-93030114D01*
X99630263Y-93178913D01*
X99724637Y-93345078D01*
X99828015Y-93527178D01*
X99939585Y-93723782D01*
X100058539Y-93933460D01*
X100184064Y-94154782D01*
X100315351Y-94386316D01*
X100451589Y-94626632D01*
X100591967Y-94874301D01*
X100735677Y-95127891D01*
X100881906Y-95385971D01*
X101029845Y-95647113D01*
X101178683Y-95909884D01*
X101327609Y-96172855D01*
X101475814Y-96434595D01*
X101622487Y-96693673D01*
X101766817Y-96948660D01*
X101907995Y-97198124D01*
X102045208Y-97440636D01*
X102177648Y-97674764D01*
X102304504Y-97899078D01*
X102424965Y-98112148D01*
X102538222Y-98312544D01*
X102643462Y-98498834D01*
X102739877Y-98669588D01*
X102826655Y-98823377D01*
X102902986Y-98958768D01*
X102968061Y-99074333D01*
X102986314Y-99106785D01*
X102975632Y-99117925D01*
X102942193Y-99141066D01*
X102890829Y-99173103D01*
X102826374Y-99210932D01*
X102807636Y-99221577D01*
X102731304Y-99263931D01*
X102677525Y-99291675D01*
X102641987Y-99306555D01*
X102620374Y-99310318D01*
X102608375Y-99304710D01*
X102606913Y-99302856D01*
X102597578Y-99286934D01*
X102573562Y-99245034D01*
X102535661Y-99178559D01*
X102484671Y-99088914D01*
X102421389Y-98977504D01*
X102346610Y-98845733D01*
X102261131Y-98695006D01*
X102165747Y-98526727D01*
X102061256Y-98342302D01*
X101948452Y-98143136D01*
X101828133Y-97930631D01*
X101701094Y-97706194D01*
X101568132Y-97471230D01*
X101430042Y-97227142D01*
X101287621Y-96975335D01*
X101238266Y-96888059D01*
X101094735Y-96634315D01*
X100955344Y-96388043D01*
X100820883Y-96150631D01*
X100692142Y-95923467D01*
X100569908Y-95707937D01*
X100454971Y-95505430D01*
X100348121Y-95317332D01*
X100250145Y-95145031D01*
X100161834Y-94989914D01*
X100083976Y-94853369D01*
X100017361Y-94736783D01*
X99962777Y-94641544D01*
X99921013Y-94569038D01*
X99892859Y-94520653D01*
X99879104Y-94497777D01*
X99877833Y-94496053D01*
X99869525Y-94509413D01*
X99846272Y-94548557D01*
X99808903Y-94612055D01*
X99758248Y-94698478D01*
X99695138Y-94806396D01*
X99620403Y-94934381D01*
X99534873Y-95081002D01*
X99439379Y-95244831D01*
X99334749Y-95424438D01*
X99221816Y-95618394D01*
X99101408Y-95825269D01*
X98974356Y-96043634D01*
X98841491Y-96272060D01*
X98703641Y-96509118D01*
X98561638Y-96753378D01*
X98416312Y-97003410D01*
X98268493Y-97257786D01*
X98119011Y-97515076D01*
X97968696Y-97773850D01*
X97818379Y-98032680D01*
X97668889Y-98290136D01*
X97521057Y-98544789D01*
X97375713Y-98795209D01*
X97233687Y-99039967D01*
X97095810Y-99277633D01*
X96962911Y-99506780D01*
X96835821Y-99725976D01*
X96715370Y-99933792D01*
X96602388Y-100128800D01*
X96497705Y-100309570D01*
X96402152Y-100474673D01*
X96316559Y-100622679D01*
X96241755Y-100752158D01*
X96178571Y-100861683D01*
X96127838Y-100949823D01*
X96090385Y-101015148D01*
X96067042Y-101056230D01*
X96058658Y-101071588D01*
X96073695Y-101072973D01*
X96119183Y-101074307D01*
X96194119Y-101075585D01*
X96297499Y-101076804D01*
X96428319Y-101077961D01*
X96585577Y-101079052D01*
X96768267Y-101080074D01*
X96975387Y-101081022D01*
X97205932Y-101081894D01*
X97458899Y-101082685D01*
X97733285Y-101083393D01*
X98028086Y-101084013D01*
X98342298Y-101084543D01*
X98674917Y-101084978D01*
X99024940Y-101085315D01*
X99391363Y-101085551D01*
X99773183Y-101085682D01*
X100049525Y-101085709D01*
X104045634Y-101085709D01*
X104045634Y-101305895D01*
X104045634Y-101526080D01*
X99060598Y-101526080D01*
X94075562Y-101526080D01*
X94220444Y-101276276D01*
X94239969Y-101242607D01*
X94274625Y-101182842D01*
X94323764Y-101098097D01*
X94330947Y-101085709D01*
X94826181Y-101085709D01*
X95224855Y-101084467D01*
X95331817Y-101083836D01*
X95426419Y-101082702D01*
X95504749Y-101081159D01*
X95562897Y-101079303D01*
X95596950Y-101077229D01*
X95603870Y-101075293D01*
X95585821Y-101054533D01*
X95584210Y-101045071D01*
X95591999Y-101029684D01*
X95614926Y-100988244D01*
X95652328Y-100921898D01*
X95703545Y-100831794D01*
X95767916Y-100719079D01*
X95844780Y-100584901D01*
X95933475Y-100430406D01*
X96033340Y-100256741D01*
X96143714Y-100065055D01*
X96263936Y-99856494D01*
X96393345Y-99632206D01*
X96531280Y-99393337D01*
X96677079Y-99141035D01*
X96830081Y-98876447D01*
X96989625Y-98600721D01*
X97155050Y-98315003D01*
X97325695Y-98020441D01*
X97500898Y-97718182D01*
X97605201Y-97538320D01*
X97782704Y-97232251D01*
X97956037Y-96933310D01*
X98124542Y-96642638D01*
X98287557Y-96361377D01*
X98444421Y-96090668D01*
X98594475Y-95831653D01*
X98737057Y-95585473D01*
X98871507Y-95353269D01*
X98997165Y-95136182D01*
X99113371Y-94935355D01*
X99219463Y-94751928D01*
X99314782Y-94587043D01*
X99398666Y-94441842D01*
X99470455Y-94317465D01*
X99529489Y-94215053D01*
X99575108Y-94135750D01*
X99606650Y-94080695D01*
X99623456Y-94051029D01*
X99626192Y-94045898D01*
X99618679Y-94026853D01*
X99597963Y-93986750D01*
X99566776Y-93930199D01*
X99527851Y-93861808D01*
X99483920Y-93786187D01*
X99437717Y-93707946D01*
X99391973Y-93631693D01*
X99349421Y-93562037D01*
X99312794Y-93503589D01*
X99284825Y-93460958D01*
X99268246Y-93438752D01*
X99265067Y-93436766D01*
X99256292Y-93451319D01*
X99232386Y-93491988D01*
X99193988Y-93557674D01*
X99141736Y-93647275D01*
X99076270Y-93759692D01*
X98998229Y-93893825D01*
X98908251Y-94048572D01*
X98806976Y-94222835D01*
X98695041Y-94415513D01*
X98573087Y-94625505D01*
X98441752Y-94851712D01*
X98301675Y-95093033D01*
X98153495Y-95348369D01*
X97997850Y-95616618D01*
X97835380Y-95896682D01*
X97666724Y-96187458D01*
X97492520Y-96487849D01*
X97313408Y-96796752D01*
X97130026Y-97113069D01*
X97069935Y-97216731D01*
X96885047Y-97535683D01*
X96704103Y-97847825D01*
X96527749Y-98152042D01*
X96356632Y-98447220D01*
X96191398Y-98732242D01*
X96032694Y-99005996D01*
X95881166Y-99267365D01*
X95737460Y-99515235D01*
X95602223Y-99748491D01*
X95476100Y-99966018D01*
X95359739Y-100166702D01*
X95253786Y-100349428D01*
X95158887Y-100513080D01*
X95075688Y-100656545D01*
X95004836Y-100778707D01*
X94946978Y-100878452D01*
X94902759Y-100954664D01*
X94872826Y-101006229D01*
X94857825Y-101032033D01*
X94856326Y-101034594D01*
X94826181Y-101085709D01*
X94330947Y-101085709D01*
X94386741Y-100989487D01*
X94462908Y-100858129D01*
X94551618Y-100705137D01*
X94652224Y-100531629D01*
X94764080Y-100338719D01*
X94886537Y-100127523D01*
X95018950Y-99899158D01*
X95160671Y-99654739D01*
X95311054Y-99395381D01*
X95469451Y-99122201D01*
X95635215Y-98836313D01*
X95807700Y-98538835D01*
X95986258Y-98230882D01*
X96170243Y-97913569D01*
X96359007Y-97588013D01*
X96551904Y-97255329D01*
X96748287Y-96916632D01*
X96818823Y-96794980D01*
X97066928Y-96367160D01*
X97299687Y-95965974D01*
X97517462Y-95590806D01*
X97720614Y-95241037D01*
X97909506Y-94916051D01*
X98084500Y-94615229D01*
X98245958Y-94337956D01*
X98394242Y-94083612D01*
X98529714Y-93851582D01*
X98652737Y-93641247D01*
X98763673Y-93451990D01*
X98862883Y-93283194D01*
X98950730Y-93134242D01*
X99027575Y-93004516D01*
X99093782Y-92893398D01*
X99149711Y-92800272D01*
X99195726Y-92724519D01*
X99232188Y-92665523D01*
X99259459Y-92622667D01*
X99277902Y-92595332D01*
X99287878Y-92582902D01*
X99289812Y-92582091D01*
X99298471Y-92596660D01*
G37*
%TD*%
%LPC*%
D13*
%TO.C,J4*%
X75438000Y-151638000D03*
D14*
X75438000Y-149098000D03*
X77978000Y-151638000D03*
X77978000Y-149098000D03*
X80518000Y-151638000D03*
X80518000Y-149098000D03*
X83058000Y-151638000D03*
X83058000Y-149098000D03*
%TD*%
D15*
%TO.C,REF\u002A\u002A*%
X115400500Y-150000000D03*
%TD*%
%TO.C,REF\u002A\u002A*%
X55400500Y-150000000D03*
%TD*%
%TO.C,REF\u002A\u002A*%
X120400500Y-95000000D03*
%TD*%
D13*
%TO.C,J1*%
X65278000Y-154676000D03*
D14*
X65278000Y-152136000D03*
X65278000Y-149596000D03*
X65278000Y-147056000D03*
%TD*%
D15*
%TO.C,REF\u002A\u002A*%
X50400500Y-95000000D03*
%TD*%
D16*
%TO.C,J3*%
X90424000Y-149860000D03*
D17*
X92924000Y-149860000D03*
X95424000Y-149860000D03*
X97924000Y-149860000D03*
%TD*%
D18*
%TO.C,U2*%
X81590500Y-107950000D03*
X79050500Y-107950000D03*
X81590500Y-112050000D03*
X79050500Y-112050000D03*
%TD*%
%TO.C,U15*%
X106990500Y-107950000D03*
X104450500Y-107950000D03*
X106990500Y-112050000D03*
X104450500Y-112050000D03*
%TD*%
%TO.C,U14*%
X101910500Y-107950000D03*
X99370500Y-107950000D03*
X101910500Y-112050000D03*
X99370500Y-112050000D03*
%TD*%
%TO.C,U7*%
X56190500Y-107950000D03*
X53650500Y-107950000D03*
X56190500Y-112050000D03*
X53650500Y-112050000D03*
%TD*%
%TO.C,U4*%
X71430500Y-107950000D03*
X68890500Y-107950000D03*
X71430500Y-112050000D03*
X68890500Y-112050000D03*
%TD*%
%TO.C,U5*%
X66350500Y-107950000D03*
X63810500Y-107950000D03*
X66350500Y-112050000D03*
X63810500Y-112050000D03*
%TD*%
%TO.C,U16*%
X112070500Y-107950000D03*
X109530500Y-107950000D03*
X112070500Y-112050000D03*
X109530500Y-112050000D03*
%TD*%
%TO.C,U17*%
X117150500Y-107950000D03*
X114610500Y-107950000D03*
X117150500Y-112050000D03*
X114610500Y-112050000D03*
%TD*%
%TO.C,U8*%
X51110500Y-107950000D03*
X48570500Y-107950000D03*
X51110500Y-112050000D03*
X48570500Y-112050000D03*
%TD*%
%TO.C,U12*%
X91750500Y-107950000D03*
X89210500Y-107950000D03*
X91750500Y-112050000D03*
X89210500Y-112050000D03*
%TD*%
%TO.C,U3*%
X76510500Y-107950000D03*
X73970500Y-107950000D03*
X76510500Y-112050000D03*
X73970500Y-112050000D03*
%TD*%
%TO.C,U9*%
X86670500Y-107950000D03*
X84130500Y-107950000D03*
X86670500Y-112050000D03*
X84130500Y-112050000D03*
%TD*%
%TO.C,U18*%
X122230500Y-107950000D03*
X119690500Y-107950000D03*
X122230500Y-112050000D03*
X119690500Y-112050000D03*
%TD*%
%TO.C,U6*%
X61270500Y-107950000D03*
X58730500Y-107950000D03*
X61270500Y-112050000D03*
X58730500Y-112050000D03*
%TD*%
%TO.C,U10*%
X86670500Y-87950000D03*
X84130500Y-87950000D03*
X86670500Y-92050000D03*
X84130500Y-92050000D03*
%TD*%
%TO.C,U13*%
X96830500Y-107950000D03*
X94290500Y-107950000D03*
X96830500Y-112050000D03*
X94290500Y-112050000D03*
%TD*%
%LPD*%
M02*
