M48
; DRILL file {KiCad 7.0.9} date Thu Dec 19 18:12:44 2024
; FORMAT={-:-/ absolute / inch / decimal}
; #@! TF.CreationDate,2024-12-19T18:12:44+09:00
; #@! TF.GenerationSoftware,Kicad,Pcbnew,7.0.9
; #@! TF.FileFunction,Plated,1,2,PTH
FMAT,2
INCH
; #@! TA.AperFunction,Plated,PTH,ViaDrill
T1C0.0157
; #@! TA.AperFunction,Plated,PTH,ComponentDrill
T2C0.0300
; #@! TA.AperFunction,Plated,PTH,ComponentDrill
T3C0.0374
; #@! TA.AperFunction,Plated,PTH,ComponentDrill
T4C0.0394
%
G90
G05
T1
X4.34Y-4.12
X4.37Y-4.49
X4.38Y-3.53
X4.4Y-4.0
X4.53Y-4.12
X4.6Y-4.32
X4.74Y-3.9
X4.74Y-4.28
X4.77Y-3.52
X4.77Y-3.72
X4.83Y-3.79
X4.89Y-3.86
X4.92Y-4.05
X4.92Y-4.28
X4.95Y-3.61
X4.95Y-3.72
X4.95Y-3.89
X5.025Y-4.1
X5.04Y-4.71
X5.04Y-5.47
X5.06Y-3.68
X5.09Y-3.89
X5.1Y-4.325
X5.11Y-3.83
X5.2362Y-3.7008
X5.25Y-3.8
X5.25Y-3.92
X5.25Y-4.1
X5.2756Y-3.5827
X5.2756Y-3.6614
X5.29Y-4.98
X5.35Y-3.575
X5.3548Y-3.6216
X5.3937Y-4.8425
X5.3942Y-4.7633
X5.4343Y-4.763
X5.45Y-3.775
X5.45Y-3.89
X5.45Y-3.975
X5.45Y-4.1
X5.53Y-3.65
X5.54Y-3.59
X5.55Y-4.3
X5.5512Y-4.2126
X5.5512Y-5.2362
X5.59Y-5.47
X5.5906Y-4.7244
X5.5906Y-5.315
X5.625Y-3.975
X5.6381Y-5.4019
X5.65Y-3.65
X5.65Y-3.7
X5.6622Y-5.0859
X5.6785Y-4.7244
X5.68Y-5.38
X5.7087Y-4.2126
X5.74Y-4.73
X5.748Y-5.1181
X5.748Y-5.1969
X5.75Y-4.3
X5.77Y-4.78
X5.7874Y-5.1575
X5.8085Y-4.95
X5.8268Y-5.0611
X5.837Y-4.983
X5.85Y-4.11
X5.8661Y-5.4331
X5.873Y-4.7311
X5.8885Y-4.94
X5.9Y-4.31
X5.93Y-5.0896
X5.94Y-4.98
X5.955Y-4.764
X5.9843Y-5.3937
X5.9968Y-5.07
X6.0Y-3.63
X6.0309Y-5.0896
X6.063Y-5.4331
X6.1Y-4.3
X6.1014Y-4.6447
X6.12Y-3.65
X6.1417Y-4.9213
X6.16Y-3.51
X6.16Y-3.8189
X6.16Y-4.76
X6.1608Y-4.6846
X6.17Y-5.47
X6.1811Y-4.4914
X6.1811Y-5.1575
X6.1925Y-3.75
X6.2Y-4.02
X6.2Y-4.3
X6.2Y-4.89
X6.212Y-4.718
X6.2181Y-4.6485
X6.2598Y-3.8189
X6.29Y-4.66
X6.2987Y-5.0389
X6.32Y-3.52
X6.3386Y-3.8189
X6.3402Y-4.7002
X6.379Y-4.999
X6.4017Y-4.7017
X6.44Y-4.02
X6.46Y-3.5
X6.49Y-4.62
X6.5Y-3.56
X6.51Y-3.7
X6.5354Y-3.6146
X6.54Y-4.07
X6.55Y-4.3
X6.65Y-4.04
X6.68Y-3.76
X6.6929Y-4.252
X6.6929Y-4.6457
X6.6929Y-4.7638
X6.7323Y-4.0551
X6.74Y-3.65
X6.75Y-4.3
X6.76Y-5.47
X6.77Y-4.89
X6.8Y-4.05
X6.86Y-3.76
X6.9Y-4.325
X6.91Y-3.65
X7.1Y-4.325
X7.2Y-4.0
X7.3Y-4.325
X7.3Y-4.625
X7.41Y-3.99
X7.42Y-3.52
X7.425Y-4.6
T2
X4.45Y-4.3886
X4.45Y-4.55
X4.55Y-4.3886
X4.55Y-4.55
X4.65Y-4.3886
X4.65Y-4.55
X4.75Y-4.3886
X4.75Y-4.55
X4.85Y-4.3886
X4.85Y-4.55
X4.95Y-4.3886
X4.95Y-4.55
X5.05Y-4.3886
X5.05Y-4.55
X5.15Y-4.3886
X5.15Y-4.55
X5.25Y-4.3886
X5.25Y-4.55
X5.35Y-4.3886
X5.35Y-4.55
X5.45Y-4.3886
X5.45Y-4.55
X5.55Y-4.3886
X5.55Y-4.55
X5.65Y-4.3886
X5.65Y-4.55
X5.75Y-4.3886
X5.75Y-4.55
X5.85Y-3.5693
X5.85Y-3.7307
X5.85Y-4.3886
X5.85Y-4.55
X5.95Y-3.5693
X5.95Y-3.7307
X5.95Y-4.3886
X5.95Y-4.55
X6.05Y-4.3886
X6.05Y-4.55
X6.15Y-4.3886
X6.15Y-4.55
X6.25Y-4.3886
X6.25Y-4.55
X6.35Y-4.3886
X6.35Y-4.55
X6.45Y-4.3886
X6.45Y-4.55
X6.55Y-4.3886
X6.55Y-4.55
X6.65Y-4.3886
X6.65Y-4.55
X6.75Y-4.3886
X6.75Y-4.55
X6.85Y-4.3886
X6.85Y-4.55
X6.95Y-4.3886
X6.95Y-4.55
X7.05Y-4.3886
X7.05Y-4.55
X7.15Y-4.3886
X7.15Y-4.55
X7.25Y-4.3886
X7.25Y-4.55
X7.35Y-4.3886
X7.35Y-4.55
T3
X4.685Y-3.9764
X4.7835Y-3.9764
X4.8819Y-3.9764
X4.9803Y-3.9764
X5.0787Y-3.9764
T4
X5.75Y-3.94
X5.75Y-4.04
X5.85Y-3.94
X5.85Y-4.04
X5.95Y-3.94
X5.95Y-4.04
X6.05Y-3.94
X6.05Y-4.04
T0
M30
