%TF.GenerationSoftware,KiCad,Pcbnew,7.0.9*%
%TF.CreationDate,2024-06-25T19:44:48+09:00*%
%TF.ProjectId,05-PWR,30352d50-5752-42e6-9b69-6361645f7063,rev?*%
%TF.SameCoordinates,Original*%
%TF.FileFunction,Copper,L2,Bot*%
%TF.FilePolarity,Positive*%
%FSLAX46Y46*%
G04 Gerber Fmt 4.6, Leading zero omitted, Abs format (unit mm)*
G04 Created by KiCad (PCBNEW 7.0.9) date 2024-06-25 19:44:48*
%MOMM*%
%LPD*%
G01*
G04 APERTURE LIST*
G04 Aperture macros list*
%AMRoundRect*
0 Rectangle with rounded corners*
0 $1 Rounding radius*
0 $2 $3 $4 $5 $6 $7 $8 $9 X,Y pos of 4 corners*
0 Add a 4 corners polygon primitive as box body*
4,1,4,$2,$3,$4,$5,$6,$7,$8,$9,$2,$3,0*
0 Add four circle primitives for the rounded corners*
1,1,$1+$1,$2,$3*
1,1,$1+$1,$4,$5*
1,1,$1+$1,$6,$7*
1,1,$1+$1,$8,$9*
0 Add four rect primitives between the rounded corners*
20,1,$1+$1,$2,$3,$4,$5,0*
20,1,$1+$1,$4,$5,$6,$7,0*
20,1,$1+$1,$6,$7,$8,$9,0*
20,1,$1+$1,$8,$9,$2,$3,0*%
G04 Aperture macros list end*
%TA.AperFunction,ComponentPad*%
%ADD10C,1.440000*%
%TD*%
%TA.AperFunction,ComponentPad*%
%ADD11RoundRect,0.250002X-1.699998X-1.699998X1.699998X-1.699998X1.699998X1.699998X-1.699998X1.699998X0*%
%TD*%
%TA.AperFunction,ComponentPad*%
%ADD12C,3.900000*%
%TD*%
%TA.AperFunction,ComponentPad*%
%ADD13R,1.700000X1.700000*%
%TD*%
%TA.AperFunction,ComponentPad*%
%ADD14O,1.700000X1.700000*%
%TD*%
%TA.AperFunction,ComponentPad*%
%ADD15RoundRect,0.250000X-0.600000X-0.725000X0.600000X-0.725000X0.600000X0.725000X-0.600000X0.725000X0*%
%TD*%
%TA.AperFunction,ComponentPad*%
%ADD16O,1.700000X1.950000*%
%TD*%
%TA.AperFunction,ComponentPad*%
%ADD17RoundRect,0.250002X1.699998X-1.699998X1.699998X1.699998X-1.699998X1.699998X-1.699998X-1.699998X0*%
%TD*%
%TA.AperFunction,ComponentPad*%
%ADD18RoundRect,0.250000X0.600000X0.725000X-0.600000X0.725000X-0.600000X-0.725000X0.600000X-0.725000X0*%
%TD*%
%TA.AperFunction,ComponentPad*%
%ADD19C,1.524000*%
%TD*%
%TA.AperFunction,ComponentPad*%
%ADD20O,2.000000X5.200000*%
%TD*%
%TA.AperFunction,ComponentPad*%
%ADD21O,2.200000X5.200000*%
%TD*%
%TA.AperFunction,ComponentPad*%
%ADD22R,1.800000X1.717500*%
%TD*%
%TA.AperFunction,ComponentPad*%
%ADD23O,1.800000X1.717500*%
%TD*%
%TA.AperFunction,ComponentPad*%
%ADD24RoundRect,0.250001X0.799999X-0.799999X0.799999X0.799999X-0.799999X0.799999X-0.799999X-0.799999X0*%
%TD*%
%TA.AperFunction,ComponentPad*%
%ADD25C,2.100000*%
%TD*%
%TA.AperFunction,ComponentPad*%
%ADD26C,2.400000*%
%TD*%
%TA.AperFunction,ViaPad*%
%ADD27C,0.800000*%
%TD*%
%TA.AperFunction,ViaPad*%
%ADD28C,0.500000*%
%TD*%
%TA.AperFunction,Conductor*%
%ADD29C,1.500000*%
%TD*%
%TA.AperFunction,Conductor*%
%ADD30C,0.500000*%
%TD*%
%TA.AperFunction,Conductor*%
%ADD31C,2.000000*%
%TD*%
%TA.AperFunction,Conductor*%
%ADD32C,3.000000*%
%TD*%
%TA.AperFunction,Conductor*%
%ADD33C,10.000000*%
%TD*%
%TA.AperFunction,Conductor*%
%ADD34C,0.250000*%
%TD*%
G04 APERTURE END LIST*
D10*
%TO.P,RV1,1,1*%
%TO.N,Net-(U1-Trim)*%
X189230000Y-116332000D03*
%TO.P,RV1,2,2*%
X191770000Y-116332000D03*
%TO.P,RV1,3,3*%
%TO.N,GND*%
X194310000Y-116332000D03*
%TD*%
D11*
%TO.P,J1,1,Pin_1*%
%TO.N,Net-(J1-Pin_1)*%
X209460000Y-73025000D03*
D12*
%TO.P,J1,2,Pin_2*%
%TO.N,GND*%
X217260000Y-73025000D03*
%TD*%
D13*
%TO.P,U1,1,VIN*%
%TO.N,VDD*%
X189230000Y-97790000D03*
D14*
%TO.P,U1,2,VOUT*%
%TO.N,Net-(J3-Pin_2)*%
X189230000Y-100330000D03*
%TO.P,U1,3,GND*%
%TO.N,GND*%
X189230000Y-102870000D03*
%TO.P,U1,4,EN*%
%TO.N,unconnected-(U1-EN-Pad4)*%
X189230000Y-105410000D03*
%TO.P,U1,5,Trim*%
%TO.N,Net-(U1-Trim)*%
X189230000Y-107950000D03*
%TD*%
D13*
%TO.P,U2,1,VIN*%
%TO.N,VDD*%
X199390000Y-115570000D03*
D14*
%TO.P,U2,2,VOUT*%
%TO.N,Net-(J5-Pin_2)*%
X199390000Y-113030000D03*
%TO.P,U2,3,GND*%
%TO.N,GND*%
X199390000Y-110490000D03*
%TO.P,U2,4,EN*%
%TO.N,unconnected-(U2-EN-Pad4)*%
X199390000Y-107950000D03*
%TO.P,U2,5,Trim*%
%TO.N,Net-(U2-Trim)*%
X199390000Y-105410000D03*
%TD*%
D15*
%TO.P,J6,1,Pin_1*%
%TO.N,Motor_SIG*%
X255350000Y-123190000D03*
D16*
%TO.P,J6,2,Pin_2*%
%TO.N,Net-(J5-Pin_2)*%
X257850000Y-123190000D03*
%TO.P,J6,3,Pin_3*%
%TO.N,GND*%
X260350000Y-123190000D03*
%TD*%
D15*
%TO.P,J7,1,Pin_1*%
%TO.N,UART3_TX*%
X219985000Y-40005000D03*
D16*
%TO.P,J7,2,Pin_2*%
%TO.N,UART3_RX*%
X222485000Y-40005000D03*
%TO.P,J7,3,Pin_3*%
%TO.N,GND*%
X224985000Y-40005000D03*
%TO.P,J7,4,Pin_4*%
%TO.N,+3V3*%
X227485000Y-40005000D03*
%TO.P,J7,5,Pin_5*%
%TO.N,3V3_LED*%
X229985000Y-40005000D03*
%TO.P,J7,6,Pin_6*%
%TO.N,+5V*%
X232485000Y-40005000D03*
%TD*%
D17*
%TO.P,J9,1,Pin_1*%
%TO.N,3V3_LED*%
X241935000Y-44630000D03*
D12*
%TO.P,J9,2,Pin_2*%
%TO.N,GND*%
X241935000Y-36830000D03*
%TD*%
D18*
%TO.P,J11,1,Pin_1*%
%TO.N,UART3_TX*%
X198120000Y-39370000D03*
D16*
%TO.P,J11,2,Pin_2*%
%TO.N,UART3_RX*%
X195620000Y-39370000D03*
%TO.P,J11,3,Pin_3*%
%TO.N,Motor_SIG*%
X193120000Y-39370000D03*
%TO.P,J11,4,Pin_4*%
%TO.N,Battery_obs*%
X190620000Y-39370000D03*
%TD*%
D15*
%TO.P,J5,1,Pin_1*%
%TO.N,Motor_SIG*%
X191770000Y-123190000D03*
D16*
%TO.P,J5,2,Pin_2*%
%TO.N,Net-(J5-Pin_2)*%
X194270000Y-123190000D03*
%TO.P,J5,3,Pin_3*%
%TO.N,GND*%
X196770000Y-123190000D03*
%TD*%
D10*
%TO.P,RV2,1,1*%
%TO.N,Net-(U2-Trim)*%
X199390000Y-97536000D03*
%TO.P,RV2,2,2*%
X196850000Y-97536000D03*
%TO.P,RV2,3,3*%
%TO.N,GND*%
X194310000Y-97536000D03*
%TD*%
D18*
%TO.P,J4,1,Pin_1*%
%TO.N,Motor_SIG*%
X261620000Y-48260000D03*
D16*
%TO.P,J4,2,Pin_2*%
%TO.N,Net-(J3-Pin_2)*%
X259120000Y-48260000D03*
%TO.P,J4,3,Pin_3*%
%TO.N,GND*%
X256620000Y-48260000D03*
%TD*%
D10*
%TO.P,RV3,1,1*%
%TO.N,Net-(U5-IN)*%
X177165000Y-86360000D03*
%TO.P,RV3,2,2*%
X177165000Y-88900000D03*
%TO.P,RV3,3,3*%
%TO.N,GND*%
X177165000Y-91440000D03*
%TD*%
D19*
%TO.P,U3,1,ON/OFF*%
%TO.N,GND*%
X225425000Y-57015000D03*
%TO.P,U3,2,Vin*%
%TO.N,VDD*%
X225425000Y-61595000D03*
X221615000Y-63115000D03*
%TO.P,U3,3,GND*%
%TO.N,GND*%
X219325000Y-63115000D03*
X217035000Y-63115000D03*
%TO.P,U3,4,Vout*%
%TO.N,+5V*%
X213225000Y-61595000D03*
%TO.P,U3,5,Sense*%
X213225000Y-57015000D03*
%TO.P,U3,6,Trim*%
%TO.N,Net-(U3-Trim)*%
X213225000Y-52435000D03*
%TO.P,U3,7,GND*%
%TO.N,GND*%
X219325000Y-50915000D03*
%TO.P,U3,8,N.C.*%
%TO.N,unconnected-(U3-N.C.-Pad8)*%
X221615000Y-50915000D03*
%TO.P,U3,9,Sequence*%
%TO.N,unconnected-(U3-Sequence-Pad9)*%
X225425000Y-52435000D03*
%TO.P,U3,10,PGOOD*%
%TO.N,unconnected-(U3-PGOOD-Pad10)*%
X225425000Y-54725000D03*
%TO.P,U3,11,N.C.*%
%TO.N,unconnected-(U3-N.C.-Pad11)*%
X213225000Y-54725000D03*
%TO.P,U3,12,N.C.*%
%TO.N,unconnected-(U3-N.C.-Pad12)*%
X217035000Y-50915000D03*
%TD*%
%TO.P,U4,1,ON/OFF*%
%TO.N,GND*%
X236470000Y-62865000D03*
%TO.P,U4,2,Vin*%
%TO.N,VDD*%
X231890000Y-62865000D03*
X230370000Y-59055000D03*
%TO.P,U4,3,GND*%
%TO.N,GND*%
X230370000Y-56765000D03*
X230370000Y-54475000D03*
%TO.P,U4,4,Vout*%
%TO.N,3V3_LED*%
X231890000Y-50665000D03*
%TO.P,U4,5,Sense*%
X236470000Y-50665000D03*
%TO.P,U4,6,Trim*%
%TO.N,Net-(U4-Trim)*%
X241050000Y-50665000D03*
%TO.P,U4,7,GND*%
%TO.N,GND*%
X242570000Y-56765000D03*
%TO.P,U4,8,N.C.*%
%TO.N,unconnected-(U4-N.C.-Pad8)*%
X242570000Y-59055000D03*
%TO.P,U4,9,Sequence*%
%TO.N,unconnected-(U4-Sequence-Pad9)*%
X241050000Y-62865000D03*
%TO.P,U4,10,PGOOD*%
%TO.N,unconnected-(U4-PGOOD-Pad10)*%
X238760000Y-62865000D03*
%TO.P,U4,11,N.C.*%
%TO.N,unconnected-(U4-N.C.-Pad11)*%
X238760000Y-50665000D03*
%TO.P,U4,12,N.C.*%
%TO.N,unconnected-(U4-N.C.-Pad12)*%
X242570000Y-54475000D03*
%TD*%
D20*
%TO.P,SW1,1,A*%
%TO.N,GND*%
X261970000Y-82550000D03*
D21*
%TO.P,SW1,2,B*%
%TO.N,Net-(Q1-G)*%
X267970000Y-82550000D03*
%TD*%
D11*
%TO.P,J10,1,Pin_1*%
%TO.N,+5V*%
X203655000Y-31750000D03*
D12*
%TO.P,J10,2,Pin_2*%
%TO.N,GND*%
X211455000Y-31750000D03*
%TD*%
D18*
%TO.P,J3,1,Pin_1*%
%TO.N,Motor_SIG*%
X195580000Y-48895000D03*
D16*
%TO.P,J3,2,Pin_2*%
%TO.N,Net-(J3-Pin_2)*%
X193080000Y-48895000D03*
%TO.P,J3,3,Pin_3*%
%TO.N,GND*%
X190580000Y-48895000D03*
%TD*%
D22*
%TO.P,Q1,1,G*%
%TO.N,Net-(Q1-G)*%
X274357500Y-91440000D03*
D23*
%TO.P,Q1,2,D*%
%TO.N,VDD*%
X274357500Y-93730000D03*
%TO.P,Q1,3,S*%
%TO.N,Net-(Q1-S)*%
X274357500Y-96020000D03*
%TD*%
D24*
%TO.P,J2,1,Pin_1*%
%TO.N,VDD*%
X267970000Y-96915000D03*
D25*
%TO.P,J2,2,Pin_2*%
%TO.N,GND*%
X267970000Y-92315000D03*
%TD*%
D26*
%TO.P,F1,1*%
%TO.N,Net-(Q1-S)*%
X195150000Y-91190000D03*
X198550000Y-91190000D03*
%TO.P,F1,2*%
%TO.N,Net-(J1-Pin_1)*%
X195150000Y-77720000D03*
X198550000Y-77720000D03*
%TD*%
D27*
%TO.N,GND*%
X240030000Y-100965000D03*
X215900000Y-123190000D03*
X235585000Y-83820000D03*
X264795000Y-123190000D03*
X214630000Y-83820000D03*
D28*
X250825000Y-48895000D03*
D27*
X264795000Y-127000000D03*
D28*
X228600000Y-44450000D03*
D27*
X227965000Y-100965000D03*
X250190000Y-105410000D03*
X213360000Y-100965000D03*
X232410000Y-100965000D03*
D28*
X247650000Y-48895000D03*
D27*
X217170000Y-97790000D03*
X230505000Y-83820000D03*
X264414000Y-119126000D03*
X245745000Y-97790000D03*
X225425000Y-83820000D03*
X222885000Y-97790000D03*
X217170000Y-83820000D03*
D28*
X220980000Y-42545000D03*
D27*
X217170000Y-85090000D03*
X227965000Y-97790000D03*
D28*
X235585000Y-40005000D03*
D27*
X227965000Y-83820000D03*
X243205000Y-100965000D03*
X243205000Y-97790000D03*
X251460000Y-123190000D03*
X236220000Y-100965000D03*
X236220000Y-123190000D03*
X217170000Y-100965000D03*
X213360000Y-97790000D03*
X259842000Y-125349000D03*
X232410000Y-97790000D03*
X208915000Y-97790000D03*
D28*
X227330000Y-48895000D03*
D27*
X203835000Y-123190000D03*
X210185000Y-85090000D03*
X212090000Y-85090000D03*
X222885000Y-100965000D03*
D28*
X250825000Y-39370000D03*
D27*
X204470000Y-100965000D03*
D28*
X220980000Y-47625000D03*
D27*
X240030000Y-97790000D03*
X208915000Y-100965000D03*
X214630000Y-85090000D03*
D28*
X223520000Y-48895000D03*
X227965000Y-42545000D03*
D27*
X238125000Y-83820000D03*
X222885000Y-83820000D03*
X212090000Y-83820000D03*
X245745000Y-100965000D03*
X236220000Y-97790000D03*
X204470000Y-97790000D03*
X233045000Y-83820000D03*
D28*
%TO.N,+3V3*%
X237144949Y-38165000D03*
D27*
%TO.N,Battery_obs*%
X187325000Y-77470000D03*
D28*
X198120000Y-49530000D03*
%TD*%
D29*
%TO.N,GND*%
X188820000Y-47135000D02*
X188820000Y-37875000D01*
X197845000Y-28850000D02*
X208555000Y-28850000D01*
X208555000Y-28850000D02*
X211455000Y-31750000D01*
X190580000Y-48895000D02*
X188820000Y-47135000D01*
X188820000Y-37875000D02*
X197845000Y-28850000D01*
D30*
%TO.N,+3V3*%
X237144949Y-38165000D02*
X229325000Y-38165000D01*
X229325000Y-38165000D02*
X227485000Y-40005000D01*
D31*
%TO.N,Net-(J3-Pin_2)*%
X214037688Y-58977000D02*
X215187000Y-57827688D01*
D32*
X213110000Y-75539644D02*
X213110000Y-64961794D01*
D31*
X212749214Y-36659999D02*
X202920786Y-36659999D01*
D32*
X210820000Y-60325000D02*
X210763000Y-60382000D01*
D31*
X213335000Y-47600000D02*
X217482538Y-47600000D01*
D32*
X186055000Y-99060000D02*
X186055000Y-90809769D01*
D31*
X189230000Y-100330000D02*
X187325000Y-100330000D01*
X193080000Y-48012462D02*
X193080000Y-48895000D01*
X212168000Y-58977000D02*
X214037688Y-58977000D01*
D32*
X196244769Y-80620000D02*
X208029644Y-80620000D01*
D31*
X213335000Y-49770312D02*
X213335000Y-47600000D01*
X202335000Y-46720000D02*
X194372462Y-46720000D01*
X215187000Y-57827688D02*
X215187000Y-51622312D01*
X218325000Y-42142462D02*
X217482538Y-41300000D01*
X187325000Y-100330000D02*
X186690000Y-99695000D01*
X213335000Y-41300000D02*
X213335000Y-37245785D01*
X259120000Y-48260000D02*
X259120000Y-50985000D01*
X213335000Y-37245785D02*
X212749214Y-36659999D01*
D32*
X213110000Y-64961794D02*
X210916603Y-62768397D01*
D31*
X218325000Y-46757538D02*
X218325000Y-42142462D01*
X210820000Y-60325000D02*
X212168000Y-58977000D01*
X245110000Y-62286794D02*
X244475000Y-62921794D01*
D32*
X186055000Y-90809769D02*
X196244769Y-80620000D01*
D31*
X259120000Y-50985000D02*
X252480786Y-50985000D01*
X217482538Y-41300000D02*
X213335000Y-41300000D01*
D32*
X208029644Y-80620000D02*
X213110000Y-75539644D01*
D31*
X217482538Y-47600000D02*
X218325000Y-46757538D01*
X245110000Y-58355786D02*
X245110000Y-62286794D01*
D32*
X244475000Y-62921794D02*
X244475000Y-62230000D01*
D31*
X202335000Y-37245785D02*
X202335000Y-46720000D01*
D32*
X210763000Y-60382000D02*
X210763000Y-62614794D01*
D31*
X252480786Y-50985000D02*
X245110000Y-58355786D01*
X215187000Y-51622312D02*
X213335000Y-49770312D01*
D32*
X241356794Y-66040000D02*
X244475000Y-62921794D01*
D31*
X202920786Y-36659999D02*
X202335000Y-37245785D01*
D32*
X214188206Y-66040000D02*
X241356794Y-66040000D01*
X210763000Y-62614794D02*
X214188206Y-66040000D01*
X186690000Y-99695000D02*
X186055000Y-99060000D01*
D31*
X194372462Y-46720000D02*
X193080000Y-48012462D01*
D33*
%TO.N,Net-(Q1-S)*%
X195150000Y-91190000D02*
X239645000Y-91190000D01*
X239645000Y-91190000D02*
X251460000Y-79375000D01*
D34*
%TO.N,Motor_SIG*%
X207645000Y-59055000D02*
X207645000Y-69215000D01*
X202565000Y-74295000D02*
X189230000Y-74295000D01*
X196215000Y-52705000D02*
X201295000Y-52705000D01*
X239395000Y-31750000D02*
X255905000Y-31750000D01*
X207645000Y-69215000D02*
X202565000Y-74295000D01*
X194255000Y-50220000D02*
X195580000Y-48895000D01*
X216918224Y-37465000D02*
X237490000Y-37465000D01*
X184150000Y-79375000D02*
X184150000Y-100965000D01*
X186505000Y-117925000D02*
X191770000Y-123190000D01*
X186505000Y-103320000D02*
X186505000Y-117925000D01*
X213848224Y-34395000D02*
X216918224Y-37465000D01*
X198095000Y-34395000D02*
X213848224Y-34395000D01*
X191755000Y-40735000D02*
X191755000Y-49443833D01*
X237490000Y-37465000D02*
X238125000Y-36830000D01*
X189230000Y-74295000D02*
X184150000Y-79375000D01*
X255905000Y-31750000D02*
X261620000Y-37465000D01*
X238125000Y-36830000D02*
X238125000Y-33020000D01*
X192531167Y-50220000D02*
X194255000Y-50220000D01*
X261620000Y-37465000D02*
X261620000Y-48260000D01*
X201295000Y-52705000D02*
X207645000Y-59055000D01*
X191755000Y-49443833D02*
X192531167Y-50220000D01*
X184150000Y-100965000D02*
X186505000Y-103320000D01*
X195580000Y-52070000D02*
X196215000Y-52705000D01*
X193120000Y-39370000D02*
X198095000Y-34395000D01*
X238125000Y-33020000D02*
X239395000Y-31750000D01*
X193120000Y-39370000D02*
X191755000Y-40735000D01*
X195580000Y-48895000D02*
X195580000Y-52070000D01*
%TO.N,UART3_TX*%
X218031371Y-39975000D02*
X216505000Y-39975000D01*
X219985000Y-40005000D02*
X218061371Y-40005000D01*
X218061371Y-40005000D02*
X218031371Y-39975000D01*
X213258047Y-35295000D02*
X202195000Y-35295000D01*
X202195000Y-35295000D02*
X198120000Y-39370000D01*
X214660000Y-38130000D02*
X214660000Y-36696953D01*
X216505000Y-39975000D02*
X214660000Y-38130000D01*
X214660000Y-36696953D02*
X213258047Y-35295000D01*
%TO.N,UART3_RX*%
X215110000Y-36510557D02*
X215110000Y-37310000D01*
X219139900Y-38705000D02*
X221185000Y-38705000D01*
X216535000Y-38735000D02*
X219109900Y-38735000D01*
X219109900Y-38735000D02*
X219139900Y-38705000D01*
X221185000Y-38705000D02*
X222485000Y-40005000D01*
X213444443Y-34845000D02*
X215110000Y-36510557D01*
X195620000Y-39370000D02*
X200145000Y-34845000D01*
X200145000Y-34845000D02*
X213444443Y-34845000D01*
X215110000Y-37310000D02*
X216535000Y-38735000D01*
%TO.N,Battery_obs*%
X189230000Y-75565000D02*
X202565000Y-75565000D01*
X199575000Y-52070000D02*
X198120000Y-50615000D01*
X208915000Y-59055000D02*
X201930000Y-52070000D01*
X187325000Y-77470000D02*
X189230000Y-75565000D01*
X201930000Y-52070000D02*
X199575000Y-52070000D01*
X208915000Y-69215000D02*
X208915000Y-59055000D01*
X198120000Y-50615000D02*
X198120000Y-49530000D01*
X202565000Y-75565000D02*
X208915000Y-69215000D01*
%TD*%
%TA.AperFunction,Conductor*%
%TO.N,GND*%
G36*
X246958039Y-97174685D02*
G01*
X247003794Y-97227489D01*
X247015000Y-97279000D01*
X247015000Y-103505000D01*
X251300500Y-103505000D01*
X251367539Y-103524685D01*
X251413294Y-103577489D01*
X251424500Y-103629000D01*
X251424500Y-117135467D01*
X251424416Y-117135889D01*
X251424459Y-117160001D01*
X251424500Y-117160099D01*
X251424616Y-117160382D01*
X251424618Y-117160384D01*
X251424808Y-117160462D01*
X251425000Y-117160541D01*
X251425002Y-117160539D01*
X251449616Y-117160524D01*
X251449616Y-117160528D01*
X251449760Y-117160500D01*
X255900500Y-117160500D01*
X255967539Y-117180185D01*
X256013294Y-117232989D01*
X256024500Y-117284500D01*
X256024500Y-118510658D01*
X256059456Y-118708908D01*
X256128309Y-118898077D01*
X256128312Y-118898084D01*
X256228965Y-119072421D01*
X256358366Y-119226634D01*
X256512579Y-119356035D01*
X256686920Y-119456690D01*
X256876091Y-119525543D01*
X257074344Y-119560500D01*
X257074346Y-119560500D01*
X257275654Y-119560500D01*
X257275656Y-119560500D01*
X257473909Y-119525543D01*
X257663080Y-119456690D01*
X257837421Y-119356035D01*
X257991634Y-119226634D01*
X258121035Y-119072421D01*
X258221690Y-118898080D01*
X258290543Y-118708909D01*
X258325500Y-118510656D01*
X258325500Y-118410000D01*
X258325500Y-118409500D01*
X258325500Y-117284500D01*
X258345185Y-117217461D01*
X258397989Y-117171706D01*
X258449500Y-117160500D01*
X262900240Y-117160500D01*
X262900383Y-117160528D01*
X262900384Y-117160524D01*
X262924997Y-117160539D01*
X262925000Y-117160541D01*
X262925383Y-117160383D01*
X262925383Y-117160381D01*
X262942895Y-117142862D01*
X262943232Y-117143199D01*
X262964844Y-117116278D01*
X263031096Y-117094088D01*
X263035757Y-117094000D01*
X265941000Y-117094000D01*
X266008039Y-117113685D01*
X266053794Y-117166489D01*
X266065000Y-117218000D01*
X266065000Y-128146000D01*
X266045315Y-128213039D01*
X265992511Y-128258794D01*
X265941000Y-128270000D01*
X258569000Y-128270000D01*
X258501961Y-128250315D01*
X258456206Y-128197511D01*
X258445000Y-128146000D01*
X258445000Y-124606655D01*
X258464685Y-124539616D01*
X258516595Y-124494273D01*
X258527829Y-124489035D01*
X258721401Y-124353495D01*
X258888495Y-124186401D01*
X258998732Y-124028965D01*
X259053306Y-123985342D01*
X259122805Y-123978148D01*
X259185159Y-124009670D01*
X259201880Y-124028967D01*
X259311886Y-124186073D01*
X259311891Y-124186079D01*
X259478917Y-124353105D01*
X259672421Y-124488600D01*
X259886507Y-124588429D01*
X259886516Y-124588433D01*
X260100000Y-124645634D01*
X260100000Y-123598018D01*
X260214801Y-123650446D01*
X260316025Y-123665000D01*
X260383975Y-123665000D01*
X260485199Y-123650446D01*
X260600000Y-123598018D01*
X260600000Y-124645633D01*
X260813483Y-124588433D01*
X260813492Y-124588429D01*
X261027577Y-124488600D01*
X261027579Y-124488599D01*
X261221073Y-124353113D01*
X261221079Y-124353108D01*
X261388108Y-124186079D01*
X261388113Y-124186073D01*
X261523599Y-123992579D01*
X261523600Y-123992577D01*
X261623429Y-123778492D01*
X261623433Y-123778483D01*
X261684567Y-123550326D01*
X261684569Y-123550316D01*
X261694221Y-123440000D01*
X260753969Y-123440000D01*
X260786519Y-123389351D01*
X260825000Y-123258295D01*
X260825000Y-123121705D01*
X260786519Y-122990649D01*
X260753969Y-122940000D01*
X261694221Y-122940000D01*
X261684569Y-122829683D01*
X261684567Y-122829673D01*
X261623433Y-122601516D01*
X261623429Y-122601507D01*
X261523600Y-122387422D01*
X261523599Y-122387420D01*
X261388113Y-122193926D01*
X261388108Y-122193920D01*
X261221082Y-122026894D01*
X261027578Y-121891399D01*
X260813492Y-121791570D01*
X260813486Y-121791567D01*
X260600000Y-121734364D01*
X260600000Y-122781981D01*
X260485199Y-122729554D01*
X260383975Y-122715000D01*
X260316025Y-122715000D01*
X260214801Y-122729554D01*
X260100000Y-122781981D01*
X260100000Y-121734364D01*
X260099999Y-121734364D01*
X259886513Y-121791567D01*
X259886507Y-121791570D01*
X259672422Y-121891399D01*
X259672420Y-121891400D01*
X259478926Y-122026886D01*
X259478920Y-122026891D01*
X259311891Y-122193920D01*
X259311890Y-122193922D01*
X259201880Y-122351032D01*
X259147303Y-122394657D01*
X259077804Y-122401849D01*
X259015450Y-122370327D01*
X258998730Y-122351031D01*
X258888494Y-122193597D01*
X258721402Y-122026506D01*
X258721395Y-122026501D01*
X258527834Y-121890967D01*
X258527830Y-121890965D01*
X258487777Y-121872288D01*
X258313663Y-121791097D01*
X258313659Y-121791096D01*
X258313655Y-121791094D01*
X258085413Y-121729938D01*
X258085403Y-121729936D01*
X257850001Y-121709341D01*
X257849999Y-121709341D01*
X257614596Y-121729936D01*
X257614586Y-121729938D01*
X257386344Y-121791094D01*
X257386335Y-121791098D01*
X257172171Y-121890964D01*
X257172169Y-121890965D01*
X256978597Y-122026505D01*
X256831398Y-122173705D01*
X256770075Y-122207190D01*
X256700383Y-122202206D01*
X256644450Y-122160334D01*
X256638178Y-122151120D01*
X256542712Y-121996344D01*
X256418657Y-121872289D01*
X256418656Y-121872288D01*
X256287786Y-121791567D01*
X256269336Y-121780187D01*
X256269331Y-121780185D01*
X256267862Y-121779698D01*
X256102797Y-121725001D01*
X256102795Y-121725000D01*
X256000010Y-121714500D01*
X254699998Y-121714500D01*
X254699981Y-121714501D01*
X254597203Y-121725000D01*
X254597200Y-121725001D01*
X254430668Y-121780185D01*
X254430663Y-121780187D01*
X254281342Y-121872289D01*
X254157289Y-121996342D01*
X254065187Y-122145663D01*
X254065185Y-122145668D01*
X254049194Y-122193926D01*
X254010001Y-122312203D01*
X254010001Y-122312204D01*
X254010000Y-122312204D01*
X253999500Y-122414983D01*
X253999500Y-123965001D01*
X253999501Y-123965018D01*
X254010000Y-124067796D01*
X254010001Y-124067799D01*
X254065185Y-124234331D01*
X254065189Y-124234340D01*
X254087742Y-124270904D01*
X254106182Y-124338297D01*
X254085259Y-124404960D01*
X254031617Y-124449729D01*
X253982203Y-124460000D01*
X203324000Y-124460000D01*
X203256961Y-124440315D01*
X203211206Y-124387511D01*
X203200000Y-124336000D01*
X203200000Y-97279000D01*
X203219685Y-97211961D01*
X203272489Y-97166206D01*
X203324000Y-97155000D01*
X246891000Y-97155000D01*
X246958039Y-97174685D01*
G37*
%TD.AperFunction*%
%TD*%
%TA.AperFunction,Conductor*%
%TO.N,GND*%
G36*
X240415568Y-38754685D02*
G01*
X240421414Y-38758682D01*
X240619617Y-38902685D01*
X240619635Y-38902697D01*
X240889778Y-39051209D01*
X240889786Y-39051213D01*
X241176406Y-39164693D01*
X241475008Y-39241361D01*
X241475017Y-39241363D01*
X241780847Y-39279999D01*
X241780861Y-39280000D01*
X242089139Y-39280000D01*
X242089152Y-39279999D01*
X242394982Y-39241363D01*
X242394991Y-39241361D01*
X242693593Y-39164693D01*
X242980213Y-39051213D01*
X242980221Y-39051209D01*
X243250364Y-38902697D01*
X243250382Y-38902685D01*
X243448586Y-38758682D01*
X243514392Y-38735202D01*
X243521471Y-38735000D01*
X251336000Y-38735000D01*
X251403039Y-38754685D01*
X251448794Y-38807489D01*
X251460000Y-38859000D01*
X251460000Y-49406000D01*
X251440315Y-49473039D01*
X251387511Y-49518794D01*
X251336000Y-49530000D01*
X241630805Y-49530000D01*
X241578401Y-49518382D01*
X241483450Y-49474106D01*
X241483447Y-49474105D01*
X241483445Y-49474104D01*
X241270070Y-49416930D01*
X241270062Y-49416929D01*
X241050002Y-49397677D01*
X241049998Y-49397677D01*
X240829937Y-49416929D01*
X240829929Y-49416930D01*
X240616554Y-49474104D01*
X240616550Y-49474106D01*
X240566774Y-49497317D01*
X240521600Y-49518382D01*
X240469195Y-49530000D01*
X239340805Y-49530000D01*
X239288401Y-49518382D01*
X239193450Y-49474106D01*
X239193447Y-49474105D01*
X239193445Y-49474104D01*
X238980070Y-49416930D01*
X238980062Y-49416929D01*
X238760002Y-49397677D01*
X238759998Y-49397677D01*
X238539937Y-49416929D01*
X238539929Y-49416930D01*
X238326554Y-49474104D01*
X238326550Y-49474106D01*
X238276774Y-49497317D01*
X238231600Y-49518382D01*
X238179195Y-49530000D01*
X237050805Y-49530000D01*
X236998401Y-49518382D01*
X236903450Y-49474106D01*
X236903447Y-49474105D01*
X236903445Y-49474104D01*
X236690070Y-49416930D01*
X236690062Y-49416929D01*
X236470002Y-49397677D01*
X236469998Y-49397677D01*
X236249937Y-49416929D01*
X236249929Y-49416930D01*
X236036554Y-49474104D01*
X236036550Y-49474106D01*
X235986774Y-49497317D01*
X235941600Y-49518382D01*
X235889195Y-49530000D01*
X232470805Y-49530000D01*
X232418401Y-49518382D01*
X232323450Y-49474106D01*
X232323447Y-49474105D01*
X232323445Y-49474104D01*
X232110070Y-49416930D01*
X232110062Y-49416929D01*
X231890002Y-49397677D01*
X231889998Y-49397677D01*
X231669937Y-49416929D01*
X231669929Y-49416930D01*
X231456554Y-49474104D01*
X231456550Y-49474106D01*
X231406774Y-49497317D01*
X231361600Y-49518382D01*
X231309195Y-49530000D01*
X220469000Y-49530000D01*
X220401961Y-49510315D01*
X220356206Y-49457511D01*
X220345000Y-49406000D01*
X220345000Y-46379999D01*
X239484500Y-46379999D01*
X239484501Y-46380016D01*
X239495000Y-46482795D01*
X239495001Y-46482798D01*
X239550185Y-46649330D01*
X239550186Y-46649333D01*
X239642289Y-46798655D01*
X239766345Y-46922711D01*
X239915667Y-47014814D01*
X240082204Y-47069999D01*
X240184993Y-47080500D01*
X243685006Y-47080499D01*
X243787796Y-47069999D01*
X243954333Y-47014814D01*
X244103655Y-46922711D01*
X244227711Y-46798655D01*
X244319814Y-46649333D01*
X244374999Y-46482796D01*
X244385500Y-46380007D01*
X244385499Y-42879994D01*
X244374999Y-42777204D01*
X244319814Y-42610667D01*
X244227711Y-42461345D01*
X244103655Y-42337289D01*
X243954333Y-42245186D01*
X243787796Y-42190001D01*
X243787794Y-42190000D01*
X243685008Y-42179500D01*
X240185000Y-42179500D01*
X240184983Y-42179501D01*
X240082204Y-42190000D01*
X240082201Y-42190001D01*
X239915669Y-42245185D01*
X239915664Y-42245187D01*
X239766343Y-42337290D01*
X239642290Y-42461343D01*
X239550187Y-42610664D01*
X239550186Y-42610667D01*
X239495001Y-42777204D01*
X239495001Y-42777205D01*
X239495000Y-42777205D01*
X239484500Y-42879985D01*
X239484500Y-46379999D01*
X220345000Y-46379999D01*
X220345000Y-42034000D01*
X220364685Y-41966961D01*
X220417489Y-41921206D01*
X220469000Y-41910000D01*
X234950000Y-41910000D01*
X234950000Y-39039500D01*
X234969685Y-38972461D01*
X235022489Y-38926706D01*
X235074000Y-38915500D01*
X237099318Y-38915500D01*
X237106258Y-38915889D01*
X237131371Y-38918719D01*
X237144947Y-38920249D01*
X237144948Y-38920249D01*
X237144948Y-38920248D01*
X237144949Y-38920249D01*
X237183790Y-38915872D01*
X237187108Y-38915589D01*
X237188638Y-38915500D01*
X237188658Y-38915500D01*
X237220261Y-38911805D01*
X237230427Y-38910617D01*
X237239007Y-38909650D01*
X237313008Y-38901313D01*
X237313012Y-38901311D01*
X237313168Y-38901294D01*
X237318970Y-38900295D01*
X237319197Y-38900241D01*
X237319204Y-38900241D01*
X237397205Y-38871851D01*
X237472639Y-38845456D01*
X237472648Y-38845449D01*
X237478847Y-38842465D01*
X237483711Y-38840414D01*
X237484058Y-38840239D01*
X237484066Y-38840237D01*
X237550841Y-38796317D01*
X237615839Y-38755477D01*
X237615838Y-38755477D01*
X237618182Y-38754005D01*
X237684152Y-38735000D01*
X240348529Y-38735000D01*
X240415568Y-38754685D01*
G37*
%TD.AperFunction*%
%TD*%
%TA.AperFunction,Conductor*%
%TO.N,Net-(Q1-S)*%
G36*
X281248039Y-73725184D02*
G01*
X281293794Y-73777988D01*
X281305000Y-73829499D01*
X281305000Y-98301000D01*
X281285315Y-98368039D01*
X281232511Y-98413794D01*
X281181000Y-98425000D01*
X271147631Y-98425000D01*
X271142388Y-98424777D01*
X270277559Y-98351175D01*
X269511007Y-98285936D01*
X269445878Y-98260638D01*
X269404766Y-98204144D01*
X269400723Y-98134391D01*
X269415981Y-98097290D01*
X269454814Y-98034334D01*
X269509999Y-97867797D01*
X269520500Y-97765008D01*
X269520500Y-96064992D01*
X269509999Y-95962203D01*
X269454814Y-95795666D01*
X269424912Y-95747188D01*
X269362713Y-95646348D01*
X269362710Y-95646344D01*
X269238655Y-95522289D01*
X269238651Y-95522286D01*
X269089337Y-95430187D01*
X269089335Y-95430186D01*
X269006065Y-95402593D01*
X268922797Y-95375001D01*
X268922795Y-95375000D01*
X268820015Y-95364500D01*
X268820008Y-95364500D01*
X267119992Y-95364500D01*
X267119984Y-95364500D01*
X267017204Y-95375000D01*
X267017203Y-95375001D01*
X266850664Y-95430186D01*
X266850662Y-95430187D01*
X266701348Y-95522286D01*
X266701344Y-95522289D01*
X266577289Y-95646344D01*
X266577286Y-95646348D01*
X266485187Y-95795662D01*
X266485186Y-95795664D01*
X266430001Y-95962203D01*
X266430000Y-95962204D01*
X266419500Y-96064984D01*
X266419500Y-97765015D01*
X266430689Y-97874531D01*
X266428073Y-97874798D01*
X266423720Y-97932633D01*
X266381640Y-97988410D01*
X266316085Y-98012582D01*
X266297186Y-98012419D01*
X263038985Y-97735125D01*
X262973856Y-97709827D01*
X262932744Y-97653333D01*
X262925500Y-97611572D01*
X262925500Y-93684759D01*
X262925528Y-93684616D01*
X262925524Y-93684616D01*
X262925539Y-93660002D01*
X262925541Y-93660000D01*
X262925462Y-93659808D01*
X262925384Y-93659618D01*
X262925382Y-93659616D01*
X262925099Y-93659500D01*
X262925000Y-93659459D01*
X262900446Y-93659459D01*
X262900240Y-93659500D01*
X258449500Y-93659500D01*
X258382461Y-93639815D01*
X258336706Y-93587011D01*
X258325500Y-93535500D01*
X258325500Y-92315000D01*
X266414706Y-92315000D01*
X266433853Y-92558297D01*
X266433853Y-92558300D01*
X266433854Y-92558302D01*
X266490064Y-92792431D01*
X266490830Y-92795619D01*
X266584222Y-93021089D01*
X266711737Y-93229173D01*
X266711738Y-93229176D01*
X266711741Y-93229179D01*
X266870241Y-93414759D01*
X267011611Y-93535500D01*
X267055823Y-93573261D01*
X267055826Y-93573262D01*
X267263910Y-93700777D01*
X267489381Y-93794169D01*
X267489378Y-93794169D01*
X267489384Y-93794170D01*
X267489388Y-93794172D01*
X267726698Y-93851146D01*
X267970000Y-93870294D01*
X268213302Y-93851146D01*
X268450612Y-93794172D01*
X268676089Y-93700777D01*
X268722881Y-93672103D01*
X272953315Y-93672103D01*
X272963134Y-93903269D01*
X272963134Y-93903270D01*
X273011882Y-94129460D01*
X273098151Y-94344148D01*
X273098153Y-94344152D01*
X273219466Y-94541177D01*
X273219470Y-94541181D01*
X273372328Y-94714863D01*
X273372330Y-94714865D01*
X273448325Y-94776227D01*
X273488117Y-94833658D01*
X273490543Y-94903486D01*
X273456226Y-94962225D01*
X273292591Y-95119057D01*
X273155049Y-95305024D01*
X273050922Y-95511547D01*
X272983193Y-95732705D01*
X272978418Y-95770000D01*
X273862648Y-95770000D01*
X273813941Y-95907047D01*
X273803623Y-96057886D01*
X273834384Y-96205915D01*
X273867590Y-96270000D01*
X272980182Y-96270000D01*
X273012361Y-96419313D01*
X273012362Y-96419316D01*
X273098598Y-96633922D01*
X273219868Y-96830878D01*
X273372678Y-97004504D01*
X273552637Y-97149810D01*
X273754552Y-97262607D01*
X273972637Y-97339662D01*
X274107500Y-97362786D01*
X274107500Y-96511683D01*
X274136319Y-96529209D01*
X274281904Y-96570000D01*
X274395122Y-96570000D01*
X274507283Y-96554584D01*
X274607500Y-96511053D01*
X274607500Y-97365894D01*
X274629209Y-97364047D01*
X274853039Y-97305767D01*
X275063802Y-97210496D01*
X275255428Y-97080980D01*
X275422409Y-96920942D01*
X275559950Y-96734975D01*
X275664077Y-96528452D01*
X275731806Y-96307294D01*
X275736582Y-96270000D01*
X274852352Y-96270000D01*
X274901059Y-96132953D01*
X274911377Y-95982114D01*
X274880616Y-95834085D01*
X274847410Y-95770000D01*
X275734818Y-95770000D01*
X275702638Y-95620686D01*
X275702637Y-95620683D01*
X275616401Y-95406077D01*
X275495131Y-95209121D01*
X275342320Y-95035494D01*
X275342316Y-95035490D01*
X275266702Y-94974436D01*
X275226909Y-94917005D01*
X275224482Y-94847178D01*
X275258798Y-94788441D01*
X275422790Y-94631269D01*
X275560375Y-94445241D01*
X275664543Y-94238637D01*
X275732296Y-94017401D01*
X275761685Y-93787897D01*
X275751865Y-93556727D01*
X275703118Y-93330542D01*
X275616847Y-93115848D01*
X275495534Y-92918823D01*
X275495531Y-92918820D01*
X275495531Y-92918819D01*
X275492387Y-92915247D01*
X275462876Y-92851915D01*
X275472289Y-92782683D01*
X275511161Y-92734063D01*
X275615046Y-92656296D01*
X275701296Y-92541081D01*
X275751591Y-92406233D01*
X275758000Y-92346623D01*
X275757999Y-90533378D01*
X275751591Y-90473767D01*
X275701296Y-90338919D01*
X275701295Y-90338918D01*
X275701293Y-90338914D01*
X275615047Y-90223705D01*
X275615044Y-90223702D01*
X275499835Y-90137456D01*
X275499828Y-90137452D01*
X275364982Y-90087158D01*
X275364983Y-90087158D01*
X275305383Y-90080751D01*
X275305381Y-90080750D01*
X275305373Y-90080750D01*
X275305364Y-90080750D01*
X273409629Y-90080750D01*
X273409623Y-90080751D01*
X273350016Y-90087158D01*
X273215171Y-90137452D01*
X273215164Y-90137456D01*
X273099955Y-90223702D01*
X273099952Y-90223705D01*
X273013706Y-90338914D01*
X273013702Y-90338921D01*
X272963408Y-90473767D01*
X272957001Y-90533366D01*
X272957001Y-90533373D01*
X272957000Y-90533385D01*
X272957000Y-92346620D01*
X272957001Y-92346626D01*
X272963408Y-92406233D01*
X273013702Y-92541078D01*
X273013706Y-92541085D01*
X273099952Y-92656294D01*
X273099955Y-92656297D01*
X273207089Y-92736498D01*
X273248960Y-92792431D01*
X273253944Y-92862123D01*
X273232474Y-92909497D01*
X273154631Y-93014749D01*
X273154624Y-93014760D01*
X273050457Y-93221361D01*
X272982703Y-93442600D01*
X272953315Y-93672103D01*
X268722881Y-93672103D01*
X268884179Y-93573259D01*
X269069759Y-93414759D01*
X269228259Y-93229179D01*
X269355777Y-93021089D01*
X269449172Y-92795612D01*
X269506146Y-92558302D01*
X269525294Y-92315000D01*
X269506146Y-92071698D01*
X269449172Y-91834388D01*
X269413215Y-91747579D01*
X269355777Y-91608910D01*
X269228262Y-91400826D01*
X269228261Y-91400823D01*
X269167621Y-91329823D01*
X269069759Y-91215241D01*
X268947063Y-91110449D01*
X268884176Y-91056738D01*
X268884173Y-91056737D01*
X268676089Y-90929222D01*
X268450618Y-90835830D01*
X268450621Y-90835830D01*
X268344992Y-90810470D01*
X268213302Y-90778854D01*
X268213300Y-90778853D01*
X268213297Y-90778853D01*
X267970000Y-90759706D01*
X267726702Y-90778853D01*
X267489380Y-90835830D01*
X267263910Y-90929222D01*
X267055826Y-91056737D01*
X267055823Y-91056738D01*
X266870241Y-91215241D01*
X266711738Y-91400823D01*
X266711737Y-91400826D01*
X266584222Y-91608910D01*
X266490830Y-91834380D01*
X266433853Y-92071702D01*
X266414706Y-92315000D01*
X258325500Y-92315000D01*
X258325500Y-92309346D01*
X258325499Y-92309341D01*
X258290543Y-92111091D01*
X258256241Y-92016848D01*
X258221690Y-91921920D01*
X258121035Y-91747579D01*
X257991634Y-91593366D01*
X257837421Y-91463965D01*
X257663084Y-91363312D01*
X257663081Y-91363311D01*
X257663080Y-91363310D01*
X257571076Y-91329823D01*
X257473908Y-91294456D01*
X257275658Y-91259500D01*
X257275656Y-91259500D01*
X257074344Y-91259500D01*
X257074341Y-91259500D01*
X256876091Y-91294456D01*
X256686922Y-91363309D01*
X256686915Y-91363312D01*
X256512578Y-91463965D01*
X256512574Y-91463968D01*
X256358366Y-91593366D01*
X256228968Y-91747574D01*
X256228965Y-91747578D01*
X256128312Y-91921915D01*
X256128309Y-91921922D01*
X256059456Y-92111091D01*
X256024500Y-92309341D01*
X256024500Y-93535500D01*
X256004815Y-93602539D01*
X255952011Y-93648294D01*
X255900500Y-93659500D01*
X251449760Y-93659500D01*
X251449554Y-93659459D01*
X251425000Y-93659459D01*
X251424901Y-93659500D01*
X251424617Y-93659616D01*
X251424615Y-93659618D01*
X251424459Y-93659999D01*
X251424476Y-93684616D01*
X251424471Y-93684616D01*
X251424500Y-93684759D01*
X251424500Y-96611657D01*
X251404815Y-96678696D01*
X251352011Y-96724451D01*
X251289985Y-96735210D01*
X241914289Y-95937279D01*
X241461361Y-95898732D01*
X241396233Y-95873435D01*
X241355121Y-95816941D01*
X241351078Y-95747188D01*
X241355338Y-95732818D01*
X245544703Y-84212065D01*
X260469500Y-84212065D01*
X260484890Y-84397813D01*
X260484892Y-84397824D01*
X260545936Y-84638881D01*
X260645826Y-84866606D01*
X260781833Y-85074782D01*
X260781836Y-85074785D01*
X260950256Y-85257738D01*
X261146491Y-85410474D01*
X261365190Y-85528828D01*
X261600386Y-85609571D01*
X261845665Y-85650500D01*
X262094335Y-85650500D01*
X262339614Y-85609571D01*
X262574810Y-85528828D01*
X262793509Y-85410474D01*
X262989744Y-85257738D01*
X263158164Y-85074785D01*
X263294173Y-84866607D01*
X263394063Y-84638881D01*
X263455108Y-84397821D01*
X263470500Y-84212067D01*
X263470500Y-84112884D01*
X266369500Y-84112884D01*
X266384317Y-84301150D01*
X266443126Y-84546110D01*
X266539533Y-84778859D01*
X266671160Y-84993653D01*
X266671161Y-84993656D01*
X266671164Y-84993659D01*
X266834776Y-85185224D01*
X266919679Y-85257738D01*
X267026343Y-85348838D01*
X267026346Y-85348839D01*
X267241140Y-85480466D01*
X267357902Y-85528830D01*
X267473889Y-85576873D01*
X267718852Y-85635683D01*
X267970000Y-85655449D01*
X268221148Y-85635683D01*
X268466111Y-85576873D01*
X268698859Y-85480466D01*
X268913659Y-85348836D01*
X269105224Y-85185224D01*
X269268836Y-84993659D01*
X269400466Y-84778859D01*
X269496873Y-84546111D01*
X269555683Y-84301148D01*
X269570500Y-84112882D01*
X269570500Y-80987118D01*
X269555683Y-80798852D01*
X269496873Y-80553889D01*
X269472761Y-80495677D01*
X269400466Y-80321140D01*
X269268839Y-80106346D01*
X269268838Y-80106343D01*
X269213787Y-80041887D01*
X269105224Y-79914776D01*
X268978571Y-79806604D01*
X268913656Y-79751161D01*
X268913653Y-79751160D01*
X268698859Y-79619533D01*
X268466110Y-79523126D01*
X268221151Y-79464317D01*
X267970000Y-79444551D01*
X267718848Y-79464317D01*
X267473889Y-79523126D01*
X267241140Y-79619533D01*
X267026346Y-79751160D01*
X267026343Y-79751161D01*
X266834776Y-79914776D01*
X266671161Y-80106343D01*
X266671160Y-80106346D01*
X266539533Y-80321140D01*
X266443126Y-80553889D01*
X266384317Y-80798849D01*
X266369500Y-80987116D01*
X266369500Y-84112884D01*
X263470500Y-84112884D01*
X263470500Y-80887933D01*
X263455108Y-80702179D01*
X263406568Y-80510499D01*
X263394063Y-80461118D01*
X263294173Y-80233393D01*
X263158166Y-80025217D01*
X263136557Y-80001744D01*
X262989744Y-79842262D01*
X262793509Y-79689526D01*
X262793507Y-79689525D01*
X262793506Y-79689524D01*
X262574811Y-79571172D01*
X262574802Y-79571169D01*
X262339616Y-79490429D01*
X262094335Y-79449500D01*
X261845665Y-79449500D01*
X261600383Y-79490429D01*
X261365197Y-79571169D01*
X261365188Y-79571172D01*
X261146493Y-79689524D01*
X260950257Y-79842261D01*
X260781833Y-80025217D01*
X260645826Y-80233393D01*
X260545936Y-80461118D01*
X260484892Y-80702175D01*
X260484890Y-80702186D01*
X260469500Y-80887935D01*
X260469500Y-84212065D01*
X245544703Y-84212065D01*
X247538995Y-78727763D01*
X274450787Y-78727763D01*
X274480413Y-78997013D01*
X274480415Y-78997024D01*
X274548926Y-79259082D01*
X274548928Y-79259088D01*
X274654870Y-79508390D01*
X274726998Y-79626575D01*
X274795979Y-79739605D01*
X274795986Y-79739615D01*
X274969253Y-79947819D01*
X274969259Y-79947824D01*
X275170998Y-80128582D01*
X275396910Y-80278044D01*
X275642176Y-80393020D01*
X275642183Y-80393022D01*
X275642185Y-80393023D01*
X275901557Y-80471057D01*
X275901564Y-80471058D01*
X275901569Y-80471060D01*
X276169561Y-80510500D01*
X276169566Y-80510500D01*
X276372636Y-80510500D01*
X276424133Y-80506730D01*
X276575156Y-80495677D01*
X276730292Y-80461119D01*
X276839546Y-80436782D01*
X276839548Y-80436781D01*
X276839553Y-80436780D01*
X277092558Y-80340014D01*
X277328777Y-80207441D01*
X277543177Y-80041888D01*
X277731186Y-79846881D01*
X277888799Y-79626579D01*
X277962787Y-79482669D01*
X278012649Y-79385690D01*
X278012651Y-79385684D01*
X278012656Y-79385675D01*
X278100118Y-79129305D01*
X278149319Y-78862933D01*
X278159212Y-78592235D01*
X278129586Y-78322982D01*
X278061072Y-78060912D01*
X277955130Y-77811610D01*
X277814018Y-77580390D01*
X277724747Y-77473119D01*
X277640746Y-77372180D01*
X277640740Y-77372175D01*
X277439002Y-77191418D01*
X277213092Y-77041957D01*
X277213090Y-77041956D01*
X276967824Y-76926980D01*
X276967819Y-76926978D01*
X276967814Y-76926976D01*
X276708442Y-76848942D01*
X276708428Y-76848939D01*
X276592791Y-76831921D01*
X276440439Y-76809500D01*
X276237369Y-76809500D01*
X276237364Y-76809500D01*
X276034844Y-76824323D01*
X276034831Y-76824325D01*
X275770453Y-76883217D01*
X275770446Y-76883220D01*
X275517439Y-76979987D01*
X275281226Y-77112557D01*
X275066822Y-77278112D01*
X274878822Y-77473109D01*
X274878816Y-77473116D01*
X274721202Y-77693419D01*
X274721199Y-77693424D01*
X274597350Y-77934309D01*
X274597343Y-77934327D01*
X274509884Y-78190685D01*
X274509881Y-78190699D01*
X274460681Y-78457068D01*
X274460680Y-78457075D01*
X274450787Y-78727763D01*
X247538995Y-78727763D01*
X248903115Y-74976433D01*
X248944523Y-74920159D01*
X248964185Y-74907907D01*
X251342820Y-73718590D01*
X251398274Y-73705499D01*
X281181000Y-73705499D01*
X281248039Y-73725184D01*
G37*
%TD.AperFunction*%
%TD*%
%TA.AperFunction,Conductor*%
%TO.N,GND*%
G36*
X246277539Y-67329685D02*
G01*
X246323294Y-67382489D01*
X246334500Y-67434000D01*
X246334500Y-68680367D01*
X246334419Y-68680773D01*
X246334457Y-68704998D01*
X246334576Y-68705283D01*
X246334616Y-68705381D01*
X246345881Y-68716588D01*
X248248681Y-70619388D01*
X248282166Y-70680710D01*
X248285000Y-70707068D01*
X248285000Y-74816135D01*
X248265315Y-74883174D01*
X248236834Y-74914243D01*
X248003574Y-75094543D01*
X247911220Y-75165930D01*
X247668245Y-75389104D01*
X247653141Y-75402977D01*
X237402937Y-85653181D01*
X237341614Y-85686666D01*
X237315256Y-85689500D01*
X207134000Y-85689500D01*
X207066961Y-85669815D01*
X207021206Y-85617011D01*
X207010000Y-85565500D01*
X207010000Y-82744500D01*
X207029685Y-82677461D01*
X207082489Y-82631706D01*
X207134000Y-82620500D01*
X208172720Y-82620500D01*
X208172723Y-82620500D01*
X208241448Y-82610618D01*
X208245821Y-82610148D01*
X208315072Y-82605196D01*
X208382941Y-82590431D01*
X208387248Y-82589654D01*
X208455966Y-82579775D01*
X208522555Y-82560222D01*
X208526839Y-82559127D01*
X208594690Y-82544369D01*
X208659750Y-82520102D01*
X208663916Y-82518715D01*
X208730532Y-82499156D01*
X208793701Y-82470306D01*
X208797727Y-82468639D01*
X208862805Y-82444367D01*
X208923737Y-82411094D01*
X208927680Y-82409121D01*
X208990831Y-82380282D01*
X209049259Y-82342731D01*
X209053024Y-82340498D01*
X209113959Y-82307226D01*
X209169526Y-82265627D01*
X209173153Y-82263109D01*
X209231561Y-82225574D01*
X209284032Y-82180106D01*
X209287467Y-82177339D01*
X209308762Y-82161398D01*
X209343039Y-82135739D01*
X209545383Y-81933395D01*
X214575088Y-76903690D01*
X214625739Y-76853039D01*
X214667347Y-76797455D01*
X214670111Y-76794026D01*
X214715573Y-76741562D01*
X214753119Y-76683136D01*
X214755625Y-76679530D01*
X214797226Y-76623959D01*
X214830494Y-76563031D01*
X214832746Y-76559237D01*
X214870282Y-76500831D01*
X214899120Y-76437684D01*
X214901102Y-76433724D01*
X214925200Y-76389592D01*
X214934367Y-76372805D01*
X214958632Y-76307743D01*
X214960310Y-76303693D01*
X214989156Y-76240533D01*
X215008716Y-76173913D01*
X215010100Y-76169755D01*
X215034369Y-76104690D01*
X215049129Y-76036837D01*
X215050215Y-76032580D01*
X215069775Y-75965967D01*
X215079655Y-75897250D01*
X215080433Y-75892932D01*
X215095196Y-75825072D01*
X215100148Y-75755819D01*
X215100617Y-75751452D01*
X215110500Y-75682723D01*
X215110500Y-75396565D01*
X215110500Y-74614718D01*
X215130185Y-74547679D01*
X215182989Y-74501924D01*
X215252147Y-74491980D01*
X215315703Y-74521005D01*
X215330043Y-74535677D01*
X215359799Y-74571646D01*
X216213664Y-73717780D01*
X216352855Y-73892320D01*
X216522299Y-74040358D01*
X216569808Y-74068743D01*
X215710768Y-74927783D01*
X215710769Y-74927785D01*
X215944617Y-75097685D01*
X215944635Y-75097697D01*
X216214778Y-75246209D01*
X216214786Y-75246213D01*
X216501406Y-75359693D01*
X216800008Y-75436361D01*
X216800017Y-75436363D01*
X217105847Y-75474999D01*
X217105861Y-75475000D01*
X217414139Y-75475000D01*
X217414152Y-75474999D01*
X217719982Y-75436363D01*
X217719991Y-75436361D01*
X218018593Y-75359693D01*
X218305213Y-75246213D01*
X218305221Y-75246209D01*
X218575364Y-75097697D01*
X218575374Y-75097690D01*
X218809229Y-74927783D01*
X218809230Y-74927783D01*
X217950125Y-74068678D01*
X218085747Y-73970144D01*
X218241239Y-73807512D01*
X218302801Y-73714248D01*
X219160199Y-74571645D01*
X219246014Y-74467916D01*
X219411194Y-74207632D01*
X219411197Y-74207626D01*
X219542453Y-73928694D01*
X219542455Y-73928689D01*
X219637719Y-73635499D01*
X219695487Y-73332670D01*
X219695488Y-73332663D01*
X219714844Y-73025005D01*
X219714844Y-73024994D01*
X219695488Y-72717336D01*
X219695487Y-72717329D01*
X219637719Y-72414500D01*
X219542455Y-72121310D01*
X219542453Y-72121305D01*
X219411197Y-71842373D01*
X219411194Y-71842367D01*
X219246014Y-71582083D01*
X219160198Y-71478352D01*
X218306333Y-72332217D01*
X218167145Y-72157680D01*
X217997701Y-72009642D01*
X217950190Y-71981255D01*
X218809230Y-71122215D01*
X218809229Y-71122213D01*
X218575382Y-70952314D01*
X218575364Y-70952302D01*
X218305221Y-70803790D01*
X218305213Y-70803786D01*
X218018593Y-70690306D01*
X217719991Y-70613638D01*
X217719982Y-70613636D01*
X217414152Y-70575000D01*
X217105847Y-70575000D01*
X216800017Y-70613636D01*
X216800008Y-70613638D01*
X216501406Y-70690306D01*
X216214786Y-70803786D01*
X216214778Y-70803790D01*
X215944635Y-70952302D01*
X215944617Y-70952314D01*
X215710769Y-71122214D01*
X215710768Y-71122215D01*
X216569874Y-71981321D01*
X216434253Y-72079856D01*
X216278761Y-72242488D01*
X216217198Y-72335751D01*
X215359799Y-71478352D01*
X215359798Y-71478352D01*
X215330043Y-71514321D01*
X215272143Y-71553428D01*
X215202292Y-71555024D01*
X215142666Y-71518602D01*
X215112197Y-71455726D01*
X215110500Y-71435280D01*
X215110500Y-68164500D01*
X215130185Y-68097461D01*
X215182989Y-68051706D01*
X215234500Y-68040500D01*
X241499870Y-68040500D01*
X241499873Y-68040500D01*
X241568598Y-68030618D01*
X241572971Y-68030148D01*
X241642222Y-68025196D01*
X241710091Y-68010431D01*
X241714398Y-68009654D01*
X241783116Y-67999775D01*
X241849705Y-67980222D01*
X241853989Y-67979127D01*
X241921840Y-67964369D01*
X241986900Y-67940102D01*
X241991066Y-67938715D01*
X242057682Y-67919156D01*
X242120851Y-67890306D01*
X242124877Y-67888639D01*
X242189955Y-67864367D01*
X242250887Y-67831094D01*
X242254830Y-67829121D01*
X242317981Y-67800282D01*
X242376409Y-67762731D01*
X242380174Y-67760498D01*
X242441109Y-67727226D01*
X242496676Y-67685627D01*
X242500303Y-67683109D01*
X242558711Y-67645574D01*
X242611182Y-67600106D01*
X242614617Y-67597339D01*
X242670189Y-67555739D01*
X242872533Y-67353395D01*
X242879609Y-67346319D01*
X242940932Y-67312834D01*
X242967290Y-67310000D01*
X246210500Y-67310000D01*
X246277539Y-67329685D01*
G37*
%TD.AperFunction*%
%TD*%
M02*
